ply
format ascii 1.0
element vertex 278
property float x
property float y
property float z
element face 242
property list uchar int vertex_index
end_header
-12.739565 26.946716 -70.018173
-5.624463 21.40056 -69.535439
-28.242828 21.245871 -64.30249
-8.889956 24.448641 -70.466385
-5.532343 25.623814 -67.884689
-20.777428 25.31465 -68.741577
-24.44957 25.215597 -65.214546
-24.86203 21.43977 -68.166527
-16.513315 28.152 -68.402946
-16.713011 24.523634 -71.052628
-12.681582 22.662584 -72.072296
-5.983762 16.48016 -70.338943
-31.315235 19.804424 -59.483944
-20.831488 23.294777 -70.040291
-22.740875 23.56275 -68.607918
-22.989962 21.249847 -69.699112
-25.02536 19.170551 -69.048523
-22.850529 18.905573 -70.552299
-14.509259 29.236872 -67.777687
-14.554895 27.679468 -69.364845
-16.588095 26.495237 -69.866791
-14.664906 25.786995 -70.714844
-14.770402 23.609974 -71.770592
-12.762739 24.88903 -71.222557
-7.238864 23.039619 -70.159256
-9.054275 22.265598 -71.293602
-5.83343 18.957813 -70.106903
-26.357977 23.291567 -64.944374
-26.09791 24.82729 -63.032444
-27.88802 22.89959 -62.784714
-29.464836 22.044754 -60.429657
-29.883581 20.593426 -62.003124
-31.691265 18.048475 -61.213924
-30.118694 18.852757 -63.483826
-10.822744 25.840139 -70.425613
-9.025895 26.606947 -69.386292
-7.291544 25.264931 -69.272079
-5.583963 23.604103 -68.831749
-20.49354 27.056665 -67.222649
-22.725697 25.414749 -67.030914
-24.613796 23.479828 -66.959877
-26.572578 21.423712 -66.431396
-28.553568 19.203978 -65.52993
-26.98864 19.125154 -67.351669
-18.567389 26.958275 -68.649895
-18.786346 25.080633 -70.018089
-18.734224 22.911333 -71.175667
-16.817423 22.283651 -71.945541
-14.674154 21.333971 -72.473877
-10.803935 23.755224 -71.386749
-10.85291 21.289162 -72.113335
-10.904679 18.936874 -72.469185
-4.097815 21.582096 -68.187332
-4.281282 19.284397 -68.797287
-30.649509 21.293655 -57.88089
-32.482513 18.888277 -56.975891
-21.943832 21.232749 -70.30019
-21.910725 22.272312 -69.869701
-20.864595 22.255215 -70.470779
-21.874115 20.060612 -70.726784
-22.920246 20.07771 -70.125706
-21.943832 21.232749 -70.30019
-21.919092 18.662658 -71.048515
-21.874115 20.060612 -70.726784
-13.64723 27.313092 -69.691509
-13.569107 28.186231 -68.957668
-12.661442 27.819855 -69.284332
-6.472523 21.041407 -70.175365
-7.279724 21.860936 -70.487274
-6.431664 22.22009 -69.847347
-5.728947 20.179187 -69.821171
-6.577006 19.820033 -70.461097
-6.472523 21.041407 -70.175365
-8.972786 27.514226 -68.697213
-9.950879 27.18833 -69.269962
-6.411943 25.444373 -68.578384
-7.254955 26.221086 -68.684345
-6.375354 26.400527 -67.99065
-26.019269 17.930098 -68.627171
-24.983933 17.939696 -69.396965
-16.462229 28.87258 -67.505443
-15.460201 29.415017 -67.192814
-15.511287 28.694436 -68.090317
-17.439271 28.325969 -67.704334
-16.462229 28.87258 -67.505443
-17.540352 27.555138 -68.526421
-18.466308 27.729106 -67.827809
-17.439271 28.325969 -67.704334
-12.761191 21.394075 -72.36446
-13.757477 20.729768 -72.56525
-13.677868 21.998278 -72.273087
-9.929537 20.605174 -71.934143
-9.953592 21.77738 -71.703469
-9.030219 21.093392 -71.524277
-9.955421 19.42903 -72.112068
-10.878794 20.113018 -72.29126
-9.929537 20.605174 -71.934143
-10.080361 18.232881 -72.255653
-9.955421 19.42903 -72.112068
-6.784002 16.142117 -70.813449
-6.703462 17.359375 -70.756553
-6.03377 15.195595 -70.302925
-6.784002 16.142117 -70.813449
-3.384442 21.735217 -67.406384
-4.090024 22.738937 -67.807525
-3.684603 18.294073 -68.283436
-3.574228 19.441029 -68.052788
-4.360741 18.082957 -68.958134
-3.684603 18.294073 -68.283436
-24.290347 25.885537 -64.288185
-23.410501 26.077799 -65.320892
-25.83145 25.442124 -62.091499
-26.849518 24.478898 -61.913059
-32.119906 18.610767 -59.101883
-32.703544 18.152693 -57.847856
-31.898874 19.34635 -58.229917
-32.51338 16.762026 -60.667144
-31.820628 17.072608 -61.844206
-29.458042 17.914617 -65.080856
-28.700643 17.931474 -65.99485
-5.549772 26.593272 -67.299163
-6.375354 26.400527 -67.99065
-23.896517 17.807207 -70.148853
-24.983933 17.939696 -69.396965
-23.937945 19.038062 -69.800411
-22.946143 17.509479 -70.727867
-23.896517 17.807207 -70.148853
-22.946143 17.509479 -70.727867
-21.919092 18.662658 -71.048515
-13.546288 28.964934 -68.164089
-13.595036 29.744059 -67.270603
-14.532077 28.45817 -68.571266
-13.546288 28.964934 -68.164089
-13.569107 28.186231 -68.957668
-8.187429 21.473925 -71.054447
-8.14657 22.652608 -70.726429
-7.279724 21.860936 -70.487274
-9.030219 21.093392 -71.524277
-8.187429 21.473925 -71.054447
-6.628296 18.598202 -70.640534
-6.577006 19.820033 -70.461097
-5.908596 17.718986 -70.222923
-6.703462 17.359375 -70.756553
-6.628296 18.598202 -70.640534
-27.744573 23.515048 -61.789194
-26.849518 24.478898 -61.913059
-26.992965 23.86344 -62.908579
-28.676428 22.472172 -61.607185
-28.532981 23.087631 -60.611666
-27.744573 23.515048 -61.789194
-31.034343 17.474749 -62.979157
-31.820628 17.072608 -61.844206
-30.90498 18.450616 -62.348875
-11.807714 27.358215 -69.585903
-12.661442 27.819855 -69.284332
-10.849304 26.804927 -69.789623
-11.781154 26.393428 -70.221893
-11.807714 27.358215 -69.585903
-9.924319 26.223543 -69.905952
-10.849304 26.804927 -69.789623
-9.950879 27.18833 -69.269962
-8.12213 26.892094 -68.741451
-8.972786 27.514226 -68.697213
-8.15872 25.935939 -69.329185
-8.12213 26.892094 -68.741451
-7.254955 26.221086 -68.684345
-21.432485 26.998333 -66.324944
-20.444599 27.739855 -66.255398
-22.548564 26.177375 -66.229076
-21.432485 26.998333 -66.324944
-21.609618 26.235707 -67.126781
-23.587634 25.315173 -66.12273
-23.410501 26.077799 -65.320892
-22.548564 26.177375 -66.229076
-27.918178 17.892062 -66.90572
-28.700643 17.931474 -65.99485
-27.771104 19.164566 -66.440799
-27.000909 17.9074 -67.778743
-26.007 19.147852 -68.200096
-26.019269 17.930098 -68.627171
-27.918178 17.892062 -66.90572
-27.000909 17.9074 -67.778743
-14.531412 29.925506 -66.800312
-13.595036 29.744059 -67.270603
-14.531412 29.925506 -66.800312
-15.460201 29.415017 -67.192814
-19.429384 27.778301 -67.114186
-20.444599 27.739855 -66.255398
-19.530465 27.00747 -67.936272
-19.429384 27.778301 -67.114186
-18.466308 27.729106 -67.827809
-19.815963 22.063492 -71.038467
-20.864595 22.255215 -70.470779
-19.782856 23.103055 -70.607979
-18.853378 21.652934 -71.537403
-19.815963 22.063492 -71.038467
-17.894978 21.339093 -71.92234
-18.853378 21.652934 -71.537403
-17.775824 22.597492 -71.560604
-16.798991 21.058273 -72.242367
-17.894978 21.339093 -71.92234
-15.727356 20.583433 -72.506535
-16.798991 21.058273 -72.242367
-15.745788 21.808811 -72.209709
-14.715674 20.057685 -72.671601
-15.727356 20.583433 -72.506535
-14.715674 20.057685 -72.671601
-13.757477 20.729768 -72.56525
-11.846855 20.707364 -72.38498
-12.761191 21.394075 -72.36446
-11.767246 21.975873 -72.092816
-11.872739 19.53122 -72.562905
-11.846855 20.707364 -72.38498
-10.878794 20.113018 -72.29126
-11.827357 18.255864 -72.665161
-11.872739 19.53122 -72.562905
-10.933924 17.551735 -72.511719
-11.827357 18.255864 -72.665161
-10.933924 17.551735 -72.511719
-10.080361 18.232881 -72.255653
-4.732645 25.811134 -67.095363
-5.549772 26.593272 -67.299163
-4.807288 24.759797 -67.656204
-4.732645 25.811134 -67.095363
-4.833098 23.749941 -68.129734
-5.558153 24.613958 -68.358219
-4.807288 24.759797 -67.656204
-4.840889 22.5931 -68.50954
-4.833098 23.749941 -68.129734
-4.090024 22.738937 -67.807525
-3.482494 20.589879 -67.74781
-3.384442 21.735217 -67.406384
-4.189548 20.433246 -68.49231
-3.482494 20.589879 -67.74781
-3.574228 19.441029 -68.052788
-5.136815 17.919665 -69.612942
-5.057356 19.121105 -69.452095
-4.360741 18.082957 -68.958134
-5.211982 16.680838 -69.728961
-5.908596 17.718986 -70.222923
-5.136815 17.919665 -69.612942
-5.297646 15.467654 -69.769344
-5.211982 16.680838 -69.728961
-6.03377 15.195595 -70.302925
-5.297646 15.467654 -69.769344
-25.114517 25.691384 -63.197134
-24.290347 25.885537 -64.288185
-25.27374 25.021444 -64.123495
-25.114517 25.691384 -63.197134
-25.83145 25.442124 -62.091499
-29.182226 22.673112 -59.415239
-28.532981 23.087631 -60.611666
-29.774563 22.297562 -58.140856
-29.182226 22.673112 -59.415239
-30.057173 21.669204 -59.155273
-30.392103 21.733165 -56.800892
-29.774563 22.297562 -58.140856
-31.183938 20.777514 -56.569116
-30.392103 21.733165 -56.800892
-32.10044 19.574824 -56.116617
-31.183938 20.777514 -56.569116
-31.566011 20.090966 -57.42839
-32.905592 18.47211 -55.650019
-32.10044 19.574824 -56.116617
-33.240364 17.738311 -56.495722
-32.905592 18.47211 -55.650019
-33.240364 17.738311 -56.495722
-32.703544 18.152693 -57.847856
-32.307921 17.732792 -59.966873
-32.119906 18.610767 -59.101883
-31.50325 18.92645 -60.348934
-32.307921 17.732792 -59.966873
-32.51338 16.762026 -60.667144
-30.240605 17.739007 -64.057805
-29.336131 19.028368 -64.506878
-29.458042 17.914617 -65.080856
-31.034343 17.474749 -62.979157
-30.240605 17.739007 -64.057805
3 56 15 57
3 58 57 13
3 56 57 58
3 59 17 60
3 61 60 15
3 59 60 61
3 63 62 17
3 0 64 66
3 64 19 65
3 64 65 66
3 0 21 19
3 0 23 21
3 1 67 69
3 69 68 24
3 67 68 69
3 1 70 72
3 70 26 71
3 70 71 72
3 2 29 27
3 2 31 29
3 2 33 31
3 73 35 74
3 4 75 77
3 75 36 76
3 75 76 77
3 4 37 36
3 5 39 38
3 7 40 14
3 7 41 40
3 7 43 41
3 79 78 16
3 8 80 82
3 82 81 18
3 80 81 82
3 8 83 84
3 8 85 87
3 85 44 86
3 85 86 87
3 9 45 20
3 9 46 45
3 9 47 46
3 10 48 22
3 10 88 90
3 90 89 48
3 88 89 90
3 3 49 34
3 91 50 92
3 93 92 25
3 91 92 93
3 94 51 95
3 96 95 50
3 94 95 96
3 98 97 51
3 11 99 100
3 11 101 102
3 103 52 104
3 105 53 106
3 108 107 53
3 6 109 110
3 112 111 28
3 12 54 30
3 12 55 54
3 12 113 115
3 115 114 55
3 113 114 115
3 117 116 32
3 119 118 42
3 120 4 121
3 13 14 5
3 15 14 13
3 15 7 14
3 15 16 7
3 17 16 15
3 17 122 124
3 124 123 16
3 122 123 124
3 17 125 126
3 128 127 17
3 129 18 130
3 19 131 133
3 131 18 132
3 131 132 133
3 19 8 18
3 19 20 8
3 21 20 19
3 21 9 20
3 21 22 9
3 23 22 21
3 23 10 22
3 24 25 3
3 134 25 135
3 136 135 24
3 134 135 136
3 138 137 25
3 26 139 140
3 26 141 143
3 141 11 142
3 141 142 143
3 27 28 6
3 29 28 27
3 29 144 146
3 146 145 28
3 144 145 146
3 29 147 149
3 147 30 148
3 147 148 149
3 31 30 29
3 31 12 30
3 31 32 12
3 33 32 31
3 33 150 152
3 152 151 32
3 150 151 152
3 153 0 154
3 155 34 156
3 157 156 0
3 155 156 157
3 35 158 160
3 158 34 159
3 158 159 160
3 35 3 34
3 161 35 162
3 36 163 165
3 163 35 164
3 163 164 165
3 36 3 35
3 36 24 3
3 37 24 36
3 37 1 24
3 38 166 167
3 39 168 170
3 170 169 38
3 168 169 170
3 39 171 173
3 171 6 172
3 171 172 173
3 14 39 5
3 40 39 14
3 40 6 39
3 40 27 6
3 41 27 40
3 41 2 27
3 41 42 2
3 43 42 41
3 43 174 176
3 176 175 42
3 174 175 176
3 16 43 7
3 177 43 178
3 179 178 16
3 177 178 179
3 181 180 43
3 18 182 183
3 185 184 18
3 186 38 187
3 44 188 190
3 188 38 189
3 188 189 190
3 44 5 38
3 20 44 8
3 45 44 20
3 45 5 44
3 45 13 5
3 46 13 45
3 46 191 193
3 193 192 13
3 191 192 193
3 46 194 195
3 47 196 198
3 198 197 46
3 196 197 198
3 47 199 200
3 22 47 9
3 48 47 22
3 48 201 203
3 203 202 47
3 201 202 203
3 48 204 205
3 207 206 48
3 34 23 0
3 49 23 34
3 49 10 23
3 25 49 3
3 50 49 25
3 50 10 49
3 50 208 210
3 210 209 10
3 208 209 210
3 51 211 213
3 213 212 50
3 211 212 213
3 51 214 215
3 51 216 217
3 219 218 51
3 220 4 221
3 222 4 223
3 224 37 225
3 226 225 4
3 224 225 226
3 52 227 229
3 227 37 228
3 227 228 229
3 52 1 37
3 230 52 231
3 53 232 234
3 232 52 233
3 232 233 234
3 53 1 52
3 53 26 1
3 235 26 236
3 237 236 53
3 235 236 237
3 238 11 239
3 240 239 26
3 238 239 240
3 241 11 242
3 244 243 11
3 28 245 247
3 247 246 6
3 245 246 247
3 249 248 28
3 30 250 251
3 54 252 254
3 254 253 30
3 252 253 254
3 54 255 256
3 54 257 258
3 55 259 261
3 261 260 54
3 259 260 261
3 55 262 263
3 55 264 265
3 267 266 55
3 32 268 270
3 270 269 12
3 268 269 270
3 272 271 32
3 42 33 2
3 273 33 274
3 275 274 42
3 273 274 275
3 277 276 33
