ply
format ascii 1.0
element vertex 729
property float x
property float y
property float z
element face 765
property list uchar int vertex_index
end_header
-16.575109 -62.446892 -32.293568
-14.461926 -37.684673 -31.60664
-3.994784 -100.154594 -32.628738
-15.756681 -87.258865 -34.401756
-20.65406 -96.706924 -27.292664
-10.660212 -48.886456 -38.201885
-10.898592 -61.805645 -38.74511
-14.979403 -49.184036 -32.005592
-9.805895 -36.817955 -37.712406
-15.242822 -103.856842 -26.901981
-11.188544 -96.053123 -34.735035
-5.499354 -83.653511 -40.273411
-17.252865 -75.573921 -33.167027
-9.450857 -73.842491 -39.524006
-7.791169 -47.397781 -41.401192
-16.313063 -42.887398 -29.143559
-16.703354 -48.825539 -29.008694
-14.497495 -43.310581 -31.828531
-12.360336 -43.123436 -34.952835
-12.124 -37.494144 -34.596733
-18.422976 -92.716064 -31.165417
-16.227722 -97.03656 -31.5135
-13.880604 -92.295906 -34.755791
-8.352298 -90.145943 -37.872581
-10.809888 -86.135124 -37.689796
-19.742313 -74.656525 -29.597338
-17.125031 -68.918205 -32.614697
-7.038153 -59.72694 -41.725544
-10.48 -67.909874 -39.049583
-6.058072 -65.70858 -41.930836
-4.316864 -71.051247 -42.32341
-16.692936 -37.491707 -28.869761
-6.163639 -103.758568 -28.577759
-21.910589 -91.548729 -27.094776
-19.704453 -87.303192 -30.573189
-13.646776 -55.960278 -35.294994
-14.111869 -62.310497 -35.530373
-10.865894 -55.092682 -38.526669
-7.708489 -53.701511 -41.493649
-15.778894 -55.703659 -32.100464
-12.905939 -49.157032 -35.200829
-10.15792 -42.502815 -38.007824
-17.874165 -32.401768 -28.316063
-14.977753 -32.65683 -31.406055
-12.419728 -32.357655 -34.255943
-11.748682 -105.712845 -25.693869
-9.976473 -102.927406 -30.092598
-13.471564 -100.640549 -31.046885
-7.836256 -98.723083 -34.104084
-5.168711 -93.353653 -37.443703
-2.693183 -87.076126 -40.075092
-21.990774 -79.724236 -26.280697
-19.916735 -81.190826 -30.187141
-16.767408 -81.77935 -33.855625
-14.207091 -68.971558 -35.942856
-13.712633 -75.351883 -36.547565
-12.593347 -81.036415 -37.18689
-7.656379 -79.027176 -40.08329
-15.399191 -40.21529 -30.382389
-15.369299 -42.909 -30.515291
-14.267151 -40.308304 -31.905655
-13.224238 -40.284054 -33.331291
-13.271041 -37.643181 -33.109188
-1.024418 -98.240608 -33.535889
-17.147179 -90.014519 -32.883121
-16.284019 -92.522789 -33.065372
-14.826644 -89.755798 -34.718559
-12.475408 -89.266037 -36.257881
-13.451009 -86.817162 -36.082664
-17.8643 -65.282333 -30.818516
-18.291666 -68.793037 -30.864559
-16.811989 -65.693512 -32.542168
-6.567098 -62.842327 -41.830254
-4.338158 -61.447243 -43.186855
-3.738294 -64.447723 -43.215878
-17.585287 -39.911659 -27.494249
-17.8515 -37.276409 -27.469843
-7.093002 -105.059891 -26.420361
-22.308605 -88.852852 -26.690329
-20.9013 -89.543068 -28.85808
-21.166494 -86.690285 -28.603838
-12.212186 -52.471405 -36.671833
-12.287104 -55.396145 -36.939537
-10.743895 -51.842186 -38.40757
-7.81196 -50.458946 -41.431019
-19.126862 -52.905552 -24.699474
-18.291239 -50.702911 -26.262653
-16.595594 -55.446129 -30.604361
-15.362678 -52.463013 -32.058372
-14.340109 -52.360714 -33.6735
-13.970863 -49.172031 -33.610291
-11.082416 -39.891201 -36.307491
-11.277216 -42.96944 -36.498878
-9.95146 -39.502735 -37.862514
-8.691544 -38.927059 -39.553383
-8.608869 -36.270897 -39.339989
-16.463659 -32.561546 -29.816422
-15.778938 -30.377287 -30.95216
-11.090792 -32.299232 -35.805538
-13.527843 -105.004967 -26.296234
-10.993966 -104.483002 -27.927553
-12.667231 -103.631111 -28.562494
-13.739519 -96.609589 -33.298012
-14.909193 -98.852348 -31.448956
-12.269703 -98.48996 -33.029701
-10.705009 -99.925659 -32.658581
-9.45142 -97.592186 -34.514778
-6.650359 -96.111801 -35.8843
-8.219408 -94.853714 -36.219997
-6.952853 -86.832916 -39.161133
-5.657486 -88.808006 -39.017509
-4.154255 -85.475685 -40.250534
-1.296234 -83.68222 -41.225262
-2.658607 -81.706894 -41.42662
-21.720446 -76.546204 -26.009121
-19.893919 -78.0215 -29.895489
-18.58736 -78.567101 -31.772825
-18.54052 -81.857162 -31.987946
-17.160315 -78.94812 -33.435112
-12.57311 -62.12352 -37.176888
-14.073483 -65.492851 -35.855618
-12.482464 -65.465096 -37.4123
-9.975579 -70.915695 -39.321178
-12.150687 -71.692177 -37.772743
-11.570338 -74.66349 -38.146584
-13.214932 -78.23436 -36.884254
-11.003132 -77.717873 -38.388958
-10.13306 -80.154655 -38.731964
-8.51925 -76.390923 -39.88578
-3.341725 -73.530006 -42.455215
-8.711135 -106.826279 -21.724455
-9.190685 -45.134857 -39.634136
-9.248404 -48.113167 -39.834526
-7.834178 -44.455067 -41.217522
-17.442654 -48.30669 -27.639412
-16.471994 -45.820679 -29.056816
-15.623482 -46.100319 -30.447001
-14.668897 -46.108089 -31.954475
-13.718508 -46.249756 -33.451618
-13.381064 -43.062782 -33.441982
-12.135638 -40.041344 -34.828419
-10.946214 -37.21376 -36.165707
-19.578358 -94.747108 -29.368839
-18.566141 -96.969032 -29.538586
-17.352131 -94.989922 -31.458075
-15.098165 -94.728622 -33.247536
-12.480987 -94.083038 -34.961243
-9.648604 -93.262138 -36.436401
-11.138363 -91.284439 -36.456924
-9.617765 -88.325668 -37.841232
-8.301153 -85.091637 -39.007317
-20.66787 -73.997719 -27.673836
-17.237831 -72.322845 -32.894176
-8.953876 -60.792675 -40.333176
-10.671221 -64.756172 -38.942528
-8.627194 -63.77634 -40.466354
-8.433457 -67.033607 -40.459522
-7.640601 -69.857513 -40.786942
-6.866558 -72.703033 -41.002407
-5.288561 -68.683594 -42.095444
-17.361866 -42.627998 -27.619337
-16.518526 -40.274891 -28.890738
-15.593947 -37.627205 -30.208632
-5.112317 -102.052383 -30.738428
-21.359621 -94.248795 -27.286331
-20.258919 -92.115814 -29.293579
-19.128727 -89.990479 -30.970417
-17.828505 -87.365814 -32.5947
-15.145644 -59.127144 -33.76886
-15.379721 -62.259693 -33.958847
-13.839079 -58.964676 -35.468739
-12.401284 -58.601009 -37.116325
-10.959164 -58.574551 -38.6105
-9.333726 -51.29047 -39.937172
-9.3461 -54.693581 -40.041553
-9.319484 -57.93121 -40.090019
-7.503763 -56.722126 -41.554264
-19.855761 -55.189487 -23.158684
-17.100025 -58.796234 -30.554188
-16.119091 -58.921116 -32.268578
-14.754063 -55.711182 -33.705235
-13.321709 -52.480186 -35.183395
-11.812364 -49.03389 -36.709999
-12.603438 -46.142879 -35.109131
-11.528109 -45.903446 -36.614483
-10.437547 -45.758015 -38.088734
-9.018455 -42.021435 -39.499084
-17.22798 -34.889217 -28.574413
-15.925651 -34.923943 -30.059273
-14.655306 -35.192177 -31.49086
-14.259787 -30.177059 -32.555565
-13.716691 -32.759987 -32.770737
-13.32722 -35.126633 -33.051865
-12.131828 -34.964134 -34.501732
-10.962366 -34.786701 -35.972473
-9.77703 -34.288868 -37.512875
-8.602911 -33.759052 -39.087196
-10.467072 -106.877647 -22.657333
-12.402703 -106.657364 -23.318142
-9.912181 -106.062042 -25.004375
-9.086477 -104.9655 -27.226645
-8.035471 -103.541542 -29.374722
-7.0357 -101.695168 -31.538155
-14.420262 -102.347008 -29.082808
-11.603975 -101.896851 -30.764645
-8.757571 -100.961372 -32.225353
-5.897875 -99.527397 -33.542747
-4.955614 -97.321602 -35.205559
-3.487387 -94.58609 -36.87735
-2.341425 -91.684776 -38.349003
-6.770678 -91.832916 -37.78109
-3.845523 -90.157288 -38.8969
-0.859504 -88.477234 -39.712769
-22.192379 -82.875366 -26.479107
-20.899126 -77.223534 -28.012869
-21.098984 -80.533249 -28.23456
-21.142494 -83.652725 -28.508629
-19.904095 -84.220032 -30.362686
-18.264381 -84.722946 -32.297852
-16.277 -84.561882 -34.204288
-15.57011 -65.808731 -34.196873
-15.7354 -69.11348 -34.355015
-15.742469 -72.372185 -34.606426
-12.503695 -68.695885 -37.471157
-14.117677 -72.37484 -36.164967
-15.713305 -75.570984 -34.790451
-15.413129 -78.752327 -35.115692
-14.735068 -81.560982 -35.619049
-14.189392 -84.224419 -35.864094
-11.957954 -83.700714 -37.365536
-9.356012 -82.695488 -38.878082
-6.725537 -81.515305 -40.183002
-5.963199 -75.064865 -41.228783
-5.112843 -77.574158 -41.313877
-4.047167 -80.028595 -41.348423
-1.057669 -78.030159 -42.496735
-2.509601 -99.197601 -33.082313
-1.561317 -99.34193 -32.515127
-3.0465 -100.298924 -32.061551
-3.464866 -99.053726 -33.541513
-1.979683 -98.096733 -33.995088
-2.509601 -99.197601 -33.082313
-3.611348 -59.498486 -43.752719
-4.645358 -59.940325 -43.146912
-3.161919 -60.744121 -43.837137
-3.611348 -59.498486 -43.752719
-18.437989 -37.136083 -26.769319
-18.223069 -38.390608 -26.833004
-7.54611 -105.587295 -25.240082
-6.264427 -105.057606 -25.738955
-22.319631 -87.366485 -26.633371
-22.825722 -88.298389 -25.629145
-21.748575 -86.285202 -27.590126
-21.73755 -87.771569 -27.647084
-22.319631 -87.366485 -26.633371
-18.249379 -49.338656 -26.247371
-18.658556 -50.426946 -25.487341
-15.585566 -50.755896 -31.294864
-15.440342 -49.221455 -31.239521
-15.171041 -50.823524 -32.031982
-15.777204 -52.395384 -31.321254
-15.585566 -50.755896 -31.294864
-16.182059 -29.118623 -30.827371
-16.502121 -30.296703 -30.218668
-14.385333 -104.430904 -26.599107
-14.778846 -105.063698 -25.358389
-15.636335 -104.489635 -25.661262
-20.166328 -97.770214 -27.313182
-21.058671 -97.556423 -26.241486
-21.506596 -74.807175 -25.926575
-21.957998 -75.896264 -25.058656
-17.920113 -77.070511 -32.469926
-18.623363 -77.005005 -31.579093
-17.956116 -75.508415 -32.276194
-9.138208 -107.06152 -20.59561
-7.916174 -106.67553 -21.087454
-7.766386 -42.897957 -41.183605
-8.512431 -44.794962 -40.425829
-8.444639 -43.237852 -40.391913
-16.392528 -44.354039 -29.100188
-16.899753 -45.547921 -28.355018
-16.820288 -44.08128 -28.39839
-17.813707 -70.539608 -31.881276
-18.397025 -70.477024 -31.006208
-17.708348 -68.855621 -31.739628
-17.181431 -70.620525 -32.754436
-17.870107 -72.241928 -32.021016
-17.813707 -70.539608 -31.881276
-3.238602 -65.736755 -43.307
-2.477946 -63.620555 -43.859369
-17.85539 -42.457092 -26.910274
-17.777418 -43.806486 -26.940499
-4.804467 -103.082043 -28.978829
-5.264126 -103.785466 -27.948934
-5.637978 -102.905475 -29.658093
-4.278806 -102.22895 -30.059164
-4.804467 -103.082043 -28.978829
-22.376686 -92.411652 -26.106192
-22.582245 -91.132892 -25.918214
-21.635105 -92.898762 -27.190554
-22.101202 -93.761685 -26.20197
-22.376686 -92.411652 -26.106192
-19.801792 -53.742939 -23.168605
-20.105277 -54.676023 -22.424696
-19.274158 -54.517037 -24.603902
-18.862522 -53.403422 -25.38928
-17.185196 -50.189167 -28.321396
-17.554846 -49.929743 -27.636755
-17.073004 -48.566114 -28.324053
-8.142346 -38.680151 -40.279672
-8.05017 -37.262806 -40.25638
-18.545319 -32.445085 -27.563932
-18.310281 -31.345828 -28.08933
-18.161284 -33.596806 -27.750345
-18.545319 -32.445085 -27.563932
-17.551073 -33.645493 -28.445238
-17.838191 -34.84053 -27.87952
-18.161284 -33.596806 -27.750345
-13.888893 -28.974041 -33.161203
-14.651252 -29.075516 -32.382599
-13.06821 -32.558821 -33.51334
-13.283941 -31.392305 -33.407394
-12.635459 -31.191139 -34.149997
-10.370417 -33.257976 -36.700693
-11.026579 -33.542967 -35.889005
-10.434631 -32.014242 -36.617226
-9.777749 -33.00906 -37.470894
-10.369698 -34.537785 -36.742674
-10.370417 -33.257976 -36.700693
-8.002914 -32.155214 -39.821136
-8.560344 -32.422722 -39.070966
-7.978033 -33.415936 -39.94009
-8.002914 -32.155214 -39.821136
-11.746871 -107.075752 -21.804054
-10.829801 -107.148415 -21.478473
-12.075693 -106.185104 -24.506006
-13.28805 -106.355202 -23.660474
-12.96104 -105.882942 -24.848337
-16.828084 -98.078427 -30.469684
-17.997293 -98.044663 -29.482228
-17.396932 -97.002796 -30.526043
-14.760964 -100.719005 -30.204739
-15.479778 -99.824905 -30.405774
-14.190379 -99.746448 -31.24792
-13.945913 -101.493778 -30.064847
-15.235313 -101.572235 -29.222701
-14.760964 -100.719005 -30.204739
-1.116483 -86.056816 -40.521633
-0.199644 -86.75737 -40.340471
-1.776343 -87.77668 -39.89393
0.256672 -82.620956 -41.656904
-0.497267 -81.825244 -41.791211
-22.462219 -80.691819 -25.355632
-22.315493 -79.126866 -25.230367
-22.091576 -81.299801 -26.379902
-22.563021 -82.267383 -25.454837
-22.462219 -80.691819 -25.355632
-3.797516 -76.868935 -41.863947
-4.227284 -75.552082 -41.884546
-2.911957 -74.846859 -42.434616
-3.264678 -78.096153 -41.88122
-4.580005 -78.801377 -41.33115
-3.797516 -76.868935 -41.863947
-1.769929 -77.096936 -42.455376
-2.552418 -79.029377 -41.922579
-3.264678 -78.096153 -41.88122
-0.127363 -98.370639 -32.831091
-1.561317 -99.34193 -32.515127
0.502597 -97.211643 -33.76239
-0.127363 -98.370639 -32.831091
-0.436471 -97.118923 -34.34724
0.502597 -97.211643 -33.76239
-0.436471 -97.118923 -34.34724
-1.979683 -98.096733 -33.995088
-18.077983 -67.037685 -30.841538
-18.715198 -68.441131 -30.026457
-18.501516 -66.685779 -30.003436
-5.759828 -60.637867 -42.468611
-6.802625 -61.284633 -41.777899
-5.995356 -59.080174 -42.416256
-5.452628 -62.144785 -42.508555
-5.759828 -60.637867 -42.468611
-4.645358 -59.940325 -43.146912
-2.861987 -62.244361 -43.851648
-4.038226 -62.947483 -43.201366
-3.161919 -60.744121 -43.837137
-2.477946 -63.620555 -43.859369
-2.861987 -62.244361 -43.851648
-18.089962 -39.708233 -26.845207
-17.967101 -41.098923 -26.847731
-17.718394 -38.594034 -27.482046
-18.089962 -39.708233 -26.845207
-18.223069 -38.390608 -26.833004
-5.728807 -104.436127 -26.870235
-6.264427 -105.057606 -25.738955
-6.628321 -104.409229 -27.49906
-5.264126 -103.785466 -27.948934
-5.728807 -104.436127 -26.870235
-22.781253 -89.784954 -25.715991
-22.825722 -88.298389 -25.629145
-22.109597 -90.20079 -26.892553
-22.582245 -91.132892 -25.918214
-22.781253 -89.784954 -25.715991
-7.044657 -48.495317 -42.158934
-7.801564 -48.928364 -41.416106
-7.034262 -46.964735 -42.14402
-6.993342 -50.0466 -42.157713
-7.044657 -48.495317 -42.158934
-6.941607 -51.667883 -42.189028
-7.760224 -52.080229 -41.462334
-6.993342 -50.0466 -42.157713
-6.790499 -53.186878 -42.224115
-6.941607 -51.667883 -42.189028
-19.076367 -51.528267 -24.705751
-19.437342 -52.600971 -23.939
-18.709051 -51.804232 -25.481063
-19.076367 -51.528267 -24.705751
-18.658556 -50.426946 -25.487341
-18.444711 -52.302101 -26.17087
-18.862522 -53.403422 -25.38928
-18.709051 -51.804232 -25.481063
-16.828791 -50.383927 -29.050293
-16.302318 -49.042206 -29.741072
-16.393662 -53.886942 -30.594249
-16.974193 -55.336506 -29.840047
-15.979136 -53.954571 -31.331367
-16.393662 -53.886942 -30.594249
-15.777204 -52.395384 -31.321254
-8.008833 -35.934725 -40.149683
-8.05017 -37.262806 -40.25638
-8.650206 -37.598978 -39.446686
-17.549734 -31.308943 -28.900619
-18.310281 -31.345828 -28.08933
-16.844482 -31.388832 -29.650799
-17.168912 -32.481657 -29.066243
-17.549734 -31.308943 -28.900619
-16.121299 -31.469417 -30.384291
-16.844482 -31.388832 -29.650799
-16.502121 -30.296703 -30.218668
-11.940678 -31.130612 -34.904278
-12.635459 -31.191139 -34.149997
-11.27621 -31.101401 -35.679075
-11.75526 -32.328444 -35.030741
-11.940678 -31.130612 -34.904278
-10.58847 -30.867256 -36.476812
-11.27621 -31.101401 -35.679075
-10.434631 -32.014242 -36.617226
-10.58847 -30.867256 -36.476812
-13.85062 -105.529003 -25.14952
-14.778846 -105.063698 -25.358389
-12.638262 -105.358906 -25.995051
-12.96104 -105.882942 -24.848337
-13.85062 -105.529003 -25.14952
-1.178454 -80.837581 -41.89189
-0.497267 -81.825244 -41.791211
-1.977421 -82.694557 -41.325941
-22.180329 -77.537849 -25.09458
-21.957998 -75.896264 -25.058656
-21.85561 -78.13522 -26.144909
-22.315493 -79.126866 -25.230367
-22.180329 -77.537849 -25.09458
-19.276643 -76.732204 -30.640425
-19.818116 -76.339012 -29.746414
-19.20084 -75.049717 -30.491349
-19.24064 -78.2943 -30.834157
-19.276643 -76.732204 -30.640425
-18.623363 -77.005005 -31.579093
-2.554404 -71.530422 -42.977961
-3.829294 -72.290627 -42.389313
-3.041974 -70.291043 -42.912058
-2.034108 -72.762077 -42.997568
-2.554404 -71.530422 -42.977961
-2.911957 -74.846859 -42.434616
-2.034108 -72.762077 -42.997568
-7.49765 -106.377098 -22.22887
-7.916174 -106.67553 -21.087454
-8.355177 -106.470489 -22.892129
-7.49765 -106.377098 -22.22887
-7.06991 -42.518061 -42.007697
-7.766386 -42.897957 -41.183605
-7.042088 -43.943956 -42.07177
-7.06991 -42.518061 -42.007697
-7.020583 -45.415313 -42.163605
-7.812673 -45.926424 -41.309357
-7.042088 -43.943956 -42.07177
-7.034262 -46.964735 -42.14402
-7.020583 -45.415313 -42.163605
-17.385084 -46.790926 -27.646316
-17.825087 -48.140545 -26.935751
-16.957324 -47.063685 -28.348114
-17.385084 -46.790926 -27.646316
-16.899753 -45.547921 -28.355018
-15.762382 -47.679596 -30.460225
-16.302318 -49.042206 -29.741072
-16.163418 -47.462929 -29.727847
-15.285089 -47.683481 -31.213963
-15.762382 -47.679596 -30.460225
-15.146189 -46.104204 -31.200738
-14.82415 -47.646062 -31.980033
-15.440342 -49.221455 -31.239521
-15.285089 -47.683481 -31.213963
-16.427759 -103.869434 -25.862865
-15.636335 -104.489635 -25.661262
-20.467979 -72.356667 -27.617506
-20.980308 -73.532933 -26.758932
-20.076144 -72.717029 -28.522205
-20.467979 -72.356667 -27.617506
-19.613366 -73.046433 -29.483956
-20.205092 -74.327122 -28.635587
-20.076144 -72.717029 -28.522205
-18.888042 -70.114688 -30.117567
-18.715198 -68.441131 -30.026457
-18.888042 -70.114688 -30.117567
-18.397025 -70.477024 -31.006208
-19.122349 -73.408768 -30.372597
-19.613366 -73.046433 -29.483956
-19.20084 -75.049717 -30.491349
-19.122349 -73.408768 -30.372597
-17.948599 -73.882877 -32.139769
-17.870107 -72.241928 -32.021016
-17.245348 -73.948383 -33.030602
-17.956116 -75.508415 -32.276194
-17.948599 -73.882877 -32.139769
-4.013736 -67.854691 -42.746783
-4.513427 -66.565658 -42.655661
-3.238602 -65.736755 -43.307
-3.527887 -69.038517 -42.860765
-4.802713 -69.867421 -42.209427
-4.013736 -67.854691 -42.746783
-3.041974 -70.291043 -42.912058
-3.527887 -69.038517 -42.860765
-17.34469 -43.95158 -27.636279
-17.777418 -43.806486 -26.940499
-16.837464 -42.757698 -28.381448
-16.820288 -44.08128 -28.39839
-17.34469 -43.95158 -27.636279
-17.473577 -41.269829 -27.556793
-17.85539 -42.457092 -26.910274
-17.967101 -41.098923 -26.847731
-3.605266 -101.247818 -31.116396
-4.278806 -102.22895 -30.059164
-4.553551 -101.103488 -31.683583
-3.0465 -100.298924 -32.061551
-3.605266 -101.247818 -31.116396
-21.50705 -96.340401 -26.171411
-21.058671 -97.556423 -26.241486
-21.859831 -95.111336 -26.168245
-22.101202 -93.761685 -26.20197
-21.006841 -95.477859 -27.289497
-21.50705 -96.340401 -26.171411
-21.859831 -95.111336 -26.168245
-6.688136 -54.697186 -42.254423
-7.606126 -55.211819 -41.523956
-6.790499 -53.186878 -42.224115
-6.512352 -56.220064 -42.266634
-6.688136 -54.697186 -42.254423
-6.279547 -57.722471 -42.352274
-7.270958 -58.224533 -41.639904
-6.512352 -56.220064 -42.266634
-5.995356 -59.080174 -42.416256
-6.279547 -57.722471 -42.352274
-18.293391 -65.073719 -29.963335
-18.501516 -66.685779 -30.003436
-17.647937 -63.607093 -30.795198
-18.293391 -65.073719 -29.963335
-17.003342 -62.189373 -31.532725
-17.219704 -63.864612 -31.556042
-17.647937 -63.607093 -30.795198
-20.178792 -56.143575 -22.33997
-20.105277 -54.676023 -22.424696
-20.007842 -56.802284 -23.036807
-20.178792 -56.143575 -22.33997
-19.491312 -54.047519 -23.929079
-19.801792 -53.742939 -23.168605
-19.437342 -52.600971 -23.939
-19.638608 -55.659004 -23.833507
-19.491312 -54.047519 -23.929079
-19.274158 -54.517037 -24.603902
-20.007842 -56.802284 -23.036807
-19.638608 -55.659004 -23.833507
-17.866947 -49.504801 -26.951033
-18.249379 -49.338656 -26.247371
-17.825087 -48.140545 -26.935751
-17.979139 -51.127853 -26.948376
-17.866947 -49.504801 -26.951033
-17.554846 -49.929743 -27.636755
-18.444711 -52.302101 -26.17087
-17.979139 -51.127853 -26.948376
-17.185196 -50.189167 -28.321396
-16.828791 -50.383927 -29.050293
-17.199029 -56.897126 -29.816146
-16.974193 -55.336506 -29.840047
-17.451245 -58.572178 -29.791059
-17.199029 -56.897126 -29.816146
-16.847809 -57.121181 -30.579275
-17.69312 -60.268165 -29.806272
-17.451245 -58.572178 -29.791059
-17.265799 -60.364044 -30.663035
-17.69312 -60.268165 -29.806272
-16.775333 -60.426485 -31.520229
-17.265799 -60.364044 -30.663035
-16.609558 -58.858675 -31.411383
-16.3471 -60.684004 -32.281073
-17.003342 -62.189373 -31.532725
-16.775333 -60.426485 -31.520229
-8.358524 -41.681141 -40.324387
-8.444639 -43.237852 -40.391913
-9.10457 -43.578146 -39.56661
-8.305801 -40.227339 -40.252523
-8.854999 -40.474247 -39.526234
-8.142346 -38.680151 -40.279672
-8.358524 -41.681141 -40.324387
-8.305801 -40.227339 -40.252523
-18.149951 -36.034126 -27.327235
-18.437989 -37.136083 -26.769319
-17.53974 -36.082813 -28.022128
-18.149951 -36.034126 -27.327235
-17.838191 -34.84053 -27.87952
-15.410827 -29.175629 -31.580896
-16.182059 -29.118623 -30.827371
-15.019362 -30.277173 -31.753863
-15.410827 -29.175629 -31.580896
-14.651252 -29.075516 -32.382599
-13.555489 -30.100841 -33.299808
-13.888893 -28.974041 -33.161203
-13.988239 -31.468523 -32.663151
-13.555489 -30.100841 -33.299808
-13.283941 -31.392305 -33.407394
-9.147404 -32.68763 -38.283806
-9.777749 -33.00906 -37.470894
-9.189971 -34.02396 -38.300035
-9.147404 -32.68763 -38.283806
-8.560344 -32.422722 -39.070966
-7.981012 -34.671858 -40.066486
-8.60589 -35.014974 -39.213593
-7.978033 -33.415936 -39.94009
-8.008833 -35.934725 -40.149683
-7.981012 -34.671858 -40.066486
-9.951833 -107.122731 -21.012034
-9.138208 -107.06152 -20.59561
-9.589104 -106.851963 -22.190894
-9.951833 -107.122731 -21.012034
-10.829801 -107.148415 -21.478473
-9.233145 -106.496173 -23.358568
-8.355177 -106.470489 -22.892129
-9.589104 -106.851963 -22.190894
-13.600803 -106.725262 -22.456698
-13.28805 -106.355202 -23.660474
-12.714686 -106.96561 -22.134459
-13.600803 -106.725262 -22.456698
-11.434888 -106.767505 -22.987738
-11.746871 -107.075752 -21.804054
-12.714686 -106.96561 -22.134459
-8.955699 -106.088371 -24.532089
-9.233145 -106.496173 -23.358568
-10.189626 -106.469844 -23.830854
-8.502592 -105.560967 -25.712368
-7.54611 -105.587295 -25.240082
-8.955699 -106.088371 -24.532089
-16.143126 -103.141815 -27.006769
-16.427759 -103.869434 -25.862865
-19.122369 -97.901268 -28.436143
-20.166328 -97.770214 -27.313182
-19.610101 -96.837978 -28.415625
-19.122369 -97.901268 -28.436143
-17.997293 -98.044663 -29.482228
-16.16882 -98.986321 -30.437413
-16.828084 -98.078427 -30.469684
-15.568458 -97.944454 -31.481228
-16.16882 -98.986321 -30.437413
-15.479778 -99.824905 -30.405774
-15.731846 -102.386898 -28.097183
-15.235313 -101.572235 -29.222701
-14.831542 -103.101925 -27.992394
-16.143126 -103.141815 -27.006769
-15.731846 -102.386898 -28.097183
-4.416411 -98.740127 -33.998517
-3.464866 -99.053726 -33.541513
-4.94633 -99.840995 -33.085742
-3.945281 -97.63723 -34.829923
-4.416411 -98.740127 -33.998517
-5.426744 -98.424499 -34.374153
-3.336161 -96.418571 -35.644909
-3.945281 -97.63723 -34.829923
-2.602048 -95.050815 -36.480805
-3.336161 -96.418571 -35.644909
-4.2215 -95.953846 -36.041455
-1.914216 -93.577275 -37.295637
-2.602048 -95.050815 -36.480805
-1.341236 -92.126618 -38.031464
-1.914216 -93.577275 -37.295637
-2.914406 -93.135433 -37.613177
-0.767434 -90.61293 -38.746363
-1.341236 -92.126618 -38.031464
-0.026474 -89.009159 -39.428246
-0.767434 -90.61293 -38.746363
-1.600465 -90.081005 -39.030886
0.68127 -87.326794 -40.094961
-0.026474 -89.009159 -39.428246
1.34113 -85.60693 -40.722664
0.68127 -87.326794 -40.094961
-0.199644 -86.75737 -40.340471
-0.418009 -84.359863 -41.096718
-1.116483 -86.056816 -40.521633
-1.994708 -85.379173 -40.650177
-0.418009 -84.359863 -41.096718
0.256672 -82.620956 -41.656904
-22.703007 -83.781963 -25.465573
-22.563021 -82.267383 -25.454837
-22.261518 -84.377742 -26.52776
-22.703007 -83.781963 -25.465573
-21.194158 -75.271962 -26.841479
-21.506596 -74.807175 -25.926575
-20.980308 -73.532933 -26.758932
-21.736575 -84.766422 -27.542521
-22.261518 -84.377742 -26.52776
-21.667437 -83.264046 -27.493868
-21.154494 -85.171505 -28.556233
-21.748575 -86.285202 -27.590126
-21.736575 -84.766422 -27.542521
-0.377984 -78.999214 -42.426947
-1.178454 -80.837581 -41.89189
-1.858138 -79.868527 -41.961678
-0.297465 -76.045257 -43.021821
-1.769929 -77.096936 -42.455376
0.4251 -76.877037 -43.006502
-0.297465 -76.045257 -43.021821
-0.377984 -78.999214 -42.426947
0.4251 -76.877037 -43.006502
3 1 60 58
3 1 62 60
3 2 236 238
3 236 63 237
3 236 237 238
3 2 239 241
3 241 240 63
3 239 240 241
3 3 66 64
3 3 68 66
3 0 71 69
3 242 73 243
3 245 244 73
3 246 76 247
3 248 77 249
3 250 78 251
3 252 80 253
3 254 253 78
3 252 253 254
3 5 83 81
3 255 86 256
3 7 257 258
3 7 259 261
3 259 88 260
3 259 260 261
3 7 90 88
3 8 93 91
3 8 95 93
3 262 97 263
3 9 264 266
3 264 99 265
3 264 265 266
3 9 101 99
3 4 267 268
3 10 104 102
3 10 106 104
3 10 108 106
3 11 111 109
3 11 113 111
3 269 114 270
3 12 271 273
3 271 116 272
3 271 272 273
3 12 118 116
3 6 121 119
3 13 124 122
3 13 126 124
3 13 128 126
3 274 130 275
3 276 133 277
3 278 277 131
3 276 277 278
3 15 279 281
3 279 135 280
3 279 280 281
3 17 136 59
3 17 137 136
3 17 139 137
3 19 140 61
3 19 141 140
3 20 144 142
3 22 145 65
3 22 146 145
3 22 148 146
3 24 149 67
3 24 150 149
3 26 282 284
3 284 283 70
3 282 283 284
3 26 285 287
3 285 152 286
3 285 286 287
3 27 155 153
3 29 156 72
3 29 157 156
3 29 159 157
3 289 288 74
3 290 160 291
3 31 161 75
3 31 162 161
3 32 292 293
3 32 294 296
3 294 163 295
3 294 295 296
3 33 297 298
3 33 299 301
3 299 164 300
3 299 300 301
3 33 165 164
3 34 166 79
3 34 167 166
3 35 170 168
3 37 171 82
3 37 172 171
3 14 173 132
3 38 174 84
3 38 175 174
3 38 176 175
3 302 177 303
3 305 304 85
3 16 306 308
3 308 307 134
3 306 307 308
3 39 178 87
3 39 179 178
3 39 180 179
3 40 181 89
3 40 182 181
3 18 183 138
3 41 184 92
3 41 185 184
3 41 186 185
3 310 309 94
3 42 311 312
3 42 313 314
3 42 315 317
3 315 187 316
3 315 316 317
3 43 188 96
3 43 189 188
3 318 190 319
3 44 320 322
3 320 191 321
3 320 321 322
3 44 192 191
3 44 193 192
3 323 194 324
3 325 324 98
3 323 324 325
3 326 195 327
3 328 327 194
3 326 327 328
3 329 196 330
3 332 331 196
3 333 197 334
3 45 335 337
3 335 198 336
3 335 336 337
3 45 199 198
3 45 200 199
3 46 201 100
3 46 202 201
3 21 338 340
3 340 339 143
3 338 339 340
3 47 341 343
3 343 342 103
3 341 342 343
3 47 344 346
3 344 203 345
3 344 345 346
3 47 204 203
3 48 205 105
3 48 206 205
3 48 207 206
3 49 208 107
3 49 209 208
3 23 210 147
3 50 211 110
3 50 212 211
3 50 347 349
3 349 348 212
3 347 348 349
3 351 350 112
3 51 352 353
3 51 354 356
3 354 213 355
3 354 355 356
3 25 214 151
3 52 215 115
3 52 216 215
3 52 217 216
3 53 218 117
3 53 219 218
3 36 220 169
3 54 221 120
3 54 222 221
3 28 223 154
3 55 224 123
3 55 225 224
3 55 226 225
3 56 227 125
3 56 228 227
3 56 229 228
3 57 230 127
3 57 231 230
3 30 232 158
3 357 233 358
3 359 358 129
3 357 358 359
3 360 234 361
3 362 361 233
3 360 361 362
3 363 235 364
3 365 364 234
3 363 364 365
3 58 59 15
3 60 59 58
3 60 17 59
3 60 61 17
3 62 61 60
3 62 19 61
3 63 366 367
3 63 368 369
3 63 370 371
3 373 372 63
3 64 65 20
3 66 65 64
3 66 22 65
3 66 67 22
3 68 67 66
3 68 24 67
3 69 374 376
3 374 70 375
3 374 375 376
3 71 70 69
3 71 26 70
3 377 72 378
3 379 378 27
3 377 378 379
3 73 380 382
3 380 72 381
3 380 381 382
3 73 29 72
3 73 74 29
3 383 74 384
3 385 384 73
3 383 384 385
3 387 386 74
3 388 75 389
3 76 390 392
3 390 75 391
3 390 391 392
3 76 31 75
3 77 393 394
3 77 395 397
3 395 32 396
3 395 396 397
3 78 398 399
3 78 400 402
3 400 33 401
3 400 401 402
3 78 79 33
3 80 79 78
3 80 34 79
3 81 82 35
3 83 82 81
3 83 37 82
3 403 84 404
3 405 404 14
3 403 404 405
3 406 84 407
3 408 38 409
3 410 409 84
3 408 409 410
3 412 411 38
3 413 85 414
3 86 415 417
3 415 85 416
3 415 416 417
3 86 418 420
3 420 419 85
3 418 419 420
3 422 421 16
3 423 87 424
3 88 425 427
3 425 87 426
3 425 426 427
3 88 39 87
3 88 89 39
3 90 89 88
3 90 40 89
3 91 92 18
3 93 92 91
3 93 41 92
3 93 94 41
3 95 94 93
3 95 428 430
3 430 429 94
3 428 429 430
3 431 42 432
3 433 96 434
3 435 434 42
3 433 434 435
3 97 436 438
3 436 96 437
3 436 437 438
3 97 43 96
3 439 44 440
3 441 98 442
3 443 442 44
3 441 442 443
3 444 98 445
3 447 446 98
3 99 448 449
3 99 450 452
3 450 45 451
3 450 451 452
3 99 100 45
3 101 100 99
3 101 46 100
3 102 103 21
3 104 103 102
3 104 47 103
3 104 105 47
3 106 105 104
3 106 48 105
3 106 107 48
3 108 107 106
3 108 49 107
3 109 110 23
3 111 110 109
3 111 50 110
3 111 112 50
3 113 112 111
3 113 453 455
3 455 454 112
3 453 454 455
3 114 456 457
3 114 458 460
3 458 51 459
3 458 459 460
3 461 115 462
3 463 462 25
3 461 462 463
3 116 464 466
3 464 115 465
3 464 465 466
3 116 52 115
3 116 117 52
3 118 117 116
3 118 53 117
3 119 120 36
3 121 120 119
3 121 54 120
3 122 123 28
3 124 123 122
3 124 55 123
3 124 125 55
3 126 125 124
3 126 56 125
3 126 127 56
3 128 127 126
3 128 57 127
3 467 129 468
3 469 468 30
3 467 468 469
3 470 129 471
3 473 472 129
3 130 474 475
3 130 476 477
3 131 132 5
3 133 132 131
3 133 14 132
3 478 133 479
3 480 133 481
3 482 14 483
3 484 483 133
3 482 483 484
3 486 485 14
3 487 134 488
3 135 489 491
3 489 134 490
3 489 490 491
3 135 16 134
3 59 135 15
3 136 135 59
3 136 16 135
3 136 492 494
3 494 493 16
3 492 493 494
3 137 495 497
3 497 496 136
3 495 496 497
3 137 498 500
3 498 7 499
3 498 499 500
3 137 138 7
3 139 138 137
3 139 18 138
3 61 139 17
3 140 139 61
3 140 18 139
3 140 91 18
3 141 91 140
3 141 8 91
3 501 9 502
3 142 143 4
3 144 143 142
3 144 21 143
3 65 144 20
3 145 144 65
3 145 21 144
3 145 102 21
3 146 102 145
3 146 10 102
3 146 147 10
3 148 147 146
3 148 23 147
3 67 148 22
3 149 148 67
3 149 23 148
3 149 109 23
3 150 109 149
3 150 11 109
3 503 151 504
3 505 151 506
3 507 25 508
3 509 508 151
3 507 508 509
3 70 510 511
3 513 512 70
3 514 25 515
3 517 516 25
3 152 518 519
3 152 520 522
3 520 12 521
3 520 521 522
3 153 154 6
3 155 154 153
3 155 28 154
3 72 155 27
3 156 155 72
3 156 28 155
3 156 122 28
3 157 122 156
3 157 13 122
3 157 158 13
3 159 158 157
3 159 30 158
3 74 159 29
3 523 159 524
3 525 524 74
3 523 524 525
3 526 30 527
3 528 527 159
3 526 527 528
3 530 529 30
3 160 531 532
3 160 533 535
3 533 15 534
3 533 534 535
3 75 536 538
3 536 160 537
3 536 537 538
3 161 160 75
3 161 15 160
3 161 58 15
3 162 58 161
3 162 1 58
3 163 539 540
3 163 541 543
3 541 2 542
3 541 542 543
3 544 4 545
3 164 546 547
3 164 548 550
3 548 4 549
3 548 549 550
3 164 142 4
3 165 142 164
3 165 20 142
3 79 165 33
3 166 165 79
3 166 20 165
3 166 64 20
3 167 64 166
3 167 3 64
3 168 169 0
3 170 169 168
3 170 36 169
3 82 170 35
3 171 170 82
3 171 36 170
3 171 119 36
3 172 119 171
3 172 6 119
3 132 83 5
3 173 83 132
3 173 37 83
3 84 173 14
3 174 173 84
3 174 37 173
3 174 172 37
3 175 172 174
3 175 6 172
3 175 153 6
3 176 153 175
3 176 27 153
3 551 176 552
3 553 552 38
3 551 552 553
3 554 176 555
3 556 27 557
3 558 557 176
3 556 557 558
3 560 559 27
3 561 69 562
3 563 69 564
3 565 0 566
3 567 566 69
3 565 566 567
3 177 568 569
3 177 570 571
3 85 572 574
3 572 177 573
3 572 573 574
3 575 177 576
3 577 576 85
3 575 576 577
3 579 578 177
3 134 580 582
3 580 86 581
3 580 581 582
3 583 86 584
3 585 584 134
3 583 584 585
3 587 586 86
3 589 588 16
3 87 590 591
3 178 592 594
3 594 593 87
3 592 593 594
3 178 595 596
3 178 597 598
3 179 599 601
3 601 600 178
3 599 600 601
3 179 602 604
3 602 0 603
3 602 603 604
3 179 168 0
3 180 168 179
3 180 35 168
3 89 180 39
3 181 180 89
3 181 35 180
3 181 81 35
3 182 81 181
3 182 5 81
3 138 90 7
3 183 90 138
3 183 40 90
3 92 183 18
3 184 183 92
3 184 40 183
3 184 182 40
3 185 182 184
3 185 5 182
3 185 131 5
3 186 131 185
3 186 605 607
3 607 606 131
3 605 606 607
3 94 186 41
3 608 186 609
3 610 609 94
3 608 609 610
3 612 611 186
3 613 76 614
3 187 615 617
3 615 76 616
3 615 616 617
3 187 31 76
3 96 187 42
3 188 187 96
3 188 31 187
3 188 162 31
3 189 162 188
3 189 1 162
3 618 97 619
3 190 620 622
3 620 97 621
3 620 621 622
3 190 43 97
3 623 190 624
3 191 625 627
3 625 190 626
3 625 626 627
3 191 43 190
3 191 189 43
3 192 189 191
3 192 1 189
3 192 62 1
3 193 62 192
3 193 19 62
3 98 193 44
3 194 193 98
3 194 19 193
3 194 141 19
3 195 141 194
3 195 8 141
3 628 195 629
3 196 630 632
3 630 195 631
3 630 631 632
3 196 8 195
3 196 95 8
3 633 95 634
3 635 634 196
3 633 634 635
3 637 636 95
3 638 130 639
3 197 640 642
3 640 130 641
3 640 641 642
3 197 643 645
3 645 644 130
3 643 644 645
3 198 646 647
3 198 648 649
3 198 650 652
3 650 197 651
3 650 651 652
3 199 197 198
3 199 653 655
3 655 654 197
3 653 654 655
3 199 656 658
3 656 77 657
3 656 657 658
3 200 77 199
3 200 32 77
3 100 200 45
3 201 200 100
3 201 32 200
3 201 163 32
3 202 163 201
3 202 2 163
3 659 9 660
3 143 661 663
3 663 662 4
3 661 662 663
3 665 664 143
3 103 666 668
3 668 667 21
3 666 667 668
3 670 669 103
3 203 671 672
3 203 673 675
3 673 9 674
3 673 674 675
3 203 101 9
3 204 101 203
3 204 46 101
3 105 204 47
3 205 204 105
3 205 46 204
3 205 202 46
3 206 202 205
3 206 2 202
3 206 676 678
3 678 677 2
3 676 677 678
3 207 679 681
3 681 680 206
3 679 680 681
3 207 682 683
3 107 207 48
3 208 207 107
3 208 684 686
3 686 685 207
3 684 685 686
3 208 687 688
3 209 689 691
3 691 690 208
3 689 690 691
3 209 692 693
3 147 108 10
3 210 108 147
3 210 49 108
3 110 210 23
3 211 210 110
3 211 49 210
3 211 209 49
3 212 209 211
3 212 694 696
3 696 695 209
3 694 695 696
3 212 697 698
3 701 700 212
3 699 700 701
3 112 702 704
3 704 703 50
3 702 703 704
3 706 705 112
3 213 707 708
3 213 709 710
3 151 711 713
3 711 114 712
3 711 712 713
3 214 114 151
3 214 51 114
3 115 214 25
3 215 214 115
3 215 51 214
3 215 213 51
3 216 213 215
3 216 714 716
3 716 715 213
3 714 715 716
3 216 717 719
3 717 80 718
3 717 718 719
3 217 80 216
3 217 34 80
3 117 217 52
3 218 217 117
3 218 34 217
3 218 167 34
3 219 167 218
3 219 3 167
3 169 71 0
3 220 71 169
3 220 26 71
3 120 220 36
3 221 220 120
3 221 26 220
3 221 152 26
3 222 152 221
3 222 12 152
3 154 121 6
3 223 121 154
3 223 54 121
3 123 223 28
3 224 223 123
3 224 54 223
3 224 222 54
3 225 222 224
3 225 12 222
3 225 118 12
3 226 118 225
3 226 53 118
3 125 226 55
3 227 226 125
3 227 53 226
3 227 219 53
3 228 219 227
3 228 3 219
3 228 68 3
3 229 68 228
3 229 24 68
3 127 229 56
3 230 229 127
3 230 24 229
3 230 150 24
3 231 150 230
3 231 11 150
3 158 128 13
3 232 128 158
3 232 57 128
3 129 232 30
3 233 232 129
3 233 57 232
3 233 231 57
3 234 231 233
3 234 11 231
3 234 113 11
3 235 113 234
3 235 720 722
3 722 721 113
3 720 721 722
3 723 235 724
3 725 235 726
3 728 727 235
