ply
format ascii 1.0
element vertex 436
property float x
property float y
property float z
element face 459
property list uchar int vertex_index
end_header
-5.613364 29.445332 -65.26532
-18.978903 31.235666 -55.964214
-33.328671 18.055944 -54.324146
-29.845926 20.081015 -45.774113
-12.573693 32.623173 -62.722458
-20.395658 28.423046 -65.288147
-12.158587 36.035004 -53.208157
-6.081343 35.838528 -58.220505
-26.437347 25.807159 -56.593014
-9.004798 31.590166 -64.582909
-12.680813 30.251247 -66.763519
-8.919678 28.421505 -68.008133
-9.322148 38.728363 -51.628181
-9.223415 36.421833 -56.267651
-6.396709 38.932495 -54.140163
-34.718033 15.661375 -48.927128
-37.1945 10.985902 -47.233059
-21.283123 29.123161 -51.259705
-24.901787 26.412086 -51.858982
-22.619364 28.788076 -56.704132
-31.885509 19.619295 -50.279228
-15.863613 32.509529 -59.865494
-19.703669 30.309891 -61.035988
-16.276468 30.807854 -64.501144
-17.705412 31.926714 -50.551952
-14.527227 34.722736 -49.632317
-15.367661 33.638031 -54.621101
-12.458892 34.373253 -58.26487
-9.267519 34.117668 -60.625797
-5.706524 32.66906 -62.033184
-2.821368 34.313457 -59.129707
-2.597654 30.445036 -62.140545
-2.496759 26.193531 -64.757339
-28.542383 23.231081 -51.411133
-30.134697 22.172674 -55.720894
-23.640783 27.622568 -61.34885
-27.601126 24.130507 -60.793674
-7.352966 30.672647 -65.084328
-8.943569 29.970074 -66.526947
-7.186428 29.008818 -66.648842
-7.218365 27.17724 -68.096611
-5.5672 27.562731 -66.713638
-7.991905 38.897263 -52.979141
-34.178158 16.815443 -51.749401
-35.544605 14.501575 -50.655506
-20.237146 30.276564 -53.75568
-21.963499 29.052063 -54.040504
-20.753042 30.070211 -56.497902
-32.485943 18.194319 -47.61813
-30.929216 19.993189 -48.09679
-14.305949 32.703053 -61.365078
-16.169575 31.733356 -62.217945
-14.411837 31.782902 -63.637661
-12.583318 28.692995 -68.550491
-11.893902 36.934662 -50.706043
-13.444411 35.440586 -51.586628
-15.004953 34.127617 -52.181789
-13.740808 34.762047 -54.135967
-13.98726 34.11198 -56.655563
-12.241705 35.248821 -55.766846
-7.749679 36.2658 -57.319202
-9.220572 35.221821 -58.588303
-7.5314 34.965149 -59.390568
-7.453078 33.576668 -61.430126
-5.860105 34.298153 -60.150463
-2.758374 32.393452 -60.719402
-1.209497 30.978241 -60.665501
-2.599216 24.143456 -65.804916
-25.653883 26.275723 -54.36116
-26.700317 24.914463 -51.749317
-27.479725 24.688931 -54.027073
-29.257669 22.992296 -53.672691
-28.275146 24.120434 -56.292229
-19.95941 29.574038 -63.234303
-21.681076 29.032627 -61.324738
-22.030729 28.145332 -63.526058
-10.902794 32.170929 -63.934532
-12.658879 31.53684 -64.807098
-10.763557 30.917862 -65.82135
-10.74777 29.439669 -67.591156
-10.875863 27.769714 -69.153633
-10.628271 37.401691 -52.369743
-10.724831 36.34314 -54.90593
-9.384053 37.478176 -54.012856
-7.769883 37.597733 -55.191444
-6.168692 37.361446 -56.242058
-36.070374 13.296434 -48.050255
-36.80608 12.002115 -49.800495
-23.992796 26.434523 -49.266933
-23.155521 27.735691 -51.623295
-23.757341 27.741024 -54.203449
-24.476732 27.408251 -56.623264
-22.371431 26.940001 -65.427238
-33.368156 17.680769 -49.638908
-32.67646 18.983116 -52.449699
-17.565969 31.96435 -58.008965
-19.390017 30.850161 -58.604221
-17.876892 31.420053 -60.425117
-17.992445 30.70216 -62.93919
-18.275803 29.677982 -65.117088
-14.553565 30.61414 -65.822937
-16.411142 29.593161 -66.607941
-18.365227 28.499937 -67.005722
-19.499706 30.512426 -51.083267
-18.436855 31.550161 -53.33345
-16.042601 33.334057 -50.194923
-16.695051 32.820965 -52.737755
-17.137104 32.436069 -55.50111
-15.752689 33.057411 -57.290756
-14.060684 33.48555 -59.088245
-12.59411 33.488411 -60.651485
-10.776276 35.353924 -57.327274
-10.947515 34.379139 -59.522717
-10.877607 33.371216 -61.723644
-9.188635 32.93042 -62.644218
-7.342142 32.189598 -63.275566
-5.643952 31.074911 -63.729546
-4.810484 38.609291 -55.163998
-4.567989 36.895367 -57.008053
-3.073621 36.194904 -57.552059
-4.419457 35.200489 -58.789108
-4.330753 33.483559 -60.551334
-4.091657 31.703722 -62.163853
-3.984968 29.878252 -63.691528
-1.160645 28.832415 -61.933243
-2.62936 28.3508 -63.631386
-4.028709 27.951927 -65.179375
-3.932946 25.998453 -66.306038
-4.082232 23.895779 -67.427719
-28.065968 21.849871 -46.215202
-25.762539 24.970205 -49.233505
-27.560192 23.405191 -49.079578
-29.276018 21.705935 -48.534332
-30.231335 21.523579 -50.92799
-31.021225 21.050186 -52.990505
-31.718367 20.261372 -55.257343
-21.199478 29.686329 -59.019997
-23.251936 28.283726 -58.932568
-25.237129 26.744162 -58.899155
-24.131124 26.555477 -63.361824
-25.564991 26.056959 -61.150555
-27.000448 25.178835 -58.909504
-28.899616 23.30147 -58.400822
-34.093145 16.819928 -53.916051
-34.517889 16.199677 -52.628679
-33.753415 17.435693 -53.036773
-33.663443 17.322145 -55.169849
-34.093145 16.819928 -53.916051
-30.660001 19.2305 -45.592554
-30.013589 19.249924 -44.41778
-30.387571 20.037102 -46.935451
-31.201647 19.186588 -46.753892
-30.660001 19.2305 -45.592554
-13.569107 28.186231 -68.957668
-12.661442 27.819855 -69.284332
-0.517215 31.385143 -59.910983
-1.285961 32.034866 -60.005791
-8.972786 27.514226 -68.697213
-9.950879 27.18833 -69.269962
-9.897771 28.09561 -68.580883
-7.254955 26.221086 -68.684345
-6.375354 26.400527 -67.99065
-9.928971 38.583265 -50.788547
-9.242749 39.411947 -50.503122
-9.97521 38.065027 -51.998962
-10.582033 37.919929 -51.159329
-9.928971 38.583265 -50.788547
-35.394204 14.478904 -48.488692
-35.655404 13.727266 -47.08371
-34.979233 14.909737 -47.522147
-36.510677 12.519846 -51.073923
-36.175342 13.251845 -50.228001
-35.87994 13.769576 -51.501429
-37.102436 11.177707 -50.518892
-36.510677 12.519846 -51.073923
-22.219322 28.429426 -51.4415
-22.695358 27.756976 -50.262514
-21.759159 28.450711 -50.080719
-16.462229 28.87258 -67.505443
-15.460201 29.415017 -67.192814
-17.439271 28.325969 -67.704334
-17.388185 29.046549 -66.806832
-16.462229 28.87258 -67.505443
-18.466308 27.729106 -67.827809
-17.439271 28.325969 -67.704334
-18.602559 31.21957 -50.81761
-19.14744 30.602951 -49.823015
-18.250293 31.310095 -49.557357
-14.289303 35.053942 -48.270229
-13.808772 35.454718 -49.336499
-15.044324 34.224123 -48.60195
-14.289303 35.053942 -48.270229
-15.284914 34.028396 -49.91362
-15.802011 33.529784 -48.883253
-15.044324 34.224123 -48.60195
-4.017738 38.337677 -55.53631
-4.184848 39.307579 -54.67049
-3.89649 37.480715 -56.458338
-4.689236 37.752329 -56.086025
-4.017738 38.337677 -55.53631
-2.947495 35.254181 -58.340883
-2.289938 35.749949 -57.690942
-2.163812 34.809225 -58.479766
-0.503171 28.073813 -61.645033
-0.468202 29.214398 -61.090931
-2.56306 27.272165 -64.194362
-1.920267 27.560254 -63.356928
-1.853966 26.48162 -63.919905
-3.376651 22.892059 -67.026577
-3.340724 24.019618 -66.616318
-2.635143 23.015897 -66.215176
-4.090024 22.738937 -67.807525
-3.376651 22.892059 -67.026577
-37.371011 10.316072 -45.923001
-36.862837 11.419752 -46.325314
-27.227784 22.648019 -46.400435
-27.494204 21.749002 -44.975144
-24.290347 25.885537 -64.288185
-23.251278 26.747739 -64.394531
-23.410501 26.077799 -65.320892
-26.583058 25.093733 -60.972115
-25.83145 25.442124 -62.091499
-26.849518 24.478898 -61.913059
-5.549772 26.593272 -67.299163
-6.375354 26.400527 -67.99065
-6.392783 27.369985 -67.405124
-8.64825 39.48374 -51.301916
-9.242749 39.411947 -50.503122
-7.983128 39.56819 -51.977396
-8.657027 38.812813 -52.303661
-8.64825 39.48374 -51.301916
-7.296581 39.64552 -52.589824
-7.983128 39.56819 -51.977396
-6.498983 39.663136 -53.170336
-7.194307 38.914879 -53.559652
-7.296581 39.64552 -52.589824
-35.201112 15.042744 -52.081732
-34.861382 15.658509 -51.202454
-34.517889 16.199677 -52.628679
-35.87994 13.769576 -51.501429
-35.201112 15.042744 -52.081732
-31.98001 18.287152 -46.514562
-32.719417 17.429502 -46.328608
-31.70758 19.093754 -47.85746
-31.98001 18.287152 -46.514562
-31.201647 19.186588 -46.753892
-13.546288 28.964934 -68.164089
-13.595036 29.744059 -67.270603
-12.632065 29.472121 -67.657005
-13.546288 28.964934 -68.164089
-13.569107 28.186231 -68.957668
-17.405778 32.060452 -49.26239
-18.250293 31.310095 -49.557357
-12.49211 36.560681 -49.873362
-11.778144 37.405135 -49.451756
-13.267364 35.813643 -50.313654
-12.49211 36.560681 -49.873362
-12.669156 36.187624 -51.146335
-13.985819 35.081661 -50.609472
-13.808772 35.454718 -49.336499
-13.267364 35.813643 -50.313654
-2.091897 33.702475 -59.237894
-2.163812 34.809225 -58.479766
-2.0604 32.742472 -60.032742
-2.789871 33.353454 -59.924554
-2.091897 33.702475 -59.237894
-1.983935 31.685847 -60.692452
-2.0604 32.742472 -60.032742
-1.285961 32.034866 -60.005791
-1.842999 25.392857 -64.381336
-1.853966 26.48162 -63.919905
-1.894228 24.36782 -64.905124
-2.547988 25.168494 -65.281127
-1.842999 25.392857 -64.381336
-1.941752 23.17686 -65.343422
-1.894228 24.36782 -64.905124
-2.635143 23.015897 -66.215176
-1.941752 23.17686 -65.343422
-37.721924 9.670227 -46.721657
-37.532017 10.221671 -48.001793
-27.744573 23.515048 -61.789194
-26.849518 24.478898 -61.913059
-28.532981 23.087631 -60.611666
-27.744573 23.515048 -61.789194
-29.226182 20.062954 -44.627678
-30.013589 19.249924 -44.41778
-11.807714 27.358215 -69.585903
-12.661442 27.819855 -69.284332
-11.729591 28.231355 -68.852062
-10.849304 26.804927 -69.789623
-11.807714 27.358215 -69.585903
-10.849304 26.804927 -69.789623
-9.950879 27.18833 -69.269962
-8.12213 26.892094 -68.741451
-8.972786 27.514226 -68.697213
-8.069021 27.799373 -68.052372
-8.12213 26.892094 -68.741451
-7.254955 26.221086 -68.684345
-11.214849 37.686415 -50.327478
-11.778144 37.405135 -49.451756
-11.261087 37.168177 -51.537893
-11.214849 37.686415 -50.327478
-10.582033 37.919929 -51.159329
-36.300774 12.575017 -46.733912
-35.655404 13.727266 -47.08371
-36.632437 12.141168 -47.641657
-36.862837 11.419752 -46.325314
-36.300774 12.575017 -46.733912
-37.337807 10.729777 -49.285511
-37.532017 10.221671 -48.001793
-37.00029 11.494008 -48.516777
-37.337807 10.729777 -49.285511
-37.102436 11.177707 -50.518892
-23.113996 27.106392 -49.084333
-23.48591 26.382362 -47.862054
-23.574158 27.085107 -50.445114
-23.113996 27.106392 -49.084333
-22.695358 27.756976 -50.262514
-21.432485 26.998333 -66.324944
-21.383544 27.681523 -65.357692
-20.444599 27.739855 -66.255398
-22.548564 26.177375 -66.229076
-21.432485 26.998333 -66.324944
-23.410501 26.077799 -65.320892
-22.548564 26.177375 -66.229076
-34.308515 15.976162 -47.957521
-34.979233 14.909737 -47.522147
-33.19247 17.242634 -47.303022
-32.719417 17.429502 -46.328608
-33.633577 16.985859 -48.313412
-33.19247 17.242634 -47.303022
-32.927049 17.937544 -48.628519
-34.043094 16.671072 -49.283018
-34.308515 15.976162 -47.957521
-33.633577 16.985859 -48.313412
-14.531412 29.925506 -66.800312
-13.617189 30.432693 -66.293228
-13.595036 29.744059 -67.270603
-15.482354 30.103651 -66.215439
-14.531412 29.925506 -66.800312
-15.460201 29.415017 -67.192814
-19.429384 27.778301 -67.114186
-20.444599 27.739855 -66.255398
-19.380443 28.461492 -66.146935
-19.429384 27.778301 -67.114186
-18.466308 27.729106 -67.827809
-20.883505 29.163712 -49.953525
-21.759159 28.450711 -50.080719
-19.991796 29.858345 -49.865307
-19.14744 30.602951 -49.823015
-20.391414 29.817794 -51.171486
-20.883505 29.163712 -49.953525
-19.991796 29.858345 -49.865307
-16.574373 32.764124 -49.083876
-15.802011 33.529784 -48.883253
-16.874007 32.630386 -50.373438
-17.405778 32.060452 -49.26239
-16.574373 32.764124 -49.083876
-5.74431 39.646561 -53.699257
-6.498983 39.663136 -53.170336
-4.951197 39.484959 -54.211174
-4.184848 39.307579 -54.67049
-5.603597 38.770893 -54.65208
-5.74431 39.646561 -53.699257
-4.951197 39.484959 -54.211174
-2.405466 36.778307 -56.96821
-2.289938 35.749949 -57.690942
-3.149306 37.130483 -56.730341
-2.405466 36.778307 -56.96821
-3.820805 36.545136 -57.280056
-3.89649 37.480715 -56.458338
-3.149306 37.130483 -56.730341
-0.492628 30.287311 -60.45706
-0.517215 31.385143 -59.910983
-1.185071 29.905328 -61.299372
-0.492628 30.287311 -60.45706
-0.468202 29.214398 -61.090931
-1.185909 27.801062 -62.507857
-0.503171 28.073813 -61.645033
-1.895002 28.591608 -62.782314
-1.185909 27.801062 -62.507857
-1.920267 27.560254 -63.356928
-4.732645 25.811134 -67.095363
-5.549772 26.593272 -67.299163
-4.750073 26.780592 -66.509838
-4.807288 24.759797 -67.656204
-4.732645 25.811134 -67.095363
-4.007589 24.947116 -66.866878
-4.833098 23.749941 -68.129734
-4.807288 24.759797 -67.656204
-4.833098 23.749941 -68.129734
-4.090024 22.738937 -67.807525
-37.371011 10.316072 -45.923001
-37.721924 9.670227 -46.721657
-28.336203 20.947382 -44.848222
-27.494204 21.749002 -44.975144
-28.955947 20.965443 -45.994658
-29.226182 20.062954 -44.627678
-28.336203 20.947382 -44.848222
-24.332169 25.688532 -47.965029
-23.48591 26.382362 -47.862054
-25.21704 24.956373 -47.948315
-24.332169 25.688532 -47.965029
-24.877668 25.702364 -49.250219
-26.076069 24.208186 -47.909586
-25.21704 24.956373 -47.948315
-26.974896 23.425679 -47.832622
-26.076069 24.208186 -47.909586
-26.661366 24.187698 -49.156542
-27.81308 22.627531 -47.64739
-27.227784 22.648019 -46.400435
-26.974896 23.425679 -47.832622
-25.114517 25.691384 -63.197134
-24.290347 25.885537 -64.288185
-24.848057 26.306218 -62.256189
-25.114517 25.691384 -63.197134
-25.83145 25.442124 -62.091499
-29.182226 22.673112 -59.415239
-28.250371 23.715989 -59.597248
-28.532981 23.087631 -60.611666
-29.774563 22.297562 -58.140856
-29.182226 22.673112 -59.415239
-30.392103 21.733165 -56.800892
-29.517156 22.737072 -57.060858
-29.774563 22.297562 -58.140856
-31.183938 20.777514 -56.569116
-30.926532 21.217023 -55.489119
-30.392103 21.733165 -56.800892
-32.10044 19.574824 -56.116617
-31.183938 20.777514 -56.569116
-32.905592 18.47211 -55.650019
-32.523519 19.158658 -54.790745
-32.10044 19.574824 -56.116617
-33.240364 17.738311 -56.495722
-33.663443 17.322145 -55.169849
-32.905592 18.47211 -55.650019
3 0 39 37
3 0 41 39
3 2 143 145
3 145 144 43
3 143 144 145
3 2 146 147
3 1 47 45
3 3 148 149
3 3 150 152
3 150 49 151
3 150 151 152
3 4 52 50
3 154 153 53
3 6 55 54
3 6 57 55
3 6 59 57
3 7 62 60
3 7 64 62
3 155 66 156
3 8 70 68
3 8 72 70
3 5 75 73
3 9 78 76
3 11 79 38
3 11 80 79
3 11 157 159
3 159 158 80
3 157 158 159
3 161 160 40
3 12 162 163
3 12 164 166
3 164 81 165
3 164 165 166
3 12 83 81
3 14 84 42
3 14 85 84
3 15 167 169
3 167 86 168
3 167 168 169
3 170 87 171
3 172 171 44
3 170 171 172
3 174 173 87
3 17 175 177
3 175 89 176
3 175 176 177
3 19 90 46
3 19 91 90
3 20 93 48
3 20 94 93
3 21 97 95
3 23 98 51
3 23 99 98
3 10 100 77
3 178 101 179
3 180 102 181
3 182 181 101
3 180 181 182
3 184 183 102
3 24 185 187
3 185 103 186
3 185 186 187
3 24 104 103
3 25 188 189
3 25 190 191
3 25 192 194
3 192 105 193
3 192 193 194
3 26 106 56
3 26 107 106
3 26 108 107
3 27 109 58
3 27 110 109
3 13 111 82
3 28 112 61
3 28 113 112
3 28 114 113
3 29 115 63
3 29 116 115
3 195 117 196
3 197 118 198
3 199 198 117
3 197 198 199
3 30 200 202
3 200 119 201
3 200 201 202
3 30 120 119
3 30 121 120
3 31 122 65
3 31 123 122
3 203 124 204
3 32 205 207
3 205 125 206
3 205 206 207
3 32 126 125
3 32 127 126
3 208 128 209
3 210 209 67
3 208 209 210
3 212 211 128
3 16 213 214
3 215 129 216
3 18 130 88
3 33 131 69
3 33 132 131
3 33 133 132
3 34 134 71
3 34 135 134
3 22 136 96
3 35 137 74
3 35 138 137
3 217 139 218
3 219 218 92
3 217 218 219
3 36 220 222
3 220 140 221
3 220 221 222
3 36 141 140
3 36 142 141
3 37 38 9
3 39 38 37
3 39 11 38
3 39 40 11
3 41 40 39
3 41 223 225
3 225 224 40
3 223 224 225
3 226 12 227
3 228 42 229
3 230 229 12
3 228 229 230
3 231 42 232
3 233 14 234
3 235 234 42
3 233 234 235
3 43 44 15
3 236 44 237
3 238 237 43
3 236 237 238
3 240 239 44
3 45 46 17
3 47 46 45
3 47 19 46
3 241 48 242
3 49 243 245
3 243 48 244
3 243 244 245
3 49 20 48
3 50 51 21
3 52 51 50
3 52 23 51
3 53 246 248
3 248 247 10
3 246 247 248
3 250 249 53
3 251 24 252
3 54 253 254
3 55 255 257
3 257 256 54
3 255 256 257
3 55 258 260
3 258 25 259
3 258 259 260
3 55 56 25
3 57 56 55
3 57 26 56
3 57 58 26
3 59 58 57
3 59 27 58
3 60 61 13
3 62 61 60
3 62 28 61
3 62 63 28
3 64 63 62
3 64 29 63
3 261 30 262
3 263 65 264
3 265 264 30
3 263 264 265
3 66 266 268
3 266 65 267
3 266 267 268
3 66 31 65
3 269 32 270
3 271 67 272
3 273 272 32
3 271 272 273
3 274 67 275
3 277 276 67
3 279 278 16
3 68 69 18
3 70 69 68
3 70 33 69
3 70 71 33
3 72 71 70
3 72 34 71
3 73 74 22
3 75 74 73
3 75 35 74
3 280 36 281
3 283 282 36
3 284 3 285
3 76 77 4
3 78 77 76
3 78 10 77
3 38 78 9
3 79 78 38
3 79 10 78
3 79 53 10
3 80 53 79
3 80 286 288
3 288 287 53
3 286 287 288
3 80 289 290
3 292 291 80
3 40 293 295
3 295 294 11
3 293 294 295
3 297 296 40
3 298 54 299
3 81 300 302
3 300 54 301
3 300 301 302
3 81 6 54
3 81 82 6
3 83 82 81
3 83 13 82
3 42 83 12
3 84 83 42
3 84 13 83
3 84 60 13
3 85 60 84
3 85 7 60
3 86 303 304
3 86 305 307
3 305 16 306
3 305 306 307
3 44 86 15
3 87 86 44
3 87 16 86
3 87 308 310
3 310 309 16
3 308 309 310
3 312 311 87
3 313 88 314
3 89 315 317
3 315 88 316
3 315 316 317
3 89 18 88
3 46 89 17
3 90 89 46
3 90 18 89
3 90 68 18
3 91 68 90
3 91 8 68
3 318 92 319
3 320 319 5
3 318 319 320
3 321 92 322
3 324 323 92
3 325 15 326
3 48 327 328
3 93 329 331
3 331 330 48
3 329 330 331
3 93 332 334
3 332 15 333
3 332 333 334
3 93 43 15
3 94 43 93
3 94 2 43
3 95 96 1
3 97 96 95
3 97 22 96
3 51 97 21
3 98 97 51
3 98 22 97
3 98 73 22
3 99 73 98
3 99 5 73
3 77 52 4
3 100 52 77
3 100 23 52
3 335 100 336
3 337 336 10
3 335 336 337
3 101 338 340
3 338 100 339
3 338 339 340
3 101 23 100
3 101 99 23
3 102 99 101
3 102 5 99
3 102 341 343
3 343 342 5
3 341 342 343
3 345 344 102
3 346 17 347
3 103 348 349
3 103 350 352
3 350 17 351
3 350 351 352
3 103 45 17
3 104 45 103
3 104 1 45
3 105 353 354
3 105 355 357
3 355 24 356
3 355 356 357
3 56 105 25
3 106 105 56
3 106 24 105
3 106 104 24
3 107 104 106
3 107 1 104
3 107 95 1
3 108 95 107
3 108 21 95
3 58 108 26
3 109 108 58
3 109 21 108
3 109 50 21
3 110 50 109
3 110 4 50
3 82 59 6
3 111 59 82
3 111 27 59
3 61 111 13
3 112 111 61
3 112 27 111
3 112 110 27
3 113 110 112
3 113 4 110
3 113 76 4
3 114 76 113
3 114 9 76
3 63 114 28
3 115 114 63
3 115 9 114
3 115 37 9
3 116 37 115
3 116 0 37
3 358 14 359
3 117 360 361
3 117 362 364
3 362 14 363
3 362 363 364
3 117 85 14
3 118 85 117
3 118 7 85
3 119 365 366
3 119 367 368
3 119 369 371
3 369 118 370
3 369 370 371
3 120 118 119
3 120 7 118
3 120 64 7
3 121 64 120
3 121 29 64
3 65 121 30
3 122 121 65
3 122 29 121
3 122 116 29
3 123 116 122
3 123 0 116
3 372 66 373
3 124 374 376
3 374 66 375
3 374 375 376
3 124 31 66
3 377 124 378
3 125 379 381
3 379 124 380
3 379 380 381
3 125 31 124
3 125 123 31
3 126 123 125
3 126 0 123
3 126 41 0
3 127 41 126
3 127 382 384
3 384 383 41
3 382 383 384
3 67 127 32
3 128 127 67
3 128 385 387
3 387 386 127
3 385 386 387
3 128 388 389
3 391 390 128
3 393 392 16
3 129 394 395
3 129 396 398
3 396 3 397
3 396 397 398
3 88 399 400
3 130 401 403
3 403 402 88
3 401 402 403
3 130 404 405
3 69 130 18
3 131 130 69
3 131 406 408
3 408 407 130
3 406 407 408
3 131 409 411
3 409 129 410
3 409 410 411
3 132 129 131
3 132 3 129
3 132 49 3
3 133 49 132
3 133 20 49
3 71 133 33
3 134 133 71
3 134 20 133
3 134 94 20
3 135 94 134
3 135 2 94
3 96 47 1
3 136 47 96
3 136 19 47
3 74 136 22
3 137 136 74
3 137 19 136
3 137 91 19
3 138 91 137
3 138 8 91
3 92 75 5
3 139 75 92
3 139 35 75
3 412 139 413
3 140 414 416
3 414 139 415
3 414 415 416
3 140 35 139
3 140 138 35
3 141 138 140
3 141 8 138
3 141 72 8
3 142 72 141
3 142 34 72
3 417 142 418
3 419 418 36
3 417 418 419
3 420 142 421
3 422 34 423
3 424 423 142
3 422 423 424
3 425 135 426
3 427 426 34
3 425 426 427
3 428 135 429
3 430 2 431
3 432 431 135
3 430 431 432
3 435 434 2
3 433 434 435
