ply
format ascii 1.0
element vertex 595
property float x
property float y
property float z
element face 608
property list uchar int vertex_index
end_header
-29.654617 83.020988 19.348715
-28.181475 67.190765 41.694912
-24.137274 60.443935 50.229977
-26.31517 92.600571 17.423901
-24.744482 100.748764 3.208625
-19.8785 106.40094 -24.944153
-17.570679 103.996239 0.985038
-30.152206 71.033386 31.008354
-27.518299 81.100525 30.533821
-22.015411 87.391258 28.381477
-22.576712 105.612068 -11.253939
-27.055216 100.734612 -22.803242
-26.681585 56.775021 50.605042
-24.561554 52.949036 54.198463
-23.667976 95.50666 16.427826
-25.563309 97.100342 10.454553
-22.587797 99.792709 9.159239
-30.297991 64.307915 36.096447
-25.961615 71.790695 41.25528
-27.80814 74.561569 36.433292
-25.061377 84.866508 29.767
-29.761171 94.916649 -13.747066
-20.218864 105.556961 -5.037243
-18.753176 107.126221 -12.092445
-23.940172 104.269562 -23.868807
-29.588106 62.100285 41.401508
-28.32865 60.008324 46.232841
-26.30019 64.249832 46.402775
-23.710749 67.853714 45.56765
-28.290628 88.385963 18.324577
-27.787085 93.076195 11.759596
-27.211994 97.097832 4.632442
-26.553703 100.285049 -2.684009
-18.975212 101.100204 7.838598
-29.930105 77.430077 25.290958
-29.377394 69.702316 36.439724
-29.146587 76.332321 30.960665
-28.76594 82.645599 24.937893
-26.954054 87.103912 24.362591
-24.36664 90.693718 23.159586
-21.498455 103.155251 1.836728
-23.72164 103.60833 -3.925313
-25.819763 102.556076 -9.871043
-21.396233 106.527 -18.196274
-24.996895 103.887115 -17.172585
-27.634859 100.13266 -15.615764
-29.43395 96.069962 -20.741846
-23.160952 97.727402 12.869823
-21.508839 98.753998 11.987952
-24.743166 73.482681 40.828194
-28.9489 96.910995 -11.244501
-17.462738 106.821983 -9.129094
-25.530048 58.814377 50.44511
-26.498707 60.652107 48.512817
-25.25893 62.500114 48.385906
-25.102806 66.417961 45.898556
-23.909725 64.195724 47.973541
-27.366564 90.585281 18.04302
-28.034393 90.820053 15.124949
-27.078051 93.029572 14.588721
-25.172318 99.071533 6.727467
-26.478279 97.246078 7.410267
-26.070211 99.01741 4.08745
-26.867069 98.80883 1.07082
-25.630264 100.750397 0.26828
-30.488886 68.100166 30.966827
-30.667578 68.76416 28.24222
-30.413706 71.331909 28.375963
-30.328094 74.503304 25.553288
-30.044832 74.349907 28.191622
-28.966743 64.852249 41.528049
-29.497246 66.017265 38.948128
-28.815687 68.789177 39.005859
-27.665737 77.875107 33.590511
-28.547823 75.454994 33.878208
-28.399479 78.790794 30.888126
-28.912161 79.552109 28.270863
-28.163227 82.127731 27.738882
-27.966297 84.950737 24.69676
-27.214102 84.344292 27.387957
-23.695665 86.30262 29.076244
-24.800077 87.903244 26.410519
-23.294846 89.113266 25.921328
-22.889809 91.870911 22.494766
-20.299438 102.287285 4.939687
-19.559341 103.755791 1.43191
-21.512331 105.723122 -8.086608
-22.036242 104.812248 -4.733977
-23.301147 104.657318 -7.729038
-24.792921 103.325935 -7.138597
-24.30595 104.279129 -10.759935
-25.628262 102.612305 -23.419018
-24.487991 104.205803 -20.620895
-26.103565 102.432358 -19.919018
-26.456966 102.081276 -16.579311
-27.378613 100.541702 -19.301983
-28.545197 98.289848 -18.310982
-28.267782 98.697502 -21.573591
-27.758364 54.557911 50.413399
-25.671234 54.946949 52.510784
-24.306122 56.935173 52.185036
-25.086512 94.086479 17.165766
-25.978609 94.895706 14.034029
-24.700102 96.467995 13.438677
-24.16227 98.619514 9.813209
-23.822733 100.360962 6.251238
-30.800608 61.981438 32.961533
-30.561512 64.629318 33.467709
-30.255447 67.681755 33.497597
-27.175282 69.635773 41.538788
-27.965183 71.041565 39.141525
-26.950857 73.247452 38.957947
-26.612913 79.967392 33.261311
-26.371767 83.160797 30.209171
-25.377523 81.795547 32.795319
-23.977732 83.224854 32.285099
-22.372152 84.56517 31.437065
-30.45368 92.963181 -16.238792
-16.923082 105.190201 -2.602957
-18.853281 105.013947 -2.126257
-18.355494 106.039505 -5.71835
-19.65238 106.4664 -8.773315
-20.825405 106.520271 -11.724869
-21.272257 105.127174 -27.813042
-21.98761 105.520851 -24.582285
-28.041761 98.617287 -25.154776
-29.006102 60.957405 44.035786
-28.240124 63.607868 44.081821
-27.573107 58.551838 48.436993
-27.402557 62.095745 46.501163
-27.298424 65.800766 44.169151
-26.237862 68.006371 43.858063
-24.847868 69.922089 43.533478
-23.463524 71.57486 42.904747
-29.030336 85.792618 18.947142
-28.875717 88.21048 15.654643
-28.664255 90.662743 12.148792
-26.807407 95.279335 10.893865
-27.568054 95.111412 8.155455
-27.930174 96.635345 1.574315
-19.706621 99.275574 11.402131
-29.792645 80.25016 22.475266
-30.017426 63.077469 38.794369
-29.916014 66.905106 36.361675
-29.816671 70.296638 33.90057
-28.646626 72.171593 36.640785
-29.220272 73.108398 33.942715
-29.706722 73.688217 31.114573
-29.550526 77.176758 28.080429
-29.407526 80.050323 25.279652
-29.225323 83.141273 21.976236
-28.529142 85.615395 21.711691
-27.695444 87.869141 21.342249
-26.673208 89.971275 20.86282
-26.081665 86.312302 26.92815
-25.763727 89.162468 23.664051
-25.414967 91.644897 20.590456
-23.997705 93.188118 19.877331
-20.869001 100.709381 8.295305
-22.178196 101.534439 5.500395
-23.218731 102.102486 2.566984
-20.901596 104.462822 -1.666122
-22.624973 103.582008 -1.102595
-24.218943 102.284554 -0.269434
-25.269983 102.128258 -3.568093
-26.208048 101.564331 -6.552361
-27.112648 100.584839 -9.323615
-19.981339 107.070564 -15.239723
-22.068998 106.160858 -14.760461
-22.731104 105.55513 -21.274733
-23.286501 105.403076 -17.691072
-23.823429 104.950417 -14.090109
-25.387838 103.392891 -13.572492
-26.758141 101.503143 -12.844742
-28.005812 99.184555 -11.978016
-28.785885 97.65596 -14.880081
-29.578115 95.711296 -17.214941
-30.426867 93.232895 -19.496382
-29.216799 96.265114 -24.221106
-30.211882 93.756058 -23.0026
-31.145891 90.801819 -21.978172
-20.872136 97.998703 13.481435
-21.773306 97.679535 13.811227
-24.639633 75.139752 39.486615
-24.01962 74.233463 40.526235
-29.836436 82.955661 17.956333
-30.082795 81.497906 18.145998
-29.900976 81.563232 19.53838
-28.570166 97.615978 -9.783761
-29.035498 96.375179 -9.39531
-21.854102 88.818928 26.685826
-22.49382 89.679931 25.455751
-22.655129 88.252262 27.151402
-18.56501 103.876015 1.208474
-18.963292 103.224827 2.879174
-17.968961 103.345051 2.655738
-20.282787 106.512615 -23.195605
-19.235622 106.807346 -23.504653
-25.116394 53.947992 53.354624
-25.770035 52.953193 53.460543
-25.215196 51.954237 54.304382
-30.827004 60.157088 34.089878
-30.898414 60.544001 32.814333
-30.429752 64.468616 34.782078
-30.593856 62.925636 34.560753
-30.462096 62.764934 35.875122
-26.106381 79.354591 34.426907
-26.715538 78.247608 34.766118
-25.488686 80.268669 34.193911
-25.995218 80.88147 33.028315
-26.106381 79.354591 34.426907
-23.383809 82.283394 33.4555
-24.137336 81.664898 33.761601
-22.581018 82.953552 33.031483
-23.174942 83.895012 31.861082
-23.383809 82.283394 33.4555
-30.164712 93.503308 -13.263257
-29.801158 94.538986 -12.041844
-30.107425 93.939915 -14.992929
-30.510966 92.526574 -14.50912
-30.164712 93.503308 -13.263257
-17.234845 106.081631 -5.899949
-17.639288 105.614853 -4.160654
-16.518639 105.656979 -4.342252
-22.258102 104.623253 -27.46288
-21.931235 104.362644 -28.991403
-28.667376 60.482865 45.134314
-29.053101 59.097313 45.038557
-28.714375 58.622772 46.137085
-28.114439 92.929195 10.311758
-28.553024 91.72247 10.506356
-28.22567 91.869469 11.954194
-27.702047 95.937145 5.011663
-27.880077 94.943936 6.773169
-27.390024 96.104622 6.393949
-27.571084 96.866589 3.103378
-28.061138 95.705902 3.4826
-27.702047 95.937145 5.011663
-27.107307 99.239754 -2.375055
-27.26399 98.501644 -0.49764
-26.710386 99.54694 -0.806594
-26.948276 99.945549 -4.210909
-27.107307 99.239754 -2.375055
-30.76711 68.707234 27.04419
-30.650012 70.195488 26.940425
-30.091817 77.377022 23.974829
-30.290812 75.913635 24.105993
-30.1291 75.96669 25.422123
-29.861375 78.840118 23.883112
-30.023087 78.787063 22.566983
-30.091817 77.377022 23.974829
-29.802766 62.588877 40.097938
-30.050893 61.21558 39.884113
-29.836233 60.726988 41.187683
-22.682239 93.068779 20.853787
-22.029908 92.323765 22.101242
-20.688786 106.798782 -16.717999
-19.665796 107.168949 -17.020895
-20.373244 106.897167 -18.49917
-29.059486 96.285869 -25.879348
-28.62928 97.441201 -24.687941
-28.471967 97.461956 -26.346183
-30.625503 92.325142 -24.145071
-30.130249 93.744861 -24.687494
-31.092507 90.848022 -23.632857
-30.678886 92.278938 -22.490386
-30.625503 92.325142 -24.145071
-31.539903 89.286831 -23.02958
-31.092507 90.848022 -23.632857
-24.72425 50.902476 55.124366
-25.215196 51.954237 54.304382
-22.599363 97.166237 14.252162
-23.414464 96.617031 14.648824
-22.852874 96.055866 16.031163
-22.334896 98.2407 12.428888
-22.599363 97.166237 14.252162
-21.773306 97.679535 13.811227
-30.347176 62.368195 37.192642
-30.462096 62.764934 35.875122
-25.275166 74.420505 39.640843
-25.884391 73.574512 39.854385
-25.35239 72.636688 41.041737
-25.275166 74.420505 39.640843
-24.639633 75.139752 39.486615
-29.395023 95.536159 -10.790562
-29.035498 96.375179 -9.39531
-29.355035 95.913822 -12.495783
-29.801158 94.538986 -12.041844
-29.395023 95.536159 -10.790562
-16.378966 106.825749 -9.356018
-16.788466 106.47287 -7.605321
-16.977322 107.106609 -10.94825
-16.378966 106.825749 -9.356018
-17.622542 107.258728 -12.429925
-18.107957 106.974102 -10.610769
-16.977322 107.106609 -10.94825
-28.406773 57.959631 47.278173
-28.714375 58.622772 46.137085
-30.578232 68.432163 29.604523
-30.703034 67.106819 29.430754
-30.613688 66.774822 30.793057
-30.523076 71.479363 27.007296
-30.650012 70.195488 26.940425
-30.540642 70.048034 28.309092
-30.3709 72.917607 26.964625
-30.48027 73.06506 25.595959
-30.523076 71.479363 27.007296
-22.291301 91.058754 23.74247
-23.092327 90.492088 24.208047
-22.49382 89.679931 25.455751
-22.029908 92.323765 22.101242
-22.291301 91.058754 23.74247
-19.33334 102.490574 4.633062
-19.637325 101.693745 6.389143
-18.671228 101.897033 6.082518
-19.929389 103.021538 3.185799
-19.33334 102.490574 4.633062
-18.963292 103.224827 2.879174
-21.041653 106.575645 -19.821665
-20.373244 106.897167 -18.49917
-27.818171 52.528719 51.369261
-28.191272 53.1301 50.34285
-27.334946 53.610988 51.489414
-27.818171 52.528719 51.369261
-26.796557 54.719544 51.585236
-27.219974 55.666466 50.50922
-27.334946 53.610988 51.489414
-26.291381 53.805507 52.538107
-25.770035 52.953193 53.460543
-26.176409 55.860985 51.557913
-26.796557 54.719544 51.585236
-26.291381 53.805507 52.538107
-30.875801 62.178696 31.758307
-30.898414 60.544001 32.814333
-30.769548 63.715458 31.79041
-30.875801 62.178696 31.758307
-30.713404 61.601696 34.307665
-30.827004 60.157088 34.089878
-30.68106 63.305378 33.214621
-30.713404 61.601696 34.307665
-30.593856 62.925636 34.560753
-30.650001 65.039398 32.043498
-30.769548 63.715458 31.79041
-30.68106 63.305378 33.214621
-30.525199 66.364742 32.217268
-30.613688 66.774822 30.793057
-30.650001 65.039398 32.043498
-26.379012 74.302891 38.705719
-26.456236 72.519073 40.106613
-25.884391 73.574512 39.854385
-26.88451 74.887638 37.614435
-26.379012 74.302891 38.705719
-27.313152 75.544697 36.352108
-27.379499 73.904511 37.695619
-26.88451 74.887638 37.614435
-27.24195 77.201465 34.930718
-27.736939 76.218338 35.011902
-27.313152 75.544697 36.352108
-27.139325 78.92125 33.425911
-27.24195 77.201465 34.930718
-26.715538 78.247608 34.766118
-24.837232 80.950244 34.016711
-25.488686 80.268669 34.193911
-24.677627 82.5102 32.540209
-24.837232 80.950244 34.016711
-24.137336 81.664898 33.761601
-30.857455 91.429588 -15.735226
-30.510966 92.526574 -14.50912
-30.844443 91.676762 -17.3474
-30.857455 91.429588 -15.735226
-17.909116 106.430744 -7.423722
-17.234845 106.081631 -5.899949
-16.788466 106.47287 -7.605321
-22.615779 104.820091 -25.847502
-21.629933 105.324012 -26.197663
-22.258102 104.623253 -27.46288
-23.59206 104.194446 -25.490763
-22.963891 104.895207 -24.225546
-22.615779 104.820091 -25.847502
-24.456233 103.473518 -25.271338
-23.59206 104.194446 -25.490763
-25.300278 102.64489 -25.046443
-24.784217 103.440933 -23.643912
-24.456233 103.473518 -25.271338
-26.109078 101.710034 -24.780644
-25.300278 102.64489 -25.046443
-26.822555 100.771187 -24.472755
-26.341739 101.673459 -23.11113
-26.109078 101.710034 -24.780644
-27.315828 99.712525 -25.648522
-27.548489 99.67595 -23.979009
-26.822555 100.771187 -24.472755
-27.842111 98.587967 -26.747818
-27.315828 99.712525 -25.648522
-28.471967 97.461956 -26.346183
-27.842111 98.587967 -26.747818
-29.624049 60.257822 42.438413
-29.836233 60.726988 41.187683
-29.333047 59.686382 43.755553
-29.053101 59.097313 45.038557
-29.297104 61.528845 42.718647
-29.624049 60.257822 42.438413
-29.333047 59.686382 43.755553
-28.12163 55.234425 49.368452
-28.191272 53.1301 50.34285
-28.029001 57.231388 48.380249
-28.12163 55.234425 49.368452
-27.665736 56.554874 49.425196
-27.950879 59.280081 47.334917
-28.406773 57.959631 47.278173
-28.029001 57.231388 48.380249
-23.379799 73.279552 41.564512
-24.01962 74.233463 40.526235
-24.103345 72.528771 41.866471
-29.271533 85.663643 17.590418
-29.583673 84.277828 17.791204
-29.342476 84.406803 19.147928
-29.194223 86.872574 15.944168
-29.271533 85.663643 17.590418
-28.953026 87.001549 17.300892
-29.120839 88.08511 14.226214
-29.194223 86.872574 15.944168
-29.015108 89.311241 12.473288
-29.120839 88.08511 14.226214
-28.769986 89.436611 13.901718
-28.92818 90.493367 10.649578
-29.015108 89.311241 12.473288
-28.92818 90.493367 10.649578
-28.553024 91.72247 10.506356
-28.004924 93.946804 8.509688
-28.114439 92.929195 10.311758
-27.67757 94.093804 9.957525
-28.004924 93.946804 8.509688
-27.880077 94.943936 6.773169
-28.364199 95.413128 1.937102
-28.061138 95.705902 3.4826
-28.298004 96.111988 0.223594
-28.364199 95.413128 1.937102
-27.795543 97.414901 -0.245893
-27.398622 97.722088 1.322567
-27.26399 98.501644 -0.49764
-28.298004 96.111988 0.223594
-27.795543 97.414901 -0.245893
-18.71469 106.684166 -24.925666
-19.235622 106.807346 -23.504653
-19.410311 106.163849 -26.475203
-18.71469 106.684166 -24.925666
-20.10719 105.526966 -27.909647
-20.575378 105.764057 -26.378597
-19.410311 106.163849 -26.475203
-20.809159 104.852851 -29.216838
-20.10719 105.526966 -27.909647
-21.931235 104.362644 -28.991403
-20.809159 104.852851 -29.216838
-19.040053 98.531845 12.664911
-19.971027 98.259491 13.188524
-18.679519 99.441887 10.98106
-19.040053 98.531845 12.664911
-18.313814 100.354202 9.199293
-19.340916 100.187889 9.620365
-18.679519 99.441887 10.98106
-18.003093 101.206562 7.466555
-18.313814 100.354202 9.199293
-18.671228 101.897033 6.082518
-18.003093 101.206562 7.466555
-16.994446 103.356258 2.427923
-17.968961 103.345051 2.655738
-16.517213 103.973263 0.722123
-16.994446 103.356258 2.427923
-16.193414 104.570244 -1.071875
-17.24688 104.59322 -0.80896
-16.517213 103.973263 0.722123
-15.851745 105.110874 -2.776469
-16.193414 104.570244 -1.071875
-16.518639 105.656979 -4.342252
-15.851745 105.110874 -2.776469
-30.784421 67.233242 28.223584
-30.703034 67.106819 29.430754
-30.784421 67.233242 28.223584
-30.76711 68.707234 27.04419
-30.457764 74.509743 24.182579
-30.48027 73.06506 25.595959
-30.457764 74.509743 24.182579
-30.290812 75.913635 24.105993
-29.96999 80.177818 21.101656
-30.023087 78.787063 22.566983
-29.723631 81.635574 20.911991
-29.900976 81.563232 19.53838
-29.96999 80.177818 21.101656
-30.206894 61.752972 38.541603
-30.050893 61.21558 39.884113
-30.157708 63.692692 37.445408
-30.347176 62.368195 37.192642
-30.206894 61.752972 38.541603
-23.236187 93.727383 19.54507
-23.443757 92.529515 21.186048
-22.682239 93.068779 20.853787
-23.071323 94.886653 17.820318
-23.83284 94.347389 18.152579
-23.236187 93.727383 19.54507
-22.852874 96.055866 16.031163
-23.071323 94.886653 17.820318
-23.993498 51.791685 54.960535
-24.72425 50.902476 55.124366
-23.825133 53.794655 53.981992
-23.993498 51.791685 54.960535
-23.697416 55.787723 52.975279
-24.433838 54.942104 53.19175
-23.825133 53.794655 53.981992
-23.564713 57.687504 51.959167
-23.697416 55.787723 52.975279
-23.48029 59.441885 50.981638
-24.221698 58.689554 51.207506
-23.564713 57.687504 51.959167
-23.401664 61.323412 49.882199
-23.48029 59.441885 50.981638
-23.287889 63.199306 48.75398
-24.023499 62.319829 49.101759
-23.401664 61.323412 49.882199
-23.108393 64.980038 47.633451
-23.287889 63.199306 48.75398
-23.008904 66.809033 46.430506
-23.810237 66.024719 46.770595
-23.108393 64.980038 47.633451
-22.90819 68.543403 45.233551
-23.008904 66.809033 46.430506
-22.784577 70.403976 43.902099
-23.587136 69.714287 44.236199
-22.90819 68.543403 45.233551
-22.7393 72.243493 42.516997
-22.784577 70.403976 43.902099
-23.379799 73.279552 41.564512
-22.7393 72.243493 42.516997
-21.73502 83.520336 32.565005
-22.581018 82.953552 33.031483
-21.517525 84.934383 31.101618
-21.73502 83.520336 32.565005
-21.339154 86.347427 29.573824
-22.193782 85.978214 29.909271
-21.517525 84.934383 31.101618
-21.183692 87.81715 27.925951
-21.339154 86.347427 29.573824
-21.854102 88.818928 26.685826
-21.183692 87.81715 27.925951
-29.836436 82.955661 17.956333
-29.583673 84.277828 17.791204
-20.60773 99.014786 11.695042
-20.872136 97.998703 13.481435
-19.971027 98.259491 13.188524
-26.775448 100.58519 -6.145085
-26.948276 99.945549 -4.210909
-26.380876 100.92469 -4.618185
-27.227748 100.095444 -7.530712
-26.775448 100.58519 -6.145085
-26.660348 101.074585 -7.937988
-27.65204 99.4529 -8.823318
-27.227748 100.095444 -7.530712
-18.336159 107.329316 -13.845989
-17.622542 107.258728 -12.429925
-18.95024 107.301487 -15.419628
-19.665796 107.168949 -17.020895
-19.367258 107.098393 -13.666084
-18.336159 107.329316 -13.845989
-18.95024 107.301487 -15.419628
-21.337342 106.07257 -23.014671
-20.282787 106.512615 -23.195605
-20.933055 105.960895 -24.763219
-21.709089 106.08971 -21.360895
-21.337342 106.07257 -23.014671
-22.359357 105.537991 -22.928509
-22.063668 106.041065 -19.735504
-21.041653 106.575645 -19.821665
-21.709089 106.08971 -21.360895
-28.098622 98.752758 -10.150519
-27.65204 99.4529 -8.823318
-27.55923 99.884697 -10.650816
-28.477356 98.047775 -11.611258
-28.570166 97.615978 -9.783761
-28.098622 98.752758 -10.150519
-30.831037 91.811619 -18.976194
-30.844443 91.676762 -17.3474
-30.440273 93.098038 -17.867587
-29.632707 94.99939 -25.296747
-29.059486 96.285869 -25.879348
-29.71434 95.010586 -23.611853
-29.632707 94.99939 -25.296747
-30.130249 93.744861 -24.687494
-31.190549 90.596081 -20.21709
-30.831037 91.811619 -18.976194
-30.786379 92.017357 -20.737277
-31.563635 89.20647 -21.265723
-31.190549 90.596081 -20.21709
-31.957647 87.691483 -22.317131
-31.563635 89.20647 -21.265723
-31.539903 89.286831 -23.02958
3 181 48 182
3 184 183 49
3 0 185 187
3 185 186 187
3 188 50 189
3 2 54 52
3 2 56 54
3 3 59 57
3 4 62 60
3 4 64 62
3 7 67 65
3 7 69 67
3 1 72 70
3 8 75 73
3 8 77 75
3 8 79 77
3 9 82 80
3 9 190 192
3 192 191 82
3 190 191 192
3 6 193 195
3 193 85 194
3 193 194 195
3 10 88 86
3 10 90 88
3 5 196 197
3 11 93 91
3 11 95 93
3 11 97 95
3 13 198 200
3 198 99 199
3 198 199 200
3 13 100 99
3 14 103 101
3 16 104 47
3 16 105 104
3 201 106 202
3 17 203 205
3 203 107 204
3 203 204 205
3 17 108 107
3 18 111 109
3 206 112 207
3 208 114 209
3 210 209 112
3 208 209 210
3 211 115 212
3 213 116 214
3 215 214 115
3 213 214 215
3 21 216 217
3 21 218 220
3 218 117 219
3 218 219 220
3 221 120 222
3 223 222 118
3 221 222 223
3 23 121 51
3 23 122 121
3 225 224 123
3 26 226 228
3 226 126 227
3 226 227 228
3 26 127 126
3 12 128 98
3 27 129 53
3 27 130 129
3 27 131 130
3 28 132 55
3 28 133 132
3 29 135 134
3 30 136 58
3 30 229 231
3 231 230 136
3 229 230 231
3 15 137 102
3 31 138 61
3 31 232 234
3 234 233 138
3 232 233 234
3 31 235 237
3 235 139 236
3 235 236 237
3 32 238 240
3 240 239 63
3 238 239 240
3 32 241 242
3 244 243 66
3 34 245 247
3 247 246 68
3 245 246 247
3 34 248 250
3 248 141 249
3 248 249 250
3 25 251 253
3 251 142 252
3 251 252 253
3 35 143 71
3 35 144 143
3 19 145 110
3 36 146 74
3 36 147 146
3 36 148 147
3 37 149 76
3 37 150 149
3 37 151 150
3 38 152 78
3 38 153 152
3 20 154 113
3 39 155 81
3 39 156 155
3 39 157 156
3 255 254 83
3 33 158 140
3 40 159 84
3 40 160 159
3 22 161 119
3 41 162 87
3 41 163 162
3 41 164 163
3 42 165 89
3 42 166 165
3 43 256 258
3 256 167 257
3 256 257 258
3 43 168 167
3 24 169 124
3 44 170 92
3 44 171 170
3 44 172 171
3 45 173 94
3 45 174 173
3 45 175 174
3 46 176 96
3 46 177 176
3 259 178 260
3 261 260 125
3 259 260 261
3 262 179 263
3 264 180 265
3 266 265 179
3 264 265 266
3 268 267 180
3 269 13 270
3 271 47 272
3 273 272 14
3 271 272 273
3 48 274 276
3 274 47 275
3 274 275 276
3 48 16 47
3 277 17 278
3 49 279 281
3 281 280 18
3 279 280 281
3 283 282 49
3 50 284 285
3 50 286 288
3 286 21 287
3 286 287 288
3 289 51 290
3 291 51 292
3 293 23 294
3 295 294 51
3 293 294 295
3 296 26 297
3 52 53 12
3 54 53 52
3 54 27 53
3 54 55 27
3 56 55 54
3 56 28 55
3 57 58 29
3 59 58 57
3 59 30 58
3 60 61 15
3 62 61 60
3 62 31 61
3 62 63 31
3 64 63 62
3 64 32 63
3 65 298 300
3 298 66 299
3 298 299 300
3 67 66 65
3 67 301 303
3 303 302 66
3 301 302 303
3 67 304 306
3 304 68 305
3 304 305 306
3 69 68 67
3 69 34 68
3 70 71 25
3 72 71 70
3 72 35 71
3 73 74 19
3 75 74 73
3 75 36 74
3 75 76 36
3 77 76 75
3 77 37 76
3 77 78 37
3 79 78 77
3 79 38 78
3 80 81 20
3 82 81 80
3 82 39 81
3 82 83 39
3 307 83 308
3 309 308 82
3 307 308 309
3 311 310 83
3 312 84 313
3 314 313 33
3 312 313 314
3 85 315 317
3 315 84 316
3 315 316 317
3 85 40 84
3 86 87 22
3 88 87 86
3 88 41 87
3 88 89 41
3 90 89 88
3 90 42 89
3 318 43 319
3 91 92 24
3 93 92 91
3 93 44 92
3 93 94 44
3 95 94 93
3 95 45 94
3 95 96 45
3 97 96 95
3 97 46 96
3 320 98 321
3 322 98 323
3 324 12 325
3 326 325 98
3 324 325 326
3 99 327 328
3 99 329 331
3 329 12 330
3 329 330 331
3 99 52 12
3 100 52 99
3 100 2 52
3 101 102 3
3 103 102 101
3 103 15 102
3 47 103 14
3 104 103 47
3 104 15 103
3 104 60 15
3 105 60 104
3 105 4 60
3 106 332 333
3 106 334 335
3 336 106 337
3 107 338 340
3 338 106 339
3 338 339 340
3 107 341 343
3 343 342 106
3 341 342 343
3 107 344 346
3 344 65 345
3 344 345 346
3 108 65 107
3 108 7 65
3 109 110 1
3 111 110 109
3 111 19 110
3 347 111 348
3 349 348 18
3 347 348 349
3 350 111 351
3 352 19 353
3 354 353 111
3 352 353 354
3 355 73 356
3 357 356 19
3 355 356 357
3 112 358 360
3 358 73 359
3 358 359 360
3 112 8 73
3 112 113 8
3 114 113 112
3 114 20 113
3 361 114 362
3 115 363 365
3 363 114 364
3 363 364 365
3 115 20 114
3 115 80 20
3 116 80 115
3 116 9 80
3 117 366 367
3 117 368 369
3 118 119 6
3 120 119 118
3 120 22 119
3 51 370 372
3 370 120 371
3 370 371 372
3 121 120 51
3 121 22 120
3 121 86 22
3 122 86 121
3 122 10 86
3 123 124 5
3 373 124 374
3 375 374 123
3 373 374 375
3 376 24 377
3 378 377 124
3 376 377 378
3 379 24 380
3 381 91 382
3 383 382 24
3 381 382 383
3 384 91 385
3 386 11 387
3 388 387 91
3 386 387 388
3 389 125 390
3 391 390 11
3 389 390 391
3 392 125 393
3 395 394 125
3 396 25 397
3 126 398 399
3 126 400 402
3 400 25 401
3 400 401 402
3 126 70 25
3 127 70 126
3 127 1 70
3 98 403 404
3 128 405 407
3 407 406 98
3 405 406 407
3 128 408 410
3 408 26 409
3 408 409 410
3 53 128 12
3 129 128 53
3 129 26 128
3 129 127 26
3 130 127 129
3 130 1 127
3 130 109 1
3 131 109 130
3 131 18 109
3 55 131 27
3 132 131 55
3 132 18 131
3 132 49 18
3 133 49 132
3 133 411 413
3 413 412 49
3 411 412 413
3 134 414 416
3 416 415 0
3 414 415 416
3 135 417 419
3 419 418 134
3 417 418 419
3 135 420 421
3 58 135 29
3 136 135 58
3 136 422 424
3 424 423 135
3 422 423 424
3 136 425 426
3 428 427 136
3 102 59 3
3 137 59 102
3 137 30 59
3 61 137 15
3 138 137 61
3 138 30 137
3 138 429 431
3 431 430 30
3 429 430 431
3 433 432 138
3 139 434 435
3 139 436 437
3 63 139 31
3 438 139 439
3 440 439 63
3 438 439 440
3 442 441 139
3 443 5 444
3 445 5 446
3 447 123 448
3 449 448 5
3 447 448 449
3 450 123 451
3 453 452 123
3 454 140 455
3 456 140 457
3 458 33 459
3 460 459 140
3 458 459 460
3 461 33 462
3 464 463 33
3 465 6 466
3 467 6 468
3 469 118 470
3 471 470 6
3 469 470 471
3 472 118 473
3 475 474 118
3 66 476 477
3 479 478 66
3 68 480 481
3 483 482 68
3 141 484 485
3 141 486 488
3 486 0 487
3 486 487 488
3 142 489 490
3 142 491 493
3 491 17 492
3 491 492 493
3 71 142 25
3 143 142 71
3 143 17 142
3 143 108 17
3 144 108 143
3 144 7 108
3 110 72 1
3 145 72 110
3 145 35 72
3 74 145 19
3 146 145 74
3 146 35 145
3 146 144 35
3 147 144 146
3 147 7 144
3 147 69 7
3 148 69 147
3 148 34 69
3 76 148 36
3 149 148 76
3 149 34 148
3 149 141 34
3 150 141 149
3 150 0 141
3 150 134 0
3 151 134 150
3 151 29 134
3 78 151 37
3 152 151 78
3 152 29 151
3 152 57 29
3 153 57 152
3 153 3 57
3 113 79 8
3 154 79 113
3 154 38 79
3 81 154 20
3 155 154 81
3 155 38 154
3 155 153 38
3 156 153 155
3 156 3 153
3 156 101 3
3 157 101 156
3 157 14 101
3 83 157 39
3 494 157 495
3 496 495 83
3 494 495 496
3 497 14 498
3 499 498 157
3 497 498 499
3 501 500 14
3 502 13 503
3 504 13 505
3 506 100 507
3 508 507 13
3 506 507 508
3 509 100 510
3 511 2 512
3 513 512 100
3 511 512 513
3 514 2 515
3 516 56 517
3 518 517 2
3 516 517 518
3 519 56 520
3 521 28 522
3 523 522 56
3 521 522 523
3 524 28 525
3 526 133 527
3 528 527 28
3 526 527 528
3 529 133 530
3 532 531 133
3 533 116 534
3 535 116 536
3 537 9 538
3 539 538 116
3 537 538 539
3 540 9 541
3 543 542 9
3 545 544 0
3 140 546 548
3 546 48 547
3 546 547 548
3 158 48 140
3 158 16 48
3 84 158 33
3 159 158 84
3 159 16 158
3 159 105 16
3 160 105 159
3 160 4 105
3 119 85 6
3 161 85 119
3 161 40 85
3 87 161 22
3 162 161 87
3 162 40 161
3 162 160 40
3 163 160 162
3 163 4 160
3 163 64 4
3 164 64 163
3 164 32 64
3 89 164 41
3 165 164 89
3 165 32 164
3 165 549 551
3 551 550 32
3 549 550 551
3 166 552 554
3 554 553 165
3 552 553 554
3 166 555 556
3 557 23 558
3 167 559 560
3 167 561 563
3 561 23 562
3 561 562 563
3 167 122 23
3 168 122 167
3 168 10 122
3 124 564 566
3 566 565 5
3 564 565 566
3 169 567 569
3 569 568 124
3 567 568 569
3 169 570 572
3 570 43 571
3 570 571 572
3 92 169 24
3 170 169 92
3 170 43 169
3 170 168 43
3 171 168 170
3 171 10 168
3 171 90 10
3 172 90 171
3 172 42 90
3 94 172 44
3 173 172 94
3 173 42 172
3 173 166 42
3 174 166 173
3 174 573 575
3 575 574 166
3 573 574 575
3 174 576 578
3 576 50 577
3 576 577 578
3 175 50 174
3 175 21 50
3 96 175 45
3 176 175 96
3 176 21 175
3 176 117 21
3 177 117 176
3 177 579 581
3 581 580 117
3 579 580 581
3 125 97 11
3 178 97 125
3 178 46 97
3 582 178 583
3 179 584 586
3 584 178 585
3 584 585 586
3 179 46 178
3 179 177 46
3 180 177 179
3 180 587 589
3 589 588 177
3 587 588 589
3 180 590 591
3 594 593 180
3 592 593 594
