ply
format ascii 1.0
element vertex 944
property float x
property float y
property float z
element face 1089
property list uchar int vertex_index
end_header
-22.949369 -7.076767 -6.347281
-17.605505 15.61138 -10.025839
-13.316051 36.363949 -35.584911
-6.723172 41.9921 -50.233326
-12.425122 54.121861 -24.873646
-14.550202 26.169161 -19.842663
-10.017678 46.865871 -36.082592
-11.051484 40.14505 -43.728619
-7.411442 48.961353 -42.78886
-15.472306 20.639458 -13.92986
-14.465016 35.458904 -15.865112
-12.704807 40.438828 -21.537243
-14.900738 50.609085 -18.703987
-19.391895 2.872742 -8.127129
-18.317924 26.944101 -36.037628
-16.351032 32.634373 -45.223782
-10.309491 55.793217 -31.664524
-18.007877 7.659054 -12.466965
-18.0562 13.802598 -18.963219
-18.624992 20.254309 -27.019445
-14.154989 31.395214 -27.198954
-11.489249 44.129005 -28.53546
-0.807585 41.300247 -53.782513
-8.984982 51.662094 -36.743618
-8.93571 47.995613 -39.415958
-7.887032 52.45731 -39.655338
-14.559677 43.410576 -17.164331
-15.575725 31.472279 -35.687916
-17.646385 29.92767 -40.735001
-14.810169 34.042225 -40.267891
-9.174723 41.433815 -47.086212
-11.662385 37.875607 -48.197468
-18.287991 8.927508 -9.075715
-18.463007 5.149936 -10.052222
-17.229885 11.084056 -10.922724
-14.88412 23.433418 -16.638063
-16.230066 16.608232 -15.998266
-16.190016 19.445681 -19.333155
-18.339746 16.929882 -22.7379
-16.212175 22.463911 -23.036602
-16.180943 25.545992 -27.059589
-14.313872 28.910019 -23.300066
-12.452987 47.555382 -22.91923
-12.071302 42.363285 -24.894495
-11.580011 49.105259 -26.374393
-10.789449 50.360813 -29.872423
-11.38198 55.44355 -28.254183
1.669123 45.258793 -52.312992
2.417478 39.844109 -54.429726
-11.487615 41.542786 -35.49815
-12.388013 38.535378 -39.677521
-10.439343 43.210075 -39.474957
-8.99013 44.558102 -43.012707
-7.0645 45.324532 -46.380054
-17.225344 22.597589 -10.97902
-16.327145 17.919907 -11.827921
-15.851169 25.287655 -12.684733
-14.758267 28.065895 -14.86841
-13.977738 30.601898 -17.48362
-13.420637 33.027588 -20.512766
-13.481248 38.18961 -18.552414
-13.420305 45.363052 -19.803753
-13.653937 52.631321 -21.55051
-22.523855 -4.445214 -5.145306
-20.953787 -2.415253 -7.155027
-20.926704 0.954433 -6.367955
-19.945221 6.868007 -7.458177
-13.58235 36.124573 -44.329529
-15.353825 57.491364 -20.660889
-13.958344 59.415379 -23.849436
-12.566044 60.563324 -27.199631
-9.247067 56.001606 -34.891094
-20.105057 -0.186176 -9.313561
-19.78841 2.471994 -11.942013
-19.885981 5.477718 -15.039108
-16.545025 13.870604 -13.204623
-17.879644 10.739916 -15.518682
-20.310457 8.561144 -18.545399
-20.656376 12.235103 -22.515949
-21.097425 15.70366 -26.687
-21.372009 19.282064 -31.227205
-18.595924 23.715982 -31.446669
-16.009592 28.638962 -31.392138
-13.849681 33.982151 -31.40609
-12.987142 35.406891 -23.904795
-12.598077 37.648617 -27.662374
-12.160514 39.632729 -31.681627
-10.87678 45.556858 -32.174492
-9.941852 51.027637 -33.450451
-6.220437 53.947021 -42.580463
-5.363359 50.002552 -45.636826
-4.644026 45.961372 -48.896469
-3.835075 41.994678 -52.429771
-3.224992 38.066063 -55.908623
-8.603057 53.853657 -37.120415
-8.456818 52.171177 -38.188198
-8.085259 54.195 -38.482601
-23.67292 -8.177349 -7.142745
-22.461229 -5.975803 -7.444369
-23.564173 -8.003903 -5.246374
-24.712479 -10.161271 -4.82541
-24.135893 -9.259463 -5.964876
-14.432503 33.811165 -35.726913
-15.270519 32.762138 -37.992081
-14.087134 34.980064 -37.828056
-8.031091 41.745293 -48.788715
-9.16335 40.095531 -49.378063
-7.974351 40.239117 -50.975651
-6.601257 40.393776 -52.200508
-17.919403 12.246794 -9.531073
-17.680931 10.016174 -9.983852
-17.260456 13.346479 -10.407122
-14.667913 24.926197 -18.144371
-15.379498 21.401518 -17.92137
-15.278069 22.798264 -19.421021
-16.167105 21.002132 -21.078781
-15.265424 24.079512 -21.217133
-15.2485 25.413963 -23.072367
-14.43209 27.537416 -21.575338
-12.41248 50.859859 -23.85203
-11.985545 48.271912 -24.674063
-11.9248 51.694824 -25.55138
-11.474218 52.196907 -27.179245
-11.900061 54.910618 -26.570856
3.700356 42.027973 -53.55563
3.869395 39.023388 -54.477489
2.579848 36.979401 -55.521023
4.032921 35.965118 -55.36977
-10.702951 44.231075 -35.751167
-11.056221 42.303848 -37.519855
-10.256232 44.763855 -37.676701
-8.195582 48.569675 -41.183437
-8.936642 46.276489 -41.133022
-8.159945 46.693619 -42.878742
-8.138738 44.941982 -44.707764
-7.223319 47.072838 -44.588829
-16.465195 24.191166 -11.844658
-14.336168 29.296797 -16.126179
-14.089011 33.171097 -16.597887
-13.69401 34.360935 -17.905735
-13.9672 36.915478 -17.111568
-14.684041 47.096119 -17.935284
-13.94795 44.398041 -18.466822
-14.043346 48.258385 -19.336161
-13.439619 48.981102 -20.741711
-14.252924 51.683689 -20.107439
-21.646196 -1.750081 -5.769053
-21.049541 5.966846 -6.679193
-23.513973 -5.140196 -4.1873
-17.035488 31.376993 -42.960323
-17.906435 31.005362 -45.76339
-11.751978 39.464539 -41.733471
-12.988426 37.199242 -41.910824
-12.313851 38.0256 -44.003769
-13.090317 36.186699 -49.04068
-11.91768 60.868813 -28.798819
-20.098532 0.264577 -7.617939
-20.448156 -1.321406 -8.158638
-19.573792 1.341 -8.623466
-18.187748 6.366603 -11.236007
-18.939486 3.784047 -10.903828
-18.899349 4.935702 -12.30174
-19.823906 3.832954 -13.3978
-18.781252 6.472972 -13.627369
-15.871095 19.315071 -12.786996
-16.281216 15.923846 -12.44264
-15.955761 17.196974 -13.574436
-17.022732 14.99946 -17.32328
-17.028635 13.557409 -15.774843
-18.021559 12.057032 -17.191223
-18.992441 9.394492 -16.877457
-19.099089 11.037191 -18.608725
-20.484564 10.297009 -20.415476
-19.350479 12.591399 -20.554586
-18.467791 18.599268 -24.796453
-19.697002 16.089666 -24.651888
-19.823999 17.91457 -26.830278
-21.35988 17.402937 -28.969261
-19.994446 19.657692 -29.157709
-19.993147 21.369558 -31.318888
-18.647655 21.963923 -29.179874
-15.140961 28.375967 -27.197815
-16.102434 27.15029 -29.202421
-14.987549 29.965441 -29.308411
-14.826483 31.343603 -31.318218
-13.973822 32.790565 -29.121758
-12.99744 36.742798 -21.007111
-13.169099 34.40115 -22.106884
-12.721889 37.845955 -22.613056
-11.7729 43.236679 -26.778606
-12.242721 39.791214 -26.202906
-11.991109 40.859646 -28.036385
-12.383564 38.709053 -29.627024
-11.729009 41.802876 -30.012817
-11.444731 42.641838 -31.962002
-11.181571 44.964134 -30.371693
-10.539385 53.083946 -30.709732
-10.361786 50.750168 -31.731165
-10.062067 53.429501 -32.453697
-9.599533 53.652729 -34.033096
-9.79201 56.000435 -33.276203
-6.726932 55.661461 -41.135189
-4.969986 47.993504 -47.258339
-3.659826 48.19965 -48.44323
0.414855 43.155273 -52.975048
-1.165741 43.70528 -52.341877
-2.673777 43.862019 -51.659565
-2.282872 41.716785 -53.22506
-3.559211 40.005867 -54.176983
-1.987483 39.525524 -54.810139
-9.453408 49.429028 -36.335682
-9.540197 47.329403 -37.79604
-8.913242 49.895042 -38.0014
-8.340654 50.296677 -39.55389
-7.596584 50.856209 -41.176811
-21.922567 -3.437702 -9.982494
-14.460845 39.53228 -16.50481
-16.868378 29.212368 -35.895966
-18.031023 28.454054 -38.31374
-16.580814 30.560791 -38.049179
-16.182898 31.903732 -40.397114
-15.521549 33.326523 -42.682533
-10.149753 40.910599 -45.420994
-11.384958 38.885056 -45.963177
-10.302217 39.628517 -47.728668
-10.535795 38.438168 -49.948914
-18.82452 5.655047 -8.562175
-18.854284 3.98446 -9.093593
-18.213932 6.96517 -9.51785
-17.812361 7.961078 -10.502017
-17.461205 9.355723 -11.584221
-15.139335 22.038509 -15.216558
-15.683294 18.643145 -14.938807
-15.497595 19.997566 -16.303665
-16.110556 18.263489 -17.575699
-17.05678 16.529177 -19.037724
-18.243303 15.249807 -20.823168
-17.180286 17.907843 -20.852716
-17.22645 19.573307 -22.790682
-17.295561 21.22258 -24.884769
-17.382967 22.796227 -27.066935
-16.221636 23.984699 -25.035986
-15.170922 26.961756 -25.035849
-14.266035 30.064302 -25.205132
-12.510109 43.87429 -22.249516
-12.387616 41.246075 -23.143606
-12.146056 44.878746 -23.823683
-11.784695 45.678055 -25.576559
-11.446898 46.704472 -27.250359
-11.111233 47.228924 -29.075972
-11.18947 49.643135 -28.10586
-11.029347 52.671524 -28.855457
-10.837894 55.692764 -29.99136
3.32355 44.872189 -52.663437
2.102175 42.50272 -53.406445
0.750208 40.639877 -54.209366
-0.410728 38.868141 -55.220867
1.105009 37.999638 -55.467045
-12.317601 38.992512 -35.639534
-12.942736 37.409317 -37.630112
-11.900513 39.956127 -37.527935
-11.385362 40.809872 -39.515213
-10.721015 41.648434 -41.436886
-9.621359 45.615093 -39.436447
-9.749341 43.958996 -41.310238
-9.955624 42.354092 -43.272144
-9.128735 42.856636 -44.975639
-8.041819 43.408039 -46.659672
-6.907622 43.542763 -48.345188
-16.882185 16.781879 -10.910749
-16.639336 20.267448 -11.349235
-16.03249 21.600172 -12.25616
-15.524339 22.861252 -13.246079
-15.273086 26.399645 -13.702236
-15.042773 24.304506 -14.480832
-14.694542 25.637678 -15.617998
-14.382858 26.967554 -16.972878
-14.138363 28.22607 -18.481714
-13.93973 29.476204 -20.112247
-13.671797 31.883804 -18.950274
-13.317772 35.478882 -19.463528
-13.058972 39.278133 -20.050997
-13.925947 40.594639 -17.715031
-13.390189 41.711315 -19.158764
-12.927786 43.048447 -20.683096
-12.904797 46.531006 -21.36405
-12.942358 50.311569 -22.288612
-13.04883 53.629486 -23.192368
-22.55933 -5.830946 -5.68811
-21.896975 -4.791251 -6.665595
-21.626213 -3.407423 -6.155072
-20.792128 -0.896766 -6.705948
-20.067993 1.941562 -7.233884
-20.403999 3.830991 -6.896597
-19.503363 4.728576 -7.736423
-19.019033 7.798271 -8.258024
-18.702837 10.968656 -8.725841
-23.349073 -6.641452 -4.671977
-13.557428 36.205601 -39.878819
-14.224134 35.185528 -42.27549
-14.936294 34.322075 -44.814251
-12.722005 37.019463 -46.477886
-14.05138 35.385147 -46.908142
-15.561421 33.72551 -47.571583
-15.870951 53.159771 -18.248013
-16.161358 56.657784 -19.17783
-15.152761 54.169891 -19.610638
-14.459661 55.075455 -21.057835
-13.801051 55.978157 -22.603994
-13.142571 56.788914 -24.271809
-13.236779 59.996063 -25.520069
-12.478397 57.336563 -25.993746
-11.906801 57.967453 -27.65444
-11.330428 58.436722 -29.33025
-10.674875 58.336212 -31.077101
-10.451955 60.804565 -32.325623
-10.047321 58.47126 -32.820919
-9.492382 58.213482 -34.283951
-8.735191 55.741337 -36.353699
-21.391771 -3.709436 -7.760344
-21.078905 -2.605996 -8.926779
-20.877304 -1.294034 -10.24443
-19.228737 2.400791 -9.719756
-19.854162 1.188882 -10.597087
-20.77906 0.18494 -11.680681
-21.213978 4.71208 -16.545692
-16.740219 14.422385 -11.3614
-16.818712 12.578685 -12.040328
-17.264912 10.547316 -12.837445
-16.34495 15.244954 -14.526538
-17.053362 12.201303 -14.220966
-17.911816 9.189933 -13.990303
-18.882116 7.851509 -15.208751
-20.042727 7.115457 -16.792494
-19.4585 14.378564 -22.489334
-20.883347 13.899217 -24.494442
-22.507639 13.634503 -26.66333
-22.716722 15.449417 -28.889547
-18.501385 25.371069 -33.7621
-17.315573 24.415728 -29.045631
-17.225269 26.036341 -31.201534
-17.097431 27.643225 -33.543755
-15.891695 29.970045 -33.542442
-14.70295 32.543152 -33.55238
-13.624011 35.2132 -33.606567
-13.724003 31.004671 -21.839811
-13.57262 32.240467 -23.577852
-13.448875 33.382374 -25.448629
-12.456399 38.970131 -24.406326
-12.780246 36.62899 -25.876959
-13.296394 34.551006 -27.325846
-13.150291 35.645256 -29.339624
-12.922072 36.854191 -31.382977
-12.701741 37.820717 -33.564117
-11.857535 40.618622 -33.568779
-11.092814 43.566322 -33.79401
-10.468621 46.25811 -34.202938
-10.73413 47.95631 -30.97842
-10.359898 48.356289 -32.8629
-9.925537 48.920334 -34.65696
-9.472488 51.556232 -35.077194
-9.078972 53.773941 -35.700096
-7.134723 53.262539 -41.090168
-6.790332 51.456131 -42.59586
-5.809237 51.926022 -44.05735
-6.495904 49.493874 -44.213169
-6.167493 47.600155 -45.962772
-5.939326 45.754436 -47.639462
-5.564865 43.915035 -49.570824
-1.244548 50.633373 -49.123318
-2.16398 48.163864 -49.574581
-3.172145 46.031532 -50.03083
-4.209932 43.96579 -50.681431
-5.369144 41.944572 -51.52702
-5.091911 40.360626 -53.25835
-8.201484 54.834177 -38.008957
-8.344158 54.024328 -37.801508
-8.460383 54.663505 -37.327864
4.626537 38.524324 -54.431655
4.558376 40.137197 -54.0557
4.7083 36.995189 -54.877796
3.951158 37.494253 -54.92363
4.626537 38.524324 -54.431655
-14.511302 33.665458 -15.612011
-14.760279 34.805708 -15.280582
-14.277013 34.315 -16.231499
-14.3233 32.521555 -15.978398
-14.511302 33.665458 -15.612011
-18.909826 26.787129 -37.373233
-19.077241 25.876306 -36.094845
-16.728588 32.414282 -46.598305
-17.50629 31.599776 -46.868109
-17.128733 31.819868 -45.493586
-3.188905 49.339594 -48.29447
-3.883663 49.287405 -47.688272
-22.04502 -4.143973 -9.318971
-22.539685 -4.512251 -9.882441
-25.346909 -11.200563 -4.611817
-25.033895 -10.691128 -5.238328
-9.928971 38.583265 -50.788547
-9.849573 39.266849 -49.663488
-9.242749 39.411947 -50.503122
-10.582033 37.919929 -51.159329
-9.928971 38.583265 -50.788547
4.131552 44.646803 -52.76372
3.909095 46.248524 -52.353525
1.921326 36.273032 -56.061933
2.648707 35.603319 -56.020048
-16.93234 21.432519 -11.164127
-17.021237 19.61497 -10.91096
-17.314241 20.78004 -10.725853
-15.015676 27.23277 -14.285323
-15.190565 28.306392 -13.943933
-14.933155 29.139517 -14.527021
-19.03367 12.177465 -8.633299
-19.122642 10.451415 -8.378554
-18.560187 12.719334 -8.990099
-19.03367 12.177465 -8.633299
-18.405441 29.014043 -40.893879
-18.59776 28.277235 -39.683249
-17.838704 29.190862 -39.524371
-14.289303 35.053942 -48.270229
-13.570849 35.785923 -47.974411
-13.808772 35.454718 -49.336499
-15.044324 34.224123 -48.60195
-14.8064 34.555329 -47.239863
-14.289303 35.053942 -48.270229
-15.802011 33.529784 -48.883253
-15.044324 34.224123 -48.60195
-16.386219 54.344622 -18.032331
-16.211091 52.477564 -17.606143
-15.757592 57.074574 -19.919359
-16.254002 58.301606 -19.72788
-15.850236 58.718395 -20.46941
-13.879697 57.696768 -23.226715
-14.219937 57.255684 -22.426752
-14.298583 58.974295 -23.049473
-12.901412 60.279694 -26.35985
-13.294398 61.497006 -26.112707
-12.959031 61.780636 -26.952488
-11.253442 59.765656 -29.990234
-11.624054 59.652768 -29.064535
-11.547068 60.981701 -29.724518
-10.925666 59.715401 -30.863659
-11.002651 58.386467 -30.203675
-11.253442 59.765656 -29.990234
-10.110632 60.797332 -33.155964
-10.306599 62.053535 -33.007988
-9.908314 59.63068 -33.403612
-10.249638 59.637912 -32.573271
-10.110632 60.797332 -33.155964
-9.630845 59.501791 -34.135128
-9.769851 58.342371 -33.552435
-9.908314 59.63068 -33.403612
-20.340775 2.00841 -12.57723
-20.8361 0.864883 -12.446564
-20.283735 1.328467 -11.811347
-20.394392 4.341838 -14.888084
-20.363354 3.519456 -14.067429
-19.854944 4.655336 -14.218454
-20.549979 5.094899 -15.7924
-21.058391 3.959019 -15.641375
-20.394392 4.341838 -14.888084
-20.860148 7.484604 -18.438716
-20.726282 6.76176 -17.562264
-20.176592 7.838301 -17.668947
-21.017485 8.349889 -19.438975
-20.860148 7.484604 -18.438716
-21.312647 11.115004 -22.447427
-21.226741 10.145957 -21.397191
-20.57047 11.266056 -21.465713
-21.455029 12.032211 -23.5154
-22.1113 10.912111 -23.446879
-21.312647 11.115004 -22.447427
-22.143687 18.305543 -31.277515
-22.137622 17.365979 -30.148542
-21.365944 18.3425 -30.098233
-22.150852 19.237976 -32.455926
-22.143687 18.305543 -31.277515
-21.379686 20.21488 -32.471061
-22.150852 19.237976 -32.455926
-19.271221 23.408771 -32.559329
-19.969833 22.235559 -32.495439
-19.294536 22.54277 -31.382779
-18.548654 24.543526 -32.604384
-19.223951 24.236314 -33.717045
-19.271221 23.408771 -32.559329
-5.586298 50.964287 -44.847088
-5.201995 52.223084 -44.757204
-4.979056 51.261348 -45.546942
-0.391072 50.693764 -49.559072
-0.746563 52.011854 -48.973235
1.408752 46.620077 -51.754047
2.229141 46.530004 -52.003523
-1.908458 47.072817 -50.256495
-1.334128 48.1509 -50.035001
-2.41254 46.006651 -50.484619
-2.668063 47.097698 -49.802706
-1.908458 47.072817 -50.256495
-4.017738 38.337677 -55.53631
-4.184848 39.307579 -54.67049
-3.392101 39.035965 -55.042803
-3.89649 37.480715 -56.458338
-4.017738 38.337677 -55.53631
-1.074019 38.114925 -55.802614
-0.321986 37.690184 -55.914669
-23.501469 -7.563353 -7.761802
-24.118426 -8.505107 -7.687403
-22.895624 -6.46258 -7.912614
-23.501469 -7.563353 -7.761802
-23.067075 -7.076576 -7.293557
-22.314351 -5.413024 -8.049909
-22.895624 -6.46258 -7.912614
-24.138326 -9.082587 -5.035892
-24.549262 -9.545752 -4.492801
-23.975108 -8.467068 -4.703283
-24.745603 -10.240224 -5.808061
-25.033895 -10.691128 -5.238328
-24.424186 -9.710367 -5.395143
-24.50976 -9.686833 -6.411802
-24.745603 -10.240224 -5.808061
-24.278274 -9.145776 -7.000737
-24.50976 -9.686833 -6.411802
-23.904407 -8.718406 -6.55381
-24.118426 -8.505107 -7.687403
-24.278274 -9.145776 -7.000737
-8.64825 39.48374 -51.301916
-9.242749 39.411947 -50.503122
-8.56885 40.167324 -50.176857
-7.983128 39.56819 -51.977396
-8.64825 39.48374 -51.301916
-7.296581 39.64552 -52.589824
-7.983128 39.56819 -51.977396
-7.287804 40.316446 -51.588079
-6.498983 39.663136 -53.170336
-7.296581 39.64552 -52.589824
4.473856 41.63949 -53.59477
4.319954 43.224695 -53.209816
3.784876 40.52568 -54.016559
4.473856 41.63949 -53.59477
4.558376 40.137197 -54.0557
3.375243 35.096178 -55.944422
2.648707 35.603319 -56.020048
3.306385 36.472259 -55.445397
-16.815115 25.385665 -11.666116
-16.84527 23.394377 -11.411839
-17.195189 24.588876 -11.233297
-16.435561 26.133337 -12.080149
-16.815115 25.385665 -11.666116
-16.128547 26.681582 -12.500186
-16.158182 24.73941 -12.264696
-16.435561 26.133337 -12.080149
-14.657928 29.968954 -15.11366
-14.933155 29.139517 -14.527021
-14.446879 30.584405 -15.742544
-14.547218 28.681346 -15.497295
-14.657928 29.968954 -15.11366
-14.212589 31.233947 -16.362033
-14.446879 30.584405 -15.742544
-14.3233 32.521555 -15.978398
-22.151576 -2.172683 -5.315363
-22.085026 -3.097647 -5.45718
-22.590406 -3.520249 -5.003489
-21.808079 -0.772574 -5.635078
-22.151576 -2.172683 -5.315363
-21.448332 0.579684 -5.934529
-21.28645 -0.397824 -6.068504
-21.808079 -0.772574 -5.635078
-21.49828 7.108124 -6.633601
-21.648499 5.570607 -6.318081
-20.863714 7.5008 -6.982185
-21.49828 7.108124 -6.633601
-20.311554 7.95138 -7.371677
-20.497381 6.417427 -7.068685
-20.863714 7.5008 -6.982185
-19.743834 8.401091 -7.744722
-20.311554 7.95138 -7.371677
-23.696919 -4.146687 -4.054163
-24.080632 -5.394987 -3.711216
-23.085465 -3.86774 -4.524487
-23.696919 -4.146687 -4.054163
-22.590406 -3.520249 -5.003489
-23.018914 -4.792705 -4.666303
-23.085465 -3.86774 -4.524487
-17.847272 30.478947 -43.240521
-18.152721 29.754286 -42.127859
-17.340936 30.652331 -41.847662
-18.282745 30.293132 -44.642054
-17.847272 30.478947 -43.240521
-17.470962 31.191178 -44.361857
-18.744288 30.188794 -45.942394
-18.282745 30.293132 -44.642054
-18.350804 30.849419 -47.163077
-18.744288 30.188794 -45.942394
-18.350804 30.849419 -47.163077
-17.50629 31.599776 -46.868109
-12.49211 36.560681 -49.873362
-12.376351 37.031153 -48.619074
-11.778144 37.405135 -49.451756
-13.267364 35.813643 -50.313654
-12.49211 36.560681 -49.873362
-13.808772 35.454718 -49.336499
-13.267364 35.813643 -50.313654
-15.492856 59.243916 -21.226579
-15.850236 58.718395 -20.46941
-14.996324 58.012287 -21.455199
-15.492856 59.243916 -21.226579
-14.424707 60.67473 -23.632145
-14.298583 58.974295 -23.049473
-12.586257 62.05406 -27.830108
-12.959031 61.780636 -26.952488
-12.262075 62.206805 -28.629702
-12.241862 60.716069 -27.999225
-12.586257 62.05406 -27.830108
-11.858268 62.24792 -29.50244
-12.262075 62.206805 -28.629702
-11.547068 60.981701 -29.724518
-11.858268 62.24792 -29.50244
-6.597421 56.925754 -41.110805
-6.985706 56.394415 -40.466331
-6.278674 56.036173 -41.815247
-6.597421 56.925754 -41.110805
-6.025426 55.178953 -42.537883
-6.473685 54.804241 -41.857826
-6.278674 56.036173 -41.815247
-4.73543 50.188856 -46.285071
-4.979056 51.261348 -45.546942
-4.538743 49.184332 -47.095827
-5.166672 48.998028 -46.447582
-4.73543 50.188856 -46.285071
-4.314906 48.096577 -47.850785
-4.538743 49.184332 -47.095827
-3.883663 49.287405 -47.688272
0.195437 44.382106 -52.363297
0.822572 45.433866 -52.032269
1.041989 44.207033 -52.64402
-0.594861 44.65711 -52.046711
0.195437 44.382106 -52.363297
-0.375443 43.430277 -52.658462
-1.409339 44.843525 -51.640142
-0.594861 44.65711 -52.046711
-1.919759 43.783649 -52.000721
-2.163356 44.921894 -51.298986
-1.409339 44.843525 -51.640142
-22.527102 -3.827948 -10.585654
-22.539685 -4.512251 -9.882441
-21.902042 -2.725451 -10.71283
-22.527102 -3.827948 -10.585654
-14.764401 36.753963 -15.583333
-14.760279 34.805708 -15.280582
-14.762315 38.790651 -15.903181
-14.462931 37.495592 -16.184961
-14.764401 36.753963 -15.583333
-14.837128 40.717621 -16.191527
-14.762315 38.790651 -15.903181
-14.886544 42.656769 -16.521287
-14.510261 41.471428 -16.83457
-14.837128 40.717621 -16.191527
-14.95048 44.586439 -16.907599
-14.886544 42.656769 -16.521287
-15.012662 46.42921 -17.293076
-14.621859 45.253348 -17.549808
-14.95048 44.586439 -16.907599
-15.137868 48.262577 -17.654371
-15.012662 46.42921 -17.293076
-15.246216 50.01906 -18.038723
-14.79239 48.852602 -18.319636
-15.137868 48.262577 -17.654371
-25.131918 -10.640103 -4.234116
-24.549262 -9.545752 -4.492801
-25.131918 -10.640103 -4.234116
-25.346909 -11.200563 -4.611817
-11.214849 37.686415 -50.327478
-11.778144 37.405135 -49.451756
-11.09909 38.156887 -49.073191
-11.214849 37.686415 -50.327478
-10.582033 37.919929 -51.159329
3.056355 46.336703 -52.178746
3.909095 46.248524 -52.353525
2.496336 45.065491 -52.488214
2.229141 46.530004 -52.003523
3.056355 46.336703 -52.178746
3.511953 43.450081 -53.109533
4.131552 44.646803 -52.76372
4.319954 43.224695 -53.209816
0.435882 37.255932 -56.037758
-0.321986 37.690184 -55.914669
0.34714 38.433889 -55.343956
1.183906 36.78315 -56.034944
1.842429 37.48952 -55.494034
1.921326 36.273032 -56.061933
0.435882 37.255932 -56.037758
1.183906 36.78315 -56.034944
-17.142661 17.872186 -10.691717
-17.243845 16.19663 -10.468294
-17.504321 17.286936 -10.249262
-16.76076 18.524664 -11.129992
-17.142661 17.872186 -10.691717
-17.021237 19.61497 -10.91096
-15.773657 27.176861 -12.949188
-16.128547 26.681582 -12.500186
-15.484616 27.732856 -13.457939
-15.190565 28.306392 -13.943933
-15.562127 25.84365 -13.193485
-15.773657 27.176861 -12.949188
-15.484616 27.732856 -13.457939
-21.180157 1.941851 -6.234072
-21.448332 0.579684 -5.934529
-21.241576 4.448057 -6.389691
-21.648499 5.570607 -6.318081
-20.918805 3.38013 -6.498393
-21.241576 4.448057 -6.389691
-20.72677 4.898919 -6.787895
-20.665351 2.392712 -6.632276
-21.180157 1.941851 -6.234072
-20.918805 3.38013 -6.498393
-19.280741 8.866223 -8.144645
-19.482127 7.333139 -7.858101
-19.743834 8.401091 -7.744722
-18.860935 9.383463 -8.491933
-19.280741 8.866223 -8.144645
-19.122642 10.451415 -8.378554
-18.16847 13.358403 -9.392715
-18.31112 11.607725 -9.128457
-18.560187 12.719334 -8.990099
-18.01152 15.040696 -9.640097
-17.762454 13.929087 -9.778456
-18.16847 13.358403 -9.392715
-17.918368 16.865298 -9.895881
-18.01152 15.040696 -9.640097
-17.504321 17.286936 -10.249262
-17.918368 16.865298 -9.895881
-17.68092 22.117717 -10.607364
-17.314241 20.78004 -10.725853
-17.620936 23.853258 -10.858407
-17.68092 22.117717 -10.607364
-17.195189 24.588876 -11.233297
-17.620936 23.853258 -10.858407
-23.948766 -6.309518 -3.899838
-24.080632 -5.394987 -3.711216
-23.866315 -7.060145 -4.142176
-23.948766 -6.309518 -3.899838
-23.431523 -5.890824 -4.429638
-23.867559 -7.785842 -4.416085
-23.866315 -7.060145 -4.142176
-23.456623 -7.322677 -4.959176
-23.975108 -8.467068 -4.703283
-23.867559 -7.785842 -4.416085
-18.766376 27.542105 -38.51129
-18.909826 26.787129 -37.373233
-18.174474 27.699078 -37.175684
-18.766376 27.542105 -38.51129
-18.59776 28.277235 -39.683249
-18.405441 29.014043 -40.893879
-18.152721 29.754286 -42.127859
-16.333782 32.959851 -47.772205
-16.728588 32.414282 -46.598305
-15.956226 33.179941 -46.397683
-16.574373 32.764124 -49.083876
-16.333782 32.959851 -47.772205
-15.802011 33.529784 -48.883253
-15.731323 51.294403 -17.810736
-16.211091 52.477564 -17.606143
-15.385845 51.884428 -18.476
-15.246216 50.01906 -18.038723
-15.731323 51.294403 -17.810736
-16.696893 57.830984 -18.944357
-16.254002 58.301606 -19.72788
-16.531422 56.093628 -18.497239
-16.696893 57.830984 -18.944357
-16.016154 54.908777 -18.712922
-16.386219 54.344622 -18.032331
-16.531422 56.093628 -18.497239
-14.549242 56.804333 -21.653672
-14.906743 56.283409 -20.859362
-14.996324 58.012287 -21.455199
-14.130356 55.526806 -21.830914
-14.549242 56.804333 -21.653672
-14.219937 57.255684 -22.426752
-14.040967 60.983548 -24.445334
-14.424707 60.67473 -23.632145
-13.680184 61.273889 -25.28065
-13.294398 61.497006 -26.112707
-13.597562 59.705721 -24.684753
-14.040967 60.983548 -24.445334
-13.680184 61.273889 -25.28065
-10.706106 62.192564 -32.174872
-10.306599 62.053535 -33.007988
-10.814205 60.949577 -31.48792
-10.706106 62.192564 -32.174872
-10.563415 59.570388 -31.701362
-10.925666 59.715401 -30.863659
-10.814205 60.949577 -31.48792
-9.293553 59.225483 -34.898125
-9.630845 59.501791 -34.135128
-9.185247 58.049683 -35.082535
-9.293553 59.225483 -34.898125
-9.06259 56.943745 -35.386106
-9.369725 57.107544 -34.587523
-9.185247 58.049683 -35.082535
-8.806652 56.81361 -36.117409
-8.991129 55.871471 -35.622397
-9.06259 56.943745 -35.386106
-8.537651 56.522498 -36.808979
-8.806652 56.81361 -36.117409
-8.52645 55.607346 -36.944506
-8.537651 56.522498 -36.808979
-21.779622 -4.279841 -8.207896
-22.314351 -5.413024 -8.049909
-21.9265 -4.842619 -7.602356
-21.623189 -3.728121 -8.791113
-21.779622 -4.279841 -8.207896
-21.235338 -3.157716 -8.343561
-21.500736 -3.021849 -9.454636
-22.04502 -4.143973 -9.318971
-21.623189 -3.728121 -8.791113
-21.37941 -1.653617 -10.843798
-21.902042 -2.725451 -10.71283
-21.399935 -2.365868 -10.113462
-21.330289 -0.91413 -11.561923
-21.37941 -1.653617 -10.843798
-20.828182 -0.554547 -10.962556
-21.382948 -0.206583 -12.320823
-21.330289 -0.91413 -11.561923
-21.382948 -0.206583 -12.320823
-20.8361 0.864883 -12.446564
-20.358522 2.68889 -13.305124
-20.340775 2.00841 -12.57723
-19.806158 3.152474 -12.669906
-20.358522 2.68889 -13.305124
-20.363354 3.519456 -14.067429
-21.793799 3.662966 -16.44092
-21.058391 3.959019 -15.641375
-21.956902 4.543052 -17.416821
-21.793799 3.662966 -16.44092
-21.311908 5.560072 -17.438862
-20.628352 5.913768 -16.669093
-20.726282 6.76176 -17.562264
-21.956902 4.543052 -17.416821
-21.311908 5.560072 -17.438862
-21.104538 9.217822 -20.374013
-21.017485 8.349889 -19.438975
-20.39751 9.429077 -19.480438
-21.104538 9.217822 -20.374013
-21.226741 10.145957 -21.397191
-21.568514 12.864268 -24.504646
-21.455029 12.032211 -23.5154
-20.769862 13.06716 -23.505195
-22.38066 12.731911 -25.58909
-21.568514 12.864268 -24.504646
-21.695493 13.76686 -25.578886
-23.223022 12.640251 -26.597687
-22.38066 12.731911 -25.58909
-23.29824 13.63102 -27.7181
-23.223022 12.640251 -26.597687
-23.402781 14.538477 -28.831208
-23.29824 13.63102 -27.7181
-22.612181 14.54196 -27.776438
-23.546988 15.439898 -30.01684
-23.402781 14.538477 -28.831208
-22.816043 16.389219 -30.108685
-22.038301 16.426177 -28.929404
-22.137622 17.365979 -30.148542
-23.546988 15.439898 -30.01684
-22.816043 16.389219 -30.108685
-20.690255 21.258628 -32.516902
-21.379686 20.21488 -32.471061
-20.682578 20.325811 -31.273046
-20.690255 21.258628 -32.516902
-19.969833 22.235559 -32.495439
-19.168971 25.08979 -34.957081
-19.223951 24.236314 -33.717045
-18.409655 26.157585 -34.899864
-19.077241 25.876306 -36.094845
-19.168971 25.08979 -34.957081
-8.52645 55.607346 -36.944506
-8.460383 54.663505 -37.327864
-8.669124 54.797497 -36.737057
-7.987163 55.226309 -38.49345
-8.201484 54.834177 -38.008957
-7.798332 54.501182 -39.10907
-7.987163 55.226309 -38.49345
-7.699218 53.632337 -39.695438
-7.986146 53.326155 -39.06897
-7.798332 54.501182 -39.10907
-7.119168 55.234413 -40.435363
-6.985706 56.394415 -40.466331
-7.323064 54.034952 -40.412853
-7.119168 55.234413 -40.435363
-6.930827 54.462 -41.112679
-7.510877 52.859924 -40.372753
-7.699218 53.632337 -39.695438
-7.323064 54.034952 -40.412853
-5.714341 54.251926 -43.259394
-6.025426 55.178953 -42.537883
-5.508741 53.241427 -43.997837
-5.201995 52.223084 -44.757204
-6.014837 52.936521 -43.318906
-5.714341 54.251926 -43.259394
-5.508741 53.241427 -43.997837
-1.577514 51.931421 -48.445263
-0.746563 52.011854 -48.973235
-1.981267 50.556455 -48.634514
-1.577514 51.931421 -48.445263
1.408752 46.620077 -51.754047
0.822572 45.433866 -52.032269
-0.874412 49.385655 -49.80937
-0.391072 50.693764 -49.559072
-1.704264 49.398618 -49.34895
-0.874412 49.385655 -49.80937
-1.334128 48.1509 -50.035001
-2.440983 49.321701 -48.860146
-1.981267 50.556455 -48.634514
-1.704264 49.398618 -49.34895
-2.911903 48.181757 -49.008905
-3.188905 49.339594 -48.29447
-2.440983 49.321701 -48.860146
-2.922961 44.946776 -50.845197
-2.41254 46.006651 -50.484619
-2.163356 44.921894 -51.298986
-5.74431 39.646561 -53.699257
-6.498983 39.663136 -53.170336
-5.846584 40.377201 -52.729429
-4.951197 39.484959 -54.211174
-4.325561 40.183247 -53.717666
-4.184848 39.307579 -54.67049
-5.74431 39.646561 -53.699257
-4.951197 39.484959 -54.211174
-1.862397 38.443617 -55.59725
-1.199105 39.196832 -55.015503
-1.074019 38.114925 -55.802614
-2.481151 37.713887 -56.146492
-2.606237 38.795794 -55.359381
-1.862397 38.443617 -55.59725
-3.149306 37.130483 -56.730341
-2.481151 37.713887 -56.146492
-3.89649 37.480715 -56.458338
-3.149306 37.130483 -56.730341
4.752667 35.437246 -55.213043
4.7083 36.995189 -54.877796
4.073799 34.464963 -55.777695
4.752667 35.437246 -55.213043
3.375243 35.096178 -55.944422
4.073799 34.464963 -55.777695
3 375 96 376
3 377 376 94
3 375 376 377
3 0 98 97
3 0 101 99
3 0 97 101
3 2 104 102
3 3 107 105
3 3 108 107
3 1 111 109
3 5 114 112
3 5 116 114
3 5 118 116
3 4 121 119
3 4 123 121
3 378 125 379
3 380 127 381
3 382 381 125
3 380 381 382
3 6 130 128
3 8 133 131
3 8 135 133
3 10 383 384
3 10 385 387
3 385 138 386
3 385 386 387
3 10 140 138
3 12 143 141
3 12 145 143
3 14 388 389
3 15 150 149
3 15 390 392
3 392 391 150
3 390 391 392
3 7 153 151
3 13 158 156
3 17 161 159
3 17 163 161
3 9 166 164
3 18 169 167
3 18 171 169
3 18 173 171
3 19 176 174
3 19 178 176
3 19 180 178
3 20 183 181
3 20 185 183
3 11 188 186
3 21 191 189
3 21 193 191
3 21 195 193
3 16 198 196
3 16 200 198
3 393 203 394
3 22 205 204
3 22 207 205
3 22 209 207
3 23 212 210
3 25 213 95
3 25 214 213
3 395 215 396
3 398 397 100
3 27 219 217
3 29 220 103
3 29 221 220
3 30 224 222
3 399 225 400
3 401 400 106
3 399 400 401
3 403 402 225
3 32 228 226
3 34 229 110
3 34 230 229
3 35 233 231
3 37 234 113
3 37 235 234
3 37 237 235
3 39 238 115
3 39 239 238
3 39 241 239
3 41 242 117
3 41 243 242
3 42 246 244
3 44 247 120
3 44 248 247
3 44 250 248
3 46 251 122
3 46 252 251
3 404 253 405
3 48 254 124
3 48 255 254
3 48 257 255
3 407 406 126
3 49 260 258
3 51 261 129
3 51 262 261
3 24 263 211
3 52 264 132
3 52 265 264
3 52 266 265
3 53 267 134
3 53 268 267
3 54 408 410
3 408 270 409
3 408 409 410
3 56 271 136
3 56 272 271
3 57 411 413
3 411 273 412
3 411 412 413
3 57 274 273
3 57 275 274
3 58 276 137
3 58 277 276
3 58 279 277
3 60 280 139
3 60 281 280
3 26 282 216
3 61 283 142
3 61 284 283
3 61 285 284
3 62 286 144
3 62 287 286
3 63 290 288
3 65 291 146
3 65 292 291
3 66 293 147
3 66 294 293
3 66 295 294
3 414 296 415
3 417 416 296
3 63 297 148
3 63 288 297
3 28 418 420
3 420 419 218
3 418 419 420
3 50 298 259
3 67 299 152
3 67 300 299
3 31 301 223
3 421 302 422
3 423 422 154
3 421 422 423
3 424 303 425
3 426 425 302
3 424 425 426
3 428 427 303
3 429 304 430
3 68 431 433
3 431 305 432
3 431 432 433
3 68 306 305
3 68 307 306
3 69 434 436
3 434 308 435
3 434 435 436
3 69 309 308
3 70 437 439
3 437 310 438
3 437 438 439
3 70 311 310
3 70 312 311
3 440 313 441
3 442 441 155
3 440 441 442
3 443 314 444
3 445 444 313
3 443 444 445
3 446 315 447
3 448 316 449
3 450 449 315
3 448 449 450
3 451 317 452
3 453 452 316
3 451 452 453
3 64 319 289
3 72 320 157
3 72 321 320
3 33 322 227
3 73 323 160
3 73 324 323
3 73 454 456
3 456 455 324
3 454 455 456
3 74 457 459
3 459 458 162
3 457 458 459
3 74 460 462
3 460 325 461
3 460 461 462
3 55 326 269
3 75 327 165
3 75 328 327
3 36 329 232
3 76 330 168
3 76 331 330
3 76 332 331
3 77 333 170
3 77 463 465
3 465 464 333
3 463 464 465
3 77 466 467
3 78 468 470
3 470 469 172
3 468 469 470
3 78 471 473
3 471 472 473
3 38 334 236
3 79 335 175
3 79 336 335
3 79 337 336
3 80 474 476
3 476 475 177
3 474 475 476
3 80 477 478
3 80 479 480
3 81 481 483
3 483 482 179
3 481 482 483
3 81 484 486
3 484 338 485
3 484 485 486
3 40 339 240
3 82 340 182
3 82 341 340
3 82 342 341
3 83 343 184
3 83 344 343
3 59 345 278
3 84 346 187
3 84 347 346
3 43 348 245
3 85 349 190
3 85 350 349
3 85 351 350
3 86 352 192
3 86 353 352
3 86 354 353
3 87 355 194
3 87 356 355
3 45 357 249
3 88 358 197
3 88 359 358
3 88 360 359
3 71 361 199
3 71 318 361
3 89 362 201
3 89 363 362
3 90 487 489
3 487 364 488
3 487 488 489
3 90 365 364
3 90 366 365
3 91 367 202
3 91 368 367
3 490 369 491
3 47 492 493
3 494 370 495
3 496 371 497
3 498 497 370
3 496 497 498
3 92 372 206
3 92 373 372
3 92 374 373
3 93 499 501
3 501 500 208
3 499 500 501
3 93 502 503
3 505 504 256
3 94 95 23
3 96 95 94
3 96 25 95
3 97 506 507
3 98 508 510
3 510 509 97
3 508 509 510
3 98 511 512
3 99 513 515
3 513 100 514
3 513 514 515
3 101 100 99
3 101 516 518
3 518 517 100
3 516 517 518
3 101 519 520
3 97 521 523
3 523 522 101
3 521 522 523
3 97 524 525
3 102 103 27
3 104 103 102
3 104 29 103
3 105 106 30
3 107 106 105
3 107 526 528
3 528 527 106
3 526 527 528
3 107 529 530
3 108 531 533
3 533 532 107
3 531 532 533
3 108 534 535
3 109 110 32
3 111 110 109
3 111 34 110
3 112 113 35
3 114 113 112
3 114 37 113
3 114 115 37
3 116 115 114
3 116 39 115
3 116 117 39
3 118 117 116
3 118 41 117
3 119 120 42
3 121 120 119
3 121 44 120
3 121 122 44
3 123 122 121
3 123 46 122
3 536 124 537
3 125 538 540
3 538 124 539
3 538 539 540
3 125 48 124
3 125 126 48
3 127 126 125
3 127 541 543
3 543 542 126
3 541 542 543
3 128 129 49
3 130 129 128
3 130 51 129
3 131 132 24
3 133 132 131
3 133 52 132
3 133 134 52
3 135 134 133
3 135 53 134
3 544 136 545
3 546 545 54
3 544 545 546
3 547 136 548
3 549 56 550
3 551 550 136
3 549 550 551
3 552 57 553
3 554 137 555
3 556 555 57
3 554 555 556
3 138 557 559
3 557 137 558
3 557 558 559
3 138 58 137
3 138 139 58
3 140 139 138
3 140 60 139
3 141 142 26
3 143 142 141
3 143 61 142
3 143 144 61
3 145 144 143
3 145 62 144
3 560 146 561
3 562 561 63
3 560 561 562
3 563 146 564
3 565 65 566
3 567 566 146
3 565 566 567
3 568 147 569
3 570 147 571
3 572 66 573
3 574 573 147
3 572 573 574
3 576 575 66
3 577 148 578
3 579 148 580
3 581 63 582
3 583 582 148
3 581 582 583
3 149 584 586
3 586 585 28
3 584 585 586
3 150 587 589
3 589 588 149
3 587 588 589
3 150 590 591
3 150 592 593
3 595 594 150
3 151 152 50
3 153 152 151
3 153 67 152
3 596 154 597
3 598 597 31
3 596 597 598
3 599 154 600
3 602 601 154
3 603 68 604
3 606 605 68
3 607 69 608
3 609 70 610
3 611 155 612
3 613 612 70
3 611 612 613
3 614 155 615
3 617 616 155
3 156 157 64
3 158 157 156
3 158 72 157
3 159 160 33
3 161 160 159
3 161 73 160
3 161 162 73
3 163 162 161
3 163 74 162
3 164 165 55
3 166 165 164
3 166 75 165
3 167 168 36
3 169 168 167
3 169 76 168
3 169 170 76
3 171 170 169
3 171 77 170
3 171 172 77
3 173 172 171
3 173 78 172
3 174 175 38
3 176 175 174
3 176 79 175
3 176 177 79
3 178 177 176
3 178 80 177
3 178 179 80
3 180 179 178
3 180 81 179
3 181 182 40
3 183 182 181
3 183 82 182
3 183 184 82
3 185 184 183
3 185 83 184
3 186 187 59
3 188 187 186
3 188 84 187
3 189 190 43
3 191 190 189
3 191 85 190
3 191 192 85
3 193 192 191
3 193 86 192
3 193 194 86
3 195 194 193
3 195 87 194
3 196 197 45
3 198 197 196
3 198 88 197
3 198 199 88
3 200 199 198
3 200 71 199
3 618 201 619
3 620 201 621
3 622 89 623
3 624 623 201
3 622 623 624
3 625 90 626
3 627 202 628
3 629 628 90
3 627 628 629
3 203 630 632
3 630 202 631
3 630 631 632
3 203 91 202
3 204 633 635
3 635 634 47
3 633 634 635
3 205 636 638
3 638 637 204
3 636 637 638
3 205 639 640
3 205 641 643
3 641 206 642
3 641 642 643
3 207 206 205
3 207 92 206
3 207 208 92
3 209 208 207
3 209 93 208
3 210 211 6
3 212 211 210
3 212 24 211
3 95 212 23
3 213 212 95
3 213 24 212
3 213 131 24
3 214 131 213
3 214 8 131
3 215 644 645
3 215 646 647
3 648 10 649
3 650 216 651
3 652 651 10
3 650 651 652
3 653 216 654
3 655 26 656
3 657 656 216
3 655 656 657
3 658 26 659
3 660 141 661
3 662 661 26
3 660 661 662
3 663 141 664
3 665 12 666
3 667 666 141
3 665 666 667
3 100 668 669
3 671 670 100
3 217 218 14
3 219 218 217
3 219 28 218
3 103 219 27
3 220 219 103
3 220 28 219
3 220 149 28
3 221 149 220
3 221 15 149
3 222 223 7
3 224 223 222
3 224 31 223
3 106 224 30
3 225 224 106
3 225 31 224
3 225 672 674
3 674 673 31
3 672 673 674
3 676 675 225
3 226 227 13
3 228 227 226
3 228 33 227
3 110 228 32
3 229 228 110
3 229 33 228
3 229 159 33
3 230 159 229
3 230 17 159
3 231 232 9
3 233 232 231
3 233 36 232
3 113 233 35
3 234 233 113
3 234 36 233
3 234 167 36
3 235 167 234
3 235 18 167
3 235 236 18
3 237 236 235
3 237 38 236
3 115 237 37
3 238 237 115
3 238 38 237
3 238 174 38
3 239 174 238
3 239 19 174
3 239 240 19
3 241 240 239
3 241 40 240
3 117 241 39
3 242 241 117
3 242 40 241
3 242 181 40
3 243 181 242
3 243 20 181
3 244 245 11
3 246 245 244
3 246 43 245
3 120 246 42
3 247 246 120
3 247 43 246
3 247 189 43
3 248 189 247
3 248 21 189
3 248 249 21
3 250 249 248
3 250 45 249
3 122 250 44
3 251 250 122
3 251 45 250
3 251 196 45
3 252 196 251
3 252 16 196
3 253 677 678
3 253 679 681
3 679 47 680
3 679 680 681
3 124 682 684
3 682 253 683
3 682 683 684
3 254 253 124
3 254 47 253
3 254 204 47
3 255 204 254
3 255 22 204
3 255 256 22
3 257 256 255
3 257 685 687
3 687 686 256
3 685 686 687
3 126 257 48
3 688 257 689
3 690 689 126
3 688 689 690
3 692 691 257
3 258 259 2
3 260 259 258
3 260 50 259
3 129 260 49
3 261 260 129
3 261 50 260
3 261 151 50
3 262 151 261
3 262 7 151
3 211 130 6
3 263 130 211
3 263 51 130
3 132 263 24
3 264 263 132
3 264 51 263
3 264 262 51
3 265 262 264
3 265 7 262
3 265 222 7
3 266 222 265
3 266 30 222
3 134 266 52
3 267 266 134
3 267 30 266
3 267 105 30
3 268 105 267
3 268 3 105
3 693 269 694
3 695 694 1
3 693 694 695
3 270 696 698
3 696 269 697
3 696 697 698
3 270 55 269
3 136 270 54
3 271 270 136
3 271 55 270
3 271 164 55
3 272 164 271
3 272 9 164
3 699 56 700
3 273 701 702
3 273 703 705
3 703 56 704
3 703 704 705
3 273 272 56
3 274 272 273
3 274 9 272
3 274 231 9
3 275 231 274
3 275 35 231
3 137 275 57
3 276 275 137
3 276 35 275
3 276 112 35
3 277 112 276
3 277 5 112
3 277 278 5
3 279 278 277
3 279 59 278
3 139 279 58
3 280 279 139
3 280 59 279
3 280 186 59
3 281 186 280
3 281 11 186
3 216 140 10
3 282 140 216
3 282 60 140
3 142 282 26
3 283 282 142
3 283 60 282
3 283 281 60
3 284 281 283
3 284 11 281
3 284 244 11
3 285 244 284
3 285 42 244
3 144 285 61
3 286 285 144
3 286 42 285
3 286 119 42
3 287 119 286
3 287 4 119
3 288 289 0
3 290 289 288
3 290 64 289
3 146 290 63
3 291 290 146
3 291 64 290
3 291 156 64
3 292 156 291
3 292 13 156
3 706 65 707
3 147 708 709
3 293 710 712
3 712 711 147
3 710 711 712
3 293 713 715
3 713 65 714
3 713 714 715
3 293 292 65
3 294 292 293
3 294 13 292
3 294 226 13
3 295 226 294
3 295 32 226
3 716 295 717
3 718 717 66
3 716 717 718
3 296 719 721
3 719 295 720
3 719 720 721
3 296 32 295
3 296 109 32
3 722 109 723
3 724 723 296
3 722 723 724
3 725 1 726
3 727 726 109
3 725 726 727
3 728 1 729
3 731 730 1
3 732 54 733
3 734 54 735
3 737 736 54
3 148 738 739
3 297 740 742
3 742 741 148
3 740 741 742
3 297 743 744
3 297 745 747
3 745 99 746
3 745 746 747
3 288 99 297
3 288 0 99
3 218 748 750
3 750 749 14
3 748 749 750
3 752 751 218
3 754 753 28
3 259 104 2
3 298 104 259
3 298 29 104
3 152 298 50
3 299 298 152
3 299 29 298
3 299 221 29
3 300 221 299
3 300 15 221
3 223 153 7
3 301 153 223
3 301 67 153
3 154 301 31
3 302 301 154
3 302 67 301
3 302 300 67
3 303 300 302
3 303 15 300
3 303 755 757
3 757 756 15
3 755 756 757
3 760 759 303
3 758 759 760
3 304 761 762
3 304 763 765
3 763 12 764
3 763 764 765
3 305 766 767
3 305 768 769
3 305 770 772
3 770 304 771
3 770 771 772
3 306 304 305
3 306 12 304
3 306 145 12
3 307 145 306
3 307 62 145
3 773 307 774
3 775 774 68
3 773 774 775
3 308 776 778
3 776 307 777
3 776 777 778
3 308 62 307
3 308 287 62
3 309 287 308
3 309 4 287
3 779 69 780
3 310 781 782
3 310 783 785
3 783 69 784
3 783 784 785
3 310 309 69
3 311 309 310
3 311 4 309
3 311 123 4
3 312 123 311
3 312 46 123
3 155 312 70
3 313 312 155
3 313 46 312
3 313 252 46
3 314 252 313
3 314 16 252
3 315 786 787
3 315 788 789
3 315 790 792
3 790 314 791
3 790 791 792
3 316 314 315
3 316 16 314
3 316 200 16
3 317 200 316
3 317 71 200
3 793 317 794
3 795 317 796
3 797 71 798
3 799 798 317
3 797 798 799
3 800 318 801
3 802 801 71
3 800 801 802
3 803 318 804
3 806 805 318
3 289 98 0
3 319 98 289
3 319 807 809
3 809 808 98
3 807 808 809
3 157 319 64
3 320 319 157
3 320 810 812
3 812 811 319
3 810 811 812
3 320 813 815
3 813 215 814
3 813 814 815
3 321 215 320
3 321 816 818
3 818 817 215
3 816 817 818
3 227 158 13
3 322 158 227
3 322 72 158
3 160 322 33
3 323 322 160
3 323 72 322
3 323 321 72
3 324 321 323
3 324 819 821
3 821 820 321
3 819 820 821
3 324 822 823
3 825 824 324
3 162 826 828
3 828 827 73
3 826 827 828
3 830 829 162
3 325 831 832
3 325 833 834
3 269 111 1
3 326 111 269
3 326 34 111
3 165 326 55
3 327 326 165
3 327 34 326
3 327 230 34
3 328 230 327
3 328 17 230
3 232 166 9
3 329 166 232
3 329 75 166
3 168 329 36
3 330 329 168
3 330 75 329
3 330 328 75
3 331 328 330
3 331 17 328
3 331 163 17
3 332 163 331
3 332 74 163
3 170 332 76
3 333 332 170
3 333 74 332
3 333 325 74
3 835 325 836
3 837 836 333
3 835 836 837
3 839 838 325
3 172 840 842
3 842 841 77
3 840 841 842
3 844 843 172
3 236 173 18
3 334 173 236
3 334 78 173
3 175 334 38
3 335 334 175
3 335 78 334
3 335 845 847
3 847 846 78
3 845 846 847
3 336 848 850
3 850 849 335
3 848 849 850
3 336 851 852
3 336 853 854
3 337 855 857
3 857 856 336
3 855 856 857
3 337 858 859
3 177 337 79
3 860 337 861
3 862 861 177
3 860 861 862
3 864 863 337
3 179 865 867
3 867 866 80
3 865 866 867
3 869 868 179
3 338 870 871
3 338 872 874
3 872 14 873
3 872 873 874
3 240 180 19
3 339 180 240
3 339 81 180
3 182 339 40
3 340 339 182
3 340 81 339
3 340 338 81
3 341 338 340
3 341 14 338
3 341 217 14
3 342 217 341
3 342 27 217
3 184 342 82
3 343 342 184
3 343 27 342
3 343 102 27
3 344 102 343
3 344 2 102
3 278 118 5
3 345 118 278
3 345 41 118
3 187 345 59
3 346 345 187
3 346 41 345
3 346 243 41
3 347 243 346
3 347 20 243
3 245 188 11
3 348 188 245
3 348 84 188
3 190 348 43
3 349 348 190
3 349 84 348
3 349 347 84
3 350 347 349
3 350 20 347
3 350 185 20
3 351 185 350
3 351 83 185
3 192 351 85
3 352 351 192
3 352 83 351
3 352 344 83
3 353 344 352
3 353 2 344
3 353 258 2
3 354 258 353
3 354 49 258
3 194 354 86
3 355 354 194
3 355 49 354
3 355 128 49
3 356 128 355
3 356 6 128
3 249 195 21
3 357 195 249
3 357 87 195
3 197 357 45
3 358 357 197
3 358 87 357
3 358 356 87
3 359 356 358
3 359 6 356
3 359 210 6
3 360 210 359
3 360 23 210
3 199 360 88
3 361 360 199
3 361 23 360
3 361 94 23
3 318 94 361
3 318 875 877
3 877 876 94
3 875 876 877
3 878 96 879
3 880 96 881
3 882 25 883
3 884 883 96
3 882 883 884
3 201 885 886
3 362 887 889
3 889 888 201
3 887 888 889
3 362 890 892
3 890 25 891
3 890 891 892
3 362 214 25
3 363 214 362
3 363 8 214
3 893 89 894
3 364 895 896
3 364 897 899
3 897 89 898
3 897 898 899
3 364 363 89
3 365 363 364
3 365 8 363
3 365 135 8
3 366 135 365
3 366 53 135
3 202 366 90
3 367 366 202
3 367 53 366
3 367 268 53
3 368 268 367
3 368 3 268
3 369 900 901
3 369 902 903
3 905 904 47
3 906 369 907
3 370 908 910
3 908 369 909
3 908 909 910
3 370 911 913
3 913 912 369
3 911 912 913
3 370 914 916
3 914 203 915
3 914 915 916
3 371 203 370
3 371 91 203
3 206 917 919
3 917 371 918
3 917 918 919
3 372 371 206
3 372 91 371
3 372 368 91
3 373 368 372
3 373 3 368
3 373 108 3
3 374 108 373
3 374 920 922
3 922 921 108
3 920 921 922
3 208 374 92
3 923 374 924
3 925 924 208
3 923 924 925
3 927 926 374
3 256 209 22
3 928 209 929
3 930 929 256
3 928 929 930
3 931 93 932
3 933 932 209
3 931 932 933
3 934 93 935
3 937 936 93
3 938 127 939
3 940 127 941
3 943 942 127
