ply
format ascii 1.0
element vertex 645
property float x
property float y
property float z
element face 646
property list uchar int vertex_index
end_header
21.813738 63.687004 -16.440695
19.996334 78.107689 -6.722471
25.823698 54.93568 -2.441801
13.616772 63.721127 -29.478897
18.19656 53.280712 -17.263811
25.648823 49.074089 4.82505
19.866184 75.464775 -21.408499
17.848545 65.371368 -22.929783
22.767174 72.122856 -12.965534
24.743767 59.897377 -9.635037
23.501099 66.900566 -4.069428
21.163944 53.710583 13.145351
18.394268 83.40435 -17.151745
20.23797 58.714775 -17.024744
21.144222 69.751343 -18.868103
19.181787 70.756538 -22.565262
19.962627 64.853264 -19.624519
18.133541 59.228004 -19.883966
21.816061 75.393173 -10.253403
23.462406 69.560326 -8.521947
22.004171 72.667267 -5.432322
19.514141 81.003487 -11.951266
21.016438 77.757286 -14.842744
25.505648 57.589821 -6.076673
12.78918 57.141319 -29.257292
14.6113 46.744373 -19.787746
19.914114 75.065247 -1.804685
16.216801 47.156544 -17.219398
25.842941 51.926197 1.16939
15.74374 64.860641 -26.065336
16.239489 59.5797 -22.878349
16.312969 53.503117 -19.834763
22.793184 68.1567 -15.019608
23.444799 62.07901 -13.172264
23.931454 66.326996 -11.21015
24.578157 63.837189 -7.104511
24.718067 60.80286 -3.03244
23.175997 63.549538 0.362579
24.440023 57.893322 0.902806
23.973482 54.639217 4.943289
23.050562 48.48608 12.924674
19.576817 79.729866 -19.680582
21.511778 74.213257 -17.329617
21.125063 61.201984 -16.737223
21.220482 58.145012 -15.628071
22.015499 60.7728 -15.353154
21.599535 66.680138 -17.512644
20.690273 67.344292 -19.248234
20.946884 64.289825 -17.968859
20.151924 61.73027 -18.236612
20.95826 76.964317 -8.646031
21.898401 74.283691 -7.804821
21.065035 75.401711 -6.029001
18.779652 80.781525 -7.515907
18.524494 82.273994 -10.189472
19.854074 79.58316 -9.387639
20.790897 78.144547 -11.067376
25.733603 56.20327 -4.331831
25.933788 54.456272 -5.802798
26.215628 53.331757 -4.092022
14.164993 66.81144 -29.455788
13.137113 60.561111 -29.457836
17.163034 50.274097 -17.262556
25.75794 50.542355 2.933995
26.635607 49.058334 1.014436
18.953854 77.947845 -22.767788
18.811132 75.711929 -23.561499
18.599554 68.173264 -22.812336
18.055317 70.837929 -24.415762
17.493259 67.87059 -24.411831
16.781414 65.304855 -24.55039
16.071316 62.239033 -24.396055
17.105888 62.588253 -22.8846
18.242468 56.297394 -18.46217
17.229429 56.566132 -19.915546
17.234175 53.539322 -18.546772
16.208885 50.32951 -18.556698
22.897411 70.22448 -14.117613
23.431639 67.295532 -13.10251
23.405365 69.321976 -12.02045
23.500755 68.439308 -6.245171
24.067451 66.672348 -7.703443
24.133745 65.414291 -5.550584
24.706625 62.312469 -5.007114
24.121096 63.888676 -3.470352
20.887943 72.195625 -1.133323
22.860447 62.008644 2.52011
23.782919 60.824291 0.675362
23.560894 59.037178 2.768548
24.256138 56.173096 2.895938
22.295998 52.706249 11.056684
23.304626 49.985744 10.775428
22.119396 50.978294 13.045856
17.540815 84.905869 -15.497406
17.799801 84.035652 -19.556948
18.28647 82.355881 -20.995173
19.145468 81.550278 -18.429893
21.960911 74.993492 -13.96917
21.353374 76.092941 -16.272144
22.197481 73.247131 -15.193591
22.255438 71.197891 -16.089308
24.170631 61.02132 -11.371693
19.274225 55.957729 -17.104431
19.195576 52.60083 -15.918395
20.250637 55.406349 -15.817501
25.541544 47.688591 6.624672
20.551809 72.71859 -20.215549
19.607714 73.128105 -22.103445
20.25951 70.234413 -20.601553
19.679983 67.94249 -21.056145
18.911671 65.160439 -21.273045
18.087669 62.308872 -21.302843
19.118572 62.019691 -19.743494
19.175457 59.066166 -18.465439
22.395309 73.851212 -11.662332
23.129881 71.150581 -10.704344
22.681805 72.537659 -9.158208
22.812881 71.22551 -6.984861
22.793062 69.727173 -4.551284
20.264006 56.498508 13.118517
18.161793 83.596481 -12.926545
19.04764 82.251282 -14.56973
19.816008 80.613472 -15.984898
20.358522 79.484398 -13.442369
21.498108 76.600899 -12.574204
17.316078 54.764942 21.565342
25.170849 58.918949 -7.917707
25.017904 56.92128 -9.05599
25.541145 55.70171 -7.372662
14.675196 50.075207 -21.179207
18.8543 79.377411 -5.050557
19.994852 76.69014 -4.305908
18.928394 77.652275 -2.546864
25.907213 53.351974 -0.747345
26.445721 51.878365 -2.456095
18.521557 73.429497 -24.080204
14.669551 64.575035 -27.821325
14.066859 61.309525 -27.727379
15.066796 61.957108 -26.045341
15.393492 56.284443 -22.760935
17.190121 59.602352 -21.389267
16.315296 56.561348 -21.286615
15.425617 53.316936 -21.234964
15.403001 50.227158 -19.809736
15.327348 46.926277 -18.480412
22.408735 65.903801 -15.823695
22.671997 63.033802 -14.824418
23.14957 65.354378 -14.131769
23.832544 64.105309 -12.270168
24.377455 63.223869 -10.375321
23.816147 68.023674 -9.889353
24.358086 64.941948 -9.179673
24.786156 61.96793 -8.530132
25.068977 60.671001 -6.629877
25.217356 59.31554 -4.6238
25.280773 57.793556 -2.707179
21.004425 73.870972 -3.523258
21.9235 71.047134 -2.971161
22.726398 68.061905 -2.34466
22.449692 66.577461 -0.03487
23.383797 65.244812 -1.840881
24.019148 62.354603 -1.482679
24.580065 59.489479 -1.038467
25.201517 56.475124 -0.761632
25.178875 54.721115 1.029742
24.961784 53.310257 3.044455
24.77495 51.813755 4.952556
24.591503 50.364723 6.814883
24.462074 48.882603 8.607644
18.744974 80.217552 -21.98521
19.806021 77.70739 -20.722746
20.365807 78.875801 -17.189846
20.617676 77.024498 -18.556898
20.763542 74.760895 -19.377085
21.473686 71.918747 -18.142233
22.012341 68.92379 -16.965525
19.165285 57.413158 15.049315
20.02894 54.66489 15.205
18.544113 53.824547 19.552589
19.72547 52.919746 17.466169
20.838013 52.100079 15.378165
21.866518 49.571938 15.036122
22.84177 59.913532 -13.880247
23.104712 53.379608 -12.06764
24.643721 54.490063 -9.946038
24.046196 52.396137 -10.687588
13.513748 57.972019 -27.653648
13.341774 64.961546 -30.340692
13.615884 66.506703 -30.329138
13.890883 65.266284 -29.467343
13.131496 63.431048 -30.358166
13.341774 64.961546 -30.340692
13.376942 62.141119 -29.468367
12.891666 61.851039 -30.347636
13.131496 63.431048 -30.358166
18.172629 51.578671 -16.631778
17.655867 50.075363 -16.631151
17.679797 51.777405 -17.263184
26.132317 48.42116 3.817138
26.186876 49.155293 2.87161
25.703381 49.808222 3.879523
22.700485 61.139253 3.598118
22.358144 62.58469 3.427766
23.050708 59.65352 3.722337
23.21067 60.522911 2.644329
22.700485 61.139253 3.598118
23.387113 58.223226 3.862455
23.050708 59.65352 3.722337
21.729971 53.208416 12.101018
21.880491 54.062732 11.013607
21.314464 54.564899 12.057941
17.637158 84.651985 -17.650973
17.210432 85.402744 -16.823804
17.967541 84.155109 -16.324575
18.097034 83.720001 -18.354346
17.339925 84.967636 -18.853575
17.637158 84.651985 -17.650973
24.57488 58.831976 -10.144425
24.288312 59.393948 -11.012753
24.457199 60.459349 -10.503365
21.250951 56.511202 -15.077025
21.660719 57.871963 -14.993731
26.08947 46.339119 6.440767
25.516227 47.003189 7.463757
19.873552 57.839516 13.01031
20.464588 57.255947 12.039331
25.907254 53.484483 -6.425233
26.15516 52.917143 -5.632917
12.436438 56.824347 -30.196649
12.207768 58.153477 -31.130371
12.56051 58.47045 -30.191014
12.634218 55.627859 -29.337972
12.436438 56.824347 -30.196649
14.3243 46.754133 -20.512394
14.356248 48.41955 -21.208125
14.643248 48.40979 -20.483477
18.30275 79.031917 -2.925769
18.891347 78.514843 -3.798711
18.265702 79.894486 -4.177616
18.265702 79.894486 -4.177616
18.233691 80.656872 -5.457422
16.139479 45.426991 -16.669536
15.757019 45.549611 -17.269773
19.160466 50.98249 -15.386841
19.708608 52.461 -15.355418
26.203126 51.193852 0.256968
26.235262 51.90674 -0.701399
25.875077 52.639086 0.211022
26.982032 48.228422 0.14474
27.037377 47.668836 0.993299
17.748482 72.164147 -25.149943
17.514845 70.776466 -25.249302
15.518363 66.247268 -26.945894
16.052313 66.374966 -26.130599
15.206646 64.717838 -26.943331
14.981269 66.104466 -27.823889
15.518363 66.247268 -26.945894
15.742703 59.352188 -23.651829
15.658616 60.681855 -24.410682
16.155403 60.909367 -23.637202
15.816491 57.932072 -22.819642
15.319704 57.70456 -23.593122
15.742703 59.352188 -23.651829
15.757019 45.549611 -17.269773
15.312293 45.434477 -17.90028
15.772075 47.04141 -17.849905
21.826977 70.231289 -1.788358
21.405721 71.62138 -2.052242
21.309198 70.805534 -0.869439
22.228426 68.738674 -1.475107
22.324949 69.554519 -2.65791
21.826977 70.231289 -1.788358
22.812844 65.0635 0.163854
22.289955 65.722637 1.137269
22.653108 64.208675 1.335993
24.019702 50.988918 7.865039
24.176256 51.729625 6.805157
23.954988 50.247858 8.76142
24.526789 49.623663 7.711264
24.019702 50.988918 7.865039
23.666913 47.97373 11.747225
23.793945 48.723562 10.672602
23.177594 49.235912 11.850051
23.594738 47.255381 12.729594
23.666913 47.97373 11.747225
19.006329 56.514969 16.166355
18.56308 57.863765 16.080635
19.438156 55.140834 16.244197
19.597113 56.039024 15.127157
19.006329 56.514969 16.166355
18.437562 52.923073 20.615403
17.930096 54.294745 20.558965
17.823545 53.39327 21.62178
20.228221 51.573435 17.424295
19.628462 52.108301 18.448048
20.784492 51.163601 16.380292
20.281742 52.509912 16.422167
20.228221 51.573435 17.424295
21.298745 49.89953 16.209271
21.352266 50.836009 15.207144
20.784492 51.163601 16.380292
23.476351 54.508377 -11.762225
23.040717 55.037511 -12.512436
24.971296 54.099703 -9.233186
24.830813 55.705672 -9.501014
25.158387 55.315311 -8.788162
24.087651 50.707033 -10.403363
24.450079 51.809565 -10.029767
23.623819 51.307209 -11.003405
24.087651 50.707033 -10.403363
26.605944 51.03669 -3.136588
26.765428 50.319775 -2.344648
13.942706 58.417393 -26.859371
13.790304 59.640772 -27.690514
14.219262 60.086146 -26.896237
22.058228 59.185857 -14.856272
21.660719 57.871963 -14.993731
21.61799 59.458906 -15.490613
18.652073 81.52776 -8.85269
17.955649 82.86517 -9.333187
18.083227 82.118935 -7.996405
26.29608 52.354886 -4.777529
26.15516 52.917143 -5.632917
26.074708 53.894014 -4.94741
13.791513 68.053895 -30.383598
14.372277 68.433625 -29.552551
13.791513 68.053895 -30.383598
13.615884 66.506703 -30.329138
12.734477 60.180346 -30.291286
12.891666 61.851039 -30.347636
12.963147 58.851215 -29.357564
12.56051 58.47045 -30.191014
12.734477 60.180346 -30.291286
14.306044 45.18899 -19.883173
14.58532 45.190782 -19.185072
17.119715 48.560277 -16.651214
16.646599 47.001501 -16.629635
16.689917 48.71532 -17.240977
17.119715 48.560277 -16.651214
17.655867 50.075363 -16.631151
26.625709 48.413282 1.91183
26.196773 49.800345 1.974215
26.186876 49.155293 2.87161
27.037377 47.668836 0.993299
26.625709 48.413282 1.91183
18.406519 78.147541 -23.849028
18.35564 79.336781 -23.453789
18.335158 77.029583 -24.245884
18.406519 78.147541 -23.849028
18.882493 76.829887 -23.164644
18.250321 75.933025 -24.565232
18.335158 77.029583 -24.245884
17.233816 69.292797 -25.247336
17.514845 70.776466 -25.249302
17.774288 69.35426 -24.413797
16.927073 67.87994 -25.303846
17.233816 69.292797 -25.247336
16.57115 66.597072 -25.373126
16.927073 67.87994 -25.303846
17.137336 66.587723 -24.48111
16.262577 65.082748 -25.307863
16.052313 66.374966 -26.130599
16.57115 66.597072 -25.373126
20.336161 72.824219 -0.345199
20.401029 73.630436 -1.469004
19.849247 74.259029 -0.68088
20.749989 71.373974 0.093069
20.336161 72.824219 -0.345199
21.309198 70.805534 -0.869439
20.749989 71.373974 0.093069
22.495333 63.438228 2.414759
22.358144 62.58469 3.427766
23.018222 62.779091 1.441345
22.653108 64.208675 1.335993
22.495333 63.438228 2.414759
23.734735 56.791185 3.92615
23.908516 57.605137 2.832243
23.387113 58.223226 3.862455
23.593407 56.024246 4.949826
24.11481 55.406157 3.919614
23.734735 56.791185 3.92615
22.474196 53.502466 9.930194
21.880491 54.062732 11.013607
22.871949 52.159681 9.98594
22.474196 53.502466 9.930194
22.800312 51.345996 10.916056
23.376264 50.799428 9.845312
22.871949 52.159681 9.98594
16.715895 86.142224 -15.889263
17.077644 85.489941 -14.573477
16.715895 86.142224 -15.889263
17.210432 85.402744 -16.823804
16.974243 85.339542 -20.083822
17.339925 84.967636 -18.853575
17.304498 84.526008 -20.754713
16.974243 85.339542 -20.083822
18.043135 83.195766 -20.27606
17.547832 83.686123 -21.473826
17.304498 84.526008 -20.754713
23.915765 59.912323 -11.82437
23.55285 60.441168 -12.724656
23.807715 61.550165 -12.271978
23.915765 59.912323 -11.82437
24.288312 59.393948 -11.012753
20.236139 53.86376 -15.304971
19.708608 52.461 -15.355418
19.723107 54.00359 -15.867948
20.766029 55.14187 -15.17174
20.73556 56.77568 -15.722786
21.250951 56.511202 -15.077025
20.236139 53.86376 -15.304971
20.766029 55.14187 -15.17174
26.068636 47.07083 5.577309
26.122276 47.763579 4.677497
25.595183 48.38134 5.724861
26.068636 47.07083 5.577309
26.08947 46.339119 6.440767
20.864495 55.958862 12.044524
20.464588 57.255947 12.039331
20.713975 55.104546 13.131934
21.314464 54.564899 12.057941
20.864495 55.958862 12.044524
17.82488 83.519042 -10.668406
17.955649 82.86517 -9.333187
17.643529 84.180286 -12.036943
17.82488 83.519042 -10.668406
18.343144 82.935237 -11.558008
17.388133 84.835247 -13.288047
17.643529 84.180286 -12.036943
17.851304 84.251175 -14.211976
17.077644 85.489941 -14.573477
17.388133 84.835247 -13.288047
16.721004 55.17103 22.505505
16.86065 56.131296 21.390751
17.216336 53.768789 22.668239
16.721004 55.17103 22.505505
17.823545 53.39327 21.62178
17.216336 53.768789 22.668239
25.420008 54.705526 -7.946498
25.158387 55.315311 -8.788162
25.279525 56.311495 -8.214326
25.710932 54.107202 -7.210165
25.737467 55.078991 -6.58773
25.907254 53.484483 -6.425233
25.420008 54.705526 -7.946498
25.710932 54.107202 -7.210165
14.335625 49.874615 -21.933864
14.655686 51.569607 -21.947707
14.335625 49.874615 -21.933864
14.356248 48.41955 -21.208125
14.3243 46.754133 -20.512394
14.306044 45.18899 -19.883173
18.352353 78.112915 -1.66392
18.30275 79.031917 -2.925769
18.855832 76.827381 -1.257973
18.352353 78.112915 -1.66392
19.348692 75.533867 -0.886884
19.421254 76.358761 -2.175775
18.855832 76.827381 -1.257973
19.849247 74.259029 -0.68088
19.348692 75.533867 -0.886884
18.196366 81.358929 -6.690097
18.083227 82.118935 -7.996405
18.816976 80.079468 -6.283232
18.196366 81.358929 -6.690097
18.233691 80.656872 -5.457422
16.139479 45.426991 -16.669536
16.646599 47.001501 -16.629635
18.672137 51.23873 -15.95907
18.172629 51.578671 -16.631778
18.696068 52.940771 -16.591103
18.672137 51.23873 -15.95907
19.160466 50.98249 -15.386841
26.504516 51.169936 -1.555775
26.176467 52.61517 -1.60172
26.235262 51.90674 -0.701399
26.765428 50.319775 -2.344648
26.504516 51.169936 -1.555775
26.599459 49.75992 0.179491
26.203126 51.193852 0.256968
26.239274 50.492266 1.091913
26.599459 49.75992 0.179491
26.982032 48.228422 0.14474
26.132317 48.42116 3.817138
26.122276 47.763579 4.677497
18.105533 74.791809 -24.824584
18.250321 75.933025 -24.565232
18.666345 74.570713 -23.820851
17.981602 73.45993 -24.982164
18.288437 72.133713 -24.247983
17.748482 72.164147 -25.149943
18.105533 74.791809 -24.824584
17.981602 73.45993 -24.982164
14.72899 67.222668 -28.64112
14.372277 68.433625 -29.552551
14.417272 65.693238 -28.638556
14.72899 67.222668 -28.64112
14.981269 66.104466 -27.823889
14.719231 60.409937 -26.055217
14.219262 60.086146 -26.896237
14.566827 61.633316 -26.88636
15.156356 60.540892 -25.235325
15.569056 62.09807 -25.220698
15.658616 60.681855 -24.410682
14.719231 60.409937 -26.055217
15.156356 60.540892 -25.235325
14.962124 56.147135 -23.578091
15.319704 57.70456 -23.593122
15.014834 54.674225 -22.738571
14.962124 56.147135 -23.578091
15.030897 53.190472 -21.975585
15.014834 54.674225 -22.738571
15.409555 54.80069 -21.99795
15.050407 51.696072 -21.207086
14.655686 51.569607 -21.947707
15.030897 53.190472 -21.975585
14.943344 45.281734 -18.531405
14.58532 45.190782 -19.185072
14.969324 46.835325 -19.134079
14.943344 45.281734 -18.531405
15.312293 45.434477 -17.90028
21.957715 67.085155 0.892217
22.289955 65.722637 1.137269
22.090072 67.996452 -0.320212
21.957715 67.085155 0.892217
22.588045 67.319683 -1.189765
22.228426 68.738674 -1.475107
22.090072 67.996452 -0.320212
23.426004 55.284424 5.945309
23.593407 56.024246 4.949826
23.867246 53.866872 5.86936
23.426004 55.284424 5.945309
24.26798 52.454141 5.873994
24.374216 53.226486 4.947923
23.867246 53.866872 5.86936
24.683226 51.089239 5.883719
24.26798 52.454141 5.873994
24.176256 51.729625 6.805157
24.976492 47.600195 8.455243
25.516227 47.003189 7.463757
25.001809 48.285597 7.616158
23.88335 49.434173 9.691536
23.954988 50.247858 8.76142
23.376264 50.799428 9.845312
24.372669 48.171992 9.588711
23.88335 49.434173 9.691536
23.793945 48.723562 10.672602
24.976492 47.600195 8.455243
24.372669 48.171992 9.588711
17.838743 82.65646 -22.090979
17.547832 83.686123 -21.473826
18.067995 81.587295 -22.585997
17.838743 82.65646 -22.090979
18.515722 81.286716 -21.490192
18.251199 80.471634 -23.0625
18.067995 81.587295 -22.585997
18.849414 79.082698 -22.376499
18.35564 79.336781 -23.453789
18.251199 80.471634 -23.0625
18.722516 58.759231 15.002923
18.56308 57.863765 16.080635
19.324192 58.296841 13.975709
18.722516 58.759231 15.002923
19.714645 56.955833 14.083916
19.873552 57.839516 13.01031
19.324192 58.296841 13.975709
17.470005 55.689554 20.424892
16.86065 56.131296 21.390751
18.084022 55.219357 19.418515
17.470005 55.689554 20.424892
17.930096 54.294745 20.558965
18.695743 54.720663 18.417991
18.084022 55.219357 19.418515
19.037783 52.560702 19.491257
18.437562 52.923073 20.615403
19.134791 53.372146 18.509379
19.037783 52.560702 19.491257
19.628462 52.108301 18.448048
19.286421 54.268263 17.374782
18.695743 54.720663 18.417991
19.134791 53.372146 18.509379
19.877205 53.792318 16.335584
19.438156 55.140834 16.244197
19.286421 54.268263 17.374782
21.827893 48.687624 16.017771
21.298745 49.89953 16.209271
22.390199 48.266196 14.953264
21.827893 48.687624 16.017771
22.982221 47.723267 13.89754
22.45854 49.029009 13.980398
22.390199 48.266196 14.953264
23.594738 47.255381 12.729594
22.982221 47.723267 13.89754
22.471363 58.756223 -14.119819
22.058228 59.185857 -14.856272
22.428635 60.343166 -14.616701
23.251335 59.358429 -13.078647
23.143285 60.996271 -13.526256
23.55285 60.441168 -12.724656
22.909247 58.304474 -13.41874
23.251335 59.358429 -13.078647
22.471363 58.756223 -14.119819
22.909247 58.304474 -13.41874
22.634591 53.746446 -12.701237
23.040717 55.037511 -12.512436
22.642569 52.067083 -12.262646
22.634591 53.746446 -12.701237
24.711948 57.343928 -9.854902
24.57488 58.831976 -10.144425
24.880835 58.409329 -9.345513
24.524857 56.128319 -10.299926
24.711948 57.343928 -9.854902
24.830813 55.705672 -9.501014
24.245855 55.063604 -10.701424
24.524857 56.128319 -10.299926
24.748841 52.856527 -9.658991
24.971296 54.099703 -9.233186
24.344958 53.4431 -10.316813
24.748841 52.856527 -9.658991
24.450079 51.809565 -10.029767
23.947093 54.016642 -11.072198
24.245855 55.063604 -10.701424
24.344958 53.4431 -10.316813
23.575454 52.887873 -11.377614
23.476351 54.508377 -11.762225
23.947093 54.016642 -11.072198
23.153078 51.798944 -11.693431
23.575454 52.887873 -11.377614
23.623819 51.307209 -11.003405
22.642569 52.067083 -12.262646
23.153078 51.798944 -11.693431
26.490897 51.763386 -3.954551
26.330675 52.605061 -3.274058
26.605944 51.03669 -3.136588
26.29608 52.354886 -4.777529
26.490897 51.763386 -3.954551
13.654891 56.66359 -26.756425
13.942706 58.417393 -26.859371
13.318637 56.398302 -27.595205
13.654891 56.66359 -26.756425
12.956353 55.982952 -28.397027
13.151464 57.556669 -28.45547
13.318637 56.398302 -27.595205
12.634218 55.627859 -29.337972
12.956353 55.982952 -28.397027
3 0 45 43
3 0 48 46
3 0 43 48
3 1 52 50
3 1 55 53
3 1 50 55
3 2 59 57
3 3 187 189
3 189 188 60
3 187 188 189
3 3 190 191
3 3 192 194
3 192 61 193
3 192 193 194
3 4 195 197
3 197 196 62
3 195 196 197
3 5 198 200
3 200 199 63
3 198 199 200
3 6 66 65
3 7 69 67
3 7 70 69
3 7 72 70
3 4 75 73
3 4 62 75
3 8 79 77
3 10 82 80
3 10 84 82
3 201 86 202
3 203 88 204
3 205 204 86
3 203 204 205
3 207 206 88
3 11 208 210
3 208 90 209
3 208 209 210
3 11 92 90
3 12 211 213
3 213 212 93
3 211 212 213
3 12 214 216
3 214 94 215
3 214 215 216
3 12 96 94
3 8 99 97
3 8 77 99
3 9 217 219
3 219 218 101
3 217 218 219
3 13 104 102
3 221 220 44
3 223 222 105
3 14 108 106
3 16 109 47
3 16 110 109
3 16 112 110
3 13 113 49
3 13 102 113
3 18 116 114
3 20 117 51
3 20 118 117
3 224 119 225
3 21 120 54
3 21 121 120
3 21 123 121
3 18 124 56
3 18 114 124
3 23 128 126
3 227 226 58
3 24 228 230
3 228 229 230
3 24 231 232
3 25 233 235
3 235 234 129
3 233 234 235
3 236 132 237
3 238 237 130
3 236 237 238
3 239 130 240
3 27 241 242
3 244 243 103
3 28 245 247
3 247 246 133
3 245 246 247
3 249 248 64
3 15 135 107
3 251 250 68
3 29 252 253
3 29 254 256
3 254 136 255
3 254 255 256
3 29 138 136
3 30 257 259
3 259 258 71
3 257 258 259
3 30 260 262
3 260 139 261
3 260 261 262
3 17 140 111
3 31 141 74
3 31 142 141
3 31 143 142
3 27 144 76
3 27 263 265
3 265 264 144
3 263 264 265
3 32 147 145
3 34 148 78
3 34 149 148
3 19 150 115
3 35 151 81
3 35 152 151
3 35 153 152
3 36 154 83
3 36 155 154
3 26 156 131
3 266 157 267
3 268 267 85
3 266 267 268
3 269 158 270
3 271 270 157
3 269 270 271
3 37 272 274
3 272 159 273
3 272 273 274
3 37 160 159
3 37 161 160
3 38 162 87
3 38 163 162
3 38 164 163
3 39 165 89
3 39 166 165
3 275 167 276
3 277 168 278
3 279 278 167
3 277 278 279
3 40 280 282
3 282 281 91
3 280 281 282
3 40 283 284
3 41 169 95
3 41 170 169
3 22 171 122
3 42 172 98
3 42 173 172
3 42 174 173
3 32 175 100
3 32 145 175
3 285 176 286
3 287 177 288
3 289 288 176
3 287 288 289
3 290 178 291
3 292 291 125
3 290 291 292
3 293 179 294
3 295 180 296
3 297 296 179
3 295 296 297
3 298 181 299
3 300 299 180
3 298 299 300
3 33 182 146
3 301 183 302
3 303 184 304
3 305 304 127
3 303 304 305
3 306 185 307
3 309 308 185
3 311 310 134
3 312 186 313
3 314 313 137
3 312 313 314
3 43 44 13
3 45 44 43
3 45 315 317
3 317 316 44
3 315 316 317
3 46 47 14
3 48 47 46
3 48 16 47
3 48 49 16
3 43 49 48
3 43 13 49
3 50 51 18
3 52 51 50
3 52 20 51
3 53 318 320
3 318 54 319
3 318 319 320
3 55 54 53
3 55 21 54
3 55 56 21
3 50 56 55
3 50 18 56
3 57 58 23
3 59 58 57
3 59 321 323
3 323 322 58
3 321 322 323
3 60 324 325
3 327 326 60
3 61 328 329
3 61 330 332
3 330 24 331
3 330 331 332
3 334 333 25
3 62 335 337
3 337 336 27
3 335 336 337
3 339 338 62
3 63 64 28
3 340 64 341
3 342 341 63
3 340 341 342
3 344 343 64
3 65 345 346
3 66 347 349
3 349 348 65
3 347 348 349
3 66 350 351
3 67 68 15
3 69 68 67
3 69 352 354
3 354 353 68
3 352 353 354
3 69 355 356
3 70 357 359
3 359 358 69
3 357 358 359
3 70 360 362
3 360 29 361
3 360 361 362
3 70 71 29
3 72 71 70
3 72 30 71
3 73 74 17
3 75 74 73
3 75 31 74
3 75 76 31
3 62 76 75
3 62 27 76
3 77 78 32
3 79 78 77
3 79 34 78
3 80 81 19
3 82 81 80
3 82 35 81
3 82 83 35
3 84 83 82
3 84 36 83
3 363 85 364
3 365 364 26
3 363 364 365
3 366 85 367
3 369 368 85
3 86 370 371
3 86 372 374
3 372 37 373
3 372 373 374
3 86 87 37
3 88 87 86
3 88 38 87
3 88 89 38
3 375 89 376
3 377 376 88
3 375 376 377
3 378 39 379
3 380 379 89
3 378 379 380
3 90 381 382
3 90 383 384
3 90 385 387
3 385 91 386
3 385 386 387
3 92 91 90
3 92 40 91
3 93 388 389
3 391 390 93
3 94 392 393
3 94 394 395
3 94 396 398
3 396 95 397
3 396 397 398
3 96 95 94
3 96 41 95
3 97 98 22
3 99 98 97
3 99 42 98
3 99 100 42
3 77 100 99
3 77 32 100
3 101 399 401
3 401 400 33
3 399 400 401
3 403 402 101
3 102 103 4
3 104 103 102
3 104 404 406
3 406 405 103
3 404 405 406
3 44 104 13
3 407 104 408
3 409 408 44
3 407 408 409
3 411 410 104
3 105 412 414
3 414 413 5
3 412 413 414
3 416 415 105
3 106 107 6
3 108 107 106
3 108 15 107
3 47 108 14
3 109 108 47
3 109 15 108
3 109 67 15
3 110 67 109
3 110 7 67
3 110 111 7
3 112 111 110
3 112 17 111
3 49 112 16
3 113 112 49
3 113 17 112
3 113 73 17
3 102 73 113
3 102 4 73
3 114 115 8
3 116 115 114
3 116 19 115
3 51 116 18
3 117 116 51
3 117 19 116
3 117 80 19
3 118 80 117
3 118 10 80
3 119 417 418
3 119 419 421
3 419 11 420
3 419 420 421
3 54 422 423
3 120 424 426
3 426 425 54
3 424 425 426
3 120 427 428
3 120 429 431
3 429 93 430
3 429 430 431
3 121 93 120
3 121 12 93
3 121 122 12
3 123 122 121
3 123 22 122
3 56 123 21
3 124 123 56
3 124 22 123
3 124 97 22
3 114 97 124
3 114 8 97
3 432 125 433
3 434 125 435
3 437 436 125
3 126 127 9
3 128 127 126
3 128 438 440
3 440 439 127
3 438 439 440
3 58 128 23
3 441 128 442
3 443 442 58
3 441 442 443
3 445 444 128
3 129 446 447
3 449 448 129
3 451 450 25
3 130 131 1
3 132 131 130
3 132 26 131
3 452 132 453
3 454 132 455
3 456 26 457
3 458 457 132
3 456 457 458
3 460 459 26
3 461 53 462
3 130 463 465
3 463 53 464
3 463 464 465
3 130 1 53
3 467 466 27
3 103 468 470
3 470 469 4
3 468 469 470
3 472 471 103
3 133 134 2
3 473 134 474
3 475 474 133
3 473 474 475
3 477 476 134
3 64 478 480
3 480 479 28
3 478 479 480
3 482 481 64
3 484 483 5
3 107 66 6
3 135 66 107
3 135 485 487
3 487 486 66
3 485 486 487
3 68 135 15
3 488 135 489
3 490 489 68
3 488 489 490
3 492 491 135
3 493 60 494
3 136 495 497
3 495 60 496
3 495 496 497
3 136 3 60
3 136 137 3
3 138 137 136
3 138 498 500
3 500 499 137
3 498 499 500
3 71 138 29
3 501 138 502
3 503 502 71
3 501 502 503
3 505 504 138
3 139 506 507
3 139 508 509
3 111 72 7
3 140 72 111
3 140 30 72
3 74 140 17
3 141 140 74
3 141 30 140
3 141 139 30
3 142 139 141
3 142 510 512
3 512 511 139
3 510 511 512
3 142 513 515
3 513 129 514
3 513 514 515
3 143 129 142
3 143 25 129
3 76 143 31
3 144 143 76
3 144 25 143
3 144 516 518
3 518 517 25
3 516 517 518
3 520 519 144
3 145 146 0
3 147 146 145
3 147 33 146
3 78 147 32
3 148 147 78
3 148 33 147
3 148 101 33
3 149 101 148
3 149 9 101
3 115 79 8
3 150 79 115
3 150 34 79
3 81 150 19
3 151 150 81
3 151 34 150
3 151 149 34
3 152 149 151
3 152 9 149
3 152 126 9
3 153 126 152
3 153 23 126
3 83 153 35
3 154 153 83
3 154 23 153
3 154 57 23
3 155 57 154
3 155 2 57
3 131 52 1
3 156 52 131
3 156 20 52
3 85 156 26
3 157 156 85
3 157 20 156
3 157 118 20
3 158 118 157
3 158 10 118
3 159 521 522
3 159 523 524
3 159 525 527
3 525 158 526
3 525 526 527
3 160 158 159
3 160 10 158
3 160 84 10
3 161 84 160
3 161 36 84
3 87 161 37
3 162 161 87
3 162 36 161
3 162 155 36
3 163 155 162
3 163 2 155
3 163 133 2
3 164 133 163
3 164 28 133
3 89 164 38
3 165 164 89
3 165 28 164
3 165 63 28
3 166 63 165
3 166 5 63
3 528 39 529
3 530 39 531
3 532 166 533
3 534 533 39
3 532 533 534
3 167 535 537
3 535 166 536
3 535 536 537
3 167 5 166
3 167 105 5
3 168 105 167
3 168 538 540
3 540 539 105
3 538 539 540
3 91 541 543
3 541 168 542
3 541 542 543
3 544 168 545
3 546 545 91
3 544 545 546
3 548 547 168
3 95 549 550
3 169 551 553
3 553 552 95
3 551 552 553
3 169 554 555
3 169 556 558
3 556 65 557
3 556 557 558
3 170 65 169
3 170 6 65
3 122 96 12
3 171 96 122
3 171 41 96
3 98 171 22
3 172 171 98
3 172 41 171
3 172 170 41
3 173 170 172
3 173 6 170
3 173 106 6
3 174 106 173
3 174 14 106
3 100 174 42
3 175 174 100
3 175 14 174
3 175 46 14
3 145 46 175
3 145 0 46
3 176 559 560
3 176 561 562
3 176 563 565
3 563 119 564
3 563 564 565
3 177 119 176
3 177 11 119
3 125 566 567
3 178 568 570
3 570 569 125
3 568 569 570
3 178 571 572
3 573 178 574
3 179 575 577
3 575 178 576
3 575 576 577
3 179 578 580
3 580 579 178
3 578 579 580
3 179 581 583
3 581 177 582
3 581 582 583
3 180 177 179
3 180 11 177
3 180 92 11
3 181 92 180
3 181 40 92
3 584 181 585
3 586 181 587
3 588 40 589
3 590 589 181
3 588 589 590
3 592 591 40
3 146 45 0
3 182 45 146
3 182 593 595
3 595 594 45
3 593 594 595
3 596 182 597
3 598 597 33
3 596 597 598
3 599 182 600
3 602 601 182
3 183 603 604
3 183 605 606
3 127 607 609
3 609 608 9
3 607 608 609
3 184 610 612
3 612 611 127
3 610 611 612
3 184 613 614
3 615 184 616
3 185 617 619
3 617 184 618
3 617 618 619
3 185 620 622
3 622 621 184
3 620 621 622
3 185 623 625
3 623 183 624
3 623 624 625
3 626 183 627
3 628 627 185
3 626 627 628
3 630 629 183
3 134 59 2
3 631 59 632
3 633 632 134
3 631 632 633
3 635 634 59
3 137 61 3
3 186 61 137
3 186 24 61
3 636 186 637
3 638 186 639
3 640 24 641
3 642 641 186
3 640 641 642
3 644 643 24
