ply
format ascii 1.0
element vertex 305
property float x
property float y
property float z
element face 282
property list uchar int vertex_index
end_header
0.875525 56.505856 -48.405788
-2.205631 46.025127 -52.721394
-2.588588 69.591805 -47.832043
4.989321 65.589211 -42.956364
4.265379 55.067822 -46.316799
1.459051 67.766273 -45.625999
9.951637 65.919197 -36.484711
-2.77343 57.507832 -49.964939
-4.419386 51.644806 -51.651707
-0.663879 51.397968 -50.684605
1.197873 46.1502 -52.164555
-4.837725 63.73138 -49.765312
-0.89635 62.946926 -47.997246
2.83093 61.306297 -45.772587
5.962517 59.373276 -43.065521
7.43912 69.308304 -39.837875
7.898922 63.009655 -39.753983
-5.509336 45.429459 -52.966743
-6.248806 39.298683 -53.893345
5.707916 54.519516 -44.999008
5.001066 52.388859 -46.744396
-0.850833 56.864525 -49.247398
-1.838057 54.337364 -50.298935
-0.002713 53.951817 -49.62112
-3.85927 66.930542 -48.866806
-2.902917 63.516415 -48.951756
-1.675629 66.032867 -47.906422
3.278093 66.772705 -44.358532
2.261515 64.489944 -45.584328
4.005712 63.462837 -44.282703
4.478739 60.499096 -44.448063
5.5135 62.447922 -42.923752
8.754991 70.87587 -38.166779
8.904675 64.59153 -38.128277
-3.271542 48.723854 -52.092716
-5.020429 48.700668 -52.323765
-3.848085 45.791393 -52.873352
-4.623341 39.668438 -54.199081
2.617516 55.982441 -47.386379
1.7049 53.487949 -48.858639
4.180923 50.422276 -48.486404
5.107872 47.787689 -49.309052
2.792701 70.03476 -44.256187
4.612225 68.933914 -42.852779
10.085354 69.203743 -36.396954
-1.108314 43.656319 -53.496468
-4.744949 57.6731 -50.659588
-5.581295 54.71954 -51.36887
-3.641996 54.516178 -50.873699
-2.55652 51.512772 -51.238144
-1.411326 48.80175 -51.725319
0.962275 51.032234 -50.157211
0.283063 48.538754 -51.37915
-0.499456 46.1339 -52.50248
0.551196 43.646591 -53.465019
-5.831938 60.820461 -50.5476
-3.739344 60.518024 -49.819103
-1.803137 60.214417 -48.999966
0.073874 59.767139 -48.069016
0.347067 65.481926 -46.778484
1.025079 62.423561 -46.893536
1.821054 58.957714 -47.12318
3.532964 58.239052 -45.946468
5.017063 57.427269 -44.725395
5.995358 70.903351 -41.27161
6.151231 67.663025 -41.453907
8.802896 67.869286 -38.172028
7.687576 66.17173 -39.748405
6.503319 64.367264 -41.448715
6.948599 61.206802 -41.370113
-6.137774 51.605961 -51.96748
-4.205596 42.682953 -53.6012
-5.823723 42.262897 -53.506073
6.063328 53.069769 -45.266886
6.393633 53.869368 -44.375755
-3.770521 69.97295 -48.344288
-3.129211 71.31739 -47.839291
-3.223929 68.261173 -48.349424
-4.405862 68.642319 -48.861669
-3.770521 69.97295 -48.344288
9.362184 71.684616 -37.391924
8.683596 72.532689 -38.178324
3.810607 54.094948 -47.094053
2.986675 54.552257 -47.628843
3.441448 55.525132 -46.851589
4.929504 50.141118 -47.965035
4.590994 51.405567 -47.6154
5.339576 51.124409 -47.094031
5.392978 48.823824 -48.376359
4.644398 49.104982 -48.897728
4.929504 50.141118 -47.965035
3.4546 71.147915 -43.551327
2.482716 71.702321 -44.243713
4.364361 70.597492 -42.849622
3.702463 69.484337 -43.554483
3.4546 71.147915 -43.551327
-1.310516 42.250386 -54.008108
-0.562304 42.52277 -54.006365
1.75507 50.923677 -49.787033
1.333588 52.260092 -49.507925
2.126383 52.151535 -49.137747
0.740468 47.344477 -51.771853
1.133922 48.514742 -51.079407
1.591327 47.320465 -51.472109
-5.919461 64.041967 -50.120735
-5.419844 65.522008 -49.745657
-5.334831 62.27592 -50.156456
-6.416568 62.586507 -50.511879
-5.919461 64.041967 -50.120735
0.903059 66.624099 -46.202241
-0.082073 67.118836 -46.781164
0.473919 68.261009 -46.204921
6.242232 57.782972 -43.179546
5.769505 56.809969 -44.009483
5.48979 58.400272 -43.895458
6.717239 70.105828 -40.554743
6.662577 71.779785 -40.49271
7.384457 70.982261 -39.775842
-6.141615 46.881096 -52.748533
-5.897162 48.5167 -52.427044
-5.264883 47.065064 -52.645254
-6.390524 45.23258 -52.978809
-6.141615 46.881096 -52.748533
-3.620359 41.462807 -54.006918
-3.436463 42.916176 -53.604669
-6.895606 40.562246 -53.622006
-6.683064 42.044353 -53.42837
-6.036264 40.78079 -53.699709
-7.020256 39.041882 -53.748365
-6.895606 40.562246 -53.622006
5.709903 52.004441 -46.139579
5.354491 53.454188 -45.871702
6.063328 53.069769 -45.266886
5.339576 51.124409 -47.094031
5.709903 52.004441 -46.139579
2.038028 46.200339 -51.869605
1.591327 47.320465 -51.472109
1.691736 45.102424 -52.609272
2.038028 46.200339 -51.869605
-4.930617 67.121589 -49.296404
-4.405862 68.642319 -48.861669
-4.348497 65.330961 -49.316059
-5.419844 65.522008 -49.745657
-4.930617 67.121589 -49.296404
8.042393 71.766044 -38.940295
8.683596 72.532689 -38.178324
8.097055 70.092087 -39.002327
7.384457 70.982261 -39.775842
8.042393 71.766044 -38.940295
9.42202 63.629773 -37.292694
9.428156 65.255364 -37.306494
9.945501 64.293606 -36.470911
8.9823 62.94258 -38.110294
9.42202 63.629773 -37.292694
8.479423 62.151642 -38.923147
8.401798 63.800593 -38.94113
8.9823 62.94258 -38.110294
8.060025 61.359747 -39.748087
8.479423 62.151642 -38.923147
-4.043505 38.532388 -54.626071
-3.829231 39.95555 -54.305858
-4.791605 38.278778 -54.414867
-4.043505 38.532388 -54.626071
-5.604338 38.093901 -54.261999
-5.436074 39.48356 -54.046213
-4.791605 38.278778 -54.414867
-6.29302 37.729526 -54.077223
-5.604338 38.093901 -54.261999
2.530367 53.305011 -48.364973
2.161208 54.735195 -48.122509
2.986675 54.552257 -47.628843
2.126383 52.151535 -49.137747
2.530367 53.305011 -48.364973
4.17845 52.755466 -47.307851
3.810607 54.094948 -47.094053
4.633223 53.728341 -46.530597
3.768378 51.772175 -48.178855
4.17845 52.755466 -47.307851
4.590994 51.405567 -47.6154
3.364394 50.618698 -48.951629
3.768378 51.772175 -48.178855
3.866542 49.407686 -49.257196
3.364394 50.618698 -48.951629
4.330017 48.090393 -49.66852
3.866542 49.407686 -49.257196
4.644398 49.104982 -48.897728
4.816262 46.829055 -50.171509
4.330017 48.090393 -49.66852
-1.97968 70.912903 -47.287243
-3.129211 71.31739 -47.839291
-1.549901 69.173775 -47.307944
-1.97968 70.912903 -47.287243
1.118057 69.486435 -45.591743
0.473919 68.261009 -46.204921
1.784882 70.620678 -44.906837
2.482716 71.702321 -44.243713
2.125876 68.900517 -44.941093
1.118057 69.486435 -45.591743
1.784882 70.620678 -44.906837
10.663602 69.89148 -35.605402
10.027365 70.848553 -36.507012
10.594314 68.288391 -35.568539
10.663602 69.89148 -35.605402
10.527456 66.646118 -35.612417
10.018496 67.56147 -36.440832
10.594314 68.288391 -35.568539
10.468493 65.040108 -35.553076
10.527456 66.646118 -35.612417
9.945501 64.293606 -36.470911
10.468493 65.040108 -35.553076
-1.887822 43.402859 -53.552304
-2.436481 44.587263 -53.164766
-1.656972 44.840723 -53.108931
-1.887822 43.402859 -53.552304
-1.310516 42.250386 -54.008108
-5.163122 56.19632 -51.014229
-6.173523 56.326327 -51.291511
-5.75535 57.803106 -50.93687
1.473527 49.761482 -50.468437
1.75507 50.923677 -49.787033
0.622669 49.785494 -50.76818
1.473527 49.761482 -50.468437
1.133922 48.514742 -51.079407
0.267451 42.517906 -53.99064
-0.562304 42.52277 -54.006365
-0.278559 43.651455 -53.480744
1.368397 43.85062 -53.259504
0.874534 44.898395 -52.814787
1.691736 45.102424 -52.609272
1.095236 42.716106 -53.941895
1.368397 43.85062 -53.259504
0.267451 42.517906 -53.99064
1.095236 42.716106 -53.941895
-6.901533 61.019388 -50.845913
-6.416568 62.586507 -50.511879
-6.298844 59.376787 -50.880876
-6.901533 61.019388 -50.845913
-5.288443 59.24678 -50.603594
-5.75535 57.803106 -50.93687
-6.298844 59.376787 -50.880876
-1.093421 67.394306 -47.345133
-2.132109 67.812336 -47.869232
-1.549901 69.173775 -47.307944
-0.664281 65.757396 -47.342453
-1.093421 67.394306 -47.345133
-0.082073 67.118836 -46.781164
6.114931 55.356093 -44.14629
5.36249 55.973393 -44.862201
5.769505 56.809969 -44.009483
6.393633 53.869368 -44.375755
6.114931 55.356093 -44.14629
5.753371 72.543503 -41.313659
6.662577 71.779785 -40.49271
5.055928 71.582211 -42.059038
5.753371 72.543503 -41.313659
5.303791 69.918633 -42.062195
4.364361 70.597492 -42.849622
5.055928 71.582211 -42.059038
9.420172 70.039806 -37.281866
9.362184 71.684616 -37.391924
10.027365 70.848553 -36.507012
7.584863 60.45832 -40.556152
7.423761 62.108229 -40.562048
8.060025 61.359747 -39.748087
7.112736 59.70735 -41.472532
7.584863 60.45832 -40.556152
6.619695 58.790587 -42.320236
6.455558 60.290039 -42.217817
7.112736 59.70735 -41.472532
6.242232 57.782972 -43.179546
6.619695 58.790587 -42.320236
-6.522794 54.688158 -51.575418
-6.173523 56.326327 -51.291511
-6.801033 53.131369 -51.874724
-6.522794 54.688158 -51.575418
-5.859535 53.162751 -51.668175
-7.09673 51.567848 -52.101374
-6.801033 53.131369 -51.874724
-6.455834 49.969347 -52.248902
-5.579102 50.153315 -52.145623
-5.897162 48.5167 -52.427044
-7.09673 51.567848 -52.101374
-6.455834 49.969347 -52.248902
-3.257708 44.470396 -53.240746
-3.026858 45.90826 -52.797373
-2.436481 44.587263 -53.164766
-4.026841 44.237173 -53.237276
-3.257708 44.470396 -53.240746
-3.436463 42.916176 -53.604669
-4.414468 41.175696 -53.90014
-3.620359 41.462807 -54.006918
-3.829231 39.95555 -54.305858
-6.547717 43.649299 -53.248474
-6.390524 45.23258 -52.978809
-5.66653 43.846178 -53.236408
-6.547717 43.649299 -53.248474
-6.683064 42.044353 -53.42837
-7.020256 39.041882 -53.748365
-6.29302 37.729526 -54.077223
5.863355 47.588131 -48.751188
5.392978 48.823824 -48.376359
5.581918 46.692785 -49.75618
5.863355 47.588131 -48.751188
4.816262 46.829055 -50.171509
5.581918 46.692785 -49.75618
3 74 73 19
3 0 23 21
3 2 75 76
3 2 77 79
3 77 24 78
3 77 78 79
3 2 26 24
3 3 29 27
3 3 31 29
3 80 32 81
3 1 36 34
3 4 82 84
3 84 83 38
3 82 83 84
3 85 40 86
3 87 86 20
3 85 86 87
3 88 41 89
3 90 89 40
3 88 89 90
3 91 42 92
3 93 43 94
3 95 94 42
3 93 94 95
3 97 96 45
3 7 48 46
3 9 49 22
3 9 50 49
3 98 51 99
3 100 99 39
3 98 99 100
3 10 101 103
3 101 52 102
3 101 102 103
3 10 53 52
3 10 54 53
3 11 104 105
3 11 106 108
3 106 55 107
3 106 107 108
3 11 56 55
3 12 57 25
3 12 58 57
3 5 109 111
3 109 59 110
3 109 110 111
3 13 60 28
3 13 61 60
3 13 62 61
3 14 63 30
3 14 112 114
3 114 113 63
3 112 113 114
3 15 115 117
3 115 64 116
3 115 116 117
3 15 65 64
3 6 66 44
3 16 67 33
3 16 68 67
3 16 69 68
3 8 70 47
3 17 118 120
3 120 119 35
3 118 119 120
3 17 121 122
3 123 71 124
3 18 72 37
3 18 125 127
3 127 126 72
3 125 126 127
3 18 128 129
3 19 20 4
3 130 20 131
3 132 131 19
3 130 131 132
3 134 133 20
3 21 22 7
3 23 22 21
3 23 9 22
3 135 10 136
3 138 137 10
3 24 139 140
3 24 141 143
3 141 11 142
3 141 142 143
3 24 25 11
3 26 25 24
3 26 12 25
3 27 28 5
3 29 28 27
3 29 13 28
3 29 30 13
3 31 30 29
3 31 14 30
3 32 144 145
3 32 146 148
3 146 15 147
3 146 147 148
3 149 33 150
3 151 150 6
3 149 150 151
3 152 33 153
3 154 16 155
3 156 155 33
3 154 155 156
3 158 157 16
3 34 35 8
3 36 35 34
3 36 17 35
3 159 37 160
3 161 37 162
3 163 18 164
3 165 164 37
3 163 164 165
3 167 166 18
3 38 39 0
3 168 39 169
3 170 169 38
3 168 169 170
3 172 171 39
3 20 173 175
3 175 174 4
3 173 174 175
3 40 176 178
3 178 177 20
3 176 177 178
3 40 179 180
3 40 181 182
3 41 183 185
3 185 184 40
3 183 184 185
3 41 186 187
3 188 2 189
3 191 190 2
3 192 5 193
3 42 194 195
3 42 196 198
3 196 5 197
3 196 197 198
3 42 27 5
3 43 27 42
3 43 3 27
3 199 44 200
3 201 44 202
3 203 6 204
3 205 204 44
3 203 204 205
3 206 6 207
3 209 208 6
3 45 210 212
3 212 211 1
3 210 211 212
3 214 213 45
3 46 215 217
3 215 47 216
3 215 216 217
3 48 47 46
3 48 8 47
3 22 48 7
3 49 48 22
3 49 8 48
3 49 34 8
3 50 34 49
3 50 1 34
3 39 23 0
3 51 23 39
3 51 9 23
3 218 51 219
3 52 220 222
3 220 51 221
3 220 221 222
3 52 9 51
3 52 50 9
3 53 50 52
3 53 1 50
3 53 45 1
3 54 45 53
3 54 223 225
3 225 224 45
3 223 224 225
3 226 54 227
3 228 227 10
3 226 227 228
3 229 54 230
3 232 231 54
3 55 233 234
3 55 235 236
3 55 237 239
3 237 46 238
3 237 238 239
3 56 46 55
3 56 7 46
3 25 56 11
3 57 56 25
3 57 7 56
3 57 21 7
3 58 21 57
3 58 0 21
3 240 26 241
3 242 241 2
3 240 241 242
3 59 243 245
3 243 26 244
3 243 244 245
3 59 12 26
3 28 59 5
3 60 59 28
3 60 12 59
3 60 58 12
3 61 58 60
3 61 0 58
3 61 38 0
3 62 38 61
3 62 4 38
3 30 62 13
3 63 62 30
3 63 4 62
3 63 19 4
3 246 19 247
3 248 247 63
3 246 247 248
3 250 249 19
3 64 251 252
3 64 253 254
3 64 255 257
3 255 43 256
3 255 256 257
3 65 43 64
3 65 3 43
3 44 258 260
3 258 32 259
3 258 259 260
3 66 32 44
3 66 15 32
3 33 66 6
3 67 66 33
3 67 15 66
3 67 65 15
3 68 65 67
3 68 3 65
3 68 31 3
3 69 31 68
3 69 14 31
3 261 69 262
3 263 262 16
3 261 262 263
3 264 69 265
3 266 14 267
3 268 267 69
3 266 267 268
3 270 269 14
3 47 271 272
3 70 273 275
3 275 274 47
3 273 274 275
3 70 276 277
3 35 70 8
3 278 70 279
3 280 279 35
3 278 279 280
3 282 281 70
3 283 36 284
3 285 284 1
3 283 284 285
3 71 286 288
3 286 36 287
3 286 287 288
3 71 17 36
3 37 289 291
3 289 71 290
3 289 290 291
3 72 71 37
3 72 17 71
3 72 292 294
3 294 293 17
3 292 293 294
3 296 295 72
3 298 297 18
3 299 41 300
3 301 41 302
3 304 303 41
