ply
format ascii 1.0
element vertex 760
property float x
property float y
property float z
element face 827
property list uchar int vertex_index
end_header
6.923867 -60.138287 38.706406
-1.79265 -49.455223 53.385555
-5.722984 -67.227837 41.802414
-2.71152 -34.59811 61.35952
-8.590484 -52.607704 57.987579
-3.972895 -58.469627 49.106659
-10.946134 -61.736351 51.844704
-21.210505 -79.171959 33.463261
-14.572083 -79.125267 33.509022
5.534077 -38.742508 48.015987
0.585663 -40.66106 54.810001
-5.709272 -43.438599 61.064617
-13.432471 -45.992207 65.507103
0.92308 -63.87709 40.094517
-12.71275 -70.515373 43.31123
-12.436333 -54.152687 59.618504
-9.86296 -57.261562 55.214668
-13.574472 -58.954716 56.215363
-22.267767 -81.665016 28.337236
-19.213346 -82.871529 28.87532
4.541667 -35.765102 51.002163
3.215162 -39.657055 51.285931
2.002051 -36.702885 54.514824
-6.415071 -35.577431 64.614273
-4.382477 -38.868664 61.691479
-7.89417 -40.183041 64.422195
-9.449151 -44.742683 63.644085
-11.871738 -41.317928 66.752586
1.140327 -47.91217 50.65596
0.219585 -52.199047 49.472378
-4.842277 -62.830578 45.80241
-1.584526 -61.135429 44.642342
-2.450021 -65.509705 41.037338
0.086642 -68.3535 36.095123
-3.185448 -70.02317 36.593952
0.495434 -33.664352 57.915089
-5.09106 -51.115215 55.858841
-2.982303 -53.839699 51.789841
-6.229159 -55.61116 53.553707
-7.389727 -60.056969 50.680229
-8.371797 -64.588928 46.899712
-20.553358 -76.095184 38.432064
-17.085375 -75.789398 38.830719
-18.067144 -79.544472 33.856762
-23.352295 -75.392448 37.391472
-23.961836 -77.504768 32.460396
4.446854 -42.494755 48.250599
2.129244 -43.52206 51.281773
-0.688813 -45.060829 54.453842
-0.978611 -37.778164 58.201077
-2.428139 -42.023842 58.156281
-3.745743 -46.536469 57.335197
-7.350269 -48.067265 60.027905
-11.053107 -49.635574 61.955261
-14.741197 -50.935001 63.203484
-17.258671 -47.109512 66.410759
4.54333 -57.488674 42.202209
-0.618121 -56.726761 47.35984
1.657303 -59.540157 43.228012
3.994291 -62.068062 39.428181
3.40382 -66.640945 35.686722
-11.96083 -66.174911 47.853359
-9.239885 -68.9048 42.713127
-13.670806 -74.877716 38.531464
-10.118249 -73.35791 38.042549
-6.62315 -71.690514 37.327232
-14.252529 -55.10685 59.901188
-12.918791 -56.619633 57.890633
6.800669 -62.417236 37.187912
3.337073 -36.245918 52.677231
2.637853 -34.771576 54.458622
-8.203259 -36.056297 65.921143
-7.183105 -37.899937 64.607933
-9.032712 -38.426132 65.879814
-9.873321 -40.797375 65.675644
-10.986697 -38.977688 67.02388
-0.234018 -48.558971 52.041805
0.671358 -49.978146 50.19022
-0.808991 -50.870319 51.404549
-5.339077 -65.069008 43.875973
-3.64112 -64.126526 43.45977
-4.069048 -66.328079 41.454247
-2.825884 -67.824974 38.810081
-4.499793 -68.605858 39.237713
-6.878693 -51.769974 57.10767
-5.743324 -53.368862 54.864693
-7.466757 -54.25108 55.755482
-10.554981 -59.596272 53.624821
-8.729846 -58.755337 52.988178
-9.124631 -60.896992 51.292633
-7.942528 -62.329384 48.920181
-9.695065 -63.227631 49.389919
-20.803604 -77.702332 35.964352
-19.252731 -77.791847 36.286945
-19.80546 -79.419273 33.80827
-17.552744 -82.983521 28.955221
-25.164316 -77.242729 28.814245
-25.961351 -75.578758 27.928917
-24.291119 -71.900208 41.812126
-23.191874 -73.878952 40.033314
-24.493496 -73.293114 39.18861
-24.766788 -75.597748 34.140316
-24.973513 -76.488029 31.461447
-24.218695 -78.498596 29.833664
6.017538 -40.242882 46.689587
4.986874 -40.628265 48.114429
1.945301 -40.190536 53.015373
2.59162 -41.650593 51.393009
1.3 -42.249611 53.053288
0.753235 -44.385731 52.846764
0.002332 -42.857708 54.609165
-1.128067 -34.143135 59.736362
-0.316841 -35.714935 58.168736
-1.84832 -36.283009 59.83688
-5.0501 -41.137794 61.469131
-3.41967 -40.458324 60.02174
-4.036331 -42.75639 59.659161
-3.102862 -44.361954 57.795681
-4.7438 -45.016979 59.263237
-5.469213 -47.249374 58.736214
-6.60503 -45.810478 60.679794
-11.420848 -45.553543 64.587418
-10.344497 -47.215347 62.955627
-12.177448 -47.938499 63.73148
-12.892445 -50.244377 62.711292
-14.123136 -48.387444 64.517075
-17.875952 -49.56126 65.148468
6.240627 -36.959934 47.715675
6.609311 -38.575558 46.450218
-3.400262 -56.22958 50.405926
-1.817377 -55.327888 49.546383
-2.204402 -57.590469 48.195568
-0.340647 -62.544109 42.325829
0.009629 -60.285374 44.02211
1.193756 -61.639957 41.910305
2.772054 -60.80946 41.348709
2.419766 -62.920177 39.862778
3.601749 -64.362419 37.733959
2.059565 -65.284721 37.921406
-14.232531 -69.217361 45.774632
-12.453207 -68.373131 45.671066
-10.673467 -67.712334 45.189198
-11.040236 -69.785843 43.032719
-15.798584 -77.48806 36.175701
-15.407821 -75.505203 38.612282
-14.190204 -76.982956 36.11969
-10.593147 -75.697128 35.497101
-8.84486 -74.729744 35.396297
-8.335876 -72.651764 37.532784
-10.4664 -53.482964 58.793613
-9.244051 -54.940979 56.693916
-11.123599 -55.822922 57.381622
-11.694282 -58.192333 55.719971
-21.727722 -80.47393 30.934984
-20.170624 -81.06424 31.199398
-20.794811 -82.484001 28.622799
-25.620424 -72.398727 38.279945
5.021417 -37.222099 49.511929
4.440931 -39.14299 49.568592
3.84332 -37.700264 51.174206
2.595533 -38.209209 52.910591
1.288566 -38.703487 54.670795
-4.464186 -35.037968 63.001316
-3.542194 -36.701923 61.572258
-5.406166 -37.219425 63.253307
-6.130689 -39.525753 63.144573
-6.776833 -41.902817 62.78067
-7.541427 -44.094971 62.43206
-8.659934 -42.309982 64.178307
-10.589578 -43.153126 65.20182
-12.508286 -43.611069 66.166199
2.419483 -47.180771 49.335079
-4.395566 -60.681412 47.509483
-2.685172 -59.787037 46.803921
-3.163903 -61.96822 45.218433
-1.958954 -63.391449 42.819084
-0.773399 -64.702675 40.564842
0.476265 -65.991692 38.325935
-1.150059 -66.85099 38.608452
-1.460013 -69.14872 36.309372
-12.882489 -78.554131 33.372471
2.053467 -33.059933 56.079952
1.412795 -31.651796 57.522831
-1.940645 -32.44981 61.173996
-3.405618 -50.224274 54.706902
-2.41174 -51.616959 52.71722
-4.088093 -52.482155 53.886738
-4.509974 -54.753338 52.623882
-5.182352 -56.966248 51.482174
-7.983158 -56.580555 54.284721
-6.905667 -57.947392 52.180565
-5.653317 -59.271156 49.909569
-6.142193 -61.508984 48.230862
-6.655888 -63.681149 46.45784
-7.080192 -65.995308 44.305054
-20.115114 -74.396591 40.921841
-18.82251 -76.142403 38.608135
-17.52762 -77.734879 36.312519
-16.317732 -79.253639 33.979866
-18.567173 -81.198189 31.479797
-16.902758 -81.284607 31.317228
-15.201579 -81.054123 31.184784
-21.713186 -74.34481 40.461906
-22.043541 -75.89325 37.946022
-22.264828 -77.383438 35.387093
-24.613525 -74.575928 36.6008
-23.608389 -76.581779 34.919628
-22.70363 -78.513542 32.965874
-23.130354 -79.599373 30.403156
-23.528969 -80.608307 27.781389
5.121879 -43.755192 46.840508
4.061019 -44.322926 48.170506
3.858583 -41.029831 49.704502
3.329 -43.033367 49.717899
2.799835 -45.017662 49.700958
1.549598 -45.756237 51.119637
0.18302 -46.495579 52.590347
-1.252602 -47.182789 54.047043
1.24713 -35.209541 56.277313
0.528622 -37.223335 56.417263
-0.184918 -39.179974 56.554611
-2.640628 -38.251354 60.028397
-1.800435 -39.825264 58.380535
-0.821383 -41.277859 56.467537
-1.541001 -43.521473 56.325214
-2.252099 -45.825802 56.005806
-2.770168 -48.008171 55.375652
-4.432891 -48.753296 56.744503
-6.093893 -49.523712 57.920994
-7.913436 -50.267292 59.086933
-8.41235 -46.347382 61.970604
-9.146156 -48.684662 61.157936
-9.740202 -50.985886 60.085224
-11.638558 -51.946815 60.763214
-13.657269 -52.638027 61.477314
-15.548244 -53.351448 61.857544
-12.969068 -39.287949 68.048828
-13.811984 -41.700356 67.629257
-14.521351 -44.109776 66.939377
-16.496666 -44.613308 67.44886
-15.366005 -46.621693 66.050079
-16.08765 -49.166862 64.87265
-16.693666 -51.596691 63.518299
5.728906 -58.843376 40.427551
-1.347499 -53.13818 50.57568
0.812096 -55.843021 46.603157
-1.063422 -58.846138 46.14082
0.466159 -58.134438 45.320099
1.883126 -57.235317 44.676998
3.090118 -58.486454 42.787697
4.239886 -59.785362 40.963497
5.455985 -61.068516 39.132851
5.2382 -63.379551 37.478928
5.006135 -65.593483 35.672436
1.719597 -67.432678 35.975853
-11.394122 -64.001419 49.832386
-10.23255 -65.530006 47.325211
-8.818787 -66.785461 44.825813
-7.359666 -68.174019 42.059933
-13.229609 -72.627785 41.07391
-12.359307 -76.351517 35.87159
-11.888392 -74.127274 38.355362
-11.453719 -71.967125 40.707901
-9.579579 -71.111313 40.3573
-7.878522 -70.291695 39.993683
-6.055955 -69.44706 39.514614
-4.890086 -70.954628 36.825226
-14.609669 -56.217043 59.151415
-15.235925 -55.339641 60.154887
7.589115 -60.725993 37.848269
7.637698 -59.556368 38.540728
6.862268 -61.277761 37.947159
7.527515 -61.865467 37.089022
7.589115 -60.725993 37.848269
3.066209 -33.77249 54.302152
3.332497 -34.488995 53.536413
-9.602124 -37.493818 66.525264
-8.617985 -37.241214 65.900478
-9.187397 -36.308901 66.545929
-10.579116 -37.769596 67.097297
-10.009704 -38.70191 66.451847
-9.602124 -37.493818 66.525264
-25.883457 -75.364578 29.268297
-25.562833 -76.410743 28.371581
-25.484939 -76.196563 29.710961
-24.910803 -71.541546 41.315727
-24.890269 -70.833984 42.547996
-25.011992 -72.237999 40.003969
-24.392308 -72.596661 40.500368
-24.910803 -71.541546 41.315727
-25.389538 -75.819213 31.034562
-25.343634 -75.463668 32.315858
-25.484939 -76.196563 29.710961
-25.068914 -76.865379 30.137846
-25.389538 -75.819213 31.034562
-8.172757 -75.525734 33.897045
-9.053211 -75.931087 34.061708
-7.968573 -74.411381 35.107357
-8.172757 -75.525734 33.897045
-12.936543 -59.691143 55.135166
-11.996448 -59.309951 54.88747
-12.634377 -58.573524 55.967667
5.181446 -35.625457 50.053833
4.94221 -34.911848 50.813263
4.781542 -36.4936 50.257046
5.421321 -36.353956 49.308716
5.181446 -35.625457 50.053833
1.583975 -48.577948 49.791126
2.223553 -48.212248 49.130685
1.779905 -47.54647 49.99552
0.876531 -51.74795 48.989656
1.102418 -50.637499 49.348577
0.445472 -51.088597 49.831299
0.727795 -52.922962 48.507367
0.876531 -51.74795 48.989656
-2.515295 -70.669342 35.35245
-1.652578 -70.232117 35.21016
-2.322731 -69.585945 36.451662
1.897584 -30.679139 57.29396
2.198654 -31.422075 56.573793
-1.507055 -31.424822 61.009974
-1.084643 -32.229789 60.287615
-16.338609 -82.121906 30.028066
-17.227751 -82.134064 30.136225
-16.663602 -82.971363 28.847062
-15.48802 -82.006664 29.961844
-16.052169 -81.169365 31.251006
-16.338609 -82.121906 30.028066
-14.638486 -81.838428 29.890819
-15.48802 -82.006664 29.961844
-22.29813 -73.386028 41.473073
-21.585823 -73.458576 41.765142
-25.141573 -74.043919 36.145314
-25.116974 -73.487327 37.440372
-25.645023 -72.955318 36.984886
-24.022785 -79.978134 27.456916
-23.873832 -79.553451 28.807527
-24.367649 -78.923279 28.483053
-23.742404 -81.000202 26.503311
-24.022785 -79.978134 27.456916
4.784366 -43.124973 47.545553
5.342172 -42.879597 46.798845
5.004659 -42.249378 47.503891
-13.606347 -38.398445 68.603809
-12.577089 -38.206823 68.143265
-14.77608 -41.942677 67.935379
-14.41678 -40.80659 68.208672
-15.130764 -43.147387 67.590439
-14.166667 -42.905066 67.284317
-14.77608 -41.942677 67.935379
-16.877668 -45.86141 66.92981
-17.45146 -44.860106 67.566361
-17.832462 -46.108208 67.04731
-17.65529 -51.774131 63.632988
-17.284809 -50.578975 64.333383
-18.246434 -50.756416 64.448072
-17.126373 -52.73729 62.835794
-17.65529 -51.774131 63.632988
5.213316 -57.049986 41.88328
5.298633 -56.010578 42.378242
4.628647 -56.449267 42.697172
5.136118 -58.166025 41.31488
5.806105 -57.727337 40.99595
5.213316 -57.049986 41.88328
-0.445348 -55.59639 47.972019
-1.044976 -54.896954 49.065291
-1.217749 -56.027325 48.453111
0.096988 -56.284891 46.981499
0.269761 -55.15452 47.593677
-0.445348 -55.59639 47.972019
4.001747 -67.292701 34.647993
4.802904 -66.76897 34.64085
4.204978 -66.117214 35.679579
-12.631901 -65.530769 48.999313
-12.825565 -66.602512 47.926023
-11.677476 -65.088165 48.842872
-12.348546 -64.444023 49.988827
-12.631901 -65.530769 48.999313
-16.913226 -74.820904 40.038145
-17.833642 -75.002415 40.010261
-14.319666 -74.104264 39.849535
-15.188174 -74.418007 39.889944
-14.539314 -75.19146 38.571873
-13.450208 -73.752751 39.802687
-14.099068 -72.979298 41.120758
-14.319666 -74.104264 39.849535
-11.742865 -77.070652 34.553575
-12.620898 -77.452824 34.62203
-12.004456 -78.171959 33.304016
-13.9428 -56.973434 58.146138
-13.58566 -55.863242 58.89591
-14.609669 -56.217043 59.151415
-14.27064 -58.140976 57.308503
-13.246631 -57.787174 57.052998
-13.9428 -56.973434 58.146138
-21.899822 -82.653724 27.219511
-22.55981 -82.145527 27.063757
7.431377 -63.042255 36.280218
7.527515 -61.865467 37.089022
6.707025 -63.533496 36.339519
7.431377 -63.042255 36.280218
3.682107 -35.226166 52.645718
3.93937 -36.00551 51.839697
4.284404 -34.985757 51.808183
2.987463 -35.508747 53.567926
3.682107 -35.226166 52.645718
3.332497 -34.488995 53.536413
4.284404 -34.985757 51.808183
4.94221 -34.911848 50.813263
-17.952526 -83.817795 27.697485
-18.383045 -82.927525 28.91527
-18.782827 -83.761799 27.657534
-17.118046 -83.822201 27.721679
-17.952526 -83.817795 27.697485
-16.663602 -82.971363 28.847062
-17.118046 -83.822201 27.721679
-25.270661 -77.502598 27.551814
-24.840459 -78.295345 27.973343
-25.669179 -76.670612 27.10915
-25.270661 -77.502598 27.551814
-25.562833 -76.410743 28.371581
-25.983299 -75.858253 26.665726
-25.669179 -76.670612 27.10915
-24.241917 -71.148118 43.002468
-24.890269 -70.833984 42.547996
-23.587097 -72.163727 42.148184
-24.241917 -71.148118 43.002468
-23.741496 -72.88958 40.92272
-23.037474 -73.153099 41.258777
-23.587097 -72.163727 42.148184
-25.240271 -75.018528 33.655293
-25.218205 -74.554828 34.915071
-24.870151 -76.042889 32.800882
-25.240271 -75.018528 33.655293
-25.343634 -75.463668 32.315858
-24.840459 -78.295345 27.973343
-24.367649 -78.923279 28.483053
-24.691505 -77.870663 29.323954
5.790001 -41.123442 46.723385
6.306694 -40.886558 46.053975
5.274669 -41.316133 47.435806
5.790001 -41.123442 46.723385
5.502206 -40.435574 47.402008
4.716864 -41.56151 48.182514
5.004659 -42.249378 47.503891
5.274669 -41.316133 47.435806
-18.225227 -47.354343 66.459511
-17.832462 -46.108208 67.04731
-18.533868 -48.580217 65.828365
-17.567312 -48.335386 65.779613
-18.225227 -47.354343 66.459511
-18.883298 -49.804206 65.134552
-18.533868 -48.580217 65.828365
-18.246434 -50.756416 64.448072
-18.883298 -49.804206 65.134552
6.795829 -36.940208 46.895784
6.617347 -36.132202 47.550214
6.980171 -37.74802 46.263056
6.795829 -36.940208 46.895784
6.424969 -37.767746 47.082946
7.189695 -38.502102 45.659422
6.980171 -37.74802 46.263056
6.859667 -39.295462 45.823689
7.189695 -38.502102 45.659422
6.563781 -40.129124 45.943373
6.859667 -39.295462 45.823689
6.313424 -39.40922 46.569902
6.306694 -40.886558 46.053975
6.563781 -40.129124 45.943373
3.953843 -56.939614 43.037079
4.628647 -56.449267 42.697172
0.743156 -69.02956 34.910578
-0.066393 -69.519844 34.895184
-13.961416 -68.123737 46.88666
-14.892671 -68.412746 47.056486
-13.071753 -67.701622 46.834877
-13.961416 -68.123737 46.88666
-13.342869 -68.795246 45.722849
-12.207019 -67.274021 46.762213
-12.825565 -66.602512 47.926023
-13.071753 -67.701622 46.834877
-9.927355 -76.41478 34.11211
-10.859785 -76.743458 34.366331
-9.719003 -75.213436 35.446699
-9.927355 -76.41478 34.11211
-9.053211 -75.931087 34.061708
-7.714082 -73.372391 36.175601
-8.590368 -73.690754 36.46454
-7.968573 -74.411381 35.107357
-6.857718 -72.891766 36.072824
-7.479513 -72.171139 37.430008
-7.714082 -73.372391 36.175601
-5.960476 -72.413792 35.948158
-6.857718 -72.891766 36.072824
-11.426797 -60.011921 53.839895
-11.124631 -58.894302 54.672396
-11.996448 -59.309951 54.88747
-11.622374 -61.081961 52.949837
-10.750557 -60.666311 52.734763
-11.426797 -60.011921 53.839895
-21.163345 -83.063217 27.362293
-21.531289 -82.074509 28.480018
-21.899822 -82.653724 27.219511
-20.42257 -83.397991 27.466932
-21.163345 -83.063217 27.362293
-19.631838 -83.591755 27.593193
-20.004078 -82.677765 28.74906
-20.42257 -83.397991 27.466932
-18.782827 -83.761799 27.657534
-19.631838 -83.591755 27.593193
-26.086486 -71.311256 38.993149
-25.575456 -71.790806 39.549636
-26.095568 -71.821774 37.761705
-26.086486 -71.311256 38.993149
-25.645023 -72.955318 36.984886
-26.095568 -71.821774 37.761705
6.030926 -36.222873 48.410589
6.617347 -36.132202 47.550214
5.631022 -37.091016 48.613802
6.030926 -36.222873 48.410589
5.421321 -36.353956 49.308716
2.861192 -47.807585 48.517202
3.019814 -46.706753 48.721903
2.861192 -47.807585 48.517202
2.223553 -48.212248 49.130685
1.34949 -49.610935 49.558256
1.583975 -48.577948 49.791126
0.905843 -48.945158 50.42309
1.34949 -49.610935 49.558256
1.102418 -50.637499 49.348577
-0.83972 -69.917454 35.002308
-0.066393 -69.519844 34.895184
-0.686686 -68.75111 36.202247
-0.83972 -69.917454 35.002308
-1.652578 -70.232117 35.21016
-15.080918 -69.521293 45.842451
-14.892671 -68.412746 47.056486
-14.376771 -70.252941 44.614396
-15.080918 -69.521293 45.842451
-13.616881 -70.901947 43.382694
-13.472641 -69.866367 44.542931
-14.376771 -70.252941 44.614396
-13.104809 -79.61694 32.107693
-13.727286 -78.839699 33.440747
-13.949606 -79.902508 32.175969
-12.213321 -79.269447 32.033206
-13.104809 -79.61694 32.107693
-12.004456 -78.171959 33.304016
-12.213321 -79.269447 32.033206
7.007687 -58.95566 39.344752
7.637698 -59.556368 38.540728
2.518991 -32.126143 55.852354
2.774016 -32.916668 55.112817
1.733131 -32.355865 56.801391
2.518991 -32.126143 55.852354
2.198654 -31.422075 56.573793
1.045168 -30.850297 58.266386
1.897584 -30.679139 57.29396
0.592077 -31.830782 58.462032
1.045168 -30.850297 58.266386
0.133396 -32.83706 58.658162
0.954114 -32.658074 57.71896
0.592077 -31.830782 58.462032
-0.678354 -33.076452 59.568798
-0.316317 -33.903744 58.825726
0.133396 -32.83706 58.658162
-1.534356 -33.296473 60.455179
-0.678354 -33.076452 59.568798
-1.084643 -32.229789 60.287615
-2.362435 -31.591555 61.832949
-1.507055 -31.424822 61.009974
-2.833334 -32.678347 62.015445
-2.362435 -31.591555 61.832949
-3.218772 -33.752496 62.108208
-2.326083 -33.52396 61.266758
-2.833334 -32.678347 62.015445
-4.095105 -33.972425 62.929106
-3.587853 -34.818039 62.180418
-3.218772 -33.752496 62.108208
-5.008354 -34.171002 63.714854
-4.095105 -33.972425 62.929106
-5.983797 -34.440733 64.521332
-5.439628 -35.307699 63.807794
-5.008354 -34.171002 63.714854
-6.929559 -34.641315 65.247116
-5.983797 -34.440733 64.521332
-7.823653 -34.880748 65.900551
-7.309165 -35.816864 65.267708
-6.929559 -34.641315 65.247116
-8.791296 -35.133707 66.545074
-7.823653 -34.880748 65.900551
-9.187397 -36.308901 66.545929
-8.791296 -35.133707 66.545074
-19.348512 -74.306011 41.055823
-19.993417 -73.443367 42.204313
-18.70221 -75.178917 39.898969
-19.348512 -74.306011 41.055823
-19.468812 -75.269497 39.764988
-17.953943 -75.965901 38.719427
-17.833642 -75.002415 40.010261
-18.70221 -75.178917 39.898969
-14.264354 -80.866936 31.01385
-13.949606 -79.902508 32.175969
-14.886831 -80.089695 32.346903
-14.264354 -80.866936 31.01385
-14.638486 -81.838428 29.890819
-26.258904 -74.535934 28.703289
-25.883457 -75.364578 29.268297
-26.267038 -74.716827 27.434317
-26.258904 -74.535934 28.703289
-25.983299 -75.858253 26.665726
-26.267038 -74.716827 27.434317
-20.786787 -73.484466 41.995109
-19.993417 -73.443367 42.204313
-20.91415 -74.3707 40.691873
-20.786787 -73.484466 41.995109
-21.585823 -73.458576 41.765142
-22.45253 -74.111881 40.24761
-22.29813 -73.386028 41.473073
-23.037474 -73.153099 41.258777
-25.05696 -72.845921 38.734277
-25.011992 -72.237999 40.003969
-25.575456 -71.790806 39.549636
-24.690157 -75.086838 35.370558
-25.141573 -74.043919 36.145314
-25.218205 -74.554828 34.915071
-23.19041 -81.617172 26.785833
-22.55981 -82.145527 27.063757
-22.898368 -81.136662 28.059313
-23.19041 -81.617172 26.785833
-23.742404 -81.000202 26.503311
5.63622 -43.477415 46.196928
5.342172 -42.879597 46.798845
5.46437 -44.316069 46.214472
5.63622 -43.477415 46.196928
4.965585 -44.682282 46.77834
5.46437 -44.316069 46.214472
4.435156 -44.966149 47.443339
4.965585 -44.682282 46.77834
4.591449 -44.039059 47.505507
3.840582 -45.277831 48.139617
4.435156 -44.966149 47.443339
3.20999 -45.625198 48.904843
3.840582 -45.277831 48.139617
3.430427 -44.670294 48.935732
2.609659 -46.099216 49.518018
3.019814 -46.706753 48.721903
3.20999 -45.625198 48.904843
2.34566 -33.915755 55.269287
3.066209 -33.77249 54.302152
2.774016 -32.916668 55.112817
-15.883783 -54.46194 61.133065
-15.235925 -55.339641 60.154887
-14.900386 -54.229149 60.879366
-11.585904 -38.051693 67.630791
-10.579116 -37.769596 67.097297
-11.977882 -39.132818 67.536354
-11.585904 -38.051693 67.630791
-12.577089 -38.206823 68.143265
-13.995321 -39.600386 68.418457
-13.606347 -38.398445 68.603809
-13.390526 -40.494152 67.839043
-13.995321 -39.600386 68.418457
-14.41678 -40.80659 68.208672
-17.114125 -43.650376 68.03751
-17.45146 -44.860106 67.566361
-16.118421 -43.399153 67.84518
-17.114125 -43.650376 68.03751
-15.509009 -44.361542 67.194119
-15.130764 -43.147387 67.590439
-16.118421 -43.399153 67.84518
-16.553662 -53.614668 62.005417
-16.120955 -52.474069 62.687922
-17.126373 -52.73729 62.835794
-15.883783 -54.46194 61.133065
-16.553662 -53.614668 62.005417
6.410206 -58.308205 40.205324
5.806105 -57.727337 40.99595
6.326386 -59.490831 39.566979
7.007687 -58.95566 39.344752
6.410206 -58.308205 40.205324
-0.810037 -53.802099 49.579939
-1.582438 -54.233034 50.061031
-1.044976 -54.896954 49.065291
-0.026494 -53.332533 49.028288
-0.563957 -52.668613 50.024029
-0.810037 -53.802099 49.579939
0.727795 -52.922962 48.507367
-0.026494 -53.332533 49.028288
1.024051 -54.744949 47.072756
0.269761 -55.15452 47.593677
1.573533 -55.446884 46.111468
1.024051 -54.744949 47.072756
2.109047 -56.143032 45.148388
1.573533 -55.446884 46.111468
1.347611 -56.539169 45.640078
2.623741 -56.812935 44.274473
2.109047 -56.143032 45.148388
3.227237 -57.438503 43.329823
2.623741 -56.812935 44.274473
2.486622 -57.860886 43.732348
3.816724 -57.987564 42.494953
3.953843 -56.939614 43.037079
3.227237 -57.438503 43.329823
5.92579 -64.014654 36.485028
6.707025 -63.533496 36.339519
6.019435 -62.898393 37.33342
5.809757 -65.12162 35.581781
5.92579 -64.014654 36.485028
5.122167 -64.486517 36.575682
5.625425 -66.306374 34.602671
5.809757 -65.12162 35.581781
5.625425 -66.306374 34.602671
4.802904 -66.76897 34.64085
1.559634 -68.569149 34.850943
0.90312 -67.893089 36.035488
0.743156 -69.02956 34.910578
2.35093 -68.143638 34.81415
1.559634 -68.569149 34.850943
3.193042 -67.747772 34.669584
2.561708 -67.036811 35.831288
2.35093 -68.143638 34.81415
4.001747 -67.292701 34.647993
3.193042 -67.747772 34.669584
-14.492443 -59.332251 56.345618
-14.27064 -58.140976 57.308503
-13.875939 -60.104664 55.30122
-14.492443 -59.332251 56.345618
-12.936543 -59.691143 55.135166
-13.875939 -60.104664 55.30122
-11.847691 -62.162685 52.028599
-11.622374 -61.081961 52.949837
-12.071685 -63.29522 51.02244
-12.348546 -64.444023 49.988827
-11.170128 -62.868885 50.838545
-11.847691 -62.162685 52.028599
-12.071685 -63.29522 51.02244
-16.074449 -74.678806 39.928927
-16.913226 -74.820904 40.038145
-16.246598 -75.647301 38.721501
-16.074449 -74.678806 39.928927
-15.188174 -74.418007 39.889944
-13.87531 -71.958153 42.264034
-14.099068 -72.979298 41.120758
-12.971179 -71.571579 42.19257
-13.616881 -70.901947 43.382694
-13.87531 -71.958153 42.264034
-11.476227 -76.024323 35.684345
-11.742865 -77.070652 34.553575
-10.859785 -76.743458 34.366331
-5.093944 -72.045849 35.697155
-5.756618 -71.322571 37.076229
-5.960476 -72.413792 35.948158
-4.21985 -71.603615 35.549523
-5.093944 -72.045849 35.697155
-3.36753 -71.137886 35.433886
-4.037767 -70.488899 36.709589
-4.21985 -71.603615 35.549523
-2.515295 -70.669342 35.35245
-3.36753 -71.137886 35.433886
3 268 267 66
3 0 269 270
3 0 271 273
3 271 68 272
3 271 272 273
3 274 70 275
3 276 73 277
3 278 277 71
3 276 277 278
3 279 75 280
3 281 280 73
3 279 280 281
3 1 78 76
3 2 81 79
3 2 83 81
3 4 86 84
3 6 89 87
3 6 91 89
3 7 94 92
3 282 97 283
3 284 283 96
3 282 283 284
3 285 98 286
3 287 100 288
3 289 288 98
3 287 288 289
3 290 102 291
3 292 96 293
3 294 293 102
3 292 293 294
3 9 105 104
3 10 108 106
3 10 110 108
3 3 113 111
3 11 116 114
3 11 118 116
3 11 120 118
3 12 123 121
3 12 125 123
3 9 128 127
3 9 104 128
3 5 131 129
3 13 134 132
3 13 136 134
3 13 138 136
3 14 140 139
3 14 142 140
3 8 145 143
3 295 147 296
3 298 297 147
3 15 151 149
3 17 152 67
3 17 299 301
3 301 300 152
3 299 300 301
3 18 155 153
3 20 159 157
3 22 160 69
3 22 161 160
3 23 164 162
3 25 165 72
3 25 166 165
3 25 168 166
3 27 169 74
3 27 170 169
3 20 302 303
3 20 304 306
3 304 157 305
3 304 305 306
3 28 307 309
3 309 308 171
3 307 308 309
3 29 310 312
3 312 311 77
3 310 311 312
3 29 313 314
3 30 174 172
3 32 175 80
3 32 176 175
3 32 178 176
3 34 179 82
3 34 315 317
3 317 316 179
3 315 316 317
3 318 182 319
3 320 183 321
3 36 186 184
3 38 187 85
3 38 188 187
3 16 189 150
3 39 190 88
3 39 191 190
3 39 192 191
3 40 193 90
3 40 194 193
3 41 196 195
3 43 197 93
3 43 198 197
3 19 199 154
3 322 200 323
3 324 323 95
3 322 323 324
3 325 201 326
3 327 326 200
3 325 326 327
3 329 328 201
3 330 202 331
3 44 203 99
3 44 204 203
3 332 205 333
3 334 333 156
3 332 333 334
3 45 206 101
3 45 207 206
3 45 208 207
3 335 209 336
3 337 336 103
3 335 336 337
3 339 338 209
3 46 340 342
3 340 210 341
3 340 341 342
3 46 211 210
3 21 212 158
3 47 213 107
3 47 214 213
3 47 215 214
3 48 216 109
3 48 217 216
3 35 218 181
3 49 219 112
3 49 220 219
3 24 221 163
3 50 222 115
3 50 223 222
3 50 224 223
3 51 225 117
3 51 226 225
3 51 227 226
3 52 228 119
3 52 229 228
3 26 230 167
3 53 231 122
3 53 232 231
3 53 233 232
3 54 234 124
3 54 235 234
3 343 236 344
3 345 237 346
3 347 238 348
3 349 348 237
3 347 348 349
3 55 350 352
3 350 239 351
3 350 351 352
3 55 240 239
3 55 241 240
3 353 242 354
3 355 354 126
3 353 354 355
3 357 356 242
3 56 358 360
3 358 359 360
3 56 361 363
3 361 243 362
3 361 362 363
3 37 244 185
3 57 364 366
3 366 365 130
3 364 365 366
3 57 367 369
3 367 245 368
3 367 368 369
3 31 246 173
3 58 247 133
3 58 248 247
3 58 249 248
3 59 250 135
3 59 251 250
3 59 252 251
3 60 253 137
3 60 370 372
3 372 371 253
3 370 371 372
3 33 254 177
3 61 373 374
3 61 375 377
3 375 255 376
3 375 376 377
3 61 256 255
3 62 257 141
3 62 258 257
3 42 378 379
3 63 380 382
3 382 381 144
3 380 381 382
3 63 383 385
3 383 259 384
3 383 384 385
3 386 260 387
3 388 387 180
3 386 387 388
3 64 261 146
3 64 262 261
3 64 263 262
3 65 264 148
3 65 265 264
3 65 266 265
3 66 67 15
3 389 67 390
3 391 390 66
3 389 390 391
3 392 17 393
3 394 393 67
3 392 393 394
3 396 395 18
3 68 397 398
3 68 399 400
3 401 69 402
3 403 402 20
3 401 402 403
3 70 404 406
3 404 69 405
3 404 405 406
3 70 22 69
3 71 72 23
3 73 72 71
3 73 25 72
3 73 74 25
3 75 74 73
3 75 27 74
3 407 20 408
3 76 77 28
3 78 77 76
3 78 29 77
3 79 80 30
3 81 80 79
3 81 32 80
3 81 82 32
3 83 82 81
3 83 34 82
3 84 85 36
3 86 85 84
3 86 38 85
3 87 88 16
3 89 88 87
3 89 39 88
3 89 90 39
3 91 90 89
3 91 40 90
3 92 93 41
3 94 93 92
3 94 43 93
3 409 95 410
3 411 410 19
3 409 410 411
3 412 95 413
3 415 414 95
3 96 416 417
3 97 418 420
3 420 419 96
3 418 419 420
3 97 421 422
3 98 423 424
3 98 425 426
3 98 427 429
3 427 99 428
3 427 428 429
3 100 99 98
3 100 44 99
3 430 101 431
3 102 432 434
3 432 101 433
3 432 433 434
3 102 45 101
3 102 103 45
3 96 103 102
3 96 435 437
3 437 436 103
3 435 436 437
3 104 438 439
3 105 440 442
3 442 441 104
3 440 441 442
3 105 443 445
3 443 46 444
3 443 444 445
3 106 107 21
3 108 107 106
3 108 47 107
3 108 109 47
3 110 109 108
3 110 48 109
3 111 112 35
3 113 112 111
3 113 49 112
3 114 115 24
3 116 115 114
3 116 50 115
3 116 117 50
3 118 117 116
3 118 51 117
3 118 119 51
3 120 119 118
3 120 52 119
3 121 122 26
3 123 122 121
3 123 53 122
3 123 124 53
3 125 124 123
3 125 54 124
3 446 55 447
3 448 126 449
3 450 449 55
3 448 449 450
3 451 126 452
3 454 453 126
3 127 455 456
3 128 457 459
3 459 458 127
3 457 458 459
3 128 460 461
3 128 462 463
3 104 464 466
3 466 465 128
3 464 465 466
3 104 467 468
3 469 56 470
3 129 130 37
3 131 130 129
3 131 57 130
3 132 133 31
3 134 133 132
3 134 58 133
3 134 135 58
3 136 135 134
3 136 59 135
3 136 137 59
3 138 137 136
3 138 60 137
3 472 471 33
3 139 473 474
3 140 475 477
3 477 476 139
3 475 476 477
3 140 478 480
3 478 61 479
3 478 479 480
3 140 141 61
3 142 141 140
3 142 62 141
3 143 144 42
3 145 144 143
3 145 63 144
3 481 146 482
3 147 483 485
3 483 146 484
3 483 484 485
3 147 64 146
3 147 148 64
3 486 148 487
3 488 487 147
3 486 487 488
3 489 65 490
3 491 490 148
3 489 490 491
3 493 492 65
3 149 150 4
3 151 150 149
3 151 16 150
3 67 151 15
3 152 151 67
3 152 16 151
3 152 87 16
3 494 87 495
3 496 495 152
3 494 495 496
3 497 6 498
3 499 498 87
3 497 498 499
3 153 154 7
3 155 154 153
3 155 19 154
3 500 155 501
3 502 501 18
3 500 501 502
3 503 155 504
3 505 19 506
3 507 506 155
3 505 506 507
3 509 508 19
3 510 156 511
3 512 156 513
3 515 514 156
3 157 158 9
3 159 158 157
3 159 21 158
3 69 159 20
3 160 159 69
3 160 21 159
3 160 106 21
3 161 106 160
3 161 10 106
3 162 163 3
3 164 163 162
3 164 24 163
3 72 164 23
3 165 164 72
3 165 24 164
3 165 114 24
3 166 114 165
3 166 11 114
3 166 167 11
3 168 167 166
3 168 26 167
3 74 168 25
3 169 168 74
3 169 26 168
3 169 121 26
3 170 121 169
3 170 12 121
3 516 127 517
3 157 518 520
3 518 127 519
3 518 519 520
3 157 9 127
3 171 521 522
3 524 523 171
3 77 525 527
3 527 526 28
3 525 526 527
3 529 528 77
3 172 173 5
3 174 173 172
3 174 31 173
3 80 174 30
3 175 174 80
3 175 31 174
3 175 132 31
3 176 132 175
3 176 13 132
3 176 177 13
3 178 177 176
3 178 33 177
3 82 178 32
3 179 178 82
3 179 33 178
3 179 530 532
3 532 531 33
3 530 531 532
3 534 533 179
3 535 139 536
3 537 139 538
3 539 14 540
3 541 540 139
3 539 540 541
3 542 180 543
3 544 543 8
3 542 543 544
3 545 180 546
3 548 547 180
3 549 0 550
3 551 181 552
3 182 553 555
3 553 181 554
3 553 554 555
3 182 35 181
3 556 182 557
3 558 182 559
3 560 35 561
3 562 561 182
3 560 561 562
3 563 111 564
3 565 564 35
3 563 564 565
3 183 566 568
3 566 111 567
3 566 567 568
3 183 3 111
3 569 183 570
3 571 183 572
3 573 3 574
3 575 574 183
3 573 574 575
3 576 162 577
3 578 577 3
3 576 577 578
3 579 162 580
3 581 23 582
3 583 582 162
3 581 582 583
3 584 23 585
3 586 71 587
3 588 587 23
3 586 587 588
3 589 71 590
3 592 591 71
3 184 185 1
3 186 185 184
3 186 37 185
3 85 186 36
3 187 186 85
3 187 37 186
3 187 129 37
3 188 129 187
3 188 5 129
3 150 86 4
3 189 86 150
3 189 38 86
3 88 189 16
3 190 189 88
3 190 38 189
3 190 188 38
3 191 188 190
3 191 5 188
3 191 172 5
3 192 172 191
3 192 30 172
3 90 192 39
3 193 192 90
3 193 30 192
3 193 79 30
3 194 79 193
3 194 2 79
3 195 593 594
3 196 595 597
3 597 596 195
3 595 596 597
3 196 598 600
3 598 42 599
3 598 599 600
3 93 196 41
3 197 196 93
3 197 42 196
3 197 143 42
3 198 143 197
3 198 8 143
3 154 94 7
3 199 94 154
3 199 43 94
3 95 199 19
3 200 199 95
3 200 43 199
3 200 198 43
3 201 198 200
3 201 8 198
3 201 601 603
3 603 602 8
3 601 602 603
3 605 604 201
3 606 97 607
3 608 97 609
3 611 610 97
3 612 195 613
3 202 614 616
3 614 195 615
3 614 615 616
3 202 41 195
3 99 617 619
3 617 202 618
3 617 618 619
3 203 202 99
3 203 41 202
3 203 92 41
3 204 92 203
3 204 7 92
3 156 620 622
3 620 100 621
3 620 621 622
3 205 100 156
3 205 44 100
3 101 623 625
3 623 205 624
3 623 624 625
3 206 205 101
3 206 44 205
3 206 204 44
3 207 204 206
3 207 7 204
3 207 153 7
3 208 153 207
3 208 18 153
3 103 208 45
3 209 208 103
3 209 18 208
3 209 626 628
3 628 627 18
3 626 627 628
3 630 629 209
3 210 631 632
3 210 633 634
3 210 635 636
3 211 637 639
3 639 638 210
3 637 638 639
3 211 640 641
3 158 105 9
3 212 105 158
3 212 46 105
3 107 212 21
3 213 212 107
3 213 46 212
3 213 211 46
3 214 211 213
3 214 642 644
3 644 643 211
3 642 643 644
3 214 645 647
3 645 171 646
3 645 646 647
3 215 171 214
3 215 28 171
3 109 215 47
3 216 215 109
3 216 28 215
3 216 76 28
3 217 76 216
3 217 1 76
3 181 648 650
3 648 70 649
3 648 649 650
3 218 70 181
3 218 22 70
3 112 218 35
3 219 218 112
3 219 22 218
3 219 161 22
3 220 161 219
3 220 10 161
3 163 113 3
3 221 113 163
3 221 49 113
3 115 221 24
3 222 221 115
3 222 49 221
3 222 220 49
3 223 220 222
3 223 10 220
3 223 110 10
3 224 110 223
3 224 48 110
3 117 224 50
3 225 224 117
3 225 48 224
3 225 217 48
3 226 217 225
3 226 1 217
3 226 184 1
3 227 184 226
3 227 36 184
3 119 227 51
3 228 227 119
3 228 36 227
3 228 84 36
3 229 84 228
3 229 4 84
3 167 120 11
3 230 120 167
3 230 52 120
3 122 230 26
3 231 230 122
3 231 52 230
3 231 229 52
3 232 229 231
3 232 4 229
3 232 149 4
3 233 149 232
3 233 15 149
3 124 233 53
3 234 233 124
3 234 15 233
3 234 66 15
3 235 66 234
3 235 651 653
3 653 652 66
3 651 652 653
3 654 75 655
3 236 656 658
3 656 75 657
3 656 657 658
3 236 27 75
3 659 236 660
3 237 661 663
3 661 236 662
3 661 662 663
3 237 27 236
3 237 170 27
3 238 170 237
3 238 12 170
3 239 664 665
3 239 666 667
3 239 668 670
3 668 238 669
3 668 669 670
3 240 238 239
3 240 12 238
3 240 125 12
3 241 125 240
3 241 54 125
3 126 241 55
3 242 241 126
3 242 54 241
3 242 235 54
3 671 235 672
3 673 672 242
3 671 672 673
3 675 674 235
3 243 676 677
3 243 678 680
3 678 0 679
3 678 679 680
3 185 78 1
3 244 78 185
3 244 29 78
3 130 244 37
3 681 244 682
3 683 682 130
3 681 682 683
3 684 29 685
3 686 685 244
3 684 685 686
3 688 687 29
3 245 689 690
3 245 691 692
3 173 131 5
3 246 131 173
3 246 57 131
3 133 246 31
3 247 246 133
3 247 57 246
3 247 245 57
3 248 245 247
3 248 693 695
3 695 694 245
3 693 694 695
3 248 696 697
3 249 698 700
3 700 699 248
3 698 699 700
3 249 701 703
3 701 56 702
3 701 702 703
3 135 249 58
3 250 249 135
3 250 56 249
3 250 243 56
3 251 243 250
3 251 0 243
3 251 68 0
3 252 68 251
3 252 704 706
3 706 705 68
3 704 705 706
3 137 252 59
3 253 252 137
3 253 707 709
3 709 708 252
3 707 708 709
3 253 710 711
3 713 712 253
3 177 138 13
3 254 138 177
3 254 60 138
3 714 254 715
3 716 715 33
3 714 715 716
3 717 254 718
3 719 60 720
3 721 720 254
3 719 720 721
3 723 722 60
3 724 17 725
3 726 17 727
3 729 728 17
3 730 6 731
3 255 732 733
3 255 734 736
3 734 6 735
3 734 735 736
3 255 91 6
3 256 91 255
3 256 40 91
3 141 256 61
3 257 256 141
3 257 40 256
3 257 194 40
3 258 194 257
3 258 2 194
3 144 737 739
3 739 738 42
3 737 738 739
3 741 740 144
3 259 742 743
3 259 744 746
3 744 14 745
3 744 745 746
3 180 145 8
3 260 145 180
3 260 63 145
3 146 747 749
3 747 260 748
3 747 748 749
3 261 260 146
3 261 63 260
3 261 259 63
3 262 259 261
3 262 14 259
3 262 142 14
3 263 142 262
3 263 62 142
3 148 263 64
3 264 263 148
3 264 62 263
3 264 258 62
3 265 258 264
3 265 2 258
3 265 83 2
3 266 83 265
3 266 34 83
3 750 266 751
3 752 751 65
3 750 751 752
3 753 266 754
3 755 34 756
3 757 756 266
3 755 756 757
3 759 758 34
