ply
format ascii 1.0
element vertex 528
property float x
property float y
property float z
element face 588
property list uchar int vertex_index
end_header
-29.977304 -16.238115 68.86586
-30.307217 -7.881915 52.732025
-30.449402 -25.322344 62.964272
-29.98098 -22.005087 54.184189
-30.984755 -12.313551 61.334534
-25.796379 -19.191626 72.919617
-28.348089 -28.200466 69.758018
-26.613886 -7.468162 72.21154
-29.994816 -2.343149 67.439377
-20.539133 -10.894854 72.782089
-29.219492 -30.772476 47.589344
-29.226894 -17.935442 45.534904
-30.483871 -20.748341 66.086426
-30.79384 -19.078377 62.207912
-30.817989 -14.405429 65.361061
-28.318972 -17.809551 71.426529
-27.289171 -23.501492 71.804977
-29.345491 -22.568254 69.416832
-29.794418 -27.127285 66.778038
-23.708481 -3.221554 72.337784
-26.202827 -0.628982 71.379532
-20.595495 -5.634793 72.360458
-23.80022 -9.166245 72.989555
-30.132004 -15.096819 53.402176
-29.529577 -19.909447 49.850327
-29.680897 -13.134459 48.928272
-29.498962 -10.711266 45.021759
-30.642206 -0.017987 63.804749
-30.148619 -29.921597 59.612709
-29.903419 -28.067541 55.166107
-30.406401 -23.663631 58.73645
-30.603441 -17.024683 57.953533
-30.72257 -9.966674 56.945259
-22.415789 -20.094465 73.264671
-24.442186 -24.392229 72.944099
-25.877222 -28.90975 71.817986
-28.834593 -32.671753 67.240555
-28.748064 -11.63765 70.975121
-30.239086 -9.593084 68.06485
-28.67473 -5.118754 70.344856
-16.731224 -11.989992 71.661575
-19.90097 -15.875595 72.826012
-23.469574 -15.024569 73.288933
-26.442072 -13.401715 72.708839
-29.04705 -29.211967 43.262245
-29.450111 -26.418226 50.666203
-29.111029 -24.543421 46.405727
-29.014856 -22.816666 42.330906
-30.875929 -7.237158 64.52639
-30.970697 -5.093388 60.700603
-30.752354 -2.386096 56.381393
-30.299994 -18.556608 67.572388
-30.686789 -17.704773 65.683151
-30.495081 -15.498885 67.195007
-29.276737 -17.220751 70.222076
-28.947874 -20.173855 70.465843
-29.751282 -19.428024 69.077141
-30.005152 -21.77689 67.907188
-22.024992 -1.565823 72.067078
-23.454111 -0.169577 71.88398
-22.170963 -4.603775 72.478485
-30.207518 -11.48798 52.935009
-29.899584 -13.926009 51.188213
-30.004793 -10.348992 50.886143
-29.825003 -9.36196 48.770184
-30.101585 -6.707104 50.509731
-30.306301 -27.740734 61.324902
-30.28437 -26.88648 59.197083
-30.479061 -24.697857 60.799358
-30.915827 -15.594134 61.785892
-30.745142 -18.092314 60.094513
-30.828707 -14.759251 59.60574
-30.652113 -13.635036 57.280323
-30.888855 -11.188744 59.134762
-24.185513 -19.676935 73.243446
-23.457142 -22.175219 73.206734
-25.072132 -21.914856 72.991821
-27.872368 -26.021009 70.874214
-26.6665 -26.359314 71.818321
-27.246344 -28.800772 70.883942
-26.402266 -31.296583 70.947701
-27.677036 -30.933332 69.84787
-27.975637 -33.387836 68.610741
-28.619127 -30.489262 68.57196
-30.207809 -26.466702 64.915527
-29.846704 -29.459387 65.286964
-30.175705 -28.542032 63.357944
-30.095839 -30.66877 61.746395
-27.795397 -9.315808 71.700623
-28.868404 -8.570821 70.582672
-27.752487 -6.152515 71.369774
-27.285275 0.53621 70.55735
-18.644766 -11.547505 72.314728
-18.281857 -13.952864 72.301613
-20.235605 -13.442461 72.837196
-21.792028 -15.467786 73.183716
-22.085827 -12.826828 73.138145
-25.28739 -8.404092 72.73719
-25.216553 -11.296047 72.973114
-26.678257 -10.533859 72.46125
-27.731848 -12.629351 71.964668
-29.101866 -30.103661 45.388626
-29.931562 -25.117548 54.638901
-29.676985 -27.226225 52.877228
-29.69717 -24.079338 52.392994
-29.35771 -18.738781 47.730503
-29.29538 -22.178711 48.188457
-29.155766 -21.258713 46.05772
-29.031221 -23.507164 44.432713
-29.077568 -20.35339 43.838448
-29.17963 -16.946796 43.458549
-30.158173 -6.062567 67.785973
-30.645325 -8.586435 66.367363
-30.548565 -4.841237 66.07428
-30.883808 -2.426617 62.189461
-30.882349 -1.213463 60.217758
-30.881937 -3.691892 58.452522
-30.49312 -23.274977 64.654541
-30.631681 -22.456949 62.531239
-30.70742 -20.256645 64.160194
-30.873119 -16.68185 63.787403
-30.973764 -13.252916 63.386791
-27.157488 -18.559328 72.311043
-26.583904 -21.297421 72.470825
-27.910192 -20.816349 71.590996
-28.445555 -23.197994 70.723747
-28.852663 -25.577847 69.651245
-29.190262 -27.814709 68.316978
-29.630827 -24.858021 68.164406
-30.189201 -24.024054 66.408951
-25.234512 -5.304565 72.408241
-26.535414 -4.091358 71.806992
-25.122318 -2.031273 71.967461
-24.75285 1.340199 71.467415
-20.55332 -8.151425 72.588707
-22.278719 -10.153928 73.011139
-22.28425 -7.491275 72.798172
-23.796322 -6.313081 72.717247
-30.048706 -18.613539 53.778011
-29.754921 -20.887779 52.05928
-29.822653 -17.55603 51.680775
-29.606346 -16.535526 49.486279
-29.430893 -15.425714 47.156769
-29.345087 -14.346271 45.159836
-29.568298 -11.830022 47.000523
-30.374077 -1.210835 65.807343
-30.079815 -29.000597 57.508373
-30.152893 -25.993744 57.003616
-30.222595 -22.795403 56.471497
-30.63562 -21.288551 60.515797
-30.509684 -20.35857 58.328018
-30.293928 -19.415512 55.988068
-30.372757 -16.145521 55.623871
-30.430998 -12.668628 55.076115
-30.518412 -8.976631 54.831429
-21.685602 -22.570265 73.13578
-22.766026 -24.543596 73.086464
-23.640934 -26.815575 72.817802
-25.914734 -24.012203 72.534775
-25.183992 -26.683018 72.488815
-24.342794 -29.280848 72.335777
-29.499392 -13.795659 69.960129
-30.169333 -13.012815 68.457069
-29.640783 -10.652865 69.58593
-29.584934 -7.217052 69.315224
-29.443842 -3.743835 68.975616
-27.615763 -2.735574 70.939903
-28.529755 -1.545418 69.854729
-29.245134 -0.09015 68.515091
-16.315214 -14.281453 71.586006
-17.984324 -16.382675 72.266594
-23.034773 -17.644781 73.312653
-24.668699 -16.970472 73.222946
-23.714252 -12.151304 73.187538
-24.997219 -14.150313 73.136108
-26.090786 -16.313276 72.876907
-27.492601 -15.664187 72.169792
-28.667587 -14.821326 71.138931
-29.488457 -29.508865 51.233082
-29.482155 -23.195496 50.312351
-29.257786 -25.331745 48.521057
-29.129696 -27.678421 46.899349
-29.029934 -26.904034 44.758141
-28.998661 -25.868069 42.866589
-29.324358 -13.387861 43.309319
-30.603506 -12.24248 66.85202
-30.887957 -11.026812 64.938782
-31.007948 -9.820261 62.943645
-30.769661 -3.537817 64.262367
-30.973486 -6.216063 62.627464
-31.003763 -8.766099 60.814934
-30.918531 -7.358486 58.864754
-30.763664 -6.216643 56.702068
-30.56625 -5.114008 54.482388
-30.374523 -4.209893 52.414284
-30.22266 -2.848689 50.357525
-21.852791 0.12337 71.782387
-21.139635 -0.590974 71.79031
-21.139635 -0.590974 71.79031
-21.216543 -2.099213 72.020336
-19.591949 -11.221179 72.548408
-18.763309 -10.338155 72.276211
-19.710493 -10.01183 72.509892
-29.217197 -31.868248 46.7621
-29.27753 -32.284574 47.751272
-29.160679 -30.438068 46.488985
-29.158385 -31.53384 45.661741
-29.217197 -31.868248 46.7621
-30.823518 0.820204 60.103001
-30.813034 0.059491 61.09309
-30.850918 -0.502333 59.231091
-30.823518 0.820204 60.103001
-23.923755 2.153029 71.406063
-24.10348 0.585311 71.675697
-23.274386 1.398141 71.614345
-24.525568 2.999487 71.181641
-23.923755 2.153029 71.406063
-19.705742 -6.026776 72.177238
-19.72653 -4.691102 72.04327
-20.574407 -6.893109 72.474582
-19.684655 -7.285092 72.291363
-19.705742 -6.026776 72.177238
-29.766293 -8.817101 47.735153
-29.893906 -7.429883 48.620138
-30.114217 -29.461097 58.560541
-30.037949 -30.501403 57.621629
-30.072351 -30.961903 58.673798
-22.050695 -21.332365 73.200226
-21.175245 -21.399691 73.082893
-21.540339 -20.161791 73.147339
-25.418884 -30.178691 71.757812
-24.65167 -30.36424 72.016708
-25.110008 -29.095299 72.076881
-25.984533 -32.533379 70.872032
-26.669028 -32.437289 70.384141
-28.565829 -34.099247 67.211151
-28.13635 -34.457289 67.896244
-28.405115 -33.029795 67.925648
-28.931453 -33.774277 66.466221
-28.565829 -34.099247 67.211151
-29.568595 -28.579216 66.903606
-29.266517 -28.922928 67.673077
-29.49234 -27.470997 67.547508
-29.656013 -30.769609 65.433952
-29.850254 -30.531748 64.519887
-30.075847 -31.387144 59.767592
-30.049457 -31.760731 60.834435
-30.122229 -30.295184 60.679552
-30.072351 -30.961903 58.673798
-30.075847 -31.387144 59.767592
-28.386248 0.197636 69.631108
-27.907515 -0.504604 70.20604
-27.764008 1.23845 69.982418
-28.743938 0.92527 68.961288
-28.887445 -0.817784 69.18491
-28.386248 0.197636 69.631108
-29.091154 1.772674 68.285481
-28.743938 0.92527 68.961288
-15.901144 -11.155494 71.2667
-16.872504 -10.813094 71.647678
-15.736107 -12.205784 71.24747
-15.901144 -11.155494 71.2667
-16.523219 -13.135722 71.62379
-15.528102 -13.351514 71.209686
-15.736107 -12.205784 71.24747
-19.568876 -17.071353 72.756653
-18.610553 -17.324893 72.476944
-18.942647 -16.129135 72.546303
-20.557244 -16.897995 72.97704
-19.568876 -17.071353 72.756653
-29.094083 -30.325004 42.524511
-29.097866 -30.75992 43.547832
-29.058444 -28.804935 42.251728
-29.094083 -30.325004 42.524511
-29.800949 -29.225181 54.30534
-29.897972 -29.60031 55.458731
-29.371344 -27.492049 49.884194
-29.390518 -29.037368 50.167633
-29.469284 -27.963546 50.949643
-29.032412 -24.128814 41.577051
-29.024315 -25.654515 41.844893
-29.006759 -24.342368 42.598748
-29.053137 -22.400973 41.358969
-29.032412 -24.128814 41.577051
-30.408306 -2.201919 52.24149
-30.489224 -2.719661 53.361328
-30.332375 -1.521317 51.21311
-30.298592 -3.529291 51.385905
-30.408306 -2.201919 52.24149
-22.56735 0.821493 71.690838
-22.739552 -0.8677 71.975529
-21.852791 0.12337 71.782387
-23.274386 1.398141 71.614345
-22.56735 0.821493 71.690838
-20.501794 -4.133698 72.167026
-19.72653 -4.691102 72.04327
-21.289528 -3.618189 72.22604
-21.383229 -5.119284 72.419472
-20.501794 -4.133698 72.167026
-22.097977 -3.084799 72.272782
-21.289528 -3.618189 72.22604
-21.216543 -2.099213 72.020336
-30.032197 -6.102455 49.489912
-29.893906 -7.429883 48.620138
-29.963294 -8.034532 49.639958
-27.306413 -32.255663 69.834225
-26.669028 -32.437289 70.384141
-27.039651 -31.114957 70.397785
-27.826337 -32.160584 69.229306
-27.455714 -33.482916 69.215661
-27.306413 -32.255663 69.834225
-30.014755 -30.073071 63.555378
-29.850254 -30.531748 64.519887
-30.011204 -29.000709 64.322454
-30.135772 -29.605401 62.55217
-29.974822 -31.13644 62.749603
-30.014755 -30.073071 63.555378
-26.593435 1.581271 70.715973
-26.744051 -0.046386 70.968441
-26.052211 0.998674 71.127064
-27.114148 2.343354 70.278549
-26.593435 1.581271 70.715973
-27.764008 1.23845 69.982418
-27.114148 2.343354 70.278549
-17.829275 -10.59185 71.974255
-18.763309 -10.338155 72.276211
-17.687995 -11.768749 71.988152
-16.872504 -10.813094 71.647678
-17.829275 -10.59185 71.974255
-29.125274 -31.205767 44.611023
-29.158385 -31.53384 45.661741
-29.074458 -29.657814 44.325435
-29.097866 -30.75992 43.547832
-29.125274 -31.205767 44.611023
-29.082624 -19.960059 42.856165
-29.051268 -21.191698 42.102394
-29.046212 -21.585028 43.084677
-29.133654 -18.256763 42.666215
-29.082624 -19.960059 42.856165
-29.128599 -18.650093 43.648499
-29.199528 -16.491004 42.524197
-29.133654 -18.256763 42.666215
-29.490591 -10.36742 43.975487
-29.573932 -8.962321 44.774071
-30.813764 -0.547086 62.078941
-30.763007 -1.222302 62.997105
-30.692963 0.657229 62.886585
-30.883078 -1.82004 61.203609
-30.813764 -0.547086 62.078941
-30.813034 0.059491 61.09309
-30.850712 -1.741548 58.348472
-30.882143 -2.452678 59.33514
-30.850918 -0.502333 59.231091
-30.78592 -1.08865 57.312908
-30.817146 -3.038994 57.416958
-30.850712 -1.741548 58.348472
-25.327223 1.983265 71.171006
-26.052211 0.998674 71.127064
-25.477838 0.355608 71.423474
-25.327223 1.983265 71.171006
-24.525568 2.999487 71.181641
-19.717586 -8.640115 72.413201
-19.684655 -7.285092 72.291363
-20.546226 -9.523139 72.685398
-19.710493 -10.01183 72.509892
-19.717586 -8.640115 72.413201
-29.295173 -31.201591 48.56358
-29.27753 -32.284574 47.751272
-29.637941 -10.051132 46.850323
-29.69665 -10.595991 47.885354
-29.766293 -8.817101 47.735153
-29.603273 -9.491754 45.860941
-29.53363 -11.270644 46.011141
-29.637941 -10.051132 46.850323
-29.573932 -8.962321 44.774071
-29.603273 -9.491754 45.860941
-30.081492 0.043128 66.396126
-30.184446 -1.776992 66.62336
-29.891862 -0.523029 67.212143
-30.287507 0.633798 65.534359
-30.081492 0.043128 66.396126
-30.421571 1.230222 64.533062
-30.508142 -0.614411 64.806046
-30.287507 0.633798 65.534359
-30.529305 1.977911 63.689444
-30.421571 1.230222 64.533062
-30.692963 0.657229 62.886585
-30.529305 1.977911 63.689444
-29.98617 -30.066837 56.629863
-30.037949 -30.501403 57.621629
-29.991617 -28.534069 56.33724
-29.897972 -29.60031 55.458731
-29.98617 -30.066837 56.629863
-20.756707 -22.50785 72.9813
-21.175245 -21.399691 73.082893
-21.265813 -23.667446 73.03339
-20.756707 -22.50785 72.9813
-21.806025 -24.654111 73.008732
-21.265813 -23.667446 73.03339
-22.225814 -23.55693 73.111122
-22.293115 -25.807277 72.969044
-21.806025 -24.654111 73.008732
-22.730569 -26.943266 72.834713
-22.293115 -25.807277 72.969044
-23.20348 -25.679586 72.952133
-23.186272 -28.055973 72.69603
-22.730569 -26.943266 72.834713
-23.537202 -29.288609 72.455017
-23.186272 -28.055973 72.69603
-23.991864 -28.048212 72.576789
-23.833086 -30.492079 72.210552
-23.537202 -29.288609 72.455017
-23.833086 -30.492079 72.210552
-24.65167 -30.36424 72.016708
-25.681406 -31.372107 71.32267
-25.418884 -30.178691 71.757812
-26.139744 -30.103167 71.382844
-25.681406 -31.372107 71.32267
-25.984533 -32.533379 70.872032
-27.61304 -34.635492 68.628151
-27.455714 -33.482916 69.215661
-27.61304 -34.635492 68.628151
-28.13635 -34.457289 67.896244
-28.98095 -30.260205 67.800567
-28.904694 -29.151986 68.444469
-29.266517 -28.922928 67.673077
-29.088683 -31.35145 67.134865
-28.72686 -31.580508 67.906258
-28.98095 -30.260205 67.800567
-29.594738 -29.745267 66.158069
-29.568595 -28.579216 66.903606
-29.820561 -28.293336 66.032501
-29.594738 -29.745267 66.158069
-29.656013 -30.769609 65.433952
-29.149957 -32.375792 66.410747
-29.088683 -31.35145 67.134865
-28.931453 -33.774277 66.466221
-29.149957 -32.375792 66.410747
-29.981518 -32.074098 61.90457
-29.974822 -31.13644 62.749603
-29.981518 -32.074098 61.90457
-30.049457 -31.760731 60.834435
-29.517021 0.603471 67.75
-29.891862 -0.523029 67.212143
-29.619975 -1.216649 67.977234
-29.517021 0.603471 67.75
-29.091154 1.772674 68.285481
-15.285025 -14.46031 71.139733
-15.528102 -13.351514 71.209686
-16.073401 -15.379963 71.515816
-15.285025 -14.46031 71.139733
-16.907957 -16.430574 71.85611
-16.073401 -15.379963 71.515816
-17.149769 -15.332064 71.9263
-17.617428 -17.443113 72.156063
-16.907957 -16.430574 71.85611
-17.617428 -17.443113 72.156063
-18.610553 -17.324893 72.476944
-21.814653 -19.00743 73.196369
-21.540339 -20.161791 73.147339
-21.502773 -16.694091 73.155891
-20.557244 -16.897995 72.97704
-20.846499 -15.671691 73.004864
-22.124146 -17.782588 73.22036
-21.502773 -16.694091 73.155891
-22.413401 -16.556283 73.248185
-22.725281 -18.869623 73.288662
-21.814653 -19.00743 73.196369
-22.124146 -17.782588 73.22036
-29.687732 -28.804522 53.1609
-29.800949 -29.225181 54.30534
-29.790202 -27.646883 54.021667
-29.593468 -29.945842 52.338827
-29.687732 -28.804522 53.1609
-29.582721 -28.367545 52.055155
-29.524623 -30.960733 51.499586
-29.593468 -29.945842 52.338827
-29.429656 -30.569786 50.385449
-29.524623 -30.960733 51.499586
-29.429656 -30.569786 50.385449
-29.390518 -29.037368 50.167633
-29.256035 -29.669174 48.345764
-29.295173 -31.201591 48.56358
-29.275182 -26.948808 48.811621
-29.371344 -27.492049 49.884194
-29.353949 -25.874986 49.59363
-29.211137 -28.122146 48.000766
-29.275182 -26.948808 48.811621
-29.193741 -26.505083 47.710203
-29.174594 -29.225448 47.244346
-29.256035 -29.669174 48.345764
-29.211137 -28.122146 48.000766
-29.03425 -27.132986 42.0539
-29.058444 -28.804935 42.251728
-29.022855 -27.540018 43.064417
-29.03425 -27.132986 42.0539
-29.024315 -25.654515 41.844893
-29.053137 -22.400973 41.358969
-29.051268 -21.191698 42.102394
-29.271892 -14.711537 42.449582
-29.199528 -16.491004 42.524197
-29.251994 -15.167328 43.383934
-29.403289 -11.705717 43.119267
-29.41166 -12.049563 44.165539
-29.490591 -10.36742 43.975487
-29.355525 -12.940236 42.327135
-29.403289 -11.705717 43.119267
-29.271892 -14.711537 42.449582
-29.355525 -12.940236 42.327135
-30.737851 -0.504186 56.234685
-30.78592 -1.08865 57.312908
-30.67814 -1.807763 55.344882
-30.737851 -0.504186 56.234685
-30.585088 -3.171719 54.39538
-30.659302 -3.750052 55.431891
-30.67814 -1.807763 55.344882
-30.470387 -4.66195 53.448336
-30.585088 -3.171719 54.39538
-30.489224 -2.719661 53.361328
-30.092734 -4.173248 49.413809
-30.032197 -6.102455 49.489912
-30.162123 -4.777896 50.433628
-30.270498 -0.993531 50.170777
-30.332375 -1.521317 51.21311
-30.159955 -2.369022 49.291926
-30.270498 -0.993531 50.170777
-30.092734 -4.173248 49.413809
-30.159955 -2.369022 49.291926
3 0 53 51
3 0 56 54
3 0 51 56
3 197 196 58
3 198 58 199
3 1 63 61
3 1 65 63
3 2 68 66
3 4 71 69
3 4 73 71
3 5 76 74
3 6 79 77
3 6 81 79
3 6 83 81
3 2 86 84
3 2 66 86
3 7 90 88
3 9 200 202
3 200 92 201
3 200 201 202
3 9 94 92
3 9 96 94
3 7 99 97
3 7 88 99
3 10 203 204
3 10 205 207
3 205 101 206
3 205 206 207
3 3 104 102
3 11 107 105
3 11 109 107
3 11 110 109
3 8 113 111
3 208 115 209
3 211 210 115
3 12 119 117
3 14 120 52
3 14 121 120
3 15 124 122
3 17 125 55
3 17 126 125
3 17 128 126
3 12 129 57
3 12 117 129
3 19 132 130
3 212 133 213
3 214 213 59
3 212 213 214
3 216 215 133
3 21 217 218
3 21 219 221
3 219 134 220
3 219 220 221
3 21 136 134
3 19 137 60
3 19 130 137
3 23 140 138
3 25 141 62
3 25 142 141
3 25 144 142
3 223 222 64
3 28 224 226
3 224 146 225
3 224 225 226
3 30 147 67
3 30 148 147
3 13 149 118
3 31 150 70
3 31 151 150
3 31 152 151
3 32 153 72
3 32 154 153
3 33 227 229
3 227 155 228
3 227 228 229
3 34 156 75
3 34 157 156
3 16 158 123
3 35 159 78
3 35 160 159
3 35 230 232
3 232 231 160
3 230 231 232
3 234 233 80
3 36 235 237
3 237 236 82
3 235 236 237
3 36 238 239
3 18 240 242
3 242 241 127
3 240 241 242
3 244 243 85
3 28 245 247
3 247 246 87
3 245 246 247
3 28 248 249
3 37 163 161
3 39 164 89
3 39 165 164
3 20 166 131
3 250 167 251
3 252 251 91
3 250 251 252
3 253 168 254
3 255 254 167
3 253 254 255
3 257 256 168
3 40 258 259
3 40 260 261
3 40 262 264
3 262 169 263
3 262 263 264
3 41 170 93
3 41 265 267
3 267 266 170
3 265 266 267
3 41 268 269
3 42 171 95
3 42 172 171
3 22 173 135
3 43 174 98
3 43 175 174
3 43 176 175
3 37 177 100
3 37 161 177
3 44 270 271
3 44 272 273
3 29 274 275
3 45 178 103
3 45 276 278
3 278 277 178
3 276 277 278
3 24 179 139
3 46 180 106
3 46 181 180
3 46 182 181
3 47 183 108
3 47 279 281
3 281 280 183
3 279 280 281
3 47 282 283
3 26 184 143
3 38 185 162
3 48 186 112
3 48 187 186
3 27 188 145
3 49 189 114
3 49 190 189
3 49 191 190
3 50 192 116
3 50 193 192
3 284 194 285
3 286 195 287
3 288 287 194
3 286 287 288
3 51 52 12
3 53 52 51
3 53 14 52
3 54 55 15
3 56 55 54
3 56 17 55
3 56 57 17
3 51 57 56
3 51 12 57
3 58 59 19
3 289 59 290
3 291 290 58
3 289 290 291
3 293 292 59
3 294 21 295
3 296 60 297
3 298 297 21
3 296 297 298
3 58 299 301
3 299 60 300
3 299 300 301
3 58 19 60
3 61 62 23
3 63 62 61
3 63 25 62
3 63 64 25
3 65 64 63
3 65 302 304
3 304 303 64
3 302 303 304
3 66 67 28
3 68 67 66
3 68 30 67
3 69 70 13
3 71 70 69
3 71 31 70
3 71 72 31
3 73 72 71
3 73 32 72
3 74 75 33
3 76 75 74
3 76 34 75
3 77 78 16
3 79 78 77
3 79 35 78
3 79 80 35
3 81 80 79
3 81 305 307
3 307 306 80
3 305 306 307
3 81 308 310
3 308 82 309
3 308 309 310
3 83 82 81
3 83 36 82
3 84 85 18
3 86 85 84
3 86 311 313
3 313 312 85
3 311 312 313
3 86 314 316
3 314 87 315
3 314 315 316
3 66 87 86
3 66 28 87
3 88 89 37
3 90 89 88
3 90 39 89
3 317 91 318
3 319 318 20
3 317 318 319
3 320 91 321
3 323 322 91
3 92 324 325
3 92 326 328
3 326 40 327
3 326 327 328
3 92 93 40
3 94 93 92
3 94 41 93
3 94 95 41
3 96 95 94
3 96 42 95
3 97 98 22
3 99 98 97
3 99 43 98
3 99 100 43
3 88 100 99
3 88 37 100
3 101 329 330
3 101 331 333
3 331 44 332
3 331 332 333
3 102 103 29
3 104 103 102
3 104 45 103
3 105 106 24
3 107 106 105
3 107 46 106
3 107 108 46
3 109 108 107
3 109 47 108
3 109 334 336
3 336 335 47
3 334 335 336
3 110 337 339
3 339 338 109
3 337 338 339
3 110 340 341
3 343 342 26
3 111 112 38
3 113 112 111
3 113 48 112
3 344 114 345
3 346 345 27
3 344 345 346
3 115 347 349
3 347 114 348
3 347 348 349
3 115 49 114
3 115 116 49
3 350 116 351
3 352 351 115
3 350 351 352
3 353 50 354
3 355 354 116
3 353 354 355
3 117 118 2
3 119 118 117
3 119 13 118
3 52 119 12
3 120 119 52
3 120 13 119
3 120 69 13
3 121 69 120
3 121 4 69
3 122 123 5
3 124 123 122
3 124 16 123
3 55 124 15
3 125 124 55
3 125 16 124
3 125 77 16
3 126 77 125
3 126 6 77
3 126 127 6
3 128 127 126
3 128 18 127
3 57 128 17
3 129 128 57
3 129 18 128
3 129 84 18
3 117 84 129
3 117 2 84
3 130 131 7
3 132 131 130
3 132 20 131
3 59 132 19
3 133 132 59
3 133 20 132
3 133 356 358
3 358 357 20
3 356 357 358
3 360 359 133
3 134 361 362
3 134 363 365
3 363 9 364
3 363 364 365
3 134 135 9
3 136 135 134
3 136 22 135
3 60 136 21
3 137 136 60
3 137 22 136
3 137 97 22
3 130 97 137
3 130 7 97
3 366 10 367
3 138 139 3
3 140 139 138
3 140 24 139
3 62 140 23
3 141 140 62
3 141 24 140
3 141 105 24
3 142 105 141
3 142 11 105
3 142 143 11
3 144 143 142
3 144 26 143
3 64 144 25
3 368 144 369
3 370 369 64
3 368 369 370
3 371 26 372
3 373 372 144
3 371 372 373
3 375 374 26
3 376 145 377
3 378 377 8
3 376 377 378
3 379 145 380
3 381 27 382
3 383 382 145
3 381 382 383
3 384 27 385
3 387 386 27
3 146 388 389
3 146 390 392
3 390 29 391
3 390 391 392
3 67 146 28
3 147 146 67
3 147 29 146
3 147 102 29
3 148 102 147
3 148 3 102
3 118 68 2
3 149 68 118
3 149 30 68
3 70 149 13
3 150 149 70
3 150 30 149
3 150 148 30
3 151 148 150
3 151 3 148
3 151 138 3
3 152 138 151
3 152 23 138
3 72 152 31
3 153 152 72
3 153 23 152
3 153 61 23
3 154 61 153
3 154 1 61
3 155 393 394
3 155 395 396
3 75 155 33
3 156 155 75
3 156 397 399
3 399 398 155
3 397 398 399
3 156 400 401
3 157 402 404
3 404 403 156
3 402 403 404
3 157 405 406
3 123 76 5
3 158 76 123
3 158 34 76
3 78 158 16
3 159 158 78
3 159 34 158
3 159 157 34
3 160 157 159
3 160 407 409
3 409 408 157
3 407 408 409
3 160 410 411
3 413 412 160
3 80 414 416
3 416 415 35
3 414 415 416
3 418 417 80
3 82 419 420
3 422 421 82
3 127 83 6
3 423 83 424
3 425 424 127
3 423 424 425
3 426 36 427
3 428 427 83
3 426 427 428
3 85 429 431
3 431 430 18
3 429 430 431
3 433 432 85
3 434 36 435
3 437 436 36
3 87 438 439
3 441 440 87
3 161 162 0
3 163 162 161
3 163 38 162
3 89 163 37
3 164 163 89
3 164 38 163
3 164 111 38
3 165 111 164
3 165 8 111
3 131 90 7
3 166 90 131
3 166 39 90
3 91 166 20
3 167 166 91
3 167 39 166
3 167 165 39
3 168 165 167
3 168 8 165
3 168 442 444
3 444 443 8
3 442 443 444
3 446 445 168
3 169 447 448
3 169 449 450
3 93 169 40
3 170 169 93
3 170 451 453
3 453 452 169
3 451 452 453
3 170 454 455
3 457 456 170
3 458 33 459
3 95 460 462
3 462 461 41
3 460 461 462
3 171 463 465
3 465 464 95
3 463 464 465
3 171 466 468
3 466 33 467
3 466 467 468
3 171 74 33
3 172 74 171
3 172 5 74
3 135 96 9
3 173 96 135
3 173 42 96
3 98 173 22
3 174 173 98
3 174 42 173
3 174 172 42
3 175 172 174
3 175 5 172
3 175 122 5
3 176 122 175
3 176 15 122
3 100 176 43
3 177 176 100
3 177 15 176
3 177 54 15
3 161 54 177
3 161 0 54
3 103 469 471
3 471 470 29
3 469 470 471
3 178 472 474
3 474 473 103
3 472 473 474
3 178 475 476
3 178 477 478
3 480 479 178
3 481 10 482
3 139 104 3
3 179 104 139
3 179 45 104
3 106 179 24
3 180 179 106
3 180 45 179
3 180 483 485
3 485 484 45
3 483 484 485
3 181 486 488
3 488 487 180
3 486 487 488
3 181 489 491
3 489 10 490
3 489 490 491
3 181 101 10
3 182 101 181
3 182 44 101
3 108 182 46
3 183 182 108
3 183 44 182
3 183 492 494
3 494 493 44
3 492 493 494
3 496 495 183
3 498 497 47
3 143 110 11
3 184 110 143
3 184 499 501
3 501 500 110
3 499 500 501
3 502 184 503
3 504 503 26
3 502 503 504
3 505 184 506
3 508 507 184
3 162 53 0
3 185 53 162
3 185 14 53
3 112 185 38
3 186 185 112
3 186 14 185
3 186 121 14
3 187 121 186
3 187 4 121
3 145 113 8
3 188 113 145
3 188 48 113
3 114 188 27
3 189 188 114
3 189 48 188
3 189 187 48
3 190 187 189
3 190 4 187
3 190 73 4
3 191 73 190
3 191 32 73
3 116 191 49
3 192 191 116
3 192 32 191
3 192 154 32
3 193 154 192
3 193 1 154
3 509 50 510
3 511 50 512
3 513 193 514
3 515 514 50
3 513 514 515
3 194 516 518
3 516 193 517
3 516 517 518
3 194 1 193
3 194 65 1
3 195 65 194
3 195 519 521
3 521 520 65
3 519 520 521
3 522 195 523
3 524 195 525
3 527 526 195
