ply
format ascii 1.0
element vertex 333
property float x
property float y
property float z
element face 338
property list uchar int vertex_index
end_header
30.994955 54.374344 -45.654152
25.632113 89.413521 -42.811924
24.82262 60.057564 -49.763691
17.9678 45.193554 -51.349934
24.343889 40.110817 -48.778278
22.192945 77.413986 -48.906933
29.439291 73.700485 -45.47966
28.110184 57.738396 -48.044163
24.915897 49.992142 -49.442528
28.023546 47.360214 -47.536873
22.829159 95.744423 -40.258305
24.075443 83.840958 -46.441017
26.109947 75.874786 -47.629223
27.91448 81.965805 -44.419552
33.503757 51.229603 -42.696972
30.814995 44.391586 -45.072807
21.214096 61.589405 -50.79995
21.533321 52.553974 -50.746738
21.145306 42.764221 -50.338455
23.860268 69.095352 -49.643829
27.460667 66.965721 -48.12368
30.610626 64.266983 -45.756851
32.144554 70.433952 -42.731743
33.12397 60.763588 -42.924797
14.643045 47.172108 -51.944386
29.563812 56.010357 -46.95565
28.142725 52.577671 -47.85471
29.599045 51.182896 -46.717831
24.421047 92.742065 -41.551613
22.199924 93.332428 -42.478287
23.632814 90.317558 -43.675503
22.809784 87.613541 -45.483536
24.786673 86.938141 -44.758392
25.997536 83.190941 -45.542343
26.741947 85.835358 -43.793594
23.058401 60.620899 -50.366348
21.421886 57.076668 -50.831066
23.225677 55.969437 -50.322517
24.681082 45.261635 -49.176758
23.117804 46.637821 -49.943901
22.737225 41.496101 -49.638958
29.076736 40.882362 -46.034321
20.985474 80.997055 -48.367168
20.009626 77.785126 -49.287769
21.207558 73.874168 -49.759262
21.873627 69.796425 -50.129803
23.119493 73.509895 -49.337795
27.890471 74.709412 -46.661285
26.971066 71.59964 -47.885418
28.599699 70.30751 -46.901653
29.128727 65.877716 -46.993347
30.116743 69.338753 -45.632694
32.703964 65.683716 -42.885899
18.161507 49.967972 -51.420113
16.244865 50.794983 -51.701271
16.375538 46.352188 -51.689243
26.467558 58.791035 -49.01778
25.02733 55.202999 -49.635536
26.644598 53.911701 -48.810814
26.53229 48.700047 -48.551121
26.196281 43.808392 -48.264935
20.720018 96.258957 -40.888069
19.911621 93.578156 -43.147858
21.954992 84.548866 -47.028275
23.107527 80.689171 -47.840897
24.235041 76.564171 -48.40163
25.146719 79.89183 -47.165707
27.003448 79.201065 -46.179169
28.680634 78.055885 -45.06205
17.697323 40.734245 -51.220325
16.092119 41.693829 -51.661697
32.315887 52.643478 -44.210903
30.956474 49.24614 -45.416641
32.318535 47.643089 -43.920433
32.072376 42.59103 -43.636356
24.88242 95.20105 -39.116322
26.158886 92.035446 -40.506947
27.386852 88.497841 -41.633953
19.825928 53.502277 -51.156521
19.828234 48.715607 -51.051674
23.296026 51.555119 -50.169823
21.546947 47.821487 -50.549229
19.684755 44.102001 -50.875591
29.402214 45.70153 -46.392567
27.528822 41.895893 -47.244884
22.653254 65.412933 -50.29285
24.478035 64.582169 -49.761036
25.132185 72.711441 -48.702583
25.786932 68.408546 -48.925125
26.193184 63.576321 -49.061352
27.853582 62.367455 -48.153023
29.4877 60.898407 -46.995319
30.873806 59.22863 -45.782345
29.434788 80.95491 -43.102791
30.230057 76.618881 -43.717335
31.593531 74.850716 -42.274044
30.921377 72.157349 -44.098663
31.411654 67.45533 -44.429688
31.900808 62.687412 -44.42625
32.1292 57.796497 -44.444763
33.352173 56.28949 -42.890327
23.270634 38.32465 -49.036512
22.467301 39.017292 -49.466852
23.540557 40.803459 -49.208618
21.774589 96.00169 -40.573187
21.024986 97.377499 -39.703501
22.079557 97.120231 -39.388618
20.694356 92.073723 -43.821281
21.055772 93.455292 -42.813073
21.838507 91.950859 -43.486496
19.474728 92.2379 -44.045849
20.694356 92.073723 -43.821281
16.773349 39.082971 -51.385864
17.500104 38.321228 -51.112232
32.680027 41.805441 -42.858542
32.787441 44.354366 -43.020416
31.901551 39.987858 -43.403418
32.680027 41.805441 -42.858542
25.826463 94.639152 -38.522465
25.152575 96.109344 -37.869074
26.464696 93.05635 -39.217777
25.520653 93.618248 -39.811634
25.826463 94.639152 -38.522465
27.016524 91.489182 -39.839626
26.464696 93.05635 -39.217777
20.416677 59.728907 -50.989699
20.227122 61.985508 -50.946595
20.188883 41.005093 -50.503414
19.458607 41.673983 -50.771982
20.415031 43.433111 -50.607023
27.395375 39.478342 -46.977758
28.302779 41.389128 -46.639602
28.169331 38.971576 -46.372476
26.643462 40.196078 -47.538887
27.395375 39.478342 -46.977758
27.933107 86.576454 -42.08662
28.141101 87.933445 -40.977772
30.125504 80.147674 -42.423298
29.71722 82.171143 -42.063643
30.523138 77.97966 -42.73057
29.832422 78.786895 -43.410063
30.125504 80.147674 -42.423298
31.869042 72.642334 -42.502893
32.150215 74.011567 -41.527582
32.425726 71.803185 -41.756432
14.624208 49.386415 -51.889376
15.425118 51.197853 -51.767819
15.443955 48.983546 -51.822828
13.81088 47.570352 -52.019389
14.624208 49.386415 -51.889376
15.316153 42.31606 -51.833063
15.210947 40.07444 -51.835083
22.554952 90.443424 -44.085104
21.838507 91.950859 -43.486496
22.916369 91.824993 -43.076895
23.221299 88.96555 -44.57952
22.143438 89.091415 -44.98912
22.554952 90.443424 -44.085104
33.503131 48.673653 -42.550724
34.049127 50.249403 -41.887598
21.734797 39.748638 -49.841566
20.938837 40.382698 -50.191315
21.941266 42.130161 -49.988707
21.734797 39.748638 -49.841566
22.467301 39.017292 -49.466852
29.769445 40.063547 -45.350876
29.945866 42.636974 -45.553564
30.638575 41.818159 -44.870119
28.828609 38.135622 -45.770861
29.769445 40.063547 -45.350876
28.169331 38.971576 -46.372476
28.828609 38.135622 -45.770861
19.828741 81.201103 -48.499237
20.325304 82.755382 -47.974245
19.340817 79.595139 -48.959537
19.828741 81.201103 -48.499237
20.49755 79.391091 -48.827468
18.839986 77.916661 -49.378244
19.340817 79.595139 -48.959537
19.494444 76.05835 -49.65271
18.839986 77.916661 -49.378244
20.093409 74.10287 -49.888457
19.494444 76.05835 -49.65271
20.608592 75.829647 -49.523516
20.495657 72.083923 -50.102443
20.093409 74.10287 -49.888457
21.540592 71.835296 -49.944533
20.828691 70.045051 -50.287714
20.495657 72.083923 -50.102443
32.726954 69.51144 -41.923176
32.425726 71.803185 -41.756432
33.006659 67.136322 -42.000254
32.424259 68.058834 -42.808821
32.726954 69.51144 -41.923176
33.297205 64.686031 -42.029175
33.006659 67.136322 -42.000254
33.507208 62.225967 -42.048624
32.913967 63.223652 -42.905348
33.297205 64.686031 -42.029175
33.672776 59.907888 -42.112702
33.507208 62.225967 -42.048624
17.203186 50.381478 -51.560692
17.097095 52.582426 -51.580513
18.055416 52.16892 -51.439934
19.965792 97.425495 -40.075105
21.024986 97.377499 -39.703501
19.545606 96.251458 -41.218586
19.965792 97.425495 -40.075105
19.141407 94.911057 -42.348481
19.545606 96.251458 -41.218586
20.315819 94.918556 -42.017964
18.718744 93.517525 -43.40515
19.141407 94.911057 -42.348481
18.718744 93.517525 -43.40515
19.474728 92.2379 -44.045849
21.680515 87.728791 -45.801949
22.143438 89.091415 -44.98912
21.25312 86.196453 -46.574318
21.680515 87.728791 -45.801949
22.382388 86.081204 -46.255905
20.810063 84.531288 -47.304799
21.25312 86.196453 -46.574318
21.470233 82.772961 -47.697722
20.325304 82.755382 -47.974245
20.810063 84.531288 -47.304799
15.970747 39.562764 -51.60655
16.894721 41.214037 -51.441011
16.773349 39.082971 -51.385864
15.210947 40.07444 -51.835083
15.970747 39.562764 -51.60655
32.91052 46.880396 -43.162455
32.911146 49.436346 -43.308703
33.503131 48.673653 -42.550724
32.195455 45.11706 -43.778395
32.91052 46.880396 -43.162455
32.787441 44.354366 -43.020416
31.267265 40.917881 -44.151893
30.638575 41.818159 -44.870119
31.443686 43.491308 -44.354581
31.267265 40.917881 -44.151893
31.901551 39.987858 -43.403418
23.14332 96.831692 -38.973408
22.079557 97.120231 -39.388618
24.16995 96.560005 -38.402417
25.152575 96.109344 -37.869074
23.85579 95.472736 -39.687314
23.14332 96.831692 -38.973408
24.16995 96.560005 -38.402417
27.630508 89.720379 -40.403129
26.772869 90.266643 -41.07045
27.016524 91.489182 -39.839626
28.141101 87.933445 -40.977772
27.630508 89.720379 -40.403129
20.520573 57.472538 -51.005257
20.416677 59.728907 -50.989699
21.317991 59.333036 -50.815508
19.722594 55.685343 -51.167984
20.520573 57.472538 -51.005257
20.623907 55.289473 -50.993793
18.887626 53.936073 -51.308138
19.722594 55.685343 -51.167984
18.993718 51.735124 -51.288317
18.055416 52.16892 -51.439934
18.887626 53.936073 -51.308138
18.464892 39.990105 -50.944349
18.691039 42.418123 -51.047958
19.458607 41.673983 -50.771982
17.500104 38.321228 -51.112232
18.464892 39.990105 -50.944349
20.188883 41.005093 -50.503414
20.938837 40.382698 -50.191315
25.977191 41.152327 -48.048913
26.862552 42.852142 -47.754909
26.643462 40.196078 -47.538887
25.050995 39.303539 -48.305584
25.270085 41.959604 -48.521607
25.977191 41.152327 -48.048913
23.995545 37.565922 -48.599243
25.050995 39.303539 -48.305584
23.270634 38.32465 -49.036512
23.995545 37.565922 -48.599243
20.918742 63.786104 -50.746437
20.227122 61.985508 -50.946595
21.248507 67.889614 -50.411364
20.828691 70.045051 -50.287714
21.638321 65.697868 -50.492887
21.248507 67.889614 -50.411364
22.263441 67.604679 -50.211326
21.933675 63.501169 -50.5464
20.918742 63.786104 -50.746437
21.638321 65.697868 -50.492887
27.610654 85.245213 -43.166441
27.0644 87.166599 -42.713774
27.933107 86.576454 -42.08662
28.196921 83.310436 -43.47942
27.328214 83.900582 -44.106573
27.610654 85.245213 -43.166441
28.957075 82.804989 -42.821039
29.71722 82.171143 -42.063643
28.674634 81.460358 -43.761172
28.196921 83.310436 -43.47942
28.957075 82.804989 -42.821039
31.831359 76.125843 -41.258711
32.150215 74.011567 -41.527582
31.204875 77.095578 -42.008925
31.831359 76.125843 -41.258711
30.911794 75.734799 -42.995689
30.523138 77.97966 -42.73057
31.204875 77.095578 -42.008925
33.786877 57.670839 -42.095467
33.238072 58.526539 -42.907562
33.672776 59.907888 -42.112702
33.887507 55.326262 -42.106454
33.786877 57.670839 -42.095467
33.963299 52.796318 -42.009777
33.427965 53.759546 -42.79365
33.887507 55.326262 -42.106454
34.049127 50.249403 -41.887598
33.963299 52.796318 -42.009777
16.181199 53.051956 -51.660362
17.097095 52.582426 -51.580513
16.181199 53.051956 -51.660362
15.425118 51.197853 -51.767819
15.457862 44.645239 -51.846836
16.233829 44.023009 -51.67547
15.316153 42.31606 -51.833063
14.591616 45.055199 -51.974407
15.509291 46.762148 -51.816814
15.457862 44.645239 -51.846836
13.788885 45.487535 -52.104517
14.591616 45.055199 -51.974407
13.81088 47.570352 -52.019389
13.788885 45.487535 -52.104517
3 0 27 25
3 1 30 28
3 1 32 30
3 1 34 32
3 2 37 35
3 4 40 38
3 4 101 103
3 103 102 40
3 101 102 103
3 5 43 42
3 5 44 43
3 5 46 44
3 6 49 47
3 6 51 49
3 3 55 53
3 7 58 56
3 9 59 26
3 9 60 59
3 10 104 106
3 104 61 105
3 104 105 106
3 107 62 108
3 109 108 29
3 107 108 109
3 111 110 62
3 11 63 31
3 11 64 63
3 11 66 64
3 13 67 33
3 13 68 67
3 113 112 69
3 14 73 71
3 114 74 115
3 117 116 74
3 118 75 119
3 120 76 121
3 122 121 75
3 120 121 122
3 124 123 76
3 16 125 126
3 17 78 36
3 17 79 78
3 8 80 57
3 18 81 39
3 18 82 81
3 18 127 129
3 129 128 82
3 127 128 129
3 15 83 72
3 130 84 131
3 132 131 41
3 130 131 132
3 134 133 84
3 19 85 45
3 19 86 85
3 12 87 65
3 20 88 48
3 20 89 88
3 20 90 89
3 21 91 50
3 21 92 91
3 136 135 77
3 137 93 138
3 139 94 140
3 141 140 93
3 139 140 141
3 22 142 144
3 142 95 143
3 142 143 144
3 22 96 95
3 22 97 96
3 23 98 52
3 23 99 98
3 23 100 99
3 24 145 147
3 147 146 54
3 145 146 147
3 24 148 149
3 151 150 70
3 25 26 7
3 27 26 25
3 27 9 26
3 28 29 10
3 30 29 28
3 30 152 154
3 154 153 29
3 152 153 154
3 30 155 157
3 155 31 156
3 155 156 157
3 32 31 30
3 32 11 31
3 32 33 11
3 34 33 32
3 34 13 33
3 159 158 14
3 35 36 16
3 37 36 35
3 37 17 36
3 38 39 8
3 40 39 38
3 40 18 39
3 40 160 162
3 162 161 18
3 160 161 162
3 164 163 40
3 165 41 166
3 167 166 15
3 165 166 167
3 168 41 169
3 171 170 41
3 42 172 173
3 43 174 176
3 176 175 42
3 174 175 176
3 43 177 178
3 43 179 180
3 44 181 183
3 183 182 43
3 181 182 183
3 44 184 185
3 44 186 188
3 186 45 187
3 186 187 188
3 46 45 44
3 46 19 45
3 47 48 12
3 49 48 47
3 49 20 48
3 49 50 20
3 51 50 49
3 51 21 50
3 189 22 190
3 191 52 192
3 193 192 22
3 191 192 193
3 194 52 195
3 196 23 197
3 198 197 52
3 196 197 198
3 200 199 23
3 53 201 203
3 201 54 202
3 201 202 203
3 55 54 53
3 55 24 54
3 56 57 2
3 58 57 56
3 58 8 57
3 26 58 7
3 59 58 26
3 59 8 58
3 59 38 8
3 60 38 59
3 60 4 38
3 61 204 205
3 61 206 207
3 29 61 10
3 62 61 29
3 62 208 210
3 210 209 61
3 208 209 210
3 62 211 212
3 214 213 62
3 31 215 216
3 63 217 219
3 219 218 31
3 217 218 219
3 63 220 221
3 63 222 224
3 222 42 223
3 222 223 224
3 64 42 63
3 64 5 42
3 64 65 5
3 66 65 64
3 66 12 65
3 33 66 11
3 67 66 33
3 67 12 66
3 67 47 12
3 68 47 67
3 68 6 47
3 69 70 3
3 225 70 226
3 227 226 69
3 225 226 227
3 229 228 70
3 71 72 0
3 73 72 71
3 73 15 72
3 230 73 231
3 232 231 14
3 230 231 232
3 74 233 235
3 233 73 234
3 233 234 235
3 74 15 73
3 74 236 238
3 238 237 15
3 236 237 238
3 240 239 74
3 241 10 242
3 75 243 244
3 75 245 247
3 245 10 246
3 245 246 247
3 75 28 10
3 76 28 75
3 76 1 28
3 76 77 1
3 248 77 249
3 250 249 76
3 248 249 250
3 252 251 77
3 36 253 255
3 255 254 16
3 253 254 255
3 78 256 258
3 258 257 36
3 256 257 258
3 78 259 260
3 78 261 263
3 261 53 262
3 261 262 263
3 79 53 78
3 79 3 53
3 57 37 2
3 80 37 57
3 80 17 37
3 39 80 8
3 81 80 39
3 81 17 80
3 81 79 17
3 82 79 81
3 82 3 79
3 82 69 3
3 264 69 265
3 266 265 82
3 264 265 266
3 268 267 69
3 270 269 18
3 72 27 0
3 83 27 72
3 83 9 27
3 41 83 15
3 84 83 41
3 84 9 83
3 84 60 9
3 271 60 272
3 273 272 84
3 271 272 273
3 274 4 275
3 276 275 60
3 274 275 276
3 277 4 278
3 280 279 4
3 281 16 282
3 45 283 284
3 85 285 287
3 287 286 45
3 285 286 287
3 85 288 290
3 288 16 289
3 288 289 290
3 85 35 16
3 86 35 85
3 86 2 35
3 65 46 5
3 87 46 65
3 87 19 46
3 48 87 12
3 88 87 48
3 88 19 87
3 88 86 19
3 89 86 88
3 89 2 86
3 89 56 2
3 90 56 89
3 90 7 56
3 50 90 20
3 91 90 50
3 91 7 90
3 91 25 7
3 92 25 91
3 92 0 25
3 77 34 1
3 291 34 292
3 293 292 77
3 291 292 293
3 294 13 295
3 296 295 34
3 294 295 296
3 93 297 298
3 93 299 301
3 299 13 300
3 299 300 301
3 93 68 13
3 94 68 93
3 94 6 68
3 95 302 303
3 95 304 305
3 95 306 308
3 306 94 307
3 306 307 308
3 96 94 95
3 96 6 94
3 96 51 6
3 97 51 96
3 97 21 51
3 52 97 22
3 98 97 52
3 98 21 97
3 98 92 21
3 99 92 98
3 99 0 92
3 99 71 0
3 100 71 99
3 100 14 71
3 309 100 310
3 311 310 23
3 309 310 311
3 312 100 313
3 314 14 315
3 316 315 100
3 314 315 316
3 318 317 14
3 54 319 320
3 322 321 54
3 70 55 3
3 323 55 324
3 325 324 70
3 323 324 325
3 326 24 327
3 328 327 55
3 326 327 328
3 329 24 330
3 332 331 24
