ply
format ascii 1.0
element vertex 242
property float x
property float y
property float z
element face 219
property list uchar int vertex_index
end_header
-22.699825 4.374025 -18.287949
-26.965027 -9.586326 -10.78345
-28.051201 -2.864251 -17.768002
-21.881517 -2.0132 -11.443166
-29.504341 4.938723 -25.81354
-25.237219 0.577752 -17.914051
-28.796787 0.881451 -21.592758
-26.023905 4.306423 -21.936174
-30.158056 -9.834822 -13.978119
-30.686367 -6.004763 -17.665159
-27.336052 -6.433951 -14.071551
-24.647974 -2.891353 -14.306993
-22.109844 1.031212 -14.60116
-31.439205 -2.269812 -21.386208
-32.229416 1.740838 -25.488451
-23.97175 2.39237 -18.09305
-25.61726 2.527766 -19.974312
-24.32427 4.26298 -20.114042
-22.910341 6.16532 -20.132353
-28.577105 -9.855154 -12.321551
-28.8162 -8.10172 -14.118732
-27.189005 -8.110516 -12.435557
-23.182941 -2.659548 -12.739378
-23.330259 -0.960459 -14.442664
-21.986835 -0.598105 -12.960964
-27.077518 -11.224742 -9.183144
-28.440969 -12.884582 -9.098914
-28.410307 -11.416012 -10.639634
-29.944756 -11.505733 -12.265027
-29.405161 -4.54632 -17.642887
-29.684305 -2.557502 -19.530064
-29.064074 2.937716 -23.610876
-30.53479 1.360792 -23.578466
-30.851788 3.27651 -25.548573
-25.629225 -7.919911 -10.836685
-26.638506 -1.146644 -17.861467
-28.346878 -1.045821 -19.556831
-26.960611 0.759686 -19.780443
-27.387985 2.556302 -21.727621
-27.675831 4.556897 -23.762186
-28.892666 -6.23195 -15.770092
-27.627108 -4.576051 -15.936668
-25.77836 -6.322477 -12.525937
-26.029322 -4.675218 -14.254846
-26.308887 -2.891922 -16.063923
-24.933048 -1.084218 -16.17808
-23.57221 0.655332 -16.139067
-22.373621 2.613851 -16.336149
-30.181883 -0.601928 -21.601242
-31.76309 -0.136483 -23.444796
-20.893139 1.544826 -13.212447
-20.902803 3.205958 -14.737059
-21.409838 6.408063 -18.332033
-21.724512 8.138635 -20.33255
-21.968918 9.994904 -22.378906
-22.532229 -2.336374 -12.091272
-23.157289 -3.438871 -11.964096
-22.506577 -3.115697 -11.31599
-30.334252 5.101306 -26.747926
-31.007976 4.270199 -26.615443
-30.178064 4.107617 -25.681057
-29.691326 6.000969 -27.003622
-30.334252 5.101306 -26.747926
-26.165809 5.294327 -22.968022
-26.991772 5.419564 -23.881028
-26.849868 4.43166 -22.84918
-30.267095 -8.850271 -14.914985
-30.915135 -9.73444 -14.828138
-25.109652 -6.221965 -11.819147
-25.703792 -7.121194 -11.681311
-25.035085 -7.020682 -10.974521
-25.338648 -3.783285 -14.280919
-25.262821 -4.62551 -13.446174
-24.572147 -3.733577 -13.472247
-29.180499 -13.717113 -9.114297
-29.181646 -12.990618 -9.89961
-30.830025 -10.615441 -13.996554
-30.723376 -11.450896 -13.140007
-30.051406 -10.670278 -13.121573
-30.915135 -9.73444 -14.828138
-30.830025 -10.615441 -13.996554
-31.560936 -5.884612 -18.603806
-31.370713 -6.847732 -17.651336
-32.113365 -3.04525 -21.407715
-31.258785 -3.211914 -20.455831
-32.276661 -2.040823 -22.376969
-32.113365 -3.04525 -21.407715
-32.850691 0.920917 -25.401753
-32.617528 -0.017743 -24.379925
-31.996253 0.802178 -24.466624
-33.051689 1.9066 -26.474089
-32.850691 0.920917 -25.401753
-20.340775 2.00841 -12.57723
-20.8361 0.864883 -12.446564
-20.394392 4.341838 -14.888084
-20.363354 3.519456 -14.067429
-21.058391 3.959019 -15.641375
-20.394392 4.341838 -14.888084
-20.860148 7.484604 -18.438716
-20.726282 6.76176 -17.562264
-21.017485 8.349889 -19.438975
-21.567175 7.273349 -19.332292
-20.860148 7.484604 -18.438716
-21.312647 11.115004 -22.447427
-21.226741 10.145957 -21.397191
-22.1113 10.912111 -23.446879
-21.312647 11.115004 -22.447427
-24.423417 5.220706 -21.07441
-25.273235 5.242427 -21.985475
-25.174087 4.284701 -21.025108
-23.716452 6.171876 -21.083565
-24.423417 5.220706 -21.07441
-23.617306 5.21415 -20.123197
-23.121944 7.080044 -21.220397
-23.716452 6.171876 -21.083565
-23.83963 -3.617675 -12.68844
-23.157289 -3.438871 -11.964096
-23.915458 -2.77545 -13.523186
-24.572147 -3.733577 -13.472247
-23.83963 -3.617675 -12.68844
-27.759244 -12.054662 -9.141029
-27.800626 -12.688499 -8.404696
-27.118901 -11.85858 -8.44681
-29.166315 -12.256333 -10.66997
-29.181646 -12.990618 -9.89961
-28.425638 -12.150297 -9.869274
-29.177532 -11.460873 -11.45233
-29.93354 -12.301194 -11.482666
-29.166315 -12.256333 -10.66997
-30.241763 -4.350167 -18.58417
-30.882366 -5.079389 -18.595306
-30.045764 -5.275541 -17.654023
-30.381335 -3.355759 -19.527759
-30.241763 -4.350167 -18.58417
-29.544733 -3.551911 -18.586475
-30.561755 -2.413657 -20.458136
-31.258785 -3.211914 -20.455831
-30.381335 -3.355759 -19.527759
-31.715054 3.46902 -26.554352
-32.403868 2.701184 -26.524291
-31.540602 2.508674 -25.518512
-31.715054 3.46902 -26.554352
-31.007976 4.270199 -26.615443
-25.685732 -8.684212 -10.102607
-26.297126 -8.753118 -10.810067
-26.353633 -9.517419 -10.07599
-25.001057 -7.699786 -10.214761
-25.685732 -8.684212 -10.102607
-25.035085 -7.020682 -10.974521
-25.001057 -7.699786 -10.214761
-21.902042 -2.725451 -10.71283
-22.506577 -3.115697 -11.31599
-26.429631 -10.944403 -8.545274
-27.118901 -11.85858 -8.44681
-26.409879 -10.336628 -9.275837
-26.429631 -10.944403 -8.545274
-26.353633 -9.517419 -10.07599
-27.021273 -10.405534 -9.983297
-26.409879 -10.336628 -9.275837
-27.915997 5.530064 -24.884621
-28.830253 5.720977 -25.910297
-28.590086 4.74781 -24.787863
-27.915997 5.530064 -24.884621
-26.991772 5.419564 -23.881028
-26.165809 5.294327 -22.968022
-25.273235 5.242427 -21.985475
-30.531251 -6.935241 -16.758505
-31.370713 -6.847732 -17.651336
-29.596167 -7.98372 -14.985291
-30.267095 -8.850271 -14.914985
-29.487128 -8.968271 -14.048426
-29.6344 -7.048834 -15.810972
-29.596167 -7.98372 -14.985291
-28.854433 -7.166835 -14.944412
-29.789516 -6.118356 -16.717626
-30.531251 -6.935241 -16.758505
-29.6344 -7.048834 -15.810972
-25.137339 -5.44914 -12.581719
-25.109652 -6.221965 -11.819147
-25.903841 -5.498848 -13.390391
-25.137339 -5.44914 -12.581719
-25.262821 -4.62551 -13.446174
-28.530063 -13.572224 -8.358321
-27.800626 -12.688499 -8.404696
-28.530063 -13.572224 -8.358321
-29.180499 -13.717113 -9.114297
-30.673944 -12.328732 -12.30028
-29.93354 -12.301194 -11.482666
-30.673944 -12.328732 -12.30028
-30.723376 -11.450896 -13.140007
-31.560936 -5.884612 -18.603806
-30.882366 -5.079389 -18.595306
-32.438603 -0.974158 -23.406263
-32.276661 -2.040823 -22.376969
-31.601147 -1.203148 -22.415502
-32.438603 -0.974158 -23.406263
-32.617528 -0.017743 -24.379925
-33.051689 1.9066 -26.474089
-32.403868 2.701184 -26.524291
-29.691326 6.000969 -27.003622
-28.830253 5.720977 -25.910297
-21.37941 -1.653617 -10.843798
-21.902042 -2.725451 -10.71283
-21.330289 -0.91413 -11.561923
-21.37941 -1.653617 -10.843798
-21.382948 -0.206583 -12.320823
-21.934176 -1.305652 -12.202065
-21.330289 -0.91413 -11.561923
-21.439987 0.473361 -13.086706
-21.382948 -0.206583 -12.320823
-20.8361 0.864883 -12.446564
-20.358522 2.68889 -13.305124
-20.340775 2.00841 -12.57723
-20.897971 2.375392 -13.974753
-20.358522 2.68889 -13.305124
-20.363354 3.519456 -14.067429
-21.793799 3.662966 -16.44092
-21.638212 2.909904 -15.536604
-21.058391 3.959019 -15.641375
-21.956902 4.543052 -17.416821
-22.536723 3.493938 -17.312049
-21.793799 3.662966 -16.44092
-21.311908 5.560072 -17.438862
-20.726282 6.76176 -17.562264
-22.054831 5.391044 -18.309991
-21.956902 4.543052 -17.416821
-21.311908 5.560072 -17.438862
-22.529029 8.066701 -21.320495
-23.121944 7.080044 -21.220397
-22.317426 7.151978 -20.232451
-21.104538 9.217822 -20.374013
-21.017485 8.349889 -19.438975
-21.846715 9.066769 -21.355728
-21.104538 9.217822 -20.374013
-21.226741 10.145957 -21.397191
-22.651232 8.994836 -22.343674
-22.529029 8.066701 -21.320495
-21.846715 9.066769 -21.355728
-22.783155 9.929001 -23.375214
-22.651232 8.994836 -22.343674
-22.783155 9.929001 -23.375214
-22.1113 10.912111 -23.446879
3 0 17 15
3 0 18 17
3 1 21 19
3 3 55 57
3 55 22 56
3 55 56 57
3 3 24 22
3 1 27 25
3 1 19 27
3 2 30 29
3 4 33 31
3 4 58 60
3 60 59 33
3 58 59 60
3 4 61 62
3 5 37 35
3 7 38 16
3 7 39 38
3 7 63 65
3 65 64 39
3 63 64 65
3 8 66 67
3 10 40 20
3 10 41 40
3 68 42 69
3 70 69 34
3 68 69 70
3 11 71 73
3 71 43 72
3 71 72 73
3 11 44 43
3 11 45 44
3 12 46 23
3 12 47 46
3 75 74 26
3 8 76 78
3 78 77 28
3 76 77 78
3 8 79 80
3 9 81 82
3 13 83 84
3 13 85 86
3 6 48 36
3 14 49 32
3 14 87 89
3 89 88 49
3 87 88 89
3 14 90 91
3 92 50 93
3 94 51 95
3 97 96 51
3 98 52 99
3 100 53 101
3 102 101 52
3 100 101 102
3 103 54 104
3 106 105 54
3 15 16 5
3 17 16 15
3 17 7 16
3 17 107 109
3 109 108 7
3 107 108 109
3 18 110 112
3 112 111 17
3 110 111 112
3 18 113 114
3 19 20 8
3 21 20 19
3 21 10 20
3 22 115 116
3 22 117 119
3 117 11 118
3 117 118 119
3 22 23 11
3 24 23 22
3 24 12 23
3 25 120 122
3 120 26 121
3 120 121 122
3 27 26 25
3 27 123 125
3 125 124 26
3 123 124 125
3 27 126 128
3 126 28 127
3 126 127 128
3 19 28 27
3 19 8 28
3 29 129 131
3 131 130 9
3 129 130 131
3 30 132 134
3 134 133 29
3 132 133 134
3 30 135 137
3 135 13 136
3 135 136 137
3 31 32 6
3 33 32 31
3 33 14 32
3 33 138 140
3 140 139 14
3 138 139 140
3 142 141 33
3 143 34 144
3 145 144 1
3 143 144 145
3 146 34 147
3 149 148 34
3 150 3 151
3 152 25 153
3 154 25 155
3 156 1 157
3 158 157 25
3 156 157 158
3 35 36 2
3 37 36 35
3 37 6 36
3 16 37 5
3 38 37 16
3 38 6 37
3 38 31 6
3 39 31 38
3 39 4 31
3 39 159 161
3 161 160 4
3 159 160 161
3 163 162 39
3 165 164 7
3 166 9 167
3 20 168 170
3 170 169 8
3 168 169 170
3 40 171 173
3 173 172 20
3 171 172 173
3 40 174 176
3 174 9 175
3 174 175 176
3 40 29 9
3 41 29 40
3 41 2 29
3 34 21 1
3 42 21 34
3 42 10 21
3 177 42 178
3 43 179 181
3 179 42 180
3 179 180 181
3 43 10 42
3 43 41 10
3 44 41 43
3 44 2 41
3 44 35 2
3 45 35 44
3 45 5 35
3 23 45 11
3 46 45 23
3 46 5 45
3 46 15 5
3 47 15 46
3 47 0 15
3 26 182 183
3 185 184 26
3 28 186 187
3 189 188 28
3 191 190 9
3 36 30 2
3 48 30 36
3 48 13 30
3 32 48 6
3 49 48 32
3 49 13 48
3 49 192 194
3 194 193 13
3 192 193 194
3 196 195 49
3 198 197 14
3 200 199 4
3 201 3 202
3 203 3 204
3 205 24 206
3 207 206 3
3 205 206 207
3 50 208 210
3 208 24 209
3 208 209 210
3 50 12 24
3 211 50 212
3 51 213 215
3 213 50 214
3 213 214 215
3 51 12 50
3 51 47 12
3 216 47 217
3 218 217 51
3 216 217 218
3 219 0 220
3 221 220 47
3 219 220 221
3 52 222 223
3 52 224 226
3 224 0 225
3 224 225 226
3 52 18 0
3 53 18 52
3 53 227 229
3 229 228 18
3 227 228 229
3 230 53 231
3 54 232 234
3 232 53 233
3 232 233 234
3 54 235 237
3 237 236 53
3 235 236 237
3 54 238 239
3 241 240 54
