ply
format ascii 1.0
element vertex 193
property float x
property float y
property float z
element face 170
property list uchar int vertex_index
end_header
24.891895 1.17836 -14.593688
24.794682 -1.468041 -11.107872
27.859087 -1.779743 -14.568269
27.882368 -4.733864 -10.970621
28.120338 4.992857 -22.296413
25.033373 4.244755 -18.36076
27.960791 1.498735 -18.365065
28.183262 -7.255598 -7.658573
23.863245 -2.184386 -8.344473
23.59919 -1.038158 -9.763303
25.054792 -2.841982 -9.5476
26.32527 -3.197081 -10.933547
26.535955 -4.550164 -9.331366
23.363482 2.762305 -14.566969
23.367144 4.276382 -16.430588
24.812096 2.716088 -16.330843
26.383698 2.873666 -18.251097
26.451361 1.266361 -16.501534
29.373497 -3.200797 -14.666385
29.338476 -1.524053 -16.51383
29.421282 -7.615558 -9.056066
23.334837 0.252174 -11.221595
24.839849 -0.275582 -12.727106
26.389563 -0.293051 -14.619729
26.27965 -1.764397 -12.708573
27.749031 -3.256641 -12.6768
29.304518 -4.767179 -12.730738
26.689072 6.252254 -22.3011
28.270779 6.897289 -24.46884
23.572025 5.627775 -18.305048
24.989634 6.010427 -20.336126
26.540987 4.523632 -20.254681
28.115641 3.211416 -20.381588
27.868387 -0.180769 -16.403662
29.518801 0.063115 -18.43416
27.374329 -7.683801 -4.762673
27.064228 -6.834277 -6.236911
26.577856 -5.607552 -7.682651
27.896688 -6.002172 -9.213383
29.258173 -6.261288 -10.759839
30.753246 -6.234203 -12.756239
25.125204 -3.387689 -8.774883
24.459018 -2.513184 -8.946036
24.529431 -3.058891 -8.173319
25.865786 -4.24178 -8.666766
25.795374 -3.696073 -9.439483
25.125204 -3.387689 -8.774883
24.127689 1.970333 -14.580329
23.384678 2.064073 -13.704313
24.148885 1.272101 -13.717672
30.08936 -3.112142 -15.597279
30.089851 -3.922667 -14.68961
28.769771 1.675172 -19.379302
28.847196 2.531513 -20.387563
28.038216 2.355075 -19.373327
30.25452 -0.651703 -18.476233
29.428638 -0.730469 -17.473995
30.164358 -1.445287 -17.516067
30.325707 0.275448 -19.518628
30.25452 -0.651703 -18.476233
28.131697 -8.539223 -4.599258
27.663514 -8.123252 -4.096725
27.623745 -7.044937 -6.947742
27.739555 -7.584774 -6.113796
28.299072 -7.795435 -6.824628
30.030985 -6.988374 -10.832617
29.339728 -6.938423 -9.907953
30.11254 -7.665509 -9.98073
30.778522 -6.974832 -11.830817
30.00571 -6.247746 -11.758039
30.030985 -6.988374 -10.832617
23.731217 -1.611272 -9.053888
23.051293 -0.648475 -9.191783
23.183321 -1.221589 -8.482368
28.952405 5.289734 -23.394621
28.906689 4.383249 -22.406913
22.702095 2.940681 -13.804907
23.384678 2.064073 -13.704313
22.694501 3.561738 -14.618333
22.702095 2.940681 -13.804907
23.365313 3.519343 -15.498779
22.696332 4.318776 -15.550142
22.694501 3.561738 -14.618333
30.071849 -2.27377 -16.521001
29.355987 -2.362425 -15.590107
30.08936 -3.112142 -15.597279
30.164358 -1.445287 -17.516067
30.071849 -2.27377 -16.521001
28.905781 -8.055232 -7.50344
28.299072 -7.795435 -6.824628
29.524791 -8.235212 -8.202186
28.802272 -7.435578 -8.357319
28.905781 -8.055232 -7.50344
30.198169 -8.395677 -9.046145
29.524791 -8.235212 -8.202186
30.11254 -7.665509 -9.98073
30.198169 -8.395677 -9.046145
22.891851 -0.071776 -9.874429
23.051293 -0.648475 -9.191783
22.759674 0.573389 -10.603575
22.891851 -0.071776 -9.874429
23.467014 -0.392992 -10.492449
22.679659 1.144637 -11.347003
22.759674 0.573389 -10.603575
23.370356 0.809008 -12.031626
22.679659 1.144637 -11.347003
24.122861 0.54513 -12.784381
23.370356 0.809008 -12.031626
24.087343 -0.011704 -11.97435
24.865872 0.451389 -13.660397
24.148885 1.272101 -13.717672
24.122861 0.54513 -12.784381
30.055361 -4.705858 -13.721787
30.089851 -3.922667 -14.68961
29.339008 -3.983988 -13.698562
23.341922 -1.683606 -7.837331
23.183321 -1.221589 -8.482368
24.000551 -2.674325 -7.625876
23.341922 -1.683606 -7.837331
24.529431 -3.058891 -8.173319
24.000551 -2.674325 -7.625876
26.663902 7.219362 -23.334508
25.882597 6.923736 -22.258815
27.454756 7.54188 -24.418378
26.663902 7.219362 -23.334508
27.479926 6.574771 -23.38497
28.300981 7.870154 -25.537909
27.454756 7.54188 -24.418378
29.027626 6.24195 -24.480835
28.195559 5.945073 -23.382627
28.952405 5.289734 -23.394621
29.037354 7.250595 -25.548635
29.027626 6.24195 -24.480835
28.300981 7.870154 -25.537909
29.037354 7.250595 -25.548635
22.69071 5.064848 -16.491546
22.696332 4.318776 -15.550142
22.79315 5.740545 -17.428776
22.69071 5.064848 -16.491546
23.469584 4.952078 -17.367818
22.819935 6.42879 -18.318008
22.79315 5.740545 -17.428776
23.542074 6.451028 -19.239773
22.819935 6.42879 -18.318008
24.250878 6.642354 -20.255312
23.542074 6.451028 -19.239773
24.280829 5.819101 -19.320587
25.032878 6.802822 -21.276328
24.250878 6.642354 -20.255312
25.839353 6.131341 -21.318613
25.882597 6.923736 -22.258815
25.032878 6.802822 -21.276328
28.904341 3.492528 -21.4495
28.906689 4.383249 -22.406913
28.11799 4.102137 -21.339001
28.904341 3.492528 -21.4495
28.847196 2.531513 -20.387563
29.548776 0.957363 -19.413849
28.769771 1.675172 -19.379302
28.739796 0.780925 -18.399612
29.548776 0.957363 -19.413849
30.325707 0.275448 -19.518628
26.996811 -7.293775 -4.286306
27.663514 -8.123252 -4.096725
26.69376 -6.843856 -4.9722
26.996811 -7.293775 -4.286306
27.894605 -8.009536 -5.376677
28.131697 -8.539223 -4.599258
27.219279 -7.259039 -5.499792
27.894605 -8.009536 -5.376677
27.739555 -7.584774 -6.113796
26.538709 -6.419094 -5.709319
26.69376 -6.843856 -4.9722
27.219279 -7.259039 -5.499792
26.310375 -5.927885 -6.417161
26.538709 -6.419094 -5.709319
26.067189 -5.314522 -7.140031
26.310375 -5.927885 -6.417161
26.821042 -6.220915 -6.959781
25.886736 -4.770474 -7.842408
26.067189 -5.314522 -7.140031
26.556905 -5.078858 -8.507008
25.865786 -4.24178 -8.666766
25.886736 -4.770474 -7.842408
30.779725 -5.43937 -13.734537
30.055361 -4.705858 -13.721787
30.028882 -5.500691 -12.743489
31.498789 -7.046166 -12.744264
30.778522 -6.974832 -11.830817
31.474007 -6.225134 -13.704631
31.498789 -7.046166 -12.744264
30.779725 -5.43937 -13.734537
31.474007 -6.225134 -13.704631
3 41 10 42
3 43 42 8
3 41 42 43
3 44 12 45
3 46 45 10
3 44 45 46
3 0 47 49
3 47 13 48
3 47 48 49
3 0 15 13
3 0 17 15
3 51 50 18
3 1 21 9
3 1 22 21
3 1 24 22
3 3 25 11
3 3 26 25
3 4 28 27
3 5 29 14
3 5 30 29
3 5 31 30
3 6 32 16
3 6 52 54
3 54 53 32
3 52 53 54
3 2 33 23
3 55 34 56
3 57 56 19
3 55 56 57
3 59 58 34
3 60 35 61
3 7 62 64
3 62 36 63
3 62 63 64
3 7 37 36
3 7 38 37
3 65 39 66
3 67 66 20
3 65 66 67
3 68 40 69
3 70 69 39
3 68 69 70
3 8 71 73
3 71 9 72
3 71 72 73
3 10 9 8
3 10 1 9
3 10 11 1
3 12 11 10
3 12 3 11
3 75 74 4
3 13 76 77
3 13 78 79
3 13 80 82
3 80 14 81
3 80 81 82
3 15 14 13
3 15 5 14
3 15 16 5
3 17 16 15
3 17 6 16
3 18 19 2
3 83 19 84
3 85 84 18
3 83 84 85
3 87 86 19
3 88 7 89
3 90 20 91
3 92 91 7
3 90 91 92
3 93 20 94
3 96 95 20
3 9 97 98
3 21 99 101
3 101 100 9
3 99 100 101
3 21 102 103
3 21 104 105
3 22 106 108
3 108 107 21
3 106 107 108
3 22 109 111
3 109 0 110
3 109 110 111
3 22 23 0
3 24 23 22
3 24 2 23
3 11 24 1
3 25 24 11
3 25 2 24
3 25 18 2
3 26 18 25
3 26 112 114
3 114 113 18
3 112 113 114
3 115 8 116
3 117 8 118
3 120 119 8
3 27 121 122
3 28 123 125
3 125 124 27
3 123 124 125
3 28 126 127
3 128 28 129
3 130 129 4
3 128 129 130
3 131 28 132
3 134 133 28
3 14 135 136
3 29 137 139
3 139 138 14
3 137 138 139
3 29 140 141
3 29 142 143
3 30 144 146
3 146 145 29
3 144 145 146
3 30 147 148
3 30 149 151
3 149 27 150
3 149 150 151
3 31 27 30
3 31 4 27
3 16 31 5
3 32 31 16
3 32 4 31
3 32 152 154
3 154 153 4
3 152 153 154
3 156 155 32
3 23 17 0
3 33 17 23
3 33 6 17
3 19 33 2
3 34 33 19
3 34 6 33
3 34 157 159
3 159 158 6
3 157 158 159
3 161 160 34
3 35 162 163
3 35 164 165
3 166 35 167
3 36 168 170
3 168 35 169
3 168 169 170
3 36 171 173
3 173 172 35
3 171 172 173
3 36 174 175
3 37 176 178
3 178 177 36
3 176 177 178
3 37 179 180
3 37 181 183
3 181 12 182
3 181 182 183
3 38 12 37
3 38 3 12
3 20 38 7
3 39 38 20
3 39 3 38
3 39 26 3
3 40 26 39
3 40 184 186
3 186 185 26
3 184 185 186
3 187 40 188
3 189 40 190
3 192 191 40
