ply
format ascii 1.0
element vertex 591
property float x
property float y
property float z
element face 684
property list uchar int vertex_index
end_header
-39.887543 -9.875766 17.442411
-35.786701 -43.277035 20.051643
-35.9617 -26.133116 28.038187
-38.436253 -27.689528 12.107186
-38.687088 -17.925934 23.372663
-38.888065 -27.122202 20.65299
-39.089279 -19.2829 15.5522
-34.725185 -46.925648 3.07241
-37.724838 -11.030354 9.859914
-33.102451 -49.748081 13.573205
-37.121796 -42.093597 10.197
-36.693016 -35.222507 24.837915
-38.52737 -35.706154 16.404354
-38.312817 -34.029602 6.911961
-35.84803 -19.806217 7.61036
-35.924957 -26.096584 3.682746
-39.469349 -13.722162 20.557068
-39.403805 -18.560732 19.41765
-39.522457 -14.608348 16.496391
-33.551647 -46.972687 21.595568
-32.145267 -50.410793 18.576178
-34.610695 -46.72879 16.894213
-35.289314 -46.100449 11.973898
-36.586639 -43.036373 15.150571
-36.447426 -30.660276 26.655968
-39.033596 -27.726284 16.483807
-38.794327 -31.710592 18.778147
-38.859272 -31.604057 14.350604
-38.612087 -35.074757 11.718349
-38.361786 -31.118519 9.846937
-36.566586 -15.621774 8.857738
-34.111698 -15.771411 5.478236
-33.79435 -22.282486 2.2928
-36.687065 -28.429853 1.111183
-37.534077 -22.070984 25.833212
-37.864346 -26.530298 24.575151
-38.844193 -22.633142 22.173441
-39.218647 -23.187757 18.161631
-38.668499 -23.611755 13.996209
-39.317024 -10.597344 13.572127
-33.840145 -48.696014 8.406509
-35.938046 -44.779533 6.672934
-37.525028 -40.539471 5.181339
-37.020378 -17.393944 26.95224
-38.327488 -13.280492 24.375765
-39.296646 -9.174217 21.479223
-36.413857 -39.539013 22.797838
-38.058491 -31.188473 22.824379
-37.967056 -35.534634 20.753374
-37.494442 -39.451233 18.311321
-37.965866 -39.217937 13.488289
-38.148464 -38.227379 8.658536
-38.17207 -36.546329 3.638548
-38.503643 -15.289291 12.627016
-37.837139 -19.796106 11.522815
-37.399246 -23.690491 9.939051
-35.640377 -23.294975 5.93857
-37.295902 -27.15019 7.829859
-37.572598 -30.13863 5.42334
-37.890221 -32.363922 2.275804
-39.718502 -11.837421 19.031565
-39.637115 -14.215826 18.606501
-39.730106 -12.209197 16.986084
-34.753021 -45.046638 20.928299
-34.173851 -46.818802 19.351665
-35.265038 -45.003941 18.606007
-35.638165 -44.931793 16.085316
-36.244583 -43.209984 17.636999
-35.34708 -30.422169 28.32653
-38.810333 -27.611383 14.270337
-38.94865 -29.659445 15.461941
-38.737331 -29.554924 13.292209
-38.672501 -31.493637 12.127586
-38.381756 -29.494892 11.019722
-38.140842 -19.951672 24.687527
-38.308403 -22.235041 24.050444
-38.79776 -20.291265 22.749598
-39.35944 -19.052141 17.500528
-39.309227 -21.020544 18.939812
-39.209419 -21.198494 16.887642
-39.04834 -23.56502 16.091923
-38.856182 -21.53237 14.804499
-32.635799 -50.163574 16.151094
-31.36215 -51.945942 16.982344
-32.6726 -50.590252 9.067323
-36.270885 -44.147865 11.002405
-35.627369 -45.496559 9.313959
-36.512039 -43.59866 8.536114
-36.80994 -42.733025 5.954223
-37.292652 -41.511436 7.635438
-35.010826 -19.320288 29.659266
-36.232296 -19.529894 28.097467
-35.916359 -17.240068 28.580067
-37.384838 -13.214697 26.240795
-38.85907 -11.292706 22.937923
-35.778927 -34.919861 26.710941
-35.861469 -37.064003 25.74671
-35.790569 -39.068115 24.778715
-36.652409 -37.400921 23.788774
-38.480988 -27.037663 22.649084
-37.94487 -29.035078 23.840443
-38.526859 -29.260691 21.768925
-38.70549 -33.769276 17.503698
-38.464905 -33.507599 19.820192
-38.337036 -35.544151 18.654757
-37.761372 -37.560452 19.675318
-38.090542 -37.556763 17.475328
-37.771633 -39.441525 15.943411
-38.293022 -37.481583 15.08565
-38.484467 -34.753174 9.23592
-38.413391 -36.756435 10.296845
-38.358009 -36.120754 7.743586
-38.178322 -37.406017 6.110194
-38.264214 -35.333164 5.276776
-38.641602 -10.721183 11.644296
-38.882057 -13.008667 13.056209
-38.102535 -13.186568 11.181181
-36.153458 -17.845276 8.291886
-37.217979 -17.757687 10.149066
-36.908157 -19.880304 9.522492
-37.534077 -21.865908 10.667974
-36.655296 -21.841465 8.699372
-34.975918 -24.26828 3.064724
-34.712738 -22.859249 4.077953
-35.771843 -24.813768 4.989667
-36.546833 -25.30401 6.851077
-36.601818 -26.6647 5.705684
-37.390049 -28.694649 6.620368
-36.843327 -28.0599 4.630004
-37.389874 -30.362064 1.707813
-39.141983 -15.910425 21.919804
-39.180862 -18.140242 21.420494
-39.463734 -16.183969 19.972607
-39.514156 -16.617331 18.027859
-39.313419 -17.033855 16.140057
-32.923763 -48.687984 20.127474
-33.453213 -48.494339 17.914227
-33.808044 -48.401329 15.350636
-34.22308 -47.960693 12.854019
-34.964962 -46.495682 14.499435
-35.987003 -44.594765 13.587056
-36.847095 -42.723145 12.678541
-35.61599 -32.623672 27.558664
-36.57827 -33.064228 25.841284
-39.066467 -27.432222 18.478931
-38.871777 -29.433189 19.659883
-38.989391 -29.787264 17.620953
-38.907505 -31.771839 16.578114
-38.801495 -33.591404 15.32487
-38.64061 -35.377132 14.138489
-38.756294 -33.379597 13.151299
-38.589291 -33.173965 10.766335
-38.357819 -32.726086 8.554228
-37.090702 -13.385955 9.361156
-35.813534 -13.70689 7.515121
-35.325741 -15.840899 7.049081
-34.9263 -17.827847 6.441706
-32.530987 -20.305357 1.537039
-32.906647 -21.536171 0.607506
-34.22113 -23.560587 1.29631
-35.315269 -25.455965 1.793755
-36.30838 -27.402769 2.468199
-35.739182 -26.431023 0.56925
-35.190575 -43.269474 22.313223
-36.817551 -23.971249 26.954861
-36.948658 -26.406559 26.478876
-37.720352 -24.333048 25.226372
-38.409298 -24.726877 23.396025
-38.876781 -24.81563 21.510685
-39.187435 -20.566414 20.809017
-39.155468 -22.962925 20.183773
-39.117088 -25.107819 19.48085
-39.121532 -25.490145 17.340338
-38.906857 -25.669554 15.152436
-38.501541 -25.622202 13.015118
-31.945644 -51.727551 7.47494
-33.11657 -49.853909 6.504859
-34.274841 -47.872784 5.695596
-34.949623 -46.741035 7.597623
-35.307674 -45.938255 4.935729
-36.297367 -43.812225 4.075676
-37.086922 -41.763248 3.453292
-37.677151 -39.656036 2.647775
-35.617489 -23.898157 28.677389
-36.521732 -21.721981 27.575733
-37.325432 -19.682699 26.3699
-38.00322 -17.641809 25.115156
-36.651661 -15.079846 27.516552
-37.706184 -15.333272 25.731506
-38.5467 -15.458604 23.86264
-39.01186 -13.617016 22.522699
-39.411591 -11.579511 21.058716
-39.745064 -9.537573 19.430042
-35.520947 -41.271748 23.662544
-36.143528 -41.502403 21.502798
-37.24128 -28.543011 25.601276
-37.308609 -30.953743 24.914085
-37.420135 -33.089157 23.956648
-38.525227 -31.410936 20.838598
-38.039783 -33.31868 21.942509
-37.410004 -35.347927 22.920059
-37.276829 -37.456566 21.859495
-37.020397 -39.547985 20.63674
-36.665131 -41.47554 19.282349
-37.057003 -41.382206 16.926514
-37.351116 -41.141319 14.503412
-37.565105 -40.748569 12.034211
-38.40387 -37.147011 12.740726
-38.11195 -38.684471 11.064146
-37.712578 -40.24707 9.489106
-37.86277 -39.407684 6.936963
-37.939056 -38.648987 4.414774
-38.037354 -37.62748 1.976408
-39.441463 -12.649778 15.002096
-39.124599 -15.109071 14.545974
-38.833981 -17.368103 14.075858
-37.648308 -15.616595 10.76101
-38.122288 -17.571466 12.066286
-38.562859 -19.613943 13.510547
-38.26804 -21.847353 12.656407
-38.109238 -23.834982 11.932865
-37.966583 -25.831114 10.919712
-33.688171 -17.626854 4.758682
-34.727791 -19.613762 5.824079
-33.551556 -20.864407 3.218842
-34.67329 -21.300322 5.086529
-35.734314 -21.6884 6.912224
-36.571487 -23.653303 7.89894
-37.255192 -25.428211 8.843122
-37.920906 -27.462191 10.000051
-37.89732 -29.053318 8.775524
-37.989586 -30.671623 7.689392
-38.06023 -32.06292 6.3248
-37.097389 -29.279148 3.185118
-37.72694 -31.310951 3.966157
-38.113922 -33.314796 4.616249
-38.157425 -34.417007 2.928319
-36.097796 -27.285649 27.704091
-35.486231 -27.174597 28.533444
-34.428091 -47.420428 2.158086
-33.896546 -48.386268 2.574378
-34.19364 -47.891489 3.488702
-32.446537 -50.716535 13.984236
-32.213211 -50.924282 15.273181
-32.869125 -49.955827 14.86215
-32.692464 -50.439543 12.697655
-32.446537 -50.716535 13.984236
-33.282887 -49.526245 12.289499
-32.692464 -50.439543 12.697655
-34.789606 -18.245939 29.942828
-34.266666 -19.268241 30.455721
-35.242373 -17.205829 29.403229
-35.463593 -18.280178 29.119667
-34.789606 -18.245939 29.942828
-33.237705 -47.830336 20.861521
-32.599651 -48.709711 21.255373
-32.913593 -47.852063 21.98942
-35.537396 -12.650431 6.981056
-36.182409 -12.532877 7.796223
-34.718719 -15.806155 6.263659
-34.931602 -14.7796 6.476522
-34.324581 -14.744856 5.691099
-32.550524 -21.175798 -0.200297
-32.23539 -20.583071 0.228439
-34.406416 -23.981664 0.659002
-33.827648 -23.078973 0.373081
-34.953485 -24.929353 0.907725
-34.7682 -24.508276 1.545033
-34.406416 -23.981664 0.659002
-35.165442 -25.416882 0.295472
-35.527226 -25.943494 1.181503
-34.953485 -24.929353 0.907725
-34.83675 -43.168506 23.385565
-34.624145 -44.183497 22.722391
-31.488025 -51.247377 19.081081
-31.898722 -50.40168 19.749781
-30.714059 -52.794428 17.424236
-30.929043 -52.720059 16.112045
-31.685647 -52.1099 8.811144
-31.297455 -52.723839 7.924378
-34.941502 -46.75787 11.124987
-34.408384 -47.687992 11.565048
-34.756197 -47.030571 12.413958
-35.473584 -22.710009 28.92852
-34.988029 -23.672424 29.414436
-35.925705 -21.621921 28.377692
-36.06961 -22.810069 28.126561
-35.473584 -22.710009 28.92852
-36.447492 -13.966254 27.767905
-36.079031 -15.047968 28.309292
-39.379244 -11.623561 14.287111
-39.594657 -11.409131 15.236285
-39.532438 -10.382914 14.5213
-33.626182 -18.510199 4.415234
-33.049518 -17.52181 3.932529
-34.145993 -19.503653 4.947933
-34.207981 -18.620308 5.291381
-33.626182 -18.510199 4.415234
-35.178921 -29.319123 28.677615
-34.729534 -30.331771 29.05941
-35.790486 -29.430175 27.848263
-35.178921 -29.319123 28.677615
-36.340659 -29.549228 27.012982
-35.897253 -30.541222 27.491249
-35.790486 -29.430175 27.848263
-33.587289 -14.768054 4.864284
-34.324581 -14.744856 5.691099
-31.576386 -51.815466 15.688806
-31.998974 -51.054758 16.566719
-32.213211 -50.924282 15.273181
-30.929043 -52.720059 16.112045
-31.576386 -51.815466 15.688806
-32.477539 -50.860628 10.444714
-32.049125 -51.541251 9.607335
-33.067961 -49.94733 10.036558
-32.477539 -50.860628 10.444714
-33.651733 -49.000211 9.70615
-33.256372 -49.643133 8.736916
-33.067961 -49.94733 10.036558
-34.488823 -20.290615 30.176613
-34.266666 -19.268241 30.455721
-35.170252 -20.421075 29.419458
-34.488823 -20.290615 30.176613
-35.621561 -19.425091 28.878366
-35.780987 -20.525878 28.638559
-35.170252 -20.421075 29.419458
-37.223821 -12.09702 26.433822
-36.814081 -13.033679 27.130026
-37.703499 -12.151177 25.56977
-37.223821 -12.09702 26.433822
-38.174824 -12.184075 24.637255
-37.856163 -13.247594 25.30828
-37.703499 -12.151177 25.56977
-38.440615 -11.190182 23.918334
-38.593279 -12.286599 23.656844
-38.174824 -12.184075 24.637255
-38.713432 -10.19078 23.229132
-38.440615 -11.190182 23.918334
-38.93222 -9.131535 22.499783
-39.077858 -10.233462 22.208573
-38.713432 -10.19078 23.229132
-35.309746 -35.861671 27.144345
-35.235771 -34.762434 27.554316
-35.351017 -36.933743 26.66223
-35.309746 -35.861671 27.144345
-35.820198 -35.991932 26.228825
-35.375956 -37.986278 26.185359
-35.351017 -36.933743 26.66223
-35.826019 -38.066059 25.262712
-35.340505 -38.988335 25.701361
-35.375956 -37.986278 26.185359
-37.24807 -29.861788 0.655981
-37.038469 -29.395958 1.409498
-36.896665 -28.895683 0.357666
-37.537076 -30.828963 0.884781
-37.24807 -29.861788 0.655981
-37.787249 -31.829892 1.168777
-37.640047 -31.362993 1.991808
-37.537076 -30.828963 0.884781
-37.971739 -32.860066 1.453443
-37.787249 -31.829892 1.168777
-35.449131 -45.420795 1.566796
-34.953465 -46.412558 1.857532
-35.220852 -45.933886 2.781675
-32.287971 -49.540275 20.525429
-32.599651 -48.709711 21.255373
-32.534515 -49.549388 19.351826
-31.898722 -50.40168 19.749781
-32.287971 -49.540275 20.525429
-34.888837 -31.412945 28.735529
-34.729534 -30.331771 29.05941
-35.023292 -32.513696 28.351596
-34.888837 -31.412945 28.735529
-35.481535 -31.52292 27.942597
-35.154303 -33.614339 27.978177
-35.023292 -32.513696 28.351596
-35.697458 -33.771766 27.134802
-35.235771 -34.762434 27.554316
-35.154303 -33.614339 27.978177
-36.820994 -12.372409 8.71924
-37.40777 -12.208154 9.610535
-37.138061 -11.194609 8.968619
-36.452118 -13.546422 8.438138
-36.820994 -12.372409 8.71924
-36.182409 -12.532877 7.796223
-35.175499 -13.712595 6.709542
-35.537396 -12.650431 6.981056
-35.569637 -14.773895 7.282101
-35.175499 -13.712595 6.709542
-34.931602 -14.7796 6.476522
-32.04756 -19.967664 0.693206
-31.927431 -19.419083 1.16291
-32.718817 -20.920764 1.072272
-32.04756 -19.967664 0.693206
-32.23539 -20.583071 0.228439
-33.170406 -22.066765 0.028679
-32.550524 -21.175798 -0.200297
-33.563889 -22.548379 0.951908
-33.170406 -22.066765 0.028679
-33.827648 -23.078973 0.373081
-35.499909 -25.927544 -0.363606
-35.165442 -25.416882 0.295472
-35.99812 -26.891169 -0.095833
-35.499909 -25.927544 -0.363606
-36.472061 -27.890584 0.175133
-36.213123 -27.430438 0.840217
-35.99812 -26.891169 -0.095833
-36.896665 -28.895683 0.357666
-36.472061 -27.890584 0.175133
-33.216801 -46.891001 22.707422
-32.913593 -47.852063 21.98942
-33.804682 -46.035103 22.363563
-33.216801 -46.891001 22.707422
-34.405368 -45.072079 22.029929
-34.152334 -46.009663 21.261933
-33.804682 -46.035103 22.363563
-34.971798 -44.158056 21.620761
-34.405368 -45.072079 22.029929
-34.624145 -44.183497 22.722391
-34.428091 -47.420428 2.158086
-34.953465 -46.412558 1.857532
-39.817698 -10.022125 16.456442
-39.943026 -8.802198 16.713306
-39.524896 -9.303736 13.801845
-39.532438 -10.382914 14.5213
-39.236768 -9.516106 12.835273
-39.524896 -9.303736 13.801845
-38.899057 -9.578025 11.871357
-38.979313 -10.659263 12.608211
-39.236768 -9.516106 12.835273
-38.477301 -9.705668 10.915541
-38.899057 -9.578025 11.871357
-38.018919 -9.860254 10.02335
-38.18322 -10.875768 10.752105
-38.477301 -9.705668 10.915541
-37.519764 -9.997491 9.193322
-38.018919 -9.860254 10.02335
-37.138061 -11.194609 8.968619
-37.519764 -9.997491 9.193322
-31.096467 -52.014952 18.284165
-31.488025 -51.247377 19.081081
-31.753708 -51.178368 17.779261
-31.096467 -52.014952 18.284165
-30.714059 -52.794428 17.424236
-31.555246 -52.3402 6.627266
-31.297455 -52.723839 7.924378
-32.173185 -51.351454 6.126215
-31.555246 -52.3402 6.627266
-32.309122 -51.158901 8.271131
-31.685647 -52.1099 8.811144
-32.049125 -51.541251 9.607335
-32.758648 -50.414633 5.641174
-32.173185 -51.351454 6.126215
-32.531107 -50.79073 6.989899
-33.389332 -49.35562 5.204927
-32.758648 -50.414633 5.641174
-33.968468 -48.365057 4.800295
-33.389332 -49.35562 5.204927
-33.695706 -48.863347 6.100227
-34.500013 -47.399216 4.384003
-34.19364 -47.891489 3.488702
-33.968468 -48.365057 4.800295
-33.843201 -48.632551 11.929906
-33.282887 -49.526245 12.289499
-33.662766 -48.854387 13.213612
-33.843201 -48.632551 11.929906
-34.408384 -47.687992 11.565048
-34.216917 -48.055653 9.341293
-33.651733 -49.000211 9.70615
-35.110529 -46.455925 9.795018
-34.941502 -46.75787 11.124987
-35.458342 -45.798504 10.643929
-34.771656 -47.078163 8.93685
-35.110529 -46.455925 9.795018
-35.288496 -46.118797 8.455791
-34.394884 -47.718525 8.002066
-34.216917 -48.055653 9.341293
-34.771656 -47.078163 8.93685
-35.512096 -45.440189 3.713334
-35.220852 -45.933886 2.781675
-35.01643 -46.431951 4.004069
-36.006943 -44.377174 3.283307
-35.512096 -45.440189 3.713334
-35.80252 -44.87524 4.505702
-36.469942 -43.290447 2.861064
-36.006943 -44.377174 3.283307
-36.864719 -42.265958 2.549872
-36.469942 -43.290447 2.861064
-36.692144 -42.787736 3.764484
-37.223156 -41.223349 2.267399
-36.864719 -42.265958 2.549872
-37.51827 -40.169742 1.864641
-37.223156 -41.223349 2.267399
-37.382036 -40.709642 3.050534
-37.772228 -39.090999 1.417822
-37.51827 -40.169742 1.864641
-35.359541 -25.981638 28.792143
-35.486231 -27.174597 28.533444
-35.187435 -24.864159 29.111744
-34.988029 -23.672424 29.414436
-35.789594 -25.015636 28.357788
-35.359541 -25.981638 28.792143
-35.187435 -24.864159 29.111744
-36.377014 -20.625937 27.8366
-35.925705 -21.621921 28.377692
-35.780987 -20.525878 28.638559
-35.71138 -16.128079 28.84105
-35.242373 -17.205829 29.403229
-36.28401 -16.159957 28.04831
-35.71138 -16.128079 28.84105
-36.079031 -15.047968 28.309292
-37.018249 -14.147271 26.878673
-36.447492 -13.966254 27.767905
-36.814081 -13.033679 27.130026
-39.179213 -8.029788 21.752246
-38.93222 -9.131535 22.499783
-39.481321 -8.141898 20.726337
-39.179213 -8.029788 21.752246
-39.70553 -8.323576 19.701746
-39.520855 -9.355895 20.454633
-39.481321 -8.141898 20.726337
-39.866642 -8.476183 18.640794
-39.70553 -8.323576 19.701746
-39.937882 -8.64528 17.646979
-39.816304 -9.70667 18.436227
-39.866642 -8.476183 18.640794
-39.943026 -8.802198 16.713306
-39.937882 -8.64528 17.646979
-35.284767 -40.01107 25.19602
-35.340505 -38.988335 25.701361
-35.149956 -41.112887 24.637935
-35.284767 -40.01107 25.19602
-35.655758 -40.169932 24.22063
-35.001936 -42.169643 24.060226
-35.149956 -41.112887 24.637935
-35.355761 -42.270611 22.987884
-34.83675 -43.168506 23.385565
-35.001936 -42.169643 24.060226
-36.591274 -27.42237 26.924436
-36.097796 -27.285649 27.704091
-36.455179 -26.269838 27.258532
-36.737586 -28.490596 26.485636
-36.591274 -27.42237 26.924436
-37.094969 -27.474785 26.040076
-36.844353 -29.601644 26.128622
-36.340659 -29.549228 27.012982
-36.737586 -28.490596 26.485636
-37.95233 -38.076721 1.082138
-37.772228 -39.090999 1.417822
-37.857253 -38.641758 2.312092
-39.738979 -11.18884 16.228279
-39.808825 -11.042482 17.214247
-39.817698 -10.022125 16.456442
-39.585785 -12.429488 15.99409
-39.738979 -11.18884 16.228279
-39.594657 -11.409131 15.236285
-33.440643 -15.794545 4.670822
-33.587289 -14.768054 4.864284
-33.228879 -16.722267 4.311046
-33.049518 -17.52181 3.932529
-33.899935 -16.699133 5.118459
-33.440643 -15.794545 4.670822
-33.228879 -16.722267 4.311046
-32.471297 -19.624712 1.990988
-31.927431 -19.419083 1.16291
-32.981581 -19.904237 2.831889
-32.471297 -19.624712 1.990988
-33.041272 -20.584882 2.377941
-33.557875 -20.128976 3.645314
-32.981581 -19.904237 2.831889
-34.118742 -20.346933 4.579157
-33.557875 -20.128976 3.645314
-34.112423 -21.082365 4.152685
-34.700541 -20.457042 5.455304
-34.145993 -19.503653 4.947933
-34.118742 -20.346933 4.579157
-38.105341 -33.886608 1.779701
-38.023823 -33.390465 2.602062
-37.971739 -32.860066 1.453443
-38.164183 -34.960211 2.094721
-38.105341 -33.886608 1.779701
-38.171505 -36.024872 2.449836
-38.164748 -35.481668 3.283434
-38.164183 -34.960211 2.094721
-38.104147 -36.565447 1.618766
-38.104712 -37.086905 2.807478
-38.171505 -36.024872 2.449836
-38.092976 -36.979668 0.755632
-38.104147 -36.565447 1.618766
-37.95233 -38.076721 1.082138
-38.092976 -36.979668 0.755632
3 0 62 60
3 1 65 63
3 1 67 65
3 2 237 238
3 3 71 69
3 3 73 71
3 4 76 74
3 6 79 77
3 6 81 79
3 7 239 241
3 239 240 241
3 9 242 244
3 244 243 82
3 242 243 244
3 9 245 246
3 9 247 248
3 10 87 85
3 10 89 87
3 249 90 250
3 251 92 252
3 253 252 90
3 251 252 253
3 11 96 95
3 11 98 96
3 5 101 99
3 12 104 102
3 12 106 104
3 12 108 106
3 13 111 109
3 13 113 111
3 8 116 114
3 14 119 117
3 14 121 119
3 15 124 122
3 15 126 124
3 15 128 126
3 16 132 130
3 18 133 61
3 18 134 133
3 19 254 256
3 254 135 255
3 254 255 256
3 21 136 64
3 21 137 136
3 21 139 137
3 23 140 66
3 23 141 140
3 24 142 68
3 24 143 142
3 25 146 144
3 27 147 70
3 27 148 147
3 27 150 148
3 29 151 72
3 29 152 151
3 257 154 258
3 31 259 261
3 259 155 260
3 259 260 261
3 31 156 155
3 262 158 263
3 264 159 265
3 266 160 267
3 268 267 159
3 266 267 268
3 269 162 270
3 271 270 160
3 269 270 271
3 272 163 273
3 34 166 164
3 36 167 75
3 36 168 167
3 17 169 131
3 37 170 78
3 37 171 170
3 37 172 171
3 38 173 80
3 38 174 173
3 20 274 275
3 277 276 83
3 278 175 279
3 40 176 84
3 40 177 176
3 22 280 282
3 282 281 138
3 280 281 282
3 41 178 86
3 41 179 178
3 41 180 179
3 42 181 88
3 42 182 181
3 283 183 284
3 285 184 286
3 287 286 183
3 285 286 287
3 43 185 91
3 43 186 185
3 288 187 289
3 44 188 93
3 44 189 188
3 44 190 189
3 45 191 94
3 45 192 191
3 46 193 97
3 46 194 193
3 35 195 165
3 47 196 100
3 47 197 196
3 26 198 145
3 48 199 103
3 48 200 199
3 48 201 200
3 49 202 105
3 49 203 202
3 49 204 203
3 50 205 107
3 50 206 205
3 28 207 149
3 51 208 110
3 51 209 208
3 51 210 209
3 52 211 112
3 52 212 211
3 39 290 292
3 290 213 291
3 290 291 292
3 53 214 115
3 53 215 214
3 30 216 153
3 54 217 118
3 54 218 217
3 54 219 218
3 55 220 120
3 55 221 220
3 293 222 294
3 295 223 296
3 297 296 222
3 295 296 297
3 32 224 157
3 56 225 123
3 56 226 225
3 56 227 226
3 57 228 125
3 57 229 228
3 57 230 229
3 58 231 127
3 58 232 231
3 33 233 161
3 59 234 129
3 59 235 234
3 59 236 235
3 60 61 16
3 62 61 60
3 62 18 61
3 63 64 19
3 65 64 63
3 65 21 64
3 65 66 21
3 67 66 65
3 67 23 66
3 298 68 299
3 300 68 301
3 302 24 303
3 304 303 68
3 302 303 304
3 69 70 25
3 71 70 69
3 71 27 70
3 71 72 27
3 73 72 71
3 73 29 72
3 305 31 306
3 74 75 34
3 76 75 74
3 76 36 75
3 77 78 17
3 79 78 77
3 79 37 78
3 79 80 37
3 81 80 79
3 81 38 80
3 82 83 20
3 307 83 308
3 309 308 82
3 307 308 309
3 311 310 83
3 312 84 313
3 314 84 315
3 316 40 317
3 318 317 84
3 316 317 318
3 85 86 22
3 87 86 85
3 87 41 86
3 87 88 41
3 89 88 87
3 89 42 88
3 90 319 320
3 90 321 322
3 90 323 325
3 323 91 324
3 323 324 325
3 92 91 90
3 92 43 91
3 326 93 327
3 328 93 329
3 330 44 331
3 332 331 93
3 330 331 332
3 333 94 334
3 335 334 44
3 333 334 335
3 336 94 337
3 338 45 339
3 340 339 94
3 338 339 340
3 95 341 342
3 96 343 345
3 345 344 95
3 343 344 345
3 96 346 347
3 96 348 350
3 348 97 349
3 348 349 350
3 98 97 96
3 98 46 97
3 99 100 35
3 101 100 99
3 101 47 100
3 102 103 26
3 104 103 102
3 104 48 103
3 104 105 48
3 106 105 104
3 106 49 105
3 106 107 49
3 108 107 106
3 108 50 107
3 109 110 28
3 111 110 109
3 111 51 110
3 111 112 51
3 113 112 111
3 113 52 112
3 114 115 39
3 116 115 114
3 116 53 115
3 117 118 30
3 119 118 117
3 119 54 118
3 119 120 54
3 121 120 119
3 121 55 120
3 122 123 32
3 124 123 122
3 124 56 123
3 124 125 56
3 126 125 124
3 126 57 125
3 126 127 57
3 128 127 126
3 128 58 127
3 351 129 352
3 353 352 33
3 351 352 353
3 354 129 355
3 356 59 357
3 358 357 129
3 356 357 358
3 360 359 59
3 130 131 4
3 132 131 130
3 132 17 131
3 61 132 16
3 133 132 61
3 133 17 132
3 133 77 17
3 134 77 133
3 134 6 77
3 363 362 7
3 361 362 363
3 135 364 365
3 135 366 368
3 366 20 367
3 366 367 368
3 64 135 19
3 136 135 64
3 136 20 135
3 136 82 20
3 137 82 136
3 137 9 82
3 137 138 9
3 139 138 137
3 139 22 138
3 66 139 21
3 140 139 66
3 140 22 139
3 140 85 22
3 141 85 140
3 141 10 85
3 68 369 370
3 142 371 373
3 373 372 68
3 371 372 373
3 142 374 375
3 142 376 378
3 376 95 377
3 376 377 378
3 143 95 142
3 143 11 95
3 144 145 5
3 146 145 144
3 146 26 145
3 70 146 25
3 147 146 70
3 147 26 146
3 147 102 26
3 148 102 147
3 148 12 102
3 148 149 12
3 150 149 148
3 150 28 149
3 72 150 27
3 151 150 72
3 151 28 150
3 151 109 28
3 152 109 151
3 152 13 109
3 379 153 380
3 381 380 8
3 379 380 381
3 154 382 384
3 382 153 383
3 382 383 384
3 154 30 153
3 385 154 386
3 155 387 389
3 387 154 388
3 387 388 389
3 155 30 154
3 155 117 30
3 156 117 155
3 156 14 117
3 390 157 391
3 158 392 394
3 392 157 393
3 392 393 394
3 158 32 157
3 395 158 396
3 159 397 399
3 397 158 398
3 397 398 399
3 159 32 158
3 159 122 32
3 160 122 159
3 160 15 122
3 160 161 15
3 162 161 160
3 162 33 161
3 400 162 401
3 402 162 403
3 404 33 405
3 406 405 162
3 404 405 406
3 408 407 33
3 409 19 410
3 411 19 412
3 413 63 414
3 415 414 19
3 413 414 415
3 163 416 418
3 416 63 417
3 416 417 418
3 163 1 63
3 164 165 2
3 166 165 164
3 166 35 165
3 75 166 34
3 167 166 75
3 167 35 166
3 167 99 35
3 168 99 167
3 168 5 99
3 131 76 4
3 169 76 131
3 169 36 76
3 78 169 17
3 170 169 78
3 170 36 169
3 170 168 36
3 171 168 170
3 171 5 168
3 171 144 5
3 172 144 171
3 172 25 144
3 80 172 37
3 173 172 80
3 173 25 172
3 173 69 25
3 174 69 173
3 174 3 69
3 420 419 7
3 422 421 0
3 423 39 424
3 425 39 426
3 427 114 428
3 429 428 39
3 427 428 429
3 430 114 431
3 432 8 433
3 434 433 114
3 432 433 434
3 435 8 436
3 438 437 8
3 83 439 441
3 441 440 20
3 439 440 441
3 443 442 83
3 175 444 445
3 175 446 447
3 84 448 450
3 448 175 449
3 448 449 450
3 176 175 84
3 176 451 453
3 453 452 175
3 451 452 453
3 176 454 455
3 177 456 458
3 458 457 176
3 456 457 458
3 177 459 461
3 459 7 460
3 459 460 461
3 138 462 464
3 464 463 9
3 462 463 464
3 466 465 138
3 467 40 468
3 86 469 471
3 471 470 22
3 469 470 471
3 178 472 474
3 474 473 86
3 472 473 474
3 178 475 477
3 475 40 476
3 475 476 477
3 178 177 40
3 179 177 178
3 179 7 177
3 179 478 480
3 480 479 7
3 478 479 480
3 180 481 483
3 483 482 179
3 481 482 483
3 180 484 485
3 88 180 41
3 181 180 88
3 181 486 488
3 488 487 180
3 486 487 488
3 181 489 490
3 182 491 493
3 493 492 181
3 491 492 493
3 182 494 495
3 496 2 497
3 183 498 499
3 183 500 502
3 500 2 501
3 500 501 502
3 183 164 2
3 184 164 183
3 184 34 164
3 91 503 505
3 503 184 504
3 503 504 505
3 185 184 91
3 185 34 184
3 185 74 34
3 186 74 185
3 186 4 74
3 506 92 507
3 187 508 510
3 508 92 509
3 508 509 510
3 187 43 92
3 93 511 513
3 511 187 512
3 511 512 513
3 188 187 93
3 188 43 187
3 188 186 43
3 189 186 188
3 189 4 186
3 189 130 4
3 190 130 189
3 190 16 130
3 94 190 44
3 191 190 94
3 191 16 190
3 191 60 16
3 192 60 191
3 192 0 60
3 514 45 515
3 516 45 517
3 518 192 519
3 520 519 45
3 518 519 520
3 521 192 522
3 523 0 524
3 525 524 192
3 523 524 525
3 527 526 0
3 97 528 529
3 193 530 532
3 532 531 97
3 530 531 532
3 193 533 534
3 193 535 537
3 535 163 536
3 535 536 537
3 194 163 193
3 194 1 163
3 165 538 540
3 540 539 2
3 538 539 540
3 195 541 543
3 543 542 165
3 541 542 543
3 195 544 546
3 544 24 545
3 544 545 546
3 100 195 35
3 196 195 100
3 196 24 195
3 196 143 24
3 197 143 196
3 197 11 143
3 145 101 5
3 198 101 145
3 198 47 101
3 103 198 26
3 199 198 103
3 199 47 198
3 199 197 47
3 200 197 199
3 200 11 197
3 200 98 11
3 201 98 200
3 201 46 98
3 105 201 48
3 202 201 105
3 202 46 201
3 202 194 46
3 203 194 202
3 203 1 194
3 203 67 1
3 204 67 203
3 204 23 67
3 107 204 49
3 205 204 107
3 205 23 204
3 205 141 23
3 206 141 205
3 206 10 141
3 149 108 12
3 207 108 149
3 207 50 108
3 110 207 28
3 208 207 110
3 208 50 207
3 208 206 50
3 209 206 208
3 209 10 206
3 209 89 10
3 210 89 209
3 210 42 89
3 112 210 51
3 211 210 112
3 211 42 210
3 211 182 42
3 212 182 211
3 212 547 549
3 549 548 182
3 547 548 549
3 550 62 551
3 552 551 0
3 550 551 552
3 213 553 555
3 553 62 554
3 553 554 555
3 213 18 62
3 115 213 39
3 214 213 115
3 214 18 213
3 214 134 18
3 215 134 214
3 215 6 134
3 153 116 8
3 216 116 153
3 216 53 116
3 118 216 30
3 217 216 118
3 217 53 216
3 217 215 53
3 218 215 217
3 218 6 215
3 218 81 6
3 219 81 218
3 219 38 81
3 120 219 54
3 220 219 120
3 220 38 219
3 220 174 38
3 221 174 220
3 221 3 174
3 556 31 557
3 222 558 559
3 222 560 562
3 560 31 561
3 560 561 562
3 222 156 31
3 223 156 222
3 223 14 156
3 157 563 564
3 224 565 567
3 567 566 157
3 565 566 567
3 224 568 569
3 123 224 32
3 225 224 123
3 225 570 572
3 572 571 224
3 570 571 572
3 225 573 575
3 573 223 574
3 573 574 575
3 226 223 225
3 226 14 223
3 226 121 14
3 227 121 226
3 227 55 121
3 125 227 56
3 228 227 125
3 228 55 227
3 228 221 55
3 229 221 228
3 229 3 221
3 229 73 3
3 230 73 229
3 230 29 73
3 127 230 57
3 231 230 127
3 231 29 230
3 231 152 29
3 232 152 231
3 232 13 152
3 161 128 15
3 233 128 161
3 233 58 128
3 129 233 33
3 234 233 129
3 234 58 233
3 234 232 58
3 235 232 234
3 235 13 232
3 235 113 13
3 236 113 235
3 236 52 113
3 576 236 577
3 578 577 59
3 576 577 578
3 579 236 580
3 581 52 582
3 583 582 236
3 581 582 583
3 584 212 585
3 586 585 52
3 584 585 586
3 587 212 588
3 590 589 212
