ply
format ascii 1.0
element vertex 510
property float x
property float y
property float z
element face 510
property list uchar int vertex_index
end_header
-20.491482 -70.482437 12.900571
-29.928886 -54.889572 6.584838
-12.766424 -65.522766 29.761169
-18.85857 -77.224236 3.743697
-3.286701 -61.529068 37.423981
-16.963409 -69.923317 22.262154
-10.727991 -74.966682 22.277903
-22.52566 -63.81876 20.230902
-25.109913 -62.664818 10.161342
-19.684063 -73.804207 8.439642
-21.167767 -72.875641 3.310316
-21.908773 -69.651794 7.750471
-18.903002 -70.663979 17.689867
-16.038322 -74.007416 18.181486
-17.983549 -74.311752 13.506019
-17.042963 -78.0084 8.755372
-27.523331 -58.704865 8.215512
-26.363373 -61.219803 4.762958
-28.778736 -57.003357 2.803868
-10.71738 -62.393917 32.723217
-7.653258 -63.786068 33.252838
-9.594017 -67.21064 30.020718
-20.604429 -75.891136 -1.407728
-32.400726 -50.975357 4.77749
-31.214645 -52.906216 1.115092
-14.971702 -68.144516 26.214178
-11.645136 -70.294083 26.473492
-13.953752 -72.548782 22.551977
-21.458265 -67.181198 16.689079
-22.731258 -66.723831 11.761
-23.879786 -63.641113 15.283465
-19.899439 -66.785309 21.580553
-24.116106 -65.417435 6.377168
-6.068408 -60.361588 36.291599
-8.504879 -72.072227 26.316921
-20.102331 -72.079643 10.752866
-20.743073 -71.870506 8.194816
-21.182184 -70.203293 10.324494
-19.767414 -70.650368 15.251424
-18.479481 -72.497597 15.546447
-19.331064 -72.378777 13.139159
-18.882761 -74.074371 11.067651
-28.75481 -56.730389 7.434288
-28.084639 -57.98156 5.545244
-29.270298 -56.033943 4.64732
-11.646009 -64.155281 31.235577
-10.160877 -64.987274 31.365606
-11.192869 -66.518967 29.828888
-18.439632 -78.941025 1.26365
-19.648674 -76.840691 1.024181
-22.292559 -70.593559 2.820699
-33.662094 -48.85733 3.904994
-32.951828 -50.003155 2.131161
-2.765731 -59.795334 39.222961
-15.927352 -69.186211 24.31303
-14.39698 -70.350517 24.529099
-15.575109 -71.140953 22.522932
-17.95426 -77.699455 6.309853
-17.549658 -79.396095 3.813675
-22.033566 -65.472351 18.413639
-22.730072 -65.337967 16.003857
-23.335644 -63.693043 17.748606
-21.75536 -63.588314 22.501944
-21.263882 -65.341911 20.835489
-20.704163 -67.101982 19.229513
-23.952093 -64.636238 10.970345
-23.398926 -66.159477 9.166524
-24.540545 -64.104744 8.316545
-27.064957 -60.321053 2.053508
-25.982422 -62.377029 2.786768
-7.499338 -59.601803 35.880905
-7.133131 -66.330872 31.687731
-6.166759 -64.592056 33.393055
-11.19171 -72.672401 24.432011
-10.133987 -71.288925 26.330309
-9.661907 -73.500916 24.40712
-19.263605 -75.504135 6.1908
-20.033356 -75.11702 3.520921
-20.433777 -73.403183 5.845697
-21.579556 -71.124039 5.596
-22.674105 -68.971252 4.933665
-4.039645 -59.190372 38.556229
-17.982233 -70.384621 20.064583
-16.491257 -72.005241 20.271893
-17.492882 -72.436333 17.936544
-17.133175 -74.236816 15.774312
-16.5748 -76.180504 13.642829
-17.580059 -76.067558 11.182757
-18.434731 -75.921783 8.597299
-23.157217 -62.023731 21.823572
-23.917021 -62.123257 19.402962
-26.247675 -60.789207 9.16764
-25.626581 -62.179394 7.458509
-26.817041 -60.119099 6.497345
-27.558023 -59.102226 3.788991
-28.213959 -58.211967 1.277575
-8.267233 -61.299637 34.500771
-9.203177 -63.262222 32.890102
-8.57452 -65.675545 31.565491
-7.973225 -68.108208 29.981533
-10.168532 -77.238441 20.022713
-31.164848 -52.95285 5.779592
-30.515694 -54.010674 3.892932
-31.756371 -51.995079 2.891877
-13.79548 -67.040131 28.015516
-12.313542 -67.893112 28.194624
-13.320715 -69.359253 26.311665
-12.786846 -71.564713 24.535429
-12.279982 -73.68187 22.656324
-14.973601 -73.364159 20.522171
-13.475327 -74.757904 20.394152
-11.902051 -75.972343 20.296206
-20.998333 -68.803864 14.747504
-21.601284 -68.672592 12.313879
-22.153877 -66.999069 14.160406
-23.354422 -65.102303 13.377618
-24.535555 -63.170605 12.725153
-24.567989 -62.007313 16.98765
-25.131296 -61.758873 14.522038
-25.753756 -61.251286 11.78094
-26.945223 -59.392864 10.839304
-28.128504 -57.54401 10.193412
-29.3421 -55.698845 9.30774
-30.649267 -53.720127 8.373816
-14.334961 -64.634422 29.501068
-15.417838 -65.998817 27.744415
-16.513659 -67.019897 25.917078
-17.46365 -67.948463 23.917458
-18.916811 -66.480522 23.648117
-18.504299 -68.378616 21.90797
-19.442459 -68.696434 19.652126
-20.247036 -68.886238 17.221035
-22.284153 -68.191727 9.838132
-23.035223 -67.478271 7.139532
-23.761057 -66.742531 4.370765
-25.232008 -63.333782 5.455015
-24.87199 -64.540718 3.5732
-29.974047 -54.983692 2.001979
-29.380152 -56.168785 0.275497
-5.412854 -58.546814 37.897911
-4.638093 -60.928101 36.862614
-6.811429 -62.11808 34.748039
-5.422227 -62.760532 35.083344
-10.613407 -68.851868 28.261885
-9.002326 -69.678246 28.269226
-7.417346 -70.35936 28.304815
-7.950288 -74.4189 24.251728
-6.849127 -72.811592 26.268206
-22.694468 -70.170517 1.528752
-22.863333 -69.391338 2.5388
-33.896546 -48.386268 2.574378
-34.19364 -47.891489 3.488702
-2.608108 -61.874851 37.706148
-2.347622 -61.007984 38.605638
-3.026216 -60.662201 38.323471
-2.963488 -62.765038 36.671366
-2.608108 -61.874851 37.706148
-26.858455 -60.97711 1.040661
-27.434876 -59.833395 0.749465
-8.21537 -59.253031 35.668945
-7.86187 -58.324714 36.338659
-6.37462 -66.596158 31.808459
-6.759737 -67.539872 30.882809
-4.384305 -57.996696 39.074814
-3.720985 -58.367851 39.446549
-23.867532 -61.210566 21.438341
-23.495172 -61.109113 22.535339
-23.495172 -61.109113 22.535339
-22.763168 -61.807692 22.965676
-9.960279 -62.828069 32.806659
-9.468547 -61.965812 33.510647
-10.225649 -61.53166 33.427204
-9.304203 -77.711673 19.972282
-9.95259 -78.267162 18.904622
-20.39371 -76.773315 -2.650405
-19.982515 -77.118561 -1.463062
-20.988185 -75.61425 -2.758896
-20.39371 -76.773315 -2.650405
-21.03311 -73.630455 2.107834
-20.465905 -74.751144 2.213137
-20.600562 -73.99633 3.415618
-32.695429 -50.419857 1.199191
-33.268814 -49.418754 0.882543
-13.210815 -75.847508 19.258402
-14.00649 -75.110703 19.340076
-12.424177 -76.454727 19.209429
-12.688689 -75.365123 20.345179
-13.210815 -75.847508 19.258402
-11.638382 -77.051109 19.161127
-12.424177 -76.454727 19.209429
-16.32191 -78.970639 8.772239
-16.622395 -77.976276 9.99226
-24.916037 -61.177069 17.879707
-24.242505 -62.065285 18.195306
-24.590553 -61.235041 19.087363
-25.768979 -60.814865 14.074734
-25.500937 -60.956642 15.430357
-26.080209 -60.561071 12.704185
-25.442526 -61.50508 13.151489
-25.768979 -60.814865 14.074734
-26.675942 -59.631861 12.233367
-26.349489 -60.322075 11.310122
-26.080209 -60.561071 12.704185
-28.484061 -56.916758 11.075948
-27.86387 -57.834121 11.44464
-29.09086 -55.994175 10.633112
-28.735302 -56.621427 9.750576
-28.484061 -56.916758 11.075948
-31.037458 -53.106188 9.260582
-30.373478 -54.090586 9.650178
-31.297455 -52.723839 7.924378
-31.037458 -53.106188 9.260582
-15.092875 -64.172876 29.342165
-14.604489 -63.412016 30.138958
-15.634314 -64.855074 28.463839
-14.876399 -65.31662 28.622742
-15.092875 -64.172876 29.342165
-17.23129 -66.421524 25.758634
-16.737864 -65.887505 26.728637
-17.706285 -66.885807 24.758824
-16.988655 -67.48418 24.917268
-17.23129 -66.421524 25.758634
-19.408125 -66.632915 22.614335
-19.639741 -65.751178 23.398201
-20.131055 -65.903572 22.364419
-25.197856 -64.195656 2.262178
-25.427206 -63.458873 3.179984
-25.753072 -63.113811 1.868962
-24.653856 -65.313046 2.619124
-25.197856 -64.195656 2.262178
-29.773517 -55.591224 -1.023961
-29.992195 -55.106275 -0.165631
-29.174345 -56.679321 -0.592686
-29.773517 -55.591224 -1.023961
-5.740631 -59.454201 37.094755
-6.115157 -58.18651 37.605003
-6.442934 -59.093897 36.801847
-5.08705 -63.917994 34.413342
-5.794493 -63.676294 34.238199
-5.459316 -64.833755 33.568197
-4.680699 -63.069952 35.306753
-5.08705 -63.917994 34.413342
-7.682104 -75.548394 23.180728
-8.532241 -75.145577 23.218635
-6.043551 -73.177574 26.213231
-6.584672 -74.048912 25.142283
-6.355013 -71.976947 27.228887
-6.043551 -73.177574 26.213231
-18.900116 -78.643505 -0.127373
-18.217332 -79.784653 0.0346
-19.504638 -77.593338 -0.247108
-18.900116 -78.643505 -0.127373
-19.044153 -77.890858 1.143915
-20.126551 -76.365914 -0.191774
-19.982515 -77.118561 -1.463062
-19.504638 -77.593338 -0.247108
-22.166198 -71.297905 1.742678
-21.603802 -72.438946 1.987486
-21.730163 -71.7346 3.065507
-22.166198 -71.297905 1.742678
-22.694468 -70.170517 1.528752
-33.541412 -48.959181 1.687461
-33.306961 -49.430242 3.018077
-33.896546 -48.386268 2.574378
-33.268814 -49.418754 0.882543
-33.541412 -48.959181 1.687461
-2.095695 -60.16016 39.572538
-2.424945 -58.98164 40.223176
-2.095695 -60.16016 39.572538
-2.347622 -61.007984 38.605638
-15.287987 -74.735458 18.233743
-15.833002 -74.97284 17.06303
-17.273415 -78.731136 6.310681
-16.817766 -78.885608 7.53344
-17.498612 -77.853927 7.532612
-17.071114 -79.579456 5.062591
-17.273415 -78.731136 6.310681
-17.751959 -78.547775 5.061764
-16.866999 -80.456345 3.701736
-17.071114 -79.579456 5.062591
-17.331046 -80.252373 2.530215
-16.866999 -80.456345 3.701736
-17.776033 -80.024837 1.255202
-17.331046 -80.252373 2.530215
-17.994645 -79.16856 2.538663
-18.217332 -79.784653 0.0346
-17.776033 -80.024837 1.255202
-21.059016 -64.305074 22.825115
-21.359023 -63.326904 23.553138
-20.813277 -65.181873 21.991887
-21.059016 -64.305074 22.825115
-21.509621 -64.465113 21.668717
-20.58166 -66.06361 21.208021
-20.131055 -65.903572 22.364419
-20.813277 -65.181873 21.991887
-26.317187 -62.005098 1.407291
-26.523689 -61.349041 2.420138
-26.858455 -60.97711 1.040661
-25.753072 -63.113811 1.868962
-26.317187 -62.005098 1.407291
-30.909441 -53.474991 0.254166
-31.535358 -52.385973 -0.122088
-7.158399 -58.714005 36.5965
-7.86187 -58.324714 36.338659
-6.783873 -59.981696 36.086252
-6.442934 -59.093897 36.801847
-7.158399 -58.714005 36.5965
-5.891434 -65.726749 32.66112
-6.649945 -65.461464 32.540393
-6.37462 -66.596158 31.808459
-5.459316 -64.833755 33.568197
-5.891434 -65.726749 32.66112
-23.054106 -68.580185 3.595284
-22.863333 -69.391338 2.5388
-22.483332 -69.782406 3.877182
-3.084028 -58.670332 39.779915
-2.424945 -58.98164 40.223176
-3.402688 -59.492853 38.889595
-3.084028 -58.670332 39.779915
-3.720985 -58.367851 39.446549
-16.380429 -75.08754 15.859444
-15.833002 -74.97284 17.06303
-16.585749 -74.122116 16.977899
-16.101241 -76.059383 14.793702
-16.380429 -75.08754 15.859444
-16.853988 -75.20866 14.708571
-15.88178 -77.05085 13.560498
-16.101241 -76.059383 14.793702
-16.388314 -77.062329 12.435989
-15.88178 -77.05085 13.560498
-16.890943 -77.005855 11.205953
-16.388314 -77.062329 12.435989
-17.07743 -76.124031 12.412793
-17.311511 -77.037979 9.969064
-16.622395 -77.976276 9.99226
-16.890943 -77.005855 11.205953
-24.247434 -61.260328 20.228036
-23.537119 -62.073494 20.613267
-23.867532 -61.210566 21.438341
-24.590553 -61.235041 19.087363
-24.247434 -61.260328 20.228036
-22.06224 -62.589983 23.304862
-21.359023 -63.326904 23.553138
-22.456288 -62.806022 22.162758
-22.06224 -62.589983 23.304862
-22.763168 -61.807692 22.965676
-28.009377 -58.778852 0.361498
-27.434876 -59.833395 0.749465
-27.639458 -59.26651 1.665541
-9.000575 -60.98452 34.315981
-8.599317 -60.101948 34.978878
-8.735205 -62.280929 33.695436
-9.000575 -60.98452 34.315981
-9.468547 -61.965812 33.510647
-7.179784 -68.428539 30.02971
-6.759737 -67.539872 30.882809
-7.553178 -67.21954 30.834632
-9.641364 -76.555347 21.104127
-9.921093 -75.419467 22.231722
-10.448262 -76.102562 21.150308
-9.641364 -76.555347 21.104127
-9.304203 -77.711673 19.972282
-20.273564 -75.61298 0.964767
-19.841015 -75.978856 2.272551
-20.465905 -74.751144 2.213137
-20.751441 -75.138203 -0.251188
-20.126551 -76.365914 -0.191774
-20.273564 -75.61298 0.964767
-21.03311 -73.630455 2.107834
-21.603802 -72.438946 1.987486
-21.18532 -74.740246 -1.594421
-20.751441 -75.138203 -0.251188
-20.988185 -75.61425 -2.758896
-21.18532 -74.740246 -1.594421
-32.097701 -51.415819 1.579549
-32.3541 -50.999117 2.511519
-32.695429 -50.419857 1.199191
-31.826838 -51.871387 0.691156
-31.485508 -52.450648 2.003484
-32.097701 -51.415819 1.579549
-31.535358 -52.385973 -0.122088
-31.826838 -51.871387 0.691156
-14.755626 -74.41383 19.404086
-15.505962 -73.685788 19.351828
-15.287987 -74.735458 18.233743
-14.224464 -74.061031 20.458161
-14.755626 -74.41383 19.404086
-14.00649 -75.110703 19.340076
-10.771622 -77.684158 19.02438
-11.035291 -76.605392 20.15946
-11.638382 -77.051109 19.161127
-9.95259 -78.267162 18.904622
-10.771622 -77.684158 19.02438
-16.32191 -78.970639 8.772239
-16.817766 -78.885608 7.53344
-25.219284 -61.080862 16.663163
-24.916037 -61.177069 17.879707
-24.849643 -61.883093 15.754844
-25.219284 -61.080862 16.663163
-25.500937 -60.956642 15.430357
-27.27223 -58.758549 11.767585
-26.675942 -59.631861 12.233367
-27.536863 -58.468437 10.516358
-27.27223 -58.758549 11.767585
-27.86387 -57.834121 11.44464
-29.719894 -55.079944 10.11714
-29.09086 -55.994175 10.633112
-29.995683 -54.709486 8.840778
-29.719894 -55.079944 10.11714
-30.373478 -54.090586 9.650178
-31.555246 -52.3402 6.627266
-30.907058 -53.336489 7.076704
-31.297455 -52.723839 7.924378
-32.173185 -51.351454 6.126215
-31.782787 -51.964104 5.278541
-31.555246 -52.3402 6.627266
-32.758648 -50.414633 5.641174
-32.173185 -51.351454 6.126215
-33.389332 -49.35562 5.204927
-33.03141 -49.916343 4.341242
-32.758648 -50.414633 5.641174
-33.968468 -48.365057 4.800295
-33.389332 -49.35562 5.204927
-34.19364 -47.891489 3.488702
-33.968468 -48.365057 4.800295
-10.983031 -61.118036 33.276243
-10.225649 -61.53166 33.427204
-11.480597 -62.033392 32.570377
-10.983031 -61.118036 33.276243
-11.944911 -62.914074 31.826557
-11.181694 -63.274599 31.979397
-11.480597 -62.033392 32.570377
-12.447882 -63.64796 31.157234
-11.944911 -62.914074 31.826557
-13.00809 -64.331703 30.420029
-12.206217 -64.839023 30.498373
-12.447882 -63.64796 31.157234
-13.792358 -63.887531 30.289979
-14.604489 -63.412016 30.138958
-13.550693 -65.078594 29.631118
-13.00809 -64.331703 30.420029
-13.792358 -63.887531 30.289979
-16.189954 -65.376964 27.642306
-15.634314 -64.855074 28.463839
-15.965749 -66.509357 26.830747
-16.189954 -65.376964 27.642306
-16.737864 -65.887505 26.728637
-19.203753 -65.469696 24.396533
-19.639741 -65.751178 23.398201
-18.432866 -66.151837 24.624154
-19.203753 -65.469696 24.396533
-18.19023 -67.214493 23.782787
-17.706285 -66.885807 24.758824
-18.432866 -66.151837 24.624154
-23.597582 -67.465824 3.313833
-23.054106 -68.580185 3.595284
-23.217581 -67.856892 4.652215
-24.098389 -66.413952 3.017907
-24.316524 -65.641625 3.971982
-24.653856 -65.313046 2.619124
-23.597582 -67.465824 3.313833
-24.098389 -66.413952 3.017907
-30.289142 -54.513729 0.69761
-30.594346 -53.944954 1.558536
-30.909441 -53.474991 0.254166
-29.677099 -55.576239 1.138738
-30.289142 -54.513729 0.69761
-29.992195 -55.106275 -0.165631
-28.591248 -57.700912 -0.091647
-28.797055 -57.190376 0.776536
-29.174345 -56.679321 -0.592686
-28.009377 -58.778852 0.361498
-28.591248 -57.700912 -0.091647
-5.724004 -57.355472 38.378241
-6.115157 -58.18651 37.605003
-5.070909 -57.674917 38.745655
-5.724004 -57.355472 38.378241
-4.726249 -58.868593 38.22707
-4.384305 -57.996696 39.074814
-5.070909 -57.674917 38.745655
-7.883285 -60.45072 35.190838
-8.21537 -59.253031 35.668945
-8.599317 -60.101948 34.978878
-4.288632 -62.153736 36.196388
-5.03016 -61.844316 35.972979
-4.680699 -63.069952 35.306753
-3.612936 -62.45422 36.477072
-3.962397 -61.228584 37.143298
-4.288632 -62.153736 36.196388
-2.963488 -62.765038 36.671366
-3.612936 -62.45422 36.477072
-6.901845 -69.554115 29.191351
-7.179784 -68.428539 30.02971
-7.695286 -69.233784 29.143174
-9.388051 -74.686585 23.29633
-10.194949 -74.233799 23.342512
-9.921093 -75.419467 22.231722
-8.806097 -73.959908 24.329424
-9.388051 -74.686585 23.29633
-8.532241 -75.145577 23.218635
-7.135252 -74.852566 24.134045
-7.682104 -75.548394 23.180728
-7.399707 -73.615246 25.259967
-7.135252 -74.852566 24.134045
-6.584672 -74.048912 25.142283
-6.639123 -70.750832 28.247191
-7.133237 -71.585476 27.28651
-6.355013 -71.976947 27.228887
-6.901845 -69.554115 29.191351
-6.639123 -70.750832 28.247191
3 0 37 35
3 0 40 38
3 0 35 40
3 1 44 42
3 2 47 45
3 3 49 48
3 149 148 50
3 151 150 51
3 4 152 154
3 154 153 53
3 152 153 154
3 4 155 156
3 5 56 54
3 3 58 57
3 3 48 58
3 7 61 59
3 7 63 62
3 7 59 63
3 8 67 65
3 158 157 68
3 159 70 160
3 162 161 71
3 6 75 73
3 9 78 76
3 11 79 36
3 11 80 79
3 163 81 164
3 12 84 82
3 14 85 39
3 14 86 85
3 14 87 86
3 9 88 41
3 9 76 88
3 166 165 89
3 167 89 168
3 16 93 91
3 18 94 43
3 18 95 94
3 19 169 171
3 169 97 170
3 169 170 171
3 21 98 46
3 21 99 98
3 173 172 100
3 22 174 175
3 22 176 177
3 10 178 180
3 180 179 77
3 178 179 180
3 23 103 101
3 182 181 52
3 25 106 104
3 27 107 55
3 27 108 107
3 13 109 83
3 183 110 184
3 185 111 186
3 187 186 110
3 185 186 187
3 189 188 111
3 15 190 191
3 28 114 112
3 30 115 60
3 30 116 115
3 192 117 193
3 194 193 90
3 192 193 194
3 195 118 196
3 197 119 198
3 199 198 118
3 197 198 199
3 200 120 201
3 202 201 119
3 200 201 202
3 203 121 204
3 205 122 206
3 207 206 121
3 205 206 207
3 208 123 209
3 211 210 123
3 212 124 213
3 214 125 215
3 216 215 124
3 214 215 216
3 217 126 218
3 219 127 220
3 221 220 126
3 219 220 221
3 31 222 224
3 222 128 223
3 222 223 224
3 31 129 128
3 31 130 129
3 28 131 64
3 28 112 131
3 29 132 113
3 32 133 66
3 32 134 133
3 17 135 92
3 225 136 226
3 227 226 69
3 225 226 227
3 229 228 136
3 24 137 102
3 230 138 231
3 233 232 138
3 33 234 236
3 234 139 235
3 234 235 236
3 33 140 139
3 20 141 96
3 237 142 238
3 239 238 72
3 237 238 239
3 241 240 142
3 26 143 105
3 34 144 74
3 34 145 144
3 242 146 243
3 244 147 245
3 247 246 147
3 35 36 9
3 37 36 35
3 37 11 36
3 38 39 12
3 40 39 38
3 40 14 39
3 40 41 14
3 35 41 40
3 35 9 41
3 42 43 16
3 44 43 42
3 44 18 43
3 45 46 19
3 47 46 45
3 47 21 46
3 48 248 249
3 49 250 252
3 252 251 48
3 250 251 252
3 49 253 255
3 253 22 254
3 253 254 255
3 50 256 258
3 258 257 10
3 256 257 258
3 260 259 50
3 51 52 23
3 261 52 262
3 263 262 51
3 261 262 263
3 265 264 52
3 53 266 267
3 269 268 53
3 54 55 25
3 56 55 54
3 56 27 55
3 271 270 13
3 57 272 274
3 274 273 15
3 272 273 274
3 58 275 277
3 277 276 57
3 275 276 277
3 58 278 279
3 58 280 281
3 48 282 284
3 284 283 58
3 282 283 284
3 48 285 286
3 59 60 28
3 61 60 59
3 61 30 60
3 62 287 288
3 63 289 291
3 291 290 62
3 289 290 291
3 63 292 294
3 292 31 293
3 292 293 294
3 63 64 31
3 59 64 63
3 59 28 64
3 65 66 29
3 67 66 65
3 67 32 66
3 68 69 17
3 295 69 296
3 297 296 68
3 295 296 297
3 299 298 69
3 301 300 24
3 70 302 303
3 70 304 306
3 304 33 305
3 304 305 306
3 71 72 20
3 307 72 308
3 309 308 71
3 307 308 309
3 311 310 72
3 73 74 26
3 75 74 73
3 75 34 74
3 76 77 3
3 78 77 76
3 78 10 77
3 36 78 9
3 79 78 36
3 79 10 78
3 79 50 10
3 80 50 79
3 80 312 314
3 314 313 50
3 312 313 314
3 315 53 316
3 81 317 319
3 317 53 318
3 317 318 319
3 81 4 53
3 82 83 5
3 84 83 82
3 84 13 83
3 39 84 12
3 85 84 39
3 85 13 84
3 85 320 322
3 322 321 13
3 320 321 322
3 86 323 325
3 325 324 85
3 323 324 325
3 86 326 327
3 86 328 329
3 87 330 332
3 332 331 86
3 330 331 332
3 87 333 335
3 333 15 334
3 333 334 335
3 41 87 14
3 88 87 41
3 88 15 87
3 88 57 15
3 76 57 88
3 76 3 57
3 89 90 7
3 336 90 337
3 338 337 89
3 336 337 338
3 340 339 90
3 341 62 342
3 89 343 345
3 343 62 344
3 343 344 345
3 89 7 62
3 91 92 8
3 93 92 91
3 93 17 92
3 43 93 16
3 94 93 43
3 94 17 93
3 94 68 17
3 95 68 94
3 95 346 348
3 348 347 68
3 346 347 348
3 349 96 350
3 97 351 353
3 351 96 352
3 351 352 353
3 97 20 96
3 46 97 19
3 98 97 46
3 98 20 97
3 98 71 20
3 99 71 98
3 99 354 356
3 356 355 71
3 354 355 356
3 100 357 359
3 359 358 6
3 357 358 359
3 361 360 100
3 77 49 3
3 362 49 363
3 364 363 77
3 362 363 364
3 365 22 366
3 367 366 49
3 365 366 367
3 369 368 10
3 370 22 371
3 373 372 22
3 101 102 1
3 103 102 101
3 103 24 102
3 52 103 23
3 374 103 375
3 376 375 52
3 374 375 376
3 377 24 378
3 379 378 103
3 377 378 379
3 381 380 24
3 104 105 2
3 106 105 104
3 106 26 105
3 55 106 25
3 107 106 55
3 107 26 106
3 107 73 26
3 108 73 107
3 108 6 73
3 83 56 5
3 109 56 83
3 109 27 56
3 382 109 383
3 384 383 13
3 382 383 384
3 110 385 387
3 385 109 386
3 385 386 387
3 110 27 109
3 110 108 27
3 111 108 110
3 111 6 108
3 111 100 6
3 388 100 389
3 390 389 111
3 388 389 390
3 392 391 100
3 394 393 15
3 112 113 0
3 114 113 112
3 114 29 113
3 60 114 28
3 115 114 60
3 115 29 114
3 115 65 29
3 116 65 115
3 116 8 65
3 90 61 7
3 117 61 90
3 117 30 61
3 395 117 396
3 118 397 399
3 397 117 398
3 397 398 399
3 118 30 117
3 118 116 30
3 119 116 118
3 119 8 116
3 119 91 8
3 120 91 119
3 120 16 91
3 400 120 401
3 121 402 404
3 402 120 403
3 402 403 404
3 121 16 120
3 121 42 16
3 122 42 121
3 122 1 42
3 405 122 406
3 123 407 409
3 407 122 408
3 407 408 409
3 123 1 122
3 123 101 1
3 410 101 411
3 412 411 123
3 410 411 412
3 413 23 414
3 415 414 101
3 413 414 415
3 416 23 417
3 418 51 419
3 420 419 23
3 418 419 420
3 421 51 422
3 424 423 51
3 425 19 426
3 427 19 428
3 429 45 430
3 431 430 19
3 429 430 431
3 432 45 433
3 434 2 435
3 436 435 45
3 434 435 436
3 124 437 438
3 124 439 441
3 439 2 440
3 439 440 441
3 124 104 2
3 125 104 124
3 125 25 104
3 442 125 443
3 126 444 446
3 444 125 445
3 444 445 446
3 126 25 125
3 126 54 25
3 127 54 126
3 127 5 54
3 128 447 448
3 128 449 450
3 128 451 453
3 451 127 452
3 451 452 453
3 129 127 128
3 129 5 127
3 129 82 5
3 130 82 129
3 130 12 82
3 64 130 31
3 131 130 64
3 131 12 130
3 131 38 12
3 112 38 131
3 112 0 38
3 113 37 0
3 132 37 113
3 132 11 37
3 66 132 29
3 133 132 66
3 133 11 132
3 133 80 11
3 134 80 133
3 134 454 456
3 456 455 80
3 454 455 456
3 92 67 8
3 135 67 92
3 135 32 67
3 69 135 17
3 136 135 69
3 136 32 135
3 136 134 32
3 457 134 458
3 459 458 136
3 457 458 459
3 461 460 134
3 102 44 1
3 137 44 102
3 137 18 44
3 462 137 463
3 464 463 24
3 462 463 464
3 138 465 467
3 465 137 466
3 465 466 467
3 138 18 137
3 138 95 18
3 468 95 469
3 470 469 138
3 468 469 470
3 472 471 95
3 139 473 474
3 139 475 476
3 139 477 479
3 477 81 478
3 477 478 479
3 140 81 139
3 140 4 81
3 96 480 482
3 480 70 481
3 480 481 482
3 141 70 96
3 141 33 70
3 72 141 20
3 142 141 72
3 142 33 141
3 142 140 33
3 483 140 484
3 485 484 142
3 483 484 485
3 486 4 487
3 488 487 140
3 486 487 488
3 490 489 4
3 105 47 2
3 143 47 105
3 143 21 47
3 74 143 26
3 144 143 74
3 144 21 143
3 144 99 21
3 145 99 144
3 145 491 493
3 493 492 99
3 491 492 493
3 494 75 495
3 496 495 6
3 494 495 496
3 146 497 499
3 497 75 498
3 497 498 499
3 146 34 75
3 500 146 501
3 147 502 504
3 502 146 503
3 502 503 504
3 147 34 146
3 147 145 34
3 505 145 506
3 507 506 147
3 505 506 507
3 509 508 145
