ply
format ascii 1.0
element vertex 519
property float x
property float y
property float z
element face 504
property list uchar int vertex_index
end_header
-5.021052 -33.927101 -44.134991
4.192447 1.464197 -64.315552
4.485586 14.074 -67.914154
0.38532 -28.850594 -50.804909
5.193264 24.683403 -67.696266
-1.063585 -19.281502 -50.507858
3.276666 -12.904658 -58.049446
0.57362 12.087274 -62.043568
2.406734 15.91398 -65.41259
-7.698593 -41.340847 -41.149689
-4.828001 -39.383305 -44.439568
-1.714025 -37.096523 -47.613861
-2.378853 -31.628777 -47.489765
0.018994 -12.405716 -53.646061
1.010359 -16.184998 -54.27874
1.822868 -9.245955 -57.461948
6.537355 5.13424 -67.67247
6.177349 -2.114428 -64.755943
0.772224 0.269692 -58.9641
2.216322 -2.296621 -60.43998
2.399963 4.149558 -62.92609
4.38378 7.966296 -66.592293
6.877362 11.333016 -69.608589
3.416296 -25.558735 -54.17783
-7.408796 -35.598553 -40.959377
2.84094 26.296265 -64.370979
2.620105 21.305305 -65.465645
4.844291 19.568981 -68.420563
7.315032 17.244371 -70.659836
-7.402918 -30.551376 -40.555077
-5.095305 -28.862911 -43.810589
-2.741199 -26.643578 -47.294666
-0.313185 -23.653267 -50.944824
2.110324 -20.65889 -54.440292
4.820261 -17.243498 -57.919807
3.881884 -5.460009 -61.390991
5.750049 -9.19916 -61.632618
1.41134 13.951179 -63.712711
1.424315 16.70512 -63.967033
-6.363271 -37.759575 -42.57954
-6.305643 -40.581055 -42.797871
-4.982109 -36.600807 -44.26125
-3.586921 -35.580498 -45.891552
-3.727951 -32.854588 -45.798321
0.903224 -11.004333 -55.503853
8.0249 6.475955 -69.068947
7.794404 3.257789 -67.860863
-0.113117 7.395361 -59.737381
1.565351 2.026477 -60.917099
3.377861 12.09609 -66.312279
3.367403 8.98342 -65.647995
4.455795 10.946624 -67.375572
5.571274 9.674022 -68.190063
5.65862 12.701612 -68.883423
-0.568431 -32.889679 -49.21014
0.971148 -31.293394 -50.835293
1.894538 -27.229998 -52.526093
4.27 27.703016 -65.368317
3.967481 25.464836 -66.051239
2.64557 23.762403 -64.968193
3.755447 23.107164 -66.562958
3.65845 20.414907 -66.953957
4.999506 22.270979 -68.183655
7.569617 20.17709 -70.74926
-6.297534 -29.814312 -42.087658
-2.140401 -20.919077 -48.58535
-2.90076 -24.261385 -47.154205
-1.784299 -22.756624 -48.974686
-1.544715 -25.140055 -49.096497
-0.687689 -21.315855 -50.789398
2.104189 -14.575431 -56.173569
1.487695 -18.462677 -54.328495
2.724533 -16.728132 -56.225857
3.439029 -19.156656 -56.151154
3.994829 -15.186477 -57.963272
3.149287 -0.463107 -62.391533
3.034404 -3.895882 -60.985645
4.054132 -2.051349 -62.865501
5.946186 -5.674436 -63.17345
7.051794 -7.766675 -63.087414
-0.222057 10.189709 -60.297729
0.626379 9.057108 -61.456264
2.325157 12.973505 -64.991356
3.400791 15.018707 -66.71579
-6.249998 -43.432846 -42.926018
-3.351477 -38.434525 -45.984768
-2.123996 -34.419418 -47.523533
-1.040462 -30.320833 -49.117676
-0.480963 -15.855569 -52.032215
-0.047427 -17.916796 -52.328354
0.498485 -14.361269 -53.961105
1.474319 -12.67296 -55.895691
2.475217 -10.87838 -57.806614
5.33193 3.177706 -66.037338
5.157576 -0.082036 -64.69735
6.478463 1.576932 -66.388847
0.013434 -1.643433 -56.97023
0.746679 -2.78056 -57.868763
1.477161 -1.032351 -59.718678
2.356532 0.976919 -61.804794
3.266929 2.66871 -63.646534
2.386391 7.18167 -63.8139
3.356908 5.936368 -64.806267
4.261058 4.704139 -65.493065
5.339029 6.420121 -67.097672
6.678727 8.22253 -68.707405
8.190425 9.906129 -70.115952
4.993495 -23.817327 -55.781727
-7.593148 -38.433243 -41.005962
-6.199083 -34.804794 -42.581364
1.440402 19.408958 -63.970051
2.459088 18.73555 -65.502724
3.510202 17.694641 -66.9524
4.708848 16.839224 -68.357475
6.274857 21.144217 -69.618706
6.06612 18.47094 -69.673103
5.887183 15.655773 -69.449387
7.149692 14.395432 -70.317337
8.454092 12.992461 -70.915245
-7.353154 -33.072819 -40.792984
-6.247518 -32.245003 -42.315331
-5.051833 -31.228228 -43.973289
-4.074644 -25.454817 -45.30817
-3.875439 -27.66745 -45.605007
-3.864786 -30.350607 -45.628448
-2.595378 -29.043751 -47.385132
-1.291693 -27.587633 -49.169716
0.023568 -26.220226 -50.917969
0.441343 -19.838053 -52.652508
0.874867 -22.144991 -52.70406
1.340593 -24.798794 -52.602962
2.711498 -23.288736 -54.272991
2.859688 -7.337517 -59.515053
3.578204 -9.159481 -59.692738
5.013029 -3.787439 -63.144722
4.749162 -7.263549 -61.558277
4.426479 -11.031843 -59.842384
5.309532 -13.267262 -59.73978
6.282584 -15.681278 -59.488796
0.923825 17.154463 -63.194433
0.946824 15.819616 -63.136764
8.689464 5.563752 -69.108204
8.789706 7.275891 -69.687774
-0.053861 5.920115 -59.383358
0.289694 6.810075 -60.257562
4.580373 25.074119 -66.873752
4.751486 26.269414 -66.529709
5.364377 25.878698 -67.352222
-1.601993 -20.10029 -49.546604
-1.809199 -19.251283 -49.329109
-1.270791 -18.432495 -50.290363
7.748359 -6.854913 -63.84876
7.172301 -5.917531 -63.91255
7.629905 -8.869724 -62.956383
7.748359 -6.854913 -63.84876
0.175782 11.138492 -61.170648
-0.25185 11.582265 -60.539758
0.145989 12.531047 -61.412678
1.009356 11.552181 -62.659687
1.035736 10.037097 -62.366035
0.6 10.572191 -61.749916
-7.766386 -42.897957 -41.183605
-8.444639 -43.237852 -40.391913
-4.781092 -41.000982 -44.440416
-5.492091 -43.025753 -43.683642
-5.539 -41.408075 -43.682793
-4.089739 -38.908915 -45.212168
-4.04283 -40.526592 -45.213017
-4.781092 -41.000982 -44.440416
-0.440297 -13.312662 -52.646658
-0.238862 -11.693376 -53.380795
-0.230984 -14.130643 -52.839138
-0.690276 -15.037588 -51.839735
-0.440297 -13.312662 -52.646658
7.663206 1.415509 -67.095753
8.387061 2.259215 -67.807312
0.392829 -0.68687 -57.967165
0.035703 -0.081791 -57.549074
0.415099 0.874772 -58.546009
2.416506 8.697156 -64.238081
1.948364 7.668134 -63.257858
-1.513978 -38.511093 -47.582691
-2.399945 -39.257322 -46.796242
3.845463 -26.730294 -54.113657
2.985132 -27.570836 -53.310728
4.204896 -24.688031 -54.979778
4.634062 -25.85959 -54.915605
3.845463 -26.730294 -54.113657
-7.500972 -37.015898 -40.98267
-8.142346 -38.680151 -40.279672
-8.05017 -37.262806 -40.25638
2.94748 27.411211 -63.98044
3.662009 28.114587 -64.479109
3.55547 26.99964 -64.869648
2.321152 26.769005 -63.541769
2.94748 27.411211 -63.98044
2.243874 25.471315 -63.88014
2.321152 26.769005 -63.541769
2.058233 21.627782 -64.620672
2.070966 22.85633 -64.371947
2.632837 22.533854 -65.216919
2.030254 20.357132 -64.717848
1.468382 20.679608 -63.872875
2.058233 21.627782 -64.620672
7.040348 21.978507 -70.057148
6.359612 22.438942 -69.408844
9.335106 13.782052 -71.449635
8.576216 14.491606 -71.177551
9.137513 12.197555 -71.087993
9.335106 13.782052 -71.449635
-7.960348 -30.818885 -39.804907
-7.440853 -29.381936 -40.489895
-8.002914 -32.155214 -39.821136
-7.960348 -30.818885 -39.804907
-7.378036 -31.812098 -40.674031
-7.978033 -33.415936 -39.94009
-8.002914 -32.155214 -39.821136
-3.612495 -23.816837 -46.091241
-4.151815 -24.402164 -45.224855
4.526381 -19.317916 -56.994591
3.835765 -20.274495 -56.110264
4.129645 -18.200077 -57.03548
5.261312 -18.474437 -57.779549
4.526381 -19.317916 -56.994591
2.157855 -4.01663 -59.746249
1.801744 -3.350821 -59.421188
7.030559 -14.713325 -60.284619
6.450235 -13.65455 -60.379453
6.776103 -16.810992 -59.3324
7.030559 -14.713325 -60.284619
0.521477 13.510693 -62.175032
0.145989 12.531047 -61.412678
0.940337 14.442645 -63.009603
0.99248 13.019227 -62.87814
0.521477 13.510693 -62.175032
1.417828 15.32815 -63.839872
0.940337 14.442645 -63.009603
0.946824 15.819616 -63.136764
0.218695 -10.777786 -54.437883
-0.238862 -11.693376 -53.380795
0.66081 -10.077095 -55.366779
0.461109 -11.705025 -54.574957
0.218695 -10.777786 -54.437883
1.051837 -9.307847 -56.265335
0.66081 -10.077095 -55.366779
1.511659 -8.428658 -57.244383
1.363046 -10.125144 -56.4829
1.051837 -9.307847 -56.265335
8.574216 3.954669 -68.504162
7.909652 4.866872 -68.464905
8.689464 5.563752 -69.108204
8.387061 2.259215 -67.807312
8.574216 3.954669 -68.504162
-0.456705 6.433306 -58.866081
-0.578194 7.857439 -59.09466
-0.456705 6.433306 -58.866081
-0.053861 5.920115 -59.383358
0.779044 1.775702 -59.485529
0.415099 0.874772 -58.546009
1.175607 2.654095 -60.462029
1.168788 1.148084 -59.9406
0.779044 1.775702 -59.485529
1.551614 3.58628 -61.399233
1.175607 2.654095 -60.462029
1.96892 4.647821 -62.403728
1.982657 3.088017 -61.921594
1.551614 3.58628 -61.399233
3.372632 10.539755 -65.980137
2.907012 9.598031 -65.155128
2.912241 11.154366 -65.48727
-0.338707 -34.297657 -49.172245
-0.911504 -36.401079 -48.374105
-1.141228 -34.993101 -48.412001
0.431083 -33.499515 -49.984821
-0.338707 -34.297657 -49.172245
0.201358 -32.091537 -50.022717
1.270601 -32.670289 -50.760132
0.431083 -33.499515 -49.984821
1.762558 -30.438166 -51.63946
1.270601 -32.670289 -50.760132
2.224254 -28.406467 -52.484859
1.762558 -30.438166 -51.63946
1.432843 -29.261696 -51.680693
2.655417 -26.394366 -53.351962
2.985132 -27.570836 -53.310728
2.224254 -28.406467 -52.484859
-8.008833 -35.934725 -40.149683
-8.05017 -37.262806 -40.25638
4.902745 27.388504 -66.188248
5.073436 28.445639 -65.724968
4.11874 26.583926 -65.709778
4.902745 27.388504 -66.188248
4.751486 26.269414 -66.529709
8.395497 20.831183 -71.174164
7.687728 21.494944 -70.622425
8.22621 19.549525 -71.1903
8.395497 20.831183 -71.174164
8.098917 18.083165 -71.145588
7.442324 18.710731 -70.704548
8.22621 19.549525 -71.1903
8.790571 17.456355 -71.535598
8.006686 16.617561 -71.049847
8.098917 18.083165 -71.145588
-6.849334 -28.915526 -41.296951
-7.440853 -29.381936 -40.489895
-6.296641 -28.546993 -42.063242
-6.850226 -30.182844 -41.321367
-6.849334 -28.915526 -41.296951
-5.749553 -28.158361 -42.847606
-6.296641 -28.546993 -42.063242
-5.148439 -27.68266 -43.709072
-5.696419 -29.338611 -42.949123
-5.749553 -28.158361 -42.847606
-2.297553 -19.980825 -48.431792
-1.809199 -19.251283 -49.329109
-2.645373 -21.548966 -47.729832
-2.297553 -19.980825 -48.431792
-2.520581 -22.590231 -47.869777
-3.025552 -23.220121 -47.014259
-2.645373 -21.548966 -47.729832
6.619497 -4.871412 -63.955568
6.061768 -3.894432 -63.964697
6.735079 -3.091408 -64.746814
6.49899 -6.720555 -63.130432
6.619497 -4.871412 -63.955568
7.172301 -5.917531 -63.91255
6.834841 -9.697249 -62.178763
6.183968 -10.413491 -61.451364
6.400921 -8.482917 -62.360016
6.834841 -9.697249 -62.178763
7.629905 -8.869724 -62.956383
-0.683535 10.702786 -59.661008
-0.25185 11.582265 -60.539758
-0.632664 9.254613 -59.374834
-0.683535 10.702786 -59.661008
-0.167587 8.792535 -60.017555
-0.578194 7.857439 -59.09466
-0.632664 9.254613 -59.374834
0.659442 7.640949 -61.117004
0.289694 6.810075 -60.257562
0.256631 8.226235 -60.596823
1.068358 8.605853 -62.07904
0.659442 7.640949 -61.117004
1.068358 8.605853 -62.07904
1.035736 10.037097 -62.366035
1.428216 12.484133 -63.494259
1.009356 11.552181 -62.659687
0.99248 13.019227 -62.87814
1.885125 11.995296 -64.133581
1.428216 12.484133 -63.494259
1.868248 13.462342 -64.352034
2.385889 11.593073 -64.826809
1.885125 11.995296 -64.133581
2.851509 12.534797 -65.651817
2.912241 11.154366 -65.48727
2.385889 11.593073 -64.826809
-7.06991 -42.518061 -42.007697
-7.766386 -42.897957 -41.183605
-7.002118 -40.960951 -41.97378
-7.042088 -43.943956 -42.07177
-7.06991 -42.518061 -42.007697
-6.27782 -42.006951 -42.861944
-7.020583 -45.415313 -42.163605
-7.042088 -43.943956 -42.07177
-6.263676 -44.982267 -42.906433
-7.034262 -46.964735 -42.14402
-7.020583 -45.415313 -42.163605
-6.263676 -44.982267 -42.906433
-5.492091 -43.025753 -43.683642
-3.218671 -39.926323 -45.981695
-4.04283 -40.526592 -45.213017
-2.532751 -37.765524 -46.799315
-2.399945 -39.257322 -46.796242
-3.218671 -39.926323 -45.981695
6.000464 25.448251 -68.138797
5.364377 25.878698 -67.352222
5.818815 24.208535 -68.447624
6.000464 25.448251 -68.138797
-0.97948 -16.719528 -51.052542
-0.690276 -15.037588 -51.839735
-0.772274 -17.568535 -51.270037
-1.270791 -18.432495 -50.290363
-0.97948 -16.719528 -51.052542
7.005235 0.575081 -66.359745
7.136433 2.417361 -67.124855
7.663206 1.415509 -67.095753
6.854678 -1.270599 -65.543293
6.327906 -0.268748 -65.572395
7.005235 0.575081 -66.359745
6.735079 -3.091408 -64.746814
6.854678 -1.270599 -65.543293
-0.339691 -0.987804 -56.59293
0.035703 -0.081791 -57.549074
-0.347621 -2.566319 -56.028919
-0.339691 -0.987804 -56.59293
-0.000987 -3.168988 -56.424122
-0.347621 -2.566319 -56.028919
0.365636 -3.737552 -56.873389
-0.000987 -3.168988 -56.424122
0.380056 -2.211996 -57.419497
0.65074 -4.353582 -57.171892
0.365636 -3.737552 -56.873389
1.066922 -3.59279 -58.13558
0.65074 -4.353582 -57.171892
1.432163 -2.718686 -59.060537
1.066922 -3.59279 -58.13558
1.11192 -1.906455 -58.79372
1.846741 -1.664486 -60.079329
1.801744 -3.350821 -59.421188
1.432163 -2.718686 -59.060537
1.962134 6.163877 -62.847634
1.948364 7.668134 -63.257858
2.393177 5.665614 -63.369995
1.96892 4.647821 -62.403728
1.962134 6.163877 -62.847634
2.876897 8.082545 -64.730947
2.416506 8.697156 -64.238081
2.907012 9.598031 -65.155128
8.872468 8.990978 -70.211277
8.789706 7.275891 -69.687774
8.107662 8.191042 -69.592449
-1.513978 -38.511093 -47.582691
-0.911504 -36.401079 -48.374105
5.458794 -24.985072 -55.655666
4.634062 -25.85959 -54.915605
5.863392 -22.865285 -56.599512
5.458794 -24.985072 -55.655666
-8.358524 -41.681141 -40.324387
-8.444639 -43.237852 -40.391913
-8.305801 -40.227339 -40.252523
-8.142346 -38.680151 -40.279672
-7.645871 -39.887045 -41.077826
-8.358524 -41.681141 -40.324387
-8.305801 -40.227339 -40.252523
4.455326 28.792036 -64.906341
5.258762 29.53466 -65.262992
5.073436 28.445639 -65.724968
4.455326 28.792036 -64.906341
3.662009 28.114587 -64.479109
2.146189 24.204384 -64.178747
2.243874 25.471315 -63.88014
2.743255 25.029334 -64.669586
2.146189 24.204384 -64.178747
2.070966 22.85633 -64.371947
0.938229 19.936937 -63.178242
1.468382 20.679608 -63.872875
0.931869 18.506382 -63.195942
0.938229 19.936937 -63.178242
1.432358 18.057039 -63.968542
0.923825 17.154463 -63.194433
0.931869 18.506382 -63.195942
5.721936 23.002323 -68.691318
5.096385 23.477191 -67.93996
5.818815 24.208535 -68.447624
5.637182 21.707598 -68.901181
5.721936 23.002323 -68.691318
6.359612 22.438942 -69.408844
6.922237 20.660654 -70.183983
7.040348 21.978507 -70.057148
7.687728 21.494944 -70.622425
7.924016 15.193091 -70.878597
7.232362 15.819902 -70.488586
8.006686 16.617561 -71.049847
7.801892 13.693946 -70.616291
7.924016 15.193091 -70.878597
8.576216 14.491606 -71.177551
9.005679 10.654389 -70.688347
8.322259 11.449295 -70.515598
9.137513 12.197555 -71.087993
8.872468 8.990978 -70.211277
9.005679 10.654389 -70.688347
-7.981012 -34.671858 -40.066486
-7.978033 -33.415936 -39.94009
-7.380975 -34.335686 -40.876181
-8.008833 -35.934725 -40.149683
-7.981012 -34.671858 -40.066486
-4.638108 -25.978613 -44.457862
-4.151815 -24.402164 -45.224855
-4.584974 -27.158864 -44.559379
-5.148439 -27.68266 -43.709072
-4.638108 -25.978613 -44.457862
-3.487702 -24.858101 -46.231187
-3.612495 -23.816837 -46.091241
-3.025552 -23.220121 -47.014259
3.471999 -22.340535 -55.171183
3.075264 -21.222696 -55.212072
3.835765 -20.274495 -56.110264
3.824399 -23.475535 -55.123602
3.063897 -24.423735 -54.22541
3.471999 -22.340535 -55.171183
4.612998 -22.60483 -55.92555
4.204896 -24.688031 -54.979778
3.824399 -23.475535 -55.123602
5.347929 -21.761351 -56.710509
4.612998 -22.60483 -55.92555
5.863392 -22.865285 -56.599512
5.347929 -21.761351 -56.710509
1.961127 -7.491297 -58.257233
1.511659 -8.428658 -57.244383
2.566896 -4.816261 -60.019081
2.157855 -4.01663 -59.746249
2.625363 -3.096252 -60.712812
2.479538 -6.537078 -59.283785
2.566896 -4.816261 -60.019081
2.947046 -5.6167 -60.250349
2.341278 -8.291736 -58.488501
1.961127 -7.491297 -58.257233
2.479538 -6.537078 -59.283785
5.96371 -12.447542 -60.504946
5.52979 -11.233211 -60.686199
6.183968 -10.413491 -61.451364
5.796058 -14.47427 -59.614288
5.96371 -12.447542 -60.504946
6.450235 -13.65455 -60.379453
5.992474 -17.693327 -58.564043
5.261312 -18.474437 -57.779549
5.551423 -16.462388 -58.704301
5.992474 -17.693327 -58.564043
6.776103 -16.810992 -59.3324
3 139 38 140
3 0 41 39
3 0 43 41
3 142 141 45
3 144 143 47
3 2 51 49
3 2 53 51
3 3 55 54
3 3 56 55
3 4 145 147
3 145 58 146
3 145 146 147
3 4 60 58
3 4 62 60
3 5 148 150
3 148 65 149
3 148 149 150
3 5 67 65
3 5 69 67
3 6 72 70
3 6 74 72
3 1 77 75
3 151 79 152
3 154 153 79
3 7 155 157
3 155 80 156
3 155 156 157
3 7 81 80
3 7 158 160
3 160 159 81
3 158 159 160
3 8 82 37
3 8 83 82
3 9 161 162
3 10 84 40
3 10 163 165
3 165 164 84
3 163 164 165
3 10 166 168
3 166 85 167
3 166 167 168
3 12 86 42
3 12 87 86
3 13 169 170
3 13 171 173
3 171 88 172
3 171 172 173
3 13 90 88
3 15 91 44
3 15 92 91
3 16 95 93
3 175 174 46
3 18 176 178
3 176 96 177
3 176 177 178
3 18 97 96
3 18 98 97
3 20 99 48
3 20 100 99
3 179 101 180
3 21 102 50
3 21 103 102
3 21 104 103
3 22 105 52
3 22 106 105
3 11 181 182
3 23 183 184
3 23 185 187
3 185 107 186
3 185 186 187
3 24 188 190
3 188 108 189
3 188 189 190
3 24 109 108
3 25 191 193
3 193 192 57
3 191 192 193
3 25 194 195
3 25 196 197
3 26 198 200
3 200 199 59
3 198 199 200
3 26 201 203
3 201 110 202
3 201 202 203
3 26 111 110
3 27 112 61
3 27 113 112
3 204 114 205
3 28 115 63
3 28 116 115
3 28 117 116
3 206 118 207
3 209 208 118
3 29 210 211
3 29 212 213
3 29 214 216
3 214 119 215
3 214 215 216
3 30 120 64
3 30 121 120
3 217 122 218
3 31 123 66
3 31 124 123
3 31 125 124
3 32 126 68
3 32 127 126
3 14 128 89
3 33 129 71
3 33 130 129
3 33 131 130
3 34 219 221
3 221 220 73
3 219 220 221
3 34 222 223
3 19 224 225
3 35 132 76
3 35 133 132
3 17 134 94
3 36 135 78
3 36 136 135
3 36 137 136
3 226 138 227
3 229 228 138
3 230 7 231
3 232 37 233
3 234 233 7
3 232 233 234
3 38 235 237
3 235 37 236
3 235 236 237
3 38 8 37
3 39 40 9
3 41 40 39
3 41 10 40
3 41 42 10
3 43 42 41
3 43 12 42
3 238 13 239
3 240 44 241
3 242 241 13
3 240 241 242
3 243 44 244
3 245 15 246
3 247 246 44
3 245 246 247
3 45 46 16
3 248 46 249
3 250 249 45
3 248 249 250
3 252 251 46
3 47 253 254
3 256 255 47
3 257 18 258
3 259 48 260
3 261 260 18
3 259 260 261
3 262 48 263
3 264 20 265
3 266 265 48
3 264 265 266
3 49 267 269
3 267 50 268
3 267 268 269
3 51 50 49
3 51 21 50
3 51 52 21
3 53 52 51
3 53 22 52
3 54 270 272
3 272 271 11
3 270 271 272
3 55 273 275
3 275 274 54
3 273 274 275
3 55 276 277
3 55 278 279
3 56 280 282
3 282 281 55
3 280 281 282
3 56 283 285
3 283 23 284
3 283 284 285
3 286 24 287
3 288 57 289
3 58 290 292
3 290 57 291
3 290 291 292
3 58 25 57
3 58 59 25
3 60 59 58
3 60 26 59
3 60 61 26
3 62 61 60
3 62 27 61
3 293 63 294
3 295 63 296
3 297 28 298
3 299 298 63
3 297 298 299
3 302 301 28
3 300 301 302
3 303 29 304
3 305 64 306
3 307 306 29
3 305 306 307
3 308 64 309
3 310 30 311
3 312 311 64
3 310 311 312
3 65 313 314
3 65 315 316
3 65 317 319
3 317 66 318
3 317 318 319
3 67 66 65
3 67 31 66
3 67 68 31
3 69 68 67
3 69 32 68
3 70 71 14
3 72 71 70
3 72 33 71
3 72 73 33
3 74 73 72
3 74 34 73
3 75 76 19
3 77 76 75
3 77 35 76
3 320 78 321
3 322 321 17
3 320 321 322
3 79 323 325
3 323 78 324
3 323 324 325
3 79 36 78
3 79 326 328
3 328 327 36
3 326 327 328
3 330 329 79
3 80 331 332
3 80 333 334
3 80 335 337
3 335 47 336
3 335 336 337
3 81 47 80
3 81 338 340
3 340 339 47
3 338 339 340
3 81 341 342
3 344 343 81
3 37 345 347
3 347 346 7
3 345 346 347
3 82 348 350
3 350 349 37
3 348 349 350
3 82 351 352
3 82 353 355
3 353 49 354
3 353 354 355
3 83 49 82
3 83 2 49
3 40 356 358
3 358 357 9
3 356 357 358
3 84 359 361
3 361 360 40
3 359 360 361
3 84 362 363
3 84 364 366
3 364 365 366
3 368 367 84
3 85 369 370
3 85 371 373
3 371 11 372
3 371 372 373
3 42 85 10
3 86 85 42
3 86 11 85
3 86 54 11
3 87 54 86
3 87 3 54
3 374 4 375
3 377 376 4
3 88 378 379
3 88 380 382
3 380 5 381
3 380 381 382
3 88 89 5
3 90 89 88
3 90 14 89
3 44 90 13
3 91 90 44
3 91 14 90
3 91 70 14
3 92 70 91
3 92 6 70
3 93 94 1
3 95 94 93
3 95 17 94
3 46 95 16
3 383 95 384
3 385 384 46
3 383 384 385
3 386 17 387
3 388 387 95
3 386 387 388
3 390 389 17
3 96 391 392
3 96 393 394
3 96 395 396
3 97 397 399
3 399 398 96
3 397 398 399
3 97 400 401
3 97 402 403
3 98 404 406
3 406 405 97
3 404 405 406
3 98 407 409
3 407 19 408
3 407 408 409
3 48 98 18
3 99 98 48
3 99 19 98
3 99 75 19
3 100 75 99
3 100 1 75
3 101 410 411
3 101 412 414
3 412 20 413
3 412 413 414
3 50 415 417
3 415 101 416
3 415 416 417
3 102 101 50
3 102 20 101
3 102 100 20
3 103 100 102
3 103 1 100
3 103 93 1
3 104 93 103
3 104 16 93
3 52 104 21
3 105 104 52
3 105 16 104
3 105 45 16
3 106 45 105
3 106 418 420
3 420 419 45
3 418 419 420
3 422 421 11
3 107 423 424
3 107 425 426
3 427 9 428
3 108 429 430
3 108 431 433
3 431 9 432
3 431 432 433
3 108 39 9
3 109 39 108
3 109 0 39
3 57 434 436
3 434 435 436
3 438 437 57
3 59 439 441
3 441 440 25
3 439 440 441
3 443 442 59
3 110 444 445
3 110 446 447
3 110 448 450
3 448 38 449
3 448 449 450
3 111 38 110
3 111 8 38
3 61 111 26
3 112 111 61
3 112 8 111
3 112 83 8
3 113 83 112
3 113 2 83
3 451 62 452
3 453 452 4
3 451 452 453
3 114 454 456
3 454 62 455
3 454 455 456
3 114 27 62
3 63 457 459
3 457 114 458
3 457 458 459
3 115 114 63
3 115 27 114
3 115 113 27
3 116 113 115
3 116 2 113
3 116 53 2
3 117 53 116
3 117 22 53
3 460 117 461
3 462 461 28
3 460 461 462
3 118 463 465
3 463 117 464
3 463 464 465
3 118 22 117
3 118 106 22
3 466 106 467
3 468 467 118
3 466 467 468
3 470 469 106
3 119 471 472
3 119 473 475
3 473 24 474
3 473 474 475
3 64 119 29
3 120 119 64
3 120 24 119
3 120 109 24
3 121 109 120
3 121 0 109
3 122 476 477
3 122 478 480
3 478 30 479
3 478 479 480
3 66 481 483
3 481 122 482
3 481 482 483
3 123 122 66
3 123 30 122
3 123 121 30
3 124 121 123
3 124 0 121
3 124 43 0
3 125 43 124
3 125 12 43
3 68 125 31
3 126 125 68
3 126 12 125
3 126 87 12
3 127 87 126
3 127 3 87
3 89 69 5
3 128 69 89
3 128 32 69
3 71 128 14
3 129 128 71
3 129 32 128
3 129 127 32
3 130 127 129
3 130 3 127
3 130 56 3
3 131 56 130
3 131 23 56
3 73 131 33
3 484 131 485
3 486 485 73
3 484 485 486
3 487 23 488
3 489 488 131
3 487 488 489
3 490 107 491
3 492 491 23
3 490 491 492
3 493 107 494
3 496 495 107
3 497 15 498
3 76 499 501
3 501 500 19
3 499 500 501
3 132 502 504
3 504 503 76
3 502 503 504
3 132 505 507
3 505 15 506
3 505 506 507
3 132 92 15
3 133 92 132
3 133 6 92
3 94 77 1
3 134 77 94
3 134 35 77
3 78 134 17
3 135 134 78
3 135 35 134
3 135 133 35
3 136 133 135
3 136 6 133
3 136 74 6
3 137 74 136
3 137 34 74
3 508 137 509
3 510 509 36
3 508 509 510
3 138 511 513
3 511 137 512
3 511 512 513
3 138 34 137
3 138 514 516
3 516 515 34
3 514 515 516
3 518 517 138
