ply
format ascii 1.0
element vertex 495
property float x
property float y
property float z
element face 479
property list uchar int vertex_index
end_header
-26.28582 -85.588722 1.693339
-21.346092 -91.557503 14.151481
-24.680716 -94.317986 3.511598
-25.253162 -85.318695 12.746408
-15.463054 -105.253357 -7.340064
-22.689062 -102.222488 -7.022058
-26.263781 -94.329269 -7.546952
-25.985506 -76.332664 9.627645
-6.291302 -103.33226 -8.486573
-22.324291 -87.500748 18.938763
-23.708393 -89.00341 13.810966
-24.340614 -84.614464 18.264668
-19.327646 -89.343277 19.099689
-19.3589 -104.416779 -7.049994
-21.205214 -101.265007 -1.768029
-25.978977 -90.167053 2.773947
-25.771439 -94.566742 -2.009389
-26.461424 -90.088371 -2.653966
-13.256799 -102.783119 -2.590271
-20.405722 -95.464699 9.049294
-22.380814 -97.361916 3.798123
-23.228161 -93.151299 8.950747
-25.014954 -89.957352 8.294302
-25.915646 -85.686722 7.248753
-18.209824 -93.119141 13.787756
-12.734025 -106.810249 -11.964457
-16.800638 -106.678642 -12.253839
-20.550327 -105.068741 -12.124619
-24.010569 -98.46051 -1.662234
-25.044569 -98.726006 -7.184369
-25.566565 -80.896317 16.760914
-25.877567 -81.171135 11.313988
-26.017191 -80.953911 5.869428
-25.675634 -75.918907 4.152712
-10.917928 -104.792297 -7.721639
-8.58135 -105.929985 -12.431474
-23.372515 -86.259796 18.719637
-19.554323 -102.063538 -1.80112
-26.237331 -87.861603 2.302618
-26.264339 -90.306763 0.030295
-26.407736 -87.88028 -0.50786
-26.480066 -87.345795 -3.140842
-20.887318 -93.562309 11.596823
-21.951147 -94.626381 8.784482
-22.23 -92.626457 11.420653
-24.591566 -87.331856 13.33229
-24.439075 -89.399445 11.133822
-25.125507 -87.597961 10.704863
-25.579269 -87.800873 7.968442
-25.595064 -85.630058 10.072493
-20.326599 -90.515213 16.693224
-18.721285 -91.181709 16.585331
-19.834019 -92.440857 14.131624
-19.333769 -94.340057 11.485061
-14.145479 -106.134781 -9.6619
-14.842307 -106.869232 -11.964613
-16.202679 -106.099281 -9.740787
-21.186342 -103.427094 -6.931154
-19.993996 -104.929665 -9.650033
-21.68548 -103.803703 -9.610712
-23.696394 -96.031784 3.512689
-23.276196 -98.011917 1.052763
-24.452297 -96.329994 0.952235
-25.471464 -96.840736 -4.737193
-26.07513 -76.479652 12.234706
-25.971485 -78.713463 13.066381
-25.979616 -78.920692 10.304541
-25.9741 -81.03717 8.665721
-25.960457 -78.64019 7.799326
-25.425175 -73.470406 3.221106
-14.474858 -104.165871 -4.983667
-12.266256 -103.99295 -5.330165
-13.146132 -105.186577 -7.548164
-12.050659 -105.940605 -9.810567
-3.753938 -102.087128 -8.748746
-2.732686 -102.492996 -11.256813
-5.124846 -103.685898 -10.723489
-7.542655 -104.756729 -10.43964
-21.814177 -89.513878 16.649969
-22.618916 -90.475227 13.984048
-23.03071 -88.330879 16.352739
-24.054724 -86.691742 16.124928
-24.82699 -85.048325 15.446054
-20.944273 -88.604927 19.034683
-17.518013 -105.001137 -7.204816
-18.676989 -103.572578 -4.404124
-20.44521 -102.925484 -4.472763
-22.00038 -101.789894 -4.157516
-25.465246 -92.385941 3.151803
-25.296185 -94.518723 0.762825
-25.899761 -92.423988 0.565724
-26.220503 -92.482155 -2.280395
-26.551643 -89.681458 -5.419557
-19.781507 -97.453331 6.274178
-20.929909 -98.534119 3.567842
-21.338173 -96.639465 6.319758
-22.835262 -95.351334 6.332359
-23.95619 -93.965683 6.137563
-23.47768 -91.119072 11.349792
-24.260681 -91.683212 8.598739
-24.896593 -92.200165 5.820482
-25.56616 -90.132874 5.465075
-25.961283 -87.959373 5.078304
-26.139063 -85.575531 4.569509
-15.146972 -91.68557 15.919973
-17.020414 -91.70591 16.100983
-15.140982 -107.328667 -14.343625
-18.136919 -105.722435 -9.793922
-18.689947 -106.093132 -12.332602
-18.928188 -106.19976 -14.818298
-20.645876 -105.116898 -14.834582
-21.893049 -99.42054 0.882389
-22.765472 -99.998917 -1.706917
-23.446198 -100.485535 -4.494142
-25.002867 -96.721954 -1.862615
-24.646084 -98.668343 -4.506105
-24.014097 -100.597565 -7.077854
-24.351067 -100.60968 -9.838076
-25.06604 -82.788872 17.603888
-25.383183 -83.048874 14.829978
-25.756014 -80.942749 13.949438
-25.636402 -83.381897 12.104535
-25.873917 -83.414612 9.303265
-26.035402 -83.301361 6.717061
-26.138334 -83.311783 3.942008
-25.53348 -71.294823 5.06992
-25.690176 -73.710556 5.973733
-25.854925 -76.32106 6.789882
-25.888685 -78.493073 5.036905
-25.997507 -80.808678 3.025608
-26.150696 -82.948105 1.268945
-8.711285 -104.226517 -8.096743
-9.772772 -105.48188 -10.130676
-10.686825 -106.50383 -12.158291
-26.307194 -85.369198 0.38656
-26.368152 -86.514977 -0.714039
-26.346778 -86.734501 0.592739
-22.914475 -102.306907 -8.422902
-22.412683 -103.097515 -9.717229
-22.187271 -103.013095 -8.316385
-26.023133 -95.479363 -7.39511
-26.168602 -94.461895 -6.160045
-26.087149 -95.365032 -8.733934
-26.023133 -95.479363 -7.39511
-26.264919 -94.25061 -8.989841
-26.087149 -95.365032 -8.733934
-21.634282 -88.052838 18.986723
-21.261533 -87.5564 20.294075
-21.951542 -87.004311 20.246115
-18.101553 -103.112262 -3.210754
-17.613254 -103.825435 -4.577616
-26.448117 -91.12754 -3.859095
-26.327656 -92.324433 -3.672309
-26.340964 -91.285263 -2.46718
-26.506533 -89.884915 -4.036761
-26.493226 -90.924084 -5.24189
-26.448117 -91.12754 -3.859095
-26.472449 -87.240063 -4.56403
-26.395671 -86.116672 -3.461538
-15.506667 -90.813694 17.284375
-14.554778 -90.709072 17.177397
-18.478313 -89.541008 19.053562
-18.904328 -88.632744 20.324642
-17.256129 -93.246956 13.667619
-16.661423 -92.54034 14.824233
-17.615119 -92.412526 14.94437
-17.86422 -94.039829 12.426311
-17.256129 -93.246956 13.667619
-19.575394 -95.837208 8.92071
-19.039417 -95.274887 10.138593
-19.869746 -94.902378 10.267177
-20.093615 -96.459015 7.661736
-19.263286 -96.831524 7.533152
-19.575394 -95.837208 8.92071
-12.987483 -107.115307 -13.091191
-12.074696 -107.021645 -13.0106
-16.928692 -106.814449 -13.477952
-16.098864 -107.139461 -14.522845
-15.97081 -107.003654 -13.298732
-25.316302 -81.842594 17.182401
-25.200004 -81.759727 18.574295
-25.450267 -80.81345 18.152808
-25.369637 -71.15559 3.721824
-25.464158 -70.041851 4.535978
-25.945615 -80.584721 1.665619
-25.88381 -79.555534 2.712817
-26.02221 -81.654435 0.787288
-26.074101 -81.878391 2.147277
-25.945615 -80.584721 1.665619
-26.125224 -82.7901 -0.16
-26.02221 -81.654435 0.787288
-12.128308 -102.617264 -2.792835
-12.703706 -101.992088 -1.383566
-10.380612 -104.107452 -6.647479
-11.054776 -103.707778 -5.451742
-11.592092 -104.392623 -6.525902
-9.814607 -104.509407 -7.909191
-9.277291 -103.824562 -6.835031
-10.380612 -104.107452 -6.647479
-12.074696 -107.021645 -13.0106
-11.051096 -106.868435 -13.107518
-11.710425 -106.657039 -12.061374
-2.154907 -102.51041 -12.432623
-3.369817 -103.226249 -12.259472
-8.029858 -106.036873 -13.536024
-7.472696 -105.48399 -12.551268
-9.048382 -106.372143 -13.327906
-8.029858 -106.036873 -13.536024
-23.114424 -85.82772 19.993126
-22.848403 -86.880272 18.8292
-22.590312 -86.448196 20.102689
-23.609086 -85.198036 19.776349
-23.114424 -85.82772 19.993126
-24.093135 -84.37537 19.548865
-23.856564 -85.43713 18.492152
-23.609086 -85.198036 19.776349
-22.590312 -86.448196 20.102689
-21.951542 -87.004311 20.246115
-18.98804 -101.585556 -0.590599
-18.54022 -102.357743 -1.909252
-19.89885 -101.241955 -0.485669
-18.98804 -101.585556 -0.590599
-20.724295 -100.84269 -0.469123
-20.379769 -101.664272 -1.784575
-19.89885 -101.241955 -0.485669
-26.404317 -86.247734 -2.03053
-26.443901 -87.613037 -1.824351
-26.368152 -86.514977 -0.714039
-26.395671 -86.116672 -3.461538
-26.404317 -86.247734 -2.03053
-21.859367 -103.849216 -11.039411
-21.291791 -104.481735 -12.296365
-21.117903 -104.436222 -10.867665
-21.859367 -103.849216 -11.039411
-22.412683 -103.097515 -9.717229
-25.772444 -95.717629 -4.755166
-25.621451 -95.703739 -3.373291
-25.922431 -94.580632 -3.391264
-25.626974 -96.735096 -5.990231
-25.772444 -95.717629 -4.755166
-25.413526 -97.677731 -7.213819
-25.258017 -97.783371 -5.960781
-25.626974 -96.735096 -5.990231
-25.164098 -98.642041 -8.531285
-25.413526 -97.677731 -7.213819
-25.691567 -79.827244 17.673047
-25.450267 -80.81345 18.152808
-26.023308 -77.596558 12.650543
-26.052793 -77.635411 13.997193
-26.104615 -76.518505 13.581356
-25.271262 -73.245357 1.883563
-25.315485 -72.243381 2.797416
-25.437846 -74.534409 2.37781
-25.271262 -73.245357 1.883563
-25.563075 -75.758659 2.843614
-25.550404 -74.694657 3.686909
-25.437846 -74.534409 2.37781
-25.722873 -77.110649 3.276369
-25.563075 -75.758659 2.843614
-3.243312 -102.290062 -10.002779
-2.054918 -101.585564 -10.08209
-2.565544 -101.38263 -8.828057
-4.565898 -103.8227 -11.992809
-3.369817 -103.226249 -12.259472
-3.928766 -103.089447 -10.990151
-5.744444 -104.361946 -11.697275
-4.565898 -103.8227 -11.992809
-6.953348 -104.897362 -11.555351
-5.744444 -104.361946 -11.697275
-6.33375 -104.221314 -10.581565
-8.062003 -105.343357 -11.435557
-7.472696 -105.48399 -12.551268
-6.953348 -104.897362 -11.555351
-19.710512 -88.366467 20.349463
-18.904328 -88.632744 20.324642
-20.518825 -87.997292 20.31696
-21.261533 -87.5564 20.294075
-20.135959 -88.974102 19.067186
-19.710512 -88.366467 20.349463
-20.518825 -87.997292 20.31696
-17.033766 -104.539715 -5.977962
-16.490533 -105.127247 -7.27244
-16.006287 -104.665825 -6.045585
-18.097501 -104.286857 -5.80447
-17.033766 -104.539715 -5.977962
-17.613254 -103.825435 -4.577616
-19.115656 -102.818058 -3.102622
-18.101553 -103.112262 -3.210754
-18.54022 -102.357743 -1.909252
-26.146963 -93.538338 -3.526767
-25.922431 -94.580632 -3.391264
-25.995971 -93.524449 -2.144892
-26.146963 -93.538338 -3.526767
-26.327656 -92.324433 -3.672309
-26.349295 -93.247989 -6.305587
-26.168602 -94.461895 -6.160045
-26.380636 -93.121974 -7.756862
-26.349295 -93.247989 -6.305587
-26.524566 -90.798069 -6.693164
-26.493226 -90.924084 -5.24189
-26.533437 -89.511757 -6.807391
-26.524566 -90.798069 -6.693164
-26.508237 -88.407894 -5.703387
-26.515854 -88.513627 -4.2802
-26.472449 -87.240063 -4.56403
-26.533437 -89.511757 -6.807391
-26.508237 -88.407894 -5.703387
-26.166012 -75.360897 13.032791
-26.104615 -76.518505 13.581356
-26.090081 -75.29147 11.790451
-26.166012 -75.360897 13.032791
-26.045269 -75.217975 10.486921
-26.030318 -76.406158 10.931175
-26.090081 -75.29147 11.790451
-13.83069 -102.085704 -1.159015
-12.703706 -101.992088 -1.383566
-14.349753 -102.787094 -2.357425
-13.83069 -102.085704 -1.159015
-14.958782 -103.47847 -3.554123
-13.865828 -103.474495 -3.786969
-14.349753 -102.787094 -2.357425
-15.512189 -104.122082 -4.867387
-14.958782 -103.47847 -3.554123
-16.006287 -104.665825 -6.045585
-14.968956 -104.709614 -6.161865
-15.512189 -104.122082 -4.867387
-3.237155 -101.252797 -7.608826
-2.565544 -101.38263 -8.828057
-4.44506 -101.873387 -7.48084
-3.237155 -101.252797 -7.608826
-3.928277 -101.039055 -6.34092
-5.713742 -102.495953 -7.349753
-5.02262 -102.709694 -8.61766
-4.44506 -101.873387 -7.48084
-20.355708 -97.993725 4.92101
-20.091803 -98.961747 3.435648
-19.517602 -98.421353 4.788816
-14.21955 -91.584134 15.765027
-14.554778 -90.709072 17.177397
-14.706297 -92.507973 14.568877
-14.21955 -91.584134 15.765027
-18.175133 -90.460224 17.796383
-18.478313 -89.541008 19.053562
-19.024466 -90.262493 17.84251
-17.324697 -90.722324 17.554209
-18.175133 -90.460224 17.796383
-17.870849 -91.44381 16.343157
-16.443388 -90.823864 17.37488
-17.324697 -90.722324 17.554209
-16.083693 -91.69574 16.010478
-15.506667 -90.813694 17.284375
-16.443388 -90.823864 17.37488
-15.724702 -92.53017 14.733728
-16.083693 -91.69574 16.010478
-16.661423 -92.54034 14.824233
-14.706297 -92.507973 14.568877
-15.724702 -92.53017 14.733728
-18.426192 -94.650287 11.274964
-17.86422 -94.039829 12.426311
-18.771797 -93.729599 12.636408
-18.426192 -94.650287 11.274964
-19.039417 -95.274887 10.138593
-18.925076 -97.764797 6.116876
-19.263286 -96.831524 7.533152
-19.517602 -98.421353 4.788816
-18.925076 -97.764797 6.116876
-14.041625 -107.144798 -13.091269
-12.987483 -107.115307 -13.091191
-13.788166 -106.839741 -11.964535
-14.190962 -107.374516 -14.280775
-14.041625 -107.144798 -13.091269
-14.991644 -107.09895 -13.154119
-14.297628 -107.501717 -15.416578
-14.190962 -107.374516 -14.280775
-15.202514 -107.389813 -15.561475
-14.297628 -107.501717 -15.416578
-15.202514 -107.389813 -15.561475
-16.098864 -107.139461 -14.522845
-17.873347 -106.521694 -13.517333
-16.928692 -106.814449 -13.477952
-17.745292 -106.385887 -12.293221
-17.992467 -106.575008 -14.760181
-17.873347 -106.521694 -13.517333
-18.809067 -106.146446 -13.57545
-18.018901 -106.556636 -16.004097
-17.992467 -106.575008 -14.760181
-18.958251 -106.100868 -16.069737
-18.018901 -106.556636 -16.004097
-19.817095 -105.559437 -16.077879
-18.958251 -106.100868 -16.069737
-19.787032 -105.658329 -14.82644
-20.674415 -104.931942 -16.111404
-19.817095 -105.559437 -16.077879
-21.339565 -104.505814 -13.651346
-20.598101 -105.09282 -13.479601
-21.291791 -104.481735 -12.296365
-21.425992 -104.378949 -14.910472
-21.339565 -104.505814 -13.651346
-20.674415 -104.931942 -16.111404
-21.425992 -104.378949 -14.910472
-20.586642 -99.477246 2.198813
-20.091803 -98.961747 3.435648
-21.068213 -99.920456 0.856086
-20.586642 -99.477246 2.198813
-21.411479 -98.977329 2.225116
-21.549132 -100.342773 -0.44282
-20.724295 -100.84269 -0.469123
-21.068213 -99.920456 0.856086
-23.576992 -101.494446 -8.4508
-22.914475 -102.306907 -8.422902
-23.351579 -101.410027 -7.049956
-23.745477 -101.500504 -9.83091
-23.576992 -101.494446 -8.4508
-24.182582 -100.603623 -8.457965
-23.878982 -101.438572 -11.203429
-23.745477 -101.500504 -9.83091
-24.817347 -99.583877 -9.858138
-24.697818 -99.667843 -8.511222
-25.164098 -98.642041 -8.531285
-24.416398 -100.51403 -11.165949
-24.817347 -99.583877 -9.858138
-23.878982 -101.438572 -11.203429
-24.416398 -100.51403 -11.165949
-26.264919 -94.25061 -8.989841
-26.380636 -93.121974 -7.756862
-24.510743 -83.572891 19.283507
-24.093135 -84.37537 19.548865
-24.873456 -82.660095 18.953118
-25.200004 -81.759727 18.574295
-24.703327 -83.701668 17.934278
-24.510743 -83.572891 19.283507
-24.873456 -82.660095 18.953118
-25.736472 -79.875271 16.249585
-25.691567 -79.827244 17.673047
-25.938932 -78.783844 14.402318
-26.052793 -77.635411 13.997193
-25.831197 -79.898487 14.843847
-25.938932 -78.783844 14.402318
-25.86375 -79.828106 13.50791
-25.66129 -80.919533 15.355176
-25.736472 -79.875271 16.249585
-25.831197 -79.898487 14.843847
-25.948853 -75.150814 9.126239
-26.045269 -75.217975 10.486921
-25.640953 -70.098843 5.849484
-25.464158 -70.041851 4.535978
-25.675038 -71.403847 6.361483
-25.782511 -70.207867 7.141047
-25.640953 -70.098843 5.849484
-25.479328 -72.382614 4.145513
-25.369637 -71.15559 3.721824
-25.315485 -72.243381 2.797416
-25.753386 -72.611714 6.813389
-25.675038 -71.403847 6.361483
-25.611828 -72.50269 5.521826
-25.801189 -73.83976 7.299283
-25.753386 -72.611714 6.813389
-25.883563 -75.145012 7.707358
-25.801189 -73.83976 7.299283
-25.772551 -75.015808 6.381808
-25.920216 -76.326862 8.208763
-25.948853 -75.150814 9.126239
-25.883563 -75.145012 7.707358
-25.829399 -78.397732 3.718465
-25.782159 -77.20599 4.594809
-25.722873 -77.110649 3.276369
-25.943096 -79.650875 4.031256
-25.829399 -78.397732 3.718465
-25.88381 -79.555534 2.712817
-26.239632 -84.048889 0.174364
-26.307194 -85.369198 0.38656
-26.218258 -84.268414 1.481142
-26.239632 -84.048889 0.174364
-26.125224 -82.7901 -0.16
-6.84329 -102.975605 -7.202545
-5.713742 -102.495953 -7.349753
-11.633036 -103.222179 -4.162782
-12.128308 -102.617264 -2.792835
-12.761527 -103.388035 -3.960218
-11.633036 -103.222179 -4.162782
-11.054776 -103.707778 -5.451742
-8.053281 -103.422733 -7.00763
-9.277291 -103.824562 -6.835031
-7.501294 -103.779389 -8.291658
-6.84329 -102.975605 -7.202545
-8.053281 -103.422733 -7.00763
-10.101119 -106.659065 -13.191315
-9.048382 -106.372143 -13.327906
-9.634087 -106.216907 -12.294882
-10.101119 -106.659065 -13.191315
-11.051096 -106.868435 -13.107518
-1.51146 -101.692009 -11.306935
-2.054918 -101.585564 -10.08209
-1.51146 -101.692009 -11.306935
-2.154907 -102.51041 -12.432623
3 0 40 38
3 0 134 136
3 136 135 40
3 134 135 136
3 1 44 42
3 3 47 45
3 3 49 47
3 1 52 50
3 1 42 52
3 4 56 54
3 5 59 57
3 5 137 139
3 139 138 59
3 137 138 139
3 2 62 60
3 6 140 141
3 6 142 143
3 6 144 145
3 7 66 64
3 7 68 66
3 4 72 70
3 4 54 72
3 8 76 74
3 8 77 76
3 9 80 78
3 11 81 36
3 11 82 81
3 9 146 148
3 146 83 147
3 146 147 148
3 9 78 83
3 149 85 150
3 14 86 37
3 14 87 86
3 15 90 88
3 17 91 39
3 17 151 153
3 153 152 91
3 151 152 153
3 17 154 156
3 154 92 155
3 154 155 156
3 158 157 41
3 19 95 93
3 21 96 43
3 21 97 96
3 10 98 79
3 22 99 46
3 22 100 99
3 22 101 100
3 23 102 48
3 23 103 102
3 159 104 160
3 12 161 162
3 24 105 51
3 24 163 165
3 165 164 105
3 163 164 165
3 24 166 167
3 19 168 170
3 170 169 53
3 168 169 170
3 19 171 173
3 171 93 172
3 171 172 173
3 25 174 175
3 26 106 55
3 26 176 178
3 178 177 106
3 176 177 178
3 13 107 84
3 27 108 58
3 27 109 108
3 27 110 109
3 20 111 94
3 28 112 61
3 28 113 112
3 16 114 89
3 29 115 63
3 29 116 115
3 29 117 116
3 30 179 181
3 179 118 180
3 179 180 181
3 30 119 118
3 31 120 65
3 31 121 120
3 31 122 121
3 32 123 67
3 32 124 123
3 182 125 183
3 33 126 69
3 33 127 126
3 33 128 127
3 184 129 185
3 186 130 187
3 188 187 129
3 186 187 188
3 190 189 130
3 18 191 192
3 34 193 195
3 195 194 71
3 193 194 195
3 34 196 198
3 196 131 197
3 196 197 198
3 34 132 131
3 25 133 73
3 25 199 201
3 201 200 133
3 199 200 201
3 203 202 75
3 35 204 205
3 35 206 207
3 208 36 209
3 210 209 9
3 208 209 210
3 211 36 212
3 213 11 214
3 215 214 36
3 213 214 215
3 216 9 217
3 218 37 219
3 220 37 221
3 222 14 223
3 224 223 37
3 222 223 224
3 38 39 15
3 40 39 38
3 40 17 39
3 40 41 17
3 225 41 226
3 227 226 40
3 225 226 227
3 229 228 41
3 42 43 19
3 44 43 42
3 44 21 43
3 45 46 10
3 47 46 45
3 47 22 46
3 47 48 22
3 49 48 47
3 49 23 48
3 50 51 12
3 52 51 50
3 52 24 51
3 52 53 24
3 42 53 52
3 42 19 53
3 54 55 25
3 56 55 54
3 56 26 55
3 57 58 13
3 59 58 57
3 59 27 58
3 59 230 232
3 232 231 27
3 230 231 232
3 234 233 59
3 60 61 20
3 62 61 60
3 62 28 61
3 235 63 236
3 237 236 16
3 235 236 237
3 238 63 239
3 240 29 241
3 242 241 63
3 240 241 242
3 244 243 29
3 245 30 246
3 64 247 249
3 247 65 248
3 247 248 249
3 66 65 64
3 66 31 65
3 66 67 31
3 68 67 66
3 68 32 67
3 250 69 251
3 252 69 253
3 254 33 255
3 256 255 69
3 254 255 256
3 258 257 33
3 70 71 18
3 72 71 70
3 72 34 71
3 72 73 34
3 54 73 72
3 54 25 73
3 74 259 261
3 259 75 260
3 259 260 261
3 76 75 74
3 76 262 264
3 264 263 75
3 262 263 264
3 76 265 266
3 77 267 269
3 269 268 76
3 267 268 269
3 77 270 272
3 270 35 271
3 270 271 272
3 78 79 1
3 80 79 78
3 80 10 79
3 36 80 9
3 81 80 36
3 81 10 80
3 81 45 10
3 82 45 81
3 82 3 45
3 273 12 274
3 83 275 276
3 83 277 279
3 277 12 278
3 277 278 279
3 83 50 12
3 78 50 83
3 78 1 50
3 280 84 281
3 282 281 4
3 280 281 282
3 85 283 285
3 283 84 284
3 283 284 285
3 85 13 84
3 37 286 288
3 286 85 287
3 286 287 288
3 86 85 37
3 86 13 85
3 86 57 13
3 87 57 86
3 87 5 57
3 88 89 2
3 90 89 88
3 90 16 89
3 39 90 15
3 91 90 39
3 91 16 90
3 91 289 291
3 291 290 16
3 289 290 291
3 293 292 91
3 294 6 295
3 297 296 6
3 92 298 299
3 92 300 301
3 41 92 17
3 302 92 303
3 304 303 41
3 302 303 304
3 306 305 92
3 307 64 308
3 309 64 310
3 311 7 312
3 313 312 64
3 311 312 313
3 314 18 315
3 316 18 317
3 318 70 319
3 320 319 18
3 318 319 320
3 321 70 322
3 323 4 324
3 325 324 70
3 323 324 325
3 326 74 327
3 328 74 329
3 328 329 330
3 331 8 332
3 333 332 74
3 331 332 333
3 93 334 336
3 334 94 335
3 334 335 336
3 95 94 93
3 95 20 94
3 43 95 19
3 96 95 43
3 96 20 95
3 96 60 20
3 97 60 96
3 97 2 60
3 79 44 1
3 98 44 79
3 98 21 44
3 46 98 10
3 99 98 46
3 99 21 98
3 99 97 21
3 100 97 99
3 100 2 97
3 100 88 2
3 101 88 100
3 101 15 88
3 48 101 22
3 102 101 48
3 102 15 101
3 102 38 15
3 103 38 102
3 103 0 38
3 104 337 338
3 104 339 340
3 51 341 343
3 343 342 12
3 341 342 343
3 105 344 346
3 346 345 51
3 344 345 346
3 105 347 348
3 105 349 351
3 349 104 350
3 349 350 351
3 352 104 353
3 354 353 105
3 352 353 354
3 356 355 104
3 53 357 359
3 359 358 24
3 357 358 359
3 361 360 53
3 93 362 363
3 93 364 365
3 55 366 368
3 368 367 25
3 366 367 368
3 106 369 371
3 371 370 55
3 369 370 371
3 106 372 373
3 106 374 375
3 377 376 106
3 84 56 4
3 107 56 84
3 107 26 56
3 58 107 13
3 108 107 58
3 108 26 107
3 108 378 380
3 380 379 26
3 378 379 380
3 109 381 383
3 383 382 108
3 381 382 383
3 109 384 385
3 109 386 387
3 110 388 390
3 390 389 109
3 388 389 390
3 110 391 392
3 393 110 394
3 395 394 27
3 393 394 395
3 396 110 397
3 399 398 110
3 94 400 401
3 111 402 404
3 404 403 94
3 402 403 404
3 111 405 407
3 405 14 406
3 405 406 407
3 61 111 20
3 112 111 61
3 112 14 111
3 112 87 14
3 113 87 112
3 113 5 87
3 89 62 2
3 114 62 89
3 114 28 62
3 63 114 16
3 115 114 63
3 115 28 114
3 115 113 28
3 116 113 115
3 116 5 113
3 116 408 410
3 410 409 5
3 408 409 410
3 117 411 413
3 413 412 116
3 411 412 413
3 117 414 415
3 416 117 417
3 418 417 29
3 416 417 418
3 419 117 420
3 422 421 117
3 424 423 6
3 425 11 426
3 118 427 428
3 118 429 431
3 429 11 430
3 429 430 431
3 118 82 11
3 119 82 118
3 119 3 82
3 432 30 433
3 65 434 435
3 120 436 438
3 438 437 65
3 436 437 438
3 120 439 441
3 439 30 440
3 439 440 441
3 120 119 30
3 121 119 120
3 121 3 119
3 121 49 3
3 122 49 121
3 122 23 49
3 67 122 31
3 123 122 67
3 123 23 122
3 123 103 23
3 124 103 123
3 124 0 103
3 442 7 443
3 125 444 445
3 125 446 448
3 446 447 448
3 69 449 451
3 449 125 450
3 449 450 451
3 126 125 69
3 126 452 454
3 454 453 125
3 452 453 454
3 126 455 456
3 127 457 459
3 459 458 126
3 457 458 459
3 127 460 462
3 460 7 461
3 460 461 462
3 127 68 7
3 128 68 127
3 128 32 68
3 463 128 464
3 465 464 33
3 463 464 465
3 129 466 468
3 466 128 467
3 466 467 468
3 129 32 128
3 129 124 32
3 130 124 129
3 130 0 124
3 130 469 471
3 471 470 0
3 469 470 471
3 473 472 130
3 474 8 475
3 71 476 478
3 478 477 18
3 476 477 478
3 480 479 71
3 131 481 482
3 131 483 485
3 483 8 484
3 483 484 485
3 131 77 8
3 132 77 131
3 132 35 77
3 73 132 34
3 133 132 73
3 133 35 132
3 133 486 488
3 488 487 35
3 486 487 488
3 490 489 133
3 75 491 492
3 494 493 75
