ply
format ascii 1.0
element vertex 710
property float x
property float y
property float z
element face 762
property list uchar int vertex_index
end_header
27.88249 -51.488163 22.418795
17.830399 -66.875183 24.293221
36.261192 -36.636971 18.116011
11.419113 -46.172535 39.58622
12.452764 -55.42197 36.964554
7.362097 -51.047615 42.381096
30.473499 -49.771957 13.076292
26.557398 -57.894836 14.693075
11.375172 -73.164635 23.150158
32.313087 -43.818714 20.454342
23.197321 -59.401428 24.048048
18.126045 -58.624001 31.275383
12.398397 -64.601761 31.713089
6.004765 -69.209862 31.431572
-0.753906 -72.869904 31.516407
22.161306 -66.345245 15.38036
9.478592 -48.924049 40.854919
29.41334 -50.786205 17.970602
28.592932 -53.67477 13.790315
27.288977 -54.820549 18.849569
30.036732 -47.723877 21.518885
31.477835 -46.964848 16.976696
20.770905 -54.844223 30.765022
17.80966 -53.871979 33.632565
9.691193 -58.002476 37.906235
12.566628 -59.963329 34.841625
9.627206 -62.503784 35.228645
9.194833 -67.049522 31.670744
6.61338 -64.649757 35.491127
20.689924 -63.274128 24.279385
22.732786 -63.150143 19.943859
20.288153 -66.966393 19.8615
11.987921 -50.712719 38.511887
9.782799 -53.336872 39.627975
7.219264 -55.50864 40.969246
29.533957 -52.160542 8.983748
27.672958 -56.398506 9.775071
25.846378 -60.577957 10.193383
14.716892 -70.278709 23.753273
17.436449 -70.695755 19.4037
34.40773 -40.078697 19.453417
25.806728 -51.576477 26.547266
25.587397 -55.478523 23.300623
23.345854 -55.58173 27.326441
20.845013 -59.351677 27.882378
18.073109 -62.834614 28.273588
15.306521 -56.973381 34.334251
15.458179 -61.620457 31.6537
15.133111 -66.137115 28.118155
11.941851 -68.98336 27.797329
8.7398 -71.377068 27.316488
5.214088 -73.643051 26.792572
4.942325 -53.166389 44.013992
2.639288 -71.013939 31.46838
1.950998 -75.568932 26.445358
-4.105926 -74.659256 31.812731
25.053951 -59.045673 19.555435
24.471151 -62.148918 15.150663
23.717495 -65.165901 10.276885
21.462564 -69.389992 10.112025
28.736103 -51.106037 20.307314
28.395607 -52.712029 18.426554
27.6353 -53.113667 20.742941
28.022287 -49.738937 24.110643
28.931231 -49.606709 22.058039
29.785799 -49.210079 19.845434
8.351529 -58.974449 38.37505
9.66398 -60.277466 36.683323
8.254362 -61.313698 36.990131
8.062086 -63.667274 35.372524
19.274406 -65.165268 24.303982
20.529753 -65.163689 22.121494
19.14595 -67.024895 22.058895
35.550999 -36.711376 20.59383
36.802681 -36.38821 15.663866
11.733972 -48.348358 39.074963
8.48604 -49.979774 41.566994
9.616961 -51.02663 40.338139
8.457891 -52.243557 41.046352
8.603035 -54.568741 40.191971
7.342227 -53.281696 41.72052
30.919678 -49.050636 10.546816
29.97526 -51.040546 11.071548
27.623068 -55.663651 14.324915
28.087557 -55.12635 11.867941
27.123903 -57.208885 12.366598
26.791348 -58.420429 10.056858
26.1453 -59.378345 12.505647
13.038787 -71.823532 23.431623
14.487852 -72.275658 21.245779
31.423203 -44.014099 22.689121
32.459229 -42.231483 22.253839
33.529343 -40.355568 21.766218
33.323582 -41.997395 20.061596
34.045021 -41.648487 17.744829
33.041878 -43.460995 18.246279
31.066553 -48.256462 15.010644
24.586147 -53.523724 26.998264
19.478399 -56.761757 31.048695
20.814457 -57.08815 29.509375
19.56311 -58.977528 29.657728
19.54817 -61.248802 27.952229
18.297436 -60.671711 29.782911
13.704535 -54.001217 36.520424
15.185054 -54.721371 35.259453
13.867231 -56.278179 35.648289
12.46465 -62.313614 33.4226
13.975164 -60.882526 33.279274
13.926895 -63.215778 31.692713
15.398598 -63.840836 29.999628
13.766388 -65.480072 29.915852
13.542972 -67.692696 27.917631
12.24445 -66.743912 29.891018
7.671943 -68.222458 31.457672
8.983788 -69.34198 29.457436
7.34465 -70.459625 29.248812
6.998175 -72.590912 26.974003
5.645251 -71.449921 29.148561
-0.219428 -70.686188 33.695244
1.399671 -69.70562 33.726032
0.980454 -71.899223 31.496222
2.272422 -73.250168 29.077726
0.574614 -74.217255 29.000742
-5.297802 -73.13707 34.569084
-5.776534 -75.293129 32.326939
24.383457 -57.546837 23.648479
25.388813 -57.158466 21.572193
24.202528 -59.302673 21.81023
22.520903 -64.714142 17.674274
23.66449 -62.702179 17.61812
23.337185 -64.372803 15.086377
24.084679 -63.70142 12.802189
22.976078 -65.821831 12.893865
18.547251 -70.711517 17.134916
20.160234 -71.594513 9.767733
10.224835 -45.609562 40.639381
10.41571 -47.625725 40.228748
9.371638 -46.84391 41.254002
8.416291 -47.971916 42.007858
7.458697 -48.996296 42.779686
30.032433 -50.229916 15.60285
29.55986 -51.634472 13.560315
29.009008 -52.295315 15.891614
28.030106 -54.223434 16.378128
26.928076 -56.419529 16.792324
31.215492 -45.691616 20.989859
31.966105 -45.377045 18.737167
30.878254 -47.233791 19.393894
30.493095 -48.770229 17.456223
19.28747 -54.408382 32.279411
18.039581 -56.272331 32.534748
11.072743 -56.795357 37.441956
12.413598 -57.762642 36.064178
11.083167 -59.046288 36.383568
11.16174 -61.243397 35.047844
11.004545 -63.567787 33.512375
10.745085 -65.829659 31.793299
9.420347 -64.670502 33.674252
7.831411 -65.994194 33.523048
6.244715 -67.019264 33.532906
-1.845142 -71.315514 34.110947
22.065151 -61.2995 24.105967
23.074295 -61.303257 21.899658
21.843153 -63.23048 22.091276
21.562073 -65.079437 19.912224
21.20142 -66.81813 17.720352
13.48909 -51.601109 37.257095
12.287379 -53.010067 37.799633
10.704847 -49.642044 39.693504
10.866479 -52.002842 39.106026
11.084978 -54.435795 38.288635
9.788231 -55.753483 38.814461
8.395761 -56.789509 39.455986
7.091506 -57.773033 39.983097
29.048916 -53.039577 11.453352
28.618608 -54.229828 9.405051
26.41507 -59.737766 7.748748
16.257782 -68.668236 24.060764
17.63813 -68.821747 21.96464
16.083405 -70.643021 21.581017
34.613544 -38.452858 21.165054
35.400089 -38.322079 18.726345
35.90815 -38.243076 16.352638
34.997124 -39.986233 16.963633
26.951611 -51.568302 24.5194
26.768702 -53.356003 22.963686
25.787264 -53.541862 24.936985
24.583097 -55.511524 25.365265
23.385437 -57.470081 25.689859
22.114717 -55.373871 29.057556
22.119587 -57.541473 27.585403
22.063883 -59.532684 25.971697
20.861414 -61.360992 26.079279
19.424639 -63.174946 26.310221
17.957607 -64.915245 26.383902
16.307701 -53.096809 34.947166
16.616579 -55.550232 33.935825
16.687353 -57.902451 32.86277
13.912619 -58.456554 34.672138
15.307487 -59.331982 33.191444
16.798092 -60.215324 31.472479
16.835888 -62.311337 29.955875
16.651669 -64.506119 28.240284
16.501259 -66.59507 26.256781
14.894826 -68.225288 26.097801
13.430239 -69.767906 25.668571
11.699898 -71.101517 25.522205
10.641683 -67.950714 29.826059
10.342155 -70.226936 27.568361
10.027597 -72.326851 25.286026
8.433814 -73.533684 24.882298
6.51518 -48.032063 44.002823
6.377672 -50.051888 43.641178
5.190829 -50.815708 44.658604
6.14792 -52.161018 43.220589
6.088645 -54.323086 42.450748
5.883303 -56.611298 41.56435
4.599673 -67.944458 33.609264
2.982263 -68.854599 33.652447
4.358786 -70.241287 31.291763
3.884053 -72.416794 29.078846
3.608317 -74.647499 26.544878
-3.549613 -72.252602 34.273819
-2.346673 -73.751511 31.595955
-4.474331 -76.885437 29.342562
-2.786724 -75.967239 29.212225
-1.049762 -75.205772 28.900768
26.508072 -55.135277 21.217255
26.155546 -56.940891 19.312677
25.830467 -58.581028 17.201342
23.942516 -61.105534 19.725735
24.766827 -60.70528 17.321779
25.59054 -59.924557 14.878469
25.160204 -61.505356 12.627895
24.792213 -62.87495 10.401901
18.871689 -68.876892 19.71299
19.884388 -68.849098 17.438011
20.96492 -68.343376 15.185879
20.577124 -69.989502 12.528157
21.890675 -67.807037 12.720992
22.650238 -67.213715 10.370509
36.374439 -37.839024 13.982924
7.589115 -60.725993 37.848269
8.302945 -60.144074 37.682591
7.637698 -59.556368 38.540728
7.527515 -61.865467 37.089022
7.589115 -60.725993 37.848269
36.358896 -35.80276 18.964481
36.003799 -35.839962 20.203391
35.906095 -36.674174 19.35492
36.667238 -35.766644 17.748496
36.358896 -35.80276 18.964481
36.531937 -36.512591 16.889938
36.937983 -35.642263 16.522423
36.667238 -35.766644 17.748496
11.576542 -47.260447 39.330591
12.220453 -47.648251 38.802004
12.063023 -46.560339 39.057632
11.887393 -45.445092 39.313148
11.231551 -45.157801 39.854444
12.063023 -46.560339 39.057632
11.887393 -45.445092 39.313148
12.090113 -73.478535 22.037846
12.92192 -72.807984 22.178578
12.206979 -72.494084 23.29089
30.984943 -48.753276 12.831905
31.28147 -47.995529 13.799081
30.770026 -49.014209 14.043468
30.696589 -49.411296 11.811554
31.208033 -48.392616 11.567167
30.984943 -48.753276 12.831905
-6.638594 -75.807426 32.362366
-6.434411 -74.693073 33.572678
9.234625 -45.926623 41.503506
9.798237 -46.226736 40.946692
9.661223 -45.309449 41.196196
7.925743 -47.510075 42.593967
8.351942 -47.026094 42.215616
7.446945 -48.022265 42.979881
7.937494 -48.484106 42.393772
7.925743 -47.510075 42.593967
9.661223 -45.309449 41.196196
10.072779 -44.636865 40.899826
30.164348 -46.839005 22.324792
29.597676 -47.794069 22.561182
30.626112 -46.707746 21.254372
30.753728 -45.822874 22.060279
30.164348 -46.839005 22.324792
18.548565 -54.14018 32.955988
19.199815 -53.260332 32.739996
18.46091 -52.992131 33.416573
-2.515295 -70.669342 35.35245
-1.652578 -70.232117 35.21016
12.738505 -51.156914 37.884491
13.300723 -50.488059 37.586128
12.550138 -50.043864 38.213524
29.759428 -51.680356 7.669864
29.971236 -51.184269 8.682589
29.325783 -52.707442 7.883152
29.759428 -51.680356 7.669864
27.958037 -55.877887 8.464002
28.430862 -54.793548 8.278992
28.145783 -55.314167 9.590061
27.505899 -56.977609 8.57468
27.958037 -55.877887 8.464002
25.645184 -61.295002 9.008358
25.92953 -60.874907 7.786041
26.130724 -60.157861 8.971065
15.139986 -72.387364 20.194005
14.287148 -73.23877 20.025239
34.296095 -41.518166 16.501174
33.820461 -42.399389 16.74709
32.009951 -46.012398 16.658047
32.254086 -45.218497 17.538282
31.72197 -46.170946 17.856932
21.442811 -55.109047 29.911289
22.066349 -54.252926 29.696329
21.394443 -53.988102 30.550062
15.573982 -52.740613 35.546284
16.140884 -51.875103 35.346691
5.916298 -74.191372 25.666419
6.808341 -73.665302 25.757134
6.106132 -73.116982 26.883288
5.136804 -74.709812 25.50183
5.916298 -74.191372 25.666419
26.355029 -50.70385 26.325484
25.761796 -50.58341 27.253768
26.379169 -51.572389 25.533333
26.92747 -50.699763 25.311551
26.355029 -50.70385 26.325484
5.965057 -48.391922 44.534111
6.051145 -47.406559 44.699347
5.896303 -49.401834 44.353288
6.446426 -49.041975 43.822001
5.965057 -48.391922 44.534111
5.066577 -51.991049 44.336298
4.58022 -51.321445 45.11454
4.455968 -52.496786 44.792234
5.213316 -57.049986 41.88328
5.298633 -56.010578 42.378242
5.806105 -57.727337 40.99595
5.213316 -57.049986 41.88328
4.001747 -67.292701 34.647993
4.802904 -66.76897 34.64085
2.60504 -76.198857 25.230334
3.4337 -75.73814 25.280094
2.779657 -75.108216 26.495118
-4.710406 -78.026962 28.084294
-5.346996 -77.314244 29.480459
-2.196937 -76.713501 27.851332
-3.035751 -77.116589 27.957785
-1.328456 -76.332767 27.695603
-1.918243 -75.586506 29.056497
-2.196937 -76.713501 27.851332
-0.418086 -75.884178 27.626422
-1.328456 -76.332767 27.695603
24.120715 -64.62973 9.034611
24.658074 -63.484254 9.097119
24.254854 -64.020426 10.339393
19.765577 -69.626019 16.13328
19.21582 -69.780307 17.286463
19.097009 -70.557228 15.981732
20.305844 -69.373158 15.007214
20.424654 -68.596237 16.311945
19.765577 -69.626019 16.13328
35.926431 -38.746779 14.242164
36.141295 -38.04105 15.167781
35.693287 -38.948805 15.427021
28.590454 -48.801599 23.857061
28.081045 -48.784376 24.856123
29.044926 -48.735485 22.830759
28.590454 -48.801599 23.857061
28.476759 -49.672823 23.084341
29.483981 -48.665293 21.788462
29.597676 -47.794069 22.561182
29.044926 -48.735485 22.830759
17.672967 -52.669381 34.069555
18.46091 -52.992131 33.416573
7.431377 -63.042255 36.280218
8.158224 -62.490486 36.181327
7.527515 -61.865467 37.089022
6.707025 -63.533496 36.339519
7.337733 -64.158515 35.431826
7.431377 -63.042255 36.280218
35.628137 -35.790617 21.344328
35.142556 -36.681694 21.682302
35.628137 -35.790617 21.344328
36.003799 -35.839962 20.203391
37.193133 -35.463953 15.296074
36.937983 -35.642263 16.522423
37.008917 -36.199125 14.396204
37.193133 -35.463953 15.296074
12.423164 -48.861683 38.495062
12.220453 -47.648251 38.802004
11.860947 -49.530538 38.793425
12.550138 -50.043864 38.213524
12.423164 -48.861683 38.495062
30.664097 -49.629316 9.464123
31.12407 -48.628885 9.306043
30.191888 -50.624271 9.726489
30.664097 -49.629316 9.464123
30.447469 -50.045591 10.809182
29.754608 -51.600544 10.027648
29.971236 -51.184269 8.682589
30.191888 -50.624271 9.726489
13.646453 -73.034047 21.085656
13.763319 -72.049595 22.338701
12.92192 -72.807984 22.178578
14.287148 -73.23877 20.025239
13.646453 -73.034047 21.085656
31.487412 -43.04261 23.523657
30.937227 -43.997726 23.709376
32.005425 -42.151302 23.306016
31.487412 -43.04261 23.523657
31.941216 -43.122791 22.47148
32.570169 -41.26946 22.998202
32.005425 -42.151302 23.306016
32.994286 -41.293526 22.010028
33.105227 -40.331503 22.754391
32.570169 -41.26946 22.998202
33.318889 -43.305643 16.997816
33.820461 -42.399389 16.74709
33.543449 -42.554741 17.995554
31.55733 -47.331897 14.747509
31.762971 -46.686091 15.730536
31.272194 -47.610655 15.99367
31.55733 -47.331897 14.747509
31.28147 -47.995529 13.799081
31.405496 -48.056079 10.268764
31.208033 -48.392616 11.567167
31.12407 -48.628885 9.306043
31.405496 -48.056079 10.268764
24.579911 -52.520861 27.652556
25.196438 -52.5501 26.772765
25.190202 -51.547237 27.427058
23.960279 -53.50527 27.853707
24.579911 -52.520861 27.652556
23.340133 -54.534273 28.017795
23.966 -54.552727 27.162352
23.960279 -53.50527 27.853707
14.444795 -54.361294 35.889938
15.012659 -53.552894 35.702427
14.272399 -53.192817 36.332912
25.190202 -51.547237 27.427058
25.761796 -50.58341 27.253768
4.313117 -53.67691 44.393805
4.455968 -52.496786 44.792234
4.828144 -54.288124 43.603064
4.313117 -53.67691 44.393805
0.590122 -70.195904 33.710638
0.743156 -69.02956 34.910578
-0.066393 -69.519844 34.895184
-6.195044 -73.615044 34.69375
-5.960476 -72.413792 35.948158
-5.537168 -74.215099 33.448011
-6.195044 -73.615044 34.69375
-6.434411 -74.693073 33.572678
17.790426 -71.587734 17.099075
17.99185 -70.703636 18.269308
17.235025 -71.579853 18.233467
18.348531 -71.555958 15.904998
17.790426 -71.587734 17.099075
19.097009 -70.557228 15.981732
18.348531 -71.555958 15.904998
19.950056 -72.360871 8.397234
19.473531 -72.657711 9.597326
20.603712 -71.273426 8.508657
19.950056 -72.360871 8.397234
21.254877 -70.171166 8.680802
20.811399 -70.492253 9.939879
20.603712 -71.273426 8.508657
21.857742 -69.060779 8.849462
21.254877 -70.171166 8.680802
8.829616 -46.462091 41.838688
9.234625 -45.926623 41.503506
8.893964 -47.407913 41.63093
8.829616 -46.462091 41.838688
8.351942 -47.026094 42.215616
10.634412 -44.876314 40.381025
10.072779 -44.636865 40.899826
10.821974 -45.891048 40.1128
11.231551 -45.157801 39.854444
10.634412 -44.876314 40.381025
11.275897 -74.146843 21.87257
10.582653 -73.778275 22.970938
30.857584 -44.984116 22.90991
30.937227 -43.997726 23.709376
31.319347 -44.852857 21.83949
30.857584 -44.984116 22.90991
30.753728 -45.822874 22.060279
20.69065 -53.745825 31.296681
21.394443 -53.988102 30.550062
19.948932 -53.527905 32.053876
19.199815 -53.260332 32.739996
20.029187 -54.626303 31.522216
20.69065 -53.745825 31.296681
19.948932 -53.527905 32.053876
-0.83972 -69.917454 35.002308
-0.066393 -69.519844 34.895184
-1.032285 -71.000851 33.903096
-0.83972 -69.917454 35.002308
-1.652578 -70.232117 35.21016
14.003436 -50.817511 37.047483
13.300723 -50.488059 37.586128
14.164676 -51.992763 36.701248
14.003436 -50.817511 37.047483
13.596812 -52.801163 36.888759
14.272399 -53.192817 36.332912
14.164676 -51.992763 36.701248
7.007687 -58.95566 39.344752
7.637698 -59.556368 38.540728
7.721517 -58.373741 39.179074
28.868108 -53.742084 8.093803
29.325783 -52.707442 7.883152
29.076282 -53.195185 9.194399
28.868108 -53.742084 8.093803
28.430862 -54.793548 8.278992
27.065093 -57.988571 8.715573
27.505899 -56.977609 8.57468
27.232153 -57.409467 9.915965
26.876955 -58.647239 7.561518
27.065093 -57.988571 8.715573
26.603209 -59.079098 8.902803
26.698807 -59.274532 6.458264
26.876955 -58.647239 7.561518
26.267463 -60.344675 6.490728
26.698807 -59.274532 6.458264
26.267463 -60.344675 6.490728
25.92953 -60.874907 7.786041
15.937762 -71.571045 20.361624
15.285628 -71.459339 21.413398
15.139986 -72.387364 20.194005
16.614285 -71.597412 19.272965
16.759927 -70.669388 20.492359
15.937762 -71.571045 20.361624
17.235025 -71.579853 18.233467
16.614285 -71.597412 19.272965
12.090113 -73.478535 22.037846
11.275897 -74.146843 21.87257
33.620951 -39.42927 22.525886
33.105227 -40.331503 22.754391
34.163051 -38.477915 22.225304
33.620951 -39.42927 22.525886
34.071444 -39.404213 21.465636
34.673828 -37.552435 21.967914
34.163051 -38.477915 22.225304
35.082271 -37.582117 20.879442
35.142556 -36.681694 21.682302
34.673828 -37.552435 21.967914
35.237774 -39.820383 15.732519
35.693287 -38.948805 15.427021
35.452637 -39.114655 16.658136
34.772146 -40.687038 16.110575
34.521073 -40.81736 17.354231
34.296095 -41.518166 16.501174
35.237774 -39.820383 15.732519
34.772146 -40.687038 16.110575
32.791973 -44.260471 17.292838
32.503991 -44.41902 18.491723
32.254086 -45.218497 17.538282
33.318889 -43.305643 16.997816
32.791973 -44.260471 17.292838
32.295088 -45.73364 15.411886
32.009951 -46.012398 16.658047
31.762971 -46.686091 15.730536
22.724564 -54.430343 28.883353
22.066349 -54.252926 29.696329
22.730286 -55.477801 28.191999
23.340133 -54.534273 28.017795
22.724564 -54.430343 28.883353
16.921988 -52.281796 34.726856
16.140884 -51.875103 35.346691
17.058681 -53.484394 34.289866
17.672967 -52.669381 34.069555
16.921988 -52.281796 34.726856
15.746378 -53.90909 35.10331
15.573982 -52.740613 35.546284
15.012659 -53.552894 35.702427
9.908865 -73.359383 24.038872
10.582653 -73.778275 22.970938
10.701384 -72.745743 24.218092
9.111974 -73.962799 23.837008
9.908865 -73.359383 24.038872
9.230705 -72.930267 25.084162
8.254216 -74.55228 23.679167
9.111974 -73.962799 23.837008
7.52616 -74.136688 24.711282
7.715994 -73.062298 25.928151
6.808341 -73.665302 25.757134
8.254216 -74.55228 23.679167
7.52616 -74.136688 24.711282
27.462809 -49.78508 25.107172
28.081045 -48.784376 24.856123
27.486949 -50.65362 24.315022
27.462809 -49.78508 25.107172
26.92747 -50.699763 25.311551
6.547959 -47.05072 44.173561
6.051145 -47.406559 44.699347
6.975187 -47.540148 43.59145
6.547959 -47.05072 44.173561
6.986938 -48.514179 43.391255
7.446945 -48.022265 42.979881
6.975187 -47.540148 43.59145
4.719457 -50.205072 45.395972
4.58022 -51.321445 45.11454
5.302881 -49.783744 44.862001
4.719457 -50.205072 45.395972
5.78425 -50.433798 44.149891
5.896303 -49.401834 44.353288
5.302881 -49.783744 44.862001
5.401304 -54.866473 42.821441
5.515485 -53.744737 43.23237
4.828144 -54.288124 43.603064
5.985974 -55.467192 42.007549
5.401304 -54.866473 42.821441
5.298633 -56.010578 42.378242
6.410206 -58.308205 40.205324
6.487405 -57.192166 40.773724
5.806105 -57.727337 40.99595
7.007687 -58.95566 39.344752
6.410206 -58.308205 40.205324
5.92579 -64.014654 36.485028
6.707025 -63.533496 36.339519
5.809757 -65.12162 35.581781
5.92579 -64.014654 36.485028
5.625425 -66.306374 34.602671
6.429048 -65.83451 34.512017
5.809757 -65.12162 35.581781
5.422194 -67.481861 33.571085
5.625425 -66.306374 34.602671
4.802904 -66.76897 34.64085
1.559634 -68.569149 34.850943
0.743156 -69.02956 34.910578
2.35093 -68.143638 34.81415
1.559634 -68.569149 34.850943
2.190967 -69.280109 33.689239
3.193042 -67.747772 34.669584
2.35093 -68.143638 34.81415
3.790968 -68.399529 33.630856
4.001747 -67.292701 34.647993
3.193042 -67.747772 34.669584
4.333919 -75.212036 25.377983
5.136804 -74.709812 25.50183
4.411202 -74.145275 26.668725
4.333919 -75.212036 25.377983
3.4337 -75.73814 25.280094
-5.093944 -72.045849 35.697155
-5.960476 -72.413792 35.948158
-4.21985 -71.603615 35.549523
-5.093944 -72.045849 35.697155
-4.423707 -72.694836 34.421452
-3.36753 -71.137886 35.433886
-4.21985 -71.603615 35.549523
-2.697377 -71.784058 34.192383
-2.515295 -70.669342 35.35245
-3.36753 -71.137886 35.433886
-5.998097 -76.51809 30.972647
-6.638594 -75.807426 32.362366
-5.125433 -76.089283 30.834751
-5.998097 -76.51809 30.972647
-5.346996 -77.314244 29.480459
-3.879555 -77.575688 28.022954
-4.710406 -78.026962 28.084294
-3.630528 -76.426338 29.277394
-3.879555 -77.575688 28.022954
-3.035751 -77.116589 27.957785
0.394102 -75.389919 27.676409
-0.237574 -74.711513 28.950755
-0.418086 -75.884178 27.626422
1.082294 -76.065758 26.398717
1.262806 -74.893093 27.72305
0.394102 -75.389919 27.676409
1.725854 -76.732182 25.122143
1.082294 -76.065758 26.398717
2.60504 -76.198857 25.230334
1.725854 -76.732182 25.122143
25.118102 -62.443499 9.112617
25.645184 -61.295002 9.008358
25.319296 -61.726453 10.297642
25.118102 -62.443499 9.112617
24.658074 -63.484254 9.097119
19.6932 -71.805748 11.048707
19.473531 -72.657711 9.597326
19.901645 -71.003242 12.428919
19.6932 -71.805748 11.048707
20.368679 -70.792008 11.147945
20.111946 -70.196221 13.678353
19.901645 -71.003242 12.428919
20.771022 -69.166439 13.857018
20.305844 -69.373158 15.007214
20.111946 -70.196221 13.678353
22.451579 -67.972641 8.978703
22.056401 -68.301853 10.241267
21.857742 -69.060779 8.849462
23.024037 -66.846027 9.057009
22.451579 -67.972641 8.978703
23.557665 -65.822121 9.010198
23.183867 -66.189808 10.323697
23.024037 -66.846027 9.057009
24.120715 -64.62973 9.034611
23.557665 -65.822121 9.010198
36.794796 -36.924532 13.555734
37.008917 -36.199125 14.396204
36.58856 -37.113617 14.823395
36.158495 -38.431469 12.97008
35.926431 -38.746779 14.242164
36.567173 -37.568394 12.685191
36.158495 -38.431469 12.97008
36.794796 -36.924532 13.555734
36.567173 -37.568394 12.685191
3 0 62 60
3 0 64 63
3 0 60 64
3 242 68 243
3 244 243 66
3 242 243 244
3 246 245 68
3 1 72 70
3 2 247 249
3 249 248 73
3 247 248 249
3 2 250 251
3 2 252 254
3 252 74 253
3 252 253 254
3 3 255 257
3 255 75 256
3 255 256 257
3 5 78 76
3 5 80 78
3 3 258 259
3 3 260 261
3 6 82 81
3 7 85 83
3 7 87 85
3 8 262 264
3 264 263 88
3 262 263 264
3 9 91 90
3 9 93 91
3 9 95 93
3 6 265 267
3 267 266 96
3 265 266 267
3 6 268 270
3 268 81 269
3 268 269 270
3 11 100 98
3 11 102 100
3 4 105 103
3 12 108 106
3 12 110 108
3 12 112 110
3 13 115 113
3 13 117 115
3 14 120 118
3 14 122 120
3 271 124 272
3 10 127 125
3 15 130 128
3 15 132 130
3 273 137 274
3 275 274 135
3 273 274 275
3 276 138 277
3 278 139 279
3 280 279 138
3 278 279 280
3 281 135 282
3 17 142 140
3 19 143 61
3 19 144 143
3 20 283 284
3 20 285 287
3 285 145 286
3 285 286 287
3 20 147 145
3 17 148 65
3 17 140 148
3 23 288 290
3 288 149 289
3 288 289 290
3 23 150 149
3 24 153 151
3 26 154 67
3 26 155 154
3 26 157 155
3 28 158 69
3 28 159 158
3 291 160 292
3 29 163 161
3 31 164 71
3 31 165 164
3 32 293 295
3 293 166 294
3 293 294 295
3 32 167 166
3 16 168 136
3 33 169 77
3 33 170 169
3 33 171 170
3 34 172 79
3 34 173 172
3 35 296 297
3 35 298 299
3 18 174 141
3 36 175 84
3 36 300 302
3 302 301 175
3 300 301 302
3 36 303 304
3 37 176 86
3 37 305 307
3 307 306 176
3 305 306 307
3 38 179 177
3 309 308 89
3 40 180 92
3 40 181 180
3 40 183 181
3 311 310 94
3 21 312 314
3 314 313 146
3 312 313 314
3 41 186 184
3 43 187 97
3 43 188 187
3 22 315 317
3 315 189 316
3 315 316 317
3 44 190 99
3 44 191 190
3 44 192 191
3 45 193 101
3 45 194 193
3 318 195 319
3 46 196 104
3 46 197 196
3 25 198 152
3 47 199 107
3 47 200 199
3 47 201 200
3 48 202 109
3 48 203 202
3 48 204 203
3 49 205 111
3 49 206 205
3 27 207 156
3 50 208 114
3 50 209 208
3 50 210 209
3 51 320 322
3 322 321 116
3 320 321 322
3 51 323 324
3 41 325 326
3 41 327 329
3 327 184 328
3 327 328 329
3 330 211 331
3 332 212 333
3 334 333 211
3 332 333 334
3 52 335 337
3 335 213 336
3 335 336 337
3 52 214 213
3 52 215 214
3 338 216 339
3 341 340 216
3 342 217 343
3 53 218 119
3 53 219 218
3 53 220 219
3 54 221 121
3 54 344 346
3 346 345 221
3 344 345 346
3 55 222 123
3 55 223 222
3 347 224 348
3 349 225 350
3 351 226 352
3 353 352 225
3 351 352 353
3 355 354 226
3 42 227 185
3 56 228 126
3 56 229 228
3 30 230 162
3 57 231 129
3 57 232 231
3 57 233 232
3 58 234 131
3 58 356 358
3 358 357 234
3 356 357 358
3 39 235 178
3 359 236 360
3 361 360 133
3 359 360 361
3 362 237 363
3 364 363 236
3 362 363 364
3 59 238 134
3 59 239 238
3 59 240 239
3 365 241 366
3 367 366 182
3 365 366 367
3 60 61 17
3 62 61 60
3 62 19 61
3 63 368 369
3 64 370 372
3 372 371 63
3 370 371 372
3 64 373 375
3 373 20 374
3 373 374 375
3 64 65 20
3 60 65 64
3 60 17 65
3 376 23 377
3 66 67 24
3 68 67 66
3 68 26 67
3 68 69 26
3 378 69 379
3 380 379 68
3 378 379 380
3 381 28 382
3 383 382 69
3 381 382 383
3 70 71 29
3 72 71 70
3 72 31 71
3 73 384 385
3 387 386 73
3 74 388 389
3 74 390 391
3 75 392 393
3 75 394 396
3 394 32 395
3 394 395 396
3 76 77 16
3 78 77 76
3 78 33 77
3 78 79 33
3 80 79 78
3 80 34 79
3 81 397 398
3 82 399 401
3 401 400 81
3 399 400 401
3 82 402 404
3 402 35 403
3 402 403 404
3 83 84 18
3 85 84 83
3 85 36 84
3 85 86 36
3 87 86 85
3 87 37 86
3 88 89 38
3 405 89 406
3 407 406 88
3 405 406 407
3 409 408 89
3 90 410 411
3 91 412 414
3 414 413 90
3 412 413 414
3 91 415 416
3 91 417 419
3 417 92 418
3 417 418 419
3 93 92 91
3 93 40 92
3 93 94 40
3 95 94 93
3 95 420 422
3 422 421 94
3 420 421 422
3 96 423 425
3 425 424 21
3 423 424 425
3 427 426 96
3 81 428 429
3 81 430 431
3 432 97 433
3 434 433 41
3 432 433 434
3 435 97 436
3 437 43 438
3 439 438 97
3 437 438 439
3 98 99 22
3 100 99 98
3 100 44 99
3 100 101 44
3 102 101 100
3 102 45 101
3 103 440 442
3 440 104 441
3 440 441 442
3 105 104 103
3 105 46 104
3 106 107 25
3 108 107 106
3 108 47 107
3 108 109 47
3 110 109 108
3 110 48 109
3 110 111 48
3 112 111 110
3 112 49 111
3 113 114 27
3 115 114 113
3 115 50 114
3 115 116 50
3 117 116 115
3 117 51 116
3 443 41 444
3 445 52 446
3 448 447 52
3 118 449 451
3 449 119 450
3 449 450 451
3 120 119 118
3 120 53 119
3 120 121 53
3 122 121 120
3 122 54 121
3 452 123 453
3 124 454 456
3 454 123 455
3 454 455 456
3 124 55 123
3 125 126 42
3 127 126 125
3 127 56 126
3 128 129 30
3 130 129 128
3 130 57 129
3 130 131 57
3 132 131 130
3 132 58 131
3 457 133 458
3 459 458 39
3 457 458 459
3 460 133 461
3 463 462 133
3 464 134 465
3 466 134 467
3 468 59 469
3 470 469 134
3 468 469 470
3 472 471 59
3 135 136 3
3 137 136 135
3 137 16 136
3 473 137 474
3 138 475 477
3 475 137 476
3 475 476 477
3 138 16 137
3 138 76 16
3 139 76 138
3 139 5 76
3 135 478 479
3 135 480 482
3 480 3 481
3 480 481 482
3 140 141 6
3 142 141 140
3 142 18 141
3 61 142 17
3 143 142 61
3 143 18 142
3 143 83 18
3 144 83 143
3 144 7 83
3 484 483 8
3 485 90 486
3 145 487 489
3 487 90 488
3 487 488 489
3 145 9 90
3 145 146 9
3 147 146 145
3 147 21 146
3 65 147 20
3 148 147 65
3 148 21 147
3 148 96 21
3 140 96 148
3 140 6 96
3 490 22 491
3 149 492 493
3 149 494 496
3 494 22 495
3 494 495 496
3 149 98 22
3 150 98 149
3 150 11 98
3 151 152 4
3 153 152 151
3 153 25 152
3 67 153 24
3 154 153 67
3 154 25 153
3 154 106 25
3 155 106 154
3 155 12 106
3 155 156 12
3 157 156 155
3 157 27 156
3 69 157 26
3 158 157 69
3 158 27 157
3 158 113 27
3 159 113 158
3 159 13 113
3 497 118 498
3 160 499 501
3 499 118 500
3 499 500 501
3 160 14 118
3 161 162 10
3 163 162 161
3 163 30 162
3 71 163 29
3 164 163 71
3 164 30 163
3 164 128 30
3 165 128 164
3 165 15 128
3 166 502 503
3 166 504 505
3 166 506 508
3 506 103 507
3 506 507 508
3 167 103 166
3 167 4 103
3 136 75 3
3 168 75 136
3 168 32 75
3 77 168 16
3 169 168 77
3 169 32 168
3 169 167 32
3 170 167 169
3 170 4 167
3 170 151 4
3 171 151 170
3 171 24 151
3 79 171 33
3 172 171 79
3 172 24 171
3 172 66 24
3 173 66 172
3 173 509 511
3 511 510 66
3 509 510 511
3 141 82 6
3 174 82 141
3 174 35 82
3 84 174 18
3 175 174 84
3 175 35 174
3 175 512 514
3 514 513 35
3 512 513 514
3 516 515 175
3 86 517 519
3 519 518 36
3 517 518 519
3 176 520 522
3 522 521 86
3 520 521 522
3 176 523 524
3 176 525 526
3 528 527 176
3 177 178 1
3 179 178 177
3 179 39 178
3 89 179 38
3 529 179 530
3 531 530 89
3 529 530 531
3 532 39 533
3 534 533 179
3 532 533 534
3 536 535 39
3 538 537 8
3 92 539 540
3 180 541 543
3 543 542 92
3 541 542 543
3 180 544 545
3 180 546 548
3 546 73 547
3 546 547 548
3 181 73 180
3 181 2 73
3 181 182 2
3 183 182 181
3 183 549 551
3 551 550 182
3 549 550 551
3 94 183 40
3 552 183 553
3 554 553 94
3 552 553 554
3 556 555 183
3 146 95 9
3 557 95 558
3 559 558 146
3 557 558 559
3 561 560 95
3 564 563 21
3 562 563 564
3 184 185 0
3 186 185 184
3 186 42 185
3 97 186 41
3 187 186 97
3 187 42 186
3 187 125 42
3 188 125 187
3 188 10 125
3 189 565 566
3 189 567 569
3 567 43 568
3 567 568 569
3 99 189 22
3 190 189 99
3 190 43 189
3 190 188 43
3 191 188 190
3 191 10 188
3 191 161 10
3 192 161 191
3 192 29 161
3 101 192 44
3 193 192 101
3 193 29 192
3 193 70 29
3 194 70 193
3 194 1 70
3 195 570 571
3 195 572 574
3 572 23 573
3 572 573 574
3 104 575 577
3 575 195 576
3 575 576 577
3 196 195 104
3 196 23 195
3 196 150 23
3 197 150 196
3 197 11 150
3 152 105 4
3 198 105 152
3 198 46 105
3 107 198 25
3 199 198 107
3 199 46 198
3 199 197 46
3 200 197 199
3 200 11 197
3 200 102 11
3 201 102 200
3 201 45 102
3 109 201 47
3 202 201 109
3 202 45 201
3 202 194 45
3 203 194 202
3 203 1 194
3 203 177 1
3 204 177 203
3 204 38 177
3 111 204 48
3 205 204 111
3 205 38 204
3 205 88 38
3 206 88 205
3 206 8 88
3 156 112 12
3 207 112 156
3 207 49 112
3 114 207 27
3 208 207 114
3 208 49 207
3 208 206 49
3 209 206 208
3 209 8 206
3 209 578 580
3 580 579 8
3 578 579 580
3 210 581 583
3 583 582 209
3 581 582 583
3 210 584 585
3 116 210 50
3 586 210 587
3 588 587 116
3 586 587 588
3 590 589 210
3 591 63 592
3 184 593 595
3 593 63 594
3 593 594 595
3 184 0 63
3 211 596 597
3 211 598 599
3 211 600 602
3 600 139 601
3 600 601 602
3 212 139 211
3 212 5 139
3 213 603 604
3 213 605 606
3 213 607 609
3 607 212 608
3 607 608 609
3 214 212 213
3 214 5 212
3 214 80 5
3 215 80 214
3 215 34 80
3 610 215 611
3 612 611 52
3 610 611 612
3 216 613 615
3 613 215 614
3 613 614 615
3 216 34 215
3 216 173 34
3 616 173 617
3 618 617 216
3 616 617 618
3 620 619 173
3 621 28 622
3 623 28 624
3 625 159 626
3 627 626 28
3 625 626 627
3 217 628 630
3 628 159 629
3 628 629 630
3 217 13 159
3 119 631 632
3 218 633 635
3 635 634 119
3 633 634 635
3 218 636 637
3 218 638 640
3 638 217 639
3 638 639 640
3 219 217 218
3 219 13 217
3 219 117 13
3 220 117 219
3 220 51 117
3 121 220 53
3 221 220 121
3 221 51 220
3 221 641 643
3 643 642 51
3 641 642 643
3 645 644 221
3 123 646 647
3 222 648 650
3 650 649 123
3 648 649 650
3 222 651 652
3 222 653 655
3 653 160 654
3 653 654 655
3 223 160 222
3 223 14 160
3 656 124 657
3 224 658 660
3 658 124 659
3 658 659 660
3 224 55 124
3 661 224 662
3 225 663 665
3 663 224 664
3 663 664 665
3 225 55 224
3 225 223 55
3 226 223 225
3 226 14 223
3 226 122 14
3 666 122 667
3 668 667 226
3 666 667 668
3 669 54 670
3 671 670 122
3 669 670 671
3 672 54 673
3 675 674 54
3 185 62 0
3 227 62 185
3 227 19 62
3 126 227 42
3 228 227 126
3 228 19 227
3 228 144 19
3 229 144 228
3 229 7 144
3 162 127 10
3 230 127 162
3 230 56 127
3 129 230 30
3 231 230 129
3 231 56 230
3 231 229 56
3 232 229 231
3 232 7 229
3 232 87 7
3 233 87 232
3 233 37 87
3 131 233 57
3 234 233 131
3 234 37 233
3 234 676 678
3 678 677 37
3 676 677 678
3 680 679 234
3 178 72 1
3 235 72 178
3 235 31 72
3 133 235 39
3 236 235 133
3 236 31 235
3 236 165 31
3 237 165 236
3 237 15 165
3 134 681 682
3 238 683 685
3 685 684 134
3 683 684 685
3 238 686 687
3 238 688 690
3 688 237 689
3 688 689 690
3 239 237 238
3 239 15 237
3 239 132 15
3 240 132 239
3 240 58 132
3 691 240 692
3 693 692 59
3 691 692 693
3 694 240 695
3 696 58 697
3 698 697 240
3 696 697 698
3 700 699 58
3 182 74 2
3 241 74 182
3 241 701 703
3 703 702 74
3 701 702 703
3 704 241 705
3 706 241 707
3 709 708 241
