ply
format ascii 1.0
element vertex 428
property float x
property float y
property float z
element face 410
property list uchar int vertex_index
end_header
-8.31771 55.473354 -37.535313
-10.057684 75.500885 -36.069984
-3.703894 82.724983 -41.263294
-8.804253 64.58567 -36.722088
-5.429057 58.986427 -42.559673
-4.647708 70.937546 -42.396343
3.332971 75.180359 -47.06218
-9.898586 89.508171 -30.724237
-12.888869 88.368561 -25.769384
-13.47189 84.828743 -28.69005
-9.439204 70.031128 -36.483856
-7.148571 68.059822 -39.666817
-7.347888 73.580124 -39.45919
1.092664 85.593727 -43.327217
-0.041718 79.493652 -44.523949
4.63765 81.683571 -46.237087
-12.712161 76.065399 -32.195244
-11.691688 71.301956 -33.050335
-10.54792 80.51181 -34.97044
-7.383429 79.283424 -38.865128
-2.726098 88.356682 -39.56776
-13.309158 80.754715 -30.896868
-7.24448 57.127369 -39.797474
-7.102482 62.294254 -39.65414
-4.956594 64.97168 -42.47662
-4.278085 76.959099 -42.077862
-1.131218 73.218102 -44.922554
6.146541 69.685287 -48.985294
-11.364575 89.269501 -28.195992
-9.761084 72.735992 -36.335934
-8.514183 71.983841 -38.013641
-8.733464 74.69207 -37.790123
2.880333 83.728889 -44.886951
-11.407918 75.885155 -34.179047
-12.217752 73.75795 -32.703129
-10.990214 73.304268 -34.569389
-10.55768 70.834579 -34.834972
-10.507637 83.142448 -34.255684
-12.027311 85.355888 -30.924883
-13.482472 82.954926 -29.825516
-12.11084 83.121323 -32.001137
-11.923061 80.913383 -32.987633
-7.887463 61.117905 -38.211536
-7.972935 63.720787 -38.165058
-6.037975 69.639206 -41.035397
-6.074955 66.514 -41.063141
-4.732956 67.893539 -42.516548
-3.246153 69.01828 -43.819118
-5.590317 80.994759 -40.208088
-5.787256 78.26725 -40.57375
-3.882011 79.795349 -41.885803
1.548251 77.462692 -45.803909
-0.655558 76.240364 -44.781601
0.935283 74.258408 -46.022064
2.535097 71.862312 -47.198895
3.922356 69.103958 -48.214756
4.896991 72.377853 -48.151958
-6.467909 58.190048 -41.086422
-5.830415 56.410885 -42.495304
-4.594753 52.520145 -45.457058
-10.223072 87.588699 -32.07922
-8.076806 89.902832 -33.068192
-14.561402 85.909584 -24.896545
-14.70355 84.298325 -26.449383
-13.270989 86.703285 -27.27462
-11.82733 87.308884 -29.647316
-9.13873 67.315514 -36.552589
-8.054045 66.435173 -38.240547
-8.323514 69.127014 -38.069057
-7.22965 70.9534 -39.622467
-5.951653 72.544525 -41.012646
-1.361966 84.248878 -42.386864
-1.863152 81.314461 -42.960861
0.412305 82.667572 -43.95816
2.197864 80.630165 -45.436699
3.963081 78.495941 -46.713665
5.6514 75.894768 -47.869003
-13.930139 75.958214 -30.218752
-13.448523 73.615318 -30.652956
-12.807647 71.415421 -31.171829
-12.18896 68.932205 -31.472622
-11.222514 68.732826 -33.174057
-10.239335 68.154869 -34.791508
-4.648946 57.182957 -43.947453
-10.35761 78.054276 -35.581688
-8.823518 77.389091 -37.54858
-8.942876 80.084793 -37.020748
-3.215183 85.468063 -40.632065
-0.870078 87.050667 -41.546886
-14.767299 82.417023 -27.663015
-14.641724 80.258514 -28.730673
-14.280143 78.287498 -29.660641
-13.028385 78.348747 -31.703077
-11.715031 78.448624 -33.678337
-8.340112 57.303658 -37.264259
-7.889067 56.257618 -38.504299
-7.823612 58.561676 -38.395931
-7.122219 59.69416 -39.729752
-6.214765 60.828148 -41.171318
-7.097524 64.999397 -39.663189
-6.153462 63.539082 -41.067589
-5.188911 61.97543 -42.473549
-7.344409 76.471634 -39.279064
-5.887982 75.267906 -40.863308
-4.326736 73.891098 -42.420341
-2.194504 78.213852 -43.428162
-2.635634 75.230797 -43.602776
-2.89034 72.054436 -43.798397
5.351889 66.251617 -49.15834
-7.511405 54.807365 -39.735538
-5.208245 54.556831 -43.938324
-8.201484 54.834177 -38.008957
-8.460383 54.663505 -37.327864
-9.628671 84.204842 -34.877264
-10.494637 84.267521 -33.742508
-11.296239 84.256958 -32.615234
-12.069076 84.238606 -31.46301
-11.254475 85.37424 -32.077107
-10.494637 84.267521 -33.742508
-11.309238 83.131886 -33.128411
-11.296239 84.256958 -32.615234
-8.388594 64.153228 -37.443573
-8.29601 62.859141 -37.468204
-8.711669 63.291582 -36.746719
-9.088893 63.650138 -35.996243
-9.257378 65.037456 -35.938852
-8.711669 63.291582 -36.746719
-9.088893 63.650138 -35.996243
-13.522456 87.922139 -24.504752
-12.601544 89.163433 -24.872018
-13.725136 87.139072 -25.332964
-14.358722 86.69265 -24.068333
-13.522456 87.922139 -24.504752
5.54014 80.487336 -46.855209
5.202856 78.89352 -47.093498
4.300365 80.089756 -46.475376
-3.870347 87.450024 -39.116591
-3.68877 88.738163 -38.525873
-2.970641 86.912373 -40.099913
-4.114889 86.005714 -39.648743
-3.870347 87.450024 -39.116591
-8.130361 59.051226 -37.697769
-8.081862 57.932667 -37.830095
-8.388611 58.422216 -37.131933
-4.433199 63.96049 -43.147104
-4.549358 62.462365 -43.145569
-5.072752 63.473555 -42.475084
-1.291218 71.605675 -45.013609
-2.170779 71.023842 -44.451531
-2.010779 72.636269 -44.360475
6.827687 68.209549 -49.387228
6.430362 66.492714 -49.473751
5.749215 67.968452 -49.071817
7.625211 74.831814 -48.683627
6.431762 74.551437 -48.350245
6.844848 76.175145 -48.202385
-8.388611 58.422216 -37.131933
-8.609113 57.59477 -36.572689
-4.621029 54.754675 -44.602328
-4.928596 55.869894 -43.942889
-4.34138 56.067737 -44.606892
-5.201995 52.223084 -44.757204
-4.979056 51.261348 -45.546942
-8.836761 90.66272 -31.042098
-9.705369 90.432224 -29.815202
-11.940575 89.579872 -26.077425
-12.601544 89.163433 -24.872018
-11.178428 90.030342 -27.290729
-12.126722 88.819031 -26.982688
-11.940575 89.579872 -26.077425
-10.438364 90.312889 -28.55108
-11.178428 90.030342 -27.290729
-9.705369 90.432224 -29.815202
-10.631581 89.388836 -29.460114
-10.438364 90.312889 -28.55108
3.207374 85.269954 -44.474564
1.986498 84.661308 -44.107084
2.31354 86.202373 -43.694696
4.148978 84.334239 -45.222445
3.207374 85.269954 -44.474564
5.027636 83.31158 -45.897513
3.758991 82.70623 -45.562019
4.148978 84.334239 -45.222445
5.960504 82.117356 -46.588121
5.027636 83.31158 -45.897513
-9.743879 82.868972 -35.291588
-9.76402 81.553653 -35.648966
-10.527779 81.827129 -34.613062
-9.743879 82.868972 -35.291588
-9.628671 84.204842 -34.877264
-2.514328 89.68216 -38.88063
-3.68877 88.738163 -38.525873
-1.574748 89.116967 -39.95085
-2.514328 89.68216 -38.88063
-8.253274 61.557699 -37.491444
-8.162287 60.32934 -37.605571
-7.930199 62.419346 -38.188297
-8.253274 61.557699 -37.491444
-8.29601 62.859141 -37.468204
-4.091926 66.827717 -43.234245
-4.203744 65.366787 -43.214281
-4.844775 66.43261 -42.496584
-3.348524 67.390087 -43.88553
-4.091926 66.827717 -43.234245
-3.989554 68.45591 -43.167833
-2.603693 67.915173 -44.460253
-3.348524 67.390087 -43.88553
0.707072 72.596238 -46.126291
-0.326179 72.076085 -45.576536
-0.097968 73.738255 -45.472309
1.506979 71.39819 -46.714707
0.707072 72.596238 -46.126291
1.73519 73.06036 -46.610479
2.251629 70.075496 -47.302075
1.506979 71.39819 -46.714707
3.228727 70.483135 -47.706826
2.945259 68.69632 -47.810005
2.251629 70.075496 -47.302075
-6.597421 56.925754 -41.110805
-6.985706 56.394415 -40.466331
-6.856194 57.658709 -40.441948
-6.278674 56.036173 -41.815247
-6.597421 56.925754 -41.110805
-6.149162 57.300466 -41.790863
-6.025426 55.178953 -42.537883
-6.278674 56.036173 -41.815247
-3.937956 52.724907 -46.082903
-4.314283 53.736331 -45.361694
-4.351127 51.447653 -46.195187
-3.937956 52.724907 -46.082903
-4.73543 50.188856 -46.285071
-4.979056 51.261348 -45.546942
-4.351127 51.447653 -46.195187
-9.415976 87.607769 -33.167029
-10.352355 86.490646 -32.654276
-8.342842 88.764836 -33.661515
-9.415976 87.607769 -33.167029
-9.149939 88.745766 -32.573706
-7.239885 89.748513 -34.223619
-8.342842 88.764836 -33.661515
-7.925871 90.86005 -32.214075
-8.987696 89.705501 -31.896214
-8.836761 90.66272 -31.042098
-6.99754 90.867344 -33.485459
-7.925871 90.86005 -32.214075
-7.239885 89.748513 -34.223619
-6.99754 90.867344 -33.485459
-15.170845 85.38779 -23.65072
-14.358722 86.69265 -24.068333
-15.228045 84.704689 -24.485436
-15.170845 85.38779 -23.65072
-14.632476 85.103955 -25.672964
-15.299119 83.899059 -25.261855
-15.228045 84.704689 -24.485436
-10.352355 86.490646 -32.654276
-11.254475 85.37424 -32.077107
-11.125191 86.472294 -31.502052
6.047016 77.592934 -47.671167
4.80724 77.195355 -47.291334
5.202856 78.89352 -47.093498
6.844848 76.175145 -48.202385
6.047016 77.592934 -47.671167
5.54014 80.487336 -46.855209
5.960504 82.117356 -46.588121
-14.215356 74.71558 -29.532618
-14.515199 75.821678 -29.212379
-13.974547 73.544132 -29.749719
-14.215356 74.71558 -29.532618
-13.689331 74.786766 -30.435854
-13.653012 72.330799 -29.94677
-13.974547 73.544132 -29.749719
-13.332574 71.230851 -30.206207
-13.653012 72.330799 -29.94677
-13.128085 72.515369 -30.912392
-12.968471 70.146324 -30.454242
-13.332574 71.230851 -30.206207
-12.659128 68.904717 -30.604638
-12.968471 70.146324 -30.454242
-12.498303 70.173813 -31.322226
-12.338035 67.602913 -30.681034
-12.659128 68.904717 -30.604638
-11.896591 67.60252 -31.554473
-12.338035 67.602913 -30.681034
-11.413369 67.502831 -32.40519
-11.896591 67.60252 -31.554473
-11.705737 68.832515 -32.32334
-10.955679 67.343983 -33.263813
-11.413369 67.502831 -32.40519
-10.464089 67.055004 -34.072539
-10.955679 67.343983 -33.263813
-10.730925 68.443848 -33.982782
-9.974919 66.822056 -34.973562
-10.464089 67.055004 -34.072539
-9.424616 66.402378 -35.854103
-9.974919 66.822056 -34.973562
-9.689032 67.735191 -35.672049
-8.971491 65.950592 -36.637338
-9.257378 65.037456 -35.938852
-9.424616 66.402378 -35.854103
-4.460471 58.65313 -43.887171
-5.039001 58.084692 -43.253563
-4.850526 59.554865 -43.193281
-4.013814 57.5441 -44.575608
-4.460471 58.65313 -43.887171
-4.34138 56.067737 -44.606892
-4.013814 57.5441 -44.575608
-8.961498 81.340145 -36.67412
-9.745398 80.298302 -35.995594
-9.76402 81.553653 -35.648966
-8.073012 81.101315 -37.705141
-8.961498 81.340145 -36.67412
-7.293288 80.70063 -38.627331
-8.163152 79.684109 -37.942938
-8.073012 81.101315 -37.705141
-6.396732 81.556297 -39.298811
-6.486873 80.139092 -39.536608
-7.293288 80.70063 -38.627331
-5.465011 82.476567 -39.861941
-6.396732 81.556297 -39.298811
-4.5218 83.341679 -40.389544
-4.647106 81.859871 -40.735691
-5.465011 82.476567 -39.861941
-4.277444 84.713219 -40.073929
-4.114889 86.005714 -39.648743
-3.459538 84.096523 -40.947679
-4.5218 83.341679 -40.389544
-4.277444 84.713219 -40.073929
-0.646738 88.463959 -40.940413
-1.798088 87.703675 -40.557323
-1.574748 89.116967 -39.95085
0.392491 87.852554 -41.907347
-0.646738 88.463959 -40.940413
1.373862 87.124085 -42.797512
0.111293 86.322197 -42.437051
0.392491 87.852554 -41.907347
2.31354 86.202373 -43.694696
1.373862 87.124085 -42.797512
-15.335093 83.027031 -25.922956
-15.299119 83.899059 -25.261855
-15.366967 82.08638 -26.529772
-15.335093 83.027031 -25.922956
-14.735425 83.357674 -27.056199
-15.291419 81.153496 -27.121247
-15.366967 82.08638 -26.529772
-15.228632 80.074241 -27.655076
-15.291419 81.153496 -27.121247
-14.704511 81.337769 -28.196844
-15.093535 78.993061 -28.099798
-15.228632 80.074241 -27.655076
-14.912745 78.007553 -28.564782
-15.093535 78.993061 -28.099798
-14.460933 79.273006 -29.195657
-14.6902 76.986321 -28.933324
-14.912745 78.007553 -28.564782
-14.105141 77.122856 -29.939696
-14.515199 75.821678 -29.212379
-14.6902 76.986321 -28.933324
-7.855538 59.83979 -38.303733
-8.130361 59.051226 -37.697769
-8.162287 60.32934 -37.605571
-4.730453 61.049366 -43.150219
-4.850526 59.554865 -43.193281
-5.308984 60.480929 -42.516611
-4.730453 61.049366 -43.150219
-4.549358 62.462365 -43.145569
-4.433199 63.96049 -43.147104
-4.203744 65.366787 -43.214281
-2.348686 69.505764 -44.461891
-3.068246 70.536358 -43.808757
-2.170779 71.023842 -44.451531
-2.603693 67.915173 -44.460253
-2.348686 69.505764 -44.461891
-1.291218 71.605675 -45.013609
-0.326179 72.076085 -45.576536
3.603625 67.389912 -48.306106
2.945259 68.69632 -47.810005
4.318391 65.963741 -48.777899
3.603625 67.389912 -48.306106
4.637123 67.677787 -48.686548
4.86319 64.610216 -49.193245
4.318391 65.963741 -48.777899
5.925621 64.608204 -49.558881
4.86319 64.610216 -49.193245
5.925621 64.608204 -49.558881
6.430362 66.492714 -49.473751
6.054558 72.79298 -48.491722
5.274195 74.136311 -48.01048
6.431762 74.551437 -48.350245
6.679333 71.446697 -48.90839
5.521766 71.03157 -48.568626
6.054558 72.79298 -48.491722
7.283868 70.018234 -49.283037
6.679333 71.446697 -48.90839
6.827687 68.209549 -49.387228
7.283868 70.018234 -49.283037
-8.537651 56.522498 -36.808979
-8.609113 57.59477 -36.572689
-8.328911 56.388506 -37.399786
-8.52645 55.607346 -36.944506
-8.537651 56.522498 -36.808979
-8.52645 55.607346 -36.944506
-8.460383 54.663505 -37.327864
-7.987163 55.226309 -38.49345
-8.201484 54.834177 -38.008957
-8.103388 55.865486 -38.019806
-7.798332 54.501182 -39.10907
-7.987163 55.226309 -38.49345
-7.700236 55.532491 -39.119918
-7.699218 53.632337 -39.695438
-7.798332 54.501182 -39.10907
-7.119168 55.234413 -40.435363
-7.377942 55.967367 -39.766506
-6.985706 56.394415 -40.466331
-7.323064 54.034952 -40.412853
-7.119168 55.234413 -40.435363
-7.699218 53.632337 -39.695438
-7.323064 54.034952 -40.412853
-5.714341 54.251926 -43.259394
-6.025426 55.178953 -42.537883
-5.51933 55.483858 -43.216814
-4.901499 53.538488 -44.697691
-4.621029 54.754675 -44.602328
-4.314283 53.736331 -45.361694
-5.508741 53.241427 -43.997837
-4.901499 53.538488 -44.697691
-5.201995 52.223084 -44.757204
-5.714341 54.251926 -43.259394
-5.508741 53.241427 -43.997837
3 0 111 112
3 1 31 29
3 1 35 33
3 1 29 35
3 114 113 37
3 115 40 116
3 117 116 38
3 115 116 117
3 118 37 119
3 120 119 40
3 118 119 120
3 3 121 123
3 121 43 122
3 121 122 123
3 5 46 44
3 5 47 46
3 2 50 48
3 6 53 51
3 6 54 53
3 6 56 54
3 3 124 125
3 3 126 127
3 4 58 57
3 7 61 60
3 8 128 129
3 8 130 132
3 130 62 131
3 130 131 132
3 8 64 62
3 7 65 28
3 7 60 65
3 10 68 66
3 12 69 30
3 12 70 69
3 13 73 71
3 15 74 32
3 15 75 74
3 15 133 135
3 135 134 75
3 133 134 135
3 16 78 77
3 17 79 34
3 17 80 79
3 17 81 80
3 10 82 36
3 10 66 82
3 18 86 84
3 20 136 137
3 20 138 140
3 138 87 139
3 138 139 140
3 20 88 87
3 9 89 63
3 21 90 39
3 21 91 90
3 21 92 91
3 18 93 41
3 18 84 93
3 141 96 142
3 143 142 94
3 141 142 143
3 23 97 42
3 23 98 97
3 11 99 67
3 24 100 45
3 24 101 100
3 24 144 146
3 146 145 101
3 144 145 146
3 19 102 85
3 25 103 49
3 25 104 103
3 14 105 72
3 26 106 52
3 26 107 106
3 26 147 149
3 149 148 107
3 147 148 149
3 27 108 55
3 27 150 152
3 152 151 108
3 150 151 152
3 155 154 76
3 153 154 155
3 156 94 157
3 22 109 95
3 158 110 159
3 160 159 83
3 158 159 160
3 162 161 59
3 164 163 7
3 165 8 166
3 167 28 168
3 169 168 8
3 167 168 169
3 170 28 171
3 172 7 173
3 174 173 28
3 172 173 174
3 29 30 10
3 31 30 29
3 31 12 30
3 175 32 176
3 177 176 13
3 175 176 177
3 178 32 179
3 180 15 181
3 182 181 32
3 180 181 182
3 184 183 15
3 33 34 16
3 35 34 33
3 35 17 34
3 35 36 17
3 29 36 35
3 29 10 36
3 37 185 187
3 187 186 18
3 185 186 187
3 189 188 37
3 190 20 191
3 193 192 20
3 38 39 9
3 40 39 38
3 40 21 39
3 40 41 21
3 37 41 40
3 37 18 41
3 194 42 195
3 43 196 198
3 196 42 197
3 196 197 198
3 43 23 42
3 44 45 11
3 46 45 44
3 46 24 45
3 46 199 201
3 201 200 24
3 199 200 201
3 47 202 204
3 204 203 46
3 202 203 204
3 47 205 206
3 48 49 19
3 50 49 48
3 50 25 49
3 51 52 14
3 53 52 51
3 53 26 52
3 53 207 209
3 209 208 26
3 207 208 209
3 54 210 212
3 212 211 53
3 210 211 212
3 54 213 214
3 54 215 217
3 215 55 216
3 215 216 217
3 56 55 54
3 56 27 55
3 57 218 220
3 220 219 22
3 218 219 220
3 58 221 223
3 223 222 57
3 221 222 223
3 58 224 225
3 226 59 227
3 228 59 229
3 232 231 59
3 230 231 232
3 60 233 234
3 61 235 237
3 237 236 60
3 235 236 237
3 61 238 239
3 240 61 241
3 242 241 7
3 240 241 242
3 243 61 244
3 246 245 61
3 62 247 248
3 62 249 250
3 62 251 253
3 251 63 252
3 251 252 253
3 64 63 62
3 64 9 63
3 28 64 8
3 65 64 28
3 65 9 64
3 65 38 9
3 60 38 65
3 60 254 256
3 256 255 38
3 254 255 256
3 66 67 3
3 68 67 66
3 68 11 67
3 30 68 10
3 69 68 30
3 69 11 68
3 69 44 11
3 70 44 69
3 70 5 44
3 71 72 2
3 73 72 71
3 73 14 72
3 32 73 13
3 74 73 32
3 74 14 73
3 74 51 14
3 75 51 74
3 75 6 51
3 75 76 6
3 257 76 258
3 259 258 75
3 257 258 259
3 261 260 76
3 263 262 15
3 77 264 265
3 78 266 268
3 268 267 77
3 266 267 268
3 78 269 270
3 34 78 16
3 79 78 34
3 79 271 273
3 273 272 78
3 271 272 273
3 79 274 275
3 80 276 278
3 278 277 79
3 276 277 278
3 80 279 280
3 80 281 282
3 81 283 285
3 285 284 80
3 283 284 285
3 81 286 287
3 36 81 17
3 82 81 36
3 82 288 290
3 290 289 81
3 288 289 290
3 82 291 292
3 66 293 295
3 295 294 82
3 293 294 295
3 66 296 298
3 296 3 297
3 296 297 298
3 299 83 300
3 301 300 4
3 299 300 301
3 302 83 303
3 305 304 83
3 84 85 1
3 86 85 84
3 86 19 85
3 306 86 307
3 308 307 18
3 306 307 308
3 309 86 310
3 311 19 312
3 313 312 86
3 311 312 313
3 314 48 315
3 316 315 19
3 314 315 316
3 317 48 318
3 319 2 320
3 321 320 48
3 319 320 321
3 87 322 323
3 87 324 326
3 324 2 325
3 324 325 326
3 87 71 2
3 88 71 87
3 88 13 71
3 327 88 328
3 329 328 20
3 327 328 329
3 330 88 331
3 332 13 333
3 334 333 88
3 332 333 334
3 336 335 13
3 63 337 338
3 89 339 341
3 341 340 63
3 339 340 341
3 89 342 343
3 39 89 9
3 90 89 39
3 90 344 346
3 346 345 89
3 344 345 346
3 90 347 348
3 91 349 351
3 351 350 90
3 349 350 351
3 91 352 353
3 91 354 356
3 354 77 355
3 354 355 356
3 92 77 91
3 92 16 77
3 41 92 21
3 93 92 41
3 93 16 92
3 93 33 16
3 84 33 93
3 84 1 33
3 94 95 0
3 96 95 94
3 96 22 95
3 42 357 359
3 357 96 358
3 357 358 359
3 97 96 42
3 97 22 96
3 97 57 22
3 98 57 97
3 98 4 57
3 67 43 3
3 99 43 67
3 99 23 43
3 45 99 11
3 100 99 45
3 100 23 99
3 100 98 23
3 101 98 100
3 101 4 98
3 101 360 362
3 362 361 4
3 360 361 362
3 364 363 101
3 366 365 24
3 85 31 1
3 102 31 85
3 102 12 31
3 49 102 19
3 103 102 49
3 103 12 102
3 103 70 12
3 104 70 103
3 104 5 70
3 72 50 2
3 105 50 72
3 105 25 50
3 52 105 14
3 106 105 52
3 106 25 105
3 106 104 25
3 107 104 106
3 107 5 104
3 107 47 5
3 367 47 368
3 369 368 107
3 367 368 369
3 371 370 47
3 373 372 26
3 55 374 375
3 108 376 378
3 378 377 55
3 376 377 378
3 108 379 380
3 108 381 382
3 384 383 108
3 76 56 6
3 385 56 386
3 387 386 76
3 385 386 387
3 388 27 389
3 390 389 56
3 388 389 390
3 391 27 392
3 394 393 27
3 94 395 396
3 94 397 399
3 397 0 398
3 397 398 399
3 400 0 401
3 95 402 404
3 404 403 0
3 402 403 404
3 109 405 407
3 407 406 95
3 405 406 407
3 109 408 409
3 410 109 411
3 412 411 22
3 410 411 412
3 413 109 414
3 416 415 109
3 83 58 4
3 110 58 83
3 110 417 419
3 419 418 58
3 417 418 419
3 59 420 422
3 420 110 421
3 420 421 422
3 423 110 424
3 425 424 59
3 423 424 425
3 427 426 110
