ply
format ascii 1.0
element vertex 118
property float x
property float y
property float z
element face 82
property list uchar int vertex_index
end_header
-36.351521 60.144604 -31.192137
-32.640152 45.786072 -42.243858
-29.77965 43.362221 -45.494568
-26.397219 40.976101 -47.930923
-35.905712 59.553169 -33.968266
-34.353283 52.212273 -39.777328
-33.359783 51.035824 -41.765717
-30.843588 48.212837 -45.219345
-28.156557 42.225521 -46.811428
-35.222416 53.224716 -37.526497
-32.149155 49.742466 -43.664944
-31.182667 44.486938 -44.083187
-36.644987 58.295741 -30.374759
-36.504864 60.534628 -29.699199
-36.430374 57.872885 -31.784007
-36.644987 58.295741 -30.374759
-36.128616 59.848886 -32.580202
-36.20747 57.577168 -33.172072
-36.430374 57.872885 -31.784007
-33.577715 53.639916 -41.482253
-33.856533 51.624049 -40.771523
-34.074465 54.22814 -40.488058
-35.27195 55.858456 -37.112766
-35.594294 53.92269 -36.231972
-34.91903 55.231105 -38.318638
-35.27195 55.858456 -37.112766
-32.810488 43.942431 -41.591328
-33.249926 46.536741 -41.284056
-32.116594 43.29397 -42.482123
-32.810488 43.942431 -41.591328
-31.903532 51.640938 -44.271282
-32.49276 52.230461 -43.371845
-32.247137 54.128933 -43.978184
-29.946426 41.531363 -44.890119
-30.647934 42.093721 -44.184429
-30.481158 43.92458 -44.788877
-29.11381 40.920975 -45.590706
-29.946426 41.531363 -44.890119
-26.54578 39.269836 -47.439199
-27.425449 39.894547 -46.879452
-27.276888 41.600811 -47.371175
-25.587436 38.66433 -47.964862
-26.54578 39.269836 -47.439199
-25.564653 40.581785 -48.387332
-25.587436 38.66433 -47.964862
-35.935941 57.086916 -34.452856
-36.20747 57.577168 -33.172072
-35.613598 59.022682 -35.333651
-35.935941 57.086916 -34.452856
-34.106491 49.749842 -40.05079
-34.61358 50.172359 -38.996426
-33.609741 49.161617 -41.044985
-34.106491 49.749842 -40.05079
-33.856533 51.624049 -40.771523
-32.999967 48.410948 -42.004788
-33.249926 46.536741 -41.284056
-33.609741 49.161617 -41.044985
-30.573507 50.114025 -45.83703
-31.250749 50.876123 -45.048483
-30.127756 47.674109 -45.922584
-30.573507 50.114025 -45.83703
-29.595787 45.248801 -46.060196
-30.311619 45.787529 -45.356956
-30.127756 47.674109 -45.922584
-28.78424 44.68045 -46.718626
-28.968103 42.793871 -46.152998
-29.595787 45.248801 -46.060196
-27.972433 44.056478 -47.335634
-28.78424 44.68045 -46.718626
-27.092764 43.431769 -47.895381
-27.276888 41.600811 -47.371175
-27.972433 44.056478 -47.335634
-26.257848 42.844599 -48.397146
-27.092764 43.431769 -47.895381
-36.16856 62.473104 -30.612655
-36.504864 60.534628 -29.699199
-35.997496 62.203345 -32.08603
-36.16856 62.473104 -30.612655
-35.488486 51.306585 -36.719293
-35.594294 53.92269 -36.231972
-35.048147 50.678581 -37.87101
-35.488486 51.306585 -36.719293
-34.78785 52.718495 -38.651912
-34.61358 50.172359 -38.996426
-35.048147 50.678581 -37.87101
-34.484463 54.724884 -39.444053
-34.78785 52.718495 -38.651912
-34.91903 55.231105 -38.318638
-34.074465 54.22814 -40.488058
-34.484463 54.724884 -39.444053
-35.774591 61.907627 -33.474094
-36.128616 59.848886 -32.580202
-35.997496 62.203345 -32.08603
-35.582466 61.418905 -34.751345
-35.774591 61.907627 -33.474094
-35.613598 59.022682 -35.333651
-35.582466 61.418905 -34.751345
-33.098074 52.87714 -42.422232
-33.577715 53.639916 -41.482253
-33.316006 55.481232 -42.138768
-32.754469 50.389145 -42.715331
-33.098074 52.87714 -42.422232
-32.49276 52.230461 -43.371845
-31.496372 48.977652 -44.442144
-31.903532 51.640938 -44.271282
-31.250749 50.876123 -45.048483
-31.387851 42.644403 -43.401787
-32.116594 43.29397 -42.482123
-31.911409 45.136505 -43.163522
-31.387851 42.644403 -43.401787
-30.647934 42.093721 -44.184429
-28.302263 40.352625 -46.249136
-29.11381 40.920975 -45.590706
-28.968103 42.793871 -46.152998
-28.302263 40.352625 -46.249136
-27.425449 39.894547 -46.879452
-25.564653 40.581785 -48.387332
-26.257848 42.844599 -48.397146
3 0 12 13
3 0 14 15
3 0 16 18
3 16 4 17
3 16 17 18
3 19 6 20
3 21 20 5
3 19 20 21
3 22 9 23
3 25 24 9
3 1 26 27
3 1 28 29
3 30 10 31
3 30 31 32
3 2 11 7
3 2 33 35
3 35 34 11
3 33 34 35
3 2 36 37
3 3 38 40
3 40 39 8
3 38 39 40
3 3 41 42
3 3 43 44
3 4 45 46
3 4 47 48
3 5 49 50
3 6 51 53
3 53 52 5
3 51 52 53
3 6 54 56
3 54 1 55
3 54 55 56
3 57 7 58
3 59 7 60
3 61 2 62
3 63 62 7
3 61 62 63
3 64 8 65
3 66 65 2
3 64 65 66
3 67 8 68
3 69 3 70
3 71 70 8
3 69 70 71
3 73 72 3
3 74 0 75
3 77 76 0
3 9 78 79
3 9 80 81
3 9 82 84
3 82 5 83
3 82 83 84
3 85 5 86
3 87 86 9
3 85 86 87
3 89 88 5
3 90 4 91
3 92 91 0
3 90 91 92
3 93 4 94
3 96 95 4
3 97 6 98
3 97 98 99
3 10 100 102
3 100 6 101
3 100 101 102
3 10 1 6
3 7 103 105
3 103 10 104
3 103 104 105
3 11 10 7
3 11 1 10
3 11 106 108
3 108 107 1
3 106 107 108
3 110 109 11
3 8 111 113
3 113 112 2
3 111 112 113
3 115 114 8
3 117 116 3
