ply
format ascii 1.0
element vertex 958
property float x
property float y
property float z
element face 1097
property list uchar int vertex_index
end_header
-24.425484 19.416185 -36.260479
-37.867306 -38.525963 0.187868
-33.306313 -9.364587 -17.582508
-35.71254 5.955745 -33.671429
-33.58823 -22.330196 -3.590874
-39.779053 -25.106714 -17.441034
-41.078243 -6.745286 -36.599899
-32.72282 -16.633415 -10.516335
-38.772934 -32.823277 -8.968333
-30.492245 12.87906 -35.256504
-35.62368 12.578288 -43.489056
-22.979025 26.330202 -46.457176
-38.384956 -8.600811 -24.766571
-39.240383 -2.015003 -32.002193
-34.640598 -1.701307 -25.035797
-23.938404 11.645998 -26.532045
-37.501328 -30.089691 -2.098256
-37.165417 -24.073114 -10.10365
-37.58604 -16.67696 -17.536863
-40.527443 -16.775082 -24.837408
-40.655594 -25.933966 -24.456884
-39.374805 3.492263 -40.35334
-36.642517 -42.768669 1.646453
-38.298588 -35.848331 -4.579336
-27.546265 16.098049 -35.92382
-30.468935 16.556572 -40.355495
-27.221373 19.790758 -40.895985
-36.237854 -8.917751 -21.337856
-36.708424 -5.112305 -24.827965
-33.977333 -5.478679 -21.324968
-26.716408 8.267111 -26.28141
-23.333546 7.994767 -22.308441
-34.591702 -24.40274 0.021694
-35.937847 -26.22089 -2.822922
-37.277473 -27.440422 -6.117321
-35.459194 -23.48773 -6.696714
-32.805031 -13.106665 -13.954384
-35.318722 -16.671288 -14.001791
-35.707573 -12.916404 -17.619143
-38.01524 -12.552472 -21.312368
-39.779675 -29.787827 -17.048817
-39.980728 -30.398254 -20.523865
-40.396767 -25.486475 -21.122086
-40.813183 -21.144676 -24.750761
-40.201416 -20.77276 -21.400639
-37.71714 2.026229 -32.794827
-39.435688 0.749735 -35.940037
-37.850533 5.252274 -37.116966
-30.812309 -18.581591 -4.287061
-32.872047 -19.579983 -7.132265
-30.063107 -16.036192 -7.439783
-29.922323 -13.096654 -10.700305
-39.029964 -33.680386 -12.625997
-39.279537 -28.988869 -13.305013
-33.269669 9.425369 -34.350468
-35.81068 9.522044 -38.487129
-33.331966 13.245205 -39.56628
-32.952892 16.664684 -45.039085
-21.314262 22.980598 -36.299301
-23.959885 23.05402 -41.311092
-20.802202 26.273697 -41.237179
-19.582142 29.372225 -46.121399
-40.015949 -8.907515 -27.957867
-40.271809 -6.003226 -31.156153
-38.908882 -5.160671 -28.373888
-37.252541 -1.478537 -28.588411
-35.259209 2.260363 -29.226114
-32.811111 5.731169 -29.798031
-30.210796 8.949939 -30.443987
-27.273848 12.163469 -30.886374
-24.377254 15.430379 -31.144133
-38.179752 -34.252388 -1.088033
-38.25008 -31.6614 -5.29475
-38.43895 -28.256704 -9.744741
-38.702488 -24.702417 -13.694798
-35.201199 -20.23472 -10.35909
-37.328514 -20.503502 -13.939283
-39.018612 -20.614367 -17.638075
-39.410736 -16.582912 -21.365679
-39.7216 -12.54559 -24.757908
-40.730236 -12.592896 -27.970728
-40.044807 -31.139103 -23.938705
-40.770954 -26.527296 -27.83823
-41.081215 -21.365959 -28.067022
-41.08601 -16.555708 -28.264498
-40.433952 -3.765021 -34.538658
-40.461449 -1.583443 -38.477871
-37.751331 8.238634 -42.008495
-39.123188 5.649806 -45.004761
-26.389599 23.446167 -46.585667
-40.922916 -8.832008 -31.568371
-37.35939 -40.683449 1.081506
-37.649948 -39.423054 -1.482701
-38.085239 -37.162586 -2.185062
-25.924059 17.694485 -35.978653
-27.396086 18.050871 -38.438393
-25.832991 19.581657 -38.544678
-34.80254 -9.082504 -19.455158
-35.053795 -7.132172 -21.231262
-33.61327 -7.367009 -19.472324
-24.522564 6.178432 -22.034777
-32.767895 -21.5753 -2.219809
-33.434166 -22.597359 -0.550148
-34.132977 -23.577951 -1.74174
-35.260635 -25.424065 -1.296462
-34.850517 -24.275349 -3.217216
-35.652138 -24.920656 -4.751655
-34.489079 -22.908453 -5.162865
-33.092033 -11.312638 -15.78287
-34.350739 -12.987918 -15.854262
-34.573784 -11.072628 -17.649786
-35.969566 -10.939658 -19.4744
-39.876022 -27.361605 -17.312048
-40.119289 -27.571556 -19.183876
-40.146278 -25.346004 -19.325855
-40.369179 -23.270765 -21.196177
-40.006676 -23.033178 -19.443058
-36.80022 4.049635 -33.293846
-37.852345 3.643771 -34.963711
-36.9188 5.703595 -35.494644
-41.231068 -9.21704 -35.415405
-41.264301 -8.744244 -37.253216
-30.027065 -17.896887 -3.043045
-30.424276 -17.465658 -5.795598
-28.979826 -15.657684 -6.055332
-38.598507 -34.990582 -8.486881
-38.631302 -35.510231 -10.434476
-38.948002 -33.141628 -10.880483
-39.277145 -31.243759 -13.130168
-39.030315 -30.861397 -11.183345
-32.006485 11.133998 -34.869263
-33.401669 11.360118 -36.9771
-31.971571 13.089235 -37.356922
-30.181252 18.418833 -43.061447
-31.727417 16.736208 -42.641525
-31.474077 18.379986 -45.410995
-19.836557 24.808512 -36.152061
-20.991999 24.725302 -38.595474
-19.501728 26.630157 -38.708839
-18.659056 29.580902 -43.520718
-18.795174 30.693476 -48.562763
-17.106144 32.194191 -47.972828
-39.292267 -8.756786 -26.373749
-39.468349 -7.03804 -28.043955
-38.621994 -6.817647 -26.51235
-35.707306 -3.351641 -24.922064
-36.997974 -3.183562 -26.767004
-35.967464 -1.281719 -26.944824
-36.324051 0.47145 -28.958637
-34.988377 0.29642 -27.120441
-31.078365 -4.154015 -19.525454
-32.57832 3.66153 -27.560131
-31.164164 5.263888 -27.682312
-31.530437 7.321192 -30.081566
-29.878311 7.063214 -28.193705
-25.358337 9.983651 -26.530239
-27.060852 10.059612 -28.423307
-25.52759 11.859482 -28.626558
-25.797937 13.766964 -31.010178
-24.08884 13.627537 -28.772869
-37.106266 -29.361513 -0.395852
-37.684277 -31.295862 0.06175
-38.053257 -33.356209 0.631082
-37.965092 -32.156586 -1.613181
-38.19717 -32.94096 -3.233292
-37.905991 -30.909506 -3.66909
-37.196831 -25.765842 -8.185977
-37.913692 -27.901981 -7.993477
-37.944172 -26.140572 -10.042842
-38.565926 -26.461493 -11.808835
-37.953297 -24.274128 -11.920617
-32.794415 -18.246538 -8.792809
-34.138119 -20.119362 -8.661911
-33.9958 -18.431499 -10.394508
-36.49958 -16.58993 -15.819702
-36.426765 -18.496611 -14.087229
-37.515255 -18.705273 -15.812498
-38.261383 -20.716078 -15.72759
-38.379982 -18.60685 -17.598753
-39.177277 -18.580116 -19.446619
-38.537743 -16.526064 -19.440653
-38.224636 -10.576091 -23.074661
-38.977234 -12.55352 -23.091497
-39.135464 -10.608086 -24.744057
-39.870163 -10.705076 -26.336912
-40.354725 -28.22187 -22.657505
-39.99921 -30.928967 -22.254335
-40.411339 -28.515963 -24.288286
-40.461281 -28.759459 -26.014383
-40.727318 -26.183292 -26.185152
-40.97039 -23.898647 -28.045895
-40.886749 -23.861727 -26.321857
-40.736206 -18.844652 -24.905783
-40.972786 -18.848156 -26.589046
-40.858849 -16.750599 -26.521662
-40.946201 -14.62976 -28.027925
-40.630192 -14.628054 -26.417492
-39.838665 -4.087892 -31.607931
-40.380497 -4.879296 -32.820217
-39.881004 -2.57876 -33.388493
-39.443592 2.127249 -38.120739
-40.041492 -0.385984 -37.239525
-40.003685 0.905235 -39.438499
-40.447578 -0.683244 -40.642769
-39.980598 1.806566 -41.617126
-35.817028 10.984971 -40.881687
-36.886391 8.948271 -40.239307
-36.708614 10.580544 -42.867329
-38.249348 8.354552 -46.210255
-23.622566 24.673241 -43.893658
-25.286346 23.243479 -44.04443
-24.671541 24.942541 -46.663124
-35.716518 -44.942123 2.490939
-38.531639 -34.267433 -6.761098
-29.01569 14.553132 -35.665142
-30.511719 14.863377 -37.908463
-28.995003 16.413059 -38.160095
-28.857216 18.229164 -40.716686
-28.606438 20.044893 -43.481243
-37.376312 -8.779933 -23.022263
-37.633381 -6.797679 -24.877293
-36.431923 -6.978242 -23.040106
-35.435841 -5.291259 -23.080763
-34.292133 -3.653412 -23.088083
-28.156164 6.50323 -26.007055
-26.307713 6.282232 -23.99987
-25.027374 8.041862 -24.29862
-23.597393 9.863098 -24.371521
-36.257057 -27.351315 -0.760917
-36.79076 -28.073912 -2.431844
-37.343811 -28.821121 -4.019542
-36.567177 -26.797865 -4.376095
-36.427963 -25.416199 -6.347872
-36.282097 -23.741701 -8.346511
-32.804501 -14.993234 -12.24991
-34.097847 -16.71431 -12.276604
-34.128178 -14.860917 -14.007213
-35.400234 -14.73401 -15.758708
-36.698257 -14.759229 -17.581413
-37.803192 -14.673208 -19.418182
-36.929909 -12.828581 -19.394022
-37.127399 -10.806742 -21.173326
-39.52507 -32.032898 -16.673525
-39.543465 -32.590382 -18.405993
-39.910553 -30.05533 -18.836763
-40.271141 -27.850731 -20.950897
-40.550198 -25.701841 -22.750759
-40.783512 -23.534643 -24.587158
-40.627037 -23.288458 -22.973886
-40.565262 -21.026518 -23.064417
-40.360996 -18.766733 -23.10384
-38.528267 -0.05176 -32.306358
-39.32312 -0.430967 -33.991886
-38.638462 1.549098 -34.373512
-38.687191 3.059661 -36.505051
-38.701275 4.473219 -38.748886
-35.240433 14.158099 -46.117165
-36.531174 11.853601 -45.417568
-22.235195 27.778261 -48.901733
-31.672213 -9.634058 -15.678158
-32.055058 -7.690702 -17.637512
-30.376135 -7.865719 -15.851851
-31.410206 -19.715874 -2.653603
-32.21941 -20.420969 -3.945745
-33.17865 -20.97859 -5.449702
-31.782515 -19.164618 -5.607641
-31.500349 -17.857418 -7.213361
-31.395626 -16.406349 -8.955166
-28.619158 -14.259866 -7.617728
-29.920029 -14.549645 -9.12968
-31.348402 -14.77298 -10.691243
-31.403131 -13.151731 -12.335534
-31.501995 -11.396059 -14.014988
-39.071243 -34.177593 -14.524824
-39.393406 -31.923349 -14.781062
-39.582939 -29.441599 -15.240396
-39.52401 -27.177286 -15.315208
-34.540886 7.783733 -34.096191
-35.895779 7.668418 -36.067261
-34.641201 9.613635 -36.521893
-34.642422 11.446124 -39.112057
-34.497395 13.118017 -41.56234
-32.004559 14.8902 -40.014107
-33.213245 15.056194 -42.368198
-34.330482 14.684947 -44.262466
-33.898998 16.290949 -46.987915
-22.784513 21.143209 -36.167389
-24.191883 21.314264 -38.739407
-22.630331 22.953129 -38.748615
-22.331062 24.571241 -41.106846
-21.901876 26.235067 -43.722687
-19.164497 28.100416 -41.052757
-20.174253 27.915201 -43.519901
-21.240883 27.792826 -46.144302
-20.483887 29.204264 -48.647346
-40.539391 -9.257705 -29.304991
-40.622204 -7.94486 -30.70755
-40.158463 -7.430519 -29.498936
-39.697853 -5.507413 -29.868782
-39.09882 -3.548468 -30.177135
-37.900776 -5.017299 -26.6768
-38.17041 -3.314109 -28.531826
-38.322792 -1.60382 -30.343061
-37.437901 0.400145 -30.614351
-36.508656 2.345186 -31.014717
-35.481041 4.183924 -31.41391
-32.435505 -5.764461 -19.542454
-32.787525 -3.820689 -21.429222
-33.114117 -1.811834 -23.367729
-33.471966 0.100996 -25.315054
-33.873962 2.072362 -27.459726
-34.056282 4.04563 -29.512568
-34.404045 5.913373 -31.824434
-33.141586 7.507695 -32.011936
-31.806946 9.174334 -32.351921
-30.362282 10.865222 -32.702656
-28.501406 8.493479 -28.281359
-28.673197 10.473407 -30.509802
-28.971001 12.537794 -33.1422
-27.43959 14.137739 -33.331936
-25.942135 15.835823 -33.613201
-24.433548 17.409573 -33.600044
-22.253681 11.829319 -24.514851
-22.915365 17.329021 -31.327824
-22.929695 19.193888 -33.684647
-21.387362 21.147697 -33.714916
-19.946518 23.101559 -33.671989
-38.17094 -35.503414 1.261124
-38.148598 -36.331856 -0.465143
-38.257637 -35.07354 -2.729342
-38.384407 -33.812096 -4.858406
-38.534039 -32.125648 -7.114637
-37.88755 -29.509312 -5.79451
-38.330078 -30.052082 -7.50838
-38.707951 -30.524525 -9.279259
-38.899025 -28.69298 -11.454278
-39.110508 -26.829546 -13.585605
-39.293777 -24.808441 -15.608929
-34.216236 -21.525171 -6.877334
-35.223919 -21.813181 -8.525756
-36.247345 -22.13755 -10.18881
-35.294289 -18.549601 -12.235342
-36.305725 -20.33189 -12.181386
-37.211372 -22.245621 -12.095476
-38.103882 -22.536831 -13.867895
-38.87212 -22.634758 -15.781096
-39.505417 -22.798731 -17.623236
-39.680096 -20.666029 -19.529444
-39.844807 -18.693981 -21.255749
-40.047607 -16.603752 -23.15229
-38.797283 -14.497244 -21.392887
-39.584538 -14.53852 -23.124645
-40.177887 -14.54721 -24.79561
-40.305733 -12.633281 -26.354979
-40.407566 -10.783236 -27.830948
-39.583752 -32.870499 -20.252985
-39.569202 -33.356373 -21.870478
-40.980839 -21.265554 -26.499134
-41.128559 -18.813101 -28.263247
-40.710163 -6.985559 -32.162888
-40.787731 -6.120586 -33.806702
-40.819618 -5.156374 -35.631004
-39.988235 -1.46048 -35.287548
-40.489208 -2.762019 -36.488548
-40.83316 -4.230248 -37.573933
-40.766285 -2.514736 -41.642525
-36.960201 7.395923 -37.922604
-37.926498 6.641074 -39.562843
-38.691589 5.791342 -41.280792
-37.547523 9.646242 -44.612942
-38.471794 7.249239 -43.728577
-39.324638 4.502365 -42.638714
-39.814529 2.962544 -43.997623
-25.647238 21.422688 -41.238075
-26.92244 21.648134 -43.735085
-40.871946 -9.121815 -30.966555
-40.965147 -9.723695 -31.121309
-41.08485 -6.404486 -37.56299
-41.177879 -7.403965 -37.889648
-41.171272 -7.744765 -36.926558
-28.520165 -15.336205 -5.528715
-29.227214 -16.264978 -5.327881
-30.660001 19.2305 -45.592554
-30.827665 18.399409 -44.236221
-30.013589 19.249924 -44.41778
-31.201647 19.186588 -46.753892
-30.660001 19.2305 -45.592554
-18.909826 26.787129 -37.373233
-19.669142 25.719335 -37.43045
-19.077241 25.876306 -36.094845
-16.728588 32.414282 -46.598305
-17.50629 31.599776 -46.868109
-30.334252 5.101306 -26.747926
-31.007976 4.270199 -26.615443
-29.691326 6.000969 -27.003622
-30.521237 6.163551 -27.938009
-30.334252 5.101306 -26.747926
-36.416199 -43.240002 0.798146
-35.953199 -44.326729 1.22039
-36.179518 -43.855396 2.068696
-38.287302 -36.213833 -5.448303
-38.134301 -36.915855 -4.24598
-38.415114 -35.057882 -5.670217
-38.403827 -35.423383 -6.539184
-38.287302 -36.213833 -5.448303
-26.165809 5.294327 -22.968022
-26.991772 5.419564 -23.881028
-34.406416 -23.981664 0.659002
-33.827648 -23.078973 0.373081
-34.012934 -23.50005 -0.264227
-34.953485 -24.929353 0.907725
-34.406416 -23.981664 0.659002
-35.165442 -25.416882 0.295472
-34.953485 -24.929353 0.907725
-35.655404 13.727266 -47.08371
-34.979233 14.909737 -47.522147
-22.695358 27.756976 -50.262514
-21.759159 28.450711 -50.080719
-30.267095 -8.850271 -14.914985
-31.024174 -8.749889 -15.765004
-30.915135 -9.73444 -14.828138
-27.889721 -13.376141 -7.664103
-28.080236 -14.030782 -6.982252
-29.921176 -13.823149 -9.914993
-29.180499 -13.717113 -9.114297
-29.181646 -12.990618 -9.89961
-30.830025 -10.615441 -13.996554
-30.723376 -11.450896 -13.140007
-30.915135 -9.73444 -14.828138
-31.587104 -10.515058 -14.846573
-30.830025 -10.615441 -13.996554
-38.826961 -34.832495 -12.466365
-38.62763 -35.747417 -11.370604
-38.830633 -34.595309 -11.530237
-39.050604 -33.92899 -13.575411
-38.847601 -35.081098 -13.415779
-38.826961 -34.832495 -12.466365
-18.405441 29.014043 -40.893879
-18.59776 28.277235 -39.683249
-19.14744 30.602951 -49.823015
-18.250293 31.310095 -49.557357
-31.560936 -5.884612 -18.603806
-32.245282 -6.727581 -18.589983
-31.370713 -6.847732 -17.651336
-32.113365 -3.04525 -21.407715
-31.932945 -3.987352 -20.477338
-31.258785 -3.211914 -20.455831
-32.276661 -2.040823 -22.376969
-32.950821 -2.816261 -22.398475
-32.113365 -3.04525 -21.407715
-32.850691 0.920917 -25.401753
-32.617528 -0.017743 -24.379925
-33.051689 1.9066 -26.474089
-33.672964 1.086679 -26.38739
-32.850691 0.920917 -25.401753
-21.455029 12.032211 -23.5154
-22.1113 10.912111 -23.446879
-22.143687 18.305543 -31.277515
-22.137622 17.365979 -30.148542
-22.150852 19.237976 -32.455926
-22.92253 18.261454 -32.506236
-22.143687 18.305543 -31.277515
-21.379686 20.21488 -32.471061
-22.158528 20.170793 -33.699782
-22.150852 19.237976 -32.455926
-19.271221 23.408771 -32.559329
-19.969833 22.235559 -32.495439
-19.223951 24.236314 -33.717045
-19.271221 23.408771 -32.559329
-39.793273 -32.505382 -23.668842
-39.555471 -33.614018 -22.634729
-39.807004 -32.247738 -22.904591
-40.051191 -31.33099 -24.740882
-39.793273 -32.505382 -23.668842
-40.613932 -27.924166 -27.689126
-40.459095 -29.040248 -26.777203
-40.616118 -27.643377 -26.926306
-40.787813 -26.700468 -28.666345
-40.613932 -27.924166 -27.689126
-40.89483 -25.379421 -28.744219
-40.787813 -26.700468 -28.666345
-41.116367 -21.496684 -28.894533
-41.060955 -22.763028 -28.883969
-41.025802 -22.632303 -28.056459
-41.151354 -20.181907 -28.941172
-41.116367 -21.496684 -28.894533
-41.156431 -16.5407 -29.079736
-41.177706 -17.669396 -29.07911
-41.107285 -17.684404 -28.263872
-41.119619 -15.464551 -29.005676
-41.156431 -16.5407 -29.079736
-40.86531 -12.543608 -28.718196
-40.973293 -13.56204 -28.746795
-40.838218 -13.611328 -27.999327
-40.758459 -11.66962 -28.637142
-40.86531 -12.543608 -28.718196
-40.640809 -2.482045 -38.989853
-40.826664 -3.805447 -38.537884
-40.647305 -2.906845 -38.025902
-40.565953 -1.15719 -42.337786
-40.606932 -1.59899 -41.142647
-40.406599 -0.241443 -41.837908
-40.726235 -2.265713 -42.749003
-40.565953 -1.15719 -42.337786
-37.371011 10.316072 -45.923001
-37.039349 10.749921 -45.015255
-36.862837 11.419752 -46.325314
-27.227784 22.648019 -46.400435
-27.494204 21.749002 -44.975144
-26.656019 22.547151 -45.160376
-41.021572 -9.532584 -31.827257
-40.965147 -9.723695 -31.121309
-40.960829 -8.500103 -32.306345
-41.021572 -9.532584 -31.827257
-37.18396 -41.139578 0.176562
-36.825524 -42.182188 0.459035
-37.000953 -41.726059 1.36398
-37.329239 -40.50938 -1.105541
-37.18396 -41.139578 0.176562
-37.504669 -40.053252 -0.200597
-37.536881 -39.797777 -2.395948
-37.329239 -40.50938 -1.105541
-37.809981 -38.703216 -2.697662
-37.536881 -39.797777 -2.395948
-38.027626 -37.572982 -3.048843
-37.809981 -38.703216 -2.697662
-37.867593 -38.29282 -1.833881
-38.191913 -36.505459 -3.382199
-38.134301 -36.915855 -4.24598
-38.027626 -37.572982 -3.048843
-24.423417 5.220706 -21.07441
-25.273235 5.242427 -21.985475
-23.716452 6.171876 -21.083565
-24.423417 5.220706 -21.07441
-23.121944 7.080044 -21.220397
-23.928055 7.0866 -22.171609
-23.716452 6.171876 -21.083565
-33.101031 -22.086329 -1.384979
-32.814284 -21.706392 -0.779124
-32.481148 -21.195362 -1.613955
-41.29549 -10.255795 -35.685817
-41.275768 -10.4867 -34.795765
-41.312107 -10.019397 -36.604723
-41.29549 -10.255795 -35.685817
-41.247685 -8.980642 -36.334311
-41.332632 -9.955663 -37.483845
-41.312107 -10.019397 -36.604723
-41.272483 -8.537188 -38.160629
-41.332632 -9.955663 -37.483845
-41.272483 -8.537188 -38.160629
-41.177879 -7.403965 -37.889648
-29.316326 -16.943648 -3.310659
-29.694806 -17.413351 -2.606687
-29.750833 -17.38458 -3.821738
-29.316326 -16.943648 -3.310659
-30.143456 -17.726931 -4.443746
-30.419687 -18.239239 -3.665053
-29.750833 -17.38458 -3.821738
-29.949439 -17.168965 -5.198014
-30.618292 -18.023625 -5.041329
-30.143456 -17.726931 -4.443746
-29.702051 -16.561671 -5.925465
-29.949439 -17.168965 -5.198014
-29.227214 -16.264978 -5.327881
-29.166315 -12.256333 -10.66997
-29.181646 -12.990618 -9.89961
-29.93354 -12.301194 -11.482666
-29.166315 -12.256333 -10.66997
-38.614904 -35.250406 -9.460679
-38.440876 -36.297731 -9.329064
-38.424478 -36.037907 -8.355266
-31.98001 18.287152 -46.514562
-32.719417 17.429502 -46.328608
-32.213484 17.522335 -45.22504
-31.98001 18.287152 -46.514562
-31.201647 19.186588 -46.753892
-17.847272 30.478947 -43.240521
-18.152721 29.754286 -42.127859
-18.282745 30.293132 -44.642054
-17.847272 30.478947 -43.240521
-18.744288 30.188794 -45.942394
-19.120599 29.476563 -44.821058
-18.282745 30.293132 -44.642054
-18.350804 30.849419 -47.163077
-19.188658 30.032851 -47.342081
-18.744288 30.188794 -45.942394
-17.950659 31.443833 -48.267795
-18.350804 30.849419 -47.163077
-17.50629 31.599776 -46.868109
-17.405778 32.060452 -49.26239
-18.250293 31.310095 -49.557357
-17.950659 31.443833 -48.267795
-30.241763 -4.350167 -18.58417
-30.882366 -5.079389 -18.595306
-30.381335 -3.355759 -19.527759
-30.241763 -4.350167 -18.58417
-31.258785 -3.211914 -20.455831
-30.381335 -3.355759 -19.527759
-31.715054 3.46902 -26.554352
-32.403868 2.701184 -26.524291
-31.871242 4.462709 -27.621221
-31.715054 3.46902 -26.554352
-31.007976 4.270199 -26.615443
-37.24807 -29.861788 0.655981
-36.896665 -28.895683 0.357666
-37.537076 -30.828963 0.884781
-37.24807 -29.861788 0.655981
-37.395271 -30.328688 -0.167051
-37.787249 -31.829892 1.168777
-37.537076 -30.828963 0.884781
-37.868767 -32.326036 0.346416
-37.971739 -32.860066 1.453443
-37.787249 -31.829892 1.168777
-40.173109 1.003462 -42.325086
-40.406599 -0.241443 -41.837908
-40.214088 0.561661 -41.129948
-38.059441 8.905995 -47.490391
-37.721924 9.670227 -46.721657
-37.532017 10.221671 -48.001793
-38.525549 7.556512 -46.868487
-38.059441 8.905995 -47.490391
-38.962469 6.204139 -46.26574
-38.686268 7.002179 -45.607508
-38.525549 7.556512 -46.868487
-39.358013 4.758796 -45.661169
-38.962469 6.204139 -46.26574
-41.207497 -9.450567 -34.545969
-41.275768 -10.4867 -34.795765
-41.138852 -8.352241 -35.044821
-41.207497 -9.450567 -34.545969
-41.062439 -7.116364 -35.637068
-41.154656 -7.981163 -36.007652
-41.138852 -8.352241 -35.044821
-35.449131 -45.420795 1.566796
-35.220852 -45.933886 2.781675
-35.449131 -45.420795 1.566796
-35.953199 -44.326729 1.22039
-36.416199 -43.240002 0.798146
-36.825524 -42.182188 0.459035
-38.437261 -35.784958 -7.402076
-38.424478 -36.037907 -8.355266
-38.565073 -34.629008 -7.62399
-38.437261 -35.784958 -7.402076
-38.403827 -35.423383 -6.539184
-29.226182 20.062954 -44.627678
-30.013589 19.249924 -44.41778
-29.393845 19.231863 -43.271345
-27.915997 5.530064 -24.884621
-28.830253 5.720977 -25.910297
-27.231938 6.392731 -25.003463
-27.915997 5.530064 -24.884621
-26.991772 5.419564 -23.881028
-25.415138 6.230332 -23.017323
-26.165809 5.294327 -22.968022
-25.273235 5.242427 -21.985475
-33.170406 -22.066765 0.028679
-32.814284 -21.706392 -0.779124
-33.170406 -22.066765 0.028679
-33.827648 -23.078973 0.373081
-35.499909 -25.927544 -0.363606
-35.165442 -25.416882 0.295472
-34.926169 -24.913403 -0.637384
-35.99812 -26.891169 -0.095833
-35.499909 -25.927544 -0.363606
-35.758846 -26.38769 -1.02869
-36.472061 -27.890584 0.175133
-35.99812 -26.891169 -0.095833
-36.681662 -28.356414 -0.578384
-36.896665 -28.895683 0.357666
-36.472061 -27.890584 0.175133
-39.534267 -32.31164 -17.539759
-39.321394 -33.535853 -17.363441
-39.312196 -33.257111 -16.497207
-36.300774 12.575017 -46.733912
-35.885804 13.00585 -45.767367
-35.655404 13.727266 -47.08371
-36.862837 11.419752 -46.325314
-36.300774 12.575017 -46.733912
-23.113996 27.106392 -49.084333
-23.48591 26.382362 -47.862054
-22.60711 27.054232 -47.679454
-23.113996 27.106392 -49.084333
-22.695358 27.756976 -50.262514
-30.531251 -6.935241 -16.758505
-31.370713 -6.847732 -17.651336
-31.215597 -7.778211 -16.744681
-29.596167 -7.98372 -14.985291
-30.267095 -8.850271 -14.914985
-29.6344 -7.048834 -15.810972
-29.596167 -7.98372 -14.985291
-30.531251 -6.935241 -16.758505
-29.6344 -7.048834 -15.810972
-30.395503 -18.374198 -2.324291
-29.694806 -17.413351 -2.606687
-31.087073 -19.283691 -2.12957
-30.395503 -18.374198 -2.324291
-30.718635 -18.80638 -2.848324
-31.802304 -20.265649 -1.830852
-31.087073 -19.283691 -2.12957
-32.08905 -20.645587 -2.436706
-32.481148 -21.195362 -1.613955
-31.802304 -20.265649 -1.830852
-28.260569 -14.729691 -6.201054
-28.520165 -15.336205 -5.528715
-28.799492 -14.958775 -6.83653
-28.260569 -14.729691 -6.201054
-28.080236 -14.030782 -6.982252
-28.530063 -13.572224 -8.358321
-27.889721 -13.376141 -7.664103
-29.269593 -14.404756 -8.373704
-28.530063 -13.572224 -8.358321
-29.180499 -13.717113 -9.114297
-30.673944 -12.328732 -12.30028
-30.662727 -13.124192 -11.51792
-29.93354 -12.301194 -11.482666
-31.452563 -12.273895 -13.175261
-30.673944 -12.328732 -12.30028
-30.723376 -11.450896 -13.140007
-38.38949 -36.62718 -10.191608
-38.440876 -36.297731 -9.329064
-38.38949 -36.62718 -10.191608
-38.62763 -35.747417 -11.370604
-38.816873 -35.354755 -14.323514
-38.847601 -35.081098 -13.415779
-39.085283 -34.329458 -15.422857
-38.816873 -35.354755 -14.323514
-39.298157 -33.105246 -15.599175
-39.312196 -33.257111 -16.497207
-39.085283 -34.329458 -15.422857
-34.308515 15.976162 -47.957521
-34.979233 14.909737 -47.522147
-34.569716 15.224524 -46.55254
-33.19247 17.242634 -47.303022
-33.425945 16.477817 -46.0135
-32.719417 17.429502 -46.328608
-33.633577 16.985859 -48.313412
-33.19247 17.242634 -47.303022
-34.308515 15.976162 -47.957521
-33.633577 16.985859 -48.313412
-35.512096 -45.440189 3.713334
-35.220852 -45.933886 2.781675
-36.006943 -44.377174 3.283307
-35.512096 -45.440189 3.713334
-36.469942 -43.290447 2.861064
-36.179518 -43.855396 2.068696
-36.006943 -44.377174 3.283307
-36.864719 -42.265958 2.549872
-36.469942 -43.290447 2.861064
-37.223156 -41.223349 2.267399
-37.000953 -41.726059 1.36398
-36.864719 -42.265958 2.549872
-37.51827 -40.169742 1.864641
-37.223156 -41.223349 2.267399
-37.772228 -39.090999 1.417822
-37.613348 -39.604706 0.634687
-37.51827 -40.169742 1.864641
-18.766376 27.542105 -38.51129
-18.909826 26.787129 -37.373233
-19.333112 27.365286 -39.880798
-18.766376 27.542105 -38.51129
-18.59776 28.277235 -39.683249
-18.911777 28.840659 -42.286738
-18.405441 29.014043 -40.893879
-18.152721 29.754286 -42.127859
-20.883505 29.163712 -49.953525
-21.759159 28.450711 -50.080719
-21.359541 28.491262 -48.77454
-19.991796 29.858345 -49.865307
-19.63953 29.94887 -48.605054
-19.14744 30.602951 -49.823015
-20.883505 29.163712 -49.953525
-19.991796 29.858345 -49.865307
-16.333782 32.959851 -47.772205
-16.728588 32.414282 -46.598305
-16.574373 32.764124 -49.083876
-16.333782 32.959851 -47.772205
-17.405778 32.060452 -49.26239
-16.574373 32.764124 -49.083876
-40.580798 -8.601282 -30.00627
-40.72159 -8.678241 -30.536144
-40.680183 -9.334663 -29.834865
-31.756935 -4.959238 -19.533954
-31.560936 -5.884612 -18.603806
-30.882366 -5.079389 -18.595306
-32.438603 -0.974158 -23.406263
-32.276661 -2.040823 -22.376969
-33.293042 -0.855419 -24.341392
-32.438603 -0.974158 -23.406263
-32.617528 -0.017743 -24.379925
-33.226141 2.866946 -27.509929
-33.051689 1.9066 -26.474089
-32.403868 2.701184 -26.524291
-29.017238 6.783222 -27.10038
-29.691326 6.000969 -27.003622
-28.830253 5.720977 -25.910297
-22.529029 8.066701 -21.320495
-23.121944 7.080044 -21.220397
-22.651232 8.994836 -22.343674
-22.529029 8.066701 -21.320495
-22.783155 9.929001 -23.375214
-23.465469 8.928933 -23.339981
-22.651232 8.994836 -22.343674
-22.925537 10.846208 -24.443186
-22.783155 9.929001 -23.375214
-22.1113 10.912111 -23.446879
-21.568514 12.864268 -24.504646
-21.455029 12.032211 -23.5154
-22.38066 12.731911 -25.58909
-21.568514 12.864268 -24.504646
-23.223022 12.640251 -26.597687
-23.096042 11.737659 -25.523448
-22.38066 12.731911 -25.58909
-23.29824 13.63102 -27.7181
-24.013622 12.636768 -27.652457
-23.223022 12.640251 -26.597687
-23.402781 14.538477 -28.831208
-23.29824 13.63102 -27.7181
-23.546988 15.439898 -30.01684
-24.233047 14.528958 -29.958501
-23.402781 14.538477 -28.831208
-22.816043 16.389219 -30.108685
-22.137622 17.365979 -30.148542
-23.64631 16.3797 -31.235979
-23.546988 15.439898 -30.01684
-22.816043 16.389219 -30.108685
-20.690255 21.258628 -32.516902
-21.379686 20.21488 -32.471061
-20.66694 22.124628 -33.693453
-20.690255 21.258628 -32.516902
-19.969833 22.235559 -32.495439
-19.168971 25.08979 -34.957081
-19.891537 23.955036 -34.912025
-19.223951 24.236314 -33.717045
-19.077241 25.876306 -36.094845
-19.168971 25.08979 -34.957081
-37.95233 -38.076721 1.082138
-37.772228 -39.090999 1.417822
-38.105341 -33.886608 1.779701
-37.971739 -32.860066 1.453443
-38.164183 -34.960211 2.094721
-38.105341 -33.886608 1.779701
-38.112099 -34.429811 0.946103
-38.171505 -36.024872 2.449836
-38.164183 -34.960211 2.094721
-38.104147 -36.565447 1.618766
-38.171505 -36.024872 2.449836
-38.092976 -36.979668 0.755632
-38.104147 -36.565447 1.618766
-38.159769 -35.917635 0.39799
-38.007952 -37.42891 -0.138637
-37.95233 -38.076721 1.082138
-38.092976 -36.979668 0.755632
-40.597124 -10.76479 -28.567252
-40.758459 -11.66962 -28.637142
-40.568901 -11.688066 -27.900838
-40.663037 -10.002025 -29.304274
-40.597124 -10.76479 -28.567252
-40.473478 -10.020471 -28.56797
-40.680183 -9.334663 -29.834865
-40.663037 -10.002025 -29.304274
-39.298784 -33.79995 -18.165578
-39.321394 -33.535853 -17.363441
-39.318928 -33.940009 -19.089074
-39.298784 -33.79995 -18.165578
-39.563609 -32.730441 -19.329489
-39.310617 -34.143225 -19.968052
-39.318928 -33.940009 -19.089074
-39.303342 -34.386162 -20.776798
-39.310617 -34.143225 -19.968052
-39.576477 -33.113436 -21.061732
-39.257738 -34.746088 -21.562525
-39.303342 -34.386162 -20.776798
-39.257738 -34.746088 -21.562525
-39.555471 -33.614018 -22.634729
-40.259428 -30.141168 -25.778721
-40.051191 -31.33099 -24.740882
-40.253044 -29.949281 -24.976544
-40.259428 -30.141168 -25.778721
-40.459095 -29.040248 -26.777203
-40.994549 -24.065097 -28.848052
-40.89483 -25.379421 -28.744219
-40.870672 -25.212972 -27.942062
-40.994549 -24.065097 -28.848052
-41.060955 -22.763028 -28.883969
-41.175026 -18.905477 -29.039284
-41.151354 -20.181907 -28.941172
-41.104887 -20.08953 -28.165135
-41.175026 -18.905477 -29.039284
-41.177706 -17.669396 -29.07911
-41.049715 -14.501577 -28.88739
-41.119619 -15.464551 -29.005676
-41.016106 -15.592734 -28.146211
-41.049715 -14.501577 -28.88739
-40.973293 -13.56204 -28.746795
-40.77256 -8.388434 -31.13796
-40.871946 -9.121815 -30.966555
-40.72159 -8.678241 -30.536144
-40.854452 -7.576879 -32.603604
-40.960829 -8.500103 -32.306345
-40.81654 -7.908784 -31.86563
-40.893236 -7.144392 -33.425511
-40.854452 -7.576879 -32.603604
-40.748947 -6.553073 -32.984795
-40.917183 -6.804013 -34.240469
-40.893236 -7.144392 -33.425511
-40.933127 -6.321908 -35.15262
-40.917183 -6.804013 -34.240469
-40.803674 -5.63848 -34.718853
-40.948931 -5.95083 -36.115451
-41.062439 -7.116364 -35.637068
-40.933127 -6.321908 -35.15262
-40.962308 -5.146967 -38.050007
-41.08485 -6.404486 -37.56299
-40.955702 -5.487767 -37.086916
-40.962308 -5.146967 -38.050007
-40.826664 -3.805447 -38.537884
-40.633873 -2.031945 -40.072302
-40.640809 -2.482045 -38.989853
-40.454514 -1.133344 -39.56032
-40.793227 -2.947692 -40.57218
-40.633873 -2.031945 -40.072302
-40.606932 -1.59899 -41.142647
-40.920794 -3.970985 -41.079586
-40.793227 -2.947692 -40.57218
-40.892584 -3.686937 -42.063212
-40.920794 -3.970985 -41.079586
-40.892584 -3.686937 -42.063212
-40.726235 -2.265713 -42.749003
-37.898435 9.000397 -45.411598
-37.371011 10.316072 -45.923001
-37.721924 9.670227 -46.721657
-40.090075 1.58145 -43.515335
-40.173109 1.003462 -42.325086
-39.897564 2.384555 -42.807374
-39.703683 3.415165 -45.1576
-39.468858 4.306175 -44.501192
-39.358013 4.758796 -45.661169
-40.024393 1.883447 -44.587147
-39.703683 3.415165 -45.1576
-40.090075 1.58145 -43.515335
-40.024393 1.883447 -44.587147
-28.336203 20.947382 -44.848222
-27.764439 20.846514 -43.608164
-27.494204 21.749002 -44.975144
-29.226182 20.062954 -44.627678
-28.336203 20.947382 -44.848222
-24.332169 25.688532 -47.965029
-23.825283 25.636371 -46.56015
-23.48591 26.382362 -47.862054
-25.21704 24.956373 -47.948315
-24.332169 25.688532 -47.965029
-26.076069 24.208186 -47.909586
-25.53057 24.194354 -46.624396
-25.21704 24.956373 -47.948315
-26.974896 23.425679 -47.832622
-26.076069 24.208186 -47.909586
-27.227784 22.648019 -46.400435
-26.974896 23.425679 -47.832622
3 375 90 376
3 1 92 91
3 1 93 92
3 0 96 94
3 2 99 97
3 4 103 101
3 4 105 103
3 4 107 105
3 2 110 108
3 2 97 110
3 5 114 112
3 5 116 114
3 3 119 117
3 6 121 120
3 6 377 379
3 379 378 121
3 377 378 379
3 380 124 381
3 8 127 125
3 8 129 127
3 9 132 130
3 382 135 383
3 384 383 133
3 382 383 384
3 386 385 135
3 387 138 388
3 389 388 136
3 387 388 389
3 390 141 391
3 12 144 142
3 14 147 145
3 14 149 147
3 392 152 393
3 394 154 395
3 396 395 152
3 394 395 396
3 15 157 155
3 15 159 157
3 16 161 160
3 16 163 161
3 16 165 163
3 17 168 166
3 17 170 168
3 7 173 171
3 18 176 174
3 18 178 176
3 18 180 178
3 12 183 181
3 12 142 183
3 20 187 185
3 20 189 187
3 20 191 189
3 19 194 192
3 19 196 194
3 13 199 197
3 21 202 200
3 21 204 202
3 10 207 205
3 11 211 209
3 22 397 399
3 399 398 212
3 397 398 399
3 23 400 401
3 23 402 404
3 402 213 403
3 402 403 404
3 24 216 214
3 26 217 95
3 26 218 217
3 27 221 219
3 29 222 98
3 29 223 222
3 405 225 406
3 31 226 100
3 31 227 226
3 32 407 409
3 409 408 102
3 407 408 409
3 32 410 411
3 32 412 413
3 33 228 104
3 33 229 228
3 33 231 229
3 35 232 106
3 35 233 232
3 36 236 234
3 38 237 109
3 38 238 237
3 38 240 238
3 27 241 111
3 27 219 241
3 40 244 242
3 42 245 113
3 42 246 245
3 42 248 246
3 44 249 115
3 44 250 249
3 45 253 251
3 47 254 118
3 47 255 254
3 415 414 256
3 417 416 258
3 418 261 419
3 420 419 259
3 418 419 420
3 48 262 122
3 48 263 262
3 48 265 263
3 50 266 123
3 50 267 266
3 421 268 422
3 51 423 425
3 423 269 424
3 423 424 425
3 51 270 269
3 51 271 270
3 426 272 427
3 428 259 429
3 430 429 272
3 428 429 430
3 52 431 433
3 433 432 126
3 431 432 433
3 52 434 436
3 434 273 435
3 434 435 436
3 52 274 273
3 53 275 128
3 53 276 275
3 54 279 277
3 56 280 131
3 56 281 280
3 25 282 215
3 57 283 134
3 57 284 283
3 57 285 284
3 58 288 286
3 60 289 137
3 60 290 289
3 437 291 438
3 61 292 139
3 61 293 292
3 61 294 293
3 440 439 140
3 62 297 295
3 64 298 143
3 64 299 298
3 28 300 220
3 65 301 146
3 65 302 301
3 65 303 302
3 66 304 148
3 66 305 304
3 441 306 442
3 443 442 260
3 441 442 443
3 444 307 445
3 446 445 150
3 444 445 446
3 447 308 448
3 449 448 307
3 447 448 449
3 450 309 451
3 452 310 453
3 454 453 309
3 452 453 454
3 67 311 151
3 67 312 311
3 67 313 312
3 68 314 153
3 68 315 314
3 30 316 224
3 69 317 156
3 69 318 317
3 69 319 318
3 70 320 158
3 70 321 320
3 455 322 456
3 457 323 458
3 459 324 460
3 461 460 323
3 459 460 461
3 462 325 463
3 464 463 324
3 462 463 464
3 465 326 466
3 468 467 326
3 71 327 162
3 71 328 327
3 71 329 328
3 72 330 164
3 72 331 330
3 34 332 230
3 73 333 167
3 73 334 333
3 73 335 334
3 74 336 169
3 74 337 336
3 49 338 264
3 75 339 172
3 75 340 339
3 37 341 235
3 76 342 175
3 76 343 342
3 76 344 343
3 77 345 177
3 77 346 345
3 77 347 346
3 78 348 179
3 78 349 348
3 39 350 239
3 79 351 182
3 79 352 351
3 79 353 352
3 62 354 184
3 62 295 354
3 41 355 243
3 81 356 186
3 81 469 471
3 471 470 356
3 469 470 471
3 81 472 473
3 82 474 476
3 476 475 188
3 474 475 476
3 82 477 478
3 82 479 480
3 83 481 483
3 483 482 190
3 481 482 483
3 83 484 485
3 43 357 247
3 84 358 193
3 84 486 488
3 488 487 358
3 486 487 488
3 84 489 490
3 80 491 493
3 493 492 195
3 491 492 493
3 80 494 495
3 63 359 296
3 85 360 198
3 85 361 360
3 46 362 252
3 86 363 201
3 86 364 363
3 86 496 498
3 498 497 364
3 496 497 498
3 499 365 500
3 501 500 203
3 499 500 501
3 503 502 365
3 55 366 278
3 87 367 206
3 87 368 367
3 504 369 505
3 506 505 257
3 504 505 506
3 88 370 208
3 88 371 370
3 88 372 371
3 59 373 287
3 89 374 210
3 89 507 509
3 509 508 374
3 507 508 509
3 90 510 511
3 90 512 513
3 91 514 516
3 516 515 22
3 514 515 516
3 92 517 519
3 519 518 91
3 517 518 519
3 92 520 521
3 92 522 523
3 93 524 526
3 526 525 92
3 524 525 526
3 93 527 529
3 527 23 528
3 527 528 529
3 94 95 24
3 96 95 94
3 96 26 95
3 97 98 27
3 99 98 97
3 99 29 98
3 530 100 531
3 532 100 533
3 534 31 535
3 536 535 100
3 534 535 536
3 101 537 539
3 537 102 538
3 537 538 539
3 103 102 101
3 103 32 102
3 103 104 32
3 105 104 103
3 105 33 104
3 105 106 33
3 107 106 105
3 107 35 106
3 108 109 36
3 110 109 108
3 110 38 109
3 110 111 38
3 97 111 110
3 97 27 111
3 112 113 40
3 114 113 112
3 114 42 113
3 114 115 42
3 116 115 114
3 116 44 115
3 117 118 45
3 119 118 117
3 119 47 118
3 120 540 541
3 121 542 544
3 544 543 120
3 542 543 544
3 121 545 546
3 121 547 548
3 550 549 121
3 551 122 552
3 553 122 554
3 555 48 556
3 557 556 122
3 555 556 557
3 558 123 559
3 560 559 48
3 558 559 560
3 124 561 563
3 561 123 562
3 561 562 563
3 124 50 123
3 564 51 565
3 567 566 51
3 125 568 570
3 568 126 569
3 568 569 570
3 127 126 125
3 127 52 126
3 127 128 52
3 129 128 127
3 129 53 128
3 130 131 54
3 132 131 130
3 132 56 131
3 133 134 25
3 135 134 133
3 135 57 134
3 135 571 573
3 573 572 57
3 571 572 573
3 575 574 135
3 136 137 58
3 138 137 136
3 138 60 137
3 576 139 577
3 578 139 579
3 580 61 581
3 582 581 139
3 580 581 582
3 583 140 584
3 585 584 61
3 583 584 585
3 141 586 588
3 586 140 587
3 586 587 588
3 141 589 591
3 591 590 140
3 589 590 591
3 142 143 62
3 144 143 142
3 144 64 143
3 145 146 28
3 147 146 145
3 147 65 146
3 147 148 65
3 149 148 147
3 149 66 148
3 592 150 593
3 594 150 595
3 597 596 150
3 598 151 599
3 152 600 602
3 600 151 601
3 600 601 602
3 152 67 151
3 152 153 67
3 154 153 152
3 154 68 153
3 155 156 30
3 157 156 155
3 157 69 156
3 157 158 69
3 159 158 157
3 159 70 158
3 160 603 604
3 161 605 607
3 607 606 160
3 605 606 607
3 161 608 609
3 161 610 612
3 610 162 611
3 610 611 612
3 163 162 161
3 163 71 162
3 163 164 71
3 165 164 163
3 165 72 164
3 166 167 34
3 168 167 166
3 168 73 167
3 168 169 73
3 170 169 168
3 170 74 169
3 171 172 49
3 173 172 171
3 173 75 172
3 174 175 37
3 176 175 174
3 176 76 175
3 176 177 76
3 178 177 176
3 178 77 177
3 178 179 77
3 180 179 178
3 180 78 179
3 181 182 39
3 183 182 181
3 183 79 182
3 183 184 79
3 142 184 183
3 142 62 184
3 185 186 41
3 187 186 185
3 187 81 186
3 187 188 81
3 189 188 187
3 189 82 188
3 189 190 82
3 191 190 189
3 191 83 190
3 192 193 43
3 194 193 192
3 194 84 193
3 194 195 84
3 196 195 194
3 196 80 195
3 197 198 63
3 199 198 197
3 199 85 198
3 200 201 46
3 202 201 200
3 202 86 201
3 202 203 86
3 204 203 202
3 204 613 615
3 615 614 203
3 613 614 615
3 205 206 55
3 207 206 205
3 207 87 206
3 616 208 617
3 616 617 618
3 619 208 620
3 621 88 622
3 623 622 208
3 621 622 623
3 625 624 88
3 209 210 59
3 211 210 209
3 211 89 210
3 626 120 627
3 628 120 629
3 630 6 631
3 632 631 120
3 630 631 632
3 212 633 634
3 636 635 212
3 638 637 22
3 639 125 640
3 213 641 643
3 641 125 642
3 641 642 643
3 213 8 125
3 214 215 9
3 216 215 214
3 216 25 215
3 95 216 24
3 217 216 95
3 217 25 216
3 217 133 25
3 218 133 217
3 218 644 646
3 646 645 133
3 644 645 646
3 219 220 12
3 221 220 219
3 221 28 220
3 98 221 27
3 222 221 98
3 222 28 221
3 222 145 28
3 223 145 222
3 223 14 145
3 647 224 648
3 225 649 651
3 649 224 650
3 649 650 651
3 225 30 224
3 100 652 654
3 652 225 653
3 652 653 654
3 226 225 100
3 226 30 225
3 226 155 30
3 227 155 226
3 227 15 155
3 102 655 656
3 658 657 102
3 104 659 661
3 661 660 32
3 659 660 661
3 228 662 664
3 664 663 104
3 662 663 664
3 228 665 666
3 228 667 669
3 667 160 668
3 667 668 669
3 229 160 228
3 229 16 160
3 229 230 16
3 231 230 229
3 231 34 230
3 106 231 33
3 232 231 106
3 232 34 231
3 232 166 34
3 233 166 232
3 233 17 166
3 234 235 7
3 236 235 234
3 236 37 235
3 109 236 36
3 237 236 109
3 237 37 236
3 237 174 37
3 238 174 237
3 238 18 174
3 238 239 18
3 240 239 238
3 240 39 239
3 111 240 38
3 241 240 111
3 241 39 240
3 241 181 39
3 219 181 241
3 219 12 181
3 242 670 672
3 670 243 671
3 670 671 672
3 244 243 242
3 244 41 243
3 113 244 40
3 245 244 113
3 245 41 244
3 245 185 41
3 246 185 245
3 246 20 185
3 246 247 20
3 248 247 246
3 248 43 247
3 115 248 42
3 249 248 115
3 249 43 248
3 249 192 43
3 250 192 249
3 250 19 192
3 251 252 13
3 253 252 251
3 253 46 252
3 118 253 45
3 254 253 118
3 254 46 253
3 254 200 46
3 255 200 254
3 255 21 200
3 256 257 10
3 673 257 674
3 675 674 256
3 673 674 675
3 677 676 257
3 258 678 680
3 680 679 11
3 678 679 680
3 682 681 258
3 259 260 2
3 261 260 259
3 261 683 685
3 685 684 260
3 683 684 685
3 686 261 687
3 688 261 689
3 691 690 261
3 122 692 693
3 262 694 696
3 696 695 122
3 694 695 696
3 262 697 698
3 262 699 701
3 699 101 700
3 699 700 701
3 263 101 262
3 263 4 101
3 263 264 4
3 265 264 263
3 265 49 264
3 123 265 48
3 266 265 123
3 266 49 265
3 266 171 49
3 267 171 266
3 267 7 171
3 702 124 703
3 268 704 706
3 704 124 705
3 704 705 706
3 268 50 124
3 707 268 708
3 269 709 711
3 709 268 710
3 709 710 711
3 269 50 268
3 269 267 50
3 270 267 269
3 270 7 267
3 270 234 7
3 271 234 270
3 271 36 234
3 712 271 713
3 714 713 51
3 712 713 714
3 272 715 717
3 715 271 716
3 715 716 717
3 272 36 271
3 272 108 36
3 259 108 272
3 259 2 108
3 126 718 719
3 721 720 126
3 273 722 723
3 273 724 725
3 273 726 728
3 726 242 727
3 726 727 728
3 274 242 273
3 274 40 242
3 128 274 52
3 275 274 128
3 275 40 274
3 275 112 40
3 276 112 275
3 276 5 112
3 277 278 3
3 279 278 277
3 279 55 278
3 131 279 54
3 280 279 131
3 280 55 279
3 280 205 55
3 281 205 280
3 281 10 205
3 215 132 9
3 282 132 215
3 282 56 132
3 134 282 25
3 283 282 134
3 283 56 282
3 283 281 56
3 284 281 283
3 284 10 281
3 284 256 10
3 285 256 284
3 285 729 731
3 731 730 256
3 729 730 731
3 732 285 733
3 734 733 57
3 732 733 734
3 735 285 736
3 738 737 285
3 739 212 740
3 741 212 742
3 743 22 744
3 745 744 212
3 743 744 745
3 746 22 747
3 748 91 749
3 750 749 22
3 748 749 750
3 751 91 752
3 753 1 754
3 755 754 91
3 753 754 755
3 286 287 0
3 288 287 286
3 288 59 287
3 137 288 58
3 289 288 137
3 289 59 288
3 289 209 59
3 290 209 289
3 290 11 209
3 756 138 757
3 291 758 760
3 758 138 759
3 758 759 760
3 291 60 138
3 139 761 763
3 761 291 762
3 761 762 763
3 292 291 139
3 292 60 291
3 292 290 60
3 293 290 292
3 293 11 290
3 293 258 11
3 294 258 293
3 294 764 766
3 766 765 258
3 764 765 766
3 140 294 61
3 767 294 768
3 769 768 140
3 767 768 769
3 771 770 294
3 772 141 773
3 774 141 775
3 777 776 141
3 295 778 780
3 778 296 779
3 778 779 780
3 297 296 295
3 297 63 296
3 143 297 62
3 298 297 143
3 298 63 297
3 298 197 63
3 299 197 298
3 299 13 197
3 220 144 12
3 300 144 220
3 300 64 144
3 146 300 28
3 301 300 146
3 301 64 300
3 301 299 64
3 302 299 301
3 302 13 299
3 302 251 13
3 303 251 302
3 303 45 251
3 148 303 65
3 304 303 148
3 304 45 303
3 304 117 45
3 305 117 304
3 305 3 117
3 260 99 2
3 306 99 260
3 306 29 99
3 150 781 783
3 781 306 782
3 781 782 783
3 307 306 150
3 307 29 306
3 307 223 29
3 308 223 307
3 308 14 223
3 784 308 785
3 309 786 788
3 786 308 787
3 786 787 788
3 309 14 308
3 309 149 14
3 310 149 309
3 310 66 149
3 151 789 791
3 789 310 790
3 789 790 791
3 311 310 151
3 311 66 310
3 311 305 66
3 312 305 311
3 312 3 305
3 312 277 3
3 313 277 312
3 313 54 277
3 153 313 67
3 314 313 153
3 314 54 313
3 314 130 54
3 315 130 314
3 315 9 130
3 224 792 794
3 792 154 793
3 792 793 794
3 316 154 224
3 316 68 154
3 156 316 30
3 317 316 156
3 317 68 316
3 317 315 68
3 318 315 317
3 318 9 315
3 318 214 9
3 319 214 318
3 319 24 214
3 158 319 69
3 320 319 158
3 320 24 319
3 320 94 24
3 321 94 320
3 321 0 94
3 795 31 796
3 797 31 798
3 799 227 800
3 801 800 31
3 799 800 801
3 322 802 804
3 802 227 803
3 802 803 804
3 322 15 227
3 805 322 806
3 807 322 808
3 809 15 810
3 811 810 322
3 809 810 811
3 812 159 813
3 814 813 15
3 812 813 814
3 815 159 816
3 817 70 818
3 819 818 159
3 817 818 819
3 323 820 821
3 323 822 824
3 822 70 823
3 822 823 824
3 323 321 70
3 324 321 323
3 324 0 321
3 324 286 0
3 325 286 324
3 325 58 286
3 825 325 826
3 326 827 829
3 827 325 828
3 827 828 829
3 326 58 325
3 326 136 58
3 830 136 831
3 832 831 326
3 830 831 832
3 834 833 136
3 835 1 836
3 162 837 838
3 327 839 841
3 841 840 162
3 839 840 841
3 327 842 843
3 327 844 845
3 328 846 848
3 848 847 327
3 846 847 848
3 328 849 851
3 849 1 850
3 849 850 851
3 328 93 1
3 329 93 328
3 329 23 93
3 164 329 71
3 330 329 164
3 330 23 329
3 330 213 23
3 331 213 330
3 331 8 213
3 230 165 16
3 332 165 230
3 332 72 165
3 167 332 34
3 333 332 167
3 333 72 332
3 333 331 72
3 334 331 333
3 334 8 331
3 334 129 8
3 335 129 334
3 335 53 129
3 169 335 73
3 336 335 169
3 336 53 335
3 336 276 53
3 337 276 336
3 337 5 276
3 264 107 4
3 338 107 264
3 338 35 107
3 172 338 49
3 339 338 172
3 339 35 338
3 339 233 35
3 340 233 339
3 340 17 233
3 235 173 7
3 341 173 235
3 341 75 173
3 175 341 37
3 342 341 175
3 342 75 341
3 342 340 75
3 343 340 342
3 343 17 340
3 343 170 17
3 344 170 343
3 344 74 170
3 177 344 76
3 345 344 177
3 345 74 344
3 345 337 74
3 346 337 345
3 346 5 337
3 346 116 5
3 347 116 346
3 347 44 116
3 179 347 77
3 348 347 179
3 348 44 347
3 348 250 44
3 349 250 348
3 349 19 250
3 239 180 18
3 350 180 239
3 350 78 180
3 182 350 39
3 351 350 182
3 351 78 350
3 351 349 78
3 352 349 351
3 352 19 349
3 352 196 19
3 353 196 352
3 353 80 196
3 184 353 79
3 354 353 184
3 354 80 353
3 354 852 854
3 854 853 80
3 852 853 854
3 295 855 857
3 857 856 354
3 855 856 857
3 295 858 859
3 243 860 861
3 355 862 864
3 864 863 243
3 862 863 864
3 355 865 866
3 186 355 41
3 356 355 186
3 356 867 869
3 869 868 355
3 867 868 869
3 356 870 871
3 873 872 356
3 188 874 876
3 876 875 81
3 874 875 876
3 878 877 188
3 190 879 881
3 881 880 82
3 879 880 881
3 883 882 190
3 247 191 20
3 357 191 247
3 357 83 191
3 193 357 43
3 358 357 193
3 358 83 357
3 358 884 886
3 886 885 83
3 884 885 886
3 888 887 358
3 195 889 891
3 891 890 84
3 889 890 891
3 893 892 195
3 296 894 896
3 894 90 895
3 894 895 896
3 359 90 296
3 359 897 899
3 899 898 90
3 897 898 899
3 198 359 63
3 360 359 198
3 360 900 902
3 902 901 359
3 900 901 902
3 360 903 904
3 361 905 907
3 907 906 360
3 905 906 907
3 361 908 910
3 908 6 909
3 908 909 910
3 252 199 13
3 362 199 252
3 362 85 199
3 201 362 46
3 363 362 201
3 363 85 362
3 363 361 85
3 364 361 363
3 364 6 361
3 364 911 913
3 913 912 6
3 911 912 913
3 915 914 364
3 203 916 918
3 918 917 86
3 916 917 918
3 365 919 921
3 921 920 203
3 919 920 921
3 365 922 923
3 365 924 925
3 927 926 365
3 278 119 3
3 366 119 278
3 366 47 119
3 206 366 55
3 367 366 206
3 367 47 366
3 367 255 47
3 368 255 367
3 368 21 255
3 257 207 10
3 369 207 257
3 369 87 207
3 208 928 930
3 928 369 929
3 928 929 930
3 370 369 208
3 370 87 369
3 370 368 87
3 371 368 370
3 371 21 368
3 371 204 21
3 372 204 371
3 372 931 933
3 933 932 204
3 931 932 933
3 934 372 935
3 936 935 88
3 934 935 936
3 937 372 938
3 940 939 372
3 287 96 0
3 373 96 287
3 373 26 96
3 210 373 59
3 374 373 210
3 374 26 373
3 374 218 26
3 941 218 942
3 943 942 374
3 941 942 943
3 945 944 218
3 946 211 947
3 948 947 11
3 946 947 948
3 949 211 950
3 951 89 952
3 953 952 211
3 951 952 953
3 954 89 955
3 957 956 89
