ply
format ascii 1.0
element vertex 450
property float x
property float y
property float z
element face 438
property list uchar int vertex_index
end_header
18.294693 -79.099602 -34.138062
-1.601586 -103.52253 -18.072569
-7.999218 -106.1147 -24.059803
12.78373 -78.711784 -40.601032
23.351063 -66.266602 -40.207859
17.538254 -63.814774 -45.53101
7.685016 -91.253311 -34.549564
0.806557 -89.541084 -39.143723
-6.48677 -106.161041 -16.973696
-4.52854 -105.352951 -21.354959
-9.56528 -107.296761 -19.466766
9.357569 -77.631927 -42.586498
15.070443 -71.774887 -43.054119
-0.556996 -100.59864 -30.105888
5.265937 -95.991028 -30.92898
2.029612 -96.182678 -33.988892
4.512986 -90.748016 -37.336998
-1.716709 -95.515541 -36.084259
20.525904 -77.855659 -29.94315
24.612293 -71.583359 -29.260714
23.051771 -72.491745 -33.439953
-2.624996 -103.544037 -25.871708
15.724746 -79.268028 -37.808018
20.89072 -72.819649 -37.405621
18.223669 -72.564224 -40.608006
20.662912 -65.208527 -43.268372
15.772902 -84.417488 -30.613451
10.871836 -90.258865 -31.135477
13.322678 -85.230133 -34.579205
10.132023 -85.451828 -37.821529
6.89822 -84.636185 -40.117569
-7.939332 -106.874275 -18.320955
-9.903821 -107.422165 -17.374952
10.56821 -73.654907 -43.818645
-2.098216 -100.443253 -31.494364
0.769692 -98.500671 -32.126293
0.151477 -95.997238 -35.158592
-2.934948 -97.952858 -34.454288
19.440319 -78.63829 -32.049412
21.697147 -75.344818 -31.857836
20.720789 -75.858078 -33.741543
-6.284165 -105.927917 -22.733286
-3.691148 -104.629753 -23.665916
-5.435851 -105.055321 -25.057549
-4.364612 -103.812363 -27.320108
14.104653 -79.459236 -39.193298
16.965193 -76.102577 -39.1703
15.561638 -75.856743 -40.522499
16.277065 -67.905556 -44.289001
17.833305 -68.504852 -43.249786
19.188473 -64.567314 -44.462936
21.752913 -61.467236 -44.564247
20.308739 -60.582439 -45.759605
21.207172 -56.640972 -47.092377
18.651875 -59.67635 -46.809402
15.558591 -85.850563 -26.61834
16.838875 -83.615372 -28.649744
14.468409 -86.810509 -28.714935
6.521762 -93.746422 -32.741646
8.11679 -93.189224 -31.173687
9.300132 -90.912971 -32.936089
12.129522 -87.799576 -32.93549
10.453364 -88.401299 -34.656628
11.803939 -85.410103 -36.327053
9.039617 -88.33802 -36.24369
2.727443 -90.306801 -38.323914
5.579441 -87.873817 -38.782013
3.891831 -87.215935 -39.702625
5.044264 -83.893776 -41.000378
2.222043 -86.176353 -40.477154
26.019854 -68.759766 -30.991749
22.131191 -69.608421 -38.824654
24.700874 -66.093849 -38.592308
28.983376 -59.813484 -38.020496
-4.159854 -105.022659 -17.437407
-3.117465 -104.619347 -19.760271
-5.523981 -105.886215 -19.109644
-7.121213 -106.52478 -20.450453
11.077769 -78.214661 -41.728046
13.952519 -75.369492 -41.808002
12.319004 -74.536743 -42.935032
13.432566 -70.904671 -44.077538
1.196796 -100.261002 -28.593063
2.433947 -98.389008 -30.634794
3.778657 -96.143097 -32.574429
4.991765 -93.745819 -34.360817
6.14607 -91.091774 -36.075085
3.181181 -93.634148 -35.740452
1.45285 -93.247208 -36.819839
-0.341046 -92.568459 -37.713924
22.627337 -74.680618 -29.676561
23.922586 -72.077438 -31.328295
25.753479 -62.717823 -40.240311
-2.01924 -103.911514 -22.00956
-0.863168 -102.902557 -24.286896
0.146125 -101.725487 -26.477427
-1.566878 -102.197945 -28.03455
-3.445295 -102.405518 -29.3799
17.074371 -79.283714 -36.062885
19.596809 -76.135895 -35.698902
18.401325 -76.066238 -37.588867
19.596748 -72.76506 -39.125645
20.896448 -69.208794 -40.546619
16.507362 -72.452957 -41.924126
19.383648 -68.94989 -42.006378
22.121918 -65.613342 -41.906467
18.222921 -81.14093 -30.273985
17.057547 -81.844757 -32.392143
12.091396 -89.700005 -29.071993
13.408051 -87.339493 -30.926413
14.644856 -84.907761 -32.638752
15.774158 -82.30912 -34.406845
14.483971 -82.356888 -36.290154
12.903685 -82.582596 -37.805027
11.377005 -82.268143 -39.248398
7.327876 -88.186249 -37.662674
8.536249 -85.162987 -39.0653
9.775888 -81.722946 -40.488293
8.013296 -81.259827 -41.411434
6.502487 -80.271851 -42.19986
21.942652 -72.878937 -35.506855
26.8741 -62.993263 -38.320953
-10.083424 -107.390488 -16.51296
-9.269669 -107.182061 -16.804772
-1.561317 -99.34193 -32.515127
-3.0465 -100.298924 -32.061551
-3.464866 -99.053726 -33.541513
-1.979683 -98.096733 -33.995088
-0.996662 -103.195805 -19.179532
-0.331242 -102.611458 -18.111111
-7.54611 -105.587295 -25.240082
-6.264427 -105.057606 -25.738955
-6.717535 -105.585011 -24.558676
14.373423 -87.394936 -26.738579
15.020884 -86.725696 -25.582561
13.828332 -87.874909 -27.786876
15.0135 -86.330536 -27.666638
14.373423 -87.394936 -26.738579
26.9767 -67.163944 -30.800463
26.665282 -67.365834 -31.817289
-9.138208 -107.06152 -20.59561
-7.916174 -106.67553 -21.087454
-8.343246 -106.910771 -19.95861
12.753113 -70.224403 -44.51557
12.000388 -72.279789 -43.948091
11.320935 -71.599521 -44.386123
14.094356 -68.95805 -44.637457
12.753113 -70.224403 -44.51557
21.576621 -76.268138 -29.809855
21.922159 -76.017002 -28.731939
20.871443 -77.604523 -28.865234
24.156098 -70.855568 -33.221169
24.591505 -70.648415 -32.16534
23.487178 -72.284592 -32.384124
-4.804467 -103.082043 -28.978829
-3.904954 -103.108941 -28.350004
-5.264126 -103.785466 -27.948934
-4.278806 -102.22895 -30.059164
-4.804467 -103.082043 -28.978829
21.906926 -63.564774 -43.314656
22.636429 -63.767182 -42.633703
21.392415 -65.410934 -42.587419
23.024817 -59.758654 -44.642786
22.320971 -59.483265 -45.223183
21.080592 -53.922196 -48.263784
21.77495 -54.490887 -47.775352
20.512814 -56.072281 -47.580809
6.12319 -95.600243 -30.089433
4.668594 -96.941876 -30.002584
10.2575 -91.358074 -30.194045
8.879977 -92.823253 -30.21315
9.494313 -91.724044 -31.154582
11.481616 -89.979435 -30.103735
10.86728 -91.078644 -29.162303
10.2575 -91.358074 -30.194045
5.054487 -81.415024 -41.967726
5.773376 -82.082814 -41.600119
4.325375 -83.225987 -41.367985
5.682043 -79.617214 -42.523062
5.054487 -81.415024 -41.967726
24.911797 -71.272221 -28.120525
23.952846 -72.849186 -28.337703
27.47889 -61.264515 -39.088852
26.313789 -62.855543 -39.280632
26.91858 -61.126795 -40.04853
28.378571 -61.473427 -37.188133
29.375969 -59.834497 -37.083192
-8.287425 -106.908116 -17.277774
-7.213051 -106.517658 -17.647326
-7.561144 -106.551499 -16.604144
-8.921577 -107.14822 -17.847954
-8.287425 -106.908116 -17.277774
-9.269669 -107.182061 -16.804772
9.19663 -75.091137 -43.576023
9.962889 -75.643417 -43.202571
8.591309 -77.079647 -42.95995
9.803304 -73.0937 -44.144117
9.19663 -75.091137 -43.576023
11.320935 -71.599521 -44.386123
9.803304 -73.0937 -44.144117
-0.127363 -98.370639 -32.831091
-0.664262 -99.471962 -31.810328
-1.561317 -99.34193 -32.515127
0.502597 -97.211643 -33.76239
1.399652 -97.341674 -33.057592
-0.127363 -98.370639 -32.831091
-0.436471 -97.118923 -34.34724
1.090545 -96.089958 -34.573742
0.502597 -97.211643 -33.76239
-1.391736 -96.975048 -34.80644
-0.436471 -97.118923 -34.34724
-1.979683 -98.096733 -33.995088
-5.728807 -104.436127 -26.870235
-4.900232 -104.433842 -26.188828
-6.264427 -105.057606 -25.738955
-5.264126 -103.785466 -27.948934
-5.728807 -104.436127 -26.870235
21.598885 -59.040866 -45.820861
22.320971 -59.483265 -45.223183
21.030826 -61.024838 -45.161926
20.757956 -58.611705 -46.425991
22.048101 -57.070133 -46.487247
21.598885 -59.040866 -45.820861
19.235165 -57.58997 -47.439321
20.512814 -56.072281 -47.580809
19.929524 -58.158661 -46.95089
16.112992 -85.222099 -25.513315
15.020884 -86.725696 -25.582561
16.697124 -84.27129 -26.462156
16.112992 -85.222099 -25.513315
16.198733 -84.732968 -27.634042
17.337266 -83.153695 -27.477857
16.697124 -84.27129 -26.462156
2.914265 -84.367275 -41.106373
4.325375 -83.225987 -41.367985
3.633154 -85.035065 -40.738766
26.287516 -68.574581 -29.886799
25.583736 -69.986378 -29.021282
25.316074 -70.171562 -30.126231
26.287516 -68.574581 -29.886799
26.9767 -67.163944 -30.800463
22.794477 -69.512512 -37.923928
22.174242 -71.118126 -37.214411
21.510956 -71.214035 -38.115138
24.079319 -67.755226 -37.807755
22.794477 -69.512512 -37.923928
23.416033 -67.851135 -38.708481
25.188256 -66.203942 -37.616462
24.079319 -67.755226 -37.807755
29.538201 -58.080876 -38.868536
28.533528 -59.674626 -38.938623
29.954555 -58.113865 -38.016008
29.538201 -58.080876 -38.868536
29.375969 -59.834497 -37.083192
29.954555 -58.113865 -38.016008
-7.49765 -106.377098 -22.22887
-6.702689 -106.226349 -21.59187
-7.916174 -106.67553 -21.087454
-8.355177 -106.470489 -22.892129
-7.141692 -106.021309 -23.396544
-7.49765 -106.377098 -22.22887
15.516606 -67.458493 -44.743189
14.854816 -69.405113 -44.183269
14.094356 -68.95805 -44.637457
16.147201 -65.413102 -45.364193
16.90766 -65.860165 -44.910005
15.516606 -67.458493 -44.743189
16.807932 -63.247454 -45.988139
16.147201 -65.413102 -45.364193
2.634024 -99.076863 -28.834626
2.046371 -99.920391 -27.80046
3.252599 -98.140866 -29.855491
2.634024 -99.076863 -28.834626
1.815371 -99.325005 -29.613929
3.849942 -97.190018 -30.781887
4.668594 -96.941876 -30.002584
3.252599 -98.140866 -29.855491
22.960368 -74.397816 -28.545626
21.922159 -76.017002 -28.731939
23.619815 -73.131989 -29.468637
23.952846 -72.849186 -28.337703
22.960368 -74.397816 -28.545626
25.640139 -68.989578 -31.997066
24.97122 -70.418602 -31.160022
24.591505 -70.648415 -32.16534
26.665282 -67.365834 -31.817289
25.640139 -68.989578 -31.997066
25.116222 -62.614956 -41.033525
24.552271 -64.492213 -40.224085
23.915014 -64.389346 -41.0173
26.305715 -61.029616 -40.928278
25.116222 -62.614956 -41.033525
26.91858 -61.126795 -40.04853
26.305715 -61.029616 -40.928278
-1.754602 -103.744214 -20.023383
-0.996662 -103.195805 -19.179532
-2.359526 -104.070939 -18.91642
-1.205489 -103.390297 -21.148027
-1.754602 -103.744214 -20.023383
-2.568353 -104.265431 -20.884915
-0.751324 -103.042976 -22.308803
-1.205489 -103.390297 -21.148027
-0.173288 -102.538498 -23.447471
-0.751324 -103.042976 -22.308803
-1.441204 -103.407036 -23.148228
0.488932 -101.915016 -24.508426
-0.173288 -102.538498 -23.447471
0.993579 -101.326481 -25.603692
0.488932 -101.915016 -24.508426
-0.358522 -102.314022 -25.382161
1.521035 -100.652634 -26.742641
0.993579 -101.326481 -25.603692
0.671461 -100.993245 -27.535245
2.046371 -99.920391 -27.80046
1.521035 -100.652634 -26.742641
-3.605266 -101.247818 -31.116396
-2.771756 -101.424385 -30.437132
-4.278806 -102.22895 -30.059164
-3.0465 -100.298924 -32.061551
-3.605266 -101.247818 -31.116396
23.300441 -64.062715 -41.866603
23.915014 -64.389346 -41.0173
22.736491 -65.939972 -41.057163
23.300441 -64.062715 -41.866603
22.636429 -63.767182 -42.633703
22.451926 -61.694129 -43.962593
21.906926 -63.564774 -43.314656
21.207912 -63.337882 -43.916309
22.451926 -61.694129 -43.962593
23.024817 -59.758654 -44.642786
22.491242 -55.123678 -47.173748
22.048101 -57.070133 -46.487247
22.491242 -55.123678 -47.173748
21.77495 -54.490887 -47.775352
17.364742 -61.178242 -46.627335
18.095064 -61.745562 -46.170206
16.807932 -63.247454 -45.988139
17.927675 -58.960918 -47.284132
17.364742 -61.178242 -46.627335
19.235165 -57.58997 -47.439321
17.927675 -58.960918 -47.284132
19.819337 -79.171684 -29.004593
20.871443 -77.604523 -28.865234
17.975822 -82.05154 -28.35789
17.337266 -83.153695 -27.477857
18.667845 -80.814319 -29.170011
17.975822 -82.05154 -28.35789
17.530898 -82.378151 -29.461864
19.374412 -79.498295 -30.108567
19.819337 -79.171684 -29.004593
18.667845 -80.814319 -29.170011
7.548616 -94.199341 -30.211787
6.12319 -95.600243 -30.089433
6.691363 -94.590126 -31.051333
7.548616 -94.199341 -30.211787
8.879977 -92.823253 -30.21315
11.455033 -90.745743 -28.068127
10.86728 -91.078644 -29.162303
12.639826 -89.319657 -27.965405
11.455033 -90.745743 -28.068127
13.279902 -88.255257 -28.893464
13.828332 -87.874909 -27.786876
12.639826 -89.319657 -27.965405
7.163768 -78.399609 -42.766631
8.591309 -77.079647 -42.95995
7.930028 -78.951889 -42.393179
7.163768 -78.399609 -42.766631
5.682043 -79.617214 -42.523062
-0.91045 -102.841434 -16.975917
-0.331242 -102.611458 -18.111111
-2.108624 -103.643143 -16.879102
-0.91045 -102.841434 -16.975917
-3.387759 -104.393208 -16.561521
-2.88072 -104.272594 -17.754988
-2.108624 -103.643143 -16.879102
-4.679728 -105.095642 -16.314436
-3.387759 -104.393208 -16.561521
-5.843186 -105.664833 -16.08258
-5.323312 -105.59185 -17.205551
-4.679728 -105.095642 -16.314436
-6.982569 -106.152401 -15.807135
-5.843186 -105.664833 -16.08258
-7.561144 -106.551499 -16.604144
-6.982569 -106.152401 -15.807135
-10.802892 -107.516823 -16.68293
-10.083424 -107.390488 -16.51296
-10.723375 -107.541222 -17.693001
-10.802892 -107.516823 -16.68293
-10.554105 -107.47852 -18.738907
-9.734551 -107.359463 -18.420859
-10.723375 -107.541222 -17.693001
-10.378905 -107.357972 -19.88319
-10.554105 -107.47852 -18.738907
-9.138208 -107.06152 -20.59561
-10.378905 -107.357972 -19.88319
-9.233145 -106.496173 -23.358568
-8.355177 -106.470489 -22.892129
-8.955699 -106.088371 -24.532089
-9.233145 -106.496173 -23.358568
-7.54611 -105.587295 -25.240082
-8.955699 -106.088371 -24.532089
-4.416411 -98.740127 -33.998517
-3.464866 -99.053726 -33.541513
-3.945281 -97.63723 -34.829923
-4.416411 -98.740127 -33.998517
-3.336161 -96.418571 -35.644909
-2.325829 -96.7342 -35.269273
-3.945281 -97.63723 -34.829923
-2.602048 -95.050815 -36.480805
-3.336161 -96.418571 -35.644909
-1.914216 -93.577275 -37.295637
-1.028878 -94.042 -36.899091
-2.602048 -95.050815 -36.480805
-1.341236 -92.126618 -38.031464
-1.914216 -93.577275 -37.295637
-0.767434 -90.61293 -38.746363
0.232755 -91.054772 -38.428824
-1.341236 -92.126618 -38.031464
-0.026474 -89.009159 -39.428246
-0.767434 -90.61293 -38.746363
0.68127 -87.326794 -40.094961
1.5143 -87.858719 -39.810439
-0.026474 -89.009159 -39.428246
1.34113 -85.60693 -40.722664
0.68127 -87.326794 -40.094961
2.914265 -84.367275 -41.106373
1.34113 -85.60693 -40.722664
24.911797 -71.272221 -28.120525
25.583736 -69.986378 -29.021282
22.700208 -71.14777 -36.265028
21.416686 -72.849293 -36.456238
22.174242 -71.118126 -37.214411
23.137987 -71.227863 -35.257297
22.700208 -71.14777 -36.265028
23.692546 -71.034267 -34.223847
22.497211 -72.685341 -34.473404
23.137987 -71.227863 -35.257297
24.156098 -70.855568 -33.221169
23.692546 -71.034267 -34.223847
26.274869 -64.653649 -37.480785
25.188256 -66.203942 -37.616462
25.787487 -64.543556 -38.456631
27.928738 -61.403374 -38.170725
27.47889 -61.264515 -39.088852
28.533528 -59.674626 -38.938623
27.323933 -63.063316 -37.338362
27.928738 -61.403374 -38.170725
28.378571 -61.473427 -37.188133
26.274869 -64.653649 -37.480785
27.323933 -63.063316 -37.338362
3 122 32 123
3 125 124 34
3 126 37 127
3 0 40 38
3 1 128 129
3 2 43 41
3 2 130 132
3 132 131 43
3 130 131 132
3 3 47 45
3 5 50 48
3 5 52 50
3 5 54 52
3 133 55 134
3 135 57 136
3 137 136 55
3 135 136 137
3 6 60 58
3 6 62 60
3 6 64 62
3 7 67 65
3 7 69 67
3 139 138 70
3 4 72 71
3 8 76 74
3 10 77 31
3 10 140 142
3 142 141 77
3 140 141 142
3 11 80 78
3 143 81 144
3 145 144 33
3 143 144 145
3 147 146 81
3 13 83 82
3 15 84 35
3 15 85 84
3 15 87 85
3 17 88 36
3 17 89 88
3 18 148 150
3 148 90 149
3 148 149 150
3 20 91 39
3 20 151 153
3 153 152 91
3 151 152 153
3 9 93 75
3 21 94 42
3 21 95 94
3 21 96 95
3 154 97 155
3 156 155 44
3 154 155 156
3 158 157 97
3 22 100 98
3 24 101 46
3 24 102 101
3 12 103 79
3 25 104 49
3 25 105 104
3 25 159 161
3 161 160 105
3 159 160 161
3 163 162 51
3 166 165 53
3 164 165 166
3 26 106 56
3 26 107 106
3 14 167 168
3 27 169 171
3 171 170 59
3 169 170 171
3 27 172 174
3 172 108 173
3 172 173 174
3 27 109 108
3 28 110 61
3 28 111 110
3 28 112 111
3 29 113 63
3 29 114 113
3 16 115 86
3 30 116 66
3 30 117 116
3 30 118 117
3 175 119 176
3 177 176 68
3 175 176 177
3 179 178 119
3 19 180 181
3 23 120 99
3 182 121 183
3 184 183 92
3 182 183 184
3 186 185 73
3 187 31 188
3 189 188 8
3 187 188 189
3 32 190 192
3 190 31 191
3 190 191 192
3 32 10 31
3 193 33 194
3 195 194 11
3 193 194 195
3 196 33 197
3 199 198 33
3 34 35 13
3 200 35 201
3 202 201 34
3 200 201 202
3 203 15 204
3 205 204 35
3 203 204 205
3 206 36 207
3 208 207 15
3 206 207 208
3 37 209 211
3 209 36 210
3 209 210 211
3 37 17 36
3 38 39 18
3 40 39 38
3 40 20 39
3 41 42 9
3 43 42 41
3 43 21 42
3 43 44 21
3 212 44 213
3 214 213 43
3 212 213 214
3 216 215 44
3 45 46 22
3 47 46 45
3 47 24 46
3 48 49 12
3 50 49 48
3 50 25 49
3 50 51 25
3 52 51 50
3 52 217 219
3 219 218 51
3 217 218 219
3 52 220 222
3 220 53 221
3 220 221 222
3 54 53 52
3 54 223 225
3 225 224 53
3 223 224 225
3 55 226 227
3 55 228 229
3 55 230 232
3 230 56 231
3 230 231 232
3 57 56 55
3 57 26 56
3 58 59 14
3 60 59 58
3 60 27 59
3 60 61 27
3 62 61 60
3 62 28 61
3 62 63 28
3 64 63 62
3 64 29 63
3 65 66 16
3 67 66 65
3 67 30 66
3 67 68 30
3 69 68 67
3 69 233 235
3 235 234 68
3 233 234 235
3 70 236 238
3 238 237 19
3 236 237 238
3 240 239 70
3 71 241 243
3 243 242 23
3 241 242 243
3 72 244 246
3 246 245 71
3 244 245 246
3 72 247 248
3 249 73 250
3 251 73 252
3 254 253 73
3 74 75 1
3 76 75 74
3 76 9 75
3 31 76 8
3 77 76 31
3 77 9 76
3 77 41 9
3 255 41 256
3 257 256 77
3 255 256 257
3 258 2 259
3 260 259 41
3 258 259 260
3 78 79 3
3 80 79 78
3 80 12 79
3 33 80 11
3 81 80 33
3 81 12 80
3 81 48 12
3 261 48 262
3 263 262 81
3 261 262 263
3 264 5 265
3 266 265 48
3 264 265 266
3 268 267 5
3 82 269 270
3 83 271 273
3 273 272 82
3 271 272 273
3 83 274 276
3 274 14 275
3 274 275 276
3 35 83 13
3 84 83 35
3 84 14 83
3 84 58 14
3 85 58 84
3 85 6 58
3 85 86 6
3 87 86 85
3 87 16 86
3 36 87 15
3 88 87 36
3 88 16 87
3 88 65 16
3 89 65 88
3 89 7 65
3 90 277 278
3 90 279 281
3 279 19 280
3 279 280 281
3 39 90 18
3 91 90 39
3 91 19 90
3 91 70 19
3 282 70 283
3 284 283 91
3 282 283 284
3 286 285 70
3 287 92 288
3 289 288 4
3 287 288 289
3 290 92 291
3 293 292 92
3 75 294 296
3 296 295 1
3 294 295 296
3 93 297 299
3 299 298 75
3 297 298 299
3 93 300 301
3 42 93 9
3 94 93 42
3 94 302 304
3 304 303 93
3 302 303 304
3 94 305 306
3 95 307 309
3 309 308 94
3 307 308 309
3 95 310 311
3 95 312 314
3 312 82 313
3 312 313 314
3 96 82 95
3 96 13 82
3 44 96 21
3 97 96 44
3 97 13 96
3 97 34 13
3 315 34 316
3 317 316 97
3 315 316 317
3 319 318 34
3 98 99 0
3 100 99 98
3 100 23 99
3 46 100 22
3 101 100 46
3 101 23 100
3 101 71 23
3 102 71 101
3 102 4 71
3 79 47 3
3 103 47 79
3 103 24 47
3 49 103 12
3 104 103 49
3 104 24 103
3 104 102 24
3 105 102 104
3 105 4 102
3 105 320 322
3 322 321 4
3 320 321 322
3 324 323 105
3 51 325 327
3 327 326 25
3 325 326 327
3 329 328 51
3 53 330 331
3 333 332 53
3 334 54 335
3 336 335 5
3 334 335 336
3 337 54 338
3 340 339 54
3 341 18 342
3 56 343 344
3 106 345 347
3 347 346 56
3 345 346 347
3 106 348 350
3 348 18 349
3 348 349 350
3 106 38 18
3 107 38 106
3 107 0 38
3 59 351 353
3 353 352 14
3 351 352 353
3 355 354 59
3 108 356 357
3 108 358 359
3 108 360 362
3 360 57 361
3 360 361 362
3 109 57 108
3 109 26 57
3 61 109 27
3 110 109 61
3 110 26 109
3 110 107 26
3 111 107 110
3 111 0 107
3 111 98 0
3 112 98 111
3 112 22 98
3 63 112 28
3 113 112 63
3 113 22 112
3 113 45 22
3 114 45 113
3 114 3 45
3 86 64 6
3 115 64 86
3 115 29 64
3 66 115 16
3 116 115 66
3 116 29 115
3 116 114 29
3 117 114 116
3 117 3 114
3 117 78 3
3 118 78 117
3 118 11 78
3 68 118 30
3 119 118 68
3 119 11 118
3 119 363 365
3 365 364 11
3 363 364 365
3 367 366 119
3 368 1 369
3 370 1 371
3 372 74 373
3 374 373 1
3 372 373 374
3 375 74 376
3 377 8 378
3 379 378 74
3 377 378 379
3 380 8 381
3 383 382 8
3 384 32 385
3 386 32 387
3 388 10 389
3 390 389 32
3 388 389 390
3 391 10 392
3 394 393 10
3 395 2 396
3 397 2 398
3 400 399 2
3 401 37 402
3 403 37 404
3 405 17 406
3 407 406 37
3 405 406 407
3 408 17 409
3 410 89 411
3 412 411 17
3 410 411 412
3 413 89 414
3 415 7 416
3 417 416 89
3 415 416 417
3 418 7 419
3 420 69 421
3 422 421 7
3 420 421 422
3 423 69 424
3 426 425 69
3 428 427 19
3 99 40 0
3 120 40 99
3 120 20 40
3 429 120 430
3 431 430 23
3 429 430 431
3 432 120 433
3 434 20 435
3 436 435 120
3 434 435 436
3 438 437 20
3 92 72 4
3 121 72 92
3 121 439 441
3 441 440 72
3 439 440 441
3 73 442 444
3 442 121 443
3 442 443 444
3 445 121 446
3 447 446 73
3 445 446 447
3 449 448 121
