ply
format ascii 1.0
element vertex 279
property float x
property float y
property float z
element face 245
property list uchar int vertex_index
end_header
-4.812918 100.537796 -34.648285
-6.702529 82.978737 -47.172256
-0.069029 90.939568 -40.453804
-8.08468 98.08506 -39.607094
-5.611251 93.150742 -42.355576
-2.397522 96.266075 -38.038204
-1.573732 81.100571 -45.181126
-4.536226 76.291481 -47.717735
-8.854021 89.14267 -45.823246
-3.438832 87.516159 -44.149368
1.554945 85.231987 -42.016834
-9.468635 77.632179 -49.4104
3.156641 93.284851 -36.154034
4.94303 88.032715 -38.164284
-6.565625 99.591782 -37.164726
-5.20122 97.385757 -38.785698
-3.585411 98.538216 -36.441719
-12.603254 92.252396 -45.335529
-9.880106 91.858109 -44.834846
-2.876049 92.14872 -41.51115
-4.553672 90.471786 -43.365757
-1.862305 89.58345 -42.343525
-1.012326 86.521942 -43.194019
0.56773 88.185745 -41.481819
-9.198647 83.295815 -48.014793
-8.026448 80.185326 -48.384502
-3.669834 73.042976 -47.846539
-6.022081 73.567802 -48.835117
-4.952454 70.354095 -48.856533
-6.001964 67.312637 -49.726002
6.376739 89.117935 -36.172241
5.512233 85.198349 -38.935577
-9.574767 96.497841 -41.634228
-6.616509 95.764893 -40.978249
-3.97139 94.800453 -40.315868
-1.180624 93.662453 -39.393692
-4.056903 82.121529 -46.228901
-5.575337 79.728851 -47.501678
-3.138084 78.964203 -46.509724
-10.208656 86.449806 -47.337894
-7.62882 86.061577 -46.584908
-7.176699 91.272682 -44.152035
-6.125373 88.320877 -45.102158
-5.116493 85.204361 -45.817356
-2.553651 84.332214 -44.827305
0.011444 83.368294 -43.630444
2.332106 82.034286 -42.446957
-20.999273 98.112167 -40.357063
-20.145819 96.195175 -42.522987
-17.751139 96.693954 -42.628643
-6.935414 76.915146 -48.638054
-8.288783 74.223595 -49.602375
-0.736078 97.288574 -35.605427
0.397974 94.947678 -37.114521
1.438593 92.442902 -38.344898
5.564444 91.604057 -35.182186
3.97909 90.757851 -37.378864
2.400241 89.655861 -39.389313
3.11901 86.818909 -40.248634
3.966633 83.85537 -40.696625
-6.283931 101.043285 -34.921526
-5.442983 101.421841 -33.641711
-5.689272 100.064789 -35.906506
-7.160285 100.570279 -36.179747
-6.283931 101.043285 -34.921526
-10.525201 93.214505 -44.199894
-11.24168 92.055252 -45.085188
-11.886775 93.411648 -44.450235
-11.886775 93.411648 -44.450235
-13.25425 93.553799 -44.636105
-3.770521 69.97295 -48.344288
-4.311144 71.698535 -48.351536
-3.129211 71.31739 -47.839291
-4.405862 68.642319 -48.861669
-3.770521 69.97295 -48.344288
-9.453314 98.461895 -39.758438
-8.604685 99.19244 -38.620354
-8.829724 97.29145 -40.620661
-10.198357 97.668285 -40.772005
-9.453314 98.461895 -39.758438
-9.531339 87.796238 -46.58057
-10.901861 87.915832 -46.941621
-10.224543 89.262265 -46.184297
-6.393975 92.211712 -43.253805
-7.782559 92.703549 -43.544583
-6.999835 93.642578 -42.646353
-19.83767 98.4235 -40.457208
-20.39657 99.310169 -39.256689
-19.410943 97.465004 -41.540171
-20.572546 97.153671 -41.440025
-19.83767 98.4235 -40.457208
-17.102047 95.652359 -43.460831
-16.38526 96.912788 -42.464624
-18.333589 95.407646 -43.528845
-17.102047 95.652359 -43.460831
-10.662271 77.584964 -49.76297
-10.015365 79.148918 -49.262298
-10.003771 76.001709 -49.850387
-10.662271 77.584964 -49.76297
-7.761002 72.534145 -49.657767
-7.155432 73.895699 -49.218746
-6.627651 72.206249 -49.274137
-8.849067 72.631149 -50.013151
-7.761002 72.534145 -49.657767
-6.501581 65.832595 -50.10108
-5.419844 65.522008 -49.745657
0.082934 97.587242 -34.355704
-1.306388 98.275486 -34.795257
1.777308 94.116264 -36.634278
1.193752 95.357975 -35.940371
2.573085 94.526561 -35.460127
6.700314 90.747315 -34.598547
6.286612 91.904815 -34.039747
5.036373 82.993046 -40.045388
4.739433 84.52686 -39.816101
5.809173 83.664535 -39.164864
4.179164 82.326874 -40.939943
5.036373 82.993046 -40.045388
-7.845157 99.945801 -37.39917
-7.160285 100.570279 -36.179747
-7.325152 98.838421 -38.38591
-8.604685 99.19244 -38.620354
-7.845157 99.945801 -37.39917
-1.188352 79.465553 -45.312494
-0.429794 80.560486 -44.609871
-12.09916 90.817127 -45.940439
-13.425145 90.912091 -46.16341
-10.737586 90.619984 -45.690098
-12.09916 90.817127 -45.940439
-11.24168 92.055252 -45.085188
-9.367064 90.500389 -45.329046
-10.224543 89.262265 -46.184297
-10.737586 90.619984 -45.690098
-13.914224 92.268341 -45.522108
-13.25425 93.553799 -44.636105
-13.425145 90.912091 -46.16341
-13.914224 92.268341 -45.522108
-9.88037 81.980736 -48.564495
-10.48327 83.49686 -48.338783
-9.294271 80.425491 -48.749349
-9.88037 81.980736 -48.564495
-8.612547 81.740571 -48.199647
-8.747542 78.908752 -48.897451
-10.015365 79.148918 -49.262298
-9.294271 80.425491 -48.749349
-6.092837 70.599395 -49.284846
-6.627651 72.206249 -49.274137
-5.487267 71.960949 -48.845825
-5.477209 68.833366 -49.291268
-6.617593 69.078666 -49.71958
-6.092837 70.599395 -49.284846
-4.930617 67.121589 -49.296404
-5.477209 68.833366 -49.291268
-4.405862 68.642319 -48.861669
-5.419844 65.522008 -49.745657
-4.930617 67.121589 -49.296404
3.900143 93.648372 -35.000653
2.573085 94.526561 -35.460127
7.50308 88.180431 -35.535013
7.106461 89.504254 -35.093575
6.723273 87.658481 -36.625078
7.50308 88.180431 -35.535013
6.006418 87.115871 -37.621099
5.659885 88.575325 -37.168262
6.723273 87.658481 -36.625078
6.291019 85.698689 -38.006746
5.227632 86.615532 -38.549931
6.006418 87.115871 -37.621099
6.644604 84.322403 -38.189706
6.291019 85.698689 -38.006746
5.809173 83.664535 -39.164864
6.644604 84.322403 -38.189706
-8.981593 95.316128 -42.285679
-10.372532 95.53437 -42.599584
-7.502464 94.949654 -41.95769
-8.981593 95.316128 -42.285679
-8.095638 96.131367 -41.306238
-6.11388 94.457818 -41.666912
-6.999835 93.642578 -42.646353
-7.502464 94.949654 -41.95769
-10.946732 96.770859 -41.804407
-10.198357 97.668285 -40.772005
-10.372532 95.53437 -42.599584
-10.946732 96.770859 -41.804407
-1.970528 78.397369 -45.976793
-2.355908 80.032387 -45.845425
-1.188352 79.465553 -45.312494
-2.707963 77.253502 -46.608337
-1.970528 78.397369 -45.976793
-3.407034 75.917141 -47.212343
-3.837155 77.627842 -47.113729
-2.707963 77.253502 -46.608337
-2.973838 74.292889 -47.276745
-4.10303 74.667228 -47.782137
-3.407034 75.917141 -47.212343
-2.520302 72.638488 -47.294491
-2.973838 74.292889 -47.276745
-3.129211 71.31739 -47.839291
-2.520302 72.638488 -47.294491
-11.574358 86.565807 -47.645437
-10.901861 87.915832 -46.941621
-10.988274 85.073856 -48.000333
-11.574358 86.565807 -47.645437
-9.703651 84.87281 -47.676344
-10.48327 83.49686 -48.338783
-10.988274 85.073856 -48.000333
-9.134263 92.996262 -43.885988
-10.525201 93.214505 -44.199894
-8.528403 91.565395 -44.49344
-9.134263 92.996262 -43.885988
-7.782559 92.703549 -43.544583
0.362794 81.694348 -43.83453
-0.429794 80.560486 -44.609871
-0.781144 82.234432 -44.405785
1.523125 81.027344 -43.242786
0.362794 81.694348 -43.83453
1.171775 82.70129 -43.0387
2.629645 80.451557 -42.590748
1.523125 81.027344 -43.242786
-21.491138 98.799343 -39.261154
-20.39657 99.310169 -39.256689
-22.124525 97.517879 -40.233587
-21.491138 98.799343 -39.261154
-21.65533 96.73888 -41.306455
-22.124525 97.517879 -40.233587
-21.228603 95.780384 -42.389418
-21.65533 96.73888 -41.306455
-20.572546 97.153671 -41.440025
-20.739311 94.828743 -43.37195
-21.228603 95.780384 -42.389418
-16.981933 97.884288 -41.576359
-16.38526 96.912788 -42.464624
-18.213603 97.714393 -41.592998
-16.981933 97.884288 -41.576359
-18.948479 96.444565 -42.575815
-19.410943 97.465004 -41.540171
-18.213603 97.714393 -41.592998
-19.530929 95.158256 -43.476017
-18.948479 96.444565 -42.575815
-18.333589 95.407646 -43.528845
-20.739311 94.828743 -43.37195
-19.530929 95.158256 -43.476017
-3.344807 99.900097 -34.316687
-3.973929 100.81514 -33.373325
-3.973929 100.81514 -33.373325
-5.442983 101.421841 -33.641711
-9.413846 74.297417 -49.946375
-10.003771 76.001709 -49.850387
-8.878709 75.927887 -49.506388
-9.413846 74.297417 -49.946375
-8.849067 72.631149 -50.013151
-7.107116 67.482143 -50.096561
-6.617593 69.078666 -49.71958
-7.107116 67.482143 -50.096561
-6.501581 65.832595 -50.10108
-2.731054 98.900307 -35.213403
-4.199165 99.538006 -35.545002
-3.344807 99.900097 -34.316687
-2.160744 97.913395 -36.023573
-2.731054 98.900307 -35.213403
-1.306388 98.275486 -34.795257
0.626726 96.528423 -35.185823
0.082934 97.587242 -34.355704
-0.169052 96.118126 -36.359974
0.626726 96.528423 -35.185823
1.193752 95.357975 -35.940371
5.104045 92.807975 -34.514729
6.286612 91.904815 -34.039747
4.360543 92.444454 -35.66811
3.900143 93.648372 -35.000653
5.104045 92.807975 -34.514729
5.970591 90.360996 -35.677214
6.700314 90.747315 -34.598547
7.106461 89.504254 -35.093575
3.3619 81.416332 -41.815109
3.149369 82.944828 -41.571791
4.179164 82.326874 -40.939943
2.629645 80.451557 -42.590748
3.3619 81.416332 -41.815109
3 0 16 14
3 0 60 61
3 0 62 64
3 62 14 63
3 62 63 64
3 65 18 66
3 67 66 17
3 65 66 67
3 2 21 19
3 2 23 21
3 68 17 69
3 1 25 24
3 70 28 71
3 72 71 26
3 70 71 72
3 74 73 28
3 3 33 32
3 5 34 15
3 5 35 34
3 3 75 76
3 3 77 79
3 77 32 78
3 77 78 79
3 6 38 36
3 8 80 82
3 80 39 81
3 80 81 82
3 8 40 39
3 4 83 85
3 83 41 84
3 83 84 85
3 9 42 20
3 9 43 42
3 9 44 43
3 10 45 22
3 10 46 45
3 86 47 87
3 88 48 89
3 90 89 47
3 88 89 90
3 91 49 92
3 94 93 49
3 11 95 96
3 11 97 98
3 7 50 37
3 99 51 100
3 101 100 27
3 99 100 101
3 103 102 51
3 105 104 29
3 106 52 107
3 12 108 110
3 108 53 109
3 108 109 110
3 12 54 53
3 111 55 112
3 13 56 30
3 13 57 56
3 13 58 57
3 113 59 114
3 115 114 31
3 113 114 115
3 117 116 59
3 14 15 3
3 16 15 14
3 16 5 15
3 14 118 119
3 14 120 122
3 120 3 121
3 120 121 122
3 124 123 6
3 17 125 126
3 18 127 129
3 129 128 17
3 127 128 129
3 18 130 132
3 130 8 131
3 130 131 132
3 19 20 4
3 21 20 19
3 21 9 20
3 21 22 9
3 23 22 21
3 23 10 22
3 17 133 134
3 17 135 136
3 24 137 138
3 25 139 141
3 141 140 24
3 139 140 141
3 25 142 144
3 142 11 143
3 142 143 144
3 26 27 7
3 28 27 26
3 28 145 147
3 147 146 27
3 145 146 147
3 28 148 150
3 148 29 149
3 148 149 150
3 151 29 152
3 153 152 28
3 151 152 153
3 155 154 29
3 156 12 157
3 158 30 159
3 160 30 161
3 162 13 163
3 164 163 30
3 162 163 164
3 165 31 166
3 167 166 13
3 165 166 167
3 168 31 169
3 171 170 31
3 32 172 173
3 33 174 176
3 176 175 32
3 174 175 176
3 33 177 179
3 177 4 178
3 177 178 179
3 15 33 3
3 34 33 15
3 34 4 33
3 34 19 4
3 35 19 34
3 35 2 19
3 32 180 181
3 32 182 183
3 36 37 1
3 38 37 36
3 38 7 37
3 184 38 185
3 186 185 6
3 184 185 186
3 187 38 188
3 189 7 190
3 191 190 38
3 189 190 191
3 192 26 193
3 194 193 7
3 192 193 194
3 195 26 196
3 198 197 26
3 39 199 200
3 39 201 202
3 39 203 205
3 203 24 204
3 203 204 205
3 40 24 39
3 40 1 24
3 206 18 207
3 41 208 210
3 208 18 209
3 208 209 210
3 41 8 18
3 20 41 4
3 42 41 20
3 42 8 41
3 42 40 8
3 43 40 42
3 43 1 40
3 43 36 1
3 44 36 43
3 44 6 36
3 22 44 9
3 45 44 22
3 45 6 44
3 45 211 213
3 213 212 6
3 211 212 213
3 46 214 216
3 216 215 45
3 214 215 216
3 46 217 218
3 47 219 220
3 47 221 222
3 47 223 224
3 48 225 227
3 227 226 47
3 225 226 227
3 48 228 229
3 49 230 231
3 49 232 233
3 49 234 236
3 234 48 235
3 234 235 236
3 237 48 238
3 239 238 49
3 237 238 239
3 241 240 48
3 243 242 0
3 244 0 245
3 37 25 1
3 50 25 37
3 50 11 25
3 27 50 7
3 51 50 27
3 51 11 50
3 51 246 248
3 248 247 11
3 246 247 248
3 250 249 51
3 29 251 252
3 254 253 29
3 255 16 256
3 257 256 0
3 255 256 257
3 52 258 260
3 258 16 259
3 258 259 260
3 52 5 16
3 261 52 262
3 53 263 265
3 263 52 264
3 263 264 265
3 53 5 52
3 53 35 5
3 54 35 53
3 54 2 35
3 55 266 267
3 55 268 270
3 268 12 269
3 268 269 270
3 30 271 273
3 271 55 272
3 271 272 273
3 56 55 30
3 56 12 55
3 56 54 12
3 57 54 56
3 57 2 54
3 57 23 2
3 58 23 57
3 58 10 23
3 31 58 13
3 59 58 31
3 59 10 58
3 59 46 10
3 274 46 275
3 276 275 59
3 274 275 276
3 278 277 46
