ply
format ascii 1.0
element vertex 588
property float x
property float y
property float z
element face 652
property list uchar int vertex_index
end_header
19.292721 -12.605178 72.749481
28.680504 -8.791149 47.526157
28.89456 -12.63067 65.377419
29.563591 0.713356 62.044571
22.335506 -22.68425 72.505722
28.238106 -21.957628 50.663063
11.039583 -11.911294 70.043503
29.407101 5.062095 45.154213
29.650637 2.034346 53.338844
29.247784 -11.238466 56.518913
28.558199 -23.56164 60.023567
25.601391 -12.920989 71.48719
27.062794 -23.812483 68.241486
28.130913 -27.950592 52.507671
8.66221 -7.739705 68.445587
8.897513 -15.57841 69.33287
29.861057 8.973483 51.656353
29.927902 8.334947 56.221424
29.327812 -6.156971 63.735912
29.590677 -5.739565 59.543068
29.317705 -12.261396 61.173195
28.980986 -17.54443 58.447803
28.908365 -18.127968 62.787304
23.989748 -7.180076 72.036552
22.699854 -12.544783 72.713852
25.064476 -23.441971 71.003448
27.087461 -29.049854 66.117683
29.019955 -1.787791 46.231754
29.729336 7.547205 60.296513
28.715515 0.05369 66.111794
28.350782 -6.81755 67.606606
17.345022 -16.932823 72.562141
21.078878 -17.430391 72.953262
18.773352 -21.720186 72.768845
28.410606 -15.479771 48.857655
28.304506 -13.964599 44.669449
28.10449 -20.45023 46.130817
15.335628 -12.29125 71.765808
13.204536 -16.29668 71.239189
29.763445 10.142307 47.58297
29.48103 3.535767 49.03693
29.166908 -3.526078 50.342873
29.763292 1.239056 57.687588
29.449636 -4.726768 54.908833
28.93461 -10.385562 52.00592
28.708546 -16.821257 53.641556
28.479013 -22.892418 55.316704
28.192005 -28.864904 57.145351
26.542534 -6.946466 70.432327
27.744286 -12.651102 68.893806
24.254061 -18.000568 72.156342
26.678368 -18.336227 70.078804
28.222563 -18.34071 66.850853
28.179289 -23.762646 64.520493
27.930573 -29.172211 62.021481
28.087137 -31.003412 53.330231
28.068043 -30.49844 51.027451
29.128117 -9.319344 64.648232
29.384657 -9.236359 62.428921
29.189291 -12.237556 63.411983
29.13912 -15.206285 61.972683
28.955048 -15.328976 64.166733
19.867859 -10.009491 72.6408
21.801165 -10.000766 72.684227
21.033497 -12.381139 72.85743
28.846087 -5.268698 46.908699
28.805391 -4.60809 44.807911
28.626007 -8.017879 45.447437
28.586016 -3.383439 66.805649
27.889746 -3.810384 68.368645
16.193802 -18.911995 72.30677
18.104029 -19.351418 72.731529
28.325041 -18.584995 49.756786
28.227608 -17.921047 47.43021
28.144951 -21.273241 48.271656
9.859939 -9.862311 69.293701
11.976232 -9.830252 70.249451
14.064541 -9.886056 71.104706
13.228187 -12.080179 70.981064
14.276166 -14.31411 71.536514
12.237405 -13.94528 70.720543
9.945724 -17.594973 69.926376
29.757698 5.616694 52.517643
29.689447 6.365846 50.326302
29.563942 2.799961 51.177032
29.313229 -0.071336 49.649319
29.424845 -0.728488 51.802879
29.646048 4.201982 61.202694
29.798052 4.364909 59.050331
29.7173 0.744221 59.926006
29.46316 -8.36112 58.042297
29.557728 -5.234995 57.257992
29.354431 -8.143294 55.796753
29.207113 -7.484741 53.401691
29.102806 -10.725699 54.179855
28.826504 -13.601125 52.860889
28.978006 -14.216537 55.086922
28.791769 -20.559006 59.186226
28.715899 -20.393837 56.829147
28.552031 -23.376419 57.726551
28.344521 -25.936296 56.275505
28.364847 -26.179329 58.687729
24.883528 -10.14043 71.866119
25.328949 -7.25319 71.415863
26.132841 -10.09233 71.001572
27.198412 -9.6612 69.813477
26.788277 -12.762494 70.355034
21.690453 -20.069305 72.819778
22.806263 -17.77911 72.701088
23.315916 -20.401039 72.395508
26.250999 -23.646353 69.672768
25.954441 -21.089293 70.541962
26.926394 -21.087172 69.233719
27.534742 -18.413157 68.646828
27.685003 -21.17975 67.606438
28.215271 -21.298014 65.780441
27.696852 -24.006117 66.503654
27.603485 -29.129402 64.126724
27.525721 -31.762981 62.85297
27.845558 -31.619434 60.625179
28.367683 -12.779483 42.607941
28.177227 -25.057579 51.629955
7.343419 -5.646967 67.455864
6.557571 -7.613643 67.348808
7.632972 -9.61123 68.172386
8.90892 -11.649939 69.02771
10.092 -13.81781 69.77079
8.051865 -13.535487 68.778725
6.750036 -15.118504 68.247559
29.91444 8.648474 53.857796
29.825687 5.368667 54.663078
29.460503 -2.825285 62.919521
29.631668 -2.613153 60.879715
29.529549 -5.875524 61.693462
29.474335 -8.938545 60.296429
29.327578 -11.828459 58.816914
29.123278 -14.480131 57.450783
29.182106 -14.939495 59.792332
28.997969 -17.910778 60.631767
28.75428 -20.894814 61.435261
22.40135 -7.293698 72.396965
23.46328 -9.89025 72.40773
24.180847 -12.698327 72.285309
23.736511 -23.038511 71.948196
24.083059 -25.698977 71.336075
25.374023 -26.14506 70.156586
26.310808 -26.494184 68.813118
27.067125 -26.493649 67.277817
26.458313 -31.493044 66.657822
29.21047 1.700122 45.591709
29.234322 0.45608 64.168228
29.108418 -2.935666 64.983864
28.946142 -6.309189 65.747055
28.725403 -9.588573 66.489494
18.285881 -14.746471 72.691429
20.180859 -14.867573 72.928116
19.303663 -17.233482 72.894867
19.982029 -19.794977 72.91465
20.543642 -22.314423 72.797508
28.537741 -12.188941 48.238323
28.475315 -11.260719 46.12674
28.335157 -14.598533 46.679832
28.187643 -17.23461 45.338108
18.125608 -9.930059 72.350517
16.101231 -9.920837 71.812164
17.35972 -12.198913 72.349869
16.444334 -14.551216 72.247086
15.347382 -16.483055 72.003456
14.220463 -18.51755 71.689583
11.076714 -15.82787 70.341362
12.08147 -18.151983 70.869781
29.575989 7.292041 46.446918
29.816006 9.727766 49.610416
29.622766 6.823244 48.360561
29.413696 4.010958 47.119305
29.239594 0.757574 47.589909
29.078587 -2.599353 48.289074
28.928448 -6.058114 48.972286
29.875792 8.219736 58.278362
29.842733 4.741008 56.919456
29.735855 1.775765 55.51091
29.686588 -2.232908 58.672916
29.646524 -1.918414 56.452766
29.564186 -1.121575 54.194733
29.324244 -3.881054 52.636532
29.063845 -6.797381 51.248474
28.799728 -9.398879 49.73867
28.661047 -12.935065 50.48502
28.553684 -16.113989 51.268841
28.448294 -19.405619 52.083126
28.873386 -17.243586 56.134007
28.604496 -19.769905 54.464725
28.364742 -22.546967 53.116581
28.271669 -25.541103 53.951572
28.180723 -28.547768 54.906284
28.080204 -31.362169 55.747768
27.56139 -6.690241 69.144234
28.066465 -9.647926 68.310364
28.425491 -12.476512 67.252274
21.903086 -15.133343 72.890579
23.476479 -15.211223 72.562271
24.946852 -15.442904 71.888962
24.765293 -20.693413 71.625076
25.596386 -18.287954 71.245384
26.16905 -15.637705 70.923485
27.215023 -15.430889 69.624748
27.999527 -15.608029 68.053963
28.570753 -15.547496 66.250969
28.649145 -18.444084 64.894516
28.584133 -21.046339 63.684456
28.446772 -23.755289 62.288174
27.66507 -26.511042 65.375282
28.06369 -26.417294 63.297501
28.264477 -26.55039 61.039917
28.128592 -29.0252 59.619366
28.015436 -31.537476 58.182598
28.081032 -32.179887 52.550883
28.062518 -32.374076 53.842901
27.534402 -2.317304 68.72976
27.963307 -2.073803 68.047505
16.54527 -20.12409 72.389164
15.622386 -19.899871 72.147708
27.29464 -33.015917 63.17269
27.296195 -31.699083 63.876452
27.517007 -32.987691 62.086567
27.29464 -33.015917 63.17269
29.430026 5.573873 44.265676
29.503693 6.750901 44.902293
28.099646 -27.728629 51.282873
28.122803 -26.282122 50.844015
28.15407 -26.504086 52.068813
28.059985 -30.216356 49.755553
28.080273 -31.649929 50.168957
5.504716 -7.588561 66.778942
5.905527 -6.697897 66.853336
7.206014 -10.602322 68.06697
6.60127 -9.554343 67.629982
7.843988 -11.621677 68.494632
8.270946 -10.630585 68.600048
7.206014 -10.602322 68.06697
7.415461 -12.564451 68.37014
8.480393 -12.592713 68.903217
7.843988 -11.621677 68.494632
5.686348 -14.904701 67.67873
6.270064 -14.150407 67.926117
6.174167 -15.914167 67.997513
5.686348 -14.904701 67.67873
29.921171 8.49171 55.03961
29.96349 10.166225 54.471239
29.97022 10.009461 55.653053
21.525275 -7.43895 72.437782
21.826309 -6.056156 72.285755
23.53036 -26.803156 71.433613
23.362407 -25.564393 71.711228
25.412569 -27.422514 69.768093
24.828117 -27.239724 70.398896
25.880962 -27.597076 69.09636
25.842416 -26.319622 69.484852
25.412569 -27.422514 69.768093
26.332606 -27.808691 68.323929
25.880962 -27.597076 69.09636
26.06256 -32.743434 66.903626
26.005067 -31.441616 67.501824
26.462372 -32.821332 66.03682
26.06256 -32.743434 66.903626
29.012411 -1.442819 45.213911
29.107669 0.301137 44.893889
29.115212 -0.043834 45.911732
28.83586 -4.009755 43.856573
28.730831 -5.767868 44.122577
28.778064 1.72111 65.716492
28.453702 1.558739 66.533951
28.974919 0.254885 65.140011
29.037468 1.922305 64.744709
28.778064 1.72111 65.716492
28.108183 -20.10127 45.089361
28.14976 -18.49346 44.693006
28.146066 -18.84242 45.734462
17.502485 -8.732655 72.071476
18.468351 -8.681299 72.29346
8.994453 -6.740023 68.464698
8.335058 -5.693653 67.969837
8.002814 -6.693336 67.950726
11.391458 -18.96314 70.60318
11.013597 -17.873478 70.398078
10.323585 -18.684635 70.131477
12.517695 -19.239211 71.06765
11.391458 -18.96314 70.60318
29.756758 10.469421 46.692678
29.842011 11.815045 47.203871
29.669717 8.717174 47.014944
29.66303 9.044287 46.124652
29.756758 10.469421 46.692678
29.838532 9.350625 50.633385
29.901722 11.140256 50.235874
29.924247 10.763115 51.258843
29.802564 7.88347 59.287437
29.82895 9.770943 58.921554
29.755722 9.434677 59.93063
24.212475 -5.667977 71.791168
23.469964 -5.808602 72.017669
26.142608 -5.497355 70.632103
25.535815 -5.650717 71.123871
25.935741 -7.099828 70.924095
26.706822 -5.397911 70.117672
26.142608 -5.497355 70.632103
27.051962 -6.818354 69.78828
27.216249 -5.269799 69.473625
26.706822 -5.397911 70.117672
27.895727 -32.908177 58.638178
27.930497 -31.578455 59.403889
27.810788 -32.949156 59.859469
27.979591 -32.858919 57.469706
27.895727 -32.908177 58.638178
28.383026 -12.241725 44.351862
28.46843 -10.889785 45.080507
28.38991 -12.612659 45.398094
28.461586 -11.008835 42.377359
28.440715 -12.271524 41.677143
28.071486 -31.9274 51.399493
28.07759 -30.750926 52.178841
28.081032 -32.179887 52.550883
28.080273 -31.649929 50.168957
28.071486 -31.9274 51.399493
29.94075 10.003189 56.76181
29.97022 10.009461 55.653053
20.834512 -10.005129 72.662514
21.225182 -8.792484 72.581413
20.258529 -8.796847 72.5597
28.641139 -7.472762 44.442341
28.730831 -5.767868 44.122577
28.715699 -6.312985 45.127674
28.376192 -0.141766 66.919079
28.453702 1.558739 66.533951
28.311442 -1.860331 67.266007
28.650765 -1.664875 66.458721
28.376192 -0.141766 66.919079
28.237881 -3.596912 67.587147
28.311442 -1.860331 67.266007
27.963307 -2.073803 68.047505
17.500383 -20.343801 72.601543
17.148916 -19.131706 72.519149
16.54527 -20.12409 72.389164
17.835045 -21.528185 72.620202
18.43869 -20.535802 72.750187
17.500383 -20.343801 72.601543
10.264132 -8.771836 69.350452
9.665267 -7.710534 68.926395
9.261074 -8.801008 68.869644
11.322278 -8.755807 69.828328
10.264132 -8.771836 69.350452
10.918086 -9.846281 69.771576
12.355082 -8.785026 70.290802
11.322278 -8.755807 69.828328
13.020387 -9.858154 70.677078
13.399236 -8.812928 70.718429
12.355082 -8.785026 70.290802
8.838092 -17.386178 69.391556
9.421619 -16.586692 69.629623
8.313986 -16.377896 69.094803
9.294158 -18.466997 69.653526
8.838092 -17.386178 69.391556
10.323585 -18.684635 70.131477
9.294158 -18.466997 69.653526
29.855266 11.572383 48.181446
29.842011 11.815045 47.203871
27.335077 -30.382293 64.513329
27.345473 -29.089628 65.122203
27.077065 -30.34252 65.508808
27.564603 -30.446191 63.489847
27.335077 -30.382293 64.513329
27.296195 -31.699083 63.876452
27.676925 -32.915918 60.972672
27.68564 -31.691207 61.739075
27.517007 -32.987691 62.086567
27.810788 -32.949156 59.859469
27.676925 -32.915918 60.972672
28.292431 -14.575236 42.87576
28.336095 -13.372041 43.638695
28.260842 -15.167794 43.906514
28.353966 -14.045207 41.899067
28.292431 -14.575236 42.87576
28.440715 -12.271524 41.677143
28.353966 -14.045207 41.899067
28.136633 -24.71225 50.429169
28.167072 -23.162275 49.945723
28.207666 -23.507604 51.146509
28.136633 -24.71225 50.429169
28.122803 -26.282122 50.844015
28.068212 -29.002553 50.542763
28.099646 -27.728629 51.282873
28.099478 -29.224516 51.767561
28.068212 -29.002553 50.542763
28.059985 -30.216356 49.755553
6.29845 -5.714559 66.906864
6.653325 -4.72041 66.92194
6.950495 -6.630305 67.402336
6.29845 -5.714559 66.906864
5.905527 -6.697897 66.853336
6.063569 -8.555549 67.218193
5.504716 -7.588561 66.778942
7.095271 -8.612437 67.760597
6.063569 -8.555549 67.218193
6.60127 -9.554343 67.629982
6.920978 -13.358898 68.1917
7.415461 -12.564451 68.37014
7.40095 -14.326995 68.513142
6.920978 -13.358898 68.1917
6.270064 -14.150407 67.926117
7.240247 -16.147943 68.552147
8.313986 -16.377896 69.094803
7.823774 -15.348457 68.790214
7.240247 -16.147943 68.552147
6.174167 -15.914167 67.997513
29.938566 10.552258 52.27516
29.924247 10.763115 51.258843
29.965257 10.389754 53.375882
29.96349 10.166225 54.471239
29.887749 8.810979 52.757075
29.938566 10.552258 52.27516
29.965257 10.389754 53.375882
22.675765 -5.865413 72.197876
21.826309 -6.056156 72.285755
23.195549 -7.236887 72.216758
23.469964 -5.808602 72.017669
22.675765 -5.865413 72.197876
22.101258 -8.647232 72.540596
21.525275 -7.43895 72.437782
21.225182 -8.792484 72.581413
23.189134 -24.23416 72.017288
23.036009 -22.86138 72.226959
22.488631 -24.057029 72.296051
23.909785 -24.368744 71.642135
23.189134 -24.23416 72.017288
23.362407 -25.564393 71.711228
24.182635 -27.016682 70.98864
23.53036 -26.803156 71.433613
24.728541 -25.922019 70.74633
24.182635 -27.016682 70.98864
24.828117 -27.239724 70.398896
26.710764 -27.808423 67.556278
26.688966 -26.493917 68.045468
26.332606 -27.808691 68.323929
26.720932 -29.086526 66.976212
27.077293 -27.771752 66.69775
26.710764 -27.808423 67.556278
26.406358 -30.308121 67.246281
26.005067 -31.441616 67.501824
26.772887 -30.271449 66.387753
26.720932 -29.086526 66.976212
26.406358 -30.308121 67.246281
26.762491 -31.564115 65.778877
27.077065 -30.34252 65.508808
26.772887 -30.271449 66.387753
26.762491 -31.564115 65.778877
26.462372 -32.821332 66.03682
29.219879 2.128635 44.65588
29.318195 3.809622 44.437132
29.308785 3.381108 45.372961
29.219879 2.128635 44.65588
29.107669 0.301137 44.893889
28.90513 -2.852969 44.501989
29.012411 -1.442819 45.213911
28.912673 -3.19794 45.519832
28.90513 -2.852969 44.501989
28.83586 -4.009755 43.856573
29.6133 9.27128 60.927041
29.755722 9.434677 59.93063
29.575867 7.522125 61.377724
29.6133 9.27128 60.927041
29.534223 5.849513 61.830815
29.687692 5.874593 60.749603
29.575867 7.522125 61.377724
29.498676 3.977981 62.234167
29.534223 5.849513 61.830815
29.457447 2.233668 62.655105
29.604819 2.457669 61.623632
29.498676 3.977981 62.234167
29.292813 2.10503 63.716934
29.037468 1.922305 64.744709
29.398956 0.584718 63.106399
29.457447 2.233668 62.655105
29.292813 2.10503 63.716934
18.138886 -22.704381 72.636582
17.835045 -21.528185 72.620202
19.056134 -22.966909 72.716888
18.138886 -22.704381 72.636582
19.941278 -23.264028 72.73122
19.658497 -22.017305 72.783176
19.056134 -22.966909 72.716888
20.808361 -23.523268 72.670333
19.941278 -23.264028 72.73122
21.704293 -23.708181 72.52444
21.439574 -22.499336 72.651615
20.808361 -23.523268 72.670333
22.488631 -24.057029 72.296051
21.704293 -23.708181 72.52444
28.20241 -16.802799 44.240843
28.260842 -15.167794 43.906514
28.246074 -15.599604 45.003778
28.20241 -16.802799 44.240843
28.14976 -18.49346 44.693006
28.120495 -22.820082 48.750019
28.191528 -21.615434 49.46736
28.167072 -23.162275 49.945723
28.095958 -22.541446 47.51594
28.120495 -22.820082 48.750019
28.075727 -22.12994 46.44552
28.12472 -20.861736 47.201237
28.095958 -22.541446 47.51594
28.080232 -21.666437 45.371323
28.075727 -22.12994 46.44552
28.108183 -20.10127 45.089361
28.080232 -21.666437 45.371323
19.339476 -8.721015 72.438602
20.258529 -8.796847 72.5597
18.996733 -9.969775 72.495658
19.339476 -8.721015 72.438602
18.468351 -8.681299 72.29346
7.651792 -4.597569 67.434067
6.653325 -4.72041 66.92194
7.651792 -4.597569 67.434067
8.335058 -5.693653 67.969837
8.994453 -6.740023 68.464698
9.665267 -7.710534 68.926395
14.406273 -8.751207 71.106994
13.399236 -8.812928 70.718429
15.424618 -8.768598 71.460724
14.406273 -8.751207 71.106994
15.082886 -9.903447 71.458435
16.490296 -8.728044 71.8023
15.424618 -8.768598 71.460724
17.113419 -9.925448 72.08134
17.502485 -8.732655 72.071476
16.490296 -8.728044 71.8023
14.635716 -19.702649 71.839115
15.622386 -19.899871 72.147708
15.207133 -18.714773 71.998176
13.587191 -19.421995 71.477551
13.150966 -18.334767 71.279682
12.517695 -19.239211 71.06765
14.635716 -19.702649 71.839115
13.587191 -19.421995 71.477551
29.588137 7.865875 45.548645
29.66303 9.044287 46.124652
29.491545 6.177068 45.800565
29.503693 6.750901 44.902293
29.588137 7.865875 45.548645
29.881547 11.365113 49.195169
29.901722 11.140256 50.235874
29.789726 9.935037 48.596693
29.855266 11.572383 48.181446
29.881547 11.365113 49.195169
29.914695 9.945584 57.790279
29.82895 9.770943 58.921554
29.901847 8.277341 57.249893
29.94075 10.003189 56.76181
29.914695 9.945584 57.790279
28.059051 -32.553455 55.05167
28.062518 -32.374076 53.842901
28.08367 -31.182791 54.539
24.882075 -5.704534 71.480823
24.212475 -5.667977 71.791168
24.659349 -7.216633 71.726208
24.882075 -5.704534 71.480823
25.535815 -5.650717 71.123871
27.380427 -3.82987 69.085831
27.534402 -2.317304 68.72976
27.725568 -5.250312 68.756439
27.380427 -3.82987 69.085831
27.216249 -5.269799 69.473625
28.011975 -32.771266 56.252291
28.04782 -31.449823 56.965183
27.979591 -32.858919 57.469706
28.059051 -32.553455 55.05167
28.011975 -32.771266 56.252291
29.430026 5.573873 44.265676
29.318195 3.809622 44.437132
28.543776 -9.268365 44.740856
28.550661 -9.639299 45.787088
28.46843 -10.889785 45.080507
28.641139 -7.472762 44.442341
28.543776 -9.268365 44.740856
28.414614 -11.649166 43.321108
28.383026 -12.241725 44.351862
28.336095 -13.372041 43.638695
28.414614 -11.649166 43.321108
28.461586 -11.008835 42.377359
3 217 216 55
3 2 59 57
3 2 61 59
3 0 64 62
3 1 67 65
3 218 69 219
3 221 220 70
3 5 74 72
3 6 76 75
3 6 78 76
3 6 80 78
3 8 84 82
3 8 86 84
3 3 89 87
3 9 92 90
3 9 94 92
3 9 96 94
3 10 99 97
3 10 101 99
3 11 104 102
3 11 106 104
3 4 109 107
3 12 112 110
3 12 114 112
3 12 116 114
3 222 118 223
3 225 224 118
3 7 226 227
3 13 228 230
3 230 229 121
3 228 229 230
3 232 231 56
3 233 123 234
3 235 124 236
3 237 125 238
3 239 238 124
3 237 238 239
3 240 127 241
3 242 241 125
3 240 241 242
3 243 128 244
3 246 245 128
3 17 247 249
3 247 129 248
3 247 248 249
3 17 130 129
3 18 133 131
3 20 134 58
3 20 135 134
3 20 137 135
3 22 138 60
3 22 139 138
3 250 140 251
3 24 141 63
3 24 142 141
3 252 144 253
3 254 145 255
3 256 146 257
3 258 257 145
3 256 257 258
3 260 259 146
3 261 148 262
3 264 263 148
3 27 265 267
3 267 266 149
3 265 266 267
3 269 268 66
3 29 270 271
3 29 272 274
3 272 150 273
3 272 273 274
3 29 151 150
3 30 152 68
3 30 153 152
3 31 156 154
3 33 157 71
3 33 158 157
3 34 161 159
3 36 162 73
3 36 275 277
3 277 276 162
3 275 276 277
3 278 163 279
3 14 280 282
3 282 281 122
3 280 281 282
3 37 164 77
3 37 165 164
3 37 166 165
3 38 167 79
3 38 168 167
3 15 169 126
3 283 170 284
3 285 284 81
3 283 284 285
3 287 286 170
3 39 288 289
3 39 290 292
3 290 171 291
3 290 291 292
3 16 293 295
3 293 172 294
3 293 294 295
3 40 173 83
3 40 174 173
3 40 175 174
3 41 176 85
3 41 177 176
3 28 296 298
3 296 178 297
3 296 297 298
3 42 179 88
3 42 180 179
3 19 181 132
3 43 182 91
3 43 183 182
3 43 184 183
3 44 185 93
3 44 186 185
3 44 187 186
3 45 188 95
3 45 189 188
3 21 190 136
3 46 191 98
3 46 192 191
3 46 193 192
3 47 194 100
3 47 195 194
3 23 299 300
3 48 301 303
3 303 302 103
3 301 302 303
3 48 304 305
3 48 306 308
3 306 196 307
3 306 307 308
3 49 197 105
3 49 198 197
3 32 199 155
3 50 200 108
3 50 201 200
3 25 202 143
3 51 203 111
3 51 204 203
3 51 205 204
3 52 206 113
3 52 207 206
3 52 208 207
3 53 209 115
3 53 210 209
3 26 211 147
3 54 212 117
3 54 213 212
3 54 214 213
3 309 215 310
3 311 310 119
3 309 310 311
3 313 312 215
3 35 314 316
3 316 315 160
3 314 315 316
3 318 317 120
3 55 56 13
3 319 56 320
3 321 320 55
3 319 320 321
3 323 322 56
3 324 17 325
3 57 58 18
3 59 58 57
3 59 20 58
3 59 60 20
3 61 60 59
3 61 22 60
3 62 326 328
3 326 63 327
3 326 327 328
3 64 63 62
3 64 24 63
3 65 66 27
3 67 66 65
3 67 329 331
3 331 330 66
3 329 330 331
3 332 29 333
3 334 68 335
3 336 335 29
3 334 335 336
3 69 337 339
3 337 68 338
3 337 338 339
3 69 30 68
3 70 71 31
3 340 71 341
3 342 341 70
3 340 341 342
3 343 33 344
3 345 344 71
3 343 344 345
3 72 73 34
3 74 73 72
3 74 36 73
3 75 346 348
3 348 347 14
3 346 347 348
3 76 349 351
3 351 350 75
3 349 350 351
3 76 352 353
3 76 354 356
3 354 77 355
3 354 355 356
3 78 77 76
3 78 37 77
3 78 79 37
3 80 79 78
3 80 38 79
3 357 81 358
3 359 358 15
3 357 358 359
3 360 81 361
3 363 362 81
3 364 39 365
3 82 83 16
3 84 83 82
3 84 40 83
3 84 85 40
3 86 85 84
3 86 41 85
3 87 88 28
3 89 88 87
3 89 42 88
3 90 91 19
3 92 91 90
3 92 43 91
3 92 93 43
3 94 93 92
3 94 44 93
3 94 95 44
3 96 95 94
3 96 45 95
3 97 98 21
3 99 98 97
3 99 46 98
3 99 100 46
3 101 100 99
3 101 47 100
3 102 103 23
3 104 103 102
3 104 48 103
3 104 105 48
3 106 105 104
3 106 49 105
3 107 108 32
3 109 108 107
3 109 50 108
3 110 111 25
3 112 111 110
3 112 51 111
3 112 113 51
3 114 113 112
3 114 52 113
3 114 115 52
3 116 115 114
3 116 53 115
3 366 117 367
3 368 367 26
3 366 367 368
3 118 369 371
3 369 117 370
3 369 370 371
3 118 54 117
3 118 119 54
3 372 119 373
3 374 373 118
3 372 373 374
3 376 375 119
3 377 120 378
3 379 378 35
3 377 378 379
3 380 120 381
3 383 382 120
3 121 384 386
3 386 385 5
3 384 385 386
3 388 387 121
3 56 389 391
3 391 390 13
3 389 390 391
3 393 392 56
3 394 122 395
3 123 396 398
3 396 122 397
3 396 397 398
3 123 14 122
3 399 123 400
3 124 401 403
3 401 123 402
3 401 402 403
3 124 14 123
3 124 75 14
3 125 75 124
3 125 6 75
3 125 126 6
3 127 126 125
3 127 15 126
3 404 127 405
3 128 406 408
3 406 127 407
3 406 407 408
3 128 15 127
3 128 409 411
3 411 410 15
3 409 410 411
3 413 412 128
3 414 16 415
3 129 416 417
3 129 418 420
3 418 16 419
3 418 419 420
3 129 82 16
3 130 82 129
3 130 8 82
3 131 132 3
3 133 132 131
3 133 19 132
3 58 133 18
3 134 133 58
3 134 19 133
3 134 90 19
3 135 90 134
3 135 9 90
3 135 136 9
3 137 136 135
3 137 21 136
3 60 137 20
3 138 137 60
3 138 21 137
3 138 97 21
3 139 97 138
3 139 10 97
3 140 421 422
3 140 423 425
3 423 23 424
3 423 424 425
3 63 426 428
3 426 140 427
3 426 427 428
3 141 140 63
3 141 23 140
3 141 102 23
3 142 102 141
3 142 11 102
3 429 143 430
3 431 430 4
3 429 430 431
3 144 432 434
3 432 143 433
3 432 433 434
3 144 25 143
3 435 144 436
3 145 437 439
3 437 144 438
3 437 438 439
3 145 25 144
3 145 110 25
3 146 110 145
3 146 12 110
3 146 147 12
3 440 147 441
3 442 441 146
3 440 441 442
3 443 26 444
3 445 444 147
3 443 444 445
3 148 446 447
3 148 448 450
3 448 26 449
3 448 449 450
3 148 451 453
3 453 452 26
3 451 452 453
3 455 454 148
3 149 456 458
3 458 457 7
3 456 457 458
3 460 459 149
3 66 461 463
3 463 462 27
3 461 462 463
3 465 464 66
3 466 28 467
3 468 28 469
3 470 87 471
3 472 471 28
3 470 471 472
3 473 87 474
3 475 3 476
3 477 476 87
3 475 476 477
3 150 478 479
3 150 480 482
3 480 3 481
3 480 481 482
3 150 131 3
3 151 131 150
3 151 18 131
3 68 151 29
3 152 151 68
3 152 18 151
3 152 57 18
3 153 57 152
3 153 2 57
3 154 155 0
3 156 155 154
3 156 32 155
3 71 156 31
3 157 156 71
3 157 32 156
3 157 107 32
3 158 107 157
3 158 4 107
3 483 33 484
3 485 33 486
3 487 158 488
3 489 488 33
3 487 488 489
3 490 158 491
3 492 4 493
3 494 493 158
3 492 493 494
3 496 495 4
3 159 160 1
3 161 160 159
3 161 35 160
3 73 161 34
3 162 161 73
3 162 35 161
3 162 497 499
3 499 498 35
3 497 498 499
3 501 500 162
3 502 74 503
3 504 503 5
3 502 503 504
3 505 74 506
3 507 36 508
3 509 508 74
3 507 508 509
3 510 36 511
3 513 512 36
3 514 62 515
3 163 516 518
3 516 62 517
3 516 517 518
3 163 0 62
3 122 519 520
3 522 521 122
3 524 523 14
3 77 525 526
3 164 527 529
3 529 528 77
3 527 528 529
3 164 530 531
3 164 532 534
3 532 163 533
3 532 533 534
3 165 163 164
3 165 0 163
3 165 154 0
3 166 154 165
3 166 31 154
3 79 166 37
3 167 166 79
3 167 31 166
3 167 70 31
3 168 70 167
3 168 535 537
3 537 536 70
3 535 536 537
3 126 80 6
3 169 80 126
3 169 38 80
3 81 169 15
3 170 169 81
3 170 38 169
3 170 168 38
3 538 168 539
3 540 539 170
3 538 539 540
3 542 541 168
3 171 543 544
3 171 545 547
3 545 7 546
3 545 546 547
3 172 548 549
3 172 550 552
3 550 39 551
3 550 551 552
3 83 172 16
3 173 172 83
3 173 39 172
3 173 171 39
3 174 171 173
3 174 7 171
3 174 149 7
3 175 149 174
3 175 27 149
3 85 175 40
3 176 175 85
3 176 27 175
3 176 65 27
3 177 65 176
3 177 1 65
3 178 553 554
3 178 555 557
3 555 17 556
3 555 556 557
3 88 178 28
3 179 178 88
3 179 17 178
3 179 130 17
3 180 130 179
3 180 8 130
3 132 89 3
3 181 89 132
3 181 42 89
3 91 181 19
3 182 181 91
3 182 42 181
3 182 180 42
3 183 180 182
3 183 8 180
3 183 86 8
3 184 86 183
3 184 41 86
3 93 184 43
3 185 184 93
3 185 41 184
3 185 177 41
3 186 177 185
3 186 1 177
3 186 159 1
3 187 159 186
3 187 34 159
3 95 187 44
3 188 187 95
3 188 34 187
3 188 72 34
3 189 72 188
3 189 5 72
3 136 96 9
3 190 96 136
3 190 45 96
3 98 190 21
3 191 190 98
3 191 45 190
3 191 189 45
3 192 189 191
3 192 5 189
3 192 121 5
3 193 121 192
3 193 13 121
3 100 193 46
3 194 193 100
3 194 13 193
3 194 55 13
3 195 55 194
3 195 558 560
3 560 559 55
3 558 559 560
3 103 561 563
3 563 562 23
3 561 562 563
3 565 564 103
3 566 69 567
3 196 568 570
3 568 69 569
3 568 569 570
3 196 30 69
3 105 196 48
3 197 196 105
3 197 30 196
3 197 153 30
3 198 153 197
3 198 2 153
3 155 64 0
3 199 64 155
3 199 24 64
3 108 199 32
3 200 199 108
3 200 24 199
3 200 142 24
3 201 142 200
3 201 11 142
3 143 109 4
3 202 109 143
3 202 50 109
3 111 202 25
3 203 202 111
3 203 50 202
3 203 201 50
3 204 201 203
3 204 11 201
3 204 106 11
3 205 106 204
3 205 49 106
3 113 205 51
3 206 205 113
3 206 49 205
3 206 198 49
3 207 198 206
3 207 2 198
3 207 61 2
3 208 61 207
3 208 22 61
3 115 208 52
3 209 208 115
3 209 22 208
3 209 139 22
3 210 139 209
3 210 10 139
3 147 116 12
3 211 116 147
3 211 53 116
3 117 211 26
3 212 211 117
3 212 53 211
3 212 210 53
3 213 210 212
3 213 10 210
3 213 101 10
3 214 101 213
3 214 47 101
3 119 214 54
3 215 214 119
3 215 47 214
3 215 195 47
3 571 195 572
3 573 572 215
3 571 572 573
3 575 574 195
3 577 576 7
3 160 67 1
3 578 67 579
3 580 579 160
3 578 579 580
3 582 581 67
3 120 583 585
3 585 584 35
3 583 584 585
3 587 586 120
