ply
format ascii 1.0
element vertex 713
property float x
property float y
property float z
element face 763
property list uchar int vertex_index
end_header
30.062569 16.553286 43.195202
29.875109 14.859743 58.33123
23.912971 41.333057 59.708942
30.472607 42.362617 45.787014
27.179058 -0.824224 69.090874
29.994617 69.269089 32.433414
31.050484 54.319225 35.71843
29.248367 57.094955 44.529713
30.107933 15.855638 49.973476
28.528067 43.112137 54.152588
30.106163 29.320154 53.31337
30.595066 27.906807 44.907108
31.362972 38.762562 37.228123
30.385906 19.87734 40.824036
30.007164 13.634071 40.981323
29.615101 63.474812 38.719845
30.105503 15.379445 54.222839
20.649199 -7.584202 72.4786
22.245171 54.575745 53.630432
24.603424 48.86882 55.966789
27.021833 49.838367 53.440254
26.522596 42.786217 57.421917
29.260988 21.697418 60.140274
29.369631 29.058506 57.402611
29.966099 22.026567 56.292213
30.281679 22.456598 51.780769
30.73052 48.642803 41.014053
31.294359 46.519501 36.75882
30.93746 40.963337 41.387493
30.930998 33.516884 41.230583
30.669041 34.928204 45.512894
29.154881 14.199371 62.411175
28.962538 6.934903 64.410622
26.194836 34.968636 60.987206
27.828712 20.776819 63.771381
31.432478 59.617039 30.021313
30.606441 61.991219 34.378498
30.293638 55.967052 40.258217
30.042868 49.750031 45.35067
30.059568 16.263596 46.045815
29.76532 11.417317 44.106777
24.733124 -1.184563 71.029083
27.654219 57.169048 48.389713
28.852419 50.323898 49.709888
29.727634 43.25272 50.186577
28.149256 36.0574 58.006821
29.519718 36.241673 54.135689
30.288801 35.973797 49.768784
30.462147 28.692947 48.996712
30.348518 22.14456 47.633499
30.345484 21.561687 44.019268
31.753067 51.637165 31.526861
31.90472 43.915268 32.701447
31.890848 36.093418 33.641811
31.239506 31.352039 37.541355
30.696148 26.334587 41.186329
29.571609 7.192861 41.666473
30.178934 17.83902 42.134453
30.209322 16.762695 40.751259
30.029514 15.382855 42.179028
30.032635 15.132002 56.254562
30.012539 11.683975 55.084682
29.953598 11.671432 57.302197
22.45113 40.063217 60.531898
21.00334 43.000813 59.264133
22.632895 44.120937 58.765167
23.087065 48.196697 56.79554
24.227844 44.998734 57.973442
25.611471 45.839302 56.816925
25.296021 41.849304 58.843903
29.618431 18.065491 59.536266
29.689989 21.599337 58.266823
29.928946 18.339731 57.336979
30.107077 18.887068 55.155544
30.590176 45.375763 43.56641
30.861052 44.84491 41.255482
30.720057 41.85854 43.561237
30.793612 38.228134 43.470036
30.600122 38.5765 45.777542
31.32386 26.212425 36.036102
28.522741 13.79896 64.256554
29.052813 10.772587 63.455238
28.445461 10.266507 65.178604
27.377195 2.521766 68.359169
28.191889 3.063789 66.956108
28.036869 -0.337223 67.726364
27.815277 16.956766 64.809799
28.607718 17.257328 63.237343
30.488699 68.516289 30.248528
30.779179 64.676605 31.378698
30.311342 65.649094 33.590752
29.424122 60.238209 41.789108
30.006798 59.874058 39.36055
29.844749 56.667618 42.312252
30.181055 52.830696 42.835403
29.700029 53.230717 45.124859
30.079294 16.078079 47.838787
29.920576 13.487783 46.824772
29.947088 13.002459 48.779922
23.866753 55.706459 52.665394
26.536659 57.032387 50.027145
27.831722 46.569897 53.879097
27.997679 50.178318 51.739891
28.665092 46.919853 51.972179
29.321768 46.746326 50.109886
29.22546 43.132969 52.203281
27.267792 35.474579 59.64122
29.804607 29.066097 55.408173
29.400816 32.780636 55.954845
29.867321 32.490669 53.914818
29.973026 35.855957 52.064503
30.201754 32.622238 51.579746
30.418928 32.389004 49.408195
30.32164 29.00132 51.176655
30.226974 18.981554 50.935852
30.327127 22.13287 49.711918
30.223654 18.974026 48.838165
30.207218 18.894213 46.851044
31.240984 57.153038 32.784798
31.398861 53.255241 33.482925
31.34561 42.675419 37.093815
31.574762 45.573544 34.688011
31.598787 41.480503 35.171253
31.901049 39.945992 33.306053
31.61072 37.474434 35.328384
31.54776 33.670586 35.651218
31.323364 35.101177 37.414192
30.751291 30.795567 43.123661
30.827354 29.780224 41.291004
30.636467 27.18502 43.009834
30.498323 23.86867 42.700855
30.478203 24.506176 44.508354
29.600285 8.439708 44.650372
29.66218 9.381569 42.936611
29.452951 6.085652 43.37714
30.651628 21.978025 39.304668
30.25436 15.111816 39.451286
30.029142 11.728504 39.65197
26.344486 2.308637 69.490952
29.808989 66.592789 35.513626
30.125439 15.624858 52.090679
29.987438 12.552746 50.861332
30.016075 12.131033 52.893967
21.251268 -4.818614 72.174545
22.95018 -4.437128 71.998787
21.768339 50.978947 55.537575
23.437906 51.84103 54.886623
24.937212 52.694706 53.816536
26.233408 53.155685 52.562576
25.897583 49.505184 54.798561
26.781363 46.351143 55.484398
27.641663 43.105534 55.848003
28.72794 24.871447 60.764362
28.75699 28.924519 59.341347
29.304344 25.37686 58.85363
29.73275 25.57597 56.891521
30.053173 25.492937 54.739258
30.24312 25.740568 52.623638
30.173 22.283207 53.97646
30.197966 18.952702 52.972969
30.901291 51.528233 38.291008
31.211794 50.42654 36.1828
31.028534 47.523483 38.832474
31.097042 43.647392 39.248676
31.141369 39.904278 39.293568
31.127577 36.511639 39.385529
30.955481 37.241348 41.410362
30.808249 34.563686 43.273815
30.667236 31.343918 45.153996
29.229288 2.557148 43.720051
29.586946 14.543675 60.457935
29.782108 11.32215 59.564747
29.497263 10.995356 61.557568
29.422398 7.497044 62.458935
29.351303 3.75398 63.26564
28.314718 6.449021 66.163132
28.840614 3.388529 65.32119
23.699846 37.347797 61.408428
25.063761 38.023556 60.577934
27.936634 24.574936 62.471638
28.65555 21.008942 62.104706
29.192905 17.757004 61.444466
31.215698 63.800949 28.945726
31.033939 61.022903 32.072838
30.862011 58.045933 35.092854
30.184278 62.665504 36.47633
30.459419 58.946365 37.316589
30.669638 55.341755 38.067551
30.547527 52.309162 40.659473
30.426701 49.090969 43.19648
30.27651 46.071793 45.716095
18.811094 -7.432539 72.236404
30.050653 16.427753 44.452549
29.932396 14.376741 43.578354
29.906857 13.831663 45.082832
29.750071 10.796534 45.802387
26.044743 -0.898916 70.208473
24.435202 -4.155879 71.545784
25.742682 -4.048245 70.831879
26.871109 -3.849356 69.803017
27.346399 53.720444 50.89418
28.314774 53.624565 49.205151
29.07741 53.748287 47.145393
29.522726 50.024632 47.669449
29.874023 46.494892 47.921177
30.1618 42.618332 48.074772
26.375641 38.902668 59.250195
27.430746 39.355934 57.825897
28.355286 39.426018 56.192577
28.819517 32.499043 57.888336
28.921576 36.180908 56.180981
29.040051 39.806496 54.307301
29.63509 39.664402 52.21233
30.048145 39.386372 50.19577
30.37373 39.043175 47.926186
30.506517 35.397221 47.692326
30.565966 31.938389 47.276466
30.546026 28.601784 46.984776
30.367548 25.451618 50.419659
30.436964 25.403526 48.397682
30.476048 25.323687 46.393475
30.344509 21.850056 45.786873
30.196995 18.910807 45.071487
30.187757 18.665955 43.537857
32.145844 50.250378 29.468658
31.505018 49.19825 34.233006
31.827974 47.799973 32.287781
32.221157 46.444588 30.211084
32.262672 42.39674 30.901253
32.267792 38.344173 31.508736
31.45578 29.994587 35.85321
31.102539 27.73908 37.741077
31.061262 32.583473 39.420605
30.944555 28.875786 39.460152
30.813131 25.504692 39.375229
30.562967 23.178312 40.884739
30.348671 20.803795 42.320511
29.853451 12.473297 42.461185
29.797071 10.34452 41.206322
29.3398 3.805998 42.011063
29.525681 4.903163 40.322979
31.241622 24.366519 36.142995
31.145414 25.241459 36.891981
28.083004 11.815968 65.50045
28.484101 12.032733 64.717579
28.121644 13.582194 65.039425
27.534402 -2.317304 68.72976
27.963307 -2.073803 68.047505
27.607964 -0.580723 68.408619
27.767912 15.161098 65.316047
27.322254 16.706795 65.489529
28.121644 13.582194 65.039425
28.169009 15.377863 64.533176
27.767912 15.161098 65.316047
30.061827 70.730022 30.78555
29.774942 71.126411 31.849013
30.241658 68.892689 31.340971
30.308869 70.353623 29.693107
30.061827 70.730022 30.78555
24.010694 57.662638 51.460752
24.584454 56.071064 52.079866
25.919407 56.734028 50.760742
26.073564 58.57083 49.533609
29.430026 5.573873 44.265676
29.526618 7.26268 44.013756
29.503693 6.750901 44.902293
30.423124 19.176476 40.081385
30.555985 20.226818 39.321701
30.518767 20.927682 40.064352
25.801767 3.835905 69.596527
26.438744 4.061343 69.108604
29.96349 10.166225 54.471239
29.97022 10.009461 55.653053
21.525275 -7.43895 72.437782
21.826309 -6.056156 72.285755
20.950233 -6.201408 72.326572
20.362339 44.349436 58.549908
21.254405 44.959372 58.390485
21.636904 48.948439 56.527206
20.945017 50.304495 55.790548
27.910404 6.322793 66.866879
27.97058 8.146061 66.43385
28.778064 1.72111 65.716492
28.516251 3.226159 66.138649
28.453702 1.558739 66.533951
29.037468 1.922305 64.744709
28.778064 1.72111 65.716492
23.524974 35.483787 62.154039
22.895795 36.783369 61.747137
24.303 35.758768 61.779284
23.524974 35.483787 62.154039
27.354934 22.400512 63.912504
27.317369 20.569609 64.474519
27.882673 22.675877 63.12151
27.408895 24.29957 63.262633
27.354934 22.400512 63.912504
31.08409 65.566395 28.555073
31.312295 64.995705 27.364033
17.845228 -7.483895 72.01442
18.147794 -6.252407 71.939857
18.468351 -8.681299 72.29346
17.845228 -7.483895 72.01442
29.756758 10.469421 46.692678
29.835324 12.142159 46.31358
29.842011 11.815045 47.203871
29.66303 9.044287 46.124652
29.756758 10.469421 46.692678
29.901722 11.140256 50.235874
29.924247 10.763115 51.258843
29.82895 9.770943 58.921554
29.755722 9.434677 59.93063
24.907536 0.3803 70.708702
24.125281 0.22158 71.011887
25.388934 -1.04174 70.618778
25.563345 0.523123 70.298397
24.907536 0.3803 70.708702
24.212475 -5.667977 71.791168
23.692691 -4.296504 71.772285
23.469964 -5.808602 72.017669
26.142608 -5.497355 70.632103
25.535815 -5.650717 71.123871
26.706822 -5.397911 70.117672
26.306895 -3.9488 70.317448
26.142608 -5.497355 70.632103
27.216249 -5.269799 69.473625
26.706822 -5.397911 70.117672
21.589394 55.938211 52.873699
21.37464 54.113468 53.846841
27.761836 58.962013 47.060953
27.252755 58.889623 47.908518
28.069786 57.236065 47.508734
27.761836 58.962013 47.060953
31.626833 59.006281 28.99311
31.53228 60.897419 28.533718
31.873246 53.022703 30.147606
31.803475 55.033929 29.774676
31.683296 53.648392 31.153931
31.949455 50.943771 30.49776
32.069634 52.329309 29.118505
31.873246 53.022703 30.147606
32.074111 35.331055 32.770754
32.262583 36.456432 31.704217
32.07932 37.218795 32.575273
31.868556 34.240053 33.769105
32.074111 35.331055 32.770754
29.673107 7.710434 40.816298
29.785838 9.286264 40.586222
29.68434 8.76869 41.436397
29.220514 1.99423 42.160347
29.284544 3.181573 42.865557
29.165258 1.369805 43.014841
29.537834 3.759488 39.628345
29.395155 3.094146 40.492325
29.667419 5.526092 39.518257
29.537834 3.759488 39.628345
29.94075 10.003189 56.76181
29.97022 10.009461 55.653053
29.983069 11.677703 56.193439
21.225182 -8.792484 72.581413
20.258529 -8.796847 72.5597
21.727235 41.532015 59.898015
20.914489 41.038259 60.085856
21.638384 39.569462 60.719738
22.069183 45.519434 58.141002
21.254405 44.959372 58.390485
21.818117 43.560875 59.01465
22.85998 46.158817 57.780354
22.296267 47.557314 57.156189
22.069183 45.519434 58.141002
31.470349 25.33409 35.223692
31.518988 27.231798 35.177441
31.470349 25.33409 35.223692
31.241622 24.366519 36.142995
27.784542 2.792777 67.657638
27.84899 4.630177 67.263367
27.441643 4.359165 67.964897
28.376192 -0.141766 66.919079
28.453702 1.558739 66.533951
28.114379 1.363283 67.341236
28.311442 -1.860331 67.266007
28.376192 -0.141766 66.919079
28.311442 -1.860331 67.266007
27.963307 -2.073803 68.047505
27.310651 18.659582 64.993729
27.322254 16.706795 65.489529
27.821994 18.866792 64.29059
27.317369 20.569609 64.474519
27.310651 18.659582 64.993729
30.569337 69.839466 28.587201
30.308869 70.353623 29.693107
30.720591 67.924065 29.206474
30.569337 69.839466 28.587201
30.633939 66.596447 30.813613
30.865831 66.004223 29.77156
30.720591 67.924065 29.206474
29.855266 11.572383 48.181446
29.842011 11.815045 47.203871
29.933832 13.245121 47.802347
24.019143 -1.323374 71.277489
24.125281 0.22158 71.011887
23.243299 57.040608 52.05755
22.432507 56.475251 52.54007
23.055962 55.141102 53.147913
23.243299 57.040608 52.05755
24.010694 57.662638 51.460752
26.693974 58.821293 48.727233
26.073564 58.57083 49.533609
27.095439 57.100718 49.208429
27.252755 58.889623 47.908518
26.693974 58.821293 48.727233
27.215314 33.582964 60.418026
26.731314 35.221607 60.314213
26.678836 33.329992 61.091019
27.661392 33.843031 59.655538
27.215314 33.582964 60.418026
28.102125 34.134442 58.838339
27.708524 35.76599 58.824021
27.661392 33.843031 59.655538
31.427255 56.406328 31.782899
31.523001 57.638329 30.401156
31.336731 58.385039 31.403056
31.506193 54.45743 32.131963
31.427255 56.406328 31.782899
31.319923 55.204139 33.133862
31.575964 52.446203 32.504893
31.683296 53.648392 31.153931
31.506193 54.45743 32.131963
30.716967 21.215206 38.572868
30.809297 23.124259 38.526264
30.716967 21.215206 38.572868
30.555985 20.226818 39.321701
30.334832 17.619153 40.044996
30.423124 19.176476 40.081385
30.297614 18.320017 40.787647
30.357351 16.793713 39.39501
30.334832 17.619153 40.044996
30.231841 15.937255 40.101273
30.415969 16.006691 38.71155
30.357351 16.793713 39.39501
30.301283 14.234756 38.800083
30.415969 16.006691 38.71155
30.188674 12.5431 38.900425
30.301283 14.234756 38.800083
30.141751 13.42016 39.551628
30.053407 10.649299 39.022154
30.188674 12.5431 38.900425
26.955098 4.167908 68.542713
27.441643 4.359165 67.964897
26.860841 2.415202 68.925061
26.955098 4.167908 68.542713
26.438744 4.061343 69.108604
29.686711 69.731198 33.451408
29.774942 71.126411 31.849013
29.593897 68.393047 34.991514
29.901803 67.930939 33.97352
29.686711 69.731198 33.451408
29.5001 66.824886 36.614901
29.593897 68.393047 34.991514
29.403156 65.265898 38.21801
29.712045 65.0338 37.116736
29.5001 66.824886 36.614901
29.286703 63.699463 39.78913
29.403156 65.265898 38.21801
29.191213 62.081162 41.323761
29.519611 61.85651 40.254476
29.286703 63.699463 39.78913
29.068571 60.454584 42.824855
29.191213 62.081162 41.323761
28.980694 58.882957 44.195158
29.336244 58.666582 43.15941
29.068571 60.454584 42.824855
29.938566 10.552258 52.27516
29.924247 10.763115 51.258843
30.001756 12.34189 51.87765
29.965257 10.389754 53.375882
30.014307 11.907504 53.989325
29.96349 10.166225 54.471239
29.938566 10.552258 52.27516
29.965257 10.389754 53.375882
22.100724 -4.627871 72.086666
22.297252 -3.185092 71.884201
21.447795 -3.375834 71.97208
22.675765 -5.865413 72.197876
22.100724 -4.627871 72.086666
21.826309 -6.056156 72.285755
23.469964 -5.808602 72.017669
22.675765 -5.865413 72.197876
21.525275 -7.43895 72.437782
21.225182 -8.792484 72.581413
20.169799 42.263683 59.431154
20.914489 41.038259 60.085856
20.169799 42.263683 59.431154
20.362339 44.349436 58.549908
21.136225 52.315069 54.800413
20.945017 50.304495 55.790548
22.006755 52.777346 54.584003
21.37464 54.113468 53.846841
21.136225 52.315069 54.800413
22.427702 49.587822 56.166557
21.636904 48.948439 56.527206
22.296267 47.557314 57.156189
25.119684 54.565187 52.655437
24.584454 56.071064 52.079866
24.401982 54.200582 53.240965
25.58531 52.925196 53.189556
25.767782 54.795677 52.028458
25.119684 54.565187 52.655437
28.742465 26.897983 60.052854
28.39693 28.58324 60.224648
28.382406 26.556704 60.936155
29.219879 2.128635 44.65588
29.318195 3.809622 44.437132
29.117078 0.72965 43.958059
29.219879 2.128635 44.65588
29.107669 0.301137 44.893889
29.165258 1.369805 43.014841
29.117078 0.72965 43.958059
29.6133 9.27128 60.927041
29.755722 9.434677 59.93063
29.639685 11.158753 60.561158
29.575867 7.522125 61.377724
29.6133 9.27128 60.927041
29.459831 9.2462 62.008252
29.534223 5.849513 61.830815
29.575867 7.522125 61.377724
29.498676 3.977981 62.234167
29.534223 5.849513 61.830815
29.386851 5.625512 62.862287
29.457447 2.233668 62.655105
29.498676 3.977981 62.234167
28.035952 10.054804 65.941586
28.083004 11.815968 65.50045
28.38009 8.357764 65.670868
28.035952 10.054804 65.941586
27.97058 8.146061 66.43385
28.253304 4.756405 66.55962
27.910404 6.322793 66.866879
27.84899 4.630177 67.263367
29.292813 2.10503 63.716934
29.095959 3.571255 64.293415
29.037468 1.922305 64.744709
29.457447 2.233668 62.655105
29.292813 2.10503 63.716934
22.271437 38.141079 61.308872
21.638384 39.569462 60.719738
23.075488 38.705507 60.970163
22.271437 38.141079 61.308872
22.895795 36.783369 61.747137
24.984958 36.096648 61.364036
24.381804 37.685676 60.993181
24.303 35.758768 61.779284
25.550495 34.569187 61.568673
25.629298 36.496096 60.78257
24.984958 36.096648 61.364036
26.114075 32.935699 61.793713
25.550495 34.569187 61.568673
26.678836 33.329992 61.091019
26.114075 32.935699 61.793713
27.494992 26.117198 62.594136
27.408895 24.29957 63.262633
27.986753 26.408448 61.789793
27.494992 26.117198 62.594136
28.332287 24.723191 61.618
28.382406 26.556704 60.936155
27.986753 26.408448 61.789793
31.42389 62.989374 27.995925
31.312295 64.995705 27.364033
31.324088 61.708994 29.483519
31.53228 60.897419 28.533718
31.42389 62.989374 27.995925
30.997439 64.238777 30.162212
31.08409 65.566395 28.555073
30.865831 66.004223 29.77156
20.558756 -3.445775 71.926593
21.447795 -3.375834 71.97208
20.313868 -4.841758 72.093685
20.558756 -3.445775 71.926593
20.012833 -6.224552 72.245712
20.950233 -6.201408 72.326572
20.313868 -4.841758 72.093685
19.093781 -6.14872 72.124615
18.147794 -6.252407 71.939857
19.730147 -7.50837 72.357502
20.012833 -6.224552 72.245712
19.093781 -6.14872 72.124615
19.339476 -8.721015 72.438602
20.258529 -8.796847 72.5597
19.730147 -7.50837 72.357502
19.339476 -8.721015 72.438602
18.468351 -8.681299 72.29346
29.588137 7.865875 45.548645
29.675178 9.618121 45.22638
29.66303 9.044287 46.124652
29.503693 6.750901 44.902293
29.588137 7.865875 45.548645
29.881547 11.365113 49.195169
29.967263 12.777603 49.820627
29.901722 11.140256 50.235874
29.855266 11.572383 48.181446
29.881547 11.365113 49.195169
29.914695 9.945584 57.790279
29.867853 11.496791 58.433472
29.82895 9.770943 58.921554
29.94075 10.003189 56.76181
29.914695 9.945584 57.790279
25.713217 2.1269 69.939637
25.801767 3.835905 69.596527
26.194615 0.704861 69.849712
25.713217 2.1269 69.939637
25.563345 0.523123 70.298397
23.127671 -2.949657 71.76234
22.297252 -3.185092 71.884201
23.870182 -2.809032 71.535839
23.127671 -2.949657 71.76234
23.692691 -4.296504 71.772285
24.584163 -2.670221 71.287433
24.019143 -1.323374 71.277489
23.870182 -2.809032 71.535839
24.882075 -5.704534 71.480823
24.212475 -5.667977 71.791168
25.088942 -4.102062 71.188831
24.882075 -5.704534 71.480823
25.535815 -5.650717 71.123871
27.380427 -3.82987 69.085831
27.534402 -2.317304 68.72976
27.025084 -2.33679 69.446945
27.380427 -3.82987 69.085831
27.216249 -5.269799 69.473625
21.589394 55.938211 52.873699
22.432507 56.475251 52.54007
28.866859 57.199019 45.578733
28.980694 58.882957 44.195158
26.385033 55.094036 51.29486
25.919407 56.734028 50.760742
25.767782 54.795677 52.028458
28.400063 55.463824 47.916453
28.069786 57.236065 47.508734
27.984496 55.396806 48.797432
28.781381 55.525684 46.886573
28.400063 55.463824 47.916453
28.696092 53.686426 48.175272
29.162889 55.421621 45.837553
28.866859 57.199019 45.578733
28.781381 55.525684 46.886573
28.405991 30.568001 59.505602
28.39693 28.58324 60.224648
28.437255 32.355263 58.779097
28.405991 30.568001 59.505602
28.788253 30.711781 58.614841
28.484386 34.278222 57.947579
28.102125 34.134442 58.838339
28.437255 32.355263 58.779097
31.626833 59.006281 28.99311
31.523001 57.638329 30.401156
32.290197 51.466921 28.165301
32.069634 52.329309 29.118505
32.352993 49.402708 28.598828
32.290197 51.466921 28.165301
32.39065 47.499813 28.970041
32.352993 49.402708 28.598828
32.1835 48.347483 29.839871
32.443585 45.470444 29.315202
32.39065 47.499813 28.970041
32.464342 43.44652 29.660287
32.443585 45.470444 29.315202
32.241915 44.420664 30.556168
32.483191 41.586138 30.003228
32.464342 43.44652 29.660287
32.485751 39.559855 30.30697
32.483191 41.586138 30.003228
32.265232 40.370457 31.204994
32.494963 37.48113 30.612378
32.485751 39.559855 30.30697
32.494963 37.48113 30.612378
32.262583 36.456432 31.704217
31.697012 33.028637 34.773809
31.868556 34.240053 33.769105
31.719304 34.882002 34.646514
31.651022 31.190638 34.874805
31.697012 33.028637 34.773809
31.50177 31.832586 35.752214
31.584949 29.122879 35.085994
31.651022 31.190638 34.874805
31.38982 28.103506 35.944656
31.518988 27.231798 35.177441
31.584949 29.122879 35.085994
31.034753 26.004787 37.744468
31.145414 25.241459 36.891981
31.2132 26.975752 36.888589
30.890049 24.887592 38.561544
31.034753 26.004787 37.744468
30.957835 26.621886 38.558153
30.73238 23.741358 39.339948
30.809297 23.124259 38.526264
30.890049 24.887592 38.561544
29.901874 9.978255 39.809046
29.913106 11.036512 40.429146
29.785838 9.286264 40.586222
30.053407 10.649299 39.022154
29.901874 9.978255 39.809046
29.341119 4.3214 43.548595
29.430026 5.573873 44.265676
29.318195 3.809622 44.437132
29.302214 2.545563 41.336367
29.220514 1.99423 42.160347
29.432741 4.35458 41.167021
29.302214 2.545563 41.336367
29.395155 3.094146 40.492325
29.650143 6.565585 40.14455
29.673107 7.710434 40.816298
29.548645 6.048012 40.994726
29.650143 6.565585 40.14455
29.667419 5.526092 39.518257
3 0 59 57
3 1 62 60
3 2 65 63
3 2 67 65
3 2 69 67
3 1 72 70
3 1 60 72
3 3 76 74
3 3 78 76
3 242 241 79
3 243 82 244
3 245 244 80
3 243 244 245
3 4 85 83
3 4 246 248
3 248 247 85
3 246 247 248
3 249 86 250
3 251 80 252
3 253 252 86
3 251 252 253
3 5 254 255
3 5 256 258
3 256 88 257
3 256 257 258
3 5 90 88
3 7 93 91
3 7 95 93
3 8 98 96
3 260 259 99
3 261 100 262
3 9 103 101
3 9 105 103
3 10 109 107
3 10 111 109
3 10 113 111
3 8 116 114
3 8 96 116
3 6 119 118
3 12 122 120
3 12 124 122
3 12 126 124
3 11 129 127
3 11 131 129
3 263 134 264
3 265 264 132
3 263 264 265
3 13 266 268
3 268 267 135
3 266 267 268
3 14 136 58
3 14 137 136
3 269 138 270
3 16 142 140
3 272 271 61
3 17 273 275
3 275 274 143
3 273 274 275
3 277 276 64
3 278 145 279
3 19 146 66
3 19 147 146
3 19 149 147
3 21 150 68
3 21 151 150
3 22 154 152
3 24 155 71
3 24 156 155
3 24 158 156
3 16 159 73
3 16 140 159
3 26 162 160
3 28 163 75
3 28 164 163
3 28 166 164
3 30 167 77
3 30 168 167
3 31 172 170
3 32 173 81
3 32 174 173
3 280 175 281
3 282 176 283
3 284 283 84
3 282 283 284
3 286 285 176
3 287 177 288
3 290 289 177
3 34 291 292
3 34 293 295
3 293 179 294
3 293 294 295
3 34 180 179
3 31 181 87
3 31 170 181
3 296 182 297
3 36 183 89
3 36 184 183
3 15 185 139
3 37 186 92
3 37 187 186
3 37 188 187
3 38 189 94
3 38 190 189
3 298 191 299
3 301 300 191
3 39 194 192
3 302 195 303
3 304 303 97
3 302 303 304
3 306 305 195
3 308 307 141
3 310 309 171
3 41 311 312
3 41 313 315
3 313 196 314
3 313 314 315
3 316 197 317
3 318 317 144
3 316 317 318
3 319 198 320
3 321 199 322
3 323 322 198
3 321 322 323
3 325 324 199
3 18 326 327
3 42 328 329
3 42 330 331
3 20 200 148
3 43 201 102
3 43 202 201
3 43 203 202
3 44 204 104
3 44 205 204
3 33 206 178
3 45 207 106
3 45 208 207
3 23 209 153
3 46 210 108
3 46 211 210
3 46 212 211
3 47 213 110
3 47 214 213
3 47 215 214
3 48 216 112
3 48 217 216
3 25 218 157
3 49 219 115
3 49 220 219
3 49 221 220
3 39 222 117
3 39 192 222
3 35 332 333
3 51 334 336
3 334 335 336
3 51 337 339
3 337 224 338
3 337 338 339
3 27 225 161
3 52 226 121
3 52 227 226
3 52 228 227
3 53 229 123
3 53 340 342
3 342 341 229
3 340 341 342
3 53 343 344
3 54 230 125
3 54 231 230
3 29 232 165
3 55 233 128
3 55 234 233
3 55 235 234
3 50 236 130
3 50 223 236
3 40 237 193
3 56 238 133
3 56 345 347
3 347 346 238
3 345 346 347
3 348 239 349
3 350 349 169
3 348 349 350
3 351 240 352
3 354 353 240
3 57 58 13
3 59 58 57
3 59 14 58
3 60 61 16
3 62 61 60
3 62 355 357
3 357 356 61
3 355 356 357
3 359 358 17
3 63 360 362
3 360 64 361
3 360 361 362
3 65 64 63
3 65 363 365
3 365 364 64
3 363 364 365
3 65 366 368
3 366 66 367
3 366 367 368
3 67 66 65
3 67 19 66
3 67 68 19
3 69 68 67
3 69 21 68
3 70 71 22
3 72 71 70
3 72 24 71
3 72 73 24
3 60 73 72
3 60 16 73
3 74 75 26
3 76 75 74
3 76 28 75
3 76 77 28
3 78 77 76
3 78 30 77
3 79 369 370
3 372 371 79
3 80 81 31
3 82 81 80
3 82 32 81
3 83 373 375
3 373 84 374
3 373 374 375
3 85 84 83
3 85 376 378
3 378 377 84
3 376 377 378
3 85 379 380
3 382 381 85
3 86 383 384
3 86 385 387
3 385 34 386
3 385 386 387
3 86 87 34
3 80 87 86
3 80 31 87
3 88 388 389
3 88 390 391
3 88 392 394
3 392 89 393
3 392 393 394
3 90 89 88
3 90 36 89
3 91 92 15
3 93 92 91
3 93 37 92
3 93 94 37
3 95 94 93
3 95 38 94
3 96 97 39
3 98 97 96
3 98 395 397
3 397 396 97
3 395 396 397
3 398 41 399
3 99 400 402
3 402 401 18
3 400 401 402
3 404 403 99
3 100 405 406
3 100 407 409
3 407 42 408
3 407 408 409
3 101 102 20
3 103 102 101
3 103 43 102
3 103 104 43
3 105 104 103
3 105 44 104
3 410 106 411
3 412 411 33
3 410 411 412
3 413 106 414
3 415 45 416
3 417 416 106
3 415 416 417
3 107 108 23
3 109 108 107
3 109 46 108
3 109 110 46
3 111 110 109
3 111 47 110
3 111 112 47
3 113 112 111
3 113 48 112
3 114 115 25
3 116 115 114
3 116 49 115
3 116 117 49
3 96 117 116
3 96 39 117
3 118 418 420
3 420 419 35
3 418 419 420
3 119 421 423
3 423 422 118
3 421 422 423
3 119 424 426
3 424 51 425
3 424 425 426
3 120 121 27
3 122 121 120
3 122 52 121
3 122 123 52
3 124 123 122
3 124 53 123
3 124 125 53
3 126 125 124
3 126 54 125
3 127 128 29
3 129 128 127
3 129 55 128
3 129 130 55
3 131 130 129
3 131 50 130
3 132 133 40
3 134 133 132
3 134 56 133
3 135 427 428
3 430 429 135
3 58 431 433
3 433 432 13
3 431 432 433
3 136 434 436
3 436 435 58
3 434 435 436
3 136 437 438
3 136 439 440
3 137 441 443
3 443 442 136
3 441 442 443
3 137 444 445
3 446 83 447
3 138 448 450
3 448 83 449
3 448 449 450
3 138 4 83
3 451 5 452
3 453 139 454
3 455 454 5
3 453 454 455
3 456 139 457
3 458 15 459
3 460 459 139
3 458 459 460
3 461 15 462
3 463 91 464
3 465 464 15
3 463 464 465
3 466 91 467
3 468 7 469
3 470 469 91
3 468 469 470
3 140 141 8
3 142 141 140
3 142 471 473
3 473 472 141
3 471 472 473
3 61 142 16
3 474 142 475
3 476 475 61
3 474 475 476
3 478 477 142
3 143 479 481
3 479 144 480
3 479 480 481
3 482 144 483
3 484 483 143
3 482 483 484
3 486 485 144
3 488 487 17
3 64 489 490
3 492 491 64
3 145 493 494
3 145 495 497
3 495 18 496
3 495 496 497
3 66 498 500
3 498 145 499
3 498 499 500
3 146 145 66
3 146 18 145
3 146 99 18
3 147 99 146
3 147 501 503
3 503 502 99
3 501 502 503
3 147 504 506
3 504 148 505
3 504 505 506
3 149 148 147
3 149 20 148
3 68 149 19
3 150 149 68
3 150 20 149
3 150 101 20
3 151 101 150
3 151 9 101
3 152 507 509
3 507 153 508
3 507 508 509
3 154 153 152
3 154 23 153
3 71 154 22
3 155 154 71
3 155 23 154
3 155 107 23
3 156 107 155
3 156 10 107
3 156 157 10
3 158 157 156
3 158 25 157
3 73 158 24
3 159 158 73
3 159 25 158
3 159 114 25
3 140 114 159
3 140 8 114
3 160 161 6
3 162 161 160
3 162 27 161
3 75 162 26
3 163 162 75
3 163 27 162
3 163 120 27
3 164 120 163
3 164 12 120
3 164 165 12
3 166 165 164
3 166 29 165
3 77 166 28
3 167 166 77
3 167 29 166
3 167 127 29
3 168 127 167
3 168 11 127
3 510 169 511
3 512 169 513
3 512 513 514
3 516 515 169
3 170 171 1
3 172 171 170
3 172 517 519
3 519 518 171
3 517 518 519
3 81 172 31
3 173 172 81
3 173 520 522
3 522 521 172
3 520 521 522
3 173 523 524
3 174 525 527
3 527 526 173
3 525 526 527
3 174 528 529
3 530 82 531
3 175 532 534
3 532 82 533
3 532 533 534
3 175 32 82
3 84 535 537
3 535 175 536
3 535 536 537
3 176 175 84
3 176 32 175
3 176 174 32
3 538 174 539
3 540 539 176
3 538 539 540
3 542 541 174
3 543 63 544
3 177 545 547
3 545 63 546
3 545 546 547
3 177 2 63
3 177 178 2
3 548 178 549
3 550 549 177
3 548 549 550
3 551 33 552
3 553 552 178
3 551 552 553
3 554 33 555
3 557 556 33
3 179 558 559
3 179 560 561
3 179 562 564
3 562 152 563
3 562 563 564
3 180 152 179
3 180 22 152
3 87 180 34
3 181 180 87
3 181 22 180
3 181 70 22
3 170 70 181
3 170 1 70
3 182 565 566
3 182 567 569
3 567 35 568
3 567 568 569
3 89 570 572
3 570 182 571
3 570 571 572
3 183 182 89
3 183 35 182
3 183 118 35
3 184 118 183
3 184 6 118
3 139 90 5
3 185 90 139
3 185 36 90
3 92 185 15
3 186 185 92
3 186 36 185
3 186 184 36
3 187 184 186
3 187 6 184
3 187 160 6
3 188 160 187
3 188 26 160
3 94 188 37
3 189 188 94
3 189 26 188
3 189 74 26
3 190 74 189
3 190 3 74
3 573 143 574
3 575 143 576
3 577 17 578
3 579 578 143
3 577 578 579
3 191 580 581
3 191 582 584
3 582 17 583
3 582 583 584
3 191 585 587
3 587 586 17
3 585 586 587
3 589 588 191
3 192 193 0
3 194 193 192
3 194 40 193
3 97 194 39
3 195 194 97
3 195 40 194
3 195 132 40
3 590 132 591
3 592 591 195
3 590 591 592
3 594 593 132
3 141 98 8
3 595 98 596
3 597 596 141
3 595 596 597
3 599 598 98
3 171 62 1
3 600 62 601
3 602 601 171
3 600 601 602
3 604 603 62
3 605 138 606
3 196 607 609
3 607 138 608
3 607 608 609
3 196 4 138
3 144 610 611
3 197 612 614
3 614 613 144
3 612 613 614
3 197 615 617
3 615 41 616
3 615 616 617
3 618 197 619
3 198 620 622
3 620 197 621
3 620 621 622
3 198 41 197
3 198 196 41
3 199 196 198
3 199 4 196
3 199 623 625
3 625 624 4
3 623 624 625
3 627 626 199
3 629 628 18
3 630 7 631
3 148 632 634
3 632 100 633
3 632 633 634
3 200 100 148
3 200 42 100
3 102 200 20
3 201 200 102
3 201 42 200
3 201 635 637
3 637 636 42
3 635 636 637
3 202 638 640
3 640 639 201
3 638 639 640
3 202 641 643
3 641 7 642
3 641 642 643
3 202 95 7
3 203 95 202
3 203 38 95
3 104 203 43
3 204 203 104
3 204 38 203
3 204 190 38
3 205 190 204
3 205 3 190
3 178 69 2
3 206 69 178
3 206 21 69
3 106 206 33
3 207 206 106
3 207 21 206
3 207 151 21
3 208 151 207
3 208 9 151
3 153 644 645
3 209 646 648
3 648 647 153
3 646 647 648
3 209 649 651
3 649 45 650
3 649 650 651
3 108 209 23
3 210 209 108
3 210 45 209
3 210 208 45
3 211 208 210
3 211 9 208
3 211 105 9
3 212 105 211
3 212 44 105
3 110 212 46
3 213 212 110
3 213 44 212
3 213 205 44
3 214 205 213
3 214 3 205
3 214 78 3
3 215 78 214
3 215 30 78
3 112 215 47
3 216 215 112
3 216 30 215
3 216 168 30
3 217 168 216
3 217 11 168
3 157 113 10
3 218 113 157
3 218 48 113
3 115 218 25
3 219 218 115
3 219 48 218
3 219 217 48
3 220 217 219
3 220 11 217
3 220 131 11
3 221 131 220
3 221 50 131
3 117 221 49
3 222 221 117
3 222 50 221
3 222 223 50
3 192 223 222
3 192 0 223
3 653 652 35
3 224 654 655
3 224 656 657
3 161 119 6
3 225 119 161
3 225 51 119
3 121 225 27
3 226 225 121
3 226 51 225
3 226 224 51
3 227 224 226
3 227 658 660
3 660 659 224
3 658 659 660
3 227 661 662
3 228 663 665
3 665 664 227
3 663 664 665
3 228 666 667
3 123 228 52
3 229 228 123
3 229 668 670
3 670 669 228
3 668 669 670
3 229 671 672
3 674 673 229
3 125 675 677
3 677 676 53
3 675 676 677
3 230 678 680
3 680 679 125
3 678 679 680
3 230 681 682
3 230 683 685
3 683 79 684
3 683 684 685
3 231 79 230
3 231 686 688
3 688 687 79
3 686 687 688
3 165 126 12
3 232 126 165
3 232 54 126
3 128 232 29
3 233 232 128
3 233 54 232
3 233 231 54
3 234 231 233
3 234 689 691
3 691 690 231
3 689 690 691
3 234 692 694
3 692 135 693
3 692 693 694
3 235 135 234
3 235 13 135
3 130 235 55
3 236 235 130
3 236 13 235
3 236 57 13
3 223 57 236
3 223 0 57
3 193 59 0
3 237 59 193
3 237 14 59
3 133 237 40
3 238 237 133
3 238 14 237
3 238 137 14
3 695 137 696
3 697 696 238
3 695 696 697
3 699 698 137
3 169 700 702
3 700 134 701
3 700 701 702
3 239 134 169
3 239 56 134
3 703 239 704
3 240 705 707
3 705 239 706
3 705 706 707
3 240 56 239
3 240 708 710
3 710 709 56
3 708 709 710
3 712 711 240
