ply
format ascii 1.0
element vertex 500
property float x
property float y
property float z
element face 518
property list uchar int vertex_index
end_header
-34.18716 77.499817 -25.796505
-33.291344 73.481575 0.537523
-28.191431 98.320961 -8.323021
-35.186871 58.668724 6.534682
-32.45055 67.327248 12.862076
-28.983591 92.385872 5.847461
-33.795647 56.244007 -41.198788
-33.959553 77.062492 -12.891117
-31.156681 80.474159 8.738324
-31.234392 86.993767 -4.567086
-31.235207 90.390343 -18.456007
-33.026588 60.67437 15.170556
-32.068691 63.995361 17.948811
-35.457634 69.480873 -28.675949
-34.917202 68.163582 -34.550934
-33.97094 76.510277 -31.939093
-34.269394 66.130615 3.451054
-34.785595 68.031776 -2.786148
-33.677223 75.581375 -6.227548
-31.089268 76.246208 15.025334
-30.392595 82.21888 14.008677
-28.665834 95.588631 -1.127128
-30.087791 90.252747 0.399149
-29.891226 93.225853 -6.740716
-31.247177 89.223572 -11.676188
-34.938328 48.759846 15.631475
-34.34026 56.329849 12.579843
-33.668316 63.569801 9.510971
-32.922848 70.542595 6.844294
-29.365961 87.95974 12.797784
-35.321484 58.492195 -36.699036
-34.187653 77.497581 -19.48634
-31.59556 70.130257 16.497641
-31.841394 74.121269 10.596179
-32.074619 77.532578 4.520561
-30.206886 86.78434 7.368105
-31.191799 84.13533 2.187132
-32.335674 80.21196 -1.995365
-32.538803 82.57341 -9.055329
-32.68074 83.913574 -15.570352
-32.745865 84.447144 -22.545341
-32.282318 60.846745 18.971643
-34.890678 73.986931 -24.34586
-35.543648 70.065887 -25.655914
-34.841473 73.665375 -27.369709
-34.686474 73.313156 -30.445654
-34.133194 77.048347 -28.853537
-33.779652 69.733574 2.130028
-34.483131 67.409515 0.391394
-33.994034 71.017067 -1.224492
-34.181366 72.063904 -4.449552
-33.460625 74.762535 -2.785229
-30.450527 80.019089 16.851994
-30.018255 82.890335 16.563951
-28.383247 97.200294 -4.716271
-29.271254 94.541412 -3.85189
-29.122097 95.839363 -7.546119
-29.841146 94.161324 -10.336623
-34.710873 52.580669 13.892052
-32.766502 63.832394 14.006853
-33.363518 61.897423 12.537248
-33.035122 65.381203 11.222381
-33.277695 67.044838 8.309391
-32.671528 68.987038 9.991183
-35.608166 54.83622 8.173018
-34.61676 73.200821 -11.259274
-34.784767 73.469559 -14.453613
-34.888248 73.727974 -17.778685
-34.135521 77.162216 -16.212961
-31.108234 78.494545 12.040297
-31.424343 75.324448 12.808066
-31.505192 77.338593 9.74626
-31.959337 75.844315 7.711316
-31.617996 79.007774 6.462151
-29.192106 90.32399 9.150364
-29.762899 87.61422 10.062943
-29.676168 89.560593 6.567805
-30.68117 88.58683 -2.089137
-30.65638 87.240173 1.490965
-31.227541 85.534882 -1.079377
-31.74758 82.304543 -0.075073
-31.815359 83.670433 -3.468129
-32.431824 81.552254 -5.53518
-31.864925 84.913979 -6.835826
-31.26123 89.895996 -15.231659
-31.944111 86.792412 -13.786769
-32.034924 87.046097 -17.084789
-32.763802 84.132759 -19.0762
-31.981379 87.611122 -20.553274
-32.734447 59.307972 17.640991
-32.503494 62.373699 16.595057
-32.258316 65.558235 15.536892
-35.9856 64.801605 -30.033173
-35.643471 64.262085 -32.979923
-35.279716 68.752106 -31.563597
-34.508564 72.389793 -33.329777
-33.704193 75.948235 -34.729973
-34.737549 62.44305 4.921658
-34.41774 72.690659 -7.875782
-33.817291 76.453506 -9.521272
-31.070539 73.903511 17.932491
-30.779903 77.044281 17.405954
-30.77301 79.265411 14.489414
-30.765234 81.357635 11.455886
-28.798223 94.19091 2.299888
-29.549059 91.426003 3.078372
-29.440935 93.044365 -0.557809
-30.03511 91.660103 -3.095836
-30.585087 90.249191 -5.616631
-31.256498 88.148743 -8.048297
-30.568569 91.309402 -9.096872
-30.568253 92.089966 -12.779449
-35.747314 45.881504 14.417443
-35.461063 49.940109 12.799889
-35.156357 53.710651 11.174404
-34.786663 57.3582 9.725929
-33.653137 58.43943 13.957865
-33.999691 59.994453 11.086966
-34.400726 61.121853 8.0884
-33.986855 64.9468 6.433579
-33.538647 68.445084 5.283829
-33.093952 72.117279 3.831921
-29.51273 85.534668 16.233694
-28.441793 92.782196 8.863921
-28.192101 94.776459 5.390884
-27.660912 98.194458 -2.0661
-27.342848 99.606049 -5.737809
-34.615643 57.237495 -39.110779
-35.25922 63.284641 -35.534424
-34.696388 62.077545 -38.153152
-34.931229 73.866295 -21.120197
-34.250401 77.399956 -22.715309
-31.829496 67.05928 17.226534
-31.991251 68.846451 14.543989
-31.364199 73.08638 15.760335
-31.710554 72.070175 13.714223
-32.137383 70.892334 11.648635
-32.3508 72.380524 8.681271
-32.477814 74.219971 5.663456
-32.629986 75.747681 2.471565
-29.918934 85.23954 13.335111
-30.302616 84.587929 10.722775
-30.696217 83.727119 8.131042
-30.169155 88.488731 4.002756
-30.666109 85.662964 4.788229
-31.151217 82.449272 5.608305
-31.645729 80.918961 3.300825
-32.190273 79.06958 1.252796
-32.795948 76.941513 -0.644983
-32.966728 78.052826 -4.044972
-33.074097 79.263992 -7.509731
-33.220184 80.033051 -11.078829
-31.925508 85.92318 -10.396338
-32.60186 83.451263 -12.414474
-33.367363 80.396904 -14.372346
-33.413883 80.909744 -17.580669
-33.510769 80.913261 -21.020777
-33.511574 80.956146 -24.280287
-29.836436 82.955661 17.956333
-30.082795 81.497906 18.145998
-28.570166 97.615978 -9.783761
-29.035498 96.375179 -9.39531
-28.656764 97.080162 -7.93457
-35.601841 57.170214 5.926341
-35.812489 55.253962 6.74551
-35.397518 56.752472 7.35385
-33.577715 53.639916 -41.482253
-34.074465 54.22814 -40.488058
-32.603052 58.566498 18.848101
-32.837664 57.701072 18.269764
-35.817183 67.518151 -27.789839
-35.860189 67.810658 -26.279821
-35.500641 69.77338 -27.165931
-35.721617 67.141239 -29.354561
-36.081165 65.178517 -28.468451
-35.817183 67.518151 -27.789839
-34.656266 64.799191 2.679007
-34.890343 62.955408 3.414309
-34.503472 64.286833 4.186356
-35.042536 66.166858 -1.874541
-34.891304 65.855728 -0.28577
-34.634363 67.720645 -1.197377
-35.185205 66.511039 -3.561838
-35.042536 66.166858 -1.874541
-34.881773 68.456359 -4.344502
-35.185205 66.511039 -3.561838
-30.651082 77.195968 18.647765
-30.800873 75.669701 18.881577
-30.164712 93.503308 -13.263257
-30.204699 93.125645 -11.558036
-29.801158 94.538986 -12.041844
-30.510966 92.526574 -14.50912
-30.164712 93.503308 -13.263257
-33.339862 59.5569 14.56421
-33.460687 57.874046 15.248037
-33.147413 58.991516 15.854383
-35.052487 46.80623 16.386827
-34.683243 48.110974 16.980008
-35.342821 47.320675 15.024459
-35.45698 45.367059 15.77981
-35.052487 46.80623 16.386827
-28.114439 92.929195 10.311758
-28.553024 91.72247 10.506356
-27.702047 95.937145 5.011663
-27.880077 94.943936 6.773169
-28.061138 95.705902 3.4826
-27.702047 95.937145 5.011663
-27.107307 99.239754 -2.375055
-27.26399 98.501644 -0.49764
-26.948276 99.945549 -4.210909
-27.50188 98.900253 -3.901955
-27.107307 99.239754 -2.375055
-35.27195 55.858456 -37.112766
-35.643828 56.556429 -35.818241
-34.968564 57.864845 -37.904908
-34.91903 55.231105 -38.318638
-35.27195 55.858456 -37.112766
-34.348955 63.960746 -38.816902
-34.607591 64.531582 -37.657709
-34.327682 61.625423 -39.35379
-34.348955 63.960746 -38.816902
-31.712528 68.594769 16.862088
-31.675339 67.499813 18.134934
-31.558371 69.035302 17.770488
-32.171036 60.263121 20.060014
-32.376987 59.335884 19.513427
-32.100686 61.554739 19.593785
-32.171036 60.263121 20.060014
-31.993873 63.129047 19.082369
-32.175505 62.421053 18.460227
-32.100686 61.554739 19.593785
-35.217163 72.026409 -25.000887
-35.559143 70.216526 -24.12447
-35.232658 72.177048 -23.469442
-30.298931 80.062282 18.29002
-30.486394 78.683372 18.370785
-30.234391 81.454712 16.707973
-30.298931 80.062282 18.29002
-30.082795 81.497906 18.145998
-29.395023 95.536159 -10.790562
-29.481621 95.000343 -8.941371
-29.035498 96.375179 -9.39531
-29.801158 94.538986 -12.041844
-29.395023 95.536159 -10.790562
-34.466116 51.879185 15.346838
-34.824601 50.670258 14.761764
-34.579843 49.968773 16.216549
-34.332964 53.725115 14.608161
-34.466116 51.879185 15.346838
-34.147658 55.599705 13.952056
-34.525566 54.455259 13.235947
-34.332964 53.725115 14.608161
-34.579843 49.968773 16.216549
-34.683243 48.110974 16.980008
-35.613598 59.022682 -35.333651
-35.643828 56.556429 -35.818241
-34.717999 67.574601 -35.8566
-34.534264 69.92202 -35.332147
-36.025723 53.290848 7.593053
-35.803123 52.830011 9.025078
-36.025723 53.290848 7.593053
-35.812489 55.253962 6.74551
-35.004936 71.519482 -12.024815
-34.900652 71.357727 -10.288867
-35.08894 71.653851 -13.621985
-35.004936 71.519482 -12.024815
-34.700764 73.33519 -12.856444
-35.146771 71.831868 -15.31492
-35.08894 71.653851 -13.621985
-34.836507 73.598767 -16.116149
-35.198511 71.961075 -16.977455
-35.146771 71.831868 -15.31492
-31.446346 70.567985 17.49652
-31.558371 69.035302 17.770488
-33.001342 58.308317 17.0896
-32.837664 57.701072 18.269764
-32.880517 59.991171 16.405773
-33.147413 58.991516 15.854383
-33.001342 58.308317 17.0896
-32.508382 60.077359 18.306317
-32.603052 58.566498 18.848101
-32.376987 59.335884 19.513427
-35.890217 68.155495 -24.784402
-35.559143 70.216526 -24.12447
-35.890217 68.155495 -24.784402
-35.860189 67.810658 -26.279821
-36.321903 62.863129 -29.119717
-36.081165 65.178517 -28.468451
-36.16856 62.473104 -30.612655
-36.321903 62.863129 -29.119717
-35.814535 64.531845 -31.506548
-35.997496 62.203345 -32.08603
-36.16856 62.473104 -30.612655
-34.329944 72.035125 -34.721569
-34.534264 69.92202 -35.332147
-34.712883 70.276688 -33.940355
-33.927759 73.814346 -35.421667
-34.329944 72.035125 -34.721569
-34.106378 74.169014 -34.029875
-33.522773 75.505871 -36.078058
-33.927759 73.814346 -35.421667
-35.127873 61.115242 4.217551
-35.352533 59.228079 5.024064
-34.96221 60.555887 5.72817
-35.127873 61.115242 4.217551
-34.890343 62.955408 3.414309
-34.763134 65.43864 1.149177
-34.656266 64.799191 2.679007
-34.376262 66.770065 1.921224
-34.763134 65.43864 1.149177
-34.891304 65.855728 -0.28577
-34.579658 70.472423 -5.176204
-34.881773 68.456359 -4.344502
-34.48348 70.04784 -3.61785
-34.697845 70.785801 -6.88932
-34.579658 70.472423 -5.176204
-34.299553 72.377281 -6.162667
-34.801142 71.102646 -8.597121
-34.697845 70.785801 -6.88932
-34.51725 72.94574 -9.567528
-34.900652 71.357727 -10.288867
-34.801142 71.102646 -8.597121
-30.946191 74.099315 19.144845
-31.062206 72.586083 19.435862
-30.925221 75.473896 17.669223
-30.946191 74.099315 19.144845
-30.800873 75.669701 18.881577
-30.615215 78.531685 17.128974
-30.651082 77.195968 18.647765
-30.486394 78.683372 18.370785
-30.857455 91.429588 -15.735226
-30.914741 90.992981 -14.005554
-30.510966 92.526574 -14.50912
-30.844443 91.676762 -17.3474
-31.248219 90.143169 -16.843833
-30.857455 91.429588 -15.735226
-33.316006 55.481232 -42.138768
-33.464791 57.953497 -41.90419
-36.013208 46.327358 13.087311
-36.152466 44.320248 13.84006
-35.870083 48.356661 12.278534
-36.013208 46.327358 13.087311
-35.604189 47.910806 13.608666
-35.729572 50.381956 11.338513
-35.870083 48.356661 12.278534
-35.577219 52.267227 10.525771
-35.729572 50.381956 11.338513
-35.30871 51.82538 11.987146
-35.382261 54.273435 9.673711
-35.803123 52.830011 9.025078
-35.577219 52.267227 10.525771
-33.804096 56.654495 14.641067
-33.460687 57.874046 15.248037
-33.996699 57.38464 13.268854
-34.147658 55.599705 13.952056
-33.804096 56.654495 14.641067
-35.852823 43.948608 15.151085
-35.45698 45.367059 15.77981
-36.152466 44.320248 13.84006
-35.852823 43.948608 15.151085
-29.271533 85.663643 17.590418
-29.583673 84.277828 17.791204
-29.194223 86.872574 15.944168
-29.271533 85.663643 17.590418
-29.120839 88.08511 14.226214
-29.439346 86.747204 14.515739
-29.194223 86.872574 15.944168
-29.015108 89.311241 12.473288
-29.120839 88.08511 14.226214
-28.92818 90.493367 10.649578
-29.279033 89.141865 10.974074
-29.015108 89.311241 12.473288
-28.816949 91.553093 9.007143
-28.92818 90.493367 10.649578
-28.553024 91.72247 10.506356
-28.004924 93.946804 8.509688
-28.114439 92.929195 10.311758
-28.316947 93.779327 7.127402
-28.004924 93.946804 8.509688
-27.880077 94.943936 6.773169
-28.364199 95.413128 1.937102
-28.495162 94.483685 3.845386
-28.061138 95.705902 3.4826
-28.298004 96.111988 0.223594
-28.732028 94.88977 0.58638
-28.364199 95.413128 1.937102
-27.795543 97.414901 -0.245893
-27.26399 98.501644 -0.49764
-28.163373 96.891545 -1.596614
-28.298004 96.111988 0.223594
-27.795543 97.414901 -0.245893
-34.484463 54.724884 -39.444053
-34.91903 55.231105 -38.318638
-34.205645 56.740751 -40.154784
-34.074465 54.22814 -40.488058
-34.484463 54.724884 -39.444053
-35.774591 61.907627 -33.474094
-35.997496 62.203345 -32.08603
-35.582466 61.418905 -34.751345
-35.774591 61.907627 -33.474094
-35.451346 63.773363 -34.257174
-35.290352 60.888418 -36.11673
-35.613598 59.022682 -35.333651
-35.582466 61.418905 -34.751345
-34.889007 65.13513 -36.348345
-35.088211 65.724112 -35.042679
-34.717999 67.574601 -35.8566
-34.977804 62.681093 -36.843788
-34.889007 65.13513 -36.348345
-34.607591 64.531582 -37.657709
-34.28731 59.205399 -39.832604
-34.656015 59.65752 -38.631965
-34.327682 61.625423 -39.35379
-33.877312 58.708655 -40.876608
-34.205645 56.740751 -40.154784
-34.28731 59.205399 -39.832604
-33.464791 57.953497 -41.90419
-33.877312 58.708655 -40.876608
-35.601841 57.170214 5.926341
-35.352533 59.228079 5.024064
-35.2633 71.862728 -18.610448
-35.198511 71.961075 -16.977455
-35.28479 71.931888 -20.281204
-35.2633 71.862728 -18.610448
-34.909739 73.797134 -19.449441
-35.252933 72.11673 -21.856611
-35.28479 71.931888 -20.281204
-34.910954 73.926613 -22.733028
-35.232658 72.177048 -23.469442
-35.252933 72.11673 -21.856611
-31.898701 64.421616 18.829326
-31.993873 63.129047 19.082369
-31.779103 65.953575 18.468187
-31.675339 67.499813 18.134934
-31.949094 65.527321 17.587673
-31.898701 64.421616 18.829326
-31.779103 65.953575 18.468187
-31.183836 72.454612 18.213945
-31.062206 72.586083 19.435862
-31.330666 72.046047 17.127867
-31.183836 72.454612 18.213945
-31.217369 73.494946 16.846413
-31.479879 71.608318 16.128988
-31.446346 70.567985 17.49652
-31.330666 72.046047 17.127867
-29.765493 84.212502 16.398823
-29.836436 82.955661 17.956333
-29.583673 84.277828 17.791204
-26.775448 100.58519 -6.145085
-26.948276 99.945549 -4.210909
-27.227748 100.095444 -7.530712
-26.775448 100.58519 -6.145085
-27.65204 99.4529 -8.823318
-27.767139 98.963505 -7.030415
-27.227748 100.095444 -7.530712
-28.098622 98.752758 -10.150519
-27.65204 99.4529 -8.823318
-28.570166 97.615978 -9.783761
-28.098622 98.752758 -10.150519
-30.831037 91.811619 -18.976194
-30.844443 91.676762 -17.3474
-31.190549 90.596081 -20.21709
-30.831037 91.811619 -18.976194
-31.563635 89.20647 -21.265723
-31.608293 89.000732 -19.504641
-31.190549 90.596081 -20.21709
-31.957647 87.691483 -22.317131
-31.563635 89.20647 -21.265723
-32.339889 86.109493 -23.313164
-32.363622 86.029133 -21.549307
-31.957647 87.691483 -22.317131
-32.741585 84.381409 -24.200151
-32.339889 86.109493 -23.313164
-33.12444 82.63591 -25.067624
-33.12872 82.701645 -23.412814
-32.741585 84.381409 -24.200151
-33.489525 80.852626 -25.865769
-33.12444 82.63591 -25.067624
-33.827318 79.124462 -26.623879
-33.849367 79.227981 -25.038396
-33.489525 80.852626 -25.865769
-33.800335 78.898727 -28.152394
-34.160177 77.274082 -27.325021
-33.827318 79.124462 -26.623879
-33.729833 78.784336 -29.61562
-33.800335 78.898727 -28.152394
-33.648707 78.515301 -31.158398
-34.052067 76.779312 -30.396315
-33.729833 78.784336 -29.61562
-33.542536 78.214505 -32.711299
-33.648707 78.515301 -31.158398
-33.409162 77.933483 -34.106739
-33.837566 76.229256 -33.334533
-33.542536 78.214505 -32.711299
-33.241636 77.672512 -35.457754
-33.409162 77.933483 -34.106739
-33.522773 75.505871 -36.078058
-33.241636 77.672512 -35.457754
-33.577715 53.639916 -41.482253
-33.316006 55.481232 -42.138768
3 0 44 42
3 0 46 44
3 1 49 47
3 1 51 49
3 158 53 159
3 2 56 54
3 2 160 162
3 162 161 56
3 160 161 162
3 4 61 59
3 4 63 61
3 3 163 165
3 165 164 64
3 163 164 165
3 7 66 65
3 7 68 66
3 8 71 69
3 8 73 71
3 5 76 74
3 9 79 77
3 9 81 79
3 9 83 81
3 10 86 84
3 10 88 86
3 6 166 167
3 168 89 169
3 12 90 41
3 12 91 90
3 13 170 172
3 172 171 43
3 170 171 172
3 13 173 175
3 173 92 174
3 173 174 175
3 13 94 92
3 15 95 45
3 15 96 95
3 16 176 178
3 178 177 97
3 176 177 178
3 17 179 181
3 181 180 48
3 179 180 181
3 17 182 183
3 17 184 185
3 18 98 50
3 18 99 98
3 186 101 187
3 20 102 52
3 20 103 102
3 21 106 104
3 23 107 55
3 23 108 107
3 23 110 108
3 188 111 189
3 190 189 57
3 188 189 190
3 192 191 111
3 25 113 112
3 26 114 58
3 26 115 114
3 11 193 195
3 193 116 194
3 193 194 195
3 27 117 60
3 27 118 117
3 27 119 118
3 28 120 62
3 28 121 120
3 25 196 197
3 25 198 200
3 198 112 199
3 198 199 200
3 201 123 202
3 203 124 204
3 206 205 124
3 207 125 208
3 209 126 210
3 211 210 125
3 209 210 211
3 30 212 213
3 30 214 216
3 214 127 215
3 214 215 216
3 14 128 93
3 217 129 218
3 220 219 129
3 31 130 67
3 31 131 130
3 32 221 223
3 221 132 222
3 221 222 223
3 32 133 132
3 19 134 100
3 33 135 70
3 33 136 135
3 33 137 136
3 34 138 72
3 34 139 138
3 29 140 122
3 35 141 75
3 35 142 141
3 22 143 105
3 36 144 78
3 36 145 144
3 36 146 145
3 37 147 80
3 37 148 147
3 37 149 148
3 38 150 82
3 38 151 150
3 24 152 109
3 39 153 85
3 39 154 153
3 39 155 154
3 40 156 87
3 40 157 156
3 224 41 225
3 226 41 227
3 228 12 229
3 230 229 41
3 228 229 230
3 42 231 233
3 231 43 232
3 231 232 233
3 44 43 42
3 44 13 43
3 44 45 13
3 46 45 44
3 46 15 45
3 47 48 16
3 49 48 47
3 49 17 48
3 49 50 17
3 51 50 49
3 51 18 50
3 234 52 235
3 53 236 238
3 236 52 237
3 236 237 238
3 53 20 52
3 54 55 21
3 56 55 54
3 56 23 55
3 56 57 23
3 239 57 240
3 241 240 56
3 239 240 241
3 243 242 57
3 244 58 245
3 246 245 25
3 244 245 246
3 247 58 248
3 249 26 250
3 251 250 58
3 249 250 251
3 59 60 11
3 61 60 59
3 61 27 60
3 61 62 27
3 63 62 61
3 63 28 62
3 252 25 253
3 254 30 255
3 257 256 14
3 64 258 259
3 261 260 64
3 65 262 263
3 66 264 266
3 266 265 65
3 264 265 266
3 66 267 268
3 66 269 271
3 269 67 270
3 269 270 271
3 68 67 66
3 68 31 67
3 272 32 273
3 69 70 19
3 71 70 69
3 71 33 70
3 71 72 33
3 73 72 71
3 73 34 72
3 74 75 29
3 76 75 74
3 76 35 75
3 77 78 22
3 79 78 77
3 79 36 78
3 79 80 36
3 81 80 79
3 81 37 80
3 81 82 37
3 83 82 81
3 83 38 82
3 84 85 24
3 86 85 84
3 86 39 85
3 86 87 39
3 88 87 86
3 88 40 87
3 89 274 275
3 89 276 278
3 276 11 277
3 276 277 278
3 41 279 281
3 279 89 280
3 279 280 281
3 90 89 41
3 90 11 89
3 90 59 11
3 91 59 90
3 91 4 59
3 43 282 283
3 285 284 43
3 92 286 287
3 92 288 289
3 92 290 292
3 290 93 291
3 290 291 292
3 94 93 92
3 94 14 93
3 45 94 13
3 95 94 45
3 95 14 94
3 95 293 295
3 295 294 14
3 293 294 295
3 96 296 298
3 298 297 95
3 296 297 298
3 96 299 300
3 97 301 303
3 303 302 3
3 301 302 303
3 305 304 97
3 48 306 308
3 308 307 16
3 306 307 308
3 310 309 48
3 50 311 313
3 313 312 17
3 311 312 313
3 98 314 316
3 316 315 50
3 314 315 316
3 98 317 318
3 98 319 321
3 319 65 320
3 319 320 321
3 99 65 98
3 99 7 65
3 322 100 323
3 101 324 326
3 324 100 325
3 324 325 326
3 101 19 100
3 52 327 329
3 327 101 328
3 327 328 329
3 102 101 52
3 102 19 101
3 102 69 19
3 103 69 102
3 103 8 69
3 104 105 5
3 106 105 104
3 106 22 105
3 55 106 21
3 107 106 55
3 107 22 106
3 107 77 22
3 108 77 107
3 108 9 77
3 108 109 9
3 110 109 108
3 110 24 109
3 57 110 23
3 111 110 57
3 111 24 110
3 111 84 24
3 330 84 331
3 332 331 111
3 330 331 332
3 333 10 334
3 335 334 84
3 333 334 335
3 337 336 6
3 112 338 339
3 113 340 342
3 342 341 112
3 340 341 342
3 113 343 344
3 58 113 25
3 114 113 58
3 114 345 347
3 347 346 113
3 345 346 347
3 114 348 350
3 348 64 349
3 348 349 350
3 115 64 114
3 115 3 64
3 116 351 352
3 116 353 355
3 353 26 354
3 353 354 355
3 60 116 11
3 117 116 60
3 117 26 116
3 117 115 26
3 118 115 117
3 118 3 115
3 118 97 3
3 119 97 118
3 119 16 97
3 62 119 27
3 120 119 62
3 120 16 119
3 120 47 16
3 121 47 120
3 121 1 47
3 112 356 357
3 112 358 359
3 360 122 361
3 362 122 363
3 364 29 365
3 366 365 122
3 364 365 366
3 367 29 368
3 369 74 370
3 371 370 29
3 369 370 371
3 123 372 374
3 372 74 373
3 372 373 374
3 123 5 74
3 375 123 376
3 124 377 379
3 377 123 378
3 377 378 379
3 124 5 123
3 124 104 5
3 380 104 381
3 382 381 124
3 380 381 382
3 383 21 384
3 385 384 104
3 383 384 385
3 125 386 387
3 125 388 390
3 388 21 389
3 388 389 390
3 125 54 21
3 126 54 125
3 126 2 54
3 127 391 392
3 127 393 395
3 393 6 394
3 393 394 395
3 93 396 397
3 128 398 400
3 400 399 93
3 398 399 400
3 128 401 403
3 401 30 402
3 401 402 403
3 404 128 405
3 406 405 14
3 404 405 406
3 129 407 409
3 407 128 408
3 407 408 409
3 129 30 128
3 129 127 30
3 410 127 411
3 412 411 129
3 410 411 412
3 413 6 414
3 415 414 127
3 413 414 415
3 417 416 6
3 419 418 3
3 67 420 421
3 130 422 424
3 424 423 67
3 422 423 424
3 130 425 426
3 130 427 429
3 427 42 428
3 427 428 429
3 131 42 130
3 131 0 42
3 430 12 431
3 132 432 433
3 132 434 436
3 434 12 435
3 434 435 436
3 132 91 12
3 133 91 132
3 133 4 91
3 100 437 438
3 134 439 441
3 441 440 100
3 439 440 441
3 134 442 444
3 442 32 443
3 442 443 444
3 70 134 19
3 135 134 70
3 135 32 134
3 135 133 32
3 136 133 135
3 136 4 133
3 136 63 4
3 137 63 136
3 137 28 63
3 72 137 33
3 138 137 72
3 138 28 137
3 138 121 28
3 139 121 138
3 139 1 121
3 122 445 447
3 445 53 446
3 445 446 447
3 140 53 122
3 140 20 53
3 75 140 29
3 141 140 75
3 141 20 140
3 141 103 20
3 142 103 141
3 142 8 103
3 105 76 5
3 143 76 105
3 143 35 76
3 78 143 22
3 144 143 78
3 144 35 143
3 144 142 35
3 145 142 144
3 145 8 142
3 145 73 8
3 146 73 145
3 146 34 73
3 80 146 36
3 147 146 80
3 147 34 146
3 147 139 34
3 148 139 147
3 148 1 139
3 148 51 1
3 149 51 148
3 149 18 51
3 82 149 37
3 150 149 82
3 150 18 149
3 150 99 18
3 151 99 150
3 151 7 99
3 109 83 9
3 152 83 109
3 152 38 83
3 85 152 24
3 153 152 85
3 153 38 152
3 153 151 38
3 154 151 153
3 154 7 151
3 154 68 7
3 155 68 154
3 155 31 68
3 87 155 39
3 156 155 87
3 156 31 155
3 156 131 31
3 157 131 156
3 157 0 131
3 448 126 449
3 450 126 451
3 452 2 453
3 454 453 126
3 452 453 454
3 455 2 456
3 458 457 2
3 459 10 460
3 461 10 462
3 463 88 464
3 465 464 10
3 463 464 465
3 466 88 467
3 468 40 469
3 470 469 88
3 468 469 470
3 471 40 472
3 473 157 474
3 475 474 40
3 473 474 475
3 476 157 477
3 478 0 479
3 480 479 157
3 478 479 480
3 481 46 482
3 483 482 0
3 481 482 483
3 484 46 485
3 486 15 487
3 488 487 46
3 486 487 488
3 489 15 490
3 491 96 492
3 493 492 15
3 491 492 493
3 494 96 495
3 497 496 96
3 499 498 6
