ply
format ascii 1.0
element vertex 301
property float x
property float y
property float z
element face 259
property list uchar int vertex_index
end_header
27.849581 -41.851936 -12.872649
30.450136 -45.620106 3.771632
33.552994 -34.407307 12.772553
24.56238 -39.256119 -20.639332
30.491474 -47.552307 12.481263
29.683142 -43.779404 -4.638562
35.064598 -27.582048 12.72595
26.425766 -40.592293 -16.819839
32.34119 -39.297249 3.805891
30.064226 -44.973446 -0.532168
34.03297 -33.631683 8.427565
32.309242 -40.169319 8.41226
31.914778 -41.406208 12.596824
30.581156 -46.507332 8.186147
29.035364 -52.621403 8.068676
28.899755 -42.872055 -8.89602
27.163055 -41.378143 -14.843853
31.32476 -42.702011 3.757414
31.226494 -42.228409 1.576911
30.261072 -45.361206 1.60872
29.149281 -47.832176 -0.594887
29.373827 -48.233788 1.57425
34.280399 -31.208855 12.734976
34.679066 -30.474985 10.570134
33.800491 -34.192635 10.489032
33.128117 -37.121815 8.262529
32.987156 -37.430534 10.656374
31.010258 -45.047199 14.696083
31.161106 -44.619183 12.464441
31.305691 -44.040005 10.368873
30.49976 -47.250607 10.294646
30.910721 -41.131069 -2.717758
29.285952 -43.479084 -6.765782
33.878143 -31.536198 14.973412
25.590096 -39.868164 -18.698154
30.39233 -48.083988 14.668732
31.095629 -41.676731 -0.613701
29.956615 -44.245342 -2.515646
28.705404 -46.837624 -4.592784
28.981041 -47.177509 -2.681294
27.063635 -45.088772 -12.591047
26.57453 -44.282005 -14.490727
33.252544 -36.559887 6.121084
32.293114 -39.961349 6.009466
31.451294 -42.913303 6.083328
25.869738 -43.650383 -16.520096
24.245596 -42.421883 -20.226137
33.107018 -35.242306 14.893708
32.398544 -38.532246 14.856899
32.729095 -37.932598 12.786251
32.151215 -40.734661 10.512744
31.402889 -43.477345 8.262374
30.527617 -46.077114 5.87074
29.798143 -50.177437 10.245072
29.743553 -49.646545 7.915717
29.709173 -49.005531 5.876938
28.426571 -42.382648 -10.863597
27.581997 -45.493073 -10.652847
27.506318 -41.61504 -13.858251
27.878197 -39.953485 -14.029474
28.22146 -40.190382 -13.043872
24.689744 -37.660023 -20.897368
25.26466 -38.000616 -19.898953
24.035558 -38.842888 -21.547752
24.689744 -37.660023 -20.897368
30.146468 -42.209423 -4.786471
30.760258 -40.885255 -3.826068
30.296931 -42.455236 -3.67816
29.484547 -43.629244 -5.702172
29.947874 -42.059263 -5.85008
30.146468 -42.209423 -4.786471
29.041095 -45.074928 -5.632723
28.8425 -44.924768 -6.696333
29.484547 -43.629244 -5.702172
33.998894 -29.935727 15.94968
34.259153 -29.714269 14.911885
26.689754 -39.029587 -16.993452
27.11493 -39.320488 -16.027669
26.007931 -40.230228 -17.758997
26.271918 -38.667523 -17.932609
26.689754 -39.029587 -16.993452
30.318585 -48.426401 15.737527
30.601959 -46.792259 15.836209
32.28752 -39.114664 2.690345
32.790512 -37.739384 3.770499
28.597503 -48.983617 -1.621541
28.705355 -49.265867 -0.600839
26.484729 -46.226431 -13.370503
26.720883 -46.531948 -12.397679
35.259426 -27.324921 11.599087
35.456804 -25.625613 12.725673
34.464834 -31.904567 8.325122
34.787882 -30.326217 9.396406
34.356018 -32.053334 9.498849
34.090179 -33.436615 7.242801
34.464834 -31.904567 8.325122
33.642757 -35.095785 7.274324
33.699966 -34.900717 6.08956
34.090179 -33.436615 7.242801
25.621495 -45.241833 -16.235912
26.222134 -43.966194 -15.505411
25.97389 -45.557643 -15.221227
24.141426 -43.946003 -19.920383
24.677156 -42.71634 -19.313265
32.897011 -35.461312 15.972728
33.242941 -33.704642 15.941899
32.156661 -39.969227 13.726862
32.038711 -40.227856 14.759363
31.796827 -41.664837 13.629326
29.091025 -52.871837 9.14018
28.689993 -54.119433 7.946294
29.416753 -51.39942 9.156874
29.472414 -51.649855 10.228378
29.091025 -52.871837 9.14018
29.228032 -50.275594 4.828846
29.312653 -50.511927 5.881794
29.631346 -48.807239 4.763485
29.228032 -50.275594 4.828846
29.356455 -41.217327 -9.01058
29.541272 -41.604405 -7.976825
28.663163 -42.627352 -9.879808
29.119864 -40.972623 -9.994369
29.356455 -41.217327 -9.01058
28.091942 -48.073656 -5.563949
28.236757 -48.297392 -4.583347
27.483574 -39.713413 -15.039675
27.878197 -39.953485 -14.029474
26.79441 -40.985218 -15.831846
27.11493 -39.320488 -16.027669
27.483574 -39.713413 -15.039675
28.817628 -49.466673 0.483729
28.705355 -49.265867 -0.600839
29.261554 -48.032982 0.489681
31.344568 -43.485332 14.678955
31.201303 -43.7453 15.784637
31.419992 -43.271324 13.563134
31.344568 -43.485332 14.678955
31.085682 -44.833191 13.580262
31.537942 -43.012695 12.530632
31.796827 -41.664837 13.629326
31.419992 -43.271324 13.563134
28.626838 -53.746523 6.950263
28.689993 -54.119433 7.946294
28.975749 -52.319862 6.977663
28.626838 -53.746523 6.950263
31.3938 -39.518074 -2.793764
31.529459 -39.722037 -1.615318
31.3938 -39.518074 -2.793764
30.760258 -40.885255 -3.826068
29.734371 -41.907919 -6.911706
29.947874 -42.059263 -5.85008
29.092854 -43.17557 -7.830901
29.541272 -41.604405 -7.976825
29.734371 -41.907919 -6.911706
28.658995 -44.682682 -7.7253
28.465896 -44.379168 -8.790419
29.092854 -43.17557 -7.830901
28.658995 -44.682682 -7.7253
28.8425 -44.924768 -6.696333
35.202335 -25.896326 13.797487
35.456804 -25.625613 12.725673
34.85238 -27.737194 13.788154
35.202335 -25.896326 13.797487
34.460281 -29.550598 13.792667
34.672499 -29.395452 12.730463
34.85238 -27.737194 13.788154
34.079271 -31.372526 13.854194
34.460281 -29.550598 13.792667
34.259153 -29.714269 14.911885
25.778518 -38.306639 -18.928365
26.271918 -38.667523 -17.932609
25.076238 -39.562141 -19.668743
25.26466 -38.000616 -19.898953
25.778518 -38.306639 -18.928365
30.910923 -45.273865 15.849884
31.201303 -43.7453 15.784637
30.701294 -46.565593 14.682408
30.910923 -45.273865 15.849884
30.601959 -46.792259 15.836209
31.730171 -40.580244 1.575854
32.28752 -39.114664 2.690345
31.783842 -40.762829 2.691401
31.664739 -40.304405 0.480548
31.730171 -40.580244 1.575854
31.161061 -41.95257 0.481605
31.621913 -39.994867 -0.563289
31.664739 -40.304405 0.480548
31.003175 -41.4039 -1.665729
31.529459 -39.722037 -1.615318
31.621913 -39.994867 -0.563289
28.374575 -48.467334 -3.627602
28.236757 -48.297392 -4.583347
28.843223 -47.007566 -3.637039
28.513383 -48.656284 -2.664745
29.065161 -47.504842 -1.63809
28.597503 -48.983617 -1.621541
28.374575 -48.467334 -3.627602
28.513383 -48.656284 -2.664745
26.240177 -45.823048 -14.320343
26.819083 -44.685389 -13.540887
26.484729 -46.226431 -13.370503
25.97389 -45.557643 -15.221227
26.240177 -45.823048 -14.320343
35.06666 -28.771389 10.521179
35.259426 -27.324921 11.599087
34.871832 -29.028517 11.648042
35.06666 -28.771389 10.521179
34.787882 -30.326217 9.396406
33.246189 -36.370703 4.928096
33.699966 -34.900717 6.08956
32.796867 -37.928568 4.963487
32.790512 -37.739384 3.770499
33.246189 -36.370703 4.928096
25.323765 -44.905603 -17.132917
25.621495 -45.241833 -16.235912
25.489227 -43.33059 -17.460245
25.323765 -44.905603 -17.132917
25.767241 -41.801544 -17.610116
26.147752 -42.121338 -16.669967
25.489227 -43.33059 -17.460245
25.349407 -41.43948 -18.549273
26.007931 -40.230228 -17.758997
25.767241 -41.801544 -17.610116
24.917846 -41.145024 -19.462145
25.349407 -41.43948 -18.549273
24.677156 -42.71634 -19.313265
23.699509 -43.601469 -20.866751
24.141426 -43.946003 -19.920383
23.761941 -41.987694 -21.152479
23.699509 -43.601469 -20.866751
23.920333 -40.404812 -21.359077
24.403988 -40.839001 -20.432735
23.761941 -41.987694 -21.152479
23.393511 -39.991581 -22.267496
24.035558 -38.842888 -21.547752
23.920333 -40.404812 -21.359077
33.628504 -31.851588 15.981751
33.998894 -29.935727 15.94968
33.492581 -33.389252 14.93356
33.628504 -31.851588 15.981751
33.242941 -33.704642 15.941899
32.215271 -38.835352 15.876718
32.038711 -40.227856 14.759363
32.542774 -37.106282 15.954324
32.215271 -38.835352 15.876718
32.752781 -36.887276 14.875304
32.897011 -35.461312 15.972728
32.542774 -37.106282 15.954324
30.096688 -49.657406 14.709286
30.318585 -48.426401 15.737527
30.103922 -49.39307 13.59034
30.096688 -49.657406 14.709286
30.153494 -49.127229 12.496606
30.441902 -47.818147 13.574998
30.103922 -49.39307 13.59034
29.806829 -50.439794 11.37851
29.472414 -51.649855 10.228378
30.144808 -48.864872 11.363167
30.153494 -49.127229 12.496606
29.806829 -50.439794 11.37851
29.329843 -50.832434 6.901183
29.389458 -51.133974 7.992197
28.975749 -52.319862 6.977663
29.726363 -49.326038 6.896327
29.329843 -50.832434 6.901183
29.312653 -50.511927 5.881794
30.040568 -47.343031 4.760387
30.118395 -47.541322 5.873839
29.631346 -48.807239 4.763485
30.001828 -47.114527 3.710832
30.488876 -45.84861 4.821186
30.040568 -47.343031 4.760387
29.463673 -48.421368 2.612141
29.911981 -46.926947 2.672941
30.001828 -47.114527 3.710832
28.930293 -49.718708 1.551744
29.463673 -48.421368 2.612141
28.817628 -49.466673 0.483729
28.930293 -49.718708 1.551744
28.487877 -40.642955 -12.060381
28.22146 -40.190382 -13.043872
28.776372 -40.908311 -11.055855
29.119864 -40.972623 -9.994369
28.138076 -42.117292 -11.868123
28.487877 -40.642955 -12.060381
28.776372 -40.908311 -11.055855
26.980063 -46.734099 -11.428579
26.720883 -46.531948 -12.397679
27.322816 -45.290923 -11.621947
27.807018 -45.689677 -9.668833
28.240876 -44.182564 -9.774434
28.465896 -44.379168 -8.790419
27.18251 -46.962061 -10.515238
27.807018 -45.689677 -9.668833
26.980063 -46.734099 -11.428579
27.18251 -46.962061 -10.515238
28.552226 -46.604039 -5.609834
29.041095 -45.074928 -5.632723
29.194273 -45.308514 -4.615673
28.552226 -46.604039 -5.609834
28.091942 -48.073656 -5.563949
3 0 58 60
3 58 16 59
3 58 59 60
3 1 19 17
3 1 21 19
3 2 24 22
3 2 26 24
3 3 61 62
3 3 63 64
3 4 28 27
3 4 30 28
3 5 65 67
3 67 66 31
3 65 66 67
3 5 68 70
3 68 32 69
3 68 69 70
3 5 71 73
3 73 72 32
3 71 72 73
3 74 33 75
3 7 76 77
3 7 78 80
3 78 34 79
3 78 79 80
3 81 35 82
3 8 83 84
3 9 36 18
3 9 37 36
3 9 39 37
3 86 85 20
3 88 87 40
3 6 89 90
3 10 91 93
3 93 92 23
3 91 92 93
3 10 94 95
3 10 96 98
3 96 42 97
3 96 97 98
3 11 43 25
3 11 44 43
3 99 45 100
3 101 100 41
3 99 100 101
3 102 46 103
3 104 47 105
3 12 106 108
3 106 48 107
3 106 107 108
3 12 49 48
3 12 50 49
3 13 51 29
3 13 52 51
3 14 109 110
3 14 111 113
3 111 53 112
3 111 112 113
3 14 54 53
3 114 55 115
3 117 116 55
3 15 118 119
3 15 120 122
3 120 56 121
3 120 121 122
3 15 57 56
3 124 123 38
3 16 125 126
3 16 127 129
3 127 7 128
3 127 128 129
3 17 18 8
3 19 18 17
3 19 9 18
3 19 20 9
3 21 20 19
3 21 130 132
3 132 131 20
3 130 131 132
3 22 23 6
3 24 23 22
3 24 10 23
3 24 25 10
3 26 25 24
3 26 11 25
3 27 133 134
3 28 135 137
3 137 136 27
3 135 136 137
3 28 138 140
3 138 12 139
3 138 139 140
3 28 29 12
3 30 29 28
3 30 13 29
3 141 14 142
3 144 143 14
3 31 145 146
3 148 147 31
3 32 149 150
3 32 151 153
3 151 15 152
3 151 152 153
3 32 154 156
3 156 155 15
3 154 155 156
3 158 157 32
3 159 6 160
3 161 6 162
3 163 22 164
3 165 164 6
3 163 164 165
3 33 166 168
3 166 22 167
3 166 167 168
3 33 2 22
3 34 169 170
3 34 171 173
3 171 3 172
3 171 172 173
3 174 27 175
3 35 176 178
3 176 27 177
3 176 177 178
3 35 4 27
3 18 179 181
3 181 180 8
3 179 180 181
3 36 182 184
3 184 183 18
3 182 183 184
3 36 185 186
3 36 187 189
3 187 31 188
3 187 188 189
3 37 31 36
3 37 5 31
3 37 38 5
3 39 38 37
3 39 190 192
3 192 191 38
3 190 191 192
3 20 39 9
3 193 39 194
3 195 194 20
3 193 194 195
3 197 196 39
3 40 41 0
3 198 41 199
3 200 199 40
3 198 199 200
3 202 201 41
3 23 203 205
3 205 204 6
3 203 204 205
3 207 206 23
3 42 208 209
3 42 210 212
3 210 8 211
3 210 211 212
3 25 42 10
3 43 42 25
3 43 8 42
3 43 17 8
3 44 17 43
3 44 1 17
3 41 16 0
3 45 16 41
3 45 7 16
3 213 45 214
3 215 45 216
3 217 7 218
3 219 218 45
3 217 218 219
3 220 34 221
3 222 221 7
3 220 221 222
3 46 223 225
3 223 34 224
3 223 224 225
3 46 3 34
3 226 46 227
3 228 46 229
3 230 3 231
3 232 231 46
3 230 231 232
3 235 234 3
3 233 234 235
3 236 33 237
3 47 238 240
3 238 33 239
3 238 239 240
3 47 2 33
3 48 241 242
3 48 243 244
3 48 245 247
3 245 47 246
3 245 246 247
3 49 47 48
3 49 2 47
3 49 26 2
3 50 26 49
3 50 11 26
3 29 50 12
3 51 50 29
3 51 11 50
3 51 44 11
3 52 44 51
3 52 1 44
3 248 35 249
3 250 35 251
3 252 4 253
3 254 253 35
3 252 253 254
3 53 255 256
3 53 257 259
3 257 4 258
3 257 258 259
3 53 30 4
3 54 30 53
3 54 13 30
3 260 54 261
3 262 261 14
3 260 261 262
3 55 263 265
3 263 54 264
3 263 264 265
3 55 13 54
3 55 52 13
3 266 52 267
3 268 267 55
3 266 267 268
3 269 1 270
3 271 270 52
3 269 270 271
3 272 21 273
3 274 273 1
3 272 273 274
3 275 21 276
3 278 277 21
3 279 0 280
3 56 281 282
3 56 283 285
3 283 0 284
3 283 284 285
3 56 40 0
3 57 40 56
3 57 286 288
3 288 287 40
3 286 287 288
3 289 57 290
3 291 290 15
3 289 290 291
3 292 57 293
3 295 294 57
3 38 296 298
3 298 297 5
3 296 297 298
3 300 299 38
