ply
format ascii 1.0
element vertex 969
property float x
property float y
property float z
element face 1086
property list uchar int vertex_index
end_header
15.770384 19.823299 -21.647617
13.501556 38.421734 -31.474936
14.57519 40.555191 -17.374008
16.637897 14.193645 -11.092503
25.195616 -3.933396 -8.002165
2.087947 37.675297 -57.051666
14.797931 28.089905 -25.86307
17.589762 29.067917 -34.95266
19.173136 20.260698 -28.658756
14.636176 53.064007 -22.716206
20.06815 4.045437 -9.326323
4.524652 45.870422 -51.033966
11.195627 47.344051 -37.70937
10.278909 43.411259 -47.006283
14.753637 37.472233 -41.211712
13.67175 27.895699 -18.814072
15.576838 17.085634 -16.251871
14.912522 27.145908 -13.550119
12.320109 50.849705 -29.577995
13.085152 39.913818 -23.335815
19.537027 13.339046 -22.03451
19.400257 8.12622 -14.9815
27.312773 -7.615458 -2.496353
15.273171 23.466028 -23.47094
16.698603 23.728895 -27.252743
17.205872 19.597523 -24.599867
2.547865 50.815121 -49.416855
12.51213 43.311134 -34.526249
12.694709 41.893986 -39.316936
14.112998 37.87606 -36.165794
20.485817 25.994606 -37.014313
19.068977 30.151377 -40.286522
13.709452 33.954002 -17.791292
14.030133 27.68243 -15.970418
11.44636 55.403679 -32.980465
13.519922 46.53767 -22.840754
13.568707 40.304974 -20.181709
13.306085 34.046883 -20.892105
15.901013 15.705831 -13.546598
17.28134 12.324363 -15.566113
17.489849 10.650105 -12.690426
22.503397 -0.258792 -8.620264
22.024481 2.037099 -11.47241
-0.016295 41.389221 -54.516262
-3.035122 40.242661 -54.412636
12.59774 39.734653 -49.370541
9.624811 41.331745 -51.713696
22.09338 10.308691 -22.046072
14.157102 33.422016 -28.408224
15.168272 33.333366 -33.039062
16.03688 28.409618 -30.050537
18.485043 24.561495 -31.728247
14.371665 58.862766 -26.065094
17.789938 12.889524 -9.063014
18.187336 8.668803 -10.156691
19.156353 7.299252 -8.041495
21.065975 2.133911 -7.043036
23.337385 -2.154346 -6.094872
3.286331 42.012886 -54.213032
8.445346 47.990509 -45.073193
10.754557 45.409679 -42.31078
12.710616 40.868866 -44.33905
15.036742 37.395069 -46.593624
16.356121 33.426601 -38.076279
17.287556 34.05043 -43.662697
14.479213 23.106113 -20.167067
15.559017 18.467215 -19.05599
14.366546 22.344215 -17.263119
14.723828 21.456038 -14.626406
15.551583 20.460873 -12.190374
10.353768 53.217663 -36.809429
11.673503 49.071606 -33.52227
12.545908 44.287266 -30.171745
13.305892 52.13522 -25.936878
12.793027 45.591999 -26.41678
13.097261 39.026192 -27.194925
13.483118 33.680874 -24.39291
13.898439 28.210323 -22.114229
17.325132 16.647635 -21.845013
17.253422 14.378525 -18.777065
19.42083 10.597263 -18.446175
22.067844 7.229806 -18.330969
19.646107 5.857807 -11.942741
22.02552 4.36117 -14.669696
24.645819 -3.610777 -3.826251
26.013191 -6.003912 -5.181726
7.50898 45.082863 -49.285118
6.429564 42.011696 -53.356174
5.351575 38.772797 -56.926365
19.41856 16.504137 -25.31613
15.545788 21.310804 -22.408566
16.192823 21.389696 -24.076124
16.351789 19.627478 -22.872217
13.051982 40.908585 -33.058899
13.222508 40.48901 -35.315857
13.745407 38.281487 -33.750843
14.024439 37.177952 -17.568159
14.081804 33.776695 -16.498722
14.557769 37.016663 -16.251987
14.55934 43.637192 -18.582399
14.000788 43.633606 -19.9786
14.000315 40.540554 -18.764048
13.614765 37.237362 -19.005957
16.212353 14.988063 -12.259239
16.666588 13.034801 -13.10327
16.922676 12.321252 -11.799616
1.047975 39.422447 -55.68964
-0.454954 38.853092 -55.573311
12.310881 39.196274 -51.989182
14.47219 30.733225 -27.043129
15.005258 30.74239 -29.151543
15.386925 28.252796 -27.951511
17.874529 21.921776 -28.00028
17.591269 24.055183 -29.463293
18.955683 22.252005 -30.242022
19.951641 22.910383 -32.544498
20.363384 20.796787 -30.988771
18.522884 12.340609 -8.23081
18.379601 10.022124 -8.607068
19.08622 9.341042 -7.725604
21.536572 3.220647 -5.657043
20.681847 3.941954 -6.614969
21.684855 1.50374 -5.983401
22.117867 -0.007904 -6.548535
22.724457 -0.781831 -5.505849
3.552162 48.393097 -50.027988
1.98478 48.49073 -50.779663
2.878182 46.250477 -51.574654
2.185599 44.054649 -53.053989
3.775328 43.984558 -52.704578
10.410015 48.865124 -39.333252
10.025327 47.871605 -41.544857
11.017369 46.19891 -40.058113
13.597275 39.701786 -40.23275
12.679545 41.495243 -41.716728
13.775928 39.296471 -42.827259
13.857929 38.983917 -45.433525
14.963898 37.403446 -43.979111
16.286312 31.093664 -33.973938
15.719032 33.477089 -35.578976
17.041096 31.268528 -36.581345
18.255657 32.183098 -42.130978
18.746679 32.601986 -44.820572
17.642385 34.316444 -46.448692
13.992917 25.258516 -19.420515
14.379296 22.641563 -18.683058
13.983003 24.938477 -17.911606
14.413662 27.303732 -14.695873
14.315395 24.488134 -15.277479
14.697246 23.988718 -13.989057
15.078503 21.012962 -13.346863
15.17311 23.809757 -12.845312
16.414507 22.440378 -10.907844
11.940031 53.053131 -31.266325
11.513338 52.152477 -33.057381
11.971468 49.855591 -31.454344
12.158311 46.828617 -31.764126
12.342095 47.666908 -29.722593
14.530756 56.009827 -24.395248
13.796035 55.35516 -25.859201
13.933605 52.487541 -24.181986
13.191743 43.185295 -23.10483
13.08612 46.094166 -24.625647
12.952221 42.782806 -24.904093
12.842831 42.257931 -26.730568
13.033535 39.306168 -25.194252
13.298717 36.382107 -25.751148
13.174754 36.724144 -23.8939
13.448314 31.084757 -19.836517
13.499709 30.885698 -21.448067
13.702745 28.073009 -20.35244
14.158882 25.588919 -21.094669
15.486334 17.929113 -17.674999
16.304306 16.377657 -18.777014
16.35218 15.413348 -17.360813
18.302597 10.11979 -15.240389
18.244198 11.296176 -16.905071
19.393126 9.331918 -16.686668
20.717873 8.831404 -18.373735
20.591246 7.576759 -16.548811
19.078606 6.283673 -9.784349
18.775032 7.154504 -10.990305
19.871992 4.823431 -10.622087
23.405874 1.365841 -12.841656
22.040707 3.119056 -13.042845
26.78105 -6.240563 -1.963985
25.948631 -5.71925 -3.201591
25.222698 -4.96742 -4.345128
26.619293 -6.903749 -3.809939
-4.95987 36.889118 -54.630653
9.34791 45.623825 -45.851059
7.931114 46.618904 -47.215084
8.950401 44.399063 -48.139172
9.210777 40.273403 -53.904751
8.03511 41.830597 -52.555729
7.583994 40.459362 -54.631912
5.906688 40.485771 -55.13279
18.354805 14.938001 -21.885479
18.336597 16.342569 -23.419025
19.545048 14.855602 -23.757275
15.017047 25.7784 -24.618792
15.695475 25.833874 -26.645046
15.957536 23.537985 -25.345364
16.946207 21.581692 -25.874153
18.066757 19.874098 -26.443823
3.355834 53.122074 -47.871307
11.909719 45.354458 -36.201923
11.863657 44.54018 -38.366383
12.605894 42.55164 -36.827606
13.473065 39.925804 -37.71941
14.408243 37.745361 -38.713966
18.961226 27.323032 -35.820499
18.435442 29.503881 -37.663242
19.873419 28.010212 -38.629059
13.572618 30.777111 -18.271828
13.793329 27.625618 -17.288006
13.821352 30.66926 -16.865604
14.744718 30.535023 -14.345993
12.083695 56.507374 -31.136007
12.479255 54.114399 -29.418653
13.996055 49.674023 -22.688522
14.037299 46.763893 -21.237043
13.546597 43.51091 -21.481443
13.284135 40.110252 -21.601994
13.189446 36.950405 -22.125866
13.334272 37.024239 -20.501499
13.44189 33.943466 -19.247715
15.722299 16.303753 -14.832928
16.36735 14.660743 -15.927656
16.503851 13.753873 -14.467749
17.436422 11.269319 -14.102243
18.351774 9.137512 -13.672262
21.277113 1.729652 -8.921646
20.940063 2.815601 -10.190002
22.184511 0.894605 -9.985554
28.072483 -8.140725 -1.245636
-2.667331 43.149399 -53.608139
-1.512718 40.844452 -54.519749
-1.896648 38.047337 -55.421791
11.314211 41.552402 -48.12801
9.949978 42.393517 -49.420147
11.093491 40.729912 -50.544327
10.784547 39.91531 -52.884331
20.737499 11.751369 -21.96261
20.848688 13.333374 -23.914371
13.881401 35.831997 -29.9254
14.265712 35.725758 -32.272511
14.674098 33.170597 -30.636385
15.651365 30.838766 -31.55899
16.838945 28.616817 -32.469662
16.438026 25.968742 -28.694178
17.184593 26.491869 -31.005571
18.141506 26.72366 -33.374405
19.605026 25.02919 -34.290104
21.080328 23.621603 -35.096451
15.247519 40.469807 -16.144688
15.245916 59.124676 -24.425308
17.162601 13.496894 -10.019548
17.313669 11.481401 -10.643981
17.792105 10.737965 -9.575804
18.596823 7.997897 -9.050905
19.477989 5.480424 -8.615496
19.875908 6.448666 -7.124324
20.026939 4.630994 -7.587741
20.53878 2.992309 -8.176007
21.661848 0.787009 -7.747064
22.820599 -1.182826 -7.330189
24.137857 -3.164264 -6.907279
1.639277 41.785622 -54.41877
2.628823 39.942478 -55.657734
7.8072 50.463821 -44.219887
8.971174 49.22678 -42.94849
9.695312 46.759819 -43.682739
10.58864 44.338852 -44.620419
11.755322 43.836269 -40.760864
11.690456 43.031929 -43.130093
11.587182 42.231335 -45.594341
12.686348 40.303417 -46.844608
13.911024 38.623821 -48.029079
15.231706 37.125206 -49.344135
14.708333 35.613155 -34.691128
15.190147 35.565742 -37.361382
15.617129 35.519581 -39.741993
17.672783 31.764908 -39.391171
16.911438 33.675224 -40.91074
15.9643 35.639397 -42.453217
16.313305 35.678055 -45.214493
16.396404 35.895073 -47.85957
15.13402 21.136513 -20.925602
15.646318 19.228035 -20.527197
14.96555 20.644585 -19.509972
14.857209 20.282162 -18.096081
14.903612 19.679321 -16.747414
14.102258 24.637968 -16.50844
14.517402 21.757034 -15.890824
15.051956 19.001766 -15.30711
15.240808 18.645809 -13.964992
15.570667 17.994093 -12.800394
16.035353 17.117704 -11.649257
15.355659 30.224279 -13.297274
16.025896 29.61937 -12.351117
15.517015 26.530586 -12.485919
15.767008 23.129362 -11.799821
10.723694 50.148697 -37.169743
10.911545 54.373573 -34.748657
11.093639 51.336597 -35.036572
11.414926 48.254848 -35.605137
12.010753 46.119595 -33.988762
12.53229 43.677353 -32.297432
12.941226 41.205299 -30.805103
13.123526 54.824585 -27.536762
12.774565 51.494774 -27.685867
13.404604 49.231842 -24.400188
12.960763 48.701199 -26.068371
12.605118 48.210068 -27.880659
12.60769 45.030544 -28.322273
12.838402 41.797192 -28.66954
13.247703 38.849426 -29.310736
13.505356 36.31636 -27.752357
13.763568 33.635963 -26.409342
14.006728 30.851791 -25.037498
13.326328 33.840443 -22.609909
13.684813 30.832005 -23.157097
14.238689 28.304108 -23.896578
14.493759 25.688774 -22.734564
14.819618 23.130459 -21.726257
16.419107 18.308096 -21.679235
16.371529 17.289221 -20.292524
17.280674 15.448832 -20.287537
18.330015 13.661294 -20.298004
17.275352 13.285766 -17.206757
18.295666 12.446203 -18.645491
19.455776 11.952368 -20.239605
20.721228 10.285841 -20.187672
22.089954 8.756927 -20.207632
23.512123 7.274281 -20.174498
17.794098 9.657481 -11.390041
18.552258 8.106492 -12.344067
19.522022 6.955884 -13.478999
20.860252 3.809629 -11.738295
20.778837 4.945787 -13.287456
20.740295 6.164931 -14.92329
22.014275 5.853314 -16.552505
24.437016 -2.150417 -3.421965
23.503845 -1.553699 -4.483349
23.927114 -2.957685 -4.970535
24.68679 -4.218709 -5.590319
25.556522 -5.021492 -6.597411
27.9527 -8.562702 -3.430776
7.114876 49.111855 -46.24007
6.618838 47.388573 -48.193325
6.055964 45.597881 -50.203308
8.464456 43.146034 -50.429066
6.974022 43.558678 -51.382603
5.405552 43.828838 -52.142864
4.869245 42.025818 -53.914089
4.238549 40.151749 -55.607819
3.681157 38.36602 -57.033447
17.253048 18.051128 -23.205515
18.221628 17.973936 -24.891226
19.295418 18.317987 -26.954556
20.789867 15.005111 -25.654247
20.659441 16.802553 -27.355831
20.503557 18.676767 -29.04557
25.125204 -3.387689 -8.774883
24.529431 -3.058891 -8.173319
25.865786 -4.24178 -8.666766
25.125204 -3.387689 -8.774883
1.317903 37.307735 -56.955951
0.797917 38.18131 -56.274938
1.567961 38.548872 -56.370653
1.871242 36.515622 -57.685295
1.317903 37.307735 -56.955951
19.244808 10.449502 -7.587063
18.804552 10.840826 -7.978207
18.963141 11.949286 -7.839666
22.101605 1.096288 -5.500219
21.610713 2.362194 -5.820222
22.027464 1.954741 -5.33704
22.621406 -0.046498 -5.261443
22.204656 0.360955 -5.744625
22.101605 1.096288 -5.500219
19.572225 31.880093 -45.306936
19.210276 31.686086 -43.918512
18.963513 32.779583 -46.16602
19.572225 31.880093 -45.306936
23.384678 2.064073 -13.704313
24.148885 1.272101 -13.717672
-4.352227 35.708689 -55.110895
-4.211769 37.142729 -54.841858
-4.99702 35.326559 -54.857727
-4.352227 35.708689 -55.110895
8.152764 39.812123 -55.306486
8.397386 40.366383 -54.268332
8.966155 39.719143 -54.942905
7.310562 39.783343 -55.576813
8.152764 39.812123 -55.306486
3.810607 54.094948 -47.094053
2.986675 54.552257 -47.628843
14.155305 32.281844 -16.015373
14.3579 33.804845 -15.872981
14.689357 32.18401 -14.796616
14.486762 30.661008 -14.939008
12.436438 56.824347 -30.196649
12.207768 58.153477 -31.130371
12.634218 55.627859 -29.337972
12.281475 55.310886 -30.27733
12.436438 56.824347 -30.196649
14.3243 46.754133 -20.512394
14.356248 48.41955 -21.208125
28.585036 -8.500089 -0.600874
27.930768 -7.500181 -1.014884
-0.764506 41.116836 -54.518006
-1.310516 42.250386 -54.008108
-0.562304 42.52277 -54.006365
-1.367836 37.114916 -55.98968
-1.175801 38.450215 -55.497551
-0.646989 37.517793 -56.065439
-2.124678 36.669237 -55.765487
-1.367836 37.114916 -55.98968
11.405504 39.218237 -53.687055
11.547714 39.555792 -52.436757
12.168671 38.858719 -53.239481
10.592377 39.451923 -54.065365
11.405504 39.218237 -53.687055
22.140852 11.07684 -22.980403
21.462912 11.798179 -22.938672
21.415439 11.03003 -22.004341
21.317118 22.552551 -34.240021
20.515985 23.265993 -33.820475
20.752774 22.196942 -32.964044
21.889165 23.027572 -35.549132
21.317118 22.552551 -34.240021
15.742703 59.352188 -23.651829
15.658616 60.681855 -24.410682
15.319704 57.70456 -23.593122
15.742703 59.352188 -23.651829
20.26423 6.20223 -6.716833
19.906371 7.614882 -7.018743
1.75507 50.923677 -49.787033
2.126383 52.151535 -49.137747
1.133922 48.514742 -51.079407
1.591327 47.320465 -51.472109
9.213773 49.8724 -41.875725
8.654301 50.626182 -42.611635
17.129409 35.236437 -48.534325
17.019395 35.105758 -47.154131
17.752399 34.447122 -47.828886
17.2288 35.210911 -49.910677
16.495796 35.869547 -49.235922
17.129409 35.236437 -48.534325
15.226315 38.76621 -15.642556
15.634962 40.260203 -15.545987
15.680982 31.679032 -13.198871
15.317003 31.905585 -13.709526
16.129801 27.893594 -11.952331
16.471875 29.365817 -11.874592
15.875361 26.349202 -12.019732
15.771456 28.074978 -12.418518
16.129801 27.893594 -11.952331
16.000357 24.64859 -11.676683
15.642012 24.829974 -12.14287
15.875361 26.349202 -12.019732
16.268421 21.0385 -11.037261
16.610575 20.794064 -10.567781
10.133163 52.548243 -37.766718
9.914403 54.113263 -37.635483
10.538731 51.68318 -36.989586
10.318126 51.013759 -37.946875
10.133163 52.548243 -37.766718
11.178953 54.888626 -33.864561
10.860312 55.889404 -34.73238
11.12772 56.404457 -33.848284
13.942706 58.417393 -26.859371
14.219262 60.086146 -26.896237
24.541418 -2.880597 -3.624108
25.022389 -3.238617 -3.049034
25.126791 -3.968796 -3.251177
28.420882 -8.978673 -3.933309
28.669372 -9.398315 -3.184376
28.131697 -8.539223 -4.599258
27.663514 -8.123252 -4.096725
28.420882 -8.978673 -3.933309
-3.620359 41.462807 -54.006918
-3.436463 42.916176 -53.604669
-2.851227 41.69603 -54.010388
21.492952 14.338216 -25.794422
20.819277 14.169242 -24.784309
21.522362 13.502347 -24.924484
21.317059 17.104699 -28.487327
21.378597 16.141675 -27.552619
21.239117 18.041806 -29.332196
20.581499 17.73966 -28.2007
21.317059 17.104699 -28.487327
21.148321 19.036424 -30.256052
21.239117 18.041806 -29.332196
21.004047 26.266858 -38.279608
21.306868 25.236016 -37.362048
14.595883 35.42483 -15.749613
14.3579 33.804845 -15.872981
14.319786 35.396679 -16.375355
14.280064 43.635399 -19.280499
14.306044 45.18899 -19.883173
14.58532 45.190782 -19.185072
23.051293 -0.648475 -9.191783
23.183321 -1.221589 -8.482368
0.046452 37.896633 -56.216774
0.296511 39.137769 -55.631475
0.797917 38.18131 -56.274938
-0.646989 37.517793 -56.065439
0.046452 37.896633 -56.216774
13.092562 38.715257 -51.35708
12.454311 39.465463 -50.679862
13.235992 38.984447 -50.04776
12.966645 38.531523 -52.711619
13.092562 38.715257 -51.35708
12.168671 38.858719 -53.239481
12.966645 38.531523 -52.711619
22.891296 10.460607 -23.117598
22.817837 9.65068 -22.121696
20.958645 21.140144 -32.186181
20.752774 22.196942 -32.964044
20.157512 21.853585 -31.766634
21.109209 3.581301 -6.136006
20.6672 4.948874 -6.462156
21.094562 4.588221 -5.983193
2.038028 46.200339 -51.869605
1.591327 47.320465 -51.472109
2.431481 47.370604 -51.177159
2.53189 45.152563 -52.314322
1.691736 45.102424 -52.609272
2.038028 46.200339 -51.869605
10.217671 48.368364 -40.439054
9.74085 49.194813 -41.173908
9.933194 49.691572 -40.068106
18.964765 31.476643 -42.573715
18.662317 31.167237 -41.20875
19.371426 30.460782 -41.651488
18.501168 32.392542 -43.475775
18.964765 31.476643 -42.573715
19.210276 31.686086 -43.918512
18.411366 33.636812 -46.98008
18.194532 33.459215 -45.634632
18.963513 32.779583 -46.16602
17.752399 34.447122 -47.828886
18.411366 33.636812 -46.98008
16.73087 23.99731 -10.801738
16.324107 24.304098 -11.230695
16.832925 22.302867 -10.48525
16.73087 23.99731 -10.801738
16.610575 20.794064 -10.567781
16.832925 22.302867 -10.48525
10.248573 54.814686 -36.656405
9.914403 54.113263 -37.635483
22.702095 2.940681 -13.804907
22.723291 2.242449 -12.942251
23.384678 2.064073 -13.704313
22.694501 3.561738 -14.618333
22.033113 3.740113 -13.856271
22.702095 2.940681 -13.804907
22.696332 4.318776 -15.550142
22.694501 3.561738 -14.618333
26.194406 -5.283689 -2.320044
26.688873 -5.513227 -1.776899
25.778197 -5.023033 -2.938847
26.194406 -5.283689 -2.320044
26.36484 -5.979907 -2.582788
25.297225 -4.665013 -3.513921
25.126791 -3.968796 -3.251177
25.778197 -5.023033 -2.938847
-3.829231 39.95555 -54.305858
-3.249395 38.8195 -54.732849
-4.791605 38.278778 -54.414867
-4.211769 37.142729 -54.841858
-5.604338 38.093901 -54.261999
-4.791605 38.278778 -54.414867
-5.648552 36.524744 -54.445877
-5.604338 38.093901 -54.261999
-5.648552 36.524744 -54.445877
-4.99702 35.326559 -54.857727
6.471909 39.796547 -55.827252
6.745341 40.472566 -54.882351
7.310562 39.783343 -55.576813
6.194353 38.94006 -56.724039
5.629131 39.629284 -56.029578
6.471909 39.796547 -55.827252
21.606922 4.24067 -5.55868
21.094562 4.588221 -5.983193
22.031537 2.907863 -5.209319
21.606922 4.24067 -5.55868
22.027464 1.954741 -5.33704
22.031537 2.907863 -5.209319
2.530367 53.305011 -48.364973
2.986675 54.552257 -47.628843
2.951849 51.968598 -48.644081
2.126383 52.151535 -49.137747
2.530367 53.305011 -48.364973
4.17845 52.755466 -47.307851
3.810607 54.094948 -47.094053
3.768378 51.772175 -48.178855
4.17845 52.755466 -47.307851
3.364394 50.618698 -48.951629
2.951849 51.968598 -48.644081
3.768378 51.772175 -48.178855
3.866542 49.407686 -49.257196
3.050013 49.604109 -49.722421
3.364394 50.618698 -48.951629
4.330017 48.090393 -49.66852
3.866542 49.407686 -49.257196
4.816262 46.829055 -50.171509
4.038407 47.13176 -50.530977
4.330017 48.090393 -49.66852
20.697848 27.274661 -39.086981
20.179618 27.002409 -37.821686
21.004047 26.266858 -38.279608
20.257267 28.351709 -39.9512
20.697848 27.274661 -39.086981
19.855046 29.422292 -40.779932
19.471198 29.080794 -39.457791
20.257267 28.351709 -39.9512
19.371426 30.460782 -41.651488
19.855046 29.422292 -40.779932
14.025079 30.728127 -16.198813
13.951578 32.222977 -16.682163
14.155305 32.281844 -16.015373
14.129469 29.234711 -15.751221
13.925742 29.175845 -16.418011
14.025079 30.728127 -16.198813
14.321234 29.045362 -15.113948
14.221898 27.493081 -15.333146
14.129469 29.234711 -15.751221
14.57919 28.919377 -14.520933
14.321234 29.045362 -15.113948
14.486762 30.661008 -14.939008
11.480759 57.020756 -32.965606
11.12772 56.404457 -33.848284
11.799426 57.572603 -32.043377
12.207768 58.153477 -31.130371
11.765028 55.955526 -32.058236
11.480759 57.020756 -32.965606
11.799426 57.572603 -32.043377
14.335625 49.874615 -21.933864
14.316116 51.369015 -22.702364
14.655686 51.569607 -21.947707
14.016677 48.218958 -21.962782
14.335625 49.874615 -21.933864
14.356248 48.41955 -21.208125
14.019044 45.19875 -20.607822
14.3243 46.754133 -20.512394
14.306044 45.18899 -19.883173
22.891851 -0.071776 -9.874429
22.343954 0.317906 -9.302909
23.051293 -0.648475 -9.191783
22.759674 0.573389 -10.603575
22.891851 -0.071776 -9.874429
22.679659 1.144637 -11.347003
22.104496 1.465852 -10.728982
22.759674 0.573389 -10.603575
23.370356 0.809008 -12.031626
22.715178 1.70147 -12.157033
22.679659 1.144637 -11.347003
24.122861 0.54513 -12.784381
23.370356 0.809008 -12.031626
24.148885 1.272101 -13.717672
24.122861 0.54513 -12.784381
27.285052 -6.5501 -1.374059
26.688873 -5.513227 -1.776899
27.426766 -7.190644 -1.604811
27.285052 -6.5501 -1.374059
27.930768 -7.500181 -1.014884
-1.887822 43.402859 -53.552304
-2.436481 44.587263 -53.164766
-2.090025 41.996926 -54.063944
-1.887822 43.402859 -53.552304
-1.310516 42.250386 -54.008108
-2.680159 37.721838 -55.237426
-3.249395 38.8195 -54.732849
-2.465885 39.144999 -54.917214
-2.680159 37.721838 -55.237426
-2.124678 36.669237 -55.765487
9.805492 39.63097 -54.575575
9.997662 40.094357 -53.394541
10.592377 39.451923 -54.065365
8.966155 39.719143 -54.942905
9.805492 39.63097 -54.575575
21.518506 12.589181 -23.914552
20.793093 12.542371 -22.938491
21.462912 11.798179 -22.938672
21.522362 13.502347 -24.924484
21.518506 12.589181 -23.914552
22.140852 11.07684 -22.980403
22.891296 10.460607 -23.117598
21.604123 24.049514 -36.403116
21.306868 25.236016 -37.362048
20.783073 24.808104 -36.055382
21.604123 24.049514 -36.403116
21.889165 23.027572 -35.549132
15.272378 42.206242 -16.732418
14.911354 40.512499 -16.759348
14.936214 42.248934 -17.347078
15.654838 42.083622 -16.132182
15.272378 42.206242 -16.732418
15.634962 40.260203 -15.545987
15.654838 42.083622 -16.132182
14.719231 60.409937 -26.055217
14.219262 60.086146 -26.896237
15.156356 60.540892 -25.235325
15.658616 60.681855 -24.410682
14.808791 58.993721 -25.245201
14.719231 60.409937 -26.055217
15.156356 60.540892 -25.235325
14.962124 56.147135 -23.578091
14.888336 57.567251 -24.410278
15.319704 57.70456 -23.593122
15.014834 54.674225 -22.738571
14.583466 54.536917 -23.555727
14.962124 56.147135 -23.578091
15.030897 53.190472 -21.975585
15.014834 54.674225 -22.738571
14.655686 51.569607 -21.947707
15.030897 53.190472 -21.975585
14.943344 45.281734 -18.531405
14.58532 45.190782 -19.185072
14.928289 43.789935 -17.951273
14.943344 45.281734 -18.531405
14.936214 42.248934 -17.347078
14.567265 42.096192 -17.978203
14.928289 43.789935 -17.951273
19.511527 9.06107 -7.319383
19.244808 10.449502 -7.587063
19.481064 7.894854 -7.424964
19.511527 9.06107 -7.319383
19.906371 7.614882 -7.018743
20.278878 5.19531 -6.869646
20.26423 6.20223 -6.716833
20.6672 4.948874 -6.462156
23.341922 -1.683606 -7.837331
23.183321 -1.221589 -8.482368
22.661998 -0.720809 -7.975226
24.000551 -2.674325 -7.625876
23.341922 -1.683606 -7.837331
23.479228 -2.173545 -7.118734
24.666736 -3.54883 -7.454722
24.529431 -3.058891 -8.173319
24.000551 -2.674325 -7.625876
1.473527 49.761482 -50.468437
1.75507 50.923677 -49.787033
2.266322 49.652925 -50.098259
1.473527 49.761482 -50.468437
1.133922 48.514742 -51.079407
0.267451 42.517906 -53.99064
-0.562304 42.52277 -54.006365
1.368397 43.85062 -53.259504
1.691736 45.102424 -52.609272
1.095236 42.716106 -53.941895
1.368397 43.85062 -53.259504
1.912438 42.920136 -53.736379
0.811491 41.587421 -54.467516
0.267451 42.517906 -53.99064
1.095236 42.716106 -53.941895
8.072314 51.244703 -43.247333
7.443276 51.84152 -43.986194
8.389187 49.845301 -43.584188
8.072314 51.244703 -43.247333
8.654301 50.626182 -42.611635
9.498251 48.549193 -42.246673
9.213773 49.8724 -41.875725
9.74085 49.194813 -41.173908
13.892633 38.429031 -49.377029
13.235992 38.984447 -50.04776
13.254382 39.179237 -48.69981
14.552975 37.679723 -50.034557
13.892633 38.429031 -49.377029
14.571365 37.874513 -48.686607
15.194365 37.054533 -50.678442
14.552975 37.679723 -50.034557
15.913447 36.484613 -49.978205
15.814055 36.510139 -48.601852
16.495796 35.869547 -49.235922
15.194365 37.054533 -50.678442
15.913447 36.484613 -49.978205
14.88144 37.039639 -15.696206
14.902644 38.743235 -16.198338
15.226315 38.76621 -15.642556
14.595883 35.42483 -15.749613
14.88144 37.039639 -15.696206
15.011533 32.060957 -14.233885
14.689357 32.18401 -14.796616
15.050189 30.379651 -13.821634
15.011533 32.060957 -14.233885
15.317003 31.905585 -13.709526
16.431007 31.11554 -12.260549
16.471875 29.365817 -11.874592
16.016101 31.376578 -12.725793
16.431007 31.11554 -12.260549
15.690777 29.921824 -12.824196
15.680982 31.679032 -13.198871
16.016101 31.376578 -12.725793
16.090758 22.78487 -11.353832
16.000357 24.64859 -11.676683
16.324107 24.304098 -11.230695
15.944672 21.382993 -11.483249
16.090758 22.78487 -11.353832
16.268421 21.0385 -11.037261
15.836959 20.048748 -11.678525
15.659296 21.795117 -11.995097
15.944672 21.382993 -11.483249
16.078844 18.377164 -11.407967
15.793468 18.789288 -11.919816
15.836959 20.048748 -11.678525
16.302661 16.791669 -11.130412
16.078844 18.377164 -11.407967
16.603933 15.32964 -10.852035
16.336625 15.655674 -11.37088
16.302661 16.791669 -11.130412
16.866285 14.981264 -10.315558
16.900249 13.84527 -10.556026
16.603933 15.32964 -10.852035
17.194723 14.751109 -9.838231
16.866285 14.981264 -10.315558
17.508392 14.447423 -9.359964
17.47627 13.193209 -9.541281
17.194723 14.751109 -9.838231
17.894362 14.137435 -8.938517
17.508392 14.447423 -9.359964
18.260835 13.862977 -8.522415
18.156411 12.615067 -8.646912
17.894362 14.137435 -8.938517
18.717227 13.602114 -8.141225
18.260835 13.862977 -8.522415
18.963141 11.949286 -7.839666
18.717227 13.602114 -8.141225
10.161286 50.371973 -39.02863
9.933194 49.691572 -40.068106
10.566854 49.506911 -38.251497
10.161286 50.371973 -39.02863
10.318126 51.013759 -37.946875
10.527462 55.392641 -35.626019
10.860312 55.889404 -34.73238
10.632656 53.795618 -35.779043
10.248573 54.814686 -36.656405
10.527462 55.392641 -35.626019
13.654891 56.66359 -26.756425
13.942706 58.417393 -26.859371
14.08385 57.108963 -25.962148
13.318637 56.398302 -27.595205
13.654891 56.66359 -26.756425
13.459781 55.089872 -26.697981
12.956353 55.982952 -28.397027
13.318637 56.398302 -27.595205
12.801391 54.469492 -28.477708
12.634218 55.627859 -29.337972
12.956353 55.982952 -28.397027
22.816125 8.874799 -21.202476
22.817837 9.65068 -22.121696
22.091667 9.532809 -21.126852
23.527209 8.133475 -21.18591
22.816125 8.874799 -21.202476
22.801038 8.015604 -20.191065
24.294123 7.43475 -21.195514
23.527209 8.133475 -21.18591
22.69071 5.064848 -16.491546
22.019897 5.107242 -15.6111
22.696332 4.318776 -15.550142
22.79315 5.740545 -17.428776
22.69071 5.064848 -16.491546
22.819935 6.42879 -18.318008
22.04106 6.54156 -17.441737
22.79315 5.740545 -17.428776
23.542074 6.451028 -19.239773
22.789983 7.252044 -19.252733
22.819935 6.42879 -18.318008
24.250878 6.642354 -20.255312
23.542074 6.451028 -19.239773
25.032878 6.802822 -21.276328
24.294123 7.43475 -21.195514
24.250878 6.642354 -20.255312
24.979754 -2.425543 -2.896244
25.022389 -3.238617 -3.049034
24.487567 -1.276192 -3.278274
24.979754 -2.425543 -2.896244
23.931936 -1.004676 -3.759845
24.487567 -1.276192 -3.278274
23.465351 -0.706317 -4.290537
23.931936 -1.004676 -3.759845
23.97043 -1.852058 -3.952657
23.0111 -0.432431 -4.750193
23.465351 -0.706317 -4.290537
23.114151 -1.167765 -4.994599
22.621406 -0.046498 -5.261443
23.0111 -0.432431 -4.750193
28.724037 -9.037128 -0.948592
28.585036 -8.500089 -0.600874
28.340255 -8.720171 -1.626351
28.724037 -9.037128 -0.948592
27.9604 -8.457538 -2.25171
27.692628 -7.878092 -1.870995
28.340255 -8.720171 -1.626351
28.280363 -8.931159 -2.718921
28.669372 -9.398315 -3.184376
27.632737 -8.08908 -2.963564
27.9604 -8.457538 -2.25171
28.280363 -8.931159 -2.718921
26.996811 -7.293775 -4.286306
27.285996 -7.733225 -3.620357
27.663514 -8.123252 -4.096725
26.69376 -6.843856 -4.9722
26.316242 -6.453831 -4.495833
26.996811 -7.293775 -4.286306
26.538709 -6.419094 -5.709319
26.69376 -6.843856 -4.9722
26.310375 -5.927885 -6.417161
25.784857 -5.512702 -5.889569
26.538709 -6.419094 -5.709319
26.067189 -5.314522 -7.140031
26.310375 -5.927885 -6.417161
25.886736 -4.770474 -7.842408
25.376069 -4.477444 -7.299788
26.067189 -5.314522 -7.140031
25.865786 -4.24178 -8.666766
25.886736 -4.770474 -7.842408
-3.257708 44.470396 -53.240746
-2.436481 44.587263 -53.164766
-3.257708 44.470396 -53.240746
-3.436463 42.916176 -53.604669
-3.620359 41.462807 -54.006918
-3.829231 39.95555 -54.305858
7.11297 51.041922 -44.877325
7.443276 51.84152 -43.986194
6.766808 50.365938 -45.887417
7.11297 51.041922 -44.877325
7.461038 49.787838 -45.229979
6.396481 49.485907 -46.841868
6.766808 50.365938 -45.887417
6.148461 48.624266 -47.818495
6.396481 49.485907 -46.841868
6.866857 48.250214 -47.216698
5.863355 47.588131 -48.751188
6.148461 48.624266 -47.818495
5.581918 46.692785 -49.75618
5.863355 47.588131 -48.751188
6.337401 46.493227 -49.198317
5.290308 45.734151 -50.618637
4.816262 46.829055 -50.171509
5.581918 46.692785 -49.75618
5.909707 38.173405 -57.646004
6.194353 38.94006 -56.724039
5.052478 37.83156 -57.784517
5.909707 38.173405 -57.646004
4.217268 37.628172 -57.838059
4.516366 38.569408 -56.979906
5.052478 37.83156 -57.784517
3.428888 37.334013 -57.757998
4.217268 37.628172 -57.838059
2.632283 36.988652 -57.767107
2.884552 38.020658 -57.042557
3.428888 37.334013 -57.757998
1.871242 36.515622 -57.685295
2.632283 36.988652 -57.767107
21.44381 15.242953 -26.701827
21.492952 14.338216 -25.794422
20.724654 15.903832 -26.505039
21.44381 15.242953 -26.701827
21.378597 16.141675 -27.552619
21.078235 20.096433 -31.227652
20.43347 19.736777 -30.01717
21.148321 19.036424 -30.256052
20.958645 21.140144 -32.186181
21.078235 20.096433 -31.227652
3 0 92 90
3 1 95 93
3 2 98 96
3 2 101 99
3 2 96 101
3 3 105 103
3 4 364 365
3 4 366 367
3 5 368 370
3 370 369 106
3 368 369 370
3 5 371 372
3 6 111 109
3 8 114 112
3 8 116 114
3 373 119 374
3 375 374 117
3 373 374 375
3 376 122 377
3 378 377 120
3 376 377 378
3 379 124 380
3 381 380 122
3 379 380 381
3 11 127 125
3 11 129 127
3 12 132 130
3 14 135 133
3 14 137 135
3 7 140 138
3 382 142 383
3 385 384 142
3 15 146 144
3 17 149 147
3 17 151 149
3 18 155 153
3 18 157 155
3 9 160 158
3 19 163 161
3 19 165 163
3 19 167 165
3 15 170 168
3 15 144 170
3 16 174 172
3 21 177 175
3 21 179 177
3 10 182 180
3 387 386 183
3 22 186 185
3 22 188 186
3 388 189 389
3 391 390 189
3 13 192 190
3 392 195 393
3 394 393 193
3 392 393 394
3 396 395 195
3 20 199 197
3 23 202 200
3 25 203 91
3 25 204 203
3 397 205 398
3 27 208 206
3 29 209 94
3 29 210 209
3 30 213 211
3 32 216 214
3 400 399 97
3 401 217 402
3 403 218 404
3 405 219 406
3 407 406 218
3 405 406 407
3 408 221 409
3 36 222 100
3 36 223 222
3 36 225 223
3 32 226 102
3 32 214 226
3 38 229 227
3 40 230 104
3 40 231 230
3 41 234 232
3 410 235 411
3 43 412 414
3 412 237 413
3 412 413 414
3 415 238 416
3 417 416 107
3 415 416 417
3 419 418 238
3 45 241 239
3 420 242 421
3 422 421 108
3 420 421 422
3 424 423 242
3 47 425 427
3 427 426 243
3 425 426 427
3 48 247 245
3 50 248 110
3 50 249 248
3 24 250 201
3 51 251 113
3 51 252 251
3 51 253 252
3 428 254 429
3 430 429 115
3 428 429 430
3 432 431 254
3 433 256 434
3 436 435 256
3 53 259 257
3 55 260 118
3 55 261 260
3 437 262 438
3 56 263 121
3 56 264 263
3 56 265 264
3 57 266 123
3 57 267 266
3 26 439 440
3 442 441 126
3 58 268 128
3 58 269 268
3 443 271 444
3 60 272 131
3 60 273 272
3 28 274 207
3 61 275 134
3 61 276 275
3 61 277 276
3 62 278 136
3 62 279 278
3 49 280 246
3 63 281 139
3 63 282 281
3 31 283 212
3 64 284 141
3 64 285 284
3 64 286 285
3 445 287 446
3 447 446 143
3 445 446 447
3 450 449 287
3 448 449 450
3 65 290 288
3 67 291 145
3 67 292 291
3 33 293 215
3 68 294 148
3 68 295 294
3 68 296 295
3 69 297 150
3 69 298 297
3 452 451 255
3 453 299 454
3 455 300 456
3 457 301 458
3 459 458 300
3 457 458 459
3 460 302 461
3 462 461 301
3 460 461 462
3 464 463 152
3 70 465 466
3 70 467 469
3 467 303 468
3 467 468 469
3 34 470 472
3 470 304 471
3 470 471 472
3 71 305 154
3 71 306 305
3 71 307 306
3 72 308 156
3 72 309 308
3 52 473 474
3 73 310 159
3 73 311 310
3 35 312 220
3 74 313 162
3 74 314 313
3 74 315 314
3 75 316 164
3 75 317 316
3 75 318 317
3 76 319 166
3 76 320 319
3 37 321 224
3 77 322 169
3 77 323 322
3 77 324 323
3 65 325 171
3 65 288 325
3 66 327 289
3 79 328 173
3 79 329 328
3 39 330 228
3 80 331 176
3 80 332 331
3 80 333 332
3 81 334 178
3 81 335 334
3 54 336 258
3 82 337 181
3 82 338 337
3 42 339 233
3 83 340 184
3 83 341 340
3 83 342 341
3 84 475 477
3 475 343 476
3 475 476 477
3 84 344 343
3 84 345 344
3 85 346 187
3 85 347 346
3 478 348 479
3 482 481 348
3 480 481 482
3 44 483 485
3 485 484 236
3 483 484 485
3 59 349 270
3 86 350 191
3 86 351 350
3 46 352 240
3 87 353 194
3 87 354 353
3 87 355 354
3 88 356 196
3 88 357 356
3 78 358 326
3 89 359 198
3 89 360 359
3 486 361 487
3 488 487 244
3 486 487 488
3 489 362 490
3 491 363 492
3 493 492 362
3 491 492 493
3 495 494 363
3 90 91 23
3 92 91 90
3 92 25 91
3 93 94 27
3 95 94 93
3 95 29 94
3 497 496 30
3 96 97 32
3 98 97 96
3 98 498 500
3 500 499 97
3 498 499 500
3 99 501 503
3 501 100 502
3 501 502 503
3 101 100 99
3 101 36 100
3 101 102 36
3 96 102 101
3 96 32 102
3 103 104 38
3 105 104 103
3 105 40 104
3 505 504 41
3 106 107 43
3 506 107 507
3 508 507 106
3 506 507 508
3 510 509 107
3 511 108 512
3 513 512 45
3 511 512 513
3 514 108 515
3 517 516 108
3 519 518 47
3 109 110 48
3 111 110 109
3 111 50 110
3 112 113 24
3 114 113 112
3 114 51 113
3 114 115 51
3 116 115 114
3 116 520 522
3 522 521 115
3 520 521 522
3 117 118 53
3 119 118 117
3 119 55 118
3 120 523 525
3 523 121 524
3 523 524 525
3 122 121 120
3 122 56 121
3 122 123 56
3 124 123 122
3 124 57 123
3 125 126 26
3 127 126 125
3 127 526 528
3 528 527 126
3 526 527 528
3 127 529 531
3 529 128 530
3 529 530 531
3 129 128 127
3 129 58 128
3 130 532 534
3 532 131 533
3 532 533 534
3 132 131 130
3 132 60 131
3 133 134 28
3 135 134 133
3 135 61 134
3 135 136 61
3 137 136 135
3 137 62 136
3 138 139 49
3 140 139 138
3 140 63 139
3 535 141 536
3 537 536 31
3 535 536 537
3 142 538 540
3 538 141 539
3 538 539 540
3 142 64 141
3 142 143 64
3 541 143 542
3 543 542 142
3 541 542 543
3 545 544 143
3 144 145 65
3 146 145 144
3 146 67 145
3 147 148 33
3 149 148 147
3 149 68 148
3 149 150 68
3 151 150 149
3 151 69 150
3 546 152 547
3 548 152 549
3 551 550 152
3 552 70 553
3 153 154 34
3 155 154 153
3 155 71 154
3 155 156 71
3 157 156 155
3 157 72 156
3 158 159 52
3 160 159 158
3 160 73 159
3 161 162 35
3 163 162 161
3 163 74 162
3 163 164 74
3 165 164 163
3 165 75 164
3 165 166 75
3 167 166 165
3 167 76 166
3 168 169 37
3 170 169 168
3 170 77 169
3 170 171 77
3 144 171 170
3 144 65 171
3 172 173 66
3 174 173 172
3 174 79 173
3 175 176 39
3 177 176 175
3 177 80 176
3 177 178 80
3 179 178 177
3 179 81 178
3 180 181 54
3 182 181 180
3 182 82 181
3 183 184 42
3 554 184 555
3 556 555 183
3 554 555 556
3 557 83 558
3 559 558 184
3 557 558 559
3 561 560 83
3 185 562 563
3 186 564 566
3 566 565 185
3 564 565 566
3 186 567 569
3 567 84 568
3 567 568 569
3 186 187 84
3 188 187 186
3 188 85 187
3 571 570 44
3 189 572 573
3 189 574 575
3 189 576 577
3 579 578 189
3 190 191 59
3 192 191 190
3 192 86 191
3 193 194 46
3 195 194 193
3 195 87 194
3 195 196 87
3 580 196 581
3 582 581 195
3 580 581 582
3 583 88 584
3 585 584 196
3 583 584 585
3 197 198 78
3 199 198 197
3 199 89 198
3 200 201 6
3 202 201 200
3 202 24 201
3 91 202 23
3 203 202 91
3 203 24 202
3 203 112 24
3 204 112 203
3 204 8 112
3 586 120 587
3 588 120 589
3 591 590 120
3 205 592 593
3 205 594 596
3 594 26 595
3 594 595 596
3 597 205 598
3 599 205 600
3 601 26 602
3 603 602 205
3 601 602 603
3 604 125 605
3 606 605 26
3 604 605 606
3 607 125 608
3 609 11 610
3 611 610 125
3 609 610 611
3 206 207 12
3 208 207 206
3 208 28 207
3 94 208 27
3 209 208 94
3 209 28 208
3 209 133 28
3 210 133 209
3 210 14 133
3 211 212 7
3 213 212 211
3 213 31 212
3 612 213 613
3 614 613 30
3 612 613 614
3 615 213 616
3 617 31 618
3 619 618 213
3 617 618 619
3 621 620 31
3 214 215 15
3 216 215 214
3 216 33 215
3 97 216 32
3 622 216 623
3 624 623 97
3 622 623 624
3 625 33 626
3 627 626 216
3 625 626 627
3 628 147 629
3 630 629 33
3 628 629 630
3 217 631 633
3 631 147 632
3 631 632 633
3 217 17 147
3 634 34 635
3 218 636 637
3 218 638 640
3 638 34 639
3 638 639 640
3 218 153 34
3 219 153 218
3 219 18 153
3 641 220 642
3 643 642 9
3 641 642 643
3 221 644 646
3 644 220 645
3 644 645 646
3 221 35 220
3 100 647 649
3 647 221 648
3 647 648 649
3 222 221 100
3 222 35 221
3 222 161 35
3 223 161 222
3 223 19 161
3 223 224 19
3 225 224 223
3 225 37 224
3 102 225 36
3 226 225 102
3 226 37 225
3 226 168 37
3 214 168 226
3 214 15 168
3 227 228 16
3 229 228 227
3 229 39 228
3 104 229 38
3 230 229 104
3 230 39 229
3 230 175 39
3 231 175 230
3 231 21 175
3 232 233 10
3 234 233 232
3 234 42 233
3 650 234 651
3 652 651 41
3 650 651 652
3 653 234 654
3 655 42 656
3 657 656 234
3 655 656 657
3 658 183 659
3 660 659 42
3 658 659 660
3 661 183 662
3 664 663 183
3 665 185 666
3 235 667 669
3 667 185 668
3 667 668 669
3 235 22 185
3 670 236 671
3 237 672 674
3 672 236 673
3 672 673 674
3 237 44 236
3 107 237 43
3 238 237 107
3 238 44 237
3 238 675 677
3 677 676 44
3 675 676 677
3 679 678 238
3 239 240 13
3 241 240 239
3 241 46 240
3 108 241 45
3 242 241 108
3 242 46 241
3 242 193 46
3 680 193 681
3 682 681 242
3 680 681 682
3 684 683 193
3 243 244 20
3 685 244 686
3 687 686 243
3 685 686 687
3 689 688 244
3 691 690 47
3 245 246 1
3 247 246 245
3 247 49 246
3 110 247 48
3 248 247 110
3 248 49 247
3 248 138 49
3 249 138 248
3 249 7 138
3 201 111 6
3 250 111 201
3 250 50 111
3 113 250 24
3 251 250 113
3 251 50 250
3 251 249 50
3 252 249 251
3 252 7 249
3 252 211 7
3 253 211 252
3 253 30 211
3 115 253 51
3 254 253 115
3 254 30 253
3 254 692 694
3 694 693 30
3 692 693 694
3 696 695 254
3 697 255 698
3 699 698 2
3 697 698 699
3 700 255 701
3 703 702 255
3 704 52 705
3 256 706 707
3 256 708 710
3 708 52 709
3 708 709 710
3 256 158 52
3 711 158 712
3 713 712 256
3 711 712 713
3 714 9 715
3 716 715 158
3 714 715 716
3 717 9 718
3 720 719 9
3 721 99 722
3 723 99 724
3 725 2 726
3 727 726 99
3 725 726 727
3 257 258 3
3 259 258 257
3 259 54 258
3 118 259 53
3 260 259 118
3 260 54 259
3 260 180 54
3 261 180 260
3 261 10 180
3 728 119 729
3 262 730 732
3 730 119 731
3 730 731 732
3 262 55 119
3 121 733 735
3 733 262 734
3 733 734 735
3 263 262 121
3 263 55 262
3 263 261 55
3 264 261 263
3 264 10 261
3 264 232 10
3 265 232 264
3 265 41 232
3 123 265 56
3 266 265 123
3 266 41 265
3 266 736 738
3 738 737 41
3 736 737 738
3 267 739 741
3 741 740 266
3 739 740 741
3 267 742 744
3 742 4 743
3 742 743 744
3 126 745 747
3 747 746 26
3 745 746 747
3 749 748 126
3 750 43 751
3 128 752 753
3 268 754 756
3 756 755 128
3 754 755 756
3 268 757 759
3 757 43 758
3 757 758 759
3 268 106 43
3 269 106 268
3 269 5 106
3 760 270 761
3 271 762 764
3 762 270 763
3 762 763 764
3 271 59 270
3 131 765 767
3 765 271 766
3 765 766 767
3 272 271 131
3 272 59 271
3 272 190 59
3 273 190 272
3 273 13 190
3 207 132 12
3 274 132 207
3 274 60 132
3 134 274 28
3 275 274 134
3 275 60 274
3 275 273 60
3 276 273 275
3 276 13 273
3 276 239 13
3 277 239 276
3 277 45 239
3 136 277 61
3 278 277 136
3 278 45 277
3 278 768 770
3 770 769 45
3 768 769 770
3 279 771 773
3 773 772 278
3 771 772 773
3 279 774 775
3 246 95 1
3 280 95 246
3 280 29 95
3 139 280 49
3 281 280 139
3 281 29 280
3 281 210 29
3 282 210 281
3 282 14 210
3 212 140 7
3 283 140 212
3 283 63 140
3 141 283 31
3 284 283 141
3 284 63 283
3 284 282 63
3 285 282 284
3 285 14 282
3 285 137 14
3 286 137 285
3 286 62 137
3 143 286 64
3 287 286 143
3 287 62 286
3 287 279 62
3 776 279 777
3 778 777 287
3 776 777 778
3 780 779 279
3 288 289 0
3 290 289 288
3 290 66 289
3 145 290 65
3 291 290 145
3 291 66 290
3 291 172 66
3 292 172 291
3 292 16 172
3 215 146 15
3 293 146 215
3 293 67 146
3 148 293 33
3 294 293 148
3 294 67 293
3 294 292 67
3 295 292 294
3 295 16 292
3 295 227 16
3 296 227 295
3 296 38 227
3 150 296 68
3 297 296 150
3 297 38 296
3 297 103 38
3 298 103 297
3 298 3 103
3 255 98 2
3 781 98 782
3 783 782 255
3 781 782 783
3 785 784 98
3 786 217 787
3 299 788 790
3 788 217 789
3 788 789 790
3 299 17 217
3 300 791 792
3 300 793 794
3 300 795 797
3 795 299 796
3 795 796 797
3 301 299 300
3 301 17 299
3 301 151 17
3 302 151 301
3 302 69 151
3 152 798 800
3 798 302 799
3 798 799 800
3 801 302 802
3 803 802 152
3 801 802 803
3 804 69 805
3 806 805 302
3 804 805 806
3 807 298 808
3 809 808 69
3 807 808 809
3 810 298 811
3 812 3 813
3 814 813 298
3 812 813 814
3 815 257 816
3 817 816 3
3 815 816 817
3 818 257 819
3 820 53 821
3 822 821 257
3 820 821 822
3 823 53 824
3 825 117 826
3 827 826 53
3 825 826 827
3 828 117 829
3 831 830 117
3 832 130 833
3 303 834 836
3 834 130 835
3 834 835 836
3 303 12 130
3 304 837 838
3 304 839 841
3 839 70 840
3 839 840 841
3 154 304 34
3 305 304 154
3 305 70 304
3 305 303 70
3 306 303 305
3 306 12 303
3 306 206 12
3 307 206 306
3 307 27 206
3 156 307 71
3 308 307 156
3 308 27 307
3 308 93 27
3 309 93 308
3 309 1 93
3 159 842 844
3 844 843 52
3 842 843 844
3 310 845 847
3 847 846 159
3 845 846 847
3 310 848 849
3 310 850 852
3 850 219 851
3 850 851 852
3 311 219 310
3 311 18 219
3 220 160 9
3 312 160 220
3 312 73 160
3 162 312 35
3 313 312 162
3 313 73 312
3 313 311 73
3 314 311 313
3 314 18 311
3 314 157 18
3 315 157 314
3 315 72 157
3 164 315 74
3 316 315 164
3 316 72 315
3 316 309 72
3 317 309 316
3 317 1 309
3 317 245 1
3 318 245 317
3 318 48 245
3 166 318 75
3 319 318 166
3 319 48 318
3 319 109 48
3 320 109 319
3 320 6 109
3 224 167 19
3 321 167 224
3 321 76 167
3 169 321 37
3 322 321 169
3 322 76 321
3 322 320 76
3 323 320 322
3 323 6 320
3 323 200 6
3 324 200 323
3 324 23 200
3 171 324 77
3 325 324 171
3 325 23 324
3 325 90 23
3 288 90 325
3 288 0 90
3 289 326 0
3 327 326 289
3 327 78 326
3 173 327 66
3 328 327 173
3 328 78 327
3 328 197 78
3 329 197 328
3 329 20 197
3 228 174 16
3 330 174 228
3 330 79 174
3 176 330 39
3 331 330 176
3 331 79 330
3 331 329 79
3 332 329 331
3 332 20 329
3 332 243 20
3 333 243 332
3 333 47 243
3 178 333 80
3 334 333 178
3 334 47 333
3 334 853 855
3 855 854 47
3 853 854 855
3 335 856 858
3 858 857 334
3 856 857 858
3 335 859 860
3 258 105 3
3 336 105 258
3 336 40 105
3 181 336 54
3 337 336 181
3 337 40 336
3 337 231 40
3 338 231 337
3 338 21 231
3 233 182 10
3 339 182 233
3 339 82 182
3 184 339 42
3 340 339 184
3 340 82 339
3 340 338 82
3 341 338 340
3 341 21 338
3 341 179 21
3 342 179 341
3 342 81 179
3 861 342 862
3 863 862 83
3 861 862 863
3 864 342 865
3 866 81 867
3 868 867 342
3 866 867 868
3 869 335 870
3 871 870 81
3 869 870 871
3 872 335 873
3 876 875 335
3 874 875 876
3 343 877 878
3 343 879 880
3 343 881 882
3 344 883 885
3 885 884 343
3 883 884 885
3 344 886 887
3 344 888 890
3 888 124 889
3 888 889 890
3 345 124 344
3 345 57 124
3 187 345 84
3 346 345 187
3 346 57 345
3 346 267 57
3 347 267 346
3 347 4 267
3 891 235 892
3 893 235 894
3 895 22 896
3 897 896 235
3 895 896 897
3 348 898 899
3 348 900 902
3 900 22 901
3 900 901 902
3 348 188 22
3 903 188 904
3 905 904 348
3 903 904 905
3 906 85 907
3 908 907 188
3 906 907 908
3 909 85 910
3 911 347 912
3 913 912 85
3 911 912 913
3 914 347 915
3 916 4 917
3 918 917 347
3 916 917 918
3 920 919 4
3 236 921 922
3 924 923 236
3 926 925 44
3 270 927 928
3 349 929 931
3 931 930 270
3 929 930 931
3 349 932 933
3 191 349 59
3 350 349 191
3 350 934 936
3 936 935 349
3 934 935 936
3 350 937 938
3 351 939 941
3 941 940 350
3 939 940 941
3 351 942 944
3 942 11 943
3 942 943 944
3 240 192 13
3 352 192 240
3 352 86 192
3 194 352 46
3 353 352 194
3 353 86 352
3 353 351 86
3 354 351 353
3 354 11 351
3 354 129 11
3 355 129 354
3 355 58 129
3 196 355 87
3 356 355 196
3 356 58 355
3 356 269 58
3 357 269 356
3 357 5 269
3 945 88 946
3 947 88 948
3 949 357 950
3 951 950 88
3 949 950 951
3 952 357 953
3 954 5 955
3 956 955 357
3 954 955 956
3 958 957 5
3 326 92 0
3 358 92 326
3 358 25 92
3 198 358 78
3 359 358 198
3 359 25 358
3 359 204 25
3 360 204 359
3 360 8 204
3 244 199 20
3 361 199 244
3 361 89 199
3 959 361 960
3 362 961 963
3 961 361 962
3 961 962 963
3 362 89 361
3 362 360 89
3 363 360 362
3 363 8 360
3 363 116 8
3 964 116 965
3 966 965 363
3 964 965 966
3 968 967 116
