ply
format ascii 1.0
element vertex 887
property float x
property float y
property float z
element face 993
property list uchar int vertex_index
end_header
23.383583 -61.577183 -10.088602
24.92609 -100.037758 -20.229496
8.068407 -106.496765 -26.862942
21.678465 -61.216187 -22.449066
24.818962 -79.691856 -13.258354
24.975054 -53.520039 -11.647998
22.637928 -62.316193 -15.783028
26.487488 -90.444237 -15.990846
24.322453 -82.119453 -21.67474
23.773378 -92.018265 -26.208733
18.276472 -105.967598 -24.5306
18.892061 -98.976685 -30.916515
9.72654 -101.70636 -34.078468
18.739723 -57.543106 -29.198486
23.079554 -69.604469 -11.6112
24.847425 -74.550476 -4.774733
26.631023 -85.29509 -5.963315
23.142195 -104.366394 -12.520055
14.941969 -107.783859 -16.144697
22.973444 -71.862831 -18.526463
21.651636 -70.981628 -25.821669
17.252338 -88.233322 -34.59193
23.932398 -58.214592 -10.887802
23.457077 -57.933525 -13.914347
22.974499 -61.984226 -12.706267
26.274145 -95.402832 -17.99958
25.596479 -91.889832 -21.205015
24.640099 -96.555099 -23.492872
13.528371 -106.939674 -25.92083
14.586184 -104.587967 -29.646275
9.205939 -104.803146 -30.733791
22.236986 -56.401718 -20.641214
21.134211 -54.892719 -24.017714
19.476191 -53.069351 -27.375044
20.544273 -59.824017 -25.824524
27.026905 -87.196182 -1.725302
19.496836 -106.79863 -14.569916
23.785191 -74.527031 -12.193254
23.01053 -71.058464 -14.940533
23.841936 -76.165886 -16.041286
23.034094 -77.107491 -23.987877
18.143841 -93.998917 -33.185284
13.813268 -90.627289 -36.811958
3.856463 -103.669327 -31.030836
24.321716 -52.693142 -15.027761
22.952147 -57.362556 -17.185793
22.295982 -61.916527 -19.107161
25.891626 -85.159317 -14.361892
24.79644 -81.357147 -17.443401
25.498833 -86.598953 -19.195702
24.453213 -87.295349 -23.877806
22.505613 -86.552544 -28.261347
22.277687 -103.571602 -22.544117
22.422377 -100.465149 -25.781202
19.093189 -103.11158 -27.829737
14.676105 -100.97435 -32.834839
17.258169 -50.660244 -30.653603
23.713406 -63.121479 -7.709377
22.976645 -65.243835 -10.817216
23.482004 -67.64077 -8.117467
23.874666 -72.334259 -8.446026
24.722569 -77.336357 -9.134855
25.724329 -79.940361 -5.375464
25.792233 -82.600449 -9.825167
26.707603 -88.163063 -11.018839
26.991951 -93.527588 -12.454642
26.320213 -98.535095 -14.314841
24.42108 -102.791206 -16.447166
21.233299 -105.860313 -18.66185
16.937471 -107.568161 -20.446619
11.904139 -107.84864 -22.002497
9.54961 -107.3647 -17.382526
24.493254 -58.73534 -7.669718
22.672415 -66.352478 -13.902068
22.536127 -66.991173 -17.153362
22.274584 -67.03492 -20.700199
23.684824 -76.913788 -19.951464
22.627277 -72.012764 -22.16721
21.553137 -65.976151 -24.119213
20.265797 -64.835007 -27.601389
21.933172 -96.032173 -28.613262
20.886423 -90.688004 -30.78466
19.503742 -84.721771 -32.366146
23.603323 -60.080891 -10.428148
23.366957 -60.128235 -11.846946
23.177967 -61.780106 -11.236647
25.77878 -97.833405 -19.022995
25.588938 -96.102707 -20.803358
24.935934 -98.263878 -21.820751
10.813178 -106.864502 -26.553596
11.427529 -106.036369 -28.50857
8.706732 -105.822113 -28.856512
21.880541 -58.955822 -21.582985
21.386349 -58.164059 -23.314629
20.767397 -57.406273 -24.99218
21.196968 -60.445435 -24.081841
24.255747 -76.990784 -12.745765
23.779856 -75.282082 -14.137389
24.314659 -77.987106 -14.773687
11.801255 -91.563698 -37.727577
25.680393 -50.792095 -11.862713
25.330063 -50.200436 -13.644832
24.669336 -53.087967 -13.347469
22.956499 -60.135403 -14.866322
23.223579 -57.65554 -15.511898
22.776293 -59.869919 -16.436302
22.540543 -59.634197 -18.15189
22.483257 -62.184807 -17.453663
26.256819 -87.833664 -15.236049
25.758171 -85.94075 -16.741385
26.05024 -88.586464 -17.584772
24.819696 -92.006485 -23.725983
25.107235 -89.637054 -22.48848
24.285315 -89.647827 -24.907574
23.597586 -87.086685 -26.113365
23.187029 -89.526337 -27.297705
20.431604 -104.984276 -23.481007
20.734703 -103.627914 -25.213091
18.623301 -104.671608 -26.434956
12.353367 -103.371925 -31.928507
14.672652 -102.852257 -31.416559
12.271796 -101.504158 -33.551876
24.297705 -49.410587 -17.296534
19.145056 -55.430168 -28.188227
18.397444 -51.849964 -29.069744
18.077032 -54.276741 -29.840096
23.511276 -65.367371 -7.931517
23.858671 -66.205612 -6.30085
24.515278 -72.10173 -4.754565
24.040312 -71.059502 -6.577785
24.347418 -73.558434 -6.766995
24.253269 -74.808784 -8.765543
24.723906 -75.919601 -7.03142
26.532558 -83.583504 -3.498438
26.114813 -80.846474 -3.3057
26.176357 -82.481491 -5.580122
25.7642 -81.430748 -7.64863
26.260563 -83.990944 -7.807304
26.312401 -85.363281 -10.275331
26.678411 -86.687164 -8.497791
27.127131 -92.087715 -9.596391
26.797827 -96.099472 -13.346253
26.752047 -97.100227 -11.267365
24.541506 -102.64785 -11.375639
25.183088 -101.762085 -13.319915
23.931252 -103.660934 -14.399288
23.006205 -104.487144 -17.447533
22.433266 -105.173286 -15.510783
17.310493 -107.468399 -15.398019
18.415262 -107.327644 -17.437475
16.044741 -107.845985 -18.464344
14.37619 -107.895363 -21.248823
13.42686 -107.992859 -19.013405
6.991976 -106.725319 -17.84549
24.296209 -61.570026 -6.147343
25.025408 -56.524788 -7.787255
22.962181 -67.42173 -11.192253
22.785126 -65.876648 -12.404061
22.829357 -68.121658 -12.884032
22.994762 -71.477303 -16.759771
22.749258 -69.250977 -16.155132
22.685596 -69.285141 -17.883476
22.422615 -66.839958 -18.945271
22.610788 -69.46579 -19.546381
24.646191 -81.977905 -19.592815
24.236 -79.307182 -18.96134
24.035446 -79.525429 -20.840357
22.349369 -74.245453 -24.971119
22.820606 -74.555046 -23.137064
22.252926 -71.824875 -23.977264
22.096279 -69.123871 -23.136951
21.619335 -68.585159 -24.901207
20.947493 -65.359962 -25.954071
20.955416 -67.951385 -26.764933
19.138132 -66.012291 -30.191189
20.750521 -99.855156 -28.508131
22.35165 -98.340294 -27.162373
20.586288 -97.644356 -29.752237
19.698177 -92.53231 -31.953432
19.155113 -89.58297 -32.772057
20.358459 -87.921387 -31.480829
24.423147 -55.948299 -11.22771
24.121508 -55.730511 -12.917194
23.723703 -57.966259 -12.348875
23.179291 -60.051247 -13.277062
22.800505 -62.255161 -14.134405
26.477417 -92.897148 -17.07659
26.111721 -91.18853 -18.731955
25.981268 -93.780464 -19.729366
25.279114 -94.225632 -22.286333
24.331425 -94.36721 -24.793861
16.027714 -106.562744 -25.414045
16.425116 -105.468903 -27.246523
13.95665 -105.944893 -27.936756
11.883516 -104.849754 -30.338013
9.572403 -103.416359 -32.48661
22.766785 -54.02755 -19.568815
22.250095 -53.418587 -21.287924
20.90201 -51.796303 -24.649797
20.383471 -54.18354 -25.695969
20.024824 -56.528774 -26.60984
19.742449 -58.883099 -27.501011
26.794088 -84.540665 -1.237729
26.895561 -86.396889 -3.860899
26.962374 -87.95137 -6.546398
27.126305 -89.107498 -4.306539
21.422829 -105.772491 -13.576972
23.369423 -71.996368 -11.843823
23.025728 -70.452995 -13.304033
23.356945 -72.821869 -13.599148
23.373747 -73.548676 -15.503492
23.392805 -74.139633 -17.323059
23.827129 -82.248169 -23.88983
23.689411 -79.701042 -22.909239
20.88813 -70.281097 -27.716372
16.669634 -97.890305 -33.187286
18.52389 -96.644463 -32.170563
15.693545 -89.600632 -35.711399
5.181368 -105.728485 -27.11084
5.910875 -105.209503 -29.130924
24.804016 -49.951862 -15.509103
23.88727 -52.299625 -16.80759
23.86274 -55.37154 -14.50018
23.5495 -55.040203 -16.135334
23.186405 -54.625473 -17.840336
22.643188 -56.737835 -18.936117
22.262434 -59.287651 -19.842857
22.028135 -61.669128 -20.825319
25.385006 -82.446083 -13.836744
24.879379 -80.742195 -15.280395
25.359591 -83.363365 -15.988868
25.191723 -83.933449 -18.254292
24.947195 -84.596085 -20.477362
25.684935 -89.328575 -20.071075
25.124239 -87.19249 -21.448473
24.471474 -84.773056 -22.745085
23.814219 -84.750809 -24.946613
22.931929 -84.334648 -27.057812
23.796885 -102.05513 -21.159481
23.879354 -100.399162 -22.955843
22.501827 -102.089134 -24.149933
20.865332 -101.896362 -26.907009
19.074936 -101.285568 -29.398853
16.819601 -103.935768 -28.989017
17.087143 -102.220505 -30.405256
17.01005 -100.263794 -31.79397
14.693469 -98.86647 -34.002487
6.961601 -103.194847 -32.719872
7.159545 -101.551613 -34.432056
18.906071 -49.640392 -28.1276
17.759203 -48.494991 -29.747595
16.473492 -47.012867 -31.381731
23.513058 -62.200848 -9.051748
23.142921 -63.137932 -10.427353
23.277359 -64.172218 -9.296519
23.187765 -66.468689 -9.515725
23.249338 -68.804237 -9.798018
23.862968 -68.596954 -6.472901
23.602764 -69.868744 -8.255421
23.451944 -71.060791 -10.032616
23.808937 -73.607468 -10.363334
24.27257 -76.097084 -10.665072
24.784079 -78.682365 -11.173794
25.256466 -77.283737 -5.13819
25.235527 -78.676849 -7.304607
25.265337 -80.00486 -9.424381
25.306534 -81.199303 -11.668547
25.852554 -83.869362 -12.120321
26.337124 -86.743469 -12.783817
26.65601 -89.435318 -13.504561
26.98752 -89.356857 -8.984128
26.954466 -90.819214 -11.504936
26.798281 -92.006508 -14.297077
26.731493 -94.523392 -15.17169
26.386234 -97.052277 -16.242144
25.774025 -99.399857 -17.144178
25.544622 -100.791 -15.200022
24.821405 -101.476311 -18.31216
23.440439 -103.458214 -19.440237
21.866934 -104.903526 -20.552517
19.904066 -106.070992 -21.734905
20.569849 -106.426666 -16.545891
19.268938 -106.883797 -19.464859
17.777386 -106.945442 -22.409737
15.389393 -107.419662 -23.281807
12.84868 -107.548241 -24.030035
10.078869 -107.341171 -24.568773
12.207331 -107.740791 -16.830616
10.821257 -107.798737 -19.682859
9.196856 -107.49865 -22.277464
24.045977 -60.877499 -7.663431
23.808561 -60.367496 -9.106874
25.988726 -51.282478 -10.148618
25.283615 -53.87989 -9.914827
24.695171 -56.258755 -9.587012
24.222437 -58.382217 -9.255693
22.905054 -63.702923 -11.866806
22.74095 -64.13974 -13.304108
22.608961 -64.471901 -14.905592
22.762991 -68.611504 -14.490761
22.595652 -66.713501 -15.548032
22.502085 -64.47168 -16.554726
22.38938 -64.559486 -18.143795
22.220098 -64.348541 -19.86335
21.963045 -64.051598 -21.558155
24.324558 -78.733459 -16.800289
23.841221 -76.802422 -18.017645
23.309227 -74.348724 -19.263735
23.419891 -77.0495 -22.028513
23.147339 -74.629135 -21.235176
22.841238 -71.91671 -20.420378
22.410927 -69.385307 -21.413363
21.974867 -66.4216 -22.380699
21.573425 -63.47839 -23.282867
21.061031 -62.961296 -24.969612
20.347925 -62.205681 -26.755219
19.522537 -61.241806 -28.390268
20.096495 -66.996529 -28.57312
19.375645 -63.795258 -29.241579
23.744007 -98.67025 -24.539373
23.402798 -96.584869 -26.133774
23.055128 -94.144424 -27.335508
20.121916 -95.193756 -31.021931
21.447741 -93.571518 -29.784519
22.427111 -91.565109 -28.615395
21.87327 -88.848869 -29.47452
21.110649 -85.871101 -30.406586
20.326231 -82.730484 -31.202255
18.724796 -81.344254 -33.02639
10.648022 -91.791493 -38.158304
11.953651 -92.991089 -37.322086
9.816088 -100.741642 -34.743854
11.088716 -100.640541 -34.480559
10.999168 -101.605259 -33.815172
24.026204 -48.976974 -18.185789
23.849176 -50.587806 -17.950221
18.203854 -57.034866 -30.000922
17.872509 -55.401684 -30.321727
18.408378 -55.909924 -29.519291
24.099894 -65.446872 -5.423094
23.931787 -65.020424 -6.252052
26.843181 -96.476749 -9.830185
26.900294 -95.9427 -10.824608
23.84185 -103.507122 -11.947847
24.137757 -102.918339 -10.331778
23.438102 -103.777611 -10.903986
5.618114 -106.217998 -17.895082
6.425471 -106.307846 -16.680846
5.051609 -105.800525 -16.730438
6.186011 -106.578029 -19.086899
5.618114 -106.217998 -17.895082
18.203726 -88.908146 -33.681993
18.457818 -90.360024 -33.358965
17.506431 -89.6852 -34.268901
17.907694 -87.428974 -34.009287
18.859081 -88.103798 -33.09935
18.203726 -88.908146 -33.681993
21.388254 -53.712858 -23.500927
21.446988 -55.351481 -23.15385
21.01811 -53.344511 -24.333756
21.272153 -52.16465 -23.816969
21.388254 -53.712858 -23.500927
26.910497 -85.868424 -1.481515
26.87139 -85.050488 -0.236297
26.987799 -86.378246 -0.480083
23.478513 -80.851757 -24.430219
23.499219 -82.218918 -24.906544
16.551552 -96.542068 -33.717545
15.624669 -97.082375 -34.144783
14.968004 -91.585296 -35.92258
13.944349 -92.042054 -36.485478
14.753407 -90.113961 -36.261679
15.908143 -91.071968 -35.372301
14.968004 -91.585296 -35.92258
4.216088 -105.064995 -28.091496
3.896465 -105.272587 -27.036471
22.137039 -85.075603 -28.707016
22.350197 -83.966656 -28.105249
22.718771 -85.443596 -27.659579
5.26281 -104.038322 -31.002585
6.290015 -104.808411 -30.052629
4.883669 -104.439415 -30.08088
5.718342 -102.120849 -33.670794
5.571407 -102.842781 -32.821623
5.817314 -101.299233 -34.526886
7.060573 -102.37323 -33.575964
5.718342 -102.120849 -33.670794
19.191131 -51.354872 -27.751322
19.44652 -50.225723 -27.254912
19.73158 -51.940202 -26.878634
16.624977 -49.895994 -31.44596
16.232639 -48.072305 -31.810023
16.865831 -48.836556 -31.017667
24.093672 -69.113426 -5.530888
24.056719 -67.92321 -5.518721
24.287424 -68.439682 -4.576709
25.724552 -79.150757 -4.246601
25.919794 -79.603814 -3.21172
25.919571 -80.393417 -4.340582
25.490398 -78.612049 -5.256827
25.49062 -77.822445 -4.127965
25.724552 -79.150757 -4.246601
27.075691 -90.029739 -8.019671
26.974947 -88.654113 -7.765263
27.063118 -89.326995 -6.800807
10.243457 -107.278759 -16.068393
8.970655 -107.004303 -16.230185
10.87847 -107.552746 -17.106571
11.572318 -107.466804 -15.792438
10.243457 -107.278759 -16.068393
7.76508 -107.138443 -22.468993
8.65937 -107.386486 -21.201094
8.247373 -107.159005 -23.525951
7.76508 -107.138443 -22.468993
26.573588 -50.069131 -9.308733
26.385875 -49.856763 -10.263124
25.429087 -54.072748 -9.042959
25.795298 -52.775241 -9.143771
25.134864 -55.26218 -8.879051
24.989393 -55.069322 -9.75092
25.429087 -54.072748 -9.042959
20.014671 -68.174069 -29.043586
20.492313 -68.638813 -28.144746
20.410488 -69.816352 -28.615212
18.813457 -63.098408 -30.080945
19.256888 -64.903774 -29.716384
18.694701 -64.206924 -30.55575
18.969468 -61.990225 -29.605218
18.813457 -63.098408 -30.080945
18.314658 -79.74181 -33.345703
17.789539 -80.633659 -33.929836
19.190662 -80.444394 -32.385972
18.314658 -79.74181 -33.345703
21.820153 -57.383032 -21.936485
21.998376 -56.10598 -21.4656
22.058764 -57.67877 -21.112099
21.573057 -56.98715 -22.802307
21.820153 -57.383032 -21.936485
21.633445 -58.55994 -22.448807
21.26028 -56.528389 -23.666172
21.446988 -55.351481 -23.15385
21.573057 -56.98715 -22.802307
27.045564 -87.762123 -0.660503
26.987799 -86.378246 -0.480083
27.083296 -88.637767 -1.924989
27.045564 -87.762123 -0.660503
12.938342 -92.510258 -36.943287
11.953651 -92.991089 -37.322086
12.807261 -91.095494 -37.269768
13.944349 -92.042054 -36.485478
12.938342 -92.510258 -36.943287
25.505228 -50.496266 -12.753773
25.854096 -49.08778 -12.924572
26.029261 -49.38361 -12.033513
12.249033 -100.378704 -34.26168
13.451188 -100.1138 -33.903162
13.473951 -101.239254 -33.193358
12.249033 -100.378704 -34.26168
11.088716 -100.640541 -34.480559
2.788873 -102.060142 -32.830858
4.018838 -103.080021 -31.977105
2.626498 -102.649449 -31.884589
24.537748 -47.785705 -17.521135
24.835478 -48.121934 -16.624131
24.537748 -47.785705 -17.521135
24.026204 -48.976974 -18.185789
17.496905 -53.644051 -30.632726
17.087474 -51.835802 -31.039479
17.6676 -52.468492 -30.246849
17.496905 -53.644051 -30.632726
17.872509 -55.401684 -30.321727
23.758089 -64.601304 -7.067385
23.612341 -64.244425 -7.820447
23.859154 -63.478358 -6.956315
23.684973 -65.786492 -7.116183
23.758089 -64.601304 -7.067385
23.931787 -65.020424 -6.252052
24.277795 -71.580616 -5.666175
24.182344 -70.3447 -5.583331
24.419827 -70.865814 -4.671721
26.323686 -82.214989 -3.402069
26.296836 -81.370404 -2.192455
26.505709 -82.738919 -2.288825
27.144785 -92.698982 -8.692754
27.145497 -91.395168 -8.325803
27.087835 -93.436443 -9.989121
27.144785 -92.698982 -8.692754
27.020246 -94.15638 -11.418246
27.059541 -92.807651 -11.025517
27.087835 -93.436443 -9.989121
26.923184 -95.442322 -11.864052
26.894889 -94.81353 -12.900448
27.020246 -94.15638 -11.418246
26.774937 -96.59985 -12.306809
26.923184 -95.442322 -11.864052
26.900294 -95.9427 -10.824608
24.792752 -101.935051 -9.74435
24.137757 -102.918339 -10.331778
25.103677 -101.603024 -10.764953
24.792752 -101.935051 -9.74435
24.862297 -102.204968 -12.347777
25.424468 -101.160141 -11.737091
25.103677 -101.603024 -10.764953
7.691838 -106.684613 -16.461666
6.425471 -106.307846 -16.680846
8.270793 -107.045009 -17.614008
8.970655 -107.004303 -16.230185
7.691838 -106.684613 -16.461666
7.55693 -106.999821 -18.985108
8.835746 -107.319512 -18.753625
8.270793 -107.045009 -17.614008
7.55693 -106.999821 -18.985108
6.186011 -106.578029 -19.086899
24.459246 -61.879821 -5.293875
24.647626 -60.765703 -5.282013
24.150556 -62.702631 -6.175298
24.459246 -61.879821 -5.293875
23.859154 -63.478358 -6.956315
24.004807 -62.345753 -6.92836
24.150556 -62.702631 -6.175298
25.480432 -55.507294 -7.039803
25.299983 -55.395197 -7.979173
25.134618 -56.825138 -6.96206
25.480432 -55.507294 -7.039803
24.868541 -57.930414 -6.903292
24.759331 -57.630064 -7.728486
25.134618 -56.825138 -6.96206
18.966262 -67.075913 -30.685014
19.535489 -67.68195 -29.852621
18.548833 -65.302838 -30.984537
18.966262 -67.075913 -30.685014
18.694701 -64.206924 -30.55575
18.548833 -65.302838 -30.984537
18.72935 -91.834694 -32.949652
18.921009 -93.265614 -32.569358
17.952182 -92.567997 -33.565579
19.426645 -91.05764 -32.362744
18.72935 -91.834694 -32.949652
18.457818 -90.360024 -33.358965
19.460754 -87.273007 -32.453736
19.756786 -88.752178 -32.126443
18.859081 -88.103798 -33.09935
19.033395 -85.673199 -32.896394
19.9311 -86.321579 -31.923488
19.460754 -87.273007 -32.453736
22.831947 -52.514831 -19.91876
23.083715 -52.896288 -19.086361
22.573602 -52.21035 -20.778315
22.831947 -52.514831 -19.91876
22.50844 -53.723068 -20.42837
22.270031 -51.830157 -21.596329
22.573602 -52.21035 -20.778315
22.004931 -54.614415 -21.788955
22.243541 -54.910153 -20.964569
21.998376 -56.10598 -21.4656
21.946196 -52.975792 -22.136032
22.004931 -54.614415 -21.788955
21.966132 -51.387361 -22.444437
22.270031 -51.830157 -21.596329
21.946196 -52.975792 -22.136032
21.209756 -50.569818 -24.149733
21.579899 -50.938165 -23.316905
21.272153 -52.16465 -23.816969
20.770913 -50.216476 -24.979028
21.209756 -50.569818 -24.149733
20.444489 -51.303679 -25.516011
20.313392 -49.723852 -25.845242
20.770913 -50.216476 -24.979028
20.18522 -52.497297 -26.039097
20.444489 -51.303679 -25.516011
20.642741 -52.989922 -25.172883
19.929831 -53.626446 -26.535507
19.73158 -51.940202 -26.878634
20.18522 -52.497297 -26.039097
24.639469 -71.305774 -3.778143
24.419827 -70.865814 -4.671721
24.760814 -72.496143 -3.711683
24.639469 -71.305774 -3.778143
24.926888 -73.720516 -3.721767
24.681351 -73.326103 -4.764649
24.760814 -72.496143 -3.711683
26.762097 -83.643403 -0.0431
26.87139 -85.050488 -0.236297
26.636474 -83.217499 -1.15847
26.762097 -83.643403 -0.0431
26.663323 -84.062084 -2.368084
26.505709 -82.738919 -2.288825
26.636474 -83.217499 -1.15847
27.145083 -89.905059 -5.680877
27.063118 -89.326995 -6.800807
27.044339 -88.529434 -5.426469
27.132996 -89.593425 -3.215607
27.076605 -88.15184 -3.015921
27.083296 -88.637767 -1.924989
27.157356 -90.460262 -4.662133
27.132996 -89.593425 -3.215607
27.145083 -89.905059 -5.680877
27.157356 -90.460262 -4.662133
22.713217 -104.504619 -11.397479
23.438102 -103.777611 -10.903986
23.009124 -103.915836 -9.78141
21.853534 -105.207668 -11.925937
22.282512 -105.069443 -13.048513
22.713217 -104.504619 -11.397479
20.96025 -105.824146 -12.483539
21.853534 -105.207668 -11.925937
19.997253 -106.337215 -12.980011
20.459832 -106.285561 -14.073444
20.96025 -105.824146 -12.483539
18.941527 -106.774731 -13.445124
19.997253 -106.337215 -12.980011
17.848356 -107.109616 -13.859176
18.403664 -107.133515 -14.983967
18.941527 -106.774731 -13.445124
16.688617 -107.358895 -14.285664
17.848356 -107.109616 -13.859176
15.504356 -107.516625 -14.659003
16.126231 -107.626129 -15.771358
16.688617 -107.358895 -14.285664
23.409655 -79.578193 -23.939923
23.75827 -80.974605 -23.399535
23.478513 -80.851757 -24.430219
23.081996 -78.281418 -24.479242
23.361753 -78.404267 -23.448558
23.409655 -79.578193 -23.939923
22.733448 -76.92889 -24.966261
23.081996 -78.281418 -24.479242
22.391085 -75.497872 -25.457882
22.691731 -75.676472 -24.479498
22.733448 -76.92889 -24.966261
22.024468 -73.933716 -25.870738
22.391085 -75.497872 -25.457882
21.675602 -72.301804 -26.296013
22.000502 -72.61354 -25.396394
22.024468 -73.933716 -25.870738
21.293849 -71.951538 -27.243364
21.269883 -70.631362 -26.76902
21.675602 -72.301804 -26.296013
20.862603 -71.506275 -28.146061
21.293849 -71.951538 -27.243364
20.410488 -69.816352 -28.615212
20.862603 -71.506275 -28.146061
17.47868 -95.919148 -33.209183
17.596762 -97.267384 -32.678925
16.551552 -96.542068 -33.717545
17.288655 -94.596374 -33.716544
18.333866 -95.32169 -32.677924
17.47868 -95.919148 -33.209183
17.133291 -93.271111 -34.109244
17.288655 -94.596374 -33.716544
17.952182 -92.567997 -33.565579
17.133291 -93.271111 -34.109244
16.727034 -90.368854 -34.828636
15.908143 -91.071968 -35.372301
16.472942 -88.916977 -35.151664
17.506431 -89.6852 -34.268901
16.727034 -90.368854 -34.828636
4.580842 -104.805504 -29.101539
5.546121 -105.468994 -28.120882
4.216088 -105.064995 -28.091496
3.553636 -104.035416 -30.051495
4.883669 -104.439415 -30.08088
4.580842 -104.805504 -29.101539
2.50384 -103.183594 -30.92819
3.553636 -104.035416 -30.051495
2.626498 -102.649449 -31.884589
2.50384 -103.183594 -30.92819
25.617943 -48.782263 -13.897396
25.854096 -49.08778 -12.924572
25.35492 -48.657976 -14.829531
25.617943 -48.782263 -13.897396
25.067039 -50.076149 -14.576967
25.088634 -48.392572 -15.730415
25.35492 -48.657976 -14.829531
24.55086 -49.681224 -16.402819
24.835478 -48.121934 -16.624131
25.088634 -48.392572 -15.730415
23.643958 -52.032325 -17.705748
23.849176 -50.587806 -17.950221
24.092488 -50.855106 -17.052062
23.293526 -53.19525 -18.222122
23.643958 -52.032325 -17.705748
23.536838 -53.462549 -17.323963
22.976595 -54.326511 -18.704576
23.083715 -52.896288 -19.086361
23.293526 -53.19525 -18.222122
23.492764 -83.470238 -25.434936
23.499219 -82.218918 -24.906544
23.820674 -83.499489 -24.418222
23.05162 -83.262158 -26.490535
23.492764 -83.470238 -25.434936
23.373074 -84.542729 -26.002212
22.566077 -82.866501 -27.520404
23.05162 -83.262158 -26.490535
22.566077 -82.866501 -27.520404
22.350197 -83.966656 -28.105249
14.636587 -97.570458 -34.552384
15.624669 -97.082375 -34.144783
15.681551 -98.378388 -33.594887
13.45987 -99.05986 -34.486986
14.684787 -99.92041 -33.418663
13.451188 -100.1138 -33.903162
13.531322 -97.950432 -34.964597
13.45987 -99.05986 -34.486986
14.636587 -97.570458 -34.552384
13.531322 -97.950432 -34.964597
7.687944 -105.114716 -29.915422
7.308803 -105.515808 -28.993718
6.290015 -104.808411 -30.052629
7.937548 -104.605232 -30.854062
8.956336 -105.312629 -29.795151
7.687944 -105.114716 -29.915422
5.26281 -104.038322 -31.002585
4.018838 -103.080021 -31.977105
6.815378 -103.801083 -31.847103
5.571407 -102.842781 -32.821623
8.08377 -103.998997 -31.726832
7.937548 -104.605232 -30.854062
6.815378 -103.801083 -31.847103
5.956442 -100.397221 -35.309044
5.817314 -101.299233 -34.526886
7.243252 -100.583675 -35.182055
5.956442 -100.397221 -35.309044
6.04015 -99.429283 -36.059042
8.52675 -100.661049 -35.005261
8.443043 -101.628986 -34.255262
7.243252 -100.583675 -35.182055
9.816088 -100.741642 -34.743854
8.52675 -100.661049 -35.005261
19.235862 -48.510355 -27.601305
19.44652 -50.225723 -27.254912
18.621816 -47.978679 -28.481276
19.235862 -48.510355 -27.601305
18.048382 -47.405979 -29.291274
18.621816 -47.978679 -28.481276
18.332637 -49.067691 -28.937598
17.45807 -46.81044 -30.055248
18.048382 -47.405979 -29.291274
16.815214 -46.069378 -30.872315
17.45807 -46.81044 -30.055248
17.116347 -47.753929 -30.564663
16.139667 -45.373596 -31.682249
16.815214 -46.069378 -30.872315
15.818056 -46.282455 -32.159503
16.139667 -45.373596 -31.682249
15.818056 -46.282455 -32.159503
16.232639 -48.072305 -31.810023
16.624977 -49.895994 -31.44596
17.087474 -51.835802 -31.039479
24.054571 -66.727539 -5.432695
24.099894 -65.446872 -5.423094
23.860819 -67.401283 -6.386876
24.054571 -66.727539 -5.432695
24.056719 -67.92321 -5.518721
23.95164 -69.828228 -6.525343
24.093672 -69.113426 -5.530888
24.182344 -70.3447 -5.583331
25.0873 -75.105404 -3.839083
24.926888 -73.720516 -3.721767
26.116293 -80.038525 -2.172505
26.296836 -81.370404 -2.192455
26.116293 -80.038525 -2.172505
25.919794 -79.603814 -3.21172
25.291821 -76.472035 -4.020811
25.49062 -77.822445 -4.127965
25.051946 -75.917107 -4.956461
25.0873 -75.105404 -3.839083
25.291821 -76.472035 -4.020811
27.057325 -90.722286 -9.29026
27.075691 -90.029739 -8.019671
27.145497 -91.395168 -8.325803
26.603988 -97.691044 -10.262785
26.843181 -96.476749 -9.830185
26.449185 -98.303783 -11.716054
26.603988 -97.691044 -10.262785
26.233268 -99.021217 -13.239791
26.53613 -97.817661 -12.791103
26.449185 -98.303783 -11.716054
25.664705 -100.634712 -12.742328
25.424468 -101.160141 -11.737091
25.845472 -100.149169 -13.682382
25.664705 -100.634712 -12.742328
25.363855 -101.276543 -14.259968
25.932417 -99.663048 -14.757431
26.233268 -99.021217 -13.239791
25.845472 -100.149169 -13.682382
14.244303 -107.586666 -15.070504
15.504356 -107.516625 -14.659003
12.876984 -107.565132 -15.413463
11.572318 -107.466804 -15.792438
13.57465 -107.762325 -16.487656
14.244303 -107.586666 -15.070504
12.876984 -107.565132 -15.413463
9.47157 -107.53653 -19.903792
10.185433 -107.581718 -18.532692
8.835746 -107.319512 -18.753625
10.009056 -107.648694 -20.980162
9.47157 -107.53653 -19.903792
8.65937 -107.386486 -21.201094
8.688379 -107.080265 -24.671605
9.637863 -107.419911 -23.423119
8.247373 -107.159005 -23.525951
7.683148 -106.658062 -25.818689
9.073638 -106.918968 -25.715857
8.688379 -107.080265 -24.671605
6.239629 -106.273922 -25.942639
6.624887 -106.112625 -26.986891
7.683148 -106.658062 -25.818689
4.841876 -105.839333 -26.049045
6.239629 -106.273922 -25.942639
3.896465 -105.272587 -27.036471
4.841876 -105.839333 -26.049045
24.605465 -59.062887 -6.877523
24.868541 -57.930414 -6.903292
24.506943 -60.48023 -6.116335
24.647626 -60.765703 -5.282013
24.381827 -60.133966 -6.874379
24.506943 -60.48023 -6.116335
24.171093 -61.223762 -6.905387
24.269616 -59.80642 -7.666574
24.605465 -59.062887 -6.877523
24.381827 -60.133966 -6.874379
26.231708 -49.611572 -11.120171
26.029261 -49.38361 -12.033513
25.834559 -51.037287 -11.005665
26.231708 -49.611572 -11.120171
26.385875 -49.856763 -10.263124
26.147853 -51.476535 -9.260666
26.573588 -50.069131 -9.308733
25.63617 -52.581184 -10.031723
26.147853 -51.476535 -9.260666
25.795298 -52.775241 -9.143771
24.86029 -56.391772 -8.687133
25.134864 -55.26218 -8.879051
25.299983 -55.395197 -7.979173
19.617314 -66.50441 -29.382154
20.014671 -68.174069 -29.043586
19.535489 -67.68195 -29.852621
19.042915 -60.713499 -29.179562
19.449091 -62.518532 -28.815924
18.969468 -61.990225 -29.605218
18.651508 -58.864149 -29.583672
19.13113 -59.392456 -28.794377
19.042915 -60.713499 -29.179562
18.203854 -57.034866 -30.000922
18.651508 -58.864149 -29.583672
21.439557 -84.734882 -29.779636
22.137039 -85.075603 -28.707016
21.808131 -86.211822 -29.333967
21.047348 -83.164574 -30.17747
21.439557 -84.734882 -29.779636
20.71844 -84.300793 -30.80442
20.681287 -81.695065 -30.560372
21.047348 -83.164574 -30.17747
10.521549 -90.321736 -38.500849
10.648022 -91.791493 -38.158304
11.515473 -89.935547 -38.114133
10.521549 -90.321736 -38.500849
12.52148 -89.467343 -37.656324
12.807261 -91.095494 -37.269768
11.515473 -89.935547 -38.114133
13.599353 -89.128598 -37.101673
12.52148 -89.467343 -37.656324
14.539492 -88.615269 -36.551394
14.753407 -90.113961 -36.261679
13.599353 -89.128598 -37.101673
15.40297 -88.048989 -36.017513
14.539492 -88.615269 -36.551394
16.182366 -87.365333 -35.457779
16.472942 -88.916977 -35.151664
15.40297 -88.048989 -36.017513
16.895813 -86.679203 -34.922084
16.182366 -87.365333 -35.457779
17.907694 -87.428974 -34.009287
16.895813 -86.679203 -34.922084
18.6318 -84.056602 -33.249701
19.033395 -85.673199 -32.896394
18.242328 -82.367844 -33.579822
17.789539 -80.633659 -33.929836
19.114269 -83.033013 -32.696268
18.6318 -84.056602 -33.249701
18.242328 -82.367844 -33.579822
19.99138 -81.137508 -31.473904
19.525514 -82.037369 -32.114323
19.190662 -80.444394 -32.385972
20.681287 -81.695065 -30.560372
19.99138 -81.137508 -31.473904
3 0 85 83
3 1 88 86
3 2 91 89
3 3 93 92
3 3 95 93
3 4 98 96
3 329 99 330
3 5 102 100
3 6 105 103
3 6 107 105
3 7 110 108
3 9 113 111
3 9 115 113
3 10 118 116
3 12 121 119
3 12 331 333
3 333 332 121
3 331 332 333
3 335 334 122
3 13 125 123
3 13 336 338
3 338 337 125
3 336 337 338
3 339 127 340
3 15 130 128
3 15 132 130
3 16 135 133
3 16 137 135
3 16 139 137
3 341 142 342
3 17 343 345
3 343 143 344
3 343 344 345
3 17 145 143
3 17 147 145
3 18 150 148
3 18 152 150
3 346 153 347
3 346 347 348
3 350 349 153
3 14 158 156
3 19 161 159
3 19 163 161
3 8 166 164
3 20 169 167
3 20 171 169
3 20 173 171
3 11 177 175
3 21 351 353
3 351 179 352
3 351 352 353
3 21 354 356
3 356 355 179
3 354 355 356
3 22 183 181
3 24 184 84
3 24 185 184
3 25 188 186
3 27 189 87
3 27 190 189
3 28 193 191
3 30 194 90
3 30 195 194
3 31 197 196
3 32 357 358
3 32 359 361
3 359 198 360
3 359 360 361
3 32 199 198
3 34 200 94
3 34 201 200
3 35 362 364
3 362 202 363
3 362 363 364
3 35 203 202
3 35 205 203
3 37 209 207
3 39 210 97
3 39 211 210
3 366 365 212
3 368 367 215
3 42 369 370
3 42 371 373
3 371 217 372
3 371 372 373
3 375 374 218
3 44 220 101
3 44 221 220
3 23 222 182
3 45 223 104
3 45 224 223
3 45 225 224
3 46 226 106
3 46 227 226
3 47 230 228
3 49 231 109
3 49 232 231
3 26 233 187
3 50 234 112
3 50 235 234
3 50 236 235
3 51 237 114
3 51 376 378
3 378 377 237
3 376 377 378
3 52 240 238
3 54 241 117
3 54 242 241
3 29 243 192
3 55 244 120
3 55 245 244
3 55 246 245
3 43 379 381
3 381 380 219
3 379 380 381
3 382 247 383
3 384 248 385
3 386 385 247
3 384 385 386
3 33 387 389
3 387 249 388
3 387 388 389
3 56 250 124
3 56 251 250
3 56 390 392
3 392 391 251
3 390 391 392
3 57 254 252
3 59 255 126
3 59 256 255
3 393 257 394
3 393 394 395
3 60 258 129
3 60 259 258
3 60 260 259
3 61 261 131
3 61 262 261
3 62 396 398
3 398 397 134
3 396 397 398
3 62 399 401
3 399 263 400
3 399 400 401
3 62 264 263
3 63 265 136
3 63 266 265
3 63 267 266
3 64 268 138
3 64 269 268
3 402 270 403
3 404 403 204
3 402 403 404
3 65 271 140
3 65 272 271
3 65 273 272
3 66 274 141
3 66 275 274
3 67 276 144
3 67 277 276
3 67 278 277
3 68 279 146
3 68 280 279
3 36 281 206
3 69 282 149
3 69 283 282
3 69 284 283
3 70 285 151
3 70 286 285
3 71 405 406
3 71 407 409
3 407 287 408
3 407 408 409
3 71 288 287
3 410 289 411
3 413 412 289
3 57 290 154
3 57 252 290
3 414 292 415
3 416 293 417
3 418 294 419
3 420 419 293
3 418 419 420
3 72 295 155
3 72 291 295
3 58 296 253
3 73 297 157
3 73 298 297
3 38 299 208
3 74 300 160
3 74 301 300
3 74 302 301
3 75 303 162
3 75 304 303
3 48 305 229
3 76 306 165
3 76 307 306
3 40 308 213
3 77 309 168
3 77 310 309
3 77 311 310
3 78 312 170
3 78 313 312
3 78 314 313
3 79 315 172
3 79 316 315
3 421 317 422
3 423 422 214
3 421 422 423
3 424 318 425
3 426 425 174
3 424 425 426
3 428 427 318
3 53 319 239
3 80 320 176
3 80 321 320
3 41 322 216
3 81 323 178
3 81 324 323
3 81 325 324
3 82 326 180
3 82 327 326
3 429 328 430
3 432 431 328
3 83 84 22
3 85 84 83
3 85 24 84
3 86 87 25
3 88 87 86
3 88 27 87
3 89 90 28
3 91 90 89
3 91 30 90
3 92 433 435
3 435 434 31
3 433 434 435
3 93 436 438
3 438 437 92
3 436 437 438
3 93 439 441
3 439 32 440
3 439 440 441
3 93 94 32
3 95 94 93
3 95 34 94
3 442 35 443
3 445 444 35
3 96 97 37
3 98 97 96
3 98 39 97
3 99 446 447
3 99 448 450
3 448 42 449
3 448 449 450
3 100 451 453
3 451 101 452
3 451 452 453
3 102 101 100
3 102 44 101
3 103 104 23
3 105 104 103
3 105 45 104
3 105 106 45
3 107 106 105
3 107 46 106
3 108 109 47
3 110 109 108
3 110 49 109
3 111 112 26
3 113 112 111
3 113 50 112
3 113 114 50
3 115 114 113
3 115 51 114
3 116 117 52
3 118 117 116
3 118 54 117
3 119 120 29
3 121 120 119
3 121 55 120
3 121 454 456
3 456 455 55
3 454 455 456
3 458 457 121
3 461 460 43
3 459 460 461
3 122 462 463
3 465 464 122
3 123 124 33
3 125 124 123
3 125 56 124
3 125 466 468
3 468 467 56
3 466 467 468
3 470 469 125
3 471 126 472
3 473 472 57
3 471 472 473
3 127 474 476
3 474 126 475
3 474 475 476
3 127 59 126
3 128 477 479
3 477 129 478
3 477 478 479
3 130 129 128
3 130 60 129
3 130 131 60
3 132 131 130
3 132 61 131
3 133 480 482
3 480 134 481
3 480 481 482
3 135 134 133
3 135 62 134
3 135 136 62
3 137 136 135
3 137 63 136
3 137 138 63
3 139 138 137
3 139 64 138
3 483 140 484
3 485 140 486
3 487 65 488
3 489 488 140
3 487 488 489
3 490 141 491
3 492 491 65
3 490 491 492
3 142 493 495
3 493 141 494
3 493 494 495
3 142 66 141
3 143 496 497
3 143 498 499
3 143 500 502
3 500 144 501
3 500 501 502
3 145 144 143
3 145 67 144
3 145 146 67
3 147 146 145
3 147 68 146
3 148 149 36
3 150 149 148
3 150 69 149
3 150 151 69
3 152 151 150
3 152 70 151
3 153 503 504
3 153 505 507
3 505 71 506
3 505 506 507
3 153 508 510
3 510 509 71
3 508 509 510
3 512 511 153
3 513 154 514
3 515 154 516
3 517 57 518
3 519 518 154
3 517 518 519
3 520 155 521
3 522 155 523
3 524 72 525
3 526 525 155
3 524 525 526
3 156 157 58
3 158 157 156
3 158 73 157
3 159 160 38
3 161 160 159
3 161 74 160
3 161 162 74
3 163 162 161
3 163 75 162
3 164 165 48
3 166 165 164
3 166 76 165
3 167 168 40
3 169 168 167
3 169 77 168
3 169 170 77
3 171 170 169
3 171 78 170
3 171 172 78
3 173 172 171
3 173 79 172
3 527 174 528
3 529 174 530
3 532 531 174
3 175 176 53
3 177 176 175
3 177 80 176
3 533 178 534
3 535 534 41
3 533 534 535
3 179 536 538
3 536 178 537
3 536 537 538
3 179 81 178
3 179 180 81
3 539 180 540
3 541 540 179
3 539 540 541
3 542 82 543
3 544 543 180
3 542 543 544
3 181 182 5
3 183 182 181
3 183 23 182
3 84 183 22
3 184 183 84
3 184 23 183
3 184 103 23
3 185 103 184
3 185 6 103
3 186 187 7
3 188 187 186
3 188 26 187
3 87 188 25
3 189 188 87
3 189 26 188
3 189 111 26
3 190 111 189
3 190 9 111
3 191 192 10
3 193 192 191
3 193 29 192
3 90 193 28
3 194 193 90
3 194 29 193
3 194 119 29
3 195 119 194
3 195 12 119
3 196 545 546
3 197 547 549
3 549 548 196
3 547 548 549
3 197 550 551
3 552 197 553
3 554 553 31
3 552 553 554
3 555 197 556
3 559 558 197
3 557 558 559
3 198 560 562
3 560 561 562
3 198 563 564
3 198 565 567
3 565 566 567
3 199 568 570
3 570 569 198
3 568 569 570
3 199 571 573
3 571 33 572
3 571 572 573
3 94 199 32
3 200 199 94
3 200 33 199
3 200 123 33
3 201 123 200
3 201 13 123
3 574 128 575
3 576 128 577
3 578 15 579
3 580 579 128
3 578 579 580
3 202 581 582
3 202 583 584
3 202 585 587
3 585 133 586
3 585 586 587
3 203 133 202
3 203 16 133
3 203 204 16
3 205 204 203
3 205 588 590
3 590 589 204
3 588 589 590
3 591 205 592
3 593 592 35
3 591 592 593
3 594 205 595
3 597 596 205
3 598 17 599
3 598 599 600
3 601 206 602
3 603 602 17
3 601 602 603
3 604 206 605
3 606 36 607
3 608 607 206
3 606 607 608
3 609 36 610
3 611 148 612
3 613 612 36
3 611 612 613
3 614 148 615
3 616 18 617
3 618 617 148
3 616 617 618
3 207 208 14
3 209 208 207
3 209 38 208
3 97 209 37
3 210 209 97
3 210 38 209
3 210 159 38
3 211 159 210
3 211 19 159
3 212 213 8
3 619 213 620
3 621 620 212
3 619 620 621
3 622 40 623
3 624 623 213
3 622 623 624
3 625 40 626
3 627 167 628
3 629 628 40
3 627 628 629
3 630 167 631
3 632 20 633
3 634 633 167
3 632 633 634
3 635 214 636
3 637 636 20
3 635 636 637
3 638 214 639
3 641 640 214
3 215 216 11
3 642 216 643
3 644 643 215
3 642 643 644
3 645 41 646
3 647 646 216
3 645 646 647
3 648 41 649
3 651 650 41
3 217 652 653
3 217 654 656
3 654 21 655
3 654 655 656
3 218 219 2
3 657 219 658
3 659 658 218
3 657 658 659
3 660 43 661
3 662 661 219
3 660 661 662
3 663 43 664
3 666 665 43
3 101 667 668
3 220 669 671
3 671 670 101
3 669 670 671
3 220 672 673
3 220 674 676
3 674 122 675
3 674 675 676
3 221 122 220
3 221 677 679
3 679 678 122
3 677 678 679
3 182 102 5
3 222 102 182
3 222 44 102
3 104 222 23
3 223 222 104
3 223 44 222
3 223 221 44
3 224 221 223
3 224 680 682
3 682 681 221
3 680 681 682
3 224 683 685
3 683 196 684
3 683 684 685
3 225 196 224
3 225 31 196
3 106 225 45
3 226 225 106
3 226 31 225
3 226 92 31
3 227 92 226
3 227 3 92
3 228 229 4
3 230 229 228
3 230 48 229
3 109 230 47
3 231 230 109
3 231 48 230
3 231 164 48
3 232 164 231
3 232 8 164
3 187 110 7
3 233 110 187
3 233 49 110
3 112 233 26
3 234 233 112
3 234 49 233
3 234 232 49
3 235 232 234
3 235 8 232
3 235 212 8
3 236 212 235
3 236 686 688
3 688 687 212
3 686 687 688
3 114 236 50
3 237 236 114
3 237 689 691
3 691 690 236
3 689 690 691
3 237 692 693
3 695 694 237
3 238 239 1
3 240 239 238
3 240 53 239
3 117 240 52
3 241 240 117
3 241 53 240
3 241 175 53
3 242 175 241
3 242 11 175
3 192 118 10
3 243 118 192
3 243 54 118
3 120 243 29
3 244 243 120
3 244 54 243
3 244 242 54
3 245 242 244
3 245 11 242
3 245 215 11
3 246 215 245
3 246 696 698
3 698 697 215
3 696 697 698
3 699 246 700
3 701 700 55
3 699 700 701
3 702 246 703
3 705 704 246
3 219 91 2
3 706 91 707
3 708 707 219
3 706 707 708
3 709 30 710
3 711 710 91
3 709 710 711
3 713 712 43
3 247 714 715
3 247 716 718
3 716 30 717
3 716 717 718
3 247 195 30
3 248 195 247
3 248 12 195
3 719 248 720
3 721 248 722
3 721 722 723
3 724 12 725
3 726 725 248
3 724 725 726
3 728 727 12
3 249 729 730
3 249 731 732
3 124 249 33
3 250 249 124
3 250 733 735
3 735 734 249
3 733 734 735
3 250 736 737
3 251 738 740
3 740 739 250
3 738 739 740
3 251 741 742
3 251 743 744
3 746 745 251
3 748 747 56
3 252 253 0
3 254 253 252
3 254 58 253
3 126 254 57
3 255 254 126
3 255 58 254
3 255 156 58
3 256 156 255
3 256 14 156
3 749 127 750
3 257 751 753
3 751 127 752
3 751 752 753
3 257 59 127
3 129 754 756
3 754 257 755
3 754 755 756
3 258 257 129
3 258 59 257
3 258 256 59
3 259 256 258
3 259 14 256
3 259 207 14
3 260 207 259
3 260 37 207
3 131 260 60
3 261 260 131
3 261 37 260
3 261 96 37
3 262 96 261
3 262 4 96
3 757 15 758
3 134 759 760
3 762 761 134
3 263 763 764
3 263 765 767
3 765 15 766
3 765 766 767
3 263 132 15
3 264 132 263
3 264 61 132
3 136 264 62
3 265 264 136
3 265 61 264
3 265 262 61
3 266 262 265
3 266 4 262
3 266 228 4
3 267 228 266
3 267 47 228
3 138 267 63
3 268 267 138
3 268 47 267
3 268 108 47
3 269 108 268
3 269 7 108
3 204 139 16
3 270 139 204
3 270 64 139
3 140 768 770
3 768 270 769
3 768 769 770
3 271 270 140
3 271 64 270
3 271 269 64
3 272 269 271
3 272 7 269
3 272 186 7
3 273 186 272
3 273 25 186
3 141 273 65
3 274 273 141
3 274 25 273
3 274 86 25
3 275 86 274
3 275 1 86
3 771 142 772
3 773 142 774
3 775 66 776
3 777 776 142
3 775 776 777
3 144 778 779
3 276 780 782
3 782 781 144
3 780 781 782
3 276 783 785
3 783 66 784
3 783 784 785
3 276 275 66
3 277 275 276
3 277 1 275
3 277 238 1
3 278 238 277
3 278 52 238
3 146 278 67
3 279 278 146
3 279 52 278
3 279 116 52
3 280 116 279
3 280 10 116
3 206 147 17
3 281 147 206
3 281 68 147
3 149 281 36
3 282 281 149
3 282 68 281
3 282 280 68
3 283 280 282
3 283 10 280
3 283 191 10
3 284 191 283
3 284 28 191
3 151 284 69
3 285 284 151
3 285 28 284
3 285 89 28
3 286 89 285
3 286 2 89
3 786 18 787
3 287 788 789
3 287 790 792
3 790 18 791
3 790 791 792
3 287 152 18
3 288 152 287
3 288 70 152
3 793 288 794
3 795 794 71
3 793 794 795
3 289 796 798
3 796 288 797
3 796 797 798
3 289 70 288
3 289 286 70
3 799 286 800
3 801 800 289
3 799 800 801
3 802 2 803
3 804 803 286
3 802 803 804
3 805 218 806
3 807 806 2
3 805 806 807
3 808 218 809
3 811 810 218
3 812 72 813
3 154 814 815
3 290 816 818
3 818 817 154
3 816 817 818
3 290 819 821
3 819 72 820
3 819 820 821
3 290 291 72
3 252 291 290
3 252 0 291
3 822 100 823
3 292 824 826
3 824 100 825
3 824 825 826
3 292 5 100
3 827 292 828
3 293 829 831
3 829 292 830
3 829 830 831
3 293 5 292
3 293 181 5
3 294 181 293
3 294 22 181
3 155 832 834
3 832 294 833
3 832 833 834
3 295 294 155
3 295 22 294
3 295 83 22
3 291 83 295
3 291 0 83
3 253 85 0
3 296 85 253
3 296 24 85
3 157 296 58
3 297 296 157
3 297 24 296
3 297 185 24
3 298 185 297
3 298 6 185
3 208 158 14
3 299 158 208
3 299 73 158
3 160 299 38
3 300 299 160
3 300 73 299
3 300 298 73
3 301 298 300
3 301 6 298
3 301 107 6
3 302 107 301
3 302 46 107
3 162 302 74
3 303 302 162
3 303 46 302
3 303 227 46
3 304 227 303
3 304 3 227
3 229 98 4
3 305 98 229
3 305 39 98
3 165 305 48
3 306 305 165
3 306 39 305
3 306 211 39
3 307 211 306
3 307 19 211
3 213 166 8
3 308 166 213
3 308 76 166
3 168 308 40
3 309 308 168
3 309 76 308
3 309 307 76
3 310 307 309
3 310 19 307
3 310 163 19
3 311 163 310
3 311 75 163
3 170 311 77
3 312 311 170
3 312 75 311
3 312 304 75
3 313 304 312
3 313 3 304
3 313 95 3
3 314 95 313
3 314 34 95
3 172 314 78
3 315 314 172
3 315 34 314
3 315 201 34
3 316 201 315
3 316 13 201
3 214 173 20
3 317 173 214
3 317 79 173
3 174 835 837
3 835 317 836
3 835 836 837
3 318 317 174
3 318 79 317
3 318 316 79
3 838 316 839
3 840 839 318
3 838 839 840
3 841 13 842
3 843 842 316
3 841 842 843
3 845 844 13
3 239 88 1
3 319 88 239
3 319 27 88
3 176 319 53
3 320 319 176
3 320 27 319
3 320 190 27
3 321 190 320
3 321 9 190
3 216 177 11
3 322 177 216
3 322 80 177
3 178 322 41
3 323 322 178
3 323 80 322
3 323 321 80
3 324 321 323
3 324 9 321
3 324 115 9
3 325 115 324
3 325 51 115
3 180 325 81
3 326 325 180
3 326 51 325
3 326 846 848
3 848 847 51
3 846 847 848
3 327 849 851
3 851 850 326
3 849 850 851
3 327 852 853
3 854 99 855
3 856 99 857
3 858 42 859
3 860 859 99
3 858 859 860
3 861 42 862
3 863 217 864
3 865 864 42
3 863 864 865
3 866 217 867
3 868 21 869
3 870 869 217
3 868 869 870
3 871 21 872
3 874 873 21
3 875 82 876
3 328 877 878
3 328 879 881
3 879 82 880
3 879 880 881
3 328 327 82
3 882 327 883
3 884 883 328
3 882 883 884
3 886 885 327
