ply
format ascii 1.0
element vertex 706
property float x
property float y
property float z
element face 761
property list uchar int vertex_index
end_header
38.766216 -22.581221 11.36142
13.987062 -31.798193 40.980679
38.945908 -7.819839 16.255924
36.076595 -20.651478 28.332035
35.711483 -11.526642 29.877764
31.203585 -18.454273 34.113094
35.688683 -16.099583 7.158749
38.208801 -16.130535 15.1835
38.79641 -5.076818 23.140644
38.530899 -14.04398 23.067318
38.665218 -22.508972 20.44525
36.55138 -29.317961 24.142368
38.831509 -29.493685 15.213255
37.528248 -19.277847 9.317506
36.502274 -18.60014 5.094601
38.243729 -21.913918 6.814953
39.153309 -25.218908 8.34499
16.480505 -28.304098 40.544369
19.451981 -28.690329 38.419613
38.654209 -4.304078 12.584405
36.821781 -5.21656 9.288454
37.69585 -8.889683 12.637546
37.150036 -12.804285 12.183049
38.375916 -12.095333 15.889577
35.900154 -16.097446 29.384453
37.534569 -12.759953 26.590254
37.586395 -17.388609 25.96023
38.534824 -18.436743 22.115524
37.716724 -21.785332 24.606779
36.573269 -33.080791 21.424831
37.981461 -29.688328 19.782097
37.774391 -33.066753 16.775806
38.495647 -32.436893 11.716951
37.215153 -36.01004 13.128543
39.701321 -3.108794 16.091404
35.4506 -6.958923 29.90601
33.329311 -10.23651 32.731285
33.569839 -14.934897 32.386402
33.812996 -19.507479 31.507029
33.540459 -12.99951 4.96361
34.271439 -15.51045 3.398383
25.356804 -21.423334 37.428299
22.304434 -25.039219 38.072327
35.444199 -13.19312 8.483019
37.115028 -16.458595 11.028318
38.350052 -19.477209 13.623888
39.331604 -6.453826 19.832289
37.419594 -8.181157 26.79077
38.624672 -9.635056 23.386364
38.939919 -11.015186 19.858425
38.721561 -15.286298 19.16494
38.744862 -19.077911 17.925116
38.966675 -22.739258 15.835244
28.436214 -22.221415 35.294109
31.343056 -23.173695 32.949837
34.166634 -24.04501 30.001387
36.299271 -25.114038 26.611439
37.894089 -25.833654 22.541046
38.840721 -26.154871 17.988253
39.213024 -26.000933 13.293904
39.221519 -28.862436 10.248365
38.816212 -31.311802 6.494578
38.221169 -20.880171 10.302936
37.887508 -20.670935 8.170098
38.551796 -22.356474 9.077684
38.823254 -23.631927 7.634671
38.987946 -23.980759 9.978746
15.186319 -29.972736 40.80201
16.637838 -30.169147 39.64027
38.845211 -6.061475 14.4444
38.164898 -6.567317 12.686192
38.414509 -8.310732 14.391503
38.091167 -10.510106 14.332631
38.616863 -10.10103 16.136883
35.965481 -18.372618 28.967901
36.777763 -16.750849 27.830156
36.912445 -18.983231 27.199076
37.656384 -19.656946 25.326317
37.008064 -21.260544 26.479818
35.705276 -34.869858 22.094826
36.4566 -34.968548 19.812952
37.22451 -33.140007 19.222664
37.073284 -34.896317 17.38098
37.583584 -34.539696 14.928283
33.250893 -7.997907 32.660397
31.031517 -16.279995 34.585114
32.375004 -16.629536 33.380451
33.687405 -17.188047 32.019676
32.514622 -19.030685 32.878071
34.597965 -14.53118 5.980788
33.775177 -14.327919 4.152181
34.995167 -15.913502 5.250151
21.03709 -29.016983 37.415638
34.483902 -11.519187 7.115443
35.529255 -11.341099 8.871171
37.700554 -14.523726 13.611208
37.061886 -14.737959 11.691526
37.6744 -16.2633 12.981104
37.81028 -18.037434 12.297953
38.207527 -17.781675 14.352335
39.307339 -3.564208 21.339325
39.552769 -4.186754 19.633673
39.180798 -5.798691 21.454426
35.637115 -9.295837 29.880209
36.559643 -7.509757 28.308546
36.643063 -9.892589 28.357651
38.137447 -13.500573 24.842899
38.109192 -11.114757 25.124498
38.552647 -11.945884 23.345957
38.89048 -10.308393 21.647802
38.798019 -12.504244 21.394291
38.800026 -13.320929 19.638405
38.719547 -14.74004 21.257984
38.59956 -20.493134 21.290966
38.732243 -18.804087 20.018343
38.80085 -20.771013 19.119158
38.834789 -20.990992 16.989529
38.896198 -22.736053 18.166807
25.41136 -23.473927 36.791573
26.962364 -21.670391 36.375732
27.010477 -23.963711 35.707527
36.421822 -27.314631 25.447775
37.209911 -25.466599 24.588924
37.254601 -27.434322 23.534327
38.456173 -29.621235 17.638187
38.478157 -27.884886 19.022499
38.85812 -27.967747 16.645266
39.091763 -26.184994 15.589038
39.117748 -27.840607 14.212956
39.259785 -27.433975 11.877712
39.07383 -29.296629 12.74074
38.184536 -33.683262 9.855011
38.699863 -31.929962 9.028061
29.699263 -18.114546 35.336185
36.670338 -17.686363 8.245311
36.044502 -17.413607 6.221987
37.029179 -19.00457 7.188686
37.449455 -20.211632 5.945671
38.570026 -23.046827 5.221735
39.022858 -24.742945 5.920394
39.264973 -26.527399 6.85752
19.348295 -26.683674 39.248199
18.005878 -28.379196 39.436977
37.823395 -4.950696 10.999256
37.281315 -7.068265 10.951294
36.535145 -11.131705 10.7171
37.371082 -10.841258 12.485431
37.829258 -12.560001 14.021667
38.227909 -14.100849 15.564597
35.812717 -13.92781 29.690279
36.688583 -12.252232 28.324415
36.786762 -14.438566 28.057789
37.514332 -15.122728 26.452759
38.119419 -15.687 24.615988
38.501205 -16.25515 22.771931
38.126404 -17.911213 24.207748
38.202347 -20.122744 23.439199
38.289436 -22.139477 22.543779
33.764671 -36.670921 24.66964
34.711239 -34.877838 24.247679
35.660717 -33.089561 23.629541
36.571941 -31.332287 22.816696
37.328995 -29.521881 22.082476
37.334839 -31.317919 20.688334
37.898643 -31.431118 18.416174
38.401703 -31.197266 15.939919
38.719219 -31.005802 13.544765
38.199341 -32.775982 14.34951
37.930031 -34.147507 12.604197
37.553169 -35.429546 10.566282
39.293644 -3.719681 14.315279
39.310135 -5.534596 16.261997
34.364891 -6.276489 31.193306
34.444695 -8.590429 31.368855
34.511032 -10.859467 31.429171
32.192974 -12.173218 33.87899
33.520573 -12.568441 32.556362
34.740925 -13.169407 31.153397
34.792896 -15.598151 30.938808
34.869747 -17.979706 30.548382
35.022251 -20.223906 29.939941
35.426258 -17.043583 4.213107
34.816689 -16.51 2.268439
25.249298 -19.155815 38.121796
23.728466 -21.095573 38.531815
23.87488 -23.207064 37.768883
23.945528 -25.310078 37.053116
20.959993 -26.964294 38.168594
22.555292 -27.223562 37.191261
34.431271 -13.109122 6.596252
35.455261 -14.740139 7.80905
36.377048 -13.053329 10.405742
36.327896 -14.81446 9.804356
36.430302 -16.337648 9.069024
37.247253 -17.864061 10.210531
37.96582 -19.456848 11.371692
38.515617 -21.028788 12.47435
13.833439 -29.843397 42.021461
12.671994 -31.664085 42.227982
39.835945 -2.624149 17.813074
39.533897 -4.966807 18.025185
39.255688 -7.183044 18.122614
36.412807 -5.318897 28.25939
37.376614 -5.810741 26.65959
38.134933 -6.599848 25.063169
37.456585 -10.478143 26.808674
38.078991 -8.993787 25.265894
38.673798 -7.302414 23.445993
39.023575 -7.9692 21.662672
39.127281 -8.665726 19.876577
38.991837 -9.387856 18.049391
38.77763 -11.60925 17.973093
38.616379 -13.606516 17.608114
38.53907 -15.651011 17.156298
38.702461 -16.772362 20.740364
38.708126 -17.26754 18.676058
38.542107 -17.673302 16.487488
38.617188 -19.421871 15.776585
38.732365 -21.095919 14.680305
38.919876 -22.768435 13.571072
26.803574 -19.422163 37.048492
28.354239 -19.889345 35.921539
29.820436 -20.32851 34.800541
31.24383 -20.810469 33.609779
32.642799 -21.340223 32.279995
33.986542 -21.831013 30.805513
35.17971 -22.442478 29.199425
35.238682 -24.645977 28.452801
36.217484 -22.893373 27.501551
37.083801 -23.5455 25.62788
37.817379 -23.750904 23.666845
38.359333 -24.185495 21.553663
37.928101 -27.883123 21.282362
38.424709 -26.100407 20.374327
38.767464 -24.353785 19.24264
39.010155 -24.457762 16.879642
39.113941 -24.488958 14.565876
39.104168 -24.337484 12.191789
39.237129 -25.728518 10.853241
39.303204 -27.081749 9.319995
39.272995 -28.392757 7.638644
38.943501 -30.658352 10.92433
39.07988 -30.117117 8.400819
14.662986 -31.865122 40.425899
15.262615 -30.952393 40.336565
14.58669 -30.885465 40.891345
36.358896 -35.80276 18.964481
36.003799 -35.839962 20.203391
36.667238 -35.766644 17.748496
36.764942 -34.932433 18.596966
36.358896 -35.80276 18.964481
36.937983 -35.642263 16.522423
36.667238 -35.766644 17.748496
35.658527 -10.382995 8.976035
35.100848 -10.462345 8.132472
39.051874 -4.320513 22.239984
39.044998 -3.244316 22.241894
38.789534 -4.000621 23.142553
26.285397 -24.803346 35.878553
26.210918 -23.718819 36.24955
25.485838 -24.558454 36.420576
36.028776 -29.152372 25.218768
36.119803 -30.165405 24.525919
36.486601 -28.316296 24.795071
35.963997 -28.150707 25.871471
36.028776 -29.152372 25.218768
38.264941 -33.392628 8.512176
37.980024 -34.247326 8.897424
28.992269 -17.839474 35.893335
29.654432 -16.938847 35.554989
38.063382 -21.620901 5.666809
37.666245 -20.769759 5.232168
37.846592 -21.062775 6.380312
38.406878 -22.480373 6.018344
38.22653 -22.187356 4.8702
38.063382 -21.620901 5.666809
17.243192 -28.341647 39.990673
17.892807 -27.431794 39.916313
17.130121 -27.394245 40.470009
17.374139 -30.363998 39.093308
16.750687 -31.19603 39.188473
38.238802 -4.627387 11.79183
38.116621 -3.742494 10.91588
38.532028 -3.419185 11.708455
37.241863 -8.991623 11.699082
37.034595 -8.080914 10.855956
37.488582 -7.978974 11.79442
37.533466 -9.865471 12.561488
37.079479 -9.96741 11.623024
37.241863 -8.991623 11.699082
34.722676 -35.764925 23.509227
34.237955 -35.774379 24.45866
34.249392 -36.661467 23.720208
39.497483 -3.414238 15.203342
39.510323 -2.634192 14.255796
39.714161 -2.328749 15.143858
33.713772 -6.05301 31.891205
34.232509 -5.180719 31.155212
31.540919 -13.038647 34.415075
31.461957 -11.864418 34.540531
33.545206 -13.751669 32.471382
32.94997 -13.463108 33.081103
32.974604 -14.646336 32.996122
33.055725 -12.85054 4.106313
32.961597 -12.149553 4.426298
33.622141 -14.701804 2.94544
33.37401 -14.110538 3.322339
34.023308 -14.919185 3.775282
33.934956 -15.252707 2.510697
33.622141 -14.701804 2.94544
35.180546 -17.013531 1.60366
35.413052 -17.320535 2.610921
34.533291 -16.184264 1.267297
35.180546 -17.013531 1.60366
22.920977 -20.948599 39.108238
23.662458 -20.054405 38.894649
23.089657 -24.123141 37.920605
23.087081 -23.066364 38.292748
22.301858 -23.982441 38.444469
22.632485 -28.282198 36.809532
21.796191 -28.120272 37.303449
21.873383 -29.178908 36.92172
23.337944 -27.342703 36.73238
22.632485 -28.282198 36.809532
36.607113 -4.197453 8.501027
37.159485 -4.131296 9.322093
13.718502 -28.943208 42.607695
14.435973 -28.975892 41.916404
11.986306 -31.682909 42.931822
12.560628 -30.779398 42.793919
12.119209 -32.559908 42.360203
11.986306 -31.682909 42.931822
39.793054 -2.303342 18.630001
39.967575 -1.478289 17.743663
35.931703 -6.13891 29.0827
35.873102 -4.939589 28.970796
35.391998 -5.759602 29.794106
30.653552 -22.93423 33.537941
30.762194 -24.057344 33.153113
31.293443 -21.992082 33.279808
30.603939 -21.752617 33.867912
30.653552 -22.93423 33.537941
34.076588 -22.938012 30.40345
33.426721 -22.718849 31.147519
33.516768 -23.825847 30.745456
35.768976 -24.880007 27.53212
35.346853 -25.729982 27.895375
35.877148 -25.964013 26.974694
38.978678 -30.381405 6.169874
39.110512 -29.784063 7.122995
38.948046 -30.71446 7.447698
38.854769 -30.903556 5.200964
38.978678 -30.381405 6.169874
15.988374 -31.050599 39.755695
15.912078 -30.070941 40.22114
15.262615 -30.952393 40.336565
16.750687 -31.19603 39.188473
15.988374 -31.050599 39.755695
35.628137 -35.790617 21.344328
35.219694 -35.760935 22.4328
36.080938 -34.919203 20.953889
35.628137 -35.790617 21.344328
36.003799 -35.839962 20.203391
37.193133 -35.463953 15.296074
37.328434 -34.718007 16.154632
36.937983 -35.642263 16.522423
37.008917 -36.199125 14.396204
37.399369 -35.274868 14.028413
37.193133 -35.463953 15.296074
39.872324 -2.033927 16.019734
39.714161 -2.328749 15.143858
32.562542 -7.72764 33.331984
33.156773 -6.913719 32.624751
32.637081 -8.911116 33.339243
32.562542 -7.72764 33.331984
32.67629 -10.030418 33.374687
33.290102 -9.117209 32.695841
32.637081 -8.911116 33.339243
31.705443 -15.318885 34.095478
30.96019 -15.092035 34.768137
32.377186 -15.493656 33.493147
31.705443 -15.318885 34.095478
31.70326 -16.454766 33.982782
32.972421 -15.782217 32.883426
32.974604 -14.646336 32.996122
32.377186 -15.493656 33.493147
36.255844 -18.365606 4.024002
36.765837 -19.155576 4.411606
21.519086 -24.905843 38.594593
22.301858 -23.982441 38.444469
20.329639 -29.912943 37.505264
20.244535 -28.853656 37.917625
19.537085 -29.749616 38.007252
21.179873 -30.05062 37.01175
20.329639 -29.912943 37.505264
21.873383 -29.178908 36.92172
21.179873 -30.05062 37.01175
36.241301 -5.305984 8.46467
36.536101 -6.254812 9.250985
34.578171 -10.551388 7.254608
34.044487 -10.639561 6.51158
35.006579 -11.430143 7.993307
34.578171 -10.551388 7.254608
35.100848 -10.462345 8.132472
39.360304 -2.420338 21.237526
39.044998 -3.244316 22.241894
39.528751 -2.773371 20.393127
39.360304 -2.420338 21.237526
39.430054 -3.875481 20.486499
39.651466 -3.084644 19.540301
39.528751 -2.773371 20.393127
31.514007 -24.247501 32.507587
30.762194 -24.057344 33.153113
32.104979 -23.390189 32.219681
31.514007 -24.247501 32.507587
33.604444 -25.000678 30.309849
33.516768 -23.825847 30.745456
35.938423 -27.06431 26.392862
35.963997 -28.150707 25.871471
36.360546 -26.214334 26.029607
35.877148 -25.964013 26.974694
35.938423 -27.06431 26.392862
38.522604 -32.515978 8.098702
38.4422 -32.806612 9.441536
38.264941 -33.392628 8.512176
38.580779 -32.206898 6.83196
38.758038 -31.620882 7.761319
38.522604 -32.515978 8.098702
38.64135 -31.827223 5.54214
38.580779 -32.206898 6.83196
30.32056 -16.021571 35.179453
30.96019 -15.092035 34.768137
30.36539 -17.197271 34.96065
30.32056 -16.021571 35.179453
29.654432 -16.938847 35.554989
37.239428 -19.961322 4.837141
36.765837 -19.155576 4.411606
36.975865 -19.405886 5.520136
37.239428 -19.961322 4.837141
37.666245 -20.769759 5.232168
38.435844 -22.717402 4.046079
38.22653 -22.187356 4.8702
38.717954 -23.619391 4.376712
38.435844 -22.717402 4.046079
38.94437 -24.46745 4.726042
38.717954 -23.619391 4.376712
38.796442 -23.894886 5.571065
39.100367 -25.34754 5.0864
38.94437 -24.46745 4.726042
39.221424 -26.239767 5.554963
39.100367 -25.34754 5.0864
39.143915 -25.635172 6.388957
39.263374 -27.056459 5.926756
39.221424 -26.239767 5.554963
18.564016 -26.584033 39.821924
19.293917 -25.629795 39.716999
18.677087 -27.531435 39.342588
18.564016 -26.584033 39.821924
17.892807 -27.431794 39.916313
18.05816 -29.469023 38.991661
17.321858 -29.274172 39.538623
17.374139 -30.363998 39.093308
18.781211 -29.624589 38.482979
18.728929 -28.534762 38.928295
18.05816 -29.469023 38.991661
19.537085 -29.749616 38.007252
18.781211 -29.624589 38.482979
37.660292 -3.998364 10.177494
38.116621 -3.742494 10.91588
37.322588 -5.083628 10.143855
37.159485 -4.131296 9.322093
37.660292 -3.998364 10.177494
36.765867 -7.180665 10.082405
36.536101 -6.254812 9.250985
37.051548 -6.142413 10.119874
36.765867 -7.180665 10.082405
37.034595 -8.080914 10.855956
36.66151 -10.112634 10.738858
36.161473 -10.278298 9.898999
36.953114 -10.986482 11.601266
36.66151 -10.112634 10.738858
37.079479 -9.96741 11.623024
38.481823 -4.702796 23.981973
38.789534 -4.000621 23.142553
33.709749 -35.672079 25.403887
33.185604 -36.568071 25.63089
34.183033 -34.775537 25.192906
33.709749 -35.672079 25.403887
34.237955 -35.774379 24.45866
34.698 -33.885107 24.913123
34.183033 -34.775537 25.192906
35.208258 -34.873848 23.171253
34.722676 -35.764925 23.509227
35.219694 -35.760935 22.4328
35.172739 -32.990969 24.604053
34.698 -33.885107 24.913123
35.185978 -33.9837 23.93861
35.674471 -32.051206 24.269506
35.172739 -32.990969 24.604053
36.130083 -31.172569 23.863083
35.674471 -32.051206 24.269506
36.116329 -32.210924 23.223118
36.561661 -30.325124 23.479532
36.119803 -30.165405 24.525919
36.130083 -31.172569 23.863083
37.664341 -35.120468 9.253059
37.980024 -34.247326 8.897424
37.868853 -34.556404 10.210646
14.120542 -32.719651 40.514015
13.402369 -32.66208 41.126335
38.916538 -3.158576 12.522649
38.532028 -3.419185 11.708455
39.236255 -2.866378 13.388086
39.510323 -2.634192 14.255796
38.973927 -4.01188 13.449842
38.916538 -3.158576 12.522649
39.236255 -2.866378 13.388086
34.849144 -5.418385 30.437753
34.232509 -5.180719 31.155212
34.907746 -6.617706 30.549658
35.391998 -5.759602 29.794106
34.849144 -5.418385 30.437753
33.807892 -7.137198 31.926852
33.713772 -6.05301 31.891205
33.156773 -6.913719 32.624751
32.108122 -10.998772 33.94854
31.461957 -11.864418 34.540531
32.761142 -11.204864 33.305138
32.67629 -10.030418 33.374687
32.108122 -10.998772 33.94854
32.286171 -13.265497 33.742417
31.540919 -13.038647 34.415075
32.856774 -12.370829 33.217676
32.286171 -13.265497 33.742417
32.94997 -13.463108 33.081103
33.226215 -37.535521 24.954821
33.185604 -36.568071 25.63089
33.738615 -37.586946 23.977597
33.226215 -37.535521 24.954821
34.249392 -36.661467 23.720208
33.738615 -37.586946 23.977597
33.173085 -13.514744 3.700598
33.055725 -12.85054 4.106313
33.657818 -13.663715 4.557895
33.173085 -13.514744 3.700598
33.37401 -14.110538 3.322339
35.717836 -17.587327 3.583255
35.964266 -17.821862 4.653854
36.255844 -18.365606 4.024002
35.121473 -16.776792 3.240773
35.717836 -17.587327 3.583255
35.413052 -17.320535 2.610921
34.207581 -15.752482 1.945725
33.934956 -15.252707 2.510697
34.544064 -16.010225 2.833411
34.207581 -15.752482 1.945725
34.533291 -16.184264 1.267297
24.422874 -19.084526 38.68964
25.150439 -18.060901 38.46152
24.488882 -20.125694 38.326806
24.422874 -19.084526 38.68964
23.662458 -20.054405 38.894649
23.013874 -22.010618 38.674214
22.920977 -20.948599 39.108238
23.801673 -22.151319 38.150349
23.013874 -22.010618 38.674214
23.087081 -23.066364 38.292748
24.752922 -25.47653 36.551348
25.485838 -24.558454 36.420576
24.678444 -24.392003 36.922345
20.041016 -25.728071 39.182529
19.293917 -25.629795 39.716999
20.846865 -25.868381 38.642726
20.041016 -25.728071 39.182529
20.154144 -26.823984 38.708396
21.632213 -26.001756 38.120461
21.519086 -24.905843 38.594593
20.846865 -25.868381 38.642726
24.033062 -26.38596 36.663308
23.25041 -26.26682 37.122189
23.337944 -27.342703 36.73238
24.752922 -25.47653 36.551348
24.033062 -26.38596 36.663308
14.662986 -31.865122 40.425899
14.120542 -32.719651 40.514015
36.607113 -4.197453 8.501027
36.241301 -5.305984 8.46467
33.496643 -12.243145 5.232808
32.961597 -12.149553 4.426298
33.968364 -11.502983 6.308725
34.044487 -10.639561 6.51158
33.942049 -12.297951 6.049129
33.968364 -11.502983 6.308725
34.457587 -12.314155 6.855847
33.985865 -13.054316 5.779931
33.496643 -12.243145 5.232808
33.942049 -12.297951 6.049129
36.0322 -11.236402 9.794135
35.658527 -10.382995 8.976035
36.161473 -10.278298 9.898999
16.441903 -27.326403 41.035536
17.130121 -27.394245 40.470009
15.759506 -28.206243 41.177858
16.441903 -27.326403 41.035536
15.112413 -29.040562 41.306679
15.833412 -29.138417 40.67319
15.759506 -28.206243 41.177858
14.509879 -29.908067 41.411736
15.112413 -29.040562 41.306679
14.435973 -28.975892 41.916404
13.14135 -29.869054 42.690658
13.718502 -28.943208 42.607695
13.252717 -30.753741 42.124721
13.14135 -29.869054 42.690658
12.560628 -30.779398 42.793919
12.744835 -32.595026 41.749987
13.402369 -32.66208 41.126335
13.329528 -31.731139 41.604331
12.744835 -32.595026 41.749987
12.119209 -32.559908 42.360203
39.939636 -1.791604 16.88057
39.967575 -1.478289 17.743663
39.768633 -2.866472 16.952239
39.872324 -2.033927 16.019734
39.939636 -1.791604 16.88057
39.694357 -3.405451 18.723374
39.793054 -2.303342 18.630001
39.651466 -3.084644 19.540301
36.351985 -4.191276 28.139795
35.873102 -4.939589 28.970796
36.866816 -4.497324 27.355809
36.351985 -4.191276 28.139795
37.348719 -4.743246 26.555909
36.866816 -4.497324 27.355809
36.894711 -5.564819 27.45949
37.771925 -5.069757 25.741446
37.348719 -4.743246 26.555909
38.151084 -5.46431 24.943235
37.771925 -5.069757 25.741446
37.755773 -6.205294 25.861379
38.465671 -5.838333 24.101906
38.481823 -4.702796 23.981973
38.151084 -5.46431 24.943235
25.973388 -18.209712 37.861767
25.150439 -18.060901 38.46152
26.750526 -18.342886 37.325115
25.973388 -18.209712 37.861767
26.026436 -19.288989 37.585144
27.544424 -18.493282 36.749488
26.750526 -18.342886 37.325115
28.319757 -18.726873 36.186012
27.544424 -18.493282 36.749488
27.578907 -19.655754 36.485016
29.026751 -19.001945 35.628862
28.992269 -17.839474 35.893335
28.319757 -18.726873 36.186012
27.097121 -25.067438 35.331905
26.285397 -24.803346 35.878553
27.822525 -24.165342 35.144735
27.097121 -25.067438 35.331905
28.535393 -23.294193 34.938026
27.723346 -23.092563 35.500818
27.822525 -24.165342 35.144735
29.200131 -22.45809 34.710077
28.535393 -23.294193 34.938026
29.892242 -21.511637 34.463293
29.128325 -21.274963 35.047325
29.200131 -22.45809 34.710077
30.532133 -20.56949 34.20516
29.892242 -21.511637 34.463293
30.603939 -21.752617 33.867912
32.75485 -22.473454 31.88476
31.992928 -22.256959 32.614916
32.104979 -23.390189 32.219681
33.31467 -21.585618 31.542754
32.75485 -22.473454 31.88476
33.426721 -22.718849 31.147519
34.242953 -25.205427 29.533183
33.604444 -25.000678 30.309849
34.778976 -25.50591 28.75889
35.346853 -25.729982 27.895375
34.702658 -24.345493 29.227094
34.242953 -25.205427 29.533183
34.778976 -25.50591 28.75889
39.267386 -27.989138 6.317319
39.263374 -27.056459 5.926756
39.268984 -27.460078 7.248082
39.20707 -28.921883 6.741907
39.176438 -29.254937 8.019732
39.110512 -29.784063 7.122995
39.267386 -27.989138 6.317319
39.20707 -28.921883 6.741907
38.854769 -30.903556 5.200964
38.64135 -31.827223 5.54214
36.794796 -36.924532 13.555734
37.008917 -36.199125 14.396204
36.98753 -36.653902 12.258
36.794796 -36.924532 13.555734
36.567173 -37.568394 12.685191
37.156538 -36.363655 10.976869
37.384161 -35.719793 11.847413
36.98753 -36.653902 12.258
37.289471 -36.062843 9.658804
37.156538 -36.363655 10.976869
37.664341 -35.120468 9.253059
37.289471 -36.062843 9.658804
3 0 64 62
3 0 66 64
3 1 243 245
3 245 244 67
3 243 244 245
3 2 71 69
3 2 73 71
3 3 76 74
3 3 78 76
3 246 80 247
3 248 82 249
3 250 249 80
3 248 249 250
3 252 251 82
3 5 86 85
3 5 88 86
3 6 91 89
3 253 94 254
3 7 97 95
3 7 99 97
3 8 255 257
3 255 100 256
3 255 256 257
3 8 102 100
3 4 105 103
3 9 108 106
3 9 110 108
3 9 112 110
3 10 115 113
3 10 117 115
3 258 120 259
3 260 259 118
3 258 259 260
3 11 261 262
3 11 263 265
3 263 121 264
3 263 264 265
3 11 123 121
3 12 126 124
3 12 128 126
3 12 130 128
3 267 266 131
3 268 133 269
3 13 136 134
3 15 137 63
3 15 270 272
3 272 271 137
3 270 271 272
3 15 273 275
3 273 138 274
3 273 274 275
3 16 139 65
3 16 140 139
3 17 276 278
3 276 142 277
3 276 277 278
3 280 279 68
3 19 281 283
3 281 143 282
3 281 282 283
3 21 144 70
3 21 284 286
3 286 285 144
3 284 285 286
3 21 287 289
3 287 146 288
3 287 288 289
3 23 147 72
3 23 148 147
3 24 151 149
3 26 152 75
3 26 153 152
3 26 155 153
3 28 156 77
3 28 157 156
3 290 159 291
3 292 291 158
3 290 291 292
3 29 160 79
3 29 161 160
3 29 163 161
3 31 164 81
3 31 165 164
3 31 167 165
3 33 168 83
3 33 169 168
3 34 293 295
3 293 170 294
3 293 294 295
3 34 171 170
3 296 172 297
3 36 173 84
3 36 174 173
3 298 175 299
3 37 300 302
3 300 176 301
3 300 301 302
3 37 177 176
3 37 178 177
3 38 179 87
3 38 180 179
3 39 303 304
3 40 305 307
3 307 306 90
3 305 306 307
3 40 308 309
3 14 181 135
3 310 182 311
3 313 312 182
3 314 184 315
3 42 316 318
3 316 185 317
3 316 317 318
3 42 186 185
3 18 187 141
3 319 188 320
3 321 320 92
3 319 320 321
3 323 322 188
3 20 324 325
3 43 189 93
3 43 190 189
3 22 191 145
3 44 192 96
3 44 193 192
3 44 194 193
3 45 195 98
3 45 196 195
3 326 197 327
3 328 198 329
3 331 330 198
3 332 199 333
3 46 200 101
3 46 201 200
3 35 334 336
3 334 202 335
3 334 335 336
3 47 203 104
3 47 204 203
3 25 205 150
3 48 206 107
3 48 207 206
3 48 208 207
3 49 209 109
3 49 210 209
3 49 211 210
3 50 212 111
3 50 213 212
3 27 214 154
3 51 215 114
3 51 216 215
3 51 217 216
3 52 218 116
3 52 219 218
3 41 220 183
3 53 221 119
3 53 222 221
3 54 337 338
3 54 339 341
3 339 223 340
3 339 340 341
3 54 224 223
3 55 342 344
3 342 225 343
3 342 343 344
3 55 226 225
3 56 345 347
3 345 227 346
3 345 346 347
3 56 228 227
3 56 229 228
3 57 230 122
3 57 231 230
3 30 232 162
3 58 233 125
3 58 234 233
3 58 235 234
3 59 236 127
3 59 237 236
3 59 238 237
3 60 239 129
3 60 240 239
3 32 241 166
3 61 242 132
3 61 348 350
3 350 349 242
3 348 349 350
3 61 351 352
3 62 63 13
3 64 63 62
3 64 15 63
3 64 65 15
3 66 65 64
3 66 16 65
3 67 68 17
3 353 68 354
3 355 354 67
3 353 354 355
3 357 356 68
3 69 70 19
3 71 70 69
3 71 21 70
3 71 72 21
3 73 72 71
3 73 23 72
3 74 75 24
3 76 75 74
3 76 26 75
3 76 77 26
3 78 77 76
3 78 28 77
3 358 79 359
3 80 360 362
3 360 79 361
3 360 361 362
3 80 29 79
3 80 81 29
3 82 81 80
3 82 31 81
3 82 83 31
3 363 83 364
3 365 364 82
3 363 364 365
3 366 33 367
3 368 367 83
3 366 367 368
3 369 34 370
3 371 84 372
3 373 84 374
3 375 36 376
3 377 376 84
3 375 376 377
3 85 378 379
3 86 380 382
3 382 381 85
3 380 381 382
3 86 383 385
3 383 37 384
3 383 384 385
3 86 87 37
3 88 87 86
3 88 38 87
3 89 90 39
3 91 90 89
3 91 40 90
3 387 386 14
3 388 42 389
3 390 92 391
3 392 391 18
3 390 391 392
3 393 92 394
3 396 395 92
3 398 397 20
3 399 93 400
3 94 401 403
3 401 93 402
3 401 402 403
3 94 43 93
3 95 96 22
3 97 96 95
3 97 44 96
3 97 98 44
3 99 98 97
3 99 45 98
3 100 404 405
3 100 406 407
3 100 408 410
3 408 101 409
3 408 409 410
3 102 101 100
3 102 46 101
3 103 104 35
3 105 104 103
3 105 47 104
3 106 107 25
3 108 107 106
3 108 48 107
3 108 109 48
3 110 109 108
3 110 49 109
3 110 111 49
3 112 111 110
3 112 50 111
3 113 114 27
3 115 114 113
3 115 51 114
3 115 116 51
3 117 116 115
3 117 52 116
3 118 119 41
3 120 119 118
3 120 53 119
3 411 54 412
3 414 413 54
3 415 55 416
3 121 417 418
3 121 419 421
3 419 56 420
3 419 420 421
3 121 122 56
3 123 122 121
3 123 57 122
3 124 125 30
3 126 125 124
3 126 58 125
3 126 127 58
3 128 127 126
3 128 59 127
3 128 129 59
3 130 129 128
3 130 60 129
3 131 132 32
3 422 132 423
3 424 423 131
3 422 423 424
3 425 61 426
3 427 426 132
3 425 426 427
3 429 428 61
3 430 85 431
3 133 432 434
3 432 85 433
3 432 433 434
3 133 5 85
3 134 135 6
3 136 135 134
3 136 14 135
3 63 136 13
3 137 136 63
3 137 14 136
3 137 435 437
3 437 436 14
3 435 436 437
3 439 438 137
3 138 440 441
3 138 442 443
3 65 138 15
3 139 138 65
3 139 444 446
3 446 445 138
3 444 445 446
3 139 447 448
3 140 449 451
3 451 450 139
3 449 450 451
3 140 452 453
3 454 141 455
3 142 456 458
3 456 141 457
3 456 457 458
3 142 18 141
3 68 142 17
3 459 142 460
3 461 460 68
3 459 460 461
3 462 18 463
3 464 463 142
3 462 463 464
3 466 465 18
3 143 467 468
3 143 469 471
3 469 20 470
3 469 470 471
3 70 143 19
3 144 143 70
3 144 20 143
3 144 472 474
3 474 473 20
3 472 473 474
3 476 475 144
3 477 145 478
3 146 479 481
3 479 145 480
3 479 480 481
3 146 22 145
3 72 146 21
3 147 146 72
3 147 22 146
3 147 95 22
3 148 95 147
3 148 7 95
3 482 8 483
3 149 150 4
3 151 150 149
3 151 25 150
3 75 151 24
3 152 151 75
3 152 25 151
3 152 106 25
3 153 106 152
3 153 9 106
3 153 154 9
3 155 154 153
3 155 27 154
3 77 155 26
3 156 155 77
3 156 27 155
3 156 113 27
3 157 113 156
3 157 10 113
3 158 484 485
3 159 486 488
3 488 487 158
3 486 487 488
3 159 489 490
3 79 491 493
3 491 159 492
3 491 492 493
3 160 159 79
3 160 494 496
3 496 495 159
3 494 495 496
3 160 497 498
3 161 499 501
3 501 500 160
3 499 500 501
3 161 502 504
3 502 11 503
3 502 503 504
3 161 162 11
3 163 162 161
3 163 30 162
3 81 163 29
3 164 163 81
3 164 30 163
3 164 124 30
3 165 124 164
3 165 12 124
3 165 166 12
3 167 166 165
3 167 32 166
3 83 167 31
3 168 167 83
3 168 32 167
3 168 131 32
3 169 131 168
3 169 505 507
3 507 506 131
3 505 506 507
3 509 508 1
3 510 19 511
3 170 512 513
3 170 514 516
3 514 19 515
3 514 515 516
3 170 69 19
3 171 69 170
3 171 2 69
3 172 517 518
3 172 519 521
3 519 35 520
3 519 520 521
3 84 522 524
3 522 172 523
3 522 523 524
3 173 172 84
3 173 35 172
3 173 103 35
3 174 103 173
3 174 4 103
3 175 525 526
3 175 527 529
3 527 36 528
3 527 528 529
3 530 175 531
3 176 532 534
3 532 175 533
3 532 533 534
3 176 36 175
3 176 174 36
3 177 174 176
3 177 4 174
3 177 149 4
3 178 149 177
3 178 24 149
3 87 178 37
3 179 178 87
3 179 24 178
3 179 74 24
3 180 74 179
3 180 3 74
3 535 158 536
3 537 158 538
3 540 539 158
3 90 541 543
3 543 542 39
3 541 542 543
3 545 544 90
3 135 91 6
3 181 91 135
3 181 40 91
3 546 181 547
3 548 547 14
3 546 547 548
3 182 549 551
3 549 181 550
3 549 550 551
3 182 40 181
3 182 552 554
3 554 553 40
3 552 553 554
3 556 555 182
3 557 183 558
3 184 559 561
3 559 183 560
3 559 560 561
3 184 41 183
3 562 184 563
3 185 564 566
3 564 184 565
3 564 565 566
3 185 41 184
3 185 118 41
3 186 118 185
3 186 567 569
3 569 568 118
3 567 568 569
3 141 570 571
3 187 572 574
3 574 573 141
3 572 573 574
3 187 575 577
3 575 42 576
3 575 576 577
3 92 187 18
3 188 187 92
3 188 42 187
3 188 186 42
3 578 186 579
3 580 579 188
3 578 579 580
3 582 581 186
3 584 583 1
3 586 585 20
3 587 39 588
3 93 589 590
3 189 591 593
3 593 592 93
3 591 592 593
3 189 594 596
3 594 39 595
3 594 595 596
3 189 89 39
3 190 89 189
3 190 6 89
3 145 597 599
3 597 94 598
3 597 598 599
3 191 94 145
3 191 43 94
3 96 191 22
3 192 191 96
3 192 43 191
3 192 190 43
3 193 190 192
3 193 6 190
3 193 134 6
3 194 134 193
3 194 13 134
3 98 194 44
3 195 194 98
3 195 13 194
3 195 62 13
3 196 62 195
3 196 0 62
3 600 17 601
3 602 17 603
3 604 67 605
3 606 605 17
3 604 605 606
3 197 607 609
3 607 67 608
3 607 608 609
3 197 1 67
3 610 197 611
3 198 612 614
3 612 197 613
3 612 613 614
3 198 1 197
3 198 615 617
3 617 616 1
3 615 616 617
3 619 618 198
3 199 620 621
3 199 622 624
3 622 34 623
3 622 623 624
3 101 625 627
3 625 199 626
3 625 626 627
3 200 199 101
3 200 34 199
3 200 171 34
3 201 171 200
3 201 2 171
3 202 628 629
3 202 630 631
3 104 202 35
3 203 202 104
3 203 632 634
3 634 633 202
3 632 633 634
3 203 635 636
3 204 637 639
3 639 638 203
3 637 638 639
3 204 640 642
3 640 8 641
3 640 641 642
3 150 105 4
3 205 105 150
3 205 47 105
3 107 205 25
3 206 205 107
3 206 47 205
3 206 204 47
3 207 204 206
3 207 8 204
3 207 102 8
3 208 102 207
3 208 46 102
3 109 208 48
3 209 208 109
3 209 46 208
3 209 201 46
3 210 201 209
3 210 2 201
3 210 73 2
3 211 73 210
3 211 23 73
3 111 211 49
3 212 211 111
3 212 23 211
3 212 148 23
3 213 148 212
3 213 7 148
3 154 112 9
3 214 112 154
3 214 50 112
3 114 214 27
3 215 214 114
3 215 50 214
3 215 213 50
3 216 213 215
3 216 7 213
3 216 99 7
3 217 99 216
3 217 45 99
3 116 217 51
3 218 217 116
3 218 45 217
3 218 196 45
3 219 196 218
3 219 0 196
3 183 643 644
3 220 645 647
3 647 646 183
3 645 646 647
3 220 648 649
3 119 220 41
3 221 220 119
3 221 650 652
3 652 651 220
3 650 651 652
3 221 653 655
3 653 133 654
3 653 654 655
3 222 133 221
3 222 5 133
3 656 120 657
3 658 120 659
3 660 53 661
3 662 661 120
3 660 661 662
3 663 53 664
3 665 222 666
3 667 666 53
3 665 666 667
3 223 668 670
3 668 222 669
3 668 669 670
3 223 5 222
3 223 88 5
3 224 88 223
3 224 38 88
3 671 224 672
3 673 672 54
3 671 672 673
3 225 674 676
3 674 224 675
3 674 675 676
3 225 38 224
3 225 180 38
3 226 180 225
3 226 3 180
3 677 55 678
3 227 679 680
3 227 681 683
3 681 55 682
3 681 682 683
3 227 226 55
3 228 226 227
3 228 3 226
3 228 78 3
3 229 78 228
3 229 28 78
3 122 229 56
3 230 229 122
3 230 28 229
3 230 157 28
3 231 157 230
3 231 10 157
3 162 123 11
3 232 123 162
3 232 57 123
3 125 232 30
3 233 232 125
3 233 57 232
3 233 231 57
3 234 231 233
3 234 10 231
3 234 117 10
3 235 117 234
3 235 52 117
3 127 235 58
3 236 235 127
3 236 52 235
3 236 219 52
3 237 219 236
3 237 0 219
3 237 66 0
3 238 66 237
3 238 16 66
3 129 238 59
3 239 238 129
3 239 16 238
3 239 140 16
3 240 140 239
3 240 684 686
3 686 685 140
3 684 685 686
3 166 130 12
3 241 130 166
3 241 60 130
3 132 241 32
3 242 241 132
3 242 60 241
3 242 240 60
3 687 240 688
3 689 688 242
3 687 688 689
3 691 690 240
3 693 692 61
3 694 33 695
3 696 33 697
3 696 697 698
3 699 169 700
3 701 700 33
3 699 700 701
3 702 169 703
3 705 704 169
