ply
format ascii 1.0
element vertex 655
property float x
property float y
property float z
element face 695
property list uchar int vertex_index
end_header
-20.897701 21.215652 -70.901268
-19.28055 -4.713273 -67.623161
-27.448805 -32.771614 -55.511185
-33.208988 -54.978943 -34.929504
-34.606979 -31.209181 -51.778278
-32.318569 -17.13336 -59.521881
-24.41132 -18.04439 -62.186375
-27.743507 -2.764247 -66.39164
-28.766459 11.198074 -67.609978
-20.565809 9.297992 -71.403191
-12.801277 5.704574 -70.912178
-34.852016 -43.93642 -43.533367
-28.580629 -46.380283 -48.593632
-16.433535 -19.774059 -61.522663
-33.813293 -9.224426 -60.943027
-30.212141 -9.875698 -63.182724
-31.51689 -2.265918 -64.361755
-24.942505 16.708841 -69.745407
-24.782305 10.607401 -70.088676
-20.953468 15.600555 -71.806412
-31.276833 -31.632622 -54.14249
-31.939989 -38.619671 -50.238998
-28.231407 -39.473194 -52.20752
-24.459753 -47.493191 -50.316505
-24.089113 -40.552235 -53.361557
-23.296955 -33.438408 -56.34388
-22.206392 -11.181579 -65.077896
-20.270281 -19.060766 -62.11871
-18.115826 -12.154461 -64.759903
-14.323195 -13.193902 -63.818836
-15.345226 -6.105977 -66.933212
-16.780558 19.832895 -72.539192
-30.081873 -61.68261 -34.16243
-31.134493 -56.880272 -38.177956
-37.388069 -30.105192 -48.902508
-33.836628 -24.018566 -55.75729
-30.159275 -24.903063 -57.690308
-26.252541 -25.218819 -58.987484
-28.516043 -17.599463 -61.26619
-26.329346 -10.377151 -64.576042
-23.558575 -3.571368 -67.490562
-32.095146 4.61782 -64.751823
-28.325191 4.519611 -67.584152
-24.343576 3.714571 -69.235764
-20.147524 2.560199 -69.922379
-16.663124 14.06714 -72.714348
-16.402689 7.817577 -71.662331
-16.116163 0.972732 -69.633064
-34.229084 -49.676491 -39.404057
-31.716991 -51.307247 -42.422573
-35.048988 -37.631958 -47.680195
-31.97913 -45.287155 -46.336136
-22.002359 -26.064127 -59.332886
-34.428814 -5.537462 -61.233139
-32.794743 -5.770606 -62.643429
-33.252125 -2.127849 -62.975212
-23.041756 16.113386 -70.903435
-20.987654 18.419744 -71.544731
-29.431684 -31.895855 -55.037121
-29.751591 -35.674637 -53.160583
-27.83736 -35.983395 -53.964512
-26.218077 -40.071442 -52.846855
-25.749887 -36.548092 -54.509483
-23.796566 -36.940258 -54.878551
-25.469246 -32.694847 -56.175087
-20.850338 -7.740684 -66.453651
-20.129206 -11.440189 -65.091812
-18.814537 -8.283052 -66.303543
-16.879663 -8.884597 -65.9729
-17.268307 -5.378385 -67.369377
-30.997068 -60.74876 -32.237816
-31.699495 -58.411064 -34.380016
-30.67576 -59.337101 -36.144382
-32.294254 -55.883842 -36.598038
-33.226978 -20.470778 -57.652061
-32.093544 -24.323294 -56.857124
-31.375917 -20.991484 -58.63615
-29.42889 -21.068325 -59.568817
-30.478306 -17.181093 -60.562317
-29.036316 -6.227584 -64.856422
-28.316509 -10.170425 -63.959351
-27.0546 -6.429511 -65.622925
-25.020178 -6.687931 -66.159187
-25.641911 -3.136526 -67.074348
-28.968531 13.977408 -67.094627
-30.433409 8.14599 -66.32444
-30.292589 4.719998 -66.287941
-28.569187 8.017735 -67.764694
-22.688829 10.030943 -70.889206
-24.7034 7.211983 -69.747269
-22.533005 6.690963 -70.411728
-22.28476 2.998682 -69.646858
-20.475546 5.874117 -70.726677
-14.757195 18.781399 -72.869324
-16.772387 16.937103 -72.79451
-14.760119 15.918777 -72.938942
-12.932677 8.744529 -71.765381
-14.753386 10.001472 -72.177872
-14.639701 6.671329 -71.360023
-16.474913 4.475962 -70.755508
-14.480613 3.253332 -70.313347
-14.220756 -0.07944 -69.129059
-34.537998 -46.94743 -41.514828
-33.017536 -50.741711 -40.841393
-33.320534 -47.823219 -42.863804
-36.109406 -30.594978 -50.446877
-36.257614 -33.712631 -48.488571
-34.82375 -34.489235 -49.808205
-30.2738 -42.504593 -49.449368
-32.063446 -41.941368 -48.28775
-30.291168 -45.814339 -47.605518
-30.280439 -48.996399 -45.698265
-26.593084 -50.250496 -47.881756
-19.566303 -37.443657 -55.218647
-17.038942 -34.176601 -56.257977
-25.454462 -21.839111 -60.513168
-24.058987 -25.591228 -59.288456
-23.366238 -22.091843 -60.754662
-18.368309 -19.190048 -61.985489
-19.199406 -22.948847 -60.569042
-13.380198 -23.822151 -59.296257
-14.506966 -20.124405 -61.016026
-13.207275 -10.257468 -64.829948
-33.986195 -53.947552 -33.171257
-33.113445 -13.336528 -60.278015
-31.328016 -13.567881 -61.372128
-32.11882 -9.624359 -62.120701
-30.995699 -6.084503 -63.830608
-29.717655 -2.472282 -65.476662
-27.013178 16.689646 -68.205818
-26.968262 14.075221 -68.732025
-26.880306 10.843429 -68.953255
-24.968615 13.640576 -70.044861
-22.89757 13.227142 -71.058563
-20.799547 12.735209 -71.771904
-11.118714 7.582562 -71.153954
-36.172279 -40.287891 -44.108173
-32.958878 -31.383078 -53.110611
-33.318539 -34.799263 -51.107063
-31.587328 -35.124146 -52.285595
-30.212246 -39.091591 -51.247536
-28.343964 -43.057625 -50.439922
-26.446632 -47.150009 -49.516434
-26.361168 -43.695786 -51.179165
-24.284149 -44.122364 -51.835049
-22.236708 -44.503654 -52.280399
-22.027487 -40.735458 -53.766407
-21.557281 -37.356579 -55.103298
-21.181763 -33.683743 -56.500252
-23.431381 -14.408346 -63.723282
-22.408682 -18.642641 -62.200397
-21.362452 -15.036819 -63.668415
-19.437899 -15.444736 -63.522804
-17.294174 -15.708885 -63.261028
-15.353804 -16.356434 -62.709679
-16.104992 -12.574626 -64.382065
-14.95495 -9.628344 -65.432465
-13.579924 -6.851366 -66.35582
-18.972532 20.394535 -71.899139
-12.8408 20.125566 -72.656624
-27.694691 -67.326027 -31.563051
-29.451536 -63.838959 -32.085968
-28.311872 -65.162735 -33.786018
-28.930439 -62.682999 -35.932781
-29.367493 -60.368397 -37.83234
-29.808474 -57.623482 -39.846882
-37.096519 -26.667862 -51.162971
-35.746063 -27.434216 -52.464775
-34.281826 -27.771481 -53.738461
-32.721737 -27.728456 -54.973885
-30.851978 -28.207884 -55.921478
-28.750517 -28.606497 -56.76799
-26.916248 -28.832409 -57.34029
-28.270746 -24.859789 -58.510128
-27.459614 -21.389191 -60.172451
-26.497824 -17.80958 -61.830261
-29.3932 -13.737508 -62.304523
-27.584814 -13.895411 -62.954777
-25.499245 -14.247893 -63.412498
-24.261589 -10.543338 -65.013672
-22.861313 -7.270419 -66.39859
-21.472439 -4.083535 -67.673813
-31.899225 1.306768 -64.645561
-30.040985 1.259541 -66.023506
-28.079994 0.886048 -67.087692
-26.568693 7.664855 -68.941177
-26.361372 4.235392 -68.549263
-26.095385 0.441742 -67.862755
-24.065407 -0.088794 -68.386856
-21.853281 -0.516764 -68.753357
-19.836895 -1.124864 -68.825241
-18.840471 17.771967 -72.339432
-18.72513 14.848913 -72.430794
-18.705328 11.901537 -72.183708
-14.736757 12.949386 -72.68779
-16.595766 11.076011 -72.330154
-18.50239 8.740787 -71.681595
-18.356634 5.296368 -70.881439
-18.137667 1.63257 -69.828629
-17.813162 -1.834502 -68.678841
-15.910514 -2.5868 -68.347954
-14.004537 -3.368125 -67.847572
-33.766811 -52.381454 -37.24509
-32.799812 -53.16436 -38.791431
-31.441904 -54.230297 -40.327305
-36.279675 -37.155098 -46.241333
-34.989246 -40.847752 -45.633568
-33.595486 -38.233971 -48.961632
-33.589516 -41.60598 -46.919796
-33.621834 -44.524479 -44.917267
-31.984224 -48.361988 -44.274193
-24.561825 -50.897346 -48.719975
-24.797409 -29.225233 -57.721542
-22.71332 -29.5769 -57.914185
-20.63158 -29.917707 -57.92823
-21.197311 -22.581553 -60.728931
-18.547195 -30.458036 -57.693859
-13.522465 -16.667446 -62.186558
-34.616234 -3.803647 -61.311825
-35.16973 -5.617178 -60.3867
-34.02789 -2.09884 -62.182862
-33.840469 -3.832655 -62.104175
-34.616234 -3.803647 -61.311825
-21.943832 21.232749 -70.30019
-20.864595 22.255215 -70.470779
-21.874115 20.060612 -70.726784
-21.943832 21.232749 -70.30019
-20.942678 19.817698 -71.223
-21.919092 18.662658 -71.048515
-21.874115 20.060612 -70.726784
-32.454241 -56.695003 -34.65476
-32.131332 -57.869585 -33.522276
-32.886078 -56.153525 -33.79702
-32.772773 -18.802069 -58.586971
-33.660438 -18.569759 -58.023458
-33.206234 -16.901051 -58.958368
-29.728547 11.12658 -66.754704
-29.829583 12.516248 -66.497028
-28.867495 12.587741 -67.352303
-29.599934 9.672032 -66.967209
-30.562022 9.600538 -66.111934
-29.728547 11.12658 -66.754704
-13.755077 16.746816 -72.900039
-14.758657 17.350088 -72.904133
-13.753615 18.178126 -72.86523
-12.714653 4.009014 -70.343716
-13.554321 2.783392 -70.0443
-13.640945 4.478953 -70.612763
-34.695007 -45.441925 -42.524097
-35.223515 -45.191477 -41.727929
-35.380523 -43.685972 -42.737198
-28.513627 -48.1382 -47.677863
-29.368896 -47.855228 -47.183806
-29.435899 -46.097311 -48.099575
-27.586856 -48.315389 -48.237694
-27.519855 -50.073307 -47.321925
-28.513627 -48.1382 -47.677863
-18.506422 -37.730856 -55.103443
-19.302159 -35.733593 -55.824465
-18.038479 -34.100065 -56.34413
-17.242742 -36.097328 -55.623108
-16.883505 -21.390757 -60.952913
-17.850892 -21.098751 -61.184326
-17.400922 -19.482053 -61.754076
-15.892449 -21.668139 -60.686599
-16.883505 -21.390757 -60.952913
-15.47025 -19.949232 -61.269345
-14.929164 -21.843311 -60.433281
-15.892449 -21.668139 -60.686599
-12.325391 -10.560894 -64.473137
-12.566322 -8.942778 -65.244774
-34.225714 -53.57271 -32.255206
-33.587599 -55.164131 -31.96726
-34.278301 -11.069989 -60.001812
-34.591211 -9.267971 -60.183811
-33.463369 -11.280477 -60.610521
-33.928377 -13.12604 -59.669306
-34.278301 -11.069989 -60.001812
-25.977842 16.699244 -68.975612
-26.019269 17.930098 -68.627171
-24.983933 17.939696 -69.396965
-10.309736 8.33164 -71.125077
-11.143605 9.033705 -71.512753
-10.283199 6.81928 -70.699299
-10.309736 8.33164 -71.125077
-36.779385 -38.416201 -44.364263
-36.637327 -40.072475 -43.288773
-12.761191 21.394075 -72.36446
-13.757477 20.729768 -72.56525
-28.209984 -66.628906 -30.670038
-27.368947 -68.257702 -30.495382
-36.90455 -25.06971 -52.15102
-37.509864 -24.875367 -51.376896
-36.229322 -25.452887 -52.801922
-36.421291 -27.051039 -51.813873
-36.90455 -25.06971 -52.15102
-34.567835 -23.996483 -55.121294
-34.337406 -22.062828 -56.121966
-34.059227 -25.895024 -54.747875
-34.790434 -25.87294 -54.11188
-34.567835 -23.996483 -55.121294
-32.882251 4.709821 -63.919384
-32.148174 6.285147 -64.682643
-32.845379 2.945365 -63.901712
-32.882251 4.709821 -63.919384
-31.997186 2.962294 -64.698692
-32.747419 1.289839 -63.848581
-32.845379 2.945365 -63.901712
-13.840592 12.392354 -72.551476
-13.756501 13.900423 -72.735337
-13.254976 -2.164001 -68.196106
-14.112647 -1.723782 -68.488315
-13.363086 -0.519659 -68.836849
-13.156025 -3.818865 -67.511604
-13.254976 -2.164001 -68.196106
-34.69367 -49.293341 -38.562061
-34.915064 -47.908188 -39.65465
-33.997947 -51.028972 -38.324573
-34.462534 -50.645822 -37.482578
-34.69367 -49.293341 -38.562061
-30.857819 -53.107123 -42.161705
-30.720275 -54.568647 -41.114071
-31.579448 -52.768772 -41.374939
-37.375065 -31.805894 -47.877764
-37.884785 -29.870667 -48.113506
-30.203639 -50.540701 -44.762213
-29.368696 -50.907564 -45.36023
-19.591867 -24.605548 -59.942177
-18.617309 -24.824425 -59.808434
-18.291204 -28.57902 -58.370842
-19.265761 -28.360143 -58.504585
-17.520928 -30.4916 -57.581726
-18.291204 -28.57902 -58.370842
-12.513059 -23.809596 -59.044332
-13.017103 -21.973101 -59.919697
-34.898972 -7.424489 -60.328867
-35.16973 -5.617178 -60.3867
-34.121054 -7.380944 -61.088083
-34.591211 -9.267971 -60.183811
-34.898972 -7.424489 -60.328867
-23.896517 17.807207 -70.148853
-24.983933 17.939696 -69.396965
-22.946143 17.509479 -70.727867
-23.992131 16.411113 -70.324421
-23.896517 17.807207 -70.148853
-22.014705 17.266565 -71.224083
-22.946143 17.509479 -70.727867
-21.919092 18.662658 -71.048515
-31.780118 -59.038433 -32.451176
-31.422128 -60.083862 -31.398623
-31.348281 -59.579912 -33.308916
-31.780118 -59.038433 -32.451176
-32.131332 -57.869585 -33.522276
-34.032581 -20.288934 -57.069351
-33.660438 -18.569759 -58.023458
-33.531803 -22.244672 -56.704676
-34.337406 -22.062828 -56.121966
-34.032581 -20.288934 -57.069351
-29.839085 13.894433 -66.204247
-28.908124 15.318189 -66.777198
-29.839085 13.894433 -66.204247
-29.829583 12.516248 -66.497028
-31.317306 8.049232 -65.468952
-30.562022 9.600538 -66.111934
-31.264277 6.381905 -65.538131
-32.148174 6.285147 -64.682643
-31.317306 8.049232 -65.468952
-13.843032 9.373 -71.971626
-13.848906 10.918397 -72.296516
-12.938551 10.289925 -72.090271
-13.424392 1.117007 -69.452156
-14.350684 1.586946 -69.721203
-13.554321 2.783392 -70.0443
-13.363086 -0.519659 -68.836849
-13.424392 1.117007 -69.452156
-35.069521 -46.543657 -40.710036
-35.223515 -45.191477 -41.727929
-34.383541 -48.31196 -40.459443
-34.915064 -47.908188 -39.65465
-35.069521 -46.543657 -40.710036
-29.363532 -49.446258 -46.230179
-30.285804 -47.405369 -46.651892
-29.368896 -47.855228 -47.183806
-29.368696 -50.907564 -45.36023
-29.363532 -49.446258 -46.230179
-26.566222 -51.919161 -47.009619
-27.519855 -50.073307 -47.321925
-25.598358 -52.276646 -47.466557
-26.566222 -51.919161 -47.009619
-23.467385 -49.516621 -49.845356
-23.408493 -47.833065 -50.560575
-18.652334 -39.472498 -54.530271
-19.681711 -39.419442 -54.513706
-18.652334 -39.472498 -54.530271
-18.506422 -37.730856 -55.103443
-16.281879 -36.222824 -55.489988
-17.242742 -36.097328 -55.623108
-16.023556 -34.475447 -56.017674
-16.281879 -36.222824 -55.489988
-18.266441 -22.97815 -60.476103
-18.783857 -21.069448 -61.277265
-17.850892 -21.098751 -61.184326
-18.617309 -24.824425 -59.808434
-18.266441 -22.97815 -60.476103
-14.36578 -23.692185 -59.573397
-13.765059 -25.522584 -58.758644
-13.943582 -21.973278 -60.156141
-14.36578 -23.692185 -59.573397
-14.929164 -21.843311 -60.433281
-13.580486 -20.124229 -60.779581
-13.017103 -21.973101 -59.919697
-13.943582 -21.973278 -60.156141
-12.890448 -11.928755 -64.033602
-13.448408 -13.396971 -63.528045
-13.765235 -11.725685 -64.324392
-12.890448 -11.928755 -64.033602
-12.325391 -10.560894 -64.473137
-33.274681 -55.637829 -32.917896
-33.587599 -55.164131 -31.96726
-33.597592 -54.463248 -34.050381
-32.886078 -56.153525 -33.79702
-33.274681 -55.637829 -32.917896
-33.603672 -15.002634 -59.336435
-33.928377 -13.12604 -59.669306
-32.716007 -15.234944 -59.899948
-33.206234 -16.901051 -58.958368
-33.603672 -15.002634 -59.336435
-27.000909 17.9074 -67.778743
-26.019269 17.930098 -68.627171
-27.930447 16.674308 -67.332794
-27.000909 17.9074 -67.778743
-27.990854 15.333527 -67.650222
-28.908124 15.318189 -66.777198
-27.930447 16.674308 -67.332794
-12.050586 9.614689 -71.818466
-12.938551 10.289925 -72.090271
-12.025696 8.163545 -71.459667
-12.050586 9.614689 -71.818466
-11.143605 9.033705 -71.512753
-11.100265 6.003221 -70.671452
-11.941547 5.064227 -70.550564
-11.959996 6.643568 -71.033066
-11.100265 6.003221 -70.671452
-10.283199 6.81928 -70.699299
-36.040655 -41.861708 -43.024601
-36.637327 -40.072475 -43.288773
-35.512147 -42.112156 -43.82077
-35.380523 -43.685972 -42.737198
-36.040655 -41.861708 -43.024601
-23.320691 -46.147651 -51.319847
-23.408493 -47.833065 -50.560575
-24.371951 -45.807778 -51.075777
-22.296971 -46.338296 -51.542523
-23.320691 -46.147651 -51.319847
-23.260428 -44.313009 -52.057724
-21.302802 -46.578216 -51.709396
-22.296971 -46.338296 -51.542523
-21.204871 -44.714063 -52.398745
-21.302802 -46.578216 -51.709396
-21.100261 -42.829966 -53.141749
-21.204871 -44.714063 -52.398745
-22.132098 -42.619556 -53.023403
-20.912303 -41.065342 -53.787586
-21.100261 -42.829966 -53.141749
-20.6772 -39.375903 -54.456032
-20.912303 -41.065342 -53.787586
-21.792384 -39.046019 -54.434853
-20.561792 -37.400118 -55.160972
-19.681711 -39.419442 -54.513706
-20.6772 -39.375903 -54.456032
-20.109889 -33.853636 -56.465268
-19.302159 -35.733593 -55.824465
-20.374033 -35.5637 -55.859449
-12.752646 -7.239727 -66.00771
-12.566322 -8.942778 -65.244774
-13.3936 -8.554417 -65.592884
-19.815963 22.063492 -71.038467
-20.864595 22.255215 -70.470779
-18.853378 21.652934 -71.537403
-19.935116 20.805093 -71.400204
-19.815963 22.063492 -71.038467
-17.894978 21.339093 -71.92234
-18.853378 21.652934 -71.537403
-16.798991 21.058273 -72.242367
-17.876545 20.113715 -72.219166
-17.894978 21.339093 -71.92234
-15.727356 20.583433 -72.506535
-16.798991 21.058273 -72.242367
-14.715674 20.057685 -72.671601
-15.768876 19.307147 -72.704258
-15.727356 20.583433 -72.506535
-13.798997 19.453482 -72.762974
-14.715674 20.057685 -72.671601
-13.757477 20.729768 -72.56525
-12.795417 18.85021 -72.758881
-13.753615 18.178126 -72.86523
-13.798997 19.453482 -72.762974
-11.846855 20.707364 -72.38498
-12.761191 21.394075 -72.36446
-11.872739 19.53122 -72.562905
-11.846855 20.707364 -72.38498
-12.795417 18.85021 -72.758881
-11.872739 19.53122 -72.562905
-26.761428 -69.037781 -31.448402
-27.368947 -68.257702 -30.495382
-27.110167 -67.947281 -32.457299
-26.761428 -69.037781 -31.448402
-30.646547 -61.743259 -31.207523
-31.422128 -60.083862 -31.398623
-29.873781 -63.288359 -31.131599
-30.646547 -61.743259 -31.207523
-30.224302 -62.293859 -32.161892
-29.088406 -64.885373 -30.931497
-29.873781 -63.288359 -31.131599
-28.573113 -65.582493 -31.82451
-28.209984 -66.628906 -30.670038
-29.088406 -64.885373 -30.931497
-27.418758 -66.865635 -33.568782
-27.110167 -67.947281 -32.457299
-28.003281 -66.244381 -32.674535
-27.694344 -65.726593 -34.612999
-27.418758 -66.865635 -33.568782
-28.003628 -64.486725 -35.68638
-27.694344 -65.726593 -34.612999
-28.621156 -63.922867 -34.859399
-28.193051 -63.397175 -36.635765
-28.003628 -64.486725 -35.68638
-28.411578 -62.239874 -37.585544
-28.193051 -63.397175 -36.635765
-29.148966 -61.525698 -36.88256
-28.661741 -60.817065 -38.599159
-28.411578 -62.239874 -37.585544
-28.882231 -59.444607 -39.60643
-28.661741 -60.817065 -38.599159
-29.587983 -58.99594 -38.839611
-29.034501 -58.080201 -40.561146
-28.882231 -59.444607 -39.60643
-37.793138 -28.28592 -49.195931
-37.884785 -29.870667 -48.113506
-37.647363 -26.567255 -50.326162
-37.509864 -24.875367 -51.376896
-37.242294 -28.386527 -50.032739
-37.793138 -28.28592 -49.195931
-37.647363 -26.567255 -50.326162
-35.522553 -25.704308 -53.475037
-36.229322 -25.452887 -52.801922
-35.013945 -27.602849 -53.101618
-35.522553 -25.704308 -53.475037
-34.790434 -25.87294 -54.11188
-33.423868 -0.427469 -63.013407
-34.02789 -2.09884 -62.182862
-32.575675 -0.41054 -63.810386
-33.423868 -0.427469 -63.013407
-32.747419 1.289839 -63.848581
-13.768182 15.385119 -72.860912
-13.755077 16.746816 -72.900039
-14.748438 14.434082 -72.813366
-13.768182 15.385119 -72.860912
-13.756501 13.900423 -72.735337
-14.745072 11.475429 -72.432831
-13.840592 12.392354 -72.551476
-13.848906 10.918397 -72.296516
-12.943719 -5.560486 -66.765728
-13.79223 -5.109745 -67.101696
-13.156025 -3.818865 -67.511604
-12.752646 -7.239727 -66.00771
-12.943719 -5.560486 -66.765728
-12.714653 4.009014 -70.343716
-11.941547 5.064227 -70.550564
-34.618156 -52.306504 -33.465851
-34.225714 -53.57271 -32.255206
-34.275206 -52.79226 -34.337193
-34.618156 -52.306504 -33.465851
-33.886602 -53.307955 -35.216316
-33.597592 -54.463248 -34.050381
-34.275206 -52.79226 -34.337193
-34.165514 -52.00921 -36.374109
-34.462534 -50.645822 -37.482578
-33.487899 -53.680199 -36.087297
-33.886602 -53.307955 -35.216316
-34.165514 -52.00921 -36.374109
-29.90356 -56.26524 -40.87386
-30.625189 -55.92689 -40.087094
-30.720275 -54.568647 -41.114071
-29.034501 -58.080201 -40.561146
-29.90356 -56.26524 -40.87386
-36.809838 -33.609614 -47.670795
-37.375065 -31.805894 -47.877764
-36.822841 -31.908912 -48.695539
-36.820868 -35.330847 -46.547176
-36.809838 -33.609614 -47.670795
-36.268644 -35.433864 -47.364952
-36.833083 -36.849804 -45.430843
-36.820868 -35.330847 -46.547176
-36.225977 -38.721495 -45.174753
-36.779385 -38.416201 -44.364263
-36.833083 -36.849804 -45.430843
-31.055532 -50.223495 -44.050176
-31.132331 -48.679193 -44.986229
-30.203639 -50.540701 -44.762213
-30.921915 -51.696125 -43.124367
-31.850608 -49.834617 -43.348383
-31.055532 -50.223495 -44.050176
-30.857819 -53.107123 -42.161705
-30.921915 -51.696125 -43.124367
-24.582729 -52.600071 -47.885666
-25.598358 -52.276646 -47.466557
-25.577455 -50.573921 -48.300866
-23.51842 -51.218699 -49.047091
-24.510789 -49.195268 -49.51824
-23.467385 -49.516621 -49.845356
-23.607808 -52.883642 -48.279331
-23.51842 -51.218699 -49.047091
-24.582729 -52.600071 -47.885666
-23.607808 -52.883642 -48.279331
-19.834798 -31.970618 -57.179257
-20.109889 -33.853636 -56.465268
-20.906672 -31.800725 -57.214241
-20.590819 -24.421901 -60.022121
-20.198358 -22.7652 -60.648987
-19.591867 -24.605548 -59.942177
-20.993343 -26.163188 -59.324099
-21.599835 -24.32284 -60.030909
-20.590819 -24.421901 -60.022121
-20.307953 -28.089978 -58.62177
-21.316969 -27.990917 -58.630558
-20.993343 -26.163188 -59.324099
-19.589388 -30.187871 -57.811045
-20.307953 -28.089978 -58.62177
-19.265761 -28.360143 -58.504585
-18.792605 -32.240783 -57.062071
-19.834798 -31.970618 -57.179257
-19.589388 -30.187871 -57.811045
-17.793068 -32.317318 -56.975918
-18.038479 -34.100065 -56.34413
-18.792605 -32.240783 -57.062071
-16.766801 -32.350882 -56.863785
-17.793068 -32.317318 -56.975918
-17.520928 -30.4916 -57.581726
-16.023556 -34.475447 -56.017674
-16.766801 -32.350882 -56.863785
-12.787402 -25.554217 -58.483431
-13.765059 -25.522584 -58.758644
-12.787402 -25.554217 -58.483431
-12.513059 -23.809596 -59.044332
-13.088236 -18.395749 -61.364847
-13.580486 -20.124229 -60.779581
-14.014716 -18.395926 -61.601292
-13.048043 -15.133744 -62.711906
-13.92283 -14.930674 -63.002697
-13.448408 -13.396971 -63.528045
-12.663107 -16.90953 -61.849171
-13.048043 -15.133744 -62.711906
-13.088236 -18.395749 -61.364847
-12.663107 -16.90953 -61.849171
3 218 53 219
3 220 55 221
3 222 221 53
3 220 221 222
3 0 223 224
3 0 225 226
3 0 227 229
3 227 57 228
3 227 228 229
3 2 60 58
3 2 62 60
3 2 64 62
3 1 67 65
3 1 69 67
3 3 230 232
3 230 71 231
3 230 231 232
3 3 73 71
3 5 233 235
3 233 74 234
3 233 234 235
3 5 76 74
3 5 78 76
3 7 81 79
3 7 83 81
3 8 236 238
3 238 237 84
3 236 237 238
3 8 239 241
3 239 85 240
3 239 240 241
3 8 87 85
3 9 90 88
3 9 92 90
3 242 95 243
3 244 243 93
3 242 243 244
3 10 98 96
3 10 100 98
3 10 245 247
3 247 246 100
3 245 246 247
3 11 248 250
3 248 102 249
3 248 249 250
3 11 104 102
3 4 107 105
3 12 110 108
3 12 251 253
3 253 252 110
3 251 252 253
3 12 254 256
3 254 112 255
3 254 255 256
3 258 257 113
3 259 114 260
3 6 117 115
3 13 261 263
3 263 262 118
3 261 262 263
3 13 264 265
3 13 266 268
3 266 121 267
3 266 267 268
3 270 269 122
3 271 123 272
3 14 273 274
3 14 275 277
3 275 124 276
3 275 276 277
3 14 126 124
3 16 127 54
3 16 128 127
3 17 278 280
3 278 129 279
3 278 279 280
3 17 130 129
3 17 132 130
3 19 133 56
3 19 134 133
3 281 135 282
3 284 283 135
3 285 136 286
3 20 139 137
3 22 140 59
3 22 141 140
3 22 143 141
3 24 144 61
3 24 145 144
3 24 146 145
3 25 147 63
3 25 148 147
3 26 151 149
3 28 152 66
3 28 153 152
3 28 155 153
3 30 156 68
3 30 157 156
3 287 159 288
3 289 160 290
3 32 161 70
3 32 162 161
3 32 163 162
3 33 164 72
3 33 165 164
3 291 166 292
3 293 167 294
3 295 294 166
3 293 294 295
3 35 296 297
3 35 298 300
3 298 168 299
3 298 299 300
3 35 169 168
3 36 170 75
3 36 171 170
3 36 173 171
3 38 174 77
3 38 175 174
3 15 176 125
3 39 177 80
3 39 178 177
3 39 179 178
3 40 180 82
3 40 181 180
3 41 301 302
3 41 303 304
3 41 305 307
3 305 182 306
3 305 306 307
3 42 183 86
3 42 184 183
3 18 185 131
3 43 186 89
3 43 187 186
3 43 188 187
3 44 189 91
3 44 190 189
3 31 191 158
3 45 192 94
3 45 193 192
3 308 194 309
3 46 195 97
3 46 196 195
3 46 197 196
3 47 198 99
3 47 199 198
3 47 200 199
3 310 201 311
3 312 311 101
3 310 311 312
3 314 313 201
3 48 315 316
3 48 317 319
3 317 202 318
3 317 318 319
3 48 203 202
3 49 204 103
3 49 320 322
3 322 321 204
3 320 321 322
3 34 323 324
3 50 205 106
3 50 206 205
3 21 207 138
3 51 208 109
3 51 209 208
3 51 210 209
3 326 325 111
3 23 211 142
3 37 212 172
3 52 213 116
3 52 214 213
3 27 215 150
3 328 327 119
3 329 216 330
3 332 331 216
3 334 333 120
3 29 217 154
3 53 335 336
3 53 337 339
3 337 14 338
3 337 338 339
3 53 54 14
3 55 54 53
3 55 16 54
3 340 17 341
3 342 56 343
3 344 343 17
3 342 343 344
3 57 345 347
3 345 56 346
3 345 346 347
3 57 19 56
3 58 59 20
3 60 59 58
3 60 22 59
3 60 61 22
3 62 61 60
3 62 24 61
3 62 63 24
3 64 63 62
3 64 25 63
3 65 66 26
3 67 66 65
3 67 28 66
3 67 68 28
3 69 68 67
3 69 30 68
3 348 70 349
3 71 350 352
3 350 70 351
3 350 351 352
3 71 32 70
3 71 72 32
3 73 72 71
3 73 33 72
3 74 353 354
3 74 355 357
3 355 35 356
3 355 356 357
3 74 75 35
3 76 75 74
3 76 36 75
3 76 77 36
3 78 77 76
3 78 38 77
3 79 80 15
3 81 80 79
3 81 39 80
3 81 82 39
3 83 82 81
3 83 40 82
3 84 358 359
3 361 360 84
3 85 362 363
3 85 364 366
3 364 41 365
3 364 365 366
3 85 86 41
3 87 86 85
3 87 42 86
3 88 89 18
3 90 89 88
3 90 43 89
3 90 91 43
3 92 91 90
3 92 44 91
3 93 94 31
3 95 94 93
3 95 45 94
3 96 367 369
3 367 97 368
3 367 368 369
3 98 97 96
3 98 46 97
3 98 99 46
3 100 99 98
3 100 47 99
3 100 101 47
3 370 101 371
3 372 371 100
3 370 371 372
3 374 373 101
3 102 375 376
3 102 377 379
3 377 48 378
3 377 378 379
3 102 103 48
3 104 103 102
3 104 49 103
3 105 106 34
3 107 106 105
3 107 50 106
3 108 109 21
3 110 109 108
3 110 51 109
3 110 111 51
3 380 111 381
3 382 381 110
3 380 381 382
3 384 383 111
3 112 385 386
3 112 387 388
3 390 389 23
3 113 391 392
3 394 393 113
3 114 395 396
3 114 397 398
3 115 116 37
3 117 116 115
3 117 52 116
3 118 119 27
3 399 119 400
3 401 400 118
3 399 400 401
3 403 402 119
3 404 120 405
3 121 406 408
3 406 120 407
3 406 407 408
3 121 409 411
3 411 410 120
3 409 410 411
3 122 412 414
3 414 413 29
3 412 413 414
3 416 415 122
3 123 417 418
3 123 419 421
3 419 3 420
3 419 420 421
3 124 422 423
3 124 424 426
3 424 5 425
3 424 425 426
3 124 125 5
3 126 125 124
3 126 15 125
3 54 126 14
3 127 126 54
3 127 15 126
3 127 79 15
3 128 79 127
3 128 7 79
3 129 427 428
3 129 429 430
3 129 431 433
3 431 84 432
3 431 432 433
3 130 84 129
3 130 8 84
3 130 131 8
3 132 131 130
3 132 18 131
3 56 132 17
3 133 132 56
3 133 18 132
3 133 88 18
3 134 88 133
3 134 9 88
3 434 96 435
3 135 436 438
3 436 96 437
3 436 437 438
3 135 10 96
3 135 439 441
3 441 440 10
3 439 440 441
3 443 442 135
3 136 444 445
3 136 446 448
3 446 11 447
3 446 447 448
3 137 138 4
3 139 138 137
3 139 21 138
3 59 139 20
3 140 139 59
3 140 21 139
3 140 108 21
3 141 108 140
3 141 12 108
3 141 142 12
3 143 142 141
3 143 23 142
3 61 143 22
3 144 143 61
3 144 23 143
3 144 449 451
3 451 450 23
3 449 450 451
3 145 452 454
3 454 453 144
3 452 453 454
3 145 455 456
3 145 457 458
3 146 459 461
3 461 460 145
3 459 460 461
3 146 462 463
3 63 146 24
3 147 146 63
3 147 464 466
3 466 465 146
3 464 465 466
3 147 467 469
3 467 113 468
3 467 468 469
3 148 113 147
3 148 470 472
3 472 471 113
3 470 471 472
3 149 150 6
3 151 150 149
3 151 27 150
3 66 151 26
3 152 151 66
3 152 27 151
3 152 118 27
3 153 118 152
3 153 13 118
3 153 154 13
3 155 154 153
3 155 29 154
3 68 155 28
3 156 155 68
3 156 29 155
3 156 122 29
3 157 122 156
3 157 473 475
3 475 474 122
3 473 474 475
3 476 0 477
3 478 158 479
3 480 479 0
3 478 479 480
3 481 158 482
3 483 31 484
3 485 484 158
3 483 484 485
3 486 31 487
3 488 93 489
3 490 489 31
3 488 489 490
3 159 491 493
3 491 93 492
3 491 492 493
3 159 494 496
3 496 495 93
3 494 495 496
3 497 159 498
3 499 159 500
3 502 501 159
3 160 503 504
3 160 505 506
3 70 507 508
3 161 509 511
3 511 510 70
3 509 510 511
3 161 512 513
3 161 514 516
3 514 160 515
3 514 515 516
3 162 160 161
3 162 517 519
3 519 518 160
3 517 518 519
3 162 520 521
3 163 522 524
3 524 523 162
3 522 523 524
3 163 525 526
3 72 163 32
3 164 163 72
3 164 527 529
3 529 528 163
3 527 528 529
3 164 530 531
3 165 532 534
3 534 533 164
3 532 533 534
3 165 535 536
3 537 34 538
3 166 539 540
3 166 541 543
3 541 34 542
3 541 542 543
3 166 105 34
3 167 105 166
3 167 4 105
3 544 167 545
3 168 546 548
3 546 167 547
3 546 547 548
3 168 4 167
3 168 137 4
3 169 137 168
3 169 20 137
3 75 169 35
3 170 169 75
3 170 20 169
3 170 58 20
3 171 58 170
3 171 2 58
3 171 172 2
3 173 172 171
3 173 37 172
3 77 173 36
3 174 173 77
3 174 37 173
3 174 115 37
3 175 115 174
3 175 6 115
3 125 78 5
3 176 78 125
3 176 38 78
3 80 176 15
3 177 176 80
3 177 38 176
3 177 175 38
3 178 175 177
3 178 6 175
3 178 149 6
3 179 149 178
3 179 26 149
3 82 179 39
3 180 179 82
3 180 26 179
3 180 65 26
3 181 65 180
3 181 1 65
3 549 55 550
3 182 551 553
3 551 55 552
3 551 552 553
3 182 16 55
3 86 182 41
3 183 182 86
3 183 16 182
3 183 128 16
3 184 128 183
3 184 7 128
3 131 87 8
3 185 87 131
3 185 42 87
3 89 185 18
3 186 185 89
3 186 42 185
3 186 184 42
3 187 184 186
3 187 7 184
3 187 83 7
3 188 83 187
3 188 40 83
3 91 188 43
3 189 188 91
3 189 40 188
3 189 181 40
3 190 181 189
3 190 1 181
3 158 57 0
3 191 57 158
3 191 19 57
3 94 191 31
3 192 191 94
3 192 19 191
3 192 134 19
3 193 134 192
3 193 9 134
3 554 95 555
3 194 556 558
3 556 95 557
3 556 557 558
3 194 45 95
3 97 559 561
3 559 194 560
3 559 560 561
3 195 194 97
3 195 45 194
3 195 193 45
3 196 193 195
3 196 9 193
3 196 92 9
3 197 92 196
3 197 44 92
3 99 197 46
3 198 197 99
3 198 44 197
3 198 190 44
3 199 190 198
3 199 1 190
3 199 69 1
3 200 69 199
3 200 30 69
3 101 200 47
3 201 200 101
3 201 30 200
3 201 157 30
3 562 157 563
3 564 563 201
3 562 563 564
3 566 565 157
3 568 567 10
3 569 123 570
3 571 123 572
3 573 3 574
3 575 574 123
3 573 574 575
3 202 576 577
3 202 578 580
3 578 3 579
3 578 579 580
3 202 73 3
3 203 73 202
3 203 33 73
3 103 203 48
3 204 203 103
3 204 33 203
3 204 165 33
3 581 165 582
3 583 582 204
3 581 582 583
3 585 584 165
3 106 586 588
3 588 587 34
3 586 587 588
3 205 589 591
3 591 590 106
3 589 590 591
3 205 592 593
3 205 594 596
3 594 136 595
3 594 595 596
3 206 136 205
3 206 11 136
3 138 107 4
3 207 107 138
3 207 50 107
3 109 207 21
3 208 207 109
3 208 50 207
3 208 206 50
3 209 206 208
3 209 11 206
3 209 104 11
3 210 104 209
3 210 49 104
3 111 210 51
3 597 210 598
3 599 598 111
3 597 598 599
3 600 49 601
3 602 601 210
3 600 601 602
3 604 603 49
3 142 112 12
3 211 112 142
3 211 605 607
3 607 606 112
3 605 606 607
3 608 211 609
3 610 609 23
3 608 609 610
3 611 211 612
3 614 613 211
3 172 64 2
3 212 64 172
3 212 25 64
3 116 212 37
3 213 212 116
3 213 25 212
3 213 148 25
3 214 148 213
3 214 615 617
3 617 616 148
3 615 616 617
3 150 117 6
3 215 117 150
3 215 52 117
3 119 215 27
3 618 215 619
3 620 619 119
3 618 619 620
3 621 52 622
3 623 622 215
3 621 622 623
3 624 214 625
3 626 625 52
3 624 625 626
3 216 627 629
3 627 214 628
3 627 628 629
3 216 630 632
3 632 631 214
3 630 631 632
3 216 633 635
3 633 114 634
3 633 634 635
3 636 114 637
3 638 637 216
3 636 637 638
3 640 639 114
3 120 641 642
3 644 643 120
3 154 121 13
3 217 121 154
3 217 645 647
3 647 646 121
3 645 646 647
3 648 217 649
3 650 649 29
3 648 649 650
3 651 217 652
3 654 653 217
