ply
format ascii 1.0
element vertex 316
property float x
property float y
property float z
element face 309
property list uchar int vertex_index
end_header
-24.928791 99.192078 -35.163021
-15.78131 102.652748 -36.086388
-33.341354 75.063507 -37.426144
-30.697407 90.228012 -31.624605
-28.706581 86.888481 -42.093388
-22.590214 103.598114 -30.169764
-26.190983 100.515488 -29.119143
-28.902172 96.306625 -27.53759
-28.199165 95.342072 -33.6035
-29.904785 89.053482 -37.215813
-26.991142 93.517403 -39.120998
-17.907278 105.147476 -30.911139
-20.71277 101.779076 -35.843704
-23.249777 96.923592 -40.110111
-34.001522 65.843948 -39.480652
-32.269669 72.866165 -42.119499
-31.039124 90.894226 -25.287542
-32.598289 84.309639 -28.890684
-32.133373 83.3592 -34.851295
-31.384478 81.168968 -40.056366
-23.777267 101.570938 -32.816078
-24.47732 102.228279 -29.776485
-25.623453 100.024551 -32.15765
-27.228264 98.114716 -31.419777
-26.630388 97.501846 -34.455513
-27.635059 94.608315 -36.446823
-25.975426 96.5373 -37.254829
-15.539567 105.367554 -30.869761
-16.923794 104.087448 -33.514896
-19.380089 103.700714 -33.331123
-18.270729 102.446083 -36.008266
-19.793867 100.508171 -38.156315
-17.27553 100.8964 -38.37886
-34.151325 71.680458 -36.113361
-34.518795 66.985619 -37.162266
-33.681412 70.661423 -38.744751
-33.156902 69.159531 -41.030712
-32.859203 74.029388 -39.906822
-29.850863 93.454826 -29.419441
-30.048615 93.733665 -26.372389
-30.907759 90.682816 -28.455841
-31.899035 87.508064 -27.225965
-31.665115 87.548599 -30.278858
-32.454483 83.789116 -31.878056
-31.489246 86.859924 -33.18557
-29.418186 87.949234 -39.762043
-30.698605 85.154221 -38.842518
-30.142876 84.170174 -41.155159
-30.755745 80.010902 -42.406883
-29.452816 82.9328 -43.336586
-24.555365 93.867325 -41.886459
-23.243948 104.119331 -27.112719
-24.972294 102.677475 -26.673868
-26.589895 100.807762 -26.142269
-27.64246 98.558647 -28.34086
-28.647842 95.876663 -30.518625
-29.588701 92.863602 -32.506279
-30.313948 89.881638 -34.451759
-29.112518 92.387794 -35.36607
-28.527514 91.650818 -38.057587
-28.03425 90.255226 -40.537834
-33.133934 59.662987 -42.609592
-32.836365 54.718456 -43.078747
-17.55088 106.967392 -24.907179
-16.556877 106.271347 -28.155016
-18.942123 105.926758 -28.006252
-20.34606 104.578529 -30.620634
-21.644857 102.881653 -33.087387
-22.874008 100.711655 -35.600418
-24.138033 98.190254 -37.751072
-21.983004 99.486519 -38.165245
-33.958977 61.173302 -40.554428
-33.265236 64.722099 -41.82132
-32.374424 68.388268 -43.19455
-31.933914 87.771843 -24.080988
-32.737305 84.315674 -25.854961
-33.467476 80.749107 -27.451252
-33.326473 80.520325 -30.377703
-33.114132 79.918732 -33.483505
-32.779079 79.39679 -36.185535
-31.070963 86.431595 -36.045578
-31.785322 82.527405 -37.48278
-32.404797 78.361816 -38.746632
-31.910189 77.132614 -41.122429
-25.256083 95.369896 -39.691845
-26.362024 92.229599 -41.334232
-27.189426 88.999664 -42.853165
-16.352552 103.370098 -34.800642
-15.697161 104.094078 -33.532116
-15.12592 103.376728 -34.817861
-22.917081 103.858722 -28.641241
-22.258102 104.623253 -27.46288
-21.931235 104.362644 -28.991403
-32.65559 59.093224 -43.510599
-32.781727 61.614626 -43.209772
-16.410872 106.989441 -25.112032
-16.849407 107.228234 -23.546297
-20.39657 99.310169 -39.256689
-19.234967 99.621502 -39.356834
-34.348955 63.960746 -38.816902
-34.607591 64.531582 -37.657709
-34.260159 66.414783 -38.321459
-33.980249 63.508625 -40.01754
-34.327682 61.625423 -39.35379
-34.348955 63.960746 -38.816902
-31.873771 72.214859 -43.196546
-31.926148 69.97591 -43.734072
-32.322046 70.627217 -42.657024
-29.059486 96.285869 -25.879348
-28.471967 97.461956 -26.346183
-30.625503 92.325142 -24.145071
-30.130249 93.744861 -24.687494
-30.543869 92.313946 -25.829966
-31.092507 90.848022 -23.632857
-30.625503 92.325142 -24.145071
-31.486519 89.333034 -24.684265
-31.539903 89.286831 -23.02958
-31.092507 90.848022 -23.632857
-31.005499 77.922004 -42.859696
-30.385908 79.364361 -43.429867
-25.962353 91.435108 -42.414129
-25.458695 93.048462 -41.610346
-25.059024 92.253971 -42.690242
-26.376055 89.820141 -43.173595
-26.775725 90.614632 -42.093699
-25.962353 91.435108 -42.414129
-32.49276 52.230461 -43.371845
-32.247137 54.128933 -43.978184
-15.005048 104.734131 -32.209548
-14.291511 105.274224 -30.872481
-16.23168 104.727501 -32.192329
-15.005048 104.734131 -32.209548
-15.697161 104.094078 -33.532116
-17.975798 99.815617 -39.468107
-19.234967 99.621502 -39.356834
-18.534698 100.702286 -38.267588
-34.33506 69.333039 -36.637814
-34.717999 67.574601 -35.8566
-34.534264 69.92202 -35.332147
-29.734443 80.82531 -43.894718
-30.385908 79.364361 -43.429867
-30.104281 81.471851 -42.871735
-23.433375 94.616459 -42.071154
-23.902571 95.395458 -40.998285
-22.780582 96.144593 -41.18298
-24.031131 93.08567 -42.909615
-23.433375 94.616459 -42.071154
-22.909141 93.834805 -43.094309
-25.059024 92.253971 -42.690242
-24.031131 93.08567 -42.909615
-14.539371 102.613129 -36.019299
-15.12592 103.376728 -34.817861
-15.242285 101.807614 -37.223671
-14.539371 102.613129 -36.019299
-34.329944 72.035125 -34.721569
-34.534264 69.92202 -35.332147
-33.927759 73.814346 -35.421667
-34.329944 72.035125 -34.721569
-33.522773 75.505871 -36.078058
-33.74634 73.371983 -36.769752
-33.927759 73.814346 -35.421667
-22.615779 104.820091 -25.847502
-22.258102 104.623253 -27.46288
-23.59206 104.194446 -25.490763
-22.615779 104.820091 -25.847502
-24.456233 103.473518 -25.271338
-23.59206 104.194446 -25.490763
-24.108121 103.398403 -26.893293
-25.300278 102.64489 -25.046443
-24.456233 103.473518 -25.271338
-26.109078 101.710034 -24.780644
-25.300278 102.64489 -25.046443
-25.781095 101.742618 -26.408068
-26.822555 100.771187 -24.472755
-26.109078 101.710034 -24.780644
-27.315828 99.712525 -25.648522
-26.822555 100.771187 -24.472755
-27.842111 98.587967 -26.747818
-27.315828 99.712525 -25.648522
-27.116177 99.683204 -27.241564
-28.272316 97.432636 -27.939225
-28.471967 97.461956 -26.346183
-27.842111 98.587967 -26.747818
-32.98515 57.190722 -42.844169
-33.316006 55.481232 -42.138768
-33.464791 57.953497 -41.90419
-32.506805 56.620958 -43.745176
-32.98515 57.190722 -42.844169
-32.65559 59.093224 -43.510599
-32.247137 54.128933 -43.978184
-32.506805 56.620958 -43.745176
-18.071811 107.090573 -23.486166
-16.849407 107.228234 -23.546297
-18.71469 106.684166 -24.925666
-18.071811 107.090573 -23.486166
-14.801025 105.813209 -29.481025
-14.291511 105.274224 -30.872481
-15.309679 106.265106 -28.123652
-14.801025 105.813209 -29.481025
-16.048222 105.819451 -29.512389
-15.913871 106.641419 -26.735951
-15.309679 106.265106 -28.123652
-17.053878 106.61937 -26.531098
-16.410872 106.989441 -25.112032
-15.913871 106.641419 -26.735951
-19.410311 106.163849 -26.475203
-18.71469 106.684166 -24.925666
-18.246502 106.447075 -26.456716
-20.10719 105.526966 -27.909647
-19.410311 106.163849 -26.475203
-20.809159 104.852851 -29.216838
-20.10719 105.526966 -27.909647
-19.644092 105.252644 -29.313443
-21.468137 104.088322 -30.395199
-21.931235 104.362644 -28.991403
-20.809159 104.852851 -29.216838
-21.491138 98.799343 -39.261154
-20.888435 99.997345 -38.16078
-20.39657 99.310169 -39.256689
-22.124525 97.517879 -40.233587
-22.616391 98.205056 -39.137678
-21.491138 98.799343 -39.261154
-21.65533 96.73888 -41.306455
-22.780582 96.144593 -41.18298
-22.124525 97.517879 -40.233587
-15.989396 100.92944 -38.369907
-16.52842 101.774574 -37.232624
-15.242285 101.807614 -37.223671
-16.744129 99.985512 -39.451468
-15.989396 100.92944 -38.369907
-17.975798 99.815617 -39.468107
-16.744129 99.985512 -39.451468
-34.889007 65.13513 -36.348345
-34.717999 67.574601 -35.8566
-34.889007 65.13513 -36.348345
-34.607591 64.531582 -37.657709
-34.28731 59.205399 -39.832604
-34.327682 61.625423 -39.35379
-33.877312 58.708655 -40.876608
-34.28731 59.205399 -39.832604
-33.546456 60.418144 -41.58201
-33.464791 57.953497 -41.90419
-33.877312 58.708655 -40.876608
-32.847378 64.144182 -42.815636
-32.781727 61.614626 -43.209772
-33.199585 62.192543 -42.215456
-32.401972 65.977266 -43.502251
-32.847378 64.144182 -42.815636
-32.81983 66.555183 -42.507935
-31.976132 67.516198 -44.120031
-32.401972 65.977266 -43.502251
-31.976132 67.516198 -44.120031
-31.926148 69.97591 -43.734072
-29.632707 94.99939 -25.296747
-29.059486 96.285869 -25.879348
-29.475394 95.020145 -26.954989
-29.632707 94.99939 -25.296747
-30.130249 93.744861 -24.687494
-31.957647 87.691483 -22.317131
-31.539903 89.286831 -23.02958
-32.339889 86.109493 -23.313164
-31.957647 87.691483 -22.317131
-32.741585 84.381409 -24.200151
-32.339889 86.109493 -23.313164
-32.33561 86.043758 -24.967975
-33.12444 82.63591 -25.067624
-32.741585 84.381409 -24.200151
-33.489525 80.852626 -25.865769
-33.12444 82.63591 -25.067624
-33.10239 82.53239 -26.653106
-33.827318 79.124462 -26.623879
-33.489525 80.852626 -25.865769
-33.800335 78.898727 -28.152394
-33.827318 79.124462 -26.623879
-33.729833 78.784336 -29.61562
-33.800335 78.898727 -28.152394
-33.396974 80.634716 -28.914478
-33.648707 78.515301 -31.158398
-33.729833 78.784336 -29.61562
-33.542536 78.214505 -32.711299
-33.648707 78.515301 -31.158398
-33.220303 80.219528 -31.930604
-33.409162 77.933483 -34.106739
-33.542536 78.214505 -32.711299
-33.241636 77.672512 -35.457754
-33.409162 77.933483 -34.106739
-32.946606 79.657761 -34.83452
-33.060217 77.230148 -36.80584
-33.522773 75.505871 -36.078058
-33.241636 77.672512 -35.457754
-31.582721 76.482861 -42.217468
-31.332967 78.571758 -41.764656
-31.005499 77.922004 -42.859696
-31.762461 74.349636 -42.716003
-32.089929 74.99939 -41.620964
-31.582721 76.482861 -42.217468
-31.873771 72.214859 -43.196546
-31.762461 74.349636 -42.716003
-26.769925 88.037109 -43.94533
-26.376055 89.820141 -43.173595
-27.580362 87.128967 -43.550117
-26.769925 88.037109 -43.94533
-28.33894 86.073375 -43.170229
-27.948003 87.944073 -42.473276
-27.580362 87.128967 -43.550117
-28.712057 84.095535 -43.791828
-29.079698 84.91064 -42.714987
-28.33894 86.073375 -43.170229
-29.077354 82.129311 -44.312902
-28.712057 84.095535 -43.791828
-29.734443 80.82531 -43.894718
-29.077354 82.129311 -44.312902
-33.098074 52.87714 -42.422232
-33.316006 55.481232 -42.138768
-33.098074 52.87714 -42.422232
-32.49276 52.230461 -43.371845
3 0 22 20
3 0 24 22
3 0 26 24
3 1 87 89
3 87 28 88
3 87 88 89
3 1 30 28
3 1 32 30
3 2 35 33
3 2 37 35
3 3 40 38
3 3 42 40
3 3 44 42
3 4 47 45
3 4 49 47
3 5 90 92
3 90 51 91
3 90 91 92
3 6 52 21
3 6 53 52
3 6 54 53
3 8 55 23
3 8 56 55
3 8 58 56
3 10 59 25
3 10 60 59
3 94 93 61
3 95 63 96
3 11 64 27
3 11 65 64
3 11 66 65
3 12 67 29
3 12 68 67
3 12 70 68
3 98 97 31
3 14 99 101
3 101 100 34
3 99 100 101
3 14 102 104
3 102 71 103
3 102 103 104
3 14 72 71
3 15 73 36
3 15 105 107
3 107 106 73
3 105 106 107
3 7 108 109
3 16 110 112
3 112 111 39
3 110 111 112
3 16 113 114
3 16 115 117
3 115 74 116
3 115 116 117
3 17 75 41
3 17 76 75
3 17 77 76
3 18 78 43
3 18 79 78
3 9 80 57
3 19 81 46
3 19 82 81
3 19 83 82
3 119 118 48
3 13 84 69
3 120 85 121
3 122 121 50
3 120 121 122
3 123 86 124
3 125 124 85
3 123 124 125
3 127 126 62
3 20 21 5
3 22 21 20
3 22 6 21
3 22 23 6
3 24 23 22
3 24 8 23
3 24 25 8
3 26 25 24
3 26 10 25
3 128 27 129
3 28 130 132
3 130 27 131
3 130 131 132
3 28 11 27
3 28 29 11
3 30 29 28
3 30 12 29
3 30 31 12
3 32 31 30
3 32 133 135
3 135 134 31
3 133 134 135
3 33 136 138
3 136 34 137
3 136 137 138
3 35 34 33
3 35 14 34
3 35 36 14
3 37 36 35
3 37 15 36
3 38 39 7
3 40 39 38
3 40 16 39
3 40 41 16
3 42 41 40
3 42 17 41
3 42 43 17
3 44 43 42
3 44 18 43
3 45 46 9
3 47 46 45
3 47 19 46
3 47 48 19
3 49 48 47
3 49 139 141
3 141 140 48
3 139 140 141
3 142 50 143
3 144 143 13
3 142 143 144
3 145 50 146
3 145 146 147
3 149 148 50
3 150 1 151
3 153 152 1
3 154 33 155
3 156 33 157
3 158 2 159
3 160 159 33
3 158 159 160
3 51 161 162
3 51 163 164
3 21 51 5
3 52 51 21
3 52 165 167
3 167 166 51
3 165 166 167
3 52 168 169
3 53 170 172
3 172 171 52
3 170 171 172
3 53 173 174
3 53 175 176
3 54 177 179
3 179 178 53
3 177 178 179
3 54 180 182
3 180 7 181
3 180 181 182
3 23 54 6
3 55 54 23
3 55 7 54
3 55 38 7
3 56 38 55
3 56 3 38
3 56 57 3
3 58 57 56
3 58 9 57
3 25 58 8
3 59 58 25
3 59 9 58
3 59 45 9
3 60 45 59
3 60 4 45
3 61 183 185
3 183 62 184
3 183 184 185
3 186 62 187
3 188 187 61
3 186 187 188
3 190 189 62
3 63 191 192
3 63 193 194
3 27 195 196
3 64 197 199
3 199 198 27
3 197 198 199
3 64 200 201
3 64 202 204
3 202 63 203
3 202 203 204
3 65 63 64
3 65 205 207
3 207 206 63
3 205 206 207
3 65 208 209
3 66 210 212
3 212 211 65
3 210 211 212
3 66 213 215
3 213 5 214
3 213 214 215
3 29 66 11
3 67 66 29
3 67 5 66
3 67 20 5
3 68 20 67
3 68 0 20
3 68 69 0
3 70 69 68
3 70 13 69
3 31 70 12
3 216 70 217
3 218 217 31
3 216 217 218
3 219 13 220
3 221 220 70
3 219 220 221
3 224 223 13
3 222 223 224
3 225 32 226
3 227 226 1
3 225 226 227
3 228 32 229
3 231 230 32
3 34 232 233
3 235 234 34
3 71 236 237
3 71 238 239
3 71 240 242
3 240 61 241
3 240 241 242
3 72 61 71
3 72 243 245
3 245 244 61
3 243 244 245
3 36 72 14
3 73 72 36
3 73 246 248
3 248 247 72
3 246 247 248
3 73 249 250
3 252 251 73
3 39 253 255
3 255 254 7
3 253 254 255
3 257 256 39
3 74 258 259
3 74 260 261
3 41 74 16
3 75 74 41
3 75 262 264
3 264 263 74
3 262 263 264
3 75 265 266
3 76 267 269
3 269 268 75
3 267 268 269
3 76 270 271
3 76 272 273
3 77 274 276
3 276 275 76
3 274 275 276
3 77 277 278
3 43 77 17
3 78 77 43
3 78 279 281
3 281 280 77
3 279 280 281
3 78 282 283
3 79 284 286
3 286 285 78
3 284 285 286
3 79 287 289
3 287 2 288
3 287 288 289
3 57 44 3
3 80 44 57
3 80 18 44
3 46 80 9
3 81 80 46
3 81 18 80
3 81 79 18
3 82 79 81
3 82 2 79
3 82 37 2
3 83 37 82
3 83 15 37
3 48 83 19
3 290 83 291
3 292 291 48
3 290 291 292
3 293 15 294
3 295 294 83
3 293 294 295
3 297 296 15
3 69 26 0
3 84 26 69
3 84 10 26
3 50 84 13
3 85 84 50
3 85 10 84
3 85 60 10
3 86 60 85
3 86 4 60
3 298 86 299
3 300 86 301
3 302 4 303
3 304 303 86
3 302 303 304
3 305 49 306
3 307 306 4
3 305 306 307
3 308 49 309
3 311 310 49
3 62 312 313
3 315 314 62
