ply
format ascii 1.0
element vertex 365
property float x
property float y
property float z
element face 338
property list uchar int vertex_index
end_header
0.5548 -5.926605 -56.475021
-2.332967 -0.982139 -53.498871
0.692506 6.22479 -60.777744
-10.55094 -27.327602 -36.876335
-5.337533 -24.225563 -43.484829
-2.785696 -12.322133 -49.095417
-1.043272 8.319516 -58.451939
2.446621 10.212641 -64.662262
-8.921474 -22.108322 -39.573311
-7.734025 -26.126661 -40.218906
-6.10212 -20.3703 -43.001514
-0.708675 -3.489205 -55.087608
-2.363856 -6.759623 -51.426079
-0.993494 -9.481371 -52.675064
-1.829467 -15.735155 -49.787899
-2.551526 4.943588 -55.184654
-0.692715 2.551516 -57.214432
-13.517999 -27.771023 -33.766842
-9.778469 -31.729252 -37.428913
-5.035266 -15.16153 -45.492462
-3.780631 -18.347557 -46.353893
-3.150345 -22.178856 -46.874313
-7.479469 -21.476006 -41.219223
-6.844587 -18.767365 -42.541447
-0.015407 -4.694543 -55.878014
-0.787547 -6.344474 -53.994648
-0.187276 -7.91672 -54.538074
-0.496717 -10.981037 -53.115528
0.418395 -9.149856 -55.229706
1.20045 -7.611361 -57.026817
-0.800292 5.47125 -57.994781
0.005394 4.44487 -59.029335
0.057973 1.479851 -58.127918
0.785864 3.281712 -60.006958
1.537877 5.146084 -61.881367
-11.968136 -27.460854 -35.381821
-12.851191 -30.024622 -34.044052
-11.461628 -29.90357 -35.552612
-10.086149 -29.43528 -37.148087
-6.506559 -25.276848 -41.836567
-7.478789 -28.212496 -40.424713
-6.295749 -27.279675 -42.038826
-5.201573 -26.502409 -43.607555
-3.31976 0.579334 -52.778587
-3.180757 -2.451711 -51.895668
-2.482432 -9.556389 -50.341003
-3.352441 -8.20309 -49.659512
-3.453541 -10.889563 -48.64222
-4.553628 -12.398669 -46.874939
-3.838731 -13.852109 -47.27655
-4.281425 -16.791893 -45.977463
-3.208428 -15.245732 -47.76619
-1.477997 -17.583488 -50.072868
-2.454705 -19.042572 -48.278233
-2.011291 9.450718 -57.270916
-1.145014 11.215862 -59.024288
1.510337 8.154598 -62.701817
1.445093 11.017087 -63.275806
-9.672955 -24.672468 -38.258442
-9.110826 -26.863096 -38.523529
-8.237055 -24.189396 -39.883511
-6.913719 -23.302509 -41.545235
-5.703093 -22.284168 -43.184803
-1.427804 -2.128966 -54.402439
-2.274889 -3.830996 -52.570251
-1.537685 -5.207825 -53.158585
-1.573426 -8.037682 -52.165604
-1.817818 -10.925265 -50.918324
-2.253404 -13.882366 -49.485233
-1.377998 -12.684284 -51.175453
-0.899588 -14.219607 -51.647255
-2.361038 1.986389 -54.479626
-1.756344 6.486912 -56.800442
-1.547976 3.686551 -56.228573
-1.4711 0.902399 -55.400879
-0.692816 -0.332175 -56.21563
1.387166 -4.405021 -58.402397
-8.68283 -28.859293 -38.867172
-8.517778 -31.086393 -39.054737
-3.229933 -5.411667 -50.783005
-5.479628 -17.845926 -44.273777
-4.915319 -19.601425 -44.605843
-4.487835 -21.337162 -44.937225
-2.73509 -16.902384 -48.139992
-3.434168 -20.203009 -46.609863
-4.228986 -23.34951 -45.141541
2.099387 -5.73664 -59.052517
-7.273741 -17.826937 -42.397599
-7.519527 -19.169665 -41.749566
0.34895 5.33483 -59.90354
-0.053861 5.920115 -59.383358
0.289694 6.810075 -60.257562
-11.259538 -27.394228 -36.129078
-11.532287 -26.24916 -36.062048
-10.82369 -26.182534 -36.809305
-1.809199 -19.251283 -49.329109
-1.270791 -18.432495 -50.290363
-1.239804 12.66004 -59.160703
-1.640769 11.698232 -58.38248
1.009356 11.552181 -62.659687
1.035736 10.037097 -62.366035
-9.6546 -22.369511 -38.788576
-9.373209 -21.106932 -39.414934
-9.297214 -23.390395 -38.915876
-10.030341 -23.651584 -38.131141
-9.6546 -22.369511 -38.788576
-0.440297 -13.312662 -52.646658
-0.698153 -12.600322 -52.381391
-0.238862 -11.693376 -53.380795
-0.690276 -15.037588 -51.839735
-0.440297 -13.312662 -52.646658
-2.983681 4.177848 -54.390309
-3.120575 5.597715 -54.669668
-2.456282 3.464989 -54.83214
-2.888437 2.699249 -54.037795
-2.983681 4.177848 -54.390309
0.035703 -0.081791 -57.549074
0.415099 0.874772 -58.546009
2.416506 8.697156 -64.238081
1.948364 7.668134 -63.257858
1.978479 9.183619 -63.68204
-13.891036 -26.626798 -33.67169
-13.090148 -26.566517 -34.453522
-14.280358 -27.872498 -32.988237
-13.891036 -26.626798 -33.67169
-13.888893 -28.974041 -33.161203
-14.280358 -27.872498 -32.988237
-13.283941 -31.392305 -33.407394
-12.635459 -31.191139 -34.149997
-10.370417 -33.257976 -36.700693
-10.434631 -32.014242 -36.617226
-9.777749 -33.00906 -37.470894
-10.370417 -33.257976 -36.700693
-7.960348 -30.818885 -39.804907
-7.998283 -29.649445 -39.739725
-7.440853 -29.381936 -40.489895
-8.002914 -32.155214 -39.821136
-8.560344 -32.422722 -39.070966
-7.960348 -30.818885 -39.804907
-3.813832 -7.407273 -49.417168
-3.874853 -8.889947 -48.827776
-5.424058 -14.270056 -45.363747
-5.183239 -12.888625 -46.054985
-4.794447 -13.7801 -46.183701
-5.663584 -15.703909 -44.662312
-5.424058 -14.270056 -45.363747
-5.257447 -16.503728 -44.88312
-5.885765 -17.046107 -44.052969
-5.663584 -15.703909 -44.662312
-3.612495 -23.816837 -46.091241
-4.151815 -24.402164 -45.224855
-3.689666 -22.764183 -46.007927
2.157855 -4.01663 -59.746249
1.743276 -5.07083 -58.727457
1.801744 -3.350821 -59.421188
-8.55797 -20.840143 -40.265497
-9.373209 -21.106932 -39.414934
-7.836968 -20.523985 -41.088453
-8.200471 -21.792164 -40.396267
-8.55797 -20.840143 -40.265497
-7.162028 -20.121686 -41.880335
-7.836968 -20.523985 -41.088453
-7.519527 -19.169665 -41.749566
0.218695 -10.777786 -54.437883
-0.238862 -11.693376 -53.380795
-0.039161 -10.065447 -54.172617
0.66081 -10.077095 -55.366779
0.218695 -10.777786 -54.437883
1.051837 -9.307847 -56.265335
0.66081 -10.077095 -55.366779
0.809423 -8.380608 -56.128262
1.511659 -8.428658 -57.244383
1.051837 -9.307847 -56.265335
-2.68581 6.393812 -55.443808
-3.120575 5.597715 -54.669668
-0.456705 6.433306 -58.866081
-0.921782 6.895383 -58.22336
-0.578194 7.857439 -59.09466
-0.397449 4.95806 -58.512058
-0.456705 6.433306 -58.866081
-0.053861 5.920115 -59.383358
0.779044 1.775702 -59.485529
0.415099 0.874772 -58.546009
0.421918 2.380782 -59.067438
1.175607 2.654095 -60.462029
0.779044 1.775702 -59.485529
1.551614 3.58628 -61.399233
1.175607 2.654095 -60.462029
1.161871 4.213898 -60.944162
1.96892 4.647821 -62.403728
1.551614 3.58628 -61.399233
2.907012 9.598031 -65.155128
2.912241 11.154366 -65.48727
-12.315217 -26.411433 -35.261012
-11.532287 -26.24916 -36.062048
-12.743067 -27.615938 -34.574331
-13.090148 -26.566517 -34.453522
-12.315217 -26.411433 -35.261012
-11.940678 -31.130612 -34.904278
-12.635459 -31.191139 -34.149997
-12.156409 -29.964096 -34.798332
-11.27621 -31.101401 -35.679075
-11.940678 -31.130612 -34.904278
-10.58847 -30.867256 -36.476812
-11.27621 -31.101401 -35.679075
-10.773888 -29.669425 -36.35035
-9.932309 -30.582266 -37.2885
-10.434631 -32.014242 -36.617226
-10.58847 -30.867256 -36.476812
-6.849334 -28.915526 -41.296951
-7.440853 -29.381936 -40.489895
-6.887269 -27.746085 -41.231769
-6.296641 -28.546993 -42.063242
-6.849334 -28.915526 -41.296951
-5.749553 -28.158361 -42.847606
-6.296641 -28.546993 -42.063242
-5.748661 -26.891042 -42.82319
-5.148439 -27.68266 -43.709072
-5.749553 -28.158361 -42.847606
-3.800484 -0.212734 -51.967372
-3.875573 1.252309 -52.378115
-3.730982 -1.728257 -51.525913
-3.800484 -0.212734 -51.967372
-3.250259 -0.936188 -52.337128
-3.706122 -3.147896 -51.054661
-3.730982 -1.728257 -51.525913
-3.925403 -10.233184 -48.31913
-3.874853 -8.889947 -48.827776
-3.402991 -9.546326 -49.150866
-4.003584 -11.644116 -47.758579
-4.475447 -10.987737 -47.43549
-3.925403 -10.233184 -48.31913
-2.297553 -19.980825 -48.431792
-1.966351 -18.31303 -49.17555
-1.809199 -19.251283 -49.329109
-2.645373 -21.548966 -47.729832
-2.802525 -20.610714 -47.576273
-2.297553 -19.980825 -48.431792
-3.025552 -23.220121 -47.014259
-2.645373 -21.548966 -47.729832
-2.073907 10.81566 -57.505795
-2.532328 10.114152 -56.720575
-1.578152 10.33329 -58.147602
-2.073907 10.81566 -57.505795
-1.640769 11.698232 -58.38248
-0.713329 12.095341 -59.903038
-1.239804 12.66004 -59.160703
-0.683535 10.702786 -59.661008
-0.713329 12.095341 -59.903038
-0.632664 9.254613 -59.374834
-1.094143 9.767689 -58.738113
-0.683535 10.702786 -59.661008
-0.578194 7.857439 -59.09466
-0.632664 9.254613 -59.374834
0.659442 7.640949 -61.117004
0.289694 6.810075 -60.257562
1.068358 8.605853 -62.07904
1.101422 7.189694 -61.73978
0.659442 7.640949 -61.117004
1.477715 9.585843 -62.988811
1.068358 8.605853 -62.07904
1.035736 10.037097 -62.366035
1.428216 12.484133 -63.494259
1.009356 11.552181 -62.659687
1.885125 11.995296 -64.133581
1.428216 12.484133 -63.494259
2.385889 11.593073 -64.826809
1.945857 10.614864 -63.969034
1.885125 11.995296 -64.133581
2.912241 11.154366 -65.48727
2.385889 11.593073 -64.826809
-10.384697 -24.854967 -37.500359
-10.030341 -23.651584 -38.131141
-10.111947 -26.000035 -37.567388
-10.82369 -26.182534 -36.809305
-10.384697 -24.854967 -37.500359
-0.97948 -16.719528 -51.052542
-1.188792 -15.901547 -50.860062
-0.690276 -15.037588 -51.839735
-1.270791 -18.432495 -50.290363
-0.97948 -16.719528 -51.052542
-3.367798 1.995722 -53.187275
-3.875573 1.252309 -52.378115
-2.840399 1.282862 -53.629107
-3.367798 1.995722 -53.187275
-2.888437 2.699249 -54.037795
-2.415693 8.647377 -56.486939
-2.532328 10.114152 -56.720575
-2.288219 7.165474 -56.251701
-2.415693 8.647377 -56.486939
-1.883817 7.968815 -57.035679
-2.153935 5.71525 -55.992548
-2.68581 6.393812 -55.443808
-2.288219 7.165474 -56.251701
-0.339691 -0.987804 -56.59293
-0.317422 0.573838 -57.171774
0.035703 -0.081791 -57.549074
-0.347621 -2.566319 -56.028919
-0.700746 -1.91069 -55.651619
-0.339691 -0.987804 -56.59293
-0.000987 -3.168988 -56.424122
-0.362041 -4.091874 -55.482811
-0.347621 -2.566319 -56.028919
0.365636 -3.737552 -56.873389
-0.000987 -3.168988 -56.424122
0.65074 -4.353582 -57.171892
0.269697 -5.310574 -56.176518
0.365636 -3.737552 -56.873389
1.066922 -3.59279 -58.13558
0.970983 -5.165813 -57.438709
0.65074 -4.353582 -57.171892
1.432163 -2.718686 -59.060537
1.066922 -3.59279 -58.13558
1.801744 -3.350821 -59.421188
1.432163 -2.718686 -59.060537
1.962134 6.163877 -62.847634
1.524107 6.650341 -62.291592
1.948364 7.668134 -63.257858
1.96892 4.647821 -62.403728
1.962134 6.163877 -62.847634
2.416506 8.697156 -64.238081
2.907012 9.598031 -65.155128
-13.555489 -30.100841 -33.299808
-13.888893 -28.974041 -33.161203
-13.184595 -28.897823 -33.905447
-13.555489 -30.100841 -33.299808
-13.283941 -31.392305 -33.407394
-9.147404 -32.68763 -38.283806
-9.777749 -33.00906 -37.470894
-9.148124 -31.407823 -38.241825
-9.147404 -32.68763 -38.283806
-8.560344 -32.422722 -39.070966
-3.73071 -4.627874 -50.498329
-3.706122 -3.147896 -51.054661
-3.205345 -3.931689 -51.339337
-3.752578 -6.011562 -49.978915
-3.291187 -6.807378 -50.221259
-3.813832 -7.407273 -49.417168
-3.73071 -4.627874 -50.498329
-3.752578 -6.011562 -49.978915
-5.066019 -11.557357 -46.631298
-4.475447 -10.987737 -47.43549
-5.066019 -11.557357 -46.631298
-5.183239 -12.888625 -46.054985
-6.568245 -17.506827 -43.186804
-7.273741 -17.826937 -42.397599
-6.162107 -18.306646 -43.407612
-6.568245 -17.506827 -43.186804
-5.885765 -17.046107 -44.052969
-4.638108 -25.978613 -44.457862
-4.715279 -24.925959 -44.374548
-4.151815 -24.402164 -45.224855
-5.148439 -27.68266 -43.709072
-4.638108 -25.978613 -44.457862
-3.612495 -23.816837 -46.091241
-3.025552 -23.220121 -47.014259
1.961127 -7.491297 -58.257233
1.511659 -8.428658 -57.244383
1.649919 -6.674001 -58.039667
2.566896 -4.816261 -60.019081
2.157855 -4.01663 -59.746249
2.479538 -6.537078 -59.283785
2.566896 -4.816261 -60.019081
1.961127 -7.491297 -58.257233
2.479538 -6.537078 -59.283785
3 87 23 88
3 0 26 24
3 0 28 26
3 0 29 28
3 2 89 91
3 89 31 90
3 89 90 91
3 2 33 31
3 2 34 33
3 3 92 94
3 92 35 93
3 92 93 94
3 3 37 35
3 3 38 37
3 4 41 39
3 4 42 41
3 1 44 43
3 5 47 45
3 5 49 47
3 5 51 49
3 96 95 52
3 97 55 98
3 99 57 100
3 8 101 102
3 8 103 105
3 103 58 104
3 103 104 105
3 8 60 58
3 10 61 22
3 10 62 61
3 11 65 63
3 13 66 25
3 13 67 66
3 13 69 67
3 106 70 107
3 108 107 27
3 106 107 108
3 110 109 70
3 15 111 112
3 15 113 115
3 113 71 114
3 113 114 115
3 6 72 54
3 16 73 30
3 16 74 73
3 16 75 74
3 117 116 32
3 7 118 120
3 120 119 56
3 118 119 120
3 17 121 122
3 17 123 124
3 17 125 126
3 128 127 36
3 18 129 130
3 18 131 132
3 9 77 59
3 133 78 134
3 135 134 40
3 133 134 135
3 138 137 78
3 136 137 138
3 12 79 64
3 140 139 46
3 19 141 143
3 143 142 48
3 141 142 143
3 19 144 145
3 19 146 148
3 146 80 147
3 146 147 148
3 20 81 50
3 20 82 81
3 14 83 68
3 21 84 53
3 21 85 84
3 21 149 151
3 151 150 85
3 149 150 151
3 152 86 153
3 154 153 76
3 152 153 154
3 155 8 156
3 157 22 158
3 159 158 8
3 157 158 159
3 23 160 162
3 160 22 161
3 160 161 162
3 23 10 22
3 24 25 11
3 26 25 24
3 26 13 25
3 26 27 13
3 28 27 26
3 28 163 165
3 165 164 27
3 163 164 165
3 28 166 167
3 29 168 170
3 170 169 28
3 168 169 170
3 29 171 172
3 173 15 174
3 175 30 176
3 177 176 6
3 175 176 177
3 31 178 180
3 178 30 179
3 178 179 180
3 31 16 30
3 31 32 16
3 33 32 31
3 33 181 183
3 183 182 32
3 181 182 183
3 33 184 185
3 34 186 188
3 188 187 33
3 186 187 188
3 34 189 190
3 192 191 7
3 35 193 194
3 35 195 197
3 195 17 196
3 195 196 197
3 35 36 17
3 37 36 35
3 37 198 200
3 200 199 36
3 198 199 200
3 37 201 202
3 38 203 205
3 205 204 37
3 203 204 205
3 38 206 208
3 206 18 207
3 206 207 208
3 39 40 9
3 41 40 39
3 41 209 211
3 211 210 40
3 209 210 211
3 41 212 213
3 42 214 216
3 216 215 41
3 214 215 216
3 42 217 218
3 43 219 220
3 44 221 223
3 223 222 43
3 221 222 223
3 44 224 225
3 45 46 12
3 47 46 45
3 47 226 228
3 228 227 46
3 226 227 228
3 47 229 231
3 229 48 230
3 229 230 231
3 49 48 47
3 49 19 48
3 49 50 19
3 51 50 49
3 51 20 50
3 52 53 14
3 232 53 233
3 234 233 52
3 232 233 234
3 235 21 236
3 237 236 53
3 235 236 237
3 239 238 21
3 240 54 241
3 55 242 244
3 242 54 243
3 242 243 244
3 55 6 54
3 245 55 246
3 247 55 248
3 249 6 250
3 251 250 55
3 249 250 251
3 253 252 6
3 254 2 255
3 256 56 257
3 258 257 2
3 256 257 258
3 57 259 261
3 259 56 260
3 259 260 261
3 57 7 56
3 262 57 263
3 264 57 265
3 266 7 267
3 268 267 57
3 266 267 268
3 270 269 7
3 58 271 272
3 58 273 275
3 273 3 274
3 273 274 275
3 58 59 3
3 60 59 58
3 60 9 59
3 22 60 8
3 61 60 22
3 61 9 60
3 61 39 9
3 62 39 61
3 62 4 39
3 63 64 1
3 65 64 63
3 65 12 64
3 25 65 11
3 66 65 25
3 66 12 65
3 66 45 12
3 67 45 66
3 67 5 45
3 67 68 5
3 69 68 67
3 69 14 68
3 27 69 13
3 70 69 27
3 70 14 69
3 70 52 14
3 276 52 277
3 278 277 70
3 276 277 278
3 280 279 52
3 281 43 282
3 71 283 285
3 283 43 284
3 283 284 285
3 71 1 43
3 54 286 287
3 72 288 290
3 290 289 54
3 288 289 290
3 72 291 293
3 291 15 292
3 291 292 293
3 30 72 6
3 73 72 30
3 73 15 72
3 73 71 15
3 74 71 73
3 74 1 71
3 74 63 1
3 75 63 74
3 75 11 63
3 32 75 16
3 294 75 295
3 296 295 32
3 294 295 296
3 297 11 298
3 299 298 75
3 297 298 299
3 300 24 301
3 302 301 11
3 300 301 302
3 303 24 304
3 305 0 306
3 307 306 24
3 305 306 307
3 308 76 309
3 310 309 0
3 308 309 310
3 311 76 312
3 314 313 76
3 56 34 2
3 315 34 316
3 317 316 56
3 315 316 317
3 319 318 34
3 321 320 7
3 36 322 324
3 324 323 17
3 322 323 324
3 326 325 36
3 59 38 3
3 77 38 59
3 77 18 38
3 40 77 9
3 78 77 40
3 78 18 77
3 78 327 329
3 329 328 18
3 327 328 329
3 331 330 78
3 64 44 1
3 79 44 64
3 79 332 334
3 334 333 44
3 332 333 334
3 46 79 12
3 335 79 336
3 337 336 46
3 335 336 337
3 339 338 79
3 48 340 341
3 343 342 48
3 344 23 345
3 80 346 348
3 346 23 347
3 346 347 348
3 80 10 23
3 50 80 19
3 81 80 50
3 81 10 80
3 81 62 10
3 82 62 81
3 82 4 62
3 68 51 5
3 83 51 68
3 83 20 51
3 53 83 14
3 84 83 53
3 84 20 83
3 84 82 20
3 85 82 84
3 85 4 82
3 85 42 4
3 349 42 350
3 351 350 85
3 349 350 351
3 353 352 42
3 355 354 21
3 76 29 0
3 86 29 76
3 86 356 358
3 358 357 29
3 356 357 358
3 359 86 360
3 361 86 362
3 364 363 86
