ply
format ascii 1.0
element vertex 989
property float x
property float y
property float z
element face 1106
property list uchar int vertex_index
end_header
-28.66691 -40.43227 32.491753
-6.165545 -51.718369 41.303448
-25.16872 -56.253098 26.075338
-16.961929 -45.775288 35.702457
-27.498064 -47.885513 30.29166
-30.96493 -50.367477 23.137405
-32.757977 -42.375534 28.029186
-23.17733 -42.731667 34.121193
-21.196325 -52.287697 32.073872
-17.77718 -29.259663 40.406631
-27.884697 -56.969296 17.029402
-11.319777 -48.851643 37.986652
-8.931402 -58.904259 35.456985
-14.825514 -55.848644 33.822205
-19.077785 -61.389969 28.371344
-26.020565 -34.168747 34.553848
-32.090153 -34.016129 31.186029
-6.957636 -35.886051 50.853699
-8.968554 -41.885063 43.476032
-14.094923 -38.822979 39.281193
-19.727766 -36.093372 36.652546
-28.20936 -43.878731 31.664782
-30.291883 -45.397324 29.220285
-30.707226 -41.432194 30.731134
-26.182564 -41.504459 33.336746
-25.23004 -45.711269 32.558182
-2.084158 -58.167946 41.223392
-4.728964 -56.80302 39.593399
-23.833128 -60.194496 23.247107
-25.264084 -60.346825 18.771765
-26.754641 -56.944942 21.809433
-14.033059 -47.435257 36.708378
-12.924501 -52.296238 35.933598
-15.939365 -50.7673 34.92934
-23.308544 -54.558453 29.548283
-20.126123 -56.923706 30.483059
-22.235357 -58.789383 27.332396
-20.962685 -63.065495 24.604332
-24.78944 -30.365482 35.645882
-9.615734 -34.046135 47.906368
-10.593751 -37.019432 44.232479
-11.455201 -40.284847 41.230034
-13.02893 -35.650875 41.868652
-20.678295 -27.86512 38.639439
-18.500219 -32.657623 38.317638
-21.454647 -31.402658 37.00238
-22.835339 -35.064312 35.616741
-34.111988 -30.241373 29.79229
-34.692616 -34.605007 28.39769
-26.513111 -52.16663 28.325857
-28.17454 -53.396786 24.637085
-29.420673 -49.510765 27.131546
-32.107094 -46.42466 25.912924
-34.482925 -43.067539 24.457907
-20.038641 -44.424889 34.817749
-18.98872 -49.074036 34.110909
-22.141607 -47.530899 33.289116
-24.334984 -50.248634 31.220142
-14.865677 -30.900164 42.59684
3.302722 -61.310558 44.841393
0.618425 -59.817719 42.918186
-26.406662 -59.870857 13.627431
-28.839619 -56.289505 11.958484
-29.509544 -53.756241 20.24544
-30.495937 -53.494175 15.241746
-31.42565 -52.492249 10.147347
-8.774441 -50.172424 39.51421
-7.373525 -55.312492 38.261101
-10.100848 -53.862808 37.012077
-11.831042 -57.370716 34.664604
-13.911208 -60.684147 32.128437
-17.890717 -54.048119 33.031868
-16.974771 -58.923752 31.387299
-15.850789 -63.71133 29.183262
-17.948921 -65.823151 25.600191
-27.495718 -37.57476 33.50983
-30.182961 -37.583218 32.08012
-29.22224 -33.951698 33.104973
-31.221188 -29.853634 32.279186
-33.341839 -25.722837 30.962534
-35.329678 -21.521862 29.179651
-4.977512 -48.5695 44.791389
-5.621685 -33.072186 54.826057
-7.505561 -46.866123 42.517818
-10.000593 -45.29475 40.466114
-12.621981 -43.673046 38.724892
-15.321208 -42.306442 37.309299
-15.677458 -34.001717 39.956829
-16.836489 -37.384098 37.80555
-18.198572 -40.980877 36.213779
-21.306719 -39.606831 35.335072
-24.446066 -38.443264 34.503426
-32.690239 -38.19949 29.835768
-34.890442 -38.908554 26.624008
-28.512203 -41.965977 32.153328
-29.551363 -42.691601 31.206131
-29.550619 -40.884499 31.817438
-27.623661 -40.877384 32.890831
-27.261431 -42.697975 32.576801
-4.861064 -52.698792 42.146603
-24.450005 -58.264996 24.783661
-25.237003 -58.590904 22.687149
-25.962767 -56.752083 24.051783
-15.449823 -46.550545 36.204365
-14.982301 -49.027317 35.820751
-16.434183 -48.188068 35.372478
-24.241158 -55.521526 27.958008
-22.725975 -56.73867 28.520321
-23.686008 -57.488506 26.804346
-23.081999 -59.535831 25.455631
-24.174692 -28.545729 36.314358
-10.076522 -35.535282 46.051041
-11.843371 -36.271397 42.984024
-22.218273 -27.259981 37.798923
-21.124102 -29.539433 37.734768
-22.638382 -29.07135 37.003017
-23.182064 -30.850504 36.293194
-35.010761 -28.216078 29.0287
-36.233891 -28.438181 27.369995
-27.03356 -49.989273 29.407742
-28.005367 -50.767578 27.816273
-28.591608 -48.704792 28.79409
-31.536337 -43.92926 28.693848
-31.307096 -45.878563 27.65309
-32.557396 -44.376144 26.975971
-33.340916 -44.921761 25.066978
-33.727291 -42.717842 26.29192
-21.632652 -43.611324 34.446133
-20.992117 -46.030678 34.120323
-22.640551 -45.209213 33.729767
-26.411894 -46.923309 31.492367
-24.835108 -47.893116 31.958988
-25.871124 -49.148529 30.79014
-25.509115 -51.27594 29.864683
1.117296 -58.229454 45.134766
-0.213718 -57.454926 44.106083
-26.571136 -58.643784 18.024744
-25.870579 -60.154411 16.338676
-27.131756 -58.422729 15.415279
-27.599237 -58.124233 12.695867
-28.314064 -56.789154 14.530756
-29.586998 -51.942795 23.874224
-28.873425 -53.701134 22.493481
-30.222784 -52.156998 21.75004
-31.790623 -51.68499 14.395267
-30.950613 -53.086422 12.6458
-32.282478 -51.131004 11.822105
-33.463322 -49.304409 11.005792
-10.058316 -49.36129 38.75687
-9.433372 -52.018085 38.19743
-10.736893 -51.304855 37.550655
-13.900056 -54.030087 34.897373
-12.461774 -54.866734 35.318794
-13.346302 -56.518372 34.270966
-12.785734 -59.180256 33.409298
-14.314528 -58.346203 33.05088
-20.125067 -50.628571 33.180809
-18.445591 -51.570343 33.615547
-19.489279 -53.124996 32.602512
-19.6595 -59.106167 29.499714
-18.536673 -57.80389 31.037886
-18.136675 -60.184608 29.939917
-16.514666 -61.275574 30.349148
-17.44417 -62.547665 28.86231
-16.962069 -64.755112 27.540197
-18.542589 -63.581551 27.079575
-20.362671 -65.021835 23.148285
-26.75721 -36.038414 34.016193
-28.332888 -35.853252 33.34985
-27.614107 -34.06012 33.891571
-29.663582 -29.919924 33.270191
-30.667704 -27.752348 32.854675
-32.229877 -27.857357 31.71796
-31.761898 -25.726101 32.26828
-33.96682 -21.260942 30.69396
-3.763589 -49.316944 45.985397
-6.30052 -34.528793 52.867947
-4.846627 -35.420143 54.48703
-6.937132 -45.247849 44.242851
-8.271311 -44.424824 42.929062
-8.79329 -46.047085 41.420025
-9.518452 -43.50124 41.866871
-12.740063 -39.555275 40.216892
-11.97713 -42.105133 39.866787
-13.27046 -41.338299 39.022968
-13.974816 -42.969006 37.960171
-14.600561 -40.593525 38.26545
-16.305944 -30.085209 41.438343
-15.260283 -32.394207 41.210606
-16.629045 -31.64827 40.236286
-19.100258 -34.217297 37.451351
-17.552731 -34.916183 38.148136
-18.252516 -36.656387 37.219662
-17.383148 -39.241764 36.990528
-18.911438 -38.548588 36.444855
-19.739916 -40.225376 35.765953
-20.494455 -37.785439 35.971275
-24.4846 -34.424358 35.107681
-23.610178 -36.724182 35.060337
-25.164507 -36.304935 34.58215
-26.000889 -38.008812 34.032017
-31.149107 -35.887165 31.659674
-31.494761 -37.887096 31.036245
-32.451077 -36.114876 30.545197
-34.840565 -36.803482 27.577749
2.771521 -63.023186 42.259857
4.172067 -63.763878 43.177143
-8.224401 -57.047626 36.796413
-6.81746 -57.826206 37.312096
-27.931589 -45.814461 31.02319
-29.018129 -46.645287 29.724621
-29.307438 -44.638161 30.549328
-30.535831 -43.444454 30.03973
-31.688835 -42.029385 29.524349
-24.681227 -42.152477 33.737423
-24.138798 -44.408466 33.388691
-25.726215 -43.60017 32.989567
-26.746969 -44.800026 32.143242
-2.843528 -55.789146 42.267876
-3.402325 -57.54533 40.336868
-24.577847 -60.3974 21.05311
-26.015266 -58.617622 20.405827
-27.377655 -57.020191 19.463083
-32.275539 -48.731438 22.383272
-31.652178 -50.392567 20.923384
-12.635789 -48.052132 37.356018
-12.059283 -50.585541 36.946938
-13.457898 -49.834114 36.376038
-14.430919 -51.629784 35.380306
-15.400354 -53.448757 34.383572
-22.351713 -53.551758 30.825649
-20.622156 -54.558571 31.392689
-21.692345 -55.779167 30.035757
-21.216099 -58.013325 28.9611
-20.655094 -60.201393 27.816689
-20.065685 -62.312122 26.599506
-21.571001 -60.981438 26.039742
-22.36912 -61.591652 24.10778
-25.36574 -32.241386 35.086811
-27.06559 -32.144924 34.363865
-26.419554 -30.169327 34.921722
-8.312304 -35.005802 49.293026
-7.518674 -37.232059 48.926334
-8.814516 -36.484165 47.358212
-9.269132 -37.94862 45.579201
-10.26314 -41.100212 42.221241
-11.009354 -38.622204 42.659611
-12.246647 -37.901264 41.54248
-13.531774 -37.122864 40.540741
-19.17647 -28.631763 39.474689
-18.014954 -31.062222 39.31337
-19.545218 -30.296425 38.489536
-20.016268 -31.944496 37.623322
-20.62635 -33.796261 36.795315
-21.304905 -35.442501 36.132767
-22.2267 -33.062382 36.248302
-23.777397 -32.734161 35.661491
-33.14333 -32.20948 30.499617
-33.437035 -34.321434 29.906834
-34.430595 -32.403721 29.144529
-9.733917 -60.669403 34.131191
-25.848656 -54.178249 27.318857
-26.739391 -54.741879 25.419029
-27.415785 -52.770145 26.675549
-28.824266 -51.546597 25.892311
-30.297014 -49.952011 25.234255
-30.001656 -47.347626 28.213957
-30.792917 -47.973888 26.582865
-31.658291 -48.338352 24.566601
-32.881954 -46.809315 23.819277
-34.057716 -45.097519 23.131559
-18.517654 -45.005085 35.248569
-17.882172 -47.51997 34.935513
-19.448923 -46.861607 34.48801
-20.555708 -48.316616 33.694904
-21.615477 -49.846867 32.780281
-23.751066 -46.606728 32.912914
-23.2271 -48.916718 32.366318
-22.739782 -51.215931 31.699047
-23.853319 -52.34296 30.465805
-24.852428 -53.401371 29.010521
-18.763052 -27.009924 40.679867
2.47939 -59.019939 46.189068
1.994005 -60.643177 43.838779
1.307463 -62.014061 41.552662
-0.722458 -59.141491 41.924492
-0.057124 -61.35656 40.627605
-27.394007 -55.235683 23.393894
-28.168886 -55.282738 21.141991
-28.638203 -55.447994 18.756069
-30.830784 -52.083961 19.585985
-30.065969 -53.642914 17.866129
-29.207956 -55.217426 16.161709
-29.726957 -54.813553 13.559959
-30.097689 -54.461044 10.92654
-34.593689 -47.415291 10.276077
-7.467286 -50.999237 40.348377
-6.775369 -53.57526 39.663754
-8.085009 -52.703808 38.962456
-8.725378 -54.59153 37.619583
-9.516199 -56.469402 36.280544
-11.540985 -53.232735 36.384037
-10.989176 -55.703587 35.775471
-10.375362 -58.038193 35.108257
-11.248683 -59.842155 33.829269
-12.243814 -61.672867 32.417538
-13.249756 -63.14064 31.07889
-17.415871 -49.982533 34.50964
-16.82782 -52.448673 34.054981
-16.415596 -54.962234 33.398216
-18.974909 -55.524914 31.884245
-17.496641 -56.421791 32.283669
-15.913081 -57.434673 32.657425
-15.442316 -59.939644 31.717793
-14.874017 -62.18961 30.776848
-19.490694 -64.45887 25.144949
-28.169903 -39.200916 32.969662
-29.382029 -39.189522 32.319241
-28.8575 -37.564793 32.86956
-29.781456 -35.768562 32.582504
-30.693499 -33.868919 32.232376
-28.634464 -32.000896 33.62368
-30.194443 -31.893974 32.753441
-31.691046 -31.904329 31.743084
-32.803215 -29.968494 31.053144
-33.746616 -27.867846 30.404148
-34.757381 -25.83016 29.546099
-32.96217 -23.562462 31.473465
-34.35857 -23.44669 30.151482
-3.001752 -51.821289 45.148075
-5.596795 -50.160336 42.907856
-3.278007 -36.212097 56.260509
-5.781308 -46.080559 45.354778
-6.248717 -47.802261 43.567024
-6.92078 -49.26379 41.86216
-8.129706 -48.443729 40.952831
-9.354121 -47.705875 40.052124
-10.655499 -46.878078 39.202908
-10.755681 -42.838203 40.781944
-11.289554 -44.583286 39.519566
-11.97762 -46.30529 38.342945
-13.309558 -45.550293 37.64772
-14.639857 -44.846836 37.035221
-16.042904 -44.175747 36.471836
-14.414406 -34.651562 40.869289
-14.846794 -36.367081 39.638412
-17.039925 -33.228123 39.148796
-16.230978 -35.565605 38.835293
-15.423029 -38.035671 38.530487
-15.959911 -39.678596 37.657246
-16.721684 -41.537746 36.758842
-17.548172 -43.292835 35.993454
-19.144258 -42.618996 35.507027
-20.677168 -42.007469 35.090698
-22.165131 -41.186016 34.759903
-21.935019 -37.329586 35.535351
-22.883675 -38.89986 34.939964
-23.722992 -40.526821 34.380932
-25.277214 -39.965786 33.967037
-26.802185 -39.483566 33.498814
-30.574135 -39.51527 31.416849
-31.763634 -39.974598 30.245968
-32.874542 -40.253483 28.927032
-33.692806 -36.409054 29.199005
-33.852825 -38.48991 28.369801
-33.83519 -40.678631 27.419706
-34.778965 -40.954025 25.613325
-6.035155 -56.164131 38.85857
-5.827518 -52.978932 40.902069
-5.175277 -53.469143 41.323646
-5.513305 -52.20858 41.725026
-24.70579 -27.5015 36.259793
-23.938972 -27.686184 36.660238
-23.170817 -27.948994 37.004568
-22.428328 -28.165665 37.40097
-22.960762 -27.04331 37.402521
-23.938972 -27.686184 36.660238
-23.406537 -28.80854 36.658687
-23.170817 -27.948994 37.004568
-36.097796 -27.285649 27.704091
-35.622326 -28.327129 28.199348
-35.486231 -27.174597 28.533444
-0.578908 -56.20785 44.742647
0.059624 -56.591092 45.286402
-32.446537 -50.716535 13.984236
-32.213211 -50.924282 15.273181
-32.692464 -50.439543 12.697655
-32.03655 -51.407997 13.108686
-32.446537 -50.716535 13.984236
-33.282887 -49.526245 12.289499
-32.8729 -50.217706 11.413949
-32.692464 -50.439543 12.697655
-30.405686 -26.694554 33.138052
-29.88926 -27.824047 33.331678
-30.952782 -25.68143 32.844854
-31.214801 -26.739224 32.561477
-30.405686 -26.694554 33.138052
-6.629078 -35.207422 51.860823
-6.989109 -34.093053 52.096167
-7.317667 -34.771682 51.089043
-6.266742 -36.335524 51.646586
-5.938185 -35.656894 52.65371
-6.629078 -35.207422 51.860823
-6.576678 -36.997039 50.659517
-6.266742 -36.335524 51.646586
-8.356968 -42.322916 44.073582
-8.714927 -41.065641 44.362148
-8.619933 -43.154944 43.202547
-8.008347 -43.592797 43.800097
-8.356968 -42.322916 44.073582
3.20187 -64.196968 41.446321
2.441107 -63.760651 41.056713
-8.21537 -59.253031 35.668945
-7.86187 -58.324714 36.338659
-8.577901 -57.975943 36.126699
-3.23448 -54.495041 42.7731
-2.561406 -54.979321 43.261464
-4.065645 -57.174175 39.965134
-3.746511 -56.328028 40.855372
-4.40983 -55.956873 40.483637
-4.384305 -57.996696 39.074814
-3.720985 -58.367851 39.446549
-4.065645 -57.174175 39.965134
-24.205487 -60.295948 22.150109
-23.867532 -61.210566 21.438341
-23.495172 -61.109113 22.535339
-32.599651 -48.709711 21.255373
-32.913593 -47.852063 21.98942
-23.495172 -61.109113 22.535339
-22.763168 -61.807692 22.965676
-23.101124 -60.893074 23.677444
-9.35754 -33.378135 48.836796
-10.072484 -32.874702 48.087728
-8.964019 -34.525969 48.599697
-8.705825 -33.857969 49.530124
-9.35754 -33.378135 48.836796
-10.148007 -38.277233 44.058424
-9.485698 -38.741827 44.731785
-9.931442 -37.484026 44.90584
-10.801552 -37.820818 43.446045
-10.355809 -39.078619 43.27199
-10.148007 -38.277233 44.058424
-9.468547 -61.965812 33.510647
-10.225649 -61.53166 33.427204
-34.83675 -43.168506 23.385565
-34.624145 -44.183497 22.722391
-34.27032 -44.082529 23.794733
-19.276618 -25.927072 40.764597
-18.587919 -26.214756 41.334339
-19.506009 -26.599195 40.199755
-19.276618 -25.927072 40.764597
2.110747 -57.918279 46.798887
2.83089 -58.352808 47.373226
-1.403308 -58.654719 41.573942
-1.116194 -57.838909 42.594324
-1.797044 -57.352137 42.243774
-0.335941 -62.129721 39.611066
-0.741391 -60.940773 40.27486
0.34055 -62.529122 39.908819
-0.335941 -62.129721 39.611066
-24.916037 -61.177069 17.879707
-24.590553 -61.235041 19.087363
-25.768979 -60.814865 14.074734
-25.500937 -60.956642 15.430357
-26.138621 -60.012634 14.983054
-26.080209 -60.561071 12.704185
-25.768979 -60.814865 14.074734
-26.675942 -59.631861 12.233367
-26.080209 -60.561071 12.704185
-28.484061 -56.916758 11.075948
-27.86387 -57.834121 11.44464
-28.219428 -57.206869 12.327175
-29.09086 -55.994175 10.633112
-28.484061 -56.916758 11.075948
-31.488025 -51.247377 19.081081
-31.241481 -51.238264 20.254684
-31.898722 -50.40168 19.749781
-30.280953 -53.568545 16.553937
-30.714059 -52.794428 17.424236
-30.929043 -52.720059 16.112045
-31.037458 -53.106188 9.260582
-30.373478 -54.090586 9.650178
-30.761669 -53.476647 10.536943
-31.685647 -52.1099 8.811144
-31.297455 -52.723839 7.924378
-31.037458 -53.106188 9.260582
-34.941502 -46.75787 11.124987
-34.408384 -47.687992 11.565048
-15.092875 -64.172876 29.342165
-14.604489 -63.412016 30.138958
-15.362403 -62.95047 29.980055
-15.634314 -64.855074 28.463839
-15.092875 -64.172876 29.342165
-17.23129 -66.421524 25.758634
-16.737864 -65.887505 26.728637
-17.455495 -65.289131 26.570194
-17.706285 -66.885807 24.758824
-17.23129 -66.421524 25.758634
-19.639741 -65.751178 23.398201
-20.131055 -65.903572 22.364419
-28.335799 -31.005931 33.886861
-27.850027 -32.07291 33.993772
-27.551362 -31.077946 34.256954
-32.743853 -22.473505 31.753336
-32.188647 -23.533299 32.108515
-35.473584 -22.710009 28.92852
-34.988029 -23.672424 29.414436
-34.844124 -22.484276 29.665567
-35.925705 -21.621921 28.377692
-35.473584 -22.710009 28.92852
-2.766173 -51.013958 46.133541
-2.342864 -52.162433 45.805252
-4.663607 -49.729536 44.404792
-4.056646 -50.103258 45.001796
-4.370551 -48.943222 45.388393
-5.287154 -49.364918 43.849623
-4.973249 -50.524954 43.463026
-4.663607 -49.729536 44.404792
-5.987229 -31.900008 55.023598
-6.348945 -32.644637 54.042028
-5.22738 -32.292777 55.802402
-5.987229 -31.900008 55.023598
-4.874061 -33.450699 55.639437
-5.22738 -32.292777 55.802402
-3.705664 -36.93099 55.181044
-4.062317 -35.81612 55.373769
-4.489974 -36.535013 54.294304
-2.96281 -37.435907 55.960746
-3.705664 -36.93099 55.181044
-7.112122 -38.428237 48.70989
-7.765538 -37.952009 47.989652
-6.131067 -44.816835 45.698771
-5.51898 -45.234394 46.358997
-14.393371 -32.092241 42.405994
-14.237129 -31.277236 43.150046
4.040387 -61.82694 45.232513
3.629437 -60.622009 46.038078
4.901895 -64.167919 43.62752
4.628605 -64.955162 42.318666
-6.115157 -58.18651 37.605003
-6.442934 -59.093897 36.801847
-4.47588 -53.904758 41.760239
-4.243248 -52.949863 42.712463
-4.47588 -53.904758 41.760239
-5.175277 -53.469143 41.323646
-5.109228 -55.521257 40.047044
-4.40983 -55.956873 40.483637
-25.008729 -28.410494 35.912159
-25.316103 -29.32037 35.577921
-24.482066 -29.455606 35.98012
-25.008729 -28.410494 35.912159
-24.70579 -27.5015 36.259793
-10.275622 -33.616171 47.189486
-10.072484 -32.874702 48.087728
-10.506016 -34.360745 46.261822
-9.846128 -34.790709 46.978704
-10.275622 -33.616171 47.189486
-10.758771 -35.092993 45.338898
-10.506016 -34.360745 46.261822
-11.017385 -35.835068 44.429617
-10.335137 -36.277357 45.14176
-10.758771 -35.092993 45.338898
-11.642195 -35.46105 43.80539
-11.218561 -36.645415 43.608251
-11.017385 -35.835068 44.429617
-12.279297 -35.087772 43.16955
-11.642195 -35.46105 43.80539
-12.872077 -34.777512 42.611864
-12.436151 -35.961136 42.426338
-12.279297 -35.087772 43.16955
-35.178921 -29.319123 28.677615
-34.729534 -30.331771 29.05941
-34.561374 -29.228725 29.410495
-35.790486 -29.430175 27.848263
-35.178921 -29.319123 28.677615
-35.622326 -28.327129 28.199348
-36.340659 -29.549228 27.012982
-35.790486 -29.430175 27.848263
0.725131 -56.978355 45.800743
1.429701 -57.523037 46.271737
0.451789 -57.84219 44.620424
0.725131 -56.978355 45.800743
0.059624 -56.591092 45.286402
-1.754908 -59.346466 40.572753
-2.424945 -58.98164 40.223176
-31.576386 -51.815466 15.688806
-32.213211 -50.924282 15.273181
-31.14328 -52.589582 14.818506
-30.929043 -52.720059 16.112045
-31.576386 -51.815466 15.688806
-32.477539 -50.860628 10.444714
-32.049125 -51.541251 9.607335
-31.854064 -51.811627 10.984726
-33.067961 -49.94733 10.036558
-32.477539 -50.860628 10.444714
-32.8729 -50.217706 11.413949
-33.651733 -49.000211 9.70615
-33.067961 -49.94733 10.036558
-21.059016 -64.305074 22.825115
-20.662678 -64.043665 23.876309
-21.359023 -63.326904 23.553138
-20.813277 -65.181873 21.991887
-21.059016 -64.305074 22.825115
-20.131055 -65.903572 22.364419
-20.813277 -65.181873 21.991887
-29.387199 -28.907835 33.539436
-28.850358 -29.965446 33.710117
-30.165643 -28.836136 33.062433
-29.387199 -28.907835 33.539436
-29.88926 -27.824047 33.331678
-33.744664 -20.238568 30.973068
-33.246178 -21.322745 31.363583
-34.488823 -20.290615 30.176613
-33.744664 -20.238568 30.973068
-35.170252 -20.421075 29.419458
-34.648249 -21.391402 29.936805
-34.488823 -20.290615 30.176613
-35.780987 -20.525878 28.638559
-35.170252 -20.421075 29.419458
-3.495742 -48.564442 46.972908
-3.147092 -49.761786 46.552202
-4.13389 -48.042877 46.384878
-3.495742 -48.564442 46.972908
-4.740851 -47.669155 45.787874
-4.370551 -48.943222 45.388393
-4.13389 -48.042877 46.384878
-6.688363 -33.37294 53.062973
-6.989109 -34.093053 52.096167
-5.961102 -33.800489 53.847002
-6.348945 -32.644637 54.042028
-6.688363 -33.37294 53.062973
-5.211238 -36.10257 53.463251
-5.573574 -34.974468 53.677488
-5.938185 -35.656894 52.65371
-4.489974 -36.535013 54.294304
-5.211238 -36.10257 53.463251
-7.341257 -44.004309 44.456991
-6.708979 -44.400481 45.142807
-7.604222 -44.836337 43.585957
-7.341257 -44.004309 44.456991
-8.008347 -43.592797 43.800097
-35.309746 -35.861671 27.144345
-34.76659 -35.704245 27.98772
-35.235771 -34.762434 27.554316
-35.351017 -36.933743 26.66223
-35.309746 -35.861671 27.144345
-35.375956 -37.986278 26.185359
-34.865504 -37.856018 27.100879
-35.351017 -36.933743 26.66223
-35.340505 -38.988335 25.701361
-35.375956 -37.986278 26.185359
3.902143 -64.567314 41.904965
3.471794 -63.393532 42.7185
3.20187 -64.196968 41.446321
4.628605 -64.955162 42.318666
3.902143 -64.567314 41.904965
-7.158399 -58.714005 36.5965
-7.520931 -57.436916 37.054254
-7.86187 -58.324714 36.338659
-6.442934 -59.093897 36.801847
-7.158399 -58.714005 36.5965
-2.176729 -56.162737 42.766016
-2.561406 -54.979321 43.261464
-2.463843 -56.978546 41.745634
-1.797044 -57.352137 42.243774
-2.176729 -56.162737 42.766016
-3.467112 -55.449936 41.820875
-3.23448 -54.495041 42.7731
-3.122927 -56.667238 41.302372
-3.467112 -55.449936 41.820875
-3.746511 -56.328028 40.855372
-3.084028 -58.670332 39.779915
-2.424945 -58.98164 40.223176
-2.743241 -57.856638 40.78013
-3.084028 -58.670332 39.779915
-3.720985 -58.367851 39.446549
-24.247434 -61.260328 20.228036
-23.867532 -61.210566 21.438341
-24.920966 -60.372113 19.912437
-24.590553 -61.235041 19.087363
-24.247434 -61.260328 20.228036
-32.287971 -49.540275 20.525429
-31.963859 -49.562002 21.653328
-32.599651 -48.709711 21.255373
-31.898722 -50.40168 19.749781
-32.287971 -49.540275 20.525429
-22.06224 -62.589983 23.304862
-21.359023 -63.326904 23.553138
-21.665903 -62.328574 24.356056
-22.06224 -62.589983 23.304862
-22.763168 -61.807692 22.965676
-27.228344 -30.090147 34.535882
-27.551362 -31.077946 34.256954
-26.742572 -31.157125 34.642793
-26.13116 -29.222293 35.215841
-25.604497 -30.267404 35.283802
-25.316103 -29.32037 35.577921
-26.990606 -29.017528 34.800444
-26.13116 -29.222293 35.215841
-27.228344 -30.090147 34.535882
-26.990606 -29.017528 34.800444
-7.995001 -34.331558 50.308706
-8.705825 -33.857969 49.530124
-7.63497 -35.445926 50.073363
-7.317667 -34.771682 51.089043
-7.995001 -34.331558 50.308706
-8.41346 -37.578062 47.205591
-7.765538 -37.952009 47.989652
-8.166595 -36.858112 48.142273
-8.640768 -38.310289 46.316086
-8.41346 -37.578062 47.205591
-9.041824 -37.216392 46.468706
-8.865216 -39.09742 45.413732
-8.640768 -38.310289 46.316086
-8.865216 -39.09742 45.413732
-9.485698 -38.741827 44.731785
-9.335409 -40.710048 43.6802
-8.714927 -41.065641 44.362148
-9.982702 -40.317623 43.052805
-9.615847 -41.492638 42.848636
-9.335409 -40.710048 43.6802
-10.636247 -39.861208 42.440426
-9.982702 -40.317623 43.052805
-10.355809 -39.078619 43.27199
-34.888837 -31.412945 28.735529
-34.271291 -31.322547 29.468409
-34.729534 -30.331771 29.05941
-35.023292 -32.513696 28.351596
-34.888837 -31.412945 28.735529
-35.154303 -33.614339 27.978177
-34.561605 -33.504364 28.77111
-35.023292 -32.513696 28.351596
-35.235771 -34.762434 27.554316
-35.154303 -33.614339 27.978177
-9.000575 -60.98452 34.315981
-8.599317 -60.101948 34.978878
-9.33266 -59.786831 34.794088
-9.000575 -60.98452 34.315981
-9.468547 -61.965812 33.510647
-33.216801 -46.891001 22.707422
-32.913593 -47.852063 21.98942
-32.578747 -47.770376 23.101275
-33.804682 -46.035103 22.363563
-33.216801 -46.891001 22.707422
-33.469835 -45.953417 23.475418
-34.405368 -45.072079 22.029929
-33.804682 -46.035103 22.363563
-34.405368 -45.072079 22.029929
-34.624145 -44.183497 22.722391
-14.699134 -30.111235 43.366913
-14.237129 -31.277236 43.150046
-15.431327 -29.714528 42.698799
-14.699134 -30.111235 43.366913
-16.15146 -29.30705 42.119551
-15.585811 -30.492686 42.017592
-15.431327 -29.714528 42.698799
-16.839378 -28.878412 41.593296
-16.15146 -29.30705 42.119551
-17.574996 -28.46564 41.07744
-17.041562 -29.672436 40.922487
-16.839378 -28.878412 41.593296
-18.067932 -27.34077 41.214058
-18.587919 -26.214756 41.334339
-18.270116 -28.134794 40.543249
-17.574996 -28.46564 41.07744
-18.067932 -27.34077 41.214058
-19.712718 -27.410114 39.597166
-18.969761 -27.820844 40.077278
-19.506009 -26.599195 40.199755
-20.463631 -27.026792 39.179541
-19.927383 -28.248441 39.057064
-19.712718 -27.410114 39.597166
-21.225228 -26.762276 38.671931
-20.463631 -27.026792 39.179541
-21.995217 -26.459707 38.251672
-21.448284 -27.562551 38.219181
-21.225228 -26.762276 38.671931
-22.795984 -26.16151 37.77601
-21.995217 -26.459707 38.251672
-22.960762 -27.04331 37.402521
-22.795984 -26.16151 37.77601
3.217771 -59.476699 46.711916
2.83089 -58.352808 47.373226
2.891056 -60.165249 45.515231
3.629437 -60.622009 46.038078
3.217771 -59.476699 46.711916
1.798343 -58.624696 45.661917
2.110747 -57.918279 46.798887
1.429701 -57.523037 46.271737
1.709077 -63.256088 40.703115
2.441107 -63.760651 41.056713
2.039492 -62.518624 41.906259
-0.861824 -56.995627 43.685119
-0.578908 -56.20785 44.742647
-0.468088 -58.298209 43.015287
-0.861824 -56.995627 43.685119
-1.116194 -57.838909 42.594324
-1.074058 -59.833239 40.923304
-1.403308 -58.654719 41.573942
-1.754908 -59.346466 40.572753
-0.389791 -60.249026 41.276049
-1.074058 -59.833239 40.923304
-0.741391 -60.940773 40.27486
1.022844 -62.857872 40.371347
0.62517 -61.68531 41.090134
0.34055 -62.529122 39.908819
1.709077 -63.256088 40.703115
1.022844 -62.857872 40.371347
-25.219284 -61.080862 16.663163
-24.916037 -61.177069 17.879707
-25.567332 -60.250618 17.55522
-25.219284 -61.080862 16.663163
-25.500937 -60.956642 15.430357
-27.27223 -58.758549 11.767585
-26.675942 -59.631861 12.233367
-27.002949 -58.997545 13.161649
-27.27223 -58.758549 11.767585
-27.86387 -57.834121 11.44464
-31.096467 -52.014952 18.284165
-31.488025 -51.247377 19.081081
-30.448377 -52.863438 18.726057
-31.096467 -52.014952 18.284165
-30.714059 -52.794428 17.424236
-29.719894 -55.079944 10.11714
-29.09086 -55.994175 10.633112
-29.468654 -55.375275 11.442512
-29.719894 -55.079944 10.11714
-30.373478 -54.090586 9.650178
-31.685647 -52.1099 8.811144
-32.049125 -51.541251 9.607335
-33.843201 -48.632551 11.929906
-33.282887 -49.526245 12.289499
-34.028505 -48.35985 10.640935
-33.843201 -48.632551 11.929906
-34.408384 -47.687992 11.565048
-34.216917 -48.055653 9.341293
-33.651733 -49.000211 9.70615
-34.028505 -48.35985 10.640935
-35.110529 -46.455925 9.795018
-34.941502 -46.75787 11.124987
-34.771656 -47.078163 8.93685
-35.110529 -46.455925 9.795018
-34.216917 -48.055653 9.341293
-34.771656 -47.078163 8.93685
-10.983031 -61.118036 33.276243
-10.225649 -61.53166 33.427204
-10.4913 -60.255779 33.98023
-11.480597 -62.033392 32.570377
-10.983031 -61.118036 33.276243
-11.746249 -60.757511 33.123403
-11.944911 -62.914074 31.826557
-11.480597 -62.033392 32.570377
-12.447882 -63.64796 31.157234
-11.944911 -62.914074 31.826557
-12.746785 -62.406753 31.748214
-13.00809 -64.331703 30.420029
-12.447882 -63.64796 31.157234
-13.792358 -63.887531 30.289979
-14.061886 -62.665125 30.927869
-14.604489 -63.412016 30.138958
-13.00809 -64.331703 30.420029
-13.792358 -63.887531 30.289979
-16.189954 -65.376964 27.642306
-15.634314 -64.855074 28.463839
-16.406429 -64.233221 28.361729
-16.189954 -65.376964 27.642306
-16.737864 -65.887505 26.728637
-19.203753 -65.469696 24.396533
-19.926682 -64.740353 24.146617
-19.639741 -65.751178 23.398201
-18.432866 -66.151837 24.624154
-18.719808 -65.14101 25.37257
-19.203753 -65.469696 24.396533
-17.706285 -66.885807 24.758824
-18.432866 -66.151837 24.624154
-29.149023 -30.96041 33.446935
-28.335799 -31.005931 33.886861
-28.850358 -29.965446 33.710117
-35.359541 -25.981638 28.792143
-35.486231 -27.174597 28.533444
-34.884071 -27.023119 29.287399
-31.58851 -24.615118 32.505922
-30.952782 -25.68143 32.844854
-32.362034 -24.644281 31.870872
-31.58851 -24.615118 32.505922
-32.188647 -23.533299 32.108515
-33.464495 -22.411702 31.083713
-32.743853 -22.473505 31.753336
-33.246178 -21.322745 31.363583
-35.187435 -24.864159 29.111744
-34.557975 -24.638425 29.84879
-34.988029 -23.672424 29.414436
-35.359541 -25.981638 28.792143
-35.187435 -24.864159 29.111744
-35.925705 -21.621921 28.377692
-35.780987 -20.525878 28.638559
-2.640518 -52.995392 44.701563
-2.342864 -52.162433 45.805252
-3.313592 -52.511112 44.2132
-2.640518 -52.995392 44.701563
-3.382671 -50.569116 45.566736
-2.766173 -51.013958 46.133541
-3.147092 -49.761786 46.552202
-3.675727 -51.35543 44.583135
-3.382671 -50.569116 45.566736
-4.056646 -50.103258 45.001796
-3.313592 -52.511112 44.2132
-3.675727 -51.35543 44.583135
-4.605383 -51.794182 43.0824
-4.243248 -52.949863 42.712463
-5.228929 -51.429564 42.52723
-4.605383 -51.794182 43.0824
-4.973249 -50.524954 43.463026
-4.486532 -34.624678 55.469923
-4.874061 -33.450699 55.639437
-5.234156 -34.246165 54.656543
-3.702222 -35.020654 56.356662
-4.486532 -34.624678 55.469923
-4.062317 -35.81612 55.373769
-2.854888 -35.449272 57.226049
-3.702222 -35.020654 56.356662
-2.530864 -36.717531 56.981185
-2.854888 -35.449272 57.226049
-2.530864 -36.717531 56.981185
-2.96281 -37.435907 55.960746
-6.857197 -37.670043 49.695835
-6.576678 -36.997039 50.659517
-7.238155 -36.559055 49.890017
-6.857197 -37.670043 49.695835
-7.112122 -38.428237 48.70989
-5.142749 -46.424684 46.069569
-5.51898 -45.234394 46.358997
-5.37941 -47.325029 45.073084
-4.740851 -47.669155 45.787874
-5.142749 -46.424684 46.069569
-6.35922 -45.664204 44.798815
-6.131067 -44.816835 45.698771
-6.708979 -44.400481 45.142807
-13.474998 -34.467596 42.0419
-12.872077 -34.777512 42.611864
-14.590674 -32.839262 41.712877
-14.393371 -32.092241 42.405994
-15.06298 -31.647185 41.903723
-14.167735 -33.967939 41.542219
-14.590674 -32.839262 41.712877
-14.837345 -33.522885 41.039947
-13.721668 -35.151218 41.368971
-13.474998 -34.467596 42.0419
-14.167735 -33.967939 41.542219
-35.284767 -40.01107 25.19602
-34.834704 -39.93129 26.118666
-35.340505 -38.988335 25.701361
-35.149956 -41.112887 24.637935
-35.284767 -40.01107 25.19602
-35.001936 -42.169643 24.060226
-34.630945 -42.010782 25.035616
-35.149956 -41.112887 24.637935
-34.83675 -43.168506 23.385565
-35.001936 -42.169643 24.060226
-36.591274 -27.42237 26.924436
-36.097796 -27.285649 27.704091
-36.737586 -28.490596 26.485636
-36.591274 -27.42237 26.924436
-36.340659 -29.549228 27.012982
-36.737586 -28.490596 26.485636
4.47506 -63.053601 44.400389
4.040387 -61.82694 45.232513
3.737395 -62.537218 44.009268
4.47506 -63.053601 44.400389
4.901895 -64.167919 43.62752
-6.13243 -53.907377 40.082222
-5.827518 -52.978932 40.902069
-6.470457 -52.646815 40.483601
-5.762323 -55.201813 39.67963
-6.13243 -53.907377 40.082222
-6.405262 -54.869695 39.261162
-5.38206 -56.483576 39.225984
-5.109228 -55.521257 40.047044
-5.762323 -55.201813 39.67963
-5.724004 -57.355472 38.378241
-6.426308 -56.995168 38.085333
-6.115157 -58.18651 37.605003
-5.070909 -57.674917 38.745655
-5.38206 -56.483576 39.225984
-5.724004 -57.355472 38.378241
-4.384305 -57.996696 39.074814
-5.070909 -57.674917 38.745655
-8.21537 -59.253031 35.668945
-8.599317 -60.101948 34.978878
3 0 96 94
3 0 94 97
3 1 368 370
3 370 369 99
3 368 369 370
3 2 102 100
3 3 105 103
3 2 108 106
3 2 100 108
3 372 371 110
3 373 115 374
3 375 374 113
3 373 374 375
3 376 110 377
3 378 377 115
3 376 377 378
3 379 118 380
3 381 380 117
3 379 380 381
3 4 121 119
3 6 124 122
3 6 126 124
3 7 129 127
3 4 132 130
3 4 119 132
3 382 135 383
3 10 138 136
3 10 140 138
3 5 143 141
3 384 144 385
3 386 146 387
3 388 387 144
3 386 387 388
3 389 147 390
3 391 390 146
3 389 390 391
3 11 150 148
3 13 153 151
3 13 155 153
3 8 158 156
3 14 161 159
3 14 163 161
3 14 165 163
3 15 169 167
3 392 171 393
3 394 173 395
3 396 395 171
3 394 395 396
3 17 397 399
3 397 176 398
3 397 398 399
3 17 400 402
3 402 401 176
3 400 401 402
3 17 403 404
3 18 405 406
3 18 407 409
3 407 179 408
3 407 408 409
3 18 181 179
3 19 184 182
3 19 186 184
3 9 189 187
3 20 192 190
3 20 194 192
3 20 196 194
3 15 199 197
3 15 167 199
3 16 203 201
3 411 410 205
3 12 412 414
3 414 413 207
3 412 413 414
3 21 211 209
3 23 212 95
3 23 213 212
3 24 216 214
3 21 217 98
3 21 209 217
3 415 218 416
3 27 417 419
3 417 219 418
3 417 418 419
3 27 420 422
3 422 421 219
3 420 421 422
3 28 423 425
3 423 220 424
3 423 424 425
3 30 221 101
3 30 222 221
3 427 426 223
3 31 227 225
3 33 228 104
3 33 229 228
3 34 232 230
3 36 233 107
3 36 234 233
3 36 236 234
3 28 237 109
3 28 428 430
3 430 429 237
3 428 429 430
3 38 240 238
3 39 431 432
3 39 433 435
3 433 241 434
3 433 434 435
3 39 243 241
3 40 244 111
3 40 436 438
3 438 437 244
3 436 437 438
3 40 439 441
3 439 246 440
3 439 440 441
3 42 247 112
3 42 248 247
3 43 251 249
3 45 252 114
3 45 253 252
3 45 255 253
3 38 256 116
3 38 238 256
3 47 259 257
3 443 442 260
3 49 263 261
3 51 264 120
3 51 265 264
3 22 266 210
3 52 267 123
3 52 268 267
3 52 269 268
3 53 270 125
3 53 444 446
3 446 445 270
3 444 445 446
3 54 273 271
3 56 274 128
3 56 275 274
3 25 276 215
3 57 277 131
3 57 278 277
3 57 279 278
3 49 280 133
3 49 261 280
3 447 281 448
3 450 449 281
3 451 282 452
3 60 283 134
3 60 284 283
3 26 453 455
3 453 285 454
3 453 454 455
3 456 286 457
3 459 458 286
3 29 460 461
3 61 462 464
3 464 463 137
3 462 463 464
3 61 465 466
3 61 467 468
3 62 469 471
3 471 470 139
3 469 470 471
3 62 472 473
3 50 287 262
3 63 288 142
3 63 289 288
3 474 290 475
3 476 475 224
3 474 475 476
3 64 477 479
3 477 291 478
3 477 478 479
3 64 292 291
3 64 293 292
3 65 294 145
3 65 480 482
3 482 481 294
3 480 481 482
3 65 483 485
3 483 484 485
3 486 295 487
3 66 298 296
3 68 299 149
3 68 300 299
3 32 301 226
3 69 302 152
3 69 303 302
3 69 304 303
3 70 305 154
3 70 306 305
3 55 307 272
3 71 308 157
3 71 309 308
3 35 310 231
3 72 311 160
3 72 312 311
3 72 313 312
3 73 314 162
3 73 488 490
3 490 489 314
3 488 489 490
3 73 491 492
3 74 493 495
3 495 494 164
3 493 494 495
3 74 496 497
3 37 315 235
3 499 498 166
3 75 318 316
3 77 319 168
3 77 320 319
3 500 321 501
3 502 501 239
3 500 501 502
3 78 322 170
3 78 323 322
3 78 324 323
3 79 325 172
3 79 326 325
3 503 327 504
3 80 328 174
3 80 505 507
3 507 506 328
3 505 506 507
3 80 508 509
3 510 329 511
3 81 512 514
3 514 513 175
3 512 513 514
3 81 515 517
3 515 330 516
3 515 516 517
3 82 518 519
3 82 520 521
3 82 522 523
3 524 331 525
3 526 525 177
3 524 525 526
3 528 527 331
3 530 529 242
3 531 332 532
3 83 333 178
3 83 334 333
3 83 335 334
3 84 336 180
3 84 337 336
3 41 338 245
3 85 339 183
3 85 340 339
3 85 341 340
3 86 342 185
3 86 343 342
3 58 533 534
3 87 344 188
3 87 345 344
3 44 346 250
3 88 347 191
3 88 348 347
3 88 349 348
3 89 350 193
3 89 351 350
3 89 352 351
3 90 353 195
3 90 354 353
3 46 355 254
3 91 356 198
3 91 357 356
3 91 358 357
3 75 359 200
3 75 316 359
3 76 360 317
3 92 361 202
3 92 362 361
3 48 363 258
3 93 364 204
3 93 365 364
3 93 366 365
3 59 535 536
3 538 537 206
3 67 367 297
3 540 539 208
3 94 95 21
3 96 95 94
3 96 23 95
3 97 98 24
3 94 98 97
3 94 21 98
3 99 541 542
3 544 543 99
3 545 27 546
3 100 101 28
3 102 101 100
3 102 30 101
3 103 104 31
3 105 104 103
3 105 33 104
3 106 107 34
3 108 107 106
3 108 36 107
3 108 109 36
3 100 109 108
3 100 28 109
3 110 547 549
3 549 548 38
3 547 548 549
3 551 550 110
3 552 39 553
3 554 111 555
3 556 555 39
3 554 555 556
3 557 111 558
3 559 40 560
3 561 560 111
3 559 560 561
3 562 112 563
3 564 563 40
3 562 563 564
3 565 112 566
3 567 42 568
3 569 568 112
3 567 568 569
3 113 114 43
3 115 114 113
3 115 45 114
3 115 116 45
3 110 116 115
3 110 38 116
3 117 570 572
3 572 571 47
3 570 571 572
3 118 573 575
3 575 574 117
3 573 574 575
3 118 576 577
3 119 120 49
3 121 120 119
3 121 51 120
3 122 123 22
3 124 123 122
3 124 52 123
3 124 125 52
3 126 125 124
3 126 53 125
3 127 128 54
3 129 128 127
3 129 56 128
3 130 131 25
3 132 131 130
3 132 57 131
3 132 133 57
3 119 133 132
3 119 49 133
3 578 134 579
3 135 580 582
3 580 134 581
3 580 581 582
3 135 60 134
3 584 583 26
3 136 137 29
3 138 137 136
3 138 61 137
3 138 139 61
3 140 139 138
3 140 62 139
3 141 142 50
3 143 142 141
3 143 63 142
3 144 585 586
3 144 587 589
3 587 64 588
3 587 588 589
3 144 145 64
3 146 145 144
3 146 65 145
3 146 590 592
3 592 591 65
3 590 591 592
3 147 593 595
3 595 594 146
3 593 594 595
3 147 596 597
3 148 149 66
3 150 149 148
3 150 68 149
3 151 152 32
3 153 152 151
3 153 69 152
3 153 154 69
3 155 154 153
3 155 70 154
3 156 157 55
3 158 157 156
3 158 71 157
3 159 160 35
3 161 160 159
3 161 72 160
3 161 162 72
3 163 162 161
3 163 73 162
3 163 164 73
3 165 164 163
3 165 74 164
3 598 166 599
3 600 599 37
3 598 599 600
3 601 166 602
3 604 603 166
3 167 168 75
3 169 168 167
3 169 77 168
3 605 170 606
3 171 607 609
3 607 170 608
3 607 608 609
3 171 78 170
3 171 172 78
3 173 172 171
3 173 79 172
3 610 174 611
3 612 174 613
3 614 80 615
3 616 615 174
3 614 615 616
3 618 617 80
3 619 175 620
3 621 175 622
3 623 81 624
3 625 624 175
3 623 624 625
3 176 626 627
3 176 628 630
3 628 82 629
3 628 629 630
3 176 177 82
3 631 177 632
3 633 632 176
3 631 632 633
3 635 634 177
3 636 178 637
3 179 638 640
3 638 178 639
3 638 639 640
3 179 83 178
3 179 180 83
3 181 180 179
3 181 84 180
3 182 183 41
3 184 183 182
3 184 85 183
3 184 185 85
3 186 185 184
3 186 86 185
3 187 188 58
3 189 188 187
3 189 87 188
3 190 191 44
3 192 191 190
3 192 88 191
3 192 193 88
3 194 193 192
3 194 89 193
3 194 195 89
3 196 195 194
3 196 90 195
3 197 198 46
3 199 198 197
3 199 91 198
3 199 200 91
3 167 200 199
3 167 75 200
3 201 202 76
3 203 202 201
3 203 92 202
3 641 204 642
3 643 642 48
3 641 642 643
3 644 204 645
3 646 93 647
3 648 647 204
3 646 647 648
3 650 649 93
3 205 206 59
3 651 206 652
3 653 652 205
3 651 652 653
3 655 654 206
3 207 208 67
3 656 208 657
3 658 657 207
3 656 657 658
3 660 659 208
3 209 210 4
3 211 210 209
3 211 22 210
3 95 211 21
3 212 211 95
3 212 22 211
3 212 122 22
3 213 122 212
3 213 6 122
3 214 215 7
3 216 215 214
3 216 25 215
3 98 216 24
3 217 216 98
3 217 25 216
3 217 130 25
3 209 130 217
3 209 4 130
3 218 661 662
3 218 663 665
3 663 26 664
3 663 664 665
3 666 218 667
3 219 668 670
3 668 218 669
3 668 669 670
3 219 26 218
3 219 671 673
3 673 672 26
3 671 672 673
3 675 674 219
3 220 676 677
3 220 678 680
3 678 29 679
3 678 679 680
3 101 220 28
3 221 220 101
3 221 29 220
3 221 136 29
3 222 136 221
3 222 10 136
3 223 224 5
3 681 224 682
3 683 682 223
3 681 682 683
3 685 684 224
3 225 226 11
3 227 226 225
3 227 32 226
3 104 227 31
3 228 227 104
3 228 32 227
3 228 151 32
3 229 151 228
3 229 13 151
3 230 231 8
3 232 231 230
3 232 35 231
3 107 232 34
3 233 232 107
3 233 35 232
3 233 159 35
3 234 159 233
3 234 14 159
3 234 235 14
3 236 235 234
3 236 37 235
3 109 236 36
3 237 236 109
3 237 37 236
3 237 686 688
3 688 687 37
3 686 687 688
3 690 689 237
3 238 239 15
3 240 239 238
3 240 691 693
3 693 692 239
3 691 692 693
3 694 240 695
3 696 695 38
3 694 695 696
3 697 240 698
3 700 699 240
3 241 701 702
3 241 703 705
3 703 17 704
3 703 704 705
3 241 242 17
3 243 242 241
3 243 706 708
3 708 707 242
3 706 707 708
3 111 243 39
3 244 243 111
3 244 709 711
3 711 710 243
3 709 710 711
3 244 712 713
3 715 714 244
3 716 18 717
3 718 245 719
3 720 719 18
3 718 719 720
3 246 721 723
3 721 245 722
3 721 722 723
3 246 41 245
3 112 246 40
3 247 246 112
3 247 41 246
3 247 182 41
3 248 182 247
3 248 19 182
3 249 250 9
3 251 250 249
3 251 44 250
3 114 251 43
3 252 251 114
3 252 44 251
3 252 190 44
3 253 190 252
3 253 20 190
3 253 254 20
3 255 254 253
3 255 46 254
3 116 255 45
3 256 255 116
3 256 46 255
3 256 197 46
3 238 197 256
3 238 15 197
3 257 258 16
3 259 258 257
3 259 48 258
3 724 259 725
3 726 725 47
3 724 725 726
3 727 259 728
3 729 48 730
3 731 730 259
3 729 730 731
3 733 732 48
3 260 734 736
3 736 735 12
3 734 735 736
3 738 737 260
3 261 262 2
3 263 262 261
3 263 50 262
3 120 263 49
3 264 263 120
3 264 50 263
3 264 141 50
3 265 141 264
3 265 5 141
3 210 121 4
3 266 121 210
3 266 51 121
3 123 266 22
3 267 266 123
3 267 51 266
3 267 265 51
3 268 265 267
3 268 5 265
3 268 223 5
3 269 223 268
3 269 739 741
3 741 740 223
3 739 740 741
3 125 269 52
3 270 269 125
3 270 742 744
3 744 743 269
3 742 743 744
3 270 745 746
3 748 747 270
3 271 272 3
3 273 272 271
3 273 55 272
3 128 273 54
3 274 273 128
3 274 55 273
3 274 156 55
3 275 156 274
3 275 8 156
3 215 129 7
3 276 129 215
3 276 56 129
3 131 276 25
3 277 276 131
3 277 56 276
3 277 275 56
3 278 275 277
3 278 8 275
3 278 230 8
3 279 230 278
3 279 34 230
3 133 279 57
3 280 279 133
3 280 34 279
3 280 106 34
3 261 106 280
3 261 2 106
3 749 58 750
3 751 58 752
3 753 187 754
3 755 754 58
3 753 754 755
3 756 187 757
3 758 9 759
3 760 759 187
3 758 759 760
3 281 761 762
3 281 763 765
3 763 9 764
3 763 764 765
3 281 249 9
3 766 249 767
3 768 767 281
3 766 767 768
3 769 43 770
3 771 770 249
3 769 770 771
3 772 43 773
3 774 113 775
3 776 775 43
3 774 775 776
3 777 113 778
3 780 779 113
3 282 781 782
3 282 783 785
3 783 59 784
3 783 784 785
3 134 786 788
3 786 282 787
3 786 787 788
3 283 282 134
3 283 59 282
3 283 205 59
3 284 205 283
3 284 789 791
3 791 790 205
3 789 790 791
3 792 135 793
3 285 794 796
3 794 135 795
3 794 795 796
3 285 60 135
3 797 285 798
3 799 798 26
3 797 798 799
3 286 800 802
3 800 285 801
3 800 801 802
3 286 60 285
3 286 284 60
3 803 284 804
3 805 804 286
3 803 804 805
3 807 806 284
3 137 808 810
3 810 809 29
3 808 809 810
3 812 811 137
3 139 813 815
3 815 814 61
3 813 814 815
3 817 816 139
3 262 102 2
3 287 102 262
3 287 30 102
3 142 287 50
3 288 287 142
3 288 30 287
3 288 222 30
3 289 222 288
3 289 10 222
3 224 143 5
3 290 143 224
3 290 63 143
3 818 290 819
3 291 820 822
3 820 290 821
3 820 821 822
3 291 63 290
3 291 289 63
3 292 289 291
3 292 10 289
3 292 140 10
3 293 140 292
3 293 62 140
3 145 293 64
3 294 293 145
3 294 62 293
3 294 823 825
3 825 824 62
3 823 824 825
3 827 826 294
3 829 828 65
3 830 147 831
3 295 832 834
3 832 147 833
3 832 833 834
3 295 835 837
3 837 836 147
3 835 836 837
3 838 295 839
3 840 295 841
3 843 842 295
3 296 297 1
3 298 297 296
3 298 67 297
3 149 298 66
3 299 298 149
3 299 67 298
3 299 207 67
3 300 207 299
3 300 12 207
3 226 150 11
3 301 150 226
3 301 68 150
3 152 301 32
3 302 301 152
3 302 68 301
3 302 300 68
3 303 300 302
3 303 12 300
3 303 260 12
3 304 260 303
3 304 844 846
3 846 845 260
3 844 845 846
3 154 304 69
3 305 304 154
3 305 847 849
3 849 848 304
3 847 848 849
3 305 850 851
3 306 852 854
3 854 853 305
3 852 853 854
3 306 855 856
3 272 105 3
3 307 105 272
3 307 33 105
3 157 307 55
3 308 307 157
3 308 33 307
3 308 229 33
3 309 229 308
3 309 13 229
3 231 158 8
3 310 158 231
3 310 71 158
3 160 310 35
3 311 310 160
3 311 71 310
3 311 309 71
3 312 309 311
3 312 13 309
3 312 155 13
3 313 155 312
3 313 70 155
3 162 313 72
3 314 313 162
3 314 70 313
3 314 306 70
3 857 306 858
3 859 858 314
3 857 858 859
3 861 860 306
3 164 862 864
3 864 863 73
3 862 863 864
3 866 865 164
3 235 165 14
3 315 165 235
3 315 74 165
3 166 315 37
3 867 315 868
3 869 868 166
3 867 868 869
3 870 74 871
3 872 871 315
3 870 871 872
3 874 873 74
3 316 317 0
3 318 317 316
3 318 76 317
3 168 318 75
3 319 318 168
3 319 76 318
3 319 201 76
3 320 201 319
3 320 16 201
3 239 169 15
3 321 169 239
3 321 77 169
3 170 875 877
3 875 321 876
3 875 876 877
3 322 321 170
3 322 77 321
3 322 320 77
3 323 320 322
3 323 16 320
3 323 257 16
3 324 257 323
3 324 47 257
3 172 324 78
3 325 324 172
3 325 47 324
3 325 117 47
3 326 117 325
3 326 878 880
3 880 879 117
3 878 879 880
3 881 173 882
3 327 883 885
3 883 173 884
3 883 884 885
3 327 79 173
3 174 886 888
3 886 327 887
3 886 887 888
3 328 327 174
3 328 79 327
3 328 326 79
3 889 326 890
3 891 890 328
3 889 890 891
3 893 892 326
3 895 894 80
3 329 896 897
3 329 898 899
3 175 900 902
3 900 329 901
3 900 901 902
3 903 329 904
3 905 904 175
3 903 904 905
3 907 906 329
3 908 99 909
3 330 910 912
3 910 99 911
3 910 911 912
3 330 1 99
3 177 913 915
3 915 914 82
3 913 914 915
3 331 916 918
3 918 917 177
3 916 917 918
3 331 919 920
3 331 921 922
3 924 923 331
3 242 925 927
3 927 926 17
3 925 926 927
3 929 928 242
3 332 930 931
3 332 932 934
3 932 81 933
3 932 933 934
3 178 935 937
3 935 332 936
3 935 936 937
3 333 332 178
3 333 81 332
3 333 330 81
3 334 330 333
3 334 1 330
3 334 296 1
3 335 296 334
3 335 66 296
3 180 335 83
3 336 335 180
3 336 66 335
3 336 148 66
3 337 148 336
3 337 11 148
3 245 181 18
3 338 181 245
3 338 84 181
3 183 338 41
3 339 338 183
3 339 84 338
3 339 337 84
3 340 337 339
3 340 11 337
3 340 225 11
3 341 225 340
3 341 31 225
3 185 341 85
3 342 341 185
3 342 31 341
3 342 103 31
3 343 103 342
3 343 3 103
3 938 42 939
3 188 940 942
3 942 941 58
3 940 941 942
3 344 943 945
3 945 944 188
3 943 944 945
3 344 946 948
3 946 42 947
3 946 947 948
3 344 248 42
3 345 248 344
3 345 19 248
3 250 189 9
3 346 189 250
3 346 87 189
3 191 346 44
3 347 346 191
3 347 87 346
3 347 345 87
3 348 345 347
3 348 19 345
3 348 186 19
3 349 186 348
3 349 86 186
3 193 349 88
3 350 349 193
3 350 86 349
3 350 343 86
3 351 343 350
3 351 3 343
3 351 271 3
3 352 271 351
3 352 54 271
3 195 352 89
3 353 352 195
3 353 54 352
3 353 127 54
3 354 127 353
3 354 7 127
3 254 196 20
3 355 196 254
3 355 90 196
3 198 355 46
3 356 355 198
3 356 90 355
3 356 354 90
3 357 354 356
3 357 7 354
3 357 214 7
3 358 214 357
3 358 24 214
3 200 358 91
3 359 358 200
3 359 24 358
3 359 97 24
3 316 97 359
3 316 0 97
3 317 96 0
3 360 96 317
3 360 23 96
3 202 360 76
3 361 360 202
3 361 23 360
3 361 213 23
3 362 213 361
3 362 6 213
3 258 203 16
3 363 203 258
3 363 92 203
3 204 363 48
3 364 363 204
3 364 92 363
3 364 362 92
3 365 362 364
3 365 6 362
3 365 126 6
3 366 126 365
3 366 53 126
3 949 366 950
3 951 950 93
3 949 950 951
3 952 366 953
3 954 53 955
3 956 955 366
3 954 955 956
3 958 957 53
3 959 118 960
3 961 118 962
3 964 963 118
3 206 965 967
3 967 966 59
3 965 966 967
3 969 968 206
3 297 970 972
3 972 971 1
3 970 971 972
3 367 973 975
3 975 974 297
3 973 974 975
3 367 976 978
3 976 27 977
3 976 977 978
3 208 367 67
3 979 367 980
3 981 980 208
3 979 980 981
3 982 27 983
3 984 983 367
3 982 983 984
3 986 985 27
3 988 987 12
