ply
format ascii 1.0
element vertex 761
property float x
property float y
property float z
element face 833
property list uchar int vertex_index
end_header
19.607821 -9.392749 -65.605782
25.885391 12.901059 -70.331955
27.748724 -50.834244 -46.198147
32.113571 -17.100584 -59.008057
36.448921 -5.256531 -58.734932
39.614655 -29.006926 -36.329639
17.200987 12.291487 -72.650742
22.898739 1.457074 -69.116684
37.606419 -40.244068 -38.296574
27.310711 -65.971901 -32.64283
32.113583 -52.85273 -39.548855
35.547741 -37.839806 -46.011456
30.892057 -34.223248 -52.399582
24.8403 -29.120569 -57.009975
25.727671 -12.853556 -63.383682
30.48975 -1.073428 -65.342247
38.677418 -23.707695 -48.72784
38.877636 -30.865978 -32.059418
22.542471 18.77574 -71.88781
18.293835 18.186838 -73.109123
21.403652 13.221372 -72.132568
20.324045 7.077155 -71.174805
24.37088 7.073595 -70.170547
35.92836 -47.055702 -34.905865
25.664482 -58.671597 -43.276459
28.083681 -59.535767 -39.85675
30.091444 -52.281441 -43.113457
33.972427 -45.630245 -42.836975
31.950472 -44.540043 -46.210323
33.436302 -36.449947 -49.348881
29.502285 -42.636364 -49.250134
21.786877 -26.258224 -58.631618
34.668114 -11.356591 -59.116707
33.698982 -3.117537 -62.362423
31.651331 -8.788216 -62.323772
28.288628 -7.03097 -64.677353
28.830105 -14.950172 -61.546738
26.940033 18.080448 -69.445061
22.88903 -57.499294 -45.882118
24.780582 -49.137985 -48.799194
34.857605 -19.433697 -55.986134
39.879856 -27.247772 -40.531132
16.160059 6.120474 -71.138039
19.002815 0.968042 -69.462723
21.11084 -4.583806 -67.361458
38.932564 -34.645615 -37.337467
38.788998 -33.248566 -41.484043
30.914145 -59.605049 -32.101913
25.675638 -66.314034 -36.640617
29.768562 -59.855511 -36.145889
33.204552 -53.543365 -35.559166
35.270535 -46.513367 -39.087589
36.83567 -39.206902 -42.446362
38.031841 -31.474669 -45.590549
36.51329 -29.862684 -49.340591
34.382202 -27.779234 -52.791004
31.740557 -25.922327 -55.593208
26.598454 -40.485027 -51.795784
27.999498 -31.772766 -54.93578
28.707493 -23.474199 -58.148159
25.632677 -20.553526 -60.325909
22.468559 -18.006666 -61.901386
22.292202 -10.866738 -64.822174
29.768728 12.012524 -67.697067
32.067852 4.689155 -65.258591
28.552561 6.129224 -68.059029
26.763741 0.452781 -67.652771
24.713245 -5.416555 -66.441727
39.242729 -24.457029 -46.750683
24.217447 15.891437 -71.25914
22.116257 16.039993 -72.122536
23.643719 13.232411 -71.392044
22.943487 10.353755 -71.266449
25.108635 10.102015 -70.419189
26.647997 -54.892033 -44.751038
27.936766 -55.461929 -43.235565
28.972239 -51.470539 -44.816891
31.052164 -48.578938 -44.585232
30.044765 -47.461239 -46.259705
30.759689 -43.622879 -47.815693
28.563442 -47.008072 -47.655571
33.450893 -14.005194 -59.239178
33.139454 -10.187976 -60.809769
31.909554 -12.976199 -60.70089
30.321888 -11.895532 -62.00779
30.490187 -16.137774 -60.317783
36.131088 -16.393431 -55.862682
39.77721 -28.442705 -38.358952
17.706259 15.273244 -73.035255
16.07946 17.664856 -73.290001
15.537998 14.6678 -73.038788
13.499143 13.659451 -72.712097
15.155934 11.655742 -72.511459
16.61862 9.472047 -72.062286
21.689037 4.353676 -70.209328
19.712488 4.08278 -70.414299
20.983828 1.413973 -69.435036
20.133587 -1.629363 -68.500046
21.932076 -1.605262 -68.308235
38.37151 -37.424889 -37.745716
38.936241 -33.967625 -39.420464
38.207458 -37.01524 -39.839569
26.555178 -68.389397 -28.781849
27.933546 -65.568123 -30.609177
29.669582 -62.488285 -30.12262
29.211119 -62.755955 -32.295559
23.457764 -69.416603 -37.023201
30.093027 -56.348267 -39.716576
30.925734 -56.414246 -38.01152
31.53533 -56.73315 -35.927208
32.668713 -53.413391 -37.57449
34.277332 -50.089268 -37.394257
33.75457 -49.838402 -39.248631
34.698872 -42.052441 -44.408627
35.478233 -42.485828 -42.677288
36.236477 -38.587696 -44.297421
37.529099 -35.372566 -43.92709
36.908474 -34.628716 -45.836403
37.362427 -30.781147 -47.445267
35.992432 -34.008961 -47.744385
32.23307 -35.250206 -50.98349
33.975307 -32.134979 -51.063679
32.778732 -31.031019 -52.596134
33.123787 -27.048977 -54.16663
31.332939 -29.892118 -54.095356
23.248127 -48.191212 -49.844685
25.695551 -44.89365 -50.263573
24.275347 -43.633789 -51.353214
24.23345 -33.621815 -55.348423
25.863834 -34.951981 -54.377789
26.374949 -30.526773 -56.027863
28.379372 -27.481709 -56.598316
26.784445 -26.289219 -57.654633
27.158607 -21.931217 -59.342041
25.405973 -24.779827 -58.650532
20.240353 -24.694677 -59.335796
22.19533 -21.965256 -60.320168
20.625593 -20.488239 -61.016075
35.913494 -1.369007 -60.166157
32.123539 -2.080468 -63.946957
32.986767 0.85626 -63.843174
31.275679 1.932207 -65.473106
30.365316 5.838687 -66.807907
29.580635 2.719475 -66.794373
27.612946 3.23903 -67.988892
28.747688 -0.374093 -66.522072
27.116428 -9.888318 -64.104568
26.492752 -6.049039 -65.697884
25.306492 -9.116512 -64.932793
23.523939 -8.176571 -65.680847
23.929554 -11.928989 -64.143974
39.354176 -27.71633 -33.492283
39.278648 -30.052481 -34.146748
18.692289 20.966219 -72.863876
20.370443 18.505741 -72.659012
19.890051 15.681136 -72.733261
19.264727 12.785802 -72.525658
18.859592 9.892452 -72.038788
20.890469 10.090434 -71.75795
22.346956 7.179839 -70.796684
23.69669 4.158694 -69.688644
36.815907 -43.716702 -36.627182
25.260424 -69.219391 -33.002384
24.478964 -62.512089 -41.82674
26.857952 -59.341408 -41.616245
29.065042 -56.003696 -41.545025
31.159212 -52.723843 -41.343784
33.086769 -49.243927 -41.248978
32.193409 -48.775024 -43.048676
32.99527 -45.163841 -44.604057
33.869907 -41.162849 -46.160355
34.52541 -37.139961 -47.81456
32.765583 -40.539299 -47.751808
31.615898 -39.444412 -49.350616
30.186077 -38.551544 -50.804634
21.971169 -36.479103 -54.676167
22.788231 -32.036945 -56.244526
23.328238 -27.984489 -57.757011
35.626282 -8.191032 -59.07132
35.144917 -3.974267 -60.664051
34.306477 -7.111215 -60.752548
32.881584 -6.204051 -62.254906
31.186708 -5.005483 -63.808205
29.487879 -3.963211 -65.106041
29.914116 -7.938358 -63.60688
28.669271 -11.076525 -63.078331
27.280945 -13.743756 -62.584877
24.667879 18.631979 -70.854576
26.321981 15.765289 -70.104721
23.15094 -61.921021 -43.360939
24.296722 -58.050072 -44.721325
25.414186 -53.960155 -46.145168
26.203585 -50.21788 -47.537449
23.775311 -53.606384 -47.255119
22.342728 -52.340801 -48.458328
36.842754 -9.472034 -57.187603
35.953426 -12.198713 -57.512581
34.84108 -15.382644 -57.556198
33.515812 -18.572008 -57.452484
39.791176 -26.537354 -42.595753
16.593758 20.325466 -73.208191
14.364849 19.696732 -73.22686
18.178402 6.866772 -71.338684
17.645729 3.522296 -70.347931
17.037081 0.259995 -69.222221
18.352209 -2.096395 -68.397041
19.471348 -4.691329 -67.42141
18.846392 -7.597072 -66.305588
20.385851 -7.411275 -66.356758
19.587528 -11.849392 -64.591675
39.103188 -32.550079 -34.739811
39.323315 -31.934965 -36.733391
39.466656 -30.962809 -38.920517
39.411461 -30.325216 -41.036995
39.275185 -29.318251 -43.065926
31.237741 -59.410698 -29.917873
24.333321 -69.57679 -35.00774
26.51232 -66.303528 -34.662838
27.773767 -63.133369 -36.35577
28.490009 -63.139786 -34.360302
30.408901 -59.820995 -34.103825
32.181725 -56.450386 -33.902142
34.692402 -50.218502 -35.32933
35.637718 -46.967823 -37.01186
36.566429 -43.428593 -38.566628
34.667152 -46.217312 -40.98391
36.129211 -42.935974 -40.690201
37.285656 -39.937473 -40.295113
37.939438 -36.257698 -41.918343
38.519993 -32.302982 -43.541977
38.928562 -28.601706 -45.063248
38.473301 -27.510746 -47.085163
37.737972 -26.781799 -49.036591
36.922554 -25.849354 -50.821693
35.063446 -33.038177 -49.474491
35.518314 -28.922586 -51.078964
35.832661 -24.903648 -52.648933
34.667114 -23.722582 -54.364014
33.352913 -22.880184 -55.808857
31.946968 -21.492786 -57.343552
27.282223 -46.018707 -48.951443
27.968506 -41.832039 -50.542313
28.772173 -37.487926 -52.105415
25.120913 -39.449203 -52.779079
27.385489 -36.101147 -53.348068
29.460598 -33.240383 -53.646049
29.870333 -28.858303 -55.350533
30.336588 -24.515476 -56.97345
30.498053 -20.357914 -58.623478
28.895578 -19.244892 -59.8134
27.292568 -17.769354 -60.991299
25.783278 -16.625029 -61.874847
23.7742 -23.605106 -59.45351
24.096712 -19.255665 -61.16785
24.212074 -15.46303 -62.67749
22.513399 -14.430454 -63.355141
20.988541 -13.112321 -64.03154
20.825848 -9.853436 -65.370132
28.411558 15.165916 -68.65892
27.933945 12.350042 -69.080772
34.534531 -0.110267 -62.090397
29.105152 9.121027 -68.089653
27.224487 9.583654 -69.312004
26.492895 6.721782 -69.242821
25.608347 3.969526 -69.017921
24.910152 1.056279 -68.475304
27.63847 -3.217019 -66.208427
25.775747 -2.512399 -67.115738
23.866495 -1.894935 -67.842773
22.869965 -4.853596 -67.02784
21.896641 -7.571875 -66.159561
39.411214 -25.034585 -45.710211
39.537563 -23.088719 -46.412545
39.791822 -27.426851 -36.968773
39.659021 -27.869498 -35.912143
39.695932 -28.724815 -37.344296
39.8731 -27.14474 -37.983429
39.791822 -27.426851 -36.968773
37.988965 -38.834479 -38.021145
38.02154 -39.124764 -36.990106
37.638995 -40.534353 -37.265535
27.622129 -65.770012 -31.626003
26.9767 -67.163944 -30.800463
26.665282 -67.365834 -31.817289
23.131469 -45.140286 -51.103313
23.761737 -45.912501 -50.59895
22.617859 -47.418997 -50.349049
19.763846 -21.641015 -60.548338
20.432973 -22.591458 -60.175936
19.571227 -23.744234 -59.708199
19.924565 -19.638172 -61.360861
19.763846 -21.641015 -60.548338
36.181207 -3.312769 -59.450544
36.491768 -1.82748 -59.217209
36.759481 -3.771242 -58.501597
38.785069 -21.755313 -49.402744
39.066423 -22.153843 -48.429969
38.323622 -23.150015 -49.722763
38.785069 -21.755313 -49.402744
39.115906 -29.291154 -32.775851
39.147522 -28.161278 -32.4882
38.909252 -29.736102 -31.771768
21.456457 18.64074 -72.273411
20.651208 19.747906 -72.447373
21.737222 19.882905 -72.061771
36.381811 -45.665008 -34.657769
35.924627 -47.258152 -33.852775
36.372134 -45.386202 -35.766523
36.825585 -43.995508 -35.518427
36.381811 -45.665008 -34.657769
24.156098 -70.855568 -33.221169
24.591505 -70.648415 -32.16534
21.320957 -35.679369 -55.050427
20.860353 -37.920468 -54.2778
21.729487 -33.45829 -55.834606
22.3797 -34.258024 -55.460346
21.320957 -35.679369 -55.050427
21.999038 -31.361373 -56.600075
21.729487 -33.45829 -55.834606
25.803956 18.356214 -70.149818
24.961518 19.729942 -70.464389
26.097595 19.454176 -69.759632
21.906926 -63.564774 -43.314656
22.636429 -63.767182 -42.633703
23.592876 -57.774683 -45.301721
23.024817 -59.758654 -44.642786
22.320971 -59.483265 -45.223183
21.080592 -53.922196 -48.263784
21.77495 -54.490887 -47.775352
21.565913 -51.74114 -48.959868
21.080592 -53.922196 -48.263784
36.941711 -11.438271 -56.469677
37.352089 -10.092284 -56.224339
36.497047 -12.801611 -56.632166
36.39809 -10.835373 -57.350092
36.941711 -11.438271 -56.469677
40.025083 -25.509433 -41.20227
39.998741 -26.118518 -40.097555
39.835516 -26.892563 -41.563443
39.980744 -25.154224 -42.234581
40.025083 -25.509433 -41.20227
14.169115 18.224721 -73.183701
15.222155 18.680794 -73.258431
15.026421 17.208783 -73.215271
13.361358 19.086123 -73.08329
14.169115 18.224721 -73.183701
12.54848 13.146173 -72.417393
13.35304 12.225604 -72.403427
15.177975 5.749532 -70.936223
15.383647 7.334019 -71.42939
15.888469 4.468604 -70.587101
15.177975 5.749532 -70.936223
18.298882 -6.377129 -66.76273
18.069615 -8.042959 -66.078434
38.798237 -34.27218 -33.940382
38.934208 -32.89442 -33.72147
38.848345 -35.020314 -36.262951
38.622866 -36.355946 -36.532234
39.127939 -33.29029 -37.035429
39.04372 -33.664988 -35.960913
38.848345 -35.020314 -36.262951
26.75766 -68.151196 -27.643247
27.468216 -66.775219 -28.624287
31.689813 -58.051904 -31.943488
31.851611 -57.954729 -30.851468
31.075943 -59.507874 -31.009893
27.47889 -61.264515 -39.088852
26.91858 -61.126795 -40.04853
28.771164 -61.49444 -36.250829
28.378571 -61.473427 -37.188133
29.375969 -59.834497 -37.083192
33.42572 -53.490676 -34.468345
32.914307 -54.944187 -33.639833
32.693139 -54.996876 -34.730654
33.948477 -51.880933 -35.444248
34.169646 -51.828245 -34.353427
33.42572 -53.490676 -34.468345
24.353331 -38.689725 -53.295446
23.923431 -40.854742 -52.563026
20.241784 -14.219065 -63.586344
20.965091 -14.908147 -63.293091
19.541277 -13.587601 -63.866411
20.288035 -12.480856 -64.311608
20.241784 -14.219065 -63.586344
29.090143 13.58922 -68.177993
29.400386 14.753037 -67.823135
30.078972 13.176341 -67.342208
32.894543 4.240747 -64.382042
33.354 2.324299 -63.674334
32.52731 2.772708 -64.550883
32.436356 5.996626 -65.002015
32.894543 4.240747 -64.382042
31.564002 6.556317 -65.87846
32.436356 5.996626 -65.002015
39.349079 -22.52851 -47.441391
39.537563 -23.088719 -46.412545
38.960074 -24.082362 -47.739261
39.066423 -22.153843 -48.429969
39.349079 -22.52851 -47.441391
38.645674 -31.191056 -31.001559
38.909252 -29.736102 -31.771768
35.397819 -48.762294 -34.003746
35.924627 -47.258152 -33.852775
27.113667 19.262144 -69.020489
26.097595 19.454176 -69.759632
21.598885 -59.040866 -45.820861
22.320971 -59.483265 -45.223183
22.048101 -57.070133 -46.487247
21.598885 -59.040866 -45.820861
36.658178 -16.994692 -54.965953
36.585878 -14.89897 -55.807216
36.078484 -18.566009 -55.063406
36.658178 -16.994692 -54.965953
35.441742 -20.086143 -55.125132
35.494346 -17.913564 -55.924408
36.078484 -18.566009 -55.063406
39.947418 -26.715984 -39.011465
39.8731 -27.14474 -37.983429
39.828533 -27.845239 -39.445042
39.998741 -26.118518 -40.097555
39.947418 -26.715984 -39.011465
14.755689 15.710255 -73.089664
15.026421 17.208783 -73.215271
15.808729 16.166328 -73.164395
14.51857 14.163626 -72.875442
13.736262 15.206081 -72.926319
14.755689 15.710255 -73.089664
14.181435 11.22375 -72.303108
13.35304 12.225604 -72.403427
14.327538 12.657597 -72.611778
14.881584 10.101653 -72.1161
14.181435 11.22375 -72.303108
15.612927 9.009805 -71.891514
14.881584 10.101653 -72.1161
15.887277 10.563894 -72.286873
16.389339 7.79626 -71.600163
15.383647 7.334019 -71.42939
15.612927 9.009805 -71.891514
38.342339 -37.745583 -36.736359
38.02154 -39.124764 -36.990106
38.652037 -36.035252 -37.541591
38.622866 -36.355946 -36.532234
38.342339 -37.745583 -36.736359
26.287516 -68.574581 -29.886799
25.583736 -69.986378 -29.021282
27.244362 -66.97876 -29.695513
26.287516 -68.574581 -29.886799
26.9767 -67.163944 -30.800463
28.1574 -65.364582 -29.537951
27.468216 -66.775219 -28.624287
27.244362 -66.97876 -29.695513
28.801564 -64.028204 -30.365899
29.025418 -63.824663 -29.294672
28.1574 -65.364582 -29.537951
22.794477 -69.512512 -37.923928
22.174242 -71.118126 -37.214411
24.079319 -67.755226 -37.807755
22.794477 -69.512512 -37.923928
25.188256 -66.203942 -37.616462
24.566701 -67.865319 -36.831909
24.079319 -67.755226 -37.807755
29.538201 -58.080876 -38.868536
28.533528 -59.674626 -38.938623
29.088354 -57.942017 -39.786663
29.954555 -58.113865 -38.016008
29.538201 -58.080876 -38.868536
30.50938 -56.381256 -38.864048
30.347148 -58.134878 -37.078705
29.375969 -59.834497 -37.083192
29.954555 -58.113865 -38.016008
25.048642 -34.286898 -54.863106
24.724792 -36.441114 -54.094801
23.909599 -35.776032 -54.580118
20.783617 -18.596106 -61.785359
21.7051 -17.355319 -62.228014
21.547076 -19.247453 -61.458731
20.783617 -18.596106 -61.785359
19.924565 -19.638172 -61.360861
30.697536 11.513362 -66.842865
30.078972 13.176341 -67.342208
36.189356 0.073388 -59.882221
36.491768 -1.82748 -59.217209
35.538824 0.623637 -60.898297
36.189356 0.073388 -59.882221
39.357089 -26.628797 -33.134236
39.147522 -28.161278 -32.4882
39.552296 -26.057588 -34.189457
39.357089 -26.628797 -33.134236
39.528782 -27.224199 -34.493465
39.552296 -26.057588 -34.189457
39.491018 -28.392275 -34.820698
39.528782 -27.224199 -34.493465
39.316412 -28.884405 -33.819516
39.446652 -29.529704 -35.238194
39.659021 -27.869498 -35.912143
39.491018 -28.392275 -34.820698
19.812131 20.978144 -72.549804
18.95561 22.138162 -72.566547
19.531366 19.73598 -72.761444
19.812131 20.978144 -72.549804
20.651208 19.747906 -72.447373
37.243739 -42.27067 -36.430839
36.825585 -43.995508 -35.518427
37.211163 -41.980385 -37.461878
37.638995 -40.534353 -37.265535
37.243739 -42.27067 -36.430839
25.640139 -68.989578 -31.997066
24.591505 -70.648415 -32.16534
26.285567 -67.595646 -32.822607
26.665282 -67.365834 -31.817289
25.640139 -68.989578 -31.997066
25.116222 -62.614956 -41.033525
23.915014 -64.389346 -41.0173
26.305715 -61.029616 -40.928278
25.116222 -62.614956 -41.033525
25.668458 -60.926749 -41.721492
27.470816 -59.438587 -40.736497
26.91858 -61.126795 -40.04853
26.305715 -61.029616 -40.928278
21.62771 -38.661722 -53.921303
20.860353 -37.920468 -54.2778
22.778459 -37.204676 -54.24399
21.62771 -38.661722 -53.921303
23.10231 -35.050459 -55.012295
23.909599 -35.776032 -54.580118
22.778459 -37.204676 -54.24399
22.269042 -29.335145 -57.356318
23.058234 -30.010717 -57.000768
21.999038 -31.361373 -56.600075
21.498362 -28.472013 -57.793621
22.557558 -27.121356 -58.194315
22.269042 -29.335145 -57.356318
20.793071 -27.649534 -58.141801
21.498362 -28.472013 -57.793621
20.019809 -26.86776 -58.493891
21.013615 -25.47645 -58.983707
20.793071 -27.649534 -58.141801
19.270164 -25.842831 -58.875845
20.019809 -26.86776 -58.493891
19.571227 -23.744234 -59.708199
19.270164 -25.842831 -58.875845
22.794846 20.002095 -71.58773
21.737222 19.882905 -72.061771
23.857551 19.930215 -71.071113
24.961518 19.729942 -70.464389
23.605175 18.70386 -71.371193
22.794846 20.002095 -71.58773
23.857551 19.930215 -71.071113
23.300441 -64.062715 -41.866603
23.915014 -64.389346 -41.0173
23.814952 -62.216555 -42.59384
23.300441 -64.062715 -41.866603
22.636429 -63.767182 -42.633703
22.451926 -61.694129 -43.962593
21.906926 -63.564774 -43.314656
23.723831 -59.985546 -44.041132
22.451926 -61.694129 -43.962593
23.024817 -59.758654 -44.642786
22.491242 -55.123678 -47.173748
23.332171 -55.552839 -46.568618
22.048101 -57.070133 -46.487247
23.059019 -52.973592 -47.856724
22.491242 -55.123678 -47.173748
21.77495 -54.490887 -47.775352
22.018612 -49.666345 -49.653046
22.795428 -50.266007 -49.151506
21.565913 -51.74114 -48.959868
22.617859 -47.418997 -50.349049
22.018612 -49.666345 -49.653046
37.009957 -5.905158 -57.730992
36.759481 -3.771242 -58.501597
37.206873 -8.01291 -56.957327
37.352089 -10.092284 -56.224339
36.645837 -7.364282 -57.961268
37.009957 -5.905158 -57.730992
37.206873 -8.01291 -56.957327
36.042257 -14.296072 -56.687631
36.497047 -12.801611 -56.632166
36.585878 -14.89897 -55.807216
39.922324 -24.751215 -43.27438
39.980744 -25.154224 -42.234581
39.685438 -26.074748 -43.632746
39.922324 -24.751215 -43.27438
17.818127 21.931271 -72.832947
18.95561 22.138162 -72.566547
16.768862 21.610894 -73.005104
17.818127 21.931271 -72.832947
17.643023 20.645843 -73.036034
15.718435 21.251288 -73.108104
16.768862 21.610894 -73.005104
14.60398 20.93692 -73.117439
15.718435 21.251288 -73.108104
15.479304 20.011099 -73.217525
13.560454 20.492431 -73.050099
14.60398 20.93692 -73.117439
13.560454 20.492431 -73.050099
13.361358 19.086123 -73.08329
12.752397 14.673186 -72.702518
13.736262 15.206081 -72.926319
12.752397 14.673186 -72.702518
12.54848 13.146173 -72.417393
16.631304 3.169516 -70.192047
15.888469 4.468604 -70.587101
16.902894 4.821385 -70.742985
16.326981 1.538365 -69.629192
16.631304 3.169516 -70.192047
17.341405 1.891145 -69.785076
16.150602 -0.117125 -69.014111
16.326981 1.538365 -69.629192
16.806126 -1.364871 -68.602474
16.150602 -0.117125 -69.014111
17.46369 -2.543066 -68.189884
16.806126 -1.364871 -68.602474
17.694645 -0.9182 -68.809631
18.05179 -3.626791 -67.808457
17.46369 -2.543066 -68.189884
18.611359 -4.924257 -67.320641
18.05179 -3.626791 -67.808457
18.911778 -3.393862 -67.909225
19.15887 -6.144201 -66.863499
18.298882 -6.377129 -66.76273
18.611359 -4.924257 -67.320641
18.647948 -8.980711 -65.737454
18.069615 -8.042959 -66.078434
19.227107 -8.49491 -65.955685
19.028662 -9.878549 -65.387551
18.647948 -8.980711 -65.737454
18.859167 -12.686415 -64.209566
19.541277 -13.587601 -63.866411
19.018515 -11.10687 -64.880497
18.859167 -12.686415 -64.209566
19.028662 -9.878549 -65.387551
19.597675 -10.621071 -65.098728
19.018515 -11.10687 -64.880497
38.598469 -32.369943 -31.294358
38.645674 -31.191056 -31.001559
38.821432 -32.05237 -32.381273
38.598469 -32.369943 -31.294358
39.021938 -31.645622 -33.424938
39.078142 -30.459229 -33.103083
38.821432 -32.05237 -32.381273
39.190918 -31.30128 -34.44328
39.021938 -31.645622 -33.424938
38.934208 -32.89442 -33.72147
38.933657 -33.972545 -34.964123
38.798237 -34.27218 -33.940382
39.213251 -32.242522 -35.736601
38.933657 -33.972545 -34.964123
39.04372 -33.664988 -35.960913
39.427442 -27.465196 -43.867832
39.685438 -26.074748 -43.632746
39.533181 -27.927802 -42.830839
25.883239 -69.67524 -27.881092
25.583736 -69.986378 -29.021282
25.883239 -69.67524 -27.881092
26.75766 -68.151196 -27.643247
29.816886 -62.324625 -29.043813
29.025418 -63.824663 -29.294672
30.600966 -60.785832 -28.94144
29.816886 -62.324625 -29.043813
30.453661 -60.949491 -30.020246
31.362083 -59.190681 -28.786108
30.600966 -60.785832 -28.94144
31.977559 -57.803463 -29.734561
31.362083 -59.190681 -28.786108
31.977559 -57.803463 -29.734561
31.851611 -57.954729 -30.851468
22.700208 -71.14777 -36.265028
22.174242 -71.118126 -37.214411
23.137987 -71.227863 -35.257297
22.700208 -71.14777 -36.265028
23.895543 -69.496696 -36.01547
23.692546 -71.034267 -34.223847
23.137987 -71.227863 -35.257297
24.796872 -69.39809 -34.005062
24.156098 -70.855568 -33.221169
23.692546 -71.034267 -34.223847
26.274869 -64.653649 -37.480785
25.188256 -66.203942 -37.616462
27.47889 -61.264515 -39.088852
28.533528 -59.674626 -38.938623
27.323933 -63.063316 -37.338362
28.378571 -61.473427 -37.188133
26.724702 -64.723702 -36.498193
26.274869 -64.653649 -37.480785
27.323933 -63.063316 -37.338362
32.323603 -56.474573 -32.843603
31.689813 -58.051904 -31.943488
31.547935 -58.027718 -33.002027
32.323603 -56.474573 -32.843603
32.914307 -54.944187 -33.639833
34.779841 -50.343694 -34.215479
34.169646 -51.828245 -34.353427
35.310381 -48.637102 -35.117598
35.397819 -48.762294 -34.003746
34.779841 -50.343694 -34.215479
39.254131 -27.106924 -44.866494
39.427442 -27.465196 -43.867832
39.101873 -28.959978 -44.064587
39.085645 -26.529367 -45.906965
39.411214 -25.034585 -45.710211
39.254131 -27.106924 -44.866494
37.853899 -24.687067 -49.877139
38.323622 -23.150015 -49.722763
38.207695 -25.244747 -48.882216
37.44619 -24.220844 -50.769689
37.853899 -24.687067 -49.877139
37.330263 -26.315576 -49.929142
36.994026 -23.900148 -51.629959
37.44619 -24.220844 -50.769689
36.449079 -23.427295 -52.543579
36.994026 -23.900148 -51.629959
36.377607 -25.376501 -51.735313
35.92927 -22.821118 -53.456531
36.449079 -23.427295 -52.543579
35.346497 -22.230585 -54.314072
35.92927 -22.821118 -53.456531
35.249887 -24.313115 -53.506473
34.76236 -21.578139 -55.175074
35.441742 -20.086143 -55.125132
35.346497 -22.230585 -54.314072
23.500649 -42.947035 -51.850093
23.131469 -45.140286 -51.103313
24.69813 -41.541496 -52.066147
23.500649 -42.947035 -51.850093
23.923431 -40.854742 -52.563026
25.492373 -37.200592 -53.578434
24.353331 -38.689725 -53.295446
24.724792 -36.441114 -54.094801
21.72752 -15.567213 -62.954892
22.490979 -16.21856 -62.628264
21.7051 -17.355319 -62.228014
21.75097 -13.771387 -63.693341
21.72752 -15.567213 -62.954892
20.965091 -14.908147 -63.293091
27.951461 17.816762 -68.6391
27.113667 19.262144 -69.020489
28.687224 16.359496 -68.246029
29.400386 14.753037 -67.823135
27.675795 16.623182 -69.05199
27.951461 17.816762 -68.6391
28.687224 16.359496 -68.246029
34.849343 1.253007 -61.860416
35.538824 0.623637 -60.898297
35.224013 -0.739637 -61.128277
34.127882 1.841036 -62.797945
33.760649 0.372997 -62.966786
33.354 2.324299 -63.674334
34.849343 1.253007 -61.860416
34.127882 1.841036 -62.797945
30.41444 10.218001 -67.097698
30.697536 11.513362 -66.842865
30.712734 7.131083 -66.653118
31.564002 6.556317 -65.87846
31.216584 5.263921 -66.033249
30.082652 8.772253 -67.293991
30.712734 7.131083 -66.653118
29.735234 7.479857 -67.44878
29.43694 10.566776 -67.89336
30.41444 10.218001 -67.097698
30.082652 8.772253 -67.293991
3 271 68 272
3 1 71 69
3 1 73 71
3 2 76 74
3 2 78 76
3 2 80 78
3 3 83 81
3 3 85 83
3 5 273 274
3 5 275 277
3 275 87 276
3 275 276 277
3 6 90 88
3 6 92 90
3 6 93 92
3 7 96 94
3 7 98 96
3 8 278 280
3 278 99 279
3 278 279 280
3 8 101 99
3 9 281 283
3 281 103 282
3 281 282 283
3 9 105 103
3 10 108 107
3 10 110 108
3 10 112 110
3 11 115 113
3 11 117 115
3 11 119 117
3 12 122 120
3 12 124 122
3 284 127 285
3 286 285 125
3 284 285 286
3 13 130 128
3 13 132 130
3 13 134 132
3 287 137 288
3 289 288 135
3 287 288 289
3 291 290 137
3 4 292 294
3 292 138 293
3 292 293 294
3 15 141 139
3 15 143 141
3 15 145 143
3 14 148 146
3 14 150 148
3 16 295 296
3 16 297 298
3 17 299 301
3 299 151 300
3 299 300 301
3 17 152 151
3 18 302 304
3 302 154 303
3 302 303 304
3 20 155 70
3 20 156 155
3 20 158 156
3 22 159 72
3 22 160 159
3 23 305 306
3 23 307 309
3 307 161 308
3 307 308 309
3 310 162 311
3 24 164 163
3 26 165 75
3 26 166 165
3 26 168 166
3 28 169 77
3 28 170 169
3 28 172 170
3 30 173 79
3 30 174 173
3 312 175 313
3 314 176 315
3 316 315 175
3 314 315 316
3 318 317 176
3 32 180 178
3 34 181 82
3 34 182 181
3 34 184 182
3 36 185 84
3 36 186 185
3 37 319 321
3 319 187 320
3 319 320 321
3 37 188 187
3 322 189 323
3 38 324 326
3 324 190 325
3 324 325 326
3 38 191 190
3 38 193 191
3 327 194 328
3 330 329 194
3 331 195 332
3 333 196 334
3 335 334 195
3 333 334 335
3 40 197 86
3 40 198 197
3 41 336 337
3 41 338 340
3 338 199 339
3 338 339 340
3 19 200 153
3 341 201 342
3 343 342 89
3 341 342 343
3 345 344 201
3 347 346 91
3 42 348 349
3 42 350 351
3 21 202 157
3 43 203 95
3 43 204 203
3 43 205 204
3 44 206 97
3 44 208 206
3 352 207 353
3 354 210 355
3 45 356 357
3 45 358 360
3 358 211 359
3 358 359 360
3 45 212 211
3 46 213 100
3 46 214 213
3 362 361 102
3 47 215 104
3 47 363 365
3 365 364 215
3 363 364 365
3 48 216 106
3 48 217 216
3 25 366 367
3 49 368 370
3 368 218 369
3 368 369 370
3 49 219 218
3 49 220 219
3 50 221 109
3 50 371 373
3 373 372 221
3 371 372 373
3 50 374 376
3 374 222 375
3 374 375 376
3 51 223 111
3 51 224 223
3 27 225 167
3 52 226 114
3 52 227 226
3 52 228 227
3 53 229 116
3 53 230 229
3 53 231 230
3 54 232 118
3 54 233 232
3 29 234 171
3 55 235 121
3 55 236 235
3 55 237 236
3 56 238 123
3 56 239 238
3 39 240 192
3 57 241 126
3 57 242 241
3 377 243 378
3 58 244 129
3 58 245 244
3 58 246 245
3 59 247 131
3 59 248 247
3 59 249 248
3 60 250 133
3 60 251 250
3 31 252 177
3 61 253 136
3 61 254 253
3 61 255 254
3 379 256 380
3 381 209 382
3 383 382 256
3 381 382 383
3 63 384 386
3 384 258 385
3 384 385 386
3 63 259 258
3 33 260 179
3 64 387 389
3 389 388 140
3 387 388 389
3 64 390 391
3 64 392 393
3 65 261 142
3 65 262 261
3 65 263 262
3 66 264 144
3 66 265 264
3 35 266 183
3 67 267 147
3 67 268 267
3 67 269 268
3 62 270 149
3 62 257 270
3 68 394 395
3 68 396 398
3 396 16 397
3 396 397 398
3 399 17 400
3 69 70 18
3 71 70 69
3 71 20 70
3 71 72 20
3 73 72 71
3 73 22 72
3 401 23 402
3 74 75 24
3 76 75 74
3 76 26 75
3 76 77 26
3 78 77 76
3 78 28 77
3 78 79 28
3 80 79 78
3 80 30 79
3 81 82 32
3 83 82 81
3 83 34 82
3 83 84 34
3 85 84 83
3 85 36 84
3 403 37 404
3 405 38 406
3 408 407 38
3 409 86 410
3 411 86 412
3 413 40 414
3 415 414 86
3 413 414 415
3 87 416 417
3 87 418 420
3 418 41 419
3 418 419 420
3 88 89 19
3 90 89 88
3 90 421 423
3 423 422 89
3 421 422 423
3 90 424 426
3 424 91 425
3 424 425 426
3 92 91 90
3 92 427 429
3 429 428 91
3 427 428 429
3 92 430 431
3 93 432 434
3 434 433 92
3 432 433 434
3 93 435 437
3 435 42 436
3 435 436 437
3 94 95 21
3 96 95 94
3 96 43 95
3 96 97 43
3 98 97 96
3 98 44 97
3 99 438 439
3 99 440 442
3 440 45 441
3 440 441 442
3 99 100 45
3 101 100 99
3 101 46 100
3 443 102 444
3 103 445 447
3 445 102 446
3 445 446 447
3 103 448 450
3 450 449 102
3 448 449 450
3 103 451 453
3 451 104 452
3 451 452 453
3 105 104 103
3 105 47 104
3 454 106 455
3 456 106 457
3 458 48 459
3 460 459 106
3 458 459 460
3 107 461 463
3 463 462 25
3 461 462 463
3 108 464 466
3 466 465 107
3 464 465 466
3 108 467 469
3 467 49 468
3 467 468 469
3 108 109 49
3 110 109 108
3 110 50 109
3 110 111 50
3 112 111 110
3 112 51 111
3 113 114 27
3 115 114 113
3 115 52 114
3 115 116 52
3 117 116 115
3 117 53 116
3 117 118 53
3 119 118 117
3 119 54 118
3 120 121 29
3 122 121 120
3 122 55 121
3 122 123 55
3 124 123 122
3 124 56 123
3 125 126 39
3 127 126 125
3 127 57 126
3 128 470 472
3 470 129 471
3 470 471 472
3 130 129 128
3 130 58 129
3 130 131 58
3 132 131 130
3 132 59 131
3 132 133 59
3 134 133 132
3 134 60 133
3 135 136 31
3 137 136 135
3 137 61 136
3 137 473 475
3 475 474 61
3 473 474 475
3 477 476 137
3 478 63 479
3 138 480 481
3 138 482 483
3 139 140 33
3 141 140 139
3 141 64 140
3 141 142 64
3 143 142 141
3 143 65 142
3 143 144 65
3 145 144 143
3 145 66 144
3 146 147 35
3 148 147 146
3 148 67 147
3 148 149 67
3 150 149 148
3 150 62 149
3 151 484 485
3 151 486 487
3 151 488 489
3 152 490 492
3 492 491 151
3 490 491 492
3 152 493 495
3 493 5 494
3 493 494 495
3 496 153 497
3 154 498 500
3 498 153 499
3 498 499 500
3 154 19 153
3 70 154 18
3 155 154 70
3 155 19 154
3 155 88 19
3 156 88 155
3 156 6 88
3 156 157 6
3 158 157 156
3 158 21 157
3 72 158 20
3 159 158 72
3 159 21 158
3 159 94 21
3 160 94 159
3 160 7 94
3 161 501 502
3 161 503 505
3 503 8 504
3 503 504 505
3 162 506 507
3 162 508 510
3 508 9 509
3 508 509 510
3 163 511 512
3 164 513 515
3 515 514 163
3 513 514 515
3 164 516 518
3 516 25 517
3 516 517 518
3 75 164 24
3 165 164 75
3 165 25 164
3 165 107 25
3 166 107 165
3 166 10 107
3 166 167 10
3 168 167 166
3 168 27 167
3 77 168 26
3 169 168 77
3 169 27 168
3 169 113 27
3 170 113 169
3 170 11 113
3 170 171 11
3 172 171 170
3 172 29 171
3 79 172 28
3 173 172 79
3 173 29 172
3 173 120 29
3 174 120 173
3 174 12 120
3 175 519 520
3 175 521 522
3 175 523 525
3 523 128 524
3 523 524 525
3 176 128 175
3 176 13 128
3 176 177 13
3 526 177 527
3 528 527 176
3 526 527 528
3 529 31 530
3 531 530 177
3 529 530 531
3 532 31 533
3 534 135 535
3 536 535 31
3 534 535 536
3 537 135 538
3 540 539 135
3 178 179 4
3 180 179 178
3 180 33 179
3 82 180 32
3 181 180 82
3 181 33 180
3 181 139 33
3 182 139 181
3 182 15 139
3 182 183 15
3 184 183 182
3 184 35 183
3 84 184 34
3 185 184 84
3 185 35 184
3 185 146 35
3 186 146 185
3 186 14 146
3 541 18 542
3 187 543 544
3 187 545 547
3 545 18 546
3 545 546 547
3 187 69 18
3 188 69 187
3 188 1 69
3 548 163 549
3 189 550 552
3 550 163 551
3 550 551 552
3 189 24 163
3 553 189 554
3 190 555 557
3 555 189 556
3 555 556 557
3 190 24 189
3 190 74 24
3 191 74 190
3 191 2 74
3 191 192 2
3 193 192 191
3 193 39 192
3 558 193 559
3 560 559 38
3 558 559 560
3 194 561 563
3 561 193 562
3 561 562 563
3 194 39 193
3 194 125 39
3 564 125 565
3 566 565 194
3 564 565 566
3 568 567 125
3 569 4 570
3 195 571 572
3 195 573 575
3 573 4 574
3 573 574 575
3 195 178 4
3 196 178 195
3 196 32 178
3 86 576 578
3 576 196 577
3 576 577 578
3 197 196 86
3 197 32 196
3 197 81 32
3 198 81 197
3 198 3 81
3 199 579 580
3 199 581 582
3 153 583 584
3 200 585 587
3 587 586 153
3 585 586 587
3 200 588 589
3 89 200 19
3 201 200 89
3 201 590 592
3 592 591 200
3 590 591 592
3 201 593 594
3 596 595 201
3 91 597 598
3 600 599 91
3 157 93 6
3 202 93 157
3 202 42 93
3 95 202 21
3 203 202 95
3 203 42 202
3 203 601 603
3 603 602 42
3 601 602 603
3 204 604 606
3 606 605 203
3 604 605 606
3 204 607 608
3 204 609 610
3 205 611 613
3 613 612 204
3 611 612 613
3 205 614 615
3 97 205 43
3 206 205 97
3 206 616 618
3 618 617 205
3 616 617 618
3 206 619 621
3 619 207 620
3 619 620 621
3 208 207 206
3 208 0 207
3 207 622 623
3 207 624 626
3 624 0 625
3 624 625 626
3 627 209 628
3 629 209 630
3 631 0 632
3 633 632 209
3 631 632 633
3 634 17 635
3 636 17 637
3 638 152 639
3 640 639 17
3 638 639 640
3 210 641 643
3 641 152 642
3 641 642 643
3 210 5 152
3 644 210 645
3 211 646 648
3 646 210 647
3 646 647 648
3 211 5 210
3 211 87 5
3 212 87 211
3 212 41 87
3 100 212 45
3 213 212 100
3 213 41 212
3 213 199 41
3 214 199 213
3 214 649 651
3 651 650 199
3 649 650 651
3 102 652 653
3 655 654 102
3 104 656 657
3 215 658 660
3 660 659 104
3 658 659 660
3 215 661 662
3 215 663 664
3 666 665 215
3 106 667 668
3 216 669 671
3 671 670 106
3 669 670 671
3 216 672 673
3 216 674 676
3 674 162 675
3 674 675 676
3 217 162 216
3 217 9 162
3 677 48 678
3 680 679 25
3 218 681 682
3 218 683 685
3 683 48 684
3 683 684 685
3 218 217 48
3 219 217 218
3 219 9 217
3 219 105 9
3 220 105 219
3 220 47 105
3 109 220 49
3 221 220 109
3 221 47 220
3 221 686 688
3 688 687 47
3 686 687 688
3 690 689 221
3 222 691 692
3 222 693 695
3 693 23 694
3 693 694 695
3 111 222 50
3 223 222 111
3 223 23 222
3 223 161 23
3 224 161 223
3 224 8 161
3 167 112 10
3 225 112 167
3 225 51 112
3 114 225 27
3 226 225 114
3 226 51 225
3 226 224 51
3 227 224 226
3 227 8 224
3 227 101 8
3 228 101 227
3 228 46 101
3 116 228 52
3 229 228 116
3 229 46 228
3 229 214 46
3 230 214 229
3 230 696 698
3 698 697 214
3 696 697 698
3 230 699 701
3 699 68 700
3 699 700 701
3 231 68 230
3 231 16 68
3 118 231 53
3 232 231 118
3 232 16 231
3 232 702 704
3 704 703 16
3 702 703 704
3 233 705 707
3 707 706 232
3 705 706 707
3 233 708 709
3 171 119 11
3 234 119 171
3 234 54 119
3 121 234 29
3 235 234 121
3 235 54 234
3 235 233 54
3 236 233 235
3 236 710 712
3 712 711 233
3 710 711 712
3 236 713 714
3 237 715 717
3 717 716 236
3 715 716 717
3 237 718 720
3 718 40 719
3 718 719 720
3 123 237 55
3 238 237 123
3 238 40 237
3 238 198 40
3 239 198 238
3 239 3 198
3 192 80 2
3 240 80 192
3 240 30 80
3 126 240 39
3 241 240 126
3 241 30 240
3 241 174 30
3 242 174 241
3 242 12 174
3 721 127 722
3 243 723 725
3 723 127 724
3 723 724 725
3 243 57 127
3 129 726 728
3 726 243 727
3 726 727 728
3 244 243 129
3 244 57 243
3 244 242 57
3 245 242 244
3 245 12 242
3 245 124 12
3 246 124 245
3 246 56 124
3 131 246 58
3 247 246 131
3 247 56 246
3 247 239 56
3 248 239 247
3 248 3 239
3 248 85 3
3 249 85 248
3 249 36 85
3 133 249 59
3 250 249 133
3 250 36 249
3 250 186 36
3 251 186 250
3 251 14 186
3 177 134 13
3 252 134 177
3 252 60 134
3 136 252 31
3 253 252 136
3 253 60 252
3 253 251 60
3 254 251 253
3 254 14 251
3 254 150 14
3 255 150 254
3 255 62 150
3 729 255 730
3 731 730 61
3 729 730 731
3 256 732 734
3 732 255 733
3 732 733 734
3 256 62 255
3 256 257 62
3 209 257 256
3 209 0 257
3 735 37 736
3 258 737 738
3 258 739 741
3 739 37 740
3 739 740 741
3 258 188 37
3 259 188 258
3 259 1 188
3 179 138 4
3 260 138 179
3 260 742 744
3 744 743 138
3 742 743 744
3 140 260 33
3 745 260 746
3 747 746 140
3 745 746 747
3 749 748 260
3 750 63 751
3 142 752 754
3 754 753 64
3 752 753 754
3 261 755 757
3 757 756 142
3 755 756 757
3 261 758 760
3 758 63 759
3 758 759 760
3 261 259 63
3 262 259 261
3 262 1 259
3 262 73 1
3 263 73 262
3 263 22 73
3 144 263 65
3 264 263 144
3 264 22 263
3 264 160 22
3 265 160 264
3 265 7 160
3 183 145 15
3 266 145 183
3 266 66 145
3 147 266 35
3 267 266 147
3 267 66 266
3 267 265 66
3 268 265 267
3 268 7 265
3 268 98 7
3 269 98 268
3 269 44 98
3 149 269 67
3 270 269 149
3 270 44 269
3 270 208 44
3 257 208 270
3 257 0 208
