ply
format ascii 1.0
element vertex 707
property float x
property float y
property float z
element face 804
property list uchar int vertex_index
end_header
26.639883 70.671349 40.601261
28.248569 100.219185 -18.737417
28.180948 92.57077 12.471737
31.849077 64.573425 23.87517
31.732601 90.273857 -11.302322
27.726677 82.772102 27.465693
30.568661 79.642288 18.666004
21.892311 105.857269 -24.42738
23.283827 105.932404 -10.056607
28.396069 98.416046 -3.272506
23.855566 101.607872 5.430252
23.766169 93.142593 20.609886
25.302156 56.435669 51.494339
31.153576 86.814835 3.556382
30.228935 95.513245 -22.179127
31.906696 90.640808 -18.394314
30.183525 95.890556 -15.237527
27.339041 77.199799 33.976131
29.052467 76.544792 29.915596
28.689432 70.431641 36.670193
28.132362 64.028877 42.967911
25.4867 103.68412 -21.917694
27.942472 99.50061 -25.699099
20.35747 106.472404 -5.498381
23.743395 104.235001 -2.298258
21.036634 96.52179 16.984173
23.233923 87.686874 27.64477
19.636169 107.620972 -12.664471
28.309875 96.03196 4.603518
29.931341 93.184647 0.159759
29.764082 90.300026 7.888847
31.322397 72.039345 21.430927
31.673914 76.602852 14.312936
32.336483 68.95459 17.239071
33.304699 84.646027 -14.40182
32.926422 84.017014 -7.198544
28.0429 87.978294 20.164181
29.601048 86.273933 15.777377
29.357176 81.699738 23.057699
30.274109 74.944382 25.670599
30.952482 67.331841 28.164421
17.612066 106.482368 -26.575649
25.952084 103.790573 -14.453988
28.35741 99.90834 -11.292299
26.132389 102.92263 -6.951902
26.268929 100.830505 1.092946
26.379438 97.563194 9.060271
21.023331 100.831024 9.643587
23.979219 97.781746 13.209804
26.238409 93.630493 16.586523
25.985991 88.520096 24.172861
25.474577 82.893356 31.138166
24.786049 76.540604 37.687458
18.616478 107.674088 -19.998938
22.608866 106.507919 -17.561827
23.95067 69.768822 43.559746
22.987696 62.325924 48.976692
26.002436 63.920647 46.21191
30.128162 94.915771 -7.55385
31.446367 89.033737 -3.861928
32.492401 82.45298 -0.00657
30.870945 83.606308 11.19802
32.09594 79.942139 7.022026
33.461067 75.197563 3.536027
29.286066 97.985069 -20.373152
30.236532 95.802338 -18.600912
29.251829 98.256767 -16.960073
27.04418 73.959648 37.362019
28.041399 73.807358 35.527981
27.787405 70.754005 38.647259
28.377851 67.412186 39.921215
27.466974 67.584808 41.695854
26.999611 102.089188 -20.17392
26.769131 101.780296 -23.716232
28.136002 99.991768 -22.143522
29.208366 97.57756 -23.917368
18.659054 106.141281 -3.167251
20.425798 105.501152 -1.680492
18.972343 104.90979 0.746774
28.294104 94.375656 8.452763
29.118237 93.275108 6.121077
29.004311 91.698639 10.022696
31.6078 68.452057 22.537807
31.786015 70.769287 19.314226
32.093548 66.768097 20.578653
32.643833 65.211922 18.36676
32.353054 62.863583 21.804214
32.082947 60.540768 25.012024
31.851446 90.502861 -14.825294
32.642452 87.72699 -16.465326
32.510002 87.56456 -12.73467
32.307915 87.420204 -9.251736
27.907249 85.544609 23.742525
28.780554 84.945908 21.526844
28.605797 82.426186 25.228889
29.555267 72.983734 31.264612
29.726202 75.820549 27.739059
30.129038 72.190956 29.137686
30.649975 71.162643 26.925875
31.137665 91.921402 -27.051855
24.668535 105.059761 -12.358469
26.051603 103.483345 -10.672146
24.762329 104.61808 -8.481807
23.70966 103.109146 1.626022
25.091763 102.641777 -0.502287
25.098886 101.36116 3.435683
26.343267 99.273842 5.197129
25.183867 99.748482 7.280786
17.751642 100.840256 9.650537
19.37429 101.783241 8.066544
19.407272 99.829994 11.7201
22.46739 95.072281 18.68054
22.465254 97.293976 15.293622
23.865425 95.636894 16.898134
25.139307 95.928841 14.851333
25.113838 93.497261 18.717726
26.179287 91.117432 20.430824
24.913403 90.888199 22.560463
22.980381 84.799828 30.849701
24.508057 85.561295 29.217396
24.086994 82.363457 32.788532
25.240976 79.823853 34.374916
23.79228 79.091759 36.02924
16.972057 107.983215 -17.53544
21.545986 106.970299 -11.546319
21.138018 107.266403 -15.293294
22.970499 106.36834 -13.905667
24.399971 105.327797 -15.960693
22.964991 72.497551 41.866009
22.452126 68.685387 44.819233
22.619844 58.374756 51.449707
24.154636 59.618816 50.256111
24.589478 63.218376 47.760178
25.61047 60.109272 49.040073
26.85129 60.610199 47.427322
28.383886 99.290382 -7.194592
29.343346 97.468323 -9.448958
29.310791 96.755287 -5.465065
30.534344 90.174057 2.109618
30.730909 91.037697 -1.726781
31.293562 88.030388 -0.094145
31.980791 85.879723 -1.952825
31.831661 84.740814 1.56221
30.147425 83.055138 17.064205
30.227188 85.339157 13.247881
30.741886 81.673805 14.883754
32.260311 74.632767 12.354632
31.890514 78.426666 10.583602
32.544037 76.073418 8.778028
32.732857 77.826698 5.196697
33.203629 73.990273 6.787739
31.613525 55.659618 30.781
31.16045 92.698212 -23.636724
32.038017 90.117867 -21.732052
31.164885 93.06633 -20.233603
31.082207 93.308014 -16.599268
31.031107 93.117348 -13.216702
27.526613 79.999382 30.87081
28.441395 79.78038 28.691748
28.293423 76.806175 32.125366
28.881763 73.558182 33.355122
29.378805 70.193306 34.469402
29.19121 67.056984 37.716175
28.958305 63.924114 40.858414
28.71302 60.670959 43.860603
23.751261 104.949181 -23.39407
25.232637 103.196144 -25.220699
26.439049 101.196968 -27.25552
29.120729 96.780518 -27.375391
30.207085 94.818047 -25.759232
21.835703 106.403915 -7.751238
23.373016 105.318649 -6.126326
22.05892 105.491425 -3.620948
22.255428 104.426651 -0.028684
22.375437 102.983498 3.979505
19.497269 97.753708 15.160838
19.420107 95.388763 18.628363
20.946259 94.088722 20.434729
22.304773 92.597343 22.115948
23.444134 90.510246 24.232214
21.971952 89.772896 25.673441
17.473017 107.942818 -14.013098
20.053936 107.178444 -9.138577
28.326242 97.46582 0.536774
29.197159 95.999825 -1.616287
29.152367 94.730598 2.407557
29.872583 91.827614 3.945793
30.469627 88.700523 5.666759
31.005356 75.903992 19.869202
31.142365 77.974968 16.600548
31.518454 74.304588 17.861752
32.052788 72.600029 15.810389
32.632568 70.848091 13.696326
32.957657 66.808472 15.299694
28.179623 90.344444 16.211685
28.977121 89.636909 13.844454
28.876999 87.34729 17.861406
29.530214 83.981392 19.369381
30.009823 80.643303 20.959986
29.231726 79.077095 26.580297
29.89826 78.310966 24.253931
30.484657 77.034615 22.204678
30.836662 73.514023 23.468794
31.135826 69.808472 24.772621
31.408892 66.19046 25.782341
31.632082 62.177799 27.046124
27.178047 102.112274 -16.659599
28.281137 100.266716 -15.050282
27.165588 102.116455 -13.037886
27.359795 101.473015 -9.1281
27.320368 100.877922 -5.133183
24.965971 103.758636 -4.540796
26.305901 101.902153 -2.938935
27.393543 99.82914 -1.266325
27.413408 98.547676 2.693875
27.381765 97.004234 6.812072
27.37553 95.14917 10.775277
20.929718 102.626572 5.926332
22.5688 101.335854 7.676122
21.091383 98.702736 13.499908
22.509047 99.484375 11.446802
23.949528 99.806824 9.343621
25.226284 97.977135 10.958426
26.27285 95.796043 12.830091
27.254551 93.23661 14.651082
27.27747 90.804192 18.418861
27.08707 88.373764 22.274601
26.916876 85.727203 25.917362
24.673443 88.321503 25.969114
25.821466 85.850945 27.563906
26.707436 82.991058 29.360683
26.497929 80.118752 32.621994
26.162823 77.07267 35.90287
25.785217 73.899399 39.032486
15.770249 107.161621 -24.186796
18.224152 107.200233 -23.473938
20.257277 106.956154 -22.379871
19.103346 107.818481 -16.242113
20.690374 107.262383 -18.962648
22.379145 106.258278 -21.091949
24.173489 105.235748 -19.72444
25.7988 103.819031 -18.279556
22.092371 78.162033 37.377861
23.325935 76.019279 38.907768
24.384912 73.278061 40.646492
25.350368 70.505447 42.103954
20.933617 57.300678 52.116966
21.398298 61.148357 49.881302
21.835659 64.999123 47.429062
23.468096 65.928871 46.475498
25.000813 66.817024 45.058453
26.327169 67.399254 43.437016
27.113947 64.194191 44.683292
27.869452 60.754978 45.732193
28.485352 57.303082 46.627754
29.296427 98.039162 -13.378419
30.166508 95.554428 -11.53451
30.912785 92.818428 -9.535384
30.074785 93.988083 -3.536972
30.800707 92.121452 -5.528205
31.528028 90.056534 -7.654775
32.121979 86.902679 -5.646619
32.704193 83.408348 -3.647305
33.197815 80.081924 -1.806683
29.654449 88.501251 11.895443
30.343645 87.098061 9.536273
30.962044 85.484322 7.485457
31.295498 80.136314 12.838277
31.474987 81.909981 9.015697
31.636959 83.475601 5.331906
32.274574 81.430611 3.450373
32.997044 78.864143 1.745546
31.821188 58.395523 27.964907
18.017656 105.107796 0.085716
18.815698 105.525536 -1.210238
17.861012 105.723541 -1.871297
17.861012 105.723541 -1.871297
17.694502 106.2738 -3.767596
30.061827 70.730022 30.78555
29.842153 72.587345 30.201149
29.774942 71.126411 31.849013
30.308869 70.353623 29.693107
30.061827 70.730022 30.78555
21.711388 105.393234 -26.220715
20.939209 106.071022 -25.044021
31.560388 90.359016 -27.768524
31.569542 90.815174 -26.161988
18.615932 99.266571 12.531904
18.579457 100.335125 10.685319
17.788117 99.771702 11.497123
23.345142 81.952129 33.492243
23.533687 83.581643 31.819116
22.791835 83.170315 32.522827
23.197785 80.316281 35.112597
23.939637 80.727608 34.408886
23.345142 81.952129 33.492243
16.053201 107.929955 -16.371119
15.879868 107.900742 -18.029732
21.604109 68.126767 45.253532
21.882115 69.978512 43.924211
24.728396 58.027242 50.875225
24.010694 57.662638 51.460752
24.584454 56.071064 52.079866
25.919407 56.734028 50.760742
26.073564 58.57083 49.533609
25.456313 58.27247 50.267206
32.742987 74.219475 9.52503
32.402174 75.353093 10.56633
32.601123 73.49915 11.313332
33.072783 73.177903 8.529885
32.873833 75.031846 7.782884
32.742987 74.219475 9.52503
33.402796 72.070034 7.658438
33.072783 73.177903 8.529885
27.837623 99.060119 -27.415437
27.085911 99.908299 -28.193648
27.19076 100.348789 -26.47731
28.5316 98.140564 -26.537245
28.426751 97.700074 -28.253583
27.837623 99.060119 -27.415437
21.507421 104.320385 1.015651
21.340613 104.963902 -0.854588
20.592607 104.857636 0.189747
21.567426 103.598808 3.019745
22.315433 103.705074 1.97541
21.507421 104.320385 1.015651
18.581288 94.638123 19.430705
18.609705 95.892612 17.733863
20.8003 92.717064 22.185099
20.108725 93.493248 21.165585
21.479557 91.971374 23.025709
21.625516 93.343032 21.275339
20.8003 92.717064 22.185099
21.313147 90.559151 24.804455
22.138362 91.185119 23.894694
21.479557 91.971374 23.025709
20.205703 106.825424 -7.318479
19.249283 107.090545 -7.95731
19.40105 106.737526 -6.137212
32.942721 64.078539 17.553871
32.774175 63.202561 19.059082
32.335237 89.079003 -19.102514
32.400898 88.817532 -20.771383
31.972357 90.379338 -20.063183
33.401718 84.533207 -16.194662
33.070594 86.073689 -17.226415
32.973575 86.186509 -15.433573
33.707093 83.051132 -15.152558
33.401718 84.533207 -16.194662
33.585644 83.16283 -13.395335
33.707093 83.051132 -15.152558
33.310467 82.66647 -8.139127
33.011558 84.283085 -8.957726
33.213169 82.301514 -6.305327
33.310467 82.66647 -8.139127
31.08409 65.566395 28.555073
31.312295 64.995705 27.364033
31.180687 66.76115 26.973381
17.330156 105.933559 -28.163781
16.37113 106.383132 -26.960477
14.837639 107.293201 -22.902878
14.498926 106.957206 -24.494259
18.420315 107.437161 -21.736438
17.30678 107.446922 -22.321385
17.502943 107.68385 -20.583886
21.929006 76.390346 38.8869
21.300683 77.52824 37.941395
22.545788 75.31897 39.651854
22.709153 77.090656 38.142815
21.929006 76.390346 38.8869
21.589394 55.938211 52.873699
20.718864 55.475935 53.090108
27.761836 58.962013 47.060953
27.360371 60.682589 46.579757
27.252755 58.889623 47.908518
28.069786 57.236065 47.508734
28.177402 59.02903 46.179974
27.761836 58.962013 47.060953
33.591135 75.82156 1.711247
33.359124 77.65485 0.816007
33.229056 77.030853 2.640786
33.816381 74.000904 2.692134
33.591135 75.82156 1.711247
31.626833 59.006281 28.99311
31.726635 60.286661 27.505516
31.53228 60.897419 28.533718
31.803475 55.033929 29.774676
31.683296 53.648392 31.153931
19.865879 104.561954 1.40338
20.592607 104.857636 0.189747
19.69907 105.205471 -0.466859
18.551842 106.571964 -4.971647
17.694502 106.2738 -3.767596
19.508262 106.306843 -4.332816
19.40105 106.737526 -6.137212
18.551842 106.571964 -4.971647
32.628786 62.028391 20.777809
32.774175 63.202561 19.059082
32.498444 64.037752 20.085487
32.47788 60.95308 22.284561
32.628786 62.028391 20.777809
32.342827 59.791672 23.888466
32.47788 60.95308 22.284561
32.218001 61.702175 23.408119
32.186806 58.638091 25.423837
32.342827 59.791672 23.888466
32.803348 86.056858 -11.725789
33.200697 84.597591 -12.559363
32.90735 86.105294 -13.568245
32.702305 85.98468 -9.984322
32.803348 86.056858 -11.725789
32.408958 87.492382 -10.993203
32.617169 85.718609 -8.22514
33.011558 84.283085 -8.957726
32.702305 85.98468 -9.984322
30.569337 69.839466 28.587201
30.389507 71.6768 28.03178
30.308869 70.353623 29.693107
30.720591 67.924065 29.206474
30.801229 69.247242 27.545148
30.569337 69.839466 28.587201
30.865831 66.004223 29.77156
30.720591 67.924065 29.206474
18.498974 105.917732 -27.748535
18.799087 106.383571 -26.118156
31.081097 91.398403 -28.721546
30.641259 92.86335 -28.066844
31.50382 89.836017 -29.438215
31.081097 91.398403 -28.721546
31.560388 90.359016 -27.768524
18.562966 101.311748 8.858541
18.457921 102.133804 7.241456
17.646597 101.662312 8.033453
16.680732 107.838413 -19.352137
15.879868 107.900742 -18.029732
17.794268 107.828652 -18.767189
17.502943 107.68385 -20.583886
16.680732 107.838413 -19.352137
22.138548 71.884594 42.447599
22.365316 73.558106 41.130974
22.708559 70.591469 43.342621
22.138548 71.884594 42.447599
21.882115 69.978512 43.924211
23.243299 57.040608 52.05755
22.432507 56.475251 52.54007
23.38724 58.996786 50.852909
23.243299 57.040608 52.05755
24.010694 57.662638 51.460752
26.693974 58.821293 48.727233
26.23088 60.359735 48.233697
26.073564 58.57083 49.533609
27.252755 58.889623 47.908518
26.693974 58.821293 48.727233
33.555111 72.71943 6.025716
33.68383 73.323075 4.399859
33.332348 74.593918 5.161883
33.555111 72.71943 6.025716
33.402796 72.070034 7.658438
31.427255 56.406328 31.782899
31.523001 57.638329 30.401156
31.506193 54.45743 32.131963
31.427255 56.406328 31.782899
31.683296 53.648392 31.153931
31.506193 54.45743 32.131963
31.599234 91.40804 -22.684388
32.019718 89.913407 -23.502086
31.580934 91.203579 -24.454422
29.686711 69.731198 33.451408
29.774942 71.126411 31.849013
29.467036 71.58852 32.867007
29.593897 68.393047 34.991514
29.686711 69.731198 33.451408
29.5001 66.824886 36.614901
29.593897 68.393047 34.991514
29.285007 68.625145 36.092788
29.403156 65.265898 38.21801
29.5001 66.824886 36.614901
29.286703 63.699463 39.78913
29.403156 65.265898 38.21801
29.074758 65.490549 39.287295
29.191213 62.081162 41.323761
29.286703 63.699463 39.78913
29.068571 60.454584 42.824855
29.191213 62.081162 41.323761
28.835662 62.297537 42.359509
28.980694 58.882957 44.195158
29.068571 60.454584 42.824855
23.581876 104.617001 -25.054767
22.652401 105.071045 -25.571422
22.821786 105.403225 -23.910725
24.322564 103.740482 -25.968082
23.581876 104.617001 -25.054767
24.491949 104.072663 -24.307384
25.014727 102.802723 -26.996109
24.322564 103.740482 -25.968082
25.617933 101.803135 -28.01352
25.014727 102.802723 -26.996109
25.835843 102.196556 -26.23811
26.288671 100.677707 -28.938524
25.617933 101.803135 -28.01352
26.288671 100.677707 -28.938524
27.085911 99.908299 -28.193648
29.013402 96.29163 -29.018327
28.426751 97.700074 -28.253583
29.632791 95.292908 -28.228612
29.013402 96.29163 -29.018327
30.17597 94.311673 -27.420533
29.632791 95.292908 -28.228612
29.663907 95.799283 -26.567312
30.672375 93.369725 -26.405544
30.641259 92.86335 -28.066844
30.17597 94.311673 -27.420533
31.580934 91.203579 -24.454422
31.569542 90.815174 -26.161988
31.149057 92.309807 -25.34429
18.648286 97.075085 16.0001
18.660931 98.228428 14.252274
19.458688 96.571236 16.8946
18.648286 97.075085 16.0001
18.609705 95.892612 17.733863
19.345649 94.143269 20.262403
18.581288 94.638123 19.430705
20.183183 94.738743 19.531546
19.345649 94.143269 20.262403
20.108725 93.493248 21.165585
21.178809 89.118813 26.470306
21.313147 90.559151 24.804455
21.86777 88.238594 27.40894
21.178809 89.118813 26.470306
22.498756 87.195583 28.394605
22.602938 88.729885 26.659106
21.86777 88.238594 27.40894
22.371984 85.75206 29.99707
23.107152 86.243351 29.247236
22.498756 87.195583 28.394605
22.154233 84.266212 31.552313
22.371984 85.75206 29.99707
22.791835 83.170315 32.522827
22.154233 84.266212 31.552313
16.612007 107.81057 -12.838515
16.303681 107.909756 -14.609948
17.705907 107.77071 -12.152019
16.612007 107.81057 -12.838515
18.787483 107.609787 -11.477706
18.554593 107.781895 -13.338784
17.705907 107.77071 -12.152019
18.996367 107.388523 -9.714759
19.249283 107.090545 -7.95731
19.845053 107.399708 -10.901524
18.787483 107.609787 -11.477706
18.996367 107.388523 -9.714759
25.119684 54.565187 52.655437
24.584454 56.071064 52.079866
25.767782 54.795677 52.028458
25.119684 54.565187 52.655437
32.787252 71.606811 11.984179
32.601123 73.49915 11.313332
32.446439 72.740429 13.025479
32.937608 69.707897 12.921062
32.787252 71.606811 11.984179
33.100153 67.688087 13.722746
32.937608 69.707897 12.921062
32.795113 68.828282 14.49801
33.280628 65.787918 14.364025
33.423125 66.667534 12.787078
33.100153 67.688087 13.722746
33.099632 64.876814 16.020338
32.800745 66.010197 16.833227
32.942721 64.078539 17.553871
33.280628 65.787918 14.364025
33.099632 64.876814 16.020338
16.863209 100.996399 9.025493
17.646597 101.662312 8.033453
16.957186 100.103359 10.628514
16.863209 100.996399 9.025493
17.788117 99.771702 11.497123
16.957186 100.103359 10.628514
32.434715 88.610341 -22.437537
32.019718 89.913407 -23.502086
32.434715 88.610341 -22.437537
32.400898 88.817532 -20.771383
32.703115 87.622094 -18.138019
32.335237 89.079003 -19.102514
32.274574 89.183899 -17.42982
32.703115 87.622094 -18.138019
33.070594 86.073689 -17.226415
33.585644 83.16283 -13.395335
33.200697 84.597591 -12.559363
31.42389 62.989374 27.995925
31.520487 64.184129 26.414232
31.312295 64.995705 27.364033
31.53228 60.897419 28.533718
31.42389 62.989374 27.995925
31.08409 65.566395 28.555073
30.865831 66.004223 29.77156
17.330156 105.933559 -28.163781
18.498974 105.917732 -27.748535
21.711388 105.393234 -26.220715
22.652401 105.071045 -25.571422
18.13552 104.479439 1.802312
18.017656 105.107796 0.085716
19.0674 104.181488 2.612704
18.13552 104.479439 1.802312
19.865879 104.561954 1.40338
19.0674 104.181488 2.612704
19.268373 102.618213 6.272589
18.457921 102.133804 7.241456
20.046087 103.039879 5.202483
19.268373 102.618213 6.272589
20.152004 102.204906 6.996438
20.844566 103.420345 3.993159
20.046087 103.039879 5.202483
21.652577 102.805035 4.952919
21.567426 103.598808 3.019745
20.844566 103.420345 3.993159
19.45227 98.791851 13.440469
18.615932 99.266571 12.531904
18.660931 98.228428 14.252274
15.450222 106.722759 -25.766051
14.498926 106.957206 -24.494259
16.691157 106.821994 -25.381222
16.37113 106.383132 -26.960477
15.450222 106.722759 -25.766051
16.079828 107.427616 -22.677815
14.837639 107.293201 -22.902878
16.9972 107.180927 -23.830367
16.079828 107.427616 -22.677815
17.30678 107.446922 -22.321385
19.10513 106.742504 -24.5673
18.799087 106.383571 -26.118156
17.918109 106.8413 -25.024794
20.121692 106.620464 -24.020266
19.10513 106.742504 -24.5673
19.240714 107.078193 -22.926904
21.074794 106.406712 -23.403626
20.939209 106.071022 -25.044021
20.121692 106.620464 -24.020266
17.222537 107.963017 -15.774269
16.053201 107.929955 -16.371119
16.303681 107.909756 -14.609948
21.556921 79.303841 36.389196
21.300683 77.52824 37.941395
22.34783 79.851417 35.786907
21.556921 79.303841 36.389196
22.942326 78.626896 36.703551
23.197785 80.316281 35.112597
22.34783 79.851417 35.786907
23.145463 74.258415 40.386888
22.545788 75.31897 39.651854
22.365316 73.558106 41.130974
20.043194 56.645124 52.325451
20.718864 55.475935 53.090108
20.30249 58.548676 51.30863
20.043194 56.645124 52.325451
21.77673 57.837717 51.783336
21.589394 55.938211 52.873699
22.432507 56.475251 52.54007
20.53483 60.472515 50.190798
20.30249 58.548676 51.30863
21.165958 59.224517 50.999134
20.78462 62.392283 49.060182
20.53483 60.472515 50.190798
21.003301 64.317666 47.834063
20.78462 62.392283 49.060182
21.616979 63.07374 48.655182
21.295876 66.283635 46.558447
21.003301 64.317666 47.834063
22.143892 66.842255 46.124147
21.604109 68.126767 45.253532
21.295876 66.283635 46.558447
28.866859 57.199019 45.578733
28.980694 58.882957 44.195158
28.599186 58.98702 45.244179
25.919407 56.734028 50.760742
25.767782 54.795677 52.028458
28.400063 55.463824 47.916453
28.069786 57.236065 47.508734
28.781381 55.525684 46.886573
28.400063 55.463824 47.916453
28.866859 57.199019 45.578733
28.781381 55.525684 46.886573
33.102054 81.997181 -4.529707
33.213169 82.301514 -6.305327
32.815308 83.712681 -5.422924
33.348866 80.333969 -3.609396
33.102054 81.997181 -4.529707
32.951004 81.745136 -2.726994
33.592338 78.689861 -2.707098
33.348866 80.333969 -3.609396
33.459509 78.26374 -0.960108
33.09743 79.473033 -0.030568
33.359124 77.65485 0.816007
33.592338 78.689861 -2.707098
33.459509 78.26374 -0.960108
33.816381 74.000904 2.692134
33.68383 73.323075 4.399859
32.055926 57.565468 26.900279
32.186806 58.638091 25.423837
31.952067 59.468145 26.488466
31.717357 57.02757 29.372954
31.626833 59.006281 28.99311
31.523001 57.638329 30.401156
31.907306 56.401882 28.366629
31.717357 57.02757 29.372954
31.803475 55.033929 29.774676
32.055926 57.565468 26.900279
31.907306 56.401882 28.366629
3 1 66 64
3 0 69 67
3 0 71 69
3 1 74 72
3 1 64 74
3 273 78 274
3 275 274 76
3 273 274 275
3 276 76 277
3 2 81 79
3 3 84 82
3 3 86 84
3 3 87 86
3 4 90 88
3 4 91 90
3 5 94 92
3 278 97 279
3 280 279 95
3 278 279 280
3 282 281 97
3 7 283 284
3 286 285 99
3 8 102 100
3 10 105 103
3 10 107 105
3 287 110 288
3 289 288 108
3 287 288 289
3 11 113 111
3 11 115 113
3 11 117 115
3 290 120 291
3 292 291 118
3 290 291 292
3 293 122 294
3 295 294 120
3 293 294 295
3 296 123 297
3 8 126 124
3 8 100 126
3 298 129 299
3 12 300 302
3 300 131 301
3 300 301 302
3 12 133 131
3 12 303 305
3 305 304 133
3 303 304 305
3 9 137 135
3 13 140 138
3 13 142 140
3 6 145 143
3 306 148 307
3 308 307 146
3 306 307 308
3 309 150 310
3 311 310 148
3 309 310 311
3 313 312 150
3 14 154 152
3 16 155 65
3 16 156 155
3 17 159 157
3 19 160 68
3 19 161 160
3 19 162 161
3 20 163 70
3 20 164 163
3 21 166 165
3 22 167 73
3 22 314 316
3 316 315 167
3 314 315 316
3 22 317 319
3 317 168 318
3 317 318 319
3 14 169 75
3 14 152 169
3 23 172 170
3 320 173 321
3 322 321 77
3 320 321 322
3 323 174 324
3 325 324 173
3 323 324 325
3 326 176 327
3 328 177 329
3 330 178 331
3 332 331 177
3 330 331 332
3 333 180 334
3 335 334 178
3 333 334 335
3 23 336 338
3 336 182 337
3 336 337 338
3 23 170 182
3 28 185 183
3 30 186 80
3 30 187 186
3 31 190 188
3 33 191 83
3 33 192 191
3 33 193 192
3 340 339 85
3 15 341 343
3 343 342 153
3 341 342 343
3 34 344 346
3 346 345 89
3 344 345 346
3 34 347 348
3 34 349 350
3 35 351 352
3 35 353 354
3 36 196 194
3 38 197 93
3 38 198 197
3 18 199 158
3 39 200 96
3 39 201 200
3 39 202 201
3 40 203 98
3 40 204 203
3 40 355 357
3 357 356 204
3 355 356 357
3 41 358 359
3 42 208 206
3 44 209 101
3 44 210 209
3 24 211 171
3 45 212 104
3 45 213 212
3 45 214 213
3 46 215 106
3 46 216 215
3 47 217 109
3 47 218 217
3 25 219 175
3 48 220 112
3 48 221 220
3 48 222 221
3 49 223 114
3 49 224 223
3 49 225 224
3 50 226 116
3 50 227 226
3 26 228 179
3 51 229 119
3 51 230 229
3 51 231 230
3 52 232 121
3 52 233 232
3 360 234 361
3 53 362 364
3 362 235 363
3 362 363 364
3 53 236 235
3 27 237 181
3 54 238 125
3 54 239 238
3 54 240 239
3 42 241 127
3 42 206 241
3 365 242 366
3 367 243 368
3 369 368 242
3 367 368 369
3 55 244 128
3 55 245 244
3 370 246 371
3 56 247 130
3 56 248 247
3 56 249 248
3 57 250 132
3 57 251 250
3 57 252 251
3 372 253 373
3 374 373 134
3 372 373 374
3 375 254 376
3 377 376 253
3 375 376 377
3 43 255 207
3 58 256 136
3 58 257 256
3 29 258 184
3 59 259 139
3 59 260 259
3 59 261 260
3 60 262 141
3 60 263 262
3 37 264 195
3 61 265 144
3 61 266 265
3 32 267 189
3 62 268 147
3 62 269 268
3 62 270 269
3 63 271 149
3 63 378 380
3 380 379 271
3 378 379 380
3 63 381 382
3 383 272 384
3 385 384 205
3 383 384 385
3 387 386 151
3 64 65 14
3 66 65 64
3 66 16 65
3 67 68 17
3 69 68 67
3 69 19 68
3 69 70 19
3 71 70 69
3 71 20 70
3 72 73 21
3 74 73 72
3 74 22 73
3 74 75 22
3 64 75 74
3 64 14 75
3 76 77 23
3 78 77 76
3 78 388 390
3 390 389 77
3 388 389 390
3 76 391 392
3 76 393 395
3 393 23 394
3 393 394 395
3 79 80 28
3 81 80 79
3 81 30 80
3 82 83 31
3 84 83 82
3 84 33 83
3 84 85 33
3 86 85 84
3 86 396 398
3 398 397 85
3 396 397 398
3 86 399 400
3 87 401 403
3 403 402 86
3 401 402 403
3 87 404 405
3 88 89 15
3 90 89 88
3 90 34 89
3 90 406 408
3 408 407 34
3 406 407 408
3 91 409 411
3 411 410 90
3 409 410 411
3 91 412 414
3 412 35 413
3 412 413 414
3 92 93 36
3 94 93 92
3 94 38 93
3 95 96 18
3 97 96 95
3 97 39 96
3 97 98 39
3 415 98 416
3 417 416 97
3 415 416 417
3 418 40 419
3 420 419 98
3 418 419 420
3 422 421 40
3 424 423 41
3 99 425 426
3 429 428 99
3 427 428 429
3 100 101 42
3 102 101 100
3 102 44 101
3 103 104 24
3 105 104 103
3 105 45 104
3 105 106 45
3 107 106 105
3 107 46 106
3 108 430 432
3 430 109 431
3 430 431 432
3 110 109 108
3 110 47 109
3 111 112 25
3 113 112 111
3 113 48 112
3 113 114 48
3 115 114 113
3 115 49 114
3 115 116 49
3 117 116 115
3 117 50 116
3 118 119 26
3 120 119 118
3 120 51 119
3 120 121 51
3 122 121 120
3 122 52 121
3 123 433 434
3 123 435 437
3 435 53 436
3 435 436 437
3 124 125 27
3 126 125 124
3 126 54 125
3 126 127 54
3 100 127 126
3 100 42 127
3 438 128 439
3 129 440 442
3 440 128 441
3 440 441 442
3 129 55 128
3 443 130 444
3 131 445 447
3 445 130 446
3 445 446 447
3 131 56 130
3 131 132 56
3 133 132 131
3 133 57 132
3 133 134 57
3 448 134 449
3 450 449 133
3 448 449 450
3 452 451 134
3 135 136 43
3 137 136 135
3 137 58 136
3 138 139 29
3 140 139 138
3 140 59 139
3 140 141 59
3 142 141 140
3 142 60 141
3 143 144 37
3 145 144 143
3 145 61 144
3 146 147 32
3 148 147 146
3 148 62 147
3 148 149 62
3 150 149 148
3 150 63 149
3 150 453 455
3 455 454 63
3 453 454 455
3 457 456 150
3 458 151 459
3 460 151 461
3 463 462 151
3 152 464 466
3 464 153 465
3 464 465 466
3 154 153 152
3 154 15 153
3 65 154 14
3 155 154 65
3 155 15 154
3 155 88 15
3 156 88 155
3 156 4 88
3 157 158 5
3 159 158 157
3 159 18 158
3 68 159 17
3 160 159 68
3 160 18 159
3 160 95 18
3 161 95 160
3 161 467 469
3 469 468 95
3 467 468 469
3 161 470 471
3 162 472 474
3 474 473 161
3 472 473 474
3 162 475 476
3 70 162 19
3 163 162 70
3 163 477 479
3 479 478 162
3 477 478 479
3 163 480 481
3 164 482 484
3 484 483 163
3 482 483 484
3 164 485 486
3 165 487 489
3 489 488 7
3 487 488 489
3 166 490 492
3 492 491 165
3 490 491 492
3 166 493 494
3 73 166 21
3 167 166 73
3 167 495 497
3 497 496 166
3 495 496 497
3 167 498 499
3 501 500 167
3 168 502 503
3 168 504 505
3 75 168 22
3 169 168 75
3 169 506 508
3 508 507 168
3 506 507 508
3 169 509 511
3 509 99 510
3 509 510 511
3 152 99 169
3 152 512 514
3 514 513 99
3 512 513 514
3 170 171 8
3 172 171 170
3 172 24 171
3 77 172 23
3 173 172 77
3 173 24 172
3 173 103 24
3 174 103 173
3 174 10 103
3 515 175 516
3 176 517 519
3 517 175 518
3 517 518 519
3 176 25 175
3 520 176 521
3 177 522 524
3 522 176 523
3 522 523 524
3 177 25 176
3 177 111 25
3 178 111 177
3 178 11 111
3 178 179 11
3 180 179 178
3 180 26 179
3 525 180 526
3 527 180 528
3 529 26 530
3 531 530 180
3 529 530 531
3 532 118 533
3 534 533 26
3 532 533 534
3 535 118 536
3 538 537 118
3 539 181 540
3 541 181 542
3 543 27 544
3 545 544 181
3 543 544 545
3 182 546 547
3 182 548 550
3 548 27 549
3 548 549 550
3 182 124 27
3 170 124 182
3 170 8 124
3 551 12 552
3 554 553 12
3 183 184 9
3 185 184 183
3 185 29 184
3 80 185 28
3 186 185 80
3 186 29 185
3 186 138 29
3 187 138 186
3 187 13 138
3 188 189 6
3 190 189 188
3 190 32 189
3 83 190 31
3 191 190 83
3 191 32 190
3 191 146 32
3 192 146 191
3 192 555 557
3 557 556 146
3 555 556 557
3 192 558 559
3 193 560 562
3 562 561 192
3 560 561 562
3 193 563 565
3 563 564 565
3 85 193 33
3 566 193 567
3 568 567 85
3 566 567 568
3 570 569 193
3 571 108 572
3 573 108 574
3 576 575 108
3 153 577 578
3 580 579 153
3 89 581 583
3 583 582 15
3 581 582 583
3 585 584 89
3 587 586 34
3 194 195 2
3 196 195 194
3 196 37 195
3 93 196 36
3 197 196 93
3 197 37 196
3 197 143 37
3 198 143 197
3 198 6 143
3 158 94 5
3 199 94 158
3 199 38 94
3 96 199 18
3 200 199 96
3 200 38 199
3 200 198 38
3 201 198 200
3 201 6 198
3 201 188 6
3 202 188 201
3 202 31 188
3 98 202 39
3 203 202 98
3 203 31 202
3 203 82 31
3 204 82 203
3 204 3 82
3 204 205 3
3 588 205 589
3 590 589 204
3 588 589 590
3 592 591 205
3 594 593 40
3 596 595 41
3 598 597 7
3 206 207 1
3 208 207 206
3 208 43 207
3 101 208 42
3 209 208 101
3 209 43 208
3 209 135 43
3 210 135 209
3 210 9 135
3 171 102 8
3 211 102 171
3 211 44 102
3 104 211 24
3 212 211 104
3 212 44 211
3 212 210 44
3 213 210 212
3 213 9 210
3 213 183 9
3 214 183 213
3 214 28 183
3 106 214 45
3 215 214 106
3 215 28 214
3 215 79 28
3 216 79 215
3 216 2 79
3 599 78 600
3 601 78 602
3 604 603 78
3 109 605 606
3 217 607 609
3 609 608 109
3 607 608 609
3 217 610 611
3 217 612 614
3 612 174 613
3 612 613 614
3 218 174 217
3 218 10 174
3 175 615 617
3 615 110 616
3 615 616 617
3 219 110 175
3 219 47 110
3 112 219 25
3 220 219 112
3 220 47 219
3 220 218 47
3 221 218 220
3 221 10 218
3 221 107 10
3 222 107 221
3 222 46 107
3 114 222 48
3 223 222 114
3 223 46 222
3 223 216 46
3 224 216 223
3 224 2 216
3 224 194 2
3 225 194 224
3 225 36 194
3 116 225 49
3 226 225 116
3 226 36 225
3 226 92 36
3 227 92 226
3 227 5 92
3 179 117 11
3 228 117 179
3 228 50 117
3 119 228 26
3 229 228 119
3 229 50 228
3 229 227 50
3 230 227 229
3 230 5 227
3 230 157 5
3 231 157 230
3 231 17 157
3 121 231 51
3 232 231 121
3 232 17 231
3 232 67 17
3 233 67 232
3 233 0 67
3 234 618 619
3 234 620 622
3 620 41 621
3 620 621 622
3 623 234 624
3 235 625 627
3 625 234 626
3 625 626 627
3 235 41 234
3 235 628 630
3 630 629 41
3 628 629 630
3 236 631 633
3 633 632 235
3 631 632 633
3 236 634 636
3 634 7 635
3 634 635 636
3 181 637 639
3 637 123 638
3 637 638 639
3 237 123 181
3 237 53 123
3 125 237 27
3 238 237 125
3 238 53 237
3 238 236 53
3 239 236 238
3 239 7 236
3 239 165 7
3 240 165 239
3 240 21 165
3 127 240 54
3 241 240 127
3 241 21 240
3 241 72 21
3 206 72 241
3 206 1 72
3 242 640 641
3 242 642 643
3 242 644 646
3 644 122 645
3 644 645 646
3 243 122 242
3 243 52 122
3 128 647 649
3 647 243 648
3 647 648 649
3 244 243 128
3 244 52 243
3 244 233 52
3 245 233 244
3 245 0 233
3 246 650 651
3 246 652 653
3 130 654 656
3 654 246 655
3 654 655 656
3 247 246 130
3 247 657 659
3 659 658 246
3 657 658 659
3 247 660 661
3 248 662 664
3 664 663 247
3 662 663 664
3 248 665 666
3 248 667 669
3 667 129 668
3 667 668 669
3 249 129 248
3 249 55 129
3 132 249 56
3 250 249 132
3 250 55 249
3 250 245 55
3 251 245 250
3 251 0 245
3 251 71 0
3 252 71 251
3 252 20 71
3 134 252 57
3 253 252 134
3 253 20 252
3 253 164 20
3 254 164 253
3 254 670 672
3 672 671 164
3 670 671 672
3 674 673 12
3 675 254 676
3 677 254 678
3 680 679 254
3 207 66 1
3 255 66 207
3 255 16 66
3 136 255 43
3 256 255 136
3 256 16 255
3 256 156 16
3 257 156 256
3 257 4 156
3 184 137 9
3 258 137 184
3 258 58 137
3 139 258 29
3 259 258 139
3 259 58 258
3 259 257 58
3 260 257 259
3 260 4 257
3 260 91 4
3 261 91 260
3 261 35 91
3 141 261 59
3 262 261 141
3 262 35 261
3 262 681 683
3 683 682 35
3 681 682 683
3 263 684 686
3 686 685 262
3 684 685 686
3 263 687 688
3 195 81 2
3 264 81 195
3 264 30 81
3 144 264 37
3 265 264 144
3 265 30 264
3 265 187 30
3 266 187 265
3 266 13 187
3 189 145 6
3 267 145 189
3 267 61 145
3 147 267 32
3 268 267 147
3 268 61 267
3 268 266 61
3 269 266 268
3 269 13 266
3 269 142 13
3 270 142 269
3 270 60 142
3 149 270 62
3 271 270 149
3 271 60 270
3 271 263 60
3 689 263 690
3 691 690 271
3 689 690 691
3 693 692 263
3 695 694 63
3 205 87 3
3 272 87 205
3 272 696 698
3 698 697 87
3 696 697 698
3 151 699 701
3 699 272 700
3 699 700 701
3 702 272 703
3 704 703 151
3 702 703 704
3 706 705 272
