ply
format ascii 1.0
element vertex 822
property float x
property float y
property float z
element face 859
property list uchar int vertex_index
end_header
-10.263027 -107.35881 -15.650969
-24.32995 -80.31768 -18.25366
-20.932058 -56.087105 -20.02438
-23.207834 -101.476479 -17.823416
-25.446321 -91.892769 -17.981405
-22.330656 -85.880119 -26.576414
-22.169987 -68.085388 -18.941614
-21.292746 -73.068146 -25.844028
-19.339605 -60.029488 -25.888914
-17.109613 -106.913513 -17.189896
-25.992374 -83.917152 -9.012271
-25.192341 -75.358421 -1.152298
-23.870268 -72.708977 -10.730302
-22.699158 -61.727272 -12.687838
-25.176865 -86.271843 -18.106136
-24.141607 -89.275818 -22.61582
-23.82979 -83.534416 -22.335939
-21.375542 -61.962879 -19.396452
-20.936401 -64.533592 -22.559935
-20.159922 -58.415081 -22.91493
-26.515232 -89.342056 -8.195225
-26.311277 -84.88755 -3.782234
-24.487024 -69.954086 -2.694212
-24.592297 -74.389427 -6.073152
-23.782494 -68.946075 -7.45398
-23.078833 -67.331856 -11.78156
-23.444208 -63.552124 -8.600219
-20.702953 -104.746986 -17.388226
-16.596136 -105.98851 -22.054403
-19.825632 -103.442924 -22.569304
-19.138731 -68.089226 -29.188356
-19.747822 -52.296391 -23.178526
-24.838165 -97.100708 -17.857126
-22.205433 -99.632301 -22.936457
-23.707245 -94.78701 -22.778194
-23.232056 -74.142517 -18.566143
-23.046818 -77.229408 -22.101564
-21.951559 -70.732216 -22.265678
-20.253742 -66.519852 -25.957144
-18.286215 -61.740097 -29.058355
-18.598183 -53.901291 -26.079086
-17.352793 -55.226883 -29.075733
-13.454274 -107.674767 -16.489532
-23.406897 -102.267464 -12.568782
-25.281885 -98.339928 -12.762202
-26.145264 -93.579086 -13.019058
-26.093977 -88.192825 -13.324671
-25.363787 -82.431328 -13.572407
-25.893723 -80.360764 0.30563
-25.549301 -79.568329 -4.850148
-25.000511 -78.416756 -9.654777
-24.214176 -76.49144 -14.266642
-23.119125 -70.80928 -15.004985
-22.285465 -64.97332 -15.843429
-21.892677 -59.336086 -16.494352
-23.670292 -57.985943 -9.612365
-22.838207 -56.072952 -13.600096
-21.979851 -53.476734 -17.184826
1.010076 -100.666069 -13.64746
-4.006949 -103.959503 -13.26213
-13.02667 -107.273857 -20.950775
-18.510265 -100.780144 -27.213907
-8.635518 -106.941956 -16.234592
-24.837357 -83.384766 -18.031031
-24.566746 -85.053787 -20.252939
-24.198256 -82.11042 -20.234846
-21.092827 -59.05191 -19.761852
-20.795156 -60.270473 -21.236414
-20.501822 -57.097664 -21.521257
-26.328568 -85.149673 -0.920218
-24.296713 -67.488289 -3.344265
-24.138882 -69.514717 -5.066866
-23.935095 -66.999146 -5.662582
-23.577492 -66.412888 -7.906157
-23.806934 -64.341751 -6.466584
-21.96063 -103.332985 -17.794542
-20.344931 -104.257027 -20.039188
-21.740046 -102.567055 -20.231028
-20.511677 -45.737732 -22.247477
-25.24539 -94.654396 -17.967482
-24.386406 -96.077057 -20.284225
-24.754404 -93.453377 -20.314045
-23.342838 -87.743927 -24.567961
-23.253902 -90.717056 -24.741653
-22.684166 -71.182388 -18.758066
-22.649403 -72.645981 -20.449459
-22.091337 -69.569618 -20.64978
-20.214725 -62.512146 -24.223236
-20.628351 -65.617775 -24.289478
-19.79497 -63.290821 -25.875294
-19.333326 -64.218704 -27.509958
-18.892067 -60.979908 -27.40773
-15.901281 -49.258873 -30.47345
-16.954227 -51.942314 -29.091892
-16.19173 -52.327755 -30.584137
-22.033255 -103.89473 -12.468111
-23.139887 -102.391327 -9.823745
-26.073423 -94.594521 -4.773139
-25.782484 -96.629456 -7.243268
-25.283627 -98.558075 -9.878201
-25.910517 -96.400795 -9.920916
-25.836975 -96.103638 -12.803288
-26.266056 -94.171951 -10.43273
-26.332541 -86.654312 -8.622035
-26.367804 -88.754585 -10.651019
-26.109426 -86.060326 -11.094816
-25.792459 -85.257462 -13.395009
-25.714382 -83.263329 -11.414463
-25.450516 -75.598412 1.534515
-25.770113 -78.302391 2.400026
-25.568666 -77.806114 -0.273203
-25.732471 -79.858711 -2.213901
-25.322384 -77.371239 -3.022276
-24.239746 -73.642303 -8.473173
-24.76532 -76.331856 -7.773578
-24.415907 -75.595238 -10.211693
-24.631433 -77.535522 -12.009802
-24.065586 -74.771439 -12.405001
-23.649986 -73.6716 -14.59889
-23.532423 -71.921684 -12.836292
-22.822708 -64.422173 -12.235765
-22.691534 -66.137459 -13.808308
-22.433428 -63.505466 -14.32327
-22.039745 -62.131725 -16.149273
-22.328644 -60.56076 -14.536522
-24.026789 -59.032734 -7.543146
-23.951084 -51.570629 -12.511551
-23.522429 -54.54644 -12.05981
-23.119833 -53.235298 -13.983613
-22.400948 -54.785858 -15.517162
-22.695301 -51.916668 -15.764826
-6.364041 -105.037994 -12.671062
-15.264047 -107.450958 -16.779325
-13.257844 -107.615868 -18.689604
-15.225049 -107.237526 -19.235786
-16.029848 -105.122429 -24.420544
-14.173397 -106.05304 -24.002806
-21.463282 -98.405922 -25.190308
-20.501587 -100.424187 -25.090054
-19.678596 -98.833504 -27.3337
-22.195551 -75.246323 -24.108192
-22.640213 -78.529495 -24.180038
-18.659367 -75.442909 -31.385361
-25.406637 -89.019211 -18.003334
-24.833719 -90.865303 -20.48102
-24.834568 -88.050659 -20.213568
-24.121258 -86.473518 -22.297178
-23.213634 -84.68856 -24.45204
-21.700796 -64.867653 -19.228844
-21.59745 -66.37587 -20.738224
-21.142439 -63.226299 -21.011946
-20.497204 -61.430786 -22.777954
-19.764133 -59.137276 -24.360815
-26.434809 -92.16671 -5.064223
-26.49749 -91.91468 -7.966772
-26.464832 -87.134331 -5.987218
-26.203117 -84.477562 -6.358748
-24.816957 -72.566353 -1.762675
-24.862209 -74.608162 -3.615596
-24.468746 -72.072403 -4.304205
-24.139326 -71.624504 -6.735959
-23.794262 -70.915451 -9.043651
-23.428505 -70.06797 -11.348263
-23.430239 -68.190453 -9.697712
-23.205666 -65.520027 -10.109234
-23.092535 -62.756138 -10.582023
-18.988314 -106.001976 -17.321175
-17.102037 -106.518867 -19.665842
-18.874922 -105.499969 -19.830399
-18.351736 -104.849388 -22.32411
-17.612696 -103.882027 -24.82375
-20.268089 -70.715614 -27.561176
-19.484419 -71.43634 -29.370575
-18.502384 -72.161011 -31.147856
-20.866425 -53.096149 -20.329636
-20.354792 -54.16256 -21.690708
-19.693048 -49.357285 -23.337734
-24.133324 -99.363113 -17.976439
-22.857725 -100.606766 -20.396229
-23.704838 -98.489029 -20.431623
-23.138802 -97.303093 -22.779274
-22.360041 -95.973877 -25.050158
-24.022621 -92.162811 -22.749489
-22.842783 -93.274574 -25.117609
-23.827375 -77.283424 -18.270624
-23.73399 -78.90789 -20.196341
-23.218193 -75.858429 -20.334932
-22.515635 -74.020004 -22.199894
-21.72337 -72.083908 -24.040312
-21.391882 -67.499069 -22.425068
-21.193932 -68.856728 -24.072691
-20.784771 -69.742653 -25.860188
-19.797867 -67.414299 -27.545923
-18.722483 -64.865105 -29.108154
-17.431574 -61.931854 -30.771881
-19.421455 -56.128521 -24.508331
-18.932062 -57.064636 -26.018909
-17.667038 -51.552795 -27.634098
-17.988943 -54.584671 -27.579657
-18.369772 -57.557789 -27.531097
-17.802464 -58.348122 -29.027931
-11.415367 -107.23304 -14.056744
-11.701962 -107.611481 -15.990908
-13.240942 -107.420364 -14.217925
-17.056746 -106.950256 -14.702065
-22.206108 -103.640999 -14.986362
-23.411814 -101.959618 -15.255113
-24.48173 -100.418381 -12.493823
-24.356287 -100.080582 -15.445896
-25.13685 -97.801888 -15.437806
-25.64443 -95.318062 -15.43365
-25.88608 -92.8312 -15.431875
-26.426691 -91.553085 -10.562295
-26.249178 -90.835045 -12.924991
-25.880623 -90.142563 -15.662678
-25.710537 -87.208504 -15.62088
-25.365685 -84.418739 -15.773758
-24.884287 -81.407349 -15.948027
-26.099752 -82.632095 -1.588946
-25.976442 -82.171967 -4.192528
-25.793734 -81.765213 -6.845749
-25.059214 -76.830276 -5.328341
-25.280678 -78.955391 -7.317334
-25.541285 -81.183708 -9.282136
-25.194628 -80.310394 -11.639202
-24.803654 -79.486656 -14.014885
-24.347689 -78.451736 -16.166685
-23.780981 -75.57399 -16.521687
-23.202305 -72.527519 -16.7246
-22.658278 -69.503654 -17.080233
-23.051373 -68.907555 -13.306332
-22.676756 -67.90094 -15.279881
-22.225624 -66.538513 -17.297411
-21.855688 -63.481056 -17.633389
-21.595858 -60.539894 -17.954439
-21.419855 -57.695156 -18.363031
-23.835375 -61.779442 -7.047138
-23.485958 -60.790829 -9.09926
-23.110704 -60.008041 -11.083742
-23.946665 -55.32275 -10.169738
-23.243053 -57.167393 -11.667758
-22.7197 -58.876858 -13.076913
-22.301714 -57.635509 -15.040148
-21.869284 -56.443481 -16.841021
-21.40106 -54.922878 -18.591015
-21.501579 -52.068554 -18.831944
-9.515414 -106.814301 -14.224338
-0.219313 -102.160339 -15.879264
-1.577128 -102.527824 -13.608433
-2.615663 -103.763756 -15.685635
-5.199602 -105.168625 -15.191465
-7.478367 -106.143761 -14.640574
-11.54293 -107.660278 -18.011049
-11.19253 -107.419182 -20.299614
-14.798903 -106.793159 -21.595253
-21.190586 -101.658089 -22.716059
-19.275381 -102.24601 -24.923588
-17.04343 -102.426788 -27.111557
-17.428446 -99.120293 -29.425869
-16.050364 -100.797462 -29.362593
-23.453037 -80.346657 -22.257368
-22.933664 -81.659401 -24.430567
-10.083424 -107.390488 -16.51296
-9.269669 -107.182061 -16.804772
-9.449272 -107.150383 -15.94278
-26.307194 -85.369198 0.38656
-26.368152 -86.514977 -0.714039
-24.241501 -66.220276 -3.76276
-24.438524 -66.450271 -2.565385
-24.060692 -65.975705 -4.921919
-24.115904 -67.243718 -4.503424
-24.241501 -66.220276 -3.76276
-23.996612 -64.647007 -5.32392
-23.871015 -65.670448 -6.064583
-24.060692 -65.975705 -4.921919
-20.963181 -45.173832 -21.590929
-20.840724 -46.522299 -21.466237
-22.319631 -87.366485 -26.633371
-22.825722 -88.298389 -25.629145
-22.836747 -86.812023 -25.572187
-21.748575 -86.285202 -27.590126
-22.319631 -87.366485 -26.633371
-15.585566 -50.755896 -31.294864
-16.046506 -50.793314 -30.528793
-15.440342 -49.221455 -31.239521
-15.777204 -52.395384 -31.321254
-15.585566 -50.755896 -31.294864
-22.914475 -102.306907 -8.422902
-22.412683 -103.097515 -9.717229
-26.023133 -95.479363 -7.39511
-25.927954 -95.611988 -6.008203
-26.168602 -94.461895 -6.160045
-26.087149 -95.365032 -8.733934
-25.8465 -96.515126 -8.582092
-26.023133 -95.479363 -7.39511
-26.264919 -94.25061 -8.989841
-26.088286 -95.286373 -10.176823
-26.087149 -95.365032 -8.733934
-25.321428 -75.478417 0.191109
-25.283933 -74.30936 1.040268
-25.154846 -74.189365 -0.303139
-23.349832 -51.752182 -14.115247
-23.535459 -52.402963 -13.247582
-23.765457 -50.919848 -13.379217
-23.137566 -51.092867 -15.005854
-22.907567 -52.575983 -14.874219
-23.349832 -51.752182 -14.115247
-22.875059 -50.601872 -15.888243
-23.137566 -51.092867 -15.005854
-14.778846 -105.063698 -25.358389
-15.636335 -104.489635 -25.661262
-20.166328 -97.770214 -27.313182
-20.570939 -98.619713 -26.262004
-21.058671 -97.556423 -26.241486
-21.506596 -74.807175 -25.926575
-21.957998 -75.896264 -25.058656
-21.744149 -74.157235 -24.97611
-18.623363 -77.005005 -31.579093
-17.956116 -75.508415 -32.276194
-26.448117 -91.12754 -3.859095
-26.327656 -92.324433 -3.672309
-26.493226 -90.924084 -5.24189
-26.448117 -91.12754 -3.859095
-26.388055 -86.010941 -4.884726
-26.472449 -87.240063 -4.56403
-26.395671 -86.116672 -3.461538
-24.671923 -70.183975 -1.42358
-24.57251 -69.025181 -1.868156
-24.651991 -71.26022 -2.228444
-24.836889 -71.490109 -0.957812
-24.671923 -70.183975 -1.42358
-17.813707 -70.539608 -31.881276
-18.397025 -70.477024 -31.006208
-17.870107 -72.241928 -32.021016
-17.813707 -70.539608 -31.881276
-20.58372 -52.153247 -21.1107
-20.911948 -51.63496 -20.424738
-19.709926 -47.858557 -23.43999
-20.041954 -48.874487 -22.676595
-19.316682 -48.266106 -24.116781
-19.709926 -47.858557 -23.43999
-22.376686 -92.411652 -26.106192
-23.048343 -91.995815 -24.929631
-22.582245 -91.132892 -25.918214
-22.101202 -93.761685 -26.20197
-22.376686 -92.411652 -26.106192
-19.801792 -53.742939 -23.168605
-20.105277 -54.676023 -22.424696
-20.051307 -53.229475 -22.434617
-19.009819 -55.014906 -25.293709
-19.274158 -54.517037 -24.603902
-18.862522 -53.403422 -25.38928
-17.185196 -50.189167 -28.321396
-17.554846 -49.929743 -27.636755
-12.987483 -107.115307 -13.091191
-12.328155 -107.326702 -14.137334
-12.074696 -107.021645 -13.0106
-16.928692 -106.814449 -13.477952
-16.098864 -107.139461 -14.522845
-25.945615 -80.584721 1.665619
-25.88381 -79.555534 2.712817
-25.831918 -79.331578 1.352828
-26.02221 -81.654435 0.787288
-25.945615 -80.584721 1.665619
-25.996738 -81.49643 -0.641658
-26.125224 -82.7901 -0.16
-26.02221 -81.654435 0.787288
-24.133421 -60.728459 -6.195507
-24.030209 -62.026722 -5.963044
-24.193872 -53.898842 -10.321463
-24.394019 -54.382452 -9.309418
-12.074696 -107.021645 -13.0106
-11.051096 -106.868435 -13.107518
1.600125 -100.503578 -14.863877
2.272321 -99.698666 -13.850115
0.395381 -101.413204 -14.763362
0.98543 -101.250713 -15.979779
1.600125 -100.503578 -14.863877
-2.792038 -103.243663 -13.435282
-2.154907 -102.51041 -12.432623
-3.369817 -103.226249 -12.259472
-8.029858 -106.036873 -13.536024
-6.921204 -105.590878 -13.655818
-7.472696 -105.48399 -12.551268
-9.048382 -106.372143 -13.327906
-8.49689 -106.479031 -14.432456
-8.029858 -106.036873 -13.536024
-11.746871 -107.075752 -21.804054
-10.829801 -107.148415 -21.478473
-12.1096 -107.346519 -20.625194
-13.28805 -106.355202 -23.660474
-12.96104 -105.882942 -24.848337
-16.828084 -98.078427 -30.469684
-17.997293 -98.044663 -29.482228
-14.760964 -100.719005 -30.204739
-15.479778 -99.824905 -30.405774
-15.235313 -101.572235 -29.222701
-14.760964 -100.719005 -30.204739
-22.462219 -80.691819 -25.355632
-22.786938 -80.094448 -24.305302
-22.315493 -79.126866 -25.230367
-22.563021 -82.267383 -25.454837
-22.462219 -80.691819 -25.355632
-8.287425 -106.908116 -17.277774
-7.561144 -106.551499 -16.604144
-8.287425 -106.908116 -17.277774
-9.269669 -107.182061 -16.804772
-26.404317 -86.247734 -2.03053
-26.368152 -86.514977 -0.714039
-26.319923 -85.018612 -2.351226
-26.395671 -86.116672 -3.461538
-26.404317 -86.247734 -2.03053
-24.477355 -67.792282 -2.193182
-24.438524 -66.450271 -2.565385
-24.391869 -68.721187 -3.019239
-24.57251 -69.025181 -1.868156
-24.477355 -67.792282 -2.193182
-18.715198 -68.441131 -30.026457
-18.501516 -66.685779 -30.003436
-20.451268 -47.064711 -22.131466
-20.840724 -46.522299 -21.466237
-20.11924 -46.04878 -22.894861
-20.451268 -47.064711 -22.131466
-22.781253 -89.784954 -25.715991
-23.29837 -89.230491 -24.654807
-22.825722 -88.298389 -25.629145
-22.582245 -91.132892 -25.918214
-22.781253 -89.784954 -25.715991
-19.076367 -51.528267 -24.705751
-19.437342 -52.600971 -23.939
-19.386848 -51.223686 -23.945278
-18.444711 -52.302101 -26.17087
-18.862522 -53.403422 -25.38928
-16.427754 -50.600594 -29.782671
-16.828791 -50.383927 -29.050293
-16.302318 -49.042206 -29.741072
-16.393662 -53.886942 -30.594249
-16.974193 -55.336506 -29.840047
-16.772261 -53.777319 -29.829935
-16.393662 -53.886942 -30.594249
-15.777204 -52.395384 -31.321254
-21.859367 -103.849216 -11.039411
-21.291791 -104.481735 -12.296365
-22.586571 -103.143028 -11.145928
-21.859367 -103.849216 -11.039411
-22.412683 -103.097515 -9.717229
-25.772444 -95.717629 -4.755166
-25.922431 -94.580632 -3.391264
-25.626974 -96.735096 -5.990231
-25.772444 -95.717629 -4.755166
-25.927954 -95.611988 -6.008203
-25.413526 -97.677731 -7.213819
-25.626974 -96.735096 -5.990231
-25.533055 -97.593766 -8.560735
-25.164098 -98.642041 -8.531285
-25.413526 -97.677731 -7.213819
-25.437846 -74.534409 2.37781
-25.271262 -73.245357 1.883563
-25.283933 -74.30936 1.040268
-25.563075 -75.758659 2.843614
-25.437846 -74.534409 2.37781
-25.610315 -76.950401 1.967271
-25.722873 -77.110649 3.276369
-25.563075 -75.758659 2.843614
-24.388146 -57.996491 -6.749154
-24.229128 -59.355104 -6.443511
-24.216239 -57.567085 -7.754056
-24.388146 -57.996491 -6.749154
-24.03799 -57.04369 -8.788666
-23.84854 -58.509338 -8.577756
-24.216239 -57.567085 -7.754056
-23.736756 -53.058534 -12.285681
-23.981755 -53.510687 -11.266499
-24.196082 -52.022781 -11.49237
-22.451607 -51.267563 -16.628715
-22.093882 -52.047596 -17.338715
-22.337576 -52.696701 -16.474826
-22.451607 -51.267563 -16.628715
-22.875059 -50.601872 -15.888243
1.628628 -99.835217 -12.545015
2.272321 -99.698666 -13.850115
-4.565898 -103.8227 -11.992809
-3.369817 -103.226249 -12.259472
-5.744444 -104.361946 -11.697275
-5.185495 -104.498749 -12.966596
-4.565898 -103.8227 -11.992809
-6.953348 -104.897362 -11.555351
-5.744444 -104.361946 -11.697275
-7.472696 -105.48399 -12.551268
-6.953348 -104.897362 -11.555351
-13.85062 -105.529003 -25.14952
-15.101623 -105.587734 -24.211675
-14.778846 -105.063698 -25.358389
-12.96104 -105.882942 -24.848337
-13.85062 -105.529003 -25.14952
-22.180329 -77.537849 -25.09458
-22.417882 -76.887909 -24.144115
-21.957998 -75.896264 -25.058656
-22.315493 -79.126866 -25.230367
-22.180329 -77.537849 -25.09458
-19.276643 -76.732204 -30.640425
-19.20084 -75.049717 -30.491349
-19.276643 -76.732204 -30.640425
-18.623363 -77.005005 -31.579093
-15.762382 -47.679596 -30.460225
-16.302318 -49.042206 -29.741072
-15.285089 -47.683481 -31.213963
-15.762382 -47.679596 -30.460225
-15.440342 -49.221455 -31.239521
-15.285089 -47.683481 -31.213963
-26.146963 -93.538338 -3.526767
-25.922431 -94.580632 -3.391264
-26.254116 -93.380616 -4.918681
-26.146963 -93.538338 -3.526767
-26.327656 -92.324433 -3.672309
-26.349295 -93.247989 -6.305587
-26.168602 -94.461895 -6.160045
-26.254116 -93.380616 -4.918681
-26.46615 -92.040695 -6.515498
-26.380636 -93.121974 -7.756862
-26.349295 -93.247989 -6.305587
-26.524566 -90.798069 -6.693164
-26.46615 -92.040695 -6.515498
-26.493226 -90.924084 -5.24189
-26.533437 -89.511757 -6.807391
-26.506361 -90.628368 -8.080998
-26.524566 -90.798069 -6.693164
-26.508237 -88.407894 -5.703387
-26.472449 -87.240063 -4.56403
-26.490032 -88.238193 -7.091222
-26.533437 -89.511757 -6.807391
-26.508237 -88.407894 -5.703387
-24.967153 -72.793331 -0.608328
-24.836889 -71.490109 -0.957812
-25.004649 -73.962387 -1.457486
-25.154846 -74.189365 -0.303139
-24.967153 -72.793331 -0.608328
-24.460145 -50.597095 -11.737341
-24.196082 -52.022781 -11.49237
-24.268517 -50.043392 -12.61714
-24.460145 -50.597095 -11.737341
-23.765457 -50.919848 -13.379217
-24.268517 -50.043392 -12.61714
-16.427759 -103.869434 -25.862865
-15.636335 -104.489635 -25.661262
-16.821272 -104.502228 -24.622147
-20.467979 -72.356667 -27.617506
-20.980308 -73.532933 -26.758932
-20.780417 -71.89188 -26.702602
-20.076144 -72.717029 -28.522205
-20.467979 -72.356667 -27.617506
-19.876254 -71.075977 -28.465875
-19.613366 -73.046433 -29.483956
-20.076144 -72.717029 -28.522205
-18.888042 -70.114688 -30.117567
-19.311575 -69.762783 -29.279466
-18.715198 -68.441131 -30.026457
-18.993401 -71.798676 -30.259215
-18.888042 -70.114688 -30.117567
-18.397025 -70.477024 -31.006208
-19.122349 -73.408768 -30.372597
-19.613366 -73.046433 -29.483956
-18.993401 -71.798676 -30.259215
-18.580875 -73.80196 -31.266609
-19.20084 -75.049717 -30.491349
-19.122349 -73.408768 -30.372597
-17.948599 -73.882877 -32.139769
-18.580875 -73.80196 -31.266609
-17.870107 -72.241928 -32.021016
-17.956116 -75.508415 -32.276194
-17.948599 -73.882877 -32.139769
-20.327903 -52.686453 -21.791236
-20.610608 -53.629354 -21.010172
-20.58372 -52.153247 -21.1107
-20.024418 -51.753369 -22.535145
-20.051307 -53.229475 -22.434617
-20.327903 -52.686453 -21.791236
-19.997031 -50.283816 -22.614749
-20.041954 -48.874487 -22.676595
-19.720435 -50.826838 -23.25813
-20.024418 -51.753369 -22.535145
-19.997031 -50.283816 -22.614749
-19.359461 -49.754133 -24.024881
-19.386848 -51.223686 -23.945278
-19.720435 -50.826838 -23.25813
-19.359461 -49.754133 -24.024881
-19.316682 -48.266106 -24.116781
-20.669371 -44.412478 -22.270297
-20.963181 -45.173832 -21.590929
-20.216689 -44.71207 -22.928211
-20.669371 -44.412478 -22.270297
-20.11924 -46.04878 -22.894861
-20.216689 -44.71207 -22.928211
-21.50705 -96.340401 -26.171411
-21.058671 -97.556423 -26.241486
-21.911662 -97.189899 -25.120233
-21.859831 -95.111336 -26.168245
-22.601412 -94.624225 -25.083883
-22.101202 -93.761685 -26.20197
-21.50705 -96.340401 -26.171411
-21.859831 -95.111336 -26.168245
-18.293391 -65.073719 -29.963335
-18.501516 -66.685779 -30.003436
-18.930607 -66.477165 -29.148255
-17.647937 -63.607093 -30.795198
-18.293391 -65.073719 -29.963335
-18.077029 -63.39848 -29.940017
-17.003342 -62.189373 -31.532725
-17.647937 -63.607093 -30.795198
-20.178792 -56.143575 -22.33997
-20.428307 -55.630112 -21.605982
-20.105277 -54.676023 -22.424696
-20.007842 -56.802284 -23.036807
-20.330872 -57.756372 -22.218093
-20.178792 -56.143575 -22.33997
-19.801792 -53.742939 -23.168605
-19.437342 -52.600971 -23.939
-19.638608 -55.659004 -23.833507
-19.274158 -54.517037 -24.603902
-19.790689 -57.271801 -23.71163
-20.007842 -56.802284 -23.036807
-19.638608 -55.659004 -23.833507
-17.979139 -51.127853 -26.948376
-17.554846 -49.929743 -27.636755
-18.13261 -52.727043 -26.856592
-18.444711 -52.302101 -26.17087
-17.979139 -51.127853 -26.948376
-17.310633 -51.747555 -28.362995
-17.185196 -50.189167 -28.321396
-16.828791 -50.383927 -29.050293
-17.199029 -56.897126 -29.816146
-17.577628 -56.787503 -29.051832
-16.974193 -55.336506 -29.840047
-17.451245 -58.572178 -29.791059
-17.199029 -56.897126 -29.816146
-17.69312 -60.268165 -29.806272
-18.044339 -60.044109 -29.043143
-17.451245 -58.572178 -29.791059
-17.265799 -60.364044 -30.663035
-17.858894 -61.835976 -29.915118
-17.69312 -60.268165 -29.806272
-16.775333 -60.426485 -31.520229
-17.265799 -60.364044 -30.663035
-17.003342 -62.189373 -31.532725
-16.775333 -60.426485 -31.520229
-14.041625 -107.144798 -13.091269
-12.987483 -107.115307 -13.091191
-14.190962 -107.374516 -14.280775
-14.041625 -107.144798 -13.091269
-14.297628 -107.501717 -15.416578
-13.347608 -107.547566 -15.353728
-14.190962 -107.374516 -14.280775
-15.202514 -107.389813 -15.561475
-14.35916 -107.562862 -16.634428
-14.297628 -107.501717 -15.416578
-16.160397 -107.200607 -15.740695
-15.202514 -107.389813 -15.561475
-16.098864 -107.139461 -14.522845
-17.873347 -106.521694 -13.517333
-16.928692 -106.814449 -13.477952
-17.992467 -106.575008 -14.760181
-17.873347 -106.521694 -13.517333
-18.018901 -106.556636 -16.004097
-17.083179 -106.931884 -15.945981
-17.992467 -106.575008 -14.760181
-18.958251 -106.100868 -16.069737
-18.048963 -106.457744 -17.255536
-18.018901 -106.556636 -16.004097
-19.817095 -105.559437 -16.077879
-18.958251 -106.100868 -16.069737
-20.674415 -104.931942 -16.111404
-19.845633 -105.374481 -17.3547
-19.817095 -105.559437 -16.077879
-21.339565 -104.505814 -13.651346
-21.291791 -104.481735 -12.296365
-21.425992 -104.378949 -14.910472
-21.339565 -104.505814 -13.651346
-22.119681 -103.767865 -13.727237
-21.454531 -104.193993 -16.187294
-20.674415 -104.931942 -16.111404
-21.425992 -104.378949 -14.910472
-23.576992 -101.494446 -8.4508
-22.914475 -102.306907 -8.422902
-23.745477 -101.500504 -9.83091
-23.576992 -101.494446 -8.4508
-23.878982 -101.438572 -11.203429
-23.273392 -102.329396 -11.196264
-23.745477 -101.500504 -9.83091
-24.817347 -99.583877 -9.858138
-25.164098 -98.642041 -8.531285
-24.416398 -100.51403 -11.165949
-24.817347 -99.583877 -9.858138
-24.882678 -99.488228 -11.186012
-23.944313 -101.342923 -12.531303
-23.878982 -101.438572 -11.203429
-24.416398 -100.51403 -11.165949
-26.381773 -93.043316 -9.199751
-26.264919 -94.25061 -8.989841
-26.380636 -93.121974 -7.756862
-25.829399 -78.397732 3.718465
-25.722873 -77.110649 3.276369
-25.829399 -78.397732 3.718465
-25.88381 -79.555534 2.712817
-26.239632 -84.048889 0.174364
-26.307194 -85.369198 0.38656
-26.21416 -83.890884 -1.254582
-26.239632 -84.048889 0.174364
-26.125224 -82.7901 -0.16
-24.015988 -63.307877 -5.672767
-23.996612 -64.647007 -5.32392
-23.821154 -63.060597 -6.756861
-24.015988 -63.307877 -5.672767
-24.030209 -62.026722 -5.963044
-23.931082 -60.406088 -7.295142
-24.133421 -60.728459 -6.195507
-24.229128 -59.355104 -6.443511
-24.176177 -55.712093 -9.067353
-24.394019 -54.382452 -9.309418
-23.808478 -56.654347 -9.891051
-24.03799 -57.04369 -8.788666
-24.176177 -55.712093 -9.067353
-23.734547 -54.934595 -11.114774
-24.193872 -53.898842 -10.321463
-23.981755 -53.510687 -11.266499
-21.229525 -51.121162 -19.675892
-20.911948 -51.63496 -20.424738
-21.184002 -52.582352 -19.58079
-21.854745 -51.343506 -18.162275
-21.740715 -52.772644 -18.008385
-22.093882 -52.047596 -17.338715
-21.6138 -50.627257 -18.93992
-21.854745 -51.343506 -18.162275
-21.229525 -51.121162 -19.675892
-21.6138 -50.627257 -18.93992
-10.101119 -106.659065 -13.191315
-9.048382 -106.372143 -13.327906
-10.46539 -107.023671 -14.140541
-10.101119 -106.659065 -13.191315
-11.051096 -106.868435 -13.107518
0.359895 -101.930363 -17.014459
0.98543 -101.250713 -15.979779
-0.91045 -102.841434 -16.975917
-0.331242 -102.611458 -18.111111
0.359895 -101.930363 -17.014459
0.359921 -100.778546 -12.502258
1.628628 -99.835217 -12.545015
-0.933681 -101.709423 -12.482744
-1.51146 -101.692009 -11.306935
-2.154907 -102.51041 -12.432623
-0.283526 -101.596947 -13.627947
0.359921 -100.778546 -12.502258
-0.933681 -101.709423 -12.482744
-2.108624 -103.643143 -16.879102
-0.91045 -102.841434 -16.975917
-1.417488 -102.962047 -15.782449
-3.387759 -104.393208 -16.561521
-2.108624 -103.643143 -16.879102
-4.679728 -105.095642 -16.314436
-3.387759 -104.393208 -16.561521
-3.907633 -104.466191 -15.43855
-5.843186 -105.664833 -16.08258
-4.679728 -105.095642 -16.314436
-6.982569 -106.152401 -15.807135
-5.843186 -105.664833 -16.08258
-6.338985 -105.656193 -14.91602
-8.056942 -106.542858 -15.437583
-7.561144 -106.551499 -16.604144
-6.982569 -106.152401 -15.807135
-10.802892 -107.516823 -16.68293
-10.083424 -107.390488 -16.51296
-10.982494 -107.485146 -15.820939
-10.723375 -107.541222 -17.693001
-10.802892 -107.516823 -16.68293
-11.622446 -107.63588 -17.000978
-10.554105 -107.47852 -18.738907
-10.723375 -107.541222 -17.693001
-10.378905 -107.357972 -19.88319
-10.554105 -107.47852 -18.738907
-11.36773 -107.53973 -19.155331
-9.951833 -107.122731 -21.012034
-9.138208 -107.06152 -20.59561
-10.378905 -107.357972 -19.88319
-9.951833 -107.122731 -21.012034
-10.829801 -107.148415 -21.478473
-13.600803 -106.725262 -22.456698
-14.48615 -106.4231 -22.799029
-13.28805 -106.355202 -23.660474
-12.714686 -106.96561 -22.134459
-13.912786 -107.033508 -21.273014
-13.600803 -106.725262 -22.456698
-11.746871 -107.075752 -21.804054
-12.714686 -106.96561 -22.134459
-16.143126 -103.141815 -27.006769
-16.427759 -103.869434 -25.862865
-17.328063 -103.154407 -25.967654
-19.122369 -97.901268 -28.436143
-20.166328 -97.770214 -27.313182
-18.553521 -98.976899 -28.379784
-19.122369 -97.901268 -28.436143
-17.997293 -98.044663 -29.482228
-16.16882 -98.986321 -30.437413
-16.828084 -98.078427 -30.469684
-16.739405 -99.958877 -29.394231
-16.16882 -98.986321 -30.437413
-15.479778 -99.824905 -30.405774
-15.731846 -102.386898 -28.097183
-16.546897 -101.612125 -28.237075
-15.235313 -101.572235 -29.222701
-16.143126 -103.141815 -27.006769
-15.731846 -102.386898 -28.097183
-22.703007 -83.781963 -25.465573
-23.073649 -83.17398 -24.441304
-22.563021 -82.267383 -25.454837
-22.261518 -84.377742 -26.52776
-22.772145 -85.284339 -25.514227
-22.703007 -83.781963 -25.465573
-21.506596 -74.807175 -25.926575
-20.980308 -73.532933 -26.758932
-21.736575 -84.766422 -27.542521
-22.261518 -84.377742 -26.52776
-21.748575 -86.285202 -27.590126
-21.736575 -84.766422 -27.542521
3 0 262 264
3 264 263 62
3 262 263 264
3 1 65 63
3 2 68 66
3 265 69 266
3 267 70 268
3 269 72 270
3 271 270 70
3 269 270 271
3 272 74 273
3 274 273 72
3 272 273 274
3 3 77 75
3 275 78 276
3 4 81 79
3 5 277 279
3 279 278 82
3 277 278 279
3 5 280 281
3 6 86 84
3 8 89 87
3 8 91 89
3 282 94 283
3 284 283 92
3 282 283 284
3 286 285 94
3 287 96 288
3 289 98 290
3 291 290 97
3 289 290 291
3 292 100 293
3 294 293 98
3 292 293 294
3 295 102 296
3 297 296 100
3 295 296 297
3 10 105 103
3 10 107 105
3 11 298 300
3 298 108 299
3 298 299 300
3 11 110 108
3 11 112 110
3 12 115 113
3 12 117 115
3 12 119 117
3 13 122 120
3 13 124 122
3 301 128 302
3 303 302 126
3 301 302 303
3 304 130 305
3 306 305 128
3 304 305 306
3 308 307 130
3 9 134 132
3 310 309 135
3 311 139 312
3 313 312 137
3 311 312 313
3 7 314 316
3 316 315 140
3 314 315 316
3 318 317 142
3 14 145 143
3 16 146 64
3 16 147 146
3 17 150 148
3 19 151 67
3 19 152 151
3 319 153 320
3 322 321 153
3 21 323 325
3 323 155 324
3 323 324 325
3 21 156 155
3 22 326 327
3 22 328 330
3 328 157 329
3 328 329 330
3 22 159 157
3 24 160 71
3 24 161 160
3 24 163 161
3 26 164 73
3 26 165 164
3 27 168 166
3 29 169 76
3 29 170 169
3 30 172 171
3 331 173 332
3 334 333 173
3 336 335 174
3 337 176 338
3 340 339 176
3 32 179 177
3 34 180 80
3 34 181 180
3 15 182 144
3 341 183 342
3 343 342 83
3 341 342 343
3 345 344 183
3 35 186 184
3 37 187 85
3 37 188 187
3 18 189 149
3 38 190 88
3 38 191 190
3 38 192 191
3 39 193 90
3 39 194 193
3 31 346 348
3 348 347 175
3 346 347 348
3 40 349 351
3 349 195 350
3 349 350 351
3 40 196 195
3 352 197 353
3 41 198 93
3 41 199 198
3 41 200 199
3 354 203 355
3 356 355 201
3 354 355 356
3 357 204 358
3 43 205 95
3 43 206 205
3 44 207 99
3 44 208 207
3 44 209 208
3 45 210 101
3 45 211 210
3 20 212 154
3 46 213 104
3 46 214 213
3 46 215 214
3 47 216 106
3 47 217 216
3 48 359 361
3 361 360 109
3 359 360 361
3 48 362 363
3 48 364 366
3 364 218 365
3 364 365 366
3 49 219 111
3 49 220 219
3 23 221 158
3 50 222 114
3 50 223 222
3 50 224 223
3 51 225 116
3 51 226 225
3 51 227 226
3 52 228 118
3 52 229 228
3 25 230 162
3 53 231 121
3 53 232 231
3 53 233 232
3 54 234 123
3 54 235 234
3 367 236 368
3 55 237 125
3 55 238 237
3 369 239 370
3 56 240 127
3 56 241 240
3 56 242 241
3 57 243 129
3 57 244 243
3 57 245 244
3 371 201 372
3 58 373 374
3 58 375 377
3 375 247 376
3 375 376 377
3 59 378 380
3 378 248 379
3 378 379 380
3 59 249 248
3 59 250 249
3 381 251 382
3 383 382 131
3 381 382 383
3 384 246 385
3 386 385 251
3 384 385 386
3 42 252 202
3 60 253 133
3 60 387 389
3 389 388 253
3 387 388 389
3 28 254 167
3 391 390 136
3 33 255 178
3 61 256 138
3 61 257 256
3 392 258 393
3 394 259 395
3 397 396 259
3 36 260 185
3 398 261 399
3 400 399 141
3 398 399 400
3 402 401 261
3 62 403 404
3 406 405 62
3 63 64 14
3 65 64 63
3 65 16 64
3 66 67 17
3 68 67 66
3 68 19 67
3 69 407 408
3 69 409 411
3 409 21 410
3 409 410 411
3 70 412 413
3 70 414 416
3 414 22 415
3 414 415 416
3 70 71 22
3 72 71 70
3 72 24 71
3 72 73 24
3 74 73 72
3 74 26 73
3 75 76 27
3 77 76 75
3 77 29 76
3 418 417 30
3 78 419 420
3 78 421 422
3 79 80 32
3 81 80 79
3 81 34 80
3 82 83 15
3 423 83 424
3 425 424 82
3 423 424 425
3 427 426 83
3 84 85 35
3 86 85 84
3 86 37 85
3 87 88 18
3 89 88 87
3 89 38 88
3 89 90 38
3 91 90 89
3 91 39 90
3 430 429 31
3 428 429 430
3 431 40 432
3 92 433 435
3 433 93 434
3 433 434 435
3 94 93 92
3 94 41 93
3 94 436 438
3 438 437 41
3 436 437 438
3 440 439 94
3 441 95 442
3 96 443 445
3 443 95 444
3 443 444 445
3 96 43 95
3 97 446 447
3 98 448 450
3 450 449 97
3 448 449 450
3 98 451 452
3 98 453 455
3 453 99 454
3 453 454 455
3 100 99 98
3 100 44 99
3 100 101 44
3 102 101 100
3 102 45 101
3 103 104 20
3 105 104 103
3 105 46 104
3 105 106 46
3 107 106 105
3 107 47 106
3 108 456 458
3 456 457 458
3 108 459 460
3 108 461 463
3 461 109 462
3 461 462 463
3 110 109 108
3 110 48 109
3 110 111 48
3 112 111 110
3 112 49 111
3 113 114 23
3 115 114 113
3 115 50 114
3 115 116 50
3 117 116 115
3 117 51 116
3 117 118 51
3 119 118 117
3 119 52 118
3 120 121 25
3 122 121 120
3 122 53 121
3 122 123 53
3 124 123 122
3 124 54 123
3 464 125 465
3 466 125 467
3 468 55 469
3 470 469 125
3 468 469 470
3 126 471 473
3 471 127 472
3 471 472 473
3 128 127 126
3 128 56 127
3 128 129 56
3 130 129 128
3 130 57 129
3 130 474 476
3 476 475 57
3 474 475 476
3 478 477 130
3 479 58 480
3 481 59 482
3 483 131 484
3 485 484 59
3 483 484 485
3 486 131 487
3 489 488 131
3 132 133 42
3 134 133 132
3 134 60 133
3 135 136 28
3 490 136 491
3 492 491 135
3 490 491 492
3 494 493 136
3 137 138 33
3 139 138 137
3 139 61 138
3 140 141 36
3 495 141 496
3 497 496 140
3 495 496 497
3 499 498 141
3 142 500 501
3 503 502 142
3 143 144 4
3 145 144 143
3 145 15 144
3 64 145 14
3 146 145 64
3 146 15 145
3 146 82 15
3 147 82 146
3 147 5 82
3 148 149 6
3 150 149 148
3 150 18 149
3 67 150 17
3 151 150 67
3 151 18 150
3 151 87 18
3 152 87 151
3 152 8 87
3 504 92 505
3 506 92 507
3 509 508 92
3 510 97 511
3 153 512 514
3 512 97 513
3 512 513 514
3 153 515 517
3 517 516 97
3 515 516 517
3 153 518 520
3 518 154 519
3 518 519 520
3 521 154 522
3 523 522 153
3 521 522 523
3 524 20 525
3 526 525 154
3 524 525 526
3 155 527 528
3 155 529 531
3 529 20 530
3 529 530 531
3 155 103 20
3 156 103 155
3 156 10 103
3 157 532 533
3 157 534 536
3 534 11 535
3 534 535 536
3 157 158 11
3 159 158 157
3 159 23 158
3 71 159 22
3 160 159 71
3 160 23 159
3 160 113 23
3 161 113 160
3 161 12 113
3 161 162 12
3 163 162 161
3 163 25 162
3 73 163 24
3 164 163 73
3 164 25 163
3 164 120 25
3 165 120 164
3 165 13 120
3 537 126 538
3 539 126 540
3 542 541 126
3 166 167 9
3 168 167 166
3 168 28 167
3 76 168 27
3 169 168 76
3 169 28 168
3 169 135 28
3 170 135 169
3 170 543 545
3 545 544 135
3 543 544 545
3 171 546 548
3 548 547 7
3 546 547 548
3 172 549 551
3 551 550 171
3 549 550 551
3 172 552 553
3 554 172 555
3 556 555 30
3 554 555 556
3 173 557 559
3 557 172 558
3 557 558 559
3 173 560 562
3 562 561 172
3 560 561 562
3 173 563 565
3 563 142 564
3 563 564 565
3 566 142 567
3 568 567 173
3 566 567 568
3 570 569 142
3 174 175 2
3 571 175 572
3 573 572 174
3 571 572 573
3 574 31 575
3 576 575 175
3 574 575 576
3 176 577 578
3 176 579 581
3 579 31 580
3 579 580 581
3 176 582 584
3 584 583 31
3 582 583 584
3 586 585 176
3 587 78 588
3 589 78 590
3 592 591 78
3 177 178 3
3 179 178 177
3 179 33 178
3 80 179 32
3 180 179 80
3 180 33 179
3 180 137 33
3 181 137 180
3 181 593 595
3 595 594 137
3 593 594 595
3 144 81 4
3 182 81 144
3 182 34 81
3 83 182 15
3 183 182 83
3 183 34 182
3 183 181 34
3 596 181 597
3 598 597 183
3 596 597 598
3 600 599 181
3 184 185 1
3 186 185 184
3 186 36 185
3 85 186 35
3 187 186 85
3 187 36 186
3 187 140 36
3 188 140 187
3 188 7 140
3 149 86 6
3 189 86 149
3 189 37 86
3 88 189 18
3 190 189 88
3 190 37 189
3 190 188 37
3 191 188 190
3 191 7 188
3 191 171 7
3 192 171 191
3 192 30 171
3 90 192 38
3 193 192 90
3 193 30 192
3 193 601 603
3 603 602 30
3 601 602 603
3 194 604 606
3 606 605 193
3 604 605 606
3 194 607 608
3 175 68 2
3 609 68 610
3 611 610 175
3 609 610 611
3 612 19 613
3 614 613 68
3 612 613 614
3 616 615 31
3 195 617 618
3 195 619 621
3 619 19 620
3 619 620 621
3 195 152 19
3 196 152 195
3 196 8 152
3 197 622 623
3 197 624 626
3 624 40 625
3 624 625 626
3 93 627 629
3 627 197 628
3 627 628 629
3 198 197 93
3 198 40 197
3 198 196 40
3 199 196 198
3 199 8 196
3 199 91 8
3 200 91 199
3 200 39 91
3 630 200 631
3 632 631 41
3 630 631 632
3 633 200 634
3 635 39 636
3 637 636 200
3 635 636 637
3 638 194 639
3 640 639 39
3 638 639 640
3 641 194 642
3 644 643 194
3 201 202 0
3 203 202 201
3 203 42 202
3 645 203 646
3 647 203 648
3 649 42 650
3 651 650 203
3 649 650 651
3 652 132 653
3 654 653 42
3 652 653 654
3 204 655 657
3 655 132 656
3 655 656 657
3 204 9 132
3 658 204 659
3 660 204 661
3 662 9 663
3 664 663 204
3 662 663 664
3 665 166 666
3 667 666 9
3 665 666 667
3 668 166 669
3 670 27 671
3 672 671 166
3 670 671 672
3 95 673 674
3 205 675 677
3 677 676 95
3 675 676 677
3 205 678 680
3 678 27 679
3 678 679 680
3 205 75 27
3 206 75 205
3 206 3 75
3 681 96 682
3 683 96 684
3 685 43 686
3 687 686 96
3 685 686 687
3 99 688 689
3 207 690 692
3 692 691 99
3 690 691 692
3 207 693 695
3 693 43 694
3 693 694 695
3 207 206 43
3 208 206 207
3 208 3 206
3 208 177 3
3 209 177 208
3 209 32 177
3 101 209 44
3 210 209 101
3 210 32 209
3 210 79 32
3 211 79 210
3 211 4 79
3 154 696 698
3 696 102 697
3 696 697 698
3 212 102 154
3 212 45 102
3 104 212 20
3 213 212 104
3 213 45 212
3 213 211 45
3 214 211 213
3 214 4 211
3 214 143 4
3 215 143 214
3 215 14 143
3 106 215 46
3 216 215 106
3 216 14 215
3 216 63 14
3 217 63 216
3 217 1 63
3 109 699 700
3 702 701 109
3 703 69 704
3 218 705 707
3 705 69 706
3 705 706 707
3 218 21 69
3 111 218 48
3 219 218 111
3 219 21 218
3 219 156 21
3 220 156 219
3 220 10 156
3 158 112 11
3 221 112 158
3 221 49 112
3 114 221 23
3 222 221 114
3 222 49 221
3 222 220 49
3 223 220 222
3 223 10 220
3 223 107 10
3 224 107 223
3 224 47 107
3 116 224 50
3 225 224 116
3 225 47 224
3 225 217 47
3 226 217 225
3 226 1 217
3 226 184 1
3 227 184 226
3 227 35 184
3 118 227 51
3 228 227 118
3 228 35 227
3 228 84 35
3 229 84 228
3 229 6 84
3 162 119 12
3 230 119 162
3 230 52 119
3 121 230 25
3 231 230 121
3 231 52 230
3 231 229 52
3 232 229 231
3 232 6 229
3 232 148 6
3 233 148 232
3 233 17 148
3 123 233 53
3 234 233 123
3 234 17 233
3 234 66 17
3 235 66 234
3 235 2 66
3 708 74 709
3 236 710 712
3 710 74 711
3 710 711 712
3 236 26 74
3 125 713 715
3 713 236 714
3 713 714 715
3 237 236 125
3 237 26 236
3 237 165 26
3 238 165 237
3 238 13 165
3 239 716 717
3 239 718 720
3 718 55 719
3 718 719 720
3 127 721 723
3 721 239 722
3 721 722 723
3 240 239 127
3 240 55 239
3 240 238 55
3 241 238 240
3 241 13 238
3 241 124 13
3 242 124 241
3 242 54 124
3 129 242 56
3 243 242 129
3 243 54 242
3 243 235 54
3 244 235 243
3 244 2 235
3 244 174 2
3 245 174 244
3 245 724 726
3 726 725 174
3 724 725 726
3 727 245 728
3 729 728 57
3 727 728 729
3 730 245 731
3 733 732 245
3 734 246 735
3 201 736 738
3 736 246 737
3 736 737 738
3 201 0 246
3 247 739 740
3 247 741 743
3 741 742 743
3 744 58 745
3 248 746 748
3 746 747 748
3 248 749 751
3 749 58 750
3 749 750 751
3 248 247 58
3 249 247 248
3 249 752 754
3 754 753 247
3 752 753 754
3 249 755 756
3 250 757 759
3 759 758 249
3 757 758 759
3 250 760 761
3 131 250 59
3 251 250 131
3 251 762 764
3 764 763 250
3 762 763 764
3 251 765 767
3 765 62 766
3 765 766 767
3 246 62 251
3 246 0 62
3 202 768 770
3 770 769 0
3 768 769 770
3 252 771 773
3 773 772 202
3 771 772 773
3 252 774 775
3 133 252 42
3 253 252 133
3 253 776 778
3 778 777 252
3 776 777 778
3 253 779 781
3 779 780 781
3 783 782 253
3 167 134 9
3 254 134 167
3 254 60 134
3 136 254 28
3 784 254 785
3 786 785 136
3 784 785 786
3 787 60 788
3 789 788 254
3 787 788 789
3 791 790 60
3 178 77 3
3 255 77 178
3 255 29 77
3 138 255 33
3 256 255 138
3 256 29 255
3 256 170 29
3 257 170 256
3 257 792 794
3 794 793 170
3 792 793 794
3 795 139 796
3 258 797 799
3 797 139 798
3 797 798 799
3 258 61 139
3 800 258 801
3 259 802 804
3 802 258 803
3 802 803 804
3 259 61 258
3 259 257 61
3 805 257 806
3 807 806 259
3 805 806 807
3 809 808 257
3 185 65 1
3 260 65 185
3 260 16 65
3 141 260 36
3 261 260 141
3 261 16 260
3 261 147 16
3 810 147 811
3 812 811 261
3 810 811 812
3 813 5 814
3 815 814 147
3 813 814 815
3 817 816 7
3 818 5 819
3 821 820 5
