ply
format ascii 1.0
element vertex 711
property float x
property float y
property float z
element face 717
property list uchar int vertex_index
end_header
-6.843683 -10.74527 -62.383541
-11.479445 -64.831635 -47.242298
-11.201054 -34.686432 -54.878345
-12.750035 17.574854 -72.861137
-2.374292 -65.592621 -45.792557
-3.60207 -49.729492 -48.395729
-11.644792 -50.290253 -50.716774
-6.76012 -0.361538 -66.780869
-11.925368 -7.628088 -65.659599
-19.038015 -34.023529 -56.430283
-9.220489 -20.672253 -59.134983
2.803171 -47.152935 -45.388348
-4.264316 -33.963917 -52.170731
-3.623931 -20.480474 -56.128201
-6.426416 -72.700928 -45.408051
-1.73701 -73.077301 -44.709534
-6.781259 -65.37056 -46.860241
-7.210773 -57.835186 -48.236122
-11.607743 -57.617226 -48.996864
-9.186964 14.850807 -71.942596
-12.944426 11.835321 -72.415161
-9.500757 9.080718 -71.096199
-9.549664 2.792621 -69.19696
-6.547618 5.488169 -68.749542
-19.797119 -41.395226 -53.808765
-7.596438 -42.351303 -51.507252
-4.120605 -41.74136 -50.164047
-7.471737 -34.704556 -53.489567
-7.051416 -27.35829 -55.643158
-10.347265 -27.411209 -57.004536
-9.006163 19.921186 -71.754951
3.534955 -79.681328 -42.491314
2.698662 -72.485641 -43.400784
1.789033 -64.980858 -44.320984
0.615734 -56.685314 -45.567657
-3.047069 -57.825245 -46.971611
-7.676212 -49.933796 -49.852737
-11.653677 -42.263355 -52.795467
-6.850972 -5.937109 -64.513565
-12.505415 -0.959878 -68.54464
-9.40145 -3.326544 -66.758804
-8.864308 -9.341716 -63.934467
-16.064484 -56.799313 -49.111538
-15.908419 -49.393059 -51.333698
-15.596308 -42.041618 -53.544415
-15.008171 -34.774292 -55.77737
-18.035213 -26.700003 -59.047825
-14.14992 -27.223017 -58.221031
-12.654007 -20.124052 -60.543137
-10.916285 -14.121056 -62.532845
-7.965026 -15.035209 -60.989983
1.780784 -39.488113 -47.077805
-0.235076 -48.601665 -46.975304
-0.895213 -40.709908 -48.668201
-8.868196 -68.909569 -46.30875
-6.791616 -68.867119 -46.21933
-9.180356 -65.132454 -47.167278
-9.184661 -61.739174 -47.874416
-11.580535 -61.177593 -48.155846
-7.720047 12.925487 -71.105476
-9.328588 11.915546 -71.626671
-7.84172 10.107585 -70.668625
-7.947641 7.299314 -70.019516
-9.501333 -38.589851 -53.173077
-7.715682 -38.388531 -52.560455
-9.30738 -34.803902 -54.193569
-9.043592 -31.335777 -55.170906
-10.8951 -30.995068 -55.965652
-7.320583 20.682253 -70.815292
-7.423162 18.23859 -71.174164
1.41458 -80.154213 -43.014462
-2.082812 -69.388306 -45.260876
0.418884 -72.727486 -44.168541
0.225655 -69.180878 -44.571678
2.212024 -68.793121 -43.858849
-0.218069 -65.318939 -45.091198
-0.825509 -61.315094 -45.719376
-2.788043 -61.6273 -46.394554
-9.472733 -53.914165 -49.492229
-7.463145 -53.843575 -49.023716
-9.630426 -49.951298 -50.38229
-9.657154 -46.075939 -51.289444
-11.738124 -46.125443 -51.780319
-12.628029 2.313453 -69.775253
-8.030794 1.473084 -68.123993
-9.461782 -0.169651 -68.05896
-8.077904 -1.498571 -66.986488
-8.072165 -4.611405 -65.690643
-6.858318 -3.296299 -65.641991
-18.378965 -52.583817 -50.132149
-16.174675 -53.058712 -50.23698
-18.196682 -49.007175 -51.347927
-17.738365 -41.501339 -53.841896
-17.446541 -38.018055 -54.988239
-15.524817 -38.269047 -54.722
-17.333475 -23.007454 -60.383163
-16.086992 -26.858742 -58.740253
-15.351362 -23.562218 -59.850536
-12.573621 -13.600041 -63.237255
-11.443507 -10.864321 -64.116325
-9.879335 -11.402729 -63.385937
-10.312817 -8.479524 -64.827156
4.737559 -50.149864 -43.826588
4.09701 -46.172024 -44.586105
3.485872 -42.429024 -45.397106
2.166007 -43.02977 -46.310101
-1.617856 -53.342098 -46.987194
0.150432 -52.655785 -46.237511
-1.917423 -49.201855 -47.723881
-4.254978 -37.88015 -51.139179
-2.412089 -41.393795 -49.382904
-2.683875 -37.336884 -50.431309
-1.241956 -36.769386 -49.690746
-2.800595 -29.899485 -52.442337
-4.107867 -30.397272 -53.107018
-8.282699 -24.007294 -57.426285
-6.681116 -23.853331 -56.726383
-7.767795 -20.665674 -58.50082
-7.186303 -17.832533 -59.39785
-8.60975 -17.556103 -60.175407
-4.40976 -69.274391 -45.808556
-4.524995 -65.826317 -46.346069
-4.761484 -61.883659 -46.963612
-7.070065 -61.655396 -47.549168
-9.481711 -57.739536 -48.713139
-11.67665 -53.977001 -49.841969
-10.96317 16.166597 -72.554253
-12.776244 14.85146 -72.782883
-10.964426 13.311333 -72.31134
-11.168496 10.484849 -71.871552
-11.081817 4.42388 -70.18895
-9.447683 6.055997 -70.244644
-8.077204 4.386619 -69.179787
-6.749812 2.59266 -67.890617
-20.173035 -44.924473 -52.51709
-5.726311 -46.193874 -49.924606
-4.021502 -45.531746 -49.334194
-5.877804 -42.027924 -50.890232
-6.000678 -38.075043 -51.915955
-5.822442 -34.385689 -52.840714
-5.688683 -30.941902 -53.796352
-7.36434 -31.027212 -54.566246
-8.661219 -27.641798 -56.262844
-9.90476 -23.840937 -58.158379
-9.256043 17.528887 -72.042122
-7.584242 15.804073 -71.287956
-6.083777 13.911029 -70.266907
0.749159 -76.46859 -43.667942
3.0146 -76.006126 -43.01355
1.186299 -61.042957 -44.903793
-1.16364 -57.328369 -46.30019
-3.508082 -53.624573 -47.743881
-5.180735 -57.659626 -47.708118
-5.352994 -53.984669 -48.355747
-5.622126 -50.166546 -49.115814
-7.689856 -46.148842 -50.66507
-9.616334 -42.317627 -52.212742
-11.411883 -38.582523 -53.771549
-8.734094 -72.284569 -45.465984
-11.303862 -68.182198 -46.338673
-5.706857 -2.09557 -65.432915
-5.857636 -7.635052 -63.170193
-6.86904 -8.702463 -63.309917
-5.995003 -10.341696 -62.063797
-12.307514 -4.269605 -67.175636
-10.994002 1.043265 -68.978058
-10.907389 -2.14277 -67.711525
-10.639251 -5.376387 -66.281097
-9.194623 -6.529078 -65.30925
-7.931568 -7.52239 -64.358017
-7.703669 -10.111396 -63.095947
-13.781921 -60.974552 -48.12307
-13.899952 -57.245865 -49.145401
-13.990225 -53.549141 -50.131645
-13.831257 -49.823128 -51.120155
-17.983139 -45.441158 -52.535282
-15.914693 -45.547909 -52.492146
-13.752273 -45.930809 -52.181141
-13.604139 -42.133579 -53.239819
-13.447295 -38.471313 -54.301701
-13.110537 -34.467857 -55.482433
-19.984327 -26.262249 -59.315311
-16.494661 -30.525164 -57.469593
-14.590939 -30.857952 -57.025776
-12.691176 -30.773354 -56.596489
-12.194607 -27.286283 -57.670605
-11.64592 -23.797041 -58.792408
-10.89261 -20.702879 -59.752899
-11.803748 -17.151613 -61.511784
-10.193501 -17.575851 -60.797485
-9.39581 -14.555834 -61.80608
-8.528319 -12.065496 -62.57098
-7.328245 -12.475909 -61.840508
1.799828 -52.060284 -45.44521
1.335036 -48.027939 -46.187626
-2.157278 -45.446445 -48.467297
-0.571574 -44.62833 -47.777279
0.942492 -44.173409 -46.95948
0.424161 -40.064941 -47.954445
-1.494761 -29.625389 -51.589207
-3.836855 -23.56082 -55.161739
-5.473346 -27.277382 -54.871563
-5.161162 -23.751949 -55.936134
-4.852588 -20.710621 -56.893307
-5.879116 -17.862352 -58.678337
-6.677036 -15.049882 -60.344715
-6.232346 -12.478829 -61.247086
-7.065751 10.647771 -70.345425
-7.780883 11.516536 -70.887051
-7.004914 12.056722 -70.56385
-7.160542 9.281302 -70.109139
-7.065751 10.647771 -70.345425
-6.472523 21.041407 -70.175365
-7.279724 21.860936 -70.487274
-6.577006 19.820033 -70.461097
-6.472523 21.041407 -70.175365
0.163281 -79.973194 -43.27344
1.445494 -81.760822 -42.738321
-13.755077 16.746816 -72.900039
-13.753615 18.178126 -72.86523
-12.714653 4.009014 -70.343716
-13.554321 2.783392 -70.0443
-19.373931 -50.618298 -50.635271
-19.357958 -52.460537 -49.954332
-19.282789 -48.829977 -51.24316
-18.287824 -50.795496 -50.740038
-19.373931 -50.618298 -50.635271
-18.242278 -36.020792 -55.709261
-18.506422 -37.730856 -55.103443
-19.302159 -35.733593 -55.824465
-18.038479 -34.100065 -56.34413
-17.242742 -36.097328 -55.623108
-18.242278 -36.020792 -55.709261
-16.883505 -21.390757 -60.952913
-17.850892 -21.098751 -61.184326
-15.892449 -21.668139 -60.686599
-16.342419 -23.284836 -60.11685
-16.883505 -21.390757 -60.952913
-14.929164 -21.843311 -60.433281
-15.892449 -21.668139 -60.686599
-11.684438 -9.246205 -64.887962
-12.325391 -10.560894 -64.473137
-12.566322 -8.942778 -65.244774
-3.541939 -33.770802 -51.808192
-2.751718 -35.457285 -50.93848
-3.474095 -35.650401 -51.30102
-4.186091 -32.180594 -52.638875
-3.463714 -31.987479 -52.276335
-3.541939 -33.770802 -51.808192
-3.555725 -18.867914 -56.694977
-3.044831 -20.221199 -55.749752
-4.15109 -19.055553 -57.068998
-3.555725 -18.867914 -56.694977
-5.252666 -72.733246 -45.296504
-5.130045 -74.4562 -44.96402
-10.309736 8.33164 -71.125077
-11.143605 9.033705 -71.512753
-10.334626 9.782784 -71.483875
-9.47422 7.568357 -70.670422
-10.283199 6.81928 -70.699299
-10.309736 8.33164 -71.125077
-9.929537 20.605174 -71.934143
-9.030219 21.093392 -71.524277
-9.955421 19.42903 -72.112068
-9.929537 20.605174 -71.934143
-9.131103 18.725037 -71.898537
-10.080361 18.232881 -72.255653
-9.955421 19.42903 -72.112068
-6.784002 16.142117 -70.813449
-7.503702 17.021331 -71.23106
-6.703462 17.359375 -70.756553
-6.03377 15.195595 -70.302925
-6.83401 14.857551 -70.777432
-6.784002 16.142117 -70.813449
4.814234 -81.184162 -41.894968
3.732672 -81.439361 -42.21146
4.612959 -79.429767 -42.127747
4.814234 -81.184162 -41.894968
-0.493925 -74.772946 -44.188738
-0.292912 -76.54512 -43.892201
-1.535996 -74.849476 -44.412996
3.96836 -74.05479 -42.791058
4.126329 -75.815033 -42.597441
2.856631 -74.245883 -43.207167
3.616192 -72.111492 -43.048954
3.96836 -74.05479 -42.791058
2.918523 -66.464234 -43.722168
3.130019 -68.370365 -43.491101
2.000529 -66.886989 -44.089917
2.667841 -64.471857 -43.956474
2.918523 -66.464234 -43.722168
1.487666 -63.011907 -44.612389
2.366474 -62.502907 -44.247879
2.667841 -64.471857 -43.956474
-9.928568 -71.886093 -45.419839
-8.744326 -73.838878 -45.021287
-11.213452 -69.834907 -45.856184
-10.018978 -70.233384 -45.902328
-9.928568 -71.886093 -45.419839
-5.177324 -3.069483 -64.631863
-5.110069 -1.673557 -65.152332
-5.728883 -3.485626 -64.865223
-5.177324 -3.069483 -64.631863
-5.430477 -8.545955 -62.468544
-5.328193 -7.158728 -62.995048
-5.499161 -9.899277 -61.915346
-5.926319 -8.988374 -62.616995
-5.430477 -8.545955 -62.468544
-13.840592 12.392354 -72.551476
-13.756501 13.900423 -72.735337
-12.860335 13.34339 -72.599022
-13.254976 -2.164001 -68.196106
-13.363086 -0.519659 -68.836849
-12.406464 -2.614742 -67.860138
-13.156025 -3.818865 -67.511604
-13.254976 -2.164001 -68.196106
-16.056988 -58.441284 -48.586489
-17.171723 -56.528482 -48.993233
-14.923203 -58.886933 -48.617304
-14.915707 -60.528904 -48.092255
-16.056988 -58.441284 -48.586489
-19.00977 -26.481126 -59.181568
-19.591867 -24.605548 -59.942177
-18.617309 -24.824425 -59.808434
-18.291204 -28.57902 -58.370842
-19.265761 -28.360143 -58.504585
-19.00977 -26.481126 -59.181568
-17.264937 -28.612583 -58.258709
-17.520928 -30.4916 -57.581726
-18.291204 -28.57902 -58.370842
-12.149964 -21.960546 -59.667772
-12.513059 -23.809596 -59.044332
-13.017103 -21.973101 -59.919697
2.347046 -39.039426 -46.678005
3.19959 -40.509882 -45.837656
2.633328 -40.958568 -46.237455
1.55353 -37.485256 -47.569611
2.347046 -39.039426 -46.678005
1.569325 -56.479463 -45.108173
1.75369 -58.406978 -44.864599
-0.526307 -36.54492 -49.244606
-1.32028 -35.019703 -50.14335
-1.446682 -31.447705 -51.092581
-0.796075 -31.119756 -50.679886
-2.781702 -28.134054 -52.957859
-3.418108 -28.334053 -53.32275
-3.936238 -25.164721 -54.682451
-3.299831 -24.964721 -54.31756
-5.708362 -22.239264 -56.825672
-5.921139 -23.80264 -56.331259
-6.468338 -22.289955 -57.220796
-5.554075 -20.718601 -57.304259
-5.006875 -22.231285 -56.414721
-5.708362 -22.239264 -56.825672
-6.067338 -19.294466 -58.196773
-5.365852 -19.286487 -57.785822
-5.554075 -20.718601 -57.304259
-5.882605 -13.698792 -60.489103
-5.71352 -12.342495 -60.971842
-7.213503 7.877166 -69.784584
-7.89468 8.703449 -70.344071
-7.160542 9.281302 -70.109139
-6.513491 6.971594 -69.149597
-7.24763 6.393741 -69.384529
-7.213503 7.877166 -69.784584
-8.187429 21.473925 -71.054447
-7.279724 21.860936 -70.487274
-8.163373 20.301719 -71.285122
-9.030219 21.093392 -71.524277
-8.187429 21.473925 -71.054447
-6.628296 18.598202 -70.640534
-7.371873 19.460421 -70.994728
-6.577006 19.820033 -70.461097
-6.703462 17.359375 -70.756553
-6.628296 18.598202 -70.640534
2.672484 -81.675804 -42.473034
1.445494 -81.760822 -42.738321
2.474768 -79.91777 -42.752888
3.732672 -81.439361 -42.21146
2.672484 -81.675804 -42.473034
-13.848906 10.918397 -72.296516
-12.938551 10.289925 -72.090271
-13.424392 1.117007 -69.452156
-13.554321 2.783392 -70.0443
-12.566722 0.676787 -69.159947
-13.363086 -0.519659 -68.836849
-13.424392 1.117007 -69.452156
-18.328964 -54.420735 -49.503538
-19.357958 -52.460537 -49.954332
-17.221725 -54.691565 -49.621843
-17.171723 -56.528482 -48.993233
-18.328964 -54.420735 -49.503538
-18.652334 -39.472498 -54.530271
-18.767742 -41.448283 -53.82533
-19.681711 -39.419442 -54.513706
-17.592453 -39.759697 -54.415067
-18.652334 -39.472498 -54.530271
-18.506422 -37.730856 -55.103443
-16.281879 -36.222824 -55.489988
-16.485679 -38.143551 -54.85512
-17.242742 -36.097328 -55.623108
-16.023556 -34.475447 -56.017674
-15.266494 -36.52167 -55.249685
-16.281879 -36.222824 -55.489988
-18.266441 -22.97815 -60.476103
-17.850892 -21.098751 -61.184326
-17.684344 -24.853728 -59.715494
-18.617309 -24.824425 -59.808434
-18.266441 -22.97815 -60.476103
-14.36578 -23.692185 -59.573397
-13.765059 -25.522584 -58.758644
-14.750641 -25.392618 -59.035784
-14.36578 -23.692185 -59.573397
-14.929164 -21.843311 -60.433281
-13.580486 -20.124229 -60.779581
-13.017103 -21.973101 -59.919697
-12.890448 -11.928755 -64.033602
-13.448408 -13.396971 -63.528045
-12.008564 -12.232181 -63.67679
-12.890448 -11.928755 -64.033602
-12.325391 -10.560894 -64.473137
5.330445 -49.603323 -43.428348
5.746458 -51.715 -43.038542
5.010171 -47.614403 -43.808107
5.330445 -49.603323 -43.428348
4.417285 -48.160944 -44.206347
4.617843 -45.530005 -44.225943
5.010171 -47.614403 -43.808107
3.791441 -44.300524 -44.991606
4.312273 -43.658504 -44.631443
4.617843 -45.530005 -44.225943
-2.030759 -35.173536 -50.568199
-1.962916 -37.053135 -50.061027
-2.751718 -35.457285 -50.93848
-1.32028 -35.019703 -50.14335
-2.030759 -35.173536 -50.568199
-2.810078 -31.738585 -51.943995
-2.099599 -31.584753 -51.519146
-3.454231 -30.148378 -52.774677
-2.810078 -31.738585 -51.943995
-3.463714 -31.987479 -52.276335
-4.071744 -28.582946 -53.655091
-3.418108 -28.334053 -53.32275
-3.454231 -30.148378 -52.774677
-7.011678 -20.696127 -58.108015
-6.468338 -22.289955 -57.220796
-7.224455 -22.259502 -57.613602
-7.477049 -19.249104 -58.949335
-6.720932 -19.279556 -58.55653
-7.011678 -20.696127 -58.108015
-2.907963 -72.921433 -44.947245
-1.535996 -74.849476 -44.412996
-5.435266 -70.816341 -45.702143
-5.252666 -72.733246 -45.296504
-6.609016 -70.784024 -45.81369
-4.244338 -71.019977 -45.496756
-5.435266 -70.816341 -45.702143
-5.600688 -69.070755 -46.013943
-3.073385 -71.175846 -45.259045
-2.907963 -72.921433 -44.947245
-4.244338 -71.019977 -45.496756
-12.050586 9.614689 -71.818466
-12.938551 10.289925 -72.090271
-12.056461 11.160085 -72.143356
-12.050586 9.614689 -71.818466
-11.143605 9.033705 -71.512753
-11.100265 6.003221 -70.671452
-11.941547 5.064227 -70.550564
-10.26475 5.239938 -70.216797
-11.100265 6.003221 -70.671452
-10.283199 6.81928 -70.699299
-21.204871 -44.714063 -52.398745
-20.270965 -46.788626 -51.827742
-21.100261 -42.829966 -53.141749
-21.204871 -44.714063 -52.398745
-20.912303 -41.065342 -53.787586
-19.985077 -43.159849 -53.162928
-21.100261 -42.829966 -53.141749
-20.6772 -39.375903 -54.456032
-20.912303 -41.065342 -53.787586
-19.681711 -39.419442 -54.513706
-20.6772 -39.375903 -54.456032
-20.109889 -33.853636 -56.465268
-19.302159 -35.733593 -55.824465
-12.752646 -7.239727 -66.00771
-12.566322 -8.942778 -65.244774
5.108981 -52.203451 -43.452988
5.746458 -51.715 -43.038542
4.038742 -50.664259 -44.236193
5.108981 -52.203451 -43.452988
3.071549 -49.165795 -45.017073
3.770365 -48.651399 -44.607468
4.038742 -50.664259 -44.236193
-3.132452 -21.765641 -55.291203
-3.044831 -20.221199 -55.749752
-12.795417 18.85021 -72.758881
-13.753615 18.178126 -72.86523
-11.827357 18.255864 -72.665161
-12.795417 18.85021 -72.758881
-11.872739 19.53122 -72.562905
-10.933924 17.551735 -72.511719
-11.856603 16.870725 -72.707695
-11.827357 18.255864 -72.665161
-10.109606 16.847742 -72.298188
-10.933924 17.551735 -72.511719
-10.080361 18.232881 -72.255653
-6.18678 12.549493 -70.144565
-7.004914 12.056722 -70.56385
-6.901912 13.418258 -70.686192
0.039798 -78.387932 -43.565461
0.163281 -79.973194 -43.27344
1.08187 -78.311402 -43.341202
0.039798 -78.387932 -43.565461
-0.292912 -76.54512 -43.892201
4.352781 -77.592166 -42.388864
4.612959 -79.429767 -42.127747
3.274777 -77.843727 -42.752432
4.352781 -77.592166 -42.388864
4.126329 -75.815033 -42.597441
3.372873 -70.265232 -43.277986
3.616192 -72.111492 -43.048954
2.455343 -70.639381 -43.629817
3.372873 -70.265232 -43.277986
3.130019 -68.370365 -43.491101
2.038972 -60.5858 -44.532667
2.366474 -62.502907 -44.247879
0.901016 -58.864136 -45.235725
1.75369 -58.406978 -44.864599
2.038972 -60.5858 -44.532667
-6.380135 -74.318859 -45.029177
-5.130045 -74.4562 -44.96402
-7.533974 -74.11068 -45.058143
-8.744326 -73.838878 -45.021287
-7.580255 -72.492749 -45.437017
-6.380135 -74.318859 -45.029177
-7.533974 -74.11068 -45.058143
-5.347653 14.183088 -69.733326
-6.03377 15.195595 -70.302925
-5.437728 12.922415 -69.663929
-5.347653 14.183088 -69.733326
-6.18678 12.549493 -70.144565
-5.437728 12.922415 -69.663929
-5.852248 6.076435 -68.459587
-6.513491 6.971594 -69.149597
-5.94246 4.626196 -68.069774
-5.852248 6.076435 -68.459587
-6.043557 3.178442 -67.640312
-6.648715 4.040414 -68.32008
-5.94246 4.626196 -68.069774
-6.158458 1.723352 -67.196747
-6.043557 3.178442 -67.640312
-6.163612 0.246253 -66.641873
-6.754966 1.115561 -67.335743
-6.158458 1.723352 -67.196747
-5.63698 -0.620763 -65.967895
-5.110069 -1.673557 -65.152332
-6.233488 -1.228554 -66.106892
-6.163612 0.246253 -66.641873
-5.63698 -0.620763 -65.967895
-6.304613 -4.08599 -64.969761
-6.282587 -2.695934 -65.537453
-5.728883 -3.485626 -64.865223
-6.30094 -5.406395 -64.405548
-6.854645 -4.616704 -65.077778
-6.304613 -4.08599 -64.969761
-5.804272 -6.255367 -63.733862
-5.328193 -7.158728 -62.995048
-6.354304 -6.786081 -63.841879
-6.30094 -5.406395 -64.405548
-5.804272 -6.255367 -63.733862
-13.768182 15.385119 -72.860912
-13.755077 16.746816 -72.900039
-12.76314 16.213157 -72.82201
-13.768182 15.385119 -72.860912
-13.756501 13.900423 -72.735337
-13.840592 12.392354 -72.551476
-13.848906 10.918397 -72.296516
-12.943719 -5.560486 -66.765728
-13.156025 -3.818865 -67.511604
-12.116441 -5.948847 -66.417618
-12.752646 -7.239727 -66.00771
-12.943719 -5.560486 -66.765728
-11.854923 3.368666 -69.982101
-12.714653 4.009014 -70.343716
-11.941547 5.064227 -70.550564
-12.470555 -67.973629 -46.187508
-11.213452 -69.834907 -45.856184
-12.580979 -66.230263 -46.73172
-12.470555 -67.973629 -46.187508
-12.66877 -64.554981 -47.183532
-11.391654 -66.506917 -46.790486
-12.580979 -66.230263 -46.73172
-13.820008 -62.62644 -47.623919
-14.915707 -60.528904 -48.092255
-12.630683 -62.903094 -47.682684
-12.66877 -64.554981 -47.183532
-13.820008 -62.62644 -47.623919
-19.184858 -46.965824 -51.932508
-19.282789 -48.829977 -51.24316
-20.270965 -46.788626 -51.827742
-19.834798 -31.970618 -57.179257
-20.109889 -33.853636 -56.465268
-20.590819 -24.421901 -60.022121
-19.591867 -24.605548 -59.942177
-20.993343 -26.163188 -59.324099
-20.590819 -24.421901 -60.022121
-20.307953 -28.089978 -58.62177
-20.993343 -26.163188 -59.324099
-20.307953 -28.089978 -58.62177
-19.265761 -28.360143 -58.504585
-18.792605 -32.240783 -57.062071
-19.834798 -31.970618 -57.179257
-18.038479 -34.100065 -56.34413
-18.792605 -32.240783 -57.062071
-16.766801 -32.350882 -56.863785
-17.520928 -30.4916 -57.581726
-15.751416 -32.649728 -56.623481
-16.023556 -34.475447 -56.017674
-16.766801 -32.350882 -56.863785
-12.787402 -25.554217 -58.483431
-13.172263 -27.25465 -57.945818
-13.765059 -25.522584 -58.758644
-11.920264 -25.541662 -58.231507
-12.787402 -25.554217 -58.483431
-12.513059 -23.809596 -59.044332
-13.088236 -18.395749 -61.364847
-13.580486 -20.124229 -60.779581
-13.048043 -15.133744 -62.711906
-13.448408 -13.396971 -63.528045
-12.663107 -16.90953 -61.849171
-13.048043 -15.133744 -62.711906
-12.188685 -15.375827 -62.374519
-12.228877 -18.637833 -61.027461
-13.088236 -18.395749 -61.364847
-12.663107 -16.90953 -61.849171
3.996347 -41.787077 -45.019684
4.312273 -43.658504 -44.631443
3.996347 -41.787077 -45.019684
3.19959 -40.509882 -45.837656
1.336674 -54.464699 -45.4431
1.569325 -56.479463 -45.108173
0.383083 -54.670549 -45.902584
2.161372 -54.166949 -45.046949
1.336674 -54.464699 -45.4431
0.97513 -52.358035 -45.841361
2.900181 -53.620829 -44.683994
2.161372 -54.166949 -45.046949
2.569877 -51.619469 -45.045504
2.900181 -53.620829 -44.683994
2.337481 -49.603296 -45.416712
2.569877 -51.619469 -45.045504
1.567432 -50.044111 -45.816418
2.069103 -47.590437 -45.787987
3.071549 -49.165795 -45.017073
2.337481 -49.603296 -45.416712
0.306752 -38.192697 -48.376455
-0.408898 -38.417164 -48.822595
-0.526307 -36.54492 -49.244606
0.985063 -37.904283 -47.938136
1.102472 -39.776527 -47.516125
0.306752 -38.192697 -48.376455
1.55353 -37.485256 -47.569611
0.985063 -37.904283 -47.938136
-0.904327 -29.270285 -51.191725
-0.796075 -31.119756 -50.679886
-1.538802 -27.762107 -52.140379
-0.904327 -29.270285 -51.191725
-2.147678 -29.762437 -52.015772
-1.446682 -31.447705 -51.092581
-2.099599 -31.584753 -51.519146
-2.128785 -27.997006 -52.531294
-2.147678 -29.762437 -52.015772
-2.781702 -28.134054 -52.957859
-1.538802 -27.762107 -52.140379
-2.128785 -27.997006 -52.531294
-3.238913 -23.305814 -54.807972
-3.299831 -24.964721 -54.31756
-3.730393 -22.020647 -55.64497
-3.132452 -21.765641 -55.291203
-3.238913 -23.305814 -54.807972
-4.754484 -27.023001 -54.537363
-4.071744 -28.582946 -53.655091
-4.790606 -28.837327 -53.98929
-4.598392 -25.260285 -55.069648
-4.754484 -27.023001 -54.537363
-5.317254 -25.514665 -55.403849
-4.499009 -23.656385 -55.548936
-3.936238 -25.164721 -54.682451
-4.598392 -25.260285 -55.069648
-4.765419 -19.170626 -57.451552
-4.15109 -19.055553 -57.068998
-4.238259 -20.595548 -56.510754
-5.278683 -17.746492 -58.344066
-4.765419 -19.170626 -57.451552
-5.365852 -19.286487 -57.785822
-5.70599 -16.390554 -59.204729
-5.278683 -17.746492 -58.344066
-6.532709 -17.847442 -59.038094
-6.067338 -19.294466 -58.196773
-6.720932 -19.279556 -58.55653
-6.10495 -14.984319 -60.037918
-5.70599 -16.390554 -59.204729
-6.278076 -16.456117 -59.511526
-6.454691 -13.764356 -60.795901
-5.882605 -13.698792 -60.489103
-6.10495 -14.984319 -60.037918
-5.594849 -11.273928 -61.380198
-5.499161 -9.899277 -61.915346
-6.113675 -11.410262 -61.655442
-5.594849 -11.273928 -61.380198
-5.71352 -12.342495 -60.971842
3 1 56 54
3 1 58 56
3 207 61 208
3 209 208 59
3 207 208 209
3 211 210 61
3 2 65 63
3 2 67 65
3 212 68 213
3 215 214 68
3 216 70 217
3 4 73 71
3 4 75 73
3 4 77 75
3 6 80 78
3 6 82 80
3 3 218 219
3 220 83 221
3 7 86 84
3 7 88 86
3 222 89 223
3 224 91 225
3 226 225 89
3 224 225 226
3 9 227 229
3 227 93 228
3 227 228 229
3 9 230 232
3 232 231 93
3 230 231 232
3 233 95 234
3 235 97 236
3 237 236 95
3 235 236 237
3 239 238 97
3 8 240 242
3 240 99 241
3 240 241 242
3 8 101 99
3 11 103 102
3 11 105 103
3 5 108 106
3 12 111 109
3 12 243 245
3 245 244 111
3 243 244 245
3 12 246 248
3 246 114 247
3 246 247 248
3 10 117 115
3 10 119 117
3 13 249 250
3 13 251 252
3 14 253 254
3 16 120 55
3 16 121 120
3 16 123 121
3 18 124 57
3 18 125 124
3 19 128 126
3 21 129 60
3 21 255 257
3 257 256 129
3 255 256 257
3 21 258 260
3 258 131 259
3 258 259 260
3 23 132 62
3 23 133 132
3 25 137 135
3 27 138 64
3 27 139 138
3 27 141 139
3 29 142 66
3 29 143 142
3 30 261 262
3 30 263 264
3 30 265 267
3 265 144 266
3 265 266 267
3 268 145 269
3 270 269 69
3 268 269 270
3 271 146 272
3 273 272 145
3 271 272 273
3 31 274 275
3 31 276 277
3 15 278 280
3 278 147 279
3 278 279 280
3 32 148 72
3 32 281 283
3 283 282 148
3 281 282 283
3 32 284 285
3 33 286 288
3 288 287 74
3 286 287 288
3 33 289 290
3 33 291 293
3 291 149 292
3 291 292 293
3 35 150 76
3 35 151 150
3 17 152 122
3 36 153 79
3 36 154 153
3 36 155 154
3 37 156 81
3 37 157 156
3 294 158 295
3 296 159 297
3 298 297 158
3 296 297 298
3 299 160 300
3 302 301 160
3 303 161 304
3 305 163 306
3 307 306 161
3 305 306 307
3 20 308 310
3 310 309 127
3 308 309 310
3 39 311 312
3 39 313 315
3 313 164 314
3 313 314 315
3 22 165 130
3 40 166 85
3 40 167 166
3 40 168 167
3 38 169 87
3 38 162 169
3 42 316 317
3 42 318 320
3 318 171 319
3 318 319 320
3 42 172 171
3 43 173 90
3 43 174 173
3 24 175 134
3 44 176 92
3 44 177 176
3 44 178 177
3 45 179 94
3 45 180 179
3 46 321 323
3 321 181 322
3 321 322 323
3 46 324 326
3 326 325 181
3 324 325 326
3 46 327 329
3 327 182 328
3 327 328 329
3 47 183 96
3 47 184 183
3 47 185 184
3 48 330 332
3 330 186 331
3 330 331 332
3 48 187 186
3 49 188 98
3 49 189 188
3 49 190 189
3 41 191 100
3 41 170 191
3 51 333 335
3 335 334 104
3 333 334 335
3 51 336 337
3 34 338 339
3 52 193 107
3 52 194 193
3 26 195 136
3 53 196 110
3 53 197 196
3 53 198 197
3 341 340 112
3 342 199 343
3 345 344 113
3 346 200 347
3 28 201 140
3 348 202 349
3 350 349 116
3 348 349 350
3 351 203 352
3 353 352 202
3 351 352 353
3 354 204 355
3 356 355 203
3 354 355 356
3 50 205 118
3 50 192 205
3 357 206 358
3 54 55 14
3 56 55 54
3 56 16 55
3 56 57 16
3 58 57 56
3 58 18 57
3 59 60 19
3 61 60 59
3 61 21 60
3 61 62 21
3 359 62 360
3 361 360 61
3 359 360 361
3 362 23 363
3 364 363 62
3 362 363 364
3 63 64 25
3 65 64 63
3 65 27 64
3 65 66 27
3 67 66 65
3 67 29 66
3 68 365 366
3 68 367 369
3 367 30 368
3 367 368 369
3 68 69 30
3 370 69 371
3 372 371 68
3 370 371 372
3 374 373 69
3 70 375 376
3 70 377 379
3 377 31 378
3 377 378 379
3 71 72 15
3 73 72 71
3 73 32 72
3 73 74 32
3 75 74 73
3 75 33 74
3 75 76 33
3 77 76 75
3 77 35 76
3 78 79 17
3 80 79 78
3 80 36 79
3 80 81 36
3 82 81 80
3 82 37 81
3 381 380 20
3 83 382 383
3 83 384 386
3 384 39 385
3 384 385 386
3 84 85 22
3 86 85 84
3 86 40 85
3 86 87 40
3 88 87 86
3 88 38 87
3 89 387 388
3 89 389 391
3 389 42 390
3 389 390 391
3 89 90 42
3 91 90 89
3 91 43 90
3 392 92 393
3 394 393 24
3 392 393 394
3 93 395 397
3 395 92 396
3 395 396 397
3 93 44 92
3 93 94 44
3 398 94 399
3 400 399 93
3 398 399 400
3 401 45 402
3 403 402 94
3 401 402 403
3 95 404 405
3 95 406 408
3 406 46 407
3 406 407 408
3 95 96 46
3 97 96 95
3 97 47 96
3 97 409 411
3 411 410 47
3 409 410 411
3 413 412 97
3 414 48 415
3 416 98 417
3 99 418 420
3 418 98 419
3 418 419 420
3 99 49 98
3 99 100 49
3 101 100 99
3 101 41 100
3 102 421 422
3 103 423 425
3 425 424 102
3 423 424 425
3 103 426 427
3 103 428 430
3 428 104 429
3 428 429 430
3 105 104 103
3 105 51 104
3 106 107 34
3 108 107 106
3 108 52 107
3 109 110 26
3 111 110 109
3 111 53 110
3 111 112 53
3 431 112 432
3 433 432 111
3 431 432 433
3 435 434 112
3 436 113 437
3 114 438 440
3 438 113 439
3 438 439 440
3 114 441 443
3 443 442 113
3 441 442 443
3 115 116 28
3 117 116 115
3 117 444 446
3 446 445 116
3 444 445 446
3 117 447 449
3 447 118 448
3 447 448 449
3 119 118 117
3 119 50 118
3 450 15 451
3 55 452 454
3 454 453 14
3 452 453 454
3 120 455 457
3 457 456 55
3 455 456 457
3 120 458 460
3 458 15 459
3 458 459 460
3 120 71 15
3 121 71 120
3 121 4 71
3 121 122 4
3 123 122 121
3 123 17 122
3 57 123 16
3 124 123 57
3 124 17 123
3 124 78 17
3 125 78 124
3 125 6 78
3 126 127 3
3 128 127 126
3 128 20 127
3 60 128 19
3 129 128 60
3 129 20 128
3 129 461 463
3 463 462 20
3 461 462 463
3 465 464 129
3 466 130 467
3 131 468 470
3 468 130 469
3 468 469 470
3 131 22 130
3 62 131 21
3 132 131 62
3 132 22 131
3 132 84 22
3 133 84 132
3 133 7 84
3 471 134 472
3 473 134 474
3 475 24 476
3 477 476 134
3 475 476 477
3 478 24 479
3 481 480 24
3 482 9 483
3 484 8 485
3 486 102 487
3 488 102 489
3 490 11 491
3 492 491 102
3 490 491 492
3 135 136 5
3 137 136 135
3 137 26 136
3 64 137 25
3 138 137 64
3 138 26 137
3 138 109 26
3 139 109 138
3 139 12 109
3 139 140 12
3 141 140 139
3 141 28 140
3 66 141 27
3 142 141 66
3 142 28 141
3 142 115 28
3 143 115 142
3 143 10 115
3 493 13 494
3 495 3 496
3 497 3 498
3 497 498 499
3 500 126 501
3 502 501 3
3 500 501 502
3 144 503 505
3 503 126 504
3 503 504 505
3 144 19 126
3 69 144 30
3 145 144 69
3 145 19 144
3 145 59 19
3 146 59 145
3 146 506 508
3 508 507 59
3 506 507 508
3 509 70 510
3 147 511 513
3 511 70 512
3 511 512 513
3 147 31 70
3 72 147 15
3 148 147 72
3 148 31 147
3 148 514 516
3 516 515 31
3 514 515 516
3 518 517 148
3 74 519 521
3 521 520 32
3 519 520 521
3 523 522 74
3 149 524 525
3 149 526 528
3 526 34 527
3 526 527 528
3 76 149 33
3 150 149 76
3 150 34 149
3 150 106 34
3 151 106 150
3 151 5 106
3 122 77 4
3 152 77 122
3 152 35 77
3 79 152 17
3 153 152 79
3 153 35 152
3 153 151 35
3 154 151 153
3 154 5 151
3 154 135 5
3 155 135 154
3 155 25 135
3 81 155 36
3 156 155 81
3 156 25 155
3 156 63 25
3 157 63 156
3 157 2 63
3 529 14 530
3 158 531 532
3 158 533 535
3 533 14 534
3 533 534 535
3 158 54 14
3 159 54 158
3 159 1 54
3 536 146 537
3 538 146 539
3 541 540 146
3 542 23 543
3 544 23 545
3 546 133 547
3 548 547 23
3 546 547 548
3 549 133 550
3 551 7 552
3 553 552 133
3 551 552 553
3 160 554 555
3 160 556 558
3 556 7 557
3 556 557 558
3 160 88 7
3 559 88 560
3 561 560 160
3 559 560 561
3 562 38 563
3 564 563 88
3 562 563 564
3 161 565 566
3 161 567 569
3 567 38 568
3 567 568 569
3 161 162 38
3 163 162 161
3 163 0 162
3 127 570 572
3 572 571 3
3 570 571 572
3 574 573 127
3 576 575 20
3 164 577 578
3 164 579 581
3 579 8 580
3 579 580 581
3 130 582 584
3 582 83 583
3 582 583 584
3 165 83 130
3 165 39 83
3 85 165 22
3 166 165 85
3 166 39 165
3 166 164 39
3 167 164 166
3 167 8 164
3 167 101 8
3 168 101 167
3 168 41 101
3 87 168 40
3 169 168 87
3 169 41 168
3 169 170 41
3 162 170 169
3 162 0 170
3 585 159 586
3 587 159 588
3 589 1 590
3 591 590 159
3 589 590 591
3 171 592 593
3 171 594 596
3 594 1 595
3 594 595 596
3 171 58 1
3 172 58 171
3 172 18 58
3 90 172 42
3 173 172 90
3 173 18 172
3 173 125 18
3 174 125 173
3 174 6 125
3 134 597 599
3 597 91 598
3 597 598 599
3 175 91 134
3 175 43 91
3 92 175 24
3 176 175 92
3 176 43 175
3 176 174 43
3 177 174 176
3 177 6 174
3 177 82 6
3 178 82 177
3 178 37 82
3 94 178 44
3 179 178 94
3 179 37 178
3 179 157 37
3 180 157 179
3 180 2 157
3 600 9 601
3 181 602 603
3 181 604 605
3 181 606 607
3 609 608 181
3 610 9 611
3 613 612 9
3 182 614 615
3 182 616 618
3 616 45 617
3 616 617 618
3 96 182 46
3 183 182 96
3 183 45 182
3 183 180 45
3 184 180 183
3 184 2 180
3 184 67 2
3 185 67 184
3 185 29 67
3 619 185 620
3 621 620 47
3 619 620 621
3 186 622 624
3 622 185 623
3 622 623 624
3 186 29 185
3 186 143 29
3 187 143 186
3 187 10 143
3 625 48 626
3 98 627 628
3 188 629 631
3 631 630 98
3 629 630 631
3 188 632 634
3 632 48 633
3 632 633 634
3 188 187 48
3 189 187 188
3 189 10 187
3 189 119 10
3 190 119 189
3 190 50 119
3 100 190 49
3 191 190 100
3 191 50 190
3 191 192 50
3 170 192 191
3 170 0 192
3 104 635 636
3 638 637 104
3 107 639 641
3 641 640 34
3 639 640 641
3 193 642 644
3 644 643 107
3 642 643 644
3 193 645 646
3 193 647 648
3 194 649 651
3 651 650 193
3 649 650 651
3 194 652 654
3 652 11 653
3 652 653 654
3 136 108 5
3 195 108 136
3 195 52 108
3 110 195 26
3 196 195 110
3 196 52 195
3 196 194 52
3 197 194 196
3 197 11 194
3 197 105 11
3 198 105 197
3 198 51 105
3 112 198 53
3 655 198 656
3 657 656 112
3 655 656 657
3 658 51 659
3 660 659 198
3 658 659 660
3 662 661 51
3 199 663 664
3 199 665 666
3 113 667 669
3 667 199 668
3 667 668 669
3 670 199 671
3 672 671 113
3 670 671 672
3 674 673 199
3 200 675 676
3 200 677 679
3 677 13 678
3 677 678 679
3 140 114 12
3 201 114 140
3 201 680 682
3 682 681 114
3 680 681 682
3 116 201 28
3 202 201 116
3 202 683 685
3 685 684 201
3 683 684 685
3 202 686 688
3 686 200 687
3 686 687 688
3 203 200 202
3 203 13 200
3 203 689 691
3 691 690 13
3 689 690 691
3 204 692 694
3 694 693 203
3 692 693 694
3 204 695 696
3 118 697 699
3 697 204 698
3 697 698 699
3 205 204 118
3 205 700 702
3 702 701 204
3 700 701 702
3 205 703 705
3 703 206 704
3 703 704 705
3 192 206 205
3 192 0 206
3 706 163 707
3 206 708 710
3 708 163 709
3 708 709 710
3 206 0 163
