ply
format ascii 1.0
element vertex 133
property float x
property float y
property float z
element face 100
property list uchar int vertex_index
end_header
8.038297 76.455521 -48.535767
9.787875 83.392479 -47.374176
10.779076 70.376343 -50.104755
13.173433 95.469955 -42.175282
11.458139 89.683609 -45.356598
10.39942 77.000694 -49.016449
9.621163 73.604095 -49.418224
11.999143 73.969505 -49.822144
15.826352 95.955452 -42.00098
14.976637 93.271469 -43.837879
12.161475 92.686913 -43.87851
14.131002 90.339096 -45.409489
13.359569 87.361961 -46.644241
10.738596 63.452293 -50.850136
6.442631 79.2911 -47.473331
8.987713 79.934113 -48.079395
11.443811 80.602898 -48.455406
10.639567 86.651993 -46.476181
12.465988 84.109276 -47.665737
12.419922 75.689896 -49.592869
11.199281 75.485099 -49.419297
11.62006 77.20549 -49.190022
13.126934 74.135647 -49.933373
12.419922 75.689896 -49.592869
15.7558 91.977081 -44.570364
16.251252 93.364182 -43.75016
15.332983 90.510895 -45.356169
14.553819 91.805283 -44.623684
15.7558 91.977081 -44.570364
14.99669 88.947185 -46.069487
15.332983 90.510895 -45.356169
11.132364 61.641351 -51.063789
11.846946 63.31282 -50.994641
5.54014 80.487336 -46.855209
5.202856 78.89352 -47.093498
9.387794 81.663296 -47.726785
8.135536 81.242627 -47.509276
8.535617 82.97181 -47.156666
7.625211 74.831814 -48.683627
6.844848 76.175145 -48.202385
9.600136 70.363762 -49.842767
9.021179 71.977638 -49.499502
10.200119 71.990219 -49.761489
10.22569 68.583626 -50.207321
9.600136 70.363762 -49.842767
11.363665 68.711674 -50.388052
10.22569 68.583626 -50.207321
13.618415 96.802853 -41.117086
14.944875 97.045601 -41.029936
14.499892 95.712704 -42.088131
12.260541 96.367363 -41.27014
13.618415 96.802853 -41.117086
11.789198 95.181312 -42.107466
12.260541 96.367363 -41.27014
10.494522 90.81361 -44.54269
10.84619 92.315262 -43.803646
11.809807 91.185261 -44.617554
10.030878 89.395157 -45.153439
10.494522 90.81361 -44.54269
11.048853 88.167801 -45.916389
9.621592 87.879349 -45.71323
10.030878 89.395157 -45.153439
13.664642 84.201324 -47.764239
12.912778 85.735618 -47.154989
14.111433 85.827667 -47.25349
13.121802 82.554176 -48.181521
13.664642 84.201324 -47.764239
8.914913 84.684299 -46.72623
8.535617 82.97181 -47.156666
12.542499 72.382053 -50.110419
11.932465 70.585472 -50.251724
11.389109 72.172924 -49.963449
12.542499 72.382053 -50.110419
13.126934 74.135647 -49.933373
16.67611 94.706173 -42.83171
17.098773 96.099705 -41.775042
15.401495 94.613461 -42.919429
16.67611 94.706173 -42.83171
16.251252 93.364182 -43.75016
14.610974 87.458618 -46.686863
13.745286 88.850528 -46.026865
14.99669 88.947185 -46.069487
14.111433 85.827667 -47.25349
14.610974 87.458618 -46.686863
10.083419 61.585087 -50.929316
9.639796 63.353748 -50.653488
10.083419 61.585087 -50.929316
11.132364 61.641351 -51.063789
6.047016 77.592934 -47.671167
5.202856 78.89352 -47.093498
7.240464 77.873311 -48.004549
6.844848 76.175145 -48.202385
6.047016 77.592934 -47.671167
6.862995 80.92112 -47.206243
5.54014 80.487336 -46.855209
7.715172 79.612606 -47.776363
6.862995 80.92112 -47.206243
8.135536 81.242627 -47.509276
12.142256 79.006592 -48.9095
11.62006 77.20549 -49.190022
10.921615 78.801796 -48.735928
8.416644 73.406101 -49.124855
7.625211 74.831814 -48.683627
8.82973 75.029808 -48.976996
8.416644 73.406101 -49.124855
9.021179 71.977638 -49.499502
10.20545 65.121601 -50.580011
9.639796 63.353748 -50.653488
11.343425 65.249649 -50.760742
10.20545 65.121601 -50.580011
11.846946 63.31282 -50.994641
11.343425 65.249649 -50.760742
11.363665 68.711674 -50.388052
11.932465 70.585472 -50.251724
16.24344 97.216847 -40.902393
17.098773 96.099705 -41.775042
16.24344 97.216847 -40.902393
14.944875 97.045601 -41.029936
11.283219 93.789792 -42.95908
11.789198 95.181312 -42.107466
12.667454 94.078434 -43.026896
11.283219 93.789792 -42.95908
10.84619 92.315262 -43.803646
9.340759 86.314056 -46.277233
9.621592 87.879349 -45.71323
10.213721 85.022236 -46.925179
8.914913 84.684299 -46.72623
9.340759 86.314056 -46.277233
12.610713 80.800987 -48.576355
11.954899 82.356087 -48.060572
13.121802 82.554176 -48.181521
12.142256 79.006592 -48.9095
12.610713 80.800987 -48.576355
3 19 7 20
3 21 20 5
3 19 20 21
3 23 22 7
3 24 9 25
3 26 11 27
3 28 27 9
3 26 27 28
3 30 29 11
3 32 31 13
3 33 14 34
3 1 35 37
3 35 15 36
3 35 36 37
3 1 16 15
3 0 38 39
3 2 40 42
3 42 41 6
3 40 41 42
3 2 43 44
3 2 45 46
3 3 47 49
3 49 48 8
3 47 48 49
3 3 50 51
3 3 52 53
3 4 54 56
3 56 55 10
3 54 55 56
3 4 57 58
3 4 59 61
3 59 17 60
3 59 60 61
3 62 18 63
3 64 63 12
3 62 63 64
3 66 65 18
3 67 1 68
3 5 6 0
3 7 6 5
3 7 2 6
3 7 69 71
3 71 70 2
3 69 70 71
3 73 72 7
3 74 8 75
3 9 76 78
3 76 8 77
3 76 77 78
3 9 3 8
3 9 10 3
3 11 10 9
3 11 4 10
3 11 12 4
3 79 12 80
3 81 80 11
3 79 80 81
3 83 82 12
3 13 84 85
3 87 86 13
3 14 88 89
3 14 90 92
3 90 0 91
3 90 91 92
3 93 14 94
3 15 95 97
3 95 14 96
3 95 96 97
3 15 0 14
3 15 5 0
3 16 5 15
3 16 98 100
3 100 99 5
3 98 99 100
3 6 101 103
3 103 102 0
3 101 102 103
3 105 104 6
3 106 13 107
3 108 13 109
3 111 110 13
3 113 112 2
3 8 114 115
3 117 116 8
3 10 118 120
3 120 119 3
3 118 119 120
3 122 121 10
3 17 123 124
3 17 125 127
3 125 1 126
3 125 126 127
3 12 17 4
3 18 17 12
3 18 1 17
3 18 16 1
3 128 16 129
3 130 129 18
3 128 129 130
3 132 131 16
