ply
format ascii 1.0
element vertex 370
property float x
property float y
property float z
element face 373
property list uchar int vertex_index
end_header
-20.597038 56.571087 -52.50872
-30.611696 69.632652 -46.147949
-22.337431 46.181484 -51.025429
-15.656381 44.229809 -52.352444
-25.055664 79.681992 -49.069157
-25.850475 62.889072 -50.949558
-28.943462 50.868393 -47.705826
-21.577196 52.104603 -51.983803
-19.109072 44.969933 -51.817654
-18.617989 50.932861 -52.412769
-23.522257 86.866959 -47.134373
-32.42952 63.566265 -43.809952
-31.657909 53.53941 -44.877621
-30.280018 60.490906 -47.194698
-27.666294 57.595451 -49.557453
-28.404991 66.675323 -49.020493
-22.991539 39.44389 -49.630043
-19.286303 38.206821 -50.896542
-12.44435 37.510582 -52.59116
-30.016071 78.717819 -44.45285
-25.562683 90.640617 -43.494026
-27.206093 83.300789 -46.130955
-28.182354 75.359734 -47.9063
-25.863533 71.487724 -50.358673
-23.283575 67.167809 -51.824818
-23.079561 59.685081 -52.059589
-25.895142 48.411285 -49.641113
-24.643322 54.417309 -51.110401
-9.409166 38.334316 -53.26984
-21.11426 54.738537 -52.313644
-20.133144 51.60804 -52.252316
-19.71702 54.120792 -52.486156
-31.577841 66.644127 -45.045513
-31.404972 61.827423 -45.670513
-30.552885 65.232376 -46.748466
-29.485106 63.615936 -48.097626
-29.551622 68.24826 -47.719936
-22.704422 42.891777 -50.36858
-21.12929 38.579838 -50.291779
-20.901556 41.871861 -50.904037
-17.329863 44.579933 -52.124805
-17.542717 41.377914 -51.783585
-15.798517 40.951012 -52.109165
-14.018003 40.713737 -52.422291
-23.506897 92.304016 -43.93277
-24.209164 83.406372 -48.273109
-25.43652 85.156822 -46.79446
-26.166262 81.65609 -47.712025
-27.828863 79.51149 -47.026817
-26.731749 77.809975 -48.526932
-27.162319 73.579201 -49.179077
-25.608418 75.594452 -49.787273
-21.256119 72.265289 -51.724701
-23.052486 70.927223 -51.534691
-21.791897 68.428589 -52.051323
-22.002832 64.836464 -52.242771
-30.303427 52.015213 -46.454716
-29.411924 47.13538 -46.625824
-27.788309 45.887436 -47.85984
-26.118477 44.713097 -48.863369
-27.439455 49.706005 -48.791588
-26.836586 60.294838 -50.306664
-26.137745 55.924522 -50.458809
-25.388365 58.749348 -51.084885
-24.00839 57.364517 -51.628372
-24.500025 61.359173 -51.584633
-22.036623 49.441422 -51.560146
-20.702631 45.310886 -51.448853
-20.414408 48.658459 -51.917789
-18.854639 48.045109 -52.165565
-17.155005 47.761784 -52.373627
-22.430431 90.285347 -45.815041
-21.435217 88.13504 -47.318184
-23.885691 77.43206 -50.179352
-32.177246 58.52346 -44.411606
-31.028494 56.986603 -46.074013
-29.819754 56.030151 -47.457172
-28.428303 54.349796 -48.631424
-29.044476 58.864475 -48.460003
-28.277042 62.035664 -49.263485
-27.147003 64.775856 -50.114426
-19.205109 41.638191 -51.397293
-31.477873 71.563553 -44.273594
-20.693769 59.257397 -52.546005
-31.255253 75.833107 -43.312508
-30.436171 74.330063 -45.33255
-24.546358 88.903976 -45.449787
-26.350424 87.074554 -45.037495
-27.971298 85.25827 -44.24707
-28.701893 81.325821 -45.289219
-29.175785 76.996353 -46.324474
-29.49456 72.511276 -47.109055
-28.424501 71.041679 -48.533184
-27.253 69.452614 -49.720451
-26.008495 67.115936 -50.721592
-24.320526 73.254951 -50.812355
-24.655886 69.056564 -51.210629
-24.613167 65.261009 -51.484943
-23.394396 63.319344 -51.967876
-21.971491 61.288757 -52.345383
-21.735699 57.949486 -52.357056
-24.732088 40.187469 -48.843742
-24.493193 43.954697 -49.692688
-24.081144 47.186356 -50.435101
-26.866133 53.019619 -49.671776
-25.240274 51.435596 -50.459206
-23.615648 50.338448 -51.091991
-23.154848 53.490417 -51.631927
-22.482819 55.892414 -52.056259
-15.586492 47.777466 -52.5168
-14.069263 44.323055 -52.549976
-7.791706 38.78508 -53.603386
-22.419849 92.883163 -44.076842
-22.909141 93.834805 -43.094309
-20.902229 68.941647 -52.097692
-21.524008 70.346939 -51.888012
-20.634341 70.859996 -51.934382
-21.151359 67.207954 -52.211954
-20.902229 68.941647 -52.097692
-20.272962 88.518616 -47.366962
-20.850552 89.69292 -46.648306
-32.303383 61.044863 -44.110779
-32.65559 59.093224 -43.510599
-32.781727 61.614626 -43.209772
-22.091135 37.343249 -49.647604
-22.951798 37.596914 -49.284378
-19.321948 36.451135 -50.604433
-20.243442 36.637644 -50.302052
-20.207797 38.39333 -50.594161
-18.426082 36.316486 -50.897383
-19.321948 36.451135 -50.604433
-17.537843 39.654485 -51.586058
-16.710021 39.565259 -51.794052
-12.482421 35.948995 -52.495128
-13.319088 37.502915 -52.389721
-11.616174 35.905758 -52.746075
-12.482421 35.948995 -52.495128
-31.873771 72.214859 -43.196546
-31.926148 69.97591 -43.734072
-20.040827 59.627673 -52.588527
-20.688309 60.874679 -52.527094
-30.635662 77.275463 -43.882679
-31.005499 77.922004 -42.859696
-30.385908 79.364361 -43.429867
-25.962353 91.435108 -42.414129
-25.059024 92.253971 -42.690242
-26.376055 89.820141 -43.173595
-25.962353 91.435108 -42.414129
-23.495944 74.087772 -50.934055
-24.103109 75.343506 -50.495853
-23.278526 76.176327 -50.617554
-21.327171 61.89036 -52.426783
-21.987161 63.062611 -52.294077
-21.342841 63.664213 -52.375477
-20.688309 60.874679 -52.527094
-21.33263 60.273077 -52.445694
-21.327171 61.89036 -52.426783
-31.903532 51.640938 -44.271282
-32.247137 54.128933 -43.978184
-25.564653 40.581785 -48.387332
-24.754871 38.270014 -48.421272
-15.444641 49.440195 -52.560477
-16.311238 49.428789 -52.530701
-13.214084 44.420091 -52.633333
-13.974283 46.00975 -52.58285
-13.26114 42.680843 -52.620468
-13.214084 44.420091 -52.633333
-10.195422 38.14996 -53.098162
-10.132857 39.851938 -53.100205
-9.358493 36.680965 -53.316752
-10.195422 38.14996 -53.098162
-7.020256 39.041882 -53.748365
-7.667056 40.305445 -53.477026
-6.895606 40.562246 -53.622006
-15.837921 39.351809 -51.956842
-16.710021 39.565259 -51.794052
-16.670617 41.164463 -51.946375
-14.996171 39.223129 -52.148724
-15.837921 39.351809 -51.956842
-14.105915 39.104492 -52.305287
-14.996171 39.223129 -52.148724
-14.90826 40.832375 -52.265728
-13.231177 39.11216 -52.506726
-13.319088 37.502915 -52.389721
-14.105915 39.104492 -52.305287
-29.734443 80.82531 -43.894718
-30.385908 79.364361 -43.429867
-24.031131 93.08567 -42.909615
-22.909141 93.834805 -43.094309
-24.53479 91.472317 -43.713398
-25.059024 92.253971 -42.690242
-24.031131 93.08567 -42.909615
-22.154303 71.596256 -51.629696
-22.861924 72.923908 -51.295224
-21.963741 73.592941 -51.390229
-21.256826 65.411892 -52.307678
-21.897365 66.632527 -52.147047
-21.151359 67.207954 -52.211954
-21.342841 63.664213 -52.375477
-21.256826 65.411892 -52.307678
-30.573507 50.114025 -45.83703
-31.250749 50.876123 -45.048483
-30.980668 52.777311 -45.666168
-30.127756 47.674109 -45.922584
-30.573507 50.114025 -45.83703
-29.857675 49.575297 -46.54027
-29.595787 45.248801 -46.060196
-30.127756 47.674109 -45.922584
-28.78424 44.68045 -46.718626
-29.595787 45.248801 -46.060196
-27.972433 44.056478 -47.335634
-28.78424 44.68045 -46.718626
-28.600116 46.511408 -47.242832
-27.092764 43.431769 -47.895381
-27.972433 44.056478 -47.335634
-26.953393 45.300266 -48.361604
-26.257848 42.844599 -48.397146
-27.092764 43.431769 -47.895381
-9.331726 39.986847 -53.205065
-10.132857 39.851938 -53.100205
-21.348158 90.768074 -45.896735
-21.881616 91.873829 -45.017977
-21.932824 89.210194 -46.566613
-21.348158 90.768074 -45.896735
-20.850552 89.69292 -46.648306
-20.765079 86.922733 -47.983973
-20.272962 88.518616 -47.366962
-21.838923 86.472473 -47.917242
-20.765079 86.922733 -47.983973
-22.882444 85.838432 -47.825336
-22.478737 87.501 -47.226278
-21.838923 86.472473 -47.917242
-23.225897 84.108139 -48.394705
-23.86571 85.136665 -47.703741
-22.882444 85.838432 -47.825336
-23.653316 82.311753 -48.87376
-23.225897 84.108139 -48.394705
-24.076566 80.449562 -49.271784
-24.632414 81.544182 -48.671133
-23.653316 82.311753 -48.87376
-23.491579 79.324597 -49.826881
-24.470678 78.557026 -49.624254
-24.076566 80.449562 -49.271784
-22.908372 78.138096 -50.303992
-23.491579 79.324597 -49.826881
-23.278526 76.176327 -50.617554
-22.908372 78.138096 -50.303992
-21.027002 74.224529 -51.450283
-21.963741 73.592941 -51.390229
-20.355214 72.715439 -51.736852
-21.027002 74.224529 -51.450283
-20.634341 70.859996 -51.934382
-20.355214 72.715439 -51.736852
-32.506805 56.620958 -43.745176
-32.65559 59.093224 -43.510599
-31.917578 56.031435 -44.644613
-32.247137 54.128933 -43.978184
-32.506805 56.620958 -43.745176
-21.16001 36.911223 -49.978472
-22.091135 37.343249 -49.647604
-22.060415 39.011864 -49.960911
-21.16001 36.911223 -49.978472
-20.243442 36.637644 -50.302052
-18.369039 39.784624 -51.392912
-18.373913 41.508052 -51.590439
-17.537843 39.654485 -51.586058
-18.409636 38.068939 -51.142536
-19.245706 39.922506 -51.146918
-18.369039 39.784624 -51.392912
-18.426082 36.316486 -50.897383
-18.409636 38.068939 -51.142536
-32.847378 64.144182 -42.815636
-32.781727 61.614626 -43.209772
-32.401972 65.977266 -43.502251
-32.847378 64.144182 -42.815636
-31.976132 67.516198 -44.120031
-32.003681 65.105196 -44.427733
-32.401972 65.977266 -43.502251
-31.527857 69.10384 -44.659554
-31.976132 67.516198 -44.120031
-31.926148 69.97591 -43.734072
-20.110894 58.058229 -52.577116
-20.062528 56.715075 -52.558473
-20.645404 57.914242 -52.527362
-20.110894 58.058229 -52.577116
-20.040827 59.627673 -52.588527
-31.582721 76.482861 -42.217468
-31.005499 77.922004 -42.859696
-31.762461 74.349636 -42.716003
-31.582721 76.482861 -42.217468
-31.366563 73.69833 -43.793051
-31.873771 72.214859 -43.196546
-31.762461 74.349636 -42.716003
-22.968664 91.294681 -44.873905
-22.419849 92.883163 -44.076842
-21.881616 91.873829 -45.017977
-26.769925 88.037109 -43.94533
-26.376055 89.820141 -43.173595
-25.956553 88.857585 -44.26576
-27.580362 87.128967 -43.550117
-26.769925 88.037109 -43.94533
-27.160861 86.166412 -44.642283
-28.33894 86.073375 -43.170229
-27.580362 87.128967 -43.550117
-28.712057 84.095535 -43.791828
-28.33894 86.073375 -43.170229
-29.077354 82.129311 -44.312902
-28.712057 84.095535 -43.791828
-28.336596 83.292046 -44.768145
-29.358982 80.02182 -44.871035
-29.734443 80.82531 -43.894718
-29.077354 82.129311 -44.312902
-23.686506 72.091087 -51.173523
-23.495944 74.087772 -50.934055
-22.861924 72.923908 -51.295224
-31.903532 51.640938 -44.271282
-31.250749 50.876123 -45.048483
-23.822073 37.968704 -48.891227
-24.754871 38.270014 -48.421272
-23.861814 39.81568 -49.236892
-22.951798 37.596914 -49.284378
-23.822073 37.968704 -48.891227
-25.425283 42.450283 -48.853555
-25.564653 40.581785 -48.387332
-26.257848 42.844599 -48.397146
-19.62252 55.489927 -52.547191
-20.157029 55.34594 -52.497438
-20.062528 56.715075 -52.558473
-19.035721 54.076643 -52.536394
-19.62252 55.489927 -52.547191
-18.486206 52.482678 -52.499701
-19.167504 52.526826 -52.449462
-19.035721 54.076643 -52.536394
-17.826987 51.006487 -52.478685
-18.486206 52.482678 -52.499701
-17.095495 49.420948 -52.459114
-17.886497 49.347323 -52.393198
-17.826987 51.006487 -52.478685
-16.370748 47.769625 -52.445214
-17.095495 49.420948 -52.459114
-16.311238 49.428789 -52.530701
-14.732898 47.736955 -52.566262
-15.444641 49.440195 -52.560477
-14.827877 46.05026 -52.533388
-14.732898 47.736955 -52.566262
-13.974283 46.00975 -52.58285
-13.23551 40.876184 -52.556625
-14.043633 42.518396 -52.486134
-13.26114 42.680843 -52.620468
-12.448683 39.274607 -52.64106
-13.231177 39.11216 -52.506726
-13.23551 40.876184 -52.556625
-11.713014 37.738093 -52.758821
-12.448683 39.274607 -52.64106
-11.616174 35.905758 -52.746075
-11.713014 37.738093 -52.758821
-8.522996 40.212229 -53.371837
-7.667056 40.305445 -53.477026
-8.600436 38.559698 -53.436613
-9.331726 39.986847 -53.205065
-8.522996 40.212229 -53.371837
-7.06447 37.472725 -53.932243
-7.020256 39.041882 -53.748365
-7.821702 37.160475 -53.704775
-7.06447 37.472725 -53.932243
-8.630433 36.935093 -53.538002
-8.600436 38.559698 -53.436613
-7.821702 37.160475 -53.704775
-9.358493 36.680965 -53.316752
-8.630433 36.935093 -53.538002
3 0 31 29
3 1 34 32
3 1 36 34
3 2 39 37
3 3 42 40
3 3 43 42
3 112 44 113
3 4 47 45
3 4 49 47
3 4 51 49
3 114 54 115
3 116 115 52
3 114 115 116
3 118 117 54
3 6 57 56
3 6 58 57
3 6 60 58
3 5 63 61
3 5 65 63
3 7 68 66
3 9 69 30
3 9 70 69
3 119 72 120
3 11 121 123
3 121 74 122
3 121 122 123
3 13 75 33
3 13 76 75
3 13 78 76
3 15 79 35
3 15 80 79
3 16 124 125
3 17 126 128
3 128 127 38
3 126 127 128
3 17 129 130
3 8 81 67
3 132 131 41
3 18 133 134
3 18 135 136
3 137 82 138
3 140 139 83
3 19 141 143
3 141 84 142
3 141 142 143
3 19 85 84
3 20 144 145
3 20 146 147
3 10 86 71
3 21 87 46
3 21 88 87
3 21 89 88
3 22 90 48
3 22 91 90
3 22 92 91
3 23 93 50
3 23 94 93
3 148 95 149
3 150 149 73
3 148 149 150
3 24 96 53
3 24 97 96
3 24 98 97
3 151 99 152
3 153 152 55
3 151 152 153
3 154 83 155
3 156 155 99
3 154 155 156
3 12 157 158
3 159 101 160
3 26 102 59
3 26 103 102
3 14 104 77
3 27 105 62
3 27 106 105
3 27 107 106
3 25 108 64
3 25 100 108
3 161 109 162
3 163 110 164
3 166 165 110
3 28 167 168
3 28 169 170
3 171 111 172
3 171 172 173
3 29 30 7
3 31 30 29
3 31 9 30
3 32 33 11
3 34 33 32
3 34 13 33
3 34 35 13
3 36 35 34
3 36 15 35
3 37 38 16
3 39 38 37
3 39 17 38
3 40 41 8
3 42 41 40
3 42 174 176
3 176 175 41
3 174 175 176
3 42 177 178
3 43 179 181
3 181 180 42
3 179 180 181
3 43 182 184
3 182 18 183
3 182 183 184
3 185 19 186
3 44 187 188
3 44 189 191
3 189 20 190
3 189 190 191
3 45 46 10
3 47 46 45
3 47 21 46
3 47 48 21
3 49 48 47
3 49 22 48
3 49 50 22
3 51 50 49
3 51 23 50
3 52 192 194
3 192 53 193
3 192 193 194
3 54 53 52
3 54 24 53
3 54 55 24
3 195 55 196
3 197 196 54
3 195 196 197
3 199 198 55
3 56 200 202
3 202 201 12
3 200 201 202
3 57 203 205
3 205 204 56
3 203 204 205
3 57 206 207
3 57 208 209
3 58 210 212
3 212 211 57
3 210 211 212
3 58 213 214
3 58 215 217
3 215 59 216
3 215 216 217
3 60 59 58
3 60 26 59
3 61 62 14
3 63 62 61
3 63 27 62
3 63 64 27
3 65 64 63
3 65 25 64
3 218 28 219
3 66 67 2
3 68 67 66
3 68 8 67
3 30 68 7
3 69 68 30
3 69 8 68
3 69 40 8
3 70 40 69
3 70 3 40
3 220 71 221
3 72 222 224
3 222 71 223
3 222 223 224
3 72 10 71
3 225 72 226
3 227 72 228
3 229 10 230
3 231 230 72
3 229 230 231
3 232 45 233
3 234 233 10
3 232 233 234
3 235 45 236
3 237 4 238
3 239 238 45
3 237 238 239
3 240 73 241
3 242 241 4
3 240 241 242
3 243 73 244
3 246 245 73
3 247 52 248
3 249 52 250
3 252 251 52
3 74 253 254
3 74 255 257
3 255 12 256
3 255 256 257
3 33 74 11
3 75 74 33
3 75 12 74
3 75 56 12
3 76 56 75
3 76 6 56
3 76 77 6
3 78 77 76
3 78 14 77
3 35 78 13
3 79 78 35
3 79 14 78
3 79 61 14
3 80 61 79
3 80 5 61
3 38 258 260
3 260 259 16
3 258 259 260
3 262 261 38
3 67 39 2
3 81 39 67
3 81 17 39
3 41 81 8
3 263 81 264
3 265 264 41
3 263 264 265
3 266 17 267
3 268 267 81
3 266 267 268
3 270 269 17
3 271 11 272
3 273 11 274
3 275 32 276
3 277 276 11
3 275 276 277
3 82 278 280
3 278 32 279
3 278 279 280
3 82 1 32
3 83 281 283
3 283 282 0
3 281 282 283
3 285 284 83
3 84 286 287
3 84 288 289
3 84 290 292
3 290 82 291
3 290 291 292
3 85 82 84
3 85 1 82
3 71 293 295
3 293 44 294
3 293 294 295
3 86 44 71
3 86 20 44
3 46 86 10
3 87 86 46
3 87 20 86
3 87 296 298
3 298 297 20
3 296 297 298
3 88 299 301
3 301 300 87
3 299 300 301
3 88 302 303
3 88 304 305
3 89 306 308
3 308 307 88
3 306 307 308
3 89 309 311
3 309 19 310
3 309 310 311
3 48 89 21
3 90 89 48
3 90 19 89
3 90 85 19
3 91 85 90
3 91 1 85
3 91 36 1
3 92 36 91
3 92 15 36
3 50 92 22
3 93 92 50
3 93 15 92
3 93 80 15
3 94 80 93
3 94 5 80
3 73 51 4
3 95 51 73
3 95 23 51
3 53 312 314
3 312 95 313
3 312 313 314
3 96 95 53
3 96 23 95
3 96 94 23
3 97 94 96
3 97 5 94
3 97 65 5
3 98 65 97
3 98 25 65
3 55 98 24
3 99 98 55
3 99 25 98
3 99 100 25
3 83 100 99
3 83 0 100
3 316 315 12
3 101 317 318
3 101 319 321
3 319 16 320
3 319 320 321
3 59 322 324
3 322 101 323
3 322 323 324
3 102 101 59
3 102 16 101
3 102 37 16
3 103 37 102
3 103 2 37
3 77 60 6
3 104 60 77
3 104 26 60
3 62 104 14
3 105 104 62
3 105 26 104
3 105 103 26
3 106 103 105
3 106 2 103
3 106 66 2
3 107 66 106
3 107 7 66
3 64 107 27
3 108 107 64
3 108 7 107
3 108 29 7
3 100 29 108
3 100 0 29
3 325 31 326
3 327 326 0
3 325 326 327
3 328 31 329
3 330 9 331
3 332 331 31
3 330 331 332
3 333 9 334
3 335 70 336
3 337 336 9
3 335 336 337
3 109 338 340
3 338 70 339
3 338 339 340
3 109 3 70
3 341 109 342
3 110 343 345
3 343 109 344
3 343 344 345
3 110 3 109
3 110 43 3
3 346 43 347
3 348 347 110
3 346 347 348
3 349 18 350
3 351 350 43
3 349 350 351
3 352 18 353
3 355 354 18
3 111 356 357
3 111 358 360
3 358 28 359
3 358 359 360
3 361 111 362
3 363 111 364
3 365 28 366
3 367 366 111
3 365 366 367
3 369 368 28
