ply
format ascii 1.0
element vertex 97
property float x
property float y
property float z
element face 76
property list uchar int vertex_index
end_header
-10.481638 85.392593 -33.229332
-6.402965 89.594193 -35.379047
-5.412499 93.887039 -32.055031
-7.174828 84.725716 -37.473694
-7.774937 91.817268 -31.359959
-8.98012 82.595497 -36.327492
-8.749706 85.267235 -35.498844
-4.080266 91.517609 -36.20298
-4.651441 89.119644 -37.483986
-8.608879 87.626839 -34.254837
-5.918275 91.831856 -33.902725
-7.203148 82.117836 -38.389534
-5.339705 83.958374 -39.515793
-6.780218 87.277794 -36.57077
-5.014595 86.543365 -38.665421
-9.615672 85.329914 -34.364088
-9.628671 84.204842 -34.877264
-10.494637 84.267521 -33.742508
-3.191413 91.262623 -37.19824
-2.782904 92.47411 -36.53667
-11.296239 84.256958 -32.615234
-11.254475 85.37424 -32.077107
-10.494637 84.267521 -33.742508
-11.296239 84.256958 -32.615234
-4.437693 93.85595 -33.30181
-4.690581 92.828358 -34.225656
-5.665387 92.859448 -32.978878
-3.870347 87.450024 -39.116591
-4.833018 87.831504 -38.074703
-3.68877 88.738163 -38.525873
-4.114889 86.005714 -39.648743
-3.870347 87.450024 -39.116591
-8.643545 91.586772 -30.133063
-8.836761 90.66272 -31.042098
-7.459125 92.742546 -30.464436
-8.643545 91.586772 -30.133063
-6.277906 93.777432 -30.811972
-6.593718 92.852154 -31.707495
-7.459125 92.742546 -30.464436
-9.743879 82.868972 -35.291588
-9.76402 81.553653 -35.648966
-8.864913 83.931366 -35.913168
-9.743879 82.868972 -35.291588
-9.628671 84.204842 -34.877264
-3.477 90.06364 -37.838743
-4.365854 90.318626 -36.843483
-3.191413 91.262623 -37.19824
-3.68877 88.738163 -38.525873
-3.477 90.06364 -37.838743
-9.415976 87.607769 -33.167029
-9.545258 86.509716 -33.742085
-10.352355 86.490646 -32.654276
-8.342842 88.764836 -33.661515
-9.415976 87.607769 -33.167029
-7.239885 89.748513 -34.223619
-7.505922 88.610516 -34.816942
-8.342842 88.764836 -33.661515
-7.925871 90.86005 -32.214075
-8.836761 90.66272 -31.042098
-6.99754 90.867344 -33.485459
-7.925871 90.86005 -32.214075
-6.846606 91.824562 -32.631342
-6.16062 90.713025 -34.640886
-7.239885 89.748513 -34.223619
-6.99754 90.867344 -33.485459
-3.771576 92.671234 -35.375784
-4.99927 91.674733 -35.052853
-4.690581 92.828358 -34.225656
-2.782904 92.47411 -36.53667
-3.771576 92.671234 -35.375784
-10.352355 86.490646 -32.654276
-11.254475 85.37424 -32.077107
-8.961498 81.340145 -36.67412
-9.76402 81.553653 -35.648966
-8.073012 81.101315 -37.705141
-8.961498 81.340145 -36.67412
-8.091634 82.356666 -37.358513
-7.293288 80.70063 -38.627331
-8.073012 81.101315 -37.705141
-6.396732 81.556297 -39.298811
-7.293288 80.70063 -38.627331
-5.465011 82.476567 -39.861941
-6.396732 81.556297 -39.298811
-6.271427 83.038105 -38.952663
-4.5218 83.341679 -40.389544
-5.465011 82.476567 -39.861941
-4.277444 84.713219 -40.073929
-5.17715 85.250869 -39.090607
-4.114889 86.005714 -39.648743
-4.5218 83.341679 -40.389544
-4.277444 84.713219 -40.073929
-5.035329 94.834122 -31.059624
-6.277906 93.777432 -30.811972
-4.131297 94.882602 -32.316175
-5.035329 94.834122 -31.059624
-4.437693 93.85595 -33.30181
-4.131297 94.882602 -32.316175
3 0 15 17
3 15 6 16
3 15 16 17
3 19 18 7
3 0 20 21
3 0 22 23
3 2 10 4
3 2 24 26
3 26 25 10
3 24 25 26
3 3 11 5
3 3 12 11
3 1 13 9
3 27 14 28
3 29 28 8
3 27 28 29
3 31 30 14
3 32 4 33
3 34 4 35
3 36 2 37
3 38 37 4
3 36 37 38
3 39 5 40
3 6 41 43
3 41 5 42
3 41 42 43
3 6 3 5
3 7 8 1
3 44 8 45
3 46 45 7
3 44 45 46
3 48 47 8
3 49 9 50
3 51 50 0
3 49 50 51
3 52 9 53
3 54 1 55
3 56 55 9
3 54 55 56
3 4 57 58
3 10 59 61
3 61 60 4
3 59 60 61
3 10 62 64
3 62 1 63
3 62 63 64
3 10 7 1
3 65 7 66
3 67 66 10
3 65 66 67
3 69 68 7
3 70 0 71
3 5 72 73
3 11 74 76
3 76 75 5
3 74 75 76
3 11 77 78
3 11 79 80
3 12 81 83
3 83 82 11
3 81 82 83
3 12 84 85
3 9 6 0
3 13 6 9
3 13 3 6
3 8 13 1
3 14 13 8
3 14 3 13
3 14 12 3
3 86 12 87
3 88 87 14
3 86 87 88
3 90 89 12
3 91 2 92
3 93 2 94
3 96 95 2
