ply
format ascii 1.0
element vertex 660
property float x
property float y
property float z
element face 723
property list uchar int vertex_index
end_header
4.556847 -77.972031 21.683914
8.292495 -95.001648 -18.426027
14.680948 -81.398109 2.794076
2.895946 -99.579781 -27.007856
16.645842 -74.304939 14.295378
10.018136 -81.161591 12.345955
7.131131 -89.426086 1.209792
2.171983 -86.858414 11.187823
16.919661 -84.011948 -17.351959
22.104193 -76.273903 -25.493099
13.188255 -88.939308 -26.858818
12.144599 -88.329781 -8.333129
3.267058 -97.277924 -8.975891
8.074618 -75.570877 22.476036
10.867502 -77.118652 17.930565
7.208592 -79.92868 17.052505
6.206706 -84.256226 11.456789
3.678247 -82.327332 16.401276
12.886164 -89.596436 -17.975365
15.469126 -86.381912 -22.243086
10.76591 -92.408165 -22.767445
-4.946481 -79.168488 26.826027
15.774867 -77.841156 8.559192
18.786829 -73.720909 9.426918
16.935904 -80.127853 -1.898264
15.840882 -83.422676 -7.643093
13.489575 -84.932106 -2.903185
2.868836 -92.875671 0.793316
5.314561 -93.41188 -3.950365
0.770129 -97.083694 -4.3232
-1.37715 -100.678131 -8.907367
3.377088 -99.730598 -18.349476
5.921105 -97.601181 -22.914206
0.516593 -102.174438 -22.608046
14.086444 -74.201881 18.804699
13.479645 -77.841354 13.400393
12.38898 -81.725433 7.630514
11.225373 -85.514168 1.785833
8.759105 -85.250999 6.744955
4.663432 -88.502029 6.213496
0.323408 -91.455803 5.94943
20.627153 -78.05249 -16.474716
22.983088 -74.669159 -20.450842
19.525682 -80.417 -21.332428
17.835657 -82.692017 -26.305971
8.306421 -94.541962 -27.213413
-1.60715 -77.459763 26.490438
0.942345 -80.180458 21.213133
-0.339501 -84.666565 16.190458
-1.902687 -89.26403 11.116406
19.646767 -70.402939 14.828549
18.128838 -81.177673 -12.073897
14.503583 -86.599838 -12.908927
10.462972 -91.773712 -13.742796
9.702575 -89.333221 -3.701941
7.775513 -93.183891 -8.855747
5.772447 -96.685654 -13.911062
25.678474 -70.236252 -24.562843
6.376801 -76.826546 21.977724
7.649915 -77.72757 19.837341
5.867594 -79.006668 19.385729
5.443224 -81.136818 16.730644
3.994716 -80.180443 19.118591
10.646975 -92.361099 -18.324572
11.883144 -91.046211 -20.493414
9.529012 -93.822456 -20.630737
-7.468681 -82.233231 24.825682
15.134162 -79.716515 5.732095
16.237604 -79.242836 3.451164
17.418453 -78.508064 0.948471
15.861422 -80.771881 0.541736
15.336744 -82.499954 -2.473934
14.162504 -83.092628 -0.039081
0.672978 -94.439499 0.683679
1.904275 -94.990768 -1.831446
-0.435586 -96.52034 -1.715357
-1.482029 -98.484116 -4.131856
-2.739499 -97.902901 -1.651915
0.939102 -101.700386 -18.149654
2.154998 -100.947998 -20.540892
-0.391738 -102.86908 -20.286495
12.805054 -73.792435 20.925533
10.358059 -79.157539 15.262044
12.136264 -77.695915 15.575212
11.702973 -79.594681 12.873517
12.881127 -79.893738 10.459873
11.095681 -81.724159 9.872513
10.529221 -83.613434 7.141009
9.323923 -83.195343 9.698796
4.194274 -85.504692 11.42566
5.545912 -86.328865 8.834258
3.519807 -87.755188 8.623722
2.514675 -90.099663 5.913596
1.405023 -89.073021 8.591994
18.801405 -81.066231 -16.817284
20.007652 -79.436417 -18.852571
18.137707 -82.432999 -19.538263
14.483176 -87.60083 -24.546782
16.667393 -84.593636 -24.408291
4.359415 -98.81958 -24.975027
7.089041 -96.220184 -25.136724
5.541693 -97.26049 -27.214584
-3.801688 -80.55378 24.172806
-3.284778 -78.265938 26.703346
-2.081217 -79.735886 23.934332
-0.266466 -78.836266 23.794018
-0.85991 -81.104668 21.27309
0.343334 -82.351128 18.774612
-2.932927 -91.685745 8.474055
17.033602 -72.463951 17.063234
18.149811 -72.400398 14.67508
14.049194 -85.901939 -8.005527
15.263936 -84.916153 -10.207376
13.372685 -87.54776 -10.795903
12.434216 -89.34037 -13.309693
11.238386 -90.161766 -10.948423
9.264301 -87.495499 1.454726
10.442208 -87.430748 -0.870598
8.435354 -89.46888 -1.217242
4.467087 -95.32592 -6.654036
6.599729 -93.380867 -6.45061
5.656413 -95.26152 -9.079709
6.910342 -94.897903 -11.462662
4.559561 -97.074951 -11.46461
3.534567 -98.731262 -14.05277
2.24718 -99.004364 -11.44257
22.632225 -75.46788 -23.09421
24.386555 -72.422211 -22.435818
23.962822 -73.224174 -24.981594
9.790133 -74.391914 22.791718
11.176622 -75.129051 20.594982
9.407316 -76.468987 20.223345
9.017387 -78.544365 17.533432
8.640066 -80.664276 14.660139
8.105735 -82.806152 11.812702
6.786218 -82.110504 14.192109
4.981998 -83.316437 13.969349
2.953136 -84.568016 13.823001
15.035872 -86.747894 -17.827045
16.166517 -85.351723 -19.893585
14.026328 -88.300919 -20.200834
13.125701 -89.50116 -22.596809
12.013547 -90.744431 -24.850052
4.071251 -97.892723 -29.076189
-5.641798 -81.391731 24.50997
-4.40045 -82.852165 21.64559
-3.31744 -84.29068 18.924057
16.281033 -75.985771 11.564218
17.801491 -74.123764 11.735315
17.310932 -75.760956 9.185135
14.702277 -84.21656 -5.227304
12.828459 -86.64225 -5.609871
5.09041 -91.228706 0.823478
6.372155 -91.411316 -1.56282
4.142495 -93.225838 -1.630421
3.110531 -95.333687 -4.273074
2.128168 -97.168877 -6.583265
0.967411 -99.038475 -8.906091
-0.193065 -98.847855 -6.584625
-2.720372 -100.418465 -6.468906
21.216982 -77.353386 -27.787317
23.293398 -74.115013 -27.414692
5.774169 -97.567749 -18.554779
7.087677 -96.446419 -20.795265
4.621442 -98.829239 -20.688709
3.297669 -99.982513 -22.728134
1.841033 -100.927475 -24.729956
15.79212 -72.499069 19.142231
15.41383 -74.358978 16.569731
12.522875 -75.732986 18.301617
13.786672 -76.060036 16.124001
15.082728 -76.254753 13.609574
14.607987 -78.009796 10.975779
14.126018 -79.75872 8.232207
13.596472 -81.633461 5.188312
12.994175 -83.520676 2.220807
11.846119 -83.564766 4.789122
9.95638 -85.57914 4.178981
8.003308 -87.409637 3.783667
7.44738 -84.869041 9.133288
6.777683 -86.971725 6.314181
6.009265 -89.001572 3.679561
3.934412 -90.640434 3.416719
1.644017 -92.241867 3.328893
-0.610599 -93.619659 3.416801
6.618507 -74.739693 24.540266
5.05952 -75.776573 24.211088
22.145823 -75.288582 -15.709308
23.433336 -73.456734 -17.896551
21.846567 -76.330986 -18.426727
21.317543 -77.527519 -20.962931
20.743635 -78.544395 -23.349962
17.518753 -83.462769 -21.999548
18.837978 -81.465019 -23.847012
20.022552 -79.515762 -25.745384
19.11277 -80.487709 -28.066036
8.511967 -94.953316 -22.899157
9.622242 -93.551872 -24.947657
10.818671 -91.791481 -27.064262
6.980443 -95.209457 -29.249887
9.643164 -92.457283 -29.252613
3.259083 -76.828781 24.01531
0.213591 -76.562584 26.352076
1.50071 -77.895432 23.798929
2.712268 -79.063217 21.479242
2.320598 -81.236061 18.864798
1.674891 -83.472359 16.309813
0.945323 -85.707954 13.803818
0.089496 -88.047165 11.221143
-0.704974 -90.324348 8.599986
-1.724772 -92.642212 6.009581
19.226166 -72.016983 12.329682
19.332655 -79.730499 -14.191824
17.603743 -82.57151 -14.824482
17.074009 -82.233978 -9.813203
16.406734 -83.83918 -12.380869
15.737069 -85.343613 -15.03654
13.793812 -88.065125 -15.511607
11.737912 -90.721001 -15.921367
9.45041 -93.414322 -16.171442
12.357418 -85.356544 -0.623937
11.619289 -87.201653 -3.338999
10.812886 -89.053009 -6.00852
7.606184 -91.434532 -3.979192
8.706798 -91.373131 -6.409156
9.941121 -90.888733 -8.619164
9.139917 -92.579643 -11.287433
8.192605 -94.243851 -13.736418
7.059344 -95.934555 -16.166784
4.609113 -98.293709 -16.255331
2.190173 -100.341087 -16.080294
-0.290234 -100.891022 -11.357056
24.622719 -71.674568 -19.925697
25.2113 -70.961082 -26.980335
26.960142 -67.912994 -26.504644
-1.008489 -96.138611 -0.425592
0.118696 -95.479919 -0.515839
-0.454207 -95.098191 0.773926
-2.160445 -96.829892 -0.393871
-1.587542 -97.211621 -1.683636
-1.008489 -96.138611 -0.425592
-0.996662 -103.195805 -19.179532
0.273682 -102.284733 -19.218075
-0.331242 -102.611458 -18.111111
12.090113 -73.478535 22.037846
12.92192 -72.807984 22.178578
14.373423 -87.394936 -26.738579
15.020884 -86.725696 -25.582561
13.835715 -88.270069 -25.7028
13.828332 -87.874909 -27.786876
14.373423 -87.394936 -26.738579
-2.324518 -80.866371 22.650957
-2.941453 -80.144833 24.053569
-3.184754 -81.275318 22.770194
-1.713865 -81.550763 21.320336
-1.470563 -80.420277 22.603711
-2.324518 -80.866371 22.650957
-1.147671 -82.2453 19.987731
-1.713865 -81.550763 21.320336
-5.981685 -82.57283 23.222879
-6.555239 -81.812481 24.667826
-6.895126 -82.99358 23.380735
-5.361011 -83.303047 21.790689
-5.021124 -82.121948 23.07778
-5.981685 -82.57283 23.222879
-4.846212 -83.983444 20.490801
-5.361011 -83.303047 21.790689
17.729962 -78.851151 -1.607368
17.971237 -78.041256 -0.184001
17.177179 -79.317959 -0.474896
17.478224 -79.685875 -3.071938
17.729962 -78.851151 -1.607368
16.696942 -80.926388 -3.355885
17.478224 -79.685875 -3.071938
-3.314438 -100.134243 -5.230704
-2.101201 -99.45129 -5.300381
-2.695267 -99.167068 -4.062179
-3.928277 -101.039055 -6.34092
-3.314438 -100.134243 -5.230704
21.922159 -76.017002 -28.731939
20.871443 -77.604523 -28.865234
14.939282 -73.350475 18.973465
15.139986 -72.387364 20.194005
14.287148 -73.23877 20.025239
5.916298 -74.191372 25.666419
6.808341 -73.665302 25.757134
5.136804 -74.709812 25.50183
5.839014 -75.258133 24.375677
5.916298 -74.191372 25.666419
6.12319 -95.600243 -30.089433
5.525847 -96.55109 -29.163038
4.668594 -96.941876 -30.002584
10.2575 -91.358074 -30.194045
8.879977 -92.823253 -30.21315
10.86728 -91.078644 -29.162303
10.2575 -91.358074 -30.194045
2.60504 -76.198857 25.230334
3.4337 -75.73814 25.280094
-4.710406 -78.026962 28.084294
-5.58307 -78.455769 28.222191
-2.196937 -76.713501 27.851332
-3.035751 -77.116589 27.957785
-2.445964 -77.862851 26.596892
-1.328456 -76.332767 27.695603
-2.196937 -76.713501 27.851332
-0.696779 -77.011173 26.421257
-0.418086 -75.884178 27.626422
-1.328456 -76.332767 27.695603
-2.768101 -84.983349 17.588498
-3.720823 -85.460785 17.671582
-1.47528 -88.055359 12.451738
-2.525867 -88.692383 12.392899
-0.906595 -88.655597 11.168774
-0.479189 -87.446926 12.504107
-1.47528 -88.055359 12.451738
-2.860607 -93.226368 6.094788
-2.32885 -92.163978 7.241818
-3.464685 -92.748134 7.327025
-2.277346 -93.774418 4.734643
-2.860607 -93.226368 6.094788
19.765577 -69.626019 16.13328
19.097009 -70.557228 15.981732
20.305844 -69.373158 15.007214
19.765577 -69.626019 16.13328
18.730746 -80.454086 -13.13286
19.539008 -79.073101 -12.813417
18.937099 -79.796688 -11.754454
16.457445 -82.828327 -8.728148
17.274487 -81.575988 -8.485594
16.657924 -82.170337 -7.400539
1.600125 -100.503578 -14.863877
2.86237 -99.536175 -15.066532
2.272321 -99.698666 -13.850115
0.98543 -101.250713 -15.979779
1.600125 -100.503578 -14.863877
25.793766 -69.932247 -23.33773
25.147807 -71.025227 -22.274217
25.032515 -71.329231 -23.49933
26.503804 -68.703907 -24.321949
25.793766 -69.932247 -23.33773
24.911797 -71.272221 -28.120525
24.252349 -72.538048 -27.197513
23.952846 -72.849186 -28.337703
27.670698 -66.537017 -27.485684
26.75766 -68.151196 -27.643247
27.468216 -66.775219 -28.624287
27.799974 -66.346348 -26.344958
27.670698 -66.537017 -27.485684
-8.410056 -82.677956 24.939011
-8.096963 -81.506421 26.248422
-7.818118 -83.416058 23.514213
-8.410056 -82.677956 24.939011
-6.895126 -82.99358 23.380735
-7.818118 -83.416058 23.514213
15.971276 -78.62307 5.949362
16.291629 -77.68539 7.36291
15.454515 -78.778835 7.145644
16.522997 -78.38623 4.808896
15.971276 -78.62307 5.949362
15.685883 -79.479675 4.591629
17.054865 -78.097531 3.581112
16.522997 -78.38623 4.808896
16.828029 -78.87545 2.199817
17.64529 -77.730144 2.329765
17.054865 -78.097531 3.581112
-3.324002 -98.876461 -2.822208
-2.695267 -99.167068 -4.062179
-2.110764 -98.193509 -2.891885
13.646453 -73.034047 21.085656
12.92192 -72.807984 22.178578
13.445749 -73.997158 19.865116
14.287148 -73.23877 20.025239
13.646453 -73.034047 21.085656
16.112992 -85.222099 -25.513315
15.575285 -86.097233 -24.477536
15.020884 -86.725696 -25.582561
16.697124 -84.27129 -26.462156
17.251525 -83.642827 -25.357131
16.112992 -85.222099 -25.513315
17.337266 -83.153695 -27.477857
16.697124 -84.27129 -26.462156
-0.546049 -82.86853 18.738492
-0.258288 -81.727898 20.023851
-1.147671 -82.2453 19.987731
-0.887467 -84.026249 17.446415
0.001916 -83.508847 17.482535
-0.546049 -82.86853 18.738492
-2.927665 -89.807644 11.156423
-2.525867 -88.692383 12.392899
-3.442785 -91.018501 9.835248
-2.417807 -90.474887 9.79523
-2.927665 -89.807644 11.156423
-4.014347 -92.145973 8.65758
-3.442785 -91.018501 9.835248
-3.464685 -92.748134 7.327025
-4.014347 -92.145973 8.65758
17.790426 -71.587734 17.099075
17.235025 -71.579853 18.233467
18.348531 -71.555958 15.904998
17.790426 -71.587734 17.099075
17.591707 -72.432175 15.869157
18.898289 -71.401668 14.751815
19.097009 -70.557228 15.981732
18.348531 -71.555958 15.904998
19.950056 -72.360871 8.397234
19.473531 -72.657711 9.597326
19.263354 -73.424069 8.226827
18.427594 -80.363323 -10.699378
18.937099 -79.796688 -11.754454
1.628628 -99.835217 -12.545015
2.272321 -99.698666 -13.850115
2.890874 -98.867813 -12.74767
-2.054918 -101.585564 -10.08209
-2.565544 -101.38263 -8.828057
10.483377 -74.760482 21.69335
11.275897 -74.146843 21.87257
10.582653 -73.778275 22.970938
2.634024 -99.076863 -28.834626
3.483599 -98.736252 -28.042023
2.046371 -99.920391 -27.80046
3.252599 -98.140866 -29.855491
2.634024 -99.076863 -28.834626
4.668594 -96.941876 -30.002584
3.252599 -98.140866 -29.855491
-5.886297 -79.584576 27.024145
-5.58307 -78.455769 28.222191
-7.147398 -81.116948 26.023972
-8.096963 -81.506421 26.248422
-6.233956 -80.696197 25.866117
-7.147398 -81.116948 26.023972
-6.555239 -81.812481 24.667826
-5.294139 -80.280109 25.667998
-5.886297 -79.584576 27.024145
-6.233956 -80.696197 25.866117
-3.484135 -82.424511 21.506586
-3.184754 -81.275318 22.770194
-4.101069 -81.702973 22.909198
-3.858945 -83.571422 20.284824
-2.942629 -83.143768 20.14582
-3.484135 -82.424511 21.506586
-4.304707 -84.702701 19.130035
-3.858945 -83.571422 20.284824
-4.846212 -83.983444 20.490801
-3.720823 -85.460785 17.671582
-4.304707 -84.702701 19.130035
17.059661 -76.64529 7.675882
16.5429 -76.801056 8.872163
16.291629 -77.68539 7.36291
17.784561 -75.601685 7.894608
17.059661 -76.64529 7.675882
18.522509 -74.581661 8.0155
18.048881 -74.740932 9.306027
17.784561 -75.601685 7.894608
19.263354 -73.424069 8.226827
18.522509 -74.581661 8.0155
18.18461 -77.276093 1.228028
17.64529 -77.730144 2.329765
18.18461 -77.276093 1.228028
17.971237 -78.041256 -0.184001
16.149431 -82.573799 -6.2283
16.657924 -82.170337 -7.400539
15.897362 -82.112438 -3.64372
16.696942 -80.926388 -3.355885
16.136324 -81.313904 -2.186099
15.580129 -82.970741 -5.020405
15.897362 -82.112438 -3.64372
15.01951 -83.358257 -3.850619
15.27158 -83.819618 -6.435199
16.149431 -82.573799 -6.2283
15.580129 -82.970741 -5.020405
-3.237155 -101.252797 -7.608826
-2.565544 -101.38263 -8.828057
-2.048761 -100.548298 -7.688137
-3.237155 -101.252797 -7.608826
-3.928277 -101.039055 -6.34092
22.960368 -74.397816 -28.545626
22.25519 -75.7342 -27.601005
21.922159 -76.017002 -28.731939
23.952846 -72.849186 -28.337703
22.960368 -74.397816 -28.545626
-1.754602 -103.744214 -20.023383
-0.996662 -103.195805 -19.179532
-1.205489 -103.390297 -21.148027
-1.754602 -103.744214 -20.023383
-0.751324 -103.042976 -22.308803
0.062427 -102.521759 -21.447271
-1.205489 -103.390297 -21.148027
-0.173288 -102.538498 -23.447471
-0.751324 -103.042976 -22.308803
0.488932 -101.915016 -24.508426
1.178813 -101.550956 -23.669001
-0.173288 -102.538498 -23.447471
0.993579 -101.326481 -25.603692
0.488932 -101.915016 -24.508426
1.521035 -100.652634 -26.742641
2.368489 -100.253628 -25.868906
0.993579 -101.326481 -25.603692
2.046371 -99.920391 -27.80046
1.521035 -100.652634 -26.742641
15.937762 -71.571045 20.361624
15.139986 -72.387364 20.194005
16.614285 -71.597412 19.272965
15.937762 -71.571045 20.361624
16.412861 -72.48151 18.102733
17.235025 -71.579853 18.233467
16.614285 -71.597412 19.272965
11.990838 -74.460743 20.760258
12.090113 -73.478535 22.037846
11.275897 -74.146843 21.87257
-1.095995 -94.688271 2.140487
-0.454207 -95.098191 0.773926
0.031189 -94.029579 2.05024
9.908865 -73.359383 24.038872
10.582653 -73.778275 22.970938
9.111974 -73.962799 23.837008
9.908865 -73.359383 24.038872
8.254216 -74.55228 23.679167
8.932375 -74.981395 22.633877
9.111974 -73.962799 23.837008
7.52616 -74.136688 24.711282
6.808341 -73.665302 25.757134
7.346562 -75.155285 23.508151
8.254216 -74.55228 23.679167
7.52616 -74.136688 24.711282
22.78958 -74.372658 -16.802929
23.574296 -72.912319 -16.685599
22.93054 -73.828243 -15.591978
19.819337 -79.171684 -29.004593
20.871443 -77.604523 -28.865234
20.164876 -78.920547 -27.926676
17.975822 -82.05154 -28.35789
18.474214 -81.589863 -27.186003
17.337266 -83.153695 -27.477857
18.667845 -80.814319 -29.170011
17.975822 -82.05154 -28.35789
19.819337 -79.171684 -29.004593
18.667845 -80.814319 -29.170011
7.548616 -94.199341 -30.211787
6.12319 -95.600243 -30.089433
8.311803 -93.83337 -29.25125
7.548616 -94.199341 -30.211787
8.879977 -92.823253 -30.21315
11.455033 -90.745743 -28.068127
10.230918 -92.124382 -28.158437
10.86728 -91.078644 -29.162303
12.639826 -89.319657 -27.965405
12.003463 -90.365395 -26.96154
11.455033 -90.745743 -28.068127
13.828332 -87.874909 -27.786876
12.639826 -89.319657 -27.965405
4.333919 -75.212036 25.377983
5.136804 -74.709812 25.50183
4.159301 -76.302677 24.113199
4.333919 -75.212036 25.377983
3.4337 -75.73814 25.280094
-3.879555 -77.575688 28.022954
-4.710406 -78.026962 28.084294
-4.11563 -78.717213 26.764686
-3.879555 -77.575688 28.022954
-3.035751 -77.116589 27.957785
0.394102 -75.389919 27.676409
-0.418086 -75.884178 27.626422
1.082294 -76.065758 26.398717
0.394102 -75.389919 27.676409
1.725854 -76.732182 25.122143
1.082294 -76.065758 26.398717
0.857151 -77.229008 25.075502
2.379897 -77.362107 23.90712
2.60504 -76.198857 25.230334
1.725854 -76.732182 25.122143
-2.376436 -83.838306 18.813215
-2.942629 -83.143768 20.14582
-2.376436 -83.838306 18.813215
-2.768101 -84.983349 17.588498
-1.279131 -85.171291 16.221699
-0.887467 -84.026249 17.446415
-0.693687 -85.756626 14.988764
-1.279131 -85.171291 16.221699
-0.051275 -86.277321 13.795444
0.302911 -85.18726 14.997138
-0.693687 -85.756626 14.988764
0.517409 -86.87756 12.51248
-0.051275 -86.277321 13.795444
-0.479189 -87.446926 12.504107
-1.72026 -94.263141 3.438254
-1.167685 -93.130935 4.713191
-2.277346 -93.774418 4.734643
-1.095995 -94.688271 2.140487
-1.72026 -94.263141 3.438254
-3.334657 -97.482006 -0.352249
-2.160445 -96.829892 -0.393871
-3.863696 -98.439892 -1.502326
-3.334657 -97.482006 -0.352249
-3.324002 -98.876461 -2.822208
-3.863696 -98.439892 -1.502326
19.6932 -71.805748 11.048707
19.006498 -72.868946 10.8783
19.473531 -72.657711 9.597326
19.901645 -71.003242 12.428919
19.6932 -71.805748 11.048707
20.111946 -70.196221 13.678353
19.436467 -71.209961 13.579116
19.901645 -71.003242 12.428919
20.305844 -69.373158 15.007214
20.111946 -70.196221 13.678353
22.330887 -74.646366 -14.469432
22.93054 -73.828243 -15.591978
21.513419 -76.156868 -14.68459
22.330887 -74.646366 -14.469432
20.754084 -77.538822 -15.067294
21.386488 -76.670536 -16.092012
21.513419 -76.156868 -14.68459
20.106835 -78.377826 -13.925849
19.539008 -79.073101 -12.813417
19.979904 -78.891494 -15.33327
20.754084 -77.538822 -15.067294
20.106835 -78.377826 -13.925849
17.90018 -80.891475 -9.569031
17.274487 -81.575988 -8.485594
17.601423 -81.705826 -10.94355
18.427594 -80.363323 -10.699378
17.90018 -80.891475 -9.569031
0.359895 -101.930363 -17.014459
1.564638 -101.020736 -17.114974
0.98543 -101.250713 -15.979779
-0.331242 -102.611458 -18.111111
0.359895 -101.930363 -17.014459
0.359921 -100.778546 -12.502258
1.628628 -99.835217 -12.545015
0.978473 -99.947693 -11.399813
-1.51146 -101.692009 -11.306935
-0.833692 -100.784577 -10.132212
-2.054918 -101.585564 -10.08209
-0.933681 -101.709423 -12.482744
-1.51146 -101.692009 -11.306935
0.359921 -100.778546 -12.502258
-0.933681 -101.709423 -12.482744
24.22672 -71.935882 -17.708496
23.574296 -72.912319 -16.685599
24.821412 -71.044799 -18.723069
24.22672 -71.935882 -17.708496
24.028028 -72.565651 -18.911124
25.392017 -70.191986 -19.788355
24.821412 -71.044799 -18.723069
25.265889 -70.651405 -21.019157
24.504637 -72.048389 -21.180757
25.147807 -71.025227 -22.274217
25.392017 -70.191986 -19.788355
25.265889 -70.651405 -21.019157
25.883239 -69.67524 -27.881092
24.911797 -71.272221 -28.120525
25.583736 -69.986378 -29.021282
26.085721 -69.437038 -26.742489
25.883239 -69.67524 -27.881092
26.75766 -68.151196 -27.643247
27.144638 -67.542278 -25.292849
26.503804 -68.703907 -24.321949
26.319308 -69.074623 -25.533743
27.144638 -67.542278 -25.292849
27.799974 -66.346348 -26.344958
3 0 60 58
3 0 62 60
3 1 65 63
3 2 68 67
3 2 70 68
3 2 72 70
3 235 75 236
3 237 236 73
3 235 236 237
3 238 77 239
3 240 239 75
3 238 239 240
3 241 80 242
3 243 242 78
3 241 242 243
3 244 81 245
3 5 84 82
3 5 86 84
3 5 88 86
3 7 91 89
3 7 93 91
3 8 96 94
3 10 246 248
3 248 247 97
3 246 247 248
3 10 249 250
3 3 101 99
3 251 104 252
3 253 252 102
3 251 252 253
3 254 106 255
3 256 255 104
3 254 255 256
3 258 257 106
3 4 110 109
3 11 113 111
3 11 115 113
3 6 118 116
3 12 121 119
3 12 123 121
3 12 125 123
3 9 128 126
3 13 131 129
3 15 132 59
3 15 133 132
3 15 135 133
3 17 136 61
3 17 137 136
3 18 140 138
3 20 141 64
3 20 142 141
3 259 144 260
3 261 260 66
3 259 260 261
3 262 145 263
3 264 263 144
3 262 263 264
3 266 265 145
3 22 149 147
3 24 267 269
3 269 268 69
3 267 268 269
3 24 270 271
3 24 272 273
3 26 150 71
3 26 151 150
3 27 154 152
3 29 155 74
3 29 156 155
3 29 158 156
3 274 159 275
3 276 275 76
3 274 275 276
3 278 277 159
3 280 279 160
3 31 164 162
3 33 165 79
3 33 166 165
3 34 281 283
3 281 167 282
3 281 282 283
3 34 168 167
3 14 169 130
3 35 170 83
3 35 171 170
3 35 172 171
3 36 173 85
3 36 174 173
3 36 176 174
3 38 177 87
3 38 178 177
3 16 179 134
3 39 180 90
3 39 181 180
3 39 182 181
3 40 183 92
3 40 184 183
3 284 185 285
3 286 186 287
3 288 287 185
3 286 287 288
3 41 189 187
3 43 190 95
3 43 191 190
3 19 192 139
3 44 193 98
3 44 194 193
3 44 195 194
3 32 196 163
3 45 197 100
3 45 198 197
3 289 199 290
3 291 290 143
3 289 290 291
3 292 200 293
3 295 294 200
3 296 201 297
3 21 298 299
3 46 300 302
3 302 301 103
3 300 301 302
3 46 303 304
3 46 305 307
3 305 202 306
3 305 306 307
3 47 203 105
3 47 204 203
3 47 205 204
3 48 206 107
3 48 207 206
3 309 308 146
3 49 310 311
3 49 312 314
3 312 208 313
3 312 313 314
3 49 209 208
3 315 210 316
3 317 316 108
3 315 316 317
3 319 318 210
3 50 320 321
3 50 322 323
3 23 211 148
3 51 324 326
3 324 212 325
3 324 325 326
3 51 213 212
3 25 327 329
3 327 214 328
3 327 328 329
3 52 215 112
3 52 216 215
3 52 217 216
3 53 218 114
3 53 219 218
3 37 220 175
3 54 221 117
3 54 222 221
3 28 223 153
3 55 224 120
3 55 225 224
3 55 226 225
3 56 227 122
3 56 228 227
3 56 229 228
3 330 230 331
3 332 331 124
3 330 331 332
3 334 333 230
3 30 231 157
3 42 232 188
3 57 335 337
3 337 336 127
3 335 336 337
3 57 338 339
3 340 233 341
3 342 341 161
3 340 341 342
3 343 234 344
3 343 344 345
3 347 346 234
3 58 59 13
3 60 59 58
3 60 15 59
3 60 61 15
3 62 61 60
3 62 17 61
3 63 64 18
3 65 64 63
3 65 20 64
3 348 66 349
3 350 66 351
3 353 352 66
3 67 354 356
3 356 355 22
3 354 355 356
3 68 357 359
3 359 358 67
3 357 358 359
3 68 360 361
3 68 362 364
3 362 69 363
3 362 363 364
3 70 69 68
3 70 24 69
3 70 71 24
3 72 71 70
3 72 26 71
3 73 74 27
3 75 74 73
3 75 29 74
3 75 76 29
3 77 76 75
3 77 365 367
3 367 366 76
3 365 366 367
3 78 79 31
3 80 79 78
3 80 33 79
3 81 368 369
3 81 370 372
3 370 34 371
3 370 371 372
3 82 83 14
3 84 83 82
3 84 35 83
3 84 85 35
3 86 85 84
3 86 36 85
3 86 87 36
3 88 87 86
3 88 38 87
3 89 90 16
3 91 90 89
3 91 39 90
3 91 92 39
3 93 92 91
3 93 40 92
3 94 95 41
3 96 95 94
3 96 43 95
3 97 98 19
3 373 98 374
3 375 374 97
3 373 374 375
3 376 44 377
3 378 377 98
3 376 377 378
3 380 379 44
3 99 100 32
3 101 100 99
3 101 45 100
3 102 103 21
3 104 103 102
3 104 46 103
3 104 105 46
3 106 105 104
3 106 47 105
3 106 107 47
3 381 107 382
3 383 382 106
3 381 382 383
3 384 48 385
3 386 385 107
3 384 385 386
3 387 49 388
3 389 108 390
3 391 390 49
3 389 390 391
3 392 108 393
3 395 394 108
3 109 396 397
3 110 398 400
3 400 399 109
3 398 399 400
3 110 401 403
3 401 50 402
3 401 402 403
3 406 405 23
3 404 405 406
3 407 51 408
3 111 112 25
3 113 112 111
3 113 52 112
3 113 114 52
3 115 114 113
3 115 53 114
3 116 117 37
3 118 117 116
3 118 54 117
3 119 120 28
3 121 120 119
3 121 55 120
3 121 122 55
3 123 122 121
3 123 56 122
3 123 124 56
3 125 124 123
3 125 409 411
3 411 410 124
3 409 410 411
3 413 412 30
3 126 127 42
3 128 127 126
3 128 57 127
3 129 414 416
3 414 130 415
3 414 415 416
3 131 130 129
3 131 14 130
3 59 131 13
3 132 131 59
3 132 14 131
3 132 82 14
3 133 82 132
3 133 5 82
3 133 134 5
3 135 134 133
3 135 16 134
3 61 135 15
3 136 135 61
3 136 16 135
3 136 89 16
3 137 89 136
3 137 7 89
3 138 139 8
3 140 139 138
3 140 19 139
3 64 140 18
3 141 140 64
3 141 19 140
3 141 97 19
3 142 97 141
3 142 10 97
3 417 143 418
3 419 418 3
3 417 418 419
3 420 143 421
3 423 422 143
3 424 21 425
3 66 426 427
3 144 428 430
3 430 429 66
3 428 429 430
3 144 431 433
3 431 21 432
3 431 432 433
3 144 102 21
3 145 102 144
3 145 434 436
3 436 435 102
3 434 435 436
3 145 437 439
3 437 146 438
3 437 438 439
3 440 146 441
3 442 441 145
3 440 441 442
3 444 443 146
3 147 148 4
3 149 148 147
3 149 23 148
3 445 149 446
3 447 446 22
3 445 446 447
3 448 149 449
3 450 23 451
3 452 451 149
3 450 451 452
3 454 453 23
3 69 455 456
3 458 457 69
3 459 25 460
3 71 461 463
3 463 462 24
3 461 462 463
3 150 464 466
3 466 465 71
3 464 465 466
3 150 467 469
3 467 25 468
3 467 468 469
3 150 111 25
3 151 111 150
3 151 11 111
3 152 153 6
3 154 153 152
3 154 28 153
3 74 154 27
3 155 154 74
3 155 28 154
3 155 119 28
3 156 119 155
3 156 12 119
3 156 157 12
3 158 157 156
3 158 30 157
3 76 158 29
3 159 158 76
3 159 30 158
3 159 470 472
3 472 471 30
3 470 471 472
3 474 473 159
3 160 161 9
3 475 161 476
3 477 476 160
3 475 476 477
3 479 478 161
3 162 163 1
3 164 163 162
3 164 32 163
3 79 164 31
3 165 164 79
3 165 32 164
3 165 99 32
3 166 99 165
3 166 3 99
3 480 80 481
3 482 80 483
3 484 33 485
3 486 485 80
3 484 485 486
3 487 33 488
3 489 166 490
3 491 490 33
3 489 490 491
3 492 166 493
3 494 3 495
3 496 495 166
3 494 495 496
3 498 497 3
3 167 499 500
3 167 501 502
3 167 503 505
3 503 109 504
3 503 504 505
3 168 109 167
3 168 4 109
3 130 506 508
3 506 81 507
3 506 507 508
3 169 81 130
3 169 34 81
3 83 169 14
3 170 169 83
3 170 34 169
3 170 168 34
3 171 168 170
3 171 4 168
3 171 147 4
3 172 147 171
3 172 22 147
3 85 172 35
3 173 172 85
3 173 22 172
3 173 67 22
3 174 67 173
3 174 2 67
3 174 175 2
3 176 175 174
3 176 37 175
3 87 176 36
3 177 176 87
3 177 37 176
3 177 116 37
3 178 116 177
3 178 6 116
3 134 88 5
3 179 88 134
3 179 38 88
3 90 179 16
3 180 179 90
3 180 38 179
3 180 178 38
3 181 178 180
3 181 6 178
3 181 152 6
3 182 152 181
3 182 27 152
3 92 182 39
3 183 182 92
3 183 27 182
3 183 73 27
3 184 73 183
3 184 509 511
3 511 510 73
3 509 510 511
3 512 129 513
3 514 129 515
3 516 13 517
3 518 517 129
3 516 517 518
3 185 519 520
3 185 521 523
3 521 13 522
3 521 522 523
3 185 58 13
3 186 58 185
3 186 0 58
3 187 524 526
3 524 188 525
3 524 525 526
3 189 188 187
3 189 42 188
3 95 189 41
3 190 189 95
3 190 42 189
3 190 126 42
3 191 126 190
3 191 9 126
3 139 96 8
3 192 96 139
3 192 43 96
3 98 192 19
3 193 192 98
3 193 43 192
3 193 191 43
3 194 191 193
3 194 9 191
3 194 160 9
3 195 160 194
3 195 527 529
3 529 528 160
3 527 528 529
3 530 195 531
3 532 531 44
3 530 531 532
3 533 195 534
3 536 535 195
3 163 65 1
3 196 65 163
3 196 20 65
3 100 196 32
3 197 196 100
3 197 20 196
3 197 142 20
3 198 142 197
3 198 10 142
3 143 101 3
3 199 101 143
3 199 45 101
3 537 199 538
3 200 539 541
3 539 199 540
3 539 540 541
3 200 45 199
3 200 198 45
3 542 198 543
3 544 543 200
3 542 543 544
3 545 10 546
3 547 546 198
3 545 546 547
3 549 548 10
3 550 186 551
3 201 552 554
3 552 186 553
3 552 553 554
3 201 0 186
3 103 555 557
3 557 556 21
3 555 556 557
3 559 558 103
3 202 560 561
3 202 562 563
3 105 202 46
3 203 202 105
3 203 564 566
3 566 565 202
3 564 565 566
3 203 567 569
3 567 201 568
3 567 568 569
3 204 201 203
3 204 0 201
3 204 62 0
3 205 62 204
3 205 17 62
3 107 205 47
3 206 205 107
3 206 17 205
3 206 137 17
3 207 137 206
3 207 7 137
3 146 570 571
3 573 572 146
3 574 48 575
3 576 48 577
3 578 207 579
3 580 579 48
3 578 579 580
3 208 581 583
3 581 207 582
3 581 582 583
3 208 7 207
3 208 93 7
3 209 93 208
3 209 40 93
3 108 209 49
3 210 209 108
3 210 40 209
3 210 184 40
3 584 184 585
3 586 585 210
3 584 585 586
3 588 587 184
3 589 77 590
3 591 77 592
3 594 593 77
3 148 110 4
3 211 110 148
3 211 50 110
3 595 211 596
3 597 596 23
3 595 596 597
3 598 211 599
3 600 50 601
3 602 601 211
3 600 601 602
3 604 603 50
3 605 187 606
3 607 187 608
3 609 41 610
3 611 610 187
3 609 610 611
3 212 612 613
3 212 614 616
3 614 41 615
3 614 615 616
3 212 94 41
3 213 94 212
3 213 8 94
3 214 617 618
3 214 619 621
3 619 51 620
3 619 620 621
3 112 214 25
3 215 214 112
3 215 51 214
3 215 213 51
3 216 213 215
3 216 8 213
3 216 138 8
3 217 138 216
3 217 18 138
3 114 217 52
3 218 217 114
3 218 18 217
3 218 63 18
3 219 63 218
3 219 1 63
3 175 72 2
3 220 72 175
3 220 26 72
3 117 220 37
3 221 220 117
3 221 26 220
3 221 151 26
3 222 151 221
3 222 11 151
3 153 118 6
3 223 118 153
3 223 54 118
3 120 223 28
3 224 223 120
3 224 54 223
3 224 222 54
3 225 222 224
3 225 11 222
3 225 115 11
3 226 115 225
3 226 53 115
3 122 226 55
3 227 226 122
3 227 53 226
3 227 219 53
3 228 219 227
3 228 1 219
3 228 162 1
3 229 162 228
3 229 31 162
3 124 229 56
3 230 229 124
3 230 31 229
3 230 78 31
3 622 78 623
3 624 623 230
3 622 623 624
3 626 625 78
3 157 125 12
3 231 125 157
3 231 627 629
3 629 628 125
3 627 628 629
3 630 231 631
3 632 631 30
3 630 631 632
3 633 231 634
3 636 635 231
3 188 637 638
3 232 639 641
3 641 640 188
3 639 640 641
3 232 642 643
3 127 232 42
3 644 232 645
3 646 645 127
3 644 645 646
3 648 647 232
3 161 128 9
3 233 128 161
3 233 57 128
3 649 233 650
3 649 650 651
3 234 652 654
3 652 233 653
3 652 653 654
3 234 57 233
3 234 655 657
3 657 656 57
3 655 656 657
3 659 658 234
