ply
format ascii 1.0
element vertex 281
property float x
property float y
property float z
element face 234
property list uchar int vertex_index
end_header
-28.231169 -42.448837 -7.817873
-33.866611 -33.575588 8.662981
-25.853567 -39.158489 -15.450316
-30.165236 -45.762459 5.272201
-27.139229 -40.754791 -11.920429
-29.122988 -43.636818 -3.538475
-30.679102 -46.768402 14.420677
-31.98892 -40.977417 13.571249
-33.542397 -34.348831 13.058416
-32.103783 -40.247459 9.113073
-31.976341 -39.533031 4.897191
-31.59189 -38.552734 0.196476
-24.474083 -37.103031 -18.702137
-27.69615 -41.721016 -9.89005
-29.44873 -44.238781 -1.357478
-34.547058 -30.605764 10.756207
-33.740959 -33.97316 10.878396
-32.903915 -37.33844 11.091843
-32.976528 -36.975956 8.874529
-32.097927 -39.793953 7.000101
-32.983574 -36.608402 6.775462
-24.591988 -40.839539 -16.872663
-23.989252 -39.659531 -18.41157
-25.21361 -38.065289 -17.103437
-30.015837 -45.184879 3.124067
-26.560301 -39.911167 -13.680256
-28.718391 -43.120125 -5.615512
-31.271137 -44.085789 13.96193
-31.283676 -43.799919 11.731889
-33.979107 -31.31171 15.137114
-32.764774 -37.678776 13.28133
-32.063736 -40.670712 11.358313
-31.297733 -43.296104 9.458395
-31.21649 -42.962482 7.27678
-31.056915 -42.722347 5.16644
-30.931459 -42.103222 2.890738
-31.822947 -39.077507 2.585059
-30.667322 -41.731903 0.648234
-30.379299 -41.177322 -1.630559
-29.996037 -40.676765 -3.879376
-29.627003 -39.930859 -6.029637
-29.112274 -39.308964 -8.171144
-28.590982 -38.465965 -10.208059
-28.015779 -37.714199 -12.046179
-27.232885 -37.052235 -14.035019
-26.532913 -36.180721 -15.782736
-25.766338 -35.429729 -17.416981
-23.792509 -36.152569 -20.075718
-23.351236 -38.407879 -19.887129
-27.545996 -43.609903 -8.70911
-27.793754 -43.963905 -7.693041
-27.963659 -42.084926 -8.853962
-27.278486 -43.245992 -9.745199
-27.545996 -43.609903 -8.70911
-29.55717 -44.630423 -0.231961
-28.983875 -45.789894 -1.221834
-25.222777 -39.999014 -16.16149
-24.893904 -41.36394 -16.054882
-25.524694 -40.523415 -15.343708
-29.633104 -47.063061 4.352463
-29.793581 -47.158806 5.52438
-30.090536 -45.473669 4.198134
-29.558404 -46.774271 3.278397
-29.633104 -47.063061 4.352463
-26.488677 -41.801592 -12.653261
-26.756996 -42.324714 -11.706295
-26.849765 -40.332979 -12.800342
-26.199213 -41.379779 -13.533174
-26.488677 -41.801592 -12.653261
-28.434245 -44.964796 -4.505422
-28.645955 -45.198813 -3.441594
-28.92069 -43.378472 -4.576994
-28.231946 -44.70645 -5.543941
-28.434245 -44.964796 -4.505422
-30.307527 -48.174446 13.541963
-30.357121 -48.320263 14.671517
-30.633942 -46.731821 13.265875
-30.307527 -48.174446 13.541963
-31.630029 -42.531603 13.76659
-31.572444 -42.634487 14.891467
-31.931335 -41.080302 14.696127
-33.760752 -32.83027 14.097765
-34.149161 -31.10761 14.032523
-33.930806 -32.62617 12.993174
-33.404074 -34.535206 14.164943
-33.622429 -33.016646 15.204293
-33.760752 -32.83027 14.097765
-33.153586 -36.013803 13.169873
-33.015263 -36.200178 14.276401
-33.404074 -34.535206 14.164943
-31.707418 -38.81512 1.390768
-32.274581 -37.491672 2.364574
-32.159053 -37.229286 1.170283
-30.485976 -39.072371 -3.985436
-30.65126 -39.344406 -2.95771
-30.301459 -38.699417 -5.060567
-29.81152 -40.303812 -4.954506
-30.485976 -39.072371 -3.985436
-29.583818 -37.680855 -8.297213
-29.817197 -38.057436 -7.272832
-29.323172 -37.259355 -9.31567
-28.851628 -38.887465 -9.189602
-29.583818 -37.680855 -8.297213
-28.351365 -36.279305 -12.263442
-28.75134 -36.514385 -11.230809
-27.959918 -35.948323 -13.257862
-27.624332 -37.383217 -13.040599
-28.351365 -36.279305 -12.263442
-26.826745 -34.805011 -15.968695
-27.222707 -35.170902 -15.084761
-26.443458 -34.429516 -16.785818
-26.149625 -35.805225 -16.599858
-26.826745 -34.805011 -15.968695
-30.284569 -45.849316 6.437064
-29.793581 -47.158806 5.52438
-27.035457 -42.807827 -10.691105
-27.278486 -43.245992 -9.745199
-27.41769 -41.237904 -10.90524
-26.756996 -42.324714 -11.706295
-27.035457 -42.807827 -10.691105
-28.808826 -45.499794 -2.351096
-28.983875 -45.789894 -1.221834
-29.285859 -43.937799 -2.447977
-28.645955 -45.198813 -3.441594
-28.808826 -45.499794 -2.351096
-30.656492 -47.005676 15.506787
-30.357121 -48.320263 14.671517
-32.275998 -39.49176 14.510365
-31.931335 -41.080302 14.696127
-34.433136 -30.754637 11.84207
-34.810194 -29.024373 11.749751
-34.030086 -32.438334 11.903164
-34.433136 -30.754637 11.84207
-34.144008 -32.289462 10.817301
-33.641678 -34.160995 11.968406
-33.930806 -32.62617 12.993174
-34.030086 -32.438334 11.903164
-32.066851 -36.930955 0.036865
-32.159053 -37.229286 1.170283
-31.449186 -38.282391 -0.919784
-32.066851 -36.930955 0.036865
-24.30708 -42.161011 -16.773105
-24.893904 -41.36394 -16.054882
-24.002901 -41.513604 -17.604971
-24.30708 -42.161011 -16.773105
-24.29062 -40.249535 -17.642117
-23.701532 -40.9236 -18.374425
-24.002901 -41.513604 -17.604971
-29.436003 -46.524433 2.21139
-29.558404 -46.774271 3.278397
-29.840723 -45.103471 2.008812
-29.436003 -46.524433 2.21139
-34.973931 -28.704222 10.752274
-34.810194 -29.024373 11.749751
-34.659315 -30.285105 9.675554
-34.973931 -28.704222 10.752274
-34.319091 -31.770017 8.628941
-34.206834 -32.090676 9.709594
-34.659315 -30.285105 9.675554
-33.904703 -33.331524 7.645751
-34.319091 -31.770017 8.628941
-25.878061 -40.899754 -14.458678
-26.199213 -41.379779 -13.533174
-26.206934 -39.534828 -14.565286
-25.524694 -40.523415 -15.343708
-25.878061 -40.899754 -14.458678
-28.037365 -44.299549 -6.591861
-28.231946 -44.70645 -5.543941
-28.47478 -42.784481 -6.716692
-27.793754 -43.963905 -7.693041
-28.037365 -44.299549 -6.591861
-30.965238 -45.456736 15.331302
-30.656492 -47.005676 15.506787
-31.261255 -44.115429 15.101929
-31.572444 -42.634487 14.891467
-30.975119 -45.427096 14.191304
-30.965238 -45.456736 15.331302
-31.261255 -44.115429 15.101929
-30.92996 -45.390514 13.036501
-30.633942 -46.731821 13.265875
-30.975119 -45.427096 14.191304
-30.936229 -45.24758 11.921481
-30.92996 -45.390514 13.036501
-31.277406 -43.942854 12.84691
-30.887446 -45.110174 10.783881
-30.936229 -45.24758 11.921481
-34.347952 -29.531331 15.013611
-34.149161 -31.10761 14.032523
-34.10768 -29.80713 16.097085
-34.347952 -29.531331 15.013611
-33.780414 -31.4606 16.25396
-34.10768 -29.80713 16.097085
-33.780414 -31.4606 16.25396
-33.622429 -33.016646 15.204293
-32.663925 -37.84244 14.365406
-33.015263 -36.200178 14.276401
-32.376847 -39.328097 13.426289
-32.275998 -39.49176 14.510365
-32.663925 -37.84244 14.365406
-30.894475 -44.858266 9.647133
-30.887446 -45.110174 10.783881
-31.290705 -43.548012 10.595142
-30.850817 -44.616138 8.530161
-30.894475 -44.858266 9.647133
-30.810196 -44.449327 7.439353
-30.850817 -44.616138 8.530161
-31.257112 -43.129293 8.367587
-30.690863 -44.362471 6.27449
-30.284569 -45.849316 6.437064
-30.810196 -44.449327 7.439353
-30.298534 -43.562643 1.892147
-29.840723 -45.103471 2.008812
-30.473648 -43.644051 3.007402
-33.463184 -34.847931 6.701992
-33.425092 -35.091995 7.719221
-33.904703 -33.331524 7.645751
-32.941067 -36.442043 5.653458
-33.463184 -34.847931 6.701992
-32.437451 -37.904358 4.714322
-32.479957 -38.070717 5.836327
-32.941067 -36.442043 5.653458
-32.360754 -37.676595 3.558257
-32.274581 -37.491672 2.364574
-31.899644 -39.305269 3.741125
-32.437451 -37.904358 4.714322
-32.360754 -37.676595 3.558257
-30.166466 -43.376984 0.770895
-30.298534 -43.562643 1.892147
-30.799391 -41.917563 1.769486
-30.058026 -42.985342 -0.354622
-29.55717 -44.630423 -0.231961
-30.166466 -43.376984 0.770895
-30.84289 -39.594684 -1.833302
-30.985594 -39.865028 -0.717041
-31.449186 -38.282391 -0.919784
-30.187668 -40.927043 -2.754968
-30.84289 -39.594684 -1.833302
-30.65126 -39.344406 -2.95771
-30.074562 -38.368384 -6.202078
-30.301459 -38.699417 -5.060567
-29.369639 -39.619912 -7.10039
-30.074562 -38.368384 -6.202078
-29.817197 -38.057436 -7.272832
-29.038942 -36.890268 -10.311749
-29.323172 -37.259355 -9.31567
-28.30338 -38.090082 -11.127119
-29.038942 -36.890268 -10.311749
-28.75134 -36.514385 -11.230809
-27.572693 -35.606659 -14.210902
-27.959918 -35.948323 -13.257862
-26.882899 -36.616478 -14.908877
-27.572693 -35.606659 -14.210902
-27.222707 -35.170902 -15.084761
-26.004538 -34.144887 -17.618139
-26.443458 -34.429516 -16.785818
-25.369917 -35.053039 -18.183778
-26.004538 -34.144887 -17.618139
-24.723789 -35.889691 -18.826356
-25.12021 -36.26638 -18.059559
-25.369917 -35.053039 -18.183778
-24.383002 -35.414459 -19.513146
-24.133296 -36.6278 -19.388928
-24.723789 -35.889691 -18.826356
-23.925582 -35.228651 -20.231423
-24.383002 -35.414459 -19.513146
-23.488093 -35.845894 -20.604598
-23.925582 -35.228651 -20.231423
-23.404726 -40.257779 -19.116115
-23.701532 -40.9236 -18.374425
-23.085718 -39.631952 -19.853895
-23.404726 -40.257779 -19.116115
-23.670244 -39.033705 -19.149349
-22.799779 -38.988623 -20.504656
-23.085718 -39.631952 -19.853895
-23.057519 -37.827015 -20.511747
-22.799779 -38.988623 -20.504656
-23.278156 -36.69936 -20.606042
-23.057519 -37.827015 -20.511747
-23.571872 -37.280224 -19.981423
-23.488093 -35.845894 -20.604598
-23.278156 -36.69936 -20.606042
3 0 49 50
3 0 51 53
3 51 13 52
3 51 52 53
3 54 14 55
3 1 16 15
3 1 18 16
3 1 20 18
3 2 56 58
3 56 21 57
3 56 57 58
3 2 23 21
3 3 59 60
3 3 61 63
3 61 24 62
3 61 62 63
3 4 64 65
3 4 66 68
3 66 25 67
3 66 67 68
3 5 69 70
3 5 71 73
3 71 26 72
3 71 72 73
3 6 74 75
3 6 76 77
3 7 78 80
3 78 27 79
3 78 79 80
3 7 28 27
3 8 81 83
3 81 29 82
3 81 82 83
3 8 84 86
3 86 85 29
3 84 85 86
3 8 87 89
3 87 30 88
3 87 88 89
3 9 31 17
3 9 32 31
3 9 33 32
3 10 34 19
3 10 35 34
3 11 90 92
3 90 36 91
3 90 91 92
3 11 37 36
3 11 38 37
3 93 39 94
3 95 40 96
3 97 96 39
3 95 96 97
3 98 41 99
3 100 42 101
3 102 101 41
3 100 101 102
3 103 43 104
3 105 44 106
3 107 106 43
3 105 106 107
3 108 45 109
3 110 46 111
3 112 111 45
3 110 111 112
3 12 48 22
3 12 47 48
3 113 3 114
3 13 115 116
3 13 117 119
3 117 4 118
3 117 118 119
3 14 120 121
3 14 122 124
3 122 5 123
3 122 123 124
3 125 6 126
3 127 7 128
3 15 129 130
3 16 131 133
3 133 132 15
3 131 132 133
3 16 134 136
3 134 8 135
3 134 135 136
3 16 17 8
3 18 17 16
3 18 9 17
3 18 19 9
3 20 19 18
3 20 10 19
3 137 11 138
3 140 139 11
3 21 141 142
3 21 143 144
3 21 145 147
3 145 22 146
3 145 146 147
3 23 22 21
3 23 12 22
3 24 148 149
3 24 150 151
3 152 15 153
3 154 15 155
3 156 1 157
3 158 157 15
3 156 157 158
3 160 159 1
3 25 161 162
3 25 163 165
3 163 2 164
3 163 164 165
3 26 166 167
3 26 168 170
3 168 0 169
3 168 169 170
3 171 6 172
3 27 173 174
3 27 175 177
3 175 6 176
3 175 176 177
3 27 178 180
3 180 179 6
3 178 179 180
3 28 181 183
3 183 182 27
3 181 182 183
3 28 184 185
3 29 186 187
3 29 188 189
3 29 190 191
3 193 192 29
3 30 194 195
3 30 196 198
3 196 7 197
3 196 197 198
3 17 30 8
3 31 30 17
3 31 7 30
3 31 28 7
3 32 28 31
3 32 199 201
3 201 200 28
3 199 200 201
3 32 202 203
3 33 204 206
3 206 205 32
3 204 205 206
3 33 207 209
3 207 3 208
3 207 208 209
3 19 33 9
3 34 33 19
3 34 3 33
3 34 24 3
3 35 24 34
3 35 210 212
3 212 211 24
3 210 211 212
3 213 20 214
3 215 214 1
3 213 214 215
3 216 20 217
3 218 10 219
3 220 219 20
3 218 219 220
3 36 221 222
3 36 223 225
3 223 10 224
3 223 224 225
3 36 35 10
3 37 35 36
3 37 226 228
3 228 227 35
3 226 227 228
3 37 229 231
3 229 14 230
3 229 230 231
3 38 14 37
3 38 5 14
3 232 38 233
3 234 233 11
3 232 233 234
3 39 235 237
3 235 38 236
3 235 236 237
3 39 5 38
3 39 26 5
3 40 26 39
3 40 0 26
3 238 40 239
3 41 240 242
3 240 40 241
3 240 241 242
3 41 0 40
3 41 13 0
3 42 13 41
3 42 4 13
3 243 42 244
3 43 245 247
3 245 42 246
3 245 246 247
3 43 4 42
3 43 25 4
3 44 25 43
3 44 2 25
3 248 44 249
3 45 250 252
3 250 44 251
3 250 251 252
3 45 2 44
3 45 23 2
3 46 23 45
3 46 12 23
3 253 46 254
3 255 46 256
3 257 12 258
3 259 258 46
3 257 258 259
3 260 47 261
3 262 261 12
3 260 261 262
3 263 47 264
3 266 265 47
3 22 267 268
3 48 269 271
3 271 270 22
3 269 270 271
3 48 272 273
3 48 274 275
3 47 276 278
3 278 277 48
3 276 277 278
3 47 279 280
