ply
format ascii 1.0
element vertex 758
property float x
property float y
property float z
element face 871
property list uchar int vertex_index
end_header
33.974335 -22.29842 20.886658
32.710022 32.633732 30.191038
30.94385 0.618132 33.173206
28.945545 -28.682827 36.169899
30.966967 24.270493 37.74786
32.203079 16.492239 31.775785
30.077671 9.570095 38.392338
28.205482 -18.7806 41.847904
36.028435 -6.34866 20.218523
35.042782 40.333519 20.745323
35.085522 22.957891 24.228546
34.157463 6.178484 26.350353
32.521763 -10.493269 27.550652
34.214092 56.881264 16.166777
32.560143 48.555038 27.728998
29.008778 -4.522088 39.68182
29.604414 -14.397416 34.468029
31.026176 -25.521042 28.425035
31.740616 -36.802692 21.136841
30.577579 16.901567 37.971813
35.04092 -14.470881 20.673992
35.382965 -21.024178 16.931101
34.119644 -28.335255 16.925949
33.841343 36.391468 25.709501
35.155422 31.607134 22.757944
33.820042 28.320108 27.048565
31.626787 8.658274 32.541512
33.103733 11.610577 29.139971
32.4566 3.316996 29.83807
33.340748 -2.160655 27.106377
31.707611 -4.457472 30.424034
33.6036 64.767365 13.428356
32.904518 61.193199 19.751404
33.356209 53.039417 22.095692
32.290665 56.735413 25.835651
29.101227 0.182462 42.309631
28.656271 -6.927646 43.437244
28.442852 -23.637499 39.064934
28.695898 -16.547228 37.959099
29.175957 -21.833649 35.176369
30.295212 -19.907303 31.567774
29.838181 -27.1752 32.175602
30.823721 -38.050327 25.044739
30.77067 -43.54174 21.153297
31.392347 -42.443401 16.873192
31.714117 28.251171 34.318779
32.524269 24.414171 31.127384
31.429522 20.733162 34.758701
30.968338 12.994728 35.266632
30.386303 5.579342 35.850773
28.097252 -25.463209 43.260933
28.418884 -30.278038 40.344433
36.918377 1.750181 19.392809
36.639591 25.99419 19.743813
36.407673 17.352676 21.344315
33.569168 19.921293 28.230526
34.742176 14.527452 25.422823
35.891235 8.304079 22.595407
35.152084 -0.16879 23.39883
34.314442 -8.517431 23.879028
33.358864 -16.176083 24.431366
34.69239 48.346947 18.812731
33.680122 44.811066 24.024483
32.703709 40.775536 29.105204
29.549988 2.615813 38.933712
29.755688 -2.044101 36.436649
28.513748 -11.763564 40.746346
29.163181 -9.454471 37.109974
30.213106 -7.152472 33.838291
30.941992 -12.383764 30.981758
31.728838 -17.807615 28.056768
32.49411 -23.713829 24.614931
29.403755 -40.554119 33.732967
29.553211 -33.918148 32.930855
30.454733 -32.463753 28.858503
31.60264 -31.055868 24.87591
32.850925 -29.76342 20.983223
32.687004 -35.680317 17.051748
34.538067 -18.34815 20.77087
35.274223 -17.809429 18.846045
34.692825 -21.749527 18.908791
34.73103 -24.898167 16.96513
34.103897 -25.384352 18.983583
33.282059 34.660492 27.905951
33.833714 32.442276 26.45751
33.220081 30.425209 28.63942
31.279842 4.621838 32.905293
31.999023 6.104523 31.266014
31.671221 2.139767 31.537239
32.062157 -0.645029 30.195448
31.31938 -1.99023 31.764099
32.602707 59.042576 22.764908
28.665306 -26.157694 37.681774
28.739868 -22.847355 37.182095
29.033983 -25.249914 35.646721
29.508404 -24.508762 33.657639
29.360149 -27.902363 34.086304
30.460201 -44.021912 23.363882
30.591879 -46.086811 18.959633
31.616838 24.455755 34.411282
31.159384 22.520613 36.249889
30.348206 13.357697 38.14888
30.745625 15.124485 36.626572
30.484221 11.32189 36.85931
30.723713 9.296974 35.430477
30.216513 7.676479 37.06995
28.11759 -28.588432 44.046188
28.225679 -27.831861 41.840538
36.519794 -2.231184 19.773752
35.685932 41.517422 18.245043
35.843369 37.308414 19.240726
35.11837 27.411501 23.611044
35.860329 29.046059 21.317299
35.843483 24.493118 22.105255
36.587288 21.537012 20.524124
35.751942 20.044323 22.801483
32.388767 20.456524 31.463072
33.050346 22.510324 29.583685
32.85339 18.357513 30.085608
33.614166 9.112801 27.794525
33.90274 13.304283 27.351217
34.502827 10.314893 25.866264
35.36071 11.837755 23.961527
35.048645 7.450119 24.472437
35.588245 4.089708 22.948879
34.652756 3.149009 24.949825
32.973209 -6.358077 27.248154
33.839569 -5.346993 25.509792
33.44577 -9.221714 25.702673
33.858635 -12.534002 24.092846
33.002247 -13.088028 25.962057
33.916985 60.921635 14.81
34.689579 58.310608 13.111275
34.99276 54.349854 14.454491
34.514038 52.482162 17.468895
32.921223 50.957901 25.042547
33.51025 48.905571 23.218172
33.062977 46.979771 25.860565
33.188625 43.059196 26.50919
32.666012 44.4963 28.419321
28.995747 -2.507544 41.109268
29.264629 1.285128 40.661671
29.269409 -1.02036 39.29763
29.627501 0.387597 37.670261
29.343702 -3.272704 37.97263
28.217178 -16.370989 43.143578
28.34025 -15.310931 41.190193
29.111229 -15.560193 36.11393
28.884506 -13.036872 37.620094
29.344366 -12.052407 35.790955
29.635033 -8.269409 35.473557
29.920622 -10.656656 34.082752
30.552004 -9.936952 32.401005
30.199993 -13.544256 32.781555
30.692245 -22.613098 29.977278
30.990198 -18.834585 29.783884
31.398664 -21.631502 28.151449
32.131248 -20.807047 26.379284
31.735815 -24.706959 26.498917
29.478039 -37.107304 33.239643
29.820652 -36.62141 31.093845
29.985197 -33.06953 30.83511
31.254753 -37.393257 23.187166
31.179281 -34.562557 25.056236
31.714636 -34.118538 22.991096
32.232925 -30.473278 22.853346
32.275597 -33.529713 20.963116
32.842556 -32.652042 19.113817
32.211723 -36.336933 19.069344
31.678877 -41.923466 14.661827
30.782307 20.452387 37.841068
30.460342 18.475611 39.338734
35.548183 -10.457225 20.473856
35.845146 -13.73609 18.682959
35.340073 -24.210604 14.869024
34.640163 -27.89234 14.850358
34.437191 38.247711 23.323044
35.169037 35.891838 21.695677
34.493984 34.154076 24.136148
34.456215 29.953587 25.027479
34.426075 25.511326 25.686646
31.934114 12.559452 32.169918
32.598618 13.891927 30.529612
32.337688 9.879803 30.849415
32.793201 7.48669 29.528374
33.300213 5.007346 28.132797
33.72131 1.933358 26.847893
32.878807 0.731918 28.543056
32.516121 -3.379696 28.741219
32.118809 -7.264749 29.012987
33.241608 62.945156 16.740982
33.531307 59.018608 17.952675
33.803638 54.910789 19.138382
33.142883 57.202606 20.944916
32.75444 55.101254 24.041624
32.434551 52.683464 26.861944
29.004868 -1.097848 44.196068
28.866329 -3.41142 42.905235
28.779144 -5.731852 41.530987
28.285484 -21.319361 40.397385
28.394527 -17.868427 39.837112
28.539106 -20.153276 38.464104
28.884487 -19.307274 36.650948
29.352062 -18.170671 34.835308
29.901691 -17.17955 33.12434
29.653927 -20.929121 33.465733
30.036818 -23.640734 31.863588
30.405008 -26.233526 30.283609
30.838423 -40.844505 23.204653
31.265781 -40.064766 21.098257
31.644657 -39.612106 19.0714
31.090235 -42.913628 19.085094
30.811588 -45.50053 17.003685
32.194389 30.585867 32.295639
32.624004 28.533714 30.732756
32.08036 26.395029 32.689529
31.963526 22.449471 32.927387
31.77742 18.513315 33.244919
30.97016 18.818098 36.429802
31.206461 16.861511 35.053768
31.56094 14.820942 33.530117
31.298695 11.020617 33.823273
30.970203 7.145331 34.204693
30.62731 3.040165 34.517227
28.111877 -19.75231 44.047905
28.055973 -22.882643 44.611828
28.127657 -22.048231 42.47488
28.232481 -24.694777 41.078548
28.418005 -27.277382 39.639145
28.657692 -29.644958 38.124798
35.905819 33.238556 20.237305
33.128735 26.385094 29.226027
33.71307 24.094635 27.699345
34.293129 21.369091 26.345594
33.325253 15.786341 28.803053
34.121449 17.264151 26.887569
34.968086 18.708443 24.807878
35.577694 15.728464 23.445679
36.209389 12.78537 21.964367
36.743946 9.484996 20.586048
36.450951 5.077491 21.00316
36.096584 0.986935 21.357466
35.660236 -3.235806 21.731068
34.19627 -1.188519 25.379589
34.718185 -4.339013 23.723812
35.182095 -7.412165 22.083214
34.728619 -11.332889 22.303534
34.241215 -15.307996 22.489481
33.755188 -19.083277 22.637241
34.927681 44.340557 19.664051
34.004265 50.755569 20.384428
34.171375 46.773766 21.424692
34.315571 42.493721 22.450365
33.747654 40.57196 25.039557
33.217918 38.824799 27.403309
32.722134 36.618088 29.716021
31.993425 54.408241 28.768351
32.257374 34.568691 31.899698
31.846264 32.386688 33.8964
29.774605 8.228007 39.966122
29.809156 6.149021 38.713535
29.91934 3.963557 37.359928
30.072447 1.530368 36.077888
30.287107 -0.819685 34.836479
28.461546 -10.51885 44.034275
28.555489 -9.238187 42.146778
28.738831 -8.211342 40.245552
28.554245 -14.206172 39.400536
28.758186 -10.882257 38.949863
29.024437 -7.066776 38.527809
29.439056 -5.713508 36.82217
29.954308 -4.429938 35.179295
30.578007 -3.20159 33.514999
30.891159 -5.903769 32.195198
31.283314 -8.362541 30.799259
31.703442 -11.217248 29.314648
30.575157 -16.110685 31.345572
31.322342 -15.189236 29.560074
32.159264 -14.267788 27.696932
32.532017 -17.131203 26.213457
32.95369 -19.950277 24.468594
33.239925 -23.08238 22.716713
28.478846 -33.530991 40.944912
28.667789 -32.72438 38.732731
28.934444 -32.059151 36.561703
29.198923 -34.652519 35.07864
29.263309 -31.221903 34.547543
29.692074 -30.719902 32.460117
30.164976 -29.66045 30.605402
30.72146 -29.090542 28.640221
30.666105 -35.392059 27.020081
30.985546 -31.86331 26.898989
31.368286 -28.210587 26.665966
32.057606 -27.457605 24.686195
32.74107 -26.874805 22.750132
33.444683 -26.202557 20.78684
33.480991 -29.148462 18.969831
33.378864 -32.166977 16.990089
32.031998 -39.138458 16.896536
31.063175 23.395553 36.998874
31.241622 24.366519 36.142995
31.145414 25.241459 36.891981
28.148563 -30.119284 44.351457
28.093843 -29.000222 45.101255
28.196838 -29.841741 43.261362
28.148563 -30.119284 44.351457
36.439443 -6.067771 19.170829
36.685123 -4.009033 18.948444
36.274114 -4.289922 19.996138
29.922443 -37.896068 30.153022
29.746529 -38.235 31.316949
30.010036 -36.161632 30.15041
29.922443 -37.896068 30.153022
30.423124 19.176476 40.081385
30.555985 20.226818 39.321701
35.698744 -19.025726 16.869562
35.644373 -17.418352 17.827034
35.328594 -19.416804 17.888573
35.704866 -20.666837 15.886768
35.698744 -19.025726 16.869562
35.361519 -22.617391 15.900063
35.68342 -22.26005 14.855729
35.704866 -20.666837 15.886768
33.998894 -29.935727 15.94968
34.259153 -29.714269 14.911885
34.379903 -28.113798 15.888153
33.073063 62.069177 18.246193
32.942721 64.078539 17.553871
32.774175 63.202561 19.059082
29.012411 -1.442819 45.213911
29.107669 0.301137 44.893889
28.7613 -5.169533 43.171239
28.83586 -4.009755 43.856573
28.730831 -5.767868 44.122577
30.528213 -47.134672 16.905003
30.701733 -45.79367 17.981659
30.418359 -47.427813 17.882978
30.318585 -48.426401 15.737527
30.601959 -46.792259 15.836209
30.528213 -47.134672 16.905003
28.108183 -20.10127 45.089361
28.14976 -18.49346 44.693006
28.076613 -24.172926 43.93638
28.048065 -24.47836 44.95736
28.068705 -25.768642 44.281912
37.336906 2.186775 18.288101
37.111858 3.911596 19.144959
36.641852 28.176844 19.286164
36.25222 29.702778 20.072907
36.24996 27.520125 20.530556
37.02753 26.494277 18.544374
36.641852 28.176844 19.286164
37.007351 24.285987 18.99595
37.02753 26.494277 18.544374
36.825432 17.901941 20.215003
36.915239 19.994109 19.804907
36.497481 19.444844 20.93422
36.709682 15.662792 20.641314
36.825432 17.901941 20.215003
33.78229 65.637745 11.728704
33.423125 66.667534 12.787078
35.082575 47.162054 17.95513
34.974854 49.19427 17.35422
34.810035 46.343752 19.238391
35.20022 45.158859 18.38079
35.082575 47.162054 17.95513
31.873246 53.022703 30.147606
31.803475 55.033929 29.774676
32.069634 52.329309 29.118505
31.873246 53.022703 30.147606
32.074111 35.331055 32.770754
32.262583 36.456432 31.704217
31.868556 34.240053 33.769105
32.051819 33.477689 32.898049
32.074111 35.331055 32.770754
29.673107 7.710434 40.816298
29.785838 9.286264 40.586222
29.220514 1.99423 42.160347
29.165258 1.369805 43.014841
29.537834 3.759488 39.628345
29.395155 3.094146 40.492325
29.407308 1.950471 39.797691
29.679572 4.382417 38.823623
29.667419 5.526092 39.518257
29.537834 3.759488 39.628345
28.383026 -12.241725 44.351862
28.46843 -10.889785 45.080507
28.534619 -10.500875 41.446562
28.461586 -11.008835 42.377359
28.440715 -12.271524 41.677143
28.517164 -35.128756 41.297691
28.412717 -33.862284 42.07778
28.79835 -33.918701 37.92707
28.693956 -34.304979 39.000256
28.931677 -33.586087 36.841556
28.801116 -32.391765 37.647217
28.79835 -33.918701 37.92707
29.384542 -42.091278 33.944896
29.491902 -41.889601 32.756414
29.290318 -40.712546 34.867354
29.384542 -42.091278 33.944896
29.298865 -39.150808 34.563297
29.290318 -40.712546 34.867354
30.744913 -36.721193 26.03241
30.528381 -36.98195 27.101771
30.607188 -38.311084 26.1141
32.897011 -35.461312 15.972728
33.242941 -33.704642 15.941899
33.032934 -33.923647 17.020919
32.038711 -40.227856 14.759363
31.796827 -41.664837 13.629326
32.628786 62.028391 20.777809
32.774175 63.202561 19.059082
32.47788 60.95308 22.284561
32.753613 60.117887 21.258156
32.628786 62.028391 20.777809
32.342827 59.791672 23.888466
32.47788 60.95308 22.284561
32.186806 58.638091 25.423837
32.446686 57.888994 24.300279
32.342827 59.791672 23.888466
28.641139 -7.472762 44.442341
28.730831 -5.767868 44.122577
30.290273 -45.646214 23.364431
30.322112 -44.236673 24.415745
30.401157 -45.417326 22.226121
30.290273 -45.646214 23.364431
30.556392 -45.17724 21.120829
30.615436 -43.781826 22.258589
30.401157 -45.417326 22.226121
30.466996 -46.449776 20.023997
30.681275 -44.814275 20.056465
30.556392 -45.17724 21.120829
30.349939 -47.696716 18.986944
30.466996 -46.449776 20.023997
30.418359 -47.427813 17.882978
30.349939 -47.696716 18.986944
31.470349 25.33409 35.223692
31.665478 26.353463 34.365031
31.518988 27.231798 35.177441
31.388111 23.488184 35.330585
31.470349 25.33409 35.223692
31.241622 24.366519 36.142995
28.078874 -27.331254 44.67454
28.093843 -29.000222 45.101255
28.107421 -27.025821 43.65356
28.068705 -25.768642 44.281912
28.078874 -27.331254 44.67454
28.250882 -29.463455 42.158537
28.171634 -28.210147 42.943363
28.196838 -29.841741 43.261362
28.347485 -30.686543 41.410485
28.322281 -29.054949 41.092486
28.250882 -29.463455 42.158537
36.940261 -1.928766 18.675167
37.139553 0.061917 18.484696
36.719085 -0.240501 19.583281
36.940261 -1.928766 18.675167
36.685123 -4.009033 18.948444
36.095236 40.254202 17.418693
35.977411 42.332852 16.952631
36.173954 38.149698 17.916535
36.095236 40.254202 17.418693
35.764651 39.412918 18.742884
36.235869 35.989225 18.467382
36.173954 38.149698 17.916535
34.115628 61.720925 13.232218
33.958935 63.643789 12.541396
33.760292 62.8445 14.119178
34.501925 60.415411 12.382855
34.115628 61.720925 13.232218
34.303282 59.616122 13.960638
34.909891 59.030407 11.561801
34.501925 60.415411 12.382855
35.103766 56.94973 12.280105
34.909891 59.030407 11.561801
35.255356 54.969353 12.951714
35.103766 56.94973 12.280105
34.841169 56.330231 13.782883
35.409286 52.884541 13.706276
35.255356 54.969353 12.951714
35.125039 52.195723 15.1751
35.409286 52.884541 13.706276
34.885677 51.261877 16.682302
35.125039 52.195723 15.1751
34.753399 53.416008 15.961693
34.603214 50.414555 18.140813
34.974854 49.19427 17.35422
34.885677 51.261877 16.682302
28.292431 -14.575236 42.87576
28.260842 -15.167794 43.906514
28.353966 -14.045207 41.899067
28.292431 -14.575236 42.87576
28.278714 -15.84096 42.166885
28.426999 -13.537247 40.96827
28.440715 -12.271524 41.677143
28.353966 -14.045207 41.899067
29.53808 -40.201355 32.63651
29.491902 -41.889601 32.756414
29.575222 -38.477947 32.389848
29.440897 -38.830711 33.486305
29.53808 -40.201355 32.63651
29.649345 -36.864357 32.166744
29.575222 -38.477947 32.389848
29.746529 -38.235 31.316949
30.092308 -34.385693 30.021043
29.902924 -34.84547 30.964478
30.010036 -36.161632 30.15041
30.327076 -34.082804 29.032739
30.219965 -32.766641 29.846806
30.092308 -34.385693 30.021043
31.344568 -43.485332 14.678955
31.535612 -42.183433 15.767509
31.201303 -43.7453 15.784637
31.419992 -43.271324 13.563134
31.344568 -43.485332 14.678955
31.796827 -41.664837 13.629326
31.419992 -43.271324 13.563134
30.716967 21.215206 38.572868
30.874637 22.36144 37.794464
30.809297 23.124259 38.526264
30.621325 19.463999 38.589901
30.716967 21.215206 38.572868
30.555985 20.226818 39.321701
30.334832 17.619153 40.044996
30.423124 19.176476 40.081385
30.357351 16.793713 39.39501
30.334832 17.619153 40.044996
30.415969 16.006691 38.71155
30.51896 17.688589 38.655273
30.357351 16.793713 39.39501
30.301283 14.234756 38.800083
30.462893 15.129632 38.060346
30.415969 16.006691 38.71155
30.188674 12.5431 38.900425
30.301283 14.234756 38.800083
30.053407 10.649299 39.022154
30.212938 11.463896 38.270609
30.188674 12.5431 38.900425
35.95836 -10.072994 19.466276
36.198487 -8.018712 19.33861
35.788309 -8.402942 20.34619
36.106842 -11.712426 18.570828
35.95836 -10.072994 19.466276
35.696664 -12.096657 19.578408
36.21887 -13.393681 17.650706
36.106842 -11.712426 18.570828
35.929834 -15.381683 17.745491
35.559685 -15.77276 18.764502
35.644373 -17.418352 17.827034
36.21887 -13.393681 17.650706
35.929834 -15.381683 17.745491
35.594541 -23.939891 13.79721
35.68342 -22.26005 14.855729
35.202335 -25.896326 13.797487
35.594541 -23.939891 13.79721
34.85238 -27.737194 13.788154
35.202335 -25.896326 13.797487
34.990118 -26.051472 14.859691
34.460281 -29.550598 13.792667
34.85238 -27.737194 13.788154
34.460281 -29.550598 13.792667
34.259153 -29.714269 14.911885
33.280628 65.787918 14.364025
33.423125 66.667534 12.787078
33.099632 64.876814 16.020338
32.942721 64.078539 17.553871
33.422604 63.85626 15.084669
33.280628 65.787918 14.364025
33.099632 64.876814 16.020338
29.117078 0.72965 43.958059
29.107669 0.301137 44.893889
29.053047 -0.457693 43.252849
29.165258 1.369805 43.014841
29.117078 0.72965 43.958059
28.90513 -2.852969 44.501989
29.012411 -1.442819 45.213911
28.935598 -2.254634 43.550652
28.90513 -2.852969 44.501989
28.83586 -4.009755 43.856573
30.653367 -39.624086 25.176845
30.607188 -38.311084 26.1141
30.471607 -42.609879 24.336416
30.322112 -44.236673 24.415745
30.660718 -41.021175 24.256802
30.471607 -42.609879 24.336416
30.649312 -42.433208 23.284267
30.831072 -39.447416 24.124696
30.653367 -39.624086 25.176845
30.660718 -41.021175 24.256802
30.910923 -45.273865 15.849884
31.201303 -43.7453 15.784637
31.101968 -43.971965 16.938439
30.910923 -45.273865 15.849884
30.601959 -46.792259 15.836209
28.20241 -16.802799 44.240843
28.260842 -15.167794 43.906514
28.164527 -18.06165 43.595742
28.20241 -16.802799 44.240843
28.14976 -18.49346 44.693006
28.051469 -23.346147 45.686025
28.048065 -24.47836 44.95736
28.080232 -21.666437 45.371323
28.075727 -22.12994 46.44552
28.051469 -23.346147 45.686025
28.083925 -21.317477 44.329867
28.108183 -20.10127 45.089361
28.080232 -21.666437 45.371323
37.336906 2.186775 18.288101
37.139553 0.061917 18.484696
36.439443 -6.067771 19.170829
36.198487 -8.018712 19.33861
36.267094 33.954296 18.965671
36.235869 35.989225 18.467382
35.874594 35.273485 19.739016
36.274966 31.799027 19.53291
35.883074 31.142308 20.777302
36.25222 29.702778 20.072907
36.267094 33.954296 18.965671
36.274966 31.799027 19.53291
36.9812 22.057398 19.386105
37.007351 24.285987 18.99595
36.613439 23.765601 20.133969
36.9812 22.057398 19.386105
36.915239 19.994109 19.804907
36.61054 13.37914 20.95134
36.709682 15.662792 20.641314
36.308531 15.069023 21.654341
36.877819 11.728953 20.26218
36.61054 13.37914 20.95134
36.476668 11.135183 21.275208
37.184196 10.014513 19.437545
36.877819 11.728953 20.26218
37.024643 7.779003 19.741578
37.184196 10.014513 19.437545
36.878146 5.575251 19.950134
37.024643 7.779003 19.741578
36.597448 7.281244 20.794604
36.684664 3.413836 20.197985
37.111858 3.911596 19.144959
36.878146 5.575251 19.950134
33.78229 65.637745 11.728704
33.958935 63.643789 12.541396
35.579346 43.747292 17.671287
35.977411 42.332852 16.952631
35.306807 42.92899 18.954547
35.579346 43.747292 17.671287
35.20022 45.158859 18.38079
32.055926 57.565468 26.900279
32.186806 58.638091 25.423837
31.907306 56.401882 28.366629
31.803475 55.033929 29.774676
32.142045 55.571827 27.302001
32.055926 57.565468 26.900279
31.907306 56.401882 28.366629
32.290197 51.466921 28.165301
32.213988 53.545852 27.815148
32.069634 52.329309 29.118505
32.352993 49.402708 28.598828
32.497347 50.619251 27.295471
32.290197 51.466921 28.165301
32.39065 47.499813 28.970041
32.352993 49.402708 28.598828
32.443585 45.470444 29.315202
32.613078 46.525669 28.07416
32.39065 47.499813 28.970041
32.464342 43.44652 29.660287
32.443585 45.470444 29.315202
32.483191 41.586138 30.003228
32.68486 42.635918 28.762262
32.464342 43.44652 29.660287
32.485751 39.559855 30.30697
32.483191 41.586138 30.003228
32.494963 37.48113 30.612378
32.712922 38.696812 29.410612
32.485751 39.559855 30.30697
32.489754 35.59339 30.807859
32.494963 37.48113 30.612378
32.262583 36.456432 31.704217
31.697012 33.028637 34.773809
31.868556 34.240053 33.769105
31.651022 31.190638 34.874805
31.697012 33.028637 34.773809
31.584949 29.122879 35.085994
31.780191 30.318929 34.10759
31.651022 31.190638 34.874805
31.518988 27.231798 35.177441
31.584949 29.122879 35.085994
31.034753 26.004787 37.744468
31.145414 25.241459 36.891981
30.890049 24.887592 38.561544
31.034753 26.004787 37.744468
30.809297 23.124259 38.526264
30.890049 24.887592 38.561544
29.901874 9.978255 39.809046
29.785838 9.286264 40.586222
29.926138 8.899051 39.17923
30.053407 10.649299 39.022154
29.901874 9.978255 39.809046
29.302214 2.545563 41.336367
29.220514 1.99423 42.160347
29.182928 0.733795 41.485651
29.302214 2.545563 41.336367
29.395155 3.094146 40.492325
29.650143 6.565585 40.14455
29.673107 7.710434 40.816298
29.791881 7.188514 39.339828
29.650143 6.565585 40.14455
29.667419 5.526092 39.518257
28.543776 -9.268365 44.740856
28.46843 -10.889785 45.080507
28.558909 -8.723248 43.73576
28.641139 -7.472762 44.442341
28.543776 -9.268365 44.740856
28.414614 -11.649166 43.321108
28.383026 -12.241725 44.351862
28.508517 -9.878519 43.090526
28.414614 -11.649166 43.321108
28.461586 -11.008835 42.377359
28.377465 -32.31302 41.710724
28.412717 -33.862284 42.07778
28.448865 -31.904514 40.644672
28.347485 -30.686543 41.410485
28.377465 -32.31302 41.710724
28.599485 -34.708285 40.106346
28.517164 -35.128756 41.297691
28.573318 -33.127685 39.838822
28.599485 -34.708285 40.106346
28.693956 -34.304979 39.000256
29.336006 -37.427401 34.316635
29.298865 -39.150808 34.563297
29.440897 -38.830711 33.486305
29.196449 -36.200008 35.236134
29.336006 -37.427401 34.316635
29.338481 -35.879911 34.159142
29.063917 -34.88277 36.100025
29.196449 -36.200008 35.236134
29.066683 -33.355835 35.820172
28.931677 -33.586087 36.841556
29.063917 -34.88277 36.100025
30.432762 -35.546957 28.113529
30.528381 -36.98195 27.101771
30.560419 -33.927906 27.939292
30.327076 -34.082804 29.032739
30.432762 -35.546957 28.113529
33.628504 -31.851588 15.981751
33.998894 -29.935727 15.94968
33.749254 -30.251116 16.958019
33.628504 -31.851588 15.981751
33.242941 -33.704642 15.941899
32.215271 -38.835352 15.876718
31.855438 -40.530962 15.779181
32.038711 -40.227856 14.759363
32.542774 -37.106282 15.954324
32.359501 -37.409388 16.974142
32.215271 -38.835352 15.876718
32.897011 -35.461312 15.972728
32.542774 -37.106282 15.954324
3 0 80 78
3 0 82 80
3 1 85 83
3 2 88 86
3 2 90 88
3 3 94 92
3 3 96 94
3 4 299 301
3 299 100 300
3 299 300 301
3 6 103 101
3 6 105 103
3 302 106 303
3 305 304 106
3 8 306 308
3 308 307 108
3 306 307 308
3 9 110 109
3 10 113 111
3 10 115 113
3 5 118 116
3 11 121 119
3 11 123 121
3 11 125 123
3 12 128 126
3 12 130 128
3 13 132 131
3 13 133 132
3 13 134 133
3 14 137 135
3 14 139 137
3 15 142 140
3 15 144 142
3 7 146 145
3 16 149 147
3 16 151 149
3 16 153 151
3 17 156 154
3 17 158 156
3 309 160 310
3 312 311 160
3 18 164 162
3 18 166 164
3 18 168 166
3 313 171 314
3 20 173 172
3 21 315 317
3 317 316 79
3 315 316 317
3 21 318 319
3 21 320 322
3 320 174 321
3 320 321 322
3 22 175 81
3 22 323 325
3 325 324 175
3 323 324 325
3 23 178 176
3 25 179 84
3 25 180 179
3 26 183 181
3 28 184 87
3 28 185 184
3 28 187 185
3 30 188 89
3 30 189 188
3 32 326 328
3 326 190 327
3 326 327 328
3 32 191 190
3 32 193 191
3 34 194 91
3 34 195 194
3 329 196 330
3 36 331 333
3 331 197 332
3 331 332 333
3 36 198 197
3 37 201 199
3 39 202 93
3 39 203 202
3 39 205 203
3 41 206 95
3 41 207 206
3 43 208 97
3 43 209 208
3 43 211 209
3 334 212 335
3 336 335 98
3 334 335 336
3 339 338 212
3 337 338 339
3 45 215 213
3 47 216 99
3 47 217 216
3 19 218 170
3 48 219 102
3 48 220 219
3 48 221 220
3 49 222 104
3 49 223 222
3 340 224 341
3 50 342 344
3 342 225 343
3 342 343 344
3 50 226 225
3 50 227 226
3 51 228 107
3 51 229 228
3 52 345 346
3 24 230 177
3 53 347 349
3 349 348 112
3 347 348 349
3 53 350 351
3 53 352 353
3 54 354 356
3 356 355 114
3 354 355 356
3 54 357 358
3 46 231 214
3 55 232 117
3 55 233 232
3 27 234 182
3 56 235 120
3 56 236 235
3 56 237 236
3 57 238 122
3 57 239 238
3 57 240 239
3 58 241 124
3 58 242 241
3 29 243 186
3 59 244 127
3 59 245 244
3 59 246 245
3 60 247 129
3 60 248 247
3 31 359 360
3 61 361 362
3 61 363 365
3 363 249 364
3 363 364 365
3 33 250 192
3 62 251 136
3 62 252 251
3 62 253 252
3 63 254 138
3 63 255 254
3 366 256 367
3 369 368 256
3 370 257 371
3 372 258 373
3 374 373 257
3 372 373 374
3 375 259 376
3 35 377 378
3 64 379 381
3 381 380 141
3 379 380 381
3 64 382 384
3 382 260 383
3 382 383 384
3 64 261 260
3 65 262 143
3 65 263 262
3 385 264 386
3 66 387 389
3 387 265 388
3 387 388 389
3 66 266 265
3 38 267 200
3 67 268 148
3 67 269 268
3 67 270 269
3 68 271 150
3 68 272 271
3 68 273 272
3 69 274 152
3 69 275 274
3 40 276 204
3 70 277 155
3 70 278 277
3 70 279 278
3 71 280 157
3 71 281 280
3 390 282 391
3 392 283 393
3 394 284 395
3 396 395 283
3 394 395 396
3 72 397 398
3 72 399 400
3 72 401 402
3 73 285 159
3 73 286 285
3 73 287 286
3 74 288 161
3 74 289 288
3 42 403 405
3 403 290 404
3 403 404 405
3 75 291 163
3 75 292 291
3 75 293 292
3 76 294 165
3 76 295 294
3 76 296 295
3 77 297 167
3 77 406 408
3 408 407 297
3 406 407 408
3 44 298 210
3 410 409 169
3 78 79 20
3 80 79 78
3 80 21 79
3 80 81 21
3 82 81 80
3 82 22 81
3 83 84 23
3 85 84 83
3 85 25 84
3 86 87 26
3 88 87 86
3 88 28 87
3 88 89 28
3 90 89 88
3 90 30 89
3 411 32 412
3 413 91 414
3 415 414 32
3 413 414 415
3 416 91 417
3 418 34 419
3 420 419 91
3 418 419 420
3 421 36 422
3 92 93 37
3 94 93 92
3 94 39 93
3 94 95 39
3 96 95 94
3 96 41 95
3 423 97 424
3 425 97 426
3 427 43 428
3 429 428 97
3 427 428 429
3 430 98 431
3 432 431 43
3 430 431 432
3 433 98 434
3 436 435 98
3 437 99 438
3 439 438 45
3 437 438 439
3 100 440 442
3 440 99 441
3 440 441 442
3 100 47 99
3 101 102 19
3 103 102 101
3 103 48 102
3 103 104 48
3 105 104 103
3 105 49 104
3 106 443 444
3 106 445 447
3 445 50 446
3 445 446 447
3 106 107 50
3 448 107 449
3 450 449 106
3 448 449 450
3 451 51 452
3 453 452 107
3 451 452 453
3 108 454 456
3 456 455 52
3 454 455 456
3 458 457 108
3 109 459 460
3 110 461 463
3 463 462 109
3 461 462 463
3 110 464 465
3 111 112 24
3 113 112 111
3 113 53 112
3 113 114 53
3 115 114 113
3 115 54 114
3 116 117 46
3 118 117 116
3 118 55 117
3 119 120 27
3 121 120 119
3 121 56 120
3 121 122 56
3 123 122 121
3 123 57 122
3 123 124 57
3 125 124 123
3 125 58 124
3 126 127 29
3 128 127 126
3 128 59 127
3 128 129 59
3 130 129 128
3 130 60 129
3 131 466 468
3 468 467 31
3 466 467 468
3 132 469 471
3 471 470 131
3 469 470 471
3 132 472 473
3 132 474 475
3 133 476 478
3 478 477 132
3 476 477 478
3 133 479 480
3 133 481 482
3 134 483 485
3 485 484 133
3 483 484 485
3 134 486 488
3 486 61 487
3 486 487 488
3 135 136 33
3 137 136 135
3 137 62 136
3 137 138 62
3 139 138 137
3 139 63 138
3 140 141 35
3 142 141 140
3 142 64 141
3 142 143 64
3 144 143 142
3 144 65 143
3 145 489 490
3 146 491 493
3 493 492 145
3 491 492 493
3 146 494 496
3 494 66 495
3 494 495 496
3 147 148 38
3 149 148 147
3 149 67 148
3 149 150 67
3 151 150 149
3 151 68 150
3 151 152 68
3 153 152 151
3 153 69 152
3 154 155 40
3 156 155 154
3 156 70 155
3 156 157 70
3 158 157 156
3 158 71 157
3 497 72 498
3 499 159 500
3 501 500 72
3 499 500 501
3 160 502 504
3 502 159 503
3 502 503 504
3 160 73 159
3 160 161 73
3 505 161 506
3 507 506 160
3 505 506 507
3 508 74 509
3 510 509 161
3 508 509 510
3 162 163 42
3 164 163 162
3 164 75 163
3 164 165 75
3 166 165 164
3 166 76 165
3 166 167 76
3 168 167 166
3 168 77 167
3 511 169 512
3 513 512 44
3 511 512 513
3 514 169 515
3 517 516 169
3 518 170 519
3 520 519 4
3 518 519 520
3 171 521 523
3 521 170 522
3 521 522 523
3 171 19 170
3 524 171 525
3 526 171 527
3 528 19 529
3 530 529 171
3 528 529 530
3 531 101 532
3 533 532 19
3 531 532 533
3 534 101 535
3 536 6 537
3 538 537 101
3 536 537 538
3 172 539 541
3 541 540 8
3 539 540 541
3 173 542 544
3 544 543 172
3 542 543 544
3 173 545 546
3 79 173 20
3 547 173 548
3 549 548 79
3 547 548 549
3 551 550 173
3 174 552 553
3 174 554 555
3 81 174 21
3 175 174 81
3 175 556 558
3 558 557 174
3 556 557 558
3 175 559 560
3 562 561 175
3 176 177 9
3 178 177 176
3 178 24 177
3 84 178 23
3 179 178 84
3 179 24 178
3 179 111 24
3 180 111 179
3 180 10 111
3 181 182 5
3 183 182 181
3 183 27 182
3 87 183 26
3 184 183 87
3 184 27 183
3 184 119 27
3 185 119 184
3 185 11 119
3 185 186 11
3 187 186 185
3 187 29 186
3 89 187 28
3 188 187 89
3 188 29 187
3 188 126 29
3 189 126 188
3 189 12 126
3 563 31 564
3 190 565 566
3 190 567 569
3 567 31 568
3 567 568 569
3 190 131 31
3 191 131 190
3 191 13 131
3 191 192 13
3 193 192 191
3 193 33 192
3 91 193 32
3 194 193 91
3 194 33 193
3 194 135 33
3 195 135 194
3 195 14 135
3 196 570 571
3 196 572 574
3 572 35 573
3 572 573 574
3 575 196 576
3 197 577 579
3 577 196 578
3 577 578 579
3 197 35 196
3 197 140 35
3 198 140 197
3 198 15 140
3 199 200 7
3 201 200 199
3 201 38 200
3 93 201 37
3 202 201 93
3 202 38 201
3 202 147 38
3 203 147 202
3 203 16 147
3 203 204 16
3 205 204 203
3 205 40 204
3 95 205 39
3 206 205 95
3 206 40 205
3 206 154 40
3 207 154 206
3 207 17 154
3 580 42 581
3 97 582 583
3 208 584 586
3 586 585 97
3 584 585 586
3 208 587 589
3 587 42 588
3 587 588 589
3 208 162 42
3 209 162 208
3 209 18 162
3 209 210 18
3 211 210 209
3 211 44 210
3 98 211 43
3 212 211 98
3 212 44 211
3 212 590 592
3 592 591 44
3 590 591 592
3 594 593 212
3 213 214 1
3 215 214 213
3 215 46 214
3 99 215 45
3 216 215 99
3 216 46 215
3 216 116 46
3 217 116 216
3 217 5 116
3 170 100 4
3 218 100 170
3 218 47 100
3 102 218 19
3 219 218 102
3 219 47 218
3 219 217 47
3 220 217 219
3 220 5 217
3 220 181 5
3 221 181 220
3 221 26 181
3 104 221 48
3 222 221 104
3 222 26 221
3 222 86 26
3 223 86 222
3 223 2 86
3 595 145 596
3 224 597 599
3 597 145 598
3 597 598 599
3 224 7 145
3 225 600 601
3 225 602 604
3 602 603 604
3 225 605 607
3 605 224 606
3 605 606 607
3 226 224 225
3 226 7 224
3 226 199 7
3 227 199 226
3 227 37 199
3 107 227 50
3 228 227 107
3 228 37 227
3 228 92 37
3 229 92 228
3 229 3 92
3 609 608 52
3 611 610 8
3 177 110 9
3 230 110 177
3 230 612 614
3 614 613 110
3 612 613 614
3 112 230 24
3 615 230 616
3 617 616 112
3 615 616 617
3 619 618 230
3 114 620 622
3 622 621 53
3 620 621 622
3 624 623 114
3 214 85 1
3 231 85 214
3 231 25 85
3 117 231 46
3 232 231 117
3 232 25 231
3 232 180 25
3 233 180 232
3 233 10 180
3 182 118 5
3 234 118 182
3 234 55 118
3 120 234 27
3 235 234 120
3 235 55 234
3 235 233 55
3 236 233 235
3 236 10 233
3 236 115 10
3 237 115 236
3 237 54 115
3 122 237 56
3 238 237 122
3 238 54 237
3 238 625 627
3 627 626 54
3 625 626 627
3 239 628 630
3 630 629 238
3 628 629 630
3 239 631 632
3 239 633 634
3 240 635 637
3 637 636 239
3 635 636 637
3 240 638 640
3 638 52 639
3 638 639 640
3 124 240 57
3 241 240 124
3 241 52 240
3 241 108 52
3 242 108 241
3 242 8 108
3 186 125 11
3 243 125 186
3 243 58 125
3 127 243 29
3 244 243 127
3 244 58 243
3 244 242 58
3 245 242 244
3 245 8 242
3 245 172 8
3 246 172 245
3 246 20 172
3 129 246 59
3 247 246 129
3 247 20 246
3 247 78 20
3 248 78 247
3 248 0 78
3 642 641 31
3 643 109 644
3 249 645 647
3 645 109 646
3 645 646 647
3 249 9 109
3 192 134 13
3 250 134 192
3 250 61 134
3 136 250 33
3 251 250 136
3 251 61 250
3 251 249 61
3 252 249 251
3 252 9 249
3 252 176 9
3 253 176 252
3 253 23 176
3 138 253 62
3 254 253 138
3 254 23 253
3 254 83 23
3 255 83 254
3 255 1 83
3 648 34 649
3 256 650 651
3 256 652 654
3 652 34 653
3 652 653 654
3 256 195 34
3 655 195 656
3 657 656 256
3 655 656 657
3 658 14 659
3 660 659 195
3 658 659 660
3 661 14 662
3 663 139 664
3 665 664 14
3 663 664 665
3 666 139 667
3 668 63 669
3 670 669 139
3 668 669 670
3 671 63 672
3 673 255 674
3 675 674 63
3 673 674 675
3 257 676 678
3 676 255 677
3 676 677 678
3 257 1 255
3 257 213 1
3 258 213 257
3 258 45 213
3 679 258 680
3 681 258 682
3 683 45 684
3 685 684 258
3 683 684 685
3 687 686 45
3 688 4 689
3 690 4 691
3 693 692 4
3 259 694 695
3 259 696 698
3 696 6 697
3 696 697 698
3 141 699 701
3 701 700 35
3 699 700 701
3 703 702 141
3 704 259 705
3 260 706 708
3 706 259 707
3 706 707 708
3 260 6 259
3 260 105 6
3 261 105 260
3 261 49 105
3 143 261 64
3 262 261 143
3 262 49 261
3 262 223 49
3 263 223 262
3 263 2 223
3 264 709 710
3 264 711 713
3 711 36 712
3 711 712 713
3 714 264 715
3 265 716 718
3 716 264 717
3 716 717 718
3 265 36 264
3 265 198 36
3 266 198 265
3 266 15 198
3 200 146 7
3 267 146 200
3 267 66 146
3 148 267 38
3 268 267 148
3 268 66 267
3 268 266 66
3 269 266 268
3 269 15 266
3 269 144 15
3 270 144 269
3 270 65 144
3 150 270 67
3 271 270 150
3 271 65 270
3 271 263 65
3 272 263 271
3 272 2 263
3 272 90 2
3 273 90 272
3 273 30 90
3 152 273 68
3 274 273 152
3 274 30 273
3 274 189 30
3 275 189 274
3 275 12 189
3 204 153 16
3 276 153 204
3 276 69 153
3 155 276 40
3 277 276 155
3 277 69 276
3 277 275 69
3 278 275 277
3 278 12 275
3 278 130 12
3 279 130 278
3 279 60 130
3 157 279 70
3 280 279 157
3 280 60 279
3 280 248 60
3 281 248 280
3 281 0 248
3 282 719 720
3 282 721 723
3 721 51 722
3 721 722 723
3 724 282 725
3 283 726 728
3 726 282 727
3 726 727 728
3 283 51 282
3 283 229 51
3 284 229 283
3 284 3 229
3 159 729 731
3 731 730 72
3 729 730 731
3 285 732 734
3 734 733 159
3 732 733 734
3 285 735 736
3 285 737 739
3 737 284 738
3 737 738 739
3 286 284 285
3 286 3 284
3 286 96 3
3 287 96 286
3 287 41 96
3 161 287 73
3 288 287 161
3 288 41 287
3 288 207 41
3 289 207 288
3 289 17 207
3 290 740 741
3 290 742 744
3 742 74 743
3 742 743 744
3 163 290 42
3 291 290 163
3 291 74 290
3 291 289 74
3 292 289 291
3 292 17 289
3 292 158 17
3 293 158 292
3 293 71 158
3 165 293 75
3 294 293 165
3 294 71 293
3 294 281 71
3 295 281 294
3 295 0 281
3 295 82 0
3 296 82 295
3 296 22 82
3 167 296 76
3 297 296 167
3 297 22 296
3 297 745 747
3 747 746 22
3 745 746 747
3 749 748 297
3 210 168 18
3 298 168 210
3 298 77 168
3 169 298 44
3 750 298 751
3 752 751 169
3 750 751 752
3 753 77 754
3 755 754 298
3 753 754 755
3 757 756 77
