ply
format ascii 1.0
element vertex 570
property float x
property float y
property float z
element face 544
property list uchar int vertex_index
end_header
25.29129 43.441563 12.326591
22.26025 36.877525 -9.669761
17.85008 39.389153 -12.964732
22.180426 50.754559 -12.457651
28.418846 42.980377 -2.256566
29.871418 38.420071 3.787259
20.437086 46.882549 21.449648
25.855656 47.091255 -7.729711
27.097025 33.681446 -6.503922
20.22164 52.321171 -14.792441
22.100956 57.598915 -14.359391
25.490911 46.317787 8.302843
27.613411 43.819984 4.249182
27.817257 41.100574 7.766978
18.331011 52.021599 21.678217
14.633996 33.832996 -15.24724
19.938396 38.36356 -11.271214
17.843542 32.29187 -11.312805
19.956491 31.024811 -9.837499
22.465805 29.823826 -8.515133
25.29887 53.709343 -8.520334
26.376532 51.378014 -5.463036
28.344809 38.882763 -4.846082
16.022404 40.050598 -14.947287
17.969681 46.319054 -14.927681
20.058363 45.267227 -12.837152
22.270069 43.819027 -10.88036
27.085135 48.761185 -2.233202
27.439148 46.279339 0.972162
29.191891 40.838833 0.668763
20.730972 50.227123 17.38242
22.819685 45.32803 16.880299
16.006306 33.133785 -13.100468
23.84799 55.637146 -11.456809
24.129107 49.017929 -10.119138
24.454746 42.271545 -9.008092
27.329922 45.01899 -5.0907
26.468983 40.559093 -7.078228
24.734915 35.230785 -8.099723
25.414719 44.83984 10.268475
26.59181 43.675014 8.145424
26.590441 42.342163 9.947253
27.756599 39.944672 9.751551
26.55802 41.011013 11.849094
21.075941 37.710609 -10.471559
19.998117 34.848824 -10.518187
21.101271 33.993126 -9.788115
21.158579 30.271452 -9.147262
22.289156 33.329746 -9.106336
17.076397 46.846458 -16.039871
18.148699 49.876629 -15.999745
21.20487 51.486485 -13.590063
20.123447 48.835987 -13.790211
21.206051 48.044014 -12.649862
21.207581 44.649414 -11.825382
22.258392 47.512661 -11.642811
26.615812 47.76823 2.809225
28.701376 41.131886 4.055698
28.521675 42.351337 2.343
29.535343 39.652267 2.227862
19.404268 49.486614 21.46723
19.531454 51.296856 19.429926
20.588539 48.612297 19.327236
21.789268 47.80331 16.99942
21.669914 46.01717 19.170876
16.893179 39.708092 -13.898707
15.942882 36.462589 -13.99973
16.83197 36.395668 -13.062675
23.6609 58.803326 -12.277047
24.405993 57.766575 -10.653813
25.624657 50.511749 -7.989911
24.853962 51.222992 -9.371945
25.034159 48.063473 -8.920063
24.288727 45.724792 -9.540741
25.20896 44.752117 -8.517473
27.732899 45.849308 -2.318344
27.299459 47.206047 -3.806404
27.92128 43.944172 -3.747542
27.896463 36.440971 -5.762179
27.419052 39.749889 -6.020877
26.802599 37.018089 -6.770744
25.695454 38.120605 -7.692201
21.28142 54.877392 -14.525978
22.164471 54.113285 -13.334833
26.595728 46.453068 4.529945
26.637396 44.989647 6.256862
27.712917 42.465958 5.992639
28.843407 39.982605 5.710956
29.010548 38.693619 7.476652
29.095125 37.476833 9.361247
16.125931 55.577118 23.445669
17.116594 52.772636 23.771135
14.228806 30.786993 -15.532023
18.88308 39.078072 -12.118745
17.812559 35.799919 -12.104878
18.848093 35.138111 -11.249489
18.894434 31.728544 -10.534172
20.140493 27.474514 -9.154814
25.88072 52.512695 -7.047668
26.251516 49.322342 -6.706703
29.169872 39.820263 -2.44979
28.577095 40.818111 -3.642381
29.191162 37.714428 -3.693779
15.297237 43.942677 -17.320148
16.062157 43.697437 -16.119675
16.900276 43.126747 -14.943327
17.849234 42.844849 -13.937879
19.125355 49.364151 -14.855288
18.941742 45.75832 -13.874448
18.902458 42.333397 -12.931304
20.046642 41.930634 -12.006659
21.078001 41.173645 -11.157403
22.225979 40.227104 -10.253781
26.563311 50.461506 -0.655454
27.328457 47.39851 -0.724955
28.073044 44.601231 -0.691259
27.569986 44.956432 2.591153
28.338732 43.436836 0.719962
28.923843 41.594913 -0.906583
29.739634 38.807507 -1.024694
24.283264 47.46138 10.569777
24.138914 46.024681 12.534514
22.913879 46.960453 14.870406
24.015907 44.518509 14.575269
21.48505 44.399174 21.335657
22.745335 43.555611 19.014759
24.035954 42.777607 16.53027
15.205111 37.062614 -15.140425
15.278348 33.586891 -14.121778
16.836117 32.61171 -12.16998
22.976723 56.695415 -12.957232
23.201443 50.218281 -11.319223
23.297346 46.77972 -10.604115
23.365755 43.119675 -9.959093
23.448404 39.736423 -9.408023
26.766167 50.195015 -3.817081
26.838831 48.254715 -5.250027
26.653486 46.243656 -6.372164
27.841303 41.950832 -4.943255
27.026741 42.897949 -6.214925
26.161036 43.87616 -7.373199
25.472124 41.543915 -8.075027
24.567543 38.737659 -8.550353
23.47188 36.136311 -8.90751
23.663521 32.660614 -8.366446
23.781929 29.182272 -7.875296
18.172629 51.578671 -16.631778
17.655867 50.075363 -16.631151
26.132317 48.42116 3.817138
26.186876 49.155293 2.87161
30.237344 37.688757 2.90034
30.069307 38.304855 2.120642
29.703381 39.036169 3.007561
30.419412 37.173654 3.738376
30.237344 37.688757 2.90034
24.57488 58.831976 -10.144425
24.288312 59.393948 -11.012753
26.490243 34.110043 -6.928039
26.34303 35.778364 -7.06145
26.949812 35.349767 -6.637333
26.640127 32.390042 -6.723209
26.490243 34.110043 -6.928039
21.691188 56.238153 -14.442685
21.250951 56.511202 -15.077025
21.660719 57.871963 -14.993731
26.064153 45.653717 7.279852
26.08947 46.339119 6.440767
25.516227 47.003189 7.463757
28.474409 37.99062 10.489325
28.425862 38.710752 9.556399
27.805146 39.224539 10.684477
29.124906 36.840032 10.331733
28.474409 37.99062 10.489325
15.996248 54.701006 24.469625
15.458911 56.043076 24.387697
16.49158 53.298765 24.632358
16.621263 54.174877 23.608402
15.996248 54.701006 24.469625
14.431401 32.309995 -15.389632
14.155305 32.281844 -16.015373
14.3579 33.804845 -15.872981
14.689357 32.18401 -14.796616
14.486762 30.661008 -14.939008
14.431401 32.309995 -15.389632
19.438481 29.45938 -9.83524
18.907452 29.811246 -10.183577
19.425463 31.376677 -10.185835
20.048492 29.249662 -9.496156
19.530482 27.684231 -9.493897
19.438481 29.45938 -9.83524
21.903132 28.355221 -8.529491
21.249519 28.579034 -8.845555
21.812192 30.047639 -8.831198
22.540629 27.948889 -8.217075
21.903132 28.355221 -8.529491
26.128626 51.945355 -6.255352
25.907254 53.484483 -6.425233
26.15516 52.917143 -5.632917
29.57804 37.251955 -3.047168
29.180517 38.767345 -3.071785
29.567395 38.304873 -2.425173
16.139479 45.426991 -16.669536
15.679697 43.820057 -16.719912
15.757019 45.549611 -17.269773
19.673497 50.842661 -14.823864
19.160466 50.98249 -15.386841
19.708608 52.461 -15.355418
26.203126 51.193852 0.256968
26.235262 51.90674 -0.701399
27.383803 46.838925 0.123603
26.982032 48.228422 0.14474
27.037377 47.668836 0.993299
15.757019 45.549611 -17.269773
15.312293 45.434477 -17.90028
23.666913 47.97373 11.747225
23.793945 48.723562 10.672602
23.594738 47.255381 12.729594
24.211089 46.743031 11.552145
23.666913 47.97373 11.747225
18.437562 52.923073 20.615403
17.823545 53.39327 21.62178
20.228221 51.573435 17.424295
19.628462 52.108301 18.448048
20.131213 50.761989 18.406173
20.784492 51.163601 16.380292
20.228221 51.573435 17.424295
21.298745 49.89953 16.209271
20.784492 51.163601 16.380292
22.07256 43.1567 21.16737
21.472716 43.463183 22.319218
22.702703 42.734919 20.006921
22.115192 43.977393 20.175208
22.07256 43.1567 21.16737
24.68011 41.581906 16.268874
24.018251 41.960154 17.516147
24.666951 42.370058 15.3328
24.68011 41.581906 16.268874
15.613758 38.556606 -15.043856
15.226315 38.76621 -15.642556
15.634962 40.260203 -15.545987
15.680982 31.679032 -13.198871
15.317003 31.905585 -13.709526
15.642327 33.360338 -13.611123
23.476351 54.508377 -11.762225
23.040717 55.037511 -12.512436
23.412357 56.16628 -12.20702
24.971296 54.099703 -9.233186
25.158387 55.315311 -8.788162
24.087651 50.707033 -10.403363
24.450079 51.809565 -10.029767
24.491535 50.120461 -9.745541
23.665275 49.618105 -10.719181
23.623819 51.307209 -11.003405
24.087651 50.707033 -10.403363
26.925651 49.4781 -3.025142
26.605944 51.03669 -3.136588
26.765428 50.319775 -2.344648
24.419098 28.767144 -7.55289
24.354008 30.467144 -7.764208
23.901003 27.428774 -7.599789
24.419098 28.767144 -7.55289
22.058228 59.185857 -14.856272
21.660719 57.871963 -14.993731
27.205856 39.75771 11.733248
27.805146 39.224539 10.684477
27.15731 40.477842 10.800323
14.595883 35.42483 -15.749613
14.3579 33.804845 -15.872981
26.29608 52.354886 -4.777529
26.15516 52.917143 -5.632917
17.119715 48.560277 -16.651214
16.646599 47.001501 -16.629635
17.612548 48.361543 -16.019808
17.119715 48.560277 -16.651214
17.655867 50.075363 -16.631151
26.625709 48.413282 1.91183
26.186876 49.155293 2.87161
27.02748 47.023785 1.890694
27.037377 47.668836 0.993299
26.625709 48.413282 1.91183
29.860495 38.803892 1.35633
29.688768 39.397175 0.576781
29.363617 40.24555 1.448313
29.860495 38.803892 1.35633
30.069307 38.304855 2.120642
17.380698 30.702067 -11.355436
17.868142 30.476928 -10.949545
23.915765 59.912323 -11.82437
23.55285 60.441168 -12.724656
24.033447 58.284951 -11.46543
23.915765 59.912323 -11.82437
24.288312 59.393948 -11.012753
25.789458 36.329622 -7.522178
26.249026 37.569347 -7.231472
26.34303 35.778364 -7.06145
25.309188 34.884712 -7.725939
25.215184 36.675695 -7.895962
25.789458 36.329622 -7.522178
24.8305 33.4914 -7.876422
25.309188 34.884712 -7.725939
20.236139 53.86376 -15.304971
19.708608 52.461 -15.355418
20.766029 55.14187 -15.17174
21.250951 56.511202 -15.077025
20.75153 53.599282 -14.659209
20.236139 53.86376 -15.304971
20.766029 55.14187 -15.17174
26.068636 47.07083 5.577309
26.122276 47.763579 4.677497
26.616562 45.721357 5.393403
26.068636 47.07083 5.577309
26.08947 46.339119 6.440767
29.448799 38.712294 5.573723
29.962805 37.931027 4.611875
29.357412 39.201338 4.749108
29.53237 38.067801 6.456571
29.448799 38.712294 5.573723
28.926977 39.338112 6.593804
29.634062 37.477739 7.365238
29.53237 38.067801 6.456571
29.67635 36.869346 8.307536
29.634062 37.477739 7.365238
29.052836 38.085226 8.41895
29.763622 36.255226 9.247176
29.67635 36.869346 8.307536
29.763622 36.255226 9.247176
29.124906 36.840032 10.331733
15.634211 56.912754 23.316723
15.458911 56.043076 24.387697
16.265577 56.537384 22.330914
15.634211 56.912754 23.316723
16.721004 55.17103 22.505505
16.265577 56.537384 22.330914
17.216336 53.768789 22.668239
16.721004 55.17103 22.505505
16.621263 54.174877 23.608402
17.723802 52.397118 22.724676
17.823545 53.39327 21.62178
17.216336 53.768789 22.668239
17.032499 51.882227 24.753149
16.49158 53.298765 24.632358
17.664454 51.493521 23.70343
17.032499 51.882227 24.753149
18.271662 51.118002 22.656971
17.723802 52.397118 22.724676
17.664454 51.493521 23.70343
18.80829 49.85051 22.551478
18.867639 50.754107 21.572724
18.271662 51.118002 22.656971
19.340602 48.552344 22.530501
18.80829 49.85051 22.551478
19.857011 47.250311 22.52171
19.920677 48.184582 21.458439
19.340602 48.552344 22.530501
14.025079 30.728127 -16.198813
14.155305 32.281844 -16.015373
14.129469 29.234711 -15.751221
14.025079 30.728127 -16.198813
14.321234 29.045362 -15.113948
14.129469 29.234711 -15.751221
14.321234 29.045362 -15.113948
14.486762 30.661008 -14.939008
18.393588 30.195265 -10.560229
17.868142 30.476928 -10.949545
18.368988 32.010207 -10.923489
18.393588 30.195265 -10.560229
18.907452 29.811246 -10.183577
19.590537 25.945857 -9.18168
19.530482 27.684231 -9.493897
20.167896 25.700013 -8.86586
19.590537 25.945857 -9.18168
20.740476 27.180565 -8.849331
20.649536 28.872983 -9.151038
21.249519 28.579034 -8.845555
20.167896 25.700013 -8.86586
20.740476 27.180565 -8.849331
25.420008 54.705526 -7.946498
25.158387 55.315311 -8.788162
25.710932 54.107202 -7.210165
25.907254 53.484483 -6.425233
25.589795 53.111019 -7.784001
25.420008 54.705526 -7.946498
25.710932 54.107202 -7.210165
29.51166 36.303325 -3.628655
29.57804 37.251955 -3.047168
29.04549 36.589018 -4.21915
29.51166 36.303325 -3.628655
28.622314 37.173186 -4.795301
28.767986 38.298595 -4.269931
29.04549 36.589018 -4.21915
28.398141 35.952289 -5.253349
28.120636 37.661867 -5.30413
28.622314 37.173186 -4.795301
28.089236 34.787077 -5.677682
28.398141 35.952289 -5.253349
27.689517 33.407314 -6.048554
27.496744 35.061208 -6.13305
28.089236 34.787077 -5.677682
27.341303 32.075546 -6.297751
27.689517 33.407314 -6.048554
15.272378 42.206242 -16.732418
14.936214 42.248934 -17.347078
15.654838 42.083622 -16.132182
15.272378 42.206242 -16.732418
15.679697 43.820057 -16.719912
16.042281 41.874018 -15.533481
15.634962 40.260203 -15.545987
15.654838 42.083622 -16.132182
16.569277 45.271947 -16.079773
16.139479 45.426991 -16.669536
16.646599 47.001501 -16.629635
18.672137 51.23873 -15.95907
18.172629 51.578671 -16.631778
18.637027 49.62039 -15.427516
18.672137 51.23873 -15.95907
19.160466 50.98249 -15.386841
26.504516 51.169936 -1.555775
26.235262 51.90674 -0.701399
26.824223 49.611345 -1.444328
26.765428 50.319775 -2.344648
26.504516 51.169936 -1.555775
26.599459 49.75992 0.179491
26.203126 51.193852 0.256968
26.945884 48.930008 -0.690204
26.599459 49.75992 0.179491
26.982032 48.228422 0.14474
26.60577 47.110649 3.669585
26.132317 48.42116 3.817138
26.122276 47.763579 4.677497
29.852276 37.798495 -1.712625
29.567395 38.304873 -2.425173
29.454753 39.313885 -1.737242
29.96264 38.381512 -0.269948
29.465762 39.82317 -0.177965
29.688768 39.397175 0.576781
30.169343 37.401154 -1.043978
29.96264 38.381512 -0.269948
29.852276 37.798495 -1.712625
30.169343 37.401154 -1.043978
30.419412 37.173654 3.738376
29.962805 37.931027 4.611875
14.928289 43.789935 -17.951273
14.943344 45.281734 -18.531405
15.312293 45.434477 -17.90028
14.936214 42.248934 -17.347078
14.928289 43.789935 -17.951273
24.976492 47.600195 8.455243
25.516227 47.003189 7.463757
24.372669 48.171992 9.588711
23.793945 48.723562 10.672602
24.887087 46.889584 9.43631
24.976492 47.600195 8.455243
24.372669 48.171992 9.588711
19.037783 52.560702 19.491257
18.437562 52.923073 20.615403
18.931233 51.659228 20.554071
19.037783 52.560702 19.491257
19.628462 52.108301 18.448048
21.827893 48.687624 16.017771
21.298745 49.89953 16.209271
21.26012 49.015217 17.19092
22.390199 48.266196 14.953264
21.827893 48.687624 16.017771
22.351574 47.381882 15.934913
22.982221 47.723267 13.89754
22.390199 48.266196 14.953264
23.526397 46.492567 13.70246
23.594738 47.255381 12.729594
22.982221 47.723267 13.89754
20.372146 45.96215 22.531177
19.857011 47.250311 22.52171
20.896128 44.720463 22.474182
21.472716 43.463183 22.319218
20.961068 45.640861 21.392653
20.372146 45.96215 22.531177
20.896128 44.720463 22.474182
23.372942 42.349155 18.758392
22.702703 42.734919 20.006921
23.390645 43.166609 17.772514
23.372942 42.349155 18.758392
24.018251 41.960154 17.516147
24.656928 43.240509 14.3553
24.025931 43.648058 15.55277
24.666951 42.370058 15.3328
25.294619 42.702036 13.230961
24.653599 43.980036 13.45093
24.656928 43.240509 14.3553
25.927985 41.486761 12.992212
25.924655 42.226288 12.087843
25.294619 42.702036 13.230961
26.544535 40.295887 12.843981
25.927985 41.486761 12.992212
27.205856 39.75771 11.733248
26.544535 40.295887 12.843981
14.88144 37.039639 -15.696206
15.226315 38.76621 -15.642556
14.919553 35.447805 -15.193832
14.595883 35.42483 -15.749613
14.88144 37.039639 -15.696206
15.011533 32.060957 -14.233885
14.689357 32.18401 -14.796616
14.956172 33.709944 -14.684509
15.011533 32.060957 -14.233885
15.317003 31.905585 -13.709526
16.876985 30.861987 -11.784023
17.33983 32.45179 -11.741392
17.380698 30.702067 -11.355436
16.431007 31.11554 -12.260549
16.876985 30.861987 -11.784023
16.471875 29.365817 -11.874592
16.016101 31.376578 -12.725793
16.421211 32.872748 -12.635224
16.431007 31.11554 -12.260549
15.680982 31.679032 -13.198871
16.016101 31.376578 -12.725793
22.471363 58.756223 -14.119819
22.058228 59.185857 -14.856272
23.251335 59.358429 -13.078647
23.55285 60.441168 -12.724656
22.909247 58.304474 -13.41874
23.251335 59.358429 -13.078647
23.318812 57.74937 -12.61714
22.53884 57.147165 -13.658311
22.471363 58.756223 -14.119819
22.909247 58.304474 -13.41874
22.634591 53.746446 -12.701237
22.570597 55.40435 -13.146033
23.040717 55.037511 -12.512436
22.642569 52.067083 -12.262646
22.172449 52.433922 -12.896242
22.634591 53.746446 -12.701237
24.711948 57.343928 -9.854902
24.57488 58.831976 -10.144425
24.524857 56.128319 -10.299926
24.711948 57.343928 -9.854902
24.245855 55.063604 -10.701424
24.126991 56.701861 -11.055311
24.524857 56.128319 -10.299926
24.748841 52.856527 -9.658991
24.971296 54.099703 -9.233186
25.076416 52.466167 -8.94614
24.748841 52.856527 -9.658991
24.450079 51.809565 -10.029767
23.947093 54.016642 -11.072198
24.245855 55.063604 -10.701424
23.476351 54.508377 -11.762225
23.947093 54.016642 -11.072198
23.153078 51.798944 -11.693431
23.623819 51.307209 -11.003405
22.690935 50.48642 -11.888437
22.642569 52.067083 -12.262646
23.153078 51.798944 -11.693431
26.490897 51.763386 -3.954551
26.605944 51.03669 -3.136588
26.57135 50.786514 -4.640059
26.29608 52.354886 -4.777529
26.490897 51.763386 -3.954551
24.294804 32.206315 -8.009783
24.199218 33.9457 -8.233085
24.8305 33.4914 -7.876422
23.722725 30.921443 -8.120871
24.294804 32.206315 -8.009783
24.354008 30.467144 -7.764208
23.198691 27.628112 -7.897156
22.540629 27.948889 -8.217075
23.123867 29.503049 -8.195215
23.198691 27.628112 -7.897156
23.901003 27.428774 -7.599789
26.640127 32.390042 -6.723209
27.341303 32.075546 -6.297751
3 0 41 39
3 0 43 41
3 1 46 44
3 1 48 46
3 146 50 147
3 3 53 51
3 3 55 53
3 148 56 149
3 5 59 57
3 5 150 152
3 152 151 59
3 150 151 152
3 5 153 154
3 6 62 60
3 6 64 62
3 2 67 65
3 155 69 156
3 7 72 70
3 7 74 72
3 4 77 75
3 8 80 78
3 8 157 159
3 159 158 80
3 157 158 159
3 8 160 161
3 10 162 164
3 162 82 163
3 162 163 164
3 10 83 82
3 11 165 167
3 165 85 166
3 165 166 167
3 13 86 40
3 13 87 86
3 13 88 87
3 168 89 169
3 170 169 42
3 168 169 170
3 172 171 89
3 173 90 174
3 175 91 176
3 177 176 90
3 175 176 177
3 15 178 180
3 178 92 179
3 178 179 180
3 15 181 183
3 183 182 92
3 181 182 183
3 16 95 93
3 18 96 45
3 18 184 186
3 186 185 96
3 184 185 186
3 18 187 189
3 187 97 188
3 187 188 189
3 19 190 192
3 192 191 47
3 190 191 192
3 19 193 194
3 21 195 197
3 195 98 196
3 195 196 197
3 21 99 98
3 198 102 199
3 200 199 100
3 198 199 200
3 201 104 202
3 203 202 103
3 201 202 203
3 24 105 49
3 24 106 105
3 9 204 206
3 204 107 205
3 204 205 206
3 25 108 52
3 25 109 108
3 25 110 109
3 26 111 54
3 26 112 111
3 207 113 208
3 28 209 211
3 209 114 210
3 209 210 211
3 28 115 114
3 12 116 84
3 29 117 58
3 29 118 117
3 29 119 118
3 212 103 213
3 214 120 215
3 216 121 217
3 218 217 120
3 216 217 218
3 14 219 220
3 30 221 223
3 223 222 61
3 221 222 223
3 30 224 225
3 30 226 227
3 31 122 63
3 31 123 122
3 228 124 229
3 230 125 231
3 232 231 124
3 230 231 232
3 233 126 234
3 236 235 126
3 23 237 239
3 237 127 238
3 237 238 239
3 32 128 66
3 32 240 242
3 242 241 128
3 240 241 242
3 17 129 94
3 33 130 68
3 33 243 245
3 245 244 130
3 243 244 245
3 20 246 247
3 34 248 250
3 250 249 71
3 248 249 250
3 34 251 253
3 251 131 252
3 251 252 253
3 34 132 131
3 35 133 73
3 35 134 133
3 27 254 256
3 254 135 255
3 254 255 256
3 36 136 76
3 36 137 136
3 22 138 101
3 37 139 79
3 37 140 139
3 37 141 140
3 38 142 81
3 38 143 142
3 38 144 143
3 257 145 258
3 260 259 145
3 261 10 262
3 39 40 11
3 41 40 39
3 41 13 40
3 41 42 13
3 43 42 41
3 43 263 265
3 265 264 42
3 263 264 265
3 266 15 267
3 44 45 16
3 46 45 44
3 46 18 45
3 46 47 18
3 48 47 46
3 48 19 47
3 268 21 269
3 270 49 271
3 50 272 274
3 272 49 273
3 272 273 274
3 50 24 49
3 51 52 9
3 53 52 51
3 53 25 52
3 53 54 25
3 55 54 53
3 55 26 54
3 56 275 276
3 56 277 279
3 277 28 278
3 277 278 279
3 57 58 12
3 59 58 57
3 59 29 58
3 59 280 282
3 282 281 29
3 280 281 282
3 284 283 59
3 60 61 14
3 62 61 60
3 62 30 61
3 62 63 30
3 64 63 62
3 64 31 63
3 65 66 23
3 67 66 65
3 67 32 66
3 286 285 17
3 287 68 288
3 69 289 291
3 289 68 290
3 289 290 291
3 69 33 68
3 70 71 20
3 72 71 70
3 72 34 71
3 72 73 34
3 74 73 72
3 74 35 73
3 75 76 27
3 77 76 75
3 77 36 76
3 78 79 22
3 80 79 78
3 80 37 79
3 80 81 37
3 292 81 293
3 294 293 80
3 292 293 294
3 295 38 296
3 297 296 81
3 295 296 297
3 299 298 38
3 300 9 301
3 82 302 303
3 82 304 306
3 304 9 305
3 304 305 306
3 82 51 9
3 83 51 82
3 83 3 51
3 307 84 308
3 85 309 311
3 309 84 310
3 309 310 311
3 85 12 84
3 40 85 11
3 86 85 40
3 86 12 85
3 86 57 12
3 87 57 86
3 87 5 57
3 87 312 314
3 314 313 5
3 312 313 314
3 88 315 317
3 317 316 87
3 315 316 317
3 88 318 319
3 42 88 13
3 89 88 42
3 89 320 322
3 322 321 88
3 320 321 322
3 89 323 324
3 326 325 89
3 90 327 328
3 90 329 330
3 90 331 332
3 91 333 335
3 335 334 90
3 333 334 335
3 91 336 338
3 336 14 337
3 336 337 338
3 339 91 340
3 341 91 342
3 343 14 344
3 345 344 91
3 343 344 345
3 346 60 347
3 348 347 14
3 346 347 348
3 349 60 350
3 351 6 352
3 353 352 60
3 351 352 353
3 92 354 355
3 92 356 357
3 92 358 359
3 361 360 92
3 93 94 2
3 95 94 93
3 95 17 94
3 45 95 16
3 96 95 45
3 96 17 95
3 96 362 364
3 364 363 17
3 362 363 364
3 366 365 96
3 97 367 368
3 97 369 370
3 47 97 18
3 371 97 372
3 373 372 47
3 371 372 373
3 375 374 97
3 376 20 377
3 98 378 379
3 98 380 382
3 380 20 381
3 380 381 382
3 98 70 20
3 99 70 98
3 99 7 70
3 100 101 4
3 102 101 100
3 102 22 101
3 383 102 384
3 385 102 386
3 387 22 388
3 389 388 102
3 387 388 389
3 390 78 391
3 392 391 22
3 390 391 392
3 393 78 394
3 395 8 396
3 397 396 78
3 395 396 397
3 399 398 8
3 103 400 401
3 104 402 404
3 404 403 103
3 402 403 404
3 104 405 407
3 405 23 406
3 405 406 407
3 49 408 410
3 408 104 409
3 408 409 410
3 105 104 49
3 105 23 104
3 105 65 23
3 106 65 105
3 106 2 65
3 411 50 412
3 107 413 415
3 413 50 414
3 413 414 415
3 107 24 50
3 52 107 9
3 108 107 52
3 108 24 107
3 108 106 24
3 109 106 108
3 109 2 106
3 109 93 2
3 110 93 109
3 110 16 93
3 54 110 25
3 111 110 54
3 111 16 110
3 111 44 16
3 112 44 111
3 112 1 44
3 113 416 417
3 113 418 420
3 418 27 419
3 418 419 420
3 421 113 422
3 114 423 425
3 423 113 424
3 423 424 425
3 114 27 113
3 114 75 27
3 115 75 114
3 115 4 75
3 84 426 428
3 426 56 427
3 426 427 428
3 116 56 84
3 116 28 56
3 58 116 12
3 117 116 58
3 117 28 116
3 117 115 28
3 118 115 117
3 118 4 115
3 118 100 4
3 119 100 118
3 119 429 431
3 431 430 100
3 429 430 431
3 432 119 433
3 434 433 29
3 432 433 434
3 435 119 436
3 438 437 119
3 440 439 5
3 103 441 443
3 441 442 443
3 103 444 445
3 446 11 447
3 120 448 449
3 120 450 452
3 450 11 451
3 450 451 452
3 120 39 11
3 121 39 120
3 121 0 39
3 61 453 455
3 455 454 14
3 453 454 455
3 457 456 61
3 63 458 460
3 460 459 30
3 458 459 460
3 122 461 463
3 463 462 63
3 461 462 463
3 122 464 465
3 122 466 468
3 466 121 467
3 466 467 468
3 123 121 122
3 123 0 121
3 469 6 470
3 124 471 472
3 124 473 475
3 473 6 474
3 473 474 475
3 124 64 6
3 125 64 124
3 125 31 64
3 476 125 477
3 126 478 480
3 478 125 479
3 478 479 480
3 126 31 125
3 126 123 31
3 481 123 482
3 483 482 126
3 481 482 483
3 484 0 485
3 486 485 123
3 484 485 486
3 487 43 488
3 489 488 0
3 487 488 489
3 490 43 491
3 493 492 43
3 127 494 495
3 127 496 498
3 496 15 497
3 496 497 498
3 66 127 23
3 128 127 66
3 128 15 127
3 128 499 501
3 501 500 15
3 499 500 501
3 503 502 128
3 94 67 2
3 129 67 94
3 129 32 67
3 504 129 505
3 506 505 17
3 504 505 506
3 507 129 508
3 507 508 509
3 510 32 511
3 512 511 129
3 510 511 512
3 514 513 32
3 515 10 516
3 68 517 518
3 130 519 521
3 521 520 68
3 519 520 521
3 130 522 524
3 522 10 523
3 522 523 524
3 130 83 10
3 525 83 526
3 527 526 130
3 525 526 527
3 528 3 529
3 530 529 83
3 528 529 530
3 531 69 532
3 533 69 534
3 535 33 536
3 537 536 69
3 535 536 537
3 71 538 540
3 540 539 20
3 538 539 540
3 542 541 71
3 543 33 544
3 546 545 33
3 131 547 548
3 131 549 551
3 549 3 550
3 549 550 551
3 131 55 3
3 132 55 131
3 132 26 55
3 73 132 34
3 133 132 73
3 133 26 132
3 133 112 26
3 134 112 133
3 134 1 112
3 135 552 553
3 135 554 556
3 554 21 555
3 554 555 556
3 76 135 27
3 136 135 76
3 136 21 135
3 136 99 21
3 137 99 136
3 137 7 99
3 101 77 4
3 138 77 101
3 138 36 77
3 79 138 22
3 139 138 79
3 139 36 138
3 139 137 36
3 140 137 139
3 140 7 137
3 140 74 7
3 141 74 140
3 141 35 74
3 81 141 37
3 142 141 81
3 142 35 141
3 142 134 35
3 143 134 142
3 143 1 134
3 143 48 1
3 144 48 143
3 144 19 48
3 557 144 558
3 559 558 38
3 557 558 559
3 145 560 562
3 560 144 561
3 560 561 562
3 145 19 144
3 145 563 565
3 565 564 19
3 563 564 565
3 567 566 145
3 569 568 8
