ply
format ascii 1.0
element vertex 578
property float x
property float y
property float z
element face 554
property list uchar int vertex_index
end_header
6.71544 -90.80027 12.810859
20.730097 -88.66684 20.394104
-0.580238 -100.491051 -8.514034
18.45204 -103.946091 -3.958584
14.020739 -91.408318 16.246325
12.459198 -98.9534 4.453597
9.305859 -104.359985 -7.274822
25.425764 -82.031235 22.771566
15.98154 -83.53714 27.983366
9.24291 -83.251648 24.040882
5.486824 -73.89801 32.404224
10.502793 -91.340057 14.456697
13.335861 -95.291672 10.424591
9.303032 -95.111969 8.619412
8.10548 -98.537498 2.821009
5.405323 -94.311111 7.394632
12.569909 -83.671753 25.989107
10.526009 -79.48587 29.998857
23.441442 -85.830673 21.802263
23.043219 -90.02459 16.193739
4.32352 -102.894623 -8.231812
7.036388 -105.585159 -12.707526
1.81953 -103.564156 -13.525885
-0.806883 -103.152046 -18.142584
-3.097589 -100.586922 -13.451803
17.551046 -90.633789 18.288141
16.364214 -98.395279 6.49726
14.259993 -104.842834 -5.923816
11.157336 -102.05397 -1.446036
6.372864 -101.067184 -2.611961
1.492603 -99.223015 -3.295669
18.285086 -86.530235 24.153614
14.938189 -87.47007 22.107159
11.575616 -87.564949 20.126755
7.893029 -87.004333 18.331787
7.240499 -78.642372 28.189003
4.510939 -86.134171 17.142168
12.322142 -106.703316 -11.825753
8.66953 -91.213882 13.496856
9.893643 -93.225006 11.570768
7.944204 -92.98793 10.72721
7.350469 -94.749016 7.976014
5.909659 -92.497604 10.137292
22.138176 -87.426117 21.125759
23.22953 -87.948669 18.992729
21.958254 -89.487228 18.262781
19.922195 -104.413567 -5.92662
1.855682 -101.842369 -8.539674
3.180239 -103.412788 -10.950101
0.598941 -102.107178 -11.020877
-0.601276 -102.201813 -13.483886
15.788897 -91.180939 17.20532
17.26502 -92.692955 15.275525
15.469049 -93.161308 14.27794
12.78385 -97.083839 7.517138
14.764626 -97.017143 8.335466
14.368296 -98.790726 5.427238
13.249037 -102.133629 -0.679531
11.732999 -100.469986 1.623659
5.824014 -97.820618 2.511833
7.359897 -99.912979 0.113867
5.049132 -99.246834 -0.347741
3.927185 -100.312149 -3.14881
2.685828 -98.318146 -0.579802
17.104103 -85.146805 26.024597
16.608959 -87.188568 23.047678
15.498302 -85.456764 25.130835
10.954672 -83.630539 24.881063
12.053413 -85.723427 22.889526
10.341923 -85.557266 21.913515
9.744467 -87.412834 19.097404
8.591988 -85.162704 21.132078
6.952146 -74.357109 33.271484
7.788525 -76.704086 31.126209
6.260625 -76.21743 30.309311
11.869246 -104.770767 -6.66754
13.304401 -105.862999 -8.799057
10.853 -105.660316 -9.516443
5.858966 -105.890373 -15.516201
8.3917 -106.643906 -15.077843
-3.221379 -101.573692 -18.057228
12.329015 -91.487717 15.307596
13.714231 -93.370056 13.356758
11.802374 -93.376045 12.429012
11.300409 -95.253326 9.518431
10.86274 -97.154915 6.490369
10.27626 -98.883331 3.504695
8.780804 -96.948059 5.652579
6.755521 -96.472122 5.145557
14.226105 -83.618958 27.073446
13.171846 -81.64296 29.133221
11.444212 -81.663055 27.860085
9.792293 -81.358528 26.926407
24.589737 -83.987709 22.270126
24.337103 -86.171608 19.580456
22.284239 -104.642845 -10.274902
20.497671 -105.875801 -11.390107
18.386219 -106.750832 -12.320333
16.066742 -107.24939 -13.173309
6.890789 -103.826508 -7.948816
8.372651 -105.205933 -10.174886
5.748119 -104.38279 -10.520716
4.455441 -104.741379 -13.270732
3.188539 -104.795151 -15.656637
1.69587 -104.530365 -18.028126
0.637133 -103.530327 -15.823174
-2.010781 -101.93795 -15.832516
-4.424887 -100.215012 -15.650555
19.142925 -89.808273 19.354237
20.493172 -90.766899 17.453379
18.923754 -91.913239 16.317648
15.14784 -95.112762 11.326884
16.585836 -96.535492 9.439753
16.42178 -104.575439 -5.03845
14.933629 -103.441696 -2.728243
12.660426 -103.613586 -3.779226
10.324411 -103.421059 -4.545989
9.558949 -100.350586 0.704423
8.831062 -101.762283 -2.215405
7.964358 -102.869278 -4.962388
5.553742 -102.197601 -5.49214
2.953958 -101.187462 -5.809784
0.473253 -99.960007 -5.892497
24.747965 -82.022179 24.863644
23.744249 -83.782669 24.360657
21.000208 -86.613426 23.226795
19.890059 -85.63665 25.168894
19.511461 -87.705956 22.293329
17.851374 -88.541901 21.28894
16.3111 -89.257378 20.066072
14.500979 -89.47213 19.143475
13.816111 -85.565269 24.186989
13.257843 -87.60775 21.092009
12.739014 -89.515724 18.208704
11.048181 -89.523201 17.198641
9.132096 -89.286247 16.278299
7.477905 -89.027145 15.524429
9.461475 -77.225548 32.022507
8.871815 -79.019836 29.159241
8.124981 -80.881027 26.138174
5.616795 -77.96032 27.632008
6.800982 -84.654953 20.444799
6.220961 -86.650917 17.625475
5.579556 -88.526367 14.932711
4.098916 -92.019875 9.66488
21.736158 -91.56546 15.391705
14.698797 -106.734512 -11.087778
13.546637 -107.389473 -13.99631
9.763679 -106.339165 -12.437372
10.937304 -107.192818 -14.754261
19.353096 -103.468662 -3.36318
18.639634 -103.176559 -2.378315
19.187117 -104.179829 -4.942602
20.088173 -103.702401 -4.347198
19.353096 -103.468662 -3.36318
18.169634 -104.610672 -5.503227
18.904711 -104.84441 -6.487246
19.187117 -104.179829 -4.942602
-1.207998 -100.585388 -9.802429
-0.618409 -101.393452 -11.055851
0.009351 -101.299115 -9.767456
13.128937 -99.78582 3.331295
14.083486 -99.704483 3.818115
13.413747 -98.872063 4.940418
12.096099 -99.711693 3.038628
12.765837 -100.544113 1.916325
13.128937 -99.78582 3.331295
4.305392 -98.184292 0.857855
5.436573 -98.533726 1.082046
4.692833 -97.471184 2.287643
3.12374 -97.719948 0.741825
3.86748 -98.78249 -0.463772
4.305392 -98.184292 0.857855
16.818252 -83.334488 28.478599
16.242167 -82.540127 29.47608
16.542821 -84.341972 27.003982
17.379534 -84.13932 27.499214
16.818252 -83.334488 28.478599
5.770688 -72.997017 33.789142
5.32712 -71.809216 34.781267
5.043256 -72.710209 33.396349
6.219485 -74.127559 32.837854
6.503349 -73.226566 34.222773
5.770688 -72.997017 33.789142
25.69112 -82.058422 21.568325
25.790467 -81.010166 22.80086
6.425471 -106.307846 -16.680846
5.051609 -105.800525 -16.730438
-3.984688 -101.151638 -18.995628
-4.453164 -100.633174 -17.95101
4.952725 -95.039524 6.073891
5.627823 -96.12003 4.949353
6.080422 -95.391616 6.270094
13.479427 -80.768929 30.527513
14.023582 -81.694203 29.566896
10.985111 -80.574463 28.929471
11.756542 -80.707923 29.378746
11.29744 -79.619331 30.448132
23.582905 -89.177551 16.512747
23.67606 -88.139591 17.912242
23.136375 -88.986629 17.593234
23.485755 -90.211185 15.182756
23.582905 -89.177551 16.512747
21.726097 -104.671516 -9.209979
22.59423 -103.94247 -8.615934
20.832813 -105.287994 -9.767581
21.390955 -105.259323 -10.832505
21.726097 -104.671516 -9.209979
17.707245 -106.587845 -11.261688
18.836613 -106.246594 -10.789158
16.547507 -106.837124 -11.688175
17.226481 -107.000111 -12.746821
17.707245 -106.587845 -11.261688
17.960501 -93.282105 14.359649
17.055467 -93.643501 13.845926
17.260765 -98.161262 6.877
17.371576 -97.231369 8.348247
16.475025 -97.465385 7.968507
17.08925 -99.043923 5.434038
17.260765 -98.161262 6.877
15.190074 -102.688187 -1.220627
15.982966 -103.265869 -2.28386
24.372758 -81.843311 25.978777
24.897837 -80.953175 26.126093
23.8709 -82.723557 25.727283
24.246107 -82.902424 24.61215
24.372758 -81.843311 25.978777
21.184977 -85.570091 24.634047
21.718144 -85.966728 23.567372
19.087573 -86.083443 24.661254
19.380686 -85.032238 26.152043
18.5782 -85.47903 25.644402
8.994567 -76.113942 33.02195
9.77016 -76.322773 33.503546
4.834614 -77.702877 27.309286
5.195853 -76.733529 28.735827
6.333073 -83.432896 21.57778
7.180535 -83.77758 21.802301
5.36595 -86.392544 17.383822
5.699867 -85.381397 18.793905
4.844856 -85.123024 18.552251
3.470627 -90.883305 10.738567
4.421492 -91.137169 10.980206
21.035801 -92.213589 14.904234
21.114665 -91.166179 16.422542
20.414307 -91.814308 15.935071
14.965412 -105.320541 -7.023411
16.046306 -105.186844 -6.580728
15.340886 -104.709136 -5.481133
10.243457 -107.278759 -16.068393
9.664502 -106.918362 -14.916052
8.970655 -107.004303 -16.230185
11.572318 -107.466804 -15.792438
10.243457 -107.278759 -16.068393
-0.364874 -103.555687 -19.299516
0.886503 -104.244846 -19.242287
0.444493 -103.841206 -18.085355
10.816623 -78.583252 31.445868
11.29744 -79.619331 30.448132
20.804985 -103.857452 -5.443834
20.088173 -103.702401 -4.347198
20.545075 -104.556877 -7.035837
20.804985 -103.857452 -5.443834
19.604601 -105.077961 -7.592302
20.545075 -104.556877 -7.035837
19.604601 -105.077961 -7.592302
18.904711 -104.84441 -6.487246
-1.218517 -101.44077 -12.287355
-0.001168 -102.154495 -12.252382
-0.618409 -101.393452 -11.055851
-2.466674 -100.633324 -12.271313
-1.849433 -101.394368 -13.467844
-1.218517 -101.44077 -12.287355
16.157482 -93.877678 13.347133
17.055467 -93.643501 13.845926
16.367034 -92.927132 14.776732
15.110941 -99.535424 4.362443
16.108901 -99.3377 4.897454
15.366255 -98.593003 5.962249
15.110941 -99.535424 4.362443
14.083486 -99.704483 3.818115
13.523857 -101.375934 0.76473
14.347778 -102.034153 -0.19627
12.491018 -101.301807 0.472064
13.523857 -101.375934 0.76473
12.765837 -100.544113 1.916325
17.987708 -84.787316 26.579894
17.379534 -84.13932 27.499214
17.694595 -85.83852 25.089106
18.5782 -85.47903 25.644402
17.987708 -84.787316 26.579894
7.276429 -73.583786 34.586866
6.503349 -73.226566 34.222773
7.739903 -74.679722 33.646439
7.276429 -73.583786 34.586866
7.370335 -75.530597 32.198847
8.158092 -75.853211 32.573801
7.739903 -74.679722 33.646439
3.987242 -84.867165 18.301313
4.844856 -85.123024 18.552251
7.691838 -106.684613 -16.461666
7.125333 -106.267139 -15.297022
6.425471 -106.307846 -16.680846
8.970655 -107.004303 -16.230185
7.691838 -106.684613 -16.461666
-2.827334 -101.995716 -19.23426
-1.620086 -102.784893 -19.276937
-2.014131 -102.362869 -18.099906
-2.827334 -101.995716 -19.23426
-3.984688 -101.151638 -18.995628
5.16207 -96.794277 3.632491
6.289767 -97.14637 3.828695
5.627823 -96.12003 4.949353
4.692833 -97.471184 2.287643
5.16207 -96.794277 3.632491
15.428429 -82.641292 28.991969
16.242167 -82.540127 29.47608
14.550711 -82.682202 28.537009
15.103822 -83.578049 27.528406
15.428429 -82.641292 28.991969
13.698975 -82.630959 28.103333
14.550711 -82.682202 28.537009
14.023582 -81.694203 29.566896
12.620359 -80.697876 30.015314
13.479427 -80.768929 30.527513
12.308029 -81.653008 28.496653
12.620359 -80.697876 30.015314
11.756542 -80.707923 29.378746
4.703685 -73.532871 32.114862
5.043256 -72.710209 33.396349
5.130868 -74.702373 31.121935
4.703685 -73.532871 32.114862
24.918779 -84.121914 21.102063
25.336792 -83.143677 21.352783
25.007751 -83.009472 22.520846
24.792462 -85.213864 19.757228
24.918779 -84.121914 21.102063
24.46342 -85.079658 20.925291
24.669239 -86.302193 18.49392
24.792462 -85.213864 19.757228
24.229847 -87.25106 18.206105
23.783316 -87.060138 19.286593
23.67606 -88.139591 17.912242
24.669239 -86.302193 18.49392
24.229847 -87.25106 18.206105
23.009124 -103.915836 -9.78141
22.59423 -103.94247 -8.615934
22.713217 -104.504619 -11.397479
23.009124 -103.915836 -9.78141
21.853534 -105.207668 -11.925937
22.713217 -104.504619 -11.397479
20.96025 -105.824146 -12.483539
21.853534 -105.207668 -11.925937
21.390955 -105.259323 -10.832505
19.997253 -106.337215 -12.980011
20.96025 -105.824146 -12.483539
19.892339 -105.809078 -10.324046
20.832813 -105.287994 -9.767581
19.441945 -106.313316 -11.85522
19.892339 -105.809078 -10.324046
18.836613 -106.246594 -10.789158
18.941527 -106.774731 -13.445124
19.997253 -106.337215 -12.980011
19.441945 -106.313316 -11.85522
17.848356 -107.109616 -13.859176
18.941527 -106.774731 -13.445124
16.688617 -107.358895 -14.285664
17.848356 -107.109616 -13.859176
17.226481 -107.000111 -12.746821
15.504356 -107.516625 -14.659003
16.688617 -107.358895 -14.285664
3.716395 -105.252915 -16.800655
5.051609 -105.800525 -16.730438
4.523752 -105.342762 -15.586419
2.442204 -104.662758 -16.842382
2.970061 -105.120521 -17.9864
3.716395 -105.252915 -16.800655
-5.054918 -99.953834 -16.747674
-4.453164 -100.633174 -17.95101
-3.823133 -100.894352 -16.853891
19.629599 -92.387478 15.367205
20.414307 -91.814308 15.935071
19.708463 -91.340069 16.885514
18.789868 -92.892246 14.880711
18.094387 -92.303097 15.796587
17.960501 -93.282105 14.359649
19.629599 -92.387478 15.367205
18.789868 -92.892246 14.880711
15.996878 -94.853405 11.871606
16.157482 -93.877678 13.347133
15.308445 -94.137035 12.802412
16.715876 -95.56477 10.92804
15.996878 -94.853405 11.871606
15.866838 -95.824127 10.383318
17.467619 -96.18475 9.972205
16.715876 -95.56477 10.92804
17.467619 -96.18475 9.972205
17.371576 -97.231369 8.348247
17.08925 -99.043923 5.434038
16.108901 -99.3377 4.897454
17.742171 -103.518067 -2.899031
18.639634 -103.176559 -2.378315
16.727041 -103.83274 -3.438964
17.43691 -104.260765 -4.498517
17.742171 -103.518067 -2.899031
15.677704 -104.008567 -3.883347
16.727041 -103.83274 -3.438964
15.982966 -103.265869 -2.28386
14.091333 -102.787662 -1.703887
15.190074 -102.688187 -1.220627
14.347778 -102.034153 -0.19627
25.567695 -80.941353 23.974414
25.790467 -81.010166 22.80086
25.228796 -80.936825 25.020453
24.897837 -80.953175 26.126093
25.086865 -82.026707 23.817605
25.567695 -80.941353 23.974414
25.228796 -80.936825 25.020453
23.266497 -83.570877 25.3887
23.8709 -82.723557 25.727283
23.090164 -84.55135 24.134303
23.266497 -83.570877 25.3887
22.938761 -85.575352 22.855106
23.592845 -84.806671 23.08146
23.090164 -84.55135 24.134303
22.287128 -86.373074 22.516854
22.789809 -86.628395 21.464011
22.938761 -85.575352 22.855106
21.569192 -87.019772 22.176277
22.287128 -86.373074 22.516854
21.718144 -85.966728 23.567372
20.152144 -84.608055 26.570963
19.380686 -85.032238 26.152043
20.629902 -85.081703 25.605096
20.152144 -84.608055 26.570963
20.445134 -86.125038 24.197845
21.184977 -85.570091 24.634047
20.629902 -85.081703 25.605096
10.284356 -77.453091 32.457693
9.77016 -76.322773 33.503546
9.993742 -78.355709 31.010682
10.816623 -78.583252 31.445868
10.284356 -77.453091 32.457693
8.625 -76.964817 31.574358
8.994567 -76.113942 33.02195
8.158092 -75.853211 32.573801
5.517768 -75.862083 30.074479
5.873724 -75.05772 31.356768
5.130868 -74.702373 31.121935
5.93871 -77.088875 28.97066
5.517768 -75.862083 30.074479
5.195853 -76.733529 28.735827
5.290373 -78.919727 26.227438
4.834614 -77.702877 27.309286
6.064132 -79.178608 26.519754
5.290373 -78.919727 26.227438
6.875984 -79.519634 26.798252
6.428647 -78.301346 27.910505
6.064132 -79.178608 26.519754
7.318226 -80.638961 25.772838
7.68274 -79.761699 27.163588
6.875984 -79.519634 26.798252
7.842534 -81.890618 24.648989
7.318226 -80.638961 25.772838
8.401499 -83.075928 23.600343
8.683946 -82.066338 25.089528
7.842534 -81.890618 24.648989
8.076037 -84.031456 22.145941
8.917449 -84.207176 22.58648
8.401499 -83.075928 23.600343
7.696485 -84.908828 20.788438
8.076037 -84.031456 22.145941
7.180535 -83.77758 21.802301
5.989878 -84.383415 20.203567
6.333073 -83.432896 21.57778
6.510972 -85.652935 19.035137
5.989878 -84.383415 20.203567
5.699867 -85.381397 18.793905
3.61365 -85.857029 16.937721
3.987242 -84.867165 18.301313
4.11495 -87.081146 15.77723
3.61365 -85.857029 16.937721
4.649259 -88.277244 14.672501
5.045248 -87.330269 16.03744
4.11495 -87.081146 15.77723
5.161812 -89.390415 13.614121
4.649259 -88.277244 14.672501
5.729754 -90.527366 12.553195
6.147498 -89.663319 13.871785
5.161812 -89.390415 13.614121
5.326863 -91.376034 11.216411
6.31255 -91.648937 11.474076
5.729754 -90.527366 12.553195
5.004288 -92.258739 9.901086
5.326863 -91.376034 11.216411
4.421492 -91.137169 10.980206
3.035262 -91.639423 9.525436
3.470627 -90.883305 10.738567
3.662685 -92.785225 8.375666
3.035262 -91.639423 9.525436
4.315888 -93.930843 7.240541
4.75212 -93.165493 8.529756
3.662685 -92.785225 8.375666
4.952725 -95.039524 6.073891
4.315888 -93.930843 7.240541
1.979998 -97.223434 0.681026
3.12374 -97.719948 0.741825
1.531671 -97.788078 -0.648062
1.979998 -97.223434 0.681026
0.935059 -98.240513 -2.005996
2.089215 -98.77058 -1.937736
1.531671 -97.788078 -0.648062
0.385459 -98.651062 -3.330591
0.935059 -98.240513 -2.005996
-0.124216 -99.019558 -4.629005
0.982928 -99.591511 -4.594083
0.385459 -98.651062 -3.330591
-0.702582 -99.301083 -5.936591
-0.124216 -99.019558 -4.629005
-1.229328 -99.566605 -7.247359
-0.053493 -100.225529 -7.203266
-0.702582 -99.301083 -5.936591
-1.797726 -99.737053 -8.533111
-1.229328 -99.566605 -7.247359
-1.207998 -100.585388 -9.802429
-1.797726 -99.737053 -8.533111
-3.601548 -99.829113 -12.167884
-2.466674 -100.633324 -12.271313
-4.307002 -99.62576 -13.204238
-3.601548 -99.829113 -12.167884
-4.970651 -99.439805 -14.303615
-3.761238 -100.400967 -14.551179
-4.307002 -99.62576 -13.204238
-5.504864 -99.331116 -15.529605
-4.970651 -99.439805 -14.303615
-5.054918 -99.953834 -16.747674
-5.504864 -99.331116 -15.529605
25.69112 -82.058422 21.568325
25.336792 -83.143677 21.352783
21.646657 -92.622055 13.88632
21.035801 -92.213589 14.904234
22.269414 -91.886257 14.33673
21.646657 -92.622055 13.88632
22.922944 -91.115822 14.737748
22.389688 -90.795025 15.792722
22.269414 -91.886257 14.33673
23.485755 -90.211185 15.182756
22.922944 -91.115822 14.737748
17.154504 -104.925346 -6.04316
18.169634 -104.610672 -5.503227
17.43691 -104.260765 -4.498517
17.154504 -104.925346 -6.04316
16.046306 -105.186844 -6.580728
14.487617 -105.830624 -8.461032
14.965412 -105.320541 -7.023411
13.782197 -105.352916 -7.361436
15.184815 -106.26638 -9.605392
14.487617 -105.830624 -8.461032
14.001599 -106.298755 -9.943417
15.863534 -106.579685 -10.64541
15.184815 -106.26638 -9.605392
15.38277 -106.991951 -12.130543
16.547507 -106.837124 -11.688175
15.863534 -106.579685 -10.64541
14.244303 -107.586666 -15.070504
15.504356 -107.516625 -14.659003
14.80669 -107.319432 -13.584809
12.876984 -107.565132 -15.413463
12.241971 -107.291145 -14.375286
11.572318 -107.466804 -15.792438
14.244303 -107.586666 -15.070504
12.876984 -107.565132 -15.413463
2.245429 -104.94426 -19.235259
2.970061 -105.120521 -17.9864
2.245429 -104.94426 -19.235259
0.886503 -104.244846 -19.242287
-0.364874 -103.555687 -19.299516
-1.620086 -102.784893 -19.276937
3 0 40 38
3 0 42 40
3 1 45 43
3 3 150 151
3 3 152 154
3 152 46 153
3 152 153 154
3 3 155 157
3 157 156 46
3 155 156 157
3 2 49 47
3 2 158 160
3 160 159 49
3 158 159 160
3 4 53 51
3 5 56 54
3 5 161 163
3 163 162 56
3 161 162 163
3 5 164 166
3 164 58 165
3 164 165 166
3 167 61 168
3 169 168 59
3 167 168 169
3 170 63 171
3 172 171 61
3 170 171 172
3 8 173 174
3 8 175 177
3 175 64 176
3 175 176 177
3 8 66 64
3 9 69 67
3 9 71 69
3 10 178 180
3 178 179 180
3 10 181 183
3 181 72 182
3 181 182 183
3 10 74 72
3 7 184 185
3 6 77 75
3 187 186 78
3 189 188 80
3 11 83 81
3 13 84 39
3 13 85 84
3 13 87 85
3 15 88 41
3 15 190 192
3 192 191 88
3 190 191 192
3 193 90 194
3 17 195 197
3 195 91 196
3 195 196 197
3 17 92 91
3 18 94 93
3 19 198 200
3 200 199 44
3 198 199 200
3 19 201 202
3 203 95 204
3 205 96 206
3 207 206 95
3 205 206 207
3 208 97 209
3 210 98 211
3 212 211 97
3 210 211 212
3 20 101 99
3 22 102 48
3 22 103 102
3 22 105 103
3 24 106 50
3 24 107 106
3 25 110 108
3 214 213 52
3 12 111 82
3 26 112 55
3 26 215 217
3 217 216 112
3 215 216 217
3 26 218 219
3 220 114 221
3 28 115 57
3 28 116 115
3 14 117 86
3 29 118 60
3 29 119 118
3 29 120 119
3 30 121 62
3 30 122 121
3 222 123 223
3 224 124 225
3 226 225 123
3 224 225 226
3 227 125 228
3 31 229 231
3 229 126 230
3 229 230 231
3 31 127 126
3 31 128 127
3 32 129 65
3 32 130 129
3 16 131 89
3 33 132 68
3 33 133 132
3 33 134 133
3 34 135 70
3 34 136 135
3 232 137 233
3 35 138 73
3 35 139 138
3 234 140 235
3 236 141 237
3 36 238 240
3 238 142 239
3 238 239 240
3 36 143 142
3 241 144 242
3 243 145 244
3 245 244 109
3 243 244 245
3 27 246 248
3 248 247 113
3 246 247 248
3 37 146 76
3 37 147 146
3 21 148 100
3 249 149 250
3 251 250 79
3 249 250 251
3 253 252 149
3 23 254 256
3 256 255 104
3 254 255 256
3 38 39 11
3 40 39 38
3 40 13 39
3 40 41 13
3 42 41 40
3 42 15 41
3 257 17 258
3 43 44 18
3 45 44 43
3 45 19 44
3 46 259 260
3 46 261 262
3 46 263 264
3 266 265 46
3 47 48 20
3 49 48 47
3 49 22 48
3 49 50 22
3 267 50 268
3 269 268 49
3 267 268 269
3 270 24 271
3 272 271 50
3 270 271 272
3 51 52 25
3 53 52 51
3 53 273 275
3 275 274 52
3 273 274 275
3 54 55 12
3 56 55 54
3 56 26 55
3 56 276 278
3 278 277 26
3 276 277 278
3 280 279 56
3 281 57 282
3 58 283 285
3 283 57 284
3 283 284 285
3 58 28 57
3 59 60 14
3 61 60 59
3 61 29 60
3 61 62 29
3 63 62 61
3 63 30 62
3 64 286 287
3 64 288 290
3 288 31 289
3 288 289 290
3 64 65 31
3 66 65 64
3 66 32 65
3 67 68 16
3 69 68 67
3 69 33 68
3 69 70 33
3 71 70 69
3 71 34 70
3 72 291 292
3 72 293 294
3 72 295 297
3 295 73 296
3 295 296 297
3 74 73 72
3 74 35 73
3 298 36 299
3 75 76 27
3 77 76 75
3 77 37 76
3 78 79 21
3 300 79 301
3 302 301 78
3 300 301 302
3 304 303 79
3 80 305 307
3 307 306 23
3 305 306 307
3 309 308 80
3 81 82 4
3 83 82 81
3 83 12 82
3 39 83 11
3 84 83 39
3 84 12 83
3 84 54 12
3 85 54 84
3 85 5 54
3 85 86 5
3 87 86 85
3 87 14 86
3 41 87 13
3 88 87 41
3 88 14 87
3 88 59 14
3 310 59 311
3 312 311 88
3 310 311 312
3 314 313 59
3 315 8 316
3 317 89 318
3 319 318 8
3 317 318 319
3 90 320 322
3 320 89 321
3 320 321 322
3 90 16 89
3 323 90 324
3 91 325 327
3 325 90 326
3 325 326 327
3 91 16 90
3 91 67 16
3 92 67 91
3 92 9 67
3 328 10 329
3 331 330 10
3 93 332 334
3 334 333 7
3 332 333 334
3 94 335 337
3 337 336 93
3 335 336 337
3 94 338 339
3 44 94 18
3 340 94 341
3 342 341 44
3 340 341 342
3 344 343 94
3 95 345 346
3 95 347 348
3 95 349 350
3 96 351 353
3 353 352 95
3 351 352 353
3 96 354 355
3 356 96 357
3 97 358 360
3 358 96 359
3 358 359 360
3 97 361 363
3 363 362 96
3 361 362 363
3 97 364 365
3 98 366 368
3 368 367 97
3 366 367 368
3 98 369 370
3 99 100 6
3 101 100 99
3 101 21 100
3 48 101 20
3 102 101 48
3 102 21 101
3 102 78 21
3 103 78 102
3 103 371 373
3 373 372 78
3 371 372 373
3 103 374 376
3 374 104 375
3 374 375 376
3 105 104 103
3 105 23 104
3 50 105 22
3 106 105 50
3 106 23 105
3 106 80 23
3 107 80 106
3 107 377 379
3 379 378 80
3 377 378 379
3 108 109 1
3 110 109 108
3 110 380 382
3 382 381 109
3 380 381 382
3 52 110 25
3 383 110 384
3 385 384 52
3 383 384 385
3 387 386 110
3 82 53 4
3 111 53 82
3 111 388 390
3 390 389 53
3 388 389 390
3 55 111 12
3 112 111 55
3 112 391 393
3 393 392 111
3 391 392 393
3 112 394 395
3 397 396 112
3 399 398 26
3 400 3 401
3 402 113 403
3 404 403 3
3 402 403 404
3 114 405 407
3 405 113 406
3 405 406 407
3 114 27 113
3 57 408 410
3 408 114 409
3 408 409 410
3 115 114 57
3 115 27 114
3 115 75 27
3 116 75 115
3 116 6 75
3 86 58 5
3 117 58 86
3 117 28 58
3 60 117 14
3 118 117 60
3 118 28 117
3 118 116 28
3 119 116 118
3 119 6 116
3 119 99 6
3 120 99 119
3 120 20 99
3 62 120 29
3 121 120 62
3 121 20 120
3 121 47 20
3 122 47 121
3 122 2 47
3 411 7 412
3 123 413 414
3 123 415 417
3 415 7 416
3 415 416 417
3 123 93 7
3 124 93 123
3 124 18 93
3 418 124 419
3 420 124 421
3 422 18 423
3 424 423 124
3 422 423 424
3 425 43 426
3 427 426 18
3 425 426 427
3 125 428 430
3 428 43 429
3 428 429 430
3 125 1 43
3 126 431 432
3 126 433 434
3 126 435 437
3 435 125 436
3 435 436 437
3 127 125 126
3 127 1 125
3 127 108 1
3 128 108 127
3 128 25 108
3 65 128 31
3 129 128 65
3 129 25 128
3 129 51 25
3 130 51 129
3 130 4 51
3 89 66 8
3 131 66 89
3 131 32 66
3 68 131 16
3 132 131 68
3 132 32 131
3 132 130 32
3 133 130 132
3 133 4 130
3 133 81 4
3 134 81 133
3 134 11 81
3 70 134 33
3 135 134 70
3 135 11 134
3 135 38 11
3 136 38 135
3 136 0 38
3 137 438 439
3 137 440 442
3 440 17 441
3 440 441 442
3 73 443 445
3 443 137 444
3 443 444 445
3 138 137 73
3 138 17 137
3 138 92 17
3 139 92 138
3 139 9 92
3 446 74 447
3 448 447 10
3 446 447 448
3 140 449 451
3 449 74 450
3 449 450 451
3 140 35 74
3 452 140 453
3 454 140 455
3 456 35 457
3 458 457 140
3 456 457 458
3 459 139 460
3 461 460 35
3 459 460 461
3 462 139 463
3 464 9 465
3 466 465 139
3 464 465 466
3 467 71 468
3 469 468 9
3 467 468 469
3 141 470 472
3 470 71 471
3 470 471 472
3 141 34 71
3 473 141 474
3 142 475 477
3 475 141 476
3 475 476 477
3 142 34 141
3 142 136 34
3 143 136 142
3 143 0 136
3 478 36 479
3 480 36 481
3 482 143 483
3 484 483 36
3 482 483 484
3 485 143 486
3 487 0 488
3 489 488 143
3 487 488 489
3 490 42 491
3 492 491 0
3 490 491 492
3 144 493 495
3 493 42 494
3 493 494 495
3 144 15 42
3 496 144 497
3 498 144 499
3 500 15 501
3 502 501 144
3 500 501 502
3 504 503 15
3 505 63 506
3 507 63 508
3 509 30 510
3 511 510 63
3 509 510 511
3 512 30 513
3 514 122 515
3 516 515 30
3 514 515 516
3 517 122 518
3 519 2 520
3 521 520 122
3 519 520 521
3 522 2 523
3 525 524 2
3 526 24 527
3 528 24 529
3 530 107 531
3 532 531 24
3 530 531 532
3 533 107 534
3 536 535 107
3 538 537 7
3 109 45 1
3 145 45 109
3 145 19 45
3 539 145 540
3 541 145 542
3 543 19 544
3 545 544 145
3 543 544 545
3 547 546 19
3 113 548 550
3 550 549 3
3 548 549 550
3 552 551 113
3 76 553 555
3 555 554 27
3 553 554 555
3 146 556 558
3 558 557 76
3 556 557 558
3 146 559 560
3 146 561 563
3 561 98 562
3 561 562 563
3 147 98 146
3 147 564 566
3 566 565 98
3 564 565 566
3 100 77 6
3 148 77 100
3 148 37 77
3 79 148 21
3 149 148 79
3 149 37 148
3 149 147 37
3 567 147 568
3 569 568 149
3 567 568 569
3 571 570 147
3 104 572 573
3 575 574 104
3 577 576 23
