ply
format ascii 1.0
element vertex 753
property float x
property float y
property float z
element face 758
property list uchar int vertex_index
end_header
13.532147 -51.377697 -35.660637
9.49479 -92.019287 -38.589031
21.036343 -80.659645 -29.918488
5.284311 -63.261143 -42.738468
-1.088017 -79.792175 -43.532417
7.855089 -79.010498 -40.830818
15.805842 -43.734325 -31.982767
7.138631 -42.793209 -42.071037
-0.520756 -91.619301 -39.965099
17.440735 -66.569321 -32.810265
14.103431 -74.049858 -36.925785
10.640833 -58.37178 -39.203419
14.648417 -47.624504 -33.821999
12.920426 -40.419186 -35.197998
11.748159 -43.88327 -36.968464
8.608932 -39.946793 -40.341503
10.361174 -47.234612 -38.87606
-5.578633 -90.007874 -39.349476
-5.679011 -84.995712 -41.839607
23.17131 -82.189667 -25.923258
21.636419 -76.181923 -27.824862
19.932846 -69.351608 -29.514053
19.293419 -73.820496 -31.444805
14.579705 -96.274445 -35.10228
6.49202 -71.121994 -41.80257
11.434577 -77.039612 -38.915081
9.716108 -69.168526 -39.992256
12.324917 -66.329567 -38.05328
8.233278 -61.277424 -41.027729
6.755357 -53.280136 -42.250496
4.000534 -55.181374 -43.922779
4.165641 -86.246147 -41.361771
8.71762 -85.589378 -39.954773
17.379654 -39.698597 -30.032179
14.369769 -37.285191 -33.409447
11.448619 -34.12759 -36.592968
9.903337 -97.442581 -36.644398
4.850385 -97.174904 -37.524044
4.762329 -92.296753 -39.678894
-0.823787 -86.014946 -42.043507
18.337561 -46.316967 -28.834953
16.378572 -54.726231 -32.434322
18.25127 -62.401558 -30.920311
15.535528 -59.183659 -34.183075
12.844696 -84.257057 -37.918404
15.753562 -81.571762 -35.857796
17.90452 -78.139366 -33.665016
16.036272 -70.574142 -34.921654
14.101505 -62.792057 -36.221325
12.265871 -54.922184 -37.46051
8.745481 -50.29435 -40.653225
5.138675 -44.887985 -43.86578
14.156552 -49.671257 -34.694786
13.262482 -46.099277 -35.378105
12.653308 -47.618698 -36.290611
11.126179 -45.569462 -37.871342
11.962225 -49.205231 -37.261276
21.759766 -55.810242 -22.289986
22.200224 -81.398354 -27.982996
22.446014 -79.288651 -26.878159
21.443928 -78.399216 -28.803223
20.555534 -75.162918 -29.707296
20.186842 -77.435219 -30.719343
12.106048 -94.41848 -36.916595
14.075429 -93.456818 -36.158997
5.79713 -67.195511 -42.30468
8.152143 -70.190788 -40.939384
7.41484 -66.076859 -41.446491
9.032491 -65.401031 -40.448307
6.889623 -62.222946 -41.857174
6.08135 -58.24662 -42.497791
4.610614 -59.388432 -43.298958
1.476408 -83.367432 -42.462181
3.930389 -83.197395 -41.931606
16.547457 -41.739803 -30.999741
15.851645 -38.415821 -31.778559
15.167526 -40.38435 -32.573818
11.421333 -38.734562 -36.847416
12.06302 -37.118362 -35.980076
10.57549 -35.518318 -37.635612
9.976767 -32.418808 -38.255642
9.174673 -33.576511 -39.238201
7.774426 -31.62042 -40.932674
7.885916 -41.199341 -41.234653
6.379678 -38.88158 -42.845222
5.505625 -40.126881 -43.747276
12.226271 -99.25325 -34.971485
9.905636 -99.776924 -35.409241
-0.42621 -94.079094 -38.701927
2.10867 -96.680313 -37.612022
2.14809 -94.52726 -38.843281
4.862638 -94.820648 -38.697739
2.033328 -92.031097 -39.963215
1.981451 -89.233543 -40.957081
-0.516142 -88.956726 -41.073612
-8.754559 -75.393188 -44.576591
19.144764 -44.262833 -27.73498
19.565653 -47.380318 -27.07501
16.916779 -53.01136 -31.425356
17.667986 -56.526627 -30.803358
18.794392 -68.139534 -31.178839
17.959534 -64.593384 -31.777885
16.974285 -60.902557 -32.555092
16.530275 -63.120056 -33.477154
17.760523 -91.137077 -33.945873
18.563049 -86.624626 -33.426643
8.310672 -82.360535 -40.418266
10.970663 -85.010719 -38.942871
10.376194 -81.530396 -39.447105
12.805209 -75.720886 -37.979942
13.670065 -79.520462 -37.423168
14.787045 -77.714539 -36.527515
16.854282 -79.923065 -34.833282
16.058691 -76.370216 -35.361721
16.937239 -74.364693 -34.345654
15.206796 -72.57811 -35.888271
11.432717 -62.536251 -38.662495
13.266739 -64.676933 -37.165009
12.364466 -60.653931 -37.767826
13.277717 -58.938858 -36.74316
11.526135 -56.698471 -38.331581
10.574135 -52.792248 -39.027271
9.57785 -54.305981 -40.006474
5.923331 -49.056782 -43.030109
-3.833673 -76.211472 -44.519989
-1.334983 -76.621651 -44.116459
-4.078916 -72.765564 -45.184956
15.16262 -45.552044 -32.937275
14.406464 -42.161774 -33.566406
13.813068 -44.092342 -34.470181
12.368957 -42.292072 -36.044189
10.793152 -40.314251 -37.755791
10.1569 -41.87167 -38.666405
9.608177 -43.67445 -39.447334
8.701573 -44.847233 -40.510189
-3.000137 -93.170525 -38.459755
-2.973127 -90.949799 -39.777489
-3.11145 -88.358376 -40.987804
-5.691044 -87.553223 -40.661739
21.642296 -52.532997 -22.98414
19.986969 -50.811054 -26.382225
23.129898 -79.455345 -24.970608
22.432802 -76.75029 -25.944645
21.699568 -73.621979 -26.770357
20.837076 -72.731453 -28.57575
19.763641 -71.83403 -30.363121
18.372461 -70.256142 -32.14423
16.43347 -95.193832 -34.247803
16.12274 -92.543304 -35.033203
7.065114 -74.978462 -41.381111
9.519958 -77.758293 -40.027882
8.949964 -74.299194 -40.414776
10.490581 -73.084496 -39.506184
11.982602 -71.8498 -38.478333
13.176112 -70.139008 -37.504005
11.101586 -67.688019 -39.028275
10.254048 -63.871845 -39.600864
9.51198 -59.884964 -40.130661
8.62503 -55.781155 -40.805847
7.523223 -57.318996 -41.592793
5.480403 -54.257038 -43.079388
3.339926 -51.178654 -44.645798
21.768465 -83.598663 -29.152685
6.85334 -89.269562 -40.059319
9.241844 -89.079773 -39.27412
6.591212 -86.123589 -40.696289
6.093514 -82.686996 -41.298622
5.690963 -79.178207 -41.764179
5.238058 -75.62394 -42.181332
4.533722 -71.737343 -42.697124
4.048013 -67.947609 -43.123352
3.546649 -63.962856 -43.591965
2.891646 -60.128643 -44.161541
13.81737 -34.095699 -34.068417
13.617902 -38.886517 -34.284988
12.937631 -35.625832 -34.962631
12.369174 -97.034393 -35.926708
9.79179 -94.875702 -37.673786
7.32696 -99.615738 -35.932053
7.451573 -97.437386 -37.179874
7.428234 -95.081421 -38.231319
7.10275 -92.290977 -39.241299
4.423502 -89.289993 -40.627422
1.706067 -86.387085 -41.772945
-0.999648 -83.000717 -42.846344
-3.290149 -85.550964 -42.063587
-3.43031 -82.726189 -42.953884
-3.694414 -79.411659 -43.815746
-6.333854 -75.93679 -44.650303
17.92997 -42.95763 -29.326683
17.156937 -45.125889 -30.3629
15.991785 -49.131744 -32.238316
15.551397 -51.215469 -33.086987
15.016281 -53.224113 -34.052525
18.563292 -60.185192 -29.968857
17.342272 -58.575344 -31.637726
15.989229 -57.094936 -33.310432
14.560484 -55.176296 -34.868374
11.229692 -88.307396 -38.50069
13.385438 -87.629906 -37.391388
15.112394 -86.497345 -36.323627
12.087263 -80.644897 -38.478718
14.424596 -83.097122 -36.891537
16.539288 -85.125084 -35.252239
17.759859 -83.391434 -34.133255
19.656528 -79.544533 -31.745554
18.644125 -75.951767 -32.597649
17.752005 -72.461334 -33.237125
16.935999 -68.805519 -33.74292
14.235209 -68.660728 -36.519436
15.155871 -66.813507 -35.48703
15.914079 -65.019348 -34.471607
14.948956 -61.156322 -35.134014
13.968444 -57.097164 -35.796661
13.024535 -53.338371 -36.469334
11.393695 -51.048897 -38.063885
9.663605 -48.875103 -39.71817
8.013909 -46.544407 -41.260216
7.74319 -51.684963 -41.522549
6.955364 -47.733383 -42.227757
6.214614 -43.944897 -42.961224
4.506823 -41.14513 -44.642262
2.522916 -56.273613 -44.648689
10.648022 -91.791493 -38.158304
11.953651 -92.991089 -37.322086
10.800419 -93.218884 -37.752813
0.163281 -79.973194 -43.27344
1.445494 -81.760822 -42.738321
0.194195 -81.579803 -42.997299
10.235753 -36.161034 -38.089188
10.998411 -37.12644 -37.241514
10.658674 -37.769155 -37.69509
9.535344 -35.19013 -38.890482
9.875082 -34.547415 -38.436906
10.235753 -36.161034 -38.089188
8.835904 -34.241146 -39.69429
9.535344 -35.19013 -38.890482
9.816088 -100.741642 -34.743854
11.088716 -100.640541 -34.480559
20.102735 -48.008484 -26.191635
19.949105 -46.369568 -26.539996
18.203854 -57.034866 -30.000922
17.872509 -55.401684 -30.321727
18.457818 -90.360024 -33.358965
17.506431 -89.6852 -34.268901
17.907694 -87.428974 -34.009287
18.859081 -88.103798 -33.09935
-5.252666 -72.733246 -45.296504
-3.956295 -74.488518 -44.852473
-5.130045 -74.4562 -44.96402
-4.289385 -91.5892 -38.904616
-4.322733 -92.630917 -38.187494
-5.611981 -91.049591 -38.632355
21.388254 -53.712858 -23.500927
21.701031 -54.17162 -22.637063
21.446988 -55.351481 -23.15385
21.272153 -52.16465 -23.816969
21.388254 -53.712858 -23.500927
23.150604 -80.822506 -25.446933
23.478513 -80.851757 -24.430219
23.499219 -82.218918 -24.906544
15.506588 -95.734139 -34.675041
16.551552 -96.542068 -33.717545
15.624669 -97.082375 -34.144783
14.968004 -91.585296 -35.92258
15.099085 -93.000061 -35.5961
13.944349 -92.042054 -36.485478
15.908143 -91.071968 -35.372301
14.968004 -91.585296 -35.92258
22.137039 -85.075603 -28.707016
22.350197 -83.966656 -28.105249
4.814234 -81.184162 -41.894968
5.011952 -82.942195 -41.615114
3.732672 -81.439361 -42.21146
4.612959 -79.429767 -42.127747
5.892238 -80.932602 -41.531401
4.814234 -81.184162 -41.894968
-0.292912 -76.54512 -43.892201
-1.535996 -74.849476 -44.412996
3.96836 -74.05479 -42.791058
4.126329 -75.815033 -42.597441
3.616192 -72.111492 -43.048954
4.88589 -73.680642 -42.439228
3.96836 -74.05479 -42.791058
2.918523 -66.464234 -43.722168
3.130019 -68.370365 -43.491101
2.667841 -64.471857 -43.956474
3.797331 -65.955232 -43.357658
2.918523 -66.464234 -43.722168
2.366474 -62.502907 -44.247879
2.667841 -64.471857 -43.956474
17.106945 -38.14689 -30.40525
17.868733 -38.79303 -29.522861
14.86137 -36.325375 -32.912142
15.602308 -36.89069 -32.096698
15.110707 -37.850506 -32.594003
14.09357 -35.690445 -33.738932
14.585171 -34.730629 -33.241627
14.86137 -36.325375 -32.912142
11.844178 -33.4002 -36.180884
12.588684 -34.149321 -35.365715
12.193125 -34.876711 -35.7778
11.069337 -32.581942 -37.039358
11.844178 -33.4002 -36.180884
9.640764 -30.885573 -38.674303
9.279485 -31.560932 -39.083351
7.095401 -30.672318 -41.809036
7.452389 -32.317597 -41.365196
8.227415 -38.12668 -40.691033
8.941886 -39.150452 -39.883919
4.801863 -98.208866 -36.855038
3.431005 -97.96157 -36.899027
3.479528 -96.927608 -37.568033
6.088672 -98.395321 -36.728048
6.04015 -99.429283 -36.059042
4.801863 -98.208866 -36.855038
-4.717202 -80.991059 -43.364313
-4.688928 -82.437748 -42.909477
-4.849254 -79.333793 -43.795244
-3.562362 -81.068924 -43.384815
-4.717202 -80.991059 -43.364313
-6.168974 -77.596359 -44.212523
-5.014134 -77.674225 -44.233024
-4.849254 -79.333793 -43.795244
-9.928568 -71.886093 -45.419839
-8.744326 -73.838878 -45.021287
-9.9388 -73.440403 -44.975143
19.44652 -50.225723 -27.254912
19.73158 -51.940202 -26.878634
16.624977 -49.895994 -31.44596
16.232639 -48.072305 -31.810023
20.014671 -68.174069 -29.043586
20.410488 -69.816352 -28.615212
18.813457 -63.098408 -30.080945
18.694701 -64.206924 -30.55575
18.407281 -61.293375 -30.444584
18.969468 -61.990225 -29.605218
18.813457 -63.098408 -30.080945
18.314658 -79.74181 -33.345703
17.789539 -80.633659 -33.929836
17.379401 -79.031216 -34.249149
18.780524 -78.841949 -32.705285
19.190662 -80.444394 -32.385972
18.314658 -79.74181 -33.345703
1.569325 -56.479463 -45.108173
2.707281 -58.201128 -44.405115
1.75369 -58.406978 -44.864599
-6.901516 -89.323777 -39.06802
-5.611981 -91.049591 -38.632355
-6.885127 -88.333466 -39.708746
-6.901516 -89.323777 -39.06802
21.820153 -57.383032 -21.936485
21.998376 -56.10598 -21.4656
21.573057 -56.98715 -22.802307
21.820153 -57.383032 -21.936485
21.446988 -55.351481 -23.15385
21.573057 -56.98715 -22.802307
12.938342 -92.510258 -36.943287
13.090739 -93.937649 -36.537796
11.953651 -92.991089 -37.322086
13.944349 -92.042054 -36.485478
12.938342 -92.510258 -36.943287
2.672484 -81.675804 -42.473034
2.703399 -83.282413 -42.196894
1.445494 -81.760822 -42.738321
3.732672 -81.439361 -42.21146
2.672484 -81.675804 -42.473034
8.878438 -32.139784 -39.57463
9.279485 -31.560932 -39.083351
9.57572 -32.997659 -38.746921
8.47455 -32.598466 -40.085437
8.178314 -31.161738 -40.421867
8.878438 -32.139784 -39.57463
8.13578 -33.263101 -40.541527
8.47455 -32.598466 -40.085437
8.835904 -34.241146 -39.69429
7.452389 -32.317597 -41.365196
8.13578 -33.263101 -40.541527
7.501901 -39.341694 -41.604696
7.863409 -38.71542 -41.158121
8.247424 -40.573067 -40.788078
6.748782 -38.182813 -42.409981
7.501901 -39.341694 -41.604696
7.132797 -40.04046 -42.039938
5.985512 -36.987064 -43.299488
6.748782 -38.182813 -42.409981
5.640411 -37.611021 -43.67926
5.985512 -36.987064 -43.299488
5.203385 -38.233671 -44.130287
5.640411 -37.611021 -43.67926
5.942652 -39.50423 -43.296249
4.724705 -38.730438 -44.595975
5.203385 -38.233671 -44.130287
12.249033 -100.378704 -34.26168
13.451188 -100.1138 -33.903162
11.065953 -99.515087 -35.190363
12.249033 -100.378704 -34.26168
11.088716 -100.640541 -34.480559
0.84123 -95.379704 -38.156975
0.767718 -96.376648 -37.487386
-0.499721 -95.076038 -38.032339
-5.813279 -83.572509 -42.352339
-6.979492 -83.265384 -42.186943
-8.620439 -76.994007 -44.079998
-7.379327 -77.324558 -44.175667
-9.886527 -75.068908 -44.441593
-8.620439 -76.994007 -44.079998
-9.9388 -73.440403 -44.975143
-9.886527 -75.068908 -44.441593
19.73866 -44.810825 -26.869981
19.582909 -43.189222 -27.208131
19.355208 -45.821576 -27.404995
19.73866 -44.810825 -26.869981
19.949105 -46.369568 -26.539996
17.496905 -53.644051 -30.632726
17.087474 -51.835802 -31.039479
17.292382 -54.768994 -31.114357
17.496905 -53.644051 -30.632726
17.872509 -55.401684 -30.321727
18.966262 -67.075913 -30.685014
19.535489 -67.68195 -29.852621
19.363619 -68.745571 -30.346446
18.548833 -65.302838 -30.984537
18.966262 -67.075913 -30.685014
18.376963 -66.366459 -31.478362
18.105402 -63.497471 -31.349098
18.694701 -64.206924 -30.55575
18.548833 -65.302838 -30.984537
18.72935 -91.834694 -32.949652
17.952182 -92.567997 -33.565579
18.72935 -91.834694 -32.949652
18.457818 -90.360024 -33.358965
19.460754 -87.273007 -32.453736
18.859081 -88.103798 -33.09935
19.033395 -85.673199 -32.896394
19.460754 -87.273007 -32.453736
5.330445 -49.603323 -43.428348
6.339344 -51.168459 -42.640303
5.746458 -51.715 -43.038542
5.010171 -47.614403 -43.808107
5.330445 -49.603323 -43.428348
4.617843 -45.530005 -44.225943
5.531003 -46.972383 -43.447945
5.010171 -47.614403 -43.808107
4.312273 -43.658504 -44.631443
4.617843 -45.530005 -44.225943
-2.907963 -72.921433 -44.947245
-1.535996 -74.849476 -44.412996
-2.70695 -74.693607 -44.650707
-5.435266 -70.816341 -45.702143
-5.252666 -72.733246 -45.296504
-4.244338 -71.019977 -45.496756
-5.435266 -70.816341 -45.702143
-2.907963 -72.921433 -44.947245
-4.244338 -71.019977 -45.496756
10.344583 -38.559 -38.149277
10.658674 -37.769155 -37.69509
11.107242 -39.524406 -37.301603
10.033996 -39.334181 -38.591062
10.344583 -38.559 -38.149277
9.71587 -40.112891 -39.046369
10.033996 -39.334181 -38.591062
10.475026 -41.092961 -38.211098
9.382916 -40.909232 -39.503954
8.941886 -39.150452 -39.883919
9.71587 -40.112891 -39.046369
-3.101464 -94.12756 -37.715772
-4.322733 -92.630917 -38.187494
-1.786685 -94.621754 -37.911253
-3.101464 -94.12756 -37.715772
-1.713173 -93.624809 -38.580841
-0.499721 -95.076038 -38.032339
-1.786685 -94.621754 -37.911253
-6.941332 -87.106141 -40.364877
-5.634838 -88.780549 -40.005607
-6.885127 -88.333466 -39.708746
-6.949582 -85.877831 -41.016182
-6.941332 -87.106141 -40.364877
-6.943566 -84.599075 -41.605116
-5.685028 -86.274468 -41.250673
-6.949582 -85.877831 -41.016182
-6.979492 -83.265384 -42.186943
-6.943566 -84.599075 -41.605116
22.004931 -54.614415 -21.788955
21.998376 -56.10598 -21.4656
21.946196 -52.975792 -22.136032
22.004931 -54.614415 -21.788955
21.701031 -54.17162 -22.637063
21.966132 -51.387361 -22.444437
21.946196 -52.975792 -22.136032
21.579899 -50.938165 -23.316905
21.966132 -51.387361 -22.444437
21.579899 -50.938165 -23.316905
21.272153 -52.16465 -23.816969
20.444489 -51.303679 -25.516011
20.313392 -49.723852 -25.845242
20.18522 -52.497297 -26.039097
20.444489 -51.303679 -25.516011
19.73158 -51.940202 -26.878634
20.18522 -52.497297 -26.039097
23.409655 -79.578193 -23.939923
23.478513 -80.851757 -24.430219
23.081996 -78.281418 -24.479242
23.409655 -79.578193 -23.939923
22.733448 -76.92889 -24.966261
23.081996 -78.281418 -24.479242
22.78135 -78.102818 -25.457626
22.391085 -75.497872 -25.457882
22.733448 -76.92889 -24.966261
22.024468 -73.933716 -25.870738
22.391085 -75.497872 -25.457882
22.066185 -75.186135 -26.357501
21.675602 -72.301804 -26.296013
22.024468 -73.933716 -25.870738
21.293849 -71.951538 -27.243364
21.675602 -72.301804 -26.296013
20.862603 -71.506275 -28.146061
21.293849 -71.951538 -27.243364
21.268322 -73.176716 -27.673054
20.384961 -71.04153 -29.044902
20.410488 -69.816352 -28.615212
20.862603 -71.506275 -28.146061
17.47868 -95.919148 -33.209183
16.551552 -96.542068 -33.717545
17.288655 -94.596374 -33.716544
17.47868 -95.919148 -33.209183
17.133291 -93.271111 -34.109244
17.288655 -94.596374 -33.716544
16.278105 -93.868568 -34.640503
16.941631 -91.840191 -34.489538
17.952182 -92.567997 -33.565579
17.133291 -93.271111 -34.109244
16.727034 -90.368854 -34.828636
16.941631 -91.840191 -34.489538
15.908143 -91.071968 -35.372301
17.506431 -89.6852 -34.268901
16.727034 -90.368854 -34.828636
5.108981 -52.203451 -43.452988
5.746458 -51.715 -43.038542
6.11788 -53.768587 -42.664942
4.038742 -50.664259 -44.236193
5.108981 -52.203451 -43.452988
4.410165 -52.717846 -43.862593
3.071549 -49.165795 -45.017073
4.038742 -50.664259 -44.236193
23.492764 -83.470238 -25.434936
23.499219 -82.218918 -24.906544
23.05162 -83.262158 -26.490535
23.492764 -83.470238 -25.434936
22.566077 -82.866501 -27.520404
22.685767 -81.79401 -26.953127
23.05162 -83.262158 -26.490535
21.984344 -82.498508 -28.567841
22.566077 -82.866501 -27.520404
22.350197 -83.966656 -28.105249
0.039798 -78.387932 -43.565461
0.163281 -79.973194 -43.27344
-1.2115 -78.206913 -43.824438
0.039798 -78.387932 -43.565461
-0.292912 -76.54512 -43.892201
4.352781 -77.592166 -42.388864
4.612959 -79.429767 -42.127747
5.46451 -77.401073 -41.972755
4.352781 -77.592166 -42.388864
4.126329 -75.815033 -42.597441
3.372873 -70.265232 -43.277986
3.616192 -72.111492 -43.048954
4.290868 -69.842476 -42.910238
3.372873 -70.265232 -43.277986
3.130019 -68.370365 -43.491101
2.038972 -60.5858 -44.532667
3.219148 -62.045749 -43.876753
2.366474 -62.502907 -44.247879
1.75369 -58.406978 -44.864599
2.038972 -60.5858 -44.532667
16.342941 -37.505503 -31.27844
17.106945 -38.14689 -30.40525
16.615649 -39.057209 -30.905369
16.342941 -37.505503 -31.27844
15.602308 -36.89069 -32.096698
14.297771 -33.25419 -33.643038
14.585171 -34.730629 -33.241627
13.502549 -32.586619 -34.493095
14.297771 -33.25419 -33.643038
13.028553 -33.384254 -34.918608
13.377501 -34.860765 -34.515524
12.588684 -34.149321 -35.365715
13.502549 -32.586619 -34.493095
13.028553 -33.384254 -34.918608
10.333412 -31.727551 -37.870695
11.069337 -32.581942 -37.039358
10.712693 -33.273199 -37.424305
10.333412 -31.727551 -37.870695
9.640764 -30.885573 -38.674303
7.497819 -30.185876 -41.283414
8.178314 -31.161738 -40.421867
7.497819 -30.185876 -41.283414
7.095401 -30.672318 -41.809036
8.227415 -38.12668 -40.691033
7.863409 -38.71542 -41.158121
14.636587 -97.570458 -34.552384
15.624669 -97.082375 -34.144783
13.45987 -99.05986 -34.486986
13.451188 -100.1138 -33.903162
13.531322 -97.950432 -34.964597
13.45987 -99.05986 -34.486986
12.297722 -98.143822 -35.449096
13.474439 -96.654419 -35.514494
14.636587 -97.570458 -34.552384
13.531322 -97.950432 -34.964597
2.087384 -97.662777 -36.898685
0.767718 -96.376648 -37.487386
2.087384 -97.662777 -36.898685
3.431005 -97.96157 -36.899027
7.243252 -100.583675 -35.182055
6.04015 -99.429283 -36.059042
8.52675 -100.661049 -35.005261
7.243252 -100.583675 -35.182055
8.616298 -99.696331 -35.670647
9.816088 -100.741642 -34.743854
8.52675 -100.661049 -35.005261
-4.618848 -83.850135 -42.464329
-4.48458 -85.273338 -41.951597
-5.813279 -83.572509 -42.352339
-3.360229 -84.138576 -42.508736
-4.618848 -83.850135 -42.464329
-4.688928 -82.437748 -42.909477
-6.380135 -74.318859 -45.029177
-5.130045 -74.4562 -44.96402
-5.083763 -76.074131 -44.585146
-7.544206 -75.664989 -44.613447
-6.168974 -77.596359 -44.212523
-7.379327 -77.324558 -44.175667
-7.533974 -74.11068 -45.058143
-7.544206 -75.664989 -44.613447
-8.744326 -73.838878 -45.021287
-6.380135 -74.318859 -45.029177
-7.533974 -74.11068 -45.058143
18.097807 -40.350361 -29.156899
17.868733 -38.79303 -29.522861
18.980362 -42.632479 -28.008299
19.582909 -43.189222 -27.208131
18.372965 -41.979878 -28.80415
18.980362 -42.632479 -28.008299
18.537367 -43.610231 -28.530831
17.654812 -41.328114 -29.679431
18.097807 -40.350361 -29.156899
18.372965 -41.979878 -28.80415
19.776311 -49.095686 -26.728617
20.102735 -48.008484 -26.191635
20.313392 -49.723852 -25.845242
19.235862 -48.510355 -27.601305
19.776311 -49.095686 -26.728617
19.44652 -50.225723 -27.254912
18.621816 -47.978679 -28.481276
18.951607 -46.848642 -27.954981
19.235862 -48.510355 -27.601305
18.048382 -47.405979 -29.291274
18.621816 -47.978679 -28.481276
17.45807 -46.81044 -30.055248
17.747249 -45.721428 -29.598926
18.048382 -47.405979 -29.291274
16.815214 -46.069378 -30.872315
17.45807 -46.81044 -30.055248
16.139667 -45.373596 -31.682249
16.481389 -44.430107 -31.172833
16.815214 -46.069378 -30.872315
15.818056 -46.282455 -32.159503
15.484231 -44.643185 -32.460021
16.139667 -45.373596 -31.682249
15.577203 -47.341894 -32.587795
15.818056 -46.282455 -32.159503
16.232639 -48.072305 -31.810023
16.454282 -51.071552 -31.831836
16.624977 -49.895994 -31.44596
17.087474 -51.835802 -31.039479
20.014671 -68.174069 -29.043586
19.535489 -67.68195 -29.852621
19.042915 -60.713499 -29.179562
18.969468 -61.990225 -29.605218
18.651508 -58.864149 -29.583672
19.042915 -60.713499 -29.179562
18.115639 -58.355909 -30.386108
18.203854 -57.034866 -30.000922
18.651508 -58.864149 -29.583672
21.439557 -84.734882 -29.779636
22.137039 -85.075603 -28.707016
21.047348 -83.164574 -30.17747
21.439557 -84.734882 -29.779636
20.681287 -81.695065 -30.560372
21.402404 -82.129154 -29.535587
21.047348 -83.164574 -30.17747
10.521549 -90.321736 -38.500849
10.648022 -91.791493 -38.158304
9.368317 -90.54953 -38.931576
11.515473 -89.935547 -38.114133
10.521549 -90.321736 -38.500849
10.235768 -88.693585 -38.887405
12.52148 -89.467343 -37.656324
11.515473 -89.935547 -38.114133
13.599353 -89.128598 -37.101673
12.52148 -89.467343 -37.656324
12.307565 -87.968651 -37.946039
14.539492 -88.615269 -36.551394
13.599353 -89.128598 -37.101673
15.40297 -88.048989 -36.017513
14.539492 -88.615269 -36.551394
14.248916 -87.063626 -36.857507
16.182366 -87.365333 -35.457779
15.40297 -88.048989 -36.017513
16.895813 -86.679203 -34.922084
16.182366 -87.365333 -35.457779
15.825841 -85.811215 -35.787933
17.551168 -85.874855 -34.339441
17.907694 -87.428974 -34.009287
16.895813 -86.679203 -34.922084
18.6318 -84.056602 -33.249701
19.033395 -85.673199 -32.896394
18.161454 -85.00803 -33.779949
18.242328 -82.367844 -33.579822
17.307071 -81.65725 -34.483268
17.789539 -80.633659 -33.929836
18.6318 -84.056602 -33.249701
18.242328 -82.367844 -33.579822
19.99138 -81.137508 -31.473904
19.190662 -80.444394 -32.385972
20.346435 -80.102089 -30.832021
20.681287 -81.695065 -30.560372
19.99138 -81.137508 -31.473904
4.225305 -39.239563 -45.043469
4.724705 -38.730438 -44.595975
5.006224 -40.636005 -44.194769
3.996347 -41.787077 -45.019684
4.822749 -43.016558 -44.254021
4.312273 -43.658504 -44.631443
3.710065 -39.867935 -45.460234
3.996347 -41.787077 -45.019684
4.225305 -39.239563 -45.043469
3.710065 -39.867935 -45.460234
1.336674 -54.464699 -45.4431
1.569325 -56.479463 -45.108173
2.161372 -54.166949 -45.046949
1.336674 -54.464699 -45.4431
2.900181 -53.620829 -44.683994
3.261725 -55.727493 -44.285734
2.161372 -54.166949 -45.046949
2.569877 -51.619469 -45.045504
3.67023 -53.180014 -44.284289
2.900181 -53.620829 -44.683994
2.337481 -49.603296 -45.416712
2.569877 -51.619469 -45.045504
3.071549 -49.165795 -45.017073
2.337481 -49.603296 -45.416712
3 0 54 52
3 0 56 54
3 2 60 58
3 2 62 60
3 1 223 225
3 225 224 63
3 223 224 225
3 3 67 65
3 3 69 67
3 3 71 69
3 4 226 228
3 228 227 72
3 226 227 228
3 6 76 74
3 229 79 230
3 231 230 77
3 229 230 231
3 232 81 233
3 234 233 79
3 232 233 234
3 236 235 81
3 7 84 83
3 7 85 84
3 237 87 238
3 8 90 88
3 8 92 90
3 8 94 92
3 239 97 240
3 241 99 242
3 9 101 100
3 9 103 101
3 244 243 104
3 245 105 246
3 5 108 106
3 10 111 109
3 10 113 111
3 10 115 113
3 11 118 116
3 11 120 118
3 11 122 120
3 247 126 248
3 249 248 124
3 247 248 249
3 12 129 127
3 14 130 53
3 14 131 130
3 14 132 131
3 16 133 55
3 16 134 133
3 17 250 252
3 250 135 251
3 250 251 252
3 17 136 135
3 17 138 136
3 253 139 254
3 255 254 57
3 253 254 255
3 257 256 139
3 19 258 260
3 258 141 259
3 258 259 260
3 20 142 59
3 20 143 142
3 20 144 143
3 22 145 61
3 22 146 145
3 23 261 263
3 261 147 262
3 261 262 263
3 264 148 265
3 266 265 64
3 264 265 266
3 268 267 148
3 24 151 149
3 26 152 66
3 26 153 152
3 26 155 153
3 28 156 68
3 28 157 156
3 28 159 157
3 30 160 70
3 30 161 160
3 269 162 270
3 31 165 163
3 271 166 272
3 273 272 73
3 271 272 273
3 274 167 275
3 276 275 166
3 274 275 276
3 278 277 125
3 279 168 280
3 281 169 282
3 283 282 168
3 281 282 283
3 284 170 285
3 286 171 287
3 288 287 170
3 286 287 288
3 290 289 171
3 33 291 292
3 34 293 295
3 295 294 75
3 293 294 295
3 34 296 298
3 296 173 297
3 296 297 298
3 13 174 128
3 35 175 78
3 35 299 301
3 301 300 175
3 299 300 301
3 35 302 303
3 305 304 80
3 307 306 82
3 15 308 309
3 36 176 86
3 36 177 176
3 37 310 312
3 312 311 89
3 310 311 312
3 37 313 315
3 313 178 314
3 313 314 315
3 37 179 178
3 38 180 91
3 38 181 180
3 38 182 181
3 39 183 93
3 39 184 183
3 18 185 137
3 316 186 317
3 318 187 319
3 320 319 186
3 318 319 320
3 321 188 322
3 323 322 187
3 321 322 323
3 326 325 95
3 324 325 326
3 40 189 96
3 40 190 189
3 328 327 140
3 329 191 330
3 41 192 98
3 41 193 192
3 21 331 332
3 42 333 334
3 42 335 337
3 335 194 336
3 335 336 337
3 42 195 194
3 43 196 102
3 43 197 196
3 32 198 164
3 44 199 107
3 44 200 199
3 25 201 150
3 45 202 110
3 45 203 202
3 45 204 203
3 46 338 340
3 340 339 112
3 338 339 340
3 46 341 343
3 341 205 342
3 341 342 343
3 46 206 205
3 47 207 114
3 47 208 207
3 27 209 154
3 48 210 117
3 48 211 210
3 48 212 211
3 49 213 119
3 49 214 213
3 49 215 214
3 50 216 121
3 50 217 216
3 29 218 158
3 51 219 123
3 51 220 219
3 51 221 220
3 344 222 345
3 346 345 172
3 344 345 346
3 52 53 12
3 54 53 52
3 54 14 53
3 54 55 14
3 56 55 54
3 56 16 55
3 347 17 348
3 350 349 17
3 351 57 352
3 353 57 354
3 356 355 57
3 58 59 19
3 60 59 58
3 60 20 59
3 60 61 20
3 62 61 60
3 62 22 61
3 63 64 23
3 357 64 358
3 359 358 63
3 357 358 359
3 361 360 64
3 65 66 24
3 67 66 65
3 67 26 66
3 67 68 26
3 69 68 67
3 69 28 68
3 69 70 28
3 71 70 69
3 71 30 70
3 72 73 31
3 362 73 363
3 364 363 72
3 362 363 364
3 366 365 73
3 74 75 33
3 76 75 74
3 76 34 75
3 77 78 13
3 79 78 77
3 79 35 78
3 79 80 35
3 81 80 79
3 81 367 369
3 369 368 80
3 367 368 369
3 81 370 372
3 370 82 371
3 370 371 372
3 373 82 374
3 375 374 81
3 373 374 375
3 377 376 82
3 83 378 380
3 380 379 15
3 378 379 380
3 84 381 383
3 383 382 83
3 381 382 383
3 84 384 385
3 84 386 387
3 85 388 390
3 390 389 84
3 388 389 390
3 85 391 392
3 393 86 394
3 87 395 397
3 395 86 396
3 395 396 397
3 87 36 86
3 88 398 400
3 398 89 399
3 398 399 400
3 90 89 88
3 90 37 89
3 90 91 37
3 92 91 90
3 92 38 91
3 92 93 38
3 94 93 92
3 94 39 93
3 402 401 18
3 403 95 404
3 405 95 406
3 408 407 95
3 409 96 410
3 97 411 413
3 411 96 412
3 411 412 413
3 97 40 96
3 414 98 415
3 99 416 418
3 416 98 417
3 416 417 418
3 99 41 98
3 100 419 421
3 421 420 21
3 419 420 421
3 101 422 424
3 424 423 100
3 422 423 424
3 101 425 427
3 425 42 426
3 425 426 427
3 101 102 42
3 103 102 101
3 103 43 102
3 104 428 429
3 431 430 104
3 105 432 433
3 105 434 435
3 106 107 32
3 108 107 106
3 108 44 107
3 109 110 25
3 111 110 109
3 111 45 110
3 111 112 45
3 113 112 111
3 113 46 112
3 113 114 46
3 115 114 113
3 115 47 114
3 116 117 27
3 118 117 116
3 118 48 117
3 118 119 48
3 120 119 118
3 120 49 119
3 120 121 49
3 122 121 120
3 122 50 121
3 436 123 437
3 438 437 29
3 436 437 438
3 439 123 440
3 441 51 442
3 443 442 123
3 441 442 443
3 445 444 51
3 124 125 4
3 126 125 124
3 126 446 448
3 448 447 125
3 446 447 448
3 449 126 450
3 451 126 452
3 454 453 126
3 127 128 6
3 129 128 127
3 129 13 128
3 53 129 12
3 130 129 53
3 130 13 129
3 130 77 13
3 131 77 130
3 131 455 457
3 457 456 77
3 455 456 457
3 131 458 459
3 132 460 462
3 462 461 131
3 460 461 462
3 132 463 465
3 463 15 464
3 463 464 465
3 55 132 14
3 133 132 55
3 133 15 132
3 133 83 15
3 134 83 133
3 134 7 83
3 135 466 467
3 135 468 469
3 135 470 472
3 470 88 471
3 470 471 472
3 136 88 135
3 136 8 88
3 136 137 8
3 138 137 136
3 138 18 137
3 473 138 474
3 475 474 17
3 473 474 475
3 476 138 477
3 478 18 479
3 480 479 138
3 478 479 480
3 482 481 18
3 57 483 484
3 139 485 487
3 487 486 57
3 485 486 487
3 139 488 489
3 139 490 491
3 493 492 139
3 494 140 495
3 496 140 497
3 499 498 140
3 141 500 501
3 141 502 503
3 59 141 19
3 142 141 59
3 142 504 506
3 506 505 141
3 504 505 506
3 142 507 508
3 143 509 511
3 511 510 142
3 509 510 511
3 143 512 513
3 143 514 515
3 144 516 518
3 518 517 143
3 516 517 518
3 144 519 521
3 519 21 520
3 519 520 521
3 61 144 20
3 145 144 61
3 145 21 144
3 145 100 21
3 146 100 145
3 146 9 100
3 147 522 523
3 147 524 525
3 64 147 23
3 148 147 64
3 148 526 528
3 528 527 147
3 526 527 528
3 148 529 531
3 529 104 530
3 529 530 531
3 532 104 533
3 534 533 148
3 532 533 534
3 536 535 104
3 149 150 5
3 151 150 149
3 151 25 150
3 66 151 24
3 152 151 66
3 152 25 151
3 152 109 25
3 153 109 152
3 153 10 109
3 153 154 10
3 155 154 153
3 155 27 154
3 68 155 26
3 156 155 68
3 156 27 155
3 156 116 27
3 157 116 156
3 157 11 116
3 157 158 11
3 159 158 157
3 159 29 158
3 70 159 28
3 160 159 70
3 160 29 159
3 160 537 539
3 539 538 29
3 537 538 539
3 161 540 542
3 542 541 160
3 540 541 542
3 161 543 544
3 545 19 546
3 547 19 548
3 549 58 550
3 551 550 19
3 549 550 551
3 162 552 554
3 552 58 553
3 552 553 554
3 162 2 58
3 163 164 1
3 165 164 163
3 165 32 164
3 73 165 31
3 166 165 73
3 166 32 165
3 166 106 32
3 167 106 166
3 167 5 106
3 125 555 557
3 557 556 4
3 555 556 557
3 559 558 125
3 560 167 561
3 168 562 564
3 562 167 563
3 562 563 564
3 168 5 167
3 168 149 5
3 169 149 168
3 169 24 149
3 565 169 566
3 170 567 569
3 567 169 568
3 567 568 569
3 170 24 169
3 170 65 24
3 171 65 170
3 171 3 65
3 171 172 3
3 570 172 571
3 572 571 171
3 570 571 572
3 574 573 172
3 75 575 577
3 577 576 33
3 575 576 577
3 579 578 75
3 173 580 581
3 173 582 583
3 128 76 6
3 174 76 128
3 174 34 76
3 78 174 13
3 175 174 78
3 175 34 174
3 175 173 34
3 584 173 585
3 586 585 175
3 584 585 586
3 588 587 173
3 80 589 591
3 591 590 35
3 589 590 591
3 593 592 80
3 82 594 595
3 597 596 82
3 599 598 15
3 600 23 601
3 86 602 603
3 176 604 606
3 606 605 86
3 604 605 606
3 176 607 609
3 607 23 608
3 607 608 609
3 176 63 23
3 177 63 176
3 177 1 63
3 89 610 611
3 613 612 89
3 178 614 615
3 178 616 617
3 178 618 620
3 618 87 619
3 618 619 620
3 179 87 178
3 179 36 87
3 91 179 37
3 180 179 91
3 180 36 179
3 180 177 36
3 181 177 180
3 181 1 177
3 181 163 1
3 182 163 181
3 182 31 163
3 93 182 38
3 183 182 93
3 183 31 182
3 183 72 31
3 184 72 183
3 184 4 72
3 137 94 8
3 185 94 137
3 185 39 94
3 621 185 622
3 623 622 18
3 621 622 623
3 186 624 626
3 624 185 625
3 624 625 626
3 186 39 185
3 186 184 39
3 187 184 186
3 187 4 184
3 187 124 4
3 188 124 187
3 188 627 629
3 629 628 124
3 627 628 629
3 95 630 632
3 630 188 631
3 630 631 632
3 633 188 634
3 635 634 95
3 633 634 635
3 637 636 188
3 638 33 639
3 96 640 641
3 189 642 644
3 644 643 96
3 642 643 644
3 189 645 647
3 645 33 646
3 645 646 647
3 189 74 33
3 190 74 189
3 190 6 74
3 140 648 650
3 648 97 649
3 648 649 650
3 651 97 652
3 653 652 140
3 651 652 653
3 654 40 655
3 656 655 97
3 654 655 656
3 657 40 658
3 659 190 660
3 661 660 40
3 659 660 661
3 662 190 663
3 664 6 665
3 666 665 190
3 664 665 666
3 667 127 668
3 669 668 6
3 667 668 669
3 191 670 672
3 670 127 671
3 670 671 672
3 191 12 127
3 98 673 675
3 673 191 674
3 673 674 675
3 192 191 98
3 192 12 191
3 192 52 12
3 193 52 192
3 193 0 52
3 677 676 21
3 194 678 679
3 194 680 681
3 194 682 684
3 682 99 683
3 682 683 684
3 195 99 194
3 195 41 99
3 102 195 42
3 196 195 102
3 196 41 195
3 196 193 41
3 197 193 196
3 197 0 193
3 685 162 686
3 687 162 688
3 689 2 690
3 691 690 162
3 689 690 691
3 164 692 694
3 694 693 1
3 692 693 694
3 198 695 697
3 697 696 164
3 695 696 697
3 198 698 699
3 107 198 32
3 199 198 107
3 199 700 702
3 702 701 198
3 700 701 702
3 199 703 704
3 200 705 707
3 707 706 199
3 705 706 707
3 200 708 709
3 150 108 5
3 201 108 150
3 201 44 108
3 110 201 25
3 202 201 110
3 202 44 201
3 202 200 44
3 203 200 202
3 203 710 712
3 712 711 200
3 710 711 712
3 203 713 715
3 713 105 714
3 713 714 715
3 204 105 203
3 204 716 718
3 718 717 105
3 716 717 718
3 112 204 45
3 719 204 720
3 721 720 112
3 719 720 721
3 723 722 204
3 205 724 725
3 205 726 728
3 726 2 727
3 726 727 728
3 205 62 2
3 206 62 205
3 206 22 62
3 114 206 46
3 207 206 114
3 207 22 206
3 207 146 22
3 208 146 207
3 208 9 146
3 154 115 10
3 209 115 154
3 209 47 115
3 117 209 27
3 210 209 117
3 210 47 209
3 210 208 47
3 211 208 210
3 211 9 208
3 211 103 9
3 212 103 211
3 212 43 103
3 119 212 48
3 213 212 119
3 213 43 212
3 213 197 43
3 214 197 213
3 214 0 197
3 214 56 0
3 215 56 214
3 215 16 56
3 121 215 49
3 216 215 121
3 216 16 215
3 216 134 16
3 217 134 216
3 217 7 134
3 158 122 11
3 218 122 158
3 218 50 122
3 123 218 29
3 219 218 123
3 219 50 218
3 219 217 50
3 220 217 219
3 220 7 217
3 220 85 7
3 221 85 220
3 221 729 731
3 731 730 85
3 729 730 731
3 732 221 733
3 734 733 51
3 732 733 734
3 735 221 736
3 738 737 221
3 172 71 3
3 222 71 172
3 222 30 71
3 739 222 740
3 741 222 742
3 743 30 744
3 745 744 222
3 743 744 745
3 746 161 747
3 748 747 30
3 746 747 748
3 749 161 750
3 752 751 161
