ply
format ascii 1.0
element vertex 288
property float x
property float y
property float z
element face 259
property list uchar int vertex_index
end_header
19.729342 100.79081 -36.641636
27.416862 97.488976 -32.336323
31.607412 83.952881 -37.061638
34.398579 66.808807 -39.205219
24.796816 102.409302 -28.771519
30.144854 93.805298 -29.081833
33.143242 75.788567 -38.430576
20.844637 103.924156 -31.065535
24.046295 99.690994 -34.920139
26.770506 94.077255 -37.928608
28.89535 87.369049 -40.32159
29.635279 91.400017 -35.05159
31.947773 87.476837 -31.479958
30.816219 79.340439 -41.743805
34.594498 49.269203 -41.078224
19.986107 106.284775 -25.660662
19.385883 105.353096 -28.921421
21.530464 104.929199 -28.01405
26.138294 100.158447 -30.621529
24.434822 101.152328 -32.085796
25.964705 98.600952 -33.705505
25.422731 97.017639 -36.621826
27.072218 95.980782 -35.28619
28.319014 92.876396 -36.50695
28.555101 94.684937 -33.664669
31.024529 90.875404 -30.391237
17.952484 102.635765 -34.687275
15.484035 102.305481 -35.396034
17.440857 100.708763 -37.343697
30.332991 85.720894 -38.848381
29.999653 83.387375 -41.024494
31.345325 81.679131 -39.418293
33.797474 71.264023 -38.982922
32.706898 73.172417 -40.78112
33.309353 68.588928 -41.114609
33.890446 63.688347 -41.172451
34.221581 59.052189 -41.300606
23.412491 104.284821 -26.715464
27.732773 98.619629 -29.131775
28.906076 95.802742 -30.661263
21.329954 98.49604 -38.518932
19.211565 98.592033 -39.262142
32.681923 81.992996 -35.190109
32.458221 79.849731 -37.76992
33.453663 77.887779 -35.93898
34.126347 73.585579 -36.683132
34.817635 69.180954 -36.957321
18.720436 104.106354 -31.989363
20.414314 102.456688 -33.973618
22.965105 103.283493 -30.077606
22.506435 102.021278 -33.040485
21.969336 100.228447 -36.122536
23.457481 97.918961 -37.688511
27.874163 90.942917 -39.172306
29.384119 89.351562 -37.857143
30.700495 87.737679 -36.142956
29.884928 92.844788 -32.168648
30.889334 89.540466 -33.299988
31.838337 85.816696 -34.387901
16.660528 98.478241 -39.803806
28.479362 84.655067 -42.539288
32.069187 77.40097 -40.243378
34.42284 54.363033 -41.322582
34.543604 46.700397 -40.993471
35.06979 48.209677 -40.276731
21.711388 105.393234 -26.220715
20.758285 105.606987 -26.837356
20.939209 106.071022 -25.044021
34.619619 64.376173 -39.376028
34.365553 62.815943 -40.359644
34.144512 65.248577 -40.188835
27.837623 99.060119 -27.415437
27.085911 99.908299 -28.193648
28.426751 97.700074 -28.253583
27.837623 99.060119 -27.415437
21.024986 97.377499 -39.703501
22.079557 97.120231 -39.388618
33.566811 78.688606 -34.645077
33.067793 79.940387 -35.564544
33.18094 80.741215 -34.270641
34.59018 72.356777 -35.74334
34.2456 74.53146 -35.443941
34.935823 70.154465 -35.880434
34.471991 71.383266 -36.820227
34.59018 72.356777 -35.74334
35.245981 67.904602 -36.125412
34.935823 70.154465 -35.880434
25.826463 94.639152 -38.522465
25.152575 96.109344 -37.869074
26.096618 95.547447 -37.275217
26.464696 93.05635 -39.217777
25.826463 94.639152 -38.522465
27.322335 92.510086 -38.550457
27.016524 91.489182 -39.839626
26.464696 93.05635 -39.217777
32.38835 85.566391 -32.003861
32.333632 84.736321 -33.457832
31.893055 86.646766 -32.933929
14.234668 102.027565 -35.6177
15.206204 101.293293 -36.66441
17.515861 97.361099 -40.676455
17.936046 98.535137 -39.532974
18.791379 97.417996 -40.405622
28.687356 86.012058 -41.430439
27.933107 86.576454 -42.08662
28.141101 87.933445 -40.977772
30.125504 80.147674 -42.423298
29.71722 82.171143 -42.063643
30.407936 81.363907 -41.384149
30.523138 77.97966 -42.73057
30.125504 80.147674 -42.423298
32.150215 74.011567 -41.527582
32.425726 71.803185 -41.756432
34.824026 55.786287 -40.452374
34.32221 56.707611 -41.311594
34.723396 58.130865 -40.441386
34.943388 53.372436 -40.444959
34.824026 55.786287 -40.452374
34.048502 47.693452 -41.74135
33.503131 48.673653 -42.550724
34.049127 50.249403 -41.887598
34.048502 47.693452 -41.74135
34.543604 46.700397 -40.993471
19.685995 105.818935 -27.291041
18.498974 105.917732 -27.748535
18.799087 106.383571 -26.118156
31.081097 91.398403 -28.721546
30.584691 92.340351 -29.736535
30.641259 92.86335 -28.066844
31.50382 89.836017 -29.438215
31.081097 91.398403 -28.721546
31.965443 88.136734 -29.982575
31.486151 89.17612 -30.935598
31.50382 89.836017 -29.438215
32.41165 86.28978 -30.612955
31.965443 88.136734 -29.982575
16.718259 102.470623 -35.041654
15.938015 103.161354 -34.027792
17.17224 103.326496 -33.673412
16.184615 100.494934 -37.638241
15.206204 101.293293 -36.66441
16.462446 101.507122 -36.369866
32.726954 69.51144 -41.923176
32.425726 71.803185 -41.756432
33.008126 70.880673 -40.947865
33.006659 67.136322 -42.000254
32.726954 69.51144 -41.923176
33.297205 64.686031 -42.029175
33.006659 67.136322 -42.000254
33.599899 66.138638 -41.14353
33.507208 62.225967 -42.048624
33.297205 64.686031 -42.029175
34.056013 61.370268 -41.236529
33.672776 59.907888 -42.112702
33.507208 62.225967 -42.048624
34.531121 60.497864 -40.423721
34.056013 61.370268 -41.236529
34.365553 62.815943 -40.359644
34.723396 58.130865 -40.441386
34.531121 60.497864 -40.423721
23.581876 104.617001 -25.054767
22.652401 105.071045 -25.571422
24.322564 103.740482 -25.968082
23.581876 104.617001 -25.054767
25.014727 102.802723 -26.996109
24.104653 103.347061 -27.743492
24.322564 103.740482 -25.968082
25.617933 101.803135 -28.01352
25.014727 102.802723 -26.996109
26.288671 100.677707 -28.938524
25.467555 101.283874 -29.696524
25.617933 101.803135 -28.01352
26.935533 99.389038 -29.876652
26.288671 100.677707 -28.938524
27.085911 99.908299 -28.193648
29.013402 96.29163 -29.018327
28.319425 97.211185 -29.896519
28.426751 97.700074 -28.253583
29.632791 95.292908 -28.228612
29.525465 94.80402 -29.871548
29.013402 96.29163 -29.018327
30.17597 94.311673 -27.420533
29.632791 95.292908 -28.228612
30.641259 92.86335 -28.066844
30.17597 94.311673 -27.420533
19.965792 97.425495 -40.075105
20.27076 98.544037 -38.890537
21.024986 97.377499 -39.703501
19.545606 96.251458 -41.218586
18.791379 97.417996 -40.405622
19.965792 97.425495 -40.075105
33.909258 76.68256 -35.071865
33.566811 78.688606 -34.645077
33.790005 75.736679 -36.311056
33.909258 76.68256 -35.071865
34.2456 74.53146 -35.443941
35.069659 66.842171 -37.235975
34.86013 65.656097 -38.359924
34.608107 67.99488 -38.08127
35.069659 66.842171 -37.235975
35.245981 67.904602 -36.125412
18.217064 105.368923 -29.336667
18.498974 105.917732 -27.748535
17.884341 104.745552 -30.870638
18.217064 105.368923 -29.336667
19.053159 104.729725 -30.455392
17.556216 104.061791 -32.324457
17.884341 104.745552 -30.870638
18.33646 103.37106 -33.338319
17.17224 103.326496 -33.673412
17.556216 104.061791 -32.324457
22.471477 104.60701 -27.364757
21.711388 105.393234 -26.220715
22.652401 105.071045 -25.571422
23.14332 96.831692 -38.973408
22.079557 97.120231 -39.388618
22.393718 98.2075 -38.103721
24.16995 96.560005 -38.402417
24.440106 97.4683 -37.155169
25.152575 96.109344 -37.869074
23.14332 96.831692 -38.973408
24.16995 96.560005 -38.402417
27.630508 89.720379 -40.403129
27.016524 91.489182 -39.839626
28.384757 89.155983 -39.746948
28.141101 87.933445 -40.977772
27.630508 89.720379 -40.403129
32.755425 82.824471 -33.858936
32.26013 83.904846 -34.789005
32.333632 84.736321 -33.457832
33.18094 80.741215 -34.270641
32.755425 82.824471 -33.858936
32.38835 85.566391 -32.003861
32.41165 86.28978 -30.612955
19.10513 106.742504 -24.5673
18.799087 106.383571 -26.118156
20.121692 106.620464 -24.020266
19.10513 106.742504 -24.5673
20.939209 106.071022 -25.044021
20.121692 106.620464 -24.020266
14.641839 102.953663 -34.280821
15.938015 103.161354 -34.027792
14.641839 102.953663 -34.280821
14.234668 102.027565 -35.6177
15.79445 99.379673 -38.868296
16.184615 100.494934 -37.638241
17.050693 99.593502 -38.573752
16.24344 97.216847 -40.902393
17.515861 97.361099 -40.676455
17.098773 96.099705 -41.775042
15.361963 98.306995 -39.931348
16.24344 97.216847 -40.902393
15.79445 99.379673 -38.868296
15.361963 98.306995 -39.931348
27.610654 85.245213 -43.166441
27.933107 86.576454 -42.08662
28.196921 83.310436 -43.47942
27.610654 85.245213 -43.166441
28.957075 82.804989 -42.821039
29.239507 84.021221 -41.781891
29.71722 82.171143 -42.063643
28.196921 83.310436 -43.47942
28.957075 82.804989 -42.821039
31.831359 76.125843 -41.258711
32.388042 75.286693 -40.512249
32.150215 74.011567 -41.527582
31.204875 77.095578 -42.008925
31.442703 78.370705 -40.993592
31.831359 76.125843 -41.258711
30.523138 77.97966 -42.73057
31.204875 77.095578 -42.008925
33.786877 57.670839 -42.095467
33.672776 59.907888 -42.112702
33.887507 55.326262 -42.106454
33.786877 57.670839 -42.095467
34.32221 56.707611 -41.311594
33.963299 52.796318 -42.009777
33.887507 55.326262 -42.106454
34.508669 51.816118 -41.200403
34.049127 50.249403 -41.887598
33.963299 52.796318 -42.009777
35.029217 50.825521 -40.322781
34.508669 51.816118 -41.200403
34.943388 53.372436 -40.444959
35.06979 48.209677 -40.276731
35.029217 50.825521 -40.322781
34.619619 64.376173 -39.376028
34.86013 65.656097 -38.359924
3 64 63 14
3 65 17 66
3 67 66 15
3 65 66 67
3 1 20 18
3 1 22 20
3 1 24 22
3 0 28 26
3 2 31 29
3 3 34 32
3 3 35 34
3 3 68 70
3 70 69 35
3 68 69 70
3 71 38 72
3 74 73 38
3 76 75 40
3 77 44 78
3 79 78 42
3 77 78 79
3 80 45 81
3 82 46 83
3 84 83 45
3 82 83 84
3 86 85 46
3 7 47 16
3 7 48 47
3 4 49 37
3 8 50 19
3 8 51 50
3 8 52 51
3 9 87 89
3 89 88 21
3 87 88 89
3 9 90 91
3 9 92 94
3 92 53 93
3 92 93 94
3 11 54 23
3 11 55 54
3 5 56 39
3 12 57 25
3 12 58 57
3 12 95 97
3 97 96 58
3 95 96 97
3 99 98 27
3 100 59 101
3 102 101 41
3 100 101 102
3 10 103 105
3 103 60 104
3 103 104 105
3 13 106 108
3 108 107 30
3 106 107 108
3 13 109 110
3 6 61 43
3 112 111 33
3 113 62 114
3 115 114 36
3 113 114 115
3 117 116 62
3 14 118 120
3 118 119 120
3 122 121 14
3 15 123 125
3 123 16 124
3 123 124 125
3 17 16 15
3 17 7 16
3 18 19 4
3 20 19 18
3 20 8 19
3 20 21 8
3 22 21 20
3 22 9 21
3 22 23 9
3 24 23 22
3 24 11 23
3 126 25 127
3 128 127 5
3 126 127 128
3 129 25 130
3 131 12 132
3 133 132 25
3 131 132 133
3 135 134 12
3 26 136 138
3 136 27 137
3 136 137 138
3 28 27 26
3 28 139 141
3 141 140 27
3 139 140 141
3 29 30 10
3 31 30 29
3 31 13 30
3 32 33 6
3 34 33 32
3 34 142 144
3 144 143 33
3 142 143 144
3 34 145 146
3 35 147 149
3 149 148 34
3 147 148 149
3 35 150 151
3 35 152 154
3 152 36 153
3 152 153 154
3 155 36 156
3 157 156 35
3 155 156 157
3 159 158 36
3 160 37 161
3 162 37 163
3 164 4 165
3 166 165 37
3 164 165 166
3 167 4 168
3 169 18 170
3 171 170 4
3 169 170 171
3 38 172 174
3 172 18 173
3 172 173 174
3 38 1 18
3 38 39 1
3 175 39 176
3 177 176 38
3 175 176 177
3 178 5 179
3 180 179 39
3 178 179 180
3 181 5 182
3 184 183 5
3 40 41 0
3 185 41 186
3 187 186 40
3 185 186 187
3 190 189 41
3 188 189 190
3 42 43 2
3 44 43 42
3 44 6 43
3 191 44 192
3 45 193 195
3 193 44 194
3 193 194 195
3 45 6 44
3 45 32 6
3 46 32 45
3 46 3 32
3 46 196 198
3 198 197 3
3 196 197 198
3 200 199 46
3 16 201 202
3 47 203 205
3 205 204 16
3 203 204 205
3 47 206 207
3 47 208 210
3 208 26 209
3 208 209 210
3 48 26 47
3 48 0 26
3 37 211 213
3 211 17 212
3 211 212 213
3 49 17 37
3 49 7 17
3 19 49 4
3 50 49 19
3 50 7 49
3 50 48 7
3 51 48 50
3 51 0 48
3 51 40 0
3 52 40 51
3 52 214 216
3 216 215 40
3 214 215 216
3 21 52 8
3 217 52 218
3 219 218 21
3 217 218 219
3 221 220 52
3 53 222 223
3 53 224 226
3 224 10 225
3 224 225 226
3 23 53 9
3 54 53 23
3 54 10 53
3 54 29 10
3 55 29 54
3 55 2 29
3 39 24 1
3 56 24 39
3 56 11 24
3 25 56 5
3 57 56 25
3 57 11 56
3 57 55 11
3 58 55 57
3 58 2 55
3 58 42 2
3 227 42 228
3 229 228 58
3 227 228 229
3 231 230 42
3 233 232 12
3 234 15 235
3 236 15 237
3 239 238 15
3 27 240 241
3 243 242 27
3 41 28 0
3 59 28 41
3 59 244 246
3 246 245 28
3 244 245 246
3 247 59 248
3 247 248 249
3 250 59 251
3 253 252 59
3 60 254 255
3 60 256 257
3 30 60 10
3 258 60 259
3 260 259 30
3 258 259 260
3 262 261 60
3 43 31 2
3 61 31 43
3 61 13 31
3 33 61 6
3 263 61 264
3 265 264 33
3 263 264 265
3 266 13 267
3 268 267 61
3 266 267 268
3 270 269 13
3 36 271 272
3 62 273 275
3 275 274 36
3 273 274 275
3 62 276 277
3 62 278 280
3 278 14 279
3 278 279 280
3 281 14 282
3 283 282 62
3 281 282 283
3 285 284 14
3 287 286 3
