ply
format ascii 1.0
element vertex 282
property float x
property float y
property float z
element face 254
property list uchar int vertex_index
end_header
17.165039 62.778118 -51.248756
11.230453 48.556496 -52.163887
12.8407 77.410286 -49.363594
16.534964 90.682693 -45.302849
12.955297 63.173347 -51.139145
10.150247 56.249138 -51.45237
14.147142 55.742004 -51.677143
18.371193 96.243958 -41.549103
21.477091 90.56929 -44.494705
19.665134 84.51371 -47.581322
7.560699 49.784714 -51.964203
17.949324 54.369869 -51.459755
15.383924 70.827072 -50.568146
14.863297 84.293373 -47.86274
17.670345 78.048195 -49.468719
19.783756 70.293678 -50.445625
11.307005 40.779366 -52.67683
15.06919 63.478512 -51.231594
13.728921 59.580128 -51.449574
15.753196 59.335384 -51.477226
10.875859 52.734257 -51.822826
9.011549 52.889877 -51.684776
9.463299 49.489925 -52.094902
9.63097 45.6231 -52.513123
13.085855 70.794601 -50.398693
14.254725 74.301788 -50.044601
17.525867 93.456894 -43.662441
15.862379 87.555275 -46.729485
18.672007 81.405151 -48.631306
18.979261 74.331573 -50.017651
12.868988 39.783485 -52.372967
9.819255 38.184532 -53.17836
9.428241 59.71788 -51.008495
11.526132 59.83041 -51.277443
12.188331 56.050789 -51.620441
12.679976 51.901436 -51.89986
19.037836 90.897644 -44.94384
18.320171 87.911064 -46.470192
20.551247 87.84404 -46.120361
8.245755 56.315083 -51.184509
19.240147 62.381611 -51.093239
17.809189 58.658913 -51.387508
19.619259 57.868408 -51.179447
11.948254 67.047005 -50.671349
14.090514 67.166206 -50.880527
16.449327 66.899994 -50.977127
13.777616 80.999077 -48.697304
17.237043 84.722961 -47.757648
16.353613 81.368675 -48.748978
15.23005 77.769081 -49.517792
16.633537 74.475143 -50.110813
17.606625 70.833992 -50.566978
18.578606 66.718094 -50.897068
20.623388 65.982803 -50.692924
16.117533 55.308929 -51.619453
14.605371 51.600723 -51.834366
12.978714 47.968597 -52.094391
14.540187 42.93829 -52.004429
12.934725 43.802963 -52.264648
11.303583 44.704418 -52.43927
9.806533 41.73098 -52.885117
8.253175 39.116982 -53.475948
12.419922 75.689896 -49.592869
11.62006 77.20549 -49.190022
13.547712 75.856037 -49.704098
13.126934 74.135647 -49.933373
12.419922 75.689896 -49.592869
15.7558 91.977081 -44.570364
16.251252 93.364182 -43.75016
17.030416 92.069794 -44.482645
15.332983 90.510895 -45.356169
15.7558 91.977081 -44.570364
16.198671 89.118984 -46.016167
14.99669 88.947185 -46.069487
15.332983 90.510895 -45.356169
12.240714 61.501879 -51.208294
11.132364 61.641351 -51.063789
11.846946 63.31282 -50.994641
20.694356 92.073723 -43.821281
21.838507 91.950859 -43.486496
20.257464 90.733467 -44.719273
19.474728 92.2379 -44.045849
20.694356 92.073723 -43.821281
7.312022 51.434095 -51.686514
8.037447 52.986677 -51.546801
8.286124 51.337295 -51.824489
6.639318 50.017369 -51.812952
7.312022 51.434095 -51.686514
6.874386 48.284188 -52.17427
6.639318 50.017369 -51.812952
20.416677 59.728907 -50.989699
19.429703 60.12501 -51.136343
20.227122 61.985508 -50.946595
11.363665 68.711674 -50.388052
10.81028 66.918957 -50.490618
10.22569 68.583626 -50.207321
17.515861 97.361099 -40.676455
18.791379 97.417996 -40.405622
13.664642 84.201324 -47.764239
14.111433 85.827667 -47.25349
14.320456 82.646225 -48.280022
13.121802 82.554176 -48.181521
13.664642 84.201324 -47.764239
14.624208 49.386415 -51.889376
15.425118 51.197853 -51.767819
13.81088 47.570352 -52.019389
13.792043 49.78466 -51.964379
14.624208 49.386415 -51.889376
14.434981 40.69667 -52.006449
15.316153 42.31606 -51.833063
8.267744 37.408181 -53.668624
9.036215 38.650757 -53.327154
9.050784 36.941955 -53.51983
7.56794 38.065072 -53.812775
8.267744 37.408181 -53.668624
22.554952 90.443424 -44.085104
21.838507 91.950859 -43.486496
22.143438 89.091415 -44.98912
22.554952 90.443424 -44.085104
8.73211 47.992729 -52.282061
7.78081 48.140124 -52.216711
8.511999 49.63732 -52.029552
8.815945 46.059317 -52.491171
8.73211 47.992729 -52.282061
9.547134 47.556512 -52.304012
8.969344 44.21616 -52.743359
8.815945 46.059317 -52.491171
12.542499 72.382053 -50.110419
11.932465 70.585472 -50.251724
13.67029 72.548194 -50.221647
12.542499 72.382053 -50.110419
13.126934 74.135647 -49.933373
16.67611 94.706173 -42.83171
17.098773 96.099705 -41.775042
17.94853 94.850426 -42.605772
16.67611 94.706173 -42.83171
16.251252 93.364182 -43.75016
14.610974 87.458618 -46.686863
14.99669 88.947185 -46.069487
15.362838 85.924324 -47.296112
14.111433 85.827667 -47.25349
14.610974 87.458618 -46.686863
19.828741 81.201103 -48.499237
19.168571 82.95943 -48.106314
20.325304 82.755382 -47.974245
19.340817 79.595139 -48.959537
19.828741 81.201103 -48.499237
18.839986 77.916661 -49.378244
18.171176 79.726673 -49.050013
19.340817 79.595139 -48.959537
19.494444 76.05835 -49.65271
18.324803 76.189884 -49.743185
18.839986 77.916661 -49.378244
20.093409 74.10287 -49.888457
19.494444 76.05835 -49.65271
20.495657 72.083923 -50.102443
19.381509 72.312625 -50.231638
20.093409 74.10287 -49.888457
20.828691 70.045051 -50.287714
20.495657 72.083923 -50.102443
17.097095 52.582426 -51.580513
18.055416 52.16892 -51.439934
12.745717 37.70314 -52.406405
13.599381 39.119268 -52.190718
12.054077 38.330656 -52.612498
12.745717 37.70314 -52.406405
11.273086 38.828597 -52.764429
12.087996 40.281425 -52.524899
12.054077 38.330656 -52.612498
10.529211 37.53118 -53.015194
10.56313 39.481949 -52.927595
11.273086 38.828597 -52.764429
9.748828 36.340964 -53.31152
10.529211 37.53118 -53.015194
9.050784 36.941955 -53.51983
9.748828 36.340964 -53.31152
10.083419 61.585087 -50.929316
8.984619 61.486542 -50.732668
9.639796 63.353748 -50.653488
10.477187 59.774145 -51.142969
10.083419 61.585087 -50.929316
11.132364 61.641351 -51.063789
12.142256 79.006592 -48.9095
11.62006 77.20549 -49.190022
19.545606 96.251458 -41.218586
18.791379 97.417996 -40.405622
19.141407 94.911057 -42.348481
19.545606 96.251458 -41.218586
18.718744 93.517525 -43.40515
17.94853 94.850426 -42.605772
19.141407 94.911057 -42.348481
18.281852 92.177269 -44.30314
18.718744 93.517525 -43.40515
19.474728 92.2379 -44.045849
21.680515 87.728791 -45.801949
21.014169 89.206665 -45.307533
22.143438 89.091415 -44.98912
21.25312 86.196453 -46.574318
21.680515 87.728791 -45.801949
20.810063 84.531288 -47.304799
20.10819 86.178875 -46.850842
21.25312 86.196453 -46.574318
20.325304 82.755382 -47.974245
20.810063 84.531288 -47.304799
8.408867 59.762737 -50.798002
8.984619 61.486542 -50.732668
7.817625 58.061339 -50.886009
8.408867 59.762737 -50.798002
8.836998 58.016481 -51.096502
7.324494 56.464011 -50.975317
7.817625 58.061339 -50.886009
7.65455 54.69928 -51.296667
8.628652 54.60248 -51.434642
8.037447 52.986677 -51.546801
7.324494 56.464011 -50.975317
7.65455 54.69928 -51.296667
6.874386 48.284188 -52.17427
7.78081 48.140124 -52.216711
20.520573 57.472538 -51.005257
20.416677 59.728907 -50.989699
19.722594 55.685343 -51.167984
20.520573 57.472538 -51.005257
18.887626 53.936073 -51.308138
18.784292 56.119139 -51.319601
19.722594 55.685343 -51.167984
18.055416 52.16892 -51.439934
18.887626 53.936073 -51.308138
11.343425 65.249649 -50.760742
10.20545 65.121601 -50.580011
10.81028 66.918957 -50.490618
12.451776 65.110176 -50.905247
11.846946 63.31282 -50.994641
11.343425 65.249649 -50.760742
12.517055 68.920803 -50.535021
11.363665 68.711674 -50.388052
11.932465 70.585472 -50.251724
17.515861 97.361099 -40.676455
17.098773 96.099705 -41.775042
12.610713 80.800987 -48.576355
13.121802 82.554176 -48.181521
13.309158 79.204681 -49.030449
12.142256 79.006592 -48.9095
12.610713 80.800987 -48.576355
20.918742 63.786104 -50.746437
20.227122 61.985508 -50.946595
19.931767 64.182207 -50.893081
21.248507 67.889614 -50.411364
20.203572 68.13824 -50.569274
20.828691 70.045051 -50.287714
21.638321 65.697868 -50.492887
21.248507 67.889614 -50.411364
20.918742 63.786104 -50.746437
21.638321 65.697868 -50.492887
16.181199 53.051956 -51.660362
17.033428 54.839399 -51.539604
17.097095 52.582426 -51.580513
15.361452 53.454826 -51.72691
16.181199 53.051956 -51.660362
15.425118 51.197853 -51.767819
15.457862 44.645239 -51.846836
15.316153 42.31606 -51.833063
14.591616 45.055199 -51.974407
15.457862 44.645239 -51.846836
13.704587 41.360888 -52.188698
14.434981 40.69667 -52.006449
13.599381 39.119268 -52.190718
13.788885 45.487535 -52.104517
14.591616 45.055199 -51.974407
13.737456 43.370627 -52.134539
12.95672 45.88578 -52.179519
13.81088 47.570352 -52.019389
13.788885 45.487535 -52.104517
9.057125 42.2701 -52.929356
8.969344 44.21616 -52.743359
9.718751 43.67704 -52.69912
8.280447 40.9631 -53.224772
9.057125 42.2701 -52.929356
9.029854 40.423981 -53.180532
7.536207 39.747023 -53.529341
8.280447 40.9631 -53.224772
7.536207 39.747023 -53.529341
7.56794 38.065072 -53.812775
3 0 19 17
3 1 22 20
3 1 23 22
3 2 62 63
3 2 64 66
3 64 25 65
3 64 65 66
3 3 67 69
3 69 68 26
3 67 68 69
3 3 70 71
3 3 72 74
3 72 27 73
3 72 73 74
3 4 75 77
3 75 33 76
3 75 76 77
3 6 34 18
3 6 35 34
3 8 78 79
3 8 80 82
3 80 36 81
3 80 81 82
3 8 38 36
3 5 39 32
3 10 83 85
3 85 84 21
3 83 84 85
3 10 86 87
3 10 88 89
3 90 42 91
3 92 91 40
3 90 91 92
3 93 43 94
3 93 94 95
3 12 44 24
3 12 45 44
3 7 96 97
3 13 98 99
3 13 100 102
3 100 46 101
3 100 101 102
3 9 47 37
3 14 48 28
3 14 49 48
3 14 50 49
3 15 51 29
3 15 52 51
3 15 53 52
3 11 54 41
3 103 55 104
3 105 56 106
3 107 106 55
3 105 106 107
3 108 57 109
3 16 58 30
3 16 59 58
3 16 60 59
3 110 61 111
3 112 111 31
3 110 111 112
3 114 113 61
3 17 18 4
3 19 18 17
3 19 6 18
3 115 8 116
3 118 117 8
3 20 21 5
3 22 21 20
3 22 10 21
3 22 119 121
3 121 120 10
3 119 120 121
3 23 122 124
3 124 123 22
3 122 123 124
3 23 125 126
3 127 24 128
3 25 129 131
3 129 24 130
3 129 130 131
3 25 12 24
3 26 132 134
3 134 133 7
3 132 133 134
3 136 135 26
3 27 137 138
3 27 139 141
3 139 13 140
3 139 140 141
3 142 28 143
3 144 143 9
3 142 143 144
3 145 28 146
3 147 14 148
3 149 148 28
3 147 148 149
3 150 29 151
3 152 151 14
3 150 151 152
3 153 29 154
3 155 15 156
3 157 156 29
3 155 156 157
3 159 158 15
3 161 160 11
3 162 30 163
3 164 30 165
3 166 16 167
3 168 167 30
3 166 167 168
3 169 31 170
3 171 170 16
3 169 170 171
3 172 31 173
3 175 174 31
3 176 32 177
3 176 177 178
3 33 179 181
3 179 32 180
3 179 180 181
3 33 5 32
3 18 33 4
3 34 33 18
3 34 5 33
3 34 20 5
3 35 20 34
3 35 1 20
3 182 2 183
3 184 7 185
3 186 7 187
3 188 26 189
3 190 189 7
3 188 189 190
3 36 191 193
3 191 26 192
3 191 192 193
3 36 3 26
3 36 37 3
3 38 37 36
3 38 9 37
3 194 38 195
3 196 195 8
3 194 195 196
3 197 38 198
3 199 9 200
3 201 200 38
3 199 200 201
3 203 202 9
3 32 204 205
3 39 206 208
3 208 207 32
3 206 207 208
3 39 209 210
3 21 39 5
3 211 39 212
3 213 212 21
3 211 212 213
3 215 214 39
3 217 216 10
3 40 41 0
3 42 41 40
3 42 11 41
3 218 42 219
3 220 42 221
3 222 11 223
3 224 223 42
3 222 223 224
3 226 225 11
3 43 227 229
3 227 228 229
3 43 230 232
3 230 4 231
3 230 231 232
3 24 233 235
3 233 43 234
3 233 234 235
3 44 43 24
3 44 4 43
3 44 17 4
3 45 17 44
3 45 0 17
3 237 236 7
3 46 238 239
3 46 240 242
3 240 2 241
3 240 241 242
3 37 27 3
3 47 27 37
3 47 13 27
3 28 47 9
3 48 47 28
3 48 13 47
3 48 46 13
3 49 46 48
3 49 2 46
3 49 25 2
3 50 25 49
3 50 12 25
3 29 50 14
3 51 50 29
3 51 12 50
3 51 45 12
3 52 45 51
3 52 0 45
3 52 40 0
3 53 40 52
3 53 243 245
3 245 244 40
3 243 244 245
3 246 53 247
3 248 247 15
3 246 247 248
3 249 53 250
3 252 251 53
3 41 19 0
3 54 19 41
3 54 6 19
3 253 54 254
3 255 254 11
3 253 254 255
3 55 256 258
3 256 54 257
3 256 257 258
3 55 6 54
3 55 35 6
3 56 35 55
3 56 1 35
3 57 259 260
3 57 261 262
3 30 263 265
3 263 57 264
3 263 264 265
3 58 57 30
3 58 266 268
3 268 267 57
3 266 267 268
3 58 269 271
3 269 56 270
3 269 270 271
3 59 56 58
3 59 1 56
3 59 23 1
3 60 23 59
3 60 272 274
3 274 273 23
3 272 273 274
3 31 60 16
3 61 60 31
3 61 275 277
3 277 276 60
3 275 276 277
3 61 278 279
3 281 280 61
