ply
format ascii 1.0
element vertex 518
property float x
property float y
property float z
element face 502
property list uchar int vertex_index
end_header
-6.289782 11.187957 -70.022224
1.06962 -31.75075 -48.935802
9.896015 -36.803749 -38.542763
4.474018 -28.330954 -45.362991
-0.987009 12.81214 -64.922813
-2.159414 2.618351 -63.907612
-2.873408 -8.296381 -60.364635
0.303506 -18.365683 -52.774372
-0.463821 17.815088 -64.416985
-0.225295 3.019233 -61.22147
-0.766425 -1.947405 -60.218426
-2.571131 -2.880743 -62.286884
-1.171281 -7.482529 -58.61541
2.972758 -30.315971 -47.140476
2.176239 -23.441504 -49.057457
0.55762 -24.648371 -50.906559
-1.489678 -19.40382 -54.623848
-1.582843 -25.898825 -52.691551
7.130352 -33.014774 -41.797718
5.591346 -35.092548 -43.753754
3.943786 -37.333996 -45.444675
-2.671069 21.888338 -66.625435
-3.087924 17.303749 -67.769585
-3.384457 12.300944 -67.818115
-1.609417 7.86278 -64.809166
-3.849951 7.092825 -67.180244
-4.326312 1.641484 -65.827858
-4.647791 -4.043397 -63.830811
-5.003318 -9.456858 -61.766895
-1.398603 -33.27002 -50.595955
-4.035622 -26.768621 -54.203163
-6.255561 -20.72658 -57.71521
-5.532864 -14.918756 -59.731121
0.256323 -12.588025 -54.572708
-1.361066 -13.222135 -56.654175
-3.288549 -14.150818 -58.33934
0.082975 -1.91109 -58.832207
-0.147483 -4.460351 -58.221821
-0.967914 -4.640103 -59.454624
-0.336235 -7.159232 -57.480095
-6.479364 8.455018 -69.549652
2.037019 -30.847561 -48.121201
1.652712 -27.496544 -49.081059
0.734063 -28.094727 -49.976421
-0.448227 -25.311844 -51.814434
-0.313894 -28.915182 -50.794243
8.497135 -34.905781 -40.150379
7.117887 -37.484047 -41.974739
4.901145 -36.340462 -44.513298
-1.284287 22.210264 -64.881927
-0.799357 15.395554 -64.88855
-1.700467 17.558823 -66.106667
-1.955868 15.301744 -66.439163
-3.24408 14.878356 -67.922302
-2.173439 12.766239 -66.501411
-0.846448 5.499922 -63.036606
-1.899208 5.343213 -64.478088
-2.774404 7.61376 -66.20031
-2.948537 4.898462 -65.604721
-4.12534 4.507435 -66.653198
-3.156741 2.371137 -64.972229
-2.725143 -5.576911 -61.347202
-3.547963 -3.419249 -63.108742
-3.69354 -6.117154 -62.109001
-4.79875 -6.682404 -62.819904
-3.956782 -8.742924 -61.220646
-2.819561 -33.577686 -51.445652
5.148866 -27.300068 -44.465477
4.01611 -25.224817 -46.199638
1.177889 -20.8957 -50.935265
1.932117 -20.310045 -49.948269
1.027333 -17.698555 -51.895523
1.019333 -14.790228 -52.668514
0.254368 -15.323114 -53.718365
-0.567769 -12.820652 -55.740295
-0.529652 -15.943672 -54.63063
-2.465732 -19.961924 -55.371304
-2.409589 -16.640142 -56.535023
-3.487518 -17.255354 -57.261753
-4.38977 -14.511329 -59.103313
-4.678249 -17.630632 -58.009796
9.27484 -38.354111 -39.426334
0.371874 15.557762 -63.157627
0.031372 13.174026 -63.44976
-0.544495 0.504323 -60.817207
-1.453385 0.360106 -62.134014
-2.32936 -0.133599 -63.094769
-1.656259 -2.40526 -61.332668
-1.852878 -5.151157 -60.478836
-1.996595 -7.951622 -59.513226
3.730483 -29.231882 -46.298523
3.280348 -25.801311 -47.207577
2.56385 -26.783707 -48.062122
1.48949 -24.386539 -49.825985
0.407917 -21.546257 -51.812611
-0.519716 -18.871481 -53.700672
-0.564704 -21.956118 -52.847744
-1.554357 -22.694452 -53.626385
-2.640972 -23.050808 -54.454205
6.416376 -29.724216 -42.685398
5.749111 -30.73403 -43.574879
7.845899 -36.306568 -41.040562
6.371161 -34.150986 -42.792042
5.024193 -31.779104 -44.501469
4.260169 -32.648827 -45.416012
3.424856 -33.767197 -46.281246
2.475583 -34.816647 -47.12923
-1.538482 19.825554 -65.681824
-2.867174 19.597662 -67.308289
-4.440201 16.881516 -69.11898
-4.61153 14.455147 -69.199745
-4.791679 11.933802 -69.060951
-0.540332 8.111807 -63.317223
-1.367032 10.378379 -65.057365
-2.46372 10.138514 -66.427834
-3.707163 9.821133 -67.704483
-4.981862 9.24739 -68.698387
-5.156879 6.664701 -68.169632
-5.337302 3.764224 -67.390007
-5.567104 0.854044 -66.502876
-3.37309 -0.467366 -64.125496
-4.51328 -1.251544 -64.87175
-5.750908 -4.875681 -64.297531
2.913307 -38.59074 -46.278206
1.326275 -35.482399 -48.061417
0.189342 -36.320454 -48.798466
-0.097388 -32.614124 -49.770565
-2.762808 -26.368622 -53.473381
2.936696 -22.747971 -48.047783
2.652445 -19.713293 -48.919056
-0.463858 -10.016495 -56.598957
-1.281738 -10.206438 -57.697277
-2.08922 -10.792953 -58.469547
-1.437495 -16.255955 -55.648624
-2.284882 -13.682994 -57.541992
-3.104773 -11.131582 -59.41021
-4.158901 -11.654835 -60.140816
-5.194695 -12.20616 -60.696598
0.148597 -5.761406 -57.208952
0.218068 -4.375015 -57.616964
0.054221 -7.110846 -56.838089
-0.241859 -5.809792 -57.850958
0.148597 -5.761406 -57.208952
-7.065751 10.647771 -70.345425
-7.004914 12.056722 -70.56385
-6.384573 9.821487 -69.785938
-7.160542 9.281302 -70.109139
-7.065751 10.647771 -70.345425
10.235753 -36.161034 -38.089188
10.658674 -37.769155 -37.69509
9.535344 -35.19013 -38.890482
10.235753 -36.161034 -38.089188
9.196575 -35.854765 -39.346571
8.835904 -34.241146 -39.69429
9.535344 -35.19013 -38.890482
-0.665095 22.382988 -64.036158
-1.236763 23.401224 -64.44363
-2.029311 3.980782 -64.19285
-1.54015 4.130035 -63.577659
-1.670253 2.767604 -63.292422
-3.541939 -33.770802 -51.808192
-2.751718 -35.457285 -50.93848
-3.463714 -31.987479 -52.276335
-3.541939 -33.770802 -51.808192
-3.555725 -18.867914 -56.694977
-2.976625 -18.608639 -56.316529
-3.044831 -20.221199 -55.749752
-4.15109 -19.055553 -57.068998
-4.082884 -17.442993 -57.635774
-3.555725 -18.867914 -56.694977
0.727726 14.397113 -62.472585
0.933254 15.745838 -62.305479
0.557474 13.205246 -62.618652
0.201623 14.365894 -63.303693
0.727726 14.397113 -62.472585
6.773364 -31.369495 -42.241558
7.095401 -30.672318 -41.809036
7.452389 -32.317597 -41.365196
8.227415 -38.12668 -40.691033
8.56037 -37.33034 -40.233448
8.941886 -39.150452 -39.883919
-3.376651 22.892059 -67.026577
-2.635143 23.015897 -66.215176
-3.384442 21.735217 -67.406384
-4.090024 22.738937 -67.807525
-3.376651 22.892059 -67.026577
-1.001151 18.820321 -65.049405
-0.90406 20.009218 -64.812258
-0.366729 19.003985 -64.179839
-3.684603 18.294073 -68.283436
-3.574228 19.441029 -68.052788
-2.977549 18.450705 -67.538937
-3.764063 17.092633 -68.444282
-4.360741 18.082957 -68.958134
-3.684603 18.294073 -68.283436
-0.072833 4.287311 -61.398536
0.216251 3.145344 -60.514236
-5.177324 -3.069483 -64.631863
-5.110069 -1.673557 -65.152332
-4.580535 -2.64747 -64.351281
-5.19935 -4.459539 -64.064171
-5.728883 -3.485626 -64.865223
-5.177324 -3.069483 -64.631863
-5.430477 -8.545955 -62.468544
-5.328193 -7.158728 -62.995048
-4.901034 -8.069631 -62.293399
-5.499161 -9.899277 -61.915346
-5.430477 -8.545955 -62.468544
2.347046 -39.039426 -46.678005
3.19959 -40.509882 -45.837656
1.55353 -37.485256 -47.569611
2.119791 -37.036569 -47.169811
2.347046 -39.039426 -46.678005
-0.604631 -34.795237 -49.69721
-0.526307 -36.54492 -49.244606
-1.32028 -35.019703 -50.14335
-1.446682 -31.447705 -51.092581
-0.796075 -31.119756 -50.679886
-0.747996 -32.942072 -50.18326
-3.399215 -26.568621 -53.838272
-2.781702 -28.134054 -52.957859
-3.418108 -28.334053 -53.32275
-3.936238 -25.164721 -54.682451
-3.299831 -24.964721 -54.31756
-3.399215 -26.568621 -53.838272
-5.708362 -22.239264 -56.825672
-6.468338 -22.289955 -57.220796
-5.554075 -20.718601 -57.304259
-5.708362 -22.239264 -56.825672
-6.067338 -19.294466 -58.196773
-5.554075 -20.718601 -57.304259
2.200565 -18.507281 -49.883253
2.292281 -20.011669 -49.433662
1.8404 -18.805657 -50.39786
2.559737 -18.361181 -49.318016
2.200565 -18.507281 -49.883253
0.594186 -12.294778 -54.104812
0.975691 -13.395879 -53.152715
0.637828 -13.689127 -53.620611
0.272802 -11.151296 -55.035195
0.594186 -12.294778 -54.104812
-0.103767 -11.30226 -55.585832
-0.087288 -9.865531 -56.048319
0.272802 -11.151296 -55.035195
-5.882605 -13.698792 -60.489103
-5.71352 -12.342495 -60.971842
-5.363779 -13.562458 -60.213859
0.333297 -3.100385 -57.922157
0.465479 -1.769419 -58.209654
-0.032254 -3.18572 -58.527014
0.333297 -3.100385 -57.922157
0.218068 -4.375015 -57.616964
-7.213503 7.877166 -69.784584
-7.160542 9.281302 -70.109139
-6.513491 6.971594 -69.149597
-7.213503 7.877166 -69.784584
8.13578 -33.263101 -40.541527
8.835904 -34.241146 -39.69429
7.813744 -33.960278 -40.974049
7.452389 -32.317597 -41.365196
8.13578 -33.263101 -40.541527
7.501901 -39.341694 -41.604696
7.863409 -38.71542 -41.158121
6.748782 -38.182813 -42.409981
7.501901 -39.341694 -41.604696
5.985512 -36.987064 -43.299488
6.354616 -36.288297 -42.864247
6.748782 -38.182813 -42.409981
5.640411 -37.611021 -43.67926
5.246245 -35.716505 -44.133526
5.985512 -36.987064 -43.299488
5.203385 -38.233671 -44.130287
5.640411 -37.611021 -43.67926
4.724705 -38.730438 -44.595975
4.422465 -36.837229 -44.978986
5.203385 -38.233671 -44.130287
-1.941752 23.17686 -65.343422
-1.236763 23.401224 -64.44363
-1.977678 22.049301 -65.753681
-2.635143 23.015897 -66.215176
-1.941752 23.17686 -65.343422
-1.01377 4.20839 -62.856918
-0.535871 4.259577 -62.129038
-0.703194 2.968045 -61.94935
-1.372828 5.421568 -63.757347
-1.01377 4.20839 -62.856918
-1.54015 4.130035 -63.577659
-2.030759 -35.173536 -50.568199
-2.751718 -35.457285 -50.93848
-2.109082 -33.423853 -51.020803
-1.32028 -35.019703 -50.14335
-2.030759 -35.173536 -50.568199
-2.810078 -31.738585 -51.943995
-2.099599 -31.584753 -51.519146
-2.109082 -33.423853 -51.020803
-2.810078 -31.738585 -51.943995
-3.463714 -31.987479 -52.276335
-4.071744 -28.582946 -53.655091
-3.418108 -28.334053 -53.32275
-7.011678 -20.696127 -58.108015
-6.468338 -22.289955 -57.220796
-6.720932 -19.279556 -58.55653
-7.011678 -20.696127 -58.108015
4.921176 -25.816561 -44.865555
5.538985 -27.022569 -43.930633
4.354798 -24.778936 -45.732636
4.921176 -25.816561 -44.865555
4.582488 -26.262442 -45.332558
3.810983 -23.658628 -46.648775
4.354798 -24.778936 -45.732636
1.388008 -17.499913 -51.371487
1.8404 -18.805657 -50.39786
1.479725 -19.0043 -50.921896
1.023333 -16.244391 -52.282018
1.384008 -16.045749 -51.757982
1.388008 -17.499913 -51.371487
10.344583 -38.559 -38.149277
10.658674 -37.769155 -37.69509
10.033996 -39.334181 -38.591062
9.585427 -37.57893 -38.984549
10.344583 -38.559 -38.149277
9.71587 -40.112891 -39.046369
10.033996 -39.334181 -38.591062
8.941886 -39.150452 -39.883919
9.71587 -40.112891 -39.046369
0.088668 17.95216 -63.610241
-0.366729 19.003985 -64.179839
0.506516 16.823498 -62.980562
0.933254 15.745838 -62.305479
-0.045974 16.686425 -63.787306
0.088668 17.95216 -63.610241
0.506516 16.823498 -62.980562
0.038118 1.872826 -60.350199
0.216251 3.145344 -60.514236
0.192252 -0.592335 -59.155568
0.465479 -1.769419 -58.209654
-0.121482 0.615371 -60.148068
0.192252 -0.592335 -59.155568
-0.23076 -0.703383 -59.824707
-0.384895 1.761778 -61.019339
0.038118 1.872826 -60.350199
-0.121482 0.615371 -60.148068
-0.862794 1.71059 -61.747219
-0.703194 2.968045 -61.94935
-0.384895 1.761778 -61.019339
-1.317239 1.638481 -62.405622
-0.862794 1.71059 -61.747219
-0.99894 0.432214 -61.475611
-1.806399 1.489229 -63.020813
-1.670253 2.767604 -63.292422
-1.317239 1.638481 -62.405622
-3.132452 -21.765641 -55.291203
-3.044831 -20.221199 -55.749752
-2.553352 -21.506366 -54.912755
-6.18678 12.549493 -70.144565
-7.004914 12.056722 -70.56385
6.818793 -29.237773 -42.159776
7.095401 -30.672318 -41.809036
6.17274 -28.234643 -43.040594
6.818793 -29.237773 -42.159776
5.782621 -28.512142 -43.575437
5.538985 -27.022569 -43.930633
6.17274 -28.234643 -43.040594
7.481893 -36.895308 -41.50765
8.227415 -38.12668 -40.691033
7.863409 -38.71542 -41.158121
-0.776963 21.201573 -64.41231
-0.665095 22.382988 -64.036158
-1.411385 21.017909 -65.281876
-0.776963 21.201573 -64.41231
-0.90406 20.009218 -64.812258
-3.482494 20.589879 -67.74781
-3.384442 21.735217 -67.406384
-2.769121 20.743 -66.966862
-3.482494 20.589879 -67.74781
-3.574228 19.441029 -68.052788
-5.136815 17.919665 -69.612942
-4.360741 18.082957 -68.958134
-5.211982 16.680838 -69.728961
-5.136815 17.919665 -69.612942
-5.297646 15.467654 -69.769344
-5.211982 16.680838 -69.728961
-4.525866 15.668332 -69.159362
-5.347653 14.183088 -69.733326
-6.03377 15.195595 -70.302925
-5.297646 15.467654 -69.769344
-5.437728 12.922415 -69.663929
-5.347653 14.183088 -69.733326
-4.701605 13.194475 -69.130348
-5.540731 11.56088 -69.541587
-6.18678 12.549493 -70.144565
-5.437728 12.922415 -69.663929
0.377023 11.949061 -62.680101
0.557474 13.205246 -62.618652
-0.118337 11.856343 -63.45598
0.377023 11.949061 -62.680101
-0.627528 11.6754 -64.192507
-0.477819 12.993083 -64.186286
-0.118337 11.856343 -63.45598
-0.38341 5.527655 -62.306105
-0.072833 4.287311 -61.398536
-0.535871 4.259577 -62.129038
-0.230352 6.833597 -62.446413
-0.38341 5.527655 -62.306105
-0.69339 6.805865 -63.176914
-0.074763 8.120615 -62.569563
-0.230352 6.833597 -62.446413
-0.404189 9.325233 -63.389712
-0.074763 8.120615 -62.569563
-0.817539 10.45852 -64.259783
-0.404189 9.325233 -63.389712
-0.953682 9.245093 -64.187294
-1.177021 11.59526 -64.990089
-0.627528 11.6754 -64.192507
-0.817539 10.45852 -64.259783
-5.852248 6.076435 -68.459587
-6.513491 6.971594 -69.149597
-5.818122 7.559859 -68.859642
-5.94246 4.626196 -68.069774
-5.852248 6.076435 -68.459587
-5.247091 5.214462 -67.77982
-6.043557 3.178442 -67.640312
-5.94246 4.626196 -68.069774
-6.158458 1.723352 -67.196747
-6.043557 3.178442 -67.640312
-5.452203 2.309134 -66.946441
-6.163612 0.246253 -66.641873
-6.158458 1.723352 -67.196747
-5.63698 -0.620763 -65.967895
-5.040192 -0.19875 -65.687313
-5.110069 -1.673557 -65.152332
-6.163612 0.246253 -66.641873
-5.63698 -0.620763 -65.967895
-6.304613 -4.08599 -64.969761
-5.728883 -3.485626 -64.865223
-6.30094 -5.406395 -64.405548
-6.304613 -4.08599 -64.969761
-5.804272 -6.255367 -63.733862
-5.274829 -5.779043 -63.558718
-5.328193 -7.158728 -62.995048
-6.30094 -5.406395 -64.405548
-5.804272 -6.255367 -63.733862
4.225305 -39.239563 -45.043469
4.724705 -38.730438 -44.595975
3.710065 -39.867935 -45.460234
3.996347 -41.787077 -45.019684
3.19959 -40.509882 -45.837656
3.428546 -37.962368 -45.861441
4.225305 -39.239563 -45.043469
3.710065 -39.867935 -45.460234
0.306752 -38.192697 -48.376455
-0.526307 -36.54492 -49.244606
0.985063 -37.904283 -47.938136
0.306752 -38.192697 -48.376455
0.757809 -35.901426 -48.429941
1.55353 -37.485256 -47.569611
0.985063 -37.904283 -47.938136
-0.904327 -29.270285 -51.191725
-0.205641 -30.764653 -50.282404
-0.796075 -31.119756 -50.679886
-1.538802 -27.762107 -52.140379
-0.948368 -27.407004 -51.742897
-0.904327 -29.270285 -51.191725
-1.446682 -31.447705 -51.092581
-2.099599 -31.584753 -51.519146
-2.128785 -27.997006 -52.531294
-2.781702 -28.134054 -52.957859
-2.172826 -26.133723 -53.082466
-1.538802 -27.762107 -52.140379
-2.128785 -27.997006 -52.531294
-3.238913 -23.305814 -54.807972
-2.70189 -24.709715 -53.963793
-3.299831 -24.964721 -54.31756
-3.132452 -21.765641 -55.291203
-3.238913 -23.305814 -54.807972
-4.754484 -27.023001 -54.537363
-4.071744 -28.582946 -53.655091
-4.598392 -25.260285 -55.069648
-4.754484 -27.023001 -54.537363
-3.936238 -25.164721 -54.682451
-4.598392 -25.260285 -55.069648
-4.765419 -19.170626 -57.451552
-4.15109 -19.055553 -57.068998
-5.278683 -17.746492 -58.344066
-4.765419 -19.170626 -57.451552
-5.70599 -16.390554 -59.204729
-5.105557 -16.274694 -58.870458
-5.278683 -17.746492 -58.344066
-6.067338 -19.294466 -58.196773
-6.720932 -19.279556 -58.55653
-6.10495 -14.984319 -60.037918
-5.70599 -16.390554 -59.204729
-5.882605 -13.698792 -60.489103
-6.10495 -14.984319 -60.037918
3.271275 -22.420206 -47.572848
3.810983 -23.658628 -46.648775
3.476403 -23.986394 -47.123711
3.12915 -20.902867 -48.008484
3.271275 -22.420206 -47.572848
2.79457 -21.230632 -48.483419
2.991511 -19.427514 -48.421492
3.12915 -20.902867 -48.008484
2.991511 -19.427514 -48.421492
2.559737 -18.361181 -49.318016
1.357591 -14.649971 -52.136807
1.384008 -16.045749 -51.757982
1.357591 -14.649971 -52.136807
0.975691 -13.395879 -53.152715
-0.023477 -8.4369 -56.488888
0.054221 -7.110846 -56.838089
-0.400046 -8.587864 -57.039526
-0.023477 -8.4369 -56.488888
-0.087288 -9.865531 -56.048319
-5.594849 -11.273928 -61.380198
-5.499161 -9.899277 -61.915346
-5.099006 -10.831509 -61.231746
-5.594849 -11.273928 -61.380198
-5.71352 -12.342495 -60.971842
3 138 37 139
3 140 39 141
3 142 141 37
3 140 141 142
3 0 143 144
3 0 145 147
3 145 40 146
3 145 146 147
3 1 43 41
3 1 45 43
3 2 148 149
3 2 150 151
3 2 152 154
3 152 46 153
3 152 153 154
3 155 49 156
3 4 52 50
3 4 54 52
3 5 157 159
3 157 56 158
3 157 158 159
3 5 58 56
3 5 60 58
3 6 63 61
3 6 65 63
3 160 66 161
3 163 162 66
3 3 68 67
3 7 71 69
3 7 73 71
3 7 75 73
3 164 78 165
3 166 165 76
3 164 165 166
3 167 80 168
3 169 168 78
3 167 168 169
3 170 82 171
3 172 83 173
3 174 173 82
3 172 173 174
3 10 84 36
3 10 85 84
3 10 87 85
3 12 88 38
3 12 89 88
3 13 92 90
3 15 93 42
3 15 94 93
3 15 96 94
3 17 97 44
3 17 98 97
3 18 175 177
3 175 99 176
3 175 176 177
3 18 100 99
3 178 101 179
3 180 179 81
3 178 179 180
3 19 102 47
3 19 103 102
3 19 104 103
3 20 105 48
3 20 106 105
3 21 181 182
3 21 183 185
3 183 184 185
3 8 186 188
3 186 107 187
3 186 187 188
3 22 108 51
3 22 189 191
3 191 190 108
3 189 190 191
3 22 192 194
3 192 109 193
3 192 193 194
3 23 110 53
3 23 111 110
3 9 195 196
3 24 112 55
3 24 113 112
3 24 114 113
3 25 115 57
3 25 116 115
3 25 117 116
3 26 118 59
3 26 119 118
3 11 120 86
3 27 121 62
3 27 197 199
3 199 198 121
3 197 198 199
3 27 200 202
3 200 122 201
3 200 201 202
3 28 203 205
3 205 204 64
3 203 204 205
3 28 206 207
3 208 123 209
3 210 124 211
3 212 211 123
3 210 211 212
3 29 213 215
3 213 125 214
3 213 214 215
3 29 126 125
3 29 216 218
3 218 217 126
3 216 217 218
3 30 219 221
3 219 127 220
3 219 220 221
3 30 222 224
3 224 223 127
3 222 223 224
3 31 225 226
3 31 227 228
3 31 229 230
3 14 128 91
3 231 129 232
3 233 232 70
3 231 232 233
3 235 234 129
3 33 236 238
3 238 237 72
3 236 237 238
3 33 239 240
3 33 241 243
3 241 130 242
3 241 242 243
3 34 131 74
3 34 132 131
3 16 133 95
3 35 134 77
3 35 135 134
3 35 136 135
3 32 137 79
3 32 244 246
3 246 245 137
3 244 245 246
3 247 36 248
3 37 249 251
3 249 36 250
3 249 250 251
3 37 10 36
3 37 38 10
3 39 38 37
3 39 12 38
3 40 252 253
3 40 254 255
3 41 42 13
3 43 42 41
3 43 15 42
3 43 44 15
3 45 44 43
3 45 17 44
3 46 256 257
3 46 258 260
3 258 18 259
3 258 259 260
3 261 47 262
3 263 47 264
3 265 19 266
3 267 266 47
3 265 266 267
3 268 48 269
3 270 269 19
3 268 269 270
3 271 48 272
3 273 20 274
3 275 274 48
3 273 274 275
3 49 276 277
3 49 278 280
3 278 21 279
3 278 279 280
3 50 51 8
3 52 51 50
3 52 22 51
3 52 53 22
3 54 53 52
3 54 23 53
3 281 55 282
3 283 282 9
3 281 282 283
3 56 284 286
3 284 55 285
3 284 285 286
3 56 24 55
3 56 57 24
3 58 57 56
3 58 25 57
3 58 59 25
3 60 59 58
3 60 26 59
3 61 62 11
3 63 62 61
3 63 27 62
3 63 64 27
3 65 64 63
3 65 28 64
3 66 287 288
3 66 289 291
3 289 29 290
3 289 290 291
3 66 292 294
3 294 293 29
3 292 293 294
3 296 295 66
3 297 30 298
3 299 31 300
3 302 301 31
3 67 303 304
3 68 305 307
3 307 306 67
3 305 306 307
3 68 308 309
3 69 70 14
3 71 70 69
3 71 310 312
3 312 311 70
3 310 311 312
3 71 313 315
3 313 72 314
3 313 314 315
3 73 72 71
3 73 33 72
3 73 74 33
3 75 74 73
3 75 34 74
3 76 77 16
3 78 77 76
3 78 35 77
3 78 79 35
3 80 79 78
3 80 32 79
3 316 2 317
3 318 81 319
3 320 319 2
3 318 319 320
3 321 81 322
3 324 323 81
3 325 8 326
3 82 327 328
3 82 329 331
3 329 8 330
3 329 330 331
3 82 50 8
3 83 50 82
3 83 4 50
3 332 9 333
3 36 334 335
3 84 336 338
3 338 337 36
3 336 337 338
3 84 339 341
3 339 9 340
3 339 340 341
3 84 342 344
3 344 343 9
3 342 343 344
3 85 345 347
3 347 346 84
3 345 346 347
3 85 348 350
3 348 5 349
3 348 349 350
3 85 86 5
3 87 86 85
3 87 11 86
3 38 87 10
3 88 87 38
3 88 11 87
3 88 61 11
3 89 61 88
3 89 6 61
3 90 91 3
3 92 91 90
3 92 14 91
3 42 92 13
3 93 92 42
3 93 14 92
3 93 69 14
3 94 69 93
3 94 7 69
3 94 95 7
3 96 95 94
3 96 16 95
3 44 96 15
3 97 96 44
3 97 16 96
3 97 76 16
3 98 76 97
3 98 351 353
3 353 352 76
3 351 352 353
3 354 0 355
3 99 356 357
3 99 358 359
3 99 360 362
3 360 67 361
3 360 361 362
3 100 67 99
3 100 3 67
3 81 46 2
3 101 46 81
3 101 18 46
3 47 363 365
3 363 101 364
3 363 364 365
3 102 101 47
3 102 18 101
3 102 100 18
3 103 100 102
3 103 3 100
3 103 90 3
3 104 90 103
3 104 13 90
3 48 104 19
3 105 104 48
3 105 13 104
3 105 41 13
3 106 41 105
3 106 1 41
3 366 49 367
3 107 368 370
3 368 49 369
3 368 369 370
3 107 21 49
3 51 107 8
3 108 107 51
3 108 21 107
3 108 371 373
3 373 372 21
3 371 372 373
3 375 374 108
3 109 376 377
3 109 378 379
3 53 109 22
3 110 109 53
3 110 380 382
3 382 381 109
3 380 381 382
3 110 383 385
3 383 384 385
3 111 386 388
3 388 387 110
3 386 387 388
3 111 389 391
3 389 0 390
3 389 390 391
3 392 83 393
3 394 83 395
3 396 4 397
3 398 397 83
3 396 397 398
3 55 399 401
3 401 400 9
3 399 400 401
3 112 402 404
3 404 403 55
3 402 403 404
3 112 405 406
3 112 407 408
3 113 409 411
3 411 410 112
3 409 410 411
3 113 412 414
3 412 4 413
3 412 413 414
3 113 54 4
3 114 54 113
3 114 23 54
3 57 114 24
3 115 114 57
3 115 23 114
3 115 111 23
3 116 111 115
3 116 0 111
3 116 40 0
3 117 40 116
3 117 415 417
3 417 416 40
3 415 416 417
3 59 117 25
3 118 117 59
3 118 418 420
3 420 419 117
3 418 419 420
3 118 421 422
3 119 423 425
3 425 424 118
3 423 424 425
3 119 426 427
3 86 60 5
3 120 60 86
3 120 26 60
3 62 120 11
3 121 120 62
3 121 26 120
3 121 119 26
3 428 119 429
3 430 429 121
3 428 429 430
3 432 431 119
3 122 433 434
3 122 435 436
3 64 122 27
3 437 122 438
3 439 438 64
3 437 438 439
3 441 440 122
3 442 20 443
3 123 444 446
3 444 445 446
3 123 447 449
3 447 20 448
3 447 448 449
3 123 106 20
3 124 106 123
3 124 1 106
3 125 450 451
3 125 452 453
3 125 454 456
3 454 124 455
3 454 455 456
3 126 124 125
3 126 1 124
3 126 45 1
3 457 45 458
3 459 458 126
3 457 458 459
3 460 17 461
3 462 461 45
3 460 461 462
3 464 463 29
3 127 465 466
3 127 467 469
3 467 17 468
3 467 468 469
3 127 98 17
3 470 98 471
3 472 471 127
3 470 471 472
3 474 473 98
3 475 30 476
3 477 30 478
3 480 479 30
3 481 80 482
3 483 80 484
3 485 32 486
3 487 486 80
3 485 486 487
3 489 488 31
3 490 32 491
3 493 492 32
3 91 68 3
3 128 68 91
3 128 494 496
3 496 495 68
3 494 495 496
3 70 128 14
3 129 128 70
3 129 497 499
3 499 498 128
3 497 498 499
3 129 500 501
3 503 502 129
3 72 504 505
3 507 506 72
3 508 39 509
3 130 510 512
3 510 39 511
3 510 511 512
3 130 12 39
3 74 130 33
3 131 130 74
3 131 12 130
3 131 89 12
3 132 89 131
3 132 6 89
3 95 75 7
3 133 75 95
3 133 34 75
3 77 133 16
3 134 133 77
3 134 34 133
3 134 132 34
3 135 132 134
3 135 6 132
3 135 65 6
3 136 65 135
3 136 28 65
3 79 136 35
3 137 136 79
3 137 28 136
3 137 513 515
3 515 514 28
3 513 514 515
3 517 516 137
