ply
format ascii 1.0
element vertex 803
property float x
property float y
property float z
element face 861
property list uchar int vertex_index
end_header
16.432404 -64.17524 54.93803
11.678028 -75.885155 35.820042
4.670106 -58.680721 49.567585
-1.112371 -39.546459 57.26535
18.380379 -75.978767 39.37735
14.339238 -69.500122 46.93486
5.400711 -43.54546 62.578861
3.291438 -33.605999 64.46637
-0.944098 -54.960773 45.379211
22.234663 -80.497627 31.315216
14.69006 -56.870785 60.655956
10.890731 -62.018345 53.351788
7.936269 -53.129108 58.811436
1.63749 -49.222057 54.285027
-3.992875 -45.195202 48.778034
8.055037 -67.669212 43.143166
15.568207 -66.695 51.522911
18.413855 -62.53651 56.683956
-3.625432 -53.200935 43.278324
23.304192 -76.120277 36.762051
14.918705 -76.318474 37.641666
17.161051 -79.616432 33.89843
13.787008 -79.894897 31.921806
13.569278 -52.253834 63.359028
11.325616 -55.194225 60.070999
10.115498 -50.51738 62.524101
1.97026 -41.435383 60.071304
3.196808 -46.210274 58.6404
0.194792 -44.394115 55.920452
-1.258675 -47.142841 51.611137
-2.757479 -42.355247 52.930183
-8.012403 -38.671959 47.052971
7.756983 -60.571022 51.49498
9.367559 -64.854622 48.350254
6.32924 -63.176182 46.669785
16.365402 -72.94574 43.211971
13.018601 -72.568825 41.593388
8.823862 -45.507172 64.422073
7.830026 -40.434162 65.875008
4.380248 -38.507881 63.845657
0.887597 -36.540356 61.186855
1.742105 -56.81662 47.408707
26.784288 -77.556808 22.937258
25.959841 -77.775291 27.685669
23.997551 -81.664444 27.09391
21.369745 -84.526756 26.041298
20.451853 -78.329552 35.679592
19.365253 -82.404976 29.99732
15.808282 -61.018963 57.704586
13.999671 -63.363956 54.51091
12.607941 -59.595135 57.257446
9.450603 -57.788517 56.233891
6.109036 -55.930386 54.278427
6.588973 -48.453671 60.881695
4.639749 -51.139187 56.734016
3.098417 -54.001369 52.121067
0.125352 -51.937462 49.657303
-2.530595 -50.206627 47.119007
-4.133321 -37.649883 54.101578
-5.382715 -40.463757 50.060577
-6.480825 -43.553112 46.042763
17.933725 -58.641098 59.942913
12.589016 -66.023926 50.214123
11.08876 -68.795135 45.039532
9.842236 -71.69191 39.76606
5.085143 -66.146446 41.46019
6.773019 -70.696617 37.716133
8.52766 -75.002335 34.021393
17.264593 -65.134422 54.037521
16.047138 -65.34108 53.452461
17.324144 -63.55529 55.722572
-4.090697 -55.110725 41.373875
-5.489491 -54.239494 40.50069
13.341187 -76.092697 36.894279
14.317424 -78.078178 34.784927
12.72064 -77.894867 33.921165
12.068871 -79.752792 30.897408
11.107236 -77.680634 32.892879
13.014209 -49.771549 64.578651
11.881118 -51.488346 63.020416
11.154855 -48.973431 64.101776
0.459006 -40.514225 58.754276
1.003449 -42.938072 58.005428
-0.481119 -41.971989 56.615173
-1.318513 -43.380169 54.415657
-1.96563 -41.018845 55.104843
6.249022 -59.585224 50.688816
7.020667 -61.802212 49.184559
5.474431 -60.95731 48.140423
16.92461 -71.166138 45.949745
15.250311 -71.227173 45.09457
14.740462 -72.998413 42.264549
13.71288 -71.06459 44.274975
5.238328 -34.498486 65.785706
5.663373 -37.05777 65.39817
3.888308 -36.074852 64.246826
2.648253 -37.634529 62.557041
2.140936 -35.298855 62.917759
0.332965 -55.727257 46.466721
23.622629 -78.937874 31.950346
24.382702 -79.352196 29.897579
23.193382 -81.093323 29.289858
22.788746 -83.359085 26.416742
21.925486 -82.474388 28.64262
20.007986 -75.383087 40.143154
21.050337 -76.41555 38.251579
19.411304 -77.254799 37.500988
16.502794 -81.543114 30.968794
18.221245 -81.100464 31.941833
17.654964 -83.131836 28.973831
18.871313 -84.427826 27.135191
15.191581 -59.05788 59.138313
14.2494 -60.401413 57.55938
13.651821 -58.328087 59.024517
9.61756 -54.240788 59.47921
10.261029 -56.52042 58.141308
8.594851 -55.561333 57.419716
7.733644 -56.962761 55.202408
7.04935 -54.631176 56.600178
7.033007 -44.498394 63.545383
7.602786 -46.962971 62.711555
5.937502 -46.05513 61.729847
2.37036 -47.713863 56.502949
3.870318 -48.629726 57.742992
3.101084 -50.193905 55.519745
3.814339 -52.649036 54.36977
2.332708 -51.599873 53.243702
1.615778 -52.943901 50.96701
0.787399 -50.561691 51.8871
-2.650074 -46.300419 50.074501
-1.97675 -48.609913 49.277069
-3.227896 -47.811939 47.960419
-4.504191 -46.76881 46.784359
-5.575849 -36.784996 52.439472
-4.816068 -39.087818 52.009747
-6.195719 -38.108028 50.465336
-8.461299 -40.24622 45.248264
-7.18713 -41.17247 46.593422
-7.745382 -42.760769 44.671131
15.891892 -55.509354 61.975769
17.487728 -56.498398 61.49004
16.266991 -57.788757 60.432243
16.794348 -59.87973 58.900528
12.518379 -62.868801 53.909702
13.263254 -64.692093 52.444378
11.656575 -64.066681 51.764019
8.645674 -66.158691 45.828033
10.281526 -66.836487 46.824024
9.557757 -68.330299 44.011551
10.402909 -70.244057 42.33353
8.865372 -69.725021 41.353081
6.054552 -72.096024 35.174061
7.600712 -72.810463 35.902248
26.155169 -79.989098 22.830153
16.508627 -68.136482 50.012142
15.032201 -68.12838 49.296638
19.560932 -61.464592 57.424484
20.854696 -62.185196 56.274212
-2.279285 -54.169495 44.255051
-1.50993 -56.536327 43.264156
24.102518 -76.695366 34.647915
22.777054 -78.32428 34.038589
16.623911 -76.289703 38.514732
17.624338 -77.770927 36.66296
15.998035 -78.027756 35.760777
15.524218 -79.856697 32.955212
14.875317 -81.745445 30.000572
14.110575 -54.536942 62.097202
13.075321 -56.085518 60.495441
12.406111 -53.759129 61.815922
10.680036 -52.881096 61.336876
8.993317 -51.901966 60.715485
3.723953 -42.488808 61.451958
4.26261 -44.901299 60.695873
2.547905 -43.772907 59.421444
1.647028 -45.273315 57.306168
0.90385 -46.864883 55.109165
0.164634 -48.171822 52.973343
-0.550291 -45.646183 53.891907
-1.976454 -44.859509 52.281849
-3.301829 -43.831146 50.941986
-9.702264 -39.535034 43.884369
9.293464 -61.419674 52.339397
10.12611 -63.479935 50.888546
8.551419 -62.700169 50.018517
7.75123 -63.836823 47.671803
7.156419 -65.432716 44.935837
19.025797 -74.057648 42.17675
17.364433 -74.536026 41.278133
15.643588 -74.705345 40.351604
13.927128 -74.4627 39.624069
12.353611 -74.160782 38.796143
12.067972 -44.955959 66.53109
10.685493 -46.332832 65.208481
10.184985 -44.042004 65.961716
8.358665 -42.969143 65.252151
6.556659 -41.971012 64.319305
7.503707 -38.003773 66.453568
6.11147 -39.445011 64.954758
4.792028 -40.978668 63.219917
3.105136 -39.948853 62.037819
1.451599 -38.939381 60.741089
-0.175736 -38.0494 59.287785
3.18239 -57.685677 48.557384
3.956151 -59.93346 47.234764
26.457298 -77.631538 25.329838
25.709627 -79.851471 25.177261
25.047709 -79.884171 27.388542
22.436079 -85.32003 23.907949
22.469343 -75.261581 38.976089
21.937334 -77.447205 36.16058
21.314936 -79.518303 33.498306
18.804428 -79.036453 34.941174
19.790344 -80.33165 32.937149
20.821154 -81.620491 30.664577
20.41423 -83.57946 27.973032
16.115211 -62.805408 56.189976
15.380139 -63.893032 54.7812
14.845807 -62.223171 56.192638
13.309369 -61.588451 55.857857
11.784833 -60.859032 55.394093
12.01999 -57.417652 58.75827
11.031136 -58.772213 56.772446
10.07387 -59.977947 54.697021
8.48388 -59.154308 53.855518
6.888089 -58.23254 52.933582
5.359908 -57.2393 52.008415
9.419018 -48.006496 63.530037
8.304234 -49.468136 61.788742
7.249779 -50.742352 59.950504
4.869884 -47.260258 59.878597
5.486351 -49.656712 58.884491
6.324593 -52.149757 57.898441
5.374015 -53.529408 55.601074
4.50279 -54.914963 53.184757
3.876505 -56.354721 50.897739
2.391811 -55.327087 49.8186
1.022139 -54.418518 48.699615
-0.368419 -53.430664 47.570625
-0.587072 -49.443096 50.750362
-1.19268 -50.926388 48.543446
-1.683976 -52.503578 46.462429
-4.349702 -50.889572 44.018196
1.451851 -32.892982 63.053734
-1.783721 -37.222965 57.701862
-2.647614 -38.659718 55.660984
-3.381091 -39.915966 53.706497
-4.088665 -41.331226 51.544388
-4.644349 -42.84853 49.495579
-6.70557 -39.624416 48.493446
-5.937184 -41.96339 48.03759
-5.256651 -44.388229 47.363216
19.060244 -57.195728 60.870457
19.409729 -59.276123 59.261234
18.171904 -60.679729 58.321301
17.11524 -61.874371 57.26236
14.734464 -65.157585 52.960621
14.129432 -66.584511 50.753635
13.439178 -67.919281 48.436275
11.020004 -65.436592 49.43721
11.862854 -67.322723 47.822891
12.652705 -69.209808 45.982849
12.085433 -70.710449 43.371273
11.368999 -72.230507 40.577988
10.763442 -73.831932 37.784592
4.778052 -62.343323 45.623634
5.631723 -64.57196 44.077896
6.485581 -66.804276 42.358986
5.88597 -68.384827 39.638493
7.309548 -68.989166 40.53371
8.262441 -71.149246 38.782673
9.144264 -73.275574 36.910271
10.078845 -75.419998 34.984585
-5.827518 -52.978932 40.902069
-5.175277 -53.469143 41.323646
11.816755 -48.200737 64.838345
12.084532 -49.37249 64.340214
12.746432 -48.599796 65.076782
12.746432 -48.599796 65.076782
13.683466 -49.081114 65.173454
14.794774 -70.363647 46.014715
15.609419 -70.432678 46.404573
15.153882 -69.569153 47.324719
-0.578908 -56.20785 44.742647
0.059624 -56.591092 45.286402
-0.305566 -55.344015 45.922966
16.818252 -83.334488 28.478599
17.078879 -82.337475 29.971312
16.242167 -82.540127 29.47608
17.379534 -84.13932 27.499214
16.818252 -83.334488 28.478599
-6.266742 -36.335524 51.646586
-5.938185 -35.656894 52.65371
-6.576678 -36.997039 50.659517
-5.885784 -37.446512 51.452404
-6.266742 -36.335524 51.646586
-8.356968 -42.322916 44.073582
-8.10334 -41.503495 44.959698
-8.714927 -41.065641 44.362148
-8.008347 -43.592797 43.800097
-8.356968 -42.322916 44.073582
5.770688 -72.997017 33.789142
5.32712 -71.809216 34.781267
6.503349 -73.226566 34.222773
5.770688 -72.997017 33.789142
26.055822 -81.037353 21.597618
25.790467 -81.010166 22.80086
16.038417 -67.415741 50.767527
16.723584 -67.379791 51.083061
16.253373 -66.65905 51.838445
19.025542 -63.03742 56.084187
19.59908 -62.501461 56.454451
18.987394 -62.000551 57.05422
-3.23448 -54.495041 42.7731
-2.561406 -54.979321 43.261464
-2.952358 -53.685215 43.766688
-3.746511 -56.328028 40.855372
-4.40983 -55.956873 40.483637
23.703355 -76.407822 35.704983
24.36132 -75.609154 35.861807
23.962156 -75.321609 36.918875
13.479427 -80.768929 30.527513
14.023582 -81.694203 29.566896
14.331163 -80.820171 30.961189
11.756542 -80.707923 29.378746
11.29744 -79.619331 30.448132
-10.148007 -38.277233 44.058424
-9.485698 -38.741827 44.731785
-10.355809 -39.078619 43.27199
-10.148007 -38.277233 44.058424
14.483861 -52.759563 63.337225
14.194104 -51.608234 63.942694
13.839927 -53.395388 62.728115
14.754509 -53.901117 62.706312
14.483861 -52.759563 63.337225
19.277818 -73.106842 43.507272
19.832807 -73.722324 42.502802
17.154935 -72.780735 43.684579
17.434539 -71.890934 45.053466
16.645006 -72.055939 44.580858
16.864917 -73.740883 42.245052
17.65445 -73.575878 42.71766
17.154935 -72.780735 43.684579
21.480853 -62.541788 55.538502
20.867061 -63.204365 55.279692
10.896722 -43.296795 66.622631
11.126478 -44.498981 66.246403
11.838216 -43.753772 66.907318
8.094345 -41.701653 65.56358
9.024424 -42.227629 65.965874
8.760105 -40.960138 66.277302
7.269177 -36.7925 66.625882
8.212873 -37.252322 67.104394
11.838216 -43.753772 66.907318
12.835745 -44.191753 67.130139
2.110747 -57.918279 46.798887
2.83089 -58.352808 47.373226
2.462248 -57.251148 47.983046
-1.116194 -57.838909 42.594324
-1.797044 -57.352137 42.243774
26.20857 -77.703415 26.507753
26.603632 -76.51482 26.590083
26.354903 -76.586696 27.767998
24.372758 -81.843311 25.978777
24.897837 -80.953175 26.126093
24.52263 -80.774307 27.241226
23.8709 -82.723557 25.727283
24.372758 -81.843311 25.978777
21.184977 -85.570091 24.634047
21.718144 -85.966728 23.567372
21.902912 -84.923393 24.974623
22.004723 -74.822186 39.96903
22.736306 -74.166534 40.313735
19.380686 -85.032238 26.152043
18.5782 -85.47903 25.644402
-2.766173 -51.013958 46.133541
-2.342864 -52.162433 45.805252
-2.107285 -51.355103 46.790718
-4.663607 -49.729536 44.404792
-4.056646 -50.103258 45.001796
-4.973249 -50.524954 43.463026
-4.663607 -49.729536 44.404792
0.580864 -32.367583 62.395193
1.262946 -31.70443 63.239494
0.880693 -33.579512 62.262598
0.580864 -32.367583 62.395193
-2.107744 -35.954706 57.946725
-1.30497 -36.433548 58.682816
-3.705664 -36.93099 55.181044
-4.489974 -36.535013 54.294304
-3.390467 -38.154801 54.881281
-2.96281 -37.435907 55.960746
-3.705664 -36.93099 55.181044
-7.358987 -39.148187 47.773208
-7.112122 -38.428237 48.70989
-7.765538 -37.952009 47.989652
-6.131067 -44.816835 45.698771
-5.51898 -45.234394 46.358997
-5.868738 -43.97067 46.70299
4.040387 -61.82694 45.232513
4.367102 -61.138391 46.429199
3.629437 -60.622009 46.038078
5.358433 -65.359203 42.769043
4.901895 -64.167919 43.62752
4.628605 -64.955162 42.318666
6.329495 -69.540722 38.677313
5.546916 -69.098431 38.366735
5.99044 -70.254326 37.405555
8.994567 -76.113942 33.02195
9.77016 -76.322773 33.503546
9.303252 -75.211167 34.502989
26.915105 -77.35569 21.807445
27.050189 -76.243103 22.977851
17.101567 -65.878761 53.09575
17.765636 -65.69672 53.39899
16.492839 -65.98209 52.80322
17.101567 -65.878761 53.09575
16.655866 -65.237751 53.744991
15.807672 -66.01804 52.487686
16.253373 -66.65905 51.838445
16.492839 -65.98209 52.80322
17.871755 -64.003327 55.260393
18.416611 -63.493937 55.741085
17.869 -63.0459 56.203264
17.84198 -64.792892 54.417867
17.871755 -64.003327 55.260393
17.294369 -64.344856 54.880046
17.765636 -65.69672 53.39899
17.84198 -64.792892 54.417867
-4.47588 -53.904758 41.760239
-3.858064 -54.15583 42.326099
-4.243248 -52.949863 42.712463
-4.790094 -54.67511 40.937282
-4.47588 -53.904758 41.760239
-5.175277 -53.469143 41.323646
-5.109228 -55.521257 40.047044
-4.40983 -55.956873 40.483637
-4.790094 -54.67511 40.937282
23.572197 -75.016735 38.062857
23.962156 -75.321609 36.918875
10.816623 -78.583252 31.445868
11.29744 -79.619331 30.448132
11.588054 -78.716713 31.895143
13.91657 -50.367092 64.552505
13.683466 -49.081114 65.173454
13.291743 -51.012692 63.96884
14.194104 -51.608234 63.942694
13.91657 -50.367092 64.552505
16.446568 -70.402161 46.832161
17.19192 -70.35265 47.159979
16.08746 -71.196655 45.522157
16.446568 -70.402161 46.832161
15.609419 -70.432678 46.404573
8.542033 -39.704128 66.57019
8.760105 -40.960138 66.277302
5.45085 -35.778128 65.591938
6.349011 -36.319498 66.098183
6.136488 -35.039856 66.291951
0.725131 -56.978355 45.800743
1.429701 -57.523037 46.271737
1.037535 -56.271939 46.937714
0.725131 -56.978355 45.800743
0.059624 -56.591092 45.286402
26.13722 -76.652569 28.892214
26.354903 -76.586696 27.767998
24.002665 -79.145035 30.923963
24.614511 -78.236149 31.150621
24.234475 -78.028988 32.177005
20.529162 -75.899318 39.197367
21.29522 -75.39917 39.606775
20.774045 -74.882938 40.552563
17.987708 -84.787316 26.579894
18.263139 -83.779831 28.054511
17.379534 -84.13932 27.499214
18.5782 -85.47903 25.644402
17.987708 -84.787316 26.579894
-3.495742 -48.564442 46.972908
-3.147092 -49.761786 46.552202
-2.879245 -49.009283 47.539713
-4.13389 -48.042877 46.384878
-3.495742 -48.564442 46.972908
-3.866043 -47.290374 47.372389
-4.740851 -47.669155 45.787874
-4.13389 -48.042877 46.384878
-5.211238 -36.10257 53.463251
-5.938185 -35.656894 52.65371
-4.854585 -37.217439 53.270525
-4.489974 -36.535013 54.294304
-5.211238 -36.10257 53.463251
-7.341257 -44.004309 44.456991
-6.708979 -44.400481 45.142807
-7.113104 -43.156941 45.356947
-7.341257 -44.004309 44.456991
-8.008347 -43.592797 43.800097
16.68981 -56.003876 61.732905
17.284973 -55.333912 62.24441
16.487055 -54.83939 62.487274
4.358681 -65.758598 41.046488
4.628605 -64.955162 42.318666
5.631207 -70.954029 36.134519
5.32712 -71.809216 34.781267
6.413785 -71.396321 36.445097
5.99044 -70.254326 37.405555
5.631207 -70.954029 36.134519
7.276429 -73.583786 34.586866
6.827632 -72.453243 35.538155
6.503349 -73.226566 34.222773
7.739903 -74.679722 33.646439
8.064186 -73.906399 34.961821
7.276429 -73.583786 34.586866
8.158092 -75.853211 32.573801
7.739903 -74.679722 33.646439
26.363014 -79.800945 21.727601
26.677574 -78.584801 21.781153
26.469729 -78.772953 22.883705
26.363014 -79.800945 21.727601
26.055822 -81.037353 21.597618
17.261999 -68.019169 50.34057
16.723584 -67.379791 51.083061
16.983929 -68.837822 49.191177
17.261999 -68.019169 50.34057
16.238577 -68.887333 48.86336
16.983929 -68.837822 49.191177
15.500364 -68.883282 48.505607
16.238577 -68.887333 48.86336
15.770414 -68.132431 49.65439
14.68572 -68.814251 48.115749
15.153882 -69.569153 47.324719
15.500364 -68.883282 48.505607
20.207814 -61.824894 56.849348
20.793727 -61.112503 57.227682
20.146845 -60.752201 57.802818
20.245962 -62.861763 55.879314
20.207814 -61.824894 56.849348
19.59908 -62.501461 56.454451
20.867061 -63.204365 55.279692
20.245962 -62.861763 55.879314
19.025542 -63.03742 56.084187
18.416611 -63.493937 55.741085
5.977749 -33.811898 66.466106
6.136488 -35.039856 66.291951
4.980344 -33.316624 65.875725
5.977749 -33.811898 66.466106
4.006899 -32.87038 65.216057
4.264883 -34.052242 65.126038
4.980344 -33.316624 65.875725
-2.176729 -56.162737 42.766016
-1.894607 -55.352911 43.759603
-2.561406 -54.979321 43.261464
-1.797044 -57.352137 42.243774
-2.176729 -56.162737 42.766016
-3.467112 -55.449936 41.820875
-3.23448 -54.495041 42.7731
-3.858064 -54.15583 42.326099
-3.467112 -55.449936 41.820875
-3.746511 -56.328028 40.855372
24.692915 -75.830349 34.722214
24.36132 -75.609154 35.861807
24.474419 -76.907734 33.52579
24.692915 -75.830349 34.722214
23.862573 -77.81662 33.29913
24.234475 -78.028988 32.177005
24.474419 -76.907734 33.52579
15.428429 -82.641292 28.991969
16.242167 -82.540127 29.47608
15.689056 -81.64428 30.484683
14.550711 -82.682202 28.537009
15.428429 -82.641292 28.991969
14.550711 -82.682202 28.537009
14.023582 -81.694203 29.566896
12.620359 -80.697876 30.015314
13.479427 -80.768929 30.527513
12.92794 -79.823845 31.409607
12.620359 -80.697876 30.015314
11.756542 -80.707923 29.378746
-8.41346 -37.578062 47.205591
-7.765538 -37.952009 47.989652
-8.640768 -38.310289 46.316086
-8.41346 -37.578062 47.205591
-8.865216 -39.09742 45.413732
-8.236851 -39.45909 46.150617
-8.640768 -38.310289 46.316086
-9.081781 -39.890627 44.566316
-8.865216 -39.09742 45.413732
-9.485698 -38.741827 44.731785
-9.335409 -40.710048 43.6802
-8.714927 -41.065641 44.362148
-9.081781 -39.890627 44.566316
-9.982702 -40.317623 43.052805
-9.335409 -40.710048 43.6802
-9.982702 -40.317623 43.052805
-10.355809 -39.078619 43.27199
15.645167 -54.387324 62.645595
16.487055 -54.83939 62.487274
15.001234 -55.023148 62.036485
15.645167 -54.387324 62.645595
14.754509 -53.901117 62.706312
20.323901 -74.385044 41.486004
20.774045 -74.882938 40.552563
19.516891 -74.720368 41.159952
20.323901 -74.385044 41.486004
19.832807 -73.722324 42.502802
17.751376 -70.960647 46.39148
17.19192 -70.35265 47.159979
17.751376 -70.960647 46.39148
17.434539 -71.890934 45.053466
18.485132 -73.336689 43.166969
19.277818 -73.106842 43.507272
18.195115 -74.296837 41.727441
18.485132 -73.336689 43.166969
17.65445 -73.575878 42.71766
21.463422 -61.476315 56.517153
20.793727 -61.112503 57.227682
21.463422 -61.476315 56.517153
21.480853 -62.541788 55.538502
11.376732 -45.644396 65.869786
11.582074 -46.880437 65.391697
12.273314 -46.192001 66.053001
9.937584 -42.76406 66.320656
10.896722 -43.296795 66.622631
9.271825 -43.505573 65.606933
9.937584 -42.76406 66.320656
9.024424 -42.227629 65.965874
8.378874 -38.488934 66.859471
8.212873 -37.252322 67.104394
7.666867 -39.218968 66.164288
8.542033 -39.704128 66.57019
8.378874 -38.488934 66.859471
6.58354 -37.530772 65.925869
7.269177 -36.7925 66.625882
6.349011 -36.319498 66.098183
12.977321 -45.382738 66.68723
12.835745 -44.191753 67.130139
12.273314 -46.192001 66.053001
12.977321 -45.382738 66.68723
3.217771 -59.476699 46.711916
3.569271 -58.809568 47.896074
2.83089 -58.352808 47.373226
3.629437 -60.622009 46.038078
3.217771 -59.476699 46.711916
2.110747 -57.918279 46.798887
1.429701 -57.523037 46.271737
-0.861824 -56.995627 43.685119
-0.578908 -56.20785 44.742647
-1.227014 -55.74855 44.321683
-0.861824 -56.995627 43.685119
-1.116194 -57.838909 42.594324
26.935998 -76.406349 24.117301
27.050189 -76.243103 22.977851
26.772503 -76.443714 25.313591
26.603632 -76.51482 26.590083
26.620793 -77.594173 24.133548
26.935998 -76.406349 24.117301
26.772503 -76.443714 25.313591
25.567695 -80.941353 23.974414
25.790467 -81.010166 22.80086
25.932398 -79.920285 24.003707
25.694776 -77.694996 28.817742
26.13722 -76.652569 28.892214
24.906207 -78.483448 29.923696
24.614511 -78.236149 31.150621
25.23871 -78.749436 28.669178
24.906207 -78.483448 29.923696
24.715205 -79.618184 28.643061
25.503775 -78.829731 27.537106
25.694776 -77.694996 28.817742
25.23871 -78.749436 28.669178
25.228796 -80.936825 25.020453
25.378668 -79.867821 26.282902
24.897837 -80.953175 26.126093
25.567695 -80.941353 23.974414
25.228796 -80.936825 25.020453
23.266497 -83.570877 25.3887
23.8709 -82.723557 25.727283
23.393149 -82.511764 26.755326
23.090164 -84.55135 24.134303
23.266497 -83.570877 25.3887
22.612412 -84.339557 25.162346
22.938761 -85.575352 22.855106
23.090164 -84.55135 24.134303
22.287128 -86.373074 22.516854
22.938761 -85.575352 22.855106
22.287128 -86.373074 22.516854
21.718144 -85.966728 23.567372
23.154772 -74.587387 39.169876
22.736306 -74.166534 40.313735
22.886767 -75.690929 37.86907
23.572197 -75.016735 38.062857
23.154772 -74.587387 39.169876
21.75984 -75.838566 38.613834
22.004723 -74.822186 39.96903
21.29522 -75.39917 39.606775
20.152144 -84.608055 26.570963
19.642772 -84.003643 27.554111
19.380686 -85.032238 26.152043
20.629902 -85.081703 25.605096
20.891987 -84.053108 27.007165
20.152144 -84.608055 26.570963
21.184977 -85.570091 24.634047
20.629902 -85.081703 25.605096
10.920174 -47.653132 64.655129
11.816755 -48.200737 64.838345
11.582074 -46.880437 65.391697
-2.640518 -52.995392 44.701563
-1.98163 -53.336536 45.35874
-2.342864 -52.162433 45.805252
-3.313592 -52.511112 44.2132
-2.952358 -53.685215 43.766688
-2.640518 -52.995392 44.701563
-2.766173 -51.013958 46.133541
-3.147092 -49.761786 46.552202
-3.675727 -51.35543 44.583135
-4.056646 -50.103258 45.001796
-3.987567 -52.045254 43.64826
-3.313592 -52.511112 44.2132
-3.675727 -51.35543 44.583135
-4.605383 -51.794182 43.0824
-4.243248 -52.949863 42.712463
-3.987567 -52.045254 43.64826
-4.605383 -51.794182 43.0824
-4.973249 -50.524954 43.463026
3.04128 -32.494847 64.555344
4.006899 -32.87038 65.216057
2.121487 -32.138339 63.849026
1.262946 -31.70443 63.239494
2.371644 -33.249491 63.760052
3.04128 -32.494847 64.555344
2.121487 -32.138339 63.849026
1.225235 -34.782448 62.19461
1.796393 -34.095919 62.985746
0.880693 -33.579512 62.262598
0.598566 -35.403199 61.329159
1.514266 -35.919606 62.052307
1.225235 -34.782448 62.19461
0.030689 -36.092244 60.425312
0.598566 -35.403199 61.329159
-0.500978 -36.846766 59.475777
0.35593 -37.294878 60.23732
0.030689 -36.092244 60.425312
-0.979729 -37.636183 58.494823
-0.500978 -36.846766 59.475777
-1.30497 -36.433548 58.682816
-2.530864 -36.717531 56.981185
-2.107744 -35.954706 57.946725
-2.215667 -37.941342 56.681423
-2.530864 -36.717531 56.981185
-2.96281 -37.435907 55.960746
-6.857197 -37.670043 49.695835
-6.576678 -36.997039 50.659517
-6.450645 -38.866222 49.479391
-6.857197 -37.670043 49.695835
-7.112122 -38.428237 48.70989
-5.142749 -46.424684 46.069569
-4.880421 -45.578519 47.073788
-5.51898 -45.234394 46.358997
-4.740851 -47.669155 45.787874
-5.142749 -46.424684 46.069569
-6.131067 -44.816835 45.698771
-6.708979 -44.400481 45.142807
18.065526 -55.733173 61.958759
17.284973 -55.333912 62.24441
18.851784 -56.081839 61.648968
18.065526 -55.733173 61.958759
18.273986 -56.847063 61.180249
19.653115 -56.419092 61.227018
18.851784 -56.081839 61.648968
19.840177 -57.471424 60.429896
19.653115 -56.419092 61.227018
20.014919 -58.511622 59.625284
19.840177 -57.471424 60.429896
19.234986 -58.235926 60.065846
20.071244 -59.657967 58.721193
20.014919 -58.511622 59.625284
19.48533 -60.370357 58.342859
20.146845 -60.752201 57.802818
20.071244 -59.657967 58.721193
4.47506 -63.053601 44.400389
4.040387 -61.82694 45.232513
5.204887 -63.457642 44.850765
4.47506 -63.053601 44.400389
4.901895 -64.167919 43.62752
4.773221 -66.84977 40.236494
4.358681 -65.758598 41.046488
5.173635 -67.96896 39.325645
5.546916 -69.098431 38.366735
5.485557 -67.265636 40.549341
4.773221 -66.84977 40.236494
5.173635 -67.96896 39.325645
10.284356 -77.453091 32.457693
10.593041 -76.550316 33.938732
9.77016 -76.322773 33.503546
10.816623 -78.583252 31.445868
10.284356 -77.453091 32.457693
8.994567 -76.113942 33.02195
8.158092 -75.853211 32.573801
-6.13243 -53.907377 40.082222
-5.827518 -52.978932 40.902069
-5.762323 -55.201813 39.67963
-6.13243 -53.907377 40.082222
-5.109228 -55.521257 40.047044
-5.762323 -55.201813 39.67963
26.915105 -77.35569 21.807445
26.677574 -78.584801 21.781153
3 0 69 68
3 0 68 70
3 273 72 274
3 1 75 73
3 1 77 75
3 275 80 276
3 277 276 78
3 275 276 277
3 3 83 81
3 3 85 83
3 278 78 279
3 2 88 86
3 5 280 282
3 280 90 281
3 280 281 282
3 5 92 90
3 7 95 93
3 7 97 95
3 8 283 285
3 285 284 98
3 283 284 285
3 9 101 99
3 9 103 101
3 4 106 104
3 286 109 287
3 288 287 107
3 286 287 288
3 290 289 109
3 10 113 111
3 12 116 114
3 12 118 116
3 6 121 119
3 13 124 122
3 13 126 124
3 13 128 126
3 14 131 129
3 14 132 131
3 291 133 292
3 293 135 294
3 295 294 133
3 293 294 295
3 296 138 297
3 298 297 136
3 296 297 298
3 300 299 138
3 10 141 139
3 10 111 141
3 11 145 143
3 15 148 146
3 15 150 148
3 301 151 302
3 304 303 151
3 306 305 153
3 16 307 309
3 307 154 308
3 307 308 309
3 16 155 154
3 17 310 312
3 312 311 156
3 310 311 312
3 18 313 315
3 315 314 158
3 313 314 315
3 317 316 71
3 19 318 320
3 318 160 319
3 318 319 320
3 19 161 160
3 20 164 162
3 22 165 74
3 22 166 165
3 22 321 323
3 323 322 166
3 321 322 323
3 325 324 76
3 23 169 167
3 25 170 79
3 25 171 170
3 26 174 172
3 28 175 82
3 28 176 175
3 28 178 176
3 30 179 84
3 30 180 179
3 326 181 327
3 329 328 181
3 23 330 331
3 23 332 334
3 332 167 333
3 332 333 334
3 32 184 182
3 34 185 87
3 34 186 185
3 335 187 336
3 35 337 339
3 339 338 89
3 337 338 339
3 35 340 342
3 340 188 341
3 340 341 342
3 35 189 188
3 36 190 91
3 36 191 190
3 344 343 157
3 345 194 346
3 347 346 192
3 345 346 347
3 38 348 350
3 348 195 349
3 348 349 350
3 38 196 195
3 351 197 352
3 39 198 94
3 39 199 198
3 39 200 199
3 40 201 96
3 40 202 201
3 353 192 354
3 41 355 357
3 357 356 203
3 355 356 357
3 359 358 159
3 43 360 362
3 360 205 361
3 360 361 362
3 43 206 205
3 44 207 100
3 44 363 365
3 365 364 207
3 363 364 365
3 44 366 367
3 45 208 102
3 45 368 370
3 370 369 208
3 368 369 370
3 371 209 372
3 46 210 105
3 46 211 210
3 21 212 163
3 47 213 108
3 47 214 213
3 47 215 214
3 374 373 110
3 48 218 216
3 50 219 112
3 50 220 219
3 24 221 168
3 51 222 115
3 51 223 222
3 51 224 223
3 52 225 117
3 52 226 225
3 37 227 193
3 53 228 120
3 53 229 228
3 27 230 173
3 54 231 123
3 54 232 231
3 54 233 232
3 55 234 125
3 55 235 234
3 55 236 235
3 56 237 127
3 56 238 237
3 29 239 177
3 57 240 130
3 57 241 240
3 57 375 377
3 377 376 241
3 375 376 377
3 378 242 379
3 381 380 242
3 382 243 383
3 385 384 243
3 386 244 387
3 58 388 389
3 58 390 392
3 390 245 391
3 390 391 392
3 58 246 245
3 59 247 134
3 59 248 247
3 31 393 395
3 393 249 394
3 393 394 395
3 60 250 137
3 60 251 250
3 60 396 398
3 398 397 251
3 396 397 398
3 61 252 140
3 61 253 252
3 61 254 253
3 48 255 142
3 48 216 255
3 49 256 217
3 62 257 144
3 62 258 257
3 33 259 183
3 63 260 147
3 63 261 260
3 63 262 261
3 64 263 149
3 64 264 263
3 399 265 400
3 401 400 204
3 399 400 401
3 65 402 404
3 402 266 403
3 402 403 404
3 65 267 266
3 66 405 407
3 405 268 406
3 405 406 407
3 66 269 268
3 66 270 269
3 67 271 152
3 67 272 271
3 67 408 410
3 410 409 272
3 408 409 410
3 42 411 412
3 68 413 414
3 69 415 417
3 417 416 68
3 415 416 417
3 69 418 420
3 418 16 419
3 418 419 420
3 70 421 423
3 423 422 17
3 421 422 423
3 68 424 426
3 426 425 70
3 424 425 426
3 68 427 428
3 429 71 430
3 431 430 18
3 429 430 431
3 72 432 434
3 432 71 433
3 432 433 434
3 72 435 437
3 437 436 71
3 435 436 437
3 438 19 439
3 73 74 20
3 75 74 73
3 75 22 74
3 75 76 22
3 77 76 75
3 77 440 442
3 442 441 76
3 440 441 442
3 78 79 23
3 80 79 78
3 80 25 79
3 81 82 26
3 83 82 81
3 83 28 82
3 83 84 28
3 85 84 83
3 85 30 84
3 78 443 444
3 78 445 447
3 445 23 446
3 445 446 447
3 86 87 32
3 88 87 86
3 88 34 87
3 448 89 449
3 90 450 452
3 450 89 451
3 450 451 452
3 90 35 89
3 90 91 35
3 92 91 90
3 92 36 91
3 453 38 454
3 93 455 457
3 455 94 456
3 455 456 457
3 95 94 93
3 95 39 94
3 95 96 39
3 97 96 95
3 97 40 96
3 98 458 460
3 460 459 41
3 458 459 460
3 462 461 98
3 463 43 464
3 99 465 467
3 465 100 466
3 465 466 467
3 101 100 99
3 101 44 100
3 101 102 44
3 103 102 101
3 103 45 102
3 104 468 470
3 468 105 469
3 468 469 470
3 106 105 104
3 106 46 105
3 107 108 21
3 109 108 107
3 109 47 108
3 109 110 47
3 471 110 472
3 473 472 109
3 471 472 473
3 475 474 110
3 111 112 48
3 113 112 111
3 113 50 112
3 114 115 24
3 116 115 114
3 116 51 115
3 116 117 51
3 118 117 116
3 118 52 117
3 119 120 37
3 121 120 119
3 121 53 120
3 122 123 27
3 124 123 122
3 124 54 123
3 124 125 54
3 126 125 124
3 126 55 125
3 126 127 55
3 128 127 126
3 128 56 127
3 129 130 29
3 131 130 129
3 131 57 130
3 131 476 478
3 478 477 57
3 476 477 478
3 132 479 481
3 481 480 131
3 479 480 481
3 132 482 483
3 133 484 485
3 133 486 488
3 486 58 487
3 486 487 488
3 133 134 58
3 135 134 133
3 135 59 134
3 136 137 31
3 138 137 136
3 138 60 137
3 138 489 491
3 491 490 60
3 489 490 491
3 493 492 138
3 139 494 496
3 494 140 495
3 494 495 496
3 141 140 139
3 141 61 140
3 141 142 61
3 111 142 141
3 111 48 142
3 143 144 49
3 145 144 143
3 145 62 144
3 146 147 33
3 148 147 146
3 148 63 147
3 148 149 63
3 150 149 148
3 150 64 149
3 497 65 498
3 151 499 500
3 151 501 503
3 501 66 502
3 501 502 503
3 151 152 66
3 504 152 505
3 506 505 151
3 504 505 506
3 507 67 508
3 509 508 152
3 507 508 509
3 511 510 67
3 153 512 514
3 514 513 42
3 512 513 514
3 516 515 153
3 154 517 518
3 154 519 520
3 154 521 522
3 155 523 525
3 525 524 154
3 523 524 525
3 155 526 528
3 526 5 527
3 526 527 528
3 156 529 531
3 529 157 530
3 529 530 531
3 532 157 533
3 534 533 156
3 532 533 534
3 536 535 157
3 538 537 17
3 539 93 540
3 541 93 542
3 543 7 544
3 545 544 93
3 543 544 545
3 158 159 8
3 546 159 547
3 548 547 158
3 546 547 548
3 550 549 159
3 71 551 553
3 553 552 18
3 551 552 553
3 555 554 71
3 160 556 557
3 160 558 559
3 160 560 562
3 560 99 561
3 560 561 562
3 161 99 160
3 161 9 99
3 162 163 4
3 164 163 162
3 164 21 163
3 74 164 20
3 165 164 74
3 165 21 164
3 165 107 21
3 166 107 165
3 166 563 565
3 565 564 107
3 563 564 565
3 166 566 567
3 569 568 166
3 76 570 572
3 572 571 22
3 570 571 572
3 574 573 76
3 167 168 10
3 169 168 167
3 169 24 168
3 79 169 23
3 170 169 79
3 170 24 169
3 170 114 24
3 171 114 170
3 171 12 114
3 172 173 6
3 174 173 172
3 174 27 173
3 82 174 26
3 175 174 82
3 175 27 174
3 175 122 27
3 176 122 175
3 176 13 122
3 176 177 13
3 178 177 176
3 178 29 177
3 84 178 28
3 179 178 84
3 179 29 178
3 179 129 29
3 180 129 179
3 180 14 129
3 575 31 576
3 577 31 578
3 579 136 580
3 581 580 31
3 579 580 581
3 181 582 584
3 582 136 583
3 582 583 584
3 181 585 587
3 587 586 136
3 585 586 587
3 181 588 589
3 591 590 181
3 592 139 593
3 167 594 596
3 594 139 595
3 594 595 596
3 167 10 139
3 182 183 11
3 184 183 182
3 184 33 183
3 87 184 32
3 185 184 87
3 185 33 184
3 185 146 33
3 186 146 185
3 186 15 146
3 597 104 598
3 187 599 601
3 599 104 600
3 599 600 601
3 187 4 104
3 89 602 603
3 605 604 89
3 606 187 607
3 188 608 610
3 608 187 609
3 608 609 610
3 188 4 187
3 188 162 4
3 189 162 188
3 189 20 162
3 91 189 35
3 190 189 91
3 190 20 189
3 190 73 20
3 191 73 190
3 191 1 73
3 157 611 612
3 614 613 157
3 192 615 617
3 615 193 616
3 615 616 617
3 194 193 192
3 194 37 193
3 618 194 619
3 195 620 622
3 620 194 621
3 620 621 622
3 195 37 194
3 195 119 37
3 196 119 195
3 196 6 119
3 197 623 624
3 197 625 627
3 625 38 626
3 625 626 627
3 94 628 630
3 628 197 629
3 628 629 630
3 198 197 94
3 198 38 197
3 198 196 38
3 199 196 198
3 199 6 196
3 199 172 6
3 200 172 199
3 200 26 172
3 96 200 39
3 201 200 96
3 201 26 200
3 201 81 26
3 202 81 201
3 202 3 81
3 192 631 632
3 192 633 634
3 203 204 2
3 635 204 636
3 637 636 203
3 635 636 637
3 639 638 204
3 641 640 41
3 159 642 644
3 644 643 8
3 642 643 644
3 646 645 159
3 647 42 648
3 205 649 650
3 205 651 653
3 651 42 652
3 651 652 653
3 205 153 42
3 206 153 205
3 206 654 656
3 656 655 153
3 654 655 656
3 657 43 658
3 100 659 660
3 207 661 663
3 663 662 100
3 661 662 663
3 207 664 666
3 664 43 665
3 664 665 666
3 207 206 43
3 667 206 668
3 669 668 207
3 667 668 669
3 671 670 206
3 102 672 674
3 674 673 44
3 672 673 674
3 208 675 677
3 677 676 102
3 675 676 677
3 208 678 679
3 208 680 681
3 683 682 208
3 209 684 685
3 209 686 688
3 686 19 687
3 686 687 688
3 105 689 691
3 689 209 690
3 689 690 691
3 210 209 105
3 210 19 209
3 210 161 19
3 211 161 210
3 211 9 161
3 163 106 4
3 212 106 163
3 212 46 106
3 108 212 21
3 213 212 108
3 213 46 212
3 213 211 46
3 214 211 213
3 214 9 211
3 214 103 9
3 215 103 214
3 215 45 103
3 110 215 47
3 692 215 693
3 694 693 110
3 692 693 694
3 695 45 696
3 697 696 215
3 695 696 697
3 699 698 45
3 216 217 0
3 218 217 216
3 218 49 217
3 112 218 48
3 219 218 112
3 219 49 218
3 219 143 49
3 220 143 219
3 220 11 143
3 168 113 10
3 221 113 168
3 221 50 113
3 115 221 24
3 222 221 115
3 222 50 221
3 222 220 50
3 223 220 222
3 223 11 220
3 223 182 11
3 224 182 223
3 224 32 182
3 117 224 51
3 225 224 117
3 225 32 224
3 225 86 32
3 226 86 225
3 226 2 86
3 193 700 702
3 700 80 701
3 700 701 702
3 227 80 193
3 227 25 80
3 120 227 37
3 228 227 120
3 228 25 227
3 228 171 25
3 229 171 228
3 229 12 171
3 173 121 6
3 230 121 173
3 230 53 121
3 123 230 27
3 231 230 123
3 231 53 230
3 231 229 53
3 232 229 231
3 232 12 229
3 232 118 12
3 233 118 232
3 233 52 118
3 125 233 54
3 234 233 125
3 234 52 233
3 234 226 52
3 235 226 234
3 235 2 226
3 235 203 2
3 236 203 235
3 236 41 203
3 127 236 55
3 237 236 127
3 237 41 236
3 237 98 41
3 238 98 237
3 238 8 98
3 177 128 13
3 239 128 177
3 239 56 128
3 130 239 29
3 240 239 130
3 240 56 239
3 240 238 56
3 241 238 240
3 241 8 238
3 241 158 8
3 703 158 704
3 705 704 241
3 703 704 705
3 706 18 707
3 708 707 158
3 706 707 708
3 710 709 57
3 242 711 712
3 242 713 715
3 713 18 714
3 713 714 715
3 242 716 718
3 718 717 18
3 716 717 718
3 720 719 242
3 721 7 722
3 243 723 724
3 243 725 727
3 725 7 726
3 725 726 727
3 243 97 7
3 728 97 729
3 730 729 243
3 728 729 730
3 731 40 732
3 733 732 97
3 731 732 733
3 734 40 735
3 736 202 737
3 738 737 40
3 736 737 738
3 244 739 741
3 739 202 740
3 739 740 741
3 244 3 202
3 742 244 743
3 245 744 746
3 744 244 745
3 744 745 746
3 245 3 244
3 245 85 3
3 246 85 245
3 246 30 85
3 134 246 58
3 247 246 134
3 247 30 246
3 247 180 30
3 248 180 247
3 248 14 180
3 747 135 748
3 249 749 751
3 749 135 750
3 749 750 751
3 249 59 135
3 137 249 31
3 250 249 137
3 250 59 249
3 250 248 59
3 251 248 250
3 251 14 248
3 251 132 14
3 752 132 753
3 754 753 251
3 752 753 754
3 756 755 132
3 758 757 60
3 140 759 760
3 252 761 763
3 763 762 140
3 761 762 763
3 252 764 765
3 252 766 767
3 253 768 770
3 770 769 252
3 768 769 770
3 253 771 772
3 253 773 775
3 773 156 774
3 773 774 775
3 254 156 253
3 254 17 156
3 142 254 61
3 255 254 142
3 255 17 254
3 255 70 17
3 216 70 255
3 216 0 70
3 217 69 0
3 256 69 217
3 256 16 69
3 144 256 49
3 257 256 144
3 257 16 256
3 257 155 16
3 258 155 257
3 258 5 155
3 183 145 11
3 259 145 183
3 259 62 145
3 147 259 33
3 260 259 147
3 260 62 259
3 260 258 62
3 261 258 260
3 261 5 258
3 261 92 5
3 262 92 261
3 262 36 92
3 149 262 63
3 263 262 149
3 263 36 262
3 263 191 36
3 264 191 263
3 264 1 191
3 204 88 2
3 265 88 204
3 265 34 88
3 776 265 777
3 266 778 780
3 778 265 779
3 778 779 780
3 266 34 265
3 266 186 34
3 267 186 266
3 267 15 186
3 781 65 782
3 268 783 784
3 268 785 787
3 785 65 786
3 785 786 787
3 268 267 65
3 269 267 268
3 269 15 267
3 269 150 15
3 270 150 269
3 270 64 150
3 152 270 66
3 271 270 152
3 271 64 270
3 271 264 64
3 272 264 271
3 272 1 264
3 272 77 1
3 788 77 789
3 790 789 272
3 788 789 790
3 792 791 77
3 794 793 67
3 795 72 796
3 797 72 798
3 800 799 72
3 802 801 42
