ply
format ascii 1.0
element vertex 832
property float x
property float y
property float z
element face 838
property list uchar int vertex_index
end_header
-36.140617 24.743269 -2.762159
-26.590322 33.875092 -8.250269
-32.272938 -11.64097 3.306092
-33.407303 17.995834 -4.516971
-27.006483 21.00374 -7.32307
-31.960606 28.605862 -5.78777
-17.242313 30.304398 -11.91748
-26.577215 -10.427498 -1.859916
-31.323875 -18.532808 0.788782
-28.060505 -15.014726 -5.002098
-23.243307 -0.753532 -4.570301
-21.671423 11.27799 -7.197966
-21.398729 25.25255 -9.351578
-29.457264 -2.240732 -0.758959
-33.538582 32.55286 -0.541717
-35.249786 21.847075 -3.890259
-32.727123 23.309883 -5.585141
-34.346104 26.497383 -4.32702
-24.563931 -8.832864 -8.232061
-24.440945 -6.121453 -11.112356
-22.167473 -4.850245 -8.655448
-15.704782 32.956635 -13.680019
-24.386044 -8.930233 -4.160193
-26.773281 -13.144411 -3.152482
-25.355312 -11.220985 -5.651246
-27.160284 -12.492417 -7.710477
-25.102388 3.658598 -4.400133
-22.247456 5.174368 -5.956969
-24.521759 9.650179 -5.899381
-26.81629 27.396423 -8.042606
-24.088573 22.967949 -8.322462
-28.602093 2.854141 -2.622851
-26.096237 -1.675228 -2.796333
-31.543783 35.944756 -2.372104
-35.261257 -11.593972 6.446991
-32.194401 -20.815424 -1.008101
-27.317522 14.599846 -6.091542
-30.341753 19.327816 -6.079933
-29.768789 25.192122 -6.940632
-29.222195 31.045712 -7.119814
-34.050972 12.78219 -2.803934
-29.304708 -11.236243 0.609689
-31.386702 -15.47874 2.30196
-28.784342 -14.43709 -0.559285
-29.362547 -16.929815 -2.170329
-19.364504 13.386274 -8.540758
-24.169693 16.266848 -7.278676
-21.36598 18.195713 -8.392928
-19.111771 20.542603 -9.581773
-19.103659 27.632502 -10.508416
-33.943001 -7.118064 3.938694
-30.768002 -7.160968 1.305387
-27.562456 -6.753108 -1.050967
-24.647291 -5.649778 -3.235133
-35.185947 28.415365 -2.005435
-35.311867 29.162107 1.219398
-33.158684 31.258951 -3.653566
-30.840555 34.114994 -5.229895
-33.564194 -19.393545 4.071786
-35.858509 23.587074 -3.324842
-34.849121 24.098719 -4.236974
-35.38884 25.480682 -3.522968
-36.314159 21.512833 -2.822751
-23.330019 -6.949358 -8.380859
-24.883627 -10.114203 -6.858728
-26.43009 6.031105 -4.400391
-24.78997 6.678267 -5.179717
-26.234123 9.044352 -5.187624
-26.773832 30.536877 -8.194415
-25.48037 28.740551 -8.538354
-26.85965 3.395839 -3.5711
-30.44828 38.906101 0.384937
-33.826714 -11.80646 4.871937
-34.537464 -13.718301 5.903963
-33.062881 -13.764697 4.250332
-32.176266 15.696325 -4.606751
-30.431383 16.372345 -5.470312
-31.888891 18.475769 -5.334414
-32.373207 25.798111 -5.796213
-31.308832 24.00956 -6.275502
-30.985126 26.826368 -6.473747
-29.591263 28.087238 -7.078037
-30.640194 29.800699 -6.460022
-34.851204 17.481974 -3.5242
-35.282635 15.097109 -2.615889
-33.778435 15.422246 -3.714493
-32.513988 13.010849 -3.744674
-23.131638 -4.218195 -11.188814
-24.496319 -4.575802 -12.637501
-17.165035 26.580164 -11.487574
-16.405926 28.075508 -12.31564
-15.055541 34.152512 -14.696052
-15.108044 30.213139 -14.185631
-14.557589 31.872013 -15.358909
-27.860304 -10.773549 -0.663524
-28.959278 -12.931924 0.128313
-27.687988 -12.417455 -1.140467
-27.294889 -14.181767 -3.994235
-28.058788 -15.075071 -2.64191
-28.605587 -15.990408 -3.578274
-29.474602 -16.872272 -4.60043
-22.656956 -2.595284 -4.861673
-21.969961 0.204934 -5.501103
-21.94702 8.249401 -6.588009
-20.677887 9.034754 -7.285177
-19.542448 9.934175 -8.031267
-20.436295 12.220563 -7.85292
-27.142086 17.819382 -6.773177
-25.72699 15.318289 -6.686572
-25.605667 18.557062 -7.298264
-22.738897 24.253649 -8.838995
-22.743198 20.564781 -8.338623
-21.380217 21.67938 -8.887438
-20.185648 19.126884 -8.937988
-20.165432 23.051607 -9.478798
-19.025919 24.066252 -10.078717
-20.236942 26.432995 -9.893031
-35.469521 -7.07209 5.487972
-34.975491 -4.937387 4.260038
-30.793257 -0.034166 -0.582904
-32.523613 -0.118598 0.568835
-31.104406 -2.539201 0.365637
-30.073832 -4.869194 0.297282
-29.174408 -6.986909 0.11387
-28.479738 -4.585266 -0.806648
-24.649992 -1.140036 -3.692255
-25.286106 -3.876714 -2.918326
-23.879866 -3.153177 -3.921026
-36.939674 25.376001 1.29336
-36.187599 27.147417 0.370522
-34.404263 30.525883 -1.357182
-34.207214 29.817688 -2.881764
-33.393749 32.131889 -2.246023
-30.556141 37.649563 -3.14258
-31.331951 35.149422 -3.886758
-30.255711 36.72308 -4.647499
-29.748228 35.514904 -5.883706
-31.259195 -17.146523 1.614359
-32.410866 -17.416765 3.106375
-32.411606 -18.944067 2.444937
-34.409248 20.17119 -4.317873
-33.10981 20.715691 -5.139505
-34.032143 22.58169 -4.808507
-33.676582 24.943001 -5.045726
-33.213776 27.431387 -5.084584
-35.65448 19.58559 -3.295075
-25.742239 -9.448513 -9.368529
-24.372889 -7.479661 -9.592837
-23.156803 -5.586801 -9.782388
-17.326473 34.137619 -12.40717
-16.431013 31.751501 -12.769647
-16.535057 35.682106 -13.27213
-15.780096 36.771187 -14.192282
-25.398506 -9.768581 -3.036196
-26.515675 -11.848907 -2.438535
-25.551357 -11.118936 -3.642823
-25.981339 -12.239854 -4.398224
-26.675222 -13.142764 -5.32043
-27.541313 -13.801698 -6.346776
-26.205534 -12.018412 -6.589809
-25.781744 -10.664065 -7.907405
-24.003374 1.466783 -4.477865
-22.635307 2.116331 -5.296136
-23.613596 4.322773 -5.184362
-23.301462 7.411372 -5.893969
-23.03857 10.652661 -6.596693
-26.888041 24.215544 -7.750427
-25.509874 22.06547 -7.848816
-25.447855 25.272709 -8.244267
-24.159718 26.312708 -8.696445
-22.722803 27.476351 -9.222357
-21.541624 28.88372 -9.740617
-30.356649 2.666224 -1.668957
-29.069523 0.331347 -1.677563
-27.80625 -1.987069 -1.781919
-27.253912 0.573247 -2.685371
-25.648254 1.064464 -3.589045
-32.480419 34.740105 0.254423
-32.524837 34.292244 -1.533969
-31.500658 36.649311 -0.580706
-36.551285 -11.358864 8.077324
-31.564133 -19.629971 -0.150628
-29.085018 14.092861 -5.423588
-28.829338 17.020529 -6.139329
-28.69655 19.965637 -6.704515
-31.644352 21.265356 -5.881417
-30.102787 22.27519 -6.579997
-28.473955 23.077477 -7.182562
-28.234915 26.29303 -7.528934
-28.180967 29.277239 -7.650536
-27.944113 32.466057 -7.66715
-17.403137 18.962492 -10.472685
-15.696145 29.066067 -13.213643
-30.754431 -11.493968 1.89565
-31.758404 -13.63683 2.888806
-30.348524 -13.492285 1.471506
-30.04224 -15.079229 0.813171
-30.08293 -16.512751 0.17903
-27.713703 -13.847642 -1.844419
-28.992355 -15.869181 -1.288948
-30.234711 -17.725197 -0.761309
-30.763941 -18.851509 -1.605537
-21.433611 2.929269 -6.100189
-18.417536 14.470013 -9.254356
-25.95673 12.045493 -5.950358
-24.450115 12.931572 -6.584192
-22.867392 13.812187 -7.223685
-24.220617 19.724751 -7.831759
-22.756636 17.161627 -7.816692
-21.465918 14.755341 -7.8345
-20.226963 15.758598 -8.448822
-19.133871 16.941877 -9.106687
-18.231232 18.119215 -9.765924
-18.136496 21.637844 -10.235709
-18.016527 25.108927 -10.737794
-18.074059 28.824739 -11.187551
-20.351076 30.062857 -10.297591
-19.197153 31.473398 -10.961879
-18.20051 32.704082 -11.642625
-35.96888 -9.220326 6.730783
-34.539333 -9.502354 5.163629
-33.105808 -9.551111 3.754355
-31.554363 -9.447032 2.363051
-29.88961 -9.218182 0.975712
-28.326319 -9.003892 -0.269947
-26.821987 -8.642361 -1.478315
-26.839289 -4.189847 -1.903986
-26.032995 -6.19749 -2.179746
-25.547182 -8.127142 -2.550659
-24.383558 -7.478839 -3.612376
-36.543167 24.931116 -1.757406
-35.810387 26.319923 -2.500782
-36.091797 26.80546 -1.155714
-35.346527 28.870981 -0.436004
-34.928329 27.466858 -3.299495
-33.82119 28.884066 -4.077179
-32.663857 30.03064 -4.888502
-32.417427 33.524883 -3.11821
-32.062054 32.588345 -4.453963
-31.409657 31.490988 -5.594223
-30.162405 32.619831 -6.317781
-28.944378 34.189194 -6.896219
-32.769588 -15.81768 3.863409
-35.999563 24.165171 -3.0435
-36.245495 23.414892 -2.800747
-36.386549 23.99299 -2.519405
-27.055732 8.7832 -4.830085
-26.332107 7.537729 -4.794007
-27.153716 7.276576 -4.436469
-25.982174 32.927852 -8.49534
-26.073929 31.258744 -8.467413
-26.682077 32.205984 -8.222342
-25.951244 34.633223 -8.533504
-25.982174 32.927852 -8.49534
-27.153716 7.276576 -4.436469
-27.324217 5.920222 -4.008107
-23.157289 -3.438871 -11.964096
-22.506577 -3.115697 -11.31599
-14.511302 33.665458 -15.612011
-14.806565 33.012262 -15.02748
-14.760279 34.805708 -15.280582
-14.3233 32.521555 -15.978398
-14.511302 33.665458 -15.612011
-28.520165 -15.336205 -5.528715
-29.227214 -16.264978 -5.327881
-28.767553 -15.943499 -4.801264
-35.547512 -3.658735 4.395293
-35.750275 -4.773147 5.061167
-36.526332 26.375201 1.756817
-36.912283 25.410235 2.268683
-36.912283 25.410235 2.268683
-37.284153 24.432759 1.782642
-29.907746 37.999134 -4.346875
-30.405926 37.186322 -3.89504
-30.057961 38.462376 -3.594415
-29.712322 37.442673 -5.070481
-29.907746 37.999134 -4.346875
-22.04502 -4.143973 -9.318971
-22.539685 -4.512251 -9.882441
-22.662138 -5.218523 -9.218918
-17.012992 36.94001 -13.101876
-16.930765 34.909863 -12.83965
-17.4087 36.167766 -12.669397
-15.846303 38.745901 -14.495806
-16.231625 38.138798 -14.00205
-15.421941 37.410105 -14.746918
-15.846303 38.745901 -14.495806
-25.668326 -11.730419 -5.024735
-25.346909 -11.200563 -4.611817
-25.033895 -10.691128 -5.238328
-24.115589 28.0124 -8.866982
-24.820044 27.526629 -8.6174
-24.775915 29.226322 -8.787937
-23.397132 28.594222 -9.129938
-23.44126 26.89453 -8.959401
-24.115589 28.0124 -8.866982
-22.786638 29.252629 -9.377878
-23.397132 28.594222 -9.129938
-29.479371 2.760182 -2.145904
-30.163583 4.060201 -2.194373
-29.286304 4.154159 -2.67132
-31.416967 36.814125 0.33903
-31.990538 35.694708 -0.163142
-31.906848 35.859522 0.756595
-30.550371 38.594652 -0.53429
-30.072667 39.751001 -0.028992
-35.537396 -12.650431 6.981056
-36.182409 -12.532877 7.796223
-35.906271 -11.476418 7.262158
-34.931602 -14.7796 6.476522
-34.324581 -14.744856 5.691099
-32.550524 -21.175798 -0.200297
-32.23539 -20.583071 0.228439
-31.879267 -20.222698 -0.579364
-29.956726 13.807952 -5.032951
-29.209066 12.574102 -5.004417
-34.794184 12.681603 -2.23435
-35.410015 13.839063 -2.140328
-34.666804 13.939649 -2.709912
-34.190672 11.442191 -2.282807
-34.794184 12.681603 -2.23435
-33.438534 11.495196 -2.770567
-34.190672 11.442191 -2.282807
-31.808695 11.852884 -3.749789
-31.671211 13.266946 -4.193493
-25.109652 -6.221965 -11.819147
-25.035085 -7.020682 -10.974521
-25.262821 -4.62551 -13.446174
-24.572147 -3.733577 -13.472247
-17.021237 19.61497 -10.91096
-17.314241 20.78004 -10.725853
-15.190565 28.306392 -13.943933
-14.933155 29.139517 -14.527021
-27.889721 -13.376141 -7.664103
-28.080236 -14.030782 -6.982252
-27.350798 -13.147057 -7.028626
-19.03367 12.177465 -8.633299
-19.122642 10.451415 -8.378554
-19.453476 11.660224 -8.286013
-18.89102 13.928144 -8.897557
-18.560187 12.719334 -8.990099
-19.03367 12.177465 -8.633299
-26.637126 13.322669 -6.02095
-26.814247 11.767852 -5.615436
-27.494643 13.045029 -5.686028
-20.965691 31.236978 -10.199898
-20.94635 29.473289 -10.019104
-21.560966 30.647409 -9.921411
-19.247607 33.367086 -11.182402
-19.777392 32.60929 -10.844312
-18.749285 33.982428 -11.522775
-18.698832 32.08874 -11.302252
-19.247607 33.367086 -11.182402
-18.24175 34.580821 -11.886758
-18.749285 33.982428 -11.522775
-36.422911 -8.040043 6.942111
-36.641785 -9.092477 7.628756
-33.339205 -0.12479 1.189005
-32.710053 -1.271465 1.087592
-31.587992 -7.195537 1.960634
-31.250279 -5.988549 1.379078
-31.161182 -8.304 1.834219
-31.981172 -8.338569 2.489466
-31.587992 -7.195537 1.960634
-36.476478 25.963878 -0.718716
-36.317482 25.868288 -1.45656
-36.702163 25.026706 -1.019562
-34.868473 30.047872 0.807495
-34.885803 29.90231 -0.020206
-35.329197 29.016544 0.391697
-36.702163 25.026706 -1.019562
-36.851221 24.132056 -1.371762
-28.764854 35.608225 -6.732727
-29.346303 34.852049 -6.389963
-29.166778 36.27108 -6.22647
-28.321979 34.917412 -7.204476
-28.764854 35.608225 -6.732727
-33.626182 -18.510199 4.415234
-33.049518 -17.52181 3.932529
-32.98753 -18.405155 3.589081
-34.145993 -19.503653 4.947933
-33.626182 -18.510199 4.415234
-36.47332 22.377772 -2.549701
-36.74743 21.475395 -2.167304
-36.086334 22.549954 -3.073796
-36.47332 22.377772 -2.549701
-36.245495 23.414892 -2.800747
-23.501469 -7.563353 -7.761802
-23.946975 -7.891111 -8.30646
-24.118426 -8.505107 -7.687403
-22.895624 -6.46258 -7.912614
-23.501469 -7.563353 -7.761802
-22.314351 -5.413024 -8.049909
-22.748746 -5.899802 -8.518154
-22.895624 -6.46258 -7.912614
-24.549262 -9.545752 -4.492801
-23.975108 -8.467068 -4.703283
-24.745603 -10.240224 -5.808061
-25.033895 -10.691128 -5.238328
-24.50976 -9.686833 -6.411802
-25.11947 -10.667594 -6.254987
-24.745603 -10.240224 -5.808061
-24.278274 -9.145776 -7.000737
-24.50976 -9.686833 -6.411802
-24.118426 -8.505107 -7.687403
-24.723779 -9.473534 -7.545395
-24.278274 -9.145776 -7.000737
-25.427199 30.360582 -8.639383
-26.127101 29.638714 -8.366384
-26.073929 31.258744 -8.467413
-24.775915 29.226322 -8.787937
-25.427199 30.360582 -8.639383
-28.410218 4.33174 -3.119337
-29.286304 4.154159 -2.67132
-27.538997 4.602589 -3.593462
-27.730871 3.12499 -3.096976
-28.410218 4.33174 -3.119337
-26.64487 4.713472 -3.985746
-27.538997 4.602589 -3.593462
-27.324217 5.920222 -4.008107
-30.32383 38.978441 1.414169
-30.890778 37.94252 0.821852
-29.900225 40.023741 0.966533
-30.32383 38.978441 1.414169
-30.072667 39.751001 -0.028992
-29.900225 40.023741 0.966533
-33.587289 -14.768054 4.864284
-34.324581 -14.744856 5.691099
-33.800173 -13.741499 5.077148
-32.814284 -21.706392 -0.779124
-32.481148 -21.195362 -1.613955
-31.303824 16.034335 -5.038531
-30.629908 14.947695 -5.056312
-31.50235 14.609685 -4.624532
-35.066919 16.289541 -3.070044
-35.731972 16.244301 -2.510862
-35.516256 17.436734 -2.965018
-31.50235 14.609685 -4.624532
-31.671211 13.266946 -4.193493
-32.345127 14.353587 -4.175712
-23.83963 -3.617675 -12.68844
-23.813978 -4.396999 -11.913158
-23.157289 -3.438871 -11.964096
-24.572147 -3.733577 -13.472247
-23.83963 -3.617675 -12.68844
-16.815115 25.385665 -11.666116
-17.195189 24.588876 -11.233297
-16.435561 26.133337 -12.080149
-16.815115 25.385665 -11.666116
-16.78548 27.327836 -11.901607
-16.128547 26.681582 -12.500186
-16.435561 26.133337 -12.080149
-14.657928 29.968954 -15.11366
-14.933155 29.139517 -14.527021
-14.832816 31.042576 -14.77227
-14.446879 30.584405 -15.742544
-14.657928 29.968954 -15.11366
-14.446879 30.584405 -15.742544
-14.3233 32.521555 -15.978398
-29.316326 -16.943648 -3.310659
-29.694806 -17.413351 -2.606687
-28.984067 -16.460112 -2.874302
-29.750833 -17.38458 -3.821738
-29.316326 -16.943648 -3.310659
-29.040095 -16.43134 -4.089352
-30.143456 -17.726931 -4.443746
-29.750833 -17.38458 -3.821738
-29.949439 -17.168965 -5.198014
-30.143456 -17.726931 -4.443746
-29.949439 -17.168965 -5.198014
-29.227214 -16.264978 -5.327881
-27.800626 -12.688499 -8.404696
-27.118901 -11.85858 -8.44681
-22.151576 -2.172683 -5.315363
-22.590406 -3.520249 -5.003489
-21.808079 -0.772574 -5.635078
-22.151576 -2.172683 -5.315363
-22.313459 -1.195175 -5.181388
-21.448332 0.579684 -5.934529
-21.808079 -0.772574 -5.635078
-21.49828 7.108124 -6.633601
-21.648499 5.570607 -6.318081
-22.097238 6.711885 -6.272489
-20.863714 7.5008 -6.982185
-21.49828 7.108124 -6.633601
-21.312453 8.642077 -6.936593
-20.311554 7.95138 -7.371677
-20.863714 7.5008 -6.982185
-20.110167 9.484464 -7.658222
-19.743834 8.401091 -7.744722
-20.311554 7.95138 -7.371677
-35.99729 -5.840499 5.675134
-36.173231 -6.965925 6.320705
-35.222506 -6.004739 4.874005
-35.99729 -5.840499 5.675134
-35.750275 -4.773147 5.061167
-31.658435 -0.076382 -0.007034
-32.274321 1.12084 -0.012767
-31.409143 1.163056 -0.588637
-32.000449 -2.481766 0.985993
-32.710053 -1.271465 1.087592
-31.814009 -1.328899 0.467236
-31.418481 -3.677665 0.909203
-32.000449 -2.481766 0.985993
-30.903194 -4.842662 0.875026
-31.418481 -3.677665 0.909203
-30.589119 -3.704198 0.33146
-30.420917 -6.015081 0.801335
-31.250279 -5.988549 1.379078
-30.903194 -4.842662 0.875026
-23.696919 -4.146687 -4.054163
-24.080632 -5.394987 -3.711216
-24.263579 -4.401478 -3.578079
-23.085465 -3.86774 -4.524487
-23.696919 -4.146687 -4.054163
-23.268411 -2.87423 -4.391349
-22.590406 -3.520249 -5.003489
-23.085465 -3.86774 -4.524487
-36.563637 26.261709 0.831941
-36.524379 26.134857 0.044402
-36.900417 25.249149 0.505821
-36.150295 27.260909 1.295397
-36.563637 26.261709 0.831941
-36.526332 26.375201 1.756817
-35.712429 28.268254 1.719836
-35.749733 28.154762 0.79496
-36.150295 27.260909 1.295397
-37.225084 24.349964 0.895255
-37.284153 24.432759 1.782642
-36.900417 25.249149 0.505821
-37.225084 24.349964 0.895255
-29.45858 36.838585 -5.688585
-30.00197 36.118992 -5.265602
-29.712322 37.442673 -5.070481
-29.166778 36.27108 -6.22647
-29.45858 36.838585 -5.688585
-36.562593 20.477947 -2.434183
-36.74743 21.475395 -2.167304
-36.232754 19.514326 -2.670345
-36.562593 20.477947 -2.434183
-35.984319 20.549211 -3.058913
-35.917895 18.488542 -2.850455
-36.232754 19.514326 -2.670345
-35.252842 18.533782 -3.409638
-35.516256 17.436734 -2.965018
-35.917895 18.488542 -2.850455
-25.685732 -8.684212 -10.102607
-26.353633 -9.517419 -10.07599
-25.001057 -7.699786 -10.214761
-25.685732 -8.684212 -10.102607
-25.057564 -8.464087 -9.480683
-24.406917 -6.800557 -10.352597
-25.035085 -7.020682 -10.974521
-25.001057 -7.699786 -10.214761
-22.527102 -3.827948 -10.585654
-23.14422 -4.902498 -10.485601
-22.539685 -4.512251 -9.882441
-21.902042 -2.725451 -10.71283
-22.506577 -3.115697 -11.31599
-22.527102 -3.827948 -10.585654
-16.609106 37.594257 -13.541974
-17.012992 36.94001 -13.101876
-16.157576 36.226647 -13.732206
-16.609106 37.594257 -13.541974
-16.231625 38.138798 -14.00205
-15.059663 36.100768 -14.998803
-15.417818 35.461849 -14.444167
-15.421941 37.410105 -14.746918
-14.760279 34.805708 -15.280582
-15.059663 36.100768 -14.998803
-25.131918 -10.640103 -4.234116
-24.9687 -10.024584 -3.901508
-24.549262 -9.545752 -4.492801
-25.766348 -11.679395 -4.020523
-25.131918 -10.640103 -4.234116
-25.346909 -11.200563 -4.611817
-26.429631 -10.944403 -8.545274
-27.118901 -11.85858 -8.44681
-26.471014 -11.578241 -7.808941
-26.409879 -10.336628 -9.275837
-26.429631 -10.944403 -8.545274
-25.761992 -10.056289 -8.637967
-26.353633 -9.517419 -10.07599
-26.409879 -10.336628 -9.275837
-22.196048 29.956313 -9.637007
-22.132213 28.180036 -9.481487
-22.786638 29.252629 -9.377878
-21.560966 30.647409 -9.921411
-22.196048 29.956313 -9.637007
-31.050268 3.90229 -1.680087
-30.163583 4.060201 -2.194373
-31.190838 2.513251 -1.131663
-31.050268 3.90229 -1.680087
-30.574953 1.316029 -1.12593
-31.409143 1.163056 -0.588637
-31.190838 2.513251 -1.131663
-30.974469 37.777706 -0.097885
-31.416967 36.814125 0.33903
-30.890778 37.94252 0.821852
-31.07656 37.466257 -1.017111
-30.974469 37.777706 -0.097885
-30.550371 38.594652 -0.53429
-31.098123 37.113979 -1.91281
-31.522221 36.297033 -1.476405
-31.07656 37.466257 -1.017111
-30.604301 37.966383 -2.298048
-31.049962 36.797159 -2.757342
-31.098123 37.113979 -1.91281
-30.178083 38.791069 -2.729694
-30.604301 37.966383 -2.298048
-30.057961 38.462376 -3.594415
-30.178083 38.791069 -2.729694
-36.820994 -12.372409 8.71924
-37.138061 -11.194609 8.968619
-36.820994 -12.372409 8.71924
-36.182409 -12.532877 7.796223
-35.175499 -13.712595 6.709542
-35.537396 -12.650431 6.981056
-34.899361 -12.656137 6.175477
-35.175499 -13.712595 6.709542
-34.931602 -14.7796 6.476522
-32.04756 -19.967664 0.693206
-31.927431 -19.419083 1.16291
-31.444004 -19.08139 0.319077
-32.04756 -19.967664 0.693206
-32.23539 -20.583071 0.228439
-33.170406 -22.066765 0.028679
-32.550524 -21.175798 -0.200297
-32.814284 -21.706392 -0.779124
-28.378391 12.791536 -5.352051
-29.209066 12.574102 -5.004417
-28.20127 14.346353 -5.757565
-27.494643 13.045029 -5.686028
-28.378391 12.791536 -5.352051
-29.758201 15.232603 -5.44695
-29.956726 13.807952 -5.032951
-30.629908 14.947695 -5.056312
-35.92713 15.037483 -2.0194
-35.731972 16.244301 -2.510862
-35.92713 15.037483 -2.0194
-35.410015 13.839063 -2.140328
-32.670042 11.609525 -3.240937
-33.438534 11.495196 -2.770567
-33.28248 12.89652 -3.274304
-32.670042 11.609525 -3.240937
-31.808695 11.852884 -3.749789
-25.137339 -5.44914 -12.581719
-25.109652 -6.221965 -11.819147
-24.468632 -5.348628 -11.874928
-25.137339 -5.44914 -12.581719
-25.262821 -4.62551 -13.446174
-17.142661 17.872186 -10.691717
-17.504321 17.286936 -10.249262
-17.142661 17.872186 -10.691717
-17.021237 19.61497 -10.91096
-15.773657 27.176861 -12.949188
-16.128547 26.681582 -12.500186
-16.051036 28.570788 -12.764641
-15.484616 27.732856 -13.457939
-15.402095 29.639603 -13.699637
-15.190565 28.306392 -13.943933
-15.773657 27.176861 -12.949188
-15.484616 27.732856 -13.457939
-30.395503 -18.374198 -2.324291
-30.063244 -17.890662 -1.887933
-29.694806 -17.413351 -2.606687
-31.087073 -19.283691 -2.12957
-30.395503 -18.374198 -2.324291
-31.802304 -20.265649 -1.830852
-31.479171 -19.833467 -1.306819
-31.087073 -19.283691 -2.12957
-32.481148 -21.195362 -1.613955
-31.802304 -20.265649 -1.830852
-28.260569 -14.729691 -6.201054
-28.520165 -15.336205 -5.528715
-27.800909 -14.408212 -5.674437
-28.260569 -14.729691 -6.201054
-28.080236 -14.030782 -6.982252
-28.530063 -13.572224 -8.358321
-27.889721 -13.376141 -7.664103
-27.800626 -12.688499 -8.404696
-21.180157 1.941851 -6.234072
-21.448332 0.579684 -5.934529
-21.701786 1.567102 -5.800646
-21.241576 4.448057 -6.389691
-21.840533 4.051819 -6.028579
-21.648499 5.570607 -6.318081
-20.918805 3.38013 -6.498393
-21.241576 4.448057 -6.389691
-21.180157 1.941851 -6.234072
-20.918805 3.38013 -6.498393
-19.280741 8.866223 -8.144645
-19.743834 8.401091 -7.744722
-19.280741 8.866223 -8.144645
-19.122642 10.451415 -8.378554
-18.16847 13.358403 -9.392715
-18.560187 12.719334 -8.990099
-18.01152 15.040696 -9.640097
-18.16847 13.358403 -9.392715
-26.952943 10.267281 -5.234069
-27.055732 8.7832 -4.830085
-26.095427 10.544923 -5.568991
-26.952943 10.267281 -5.234069
-26.814247 11.767852 -5.615436
-17.918368 16.865298 -9.895881
-18.01152 15.040696 -9.640097
-18.324384 16.294614 -9.51014
-17.817184 18.540854 -10.119305
-17.504321 17.286936 -10.249262
-17.918368 16.865298 -9.895881
-17.68092 22.117717 -10.607364
-17.314241 20.78004 -10.725853
-17.769817 20.300168 -10.354197
-17.620936 23.853258 -10.858407
-17.68092 22.117717 -10.607364
-18.076512 23.373386 -10.486752
-17.590781 25.844546 -11.112684
-17.195189 24.588876 -11.233297
-17.620936 23.853258 -10.858407
-20.354353 31.90402 -10.512168
-20.965691 31.236978 -10.199898
-19.774114 30.768127 -10.629735
-20.354353 31.90402 -10.512168
-19.777392 32.60929 -10.844312
-17.804732 35.29759 -12.26903
-17.763492 33.420851 -12.024898
-18.24175 34.580821 -11.886758
-17.4087 36.167766 -12.669397
-17.804732 35.29759 -12.26903
-36.932987 -10.161746 8.302027
-37.138061 -11.194609 8.968619
-37.519764 -9.997491 9.193322
-36.260082 -10.289595 7.404053
-36.932987 -10.161746 8.302027
-36.641785 -9.092477 7.628756
-35.7192 -8.146208 6.109377
-36.422911 -8.040043 6.942111
-36.173231 -6.965925 6.320705
-33.175246 1.11997 0.606332
-32.274321 1.12084 -0.012767
-33.175246 1.11997 0.606332
-33.339205 -0.12479 1.189005
-34.752268 -3.765753 3.640394
-35.547512 -3.658735 4.395293
-34.158574 -4.875143 3.490264
-34.752268 -3.765753 3.640394
-33.642329 -5.965482 3.329592
-34.459246 -6.027726 4.099366
-34.158574 -4.875143 3.490264
-33.175491 -7.174085 3.277287
-33.642329 -5.965482 3.329592
-32.756895 -8.390609 3.185118
-33.524405 -8.334588 3.846525
-33.175491 -7.174085 3.277287
-32.330086 -9.499071 3.058703
-32.756895 -8.390609 3.185118
-31.981172 -8.338569 2.489466
-23.948766 -6.309518 -3.899838
-24.515425 -6.564309 -3.423754
-24.080632 -5.394987 -3.711216
-23.866315 -7.060145 -4.142176
-23.948766 -6.309518 -3.899838
-23.867559 -7.785842 -4.416085
-24.384801 -8.204536 -3.886284
-23.866315 -7.060145 -4.142176
-23.975108 -8.467068 -4.703283
-23.867559 -7.785842 -4.416085
-36.139698 26.976439 -0.392596
-36.476478 25.963878 -0.718716
-36.524379 26.134857 0.044402
-34.414671 30.72976 -0.480795
-34.875395 29.698432 -0.896593
-34.885803 29.90231 -0.020206
-33.981831 31.743249 -0.073063
-33.971423 31.539372 -0.94945
-34.414671 30.72976 -0.480795
-35.208151 29.24091 2.19412
-35.712429 28.268254 1.719836
-34.795524 30.147268 1.7168
-35.208151 29.24091 2.19412
-34.868473 30.047872 0.807495
-34.795524 30.147268 1.7168
-33.452269 32.775438 0.379362
-33.981831 31.743249 -0.073063
-32.923187 33.869061 0.777432
-33.009501 33.646483 -0.143647
-33.452269 32.775438 0.379362
-32.356479 34.898404 1.20806
-32.923187 33.869061 0.777432
-31.906848 35.859522 0.756595
-32.356479 34.898404 1.20806
-36.587824 24.086913 -2.017029
-36.851221 24.132056 -1.371762
-36.341892 24.837193 -2.259783
-36.386549 23.99299 -2.519405
-36.587824 24.086913 -2.017029
-27.821846 34.055843 -7.589942
-28.444246 33.327625 -7.281685
-28.321979 34.917412 -7.204476
-27.144951 34.760361 -7.881501
-27.267218 33.170575 -7.958709
-27.821846 34.055843 -7.589942
-26.556381 35.421658 -8.181897
-27.144951 34.760361 -7.881501
-25.951244 34.633223 -8.533504
-26.556381 35.421658 -8.181897
-21.779622 -4.279841 -8.207896
-22.314351 -5.413024 -8.049909
-21.623189 -3.728121 -8.791113
-21.779622 -4.279841 -8.207896
-22.04502 -4.143973 -9.318971
-21.623189 -3.728121 -8.791113
-33.440643 -15.794545 4.670822
-33.587289 -14.768054 4.864284
-32.916235 -14.791189 4.056871
-33.228879 -16.722267 4.311046
-32.590227 -16.617223 3.484892
-33.049518 -17.52181 3.932529
-33.440643 -15.794545 4.670822
-33.228879 -16.722267 4.311046
-32.471297 -19.624712 1.990988
-31.867741 -18.738437 1.616859
-31.927431 -19.419083 1.16291
-32.981581 -19.904237 2.831889
-32.471297 -19.624712 1.990988
-33.557875 -20.128976 3.645314
-32.9879 -19.168806 3.258362
-32.981581 -19.904237 2.831889
-34.118742 -20.346933 4.579157
-33.557875 -20.128976 3.645314
-34.145993 -19.503653 4.947933
-34.118742 -20.346933 4.579157
3 0 61 59
3 0 243 245
3 243 59 244
3 243 244 245
3 246 67 247
3 248 247 65
3 246 247 248
3 1 249 251
3 251 250 68
3 249 250 251
3 1 252 253
3 254 65 255
3 2 74 72
3 3 77 75
3 5 80 78
3 5 82 80
3 3 85 83
3 3 75 85
3 257 256 87
3 6 90 89
3 258 93 259
3 260 259 91
3 258 259 260
3 262 261 93
3 7 96 94
3 9 99 97
3 9 100 99
3 9 263 265
3 265 264 100
3 263 264 265
3 10 102 101
3 11 104 103
3 11 106 104
3 4 109 107
3 12 112 110
3 12 114 112
3 12 116 114
3 266 118 267
3 13 121 119
3 13 122 121
3 13 124 122
3 10 127 125
3 10 101 127
3 269 268 128
3 270 128 271
3 14 132 130
3 272 135 273
3 274 273 133
3 272 273 274
3 276 275 135
3 8 139 137
3 15 142 140
3 17 143 60
3 17 144 143
3 15 145 62
3 15 140 145
3 18 147 146
3 20 148 63
3 20 277 279
3 279 278 148
3 277 278 279
3 280 151 281
3 282 281 149
3 280 281 282
3 283 152 284
3 286 285 152
3 22 155 153
3 24 287 289
3 287 156 288
3 287 288 289
3 24 157 156
3 24 159 157
3 18 160 64
3 18 146 160
3 26 163 161
3 28 164 66
3 28 165 164
3 29 168 166
3 290 169 291
3 292 291 69
3 290 291 292
3 293 170 294
3 295 294 169
3 293 294 295
3 297 296 170
3 31 298 300
3 298 172 299
3 298 299 300
3 31 173 172
3 31 175 173
3 26 176 70
3 26 161 176
3 301 179 302
3 303 302 177
3 301 302 303
3 305 304 71
3 34 306 308
3 308 307 180
3 306 307 308
3 310 309 73
3 35 311 313
3 313 312 181
3 311 312 313
3 314 182 315
3 37 183 76
3 37 184 183
3 16 185 141
3 38 186 79
3 38 187 186
3 38 188 187
3 39 189 81
3 39 190 189
3 40 316 318
3 318 317 84
3 316 317 318
3 40 319 320
3 40 321 322
3 324 323 86
3 19 325 326
3 328 327 88
3 330 329 191
3 21 192 150
3 332 331 92
3 41 195 193
3 43 196 95
3 43 197 196
3 23 198 154
3 44 199 98
3 44 200 199
3 44 201 200
3 25 333 335
3 335 334 158
3 333 334 335
3 27 202 162
3 45 336 338
3 338 337 105
3 336 337 338
3 45 339 341
3 339 203 340
3 339 340 341
3 36 342 344
3 342 204 343
3 342 343 344
3 46 205 108
3 46 206 205
3 30 207 167
3 47 208 111
3 47 209 208
3 47 210 209
3 48 211 113
3 48 212 211
3 48 213 212
3 49 214 115
3 49 215 214
3 345 216 346
3 347 346 171
3 345 346 347
3 348 217 349
3 350 218 351
3 352 351 217
3 350 351 352
3 354 353 218
3 355 219 356
3 50 220 117
3 50 221 220
3 358 357 120
3 51 359 360
3 51 361 363
3 361 222 362
3 361 362 363
3 51 223 222
3 52 224 123
3 52 225 224
3 32 226 174
3 53 227 126
3 53 228 227
3 53 229 228
3 364 232 365
3 366 365 230
3 364 365 366
3 55 233 129
3 55 367 369
3 369 368 233
3 367 368 369
3 370 230 371
3 54 234 231
3 56 235 131
3 56 236 235
3 33 237 178
3 57 238 134
3 57 239 238
3 57 240 239
3 372 241 373
3 374 373 136
3 372 373 374
3 376 375 241
3 42 242 194
3 58 377 379
3 379 378 138
3 377 378 379
3 58 380 381
3 59 60 15
3 61 60 59
3 61 17 60
3 382 62 383
3 59 384 386
3 384 62 385
3 384 385 386
3 59 15 62
3 387 63 388
3 389 388 18
3 387 388 389
3 390 63 391
3 392 20 393
3 394 393 63
3 392 393 394
3 396 395 22
3 397 24 398
3 399 64 400
3 401 400 24
3 399 400 401
3 402 64 403
3 404 18 405
3 406 405 64
3 404 405 406
3 65 66 26
3 67 66 65
3 67 28 66
3 68 69 29
3 407 69 408
3 409 408 68
3 407 408 409
3 411 410 69
3 412 31 413
3 414 70 415
3 416 415 31
3 414 415 416
3 65 417 419
3 417 70 418
3 417 418 419
3 65 26 70
3 420 71 421
3 422 71 423
3 425 424 71
3 72 73 34
3 74 73 72
3 74 426 428
3 428 427 73
3 426 427 428
3 430 429 35
3 75 431 433
3 431 76 432
3 431 432 433
3 77 76 75
3 77 37 76
3 78 79 16
3 80 79 78
3 80 38 79
3 80 81 38
3 82 81 80
3 82 39 81
3 83 434 436
3 434 84 435
3 434 435 436
3 85 84 83
3 85 40 84
3 85 86 40
3 75 86 85
3 75 437 439
3 439 438 86
3 437 438 439
3 87 88 19
3 440 88 441
3 442 441 87
3 440 441 442
3 444 443 88
3 89 445 446
3 90 447 449
3 449 448 89
3 447 448 449
3 90 450 451
3 91 92 21
3 93 92 91
3 93 452 454
3 454 453 92
3 452 453 454
3 93 455 456
3 458 457 93
3 94 95 41
3 96 95 94
3 96 43 95
3 97 98 23
3 99 98 97
3 99 44 98
3 99 459 461
3 461 460 44
3 459 460 461
3 100 462 464
3 464 463 99
3 462 463 464
3 100 465 466
3 100 467 468
3 470 469 100
3 472 471 25
3 101 473 474
3 102 475 477
3 477 476 101
3 475 476 477
3 102 478 479
3 103 480 482
3 482 481 27
3 480 481 482
3 104 483 485
3 485 484 103
3 483 484 485
3 104 486 487
3 104 488 490
3 488 105 489
3 488 489 490
3 106 105 104
3 106 45 105
3 107 108 36
3 109 108 107
3 109 46 108
3 110 111 30
3 112 111 110
3 112 47 111
3 112 113 47
3 114 113 112
3 114 48 113
3 114 115 48
3 116 115 114
3 116 49 115
3 491 117 492
3 118 493 495
3 493 117 494
3 493 494 495
3 118 50 117
3 119 496 498
3 496 120 497
3 496 497 498
3 121 120 119
3 121 499 501
3 501 500 120
3 499 500 501
3 121 502 503
3 122 504 506
3 506 505 121
3 504 505 506
3 122 507 509
3 507 51 508
3 507 508 509
3 122 123 51
3 124 123 122
3 124 52 123
3 125 126 32
3 127 126 125
3 127 53 126
3 127 510 512
3 512 511 53
3 510 511 512
3 101 513 515
3 515 514 127
3 513 514 515
3 101 516 517
3 128 518 520
3 518 129 519
3 518 519 520
3 521 129 522
3 523 522 128
3 521 522 523
3 524 55 525
3 526 525 129
3 524 525 526
3 128 527 528
3 128 529 530
3 130 131 54
3 132 131 130
3 132 56 131
3 133 134 33
3 135 134 133
3 135 57 134
3 135 136 57
3 531 136 532
3 533 532 135
3 531 532 533
3 535 534 136
3 137 138 42
3 139 138 137
3 139 58 138
3 140 141 3
3 142 141 140
3 142 16 141
3 60 142 15
3 143 142 60
3 143 16 142
3 143 78 16
3 144 78 143
3 144 5 78
3 62 536 537
3 145 538 540
3 540 539 62
3 538 539 540
3 145 541 542
3 145 543 545
3 543 83 544
3 543 544 545
3 140 83 145
3 140 3 83
3 146 546 547
3 147 548 550
3 550 549 146
3 548 549 550
3 147 551 553
3 551 19 552
3 551 552 553
3 63 147 18
3 148 147 63
3 148 19 147
3 148 87 19
3 554 87 555
3 556 555 148
3 554 555 556
3 559 558 87
3 557 558 559
3 149 150 6
3 151 150 149
3 151 21 150
3 560 151 561
3 152 562 564
3 562 151 563
3 562 563 564
3 152 21 151
3 152 91 21
3 565 91 566
3 567 566 152
3 565 566 567
3 569 568 91
3 153 154 7
3 155 154 153
3 155 23 154
3 570 155 571
3 572 571 22
3 570 571 572
3 156 573 575
3 573 155 574
3 573 574 575
3 156 23 155
3 156 97 23
3 157 97 156
3 157 9 97
3 157 158 9
3 159 158 157
3 159 25 158
3 64 159 24
3 160 159 64
3 160 25 159
3 160 576 578
3 578 577 25
3 576 577 578
3 146 579 581
3 581 580 160
3 579 580 581
3 146 582 583
3 161 162 10
3 163 162 161
3 163 27 162
3 66 163 26
3 164 163 66
3 164 27 163
3 164 103 27
3 165 103 164
3 165 11 103
3 166 167 4
3 168 167 166
3 168 30 167
3 69 168 29
3 169 168 69
3 169 30 168
3 169 110 30
3 170 110 169
3 170 12 110
3 170 171 12
3 584 171 585
3 586 585 170
3 584 585 586
3 588 587 171
3 172 589 590
3 172 591 592
3 172 593 595
3 593 119 594
3 593 594 595
3 173 119 172
3 173 13 119
3 173 174 13
3 175 174 173
3 175 32 174
3 70 175 31
3 176 175 70
3 176 32 175
3 176 125 32
3 161 125 176
3 161 10 125
3 177 178 14
3 179 178 177
3 179 33 178
3 71 596 598
3 596 179 597
3 596 597 598
3 599 179 600
3 601 600 71
3 599 600 601
3 602 33 603
3 604 603 179
3 602 603 604
3 605 133 606
3 607 606 33
3 605 606 607
3 608 133 609
3 611 610 133
3 180 612 613
3 615 614 180
3 73 616 618
3 618 617 34
3 616 617 618
3 620 619 73
3 181 621 623
3 623 622 8
3 621 622 623
3 625 624 181
3 628 627 35
3 626 627 628
3 182 629 630
3 182 631 633
3 631 36 632
3 631 632 633
3 76 634 636
3 634 182 635
3 634 635 636
3 183 182 76
3 183 36 182
3 183 107 36
3 184 107 183
3 184 4 107
3 141 77 3
3 185 77 141
3 185 37 77
3 79 185 16
3 186 185 79
3 186 37 185
3 186 184 37
3 187 184 186
3 187 4 184
3 187 166 4
3 188 166 187
3 188 29 166
3 81 188 38
3 189 188 81
3 189 29 188
3 189 68 29
3 190 68 189
3 190 1 68
3 84 637 638
3 640 639 84
3 86 641 643
3 643 642 40
3 641 642 643
3 645 644 86
3 88 646 648
3 648 647 19
3 646 647 648
3 650 649 88
3 191 651 652
3 654 653 191
3 150 90 6
3 192 90 150
3 192 655 657
3 657 656 90
3 655 656 657
3 92 192 21
3 658 192 659
3 660 659 92
3 658 659 660
3 662 661 192
3 193 194 2
3 195 194 193
3 195 42 194
3 95 195 41
3 196 195 95
3 196 42 195
3 196 137 42
3 197 137 196
3 197 8 137
3 154 96 7
3 198 96 154
3 198 43 96
3 98 198 23
3 199 198 98
3 199 43 198
3 199 197 43
3 200 197 199
3 200 8 197
3 200 181 8
3 201 181 200
3 201 35 181
3 663 201 664
3 665 664 44
3 663 664 665
3 666 201 667
3 668 35 669
3 670 669 201
3 668 669 670
3 672 671 35
3 158 673 675
3 675 674 9
3 673 674 675
3 677 676 158
3 680 679 25
3 678 679 680
3 162 102 10
3 202 102 162
3 202 681 683
3 683 682 102
3 681 682 683
3 684 202 685
3 686 685 27
3 684 685 686
3 687 202 688
3 690 689 202
3 105 691 692
3 694 693 105
3 203 695 696
3 203 697 698
3 699 67 700
3 204 701 703
3 701 67 702
3 701 702 703
3 204 28 67
3 108 204 36
3 205 204 108
3 205 28 204
3 205 165 28
3 206 165 205
3 206 11 165
3 167 109 4
3 207 109 167
3 207 46 109
3 111 207 30
3 208 207 111
3 208 46 207
3 208 206 46
3 209 206 208
3 209 11 206
3 209 106 11
3 210 106 209
3 210 45 106
3 113 210 47
3 211 210 113
3 211 45 210
3 211 203 45
3 212 203 211
3 212 704 706
3 706 705 203
3 704 705 706
3 212 707 709
3 707 191 708
3 707 708 709
3 213 191 212
3 213 710 712
3 712 711 191
3 710 711 712
3 115 213 48
3 214 213 115
3 214 713 715
3 715 714 213
3 713 714 715
3 214 716 718
3 716 89 717
3 716 717 718
3 215 89 214
3 215 6 89
3 171 116 12
3 216 116 171
3 216 49 116
3 719 216 720
3 217 721 723
3 721 216 722
3 721 722 723
3 217 49 216
3 217 215 49
3 218 215 217
3 218 6 215
3 218 149 6
3 724 149 725
3 726 725 218
3 724 725 726
3 728 727 149
3 729 180 730
3 729 730 731
3 219 732 734
3 732 180 733
3 732 733 734
3 219 34 180
3 117 735 737
3 735 219 736
3 735 736 737
3 220 219 117
3 220 34 219
3 220 72 34
3 221 72 220
3 221 2 72
3 120 738 739
3 741 740 120
3 742 118 743
3 744 118 745
3 746 50 747
3 748 747 118
3 746 747 748
3 749 50 750
3 751 221 752
3 753 752 50
3 751 752 753
3 222 754 756
3 754 221 755
3 754 755 756
3 222 2 221
3 222 193 2
3 223 193 222
3 223 41 193
3 123 223 51
3 224 223 123
3 224 41 223
3 224 94 41
3 225 94 224
3 225 7 94
3 174 124 13
3 226 124 174
3 226 52 124
3 126 226 32
3 227 226 126
3 227 52 226
3 227 225 52
3 228 225 227
3 228 7 225
3 228 153 7
3 229 153 228
3 229 22 153
3 757 229 758
3 759 758 53
3 757 758 759
3 760 229 761
3 762 22 763
3 764 763 229
3 762 763 764
3 766 765 22
3 230 231 0
3 232 231 230
3 232 54 231
3 129 767 769
3 767 232 768
3 767 768 769
3 233 232 129
3 233 54 232
3 233 130 54
3 770 130 771
3 772 771 233
3 770 771 772
3 773 14 774
3 775 774 130
3 773 774 775
3 776 55 777
3 778 55 779
3 781 780 55
3 782 14 783
3 784 177 785
3 786 785 14
3 784 785 786
3 787 177 788
3 790 789 177
3 230 791 792
3 230 793 795
3 793 0 794
3 793 794 795
3 231 61 0
3 234 61 231
3 234 17 61
3 131 234 54
3 235 234 131
3 235 17 234
3 235 144 17
3 236 144 235
3 236 5 144
3 178 132 14
3 237 132 178
3 237 56 132
3 134 237 33
3 238 237 134
3 238 56 237
3 238 236 56
3 239 236 238
3 239 5 236
3 239 82 5
3 240 82 239
3 240 39 82
3 136 240 57
3 241 240 136
3 241 39 240
3 241 190 39
3 796 190 797
3 798 797 241
3 796 797 798
3 799 1 800
3 801 800 190
3 799 800 801
3 802 1 803
3 805 804 1
3 806 20 807
3 808 20 809
3 811 810 20
3 194 74 2
3 242 74 194
3 242 812 814
3 814 813 74
3 812 813 814
3 138 242 42
3 815 242 816
3 817 816 138
3 815 816 817
3 819 818 242
3 820 139 821
3 822 821 8
3 820 821 822
3 823 139 824
3 825 58 826
3 827 826 139
3 825 826 827
3 828 58 829
3 831 830 58
