ply
format ascii 1.0
element vertex 966
property float x
property float y
property float z
element face 1134
property list uchar int vertex_index
end_header
-10.136556 -96.101494 -24.153463
-16.923676 -84.235611 -6.667034
-23.801796 -75.73098 -24.93902
-0.431999 -71.285469 30.577602
-8.513668 -83.872902 12.558245
-2.49782 -102.116959 -26.627516
-0.95809 -99.236603 -34.288906
-10.308064 -93.674995 -30.995928
-22.269123 -74.375648 -6.571964
2.110692 -64.498116 39.853569
-15.18876 -77.921196 13.478166
-12.81342 -85.705833 3.303697
3.561652 -97.12175 2.063452
-13.840785 -91.124298 -16.600214
-16.699186 -87.438637 -24.742283
-20.49402 -80.815392 -15.950026
2.525414 -81.119591 21.738148
-6.386343 -68.748871 30.077887
-3.991147 -78.475258 21.557755
-0.860119 -88.189552 11.685755
-5.231377 -92.470871 2.063604
-9.650433 -93.303276 -7.509133
-5.68495 -99.692657 -17.844793
4.244252 -105.710678 -17.944674
-18.611448 -81.799835 -32.498245
-20.003159 -73.459061 -39.426769
-6.981666 -98.920975 -25.467503
-6.212714 -98.573402 -29.210302
-10.333289 -95.218246 -27.273064
-15.43937 -87.889053 -11.663017
-17.260712 -86.223274 -16.134195
-18.692022 -82.819153 -11.386282
0.934862 -67.769302 35.197144
3.744562 -69.108902 36.384705
2.422131 -72.458885 31.362099
4.052433 -77.445435 26.986565
1.02781 -76.24366 26.267
-9.736647 -79.295883 17.786531
-7.41392 -76.677887 22.109728
-6.23589 -81.360313 17.294996
-2.512331 -83.379791 16.673834
-4.713886 -86.16597 12.079474
-2.975256 -90.765991 6.865397
-6.977102 -88.232773 7.362405
-14.92994 -85.290909 -1.648702
-11.503941 -89.4888 -2.310582
-13.506767 -88.99572 -7.00481
-11.770905 -92.605118 -12.236908
-20.419228 -81.585022 -24.612211
-17.735985 -84.950386 -28.597164
-21.546309 -78.879913 -28.829062
-23.553974 -71.020821 -36.75145
2.611563 -104.816689 -26.962103
-1.657042 -101.291603 -30.598034
-5.906757 -96.793976 -32.951252
-10.434052 -91.04084 -34.601368
-17.995033 -80.628281 -1.194451
-19.734228 -79.358368 -6.266637
-0.614758 -62.902882 38.594528
-1.921071 -66.432114 34.297108
-12.946303 -76.937111 18.122652
-12.020826 -81.035355 13.240738
-10.72578 -85.30603 7.878253
-14.099521 -81.784157 8.573771
-16.18434 -81.516594 3.589798
-27.020281 -69.71209 -25.239531
-25.24227 -72.467911 -29.306633
-11.830182 -94.147476 -20.831543
-13.161286 -92.410057 -24.550459
-15.479136 -89.400826 -20.750246
-18.990723 -84.002075 -20.336899
-22.270189 -78.361687 -20.566206
-21.576744 -77.507957 -11.250175
5.865163 -82.210838 22.710762
-4.751873 -65.075455 33.74334
-3.40556 -69.967209 30.256083
-5.237975 -73.543556 26.158257
-2.075928 -74.902924 26.071005
-0.723555 -79.910118 21.380772
0.869652 -84.819092 16.625425
2.842339 -89.746735 11.812254
1.037653 -92.742287 6.815278
-0.877334 -95.174011 1.728468
-3.098207 -96.638985 -3.307269
-9.366228 -89.221115 2.598867
-7.495318 -93.331299 -2.881298
-5.188231 -97.323906 -8.227094
-7.724574 -96.77198 -12.776852
-9.897928 -95.744087 -17.114305
-8.186522 -97.99427 -21.458412
6.333303 -106.778236 -22.660522
1.120807 -104.618324 -22.608416
-3.961634 -101.469757 -22.27006
-13.919643 -90.553543 -28.0872
-14.472732 -88.062889 -31.839426
-14.946329 -84.845421 -35.3643
-22.805727 -75.110214 -32.780777
-19.36871 -78.088364 -35.99559
-15.45074 -80.579834 -38.731098
-8.793118 -97.379295 -24.736748
-8.593131 -97.250694 -26.489508
-10.147416 -95.859627 -25.582176
-16.191671 -86.120514 -9.189253
-17.197733 -85.249146 -11.439381
-17.778072 -83.631805 -9.00803
0.23215 -69.493523 32.850807
1.685925 -70.070389 33.378048
1.003218 -71.83416 30.96384
1.727626 -74.396378 28.721764
0.250813 -73.710663 28.499346
-9.169416 -81.525337 15.28721
-7.978746 -80.417358 17.497725
-7.359486 -82.764709 14.900207
-5.46796 -83.770775 14.733373
-6.579157 -85.109772 12.291476
-5.810007 -87.393089 9.641006
-7.784057 -86.066032 9.971106
-15.955028 -84.790207 -4.081941
-14.280503 -87.138245 -4.401417
-15.308077 -86.640648 -6.876408
-14.517137 -88.476433 -9.349261
-1.835759 -100.679726 -11.090824
-22.061691 -78.789375 -24.89603
-20.983366 -80.336464 -26.762617
-22.836901 -77.193268 -26.902905
0.080697 -103.63459 -26.764885
0.677643 -103.319412 -28.905088
-1.860321 -101.996124 -28.591955
-8.270576 -96.263908 -30.149776
-6.129204 -97.738663 -31.131516
-8.270308 -95.224236 -32.037449
-8.159814 -94.03978 -33.86618
-10.36563 -92.441185 -32.885384
-19.360601 -78.345985 -1.518396
-1.425658 -60.524986 39.922115
-1.929514 -62.220634 37.988316
-1.283086 -64.598 36.441463
-2.640275 -64.001007 35.918751
-15.627682 -75.938263 15.944575
-14.537652 -75.463501 18.286001
-14.135033 -77.391647 16.039101
-12.569847 -78.881439 15.816228
-13.721192 -79.384262 13.528535
-13.109643 -81.426582 11.065588
-14.620116 -79.85746 11.147508
-16.592569 -79.762817 6.311508
-17.112434 -81.10865 1.246755
1.396533 -101.62957 -32.738342
-12.856139 -92.695045 -18.73209
-13.690388 -91.83149 -20.672955
-14.667053 -90.351646 -18.66708
-18.95899 -83.458916 -15.939848
-18.098349 -85.250694 -18.31801
-19.756573 -82.496338 -18.181595
-20.609509 -81.291611 -20.531338
-21.376698 -79.673676 -18.294071
-21.084185 -76.838303 -6.55312
-20.664371 -78.467346 -8.809135
-22.019423 -75.788574 -8.906476
-24.398344 -73.952454 -18.342054
3.632219 -65.37075 40.632786
4.599687 -71.522408 34.388474
5.207861 -69.812035 37.094978
3.38546 -79.44799 24.194218
4.963951 -79.879135 24.822868
4.227141 -81.665901 22.195429
5.178773 -84.111877 19.962334
3.463546 -83.600159 19.460459
-5.616109 -66.861443 31.929186
-4.175564 -67.617767 31.970106
-4.948628 -69.363945 30.124567
-5.678368 -77.680054 21.745237
-6.320217 -75.286232 24.016361
-4.636004 -75.870644 24.054274
-3.655777 -74.368179 25.947613
-3.054983 -76.771194 23.737928
-1.360098 -77.419159 23.777672
-2.282485 -79.036575 21.647644
-1.769449 -85.707054 14.268
-0.821582 -84.061943 16.670765
-0.006705 -86.547577 14.150608
1.869632 -87.352249 14.181757
0.935863 -88.965958 11.70663
1.971608 -91.258972 9.385991
0.058957 -90.535652 9.194467
-4.177681 -91.708298 4.430247
-2.111796 -92.980072 4.203487
-3.034714 -93.994408 1.721347
-2.002091 -96.095352 -0.957714
-4.229148 -94.595551 -0.676305
-11.933471 -85.395096 5.75528
-10.113287 -87.196007 5.338229
-11.094454 -87.535011 2.99401
-10.588598 -91.422569 -4.880975
-9.537365 -91.54068 -2.727271
-8.407208 -93.600471 -5.313007
-6.333125 -95.406502 -5.585343
-7.437289 -95.417274 -7.892432
-6.438117 -97.133102 -10.424944
-8.690336 -95.097504 -10.144952
-12.880303 -91.884872 -14.484056
-10.976186 -94.13591 -14.854177
-11.845257 -93.596695 -16.887865
-11.037823 -94.843597 -18.976793
8.121883 -107.274323 -20.124725
5.380045 -106.43074 -20.328308
3.783697 -105.853683 -22.919361
2.794988 -105.358154 -20.442392
-2.433289 -102.41774 -20.411291
-4.747998 -100.729584 -19.934029
-6.155303 -99.767136 -21.715399
-7.025052 -98.853783 -19.673719
-14.88046 -90.0868 -24.597361
-13.488619 -91.648651 -26.313354
-15.464643 -88.898247 -26.535988
-18.171942 -83.524422 -30.48822
-16.11002 -86.623817 -30.317049
-16.497889 -85.095375 -32.13995
-14.782145 -86.476616 -33.609962
-16.816711 -83.424828 -33.967274
-24.076193 -73.876152 -31.039982
-24.711088 -71.818359 -33.077278
-21.872114 -72.139557 -38.23156
-21.541618 -74.41613 -36.455814
-19.62336 -75.951347 -37.784683
-17.450085 -79.444809 -37.409939
-17.620592 -77.24292 -39.08226
-15.707624 -78.035034 -40.314842
-17.891094 -74.590431 -40.698994
-4.874846 -100.550201 -25.970016
-4.421638 -100.42691 -27.997015
-6.557737 -98.907082 -27.301277
-8.375423 -96.938271 -28.266239
-10.192053 -94.709595 -29.121645
-16.201828 -77.944153 11.229148
4.500126 -95.767937 4.75315
-14.658983 -89.571884 -14.212287
-15.626995 -88.68013 -16.372269
-16.498955 -86.902946 -13.826844
-18.090738 -84.436279 -13.826784
-19.556377 -81.894287 -13.496325
1.543501 -66.141716 37.482212
3.001542 -66.879715 38.178204
2.354689 -68.448639 35.755836
3.136237 -70.863419 33.763569
3.920545 -73.167732 31.825499
4.774911 -75.506737 29.839647
3.266203 -74.911644 29.286079
2.610163 -76.883018 26.579126
1.88555 -78.65966 24.125069
-9.114195 -75.872253 22.185541
-8.439875 -78.184906 19.921852
-6.783738 -79.041985 19.755249
-5.097005 -80.115982 19.282516
-3.282255 -80.918282 19.152884
-4.374097 -82.40979 16.948366
-3.629466 -84.743813 14.498324
-2.751555 -87.216164 11.864134
-1.918549 -89.532265 9.317228
-3.944591 -88.329216 9.645768
-4.951408 -89.536736 7.150014
-6.127394 -90.357445 4.744124
-13.900772 -85.562469 0.866377
-12.137626 -87.661209 0.489213
-13.25526 -87.402382 -1.82315
-12.554434 -89.232475 -4.532724
-11.637207 -91.1791 -7.156346
-10.784862 -92.979858 -9.893472
-12.750072 -90.692184 -9.482378
-13.651198 -90.270187 -11.783888
-18.572491 -84.563293 -24.67745
-17.390522 -86.03418 -26.690254
-19.258316 -83.137505 -26.677191
-19.703693 -81.884903 -28.687464
-20.111769 -80.44722 -30.721659
-22.135139 -69.681572 -39.941753
-20.021545 -71.015076 -41.135414
3.250808 -104.401505 -29.072153
1.151217 -102.697861 -30.825544
-1.078841 -100.589417 -32.41687
-3.985619 -100.031883 -29.936777
-3.604576 -99.302048 -31.871162
-3.460438 -98.161354 -33.672985
-17.418554 -82.518929 -3.849376
-18.393295 -81.802353 -6.45655
-18.780102 -80.245781 -3.859435
-20.182991 -77.655495 -3.893081
0.738224 -63.701683 39.190033
0.124632 -65.366852 36.923115
-0.54111 -67.005966 34.757637
-1.224255 -68.902596 32.44083
-11.374712 -78.129875 18.026047
-10.896426 -80.257706 15.578413
-10.263785 -82.515793 12.941604
-9.60905 -84.732674 10.231458
-11.393857 -83.16468 10.630816
-12.437106 -83.487488 8.49643
-13.557265 -83.683075 5.934038
-15.600857 -79.932877 8.789106
-15.165697 -81.816093 5.967841
-14.570761 -83.650391 3.487957
-15.580495 -83.423569 0.944062
-16.57884 -82.908867 -1.362831
-25.47908 -72.650284 -25.167152
-24.614773 -74.049385 -27.11591
-26.256977 -71.038399 -27.305737
-10.919381 -95.279625 -22.723444
-11.484104 -94.537994 -24.312798
-12.565663 -93.313286 -22.707804
-14.292293 -91.062042 -22.634031
-16.106276 -88.497108 -22.745331
-16.39819 -87.891342 -18.571758
-17.226692 -86.814911 -20.653742
-17.901941 -85.776772 -22.669811
-19.640358 -82.988014 -22.549618
-21.429829 -79.961403 -22.591484
-23.077425 -77.052628 -22.796791
-19.28845 -81.063736 -8.965045
-20.214045 -80.117226 -11.305697
-21.099041 -79.178955 -13.748535
-22.891453 -74.902313 -11.432194
-22.572348 -76.335442 -13.744386
-22.028019 -78.00238 -15.958669
-23.770332 -75.579208 -20.510235
-24.618311 -74.22937 -23.000477
-26.197165 -71.210236 -23.115429
4.461299 -67.553093 39.012798
6.51147 -80.396896 25.407501
7.560087 -82.900208 23.159803
-3.939171 -63.379372 35.530163
-3.406176 -65.818741 33.895504
-2.639589 -68.219299 32.23457
-1.851084 -70.821693 30.220415
-5.860899 -71.142303 28.189568
-4.203575 -71.850159 28.169161
-2.711999 -72.474968 28.201368
-1.129136 -73.199806 28.249325
-0.538789 -75.678215 26.004622
0.273352 -78.089409 23.847916
0.973312 -80.58622 21.467165
-1.560601 -81.691887 19.029902
0.122389 -82.331467 19.08873
1.816904 -83.139961 19.041109
2.716361 -85.579887 16.733273
3.718962 -88.028122 14.412292
4.744067 -90.254463 12.295531
3.226453 -93.550575 7.086451
2.296817 -94.905441 4.55631
-0.97543 -91.817787 6.775949
0.134193 -93.974648 4.415334
1.274169 -96.128723 1.941853
0.377515 -97.258011 -0.716323
-0.721685 -98.079109 -3.365513
-1.878417 -98.642159 -5.980685
-8.916321 -86.812859 7.618987
-8.268197 -88.781715 5.003623
-7.294092 -90.936905 2.330425
-10.340299 -89.623627 -0.00715
-8.426311 -91.33004 -0.159474
-6.306195 -93.081047 -0.462017
-5.406333 -95.01371 -3.131775
-4.093763 -97.124725 -5.794477
-3.015213 -98.983055 -8.552188
-4.105506 -99.071304 -10.883965
-5.516415 -98.664597 -12.956674
-6.584841 -98.44722 -15.408655
-9.792207 -94.793877 -12.626728
-8.827577 -96.366295 -15.101625
-7.928549 -97.71228 -17.48843
-9.04154 -96.961189 -19.35338
-10.047502 -96.143867 -21.125828
-9.255457 -97.035355 -22.988289
7.297889 -106.819359 -24.774437
4.502385 -105.95018 -24.987249
1.900536 -104.876991 -24.878393
-0.593443 -103.577621 -24.694206
0.077136 -103.959328 -20.456448
-1.572693 -103.079559 -22.597624
-2.99217 -102.08815 -24.481449
-5.428558 -100.34082 -23.980165
-7.476624 -98.672089 -23.432261
-11.759515 -93.920967 -25.947567
-12.035379 -93.06752 -27.771343
-12.107747 -92.233589 -29.659866
-15.801844 -87.85743 -28.402931
-14.144505 -89.493286 -29.965118
-12.448741 -90.859703 -31.505774
-12.602352 -89.52639 -33.268539
-12.629021 -88.121216 -34.996841
-23.453619 -75.655548 -28.98407
-22.215635 -77.058083 -30.799023
-20.813833 -78.362366 -32.625305
-23.174215 -73.235542 -34.76857
-21.209282 -76.468407 -34.567261
-19.039383 -79.952682 -34.305588
-17.056942 -81.594307 -35.787552
-17.968643 -71.898132 -42.258404
-1.207998 -100.585388 -9.802429
-0.618409 -101.393452 -11.055851
-2.608108 -61.874851 37.706148
-2.347622 -61.007984 38.605638
-2.963488 -62.765038 36.671366
-2.284895 -63.110821 36.953533
-2.608108 -61.874851 37.706148
4.305392 -98.184292 0.857855
4.692833 -97.471184 2.287643
3.12374 -97.719948 0.741825
4.305392 -98.184292 0.857855
0.334487 -99.723381 -34.434725
1.511799 -100.919865 -33.659443
0.219222 -100.433087 -33.513624
2.871455 -64.934433 40.243178
3.20187 -64.196968 41.446321
2.441107 -63.760651 41.056713
5.32712 -71.809216 34.781267
5.043256 -72.710209 33.396349
-6.001226 -67.805157 31.003537
-6.37462 -66.596158 31.808459
-6.759737 -67.539872 30.882809
5.618114 -106.217998 -17.895082
5.051609 -105.800525 -16.730438
4.812149 -106.070709 -19.136491
6.186011 -106.578029 -19.086899
5.618114 -106.217998 -17.895082
-5.216474 -100.21112 -18.889411
-3.984688 -101.151638 -18.995628
-4.453164 -100.633174 -17.95101
-25.618366 -70.193447 -33.214412
-25.269627 -71.283947 -32.205515
4.952725 -95.039524 6.073891
5.627823 -96.12003 4.949353
-9.088261 -78.740395 18.854191
-9.304203 -77.711673 19.972282
-9.95259 -78.267162 18.904622
-23.173645 -67.960316 -40.066799
-23.045331 -69.150295 -39.235048
-22.233458 -68.365364 -40.770502
-23.173645 -67.960316 -40.066799
2.931185 -104.609097 -28.017128
4.216088 -105.064995 -28.091496
3.896465 -105.272587 -27.036471
-5.854297 -96.149071 -33.82436
-4.631137 -96.83276 -34.185226
-4.683597 -97.477665 -33.312118
-9.328973 -91.793011 -35.049197
-8.191854 -93.29248 -34.681602
-9.296933 -92.54031 -34.233774
-10.475248 -90.177059 -35.4653
-9.328973 -91.793011 -35.049197
-20.39371 -76.773315 -2.650405
-19.771796 -78.00074 -2.705738
-19.982515 -77.118561 -1.463062
-20.988185 -75.61425 -2.758896
-20.777466 -76.49643 -4.001573
-20.39371 -76.773315 -2.650405
-0.335941 -62.129721 39.611066
-0.741391 -60.940773 40.27486
-1.020208 -61.713934 39.258321
0.061733 -63.302283 38.89228
0.34055 -62.529122 39.908819
-0.335941 -62.129721 39.611066
-13.210815 -75.847508 19.258402
-14.00649 -75.110703 19.340076
-13.741978 -76.200306 18.204327
-12.424177 -76.454727 19.209429
-13.210815 -75.847508 19.258402
-12.160508 -77.533493 18.074349
-11.638382 -77.051109 19.161127
-12.424177 -76.454727 19.209429
-16.32191 -78.970639 8.772239
-15.901342 -78.938515 10.009127
-16.622395 -77.976276 9.99226
-23.552013 -73.5131 -11.512988
-23.059587 -74.095901 -10.263921
-23.01941 -75.780304 -14.896265
-23.216622 -75.049786 -13.852187
-22.747245 -76.613773 -16.003406
-22.300184 -77.168911 -14.851527
-23.01941 -75.780304 -14.896265
-22.472847 -77.412159 -17.120359
-22.747245 -76.613773 -16.003406
-24.528484 -74.135318 -20.655625
-24.084338 -74.765831 -19.426144
-24.84249 -73.321942 -19.571534
-24.952473 -73.460399 -21.900745
-24.194322 -74.904289 -21.755356
-24.528484 -74.135318 -20.655625
-25.7419 -71.950832 -21.958222
-25.407738 -72.719803 -23.057953
-24.952473 -73.460399 -21.900745
5.546916 -69.098431 38.366735
5.99044 -70.254326 37.405555
4.834614 -77.702877 27.309286
5.195853 -76.733529 28.735827
4.413672 -76.476086 28.413106
6.333073 -83.432896 21.57778
7.180535 -83.77758 21.802301
6.712625 -82.555523 22.935282
5.699867 -85.381397 18.793905
4.844856 -85.123024 18.552251
-5.08705 -63.917994 34.413342
-5.459316 -64.833755 33.568197
-4.345522 -64.227413 34.636752
-4.680699 -63.069952 35.306753
-5.08705 -63.917994 34.413342
-7.682104 -75.548394 23.180728
-8.532241 -75.145577 23.218635
-8.264057 -76.27507 22.147635
-6.043551 -73.177574 26.213231
-6.584672 -74.048912 25.142283
-5.779096 -74.414894 25.087309
-5.549437 -72.342929 27.173913
-6.355013 -71.976947 27.228887
-6.043551 -73.177574 26.213231
3.470627 -90.883305 10.738567
4.421492 -91.137169 10.980206
3.793203 -90.000599 12.053892
7.76508 -107.138443 -22.468993
8.65937 -107.386486 -21.201094
7.227593 -107.02628 -21.392623
6.815596 -106.798798 -23.717479
8.247373 -107.159005 -23.525951
7.76508 -107.138443 -22.468993
-0.364874 -103.555687 -19.299516
0.886503 -104.244846 -19.242287
-13.901647 -85.501889 -36.053591
-12.742992 -87.139786 -35.869861
-13.787675 -86.483318 -35.180571
-23.364095 -72.128181 -35.76001
-24.180122 -71.457393 -34.969358
-24.370002 -70.350033 -35.960798
-15.24345 -81.786903 -37.933319
-16.243123 -81.219391 -37.27274
-16.450412 -80.012322 -38.070519
-14.233023 -82.316047 -38.561363
-15.24345 -81.786903 -37.933319
-14.374173 -81.189201 -39.255533
-14.233023 -82.316047 -38.561363
-14.461346 -78.776355 -40.772204
-15.665218 -76.890327 -41.035658
-19.129706 -69.971706 -42.487984
-18.995094 -71.456604 -41.696909
-20.156157 -69.530178 -41.926489
-1.218517 -101.44077 -12.287355
-0.618409 -101.393452 -11.055851
-2.466674 -100.633324 -12.271313
-1.218517 -101.44077 -12.287355
-18.900116 -78.643505 -0.127373
-18.677817 -79.487133 -1.356424
-18.217332 -79.784653 0.0346
-19.504638 -77.593338 -0.247108
-18.900116 -78.643505 -0.127373
-19.982515 -77.118561 -1.463062
-19.504638 -77.593338 -0.247108
-2.095695 -60.16016 39.572538
-1.754908 -59.346466 40.572753
-2.424945 -58.98164 40.223176
-1.677586 -61.37281 38.955215
-2.095695 -60.16016 39.572538
-2.347622 -61.007984 38.605638
-15.082667 -75.700882 17.115288
-15.287987 -74.735458 18.233743
-15.833002 -74.97284 17.06303
-17.273415 -78.731136 6.310681
-16.817766 -78.885608 7.53344
-17.071114 -79.579456 5.062591
-17.273415 -78.731136 6.310681
-16.866999 -80.456345 3.701736
-16.388455 -80.639705 4.950653
-17.071114 -79.579456 5.062591
-17.331046 -80.252373 2.530215
-16.648387 -81.312622 2.418277
-16.866999 -80.456345 3.701736
-17.776033 -80.024837 1.255202
-17.331046 -80.252373 2.530215
-18.217332 -79.784653 0.0346
-17.553733 -80.868465 0.026152
-17.776033 -80.024837 1.255202
-27.454974 -68.82011 -26.33649
-27.772604 -68.212788 -25.409368
2.788873 -102.060142 -32.830858
2.626498 -102.649449 -31.884589
2.788873 -102.060142 -32.830858
1.511799 -100.919865 -33.659443
-24.603279 -73.222336 -17.239786
-23.932408 -74.58881 -17.195099
-25.069847 -72.59348 -18.396136
-24.603279 -73.222336 -17.239786
-24.84249 -73.321942 -19.571534
-25.069847 -72.59348 -18.396136
3.902143 -64.567314 41.904965
3.20187 -64.196968 41.446321
4.358681 -65.758598 41.046488
4.628605 -64.955162 42.318666
3.902143 -64.567314 41.904965
5.631207 -70.954029 36.134519
4.903774 -70.667221 35.741726
5.32712 -71.809216 34.781267
5.99044 -70.254326 37.405555
5.631207 -70.954029 36.134519
3.987242 -84.867165 18.301313
4.844856 -85.123024 18.552251
4.32116 -83.856018 19.711396
-5.891434 -65.726749 32.66112
-6.37462 -66.596158 31.808459
-5.183991 -65.968449 32.836263
-5.459316 -64.833755 33.568197
-5.891434 -65.726749 32.66112
7.55693 -106.999821 -18.985108
8.835746 -107.319512 -18.753625
6.750964 -106.852531 -20.226517
7.55693 -106.999821 -18.985108
6.186011 -106.578029 -19.086899
-2.827334 -101.995716 -19.23426
-1.620086 -102.784893 -19.276937
-3.590643 -101.573662 -20.17266
-2.827334 -101.995716 -19.23426
-3.984688 -101.151638 -18.995628
-24.952179 -72.312843 -31.186867
-24.659232 -73.172032 -30.173307
-25.535218 -71.608723 -30.320193
-24.393641 -72.847256 -32.05863
-24.952179 -72.312843 -31.186867
-25.269627 -71.283947 -32.205515
-16.756954 -75.168026 -41.227734
-15.665218 -76.890327 -41.035658
-16.799359 -76.312732 -40.506918
-16.380429 -75.08754 15.859444
-15.833002 -74.97284 17.06303
-16.101241 -76.059383 14.793702
-16.380429 -75.08754 15.859444
-15.88178 -77.05085 13.560498
-15.408221 -76.92973 14.711371
-16.101241 -76.059383 14.793702
-16.388314 -77.062329 12.435989
-15.695294 -77.932674 12.353657
-15.88178 -77.05085 13.560498
-16.890943 -77.005855 11.205953
-16.388314 -77.062329 12.435989
-16.622395 -77.976276 9.99226
-16.890943 -77.005855 11.205953
5.16207 -96.794277 3.632491
5.627823 -96.12003 4.949353
4.030889 -96.444844 3.408301
4.692833 -97.471184 2.287643
5.16207 -96.794277 3.632491
-0.862148 -98.480961 -35.113363
-2.167165 -97.982922 -34.829578
-22.748423 -73.832569 -7.833806
-22.881648 -73.095172 -6.752014
4.703685 -73.532871 32.114862
5.043256 -72.710209 33.396349
4.260116 -72.34507 33.106987
4.347728 -74.337234 30.832573
5.130868 -74.702373 31.121935
4.703685 -73.532871 32.114862
-7.179784 -68.428539 30.02971
-6.759737 -67.539872 30.882809
-9.641364 -76.555347 21.104127
-9.921093 -75.419467 22.231722
-8.777035 -77.02858 21.053697
-9.641364 -76.555347 21.104127
-9.304203 -77.711673 19.972282
3.716395 -105.252915 -16.800655
5.051609 -105.800525 -16.730438
2.970061 -105.120521 -17.9864
3.716395 -105.252915 -16.800655
-5.054918 -99.953834 -16.747674
-4.453164 -100.633174 -17.95101
-24.523076 -69.317193 -36.91574
-24.370002 -70.350033 -35.960798
-23.754749 -69.81992 -37.639896
-24.523076 -69.317193 -36.91574
-22.913819 -70.379288 -38.379952
-22.713044 -71.580189 -37.491505
-23.754749 -69.81992 -37.639896
-22.003626 -70.910564 -39.086657
-22.913819 -70.379288 -38.379952
-23.045331 -69.150295 -39.235048
-21.176662 -69.032116 -41.367333
-21.078342 -70.348324 -40.538584
-22.233458 -68.365364 -40.770502
-20.156157 -69.530178 -41.926489
-21.176662 -69.032116 -41.367333
4.580842 -104.805504 -29.101539
4.216088 -105.064995 -28.091496
3.553636 -104.035416 -30.051495
4.580842 -104.805504 -29.101539
2.50384 -103.183594 -30.92819
3.553636 -104.035416 -30.051495
2.201013 -103.549683 -29.948849
1.273875 -102.163715 -31.781943
2.626498 -102.649449 -31.884589
2.50384 -103.183594 -30.92819
-3.41834 -97.445297 -34.521618
-2.167165 -97.982922 -34.829578
-2.209264 -98.698979 -33.980945
-3.41834 -97.445297 -34.521618
-4.631137 -96.83276 -34.185226
-6.980825 -94.771973 -34.281824
-5.854297 -96.149071 -33.82436
-7.033285 -95.416878 -33.408716
-6.980825 -94.771973 -34.281824
-8.191854 -93.29248 -34.681602
-21.228063 -76.087833 -5.331592
-20.633588 -77.246899 -5.223101
-20.777466 -76.49643 -4.001573
-21.820532 -74.856506 -5.341014
-21.676654 -75.606976 -6.562542
-21.228063 -76.087833 -5.331592
-22.427999 -73.6053 -5.503232
-21.820532 -74.856506 -5.341014
-22.881648 -73.095172 -6.752014
-22.427999 -73.6053 -5.503232
1.709077 -63.256088 40.703115
2.441107 -63.760651 41.056713
-1.074058 -59.833239 40.923304
-1.754908 -59.346466 40.572753
-1.074058 -59.833239 40.923304
-0.741391 -60.940773 40.27486
1.022844 -62.857872 40.371347
0.34055 -62.529122 39.908819
1.424458 -64.099899 39.521801
1.709077 -63.256088 40.703115
1.022844 -62.857872 40.371347
-14.755626 -74.41383 19.404086
-15.287987 -74.735458 18.233743
-14.755626 -74.41383 19.404086
-14.00649 -75.110703 19.340076
-10.771622 -77.684158 19.02438
-11.638382 -77.051109 19.161127
-10.55568 -78.712879 17.906289
-9.95259 -78.267162 18.904622
-10.771622 -77.684158 19.02438
-16.096713 -79.847847 7.550307
-16.32191 -78.970639 8.772239
-16.817766 -78.885608 7.53344
-27.073322 -69.483265 -27.369593
-26.638629 -70.375245 -26.272634
-27.454974 -68.82011 -26.33649
-26.65009 -70.113888 -28.366725
-27.073322 -69.483265 -27.369593
-26.142736 -70.828644 -29.367173
-25.749623 -71.753155 -28.306185
-26.65009 -70.113888 -28.366725
-26.435684 -69.969456 -30.380733
-25.535218 -71.608723 -30.320193
-26.142736 -70.828644 -29.367173
0.334487 -99.723381 -34.434725
-0.862148 -98.480961 -35.113363
-22.623573 -74.539032 -9.001062
-22.144273 -75.082111 -7.73922
-22.748423 -73.832569 -7.833806
-22.455438 -75.345444 -10.169335
-22.623573 -74.539032 -9.001062
-23.059587 -74.095901 -10.263921
-23.376174 -74.333222 -12.696091
-23.552013 -73.5131 -11.512988
-22.731901 -75.618877 -12.58829
-23.376174 -74.333222 -12.696091
-23.216622 -75.049786 -13.852187
-22.147187 -78.247807 -18.28806
-21.702359 -78.838028 -17.12637
-22.472847 -77.412159 -17.120359
-22.593932 -77.591813 -19.424128
-21.823443 -79.017682 -19.430138
-22.147187 -78.247807 -18.28806
-23.658009 -75.387196 -18.312052
-23.932408 -74.58881 -17.195099
-23.344003 -76.200573 -19.396142
-23.658009 -75.387196 -18.312052
-24.084338 -74.765831 -19.426144
-23.02026 -76.970448 -20.538221
-22.593932 -77.591813 -19.424128
-23.344003 -76.200573 -19.396142
-26.435129 -70.564465 -22.034746
-25.7419 -71.950832 -21.958222
-26.953471 -69.698307 -23.208751
-26.435129 -70.564465 -22.034746
-27.365029 -68.949234 -24.270803
-26.608723 -70.461163 -24.17748
-26.953471 -69.698307 -23.208751
-27.772604 -68.212788 -25.409368
-27.365029 -68.949234 -24.270803
4.773221 -66.84977 40.236494
4.358681 -65.758598 41.046488
4.046759 -66.461922 39.822792
5.173635 -67.96896 39.325645
4.83458 -68.682564 38.053888
5.546916 -69.098431 38.366735
4.773221 -66.84977 40.236494
5.173635 -67.96896 39.325645
5.517768 -75.862083 30.074479
5.130868 -74.702373 31.121935
5.517768 -75.862083 30.074479
5.195853 -76.733529 28.735827
5.290373 -78.919727 26.227438
4.834614 -77.702877 27.309286
4.508192 -78.662285 25.904716
6.064132 -79.178608 26.519754
5.290373 -78.919727 26.227438
5.737711 -80.138015 25.115184
6.875984 -79.519634 26.798252
6.064132 -79.178608 26.519754
7.318226 -80.638961 25.772838
6.875984 -79.519634 26.798252
7.842534 -81.890618 24.648989
7.318226 -80.638961 25.772838
7.035779 -81.648552 24.283652
8.401499 -83.075928 23.600343
7.842534 -81.890618 24.648989
8.076037 -84.031456 22.145941
8.401499 -83.075928 23.600343
8.076037 -84.031456 22.145941
7.180535 -83.77758 21.802301
5.989878 -84.383415 20.203567
6.333073 -83.432896 21.57778
5.521968 -83.161358 21.336548
5.989878 -84.383415 20.203567
5.699867 -85.381397 18.793905
-4.288632 -62.153736 36.196388
-4.680699 -63.069952 35.306753
-3.612936 -62.45422 36.477072
-4.288632 -62.153736 36.196388
-3.289723 -63.69019 35.724457
-2.963488 -62.765038 36.671366
-3.612936 -62.45422 36.477072
-6.901845 -69.554115 29.191351
-7.179784 -68.428539 30.02971
-9.388051 -74.686585 23.29633
-9.921093 -75.419467 22.231722
-9.388051 -74.686585 23.29633
-8.532241 -75.145577 23.218635
-7.135252 -74.852566 24.134045
-7.682104 -75.548394 23.180728
-6.867069 -75.982059 23.063045
-7.135252 -74.852566 24.134045
-6.584672 -74.048912 25.142283
-6.639123 -70.750832 28.247191
-6.355013 -71.976947 27.228887
-6.123621 -69.945587 29.133727
-6.901845 -69.554115 29.191351
-6.639123 -70.750832 28.247191
3.61365 -85.857029 16.937721
3.987242 -84.867165 18.301313
3.089954 -84.590023 18.096866
4.11495 -87.081146 15.77723
3.61365 -85.857029 16.937721
3.217662 -86.804004 15.572783
4.649259 -88.277244 14.672501
4.11495 -87.081146 15.77723
5.161812 -89.390415 13.614121
4.649259 -88.277244 14.672501
4.231515 -89.141292 13.353912
5.729754 -90.527366 12.553195
5.161812 -89.390415 13.614121
5.326863 -91.376034 11.216411
5.729754 -90.527366 12.553195
5.326863 -91.376034 11.216411
4.421492 -91.137169 10.980206
3.035262 -91.639423 9.525436
3.470627 -90.883305 10.738567
2.406973 -90.502854 10.599123
3.662685 -92.785225 8.375666
3.035262 -91.639423 9.525436
2.599031 -92.404774 8.236221
4.315888 -93.930843 7.240541
3.662685 -92.785225 8.375666
3.863289 -94.659256 5.919801
4.952725 -95.039524 6.073891
4.315888 -93.930843 7.240541
1.979998 -97.223434 0.681026
3.12374 -97.719948 0.741825
2.417911 -96.625236 2.002652
1.531671 -97.788078 -0.648062
1.979998 -97.223434 0.681026
0.825842 -96.693367 0.612765
0.935059 -98.240513 -2.005996
1.531671 -97.788078 -0.648062
0.385459 -98.651062 -3.330591
0.935059 -98.240513 -2.005996
-0.172085 -97.66856 -2.040918
-0.124216 -99.019558 -4.629005
0.385459 -98.651062 -3.330591
-0.702582 -99.301083 -5.936591
-0.124216 -99.019558 -4.629005
-1.300051 -98.360634 -4.673099
-1.229328 -99.566605 -7.247359
-0.702582 -99.301083 -5.936591
-1.797726 -99.737053 -8.533111
-1.229328 -99.566605 -7.247359
-2.446815 -98.812607 -7.266436
-2.425486 -99.83139 -9.821506
-1.207998 -100.585388 -9.802429
-1.797726 -99.737053 -8.533111
-3.601548 -99.829113 -12.167884
-2.466674 -100.633324 -12.271313
-2.970632 -99.875515 -10.987395
-4.307002 -99.62576 -13.204238
-3.601548 -99.829113 -12.167884
-4.810961 -98.867951 -11.920319
-4.970651 -99.439805 -14.303615
-4.307002 -99.62576 -13.204238
-5.504864 -99.331116 -15.529605
-4.970651 -99.439805 -14.303615
-6.050628 -98.555909 -14.182664
-6.134895 -99.069939 -16.626724
-5.054918 -99.953834 -16.747674
-5.504864 -99.331116 -15.529605
9.47157 -107.53653 -19.903792
8.835746 -107.319512 -18.753625
9.47157 -107.53653 -19.903792
8.65937 -107.386486 -21.201094
8.688379 -107.080265 -24.671605
8.247373 -107.159005 -23.525951
7.683148 -106.658062 -25.818689
8.688379 -107.080265 -24.671605
6.239629 -106.273922 -25.942639
7.683148 -106.658062 -25.818689
4.841876 -105.839333 -26.049045
6.239629 -106.273922 -25.942639
5.900137 -106.38477 -24.880843
3.556974 -105.383434 -25.974676
3.896465 -105.272587 -27.036471
4.841876 -105.839333 -26.049045
2.245429 -104.94426 -19.235259
3.51962 -105.534416 -19.193533
2.970061 -105.120521 -17.9864
1.436062 -104.658741 -20.44942
2.245429 -104.94426 -19.235259
0.886503 -104.244846 -19.242287
-1.178076 -103.188534 -20.43387
-0.364874 -103.555687 -19.299516
-1.620086 -102.784893 -19.276937
-11.572733 -88.717247 -35.663036
-10.475248 -90.177059 -35.4653
-11.531536 -89.581028 -34.799104
-11.572733 -88.717247 -35.663036
-12.742992 -87.139786 -35.869861
-24.948559 -70.748802 -34.123712
-25.618366 -70.193447 -33.214412
-23.942652 -72.52695 -33.922924
-24.948559 -70.748802 -34.123712
-24.180122 -71.457393 -34.969358
-16.046551 -82.29414 -36.461546
-17.253514 -80.519558 -36.598745
-16.243123 -81.219391 -37.27274
-14.991245 -83.919697 -36.24992
-16.001635 -83.219864 -35.575926
-16.046551 -82.29414 -36.461546
-13.901647 -85.501889 -36.053591
-14.991245 -83.919697 -36.24992
-14.502614 -79.916801 -40.047405
-14.374173 -81.189201 -39.255533
-15.579182 -79.307434 -39.52297
-14.502614 -79.916801 -40.047405
-14.461346 -78.776355 -40.772204
-16.795728 -73.821877 -42.007439
-16.756954 -75.168026 -41.227734
-17.929868 -73.244281 -41.478699
-18.122784 -70.430999 -42.930407
-19.129706 -69.971706 -42.487984
-16.888151 -72.341388 -42.713166
-18.122784 -70.430999 -42.930407
-16.795728 -73.821877 -42.007439
-16.888151 -72.341388 -42.713166
3 0 101 99
3 1 104 102
3 3 107 105
3 3 109 107
3 4 112 110
3 4 114 112
3 4 116 114
3 1 119 117
3 1 102 119
3 397 121 398
3 2 124 122
3 5 127 125
3 7 130 128
3 7 132 130
3 399 135 400
3 401 137 402
3 403 402 135
3 401 402 403
3 10 140 138
3 10 142 140
3 10 144 142
3 12 404 405
3 12 406 407
3 6 408 410
3 410 409 147
3 408 409 410
3 13 150 148
3 15 153 151
3 15 155 153
3 8 158 156
3 9 411 413
3 411 160 412
3 411 412 413
3 415 414 161
3 16 165 163
3 16 167 165
3 17 416 418
3 416 168 417
3 416 417 418
3 17 170 168
3 18 173 171
3 18 175 173
3 18 177 175
3 19 180 178
3 19 182 180
3 19 184 182
3 20 187 185
3 20 189 187
3 11 192 190
3 21 195 193
3 21 197 195
3 21 199 197
3 13 202 200
3 13 148 202
3 23 419 420
3 23 421 423
3 421 205 422
3 421 422 423
3 23 207 205
3 22 424 426
3 424 209 425
3 424 425 426
3 22 211 209
3 14 214 212
3 24 217 215
3 24 219 217
3 427 221 428
3 25 224 222
3 25 226 224
3 25 228 226
3 26 231 229
3 28 232 100
3 28 233 232
3 429 235 430
3 29 238 236
3 31 239 103
3 31 240 239
3 32 243 241
3 34 244 106
3 34 245 244
3 34 247 245
3 36 248 108
3 36 249 248
3 37 431 433
3 431 251 432
3 431 432 433
3 39 252 111
3 39 253 252
3 39 255 253
3 41 256 113
3 41 257 256
3 41 259 257
3 43 260 115
3 43 261 260
3 44 264 262
3 46 265 118
3 46 266 265
3 46 268 266
3 29 269 120
3 29 236 269
3 48 272 270
3 50 273 123
3 50 274 273
3 434 275 435
3 437 436 275
3 52 438 440
3 438 277 439
3 438 439 440
3 53 278 126
3 53 279 278
3 27 280 230
3 54 281 129
3 54 282 281
3 54 441 443
3 443 442 282
3 441 442 443
3 55 444 446
3 446 445 131
3 444 445 446
3 55 447 448
3 56 285 283
3 449 286 450
3 451 450 133
3 449 450 451
3 454 453 286
3 452 453 454
3 58 455 457
3 457 456 134
3 455 456 457
3 58 458 460
3 458 287 459
3 458 459 460
3 58 288 287
3 59 289 136
3 59 290 289
3 60 461 463
3 463 462 139
3 461 462 463
3 60 464 465
3 60 466 468
3 466 291 467
3 466 467 468
3 61 292 141
3 61 293 292
3 61 295 293
3 63 296 143
3 63 297 296
3 469 298 470
3 471 470 234
3 469 470 471
3 64 299 145
3 64 300 299
3 64 301 300
3 56 302 146
3 56 283 302
3 65 305 303
3 67 308 306
3 69 309 149
3 69 310 309
3 30 311 237
3 70 312 152
3 70 313 312
3 70 314 313
3 71 315 154
3 71 316 315
3 57 317 284
3 72 318 157
3 72 319 318
3 472 320 473
3 474 321 475
3 476 322 477
3 478 477 321
3 476 477 478
3 480 479 322
3 481 323 482
3 483 482 159
3 481 482 483
3 484 324 485
3 486 485 323
3 484 485 486
3 487 325 488
3 489 488 324
3 487 488 489
3 33 326 242
3 491 490 162
3 35 492 494
3 494 493 246
3 492 493 494
3 73 327 164
3 73 328 327
3 73 495 497
3 497 496 328
3 495 496 497
3 499 498 166
3 74 500 501
3 74 502 504
3 502 329 503
3 502 503 504
3 74 330 329
3 75 331 169
3 75 332 331
3 38 505 507
3 507 506 250
3 505 506 507
3 76 508 510
3 510 509 172
3 508 509 510
3 76 511 513
3 511 333 512
3 511 512 513
3 76 334 333
3 77 335 174
3 77 336 335
3 77 337 336
3 78 338 176
3 78 339 338
3 40 340 254
3 79 341 179
3 79 342 341
3 79 343 342
3 80 344 181
3 80 345 344
3 80 514 516
3 516 515 345
3 514 515 516
3 81 346 183
3 81 347 346
3 42 348 258
3 82 349 186
3 82 350 349
3 82 351 350
3 83 352 188
3 83 353 352
3 62 354 294
3 84 355 191
3 84 356 355
3 45 357 263
3 85 358 194
3 85 359 358
3 85 360 359
3 86 361 196
3 86 362 361
3 86 363 362
3 87 364 198
3 87 365 364
3 47 366 267
3 88 367 201
3 88 368 367
3 88 369 368
3 67 370 203
3 67 306 370
3 90 517 519
3 519 518 204
3 517 518 519
3 90 520 522
3 520 372 521
3 520 521 522
3 90 373 372
3 91 374 206
3 91 375 374
3 523 376 524
3 92 377 208
3 92 378 377
3 92 379 378
3 89 380 210
3 89 371 380
3 68 381 307
3 93 382 213
3 93 383 382
3 49 384 271
3 94 385 216
3 94 386 385
3 94 387 386
3 95 388 218
3 95 525 527
3 527 526 388
3 525 526 527
3 66 389 304
3 96 390 220
3 96 391 390
3 51 528 530
3 528 392 529
3 528 529 530
3 97 393 223
3 97 394 393
3 97 395 394
3 98 531 533
3 533 532 225
3 531 532 533
3 98 534 535
3 98 536 537
3 539 538 227
3 540 396 541
3 542 541 276
3 540 541 542
3 99 100 26
3 101 100 99
3 101 28 100
3 102 103 29
3 104 103 102
3 104 31 103
3 105 106 32
3 107 106 105
3 107 34 106
3 107 108 34
3 109 108 107
3 109 36 108
3 110 111 37
3 112 111 110
3 112 39 111
3 112 113 39
3 114 113 112
3 114 41 113
3 114 115 41
3 116 115 114
3 116 43 115
3 117 118 44
3 119 118 117
3 119 46 118
3 119 120 46
3 102 120 119
3 102 29 120
3 121 543 544
3 121 545 546
3 122 123 48
3 124 123 122
3 124 50 123
3 125 126 52
3 127 126 125
3 127 53 126
3 128 129 27
3 130 129 128
3 130 54 129
3 130 131 54
3 132 131 130
3 132 55 131
3 547 133 548
3 549 548 56
3 547 548 549
3 550 133 551
3 553 552 133
3 554 134 555
3 554 555 556
3 135 557 559
3 557 134 558
3 557 558 559
3 135 58 134
3 135 136 58
3 137 136 135
3 137 59 136
3 138 560 562
3 560 139 561
3 560 561 562
3 140 139 138
3 140 60 139
3 140 141 60
3 142 141 140
3 142 61 141
3 142 143 61
3 144 143 142
3 144 63 143
3 563 145 564
3 565 145 566
3 567 64 568
3 569 568 145
3 567 568 569
3 570 146 571
3 572 571 64
3 570 571 572
3 573 146 574
3 575 56 576
3 577 576 146
3 575 576 577
3 579 578 65
3 147 580 581
3 583 582 147
3 148 149 67
3 150 149 148
3 150 69 149
3 151 152 30
3 153 152 151
3 153 70 152
3 153 154 70
3 155 154 153
3 155 71 154
3 156 157 57
3 158 157 156
3 158 72 157
3 584 159 585
3 586 159 587
3 589 588 159
3 160 590 591
3 160 592 594
3 592 593 594
3 161 162 33
3 595 162 596
3 597 596 161
3 595 596 597
3 599 598 162
3 163 164 35
3 165 164 163
3 165 73 164
3 165 166 73
3 167 166 165
3 167 600 602
3 602 601 166
3 600 601 602
3 168 603 604
3 168 605 607
3 605 74 606
3 605 606 607
3 168 169 74
3 170 169 168
3 170 75 169
3 171 172 38
3 173 172 171
3 173 76 172
3 173 174 76
3 175 174 173
3 175 77 174
3 175 176 77
3 177 176 175
3 177 78 176
3 178 179 40
3 180 179 178
3 180 79 179
3 180 181 79
3 182 181 180
3 182 80 181
3 182 183 80
3 184 183 182
3 184 81 183
3 185 186 42
3 187 186 185
3 187 82 186
3 187 188 82
3 189 188 187
3 189 83 188
3 190 191 62
3 192 191 190
3 192 84 191
3 193 194 45
3 195 194 193
3 195 85 194
3 195 196 85
3 197 196 195
3 197 86 196
3 197 198 86
3 199 198 197
3 199 87 198
3 200 201 47
3 202 201 200
3 202 88 201
3 202 203 88
3 148 203 202
3 148 67 203
3 608 204 609
3 205 610 612
3 610 204 611
3 610 611 612
3 205 90 204
3 205 206 90
3 207 206 205
3 207 91 206
3 613 208 614
3 209 615 617
3 615 208 616
3 615 616 617
3 209 92 208
3 209 210 92
3 211 210 209
3 211 89 210
3 212 213 68
3 214 213 212
3 214 93 213
3 215 216 49
3 217 216 215
3 217 94 216
3 217 218 94
3 219 218 217
3 219 95 218
3 618 220 619
3 620 619 66
3 618 619 620
3 221 621 623
3 621 220 622
3 621 622 623
3 221 96 220
3 222 223 51
3 224 223 222
3 224 97 223
3 224 225 97
3 226 225 224
3 226 98 225
3 226 227 98
3 228 227 226
3 228 624 626
3 626 625 227
3 624 625 626
3 229 230 5
3 231 230 229
3 231 27 230
3 100 231 26
3 232 231 100
3 232 27 231
3 232 128 27
3 233 128 232
3 233 7 128
3 627 138 628
3 629 138 630
3 631 10 632
3 633 632 138
3 631 632 633
3 634 234 635
3 636 635 10
3 634 635 636
3 637 234 638
3 640 639 234
3 235 641 642
3 235 643 645
3 643 12 644
3 643 644 645
3 647 646 6
3 236 237 13
3 238 237 236
3 238 30 237
3 103 238 29
3 239 238 103
3 239 30 238
3 239 151 30
3 240 151 239
3 240 15 151
3 649 648 8
3 241 242 9
3 243 242 241
3 243 33 242
3 106 243 32
3 244 243 106
3 244 33 243
3 244 161 33
3 245 161 244
3 245 650 652
3 652 651 161
3 650 651 652
3 245 653 655
3 653 246 654
3 653 654 655
3 247 246 245
3 247 35 246
3 108 247 34
3 248 247 108
3 248 35 247
3 248 163 35
3 249 163 248
3 249 16 163
3 656 17 657
3 658 250 659
3 251 660 662
3 660 250 661
3 660 661 662
3 251 38 250
3 111 251 37
3 252 251 111
3 252 38 251
3 252 171 38
3 253 171 252
3 253 18 171
3 253 254 18
3 255 254 253
3 255 40 254
3 113 255 39
3 256 255 113
3 256 40 255
3 256 178 40
3 257 178 256
3 257 19 178
3 257 258 19
3 259 258 257
3 259 42 258
3 115 259 41
3 260 259 115
3 260 42 259
3 260 185 42
3 261 185 260
3 261 20 185
3 262 263 11
3 264 263 262
3 264 45 263
3 118 264 44
3 265 264 118
3 265 45 264
3 265 193 45
3 266 193 265
3 266 21 193
3 266 267 21
3 268 267 266
3 268 47 267
3 120 268 46
3 269 268 120
3 269 47 268
3 269 200 47
3 236 200 269
3 236 13 200
3 663 23 664
3 666 665 23
3 667 22 668
3 270 271 14
3 272 271 270
3 272 49 271
3 123 272 48
3 273 272 123
3 273 49 272
3 273 215 49
3 274 215 273
3 274 24 215
3 669 51 670
3 671 51 672
3 673 222 674
3 675 674 51
3 673 674 675
3 275 676 678
3 676 222 677
3 676 677 678
3 275 25 222
3 275 276 25
3 679 276 680
3 681 680 275
3 679 680 681
3 683 682 276
3 277 684 685
3 277 686 687
3 126 277 52
3 278 277 126
3 278 688 690
3 690 689 277
3 688 689 690
3 278 691 693
3 691 147 692
3 691 692 693
3 279 147 278
3 279 6 147
3 230 127 5
3 280 127 230
3 280 53 127
3 129 280 27
3 281 280 129
3 281 53 280
3 281 279 53
3 282 279 281
3 282 6 279
3 282 694 696
3 696 695 6
3 694 695 696
3 698 697 282
3 131 699 701
3 701 700 54
3 699 700 701
3 703 702 131
3 283 284 1
3 285 284 283
3 285 57 284
3 133 285 56
3 286 285 133
3 286 57 285
3 286 156 57
3 704 156 705
3 706 705 286
3 704 705 706
3 707 8 708
3 709 708 156
3 707 708 709
3 710 8 711
3 713 712 8
3 714 9 715
3 134 716 717
3 719 718 134
3 287 720 721
3 287 722 724
3 722 9 723
3 722 723 724
3 287 241 9
3 288 241 287
3 288 32 241
3 136 288 58
3 289 288 136
3 289 32 288
3 289 105 32
3 290 105 289
3 290 3 105
3 139 725 726
3 728 727 139
3 291 729 730
3 291 731 733
3 731 37 732
3 731 732 733
3 141 291 60
3 292 291 141
3 292 37 291
3 292 110 37
3 293 110 292
3 293 4 110
3 293 294 4
3 295 294 293
3 295 62 294
3 143 295 61
3 296 295 143
3 296 62 295
3 296 190 62
3 297 190 296
3 297 11 190
3 234 144 10
3 298 144 234
3 298 63 144
3 145 734 736
3 734 298 735
3 734 735 736
3 299 298 145
3 299 63 298
3 299 297 63
3 300 297 299
3 300 11 297
3 300 262 11
3 301 262 300
3 301 44 262
3 146 301 64
3 302 301 146
3 302 44 301
3 302 117 44
3 283 117 302
3 283 1 117
3 303 304 2
3 305 304 303
3 305 66 304
3 737 305 738
3 739 738 65
3 737 738 739
3 740 305 741
3 742 66 743
3 744 743 305
3 742 743 744
3 747 746 66
3 745 746 747
3 749 748 6
3 306 307 0
3 308 307 306
3 308 68 307
3 149 308 67
3 309 308 149
3 309 68 308
3 309 212 68
3 310 212 309
3 310 14 212
3 237 150 13
3 311 150 237
3 311 69 150
3 152 311 30
3 312 311 152
3 312 69 311
3 312 310 69
3 313 310 312
3 313 14 310
3 313 270 14
3 314 270 313
3 314 48 270
3 154 314 70
3 315 314 154
3 315 48 314
3 315 122 48
3 316 122 315
3 316 2 122
3 284 104 1
3 317 104 284
3 317 31 104
3 157 317 57
3 318 317 157
3 318 31 317
3 318 240 31
3 319 240 318
3 319 15 240
3 750 158 751
3 752 751 8
3 750 751 752
3 320 753 755
3 753 158 754
3 753 754 755
3 320 72 158
3 756 320 757
3 321 758 760
3 758 320 759
3 758 759 760
3 321 72 320
3 321 319 72
3 322 319 321
3 322 15 319
3 322 155 15
3 761 155 762
3 763 762 322
3 761 762 763
3 764 71 765
3 766 765 155
3 764 765 766
3 159 767 768
3 323 769 771
3 771 770 159
3 769 770 771
3 323 772 774
3 772 71 773
3 772 773 774
3 323 316 71
3 324 316 323
3 324 2 316
3 324 303 2
3 325 303 324
3 325 65 303
3 775 325 776
3 777 325 778
3 779 65 780
3 781 780 325
3 779 780 781
3 783 782 65
3 242 160 9
3 326 160 242
3 326 784 786
3 786 785 160
3 784 785 786
3 162 326 33
3 787 326 788
3 789 788 162
3 787 788 789
3 791 790 326
3 246 792 793
3 795 794 246
3 164 796 798
3 798 797 35
3 796 797 798
3 327 799 801
3 801 800 164
3 799 800 801
3 327 802 803
3 327 804 805
3 328 806 808
3 808 807 327
3 806 807 808
3 328 809 810
3 328 811 812
3 814 813 328
3 166 815 817
3 817 816 73
3 815 816 817
3 819 818 166
3 329 820 821
3 329 822 823
3 329 824 826
3 824 137 825
3 824 825 826
3 330 137 329
3 330 59 137
3 169 330 74
3 331 330 169
3 331 59 330
3 331 290 59
3 332 290 331
3 332 3 290
3 827 17 828
3 250 829 830
3 832 831 250
3 172 833 835
3 835 834 38
3 833 834 835
3 837 836 172
3 333 838 839
3 333 840 842
3 840 17 841
3 840 841 842
3 333 170 17
3 334 170 333
3 334 75 170
3 174 334 76
3 335 334 174
3 335 75 334
3 335 332 75
3 336 332 335
3 336 3 332
3 336 109 3
3 337 109 336
3 337 36 109
3 176 337 77
3 338 337 176
3 338 36 337
3 338 249 36
3 339 249 338
3 339 16 249
3 254 177 18
3 340 177 254
3 340 78 177
3 179 340 40
3 341 340 179
3 341 78 340
3 341 339 78
3 342 339 341
3 342 16 339
3 342 167 16
3 343 167 342
3 343 843 845
3 845 844 167
3 843 844 845
3 181 343 79
3 344 343 181
3 344 846 848
3 848 847 343
3 846 847 848
3 344 849 850
3 345 851 853
3 853 852 344
3 851 852 853
3 345 854 855
3 345 856 857
3 859 858 345
3 183 860 862
3 862 861 80
3 860 861 862
3 346 863 865
3 865 864 183
3 863 864 865
3 346 866 867
3 346 868 870
3 868 235 869
3 868 869 870
3 347 235 346
3 347 12 235
3 258 184 19
3 348 184 258
3 348 81 184
3 186 348 42
3 349 348 186
3 349 81 348
3 349 347 81
3 350 347 349
3 350 12 347
3 350 871 873
3 873 872 12
3 871 872 873
3 351 874 876
3 876 875 350
3 874 875 876
3 351 877 878
3 188 351 82
3 352 351 188
3 352 879 881
3 881 880 351
3 879 880 881
3 352 882 883
3 353 884 886
3 886 885 352
3 884 885 886
3 353 887 888
3 294 116 4
3 354 116 294
3 354 43 116
3 191 354 62
3 355 354 191
3 355 43 354
3 355 261 43
3 356 261 355
3 356 20 261
3 263 192 11
3 357 192 263
3 357 84 192
3 194 357 45
3 358 357 194
3 358 84 357
3 358 356 84
3 359 356 358
3 359 20 356
3 359 189 20
3 360 189 359
3 360 83 189
3 196 360 85
3 361 360 196
3 361 83 360
3 361 353 83
3 362 353 361
3 362 889 891
3 891 890 353
3 889 890 891
3 362 892 894
3 892 121 893
3 892 893 894
3 363 121 362
3 363 895 897
3 897 896 121
3 895 896 897
3 198 363 86
3 364 363 198
3 364 898 900
3 900 899 363
3 898 899 900
3 364 901 902
3 365 903 905
3 905 904 364
3 903 904 905
3 365 906 908
3 906 22 907
3 906 907 908
3 267 199 21
3 366 199 267
3 366 87 199
3 201 366 47
3 367 366 201
3 367 87 366
3 367 365 87
3 368 365 367
3 368 22 365
3 368 211 22
3 369 211 368
3 369 89 211
3 203 369 88
3 370 369 203
3 370 89 369
3 370 371 89
3 306 371 370
3 306 0 371
3 204 909 910
3 912 911 204
3 372 913 914
3 372 915 916
3 372 917 918
3 373 919 921
3 921 920 372
3 919 920 921
3 373 922 924
3 922 52 923
3 922 923 924
3 206 373 90
3 374 373 206
3 374 52 373
3 374 125 52
3 375 125 374
3 375 5 125
3 925 207 926
3 927 926 23
3 925 926 927
3 376 928 930
3 928 207 929
3 928 929 930
3 376 91 207
3 208 931 933
3 931 376 932
3 931 932 933
3 377 376 208
3 377 91 376
3 377 375 91
3 378 375 377
3 378 5 375
3 378 229 5
3 379 229 378
3 379 26 229
3 210 379 92
3 380 379 210
3 380 26 379
3 380 99 26
3 371 99 380
3 371 0 99
3 307 101 0
3 381 101 307
3 381 28 101
3 213 381 68
3 382 381 213
3 382 28 381
3 382 233 28
3 383 233 382
3 383 7 233
3 271 214 14
3 384 214 271
3 384 93 214
3 216 384 49
3 385 384 216
3 385 93 384
3 385 383 93
3 386 383 385
3 386 7 383
3 386 132 7
3 387 132 386
3 387 55 132
3 218 387 94
3 388 387 218
3 388 55 387
3 388 934 936
3 936 935 55
3 934 935 936
3 938 937 388
3 304 124 2
3 389 124 304
3 389 50 124
3 220 389 66
3 390 389 220
3 390 50 389
3 390 274 50
3 391 274 390
3 391 24 274
3 939 221 940
3 392 941 943
3 941 221 942
3 941 942 943
3 392 96 221
3 223 392 51
3 393 392 223
3 393 96 392
3 393 391 96
3 394 391 393
3 394 24 391
3 394 219 24
3 395 219 394
3 395 95 219
3 225 395 97
3 944 395 945
3 946 945 225
3 944 945 946
3 947 95 948
3 949 948 395
3 947 948 949
3 951 950 95
3 227 952 954
3 954 953 98
3 952 953 954
3 956 955 227
3 276 228 25
3 396 228 276
3 396 957 959
3 959 958 228
3 957 958 959
3 960 396 961
3 962 396 963
3 965 964 396
