ply
format ascii 1.0
element vertex 444
property float x
property float y
property float z
element face 393
property list uchar int vertex_index
end_header
35.251774 74.728706 -29.485252
33.986862 77.297798 -3.607514
35.545082 47.15015 -39.475239
32.001419 89.708946 -25.27212
34.891945 78.149864 -17.150377
35.919476 62.233814 3.785294
32.941936 72.365532 10.272032
36.657757 66.092178 -30.737013
36.687061 69.010109 -25.347551
34.467392 78.351204 -10.585112
35.605537 71.166519 -6.558722
34.975819 70.017479 0.173495
33.679958 79.489433 -33.351173
35.054012 71.127975 -34.803547
36.178795 62.327629 -35.637371
33.677296 82.797043 -27.553072
35.20657 76.87793 -23.473619
33.604973 84.124329 -21.292713
36.26889 43.148281 15.66022
36.628368 34.670036 17.694038
34.353146 67.700417 6.714783
35.130203 59.750206 10.012327
35.825813 51.419228 12.958061
35.225212 57.209541 -39.582165
36.937683 52.896965 -36.164242
35.98859 70.364426 -30.241577
36.744541 67.438286 -28.197266
36.032642 71.723618 -27.423742
34.225994 78.022629 -7.15813
34.998035 74.998993 -8.448271
34.777664 74.354836 -5.135904
35.328487 70.546402 -3.172059
34.502705 73.703392 -1.824459
34.508133 77.079956 -31.546761
34.364853 75.477341 -34.20475
35.182793 73.091354 -32.31126
35.860332 68.717712 -32.906887
33.502506 46.117702 -42.404476
32.858891 86.352684 -26.534008
33.652386 83.651932 -24.466658
32.831413 87.102814 -23.143023
33.096695 84.549156 -10.716907
31.983112 88.796631 -28.485193
32.875526 85.102722 -29.745951
36.504539 38.990982 16.592344
35.079475 77.589317 -20.325422
35.910515 73.657623 -21.533669
33.906593 71.448586 5.263692
33.601963 70.149796 8.529138
34.31427 62.520214 11.654436
35.517952 55.588852 11.448936
35.257317 50.041592 15.895709
34.84066 61.943539 -39.546837
36.957729 59.846523 -33.8386
36.641998 57.445164 -35.928757
37.252731 61.46109 -31.396265
37.386333 63.090336 -28.881775
34.65992 78.539909 -13.948483
35.515148 74.864128 -15.097593
35.312035 74.84951 -11.733521
35.494114 65.947479 2.056111
33.242649 68.567703 12.145799
35.321682 64.503387 -37.514629
35.674328 66.62825 -35.293503
36.500786 64.280174 -33.22192
34.469872 78.879616 -28.709417
35.23978 76.041801 -26.611242
34.461525 79.910599 -25.738579
34.436264 80.480591 -22.52887
34.282665 81.144852 -19.357969
32.763779 87.517197 -19.810713
33.498737 84.420387 -17.987503
34.109486 81.456238 -15.903296
33.866589 81.679634 -12.388849
33.694511 81.315926 -9.07971
33.499916 80.586014 -5.41211
32.828926 83.655945 -32.527763
33.738804 81.160744 -30.611113
35.945286 73.081223 -24.66501
33.721203 76.445557 -0.113533
34.171696 72.804245 1.848241
34.645592 69.061966 3.506626
35.079632 65.143478 5.31889
33.960979 66.508125 10.029053
34.719131 63.827847 8.499495
35.536598 61.230743 6.772254
35.981651 56.979092 8.358863
36.364017 52.850056 9.860086
36.669754 48.638687 11.408073
36.104115 47.198143 14.300833
35.472759 45.977161 17.09753
35.463936 52.38184 -39.567337
35.780922 59.815563 -37.750633
36.156891 55.028019 -37.821484
36.325054 50.438694 -37.937187
35.018896 45.640871 -40.191979
35.06979 48.209677 -40.276731
31.992265 89.252789 -26.878656
31.560388 90.359016 -27.768524
31.569542 90.815174 -26.161988
35.292026 76.372448 -17.817887
35.385791 76.092174 -19.405409
34.98571 77.86959 -18.737899
36.348896 60.728277 3.02408
36.113625 62.64967 2.181332
36.158831 60.25441 4.512458
36.348896 60.728277 3.02408
32.742987 74.219475 9.52503
32.601123 73.49915 11.313332
33.072783 73.177903 8.529885
32.742987 74.219475 9.52503
33.271949 71.257664 9.400585
33.402796 72.070034 7.658438
33.072783 73.177903 8.529885
34.619619 64.376173 -39.376028
34.365553 62.815943 -40.359644
37.185949 57.505418 -33.947449
37.344273 58.419029 -32.85966
37.027126 66.945053 -25.740904
37.055866 66.159142 -27.165762
36.715801 68.224198 -26.772408
37.011555 67.508461 -24.326636
37.027126 66.945053 -25.740904
35.72635 71.355114 -8.14772
35.4226 73.271351 -9.092495
35.301786 73.082756 -7.503497
36.031505 69.406418 -7.157611
35.72635 71.355114 -8.14772
35.857383 69.341221 -5.474981
36.031505 69.406418 -7.157611
35.387595 68.489952 -0.521337
35.563929 68.754413 -2.194114
35.152153 70.28194 -1.499282
35.234966 67.982479 1.114803
35.646742 66.454952 0.419971
35.387595 68.489952 -0.521337
33.566811 78.688606 -34.645077
33.18094 80.741215 -34.270641
34.59018 72.356777 -35.74334
34.2456 74.53146 -35.443941
34.709432 73.302658 -34.504148
34.935823 70.154465 -35.880434
34.59018 72.356777 -35.74334
35.36417 68.878113 -35.048525
35.245981 67.904602 -36.125412
34.935823 70.154465 -35.880434
32.787441 44.354366 -43.020416
33.395092 43.568777 -42.242602
32.335237 89.079003 -19.102514
32.400898 88.817532 -20.771383
33.401718 84.533207 -16.194662
33.070594 86.073689 -17.226415
33.707093 83.051132 -15.152558
33.804111 82.938312 -16.9454
33.401718 84.533207 -16.194662
33.585644 83.16283 -13.395335
33.988037 81.567936 -14.146072
33.707093 83.051132 -15.152558
33.310467 82.66647 -8.139127
33.395603 82.932541 -9.898309
33.011558 84.283085 -8.957726
33.213169 82.301514 -6.305327
33.597213 80.95097 -7.24591
33.310467 82.66647 -8.139127
32.38835 85.566391 -32.003861
32.333632 84.736321 -33.457832
36.697916 41.589207 14.899138
36.597805 43.679564 14.278773
36.953524 35.182299 16.510849
36.891609 37.342771 15.960002
36.566454 36.830509 17.143191
36.998075 33.077158 17.040739
36.953524 35.182299 16.510849
36.26325 71.851619 -21.976585
36.2129 72.167 -20.474459
35.936934 72.967568 -15.704691
35.804699 73.206527 -14.059606
33.591135 75.82156 1.711247
33.359124 77.65485 0.816007
33.816381 74.000904 2.692134
33.946449 74.624901 0.867354
33.591135 75.82156 1.711247
33.78229 65.637745 11.728704
33.601814 67.537914 11.087426
33.423125 66.667534 12.787078
35.082575 47.162054 17.95513
35.365038 48.009377 16.49662
34.974854 49.19427 17.35422
35.20022 45.158859 18.38079
35.082575 47.162054 17.95513
34.824026 55.786287 -40.452374
34.723396 58.130865 -40.441386
35.344574 54.79569 -39.574751
34.943388 53.372436 -40.444959
34.824026 55.786287 -40.452374
37.054833 50.66894 -36.156176
36.748518 49.439804 -37.042648
36.631369 51.667829 -37.050714
34.048502 47.693452 -41.74135
33.503131 48.673653 -42.550724
33.997608 45.124647 -41.656597
34.048502 47.693452 -41.74135
33.395092 43.568777 -42.242602
33.997608 45.124647 -41.656597
32.803348 86.056858 -11.725789
33.200697 84.597591 -12.559363
32.702305 85.98468 -9.984322
32.803348 86.056858 -11.725789
33.011558 84.283085 -8.957726
32.702305 85.98468 -9.984322
31.50382 89.836017 -29.438215
31.560388 90.359016 -27.768524
31.965443 88.136734 -29.982575
31.50382 89.836017 -29.438215
32.429319 86.949677 -29.115572
32.41165 86.28978 -30.612955
31.965443 88.136734 -29.982575
36.095236 40.254202 17.418693
36.386714 41.069631 16.126282
35.977411 42.332852 16.952631
36.173954 38.149698 17.916535
36.095236 40.254202 17.418693
36.235869 35.989225 18.467382
36.566454 36.830509 17.143191
36.173954 38.149698 17.916535
35.801311 74.126328 -20.009533
35.494995 75.62347 -20.929545
35.385791 76.092174 -19.405409
36.2129 72.167 -20.474459
35.801311 74.126328 -20.009533
33.555111 72.71943 6.025716
33.68383 73.323075 4.399859
33.754278 70.799191 6.896415
33.555111 72.71943 6.025716
33.402796 72.070034 7.658438
34.115628 61.720925 13.232218
33.958935 63.643789 12.541396
34.501925 60.415411 12.382855
34.115628 61.720925 13.232218
34.909891 59.030407 11.561801
34.722237 61.13521 10.833382
34.501925 60.415411 12.382855
35.103766 56.94973 12.280105
35.324078 57.669529 10.730632
34.909891 59.030407 11.561801
35.255356 54.969353 12.951714
35.103766 56.94973 12.280105
35.409286 52.884541 13.706276
35.671882 53.50404 12.203499
35.255356 54.969353 12.951714
35.125039 52.195723 15.1751
35.541565 50.73041 14.426885
35.409286 52.884541 13.706276
34.885677 51.261877 16.682302
35.125039 52.195723 15.1751
34.974854 49.19427 17.35422
34.885677 51.261877 16.682302
34.531121 60.497864 -40.423721
34.365553 62.815943 -40.359644
35.032936 59.57654 -39.564501
34.723396 58.130865 -40.441386
34.531121 60.497864 -40.423721
37.028084 56.304739 -34.992527
36.799864 58.645843 -34.883679
37.185949 57.505418 -33.947449
37.175926 54.030639 -35.11027
36.78984 55.171064 -36.046499
37.028084 56.304739 -34.992527
37.311394 51.804123 -35.284607
37.175926 54.030639 -35.11027
35.516298 44.800962 -39.365778
35.990515 46.40019 -38.641537
32.019718 89.913407 -23.502086
31.580934 91.203579 -24.454422
31.580934 91.203579 -24.454422
31.569542 90.815174 -26.161988
37.607933 60.042518 -30.382948
37.491773 59.226312 -31.638492
37.674734 60.857141 -29.125703
37.607933 60.042518 -30.382948
37.319532 62.275713 -30.13902
37.700428 61.733139 -27.894317
37.674734 60.857141 -29.125703
37.376762 63.985167 -27.508017
37.065437 65.264311 -28.539521
37.055866 66.159142 -27.165762
37.700428 61.733139 -27.894317
37.376762 63.985167 -27.508017
35.703142 73.199219 -12.37757
35.804699 73.206527 -14.059606
35.413592 74.856819 -13.415557
35.5796 73.196609 -10.735119
35.155035 74.924251 -10.090896
35.4226 73.271351 -9.092495
35.703142 73.199219 -12.37757
35.5796 73.196609 -10.735119
35.718858 69.031162 -3.781649
35.857383 69.341221 -5.474981
35.467012 70.85646 -4.865391
35.718858 69.031162 -3.781649
35.563929 68.754413 -2.194114
35.900944 64.506502 1.316741
35.646742 66.454952 0.419971
35.706795 64.090647 2.920702
36.113625 62.64967 2.181332
35.900944 64.506502 1.316741
32.787252 71.606811 11.984179
32.601123 73.49915 11.313332
32.937608 69.707897 12.921062
33.092292 70.466617 11.208915
32.787252 71.606811 11.984179
33.100153 67.688087 13.722746
32.937608 69.707897 12.921062
33.423125 66.667534 12.787078
33.100153 67.688087 13.722746
33.909258 76.68256 -35.071865
33.566811 78.688606 -34.645077
34.022405 77.483387 -33.777962
33.909258 76.68256 -35.071865
34.2456 74.53146 -35.443941
35.069659 66.842171 -37.235975
34.86013 65.656097 -38.359924
35.498005 65.565819 -36.404066
35.069659 66.842171 -37.235975
35.245981 67.904602 -36.125412
37.491773 59.226312 -31.638492
37.344273 58.419029 -32.85966
37.10523 60.653807 -32.617432
32.91052 46.880396 -43.162455
33.503131 48.673653 -42.550724
32.91052 46.880396 -43.162455
32.787441 44.354366 -43.020416
35.018896 45.640871 -40.191979
35.516298 44.800962 -39.365778
32.434715 88.610341 -22.437537
32.416416 88.40588 -24.207572
32.019718 89.913407 -23.502086
32.797596 87.310005 -21.476868
32.434715 88.610341 -22.437537
32.400898 88.817532 -20.771383
32.703115 87.622094 -18.138019
32.335237 89.079003 -19.102514
33.131258 85.968792 -18.899108
32.703115 87.622094 -18.138019
33.070594 86.073689 -17.226415
33.481642 83.114395 -11.552878
33.585644 83.16283 -13.395335
33.200697 84.597591 -12.559363
32.755425 82.824471 -33.858936
32.333632 84.736321 -33.457832
33.254442 81.572689 -32.939468
33.18094 80.741215 -34.270641
32.755425 82.824471 -33.858936
32.852226 84.379334 -31.136857
32.38835 85.566391 -32.003861
32.41165 86.28978 -30.612955
36.815741 39.510557 15.3652
36.697916 41.589207 14.899138
36.386714 41.069631 16.126282
36.815741 39.510557 15.3652
36.891609 37.342771 15.960002
36.267094 33.954296 18.965671
36.235869 35.989225 18.467382
36.63624 32.514767 18.261277
36.267094 33.954296 18.965671
36.998075 33.077158 17.040739
36.63624 32.514767 18.261277
36.280636 71.563419 -23.542255
35.9279 73.369423 -23.099339
36.26325 71.851619 -21.976585
36.651523 69.527862 -23.883525
36.316174 71.045666 -25.00628
36.280636 71.563419 -23.542255
37.011555 67.508461 -24.326636
36.651523 69.527862 -23.883525
35.603628 74.72958 -16.791495
35.292026 76.372448 -17.817887
35.203547 76.506996 -16.123985
35.603628 74.72958 -16.791495
35.936934 72.967568 -15.704691
33.102054 81.997181 -4.529707
33.213169 82.301514 -6.305327
33.348866 80.333969 -3.609396
33.102054 81.997181 -4.529707
33.592338 78.689861 -2.707098
33.743389 78.941906 -4.509812
33.348866 80.333969 -3.609396
33.459509 78.26374 -0.960108
33.359124 77.65485 0.816007
33.854033 76.871678 -1.860523
33.592338 78.689861 -2.707098
33.459509 78.26374 -0.960108
34.039144 72.126416 3.555966
33.816381 74.000904 2.692134
33.68383 73.323075 4.399859
34.137625 64.51417 10.841745
33.78229 65.637745 11.728704
33.958935 63.643789 12.541396
35.967392 59.752874 6.005938
36.158831 60.25441 4.512458
35.728037 61.732278 5.278774
36.189919 57.627049 6.799243
35.967392 59.752874 6.005938
35.759124 59.104917 7.565558
36.398981 55.495069 7.680581
36.189919 57.627049 6.799243
36.590164 53.430551 8.431192
36.398981 55.495069 7.680581
36.172834 54.914574 9.109475
36.802305 51.307681 9.124056
36.590164 53.430551 8.431192
36.955174 49.201996 9.898049
36.802305 51.307681 9.124056
36.516886 50.744371 10.63408
37.078987 47.10284 10.741649
36.955174 49.201996 9.898049
36.798237 46.424766 12.152699
37.078987 47.10284 10.741649
36.515417 45.704494 13.599079
36.798237 46.424766 12.152699
36.386934 47.918415 12.854453
36.186503 45.173212 14.980526
36.597805 43.679564 14.278773
36.515417 45.704494 13.599079
35.579346 43.747292 17.671287
35.977411 42.332852 16.952631
35.870824 44.562721 16.378875
35.579346 43.747292 17.671287
35.20022 45.158859 18.38079
35.029217 50.825521 -40.322781
34.943388 53.372436 -40.444959
35.504509 49.765995 -39.521288
35.06979 48.209677 -40.276731
35.029217 50.825521 -40.322781
35.081171 63.223463 -38.530733
34.619619 64.376173 -39.376028
34.86013 65.656097 -38.359924
36.3805 48.044462 -37.872511
35.990515 46.40019 -38.641537
35.935068 48.794422 -38.706213
36.3805 48.044462 -37.872511
36.748518 49.439804 -37.042648
37.054833 50.66894 -36.156176
37.311394 51.804123 -35.284607
3 0 27 25
3 1 30 28
3 1 32 30
3 0 35 33
3 0 25 35
3 2 95 96
3 3 40 38
3 3 97 99
3 97 42 98
3 97 98 99
3 3 38 42
3 4 100 102
3 102 101 45
3 100 101 102
3 5 103 104
3 5 105 106
3 6 107 108
3 6 109 110
3 6 111 113
3 111 48 112
3 111 112 113
3 114 52 115
3 117 116 53
3 7 56 55
3 8 118 120
3 120 119 26
3 118 119 120
3 8 121 122
3 9 59 57
3 10 123 125
3 125 124 29
3 123 124 125
3 10 126 127
3 10 128 129
3 11 130 132
3 132 131 31
3 130 131 132
3 11 133 135
3 133 60 134
3 133 134 135
3 12 136 137
3 13 138 140
3 140 139 34
3 138 139 140
3 13 141 142
3 13 143 145
3 143 63 144
3 143 144 145
3 7 64 36
3 7 55 64
3 147 146 37
3 15 67 65
3 17 68 39
3 17 69 68
3 148 70 149
3 150 71 151
3 152 72 153
3 154 153 71
3 152 153 154
3 155 73 156
3 157 156 72
3 155 156 157
3 158 74 159
3 160 159 41
3 158 159 160
3 161 75 162
3 163 162 74
3 161 162 163
3 164 76 165
3 15 77 43
3 15 65 77
3 18 166 167
3 19 168 170
3 170 169 44
3 168 169 170
3 19 171 172
3 16 78 66
3 174 173 46
3 176 175 58
3 177 79 178
3 179 80 180
3 181 180 79
3 179 180 181
3 20 81 47
3 20 82 81
3 182 83 183
3 184 183 61
3 182 183 184
3 21 84 49
3 21 85 84
3 21 86 85
3 22 87 50
3 22 88 87
3 22 89 88
3 185 90 186
3 187 186 51
3 185 186 187
3 189 188 90
3 23 190 191
3 23 192 194
3 192 91 193
3 192 193 194
3 14 92 62
3 24 93 54
3 24 94 93
3 24 195 197
3 197 196 94
3 195 196 197
3 25 26 7
3 27 26 25
3 27 8 26
3 28 29 9
3 30 29 28
3 30 10 29
3 30 31 10
3 32 31 30
3 32 11 31
3 33 34 12
3 35 34 33
3 35 13 34
3 35 36 13
3 25 36 35
3 25 7 36
3 198 37 199
3 200 37 201
3 203 202 37
3 38 39 15
3 40 39 38
3 40 17 39
3 204 41 205
3 206 41 207
3 209 208 41
3 42 210 211
3 42 212 213
3 42 214 216
3 214 43 215
3 214 215 216
3 38 43 42
3 38 15 43
3 217 44 218
3 219 218 18
3 217 218 219
3 220 44 221
3 222 19 223
3 224 223 44
3 222 223 224
3 45 46 16
3 225 46 226
3 227 226 45
3 225 226 227
3 229 228 46
3 230 47 231
3 48 232 234
3 232 47 233
3 232 233 234
3 48 20 47
3 235 49 236
3 237 49 238
3 239 21 240
3 241 240 49
3 239 240 241
3 242 50 243
3 244 243 21
3 242 243 244
3 245 50 246
3 247 22 248
3 249 248 50
3 247 248 249
3 250 51 251
3 252 251 22
3 250 251 252
3 253 51 254
3 256 255 51
3 52 257 258
3 52 259 261
3 259 23 260
3 259 260 261
3 53 54 14
3 262 54 263
3 264 263 53
3 262 263 264
3 265 24 266
3 267 266 54
3 265 266 267
3 269 268 24
3 271 270 2
3 273 272 3
3 274 3 275
3 55 276 277
3 56 278 280
3 280 279 55
3 278 279 280
3 56 281 282
3 26 56 7
3 283 56 284
3 285 284 26
3 283 284 285
3 287 286 56
3 57 58 4
3 59 58 57
3 59 288 290
3 290 289 58
3 288 289 290
3 29 59 9
3 291 59 292
3 293 292 29
3 291 292 293
3 295 294 59
3 31 296 298
3 298 297 10
3 296 297 298
3 300 299 31
3 60 301 302
3 60 303 305
3 303 5 304
3 303 304 305
3 306 6 307
3 308 61 309
3 310 309 6
3 308 309 310
3 311 61 312
3 314 313 61
3 34 315 317
3 317 316 12
3 315 316 317
3 319 318 34
3 320 62 321
3 63 322 324
3 322 62 323
3 322 323 324
3 63 14 62
3 36 63 13
3 64 63 36
3 64 14 63
3 64 53 14
3 55 53 64
3 55 325 327
3 327 326 53
3 325 326 327
3 37 328 329
3 331 330 37
3 333 332 2
3 65 66 0
3 67 66 65
3 67 16 66
3 39 67 15
3 68 67 39
3 68 16 67
3 68 45 16
3 69 45 68
3 69 4 45
3 334 40 335
3 336 335 3
3 334 335 336
3 70 337 339
3 337 40 338
3 337 338 339
3 70 17 40
3 340 70 341
3 71 342 344
3 342 70 343
3 342 343 344
3 71 17 70
3 71 69 17
3 72 69 71
3 72 4 69
3 72 57 4
3 73 57 72
3 73 9 57
3 41 345 347
3 345 73 346
3 345 346 347
3 74 73 41
3 74 9 73
3 74 28 9
3 75 28 74
3 75 1 28
3 76 348 349
3 76 350 352
3 350 12 351
3 350 351 352
3 43 353 355
3 353 76 354
3 353 354 355
3 77 76 43
3 77 12 76
3 77 33 12
3 65 33 77
3 65 0 33
3 44 356 358
3 358 357 18
3 356 357 358
3 360 359 44
3 361 19 362
3 363 19 364
3 366 365 19
3 66 27 0
3 78 27 66
3 78 8 27
3 46 78 16
3 367 78 368
3 369 368 46
3 367 368 369
3 370 8 371
3 372 371 78
3 370 371 372
3 374 373 8
3 58 375 377
3 377 376 4
3 375 376 377
3 379 378 58
3 380 75 381
3 382 75 383
3 384 1 385
3 386 385 75
3 384 385 386
3 79 387 388
3 79 389 391
3 389 1 390
3 389 390 391
3 79 32 1
3 80 32 79
3 80 11 32
3 47 392 394
3 392 80 393
3 392 393 394
3 81 80 47
3 81 11 80
3 81 60 11
3 82 60 81
3 82 5 60
3 61 48 6
3 83 48 61
3 83 20 48
3 49 395 397
3 395 83 396
3 395 396 397
3 84 83 49
3 84 20 83
3 84 82 20
3 85 82 84
3 85 5 82
3 85 398 400
3 400 399 5
3 398 399 400
3 86 401 403
3 403 402 85
3 401 402 403
3 86 404 405
3 50 86 21
3 87 86 50
3 87 406 408
3 408 407 86
3 406 407 408
3 87 409 410
3 88 411 413
3 413 412 87
3 411 412 413
3 88 414 415
3 88 416 417
3 89 418 420
3 420 419 88
3 418 419 420
3 89 421 423
3 421 18 422
3 421 422 423
3 51 89 22
3 90 89 51
3 90 18 89
3 90 424 426
3 426 425 18
3 424 425 426
3 428 427 90
3 91 429 430
3 91 431 433
3 431 2 432
3 431 432 433
3 62 434 436
3 434 52 435
3 434 435 436
3 92 52 62
3 92 23 52
3 54 92 14
3 93 92 54
3 93 23 92
3 93 91 23
3 94 91 93
3 94 2 91
3 94 437 439
3 439 438 2
3 437 438 439
3 441 440 94
3 443 442 24
