ply
format ascii 1.0
element vertex 467
property float x
property float y
property float z
element face 478
property list uchar int vertex_index
end_header
26.94492 -89.023651 2.690539
26.52174 -78.315964 3.661978
26.854525 -81.101952 13.171919
19.815891 -96.833145 8.564652
26.934315 -95.853271 -8.393005
24.839863 -90.451897 12.027068
24.624594 -98.461449 0.070719
24.324377 -69.629898 -4.588876
25.23971 -71.385612 -0.768934
26.898689 -83.860626 3.414801
26.478859 -81.894333 -1.079211
27.163862 -90.702621 -7.055215
27.058867 -92.673782 -2.755681
25.001375 -86.432777 17.407383
19.342726 -100.674713 2.303876
22.517044 -98.1614 4.345421
22.052872 -101.780922 -1.9054
24.234276 -101.702904 -6.162905
21.167955 -104.700188 -8.145055
17.028271 -106.424858 -10.203042
26.108456 -72.858078 3.599308
26.8985 -79.966324 8.435533
26.810709 -85.055527 8.100346
20.335443 -92.861717 14.416763
16.845915 -94.594048 12.416327
15.446519 -101.934677 0.28699
25.792192 -76.571976 -0.732241
26.354601 -81.97644 18.018692
26.178581 -86.071556 12.771084
26.197439 -90.235931 7.300366
22.797338 -94.163254 10.352521
24.825815 -94.490349 6.169168
26.295786 -94.003693 1.615647
26.165855 -97.614792 -4.314251
25.665848 -100.558197 -10.154267
25.132839 -68.900864 -0.737081
25.587225 -69.71373 1.365887
26.979176 -86.425385 3.107061
26.948692 -85.56031 0.765136
27.064224 -88.328064 0.404296
27.139688 -90.079353 -2.124676
27.002197 -90.998825 0.08448
18.827227 -102.407028 -0.798046
20.710011 -101.384636 0.22722
20.254152 -102.991234 -2.767775
21.687775 -103.301338 -4.961048
19.287006 -105.742355 -9.257984
17.887228 -105.275253 -7.047871
27.051617 -78.330414 13.220621
26.993479 -77.969177 10.791114
26.926149 -80.569351 10.914803
26.891983 -82.462921 8.352679
26.788939 -83.231209 10.645012
15.853587 -100.280121 3.297647
13.798676 -100.61824 2.208992
26.311291 -75.574333 3.760835
25.921938 -74.736649 1.503746
26.182175 -77.370117 1.39245
27.162439 -93.310249 -7.789117
27.04854 -94.785172 -10.381851
26.57086 -79.612793 20.625048
25.956476 -82.085609 20.365084
24.932783 -88.393845 14.707877
25.661648 -86.31543 15.152015
25.619164 -88.504021 12.21826
26.165749 -88.18544 10.098989
25.588608 -90.421188 9.72554
20.037001 -94.765068 11.676256
21.557156 -93.67865 12.380935
21.35597 -95.621384 9.57072
23.675303 -98.375435 2.264613
23.783443 -96.4776 5.264622
24.786219 -96.543587 3.036191
25.623032 -94.418198 3.889304
25.571447 -96.328346 1.015232
26.247904 -95.871208 -1.175417
25.536695 -97.980087 -1.934592
23.734009 -103.188828 -9.287918
25.043999 -101.222252 -8.113061
26.985712 -79.02562 15.653616
24.701426 -67.904427 -2.619664
24.76366 -70.509819 -2.801721
25.006351 -72.890556 -2.668801
26.732582 -81.140709 3.50395
26.459679 -79.969635 1.307963
26.730106 -82.74614 1.151529
27.188408 -91.813026 -5.017727
27.027109 -94.42112 -5.610729
25.24782 -84.256119 19.934
24.122591 -88.330513 16.831755
23.928291 -90.397781 14.171774
19.646313 -98.727646 5.568547
21.269693 -97.695778 6.33554
20.993364 -99.488152 3.509475
22.242458 -100.095047 1.229018
23.508297 -100.172668 -0.812577
24.54723 -100.052689 -3.000256
23.286032 -101.731056 -3.791811
22.904221 -103.242096 -6.956967
26.000454 -70.374054 3.491918
26.409918 -71.060364 5.844449
26.49342 -73.750618 5.976675
26.618401 -76.43026 6.011265
26.85696 -77.203758 8.456559
26.757555 -79.124062 5.993119
26.870213 -81.877609 5.822849
26.914646 -84.488899 5.815577
26.856319 -87.173943 5.484096
18.655983 -93.871254 13.443774
18.349403 -95.834007 10.504658
18.157316 -97.927246 7.25674
17.814287 -99.692566 4.370816
17.464678 -101.389 1.416432
17.032303 -103.090042 -1.839478
25.699022 -72.224747 1.371239
25.47961 -73.995491 -0.738328
25.327175 -75.660332 -2.903433
26.117773 -79.230576 -1.03931
25.724775 -78.361153 -3.117739
26.81237 -79.472511 18.22459
26.655319 -81.649277 15.640709
25.774462 -84.296989 17.706568
26.22933 -84.13488 15.304484
26.599874 -83.53994 12.954305
26.560684 -85.734932 10.363034
26.580589 -87.690048 7.879776
26.67536 -89.537048 5.064516
22.80267 -92.207054 13.281756
23.926449 -92.357704 11.296082
22.647263 -96.104546 7.538077
23.858953 -94.444489 8.312241
24.884535 -92.426865 9.075903
25.621599 -92.342545 6.943536
26.251787 -92.114899 4.535643
26.720304 -91.531868 2.365491
26.74749 -93.399796 -0.384517
26.733213 -95.1558 -3.282437
26.637119 -96.874474 -6.46164
25.299795 -99.779839 -5.046141
25.965693 -99.175934 -7.179214
26.455929 -98.28186 -9.258206
26.146322 -99.507339 -12.164742
15.670832 -105.798248 -8.123006
25.809146 -68.75188 2.483745
25.590997 -68.376106 1.366041
19.353096 -103.468662 -3.36318
19.540689 -102.699131 -1.78291
18.639634 -103.176559 -2.378315
20.088173 -103.702401 -4.347198
19.353096 -103.468662 -3.36318
18.169634 -104.610672 -5.503227
18.904711 -104.84441 -6.487246
13.128937 -99.78582 3.331295
14.083486 -99.704483 3.818115
12.765837 -100.544113 1.916325
13.128937 -99.78582 3.331295
26.843181 -96.476749 -9.830185
26.900294 -95.9427 -10.824608
26.991428 -95.319221 -9.387428
25.69112 -82.058422 21.568325
26.055822 -81.037353 21.597618
25.790467 -81.010166 22.80086
24.137757 -102.918339 -10.331778
23.438102 -103.777611 -10.903986
27.084801 -77.93644 16.905929
27.112742 -77.640236 15.645409
24.946622 -67.048798 -1.609019
24.718252 -66.686741 -2.658946
26.87139 -85.050488 -0.236297
26.987799 -86.378246 -0.480083
23.582905 -89.177551 16.512747
23.67606 -88.139591 17.912242
23.485755 -90.211185 15.182756
24.025441 -89.364147 15.501765
23.582905 -89.177551 16.512747
21.726097 -104.671516 -9.209979
22.59423 -103.94247 -8.615934
22.036088 -103.971142 -7.551011
20.832813 -105.287994 -9.767581
21.726097 -104.671516 -9.209979
17.707245 -106.587845 -11.261688
18.836613 -106.246594 -10.789158
18.157639 -106.083607 -9.730513
16.547507 -106.837124 -11.688175
17.707245 -106.587845 -11.261688
26.619309 -70.111592 7.0842
26.420648 -69.825837 5.850898
26.650878 -74.133301 7.194395
26.627719 -72.847015 7.086714
26.713369 -75.473122 7.21169
26.55591 -75.090439 5.99397
26.650878 -74.133301 7.194395
17.750949 -94.232651 12.930051
17.960501 -93.282105 14.359649
17.055467 -93.643501 13.845926
17.260765 -98.161262 6.877
17.371576 -97.231369 8.348247
17.08925 -99.043923 5.434038
17.985802 -98.809906 5.813778
17.260765 -98.161262 6.877
15.190074 -102.688187 -1.220627
15.982966 -103.265869 -2.28386
16.239411 -102.51236 -0.776244
24.093672 -69.113426 -5.530888
24.287424 -68.439682 -4.576709
25.724552 -79.150757 -4.246601
25.919794 -79.603814 -3.21172
25.49062 -77.822445 -4.127965
25.724552 -79.150757 -4.246601
27.075691 -90.029739 -8.019671
27.063118 -89.326995 -6.800807
21.035801 -92.213589 14.904234
20.414307 -91.814308 15.935071
14.965412 -105.320541 -7.023411
16.046306 -105.186844 -6.580728
25.363804 -67.969673 0.314557
25.162329 -67.547016 -0.667728
25.360032 -69.307297 0.314403
25.363804 -67.969673 0.314557
25.590997 -68.376106 1.366041
27.045564 -87.762123 -0.660503
26.987799 -86.378246 -0.480083
27.006458 -86.944187 0.584716
27.101956 -89.203709 -0.86019
27.083296 -88.637767 -1.924989
27.045564 -87.762123 -0.660503
20.804985 -103.857452 -5.443834
20.970963 -103.146286 -3.864412
20.088173 -103.702401 -4.347198
20.545075 -104.556877 -7.035837
21.427865 -104.000763 -6.553051
20.804985 -103.857452 -5.443834
19.604601 -105.077961 -7.592302
20.22748 -105.221272 -8.701519
20.545075 -104.556877 -7.035837
18.587117 -105.508804 -8.152928
19.604601 -105.077961 -7.592302
18.904711 -104.84441 -6.487246
27.022548 -78.149796 12.005868
27.08118 -76.886699 11.911798
27.110249 -77.067318 13.126552
16.157482 -93.877678 13.347133
17.055467 -93.643501 13.845926
15.110941 -99.535424 4.362443
16.108901 -99.3377 4.897454
14.826131 -100.44918 2.753319
15.110941 -99.535424 4.362443
14.083486 -99.704483 3.818115
13.523857 -101.375934 0.76473
14.347778 -102.034153 -0.19627
14.622598 -101.276458 1.247991
13.523857 -101.375934 0.76473
12.765837 -100.544113 1.916325
24.182344 -70.3447 -5.583331
24.419827 -70.865814 -4.671721
26.296836 -81.370404 -2.192455
26.505709 -82.738919 -2.288825
27.144785 -92.698982 -8.692754
27.145497 -91.395168 -8.325803
27.163151 -92.006435 -7.422166
27.087835 -93.436443 -9.989121
27.144785 -92.698982 -8.692754
27.105489 -94.04771 -9.085484
27.020246 -94.15638 -11.418246
27.087835 -93.436443 -9.989121
26.923184 -95.442322 -11.864052
27.020246 -94.15638 -11.418246
26.923184 -95.442322 -11.864052
26.900294 -95.9427 -10.824608
26.363014 -79.800945 21.727601
26.677574 -78.584801 21.781153
26.263668 -80.849201 20.495066
26.363014 -79.800945 21.727601
26.055822 -81.037353 21.597618
24.792752 -101.935051 -9.74435
24.389004 -102.20554 -8.700489
24.137757 -102.918339 -10.331778
25.103677 -101.603024 -10.764953
25.354923 -100.890225 -9.133664
24.792752 -101.935051 -9.74435
25.424468 -101.160141 -11.737091
25.103677 -101.603024 -10.764953
27.145695 -77.292633 14.428912
27.110249 -77.067318 13.126552
27.018664 -78.678017 14.437119
27.145695 -77.292633 14.428912
27.112742 -77.640236 15.645409
24.475949 -67.576946 -3.592103
24.718252 -66.686741 -2.658946
24.512901 -68.767162 -3.60427
24.287424 -68.439682 -4.576709
24.475949 -67.576946 -3.592103
24.917133 -68.402646 -1.678373
24.946622 -67.048798 -1.609019
25.162329 -67.547016 -0.667728
24.639469 -71.305774 -3.778143
24.419827 -70.865814 -4.671721
24.544018 -70.069858 -3.695298
24.760814 -72.496143 -3.711683
24.639469 -71.305774 -3.778143
24.885005 -71.700187 -2.735261
24.926888 -73.720516 -3.721767
24.760814 -72.496143 -3.711683
26.762097 -83.643403 -0.0431
26.839399 -84.153225 0.958333
26.87139 -85.050488 -0.236297
26.636474 -83.217499 -1.15847
26.604482 -82.320236 0.036159
26.762097 -83.643403 -0.0431
26.505709 -82.738919 -2.288825
26.636474 -83.217499 -1.15847
27.145083 -89.905059 -5.680877
27.063118 -89.326995 -6.800807
27.132996 -89.593425 -3.215607
27.083296 -88.637767 -1.924989
27.157356 -90.460262 -4.662133
27.132996 -89.593425 -3.215607
27.164048 -90.94619 -3.571201
27.176135 -91.257824 -6.036471
27.145083 -89.905059 -5.680877
27.157356 -90.460262 -4.662133
24.918779 -84.121914 21.102063
25.336792 -83.143677 21.352783
24.792462 -85.213864 19.757228
24.918779 -84.121914 21.102063
24.669239 -86.302193 18.49392
25.124598 -85.344448 18.670692
24.792462 -85.213864 19.757228
24.229847 -87.25106 18.206105
23.67606 -88.139591 17.912242
24.561983 -87.381645 17.119569
24.669239 -86.302193 18.49392
24.229847 -87.25106 18.206105
23.009124 -103.915836 -9.78141
23.319115 -103.215462 -8.122443
22.59423 -103.94247 -8.615934
23.438102 -103.777611 -10.903986
23.009124 -103.915836 -9.78141
19.892339 -105.809078 -10.324046
20.832813 -105.287994 -9.767581
20.22748 -105.221272 -8.701519
19.892339 -105.809078 -10.324046
18.836613 -106.246594 -10.789158
26.215916 -69.482681 4.674632
26.01576 -69.082043 3.546761
26.205186 -70.717209 4.668183
26.215916 -69.482681 4.674632
26.420648 -69.825837 5.850898
26.585968 -71.501889 7.020601
26.619309 -70.111592 7.0842
26.451669 -72.405491 5.910562
26.585968 -71.501889 7.020601
26.627719 -72.847015 7.086714
27.011616 -76.624077 10.769102
27.08118 -76.886699 11.911798
26.943357 -76.241367 9.601824
27.011616 -76.624077 10.769102
26.92522 -77.586467 9.623836
26.832648 -75.859871 8.434337
26.943357 -76.241367 9.601824
26.73768 -76.817009 7.233912
26.713369 -75.473122 7.21169
26.832648 -75.859871 8.434337
19.629599 -92.387478 15.367205
20.414307 -91.814308 15.935071
18.789868 -92.892246 14.880711
17.960501 -93.282105 14.359649
19.495713 -93.366485 13.930269
19.629599 -92.387478 15.367205
18.789868 -92.892246 14.880711
15.996878 -94.853405 11.871606
16.157482 -93.877678 13.347133
16.715876 -95.56477 10.92804
15.996878 -94.853405 11.871606
17.467619 -96.18475 9.972205
17.597659 -95.214028 11.460493
16.715876 -95.56477 10.92804
18.25336 -96.880627 8.880699
17.467619 -96.18475 9.972205
17.371576 -97.231369 8.348247
16.833937 -99.986344 3.834231
17.08925 -99.043923 5.434038
16.108901 -99.3377 4.897454
17.742171 -103.518067 -2.899031
18.639634 -103.176559 -2.378315
17.929765 -102.748535 -1.318762
16.727041 -103.83274 -3.438964
17.742171 -103.518067 -2.899031
16.727041 -103.83274 -3.438964
15.982966 -103.265869 -2.28386
15.190074 -102.688187 -1.220627
14.347778 -102.034153 -0.19627
24.093672 -69.113426 -5.530888
24.182344 -70.3447 -5.583331
25.79384 -70.043892 2.428902
25.809146 -68.75188 2.483745
26.01576 -69.082043 3.546761
25.0873 -75.105404 -3.839083
24.926888 -73.720516 -3.721767
25.166763 -74.275444 -2.786117
26.116293 -80.038525 -2.172505
26.298316 -80.562455 -1.05926
26.296836 -81.370404 -2.192455
25.921274 -78.795864 -2.078524
26.116293 -80.038525 -2.172505
25.919794 -79.603814 -3.21172
25.291821 -76.472035 -4.020811
25.525975 -77.010742 -3.010586
25.49062 -77.822445 -4.127965
25.0873 -75.105404 -3.839083
25.291821 -76.472035 -4.020811
27.075691 -90.029739 -8.019671
27.145497 -91.395168 -8.325803
26.808391 -78.383682 20.651339
26.915105 -77.35569 21.807445
26.677574 -78.584801 21.781153
26.929147 -78.313541 19.45111
26.808391 -78.383682 20.651339
26.691615 -79.542652 19.424819
26.998131 -78.159886 18.191416
26.929147 -78.313541 19.45111
26.899041 -79.249066 16.939103
27.084801 -77.93644 16.905929
26.998131 -78.159886 18.191416
25.602148 -83.170864 20.149542
25.69112 -82.058422 21.568325
25.336792 -83.143677 21.352783
21.646657 -92.622055 13.88632
21.035801 -92.213589 14.904234
20.9463 -93.270184 13.398849
22.269414 -91.886257 14.33673
21.646657 -92.622055 13.88632
22.179913 -92.942852 12.831345
22.922944 -91.115822 14.737748
22.269414 -91.886257 14.33673
23.365481 -91.302417 13.726765
23.485755 -90.211185 15.182756
22.922944 -91.115822 14.737748
26.603988 -97.691044 -10.262785
26.843181 -96.476749 -9.830185
26.695122 -97.067566 -8.825605
26.449185 -98.303783 -11.716054
26.603988 -97.691044 -10.262785
26.301126 -98.894599 -10.711474
26.233268 -99.021217 -13.239791
26.449185 -98.303783 -11.716054
25.664705 -100.634712 -12.742328
25.906085 -100.032768 -11.159505
25.424468 -101.160141 -11.737091
25.845472 -100.149169 -13.682382
25.664705 -100.634712 -12.742328
26.233268 -99.021217 -13.239791
25.845472 -100.149169 -13.682382
17.154504 -104.925346 -6.04316
18.169634 -104.610672 -5.503227
16.77903 -105.536751 -7.585439
17.154504 -104.925346 -6.04316
16.046306 -105.186844 -6.580728
14.487617 -105.830624 -8.461032
14.965412 -105.320541 -7.023411
15.184815 -106.26638 -9.605392
14.487617 -105.830624 -8.461032
15.863534 -106.579685 -10.64541
16.349552 -106.111553 -9.163024
15.184815 -106.26638 -9.605392
16.547507 -106.837124 -11.688175
15.863534 -106.579685 -10.64541
3 143 36 144
3 0 39 37
3 0 41 39
3 145 44 146
3 147 146 42
3 145 146 147
3 149 148 44
3 150 47 151
3 2 50 48
3 2 52 50
3 152 54 153
3 155 154 54
3 1 57 55
3 4 59 58
3 4 156 158
3 158 157 59
3 156 157 158
3 159 61 160
3 159 160 161
3 5 64 62
3 5 66 64
3 3 69 67
3 6 72 70
3 6 74 72
3 6 76 74
3 163 162 77
3 164 79 165
3 166 80 167
3 8 81 35
3 8 82 81
3 9 85 83
3 169 168 38
3 12 86 40
3 12 87 86
3 170 89 171
3 172 90 173
3 174 173 89
3 172 173 174
3 14 93 91
3 16 94 43
3 16 95 94
3 16 97 95
3 18 98 45
3 18 175 177
3 177 176 98
3 175 176 177
3 18 178 179
3 19 180 182
3 182 181 46
3 180 181 182
3 19 183 184
3 185 100 186
3 187 101 188
3 189 102 190
3 191 190 101
3 189 190 191
3 21 103 49
3 21 104 103
3 21 105 104
3 22 106 51
3 22 107 106
3 24 192 194
3 192 108 193
3 192 193 194
3 24 109 108
3 195 110 196
3 197 111 198
3 199 198 110
3 197 198 199
3 25 112 53
3 25 113 112
3 25 200 202
3 202 201 113
3 200 201 202
3 7 203 204
3 20 114 99
3 26 115 56
3 26 116 115
3 10 117 84
3 205 118 206
3 208 207 118
3 11 209 210
3 27 119 60
3 27 120 119
3 13 121 88
3 28 122 63
3 28 123 122
3 28 124 123
3 29 125 65
3 29 126 125
3 23 211 212
3 30 127 68
3 30 128 127
3 15 129 92
3 31 130 71
3 31 131 130
3 31 132 131
3 32 133 73
3 32 134 133
3 32 135 134
3 33 136 75
3 33 137 136
3 17 138 96
3 34 139 78
3 34 140 139
3 34 141 140
3 213 142 214
3 215 35 216
3 36 217 219
3 217 35 218
3 217 218 219
3 36 8 35
3 37 38 9
3 39 38 37
3 39 220 222
3 222 221 38
3 220 221 222
3 39 223 225
3 223 40 224
3 223 224 225
3 41 40 39
3 41 12 40
3 42 43 14
3 44 43 42
3 44 16 43
3 44 45 16
3 226 45 227
3 228 227 44
3 226 227 228
3 229 18 230
3 231 230 45
3 229 230 231
3 232 46 233
3 234 233 18
3 232 233 234
3 47 235 237
3 235 46 236
3 235 236 237
3 47 19 46
3 48 238 240
3 238 49 239
3 238 239 240
3 50 49 48
3 50 21 49
3 50 51 21
3 52 51 50
3 52 22 51
3 241 24 242
3 243 53 244
3 54 245 247
3 245 53 246
3 245 246 247
3 54 25 53
3 54 248 250
3 250 249 25
3 248 249 250
3 252 251 54
3 254 253 7
3 55 56 20
3 57 56 55
3 57 26 56
3 256 255 10
3 58 257 259
3 259 258 11
3 257 258 259
3 59 260 262
3 262 261 58
3 260 261 262
3 59 263 264
3 59 265 266
3 268 267 59
3 269 60 270
3 61 271 273
3 271 60 272
3 271 272 273
3 61 27 60
3 62 63 13
3 64 63 62
3 64 28 63
3 64 65 28
3 66 65 64
3 66 29 65
3 67 68 23
3 69 68 67
3 69 30 68
3 70 71 15
3 72 71 70
3 72 31 71
3 72 73 31
3 74 73 72
3 74 32 73
3 74 75 32
3 76 75 74
3 76 33 75
3 77 78 17
3 274 78 275
3 276 275 77
3 274 275 276
3 277 34 278
3 279 278 78
3 277 278 279
3 281 280 34
3 282 48 283
3 79 284 286
3 284 48 285
3 284 285 286
3 79 2 48
3 80 287 288
3 80 289 291
3 289 7 290
3 289 290 291
3 35 292 294
3 292 80 293
3 292 293 294
3 81 80 35
3 81 7 80
3 81 295 297
3 297 296 7
3 295 296 297
3 82 298 300
3 300 299 81
3 298 299 300
3 82 301 302
3 83 84 1
3 85 84 83
3 85 10 84
3 38 85 9
3 303 85 304
3 305 304 38
3 303 304 305
3 306 10 307
3 308 307 85
3 306 307 308
3 310 309 10
3 311 11 312
3 40 313 314
3 86 315 317
3 317 316 40
3 315 316 317
3 86 318 320
3 318 11 319
3 318 319 320
3 86 58 11
3 87 58 86
3 87 4 58
3 321 88 322
3 323 88 324
3 325 13 326
3 327 326 88
3 325 326 327
3 89 328 329
3 89 330 332
3 330 13 331
3 330 331 332
3 89 62 13
3 90 62 89
3 90 5 62
3 91 92 3
3 93 92 91
3 93 15 92
3 43 93 14
3 94 93 43
3 94 15 93
3 94 70 15
3 95 70 94
3 95 6 70
3 95 96 6
3 97 96 95
3 97 17 96
3 45 97 16
3 98 97 45
3 98 17 97
3 98 77 17
3 333 77 334
3 335 334 98
3 333 334 335
3 337 336 77
3 46 338 340
3 340 339 18
3 338 339 340
3 342 341 46
3 343 99 344
3 100 345 347
3 345 99 346
3 345 346 347
3 100 20 99
3 348 100 349
3 101 350 352
3 350 100 351
3 350 351 352
3 101 20 100
3 101 55 20
3 102 55 101
3 102 1 55
3 49 353 354
3 103 355 357
3 357 356 49
3 355 356 357
3 103 358 359
3 103 360 362
3 360 102 361
3 360 361 362
3 104 102 103
3 104 1 102
3 104 83 1
3 105 83 104
3 105 9 83
3 51 105 21
3 106 105 51
3 106 9 105
3 106 37 9
3 107 37 106
3 107 0 37
3 363 23 364
3 108 365 366
3 108 367 369
3 367 23 368
3 367 368 369
3 108 67 23
3 109 67 108
3 109 3 67
3 370 24 371
3 372 24 373
3 374 109 375
3 376 375 24
3 374 375 376
3 110 377 379
3 377 109 378
3 377 378 379
3 110 3 109
3 110 91 3
3 111 91 110
3 111 14 91
3 53 380 382
3 380 111 381
3 380 381 382
3 112 111 53
3 112 14 111
3 112 42 14
3 113 42 112
3 113 383 385
3 385 384 42
3 383 384 385
3 113 386 387
3 389 388 113
3 391 390 25
3 393 392 7
3 99 394 396
3 394 36 395
3 394 395 396
3 114 36 99
3 114 8 36
3 56 114 20
3 115 114 56
3 115 8 114
3 115 82 8
3 116 82 115
3 116 397 399
3 399 398 82
3 397 398 399
3 84 57 1
3 117 57 84
3 117 26 57
3 400 117 401
3 402 401 10
3 400 401 402
3 118 403 405
3 403 117 404
3 403 404 405
3 118 26 117
3 118 116 26
3 406 116 407
3 408 407 118
3 406 407 408
3 410 409 116
3 412 411 11
3 60 413 415
3 413 414 415
3 119 416 418
3 418 417 60
3 416 417 418
3 119 419 420
3 119 421 423
3 421 79 422
3 421 422 423
3 120 79 119
3 120 2 79
3 88 424 426
3 424 61 425
3 424 425 426
3 121 61 88
3 121 27 61
3 63 121 13
3 122 121 63
3 122 27 121
3 122 120 27
3 123 120 122
3 123 2 120
3 123 52 2
3 124 52 123
3 124 22 52
3 65 124 28
3 125 124 65
3 125 22 124
3 125 107 22
3 126 107 125
3 126 0 107
3 68 427 429
3 429 428 23
3 427 428 429
3 127 430 432
3 432 431 68
3 430 431 432
3 127 433 434
3 127 435 437
3 435 90 436
3 435 436 437
3 128 90 127
3 128 5 90
3 92 69 3
3 129 69 92
3 129 30 69
3 71 129 15
3 130 129 71
3 130 30 129
3 130 128 30
3 131 128 130
3 131 5 128
3 131 66 5
3 132 66 131
3 132 29 66
3 73 132 31
3 133 132 73
3 133 29 132
3 133 126 29
3 134 126 133
3 134 0 126
3 134 41 0
3 135 41 134
3 135 12 41
3 75 135 32
3 136 135 75
3 136 12 135
3 136 87 12
3 137 87 136
3 137 4 87
3 96 76 6
3 138 76 96
3 138 33 76
3 78 138 17
3 139 138 78
3 139 33 138
3 139 137 33
3 140 137 139
3 140 4 137
3 140 438 440
3 440 439 4
3 438 439 440
3 141 441 443
3 443 442 140
3 441 442 443
3 141 444 445
3 446 141 447
3 448 447 34
3 446 447 448
3 449 141 450
3 452 451 141
3 453 47 454
3 142 455 457
3 455 47 456
3 455 456 457
3 142 19 47
3 458 142 459
3 460 142 461
3 462 19 463
3 464 463 142
3 462 463 464
3 466 465 19
