ply
format ascii 1.0
element vertex 852
property float x
property float y
property float z
element face 978
property list uchar int vertex_index
end_header
-31.805565 60.913898 21.985905
-30.713982 0.982061 37.034676
-32.247368 33.835491 32.635391
-36.23748 9.134612 22.224791
-32.943993 -22.93224 24.612963
-33.532192 53.716431 17.899597
-32.110786 49.336823 27.60648
-34.208519 38.426914 23.43647
-29.596855 -14.227453 37.956196
-30.513762 -25.0196 31.954317
-31.574341 -10.805531 31.172953
-31.746517 17.371428 35.794411
-33.031971 5.460977 30.197823
-34.010738 21.842196 27.896503
-31.136248 59.787544 30.12051
-31.053873 71.268654 20.939232
-30.132353 -37.680279 33.467941
-31.356112 -36.445007 25.68078
-32.956169 -34.974724 17.389816
-34.725315 -7.571092 23.840374
-35.602772 -20.777082 16.563877
-32.471657 57.825024 20.05521
-31.931911 55.944073 24.644115
-32.734913 51.45232 22.900045
-30.097269 -6.612409 37.61253
-30.421453 -12.334865 34.47332
-31.062031 -4.783832 34.048012
-32.094318 25.579681 34.408314
-32.758366 19.700006 31.897202
-33.008766 27.836756 30.41053
-35.353409 41.0303 18.477612
-35.551529 32.37114 21.230562
-30.738489 65.449478 30.619287
-30.522261 77.347656 19.889576
-29.611273 -32.627914 36.429089
-31.628489 -24.175354 28.310228
-31.064917 -30.862476 28.859095
-32.097111 -29.785362 25.104902
-32.176178 -35.558521 21.661152
-33.21207 -28.946411 21.177011
-34.581547 7.238447 26.394041
-33.881847 -0.840453 27.112886
-35.50106 0.74876 23.321304
-35.07333 -27.442982 12.743294
-32.258957 41.879307 30.228645
-33.103737 36.12841 28.220528
-33.002907 44.06916 25.624708
-33.934837 46.416031 20.752296
-29.273319 -21.267891 38.448116
-29.664133 -26.236601 35.603863
-29.926613 -19.667223 34.93911
-30.978519 -18.118658 31.488857
-32.317379 -16.71244 27.966585
-31.25313 9.058376 36.724728
-31.724203 3.075271 33.616119
-32.305763 11.24941 32.994881
-33.61861 13.569678 29.25742
-35.156616 15.878875 25.115519
-34.22905 30.090609 25.916723
-35.463085 24.337927 23.412035
-36.68354 17.651649 20.810091
-31.44842 60.452198 25.644772
-31.452347 65.702209 21.483551
-31.070301 65.894539 25.769442
-30.632446 71.626816 25.63863
-29.219425 -16.035212 41.589844
-29.588991 -8.808709 41.092407
-30.072046 -1.135258 40.6717
-30.584408 6.844875 40.238327
-31.682726 39.552341 34.888474
-31.651876 47.329689 32.205891
-31.552652 54.45821 28.947731
-30.237602 -31.53974 32.532894
-30.799004 -42.204433 26.575027
-31.236755 -42.032249 22.291868
-31.670443 -41.552063 18.071678
-32.339787 -2.895125 30.671637
-33.06601 -9.267693 27.609165
-33.804829 -15.400208 24.36441
-36.339832 -6.114251 19.843159
-35.37492 -14.186156 20.383707
-34.325211 -21.748318 20.748053
-34.236252 -28.302549 17.057055
-32.059753 59.679497 21.148384
-31.919054 62.262733 20.215927
-31.867407 58.694351 23.155439
-32.19762 56.759335 22.341602
-30.39678 -2.917398 37.327747
-30.508774 -5.824322 35.850018
-30.856787 -1.848989 35.557312
-32.179825 29.535028 33.673248
-32.527699 26.724077 32.399586
-32.590248 31.145416 31.534458
-35.958332 42.015713 15.884727
-36.09848 37.874977 17.419367
-30.147335 80.105476 19.728046
-29.421467 -33.23727 38.381706
-32.279133 -23.29682 26.514225
-31.901575 -26.879765 26.742411
-32.50341 -26.281773 24.918062
-32.637669 -29.472332 23.16316
-33.141235 -25.980898 22.893354
-35.402538 7.960333 24.353237
-35.094261 4.144715 24.786983
-35.959099 4.940047 22.644814
-34.221359 51.1777 16.801624
-33.955055 54.86956 15.324269
-32.212242 45.657539 28.884216
-32.599705 42.964024 27.973616
-32.512333 46.802696 26.628277
-33.140511 52.37257 20.456516
-33.278557 48.913948 21.958454
-33.730389 50.156349 19.382532
-34.428158 47.462101 18.328541
-29.401003 -17.77352 38.23608
-29.545897 -20.319984 36.715271
-29.73262 -16.914436 36.387444
-30.959475 -11.729503 32.785595
-30.648157 -15.450468 33.027782
-31.25605 -14.465955 31.354948
-31.62397 -17.615129 29.687527
-31.953028 -13.798199 29.555073
-31.536505 13.148685 36.20414
-31.748755 10.124889 34.817223
-31.984037 14.237522 34.45472
-33.330856 20.785135 30.010496
-33.182995 16.678503 30.558676
-33.821568 17.732832 28.689884
-34.382908 14.681535 27.205223
-34.598923 18.684998 26.48266
-33.632324 37.474831 25.791687
-33.615372 33.347279 27.124163
-34.20145 34.277328 24.890013
-36.208061 29.287645 20.117735
-35.502934 28.251904 22.501852
-36.240479 25.162737 21.003225
-36.095592 21.114414 22.096098
-36.844265 21.805738 19.820078
-31.289391 60.279984 27.671223
-31.260305 63.14978 25.694815
-31.093527 62.968193 28.020948
-29.087679 -19.566729 41.873882
-29.48222 -10.023573 42.929214
-29.682396 -6.202343 42.734592
-29.818626 -5.094357 40.828728
-29.895786 -2.477667 42.525105
-30.370331 5.658574 42.149143
-30.826298 10.948667 39.908375
-31.677975 43.663902 33.586361
-31.198454 56.365646 31.89786
-31.387239 53.71064 31.294176
-31.332335 57.188751 29.527542
-31.499418 57.610695 27.252522
-31.260742 68.520027 21.162115
-31.521183 67.940346 19.043335
-31.297132 71.005714 18.495399
-30.061857 -25.877007 33.684944
-29.938995 -29.128216 34.099121
-30.358683 -28.479147 32.176743
-31.282045 -33.626175 27.166016
-30.847628 -33.749233 29.242624
-31.000599 -36.465061 27.701996
-31.011803 -42.168171 24.450638
-31.353497 -39.173161 24.081451
-32.56155 -35.495132 19.4387
-31.983608 -38.639599 19.914385
-32.298904 -38.327686 17.66518
-31.873751 -41.183186 15.821004
-32.563076 -38.006104 15.449482
-32.349209 4.462821 31.945576
-32.03685 0.095722 32.082966
-32.719318 1.282753 30.41268
-34.311035 -4.294697 25.486008
-33.491322 -5.130487 27.339708
-33.891941 -8.452744 25.733202
-33.499241 -12.400336 25.872349
-34.299377 -11.689994 24.005854
-36.800365 -1.935486 19.392408
-36.095798 -13.570411 18.345694
-35.520538 -17.522486 18.630461
-34.856617 -18.194395 20.51557
-35.003426 -21.184126 18.679302
-34.383114 -25.014132 18.85804
-34.924133 -24.47003 16.92919
-34.319214 -30.903509 12.927932
-32.94088 56.094173 18.898537
-33.268238 57.308662 16.53821
-32.031837 52.736549 26.082054
-32.403915 50.362328 25.264143
-32.29969 53.709064 23.78437
-32.636791 54.691875 21.321169
-29.84289 -10.533196 37.665501
-29.954807 -13.146448 36.23465
-30.230482 -9.493038 35.982117
-30.714348 -8.684348 34.288712
-31.269323 -7.92677 32.65506
-31.926065 21.50906 35.219501
-32.225174 18.449554 33.822376
-32.383118 22.555559 33.23835
-32.93681 23.900707 31.101353
-33.527012 25.062069 29.014273
-34.804298 39.583126 20.976297
-34.839672 35.465405 22.444736
-35.456287 36.677925 20.025362
-36.185326 33.61544 18.830004
-30.99622 59.106564 32.667133
-30.950994 62.375954 30.55508
-30.821842 74.29512 20.357199
-31.073849 -24.502691 30.053064
-30.834949 -27.863527 30.327185
-31.338087 -27.67362 28.505127
-31.559782 -30.409834 26.971987
-31.728361 -33.061836 25.321177
-31.757275 -35.869675 23.760973
-32.188328 -32.63118 23.46032
-32.673912 -32.449375 21.348959
-33.130039 -32.09296 19.384472
-33.802521 6.377413 28.292767
-33.464645 2.348757 28.648386
-34.312912 3.144311 26.624941
-34.733311 -0.145039 25.118982
-35.174362 -3.455963 23.494326
-35.405663 -24.292044 14.653295
-32.261749 38.046082 31.517256
-32.657864 34.99699 30.411398
-32.641483 39.055695 29.270721
-33.073154 40.093494 26.989906
-33.570919 41.297684 24.55513
-32.868919 47.866913 24.327827
-33.451134 45.243771 23.215956
-34.097458 42.479687 22.118971
-34.615002 43.445538 19.831594
-35.166645 44.852615 17.142178
-29.195717 -24.408371 38.864079
-29.367214 -27.179495 37.516987
-29.437077 -23.777782 37.000111
-29.776751 -23.196823 35.176216
-30.187084 -22.253435 33.52813
-30.154049 -16.007582 34.684338
-30.412281 -18.932402 33.183788
-30.710302 -21.595123 31.752584
-31.323296 -21.13204 29.881159
-31.992298 -20.478748 28.037792
-32.68848 -19.647682 26.270332
-36.695507 5.698514 20.723604
-30.997379 5.054575 36.900528
-31.178507 2.142331 35.340202
-31.465117 6.247111 35.179447
-32.029522 7.25785 33.363129
-32.677113 8.495512 31.545563
-32.550957 15.409631 32.511745
-32.94318 12.717268 31.139961
-33.333179 9.489513 29.813833
-34.132011 10.58772 27.770657
-34.923599 11.390144 25.748039
-35.675121 12.315855 23.801481
-33.086761 31.833254 29.399815
-33.597549 29.294043 28.118589
-34.165836 26.089657 26.893724
-34.837669 31.294888 23.733042
-34.82325 27.160337 24.742907
-34.750034 22.899487 25.655468
-35.364052 20.143208 24.256754
-35.906666 16.700529 23.053345
-36.45636 13.346634 21.68523
-37.269493 14.388973 19.31628
-31.631384 60.744732 23.559401
-31.644714 62.95417 21.791636
-31.433456 63.143555 23.689522
-31.242067 65.887962 23.633705
-31.047613 68.712158 23.503447
-30.901264 65.702324 28.204948
-30.866642 68.650307 25.846161
-30.832584 71.605812 23.271048
-30.587435 74.516182 22.811871
-30.253529 77.323967 22.658699
-29.201645 -18.578457 39.96666
-29.364826 -15.078013 39.65427
-29.386692 -12.492611 41.344952
-29.562145 -11.333798 39.542507
-29.783581 -7.920458 39.284187
-30.044374 -4.100393 39.082912
-30.343832 -0.096722 38.782616
-30.331215 2.824472 40.466877
-30.635956 4.013829 38.557949
-30.894884 8.135766 38.406925
-31.142513 12.218417 38.093201
-31.334286 16.04488 37.776043
-31.700987 24.276085 36.486202
-31.894363 32.796921 34.808094
-31.635096 35.365059 36.199364
-31.937729 36.577038 33.814903
-31.94072 40.614891 32.65659
-31.93811 44.413944 31.236496
-31.865152 48.274704 29.925936
-31.604511 50.973763 30.662052
-31.79862 51.830822 28.39319
-31.735786 55.099113 26.769865
-31.663202 58.231056 25.157494
-31.72871 64.84787 19.709841
-29.617123 -29.3908 35.942303
-29.8722 -32.14727 34.566132
-30.141809 -34.53545 33.084301
-30.627699 -31.088079 30.71287
-30.470179 -34.114651 31.162432
-30.370674 -37.202377 31.58396
-30.698893 -45.06546 25.03688
-30.845306 -44.892605 22.889452
-30.991978 -44.696461 20.723072
-31.673717 -38.829308 22.057241
-31.486727 -41.621368 20.2006
-31.10754 -44.571426 18.478754
-31.251373 -44.145069 16.241928
-31.407162 -0.915004 33.805126
-31.671911 -4.034406 32.304489
-31.959408 -6.992752 30.885399
-33.077763 -2.083049 28.907782
-32.70652 -5.990943 29.131945
-32.300385 -10.070514 29.383553
-32.734581 -13.222408 27.632624
-33.055962 -16.268673 26.111597
-33.404144 -19.460886 24.329313
-36.341282 1.222127 21.183586
-35.985363 -2.566291 21.548225
-35.533501 -6.735352 21.929586
-35.83765 -10.104767 20.270731
-35.051994 -11.009907 22.204809
-34.598415 -14.952834 22.358053
-34.155319 -18.428497 22.522778
-33.62463 -22.282011 22.766977
-33.797836 -25.277775 20.918295
-33.741425 -28.533949 19.220119
-33.581722 -31.609491 17.370806
-34.716797 -27.750952 14.890108
-33.265751 -34.721581 15.271471
-36.340522 40.457817 15.325585
-36.257975 42.387352 14.573702
-30.082795 81.497906 18.145998
-29.900976 81.563232 19.53838
-36.582314 25.752574 19.83408
-36.22427 27.225191 20.56048
-36.566105 27.815028 19.391336
-36.884207 24.074075 19.242507
-36.542372 23.484237 20.411651
-36.582314 25.752574 19.83408
-37.190432 22.304292 18.658898
-36.884207 24.074075 19.242507
-29.760175 -4.842167 43.578371
-29.665648 -6.707859 43.630487
-29.86687 -2.979828 43.473628
-29.789091 -4.340005 42.629849
-29.760175 -4.842167 43.578371
-30.133863 -39.0415 33.770531
-30.027691 -37.854669 34.483164
-30.22332 -38.956435 32.746824
-30.133863 -39.0415 33.770531
-31.200926 -37.889373 25.936144
-31.02317 -37.8994 26.946752
-31.178356 -36.455034 26.691388
-31.354805 -37.809084 24.881115
-31.199618 -39.25345 25.136479
-31.200926 -37.889373 25.936144
-35.561655 -19.149784 17.597169
-35.842167 -17.29956 17.562869
-35.883284 -18.926858 16.529577
-32.603052 58.566498 18.848101
-32.837664 57.701072 18.269764
-32.706269 56.959598 19.476873
-36.521761 34.057249 17.553811
-36.141903 35.745209 18.124685
-36.478338 36.187017 16.848492
-36.5357 32.072083 18.223058
-36.521761 34.057249 17.553811
-30.898414 60.544001 32.814333
-30.92481 58.719651 33.942678
-30.92481 58.719651 33.942678
-31.024638 57.364487 33.564685
-30.651082 77.195968 18.647765
-30.800873 75.669701 18.881577
-30.672052 75.821388 20.123387
-29.638274 -34.083303 36.686434
-29.543371 -34.387981 37.662743
-29.51637 -32.932592 37.405397
-29.747609 -33.957811 35.697294
-29.638274 -34.083303 36.686434
-33.460687 57.874046 15.248037
-33.147413 58.991516 15.854383
-35.052487 46.80623 16.386827
-34.797402 46.157358 17.73536
-34.683243 48.110974 16.980008
-35.45698 45.367059 15.77981
-35.052487 46.80623 16.386827
-30.749544 70.138562 25.742396
-30.76711 68.707234 27.04419
-30.650012 70.195488 26.940425
-30.091817 77.377022 23.974829
-30.290812 75.913635 24.105993
-30.023087 78.787063 22.566983
-30.091817 77.377022 23.974829
-31.086281 13.621148 38.852868
-30.984406 11.583542 39.000788
-30.928173 12.986273 39.760454
-31.182167 15.53438 38.694288
-31.238399 14.131649 37.934622
-31.086281 13.621148 38.852868
-31.53815 23.737959 37.525305
-31.624212 22.211437 36.799072
-31.742939 32.1003 35.923002
-31.851996 30.637449 35.287166
-31.658911 37.4587 35.543919
-31.548401 36.871027 36.671171
-31.572216 38.964668 36.015726
-31.675339 67.499813 18.134934
-31.558371 69.035302 17.770488
-30.572486 -35.493672 30.362687
-30.658904 -33.931942 30.202528
-30.761211 -35.310963 29.402783
-30.522734 -37.037534 30.573452
-30.420427 -35.658514 31.373196
-30.572486 -35.493672 30.362687
-30.442416 -38.51223 30.880254
-30.522734 -37.037534 30.573452
-30.691631 -42.382193 27.629773
-30.784432 -40.887539 27.367121
-30.681362 -43.710136 26.873978
-30.691631 -42.382193 27.629773
-30.748949 -43.634946 25.805954
-30.631307 -45.14065 26.104905
-30.681362 -43.710136 26.873978
-31.572444 -42.634487 14.891467
-31.931335 -41.080302 14.696127
-36.744942 1.678665 20.100465
-36.518394 3.46032 20.953595
-36.922055 3.916859 19.870475
-34.149161 -31.10761 14.032523
-33.930806 -32.62617 12.993174
-33.404074 -34.535206 14.164943
-33.622429 -33.016646 15.204293
-33.015263 -36.200178 14.276401
-33.404074 -34.535206 14.164943
-32.171036 60.263121 20.060014
-32.376987 59.335884 19.513427
-32.265705 58.75226 20.601797
-32.100686 61.554739 19.593785
-32.171036 60.263121 20.060014
-31.989404 60.971115 20.682156
-31.993873 63.129047 19.082369
-32.100686 61.554739 19.593785
-36.410596 38.387449 16.092905
-36.028406 39.945345 16.652047
-36.340522 40.457817 15.325585
-36.478338 36.187017 16.848492
-36.410596 38.387449 16.092905
-30.298931 80.062282 18.29002
-30.486394 78.683372 18.370785
-30.334798 78.726566 19.808811
-30.298931 80.062282 18.29002
-30.082795 81.497906 18.145998
-29.320512 -32.105643 39.113451
-29.368066 -33.561386 39.336343
-29.400678 -31.742216 38.10663
-29.320512 -32.105643 39.113451
-29.495581 -31.437538 37.130321
-29.51637 -32.932592 37.405397
-29.400678 -31.742216 38.10663
-34.466116 51.879185 15.346838
-34.579843 49.968773 16.216549
-34.332964 53.725115 14.608161
-34.466116 51.879185 15.346838
-34.088207 53.02363 16.062946
-34.147658 55.599705 13.952056
-34.332964 53.725115 14.608161
-34.579843 49.968773 16.216549
-34.683243 48.110974 16.980008
-34.324759 49.319901 17.565083
-37.132532 20.162532 19.172263
-37.05217 18.085487 19.667269
-36.763903 19.728693 20.315084
-37.132532 20.162532 19.172263
-37.190432 22.304292 18.658898
-30.703034 67.106819 29.430754
-30.613688 66.774822 30.793057
-30.523076 71.479363 27.007296
-30.650012 70.195488 26.940425
-30.48027 73.06506 25.595959
-30.523076 71.479363 27.007296
-29.082624 -19.960059 42.856165
-29.051268 -21.191698 42.102394
-29.133654 -18.256763 42.666215
-29.082624 -19.960059 42.856165
-29.199528 -16.491004 42.524197
-29.153552 -17.80097 41.731863
-29.133654 -18.256763 42.666215
-29.565561 -8.618475 43.727798
-29.490591 -10.36742 43.975487
-29.582308 -8.112958 42.831903
-29.565561 -8.618475 43.727798
-29.665648 -6.707859 43.630487
-30.412706 7.134391 42.922455
-30.314521 5.122459 43.121635
-30.487828 7.830834 41.985586
-30.412706 7.134391 42.922455
-30.594866 8.423985 41.030178
-30.47737 6.251724 41.193735
-30.487828 7.830834 41.985586
-30.715811 10.475881 40.865202
-30.705353 8.896771 40.073351
-30.594866 8.423985 41.030178
-30.811273 12.460605 40.712933
-30.715811 10.475881 40.865202
-30.928173 12.986273 39.760454
-30.811273 12.460605 40.712933
-31.57573 41.08885 35.409478
-31.572216 38.964668 36.015726
-31.573354 43.144631 34.758421
-31.68035 41.608121 34.237417
-31.57573 41.08885 35.409478
-31.565739 45.048872 34.098938
-31.573354 43.144631 34.758421
-31.552689 46.881766 33.408703
-31.664926 45.496796 32.896126
-31.565739 45.048872 34.098938
-31.292847 55.038143 31.596018
-31.311409 53.306393 32.514327
-31.217016 54.633895 32.816169
-31.446346 70.567985 17.49652
-31.558371 69.035302 17.770488
-31.409157 69.47303 18.769367
-30.837696 -36.668876 28.632469
-30.761211 -35.310963 29.402783
-30.924114 -35.107147 28.47231
-30.885229 -38.017853 27.930606
-30.837696 -36.668876 28.632469
-30.885229 -38.017853 27.930606
-31.02317 -37.8994 26.946752
-30.922372 -40.769087 26.383267
-30.784432 -40.887539 27.367121
-31.028771 -40.750956 25.321072
-30.905403 -42.186302 25.512833
-30.922372 -40.769087 26.383267
-31.18265 -40.670666 24.266044
-31.028771 -40.750956 25.321072
-31.199618 -39.25345 25.136479
-32.275998 -39.49176 14.510365
-31.931335 -41.080302 14.696127
-32.218413 -39.594645 15.635243
-37.159509 -1.727202 18.319918
-36.974483 0.099859 19.204876
-36.941055 -3.632264 18.584907
-37.159509 -1.727202 18.319918
-36.710788 -5.721646 18.810282
-36.570099 -4.024869 19.617784
-36.941055 -3.632264 18.584907
-36.129796 -15.323522 17.420486
-36.428488 -13.275524 17.289488
-35.808168 -15.546449 18.488078
-36.129796 -15.323522 17.420486
-35.842167 -17.29956 17.562869
-34.433136 -30.754637 11.84207
-34.696272 -29.173246 12.835613
-34.810194 -29.024373 11.749751
-34.030086 -32.438334 11.903164
-34.433136 -30.754637 11.84207
-33.930806 -32.62617 12.993174
-34.030086 -32.438334 11.903164
-33.001342 58.308317 17.0896
-33.104559 56.701417 17.718373
-32.837664 57.701072 18.269764
-33.147413 58.991516 15.854383
-33.001342 58.308317 17.0896
-32.603052 58.566498 18.848101
-32.376987 59.335884 19.513427
-36.547067 29.908186 18.866923
-36.196694 31.451543 19.473869
-36.5357 32.072083 18.223058
-36.566105 27.815028 19.391336
-36.547067 29.908186 18.866923
-30.875801 62.178696 31.758307
-30.973607 60.741259 31.611106
-30.898414 60.544001 32.814333
-30.769548 63.715458 31.79041
-30.844742 63.912716 30.587184
-30.875801 62.178696 31.758307
-30.650001 65.039398 32.043498
-30.769548 63.715458 31.79041
-30.613688 66.774822 30.793057
-30.650001 65.039398 32.043498
-31.125754 55.994028 33.180049
-31.217016 54.633895 32.816169
-31.097337 57.736105 32.282497
-31.125754 55.994028 33.180049
-31.024638 57.364487 33.564685
-30.946191 74.099315 19.144845
-31.062206 72.586083 19.435862
-30.937857 72.781887 20.648215
-30.946191 74.099315 19.144845
-30.800873 75.669701 18.881577
-30.651082 77.195968 18.647765
-30.486394 78.683372 18.370785
-29.47289 -34.669094 38.648969
-29.368066 -33.561386 39.336343
-29.47289 -34.669094 38.648969
-29.543371 -34.387981 37.662743
-30.008149 -36.483993 34.216721
-30.027691 -37.854669 34.483164
-35.850269 -20.642533 15.508778
-35.883284 -18.926858 16.529577
-35.751715 -22.400014 14.553486
-35.504217 -22.534563 15.608586
-35.850269 -20.642533 15.508778
-35.627663 -23.954462 13.635568
-35.751715 -22.400014 14.553486
-35.461496 -25.52993 12.680568
-35.239497 -25.867513 13.698294
-35.627663 -23.954462 13.635568
-35.237066 -27.12283 11.745817
-35.461496 -25.52993 12.680568
-34.810194 -29.024373 11.749751
-35.237066 -27.12283 11.745817
-33.804096 56.654495 14.641067
-33.611646 56.089111 15.93124
-33.460687 57.874046 15.248037
-34.147658 55.599705 13.952056
-33.804096 56.654495 14.641067
-35.852823 43.948608 15.151085
-35.562489 43.434164 16.513452
-35.45698 45.367059 15.77981
-36.257975 42.387352 14.573702
-35.852823 43.948608 15.151085
-29.281465 -25.793933 38.190533
-29.274261 -27.488416 38.409834
-29.188512 -26.102854 39.08338
-36.865536 7.847336 20.375136
-36.466493 7.416563 21.474198
-36.636522 9.565385 21.12573
-37.088646 5.971554 19.596633
-36.865536 7.847336 20.375136
-36.922055 3.916859 19.870475
-37.088646 5.971554 19.596633
-36.745962 11.671396 20.85595
-36.636522 9.565385 21.12573
-36.34692 11.240623 21.955011
-37.152529 12.192566 19.671474
-36.745962 11.671396 20.85595
-36.862927 13.867804 20.500755
-37.522621 12.580896 18.557485
-37.152529 12.192566 19.671474
-37.345146 16.454149 18.920364
-36.976517 16.020311 20.063185
-37.05217 18.085487 19.667269
-37.647888 14.739451 18.103746
-37.345146 16.454149 18.920364
-37.522621 12.580896 18.557485
-37.647888 14.739451 18.103746
-30.784421 67.233242 28.223584
-30.819876 65.575901 29.412118
-30.703034 67.106819 29.430754
-30.883953 67.176316 27.025554
-30.784421 67.233242 28.223584
-30.76711 68.707234 27.04419
-30.457764 74.509743 24.182579
-30.609941 73.071499 24.225251
-30.48027 73.06506 25.595959
-30.420482 75.920074 22.735285
-30.457764 74.509743 24.182579
-30.290812 75.913635 24.105993
-29.96999 80.177818 21.101656
-30.200432 78.714721 21.193372
-30.023087 78.787063 22.566983
-29.900976 81.563232 19.53838
-29.96999 80.177818 21.101656
-29.122843 -24.924667 39.843637
-29.188512 -26.102854 39.08338
-29.143568 -23.196826 39.625555
-29.122843 -24.924667 39.843637
-29.182369 -21.626586 39.417574
-29.234518 -22.838131 38.656098
-29.143568 -23.196826 39.625555
-29.089549 -20.776005 41.130457
-29.053137 -22.400973 41.358969
-29.051268 -21.191698 42.102394
-29.146532 -20.281869 40.176846
-29.089549 -20.776005 41.130457
-29.144662 -19.072593 40.920271
-29.237482 -19.923174 39.207388
-29.182369 -21.626586 39.417574
-29.146532 -20.281869 40.176846
-29.271892 -14.711537 42.449582
-29.199528 -16.491004 42.524197
-29.403289 -11.705717 43.119267
-29.490591 -10.36742 43.975487
-29.355525 -12.940236 42.327135
-29.403289 -11.705717 43.119267
-29.434456 -11.258092 42.137083
-29.303058 -14.263912 41.467398
-29.271892 -14.711537 42.449582
-29.355525 -12.940236 42.327135
-29.971331 -1.000823 43.338086
-29.86687 -2.979828 43.473628
-30.01764 -0.409541 42.447394
-29.971331 -1.000823 43.338086
-30.10577 0.261663 41.520691
-29.983916 -1.806462 41.598403
-30.01764 -0.409541 42.447394
-30.254912 3.658579 42.259412
-30.314521 5.122459 43.121635
-30.235354 2.241528 41.418279
-30.254912 3.658579 42.259412
-30.350773 4.241523 41.30801
-30.201631 0.844607 40.569288
-30.10577 0.261663 41.520691
-30.235354 2.241528 41.418279
-31.274864 17.598149 38.470995
-31.182167 15.53438 38.694288
-31.440862 18.095835 37.443993
-31.274864 17.598149 38.470995
-31.646977 18.759109 36.453176
-31.540402 16.708154 36.785227
-31.440862 18.095835 37.443993
-31.736752 20.827925 36.165722
-31.836291 19.440244 35.506956
-31.646977 18.759109 36.453176
-31.813526 22.892572 35.852851
-31.736752 20.827925 36.165722
-31.624212 22.211437 36.799072
-31.60546 25.808463 37.141922
-31.53815 23.737959 37.525305
-31.755308 26.377032 36.126221
-31.60546 25.808463 37.141922
-31.951974 27.02883 35.087277
-31.897652 24.927883 35.447258
-31.755308 26.377032 36.126221
-31.994727 29.006503 34.719743
-32.137072 27.557355 34.040781
-31.951974 27.02883 35.087277
-32.037094 31.165974 34.240671
-31.994727 29.006503 34.719743
-31.851996 30.637449 35.287166
-31.517188 34.800661 37.312376
-31.548401 36.871027 36.671171
-31.613306 33.384369 36.618637
-31.517188 34.800661 37.312376
-31.76473 34.08099 35.503729
-31.742939 32.1003 35.923002
-31.613306 33.384369 36.618637
-31.541882 48.729082 32.584969
-31.552689 46.881766 33.408703
-31.409563 51.919557 32.129111
-31.311409 53.306393 32.514327
-31.518199 50.551119 31.813049
-31.409563 51.919557 32.129111
-31.495875 52.342202 30.978114
-31.628194 49.151726 31.433971
-31.541882 48.729082 32.584969
-31.518199 50.551119 31.813049
-31.898701 64.421616 18.829326
-31.993873 63.129047 19.082369
-31.823882 63.555301 19.962884
-31.779103 65.953575 18.468187
-31.624947 66.394108 19.376588
-31.675339 67.499813 18.134934
-31.898701 64.421616 18.829326
-31.779103 65.953575 18.468187
-31.183836 72.454612 18.213945
-31.175503 71.137184 19.717315
-31.062206 72.586083 19.435862
-31.330666 72.046047 17.127867
-31.183836 72.454612 18.213945
-31.446346 70.567985 17.49652
-31.330666 72.046047 17.127867
-29.373551 -28.713328 37.67427
-29.274261 -27.488416 38.409834
-29.498506 -29.818981 36.886928
-29.373551 -28.713328 37.67427
-29.492168 -28.285148 36.729645
-29.614198 -31.009357 36.185696
-29.495581 -31.437538 37.130321
-29.498506 -29.818981 36.886928
-29.878073 -33.717489 34.765816
-29.747609 -33.957811 35.697294
-29.741737 -32.387592 35.497611
-30.012877 -34.911579 34.024901
-29.878073 -33.717489 34.765816
-30.007005 -33.34136 33.825217
-30.137081 -36.107864 33.276121
-30.008149 -36.483993 34.216721
-30.012877 -34.911579 34.024901
-30.342481 -38.717484 31.804834
-30.22332 -38.956435 32.746824
-30.251514 -37.441328 32.525951
-30.342481 -38.717484 31.804834
-30.442416 -38.51223 30.880254
-30.574027 -46.414152 25.269298
-30.631307 -45.14065 26.104905
-30.604413 -46.386663 24.146963
-30.574027 -46.414152 25.269298
-30.677619 -46.300236 23.073249
-30.604413 -46.386663 24.146963
-30.7721 -44.979033 23.963166
-30.702469 -46.267811 21.971586
-30.677619 -46.300236 23.073249
-30.775806 -46.169739 20.888396
-30.702469 -46.267811 21.971586
-30.918642 -44.794533 21.806262
-30.813943 -45.990938 19.79761
-30.775806 -46.169739 20.888396
-30.871724 -45.928421 18.675452
-30.813943 -45.990938 19.79761
-31.049759 -44.633944 19.600913
-30.870711 -45.907188 17.535826
-30.871724 -45.928421 18.675452
-30.942628 -45.694009 16.417413
-30.870711 -45.907188 17.535826
-31.179457 -44.358248 17.360341
-30.965238 -45.456736 15.331302
-30.656492 -47.005676 15.506787
-30.942628 -45.694009 16.417413
-31.261255 -44.115429 15.101929
-31.562562 -42.664127 16.031466
-31.572444 -42.634487 14.891467
-30.965238 -45.456736 15.331302
-31.261255 -44.115429 15.101929
-36.570824 -0.35668 20.287997
-36.744942 1.678665 20.100465
-36.974483 0.099859 19.204876
-36.485012 -7.766011 18.951276
-36.710788 -5.721646 18.810282
-36.362995 -11.494091 18.202544
-36.428488 -13.275524 17.289488
-36.233921 -9.761268 19.165062
-36.362995 -11.494091 18.202544
-35.966724 -11.837589 19.308213
-36.088741 -8.109509 20.056945
-36.485012 -7.766011 18.951276
-36.233921 -9.761268 19.165062
-34.347952 -29.531331 15.013611
-34.518006 -29.32723 13.90902
-34.149161 -31.10761 14.032523
-34.10768 -29.80713 16.097085
-34.476524 -28.02675 15.973581
-34.347952 -29.531331 15.013611
-33.780414 -31.4606 16.25396
-33.908987 -29.95602 17.213931
-34.10768 -29.80713 16.097085
-33.423737 -33.165536 16.321138
-33.780414 -31.4606 16.25396
-33.622429 -33.016646 15.204293
-32.663925 -37.84244 14.365406
-32.914414 -36.363843 15.360477
-33.015263 -36.200178 14.276401
-32.275998 -39.49176 14.510365
-32.663925 -37.84244 14.365406
3 0 84 83
3 0 83 85
3 1 89 87
3 2 92 90
3 336 335 93
3 338 337 95
3 4 99 97
3 4 101 99
3 3 104 102
3 5 106 105
3 6 109 107
3 5 112 110
3 5 105 112
3 8 116 114
3 10 119 117
3 10 121 119
3 11 124 122
3 13 127 125
3 13 129 127
3 7 132 130
3 339 135 340
3 341 340 133
3 339 340 341
3 342 137 343
3 344 343 135
3 342 343 344
3 346 345 137
3 14 140 138
3 347 143 348
3 349 145 350
3 351 350 143
3 349 350 351
3 14 151 149
3 14 138 151
3 15 155 153
3 16 352 353
3 16 354 355
3 9 158 156
3 17 161 159
3 17 356 358
3 358 357 161
3 356 357 358
3 17 359 361
3 359 163 360
3 359 360 361
3 18 166 164
3 18 168 166
3 12 171 169
3 19 174 172
3 19 176 174
3 20 362 364
3 362 179 363
3 362 363 364
3 20 181 179
3 20 183 181
3 21 365 367
3 367 366 185
3 365 366 367
3 22 189 187
3 21 190 86
3 21 185 190
3 24 193 191
3 26 194 88
3 26 195 194
3 27 198 196
3 29 199 91
3 29 200 199
3 30 203 201
3 368 204 369
3 370 369 94
3 368 369 370
3 372 371 204
3 374 373 205
3 375 205 376
3 33 377 379
3 379 378 207
3 377 378 379
3 34 380 382
3 382 381 96
3 380 381 382
3 34 383 384
3 35 210 208
3 37 211 98
3 37 212 211
3 37 214 212
3 39 215 100
3 39 216 215
3 40 219 217
3 42 220 103
3 42 221 220
3 386 385 186
3 44 225 223
3 46 226 108
3 46 227 226
3 23 228 188
3 47 229 111
3 47 230 229
3 47 231 230
3 387 232 388
3 389 388 113
3 387 388 389
3 391 390 232
3 48 235 233
3 50 236 115
3 50 237 236
3 25 238 192
3 51 239 118
3 51 240 239
3 51 241 240
3 52 242 120
3 52 243 242
3 53 247 245
3 55 248 123
3 55 249 248
3 28 250 197
3 56 251 126
3 56 252 251
3 56 253 252
3 57 254 128
3 57 255 254
3 45 256 224
3 58 257 131
3 58 258 257
3 31 259 202
3 59 260 134
3 59 261 260
3 59 262 261
3 60 263 136
3 60 264 263
3 60 265 264
3 61 268 266
3 63 269 139
3 63 270 269
3 32 271 206
3 64 392 394
3 392 272 393
3 392 393 394
3 64 273 272
3 64 274 273
3 395 275 396
3 398 397 275
3 65 276 141
3 65 277 276
3 66 278 142
3 66 279 278
3 66 280 279
3 67 281 144
3 67 282 281
3 68 283 146
3 68 284 283
3 68 285 284
3 399 286 400
3 401 400 147
3 399 400 401
3 402 287 403
3 404 403 286
3 402 403 404
3 405 288 406
3 407 289 408
3 69 409 411
3 409 290 410
3 409 410 411
3 69 291 290
3 69 292 291
3 70 293 148
3 70 294 293
3 71 295 150
3 71 296 295
3 71 297 296
3 61 298 152
3 61 266 298
3 62 299 267
3 413 412 154
3 49 300 234
3 72 301 157
3 72 302 301
3 36 303 209
3 414 304 415
3 416 415 160
3 414 415 416
3 417 305 418
3 419 418 304
3 417 418 419
3 421 420 305
3 73 422 423
3 73 424 425
3 73 426 428
3 426 306 427
3 426 427 428
3 74 307 162
3 74 308 307
3 38 309 213
3 75 310 165
3 75 311 310
3 75 312 311
3 430 429 167
3 54 313 246
3 76 314 170
3 76 315 314
3 41 316 218
3 77 317 173
3 77 318 317
3 77 319 318
3 78 320 175
3 78 321 320
3 431 322 432
3 433 432 244
3 431 432 433
3 79 323 177
3 79 324 323
3 80 325 178
3 80 326 325
3 80 327 326
3 81 328 180
3 81 329 328
3 81 330 329
3 82 331 182
3 82 332 331
3 43 333 222
3 435 434 184
3 436 334 437
3 439 438 334
3 83 440 442
3 442 441 21
3 440 441 442
3 84 443 445
3 445 444 83
3 443 444 445
3 84 446 447
3 85 86 22
3 83 86 85
3 83 21 86
3 87 88 24
3 89 88 87
3 89 26 88
3 90 91 27
3 92 91 90
3 92 29 91
3 93 94 30
3 448 94 449
3 450 449 93
3 448 449 450
3 452 451 94
3 95 453 455
3 455 454 33
3 453 454 455
3 457 456 95
3 458 96 459
3 460 96 461
3 462 34 463
3 464 463 96
3 462 463 464
3 97 98 35
3 99 98 97
3 99 37 98
3 99 100 37
3 101 100 99
3 101 39 100
3 102 103 40
3 104 103 102
3 104 42 103
3 105 465 466
3 106 467 469
3 469 468 105
3 467 468 469
3 106 470 471
3 107 108 44
3 109 108 107
3 109 46 108
3 110 111 23
3 112 111 110
3 112 47 111
3 112 113 47
3 105 113 112
3 105 472 474
3 474 473 113
3 472 473 474
3 114 115 48
3 116 115 114
3 116 50 115
3 117 118 25
3 119 118 117
3 119 51 118
3 119 120 51
3 121 120 119
3 121 52 120
3 122 123 53
3 124 123 122
3 124 55 123
3 125 126 28
3 127 126 125
3 127 56 126
3 127 128 56
3 129 128 127
3 129 57 128
3 130 131 45
3 132 131 130
3 132 58 131
3 133 134 31
3 135 134 133
3 135 59 134
3 135 136 59
3 137 136 135
3 137 60 136
3 137 475 477
3 477 476 60
3 475 476 477
3 479 478 137
3 138 139 61
3 140 139 138
3 140 63 139
3 481 480 32
3 482 64 483
3 485 484 64
3 486 141 487
3 488 141 489
3 490 65 491
3 492 491 141
3 490 491 492
3 493 142 494
3 143 495 497
3 495 142 496
3 495 496 497
3 143 66 142
3 143 144 66
3 145 144 143
3 145 67 144
3 498 146 499
3 500 146 501
3 502 68 503
3 504 503 146
3 502 503 504
3 505 147 506
3 507 506 68
3 505 506 507
3 508 147 509
3 511 510 147
3 512 69 513
3 514 148 515
3 516 515 69
3 514 515 516
3 517 148 518
3 519 70 520
3 521 520 148
3 519 520 521
3 149 522 524
3 522 150 523
3 522 523 524
3 151 150 149
3 151 71 150
3 151 152 71
3 138 152 151
3 138 61 152
3 153 154 62
3 155 154 153
3 155 525 527
3 527 526 154
3 525 526 527
3 156 157 49
3 158 157 156
3 158 72 157
3 159 160 36
3 161 160 159
3 161 528 530
3 530 529 160
3 528 529 530
3 161 531 532
3 534 533 161
3 535 73 536
3 537 162 538
3 539 538 73
3 537 538 539
3 163 540 542
3 540 162 541
3 540 541 542
3 163 74 162
3 164 165 38
3 166 165 164
3 166 75 165
3 166 167 75
3 168 167 166
3 168 543 545
3 545 544 167
3 543 544 545
3 169 170 54
3 171 170 169
3 171 76 170
3 172 173 41
3 174 173 172
3 174 77 173
3 174 175 77
3 176 175 174
3 176 78 175
3 546 177 547
3 548 177 549
3 550 79 551
3 552 551 177
3 550 551 552
3 553 178 554
3 179 555 557
3 555 178 556
3 555 556 557
3 179 80 178
3 179 180 80
3 181 180 179
3 181 81 180
3 181 182 81
3 183 182 181
3 183 82 182
3 558 184 559
3 560 559 43
3 558 559 560
3 561 184 562
3 564 563 184
3 185 186 5
3 565 186 566
3 567 566 185
3 565 566 567
3 569 568 186
3 571 570 21
3 187 188 6
3 189 188 187
3 189 23 188
3 86 189 22
3 190 189 86
3 190 23 189
3 190 110 23
3 185 110 190
3 185 5 110
3 191 192 8
3 193 192 191
3 193 25 192
3 88 193 24
3 194 193 88
3 194 25 193
3 194 117 25
3 195 117 194
3 195 10 117
3 196 197 11
3 198 197 196
3 198 28 197
3 91 198 27
3 199 198 91
3 199 28 198
3 199 125 28
3 200 125 199
3 200 13 125
3 201 202 7
3 203 202 201
3 203 31 202
3 94 203 30
3 204 203 94
3 204 31 203
3 204 133 31
3 572 133 573
3 574 573 204
3 572 573 574
3 576 575 133
3 205 206 14
3 577 206 578
3 579 578 205
3 577 578 579
3 580 32 581
3 582 581 206
3 580 581 582
3 583 32 584
3 586 585 32
3 587 149 588
3 205 589 591
3 589 149 590
3 589 590 591
3 205 14 149
3 207 592 594
3 594 593 15
3 592 593 594
3 596 595 207
3 598 597 33
3 96 599 600
3 602 601 96
3 603 16 604
3 208 209 9
3 210 209 208
3 210 36 209
3 98 210 35
3 211 210 98
3 211 36 210
3 211 159 36
3 212 159 211
3 212 17 159
3 212 213 17
3 214 213 212
3 214 38 213
3 100 214 37
3 215 214 100
3 215 38 214
3 215 164 38
3 216 164 215
3 216 18 164
3 217 218 12
3 219 218 217
3 219 41 218
3 103 219 40
3 220 219 103
3 220 41 219
3 220 172 41
3 221 172 220
3 221 19 172
3 605 20 606
3 607 222 608
3 609 608 20
3 607 608 609
3 610 222 611
3 612 43 613
3 614 613 222
3 612 613 614
3 615 43 616
3 618 617 43
3 186 106 5
3 619 106 620
3 621 620 186
3 619 620 621
3 623 622 106
3 223 224 2
3 225 224 223
3 225 45 224
3 108 225 44
3 226 225 108
3 226 45 225
3 226 130 45
3 227 130 226
3 227 7 130
3 188 109 6
3 228 109 188
3 228 46 109
3 111 228 23
3 229 228 111
3 229 46 228
3 229 227 46
3 230 227 229
3 230 7 227
3 230 201 7
3 231 201 230
3 231 30 201
3 113 231 47
3 232 231 113
3 232 30 231
3 232 93 30
3 624 93 625
3 626 625 232
3 624 625 626
3 628 627 93
3 233 629 631
3 629 234 630
3 629 630 631
3 235 234 233
3 235 49 234
3 115 235 48
3 236 235 115
3 236 49 235
3 236 156 49
3 237 156 236
3 237 9 156
3 192 116 8
3 238 116 192
3 238 50 116
3 118 238 25
3 239 238 118
3 239 50 238
3 239 237 50
3 240 237 239
3 240 9 237
3 240 208 9
3 241 208 240
3 241 35 208
3 120 241 51
3 242 241 120
3 242 35 241
3 242 97 35
3 243 97 242
3 243 4 97
3 632 244 633
3 634 633 3
3 632 633 634
3 635 244 636
3 638 637 244
3 245 246 1
3 247 246 245
3 247 54 246
3 123 247 53
3 248 247 123
3 248 54 247
3 248 169 54
3 249 169 248
3 249 12 169
3 197 124 11
3 250 124 197
3 250 55 124
3 126 250 28
3 251 250 126
3 251 55 250
3 251 249 55
3 252 249 251
3 252 12 249
3 252 217 12
3 253 217 252
3 253 40 217
3 128 253 56
3 254 253 128
3 254 40 253
3 254 102 40
3 255 102 254
3 255 3 102
3 224 92 2
3 256 92 224
3 256 29 92
3 131 256 45
3 257 256 131
3 257 29 256
3 257 200 29
3 258 200 257
3 258 13 200
3 202 132 7
3 259 132 202
3 259 58 132
3 134 259 31
3 260 259 134
3 260 58 259
3 260 258 58
3 261 258 260
3 261 13 258
3 261 129 13
3 262 129 261
3 262 57 129
3 136 262 59
3 263 262 136
3 263 57 262
3 263 255 57
3 264 255 263
3 264 3 255
3 264 639 641
3 641 640 3
3 639 640 641
3 265 642 644
3 644 643 264
3 642 643 644
3 265 645 646
3 647 265 648
3 649 648 60
3 647 648 649
3 650 265 651
3 653 652 265
3 266 267 0
3 268 267 266
3 268 62 267
3 139 268 61
3 269 268 139
3 269 62 268
3 269 153 62
3 270 153 269
3 270 15 153
3 206 140 14
3 271 140 206
3 271 63 140
3 654 271 655
3 656 655 32
3 654 655 656
3 272 657 659
3 657 271 658
3 657 658 659
3 272 63 271
3 272 270 63
3 273 270 272
3 273 15 270
3 273 207 15
3 274 207 273
3 274 33 207
3 660 274 661
3 662 661 64
3 660 661 662
3 275 663 665
3 663 274 664
3 663 664 665
3 275 33 274
3 275 95 33
3 666 95 667
3 668 667 275
3 666 667 668
3 670 669 95
3 671 233 672
3 673 233 674
3 675 48 676
3 677 676 233
3 675 676 677
3 141 678 680
3 678 679 680
3 276 681 683
3 683 682 141
3 681 682 683
3 276 684 686
3 684 48 685
3 684 685 686
3 276 114 48
3 277 114 276
3 277 8 114
3 687 65 688
3 142 689 690
3 278 691 693
3 693 692 142
3 691 692 693
3 278 694 696
3 694 65 695
3 694 695 696
3 278 277 65
3 279 277 278
3 279 8 277
3 279 191 8
3 280 191 279
3 280 24 191
3 144 280 66
3 281 280 144
3 281 24 280
3 281 87 24
3 282 87 281
3 282 1 87
3 697 145 698
3 699 145 700
3 701 67 702
3 703 702 145
3 701 702 703
3 146 704 705
3 283 706 708
3 708 707 146
3 706 707 708
3 283 709 711
3 709 67 710
3 709 710 711
3 283 282 67
3 284 282 283
3 284 1 282
3 284 245 1
3 285 245 284
3 285 53 245
3 147 285 68
3 286 285 147
3 286 53 285
3 286 122 53
3 287 122 286
3 287 11 122
3 712 287 713
3 714 287 715
3 716 11 717
3 718 717 287
3 716 717 718
3 719 196 720
3 721 720 11
3 719 720 721
3 288 722 724
3 722 196 723
3 722 723 724
3 288 27 196
3 725 288 726
3 727 288 728
3 729 27 730
3 731 730 288
3 729 730 731
3 732 90 733
3 734 733 27
3 732 733 734
3 289 735 737
3 735 90 736
3 735 736 737
3 289 2 90
3 290 738 739
3 290 740 741
3 290 742 744
3 742 289 743
3 742 743 744
3 291 289 290
3 291 2 289
3 291 223 2
3 292 223 291
3 292 44 223
3 148 292 69
3 293 292 148
3 293 44 292
3 293 107 44
3 294 107 293
3 294 6 107
3 745 70 746
3 150 747 748
3 295 749 751
3 751 750 150
3 749 750 751
3 295 752 754
3 752 70 753
3 752 753 754
3 295 294 70
3 296 294 295
3 296 6 294
3 296 187 6
3 297 187 296
3 297 22 187
3 152 297 71
3 298 297 152
3 298 22 297
3 298 85 22
3 266 85 298
3 266 0 85
3 267 84 0
3 299 84 267
3 299 755 757
3 757 756 84
3 755 756 757
3 154 299 62
3 758 299 759
3 760 759 154
3 758 759 760
3 762 761 299
3 763 155 764
3 765 764 15
3 763 764 765
3 766 155 767
3 769 768 155
3 234 770 771
3 300 772 774
3 774 773 234
3 772 773 774
3 300 775 777
3 775 34 776
3 775 776 777
3 157 300 49
3 301 300 157
3 301 34 300
3 301 778 780
3 780 779 34
3 778 779 780
3 302 781 783
3 783 782 301
3 781 782 783
3 302 784 786
3 784 16 785
3 784 785 786
3 209 158 9
3 303 158 209
3 303 72 158
3 160 303 36
3 304 303 160
3 304 72 303
3 304 302 72
3 305 302 304
3 305 16 302
3 305 787 789
3 789 788 16
3 787 788 789
3 791 790 305
3 306 792 793
3 306 794 795
3 162 306 73
3 307 306 162
3 307 796 798
3 798 797 306
3 796 797 798
3 307 799 800
3 308 801 803
3 803 802 307
3 801 802 803
3 308 804 805
3 213 163 17
3 309 163 213
3 309 74 163
3 165 309 38
3 310 309 165
3 310 74 309
3 310 308 74
3 311 308 310
3 311 806 808
3 808 807 308
3 806 807 808
3 311 809 810
3 312 811 813
3 813 812 311
3 811 812 813
3 312 814 816
3 814 815 816
3 167 312 75
3 817 312 818
3 819 818 167
3 817 818 819
3 821 820 312
3 246 89 1
3 313 89 246
3 313 26 89
3 170 313 54
3 314 313 170
3 314 26 313
3 314 195 26
3 315 195 314
3 315 10 195
3 218 171 12
3 316 171 218
3 316 76 171
3 173 316 41
3 317 316 173
3 317 76 316
3 317 315 76
3 318 315 317
3 318 10 315
3 318 121 10
3 319 121 318
3 319 52 121
3 175 319 77
3 320 319 175
3 320 52 319
3 320 243 52
3 321 243 320
3 321 4 243
3 244 104 3
3 322 104 244
3 322 42 104
3 177 822 824
3 822 322 823
3 822 823 824
3 323 322 177
3 323 42 322
3 323 221 42
3 324 221 323
3 324 19 221
3 825 79 826
3 178 827 828
3 325 829 831
3 831 830 178
3 829 830 831
3 325 832 834
3 832 79 833
3 832 833 834
3 325 324 79
3 326 324 325
3 326 19 324
3 326 176 19
3 327 176 326
3 327 78 176
3 180 327 80
3 328 327 180
3 328 78 327
3 328 321 78
3 329 321 328
3 329 4 321
3 329 101 4
3 330 101 329
3 330 39 101
3 182 330 81
3 331 330 182
3 331 39 330
3 331 216 39
3 332 216 331
3 332 18 216
3 222 183 20
3 333 183 222
3 333 82 183
3 184 333 43
3 835 333 836
3 837 836 184
3 835 836 837
3 838 82 839
3 840 839 333
3 838 839 840
3 841 332 842
3 843 842 82
3 841 842 843
3 334 844 846
3 844 332 845
3 844 845 846
3 334 18 332
3 334 168 18
3 847 168 848
3 849 848 334
3 847 848 849
3 851 850 168
