ply
format ascii 1.0
element vertex 637
property float x
property float y
property float z
element face 693
property list uchar int vertex_index
end_header
-25.117765 44.905045 57.727505
-30.439594 56.772732 40.354958
-30.656849 24.493891 50.13282
-28.62418 51.70229 50.272301
-30.111877 18.899385 58.528404
-29.272446 35.639534 55.586617
-30.604511 41.035095 46.523788
-29.837954 -3.48199 44.42215
-30.764687 2.853871 59.988243
-30.557987 7.815621 51.565033
-30.634657 12.808062 43.459309
-31.144028 29.094894 41.355465
-31.275871 45.42873 37.081123
-27.1014 48.4921 54.393776
-25.989805 36.837265 60.463013
-28.254675 32.235188 59.42252
-27.583929 40.6422 57.192924
-28.89349 43.833179 53.30611
-21.650171 28.321718 64.790169
-30.853399 58.332737 35.218224
-29.962809 -5.497807 48.470093
-29.540308 4.772064 66.538063
-30.188602 8.044021 63.0742
-30.435877 21.599525 54.40723
-30.584015 13.539269 55.180496
-30.634993 16.053267 50.963768
-30.514677 10.474779 47.496365
-30.713326 18.484617 46.860271
-30.919729 20.844721 42.795479
-30.868536 26.910898 45.606598
-30.534985 48.803738 43.921673
-30.974688 43.130459 41.740952
-30.930428 51.026707 38.860455
-31.235579 52.902145 33.734478
-29.717134 54.61322 45.447922
-28.928707 24.254465 60.99065
-29.662609 27.490694 57.336735
-30.256214 29.94453 53.090378
-30.64164 32.730015 48.698032
-30.027351 38.390343 51.436218
-29.878351 46.520771 48.80579
-22.887346 40.603386 60.278561
-28.242741 1.94069 69.407486
-23.82123 32.985424 62.979782
-30.503336 10.697985 59.105877
-30.686689 5.247471 55.804146
-30.442089 -0.193945 52.068695
-30.243734 2.037575 47.994167
-30.258711 4.586345 44.094128
-31.030048 15.023879 39.612534
-31.375313 23.199833 38.564407
-31.591516 31.403679 37.03791
-30.940042 35.093159 44.132442
-31.262018 37.241623 39.496414
-26.132704 46.864983 56.139164
-25.868837 50.959438 54.410301
-24.886946 48.855915 56.05027
-25.552563 40.910393 59.15723
-26.766331 39.111568 58.847137
-26.444143 43.038006 57.542442
-27.350971 44.641693 55.818672
-30.667253 57.640324 37.846004
-30.6262 61.221954 35.653797
-30.396362 60.428474 38.288837
-29.190456 8.657059 66.069366
-29.910372 6.446761 64.888496
-29.601357 10.292019 64.460266
-30.555864 22.977522 52.229198
-30.583817 18.851984 52.806202
-30.65312 20.423454 50.605385
-30.667479 17.356045 49.003239
-30.720417 21.461073 48.452282
-30.796551 22.771416 46.379276
-30.756783 25.594091 47.979691
-30.475973 52.900623 42.302948
-30.754038 50.083042 41.319389
-30.706165 54.111916 39.629547
-30.901585 54.824692 37.017487
-29.216921 53.347965 47.871292
-29.100101 57.237221 46.041328
-28.484896 55.910938 48.323505
-27.923254 26.650629 62.090065
-28.806341 34.009476 57.535492
-29.057901 29.954029 58.454933
-29.513039 31.447113 56.39101
-29.990652 28.583256 55.315571
-29.853712 32.860802 54.402302
-30.168787 34.148136 52.207314
-29.691593 37.103001 53.492836
-28.775145 47.981556 51.736084
-29.424417 45.132927 51.189358
-29.357182 49.316883 49.479103
-29.792913 50.654785 47.206905
-25.901596 2.626331 70.874596
-27.797525 5.644085 68.950455
-21.100006 32.240402 63.446297
-22.859865 30.568573 64.002373
-23.467556 36.920486 61.619541
-29.648901 -7.213376 44.526382
-30.743719 1.332445 61.968422
-30.819487 0.208796 58.244423
-29.868961 17.674191 60.44244
-30.161367 13.441553 60.742447
-30.313368 14.982617 58.825211
-30.61846 10.733158 53.430485
-30.640377 9.344794 55.454479
-30.621729 6.380423 53.735905
-30.605974 2.437792 53.855106
-30.505501 3.769547 51.816792
-30.318335 0.861626 49.984028
-30.426872 4.992702 49.737621
-30.545084 11.627074 45.378468
-30.389311 7.443359 45.813484
-30.455082 8.610208 43.695766
-30.605324 10.003095 41.822029
-30.796247 13.972543 41.51749
-31.046383 24.848791 42.076183
-31.111485 22.060658 40.704006
-31.250948 26.045889 39.917747
-31.509932 27.340841 37.797642
-31.348755 30.153255 39.154491
-30.624269 36.903191 47.701405
-30.792318 34.024994 46.470711
-30.796213 38.041164 45.445011
-31.124537 44.235855 39.430756
-31.119854 40.030144 40.717213
-31.287228 41.248238 38.328445
-31.461706 38.376995 37.142979
-31.468733 42.625359 35.930481
-31.453503 46.433842 34.611515
-27.877977 50.499527 52.325123
-26.911528 52.664066 52.56543
-26.356544 32.831806 61.674133
-27.570763 30.597845 61.157986
-27.215054 34.785458 60.038216
-27.903662 36.600506 58.334743
-28.535492 38.068027 56.557301
-29.069828 39.588482 54.615593
-28.301094 42.197575 55.333794
-28.109419 46.579292 53.781796
-20.594761 26.062468 65.411865
-19.976555 29.849701 64.099838
-29.707584 -8.272243 46.700123
-29.852213 -4.629406 46.271202
-29.788908 1.297092 66.984909
-30.200937 2.478431 65.261375
-30.416403 3.973809 63.574139
-30.572454 5.230577 61.670193
-30.287695 20.326342 56.51627
-30.425961 16.349382 56.880009
-30.51553 17.570011 54.827126
-30.610811 14.820287 52.98037
-30.601645 11.91503 51.289162
-30.521778 9.198762 49.482883
-30.602978 13.307295 49.202785
-30.624218 14.588508 47.201378
-30.681889 15.661364 45.000202
-30.793879 16.721907 42.998245
-30.798588 19.813662 44.770573
-30.897379 23.833021 44.286518
-30.988056 27.832216 43.474571
-30.57863 44.95282 45.267578
-30.801857 41.921921 44.207596
-30.788445 45.931103 42.86644
-30.959391 47.178715 40.372665
-31.119625 48.164509 37.88636
-31.271704 49.226429 35.383808
-31.093502 51.732876 36.368553
-31.053055 55.62241 34.462238
-30.14962 55.580112 42.890175
-30.08436 59.353691 40.973858
-29.659992 58.415359 43.475319
-28.830334 18.455072 63.406452
-29.237345 20.108215 61.76704
-29.606712 21.738146 59.875584
-28.552038 28.164373 60.374592
-29.364872 25.710144 59.160641
-29.914381 23.154305 57.885376
-30.152021 24.458954 55.88179
-30.339384 25.803164 53.858524
-30.509781 27.291912 51.639496
-30.661253 28.469574 49.408218
-30.472527 31.418575 50.808609
-30.402103 35.630348 50.058578
-30.356575 39.549503 49.0131
-29.540979 41.181644 52.452076
-29.949553 42.420338 50.228634
-30.302254 43.75507 47.755997
-30.236885 47.867188 46.365093
-30.167543 51.810802 44.826481
-24.090467 42.634995 59.163738
-23.729397 46.862137 57.421463
-28.937174 3.635497 68.05587
-28.614594 7.125714 67.561981
-23.356621 26.940796 65.121117
-24.488245 28.946539 64.161858
-25.422836 30.927248 63.037453
-24.962706 34.847134 61.871681
-24.576077 38.816525 60.531689
-23.425442 50.634335 55.722607
-29.919748 11.92074 62.672573
-30.399744 9.135552 61.150913
-30.647924 6.543307 59.563667
-30.54879 12.200262 57.242565
-30.659662 7.841657 57.595699
-30.744707 3.945707 57.897327
-30.723347 1.377725 56.087978
-30.603926 -1.22943 54.308372
-30.09725 -1.889356 48.226326
-30.031418 -0.78534 46.106148
-30.388876 6.247661 47.810772
-30.218981 3.294098 46.055698
-30.046875 0.47602 44.151066
-30.139494 1.658584 42.369682
-30.977898 18.124397 41.061596
-31.215443 19.151419 39.165947
-31.547438 20.14679 37.111942
-31.809629 28.477978 35.766239
-30.784374 29.663124 47.270302
-30.906649 31.066296 45.05658
-31.040424 31.962505 42.87785
-30.957283 39.168102 43.082153
-31.084352 36.185764 41.904167
-31.205654 33.246494 40.603092
-31.399281 34.236263 38.425388
-31.431887 50.128475 32.964046
-29.17192 11.550083 65.015846
-29.395907 9.474539 65.264816
-28.96647 10.732603 65.820396
-27.366227 27.678652 62.420935
-27.626568 25.680614 62.837074
-26.422309 3.388414 70.437172
-25.676384 4.442858 70.564022
-21.665156 33.359345 63.064249
-20.777158 34.205801 62.698338
-29.760175 -4.842167 43.578371
-29.665648 -6.707859 43.630487
-29.743427 -5.347683 44.474266
-29.86687 -2.979828 43.473628
-29.760175 -4.842167 43.578371
-30.823518 0.820204 60.103001
-30.813034 0.059491 61.09309
-30.754203 2.093158 60.978332
-30.792087 1.531333 59.116333
-30.850918 -0.502333 59.231091
-30.823518 0.820204 60.103001
-25.770035 52.953193 53.460543
-25.215196 51.954237 54.304382
-19.982663 25.046684 65.605301
-20.909078 24.246958 65.987224
-19.038339 30.43121 63.648955
-19.346699 28.686411 64.325012
-19.617554 31.730612 63.366858
-19.038339 30.43121 63.648955
-30.827004 60.157088 34.089878
-30.898414 60.544001 32.814333
-30.92481 58.719651 33.942678
-30.593856 62.925636 34.560753
-30.462096 62.764934 35.875122
-29.835197 -6.885025 47.585108
-29.766293 -8.817101 47.735153
-29.893906 -7.429883 48.620138
-30.92481 58.719651 33.942678
-31.024638 57.364487 33.564685
-30.953227 56.977574 34.840231
-29.053101 59.097313 45.038557
-28.714375 58.622772 46.137085
-28.324546 19.725132 63.830683
-28.564809 17.716438 64.165701
-29.083026 22.18134 61.378845
-28.833258 21.348201 62.239544
-28.678939 23.421326 61.851349
-22.745447 42.52853 59.488656
-23.347008 43.544335 58.931244
-23.488906 41.619191 59.72115
-28.386248 0.197636 69.631108
-27.764008 1.23845 69.982418
-28.743938 0.92527 68.961288
-28.386248 0.197636 69.631108
-28.589957 2.788094 68.731678
-29.091154 1.772674 68.285481
-28.743938 0.92527 68.961288
-28.018237 8.196625 67.949806
-28.20606 6.384899 68.256218
-27.609703 7.45581 68.644043
-28.381379 9.089126 67.302425
-28.018237 8.196625 67.949806
-22.503396 27.631257 64.955643
-22.838338 25.835762 65.516083
-21.985113 26.526223 65.350609
-30.050893 61.21558 39.884113
-29.836233 60.726988 41.187683
-22.785926 49.447828 56.367695
-23.577419 48.748236 56.572035
-22.937903 47.561729 57.217123
-29.771895 13.87908 62.452561
-29.563224 13.293239 63.301019
-30.408306 -2.201919 52.24149
-30.489224 -2.719661 53.361328
-30.523007 -0.711688 53.188533
-30.332375 -1.521317 51.21311
-30.408306 -2.201919 52.24149
-31.086281 13.621148 38.852868
-30.928173 12.986273 39.760454
-31.182167 15.53438 38.694288
-31.086281 13.621148 38.852868
-31.53815 23.737959 37.525305
-31.624212 22.211437 36.799072
-31.461375 21.673312 37.838175
-31.742939 32.1003 35.923002
-31.851996 30.637449 35.287166
-31.700572 29.940829 36.402074
-31.548401 36.871027 36.671171
-31.572216 38.964668 36.015726
-24.72425 50.902476 55.124366
-25.215196 51.954237 54.304382
-25.377891 49.907677 55.230285
-30.347176 62.368195 37.192642
-30.462096 62.764934 35.875122
-30.511281 60.825214 36.971317
-30.032197 -6.102455 49.489912
-29.893906 -7.429883 48.620138
-28.406773 57.959631 47.278173
-28.714375 58.622772 46.137085
-28.792499 56.574079 47.182417
-28.176212 24.619408 62.401057
-27.626568 25.680614 62.837074
-28.425981 25.452547 61.540357
-28.678939 23.421326 61.851349
-28.176212 24.619408 62.401057
-22.07847 41.395424 59.972784
-22.303666 39.397245 60.786684
-26.593435 1.581271 70.715973
-26.052211 0.998674 71.127064
-26.593435 1.581271 70.715973
-26.422309 3.388414 70.437172
-27.592881 3.045594 69.703617
-27.764008 1.23845 69.982418
-27.370273 4.897291 69.475101
-28.020133 3.792387 69.178971
-27.592881 3.045594 69.703617
-27.122854 6.839912 69.161068
-27.370273 4.897291 69.475101
-27.609703 7.45581 68.644043
-27.122854 6.839912 69.161068
-22.545085 32.52343 63.342287
-21.979935 31.404488 63.724335
-21.665156 33.359345 63.064249
-23.025768 33.731856 62.830991
-23.340547 31.776999 63.491078
-22.545085 32.52343 63.342287
-22.848931 35.699387 62.150871
-23.644393 34.952955 62.299661
-23.025768 33.731856 62.830991
-22.593771 37.555796 61.457174
-22.848931 35.699387 62.150871
-22.303666 39.397245 60.786684
-23.177451 38.761936 60.949051
-22.593771 37.555796 61.457174
-29.565561 -8.618475 43.727798
-29.490591 -10.36742 43.975487
-29.573932 -8.962321 44.774071
-29.565561 -8.618475 43.727798
-29.665648 -6.707859 43.630487
-30.813764 -0.547086 62.078941
-30.692963 0.657229 62.886585
-30.813764 -0.547086 62.078941
-30.813034 0.059491 61.09309
-30.850712 -1.741548 58.348472
-30.850918 -0.502333 59.231091
-30.78592 -1.08865 57.312908
-30.850712 -1.741548 58.348472
-30.015164 15.557872 60.592444
-29.892705 14.639487 61.487498
-29.746502 16.755806 61.337494
-30.412706 7.134391 42.922455
-30.314521 5.122459 43.121635
-30.356897 6.598276 43.894947
-30.487828 7.830834 41.985586
-30.412706 7.134391 42.922455
-30.530203 9.306652 42.758898
-30.594866 8.423985 41.030178
-30.487828 7.830834 41.985586
-30.715811 10.475881 40.865202
-30.594866 8.423985 41.030178
-30.811273 12.460605 40.712933
-30.715811 10.475881 40.865202
-30.700786 11.987819 41.669759
-30.913148 14.498211 40.565012
-30.928173 12.986273 39.760454
-30.811273 12.460605 40.712933
-31.57573 41.08885 35.409478
-31.572216 38.964668 36.015726
-31.465219 40.501177 36.53673
-31.573354 43.144631 34.758421
-31.57573 41.08885 35.409478
-31.565739 45.048872 34.098938
-31.573354 43.144631 34.758421
-31.461118 44.529601 35.270998
-31.552689 46.881766 33.408703
-31.565739 45.048872 34.098938
-31.311409 53.306393 32.514327
-31.217016 54.633895 32.816169
-27.818171 52.528719 51.369261
-28.191272 53.1301 50.34285
-28.251078 51.100909 51.298712
-27.334946 53.610988 51.489414
-27.818171 52.528719 51.369261
-27.394753 51.581796 52.445276
-26.796557 54.719544 51.585236
-27.334946 53.610988 51.489414
-26.291381 53.805507 52.538107
-26.390183 51.811752 53.487865
-25.770035 52.953193 53.460543
-26.796557 54.719544 51.585236
-26.291381 53.805507 52.538107
-26.963653 31.714825 61.41606
-27.189982 29.652261 61.954895
-26.582872 30.769241 62.212969
-25.327223 1.983265 71.171006
-26.052211 0.998674 71.127064
-25.099941 3.642553 70.885231
-25.327223 1.983265 71.171006
-25.676384 4.442858 70.564022
-25.099941 3.642553 70.885231
-21.457408 25.396598 65.661457
-20.909078 24.246958 65.987224
-21.122466 27.192093 65.101017
-21.985113 26.526223 65.350609
-21.457408 25.396598 65.661457
-19.655802 26.792794 64.981026
-19.982663 25.046684 65.605301
-20.285658 27.956084 64.755852
-19.655802 26.792794 64.981026
-19.346699 28.686411 64.325012
-20.179279 32.925962 63.040087
-20.53828 31.045051 63.773068
-19.617554 31.730612 63.366858
-20.777158 34.205801 62.698338
-20.179279 32.925962 63.040087
-30.713404 61.601696 34.307665
-30.827004 60.157088 34.089878
-30.7398 59.777345 35.43601
-30.713404 61.601696 34.307665
-30.593856 62.925636 34.560753
-29.637941 -10.051132 46.850323
-29.766293 -8.817101 47.735153
-29.603273 -9.491754 45.860941
-29.637941 -10.051132 46.850323
-29.678242 -7.742809 45.613253
-29.573932 -8.962321 44.774071
-29.603273 -9.491754 45.860941
-30.081492 0.043128 66.396126
-29.891862 -0.523029 67.212143
-30.287507 0.633798 65.534359
-30.081492 0.043128 66.396126
-29.994923 1.887761 66.123142
-30.421571 1.230222 64.533062
-30.287507 0.633798 65.534359
-30.529305 1.977911 63.689444
-30.421571 1.230222 64.533062
-30.30867 3.22612 64.417757
-30.580061 2.653127 62.771281
-30.692963 0.657229 62.886585
-30.529305 1.977911 63.689444
-31.125754 55.994028 33.180049
-31.217016 54.633895 32.816169
-31.144317 54.262277 34.098358
-31.125754 55.994028 33.180049
-31.024638 57.364487 33.564685
-29.624049 60.257822 42.438413
-29.836233 60.726988 41.187683
-29.872176 58.884525 42.224588
-29.333047 59.686382 43.755553
-29.380046 57.82629 44.758324
-29.053101 59.097313 45.038557
-29.624049 60.257822 42.438413
-29.333047 59.686382 43.755553
-28.12163 55.234425 49.368452
-28.554538 53.806614 49.297903
-28.191272 53.1301 50.34285
-28.029001 57.231388 48.380249
-28.12163 55.234425 49.368452
-28.406773 57.959631 47.278173
-28.029001 57.231388 48.380249
-29.018518 16.560405 63.667959
-28.564809 17.716438 64.165701
-29.227189 17.146246 62.8195
-29.018518 16.560405 63.667959
-28.629753 20.521629 63.05925
-28.324546 19.725132 63.830683
-29.033839 19.281644 62.586746
-28.629753 20.521629 63.05925
-28.833258 21.348201 62.239544
-29.430694 17.972818 61.999794
-29.227189 17.146246 62.8195
-29.033839 19.281644 62.586746
-29.553153 18.891203 61.10474
-29.746502 16.755806 61.337494
-29.430694 17.972818 61.999794
-27.747008 28.624237 61.624026
-27.366227 27.678652 62.420935
-27.189982 29.652261 61.954895
-23.166472 45.657905 58.060107
-23.909932 44.748566 58.292601
-23.347008 43.544335 58.931244
-22.937903 47.561729 57.217123
-23.166472 45.657905 58.060107
-22.745447 42.52853 59.488656
-22.07847 41.395424 59.972784
-29.517021 0.603471 67.75
-29.891862 -0.523029 67.212143
-29.363041 2.466295 67.520389
-29.517021 0.603471 67.75
-29.091154 1.772674 68.285481
-28.66931 9.854799 66.556118
-28.902525 7.891387 66.815674
-28.381379 9.089126 67.302425
-28.96647 10.732603 65.820396
-28.66931 9.854799 66.556118
-23.711087 24.97949 65.653393
-22.838338 25.835762 65.516083
-24.213208 26.035064 65.14555
-23.711087 24.97949 65.653393
-24.77902 27.037936 64.66592
-24.213208 26.035064 65.14555
-23.922433 27.943668 64.641487
-25.249638 27.91102 64.10925
-24.77902 27.037936 64.66592
-25.716934 28.901375 63.547047
-25.249638 27.91102 64.10925
-24.95554 29.936894 63.599655
-26.116018 29.816962 62.894628
-25.716934 28.901375 63.547047
-25.88969 31.879527 62.355793
-26.582872 30.769241 62.212969
-26.116018 29.816962 62.894628
-30.206894 61.752972 38.541603
-30.240361 59.891082 39.631348
-30.050893 61.21558 39.884113
-30.347176 62.368195 37.192642
-30.206894 61.752972 38.541603
-23.993498 51.791685 54.960535
-24.72425 50.902476 55.124366
-24.156194 49.745125 55.886438
-22.641243 51.398428 55.42452
-22.785926 49.447828 56.367695
-23.257077 52.637304 54.744064
-22.641243 51.398428 55.42452
-23.993498 51.791685 54.960535
-23.257077 52.637304 54.744064
-29.404029 12.478879 64.194866
-29.17192 11.550083 65.015846
-29.760552 11.106379 63.56642
-29.404029 12.478879 64.194866
-29.563224 13.293239 63.301019
-30.040557 12.681147 61.70751
-29.771895 13.87908 62.452561
-29.892705 14.639487 61.487498
-30.737851 -0.504186 56.234685
-30.78592 -1.08865 57.312908
-30.771417 0.793261 57.166201
-30.67814 -1.807763 55.344882
-30.737851 -0.504186 56.234685
-30.663637 0.074148 55.198175
-30.585088 -3.171719 54.39538
-30.67814 -1.807763 55.344882
-30.585088 -3.171719 54.39538
-30.489224 -2.719661 53.361328
-30.092734 -4.173248 49.413809
-30.032197 -6.102455 49.489912
-30.270498 -0.993531 50.170777
-30.332375 -1.521317 51.21311
-30.380212 0.33384 51.026362
-30.159955 -2.369022 49.291926
-30.270498 -0.993531 50.170777
-30.207793 -0.513865 49.105177
-30.030029 -3.693582 48.348209
-30.092734 -4.173248 49.413809
-30.159955 -2.369022 49.291926
-29.971331 -1.000823 43.338086
-29.86687 -2.979828 43.473628
-29.942414 -1.502985 44.286608
-30.01764 -0.409541 42.447394
-29.971331 -1.000823 43.338086
-30.093184 1.067302 43.260374
-30.10577 0.261663 41.520691
-30.01764 -0.409541 42.447394
-30.254912 3.658579 42.259412
-30.199103 3.122464 43.231905
-30.314521 5.122459 43.121635
-30.235354 2.241528 41.418279
-30.254912 3.658579 42.259412
-30.10577 0.261663 41.520691
-30.235354 2.241528 41.418279
-31.274864 17.598149 38.470995
-31.182167 15.53438 38.694288
-31.122746 17.087649 39.38924
-31.440862 18.095835 37.443993
-31.274864 17.598149 38.470995
-31.381441 19.649104 38.138945
-31.646977 18.759109 36.453176
-31.440862 18.095835 37.443993
-31.736752 20.827925 36.165722
-31.646977 18.759109 36.453176
-31.736752 20.827925 36.165722
-31.624212 22.211437 36.799072
-31.60546 25.808463 37.141922
-31.53815 23.737959 37.525305
-31.442622 25.270337 38.181025
-31.755308 26.377032 36.126221
-31.60546 25.808463 37.141922
-31.659781 27.90941 36.781941
-31.951974 27.02883 35.087277
-31.755308 26.377032 36.126221
-31.994727 29.006503 34.719743
-31.951974 27.02883 35.087277
-31.994727 29.006503 34.719743
-31.851996 30.637449 35.287166
-31.517188 34.800661 37.312376
-31.430493 36.306629 37.784183
-31.548401 36.871027 36.671171
-31.613306 33.384369 36.618637
-31.495399 32.819971 37.731649
-31.517188 34.800661 37.312376
-31.742939 32.1003 35.923002
-31.613306 33.384369 36.618637
-31.541882 48.729082 32.584969
-31.552689 46.881766 33.408703
-31.442695 48.281159 33.78778
-31.409563 51.919557 32.129111
-31.333733 51.51531 33.349262
-31.311409 53.306393 32.514327
-31.518199 50.551119 31.813049
-31.409563 51.919557 32.129111
-31.541882 48.729082 32.584969
-31.518199 50.551119 31.813049
3 0 56 54
3 0 59 57
3 0 54 59
3 1 63 61
3 226 66 227
3 228 227 64
3 226 227 228
3 2 69 67
3 2 71 69
3 2 73 71
3 1 76 74
3 1 61 76
3 3 80 78
3 229 81 230
3 5 84 82
3 5 86 84
3 5 88 86
3 3 91 89
3 3 78 91
3 232 231 93
3 234 233 95
3 7 235 237
3 237 236 98
3 235 236 237
3 7 238 239
3 8 240 242
3 242 241 99
3 240 241 242
3 8 243 245
3 243 100 244
3 243 244 245
3 4 103 101
3 9 106 104
3 9 108 106
3 9 110 108
3 10 113 111
3 10 114 113
3 10 115 114
3 11 118 116
3 11 120 118
3 6 123 121
3 12 126 124
3 12 128 126
3 12 129 128
3 13 131 130
3 247 246 55
3 14 134 132
3 16 135 58
3 16 136 135
3 16 138 136
3 13 139 60
3 13 130 139
3 248 140 249
3 250 141 251
3 253 252 141
3 19 254 256
3 254 255 256
3 258 257 62
3 20 259 261
3 259 142 260
3 259 260 261
3 20 143 142
3 21 145 144
3 22 146 65
3 22 147 146
3 23 150 148
3 25 151 68
3 25 152 151
3 25 154 152
3 27 155 70
3 27 156 155
3 27 158 156
3 29 159 72
3 29 160 159
3 30 163 161
3 32 164 75
3 32 165 164
3 32 167 165
3 19 168 77
3 19 262 264
3 264 263 168
3 262 263 264
3 34 171 169
3 266 265 79
3 267 172 268
3 35 269 271
3 269 173 270
3 269 270 271
3 35 174 173
3 15 175 133
3 36 176 83
3 36 177 176
3 36 178 177
3 37 179 85
3 37 180 179
3 37 182 180
3 39 183 87
3 39 184 183
3 17 185 137
3 40 186 90
3 40 187 186
3 40 188 187
3 34 189 92
3 34 169 189
3 41 272 274
3 274 273 190
3 272 273 274
3 42 275 276
3 42 277 278
3 42 279 281
3 279 192 280
3 279 280 281
3 282 193 283
3 284 283 94
3 282 283 284
3 286 285 193
3 18 287 289
3 287 194 288
3 287 288 289
3 43 195 96
3 43 196 195
3 43 197 196
3 41 198 97
3 41 190 198
3 291 290 170
3 292 199 293
3 294 293 191
3 292 293 294
3 295 200 296
3 44 201 102
3 44 202 201
3 24 203 149
3 45 204 105
3 45 205 204
3 45 206 205
3 46 207 107
3 46 297 299
3 299 298 207
3 297 298 299
3 46 300 301
3 47 208 109
3 47 209 208
3 26 210 153
3 48 211 112
3 48 212 211
3 48 213 212
3 49 302 303
3 49 304 305
3 28 214 157
3 50 215 117
3 50 216 215
3 50 306 308
3 308 307 216
3 306 307 308
3 51 217 119
3 51 309 311
3 311 310 217
3 309 310 311
3 38 218 181
3 52 219 122
3 52 220 219
3 31 221 162
3 53 222 125
3 53 223 222
3 53 224 223
3 313 312 127
3 33 225 166
3 54 55 13
3 56 55 54
3 56 314 316
3 316 315 55
3 314 315 316
3 57 58 14
3 59 58 57
3 59 16 58
3 59 60 16
3 54 60 59
3 54 13 60
3 61 62 19
3 63 62 61
3 63 317 319
3 319 318 62
3 317 318 319
3 320 20 321
3 64 65 21
3 66 65 64
3 66 22 65
3 67 68 23
3 69 68 67
3 69 25 68
3 69 70 25
3 71 70 69
3 71 27 70
3 71 72 27
3 73 72 71
3 73 29 72
3 74 75 30
3 76 75 74
3 76 32 75
3 76 77 32
3 61 77 76
3 61 19 77
3 78 79 34
3 80 79 78
3 80 322 324
3 324 323 79
3 322 323 324
3 81 325 326
3 81 327 329
3 327 35 328
3 327 328 329
3 82 83 15
3 84 83 82
3 84 36 83
3 84 85 36
3 86 85 84
3 86 37 85
3 86 87 37
3 88 87 86
3 88 39 87
3 89 90 17
3 91 90 89
3 91 40 90
3 91 92 40
3 78 92 91
3 78 34 92
3 331 330 41
3 93 332 333
3 335 334 93
3 336 42 337
3 338 94 339
3 340 339 42
3 338 339 340
3 341 94 342
3 344 343 94
3 95 96 18
3 345 96 346
3 347 346 95
3 345 346 347
3 348 43 349
3 350 349 96
3 348 349 350
3 351 97 352
3 353 352 43
3 351 352 353
3 354 97 355
3 356 41 357
3 358 357 97
3 356 357 358
3 98 359 361
3 359 360 361
3 363 362 98
3 99 364 365
3 367 366 99
3 100 368 369
3 100 370 371
3 101 372 374
3 372 102 373
3 372 373 374
3 103 102 101
3 103 44 102
3 104 105 24
3 106 105 104
3 106 45 105
3 106 107 45
3 108 107 106
3 108 46 107
3 108 109 46
3 110 109 108
3 110 47 109
3 111 112 26
3 113 112 111
3 113 48 112
3 113 375 377
3 377 376 48
3 375 376 377
3 114 378 380
3 380 379 113
3 378 379 380
3 114 381 382
3 114 383 384
3 115 385 387
3 387 386 114
3 385 386 387
3 115 388 390
3 388 49 389
3 388 389 390
3 116 117 28
3 118 117 116
3 118 50 117
3 118 119 50
3 120 119 118
3 120 51 119
3 121 122 38
3 123 122 121
3 123 52 122
3 124 125 31
3 126 125 124
3 126 53 125
3 126 127 53
3 128 127 126
3 128 391 393
3 393 392 127
3 391 392 393
3 128 394 395
3 129 396 398
3 398 397 128
3 396 397 398
3 129 399 400
3 402 401 33
3 130 403 405
3 405 404 3
3 403 404 405
3 131 406 408
3 408 407 130
3 406 407 408
3 131 409 410
3 55 131 13
3 411 131 412
3 413 412 55
3 411 412 413
3 415 414 131
3 132 416 418
3 416 133 417
3 416 417 418
3 134 133 132
3 134 15 133
3 58 134 14
3 135 134 58
3 135 15 134
3 135 82 15
3 136 82 135
3 136 5 82
3 136 137 5
3 138 137 136
3 138 17 137
3 60 138 16
3 139 138 60
3 139 17 138
3 139 89 17
3 130 89 139
3 130 3 89
3 419 93 420
3 421 93 422
3 424 423 93
3 140 425 426
3 140 427 429
3 427 18 428
3 427 428 429
3 430 140 431
3 141 432 434
3 432 140 433
3 432 433 434
3 141 18 140
3 141 95 18
3 435 95 436
3 437 436 141
3 435 436 437
3 439 438 95
3 62 440 442
3 442 441 19
3 440 441 442
3 444 443 62
3 142 445 446
3 142 447 448
3 142 449 451
3 449 98 450
3 449 450 451
3 143 98 142
3 143 7 98
3 144 452 453
3 145 454 456
3 456 455 144
3 454 455 456
3 145 457 458
3 65 145 21
3 146 145 65
3 146 459 461
3 461 460 145
3 459 460 461
3 146 462 464
3 462 99 463
3 462 463 464
3 147 99 146
3 147 8 99
3 148 149 4
3 150 149 148
3 150 24 149
3 68 150 23
3 151 150 68
3 151 24 150
3 151 104 24
3 152 104 151
3 152 9 104
3 152 153 9
3 154 153 152
3 154 26 153
3 70 154 25
3 155 154 70
3 155 26 154
3 155 111 26
3 156 111 155
3 156 10 111
3 156 157 10
3 158 157 156
3 158 28 157
3 72 158 27
3 159 158 72
3 159 28 158
3 159 116 28
3 160 116 159
3 160 11 116
3 161 162 6
3 163 162 161
3 163 31 162
3 75 163 30
3 164 163 75
3 164 31 163
3 164 124 31
3 165 124 164
3 165 12 124
3 165 166 12
3 167 166 165
3 167 33 166
3 77 167 32
3 168 167 77
3 168 33 167
3 168 465 467
3 467 466 33
3 465 466 467
3 469 468 168
3 169 170 1
3 171 170 169
3 171 470 472
3 472 471 170
3 470 471 472
3 79 171 34
3 473 171 474
3 475 474 79
3 473 474 475
3 477 476 171
3 478 80 479
3 480 479 3
3 478 479 480
3 481 80 482
3 484 483 80
3 172 485 486
3 172 487 488
3 489 172 490
3 173 491 493
3 491 172 492
3 491 492 493
3 173 494 496
3 496 495 172
3 494 495 496
3 173 497 499
3 497 101 498
3 497 498 499
3 174 101 173
3 174 4 101
3 133 500 502
3 500 81 501
3 500 501 502
3 175 81 133
3 175 35 81
3 83 175 15
3 176 175 83
3 176 35 175
3 176 174 35
3 177 174 176
3 177 4 174
3 177 148 4
3 178 148 177
3 178 23 148
3 85 178 36
3 179 178 85
3 179 23 178
3 179 67 23
3 180 67 179
3 180 2 67
3 180 181 2
3 182 181 180
3 182 38 181
3 87 182 37
3 183 182 87
3 183 38 182
3 183 121 38
3 184 121 183
3 184 6 121
3 137 88 5
3 185 88 137
3 185 39 88
3 90 185 17
3 186 185 90
3 186 39 185
3 186 184 39
3 187 184 186
3 187 6 184
3 187 161 6
3 188 161 187
3 188 30 161
3 92 188 40
3 189 188 92
3 189 30 188
3 189 74 30
3 169 74 189
3 169 1 74
3 190 191 0
3 503 191 504
3 505 504 190
3 503 504 505
3 507 506 191
3 509 508 41
3 510 144 511
3 192 512 514
3 512 144 513
3 512 513 514
3 192 21 144
3 94 192 42
3 193 192 94
3 193 21 192
3 193 64 21
3 515 64 516
3 517 516 193
3 515 516 517
3 519 518 64
3 194 520 521
3 194 522 523
3 96 194 18
3 195 194 96
3 195 524 526
3 526 525 194
3 524 525 526
3 195 527 528
3 196 529 531
3 531 530 195
3 529 530 531
3 196 532 533
3 196 534 536
3 534 132 535
3 534 535 536
3 197 132 196
3 197 14 132
3 97 197 43
3 198 197 97
3 198 14 197
3 198 57 14
3 190 57 198
3 190 0 57
3 170 63 1
3 537 63 538
3 539 538 170
3 537 538 539
3 541 540 63
3 191 56 0
3 199 56 191
3 199 542 544
3 544 543 56
3 542 543 544
3 545 199 546
3 547 199 548
3 550 549 199
3 551 66 552
3 200 553 555
3 553 66 554
3 553 554 555
3 200 22 66
3 102 556 558
3 556 200 557
3 556 557 558
3 201 200 102
3 201 22 200
3 201 147 22
3 202 147 201
3 202 8 147
3 149 103 4
3 203 103 149
3 203 44 103
3 105 203 24
3 204 203 105
3 204 44 203
3 204 202 44
3 205 202 204
3 205 8 202
3 205 100 8
3 206 100 205
3 206 559 561
3 561 560 100
3 559 560 561
3 107 206 45
3 207 206 107
3 207 562 564
3 564 563 206
3 562 563 564
3 207 565 566
3 568 567 207
3 569 20 570
3 109 571 573
3 573 572 46
3 571 572 573
3 208 574 576
3 576 575 109
3 574 575 576
3 208 577 579
3 577 20 578
3 577 578 579
3 208 143 20
3 209 143 208
3 209 7 143
3 153 110 9
3 210 110 153
3 210 47 110
3 112 210 26
3 211 210 112
3 211 47 210
3 211 209 47
3 212 209 211
3 212 7 209
3 212 580 582
3 582 581 7
3 580 581 582
3 213 583 585
3 585 584 212
3 583 584 585
3 213 586 587
3 588 213 589
3 590 589 48
3 588 589 590
3 591 213 592
3 594 593 213
3 157 115 10
3 214 115 157
3 214 49 115
3 117 214 28
3 215 214 117
3 215 49 214
3 215 595 597
3 597 596 49
3 595 596 597
3 216 598 600
3 600 599 215
3 598 599 600
3 216 601 602
3 216 603 604
3 606 605 216
3 119 607 609
3 609 608 50
3 607 608 609
3 217 610 612
3 612 611 119
3 610 611 612
3 217 613 614
3 217 615 616
3 618 617 217
3 181 73 2
3 218 73 181
3 218 29 73
3 122 218 38
3 219 218 122
3 219 29 218
3 219 160 29
3 220 160 219
3 220 11 160
3 162 123 6
3 221 123 162
3 221 52 123
3 125 221 31
3 222 221 125
3 222 52 221
3 222 220 52
3 223 220 222
3 223 11 220
3 223 120 11
3 224 120 223
3 224 51 120
3 127 224 53
3 619 224 620
3 621 620 127
3 619 620 621
3 622 51 623
3 624 623 224
3 622 623 624
3 626 625 51
3 166 129 12
3 225 129 166
3 225 627 629
3 629 628 129
3 627 628 629
3 630 225 631
3 632 631 33
3 630 631 632
3 633 225 634
3 636 635 225
