ply
format ascii 1.0
element vertex 403
property float x
property float y
property float z
element face 364
property list uchar int vertex_index
end_header
-10.531129 -87.559296 -37.855034
-28.260529 -58.536919 -41.27541
-26.525644 -68.568535 -33.351547
-11.001259 -77.69043 -43.186172
-20.432407 -62.292732 -45.57317
-20.368896 -48.652779 -51.138393
-5.823657 -93.87664 -36.327194
-0.573233 -96.072983 -37.362751
-10.728344 -83.214699 -40.653412
-27.455664 -64.111351 -37.338749
-24.212152 -66.239059 -40.191845
-20.290768 -68.04528 -42.717564
-24.452887 -60.613495 -43.740314
4.475083 -101.046852 -34.621716
-6.004094 -79.255928 -43.774742
-11.123042 -71.487617 -45.373695
-15.622813 -75.745621 -41.756474
-16.037224 -69.874748 -44.38171
-16.001539 -63.777351 -46.796658
-28.456953 -52.818729 -45.022194
-24.603632 -54.302795 -47.051357
-20.528307 -55.74474 -48.374836
-8.035105 -90.909233 -37.192734
-5.645329 -92.091309 -37.915234
-8.224399 -88.639679 -38.786564
-8.191621 -86.659058 -40.068016
-10.70395 -85.386665 -39.319492
-27.955988 -61.265732 -39.365978
-26.014793 -64.966705 -38.878242
-26.261349 -62.28437 -40.814106
-24.486235 -63.327522 -41.995358
-26.525261 -59.457088 -42.575001
4.181213 -102.490715 -32.923374
1.627065 -100.210159 -34.580544
-8.279974 -81.535057 -42.534279
-5.947546 -82.149307 -42.86507
-8.486318 -78.594826 -43.583405
-11.018495 -74.744629 -44.306595
-25.828165 -70.749535 -31.333752
-20.45392 -65.017265 -44.231689
-18.276924 -68.963867 -43.602409
-18.264578 -66.098114 -44.965599
-16.089151 -66.884857 -45.59623
-18.385418 -62.720352 -46.366329
-28.446625 -49.896118 -46.762093
-26.53936 -53.587826 -46.137482
-22.357233 -48.172939 -50.804646
-22.475016 -51.540051 -49.374207
-20.33695 -52.337257 -49.776516
-18.278963 -56.257652 -48.874928
-3.376241 -96.72924 -35.370251
-0.766206 -97.725319 -35.93782
-3.202791 -95.084595 -36.97179
-8.20812 -84.202438 -41.370625
-10.759895 -80.605408 -41.999779
-27.076817 -66.290451 -35.43998
-25.186029 -69.679245 -35.170147
-25.492178 -67.613564 -37.080029
-23.955524 -68.619019 -38.528343
-22.331778 -67.049156 -41.599251
-22.326283 -64.477661 -43.189476
-22.552197 -61.458302 -44.69466
-5.801837 -95.504166 -34.697468
-8.223894 -92.545181 -35.497025
-10.516444 -89.313278 -36.329231
6.669156 -104.407318 -30.974333
2.066098 -98.645241 -36.185349
4.75334 -99.242828 -36.186031
-12.856964 -86.158356 -36.742882
-15.03616 -82.993973 -37.13554
-13.015305 -84.052261 -38.391628
-13.297605 -81.798569 -39.779968
-13.215068 -79.517677 -41.229565
-13.465159 -76.723671 -42.534504
-15.807659 -72.784645 -43.167927
-13.412255 -74.007286 -43.773075
-13.564655 -70.854942 -44.958305
-13.637247 -67.76506 -46.036343
-13.858095 -64.278328 -47.124767
-29.998646 -54.906998 -41.900837
-30.126839 -52.085003 -43.82616
-28.408316 -55.693676 -43.200932
-26.649887 -56.603527 -44.298943
-24.652098 -57.444839 -45.385246
-22.596664 -58.327919 -46.249352
-22.653791 -54.869938 -47.838688
-20.533926 -59.068707 -46.975609
-18.277325 -59.673912 -47.617489
-16.049492 -60.083256 -48.06144
0.334487 -99.723381 -34.434725
1.511799 -100.919865 -33.659443
-25.618366 -70.193447 -33.214412
-25.269627 -71.283947 -32.205515
-26.176904 -69.659035 -32.34265
-28.513627 -48.1382 -47.677863
-29.368896 -47.855228 -47.183806
-27.519855 -50.073307 -47.321925
-28.513627 -48.1382 -47.677863
-19.373931 -50.618298 -50.635271
-19.357958 -52.460537 -49.954332
-20.352923 -50.495018 -50.457454
-19.282789 -48.829977 -51.24316
-19.373931 -50.618298 -50.635271
-4.322733 -92.630917 -38.187494
-5.611981 -91.049591 -38.632355
-23.173645 -67.960316 -40.066799
-23.045331 -69.150295 -39.235048
-24.083838 -67.429039 -39.360094
-23.271965 -66.644107 -40.895548
-22.233458 -68.365364 -40.770502
-23.173645 -67.960316 -40.066799
-5.854297 -96.149071 -33.82436
-4.631137 -96.83276 -34.185226
-9.328973 -91.793011 -35.049197
-8.191854 -93.29248 -34.681602
-10.475248 -90.177059 -35.4653
-9.370169 -90.929229 -35.913128
-9.328973 -91.793011 -35.049197
5.26281 -104.038322 -31.002585
6.290015 -104.808411 -30.052629
5.718342 -102.120849 -33.670794
5.571407 -102.842781 -32.821623
4.328148 -101.768783 -33.772545
5.817314 -101.299233 -34.526886
5.718342 -102.120849 -33.670794
4.801863 -98.208866 -36.855038
3.431005 -97.96157 -36.899027
6.04015 -99.429283 -36.059042
4.801863 -98.208866 -36.855038
-4.717202 -80.991059 -43.364313
-4.688928 -82.437748 -42.909477
-5.97582 -80.702618 -43.319906
-4.849254 -79.333793 -43.795244
-4.717202 -80.991059 -43.364313
-6.168974 -77.596359 -44.212523
-4.849254 -79.333793 -43.795244
-9.928568 -71.886093 -45.419839
-9.9388 -73.440403 -44.975143
-11.213452 -69.834907 -45.856184
-9.928568 -71.886093 -45.419839
-13.901647 -85.501889 -36.053591
-12.742992 -87.139786 -35.869861
-24.180122 -71.457393 -34.969358
-24.370002 -70.350033 -35.960798
-15.24345 -81.786903 -37.933319
-16.243123 -81.219391 -37.27274
-14.233023 -82.316047 -38.561363
-14.025733 -83.523117 -37.763584
-15.24345 -81.786903 -37.933319
-14.374173 -81.189201 -39.255533
-13.156455 -82.925415 -39.085798
-14.233023 -82.316047 -38.561363
-14.418941 -77.631649 -41.49302
-14.461346 -78.776355 -40.772204
-15.665218 -76.890327 -41.035658
-19.129706 -69.971706 -42.487984
-20.156157 -69.530178 -41.926489
-30.857819 -53.107123 -42.161705
-30.720275 -54.568647 -41.114071
-29.291896 -52.451866 -44.424177
-30.203639 -50.540701 -44.762213
-29.368696 -50.907564 -45.36023
-16.056988 -58.441284 -48.586489
-17.164228 -58.170454 -48.468184
-17.171723 -56.528482 -48.993233
-14.915707 -60.528904 -48.092255
-16.056988 -58.441284 -48.586489
-6.901516 -89.323777 -39.06802
-5.611981 -91.049591 -38.632355
-6.934864 -90.365494 -38.350899
-8.20801 -87.649369 -39.42729
-6.885127 -88.333466 -39.708746
-6.901516 -89.323777 -39.06802
2.788873 -102.060142 -32.830858
4.018838 -103.080021 -31.977105
2.904139 -101.350437 -33.751959
2.788873 -102.060142 -32.830858
1.511799 -100.919865 -33.659443
0.767718 -96.376648 -37.487386
-0.499721 -95.076038 -38.032339
-7.11376 -81.842182 -42.699675
-5.813279 -83.572509 -42.352339
-6.979492 -83.265384 -42.186943
-8.620439 -76.994007 -44.079998
-7.379327 -77.324558 -44.175667
-7.245206 -78.925377 -43.679074
-9.886527 -75.068908 -44.441593
-8.620439 -76.994007 -44.079998
-9.752406 -76.669727 -43.945
-11.070768 -73.116123 -44.840145
-9.9388 -73.440403 -44.975143
-9.886527 -75.068908 -44.441593
-24.952179 -72.312843 -31.186867
-25.535218 -71.608723 -30.320193
-24.952179 -72.312843 -31.186867
-25.269627 -71.283947 -32.205515
-16.756954 -75.168026 -41.227734
-15.665218 -76.890327 -41.035658
-29.363532 -49.446258 -46.230179
-29.368896 -47.855228 -47.183806
-28.451789 -51.357423 -45.892144
-29.368696 -50.907564 -45.36023
-29.363532 -49.446258 -46.230179
-26.566222 -51.919161 -47.009619
-27.492992 -51.741972 -46.449787
-27.519855 -50.073307 -47.321925
-25.598358 -52.276646 -47.466557
-25.571496 -53.945311 -46.59442
-26.566222 -51.919161 -47.009619
-22.416125 -49.856495 -50.089427
-23.467385 -49.516621 -49.845356
-23.408493 -47.833065 -50.560575
-18.328964 -54.420735 -49.503538
-19.307957 -54.297455 -49.325722
-19.357958 -52.460537 -49.954332
-17.171723 -56.528482 -48.993233
-18.328964 -54.420735 -49.503538
-2.071223 -97.22728 -35.654036
-0.862148 -98.480961 -35.113363
-2.167165 -97.982922 -34.829578
-3.101464 -94.12756 -37.715772
-4.42406 -93.587952 -37.443512
-4.322733 -92.630917 -38.187494
-1.786685 -94.621754 -37.911253
-1.888012 -95.578789 -37.167271
-3.101464 -94.12756 -37.715772
-0.499721 -95.076038 -38.032339
-1.786685 -94.621754 -37.911253
-6.941332 -87.106141 -40.364877
-6.885127 -88.333466 -39.708746
-6.949582 -85.877831 -41.016182
-6.941332 -87.106141 -40.364877
-8.19987 -85.430748 -40.71932
-6.943566 -84.599075 -41.605116
-6.949582 -85.877831 -41.016182
-8.244047 -82.868747 -41.952452
-6.979492 -83.265384 -42.186943
-6.943566 -84.599075 -41.605116
-24.523076 -69.317193 -36.91574
-24.370002 -70.350033 -35.960798
-25.339104 -68.646404 -36.125088
-23.754749 -69.81992 -37.639896
-24.523076 -69.317193 -36.91574
-24.723851 -68.116291 -37.804186
-22.913819 -70.379288 -38.379952
-23.754749 -69.81992 -37.639896
-22.913819 -70.379288 -38.379952
-23.045331 -69.150295 -39.235048
-21.176662 -69.032116 -41.367333
-22.233458 -68.365364 -40.770502
-21.311273 -67.547218 -42.158408
-20.156157 -69.530178 -41.926489
-21.176662 -69.032116 -41.367333
-23.320691 -46.147651 -51.319847
-23.408493 -47.833065 -50.560575
-22.296971 -46.338296 -51.542523
-23.320691 -46.147651 -51.319847
-21.302802 -46.578216 -51.709396
-21.363065 -48.412859 -50.971519
-22.296971 -46.338296 -51.542523
-21.204871 -44.714063 -52.398745
-20.270965 -46.788626 -51.827742
-21.302802 -46.578216 -51.709396
-3.41834 -97.445297 -34.521618
-2.167165 -97.982922 -34.829578
-4.589039 -96.116703 -35.03386
-3.41834 -97.445297 -34.521618
-4.631137 -96.83276 -34.185226
-6.980825 -94.771973 -34.281824
-5.854297 -96.149071 -33.82436
-7.012866 -94.024674 -35.097246
-6.980825 -94.771973 -34.281824
-8.191854 -93.29248 -34.681602
-26.435684 -69.969456 -30.380733
-25.535218 -71.608723 -30.320193
-26.761428 -69.037781 -31.448402
-26.435684 -69.969456 -30.380733
-27.368947 -68.257702 -30.495382
-27.110167 -67.947281 -32.457299
-26.176904 -69.659035 -32.34265
-26.761428 -69.037781 -31.448402
-27.418758 -66.865635 -33.568782
-27.110167 -67.947281 -32.457299
-27.694344 -65.726593 -34.612999
-26.80123 -67.429493 -34.395764
-27.418758 -66.865635 -33.568782
-28.003628 -64.486725 -35.68638
-27.694344 -65.726593 -34.612999
-28.193051 -63.397175 -36.635765
-27.26624 -65.200901 -36.389364
-28.003628 -64.486725 -35.68638
-28.411578 -62.239874 -37.585544
-28.193051 -63.397175 -36.635765
-28.661741 -60.817065 -38.599159
-27.705826 -62.688541 -38.352363
-28.411578 -62.239874 -37.585544
-28.882231 -59.444607 -39.60643
-28.661741 -60.817065 -38.599159
-29.034501 -58.080201 -40.561146
-28.108258 -59.901325 -40.320694
-28.882231 -59.444607 -39.60643
7.687944 -105.114716 -29.915422
6.290015 -104.808411 -30.052629
7.937548 -104.605232 -30.854062
7.687944 -105.114716 -29.915422
5.425185 -103.449016 -31.948854
5.26281 -104.038322 -31.002585
4.018838 -103.080021 -31.977105
6.815378 -103.801083 -31.847103
5.425185 -103.449016 -31.948854
5.571407 -102.842781 -32.821623
7.937548 -104.605232 -30.854062
6.815378 -103.801083 -31.847103
0.430429 -98.967739 -35.259182
0.334487 -99.723381 -34.434725
-0.862148 -98.480961 -35.113363
2.087384 -97.662777 -36.898685
0.746433 -97.359112 -36.77405
0.767718 -96.376648 -37.487386
3.409719 -98.944035 -36.18569
2.087384 -97.662777 -36.898685
3.431005 -97.96157 -36.899027
5.956442 -100.397221 -35.309044
5.817314 -101.299233 -34.526886
4.614211 -100.14484 -35.403874
5.956442 -100.397221 -35.309044
6.04015 -99.429283 -36.059042
-4.618848 -83.850135 -42.464329
-5.813279 -83.572509 -42.352339
-4.618848 -83.850135 -42.464329
-4.688928 -82.437748 -42.909477
-6.168974 -77.596359 -44.212523
-7.379327 -77.324558 -44.175667
-11.572733 -88.717247 -35.663036
-10.475248 -90.177059 -35.4653
-11.686704 -87.735817 -36.536057
-11.572733 -88.717247 -35.663036
-12.742992 -87.139786 -35.869861
-24.948559 -70.748802 -34.123712
-25.618366 -70.193447 -33.214412
-25.855837 -69.12389 -34.260847
-24.948559 -70.748802 -34.123712
-24.180122 -71.457393 -34.969358
-16.046551 -82.29414 -36.461546
-16.243123 -81.219391 -37.27274
-14.991245 -83.919697 -36.24992
-16.046551 -82.29414 -36.461546
-13.946562 -84.576165 -36.939211
-13.901647 -85.501889 -36.053591
-14.991245 -83.919697 -36.24992
-14.502614 -79.916801 -40.047405
-14.374173 -81.189201 -39.255533
-13.256336 -80.658123 -40.504767
-14.502614 -79.916801 -40.047405
-14.461346 -78.776355 -40.772204
-16.795728 -73.821877 -42.007439
-16.756954 -75.168026 -41.227734
-18.122784 -70.430999 -42.930407
-19.129706 -69.971706 -42.487984
-19.283846 -68.504573 -43.159987
-16.888151 -72.341388 -42.713166
-18.122784 -70.430999 -42.930407
-17.042292 -70.874256 -43.385168
-15.715236 -74.265133 -42.4622
-16.795728 -73.821877 -42.007439
-16.888151 -72.341388 -42.713166
-12.470555 -67.973629 -46.187508
-11.213452 -69.834907 -45.856184
-12.380145 -69.626339 -45.705019
-12.580979 -66.230263 -46.73172
-12.470555 -67.973629 -46.187508
-13.747671 -66.021694 -46.580555
-12.66877 -64.554981 -47.183532
-12.580979 -66.230263 -46.73172
-29.90356 -56.26524 -40.87386
-30.720275 -54.568647 -41.114071
-29.129587 -56.721958 -41.588124
-29.034501 -58.080201 -40.561146
-29.90356 -56.26524 -40.87386
-31.055532 -50.223495 -44.050176
-30.203639 -50.540701 -44.762213
-30.921915 -51.696125 -43.124367
-31.055532 -50.223495 -44.050176
-30.062742 -53.496001 -42.863499
-30.857819 -53.107123 -42.161705
-30.921915 -51.696125 -43.124367
-24.582729 -52.600071 -47.885666
-25.598358 -52.276646 -47.466557
-23.51842 -51.218699 -49.047091
-23.467385 -49.516621 -49.845356
-23.607808 -52.883642 -48.279331
-23.51842 -51.218699 -49.047091
-22.564403 -53.204994 -48.606448
-23.628712 -54.586366 -47.445023
-24.582729 -52.600071 -47.885666
-23.607808 -52.883642 -48.279331
-13.820008 -62.62644 -47.623919
-14.953793 -62.180792 -47.593103
-14.915707 -60.528904 -48.092255
-12.66877 -64.554981 -47.183532
-13.820008 -62.62644 -47.623919
-19.282789 -48.829977 -51.24316
-20.270965 -46.788626 -51.827742
3 0 24 22
3 0 26 24
3 1 29 27
3 1 31 29
3 89 33 90
3 3 36 34
3 3 37 36
3 2 91 93
3 93 92 38
3 91 92 93
3 4 41 39
3 4 43 41
3 94 44 95
3 97 96 44
3 5 48 46
3 5 98 100
3 100 99 48
3 98 99 100
3 5 101 102
3 6 52 50
3 104 103 23
3 8 53 25
3 8 54 53
3 9 57 55
3 10 58 28
3 10 105 107
3 107 106 58
3 105 106 107
3 10 108 110
3 108 59 109
3 108 109 110
3 12 60 30
3 12 61 60
3 111 62 112
3 113 63 114
3 115 64 116
3 117 116 63
3 115 116 117
3 118 65 119
3 13 120 122
3 122 121 32
3 120 121 122
3 13 123 124
3 7 66 51
3 125 67 126
3 128 127 67
3 14 129 131
3 131 130 35
3 129 130 131
3 14 132 133
3 14 134 135
3 15 136 137
3 15 138 139
3 140 68 141
3 143 142 56
3 144 69 145
3 146 70 147
3 148 147 69
3 146 147 148
3 149 71 150
3 151 150 70
3 149 150 151
3 16 152 154
3 152 72 153
3 152 153 154
3 16 73 72
3 11 155 156
3 17 74 40
3 17 75 74
3 17 76 75
3 18 77 42
3 18 78 77
3 157 79 158
3 19 159 161
3 159 80 160
3 159 160 161
3 19 81 80
3 19 82 81
3 20 83 45
3 20 84 83
3 21 85 47
3 21 86 85
3 21 87 86
3 162 88 163
3 164 163 49
3 162 163 164
3 166 165 88
3 22 23 6
3 24 23 22
3 24 167 169
3 169 168 23
3 167 168 169
3 24 170 172
3 170 25 171
3 170 171 172
3 26 25 24
3 26 8 25
3 27 28 9
3 29 28 27
3 29 10 28
3 29 30 10
3 31 30 29
3 31 12 30
3 173 32 174
3 33 175 177
3 175 32 176
3 175 176 177
3 33 13 32
3 179 178 7
3 34 180 182
3 180 35 181
3 180 181 182
3 36 35 34
3 36 14 35
3 36 183 185
3 185 184 14
3 183 184 185
3 37 186 188
3 188 187 36
3 186 187 188
3 37 189 191
3 189 15 190
3 189 190 191
3 38 192 193
3 195 194 38
3 196 16 197
3 39 40 11
3 41 40 39
3 41 17 40
3 41 42 17
3 43 42 41
3 43 18 42
3 44 198 199
3 44 200 202
3 200 19 201
3 200 201 202
3 44 45 19
3 203 45 204
3 205 204 44
3 203 204 205
3 206 20 207
3 208 207 45
3 206 207 208
3 46 209 211
3 209 47 210
3 209 210 211
3 48 47 46
3 48 21 47
3 48 49 21
3 212 49 213
3 214 213 48
3 212 213 214
3 216 215 49
3 50 217 219
3 217 51 218
3 217 218 219
3 52 51 50
3 52 7 51
3 23 52 6
3 220 52 221
3 222 221 23
3 220 221 222
3 223 7 224
3 225 224 52
3 223 224 225
3 227 226 7
3 25 228 229
3 53 230 232
3 232 231 25
3 230 231 232
3 53 233 234
3 53 235 237
3 235 34 236
3 235 236 237
3 54 34 53
3 54 3 34
3 55 56 2
3 57 56 55
3 57 238 240
3 240 239 56
3 238 239 240
3 28 57 9
3 58 57 28
3 58 241 243
3 243 242 57
3 241 242 243
3 58 244 245
3 247 246 58
3 59 248 249
3 59 250 252
3 250 11 251
3 250 251 252
3 30 59 10
3 60 59 30
3 60 11 59
3 60 39 11
3 61 39 60
3 61 4 39
3 253 46 254
3 255 46 256
3 257 5 258
3 259 258 46
3 257 258 259
3 262 261 5
3 260 261 262
3 263 50 264
3 62 265 267
3 265 50 266
3 265 266 267
3 62 6 50
3 268 62 269
3 63 270 272
3 270 62 271
3 270 271 272
3 63 6 62
3 63 22 6
3 64 22 63
3 64 0 22
3 273 38 274
3 275 38 276
3 275 276 277
3 278 2 279
3 280 279 38
3 278 279 280
3 281 2 282
3 283 55 284
3 285 284 2
3 283 284 285
3 286 55 287
3 288 9 289
3 290 289 55
3 288 289 290
3 291 9 292
3 293 27 294
3 295 294 9
3 293 294 295
3 296 27 297
3 298 1 299
3 300 299 27
3 298 299 300
3 65 301 302
3 65 303 304
3 32 305 307
3 305 65 306
3 305 306 307
3 308 65 309
3 310 309 32
3 308 309 310
3 312 311 65
3 51 313 315
3 313 33 314
3 313 314 315
3 66 33 51
3 66 13 33
3 316 66 317
3 318 317 7
3 316 317 318
3 67 319 321
3 319 66 320
3 319 320 321
3 67 13 66
3 67 322 324
3 324 323 13
3 322 323 324
3 326 325 67
3 35 327 328
3 330 329 35
3 332 331 14
3 333 64 334
3 68 335 337
3 335 64 336
3 335 336 337
3 68 0 64
3 56 338 340
3 340 339 2
3 338 339 340
3 342 341 56
3 69 343 344
3 69 345 346
3 69 347 349
3 347 68 348
3 347 348 349
3 70 68 69
3 70 0 68
3 70 26 0
3 71 26 70
3 71 8 26
3 350 71 351
3 72 352 354
3 352 71 353
3 352 353 354
3 72 8 71
3 72 54 8
3 73 54 72
3 73 3 54
3 355 16 356
3 40 357 359
3 359 358 11
3 357 358 359
3 74 360 362
3 362 361 40
3 360 361 362
3 74 363 365
3 363 16 364
3 363 364 365
3 74 73 16
3 75 73 74
3 75 3 73
3 75 37 3
3 76 37 75
3 76 15 37
3 42 76 17
3 77 76 42
3 77 15 76
3 77 366 368
3 368 367 15
3 366 367 368
3 78 369 371
3 371 370 77
3 369 370 371
3 78 372 373
3 79 374 375
3 79 376 378
3 376 1 377
3 376 377 378
3 80 379 380
3 80 381 382
3 80 383 385
3 383 79 384
3 383 384 385
3 81 79 80
3 81 1 79
3 81 31 1
3 82 31 81
3 82 12 31
3 45 82 19
3 83 82 45
3 83 12 82
3 83 61 12
3 84 61 83
3 84 4 61
3 386 20 387
3 47 388 389
3 85 390 392
3 392 391 47
3 390 391 392
3 85 393 395
3 393 20 394
3 393 394 395
3 85 84 20
3 86 84 85
3 86 4 84
3 86 43 4
3 87 43 86
3 87 18 43
3 49 87 21
3 88 87 49
3 88 18 87
3 88 78 18
3 396 78 397
3 398 397 88
3 396 397 398
3 400 399 78
3 402 401 5
