ply
format ascii 1.0
element vertex 347
property float x
property float y
property float z
element face 331
property list uchar int vertex_index
end_header
12.40216 29.470182 -69.584229
20.862814 30.432262 -66.592545
19.218931 23.310106 -72.269218
27.592367 22.52809 -67.409126
34.278999 17.908381 -58.964634
24.309872 26.913759 -67.612785
28.169298 25.463573 -64.078575
9.363743 31.342848 -66.810081
5.876871 29.188263 -66.081619
8.503469 27.561768 -69.146927
7.805839 22.812798 -70.49559
36.463966 12.091782 -57.384892
17.311832 32.951874 -64.818291
16.473003 30.520536 -68.696678
15.732861 26.872883 -71.493164
20.002258 27.557709 -70.059341
23.614697 23.210972 -70.383331
34.063869 20.01952 -54.883167
31.532309 23.085693 -59.599281
31.221857 20.666122 -63.584019
30.748594 16.637402 -66.169365
26.612595 27.476673 -63.82317
28.368721 26.414793 -61.979412
12.819632 31.105801 -68.210014
11.228525 32.109867 -66.763069
10.771897 30.406878 -68.312378
8.933672 29.466097 -68.180473
10.468771 28.553232 -69.601471
9.853015 26.487207 -70.457901
11.846415 27.431023 -70.758453
18.905462 31.819551 -65.875343
16.874022 31.852654 -66.924843
18.68676 30.612694 -67.796036
18.232042 29.184244 -69.486504
20.444698 29.082575 -68.550247
26.055609 24.890894 -67.530785
23.965036 25.253073 -69.149048
25.630735 23.021351 -69.017525
25.255157 20.827904 -70.074203
27.287302 20.44384 -68.595917
5.53549 27.073992 -67.008179
9.221377 21.485275 -71.599068
8.882803 18.921959 -71.63134
17.401596 25.209332 -72.052246
15.163807 24.641239 -72.421852
16.943966 22.896322 -72.802017
35.376198 16.554075 -56.651966
34.21077 19.186487 -57.026764
32.836929 21.714661 -57.268963
32.935894 20.669828 -59.417801
31.485939 21.974819 -61.701477
32.871983 19.360552 -61.306713
32.385315 15.853809 -64.266541
30.389215 14.340158 -66.98735
22.898943 29.957058 -65.220886
22.481474 28.788553 -67.371223
24.589342 28.294838 -65.711327
26.314247 26.347883 -65.898613
28.029886 24.004044 -65.861229
6.309108 31.190796 -64.934319
7.536217 30.260632 -66.641418
7.115584 28.384626 -67.659943
6.807665 26.2131 -68.581329
6.444367 23.733667 -69.198982
8.060308 25.124588 -69.980171
9.572066 24.084385 -71.215691
11.039246 22.782238 -72.168518
20.931973 20.99007 -72.235733
36.502754 13.62056 -55.757469
35.475624 15.001388 -58.216251
34.218517 16.407833 -60.573395
15.318619 32.929985 -65.763153
14.741143 31.732271 -67.576225
14.519094 30.069538 -69.330322
13.894685 28.234507 -70.684509
16.103783 28.797726 -70.270462
17.925014 27.342192 -70.909714
19.677979 25.5063 -71.343193
22.206472 27.277985 -69.023392
21.82028 25.535286 -70.382034
21.445377 23.458736 -71.435089
23.047222 21.228451 -71.287651
13.564878 26.313061 -71.6707
29.993853 24.360083 -61.82251
29.803097 23.275856 -63.741028
29.585808 21.555431 -65.528748
32.737717 17.741945 -62.833057
31.150503 18.72913 -64.895729
29.29332 19.730604 -66.832802
28.962889 17.553076 -67.833138
28.31568 26.809137 -60.891594
27.479852 27.398259 -61.837389
19.884138 31.125906 -66.233944
19.987268 31.601821 -65.26374
20.965944 30.908177 -65.622342
4.751486 26.269414 -66.529709
5.364377 25.878698 -67.352222
9.873469 19.603516 -72.039395
9.05209 20.203617 -71.615204
10.042756 20.885174 -72.023258
9.651855 18.212677 -71.978012
9.873469 19.603516 -72.039395
23.870102 29.595744 -64.426265
22.993893 30.365806 -64.111599
24.715301 28.764634 -64.671486
23.744142 29.125948 -65.466106
23.870102 29.595744 -64.426265
9.557644 32.206303 -65.961639
10.490035 32.589813 -65.938133
10.296134 31.726357 -66.786575
8.65319 31.753074 -66.004417
9.557644 32.206303 -65.961639
8.44998 30.80174 -66.72575
7.739427 31.211966 -65.920085
8.65319 31.753074 -66.004417
10.52966 24.630993 -71.431622
9.71254 25.285796 -70.836796
10.670134 25.832404 -71.052727
11.26325 23.97992 -71.908035
10.305656 23.433312 -71.692104
10.52966 24.630993 -71.431622
20.651208 19.747906 -72.447373
21.737222 19.882905 -72.061771
36.48336 12.856171 -56.57118
36.97421 12.00646 -55.370192
36.954816 11.242071 -56.183903
35.924161 12.6641 -58.560944
35.429991 14.118903 -58.976624
35.969795 13.546585 -57.800572
17.438783 33.361841 -63.688288
18.288047 32.799932 -64.287273
16.508821 33.45655 -64.21171
17.438783 33.361841 -63.688288
16.315226 32.940929 -65.290722
15.512215 33.445606 -64.684141
16.508821 33.45655 -64.21171
24.961518 19.729942 -70.464389
26.097595 19.454176 -69.759632
5.258762 29.53466 -65.262992
5.474881 30.535926 -64.689343
6.092989 30.189529 -65.507969
7.040348 21.978507 -70.057148
6.359612 22.438942 -69.408844
7.125103 23.273232 -69.847286
14.133436 24.214883 -72.448986
15.003459 23.409174 -72.714935
34.524353 19.229864 -53.684477
34.681292 18.786049 -54.754337
33.88695 20.331713 -53.779325
34.524353 19.229864 -53.684477
33.324837 21.208633 -55.012121
33.88695 20.331713 -53.779325
31.38436 23.576229 -58.592048
32.03667 22.890713 -57.42689
32.184619 22.400177 -58.434122
30.734754 24.186322 -59.686098
31.38436 23.576229 -58.592048
30.763081 23.722888 -60.710895
29.965526 24.823517 -60.797713
30.734754 24.186322 -59.686098
33.356135 16.240682 -62.442019
33.478117 17.074889 -61.703226
34.096535 15.573626 -61.312188
29.400386 14.753037 -67.823135
30.078972 13.176341 -67.342208
26.601788 27.929199 -62.759268
25.726928 28.355552 -63.727407
27.490658 26.945733 -62.901291
26.601788 27.929199 -62.759268
27.479852 27.398259 -61.837389
12.024078 31.607834 -67.486542
12.19935 32.395981 -66.568543
12.994903 31.893948 -67.292015
11.666835 26.304312 -71.203002
10.670134 25.832404 -71.052727
10.849715 26.959115 -70.608177
36.917574 10.406915 -56.909122
36.954816 11.242071 -56.183903
36.400388 11.114251 -58.0852
36.917574 10.406915 -56.909122
19.084862 32.233771 -64.815799
19.987268 31.601821 -65.26374
18.108647 32.385712 -65.346817
18.288047 32.799932 -64.287273
19.084862 32.233771 -64.815799
27.113667 19.262144 -69.020489
26.097595 19.454176 -69.759632
26.27123 20.635872 -69.33506
4.902745 27.388504 -66.188248
5.073436 28.445639 -65.724968
5.706181 28.131127 -66.544899
4.902745 27.388504 -66.188248
4.751486 26.269414 -66.529709
8.395497 20.831183 -71.174164
7.687728 21.494944 -70.622425
8.513608 22.149037 -71.047329
8.22621 19.549525 -71.1903
8.395497 20.831183 -71.174164
9.05209 20.203617 -71.615204
8.098917 18.083165 -71.145588
8.22621 19.549525 -71.1903
8.790571 17.456355 -71.535598
8.098917 18.083165 -71.145588
8.790571 17.456355 -71.535598
9.651855 18.212677 -71.978012
15.893539 22.536715 -72.905018
15.003459 23.409174 -72.714935
16.053887 23.76878 -72.611935
35.337456 17.053327 -55.638737
35.883576 15.752645 -55.31228
34.754742 18.369532 -55.826135
35.337456 17.053327 -55.638737
34.793484 17.870281 -56.839365
34.137319 19.603003 -55.954966
34.681292 18.786049 -54.754337
34.754742 18.369532 -55.826135
33.033406 14.194973 -63.753415
33.179934 15.296614 -63.15876
32.222645 14.726575 -64.760197
33.033406 14.194973 -63.753415
31.404285 15.118372 -65.711609
31.566955 16.245605 -65.217953
32.222645 14.726575 -64.760197
31.224595 13.96975 -66.120602
30.568905 15.48878 -66.578358
31.404285 15.118372 -65.711609
31.007779 12.677179 -66.488007
31.224595 13.96975 -66.120602
30.078972 13.176341 -67.342208
31.007779 12.677179 -66.488007
21.984009 30.670575 -64.936512
22.993893 30.365806 -64.111599
21.880879 30.19466 -65.906715
20.965944 30.908177 -65.622342
21.984009 30.670575 -64.936512
25.600969 27.885756 -64.767248
24.715301 28.764634 -64.671486
25.726928 28.355552 -63.727407
11.445841 32.861322 -65.839321
12.19935 32.395981 -66.568543
11.445841 32.861322 -65.839321
10.490035 32.589813 -65.938133
7.125872 31.677048 -65.066536
6.480892 32.176569 -64.149698
6.922662 30.725714 -65.787869
7.125872 31.677048 -65.066536
7.739427 31.211966 -65.920085
6.000464 25.448251 -68.138797
5.364377 25.878698 -67.352222
6.171577 26.643546 -67.794754
6.626016 24.973384 -68.890155
5.818815 24.208535 -68.447624
6.000464 25.448251 -68.138797
10.951691 21.533655 -72.307984
10.042756 20.885174 -72.023258
10.130312 22.133757 -71.883793
19.812131 20.978144 -72.549804
18.95561 22.138162 -72.566547
20.075452 22.150088 -72.252476
19.812131 20.978144 -72.549804
20.651208 19.747906 -72.447373
36.932118 12.78567 -54.609821
36.97421 12.00646 -55.370192
36.446854 14.285887 -54.865032
36.932118 12.78567 -54.609821
35.939476 15.087318 -56.204718
35.883576 15.752645 -55.31228
36.446854 14.285887 -54.865032
34.801437 14.822126 -60.155195
34.847071 15.704611 -59.394823
35.429991 14.118903 -58.976624
34.096535 15.573626 -61.312188
34.801437 14.822126 -60.155195
35.924161 12.6641 -58.560944
36.400388 11.114251 -58.0852
14.47728 33.451946 -65.045586
15.512215 33.445606 -64.684141
14.244397 32.80604 -66.068585
14.47728 33.451946 -65.045586
13.955658 32.207183 -66.975121
14.244397 32.80604 -66.068585
15.029881 32.331128 -66.669689
13.780387 31.419036 -67.893119
12.994903 31.893948 -67.292015
13.955658 32.207183 -66.975121
22.794846 20.002095 -71.58773
21.737222 19.882905 -72.061771
21.989598 21.10926 -71.761692
23.857551 19.930215 -71.071113
24.15119 21.028177 -70.680927
24.961518 19.729942 -70.464389
22.794846 20.002095 -71.58773
23.857551 19.930215 -71.071113
5.699685 31.590612 -64.104735
6.480892 32.176569 -64.149698
5.699685 31.590612 -64.104735
5.474881 30.535926 -64.689343
5.258762 29.53466 -65.262992
5.073436 28.445639 -65.724968
5.721936 23.002323 -68.691318
5.818815 24.208535 -68.447624
5.721936 23.002323 -68.691318
6.359612 22.438942 -69.408844
7.040348 21.978507 -70.057148
7.687728 21.494944 -70.622425
12.526066 25.745331 -71.659126
11.666835 26.304312 -71.203002
12.705647 26.872042 -71.214576
13.333971 25.050795 -72.07341
14.364342 25.47715 -72.046276
14.133436 24.214883 -72.448986
12.526066 25.745331 -71.659126
13.333971 25.050795 -72.07341
12.071155 23.285383 -72.322319
11.26325 23.97992 -71.908035
11.897652 22.035184 -72.520927
12.071155 23.285383 -72.322319
10.951691 21.533655 -72.307984
11.897652 22.035184 -72.520927
17.818127 21.931271 -72.832947
18.081449 23.103214 -72.535618
18.95561 22.138162 -72.566547
16.768862 21.610894 -73.005104
17.818127 21.931271 -72.832947
15.893539 22.536715 -72.905018
16.768862 21.610894 -73.005104
32.711366 22.056203 -56.205019
33.324837 21.208633 -55.012121
33.450399 20.86709 -56.076065
32.711366 22.056203 -56.205019
32.03667 22.890713 -57.42689
29.15296 25.850872 -60.876164
28.31568 26.809137 -60.891594
29.181287 25.387438 -61.900961
29.15296 25.850872 -60.876164
29.965526 24.823517 -60.797713
32.561516 16.797877 -63.549799
33.356135 16.240682 -62.442019
33.179934 15.296614 -63.15876
27.951461 17.816762 -68.6391
27.113667 19.262144 -69.020489
28.125096 18.998458 -68.214528
28.687224 16.359496 -68.246029
29.676052 15.946617 -67.410244
29.400386 14.753037 -67.823135
27.951461 17.816762 -68.6391
28.687224 16.359496 -68.246029
3 90 22 91
3 0 25 23
3 0 27 25
3 0 29 27
3 1 92 94
3 92 30 93
3 92 93 94
3 1 32 30
3 1 34 32
3 3 37 35
3 3 39 37
3 96 95 40
3 97 42 98
3 99 98 41
3 97 98 99
3 101 100 42
3 2 45 43
3 4 47 46
3 4 49 47
3 4 51 49
3 102 54 103
3 104 56 105
3 106 105 54
3 104 105 106
3 6 57 21
3 6 58 57
3 7 107 109
3 109 108 24
3 107 108 109
3 7 110 111
3 7 112 114
3 112 60 113
3 112 113 114
3 9 61 26
3 9 62 61
3 9 64 62
3 115 65 116
3 117 116 28
3 115 116 117
3 118 66 119
3 120 119 65
3 118 119 120
3 122 121 67
3 11 123 125
3 123 68 124
3 123 124 125
3 11 69 68
3 11 126 128
3 128 127 69
3 126 127 128
3 12 129 130
3 12 131 132
3 12 133 135
3 133 71 134
3 133 134 135
3 13 72 31
3 13 73 72
3 13 75 73
3 15 76 33
3 15 77 76
3 5 78 55
3 16 79 36
3 16 80 79
3 16 81 80
3 137 136 38
3 8 138 140
3 140 139 59
3 138 139 140
3 10 141 143
3 143 142 63
3 141 142 143
3 14 82 74
3 145 144 44
3 17 146 147
3 17 148 149
3 17 150 151
3 18 152 154
3 154 153 48
3 152 153 154
3 18 155 156
3 18 157 159
3 157 83 158
3 157 158 159
3 19 84 50
3 19 85 84
3 160 86 161
3 162 161 70
3 160 161 162
3 20 87 52
3 20 88 87
3 20 89 88
3 164 163 53
3 165 21 166
3 22 167 169
3 167 21 168
3 167 168 169
3 22 6 21
3 23 170 172
3 170 24 171
3 170 171 172
3 25 24 23
3 25 7 24
3 25 26 7
3 27 26 25
3 27 9 26
3 27 28 9
3 29 28 27
3 29 173 175
3 175 174 28
3 173 174 175
3 176 11 177
3 179 178 11
3 30 180 181
3 30 182 184
3 182 12 183
3 182 183 184
3 30 31 12
3 32 31 30
3 32 13 31
3 32 33 13
3 34 33 32
3 34 15 33
3 35 36 5
3 37 36 35
3 37 16 36
3 37 38 16
3 39 38 37
3 39 185 187
3 187 186 38
3 185 186 187
3 40 188 190
3 190 189 8
3 188 189 190
3 192 191 40
3 41 193 195
3 195 194 10
3 193 194 195
3 42 196 198
3 198 197 41
3 196 197 198
3 42 199 200
3 42 201 202
3 204 203 42
3 43 44 14
3 45 44 43
3 45 205 207
3 207 206 44
3 205 206 207
3 46 208 209
3 47 210 212
3 212 211 46
3 210 211 212
3 47 213 215
3 213 17 214
3 213 214 215
3 47 48 17
3 49 48 47
3 49 18 48
3 49 50 18
3 51 50 49
3 51 19 50
3 216 52 217
3 218 52 219
3 220 20 221
3 222 221 52
3 220 221 222
3 223 53 224
3 225 224 20
3 223 224 225
3 226 53 227
3 229 228 53
3 54 230 231
3 54 232 234
3 232 1 233
3 232 233 234
3 54 55 1
3 56 55 54
3 56 5 55
3 21 235 237
3 235 56 236
3 235 236 237
3 57 56 21
3 57 5 56
3 57 35 5
3 58 35 57
3 58 3 35
3 24 238 239
3 241 240 24
3 242 59 243
3 60 244 246
3 244 59 245
3 244 245 246
3 60 8 59
3 26 60 7
3 61 60 26
3 61 8 60
3 61 40 8
3 62 40 61
3 62 247 249
3 249 248 40
3 247 248 249
3 62 250 252
3 250 63 251
3 250 251 252
3 64 63 62
3 64 10 63
3 28 64 9
3 65 64 28
3 65 10 64
3 65 41 10
3 66 41 65
3 66 253 255
3 255 254 41
3 253 254 255
3 67 256 258
3 258 257 2
3 256 257 258
3 260 259 67
3 68 261 262
3 68 263 264
3 68 265 267
3 265 46 266
3 265 266 267
3 69 46 68
3 69 4 46
3 69 70 4
3 268 70 269
3 270 269 69
3 268 269 270
3 272 271 70
3 274 273 11
3 71 275 276
3 71 277 278
3 31 71 12
3 72 71 31
3 72 279 281
3 281 280 71
3 279 280 281
3 72 282 284
3 282 23 283
3 282 283 284
3 73 23 72
3 73 0 23
3 73 74 0
3 75 74 73
3 75 14 74
3 33 75 13
3 76 75 33
3 76 14 75
3 76 43 14
3 77 43 76
3 77 2 43
3 55 34 1
3 78 34 55
3 78 15 34
3 36 78 5
3 79 78 36
3 79 15 78
3 79 77 15
3 80 77 79
3 80 2 77
3 80 67 2
3 81 67 80
3 81 285 287
3 287 286 67
3 285 286 287
3 38 81 16
3 288 81 289
3 290 289 38
3 288 289 290
3 292 291 81
3 59 293 294
3 296 295 59
3 298 297 8
3 63 299 300
3 302 301 63
3 304 303 10
3 74 29 0
3 82 29 74
3 82 305 307
3 307 306 29
3 305 306 307
3 44 82 14
3 308 82 309
3 310 309 44
3 308 309 310
3 312 311 82
3 313 66 314
3 315 66 316
3 318 317 66
3 319 45 320
3 321 320 2
3 319 320 321
3 322 45 323
3 325 324 45
3 48 326 328
3 328 327 17
3 326 327 328
3 330 329 48
3 331 22 332
3 83 333 335
3 333 22 334
3 333 334 335
3 83 6 22
3 50 83 18
3 84 83 50
3 84 6 83
3 84 58 6
3 85 58 84
3 85 3 58
3 70 51 4
3 86 51 70
3 86 19 51
3 52 336 338
3 336 86 337
3 336 337 338
3 87 86 52
3 87 19 86
3 87 85 19
3 88 85 87
3 88 3 85
3 88 39 3
3 89 39 88
3 89 339 341
3 341 340 39
3 339 340 341
3 53 89 20
3 342 89 343
3 344 343 53
3 342 343 344
3 346 345 89
