ply
format ascii 1.0
element vertex 345
property float x
property float y
property float z
element face 347
property list uchar int vertex_index
end_header
-16.595654 83.526215 -49.506371
-6.765751 57.933113 -51.214153
-21.332802 93.462311 -44.220913
-20.012562 69.454704 -52.144062
-14.560674 57.515198 -52.515133
-11.762963 71.395676 -51.023964
-8.926097 44.747826 -52.946301
-18.638378 76.660782 -51.205383
-15.996691 70.912514 -51.843071
-14.241638 77.431602 -50.645477
-19.110708 88.902191 -47.415741
-21.012814 82.302345 -49.673672
-22.671362 74.920593 -51.055756
-10.802977 58.12912 -52.037537
-11.826715 51.072067 -52.550327
-8.055686 51.529736 -52.235268
-14.247037 89.571785 -46.991291
-11.767893 83.697906 -48.662773
-16.452955 94.610764 -44.293018
-20.68285 62.491962 -52.508183
-18.054266 57.040169 -52.658085
-17.41732 63.821037 -52.496895
-13.417173 64.719086 -52.013199
-9.249566 64.486679 -51.137939
-7.233221 70.844696 -49.713158
-15.302791 51.102924 -52.604153
-12.358906 44.517128 -52.71669
-17.703928 80.101288 -50.471878
-16.419544 77.287651 -50.970776
-15.440136 80.587608 -50.176067
-17.890198 86.257317 -48.620796
-20.09494 85.710426 -48.649761
-18.944002 82.881767 -49.726387
-19.79674 79.563545 -50.563419
-8.854052 57.915665 -51.70216
-9.372482 54.745644 -52.085327
-7.464293 54.656776 -51.781967
-11.595066 89.381859 -46.545349
-15.225194 92.284286 -45.708687
-20.51082 65.98732 -52.372585
-19.204786 63.52113 -52.547768
-18.746387 66.951729 -52.365822
-13.913664 71.373062 -51.481392
-14.792461 67.752106 -51.988842
-12.589473 67.984802 -51.583038
-11.233508 64.362076 -51.627773
-10.473772 67.957306 -51.093121
-10.562094 80.665657 -49.114197
-22.311386 95.365593 -42.255848
-16.463722 57.499294 -52.629559
-16.736147 54.21265 -52.63261
-15.060726 54.326794 -52.605286
-10.317771 48.069504 -52.6726
-12.079716 47.917114 -52.669704
-10.663384 44.708912 -52.842239
-10.856547 41.36956 -52.930569
-9.254285 41.639378 -53.140289
-19.454309 73.165588 -51.749004
-18.007521 70.331665 -52.066078
-17.39435 73.825668 -51.613766
-15.109642 74.331345 -51.293175
-12.894659 74.575089 -50.851902
-20.265886 91.250801 -45.978428
-22.24263 84.809906 -48.5163
-23.097467 81.217133 -49.474411
-21.931053 78.844131 -50.428631
-20.797884 76.183769 -51.175865
-12.703854 58.076931 -52.308228
-13.120691 54.46204 -52.497578
-11.283476 54.665516 -52.32531
-9.949242 51.505085 -52.413765
-8.644605 48.232346 -52.62648
-15.497743 86.701103 -48.348122
-14.216624 83.63652 -49.19973
-12.940061 86.681808 -47.95298
-18.91604 94.121338 -44.429047
-17.876764 91.734528 -46.05962
-16.618853 89.411392 -47.282467
-19.528019 56.859062 -52.608227
-19.387884 59.997948 -52.63105
-17.786699 60.42408 -52.627686
-15.93224 60.771633 -52.522594
-16.816013 67.202805 -52.257717
-15.50826 64.194756 -52.328018
-14.092633 61.208294 -52.322781
-12.106563 61.350842 -52.031597
-10.08689 61.230938 -51.656273
-7.971127 61.218315 -51.144226
-13.016424 80.621109 -49.753033
-11.855907 77.53775 -50.11554
-10.538908 74.371239 -50.290375
-9.409351 71.038704 -50.423927
-8.212267 67.651649 -50.467121
-7.001198 64.352554 -50.476158
-18.354422 54.032494 -52.586632
-17.035984 51.080112 -52.544601
-13.599918 51.173706 -52.600082
-13.879304 47.696445 -52.615723
-12.453017 41.038631 -52.69096
-6.773894 48.332733 -52.530323
-7.271711 45.035702 -52.990875
-7.542405 41.825809 -53.350666
-22.419849 92.883163 -44.076842
-22.909141 93.834805 -43.094309
-21.822094 94.413952 -43.238381
-20.902229 68.941647 -52.097692
-20.634341 70.859996 -51.934382
-20.261691 67.721012 -52.258324
-21.151359 67.207954 -52.211954
-20.902229 68.941647 -52.097692
-20.272962 88.518616 -47.366962
-20.850552 89.69292 -46.648306
-19.688297 90.076496 -46.697085
-10.901861 87.915832 -46.941621
-10.224543 89.262265 -46.184297
-17.102047 95.652359 -43.460831
-15.736168 95.871193 -43.296812
-17.684497 94.366051 -44.361033
-18.333589 95.407646 -43.528845
-17.102047 95.652359 -43.460831
-20.035367 61.244955 -52.569617
-20.040827 59.627673 -52.588527
-20.688309 60.874679 -52.527094
-10.662271 77.584964 -49.76297
-11.209001 79.101703 -49.614869
-10.015365 79.148918 -49.262298
-10.003771 76.001709 -49.850387
-11.197408 75.954495 -50.202957
-10.662271 77.584964 -49.76297
-7.761002 72.534145 -49.657767
-6.627651 72.206249 -49.274137
-8.321286 70.9417 -50.068542
-8.849067 72.631149 -50.013151
-7.761002 72.534145 -49.657767
-5.919461 64.041967 -50.120735
-6.501581 65.832595 -50.10108
-5.419844 65.522008 -49.745657
-6.416568 62.586507 -50.511879
-5.919461 64.041967 -50.120735
-23.495944 74.087772 -50.934055
-23.278526 76.176327 -50.617554
-21.327171 61.89036 -52.426783
-21.342841 63.664213 -52.375477
-20.688309 60.874679 -52.527094
-21.327171 61.89036 -52.426783
-15.444641 49.440195 -52.560477
-16.311238 49.428789 -52.530701
-16.169387 51.091518 -52.574377
-13.214084 44.420091 -52.633333
-13.974283 46.00975 -52.58285
-13.119105 46.106786 -52.666207
-12.405962 42.777879 -52.703825
-13.26114 42.680843 -52.620468
-13.214084 44.420091 -52.633333
-10.919113 39.667581 -52.928526
-10.132857 39.851938 -53.100205
-6.141615 46.881096 -52.748533
-5.897162 48.5167 -52.427044
-6.390524 45.23258 -52.978809
-7.022803 46.684218 -52.760599
-6.141615 46.881096 -52.748533
-6.895606 40.562246 -53.622006
-6.683064 42.044353 -53.42837
-7.667056 40.305445 -53.477026
-6.895606 40.562246 -53.622006
-12.09916 90.817127 -45.940439
-12.921052 89.476822 -46.76832
-13.425145 90.912091 -46.16341
-10.737586 90.619984 -45.690098
-12.09916 90.817127 -45.940439
-10.224543 89.262265 -46.184297
-10.737586 90.619984 -45.690098
-15.1791 94.732983 -44.114849
-15.736168 95.871193 -43.296812
-14.56522 93.569744 -44.822683
-15.839074 93.447525 -45.000853
-15.1791 94.732983 -44.114849
-13.914224 92.268341 -45.522108
-14.56522 93.569744 -44.822683
-13.425145 90.912091 -46.16341
-14.736116 90.928035 -46.349989
-13.914224 92.268341 -45.522108
-9.88037 81.980736 -48.564495
-11.164994 82.181781 -48.888485
-10.48327 83.49686 -48.338783
-9.294271 80.425491 -48.749349
-9.88037 81.980736 -48.564495
-10.015365 79.148918 -49.262298
-9.294271 80.425491 -48.749349
-6.092837 70.599395 -49.284846
-6.627651 72.206249 -49.274137
-6.617593 69.078666 -49.71958
-6.092837 70.599395 -49.284846
-23.433375 94.616459 -42.071154
-22.780582 96.144593 -41.18298
-23.433375 94.616459 -42.071154
-22.909141 93.834805 -43.094309
-22.861924 72.923908 -51.295224
-21.963741 73.592941 -51.390229
-21.256826 65.411892 -52.307678
-21.151359 67.207954 -52.211954
-20.596835 64.239641 -52.440384
-21.342841 63.664213 -52.375477
-21.256826 65.411892 -52.307678
-9.331726 39.986847 -53.205065
-10.132857 39.851938 -53.100205
-10.055416 41.504469 -53.035429
-21.348158 90.768074 -45.896735
-21.881616 91.873829 -45.017977
-20.799344 92.356556 -45.099671
-21.348158 90.768074 -45.896735
-20.850552 89.69292 -46.648306
-20.765079 86.922733 -47.983973
-20.272962 88.518616 -47.366962
-19.602824 87.306309 -48.032751
-21.838923 86.472473 -47.917242
-20.765079 86.922733 -47.983973
-21.168785 85.260166 -48.58303
-22.882444 85.838432 -47.825336
-21.838923 86.472473 -47.917242
-23.225897 84.108139 -48.394705
-22.882444 85.838432 -47.825336
-23.653316 82.311753 -48.87376
-23.225897 84.108139 -48.394705
-22.670049 83.01352 -48.995356
-24.076566 80.449562 -49.271784
-23.653316 82.311753 -48.87376
-23.491579 79.324597 -49.826881
-24.076566 80.449562 -49.271784
-22.908372 78.138096 -50.303992
-23.491579 79.324597 -49.826881
-22.51426 80.030632 -49.951521
-22.301207 76.882362 -50.742193
-23.278526 76.176327 -50.617554
-22.908372 78.138096 -50.303992
-21.027002 74.224529 -51.450283
-21.963741 73.592941 -51.390229
-21.734623 75.552181 -51.115811
-20.355214 72.715439 -51.736852
-21.027002 74.224529 -51.450283
-20.126096 74.674678 -51.462435
-19.733435 71.310146 -51.946533
-20.634341 70.859996 -51.934382
-20.355214 72.715439 -51.736852
-11.574358 86.565807 -47.645437
-12.267563 88.031834 -47.249164
-10.901861 87.915832 -46.941621
-10.988274 85.073856 -48.000333
-12.353977 85.189857 -48.307876
-11.574358 86.565807 -47.645437
-10.48327 83.49686 -48.338783
-10.988274 85.073856 -48.000333
-21.65533 96.73888 -41.306455
-22.780582 96.144593 -41.18298
-21.228603 95.780384 -42.389418
-21.65533 96.73888 -41.306455
-20.739311 94.828743 -43.37195
-21.822094 94.413952 -43.238381
-21.228603 95.780384 -42.389418
-19.530929 95.158256 -43.476017
-18.333589 95.407646 -43.528845
-20.124421 93.791824 -44.32498
-20.739311 94.828743 -43.37195
-19.530929 95.158256 -43.476017
-6.173523 56.326327 -51.291511
-5.75535 57.803106 -50.93687
-20.110894 58.058229 -52.577116
-20.062528 56.715075 -52.558473
-19.457952 58.428505 -52.619639
-20.110894 58.058229 -52.577116
-20.040827 59.627673 -52.588527
-9.413846 74.297417 -49.946375
-10.003771 76.001709 -49.850387
-9.97413 72.704971 -50.357151
-9.413846 74.297417 -49.946375
-8.849067 72.631149 -50.013151
-7.107116 67.482143 -50.096561
-7.722744 69.248173 -50.090139
-6.617593 69.078666 -49.71958
-7.606732 66.002102 -50.471639
-7.107116 67.482143 -50.096561
-6.501581 65.832595 -50.10108
-6.901533 61.019388 -50.845913
-7.486162 62.785434 -50.810192
-6.416568 62.586507 -50.511879
-6.298844 59.376787 -50.880876
-7.368439 59.575714 -51.17919
-6.901533 61.019388 -50.845913
-5.75535 57.803106 -50.93687
-6.298844 59.376787 -50.880876
-22.419849 92.883163 -44.076842
-21.881616 91.873829 -45.017977
-23.495944 74.087772 -50.934055
-22.861924 72.923908 -51.295224
-19.62252 55.489927 -52.547191
-20.062528 56.715075 -52.558473
-19.035721 54.076643 -52.536394
-19.62252 55.489927 -52.547191
-18.941221 55.445778 -52.59743
-18.486206 52.482678 -52.499701
-19.035721 54.076643 -52.536394
-17.826987 51.006487 -52.478685
-18.486206 52.482678 -52.499701
-17.695203 52.556303 -52.565617
-17.095495 49.420948 -52.459114
-17.826987 51.006487 -52.478685
-17.095495 49.420948 -52.459114
-16.311238 49.428789 -52.530701
-14.732898 47.736955 -52.566262
-15.444641 49.440195 -52.560477
-14.591047 49.399684 -52.609938
-14.732898 47.736955 -52.566262
-13.974283 46.00975 -52.58285
-13.23551 40.876184 -52.556625
-13.26114 42.680843 -52.620468
-12.448683 39.274607 -52.64106
-13.23551 40.876184 -52.556625
-11.717347 39.502117 -52.808721
-11.654782 41.204096 -52.810764
-10.919113 39.667581 -52.928526
-12.448683 39.274607 -52.64106
-11.717347 39.502117 -52.808721
-6.522794 54.688158 -51.575418
-7.115022 56.294944 -51.49806
-6.173523 56.326327 -51.291511
-6.801033 53.131369 -51.874724
-6.522794 54.688158 -51.575418
-7.09673 51.567848 -52.101374
-7.759989 53.093256 -52.008617
-6.801033 53.131369 -51.874724
-6.455834 49.969347 -52.248902
-5.897162 48.5167 -52.427044
-7.41479 49.931235 -52.382796
-7.09673 51.567848 -52.101374
-6.455834 49.969347 -52.248902
-6.547717 43.649299 -53.248474
-6.390524 45.23258 -52.978809
-7.407058 43.430756 -53.170771
-6.547717 43.649299 -53.248474
-6.683064 42.044353 -53.42837
-8.522996 40.212229 -53.371837
-8.398345 41.732594 -53.245477
-7.667056 40.305445 -53.477026
-9.331726 39.986847 -53.205065
-8.522996 40.212229 -53.371837
3 0 29 27
3 0 32 30
3 0 27 32
3 1 36 34
3 3 41 39
3 5 44 42
3 5 46 44
3 2 102 104
3 104 103 48
3 102 103 104
3 3 105 106
3 3 107 109
3 107 39 108
3 107 108 109
3 4 51 49
3 6 54 52
3 6 56 54
3 7 59 57
3 9 60 28
3 9 61 60
3 10 110 112
3 112 111 62
3 110 111 112
3 11 63 31
3 11 64 63
3 11 65 64
3 7 66 33
3 7 57 66
3 13 69 67
3 15 70 35
3 15 71 70
3 16 74 72
3 114 113 37
3 18 115 116
3 18 117 119
3 117 75 118
3 117 118 119
3 18 76 75
3 16 77 38
3 16 72 77
3 19 120 122
3 120 79 121
3 120 121 122
3 21 80 40
3 21 81 80
3 8 82 58
3 22 83 43
3 22 84 83
3 22 85 84
3 23 86 45
3 23 87 86
3 17 88 73
3 123 89 124
3 125 124 47
3 123 124 125
3 126 90 127
3 128 127 89
3 126 127 128
3 24 129 130
3 24 131 133
3 131 91 132
3 131 132 133
3 24 92 91
3 134 93 135
3 134 135 136
3 138 137 93
3 12 139 140
3 19 141 142
3 19 143 144
3 20 94 78
3 25 95 50
3 25 145 147
3 147 146 95
3 145 146 147
3 14 96 68
3 26 97 53
3 26 148 150
3 150 149 97
3 148 149 150
3 26 151 153
3 151 98 152
3 151 152 153
3 155 154 55
3 156 99 157
3 158 100 159
3 160 159 99
3 158 159 160
3 161 101 162
3 164 163 101
3 27 28 7
3 29 28 27
3 29 9 28
3 30 31 10
3 32 31 30
3 32 11 31
3 32 33 11
3 27 33 32
3 27 7 33
3 34 35 13
3 36 35 34
3 36 15 35
3 165 37 166
3 167 166 16
3 165 166 167
3 168 37 169
3 171 170 37
3 172 18 173
3 174 38 175
3 176 175 18
3 174 175 176
3 177 38 178
3 179 16 180
3 181 180 38
3 179 180 181
3 39 40 19
3 41 40 39
3 41 21 40
3 42 43 8
3 44 43 42
3 44 22 43
3 44 45 22
3 46 45 44
3 46 23 45
3 182 47 183
3 184 183 17
3 182 183 184
3 185 47 186
3 188 187 47
3 189 24 190
3 192 191 24
3 48 193 194
3 196 195 48
3 198 197 12
3 39 199 200
3 39 201 203
3 201 19 202
3 201 202 203
3 49 50 20
3 51 50 49
3 51 25 50
3 52 53 14
3 54 53 52
3 54 26 53
3 54 55 26
3 56 55 54
3 56 204 206
3 206 205 55
3 204 205 206
3 57 58 3
3 59 58 57
3 59 8 58
3 28 59 7
3 60 59 28
3 60 8 59
3 60 42 8
3 61 42 60
3 61 5 42
3 62 207 209
3 209 208 2
3 207 208 209
3 211 210 62
3 31 212 214
3 214 213 10
3 212 213 214
3 63 215 217
3 217 216 31
3 215 216 217
3 63 218 219
3 63 220 221
3 64 222 224
3 224 223 63
3 222 223 224
3 64 225 226
3 64 227 228
3 65 229 231
3 231 230 64
3 229 230 231
3 65 232 234
3 232 12 233
3 232 233 234
3 33 65 11
3 66 65 33
3 66 12 65
3 66 235 237
3 237 236 12
3 235 236 237
3 57 238 240
3 240 239 66
3 238 239 240
3 57 241 243
3 241 3 242
3 241 242 243
3 67 68 4
3 69 68 67
3 69 14 68
3 35 69 13
3 70 69 35
3 70 14 69
3 70 52 14
3 71 52 70
3 71 6 52
3 72 73 0
3 74 73 72
3 74 17 73
3 37 74 16
3 244 74 245
3 246 245 37
3 244 245 246
3 247 17 248
3 249 248 74
3 247 248 249
3 251 250 17
3 252 48 253
3 254 48 255
3 256 2 257
3 258 257 48
3 256 257 258
3 75 259 260
3 75 261 263
3 261 2 262
3 261 262 263
3 75 62 2
3 76 62 75
3 76 10 62
3 38 76 18
3 77 76 38
3 77 10 76
3 77 30 10
3 72 30 77
3 72 0 30
3 265 264 1
3 266 78 267
3 79 268 270
3 268 78 269
3 268 269 270
3 79 20 78
3 40 79 19
3 80 79 40
3 80 20 79
3 80 49 20
3 81 49 80
3 81 4 49
3 58 41 3
3 82 41 58
3 82 21 41
3 43 82 8
3 83 82 43
3 83 21 82
3 83 81 21
3 84 81 83
3 84 4 81
3 84 67 4
3 85 67 84
3 85 13 67
3 45 85 22
3 86 85 45
3 86 13 85
3 86 34 13
3 87 34 86
3 87 1 34
3 73 29 0
3 88 29 73
3 88 9 29
3 47 88 17
3 89 88 47
3 89 9 88
3 89 61 9
3 90 61 89
3 90 5 61
3 271 90 272
3 91 273 275
3 273 90 274
3 273 274 275
3 91 5 90
3 91 46 5
3 92 46 91
3 92 23 46
3 276 92 277
3 278 277 24
3 276 277 278
3 93 279 281
3 279 92 280
3 279 280 281
3 93 23 92
3 93 87 23
3 282 87 283
3 284 283 93
3 282 283 284
3 285 1 286
3 287 286 87
3 285 286 287
3 289 288 1
3 291 290 2
3 293 292 12
3 78 294 295
3 94 296 298
3 298 297 78
3 296 297 298
3 94 299 300
3 50 94 20
3 95 94 50
3 95 301 303
3 303 302 94
3 301 302 303
3 95 304 305
3 307 306 95
3 68 51 4
3 96 51 68
3 96 25 51
3 53 96 14
3 97 96 53
3 97 25 96
3 97 308 310
3 310 309 25
3 308 309 310
3 312 311 97
3 98 313 314
3 98 315 316
3 55 98 26
3 317 98 318
3 319 318 55
3 317 318 319
3 321 320 98
3 322 36 323
3 324 323 1
3 322 323 324
3 325 36 326
3 327 15 328
3 329 328 36
3 327 328 329
3 99 330 331
3 99 332 334
3 332 15 333
3 332 333 334
3 99 71 15
3 100 71 99
3 100 6 71
3 335 100 336
3 101 337 339
3 337 100 338
3 337 338 339
3 101 6 100
3 101 56 6
3 340 56 341
3 342 341 101
3 340 341 342
3 344 343 56
