ply
format ascii 1.0
element vertex 573
property float x
property float y
property float z
element face 542
property list uchar int vertex_index
end_header
-23.364277 -83.397156 23.408726
-19.253696 -99.389374 3.303454
-10.129201 -85.383118 22.528307
-1.581392 -95.756882 0.864174
-17.518099 -86.510826 23.807789
-14.265622 -93.330376 13.217782
-26.160282 -76.479179 20.275085
-7.500654 -76.321724 32.397793
-2.567819 -81.996857 21.367582
-6.116774 -91.205261 11.610236
-10.867319 -99.412415 2.218378
-20.752586 -85.490341 23.987207
-17.526117 -102.651947 -2.017383
-26.1341 -76.557358 14.928005
-12.325427 -82.169365 28.294405
-11.126423 -77.789787 33.235561
-8.725245 -80.77961 27.671162
-6.321572 -83.753929 21.935787
-4.124206 -86.63089 16.419106
-8.075419 -88.333252 17.021263
-16.802374 -96.689102 8.392347
-12.845732 -96.710205 7.519037
-15.257839 -99.994003 2.843173
-3.908505 -99.850021 -3.992502
-15.77446 -82.959206 28.738903
-13.922832 -86.296234 23.380836
-12.029211 -89.638779 17.688686
-15.866362 -89.941818 18.648777
-24.516602 -79.347961 27.132442
-25.068895 -80.453682 22.136833
-25.816595 -71.512871 7.653046
-3.996443 -93.810524 6.179995
-10.416962 -92.73909 12.295582
-8.451479 -95.627571 6.768939
-6.112347 -97.951721 1.358117
-8.719423 -101.740929 -3.17672
-22.856333 -85.395645 21.266615
-23.845657 -84.136276 20.833061
-22.851852 -82.626038 25.790277
-21.531878 -83.642433 26.101786
-22.214428 -84.615379 23.654123
-21.578793 -86.507874 21.553467
-18.421757 -101.107574 0.619922
-20.243376 -100.420372 0.829783
-11.232192 -83.730957 25.513807
-10.492888 -81.550278 27.938648
-9.351431 -83.122681 25.052341
-8.167554 -84.598885 22.202744
-7.101701 -86.105583 19.370054
-9.094199 -86.877052 19.754707
-18.068645 -98.076263 5.959574
-16.107285 -98.432518 5.547693
-17.366598 -99.895325 3.032289
-16.463102 -101.422974 0.432492
-18.352308 -84.652069 26.439749
-16.683348 -84.660881 26.488136
-14.915095 -84.586838 26.189226
-15.85409 -86.445709 23.777771
-14.90249 -88.09285 21.144352
-16.635166 -88.180496 21.341049
-25.377007 -77.762466 26.289383
-25.707813 -78.495346 21.220081
-25.333969 -80.730583 19.544703
-25.81657 -78.758171 18.58518
-9.261563 -77.132431 32.727119
-7.092287 -74.093018 34.818417
-1.435432 -83.385933 18.702372
-5.147994 -89.00647 13.965924
-3.149048 -88.120735 13.669392
-3.952642 -90.351257 11.19644
-5.095767 -92.606201 8.841105
-13.292128 -91.482697 15.610081
-11.266647 -91.163475 15.076377
-12.319373 -93.101738 12.786457
-11.87146 -98.086983 4.893762
-10.654531 -96.356224 7.003964
-9.472711 -97.581863 4.381485
-7.274163 -96.853302 4.039747
-8.460331 -98.782593 1.766624
-7.394283 -99.845047 -0.815919
-9.812329 -100.638283 -0.472933
-20.050329 -84.311981 26.311066
-19.136368 -86.099342 24.056784
-18.481009 -87.922211 21.549595
-20.093378 -87.389656 21.599236
-16.549519 -104.078293 -4.751107
-26.138523 -76.77713 17.61322
-26.372902 -74.545952 16.516396
-26.256893 -74.242142 13.830876
-26.105032 -74.103287 11.346196
-13.327129 -80.679749 30.842916
-11.544154 -79.984764 30.693941
-9.843955 -79.256058 30.459898
-8.052697 -78.673782 29.861231
-6.21966 -77.74305 29.618355
-6.826114 -80.000664 27.222263
-5.291974 -85.114723 19.336012
-6.054072 -87.451057 16.761475
-7.087618 -89.763687 14.332277
-15.542757 -95.071686 10.860429
-13.513172 -95.046448 10.359493
-14.845695 -96.744392 8.110745
-14.101925 -98.349197 5.331278
-13.101516 -99.784233 2.631133
-12.150612 -101.201057 -0.17686
-14.404581 -101.38829 0.272241
-15.442706 -102.791069 -2.124578
-5.136182 -101.659645 -6.212933
-14.075393 -82.622734 28.596853
-13.074278 -84.244827 25.875313
-11.989325 -85.890694 22.988901
-10.996767 -87.541306 20.080627
-12.950107 -87.945442 20.581238
-13.962584 -89.732574 18.43482
-17.628981 -89.738739 19.007435
-16.302433 -93.374771 13.547482
-17.518616 -94.960518 11.064866
-18.745066 -96.209717 8.792126
-23.955839 -81.392097 25.225233
-24.291473 -82.111519 22.778238
-24.826302 -79.959457 24.540514
-25.547924 -78.269791 23.629385
-26.113455 -76.304993 22.822184
-24.680872 -82.531319 20.302347
-25.90638 -78.854225 15.738256
-25.912201 -73.968964 8.624833
-2.218762 -85.676018 16.252939
-1.047873 -86.846687 13.787071
-2.82992 -94.906624 3.459706
-10.080403 -89.078415 17.339134
-9.288564 -90.609871 14.658748
-8.217362 -92.011131 11.943481
-11.496668 -94.854721 9.753918
-9.409108 -94.215248 9.506427
-7.189454 -93.464218 9.126081
-6.289961 -94.828957 6.445815
-4.997177 -95.910843 3.746554
-3.929815 -97.061111 0.947416
-4.987892 -98.976883 -1.352737
-6.378362 -100.828903 -3.414489
-7.395277 -102.61895 -5.918517
-10.999816 -102.451408 -2.995399
-9.843297 -103.422607 -5.57332
-1.008489 -96.138611 -0.425592
-0.454207 -95.098191 0.773926
-2.160445 -96.829892 -0.393871
-1.008489 -96.138611 -0.425592
-8.172757 -75.525734 33.897045
-9.053211 -75.931087 34.061708
-8.381108 -76.727078 32.562456
-7.29647 -75.207371 33.608105
-7.968573 -74.411381 35.107357
-8.172757 -75.525734 33.897045
-6.638594 -75.807426 32.362366
-6.434411 -74.693073 33.572678
-7.29647 -75.207371 33.608105
-2.324518 -80.866371 22.650957
-3.184754 -81.275318 22.770194
-1.713865 -81.550763 21.320336
-2.324518 -80.866371 22.650957
-2.001626 -82.691395 20.034977
-1.147671 -82.2453 19.987731
-1.713865 -81.550763 21.320336
-21.261533 -87.5564 20.294075
-21.951542 -87.004311 20.246115
-18.101553 -103.112262 -3.210754
-17.613254 -103.825435 -4.577616
-17.037818 -103.36512 -3.384245
-26.553187 -73.327877 17.268082
-26.421751 -74.518479 17.829525
-26.283399 -73.056725 13.272393
-26.396273 -73.17065 14.620413
-26.207468 -72.987297 12.030054
-26.180962 -74.172714 12.588536
-26.283399 -73.056725 13.272393
-5.981685 -82.57283 23.222879
-6.895126 -82.99358 23.380735
-5.361011 -83.303047 21.790689
-5.981685 -82.57283 23.222879
-5.806773 -84.434326 20.6359
-4.846212 -83.983444 20.490801
-5.361011 -83.303047 21.790689
-3.314438 -100.134243 -5.230704
-2.695267 -99.167068 -4.062179
-4.522343 -100.754833 -5.102717
-3.928277 -101.039055 -6.34092
-3.314438 -100.134243 -5.230704
-16.338609 -82.121906 30.028066
-16.663602 -82.971363 28.847062
-15.48802 -82.006664 29.961844
-16.338609 -82.121906 30.028066
-14.924926 -82.79097 28.667878
-14.638486 -81.838428 29.890819
-15.48802 -82.006664 29.961844
-15.506667 -90.813694 17.284375
-14.554778 -90.709072 17.177397
-14.914473 -89.837196 18.541798
-18.478313 -89.541008 19.053562
-18.054995 -88.830475 20.278515
-18.904328 -88.632744 20.324642
-17.256129 -93.246956 13.667619
-16.661423 -92.54034 14.824233
-17.86422 -94.039829 12.426311
-16.910525 -94.167644 12.306174
-17.256129 -93.246956 13.667619
-19.575394 -95.837208 8.92071
-19.039417 -95.274887 10.138593
-19.263286 -96.831524 7.533152
-19.575394 -95.837208 8.92071
-25.776585 -77.20377 24.51596
-25.462466 -78.016129 24.959384
-25.691127 -76.950108 25.845959
-26.059351 -76.221371 24.11236
-25.830689 -77.287392 23.225784
-25.776585 -77.20377 24.51596
-24.022785 -79.978134 27.456916
-24.367649 -78.923279 28.483053
-24.236221 -80.370029 26.178838
-23.742404 -81.000202 26.503311
-24.022785 -79.978134 27.456916
-25.200004 -81.759727 18.574295
-25.450267 -80.81345 18.152808
-25.944704 -71.676987 8.942871
-25.93918 -70.45131 8.439637
-25.864398 -72.740917 8.138939
-25.992507 -72.905034 9.428765
-25.944704 -71.676987 8.942871
-11.742865 -77.070652 34.553575
-12.004456 -78.171959 33.304016
-4.710406 -78.026962 28.084294
-5.346996 -77.314244 29.480459
-5.58307 -78.455769 28.222191
-3.171484 -86.153454 16.336022
-2.768101 -84.983349 17.588498
-3.720823 -85.460785 17.671582
-1.47528 -88.055359 12.451738
-2.09846 -87.483711 13.728231
-2.525867 -88.692383 12.392899
-0.479189 -87.446926 12.504107
-1.47528 -88.055359 12.451738
-2.860607 -93.226368 6.094788
-3.464685 -92.748134 7.327025
-3.413182 -94.358574 4.819851
-2.277346 -93.774418 4.734643
-2.860607 -93.226368 6.094788
-12.128308 -102.617264 -2.792835
-11.575214 -101.826233 -1.586129
-12.703706 -101.992088 -1.383566
-10.380612 -104.107452 -6.647479
-11.054776 -103.707778 -5.451742
-9.277291 -103.824562 -6.835031
-10.380612 -104.107452 -6.647479
-23.114424 -85.82772 19.993126
-22.590312 -86.448196 20.102689
-23.609086 -85.198036 19.776349
-23.114424 -85.82772 19.993126
-23.350995 -84.765961 21.049838
-24.093135 -84.37537 19.548865
-23.609086 -85.198036 19.776349
-22.191865 -83.134235 25.946032
-21.899822 -82.653724 27.219511
-22.55981 -82.145527 27.063757
-22.590312 -86.448196 20.102689
-21.951542 -87.004311 20.246115
-22.217563 -85.95176 21.410041
-18.98804 -101.585556 -0.590599
-18.54022 -102.357743 -1.909252
-17.973937 -101.879761 -0.698731
-19.89885 -101.241955 -0.485669
-18.98804 -101.585556 -0.590599
-19.332566 -100.763973 0.724853
-20.724295 -100.84269 -0.469123
-19.89885 -101.241955 -0.485669
-8.410056 -82.677956 24.939011
-8.096963 -81.506421 26.248422
-9.038338 -81.951145 26.361751
-7.818118 -83.416058 23.514213
-8.410056 -82.677956 24.939011
-8.759493 -83.860783 23.627542
-7.244563 -84.176407 22.069266
-6.895126 -82.99358 23.380735
-7.818118 -83.416058 23.514213
-3.324002 -98.876461 -2.822208
-2.695267 -99.167068 -4.062179
-17.952526 -83.817795 27.697485
-18.782827 -83.761799 27.657534
-17.118046 -83.822201 27.721679
-17.952526 -83.817795 27.697485
-17.517828 -84.656475 26.463943
-16.228904 -83.810044 27.61352
-16.663602 -82.971363 28.847062
-17.118046 -83.822201 27.721679
-25.270661 -77.502598 27.551814
-24.946804 -78.555214 26.710912
-24.840459 -78.295345 27.973343
-25.669179 -76.670612 27.10915
-25.270661 -77.502598 27.551814
-25.983299 -75.858253 26.665726
-25.691127 -76.950108 25.845959
-25.669179 -76.670612 27.10915
-24.840459 -78.295345 27.973343
-24.367649 -78.923279 28.483053
-25.691567 -79.827244 17.673047
-25.450267 -80.81345 18.152808
-25.575269 -79.744377 19.064941
-26.052793 -77.635411 13.997193
-26.104615 -76.518505 13.581356
-25.782511 -70.207867 7.141047
-25.93918 -70.45131 8.439637
-9.927355 -76.41478 34.11211
-10.859785 -76.743458 34.366331
-10.193993 -77.461109 32.98134
-9.927355 -76.41478 34.11211
-9.053211 -75.931087 34.061708
-7.714082 -73.372391 36.175601
-7.968573 -74.411381 35.107357
-6.857718 -72.891766 36.072824
-7.714082 -73.372391 36.175601
-6.195044 -73.615044 34.69375
-5.960476 -72.413792 35.948158
-6.857718 -72.891766 36.072824
-6.195044 -73.615044 34.69375
-6.434411 -74.693073 33.572678
-0.546049 -82.86853 18.738492
-1.147671 -82.2453 19.987731
-0.887467 -84.026249 17.446415
-0.546049 -82.86853 18.738492
-2.927665 -89.807644 11.156423
-2.525867 -88.692383 12.392899
-3.550845 -89.235996 12.432916
-3.442785 -91.018501 9.835248
-2.927665 -89.807644 11.156423
-4.014347 -92.145973 8.65758
-3.442785 -91.018501 9.835248
-4.524204 -91.478729 10.018773
-4.546105 -93.208362 7.51055
-3.464685 -92.748134 7.327025
-4.014347 -92.145973 8.65758
-21.163345 -83.063217 27.362293
-21.899822 -82.653724 27.219511
-20.42257 -83.397991 27.466932
-21.163345 -83.063217 27.362293
-20.791103 -83.977207 26.206426
-19.631838 -83.591755 27.593193
-20.42257 -83.397991 27.466932
-19.201318 -84.482025 26.375408
-18.782827 -83.761799 27.657534
-19.631838 -83.591755 27.593193
-19.710512 -88.366467 20.349463
-18.904328 -88.632744 20.324642
-19.287194 -87.655934 21.574416
-20.518825 -87.997292 20.31696
-20.836086 -86.948765 21.576352
-21.261533 -87.5564 20.294075
-19.710512 -88.366467 20.349463
-20.518825 -87.997292 20.31696
-17.033766 -104.539715 -5.977962
-16.006287 -104.665825 -6.045585
-17.033766 -104.539715 -5.977962
-17.613254 -103.825435 -4.577616
-18.101553 -103.112262 -3.210754
-18.54022 -102.357743 -1.909252
-26.304561 -75.634068 18.377937
-26.149403 -76.628154 18.944153
-26.315441 -75.485092 19.708869
-26.255713 -75.661541 17.064808
-26.304561 -75.634068 18.377937
-26.421751 -74.518479 17.829525
-26.454278 -73.322555 15.963173
-26.553187 -73.327877 17.268082
-26.314898 -74.394047 15.173636
-26.454278 -73.322555 15.963173
-26.396273 -73.17065 14.620413
-26.166012 -75.360897 13.032791
-26.104615 -76.518505 13.581356
-26.195497 -75.39975 14.379441
-26.090081 -75.29147 11.790451
-26.166012 -75.360897 13.032791
-26.180962 -74.172714 12.588536
-26.045269 -75.217975 10.486921
-26.090081 -75.29147 11.790451
-13.104809 -79.61694 32.107693
-13.949606 -79.902508 32.175969
-12.213321 -79.269447 32.033206
-13.104809 -79.61694 32.107693
-12.435641 -80.332256 30.768428
-11.335289 -78.887276 31.964751
-12.004456 -78.171959 33.304016
-12.213321 -79.269447 32.033206
-5.886297 -79.584576 27.024145
-5.58307 -78.455769 28.222191
-6.522887 -78.871857 28.420309
-7.147398 -81.116948 26.023972
-7.775679 -80.390137 27.446713
-8.096963 -81.506421 26.248422
-6.233956 -80.696197 25.866117
-7.147398 -81.116948 26.023972
-5.886297 -79.584576 27.024145
-6.233956 -80.696197 25.866117
-3.484135 -82.424511 21.506586
-3.184754 -81.275318 22.770194
-2.942629 -83.143768 20.14582
-3.484135 -82.424511 21.506586
-4.304707 -84.702701 19.130035
-4.846212 -83.983444 20.490801
-4.70809 -85.872806 17.877559
-3.720823 -85.460785 17.671582
-4.304707 -84.702701 19.130035
-13.83069 -102.085704 -1.159015
-12.703706 -101.992088 -1.383566
-13.277597 -101.294674 0.047691
-14.349753 -102.787094 -2.357425
-13.83069 -102.085704 -1.159015
-14.923644 -102.089679 -0.926169
-14.958782 -103.47847 -3.554123
-14.349753 -102.787094 -2.357425
-15.512189 -104.122082 -4.867387
-14.958782 -103.47847 -3.554123
-15.996112 -103.434681 -3.437843
-16.006287 -104.665825 -6.045585
-15.512189 -104.122082 -4.867387
-4.44506 -101.873387 -7.48084
-3.928277 -101.039055 -6.34092
-5.713742 -102.495953 -7.349753
-4.44506 -101.873387 -7.48084
-20.091803 -98.961747 3.435648
-19.517602 -98.421353 4.788816
-14.264354 -80.866936 31.01385
-13.949606 -79.902508 32.175969
-13.701261 -81.651241 29.719884
-14.264354 -80.866936 31.01385
-14.638486 -81.838428 29.890819
-14.21955 -91.584134 15.765027
-13.627356 -90.607636 17.02245
-14.554778 -90.709072 17.177397
-14.706297 -92.507973 14.568877
-13.778875 -92.406537 14.413932
-14.21955 -91.584134 15.765027
-18.175133 -90.460224 17.796383
-18.478313 -89.541008 19.053562
-17.324697 -90.722324 17.554209
-18.175133 -90.460224 17.796383
-16.443388 -90.823864 17.37488
-16.747671 -89.840278 18.828106
-17.324697 -90.722324 17.554209
-15.506667 -90.813694 17.284375
-16.443388 -90.823864 17.37488
-15.724702 -92.53017 14.733728
-16.661423 -92.54034 14.824233
-15.284028 -93.352574 13.382632
-14.706297 -92.507973 14.568877
-15.724702 -92.53017 14.733728
-18.426192 -94.650287 11.274964
-17.86422 -94.039829 12.426311
-18.131841 -95.585117 9.928496
-18.426192 -94.650287 11.274964
-19.039417 -95.274887 10.138593
-18.925076 -97.764797 6.116876
-18.406855 -97.14299 7.37585
-19.263286 -96.831524 7.533152
-19.517602 -98.421353 4.788816
-18.661171 -98.732819 4.631514
-18.925076 -97.764797 6.116876
-1.095995 -94.688271 2.140487
-0.454207 -95.098191 0.773926
-26.33778 -75.224903 23.631954
-26.059351 -76.221371 24.11236
-26.330714 -75.287876 22.265878
-26.33778 -75.224903 23.631954
-26.354128 -75.374969 20.992328
-26.136868 -76.392086 21.548634
-26.330714 -75.287876 22.265878
-26.315441 -75.485092 19.708869
-26.354128 -75.374969 20.992328
-23.19041 -81.617172 26.785833
-22.55981 -82.145527 27.063757
-23.403846 -82.009068 25.507755
-23.19041 -81.617172 26.785833
-23.742404 -81.000202 26.503311
-20.586642 -99.477246 2.198813
-19.748536 -99.904873 2.066619
-20.091803 -98.961747 3.435648
-21.068213 -99.920456 0.856086
-20.586642 -99.477246 2.198813
-20.724295 -100.84269 -0.469123
-21.068213 -99.920456 0.856086
-24.510743 -83.572891 19.283507
-24.093135 -84.37537 19.548865
-24.263264 -83.333798 20.567704
-24.873456 -82.660095 18.953118
-25.007421 -81.630951 19.923525
-25.200004 -81.759727 18.574295
-24.510743 -83.572891 19.283507
-24.873456 -82.660095 18.953118
-25.736472 -79.875271 16.249585
-25.691567 -79.827244 17.673047
-25.861475 -78.806198 17.161718
-25.938932 -78.783844 14.402318
-26.02024 -77.705792 15.33313
-26.052793 -77.635411 13.997193
-25.831197 -79.898487 14.843847
-25.938932 -78.783844 14.402318
-25.736472 -79.875271 16.249585
-25.831197 -79.898487 14.843847
-26.088923 -72.972195 10.789447
-26.207468 -72.987297 12.030054
-26.008617 -74.036125 9.985515
-26.088923 -72.972195 10.789447
-25.992507 -72.905034 9.428765
-25.948853 -75.150814 9.126239
-26.045269 -75.217975 10.486921
-26.008617 -74.036125 9.985515
-25.675038 -71.403847 6.361483
-25.782511 -70.207867 7.141047
-25.753386 -72.611714 6.813389
-25.675038 -71.403847 6.361483
-25.801189 -73.83976 7.299283
-25.864398 -72.740917 8.138939
-25.753386 -72.611714 6.813389
-25.883563 -75.145012 7.707358
-25.801189 -73.83976 7.299283
-25.948853 -75.150814 9.126239
-25.883563 -75.145012 7.707358
-11.742865 -77.070652 34.553575
-10.859785 -76.743458 34.366331
-5.998097 -76.51809 30.972647
-6.638594 -75.807426 32.362366
-6.860157 -77.032387 31.008074
-5.998097 -76.51809 30.972647
-5.346996 -77.314244 29.480459
-2.376436 -83.838306 18.813215
-2.001626 -82.691395 20.034977
-2.942629 -83.143768 20.14582
-1.827097 -84.530975 17.477656
-2.376436 -83.838306 18.813215
-2.768101 -84.983349 17.588498
-1.279131 -85.171291 16.221699
-0.887467 -84.026249 17.446415
-1.827097 -84.530975 17.477656
-0.693687 -85.756626 14.988764
-1.279131 -85.171291 16.221699
-1.633317 -86.261353 15.020005
-0.051275 -86.277321 13.795444
-0.693687 -85.756626 14.988764
-0.051275 -86.277321 13.795444
-0.479189 -87.446926 12.504107
-1.72026 -94.263141 3.438254
-2.277346 -93.774418 4.734643
-2.205656 -95.331753 2.16194
-1.095995 -94.688271 2.140487
-1.72026 -94.263141 3.438254
-3.334657 -97.482006 -0.352249
-2.160445 -96.829892 -0.393871
-2.755603 -96.408997 0.905795
-3.863696 -98.439892 -1.502326
-3.334657 -97.482006 -0.352249
-4.458854 -98.018997 -0.202661
-4.448199 -99.413452 -2.67262
-3.324002 -98.876461 -2.822208
-3.863696 -98.439892 -1.502326
-6.84329 -102.975605 -7.202545
-5.713742 -102.495953 -7.349753
-6.265729 -102.139297 -6.065725
-11.633036 -103.222179 -4.162782
-12.128308 -102.617264 -2.792835
-10.421556 -102.937007 -4.284359
-11.633036 -103.222179 -4.162782
-11.054776 -103.707778 -5.451742
-8.053281 -103.422733 -7.00763
-8.619287 -103.020779 -5.745919
-9.277291 -103.824562 -6.835031
-6.84329 -102.975605 -7.202545
-8.053281 -103.422733 -7.00763
3 0 37 36
3 0 40 38
3 0 36 40
3 1 43 42
3 2 46 44
3 2 47 46
3 2 49 47
3 1 52 50
3 1 42 52
3 3 143 144
3 3 145 146
3 4 55 54
3 4 57 55
3 4 59 57
3 6 63 61
3 7 147 149
3 149 148 64
3 147 148 149
3 7 150 152
3 150 65 151
3 150 151 152
3 7 153 155
3 155 154 65
3 153 154 155
3 8 156 157
3 8 158 159
3 8 160 162
3 160 66 161
3 160 161 162
3 9 69 67
3 9 70 69
3 5 73 71
3 10 76 74
3 10 78 76
3 10 80 78
3 11 81 39
3 11 82 81
3 11 84 82
3 164 163 41
3 12 165 167
3 167 166 85
3 165 166 167
3 168 87 169
3 170 88 171
3 172 89 173
3 174 173 88
3 172 173 174
3 14 91 90
3 16 92 45
3 16 93 92
3 16 95 93
3 17 175 176
3 17 177 178
3 17 179 181
3 179 96 180
3 179 180 181
3 19 97 48
3 19 98 97
3 20 101 99
3 22 102 51
3 22 103 102
3 22 105 103
3 12 106 53
3 12 85 106
3 23 182 183
3 23 184 186
3 184 107 185
3 184 185 186
3 24 187 188
3 24 189 190
3 24 191 193
3 191 108 192
3 191 192 193
3 25 109 56
3 25 110 109
3 25 112 110
3 27 113 58
3 27 194 196
3 196 195 113
3 194 195 196
3 197 114 198
3 199 198 83
3 197 198 199
3 200 115 201
3 202 116 203
3 204 203 115
3 202 203 204
3 205 117 206
3 208 207 117
3 28 120 118
3 209 121 210
3 211 210 60
3 209 210 211
3 212 122 213
3 214 213 121
3 212 213 214
3 28 215 216
3 28 217 219
3 217 118 218
3 217 218 219
3 29 123 119
3 221 220 62
3 13 124 86
3 30 222 223
3 30 224 226
3 224 125 225
3 224 225 226
3 15 227 228
3 231 230 94
3 229 230 231
3 18 232 234
3 232 126 233
3 232 233 234
3 235 127 236
3 237 236 68
3 235 236 237
3 239 238 127
3 31 240 241
3 31 242 244
3 242 128 243
3 242 243 244
3 26 129 111
3 32 130 72
3 32 131 130
3 21 132 100
3 33 133 75
3 33 134 133
3 33 135 134
3 34 136 77
3 34 137 136
3 34 138 137
3 35 139 79
3 35 140 139
3 245 141 246
3 247 246 104
3 245 246 247
3 248 142 249
3 251 250 142
3 36 252 253
3 37 254 256
3 256 255 36
3 254 255 256
3 37 257 258
3 38 259 261
3 259 39 260
3 259 260 261
3 40 39 38
3 40 11 39
3 40 41 11
3 36 41 40
3 36 262 264
3 264 263 41
3 262 263 264
3 42 265 267
3 267 266 12
3 265 266 267
3 43 268 270
3 270 269 42
3 268 269 270
3 43 271 272
3 44 45 14
3 46 45 44
3 46 16 45
3 46 273 275
3 275 274 16
3 273 274 275
3 47 276 278
3 278 277 46
3 276 277 278
3 47 279 281
3 279 17 280
3 279 280 281
3 47 48 17
3 49 48 47
3 49 19 48
3 50 51 20
3 52 51 50
3 52 22 51
3 52 53 22
3 42 53 52
3 42 12 53
3 282 23 283
3 54 284 285
3 55 286 288
3 288 287 54
3 286 287 288
3 55 289 291
3 289 24 290
3 289 290 291
3 55 56 24
3 57 56 55
3 57 25 56
3 57 58 25
3 59 58 57
3 59 27 58
3 292 60 293
3 294 293 28
3 292 293 294
3 295 60 296
3 299 298 60
3 297 298 299
3 300 28 301
3 61 62 29
3 63 62 61
3 63 302 304
3 304 303 62
3 302 303 304
3 306 305 13
3 307 30 308
3 64 309 311
3 311 310 15
3 309 310 311
3 313 312 64
3 65 314 315
3 65 316 317
3 65 318 320
3 318 319 320
3 322 321 65
3 66 323 324
3 66 325 326
3 67 68 18
3 69 68 67
3 69 327 329
3 329 328 68
3 327 328 329
3 69 330 331
3 70 332 334
3 334 333 69
3 332 333 334
3 70 335 337
3 335 31 336
3 335 336 337
3 71 72 26
3 73 72 71
3 73 32 72
3 74 75 21
3 76 75 74
3 76 33 75
3 76 77 33
3 78 77 76
3 78 34 77
3 78 79 34
3 80 79 78
3 80 35 79
3 39 338 339
3 81 340 342
3 342 341 39
3 340 341 342
3 81 343 344
3 81 345 347
3 345 54 346
3 345 346 347
3 82 54 81
3 82 4 54
3 82 83 4
3 84 83 82
3 84 348 350
3 350 349 83
3 348 349 350
3 41 84 11
3 351 84 352
3 353 352 41
3 351 352 353
3 355 354 84
3 85 356 357
3 359 358 85
3 361 360 12
3 362 86 363
3 364 363 6
3 362 363 364
3 87 365 367
3 365 86 366
3 365 366 367
3 87 13 86
3 368 87 369
3 88 370 372
3 370 87 371
3 370 371 372
3 88 13 87
3 88 373 375
3 375 374 13
3 373 374 375
3 89 376 378
3 378 377 88
3 376 377 378
3 89 379 380
3 90 381 382
3 91 383 385
3 385 384 90
3 383 384 385
3 91 386 388
3 386 15 387
3 386 387 388
3 45 91 14
3 92 91 45
3 92 15 91
3 92 64 15
3 93 64 92
3 93 7 64
3 93 94 7
3 95 94 93
3 95 389 391
3 391 390 94
3 389 390 391
3 392 95 393
3 394 393 16
3 392 393 394
3 395 95 396
3 398 397 95
3 399 8 400
3 402 401 8
3 96 403 404
3 96 405 407
3 405 18 406
3 405 406 407
3 48 96 17
3 97 96 48
3 97 18 96
3 97 67 18
3 98 67 97
3 98 9 67
3 99 100 5
3 101 100 99
3 101 21 100
3 51 101 20
3 102 101 51
3 102 21 101
3 102 74 21
3 103 74 102
3 103 10 74
3 103 104 10
3 105 104 103
3 105 408 410
3 410 409 104
3 408 409 410
3 53 105 22
3 106 105 53
3 106 411 413
3 413 412 105
3 411 412 413
3 106 414 415
3 85 416 418
3 418 417 106
3 416 417 418
3 85 419 420
3 107 421 422
3 107 423 424
3 426 425 1
3 427 90 428
3 108 429 431
3 429 90 430
3 429 430 431
3 108 14 90
3 56 108 24
3 109 108 56
3 109 14 108
3 109 44 14
3 110 44 109
3 110 2 44
3 110 111 2
3 112 111 110
3 112 26 111
3 58 112 25
3 113 112 58
3 113 26 112
3 113 71 26
3 432 71 433
3 434 433 113
3 432 433 434
3 435 5 436
3 437 436 71
3 435 436 437
3 83 59 4
3 114 59 83
3 114 27 59
3 438 114 439
3 440 114 441
3 442 27 443
3 444 443 114
3 442 443 444
3 446 445 27
3 115 447 448
3 115 449 451
3 449 5 450
3 449 450 451
3 115 99 5
3 116 99 115
3 116 20 99
3 452 116 453
3 117 454 456
3 454 116 455
3 454 455 456
3 117 20 116
3 117 50 20
3 457 50 458
3 459 458 117
3 457 458 459
3 460 1 461
3 462 461 50
3 460 461 462
3 463 3 464
3 118 119 0
3 120 119 118
3 120 29 119
3 60 120 28
3 121 120 60
3 121 29 120
3 121 61 29
3 122 61 121
3 122 6 61
3 465 122 466
3 467 122 468
3 469 6 470
3 471 470 122
3 469 470 471
3 473 472 6
3 474 38 475
3 118 476 478
3 476 38 477
3 476 477 478
3 118 0 38
3 479 43 480
3 481 480 1
3 479 480 481
3 482 43 483
3 485 484 43
3 119 37 0
3 123 37 119
3 123 486 488
3 488 487 37
3 486 487 488
3 62 123 29
3 489 123 490
3 491 490 62
3 489 490 491
3 493 492 123
3 86 63 6
3 124 63 86
3 124 494 496
3 496 495 63
3 494 495 496
3 497 124 498
3 499 498 13
3 497 498 499
3 500 124 501
3 503 502 124
3 504 89 505
3 125 506 508
3 506 89 507
3 506 507 508
3 125 509 511
3 511 510 89
3 509 510 511
3 512 30 513
3 514 30 515
3 516 125 517
3 518 517 30
3 516 517 518
3 519 125 520
3 522 521 125
3 524 523 15
3 94 525 527
3 527 526 7
3 525 526 527
3 529 528 94
3 530 66 531
3 532 531 8
3 530 531 532
3 126 533 535
3 533 66 534
3 533 534 535
3 126 536 538
3 538 537 66
3 536 537 538
3 68 126 18
3 127 126 68
3 127 539 541
3 541 540 126
3 539 540 541
3 127 542 543
3 545 544 127
3 128 546 547
3 128 548 550
3 548 3 549
3 548 549 550
3 111 49 2
3 129 49 111
3 129 19 49
3 72 129 26
3 130 129 72
3 130 19 129
3 130 98 19
3 131 98 130
3 131 9 98
3 100 73 5
3 132 73 100
3 132 32 73
3 75 132 21
3 133 132 75
3 133 32 132
3 133 131 32
3 134 131 133
3 134 9 131
3 134 70 9
3 135 70 134
3 135 31 70
3 77 135 33
3 136 135 77
3 136 31 135
3 136 128 31
3 137 128 136
3 137 3 128
3 137 551 553
3 553 552 3
3 551 552 553
3 138 554 556
3 556 555 137
3 554 555 556
3 138 557 559
3 557 23 558
3 557 558 559
3 79 138 34
3 139 138 79
3 139 23 138
3 139 107 23
3 140 107 139
3 140 560 562
3 562 561 107
3 560 561 562
3 104 80 10
3 141 80 104
3 141 35 80
3 563 141 564
3 142 565 567
3 565 141 566
3 565 566 567
3 142 35 141
3 142 140 35
3 568 140 569
3 570 569 142
3 568 569 570
3 572 571 140
