ply
format ascii 1.0
element vertex 467
property float x
property float y
property float z
element face 438
property list uchar int vertex_index
end_header
19.460794 -35.967686 -27.964001
0.444677 -7.06246 -56.196083
7.441333 -24.71958 -41.608398
1.486815 3.298111 -58.359138
3.498672 -5.94065 -51.574284
13.187728 -31.077539 -34.917774
6.7998 -14.450503 -44.830227
3.155047 -16.45587 -48.710506
4.322035 -0.842785 -52.47348
0.847984 -1.627748 -57.587101
10.191671 -28.078583 -38.224995
12.589748 -25.727612 -36.28434
9.466059 -22.934072 -39.775108
6.879563 -19.323328 -43.238037
4.737638 -15.444679 -46.724922
5.061106 -20.626492 -45.148285
2.321537 8.442308 -58.663044
3.361741 3.880721 -55.516941
2.391335 -1.539483 -54.949501
1.868291 -6.625204 -53.827038
16.396137 -33.581848 -31.478174
8.582203 -30.703056 -39.91106
5.929104 -26.74507 -43.39579
0.390806 8.129424 -61.821903
3.064616 -11.210961 -50.279907
1.669844 -11.687292 -52.442436
3.605855 -22.09244 -47.097912
1.748684 -17.30127 -50.84745
0.583619 -4.28968 -57.012108
20.795809 -33.859024 -26.768446
19.251816 -33.07988 -28.583973
8.792528 -26.589735 -39.871399
9.768463 -25.460684 -38.997787
8.345286 -23.646584 -40.758415
8.092626 -21.200348 -41.520855
7.098573 -21.920952 -42.424538
5.924337 -20.036648 -44.159332
6.195126 -22.736368 -43.366997
3.910854 6.605722 -55.677715
4.378932 4.198435 -54.243969
3.915229 -3.491765 -51.977757
3.3059 -1.219112 -53.679577
2.925104 -3.731172 -53.253841
2.082649 -4.004349 -54.474178
2.632779 -6.290269 -52.698559
25.96694 -36.745113 -19.158575
23.503078 -35.47237 -23.144209
23.508736 -38.429657 -22.456171
1.86627 5.928952 -58.627403
1.328248 8.401849 -60.31271
0.968123 5.799503 -60.135754
-1.181093 2.916857 -62.677231
14.778171 -32.412682 -33.217659
16.042557 -30.824104 -32.165768
14.414809 -29.733335 -33.888554
5.784657 -12.468254 -46.517227
3.887621 -15.934899 -47.727829
3.816698 -13.268337 -48.553905
3.060855 -13.696071 -49.536812
2.366283 -11.577311 -51.276314
2.357833 -14.149429 -50.561108
4.693485 -24.333055 -45.265633
4.873053 1.999254 -52.865902
1.09589 0.751093 -58.081787
0.657796 3.271454 -59.807003
0.30153 0.726419 -59.478928
11.656322 -29.810019 -36.56152
12.853557 -28.480286 -35.552258
11.310596 -27.028652 -37.243359
10.964811 -24.235935 -38.084057
9.225402 -20.248314 -40.69725
8.012517 -18.611504 -42.30925
6.77037 -16.962578 -44.019348
5.699421 -15.064466 -45.725311
5.736299 -17.62347 -44.94173
4.786521 -17.989012 -46.022114
4.052882 -18.779758 -46.87883
3.868828 11.441757 -57.123566
2.755128 11.241678 -58.723625
3.330173 8.82606 -57.203709
2.861082 6.08009 -57.046253
2.368567 3.453084 -56.91013
3.780259 1.438421 -54.028229
2.834346 1.138373 -55.291668
1.966281 0.872763 -56.610287
1.622929 -1.508627 -56.255184
1.335933 -3.997656 -55.772614
1.154584 -6.643305 -55.083561
18.357813 -37.887463 -29.013542
18.001717 -34.755802 -29.690416
16.834236 -36.595184 -30.77832
15.352971 -35.365559 -32.414837
12.239736 -32.67281 -35.768799
10.690056 -31.036295 -37.485748
9.30476 -29.352339 -39.092964
7.985895 -27.706898 -40.711697
6.658536 -25.812624 -42.471973
7.221211 -28.751331 -41.634155
22.179892 -34.781487 -24.978306
20.872143 -36.836746 -26.209419
1.810398 10.901831 -60.155178
0.722674 10.724097 -61.910442
-0.268046 10.53866 -63.4622
0.079628 5.555388 -61.575603
17.611032 -31.878151 -30.460932
4.133622 -8.32791 -49.849243
4.760841 -12.978597 -47.449791
3.942767 -10.944272 -49.137619
3.252825 -8.648046 -50.890614
2.477091 -8.979344 -51.954472
1.72868 -9.123783 -53.172222
1.023195 -9.522343 -54.289791
5.43125 -23.603191 -44.272083
4.310408 -21.395643 -46.103458
3.330577 -19.141735 -47.923927
2.46703 -17.009069 -49.716976
1.695849 -14.509713 -51.605099
0.932048 -12.001531 -53.636917
0.289281 -9.714567 -55.497681
0.148597 -5.761406 -57.208952
0.218068 -4.375015 -57.616964
0.514148 -5.67607 -56.604095
0.054221 -7.110846 -56.838089
0.148597 -5.761406 -57.208952
5.012453 4.500666 -53.603023
4.709675 5.639702 -54.308712
25.392024 -36.40452 -20.156989
25.26466 -38.000616 -19.898953
24.035558 -38.842888 -21.547752
24.162922 -37.246792 -21.805787
-1.54015 4.130035 -63.577659
-1.670253 2.767604 -63.292422
7.50057 -14.033487 -44.368367
7.361817 -15.260725 -44.033684
6.938551 -13.144759 -45.187265
7.50057 -14.033487 -44.368367
6.292229 -13.459378 -45.673727
6.43098 -12.153635 -46.030766
6.938551 -13.144759 -45.187265
10.062041 -22.303046 -39.390411
10.811417 -22.953978 -38.544885
10.215435 -23.585003 -38.929583
9.345731 -21.591193 -40.236179
9.941713 -20.960167 -39.851482
10.062041 -22.303046 -39.390411
4.165663 10.4297 -56.453869
4.477799 11.939653 -56.437071
3.896336 9.121852 -56.493941
3.5995 10.133909 -57.163638
4.165663 10.4297 -56.453869
17.106945 -38.14689 -30.40525
17.596024 -37.241324 -29.895931
17.868733 -38.79303 -29.522861
14.86137 -36.325375 -32.912142
15.602308 -36.89069 -32.096698
14.585171 -34.730629 -33.241627
14.86137 -36.325375 -32.912142
11.844178 -33.4002 -36.180884
12.588684 -34.149321 -35.365715
11.069337 -32.581942 -37.039358
11.464896 -31.854552 -36.627274
11.844178 -33.4002 -36.180884
8.943482 -30.027698 -39.502012
9.640764 -30.885573 -38.674303
9.279485 -31.560932 -39.083351
22.241982 -36.295578 -24.613922
22.841485 -35.126928 -24.061257
22.903575 -36.641019 -23.696873
21.588108 -37.323207 -25.229478
21.526018 -35.809117 -25.593863
22.241982 -36.295578 -24.613922
-0.072833 4.287311 -61.398536
0.368712 4.413421 -60.691303
0.216251 3.145344 -60.514236
16.78557 -30.012873 -31.584003
15.901911 -29.498209 -32.525368
13.343992 -26.424724 -35.456045
13.475897 -27.801061 -35.090004
12.721653 -27.103949 -35.918299
4.504936 -9.31815 -49.051315
4.723383 -8.069364 -49.287717
2.200565 -18.507281 -49.883253
1.8404 -18.805657 -50.39786
2.107857 -17.155169 -50.282213
2.559737 -18.361181 -49.318016
2.200565 -18.507281 -49.883253
0.594186 -12.294778 -54.104812
0.975691 -13.395879 -53.152715
0.272802 -11.151296 -55.035195
0.610664 -10.858049 -54.567299
0.594186 -12.294778 -54.104812
-0.087288 -9.865531 -56.048319
0.272802 -11.151296 -55.035195
0.333297 -3.100385 -57.922157
0.465479 -1.769419 -58.209654
0.715801 -2.958714 -57.299605
0.333297 -3.100385 -57.922157
0.218068 -4.375015 -57.616964
20.702647 -32.435687 -27.139988
21.494366 -32.798587 -26.183531
19.930651 -32.046115 -28.047752
20.702647 -32.435687 -27.139988
20.023812 -33.469452 -27.676209
19.184775 -31.595745 -28.917585
19.930651 -32.046115 -28.047752
4.475637 6.843345 -55.025585
4.186676 8.011682 -55.730943
4.144893 5.402079 -54.960842
4.475637 6.843345 -55.025585
4.709675 5.639702 -54.308712
8.878438 -32.139784 -39.57463
9.279485 -31.560932 -39.083351
8.178314 -31.161738 -40.421867
8.878438 -32.139784 -39.57463
26.079645 -35.262308 -19.477071
26.674392 -35.537104 -18.41446
26.079645 -35.262308 -19.477071
25.392024 -36.40452 -20.156989
24.160093 -35.768148 -22.149806
24.217954 -34.300354 -22.482191
23.505907 -36.951014 -22.80019
24.160093 -35.768148 -22.149806
24.162922 -37.246792 -21.805787
22.906405 -38.119663 -23.352854
22.903575 -36.641019 -23.696873
23.505907 -36.951014 -22.80019
-1.01377 4.20839 -62.856918
-0.703194 2.968045 -61.94935
-1.01377 4.20839 -62.856918
-1.54015 4.130035 -63.577659
15.088037 -28.952824 -33.386761
15.901911 -29.498209 -32.525368
15.228683 -30.27872 -33.027161
13.234264 -25.025681 -35.8757
12.443383 -24.38342 -36.737444
5.935755 -11.208028 -46.838188
6.43098 -12.153635 -46.030766
5.330453 -11.388321 -47.385307
5.935755 -11.208028 -46.838188
4.921176 -25.816561 -44.865555
5.311294 -25.539062 -44.330711
5.538985 -27.022569 -43.930633
4.354798 -24.778936 -45.732636
4.921176 -25.816561 -44.865555
3.810983 -23.658628 -46.648775
4.14967 -23.212747 -46.181773
4.354798 -24.778936 -45.732636
1.388008 -17.499913 -51.371487
1.8404 -18.805657 -50.39786
1.384008 -16.045749 -51.757982
1.388008 -17.499913 -51.371487
5.558844 2.306449 -52.243269
5.259514 3.401076 -52.91399
5.211392 0.87882 -52.088787
5.558844 2.306449 -52.243269
4.935883 -0.542199 -51.892576
4.597544 0.578234 -52.669691
5.211392 0.87882 -52.088787
4.646966 -1.93942 -51.683639
4.935883 -0.542199 -51.892576
4.443563 -3.26391 -51.435778
4.118632 -2.167275 -52.225618
4.646966 -1.93942 -51.683639
4.189096 -4.651797 -51.197758
4.443563 -3.26391 -51.435778
3.980818 -5.87624 -50.996021
3.706951 -4.716207 -51.776021
4.189096 -4.651797 -51.197758
26.460341 -37.105997 -18.16282
26.674392 -35.537104 -18.41446
25.778518 -38.306639 -18.928365
26.460341 -37.105997 -18.16282
25.26466 -38.000616 -19.898953
25.778518 -38.306639 -18.928365
0.038118 1.872826 -60.350199
0.216251 3.145344 -60.514236
0.479663 1.998936 -59.642966
0.192252 -0.592335 -59.155568
0.574757 -0.450664 -58.533015
0.465479 -1.769419 -58.209654
-0.121482 0.615371 -60.148068
0.192252 -0.592335 -59.155568
0.038118 1.872826 -60.350199
-0.121482 0.615371 -60.148068
-0.862794 1.71059 -61.747219
-0.703194 2.968045 -61.94935
-1.317239 1.638481 -62.405622
-0.862794 1.71059 -61.747219
-1.670253 2.767604 -63.292422
-1.317239 1.638481 -62.405622
11.630914 -23.637581 -37.637303
12.443383 -24.38342 -36.737444
11.777279 -24.981774 -37.184199
11.630914 -23.637581 -37.637303
10.811417 -22.953978 -38.544885
9.949898 -19.705117 -40.248344
9.941713 -20.960167 -39.851482
9.28788 -18.969544 -41.064054
9.949898 -19.705117 -40.248344
8.681437 -18.151139 -41.870054
9.28788 -18.969544 -41.064054
8.61896 -19.429909 -41.50325
7.968176 -17.341226 -42.773195
8.681437 -18.151139 -41.870054
7.347102 -16.516763 -43.628245
7.968176 -17.341226 -42.773195
7.391444 -17.787041 -43.164299
6.785085 -15.70654 -44.424788
7.361817 -15.260725 -44.033684
7.347102 -16.516763 -43.628245
4.10969 12.885191 -57.097805
4.477799 11.939653 -56.437071
3.571229 12.615512 -57.79793
4.10969 12.885191 -57.097805
3.311978 11.341718 -57.923595
3.014379 12.515472 -58.59796
3.571229 12.615512 -57.79793
3.620513 7.715891 -56.440712
3.896336 9.121852 -56.493941
4.186676 8.011682 -55.730943
4.625992 3.098845 -53.554935
5.012453 4.500666 -53.603023
5.259514 3.401076 -52.91399
16.342941 -37.505503 -31.27844
17.106945 -38.14689 -30.40525
16.093604 -35.980372 -31.596578
16.342941 -37.505503 -31.27844
15.602308 -36.89069 -32.096698
14.297771 -33.25419 -33.643038
15.065571 -33.88912 -32.816248
14.585171 -34.730629 -33.241627
13.502549 -32.586619 -34.493095
13.98295 -31.74511 -34.067717
14.297771 -33.25419 -33.643038
13.028553 -33.384254 -34.918608
12.588684 -34.149321 -35.365715
12.713732 -31.875174 -35.343287
13.502549 -32.586619 -34.493095
13.028553 -33.384254 -34.918608
10.333412 -31.727551 -37.870695
11.069337 -32.581942 -37.039358
9.997408 -30.194317 -38.289356
10.333412 -31.727551 -37.870695
9.640764 -30.885573 -38.674303
7.497819 -30.185876 -41.283414
7.901707 -29.727193 -40.772607
8.178314 -31.161738 -40.421867
6.818793 -29.237773 -42.159776
7.497819 -30.185876 -41.283414
7.095401 -30.672318 -41.809036
6.17274 -28.234643 -43.040594
6.575157 -27.7482 -42.514972
6.818793 -29.237773 -42.159776
5.538985 -27.022569 -43.930633
6.17274 -28.234643 -43.040594
23.568593 -34.015349 -23.409973
24.217954 -34.300354 -22.482191
22.907 -33.669907 -24.327022
23.568593 -34.015349 -23.409973
22.841485 -35.126928 -24.061257
22.186408 -33.259819 -25.288461
22.907 -33.669907 -24.327022
21.487851 -34.320256 -25.873376
21.494366 -32.798587 -26.183531
22.186408 -33.259819 -25.288461
23.393511 -39.991581 -22.267496
24.035558 -38.842888 -21.547752
22.856837 -39.675295 -23.142556
23.393511 -39.991581 -22.267496
22.906405 -38.119663 -23.352854
22.856837 -39.675295 -23.142556
20.959709 -38.344803 -25.893968
21.588108 -37.323207 -25.229478
20.329587 -37.86479 -26.735957
20.959709 -38.344803 -25.893968
19.623912 -37.43026 -27.613248
20.166469 -36.402216 -27.08671
20.329587 -37.86479 -26.735957
19.072422 -38.390148 -28.138019
18.909304 -36.927574 -28.488771
19.623912 -37.43026 -27.613248
18.586886 -39.444794 -28.64758
19.072422 -38.390148 -28.138019
18.097807 -40.350361 -29.156899
17.868733 -38.79303 -29.522861
18.586886 -39.444794 -28.64758
2.450805 12.398188 -59.435993
3.014379 12.515472 -58.59796
1.97844 12.228265 -60.15177
2.450805 12.398188 -59.435993
2.282763 11.071755 -59.439402
1.446988 12.069148 -60.971361
1.97844 12.228265 -60.15177
0.903126 11.980281 -61.848993
1.446988 12.069148 -60.971361
1.266536 10.812964 -61.03281
0.377023 11.949061 -62.680101
0.903126 11.980281 -61.848993
-0.118337 11.856343 -63.45598
0.377023 11.949061 -62.680101
0.227314 10.631379 -62.686321
-0.627528 11.6754 -64.192507
-0.118337 11.856343 -63.45598
-0.38341 5.527655 -62.306105
-0.072833 4.287311 -61.398536
-0.230352 6.833597 -62.446413
-0.38341 5.527655 -62.306105
-0.074763 8.120615 -62.569563
0.235217 6.842406 -61.698753
-0.230352 6.833597 -62.446413
-0.404189 9.325233 -63.389712
0.06138 9.334042 -62.642052
-0.074763 8.120615 -62.569563
-0.817539 10.45852 -64.259783
-0.404189 9.325233 -63.389712
-0.627528 11.6754 -64.192507
-0.817539 10.45852 -64.259783
18.364383 -30.994881 -29.856064
19.184775 -31.595745 -28.917585
18.431424 -32.479016 -29.522452
17.569807 -30.539896 -30.731585
16.826794 -31.351127 -31.31335
16.78557 -30.012873 -31.584003
18.364383 -30.994881 -29.856064
17.569807 -30.539896 -30.731585
14.256522 -28.427585 -34.258152
13.634183 -29.106811 -34.720406
13.475897 -27.801061 -35.090004
15.088037 -28.952824 -33.386761
14.256522 -28.427585 -34.258152
13.343992 -26.424724 -35.456045
13.234264 -25.025681 -35.8757
4.298293 -7.069869 -50.133501
4.723383 -8.069364 -49.287717
3.816147 -7.13428 -50.711764
3.980818 -5.87624 -50.996021
4.298293 -7.069869 -50.133501
4.818545 -11.643493 -47.851589
5.330453 -11.388321 -47.385307
5.272749 -12.723426 -46.983509
4.409508 -10.62633 -48.695503
4.818545 -11.643493 -47.851589
4.351804 -11.961434 -48.293705
4.038194 -9.636091 -49.493431
4.504936 -9.31815 -49.051315
4.409508 -10.62633 -48.695503
3.271275 -22.420206 -47.572848
3.810983 -23.658628 -46.648775
3.12915 -20.902867 -48.008484
3.271275 -22.420206 -47.572848
2.991511 -19.427514 -48.421492
3.468216 -20.617088 -47.510919
3.12915 -20.902867 -48.008484
2.898803 -18.075402 -48.820452
2.991511 -19.427514 -48.421492
2.559737 -18.361181 -49.318016
1.357591 -14.649971 -52.136807
1.722266 -15.905492 -51.226275
1.384008 -16.045749 -51.757982
1.313948 -13.255622 -52.621008
1.357591 -14.649971 -52.136807
0.975691 -13.395879 -53.152715
-0.023477 -8.4369 -56.488888
0.054221 -7.110846 -56.838089
0.366979 -8.388514 -55.846882
-0.023477 -8.4369 -56.488888
-0.087288 -9.865531 -56.048319
3 1 119 121
3 121 120 28
3 119 120 121
3 1 122 123
3 0 30 29
3 2 33 31
3 2 35 33
3 2 37 35
3 124 39 125
3 4 42 40
3 4 44 42
3 127 126 45
3 128 47 129
3 3 50 48
3 131 130 51
3 5 54 52
3 6 132 133
3 6 134 135
3 6 136 138
3 136 55 137
3 136 137 138
3 7 58 56
3 7 60 58
3 9 65 63
3 10 68 66
3 12 69 32
3 12 139 141
3 141 140 69
3 139 140 141
3 12 142 144
3 142 70 143
3 142 143 144
3 13 71 34
3 13 72 71
3 13 74 72
3 15 75 36
3 15 76 75
3 145 77 146
3 147 79 148
3 149 148 77
3 147 148 149
3 17 80 38
3 17 81 80
3 8 82 62
3 18 83 41
3 18 84 83
3 18 85 84
3 19 86 43
3 19 87 86
3 150 90 151
3 152 151 88
3 150 151 152
3 153 91 154
3 156 155 91
3 157 92 158
3 159 93 160
3 161 160 92
3 159 160 161
3 21 162 164
3 162 94 163
3 162 163 164
3 21 95 94
3 21 97 95
3 165 98 166
3 167 166 46
3 165 166 167
3 168 99 169
3 170 169 98
3 168 169 170
3 16 100 78
3 23 101 49
3 23 102 101
3 171 103 172
3 173 172 64
3 171 172 173
3 20 104 89
3 175 174 53
3 11 176 178
3 178 177 67
3 176 177 178
3 179 105 180
3 14 106 73
3 24 107 57
3 24 108 107
3 24 109 108
3 25 110 59
3 25 111 110
3 22 112 96
3 26 113 61
3 26 114 113
3 27 181 182
3 27 183 185
3 183 115 184
3 183 184 185
3 27 116 115
3 186 117 187
3 188 118 189
3 190 189 117
3 188 189 190
3 192 191 118
3 28 193 195
3 195 194 9
3 193 194 195
3 197 196 28
3 29 198 199
3 30 200 202
3 202 201 29
3 200 201 202
3 30 203 204
3 31 32 10
3 33 32 31
3 33 12 32
3 33 34 12
3 35 34 33
3 35 13 34
3 35 36 13
3 37 36 35
3 37 15 36
3 205 38 206
3 39 207 209
3 207 38 208
3 207 208 209
3 39 17 38
3 40 41 8
3 42 41 40
3 42 18 41
3 42 43 18
3 44 43 42
3 44 19 43
3 210 21 211
3 213 212 21
3 45 214 215
3 217 216 45
3 218 46 219
3 47 220 222
3 220 46 221
3 220 221 222
3 47 223 225
3 225 224 46
3 223 224 225
3 48 49 16
3 50 49 48
3 50 23 49
3 51 226 227
3 229 228 51
3 52 53 20
3 54 53 52
3 54 230 232
3 232 231 53
3 230 231 232
3 234 233 11
3 55 235 236
3 55 237 238
3 56 57 14
3 58 57 56
3 58 24 57
3 58 59 24
3 60 59 58
3 60 25 59
3 239 61 240
3 241 240 22
3 239 240 241
3 242 61 243
3 244 26 245
3 246 245 61
3 244 245 246
3 247 27 248
3 250 249 27
3 251 62 252
3 253 62 254
3 255 8 256
3 257 256 62
3 255 256 257
3 258 8 259
3 260 40 261
3 262 261 8
3 260 261 262
3 263 40 264
3 265 4 266
3 267 266 40
3 265 266 267
3 268 45 269
3 270 45 271
3 273 272 45
3 63 64 3
3 65 64 63
3 65 274 276
3 276 275 64
3 274 275 276
3 277 65 278
3 279 278 9
3 277 278 279
3 280 65 281
3 283 282 65
3 284 51 285
3 286 51 287
3 289 288 51
3 66 67 5
3 68 67 66
3 68 11 67
3 32 68 10
3 69 68 32
3 69 11 68
3 69 290 292
3 292 291 11
3 290 291 292
3 294 293 69
3 70 295 296
3 70 297 298
3 34 70 12
3 71 70 34
3 71 299 301
3 301 300 70
3 299 300 301
3 71 302 303
3 72 304 306
3 306 305 71
3 304 305 306
3 72 307 309
3 307 6 308
3 307 308 309
3 72 73 6
3 74 73 72
3 74 14 73
3 36 74 13
3 75 74 36
3 75 14 74
3 75 56 14
3 76 56 75
3 76 7 56
3 77 310 311
3 77 312 313
3 77 314 316
3 314 78 315
3 314 315 316
3 79 78 77
3 79 16 78
3 38 317 319
3 317 79 318
3 317 318 319
3 80 79 38
3 80 16 79
3 80 48 16
3 81 48 80
3 81 3 48
3 62 320 322
3 320 39 321
3 320 321 322
3 82 39 62
3 82 17 39
3 41 82 8
3 83 82 41
3 83 17 82
3 83 81 17
3 84 81 83
3 84 3 81
3 84 63 3
3 85 63 84
3 85 9 63
3 43 85 18
3 86 85 43
3 86 9 85
3 86 28 9
3 87 28 86
3 87 1 28
3 88 89 0
3 90 89 88
3 90 20 89
3 323 90 324
3 91 325 327
3 325 90 326
3 325 326 327
3 91 20 90
3 91 52 20
3 328 52 329
3 330 329 91
3 328 329 330
3 331 5 332
3 333 332 52
3 331 332 333
3 92 334 335
3 92 336 338
3 336 5 337
3 336 337 338
3 92 66 5
3 93 66 92
3 93 10 66
3 339 93 340
3 94 341 343
3 341 93 342
3 341 342 343
3 94 10 93
3 94 31 10
3 95 31 94
3 95 2 31
3 95 96 2
3 97 96 95
3 97 22 96
3 344 97 345
3 346 345 21
3 344 345 346
3 347 97 348
3 347 348 349
3 350 22 351
3 352 351 97
3 350 351 352
3 354 353 22
3 46 355 356
3 98 357 359
3 359 358 46
3 357 358 359
3 98 360 361
3 98 362 364
3 362 29 363
3 362 363 364
3 99 29 98
3 99 0 29
3 365 47 366
3 367 47 368
3 370 369 47
3 371 99 372
3 373 99 374
3 375 0 376
3 377 376 99
3 375 376 377
3 378 88 379
3 380 379 0
3 378 379 380
3 381 88 382
3 385 384 88
3 383 384 385
3 78 386 387
3 100 388 390
3 390 389 78
3 388 389 390
3 100 391 392
3 49 100 16
3 101 100 49
3 101 393 395
3 395 394 100
3 393 394 395
3 101 396 397
3 102 398 400
3 400 399 101
3 398 399 400
3 102 401 402
3 64 50 3
3 103 50 64
3 103 23 50
3 403 103 404
3 405 103 406
3 407 23 408
3 409 408 103
3 407 408 409
3 410 102 411
3 412 411 23
3 410 411 412
3 413 102 414
3 416 415 102
3 89 30 0
3 104 30 89
3 104 417 419
3 419 418 30
3 417 418 419
3 53 104 20
3 420 104 421
3 422 421 53
3 420 421 422
3 424 423 104
3 67 54 5
3 425 54 426
3 427 426 67
3 425 426 427
3 429 428 54
3 431 430 11
3 105 432 433
3 105 434 436
3 434 4 435
3 434 435 436
3 73 55 6
3 106 55 73
3 106 437 439
3 439 438 55
3 437 438 439
3 57 106 14
3 107 106 57
3 107 440 442
3 442 441 106
3 440 441 442
3 107 443 445
3 443 105 444
3 443 444 445
3 108 105 107
3 108 4 105
3 108 44 4
3 109 44 108
3 109 19 44
3 59 109 24
3 110 109 59
3 110 19 109
3 110 87 19
3 111 87 110
3 111 1 87
3 96 37 2
3 112 37 96
3 112 15 37
3 61 112 22
3 113 112 61
3 113 15 112
3 113 76 15
3 114 76 113
3 114 7 76
3 446 26 447
3 448 26 449
3 450 114 451
3 452 451 26
3 450 451 452
3 115 453 455
3 453 114 454
3 453 454 455
3 115 7 114
3 115 60 7
3 116 60 115
3 116 25 60
3 456 116 457
3 458 457 27
3 456 457 458
3 117 459 461
3 459 116 460
3 459 460 461
3 117 25 116
3 117 111 25
3 118 111 117
3 118 1 111
3 118 462 464
3 464 463 1
3 462 463 464
3 466 465 118
