ply
format ascii 1.0
element vertex 409
property float x
property float y
property float z
element face 390
property list uchar int vertex_index
end_header
7.079351 53.219219 -43.752502
14.725031 85.765404 -26.740921
2.927184 78.868828 -42.734539
15.361182 75.839066 -29.286892
9.239076 84.473328 -35.549667
9.969376 72.493362 -36.617069
10.028214 59.508213 -36.381958
5.678085 49.859959 -47.443665
-0.035233 74.596062 -45.54747
4.116498 72.26107 -42.846466
7.836184 89.890572 -34.014908
12.199725 85.435196 -31.366041
14.57956 70.055809 -29.649315
12.749164 74.516243 -32.957417
12.236762 68.293198 -33.024551
11.725621 61.951031 -32.902924
17.757425 80.725716 -24.139791
15.433653 80.909531 -28.460951
17.68951 76.154121 -25.568964
16.974373 70.715004 -26.082842
16.809195 85.016365 -21.952478
9.456373 50.518021 -40.802959
6.106113 82.130722 -39.39415
12.784333 80.159531 -32.535862
9.868639 78.563698 -36.366791
6.900828 75.840775 -39.828461
8.444037 56.622944 -40.077496
6.41874 51.620022 -45.534763
0.714144 80.020401 -44.038616
-0.802972 77.830536 -45.443863
1.487339 76.815414 -44.156261
2.172731 73.369881 -44.231239
3.63671 75.616867 -42.758476
12.768995 88.188301 -28.109486
11.501772 88.02034 -30.528599
13.499846 85.768913 -29.078981
13.418033 69.296349 -31.311409
13.066776 66.201965 -31.202488
12.013418 65.333847 -32.907845
12.64622 63.140968 -31.237436
12.331841 59.79958 -31.124735
17.859184 78.347237 -24.930269
16.360886 67.88929 -26.195862
8.629421 87.242928 -34.897785
7.069806 86.199028 -37.077915
7.776976 83.446457 -37.443836
15.433165 78.592323 -29.005274
14.044511 80.848686 -30.621195
14.215122 78.030449 -30.870472
11.340413 73.50444 -34.83849
11.405004 76.592873 -34.719532
10.006016 75.526993 -36.492275
8.301946 77.455704 -38.210041
8.612201 74.189507 -38.189869
7.329795 72.656219 -39.71381
9.939366 62.668015 -36.457111
9.059925 61.293629 -38.092312
8.221128 59.709839 -39.742191
9.297739 57.983368 -38.091148
9.475037 55.008862 -38.461536
10.143378 56.411709 -36.50338
-2.277843 75.542801 -46.706951
-1.370771 72.234001 -46.742443
-0.511213 68.755745 -46.783844
0.777063 71.206596 -45.557487
10.135335 87.735771 -32.742027
10.786044 85.190384 -33.413513
15.04605 73.028862 -29.51067
14.100317 75.130081 -31.093521
13.834109 72.373344 -31.215866
12.49575 71.512321 -33.075539
11.241851 70.579216 -34.81385
11.103275 67.373039 -34.740124
10.985349 64.161018 -34.621441
10.821195 60.839413 -34.704174
10.80908 57.405235 -34.716103
11.515157 58.637833 -32.950748
16.326876 83.333038 -25.507378
15.198135 83.342979 -27.740131
16.640347 80.905182 -26.352268
16.664976 78.542076 -27.035723
16.57415 75.973747 -27.417395
17.441647 73.490364 -25.884125
16.178301 73.261719 -27.834562
15.794732 70.544006 -27.878056
15.292986 67.633896 -27.826452
15.807346 85.5411 -24.39579
17.391016 82.957039 -23.186785
8.337428 52.025585 -42.27478
6.521947 56.192669 -43.293571
4.391695 80.798378 -41.183262
13.91608 83.272888 -29.924295
12.523868 82.924767 -32.107792
11.123285 82.461555 -34.070824
12.836223 77.438416 -32.819332
11.401007 79.582405 -34.406445
9.616091 81.421928 -36.099239
8.135296 80.541512 -37.855385
6.520761 79.091919 -39.697483
4.971225 77.678856 -41.322891
5.511384 74.183655 -41.355709
7.276873 58.207897 -41.574951
7.778971 55.030754 -41.817986
8.90604 53.456989 -40.363434
9.912557 51.878822 -38.724007
6.749045 52.419621 -44.643632
6.063328 53.069769 -45.266886
6.393633 53.869368 -44.375755
13.341774 64.961546 -30.340692
13.615884 66.506703 -30.329138
13.131496 63.431048 -30.358166
12.856498 64.671467 -31.219962
13.341774 64.961546 -30.340692
12.891666 61.851039 -30.347636
13.131496 63.431048 -30.358166
9.362184 71.684616 -37.391924
8.683596 72.532689 -38.178324
9.290789 73.341435 -37.403469
4.929504 50.141118 -47.965035
5.339576 51.124409 -47.094031
5.392978 48.823824 -48.376359
4.929504 50.141118 -47.965035
3.4546 71.147915 -43.551327
2.482716 71.702321 -44.243713
3.144615 72.815476 -43.538853
4.364361 70.597492 -42.849622
3.4546 71.147915 -43.551327
12.207768 58.153477 -31.130371
12.56051 58.47045 -30.191014
17.20801 72.102684 -25.983483
17.748482 72.164147 -25.149943
17.514845 70.776466 -25.249302
15.518363 66.247268 -26.945894
15.826936 67.761593 -27.011157
16.052313 66.374966 -26.130599
14.981269 66.104466 -27.823889
15.518363 66.247268 -26.945894
15.959238 86.238567 -22.548663
16.47894 85.829899 -21.281588
16.30827 85.278732 -23.174134
15.458313 86.500935 -23.770319
15.959238 86.238567 -22.548663
9.213773 49.8724 -41.875725
8.654301 50.626182 -42.611635
8.8969 51.271803 -41.53887
-0.082073 67.118836 -46.781164
0.473919 68.261009 -46.204921
6.242232 57.782972 -43.179546
5.769505 56.809969 -44.009483
6.700314 90.747315 -34.598547
7.422482 91.048073 -33.456108
5.036373 82.993046 -40.045388
5.809173 83.664535 -39.164864
5.248904 81.46455 -40.288706
4.179164 82.326874 -40.939943
5.036373 82.993046 -40.045388
6.662577 71.779785 -40.49271
7.384457 70.982261 -39.775842
10.133163 52.548243 -37.766718
9.693797 53.443842 -38.592771
9.914403 54.113263 -37.635483
10.318126 51.013759 -37.946875
10.133163 52.548243 -37.766718
10.860312 55.889404 -34.73238
11.12772 56.404457 -33.848284
5.709903 52.004441 -46.139579
6.063328 53.069769 -45.266886
6.048412 50.739991 -46.489214
5.339576 51.124409 -47.094031
5.709903 52.004441 -46.139579
-0.044414 78.925468 -44.741239
-1.188352 79.465553 -45.312494
-0.429794 80.560486 -44.609871
12.135383 88.104321 -29.319043
11.105336 89.191674 -29.942839
11.738947 89.275654 -28.733283
13.791513 68.053895 -30.383598
13.998797 69.676079 -30.480362
14.372277 68.433625 -29.552551
13.242404 67.749157 -31.256949
13.791513 68.053895 -30.383598
13.615884 66.506703 -30.329138
12.734477 60.180346 -30.291286
12.489031 61.470274 -31.181086
12.891666 61.851039 -30.347636
12.56051 58.47045 -30.191014
12.734477 60.180346 -30.291286
18.406519 78.147541 -23.849028
17.808304 79.536477 -24.53503
18.35564 79.336781 -23.453789
18.335158 77.029583 -24.245884
18.406519 78.147541 -23.849028
18.250321 75.933025 -24.565232
17.774347 77.250679 -25.249617
18.335158 77.029583 -24.245884
17.233816 69.292797 -25.247336
17.514845 70.776466 -25.249302
16.927073 67.87994 -25.303846
16.66763 69.302147 -26.139352
17.233816 69.292797 -25.247336
16.57115 66.597072 -25.373126
16.927073 67.87994 -25.303846
16.052313 66.374966 -26.130599
16.57115 66.597072 -25.373126
17.304498 84.526008 -20.754713
16.47894 85.829899 -21.281588
17.547832 83.686123 -21.473826
17.304498 84.526008 -20.754713
9.74085 49.194813 -41.173908
9.933194 49.691572 -40.068106
7.50308 88.180431 -35.535013
7.106461 89.504254 -35.093575
8.232803 88.56675 -34.456346
6.723273 87.658481 -36.625078
7.50308 88.180431 -35.535013
7.849614 86.720978 -35.98785
6.006418 87.115871 -37.621099
6.723273 87.658481 -36.625078
6.291019 85.698689 -38.006746
6.006418 87.115871 -37.621099
6.644604 84.322403 -38.189706
6.291019 85.698689 -38.006746
7.423391 84.822743 -37.260875
6.941545 82.78859 -38.418993
5.809173 83.664535 -39.164864
6.644604 84.322403 -38.189706
8.042393 71.766044 -38.940295
7.970998 73.422863 -38.95184
8.683596 72.532689 -38.178324
7.384457 70.982261 -39.775842
8.042393 71.766044 -38.940295
9.42202 63.629773 -37.292694
9.945501 64.293606 -36.470911
8.9823 62.94258 -38.110294
9.42202 63.629773 -37.292694
9.499645 61.980822 -37.274711
8.479423 62.151642 -38.923147
8.9823 62.94258 -38.110294
8.640526 60.501734 -38.917251
8.060025 61.359747 -39.748087
8.479423 62.151642 -38.923147
10.248573 54.814686 -36.656405
9.914403 54.113263 -37.635483
9.809207 55.710285 -37.482458
-1.970528 78.397369 -45.976793
-1.188352 79.465553 -45.312494
-2.707963 77.253502 -46.608337
-1.970528 78.397369 -45.976793
-1.540407 76.686668 -46.075407
-3.407034 75.917141 -47.212343
-2.707963 77.253502 -46.608337
-2.973838 74.292889 -47.276745
-3.407034 75.917141 -47.212343
-2.520302 72.638488 -47.294491
-2.973838 74.292889 -47.276745
-1.824307 73.888401 -46.724697
-1.97968 70.912903 -47.287243
-3.129211 71.31739 -47.839291
-2.520302 72.638488 -47.294491
-0.940992 70.494873 -46.763143
-1.549901 69.173775 -47.307944
-1.97968 70.912903 -47.287243
1.118057 69.486435 -45.591743
0.473919 68.261009 -46.204921
0.132925 69.981171 -46.170665
1.784882 70.620678 -44.906837
1.474897 72.288239 -44.894363
2.482716 71.702321 -44.243713
1.118057 69.486435 -45.591743
1.784882 70.620678 -44.906837
8.597807 90.018662 -32.898871
7.422482 91.048073 -33.456108
10.430601 89.083545 -31.155717
11.105336 89.191674 -29.942839
9.747383 88.941261 -32.262431
10.430601 89.083545 -31.155717
10.818554 87.878056 -31.635313
8.98576 88.813172 -33.378467
8.597807 90.018662 -32.898871
9.747383 88.941261 -32.262431
10.663602 69.89148 -35.605402
10.027365 70.848553 -36.507012
10.605614 71.536289 -35.71546
10.594314 68.288391 -35.568539
10.663602 69.89148 -35.605402
11.172563 68.976128 -34.776987
10.527456 66.646118 -35.612417
10.594314 68.288391 -35.568539
10.468493 65.040108 -35.553076
10.527456 66.646118 -35.612417
11.044312 65.767029 -34.680782
10.462357 63.414516 -35.539276
9.945501 64.293606 -36.470911
10.468493 65.040108 -35.553076
11.480759 57.020756 -32.965606
11.12772 56.404457 -33.848284
11.162119 58.021534 -33.833425
11.799426 57.572603 -32.043377
11.923499 59.218706 -32.037741
12.207768 58.153477 -31.130371
11.480759 57.020756 -32.965606
11.799426 57.572603 -32.043377
0.362794 81.694348 -43.83453
-0.429794 80.560486 -44.609871
1.523125 81.027344 -43.242786
0.362794 81.694348 -43.83453
2.629645 80.451557 -42.590748
1.820664 79.444615 -43.386578
1.523125 81.027344 -43.242786
18.105533 74.791809 -24.824584
18.250321 75.933025 -24.565232
17.981602 73.45993 -24.982164
17.748482 72.164147 -25.149943
17.565579 74.822243 -25.726545
18.105533 74.791809 -24.824584
17.981602 73.45993 -24.982164
14.72899 67.222668 -28.64112
14.372277 68.433625 -29.552551
14.936273 68.844853 -28.737884
14.72899 67.222668 -28.64112
14.981269 66.104466 -27.823889
12.358211 89.2532 -27.473052
11.738947 89.275654 -28.733283
13.397825 88.051025 -26.873188
12.358211 89.2532 -27.473052
14.375843 86.839577 -26.188906
13.747013 86.976853 -27.425204
13.397825 88.051025 -26.873188
14.917 86.727425 -25.01634
15.458313 86.500935 -23.770319
15.266189 85.653252 -25.568356
14.375843 86.839577 -26.188906
14.917 86.727425 -25.01634
17.838743 82.65646 -22.090979
17.100105 83.986702 -22.569631
17.547832 83.686123 -21.473826
18.067995 81.587295 -22.585997
17.838743 82.65646 -22.090979
18.251199 80.471634 -23.0625
17.574221 81.841377 -23.663288
18.067995 81.587295 -22.585997
18.35564 79.336781 -23.453789
18.251199 80.471634 -23.0625
8.072314 51.244703 -43.247333
7.443276 51.84152 -43.986194
7.708389 52.622402 -43.013641
8.072314 51.244703 -43.247333
8.654301 50.626182 -42.611635
9.213773 49.8724 -41.875725
9.74085 49.194813 -41.173908
-1.093421 67.394306 -47.345133
-1.549901 69.173775 -47.307944
-1.093421 67.394306 -47.345133
-0.082073 67.118836 -46.781164
6.114931 55.356093 -44.14629
5.769505 56.809969 -44.009483
6.800649 54.705944 -43.523037
6.393633 53.869368 -44.375755
6.114931 55.356093 -44.14629
6.700314 90.747315 -34.598547
7.106461 89.504254 -35.093575
3.3619 81.416332 -41.815109
4.179164 82.326874 -40.939943
3.65944 79.833603 -41.9589
2.629645 80.451557 -42.590748
3.3619 81.416332 -41.815109
5.753371 72.543503 -41.313659
6.42059 73.419937 -40.534759
6.662577 71.779785 -40.49271
5.055928 71.582211 -42.059038
4.813941 73.222363 -42.101087
5.753371 72.543503 -41.313659
4.364361 70.597492 -42.849622
5.055928 71.582211 -42.059038
9.362184 71.684616 -37.391924
10.027365 70.848553 -36.507012
7.584863 60.45832 -40.556152
8.060025 61.359747 -39.748087
7.112736 59.70735 -41.472532
7.584863 60.45832 -40.556152
7.749001 58.958868 -40.658571
6.619695 58.790587 -42.320236
7.112736 59.70735 -41.472532
6.89941 57.200283 -42.434261
6.242232 57.782972 -43.179546
6.619695 58.790587 -42.320236
10.161286 50.371973 -39.02863
9.933194 49.691572 -40.068106
9.684465 51.198421 -39.763483
10.161286 50.371973 -39.02863
10.318126 51.013759 -37.946875
10.527462 55.392641 -35.626019
10.476229 56.908472 -35.609741
10.860312 55.889404 -34.73238
10.248573 54.814686 -36.656405
10.527462 55.392641 -35.626019
7.11297 51.041922 -44.877325
6.749045 52.419621 -44.643632
7.443276 51.84152 -43.986194
6.766808 50.365938 -45.887417
7.11297 51.041922 -44.877325
6.396481 49.485907 -46.841868
6.048412 50.739991 -46.489214
6.766808 50.365938 -45.887417
6.148461 48.624266 -47.818495
6.396481 49.485907 -46.841868
5.863355 47.588131 -48.751188
5.392978 48.823824 -48.376359
6.148461 48.624266 -47.818495
3 0 105 107
3 105 27 106
3 105 106 107
3 2 30 28
3 2 32 30
3 1 35 33
3 108 37 109
3 110 39 111
3 112 111 37
3 110 111 112
3 114 113 39
3 4 44 43
3 4 45 44
3 3 48 46
3 5 51 49
3 5 53 51
3 5 115 117
3 117 116 53
3 115 116 117
3 6 56 55
3 6 58 56
3 6 60 58
3 7 118 119
3 7 120 121
3 8 61 29
3 8 62 61
3 8 64 62
3 9 122 124
3 124 123 31
3 122 123 124
3 9 125 126
3 11 65 34
3 11 66 65
3 12 69 67
3 14 70 36
3 14 71 70
3 14 72 71
3 15 73 38
3 15 74 73
3 15 76 74
3 128 127 40
3 16 79 77
3 18 80 41
3 18 81 80
3 19 129 131
3 129 82 130
3 129 130 131
3 19 83 82
3 19 84 83
3 132 85 133
3 134 133 42
3 132 133 134
3 136 135 85
3 20 137 138
3 20 139 141
3 139 86 140
3 139 140 141
3 20 87 86
3 21 142 144
3 144 143 88
3 142 143 144
3 146 145 63
3 147 89 148
3 10 149 150
3 22 151 152
3 22 153 155
3 153 90 154
3 153 154 155
3 17 91 78
3 23 92 47
3 23 93 92
3 13 94 68
3 24 95 50
3 24 96 95
3 24 97 96
3 25 98 52
3 25 99 98
3 25 100 99
3 157 156 54
3 26 101 57
3 26 102 101
3 26 103 102
3 158 104 159
3 160 159 59
3 158 159 160
3 162 161 104
3 164 163 75
3 27 165 166
3 27 167 169
3 167 7 168
3 167 168 169
3 28 170 172
3 170 29 171
3 170 171 172
3 30 29 28
3 30 8 29
3 30 31 8
3 32 31 30
3 32 9 31
3 33 173 175
3 173 34 174
3 173 174 175
3 35 34 33
3 35 11 34
3 176 36 177
3 178 177 12
3 176 177 178
3 37 179 181
3 179 36 180
3 179 180 181
3 37 14 36
3 37 38 14
3 39 38 37
3 39 15 38
3 39 40 15
3 182 40 183
3 184 183 39
3 182 183 184
3 186 185 40
3 187 41 188
3 189 188 16
3 187 188 189
3 190 41 191
3 192 18 193
3 194 193 41
3 192 193 194
3 195 19 196
3 197 42 198
3 199 198 19
3 197 198 199
3 200 42 201
3 203 202 42
3 204 20 205
3 207 206 20
3 209 208 21
3 43 210 212
3 212 211 10
3 210 211 212
3 44 213 215
3 215 214 43
3 213 214 215
3 44 216 217
3 44 218 219
3 45 220 222
3 222 221 44
3 220 221 222
3 45 223 225
3 223 22 224
3 223 224 225
3 46 47 17
3 48 47 46
3 48 23 47
3 49 50 13
3 51 50 49
3 51 24 50
3 51 52 24
3 53 52 51
3 53 25 52
3 53 54 25
3 226 54 227
3 228 227 53
3 226 227 228
3 230 229 54
3 55 231 232
3 56 233 235
3 235 234 55
3 233 234 235
3 56 236 237
3 56 238 240
3 238 57 239
3 238 239 240
3 58 57 56
3 58 26 57
3 58 59 26
3 60 59 58
3 60 241 243
3 243 242 59
3 241 242 243
3 29 244 245
3 61 246 248
3 248 247 29
3 246 247 248
3 61 249 250
3 61 251 252
3 62 253 255
3 255 254 61
3 253 254 255
3 62 256 258
3 256 257 258
3 62 259 261
3 259 63 260
3 259 260 261
3 64 63 62
3 64 262 264
3 264 263 63
3 262 263 264
3 31 64 8
3 265 64 266
3 267 266 31
3 265 266 267
3 269 268 64
3 270 10 271
3 34 272 273
3 65 274 276
3 276 275 34
3 274 275 276
3 65 277 279
3 277 10 278
3 277 278 279
3 65 43 10
3 66 43 65
3 66 4 43
3 67 68 3
3 69 68 67
3 69 13 68
3 36 69 12
3 70 69 36
3 70 13 69
3 70 49 13
3 71 49 70
3 71 5 49
3 71 280 282
3 282 281 5
3 280 281 282
3 72 283 285
3 285 284 71
3 283 284 285
3 72 286 287
3 38 72 14
3 73 72 38
3 73 288 290
3 290 289 72
3 288 289 290
3 73 291 293
3 291 55 292
3 291 292 293
3 74 55 73
3 74 6 55
3 74 75 6
3 76 75 74
3 76 294 296
3 296 295 75
3 294 295 296
3 40 76 15
3 297 76 298
3 299 298 40
3 297 298 299
3 301 300 76
3 302 28 303
3 304 28 305
3 306 2 307
3 308 307 28
3 306 307 308
3 77 78 1
3 79 78 77
3 79 17 78
3 41 79 16
3 80 79 41
3 80 17 79
3 80 46 17
3 81 46 80
3 81 3 46
3 309 18 310
3 82 311 312
3 82 313 315
3 313 18 314
3 313 314 315
3 82 81 18
3 83 81 82
3 83 3 81
3 83 67 3
3 84 67 83
3 84 12 67
3 42 84 19
3 85 84 42
3 85 12 84
3 85 316 318
3 318 317 12
3 316 317 318
3 320 319 85
3 321 33 322
3 323 33 324
3 325 1 326
3 327 326 33
3 325 326 327
3 86 328 329
3 86 330 332
3 330 1 331
3 330 331 332
3 86 77 1
3 87 77 86
3 87 16 77
3 333 87 334
3 335 334 20
3 333 334 335
3 336 87 337
3 338 16 339
3 340 339 87
3 338 339 340
3 342 341 16
3 88 343 345
3 345 344 0
3 343 344 345
3 347 346 88
3 349 348 21
3 63 350 351
3 353 352 63
3 89 354 355
3 89 356 358
3 356 0 357
3 356 357 358
3 360 359 10
3 90 361 362
3 90 363 365
3 363 2 364
3 363 364 365
3 78 35 1
3 91 35 78
3 91 11 35
3 47 91 17
3 92 91 47
3 92 11 91
3 92 66 11
3 93 66 92
3 93 4 66
3 68 48 3
3 94 48 68
3 94 23 48
3 50 94 13
3 95 94 50
3 95 23 94
3 95 93 23
3 96 93 95
3 96 4 93
3 96 45 4
3 97 45 96
3 97 22 45
3 52 97 24
3 98 97 52
3 98 22 97
3 98 90 22
3 99 90 98
3 99 2 90
3 99 32 2
3 100 32 99
3 100 9 32
3 54 100 25
3 366 100 367
3 368 367 54
3 366 367 368
3 369 9 370
3 371 370 100
3 369 370 371
3 373 372 9
3 375 374 5
3 57 376 377
3 101 378 380
3 380 379 57
3 378 379 380
3 101 381 382
3 101 383 385
3 383 89 384
3 383 384 385
3 102 89 101
3 102 0 89
3 102 88 0
3 103 88 102
3 103 21 88
3 59 103 26
3 104 103 59
3 104 21 103
3 104 386 388
3 388 387 21
3 386 387 388
3 390 389 104
3 75 60 6
3 391 60 392
3 393 392 75
3 391 392 393
3 395 394 60
3 396 27 397
3 398 397 0
3 396 397 398
3 399 27 400
3 401 7 402
3 403 402 27
3 401 402 403
3 404 7 405
3 408 407 7
3 406 407 408
