ply
format ascii 1.0
element vertex 671
property float x
property float y
property float z
element face 724
property list uchar int vertex_index
end_header
24.247095 9.638888 -4.673269
36.641014 8.518458 3.185251
31.200109 -9.470311 2.799803
31.475224 31.034256 -2.273648
38.110451 -0.652609 9.128608
19.403397 11.557962 -7.448521
22.518356 0.688836 -5.017037
30.506926 8.720724 -1.543802
27.088085 -1.158599 -1.198447
32.998184 -1.564164 3.360689
35.7878 -9.424891 9.080898
17.993128 24.871023 -9.890773
22.841383 22.780428 -7.356618
28.686516 20.817019 -4.745104
34.4482 19.220753 -0.701542
21.550123 10.362241 -6.022833
20.652552 5.955794 -6.309343
22.810778 4.799997 -4.66835
33.766495 8.313269 0.670713
31.733643 3.285143 0.777332
34.752598 3.399236 3.130344
20.195299 23.925512 -8.576906
29.964918 36.789482 -2.400556
29.441832 32.465351 -4.554312
27.885345 27.209789 -5.75702
30.521465 26.198639 -4.016378
31.658659 19.966854 -2.9762
32.962555 25.090183 -1.823469
28.948654 -5.515916 0.69325
26.596697 -4.785892 -1.589813
29.097589 -8.859453 0.043888
37.498096 3.654954 6.026077
39.74469 0.29053 12.513978
31.180286 35.166187 0.414581
33.170441 29.583319 0.37122
31.589365 -12.18079 1.587435
27.339838 9.001128 -3.196563
25.488531 3.909325 -3.038204
28.357309 3.459891 -1.378173
29.908033 -1.441556 0.850272
31.657686 -5.744719 3.254996
35.831001 -1.167922 6.095695
34.388554 -5.729676 6.148092
33.605072 -9.759936 5.907718
16.233707 26.167818 -11.553545
16.806643 19.147751 -10.227717
18.472181 18.176514 -8.689671
20.740166 17.124336 -7.336986
23.358868 15.938428 -6.108847
25.056267 28.352016 -7.230484
25.649744 21.550053 -6.135771
26.35968 14.932059 -4.804254
29.64995 14.371533 -3.264957
32.714741 13.963493 -1.440982
35.081924 23.934978 0.857596
36.686092 18.63166 1.968557
24.538118 -0.401967 -3.134582
22.841787 10.05877 -5.360593
22.104624 7.656668 -5.391988
23.378239 7.180956 -4.663148
35.205048 8.411438 1.816845
34.286911 5.88457 1.845213
35.76506 5.882321 3.172767
30.676645 33.95483 -2.428037
29.832157 34.892223 -3.563532
30.496992 31.662214 -3.477297
29.922716 29.357824 -4.388476
31.162056 28.606112 -3.270078
31.74761 25.602261 -3.006675
32.273247 27.990829 -2.074192
30.042128 -7.529512 1.723456
28.852932 -7.266866 0.418169
30.049597 -9.160564 1.349257
39.727001 -1.548703 14.196312
30.185646 37.955517 0.484799
30.603271 36.957443 2.013422
28.902306 8.605126 -2.360826
27.737858 6.169209 -2.363871
29.401955 5.827757 -1.401584
32.39323 0.901332 2.032899
30.78701 0.964791 0.828085
31.502377 -1.545696 2.095177
30.732576 -3.753663 2.028727
32.263264 -3.841157 3.394451
37.822716 1.443328 7.536306
36.60928 1.318764 5.933776
37.069927 -0.832405 7.557102
36.25042 -7.293064 9.213516
35.66082 -5.395408 7.640886
35.06863 -7.661708 7.569407
33.82225 -7.682422 5.961325
34.67244 -9.58359 7.393773
17.892742 28.661987 -10.586285
16.917854 29.112263 -11.398066
17.047232 25.554241 -10.695632
17.251343 22.165356 -10.062655
17.563465 18.670429 -9.429261
18.160326 21.506798 -9.304261
21.493464 23.340128 -7.949327
20.396177 20.431572 -7.968085
21.703032 19.992001 -7.365677
22.038139 16.492252 -6.7021
22.990953 19.388012 -6.7912
25.883461 34.538639 -7.352156
24.926086 31.752016 -7.653121
26.183228 31.098637 -6.942495
28.272305 24.051191 -5.301985
26.826921 24.562695 -6.036682
27.151794 21.078035 -5.466533
25.937727 18.148092 -5.513575
27.512602 17.930315 -4.853378
27.984238 14.677717 -4.08987
29.108881 17.384121 -4.059056
33.124584 19.70632 -1.88588
32.256737 16.95969 -2.24197
33.690865 16.805107 -1.192468
34.172058 13.979621 -0.394431
35.06953 16.323895 0.047039
34.143215 26.74966 0.519183
36.748119 21.125988 2.839202
26.236597 1.295082 -2.145058
24.870405 1.63735 -3.040499
25.752701 -0.83113 -2.185918
25.607763 -4.326816 -2.676103
32.256557 -13.396688 0.906861
20.415445 11.143226 -6.736683
19.936834 8.781098 -6.913162
20.967751 8.007919 -6.110141
21.677273 5.260693 -5.460317
22.526503 2.595079 -4.761594
32.185516 8.377358 -0.446914
31.029858 5.818552 -0.447948
32.692749 5.772476 0.663872
33.328022 3.314257 1.947869
33.888168 0.754244 3.333774
38.409847 -2.534293 10.832504
37.497189 -3.046032 9.355732
36.787876 -9.093563 10.760617
18.920471 27.893948 -9.832981
19.040581 24.4172 -9.208545
21.340458 26.886616 -8.543849
22.615452 26.073952 -7.919016
28.899818 35.463608 -4.74452
28.282009 33.133183 -5.593186
27.585581 30.469646 -6.09158
28.779995 29.75717 -5.275954
29.274269 26.623016 -4.899852
29.714304 23.465197 -4.468679
30.167566 20.243294 -3.912253
31.086224 23.111755 -3.56686
32.475849 22.755232 -2.481858
33.730434 22.179741 -1.324572
27.985928 -3.512352 -0.249628
26.669008 -3.058315 -1.359213
27.702845 -5.306517 -0.502575
27.789053 -6.859637 -0.784133
37.114998 6.075465 4.559154
38.285854 6.147512 6.084343
38.565735 3.827164 7.547598
38.836246 1.703825 9.164092
39.032433 -0.181984 10.755263
39.178867 -2.013075 12.460893
30.599052 35.994801 -1.063262
31.432573 33.247475 -1.129291
32.363743 30.345507 -0.980085
32.100056 32.542568 0.270615
32.751022 31.640266 1.77333
32.382736 -11.299597 3.888986
31.366171 -11.063798 2.338961
32.570992 -12.70157 3.249016
32.972843 -13.893157 2.492497
25.738052 9.110221 -3.930309
24.818535 6.602633 -3.866493
26.274675 6.293883 -3.109717
26.911406 3.552381 -2.201324
27.610588 1.057697 -1.258756
30.009371 3.331115 -0.365439
29.132748 0.963836 -0.280491
28.412109 -1.439984 -0.223123
29.317749 -3.723047 0.853246
30.267679 -5.705458 1.929797
31.364119 -7.722754 3.158725
36.253773 3.551307 4.568626
35.315113 1.050275 4.591131
34.509418 -1.429938 4.748814
36.392445 -3.178347 7.7136
35.098541 -3.503428 6.197574
33.652554 -3.750716 4.710114
33.07336 -5.913497 4.725661
32.598072 -7.843662 4.543016
32.435707 -9.658294 4.369891
33.452827 -11.48678 5.502007
16.122335 19.636623 -11.166677
16.569969 16.465635 -10.611567
17.226845 16.005323 -9.656914
17.998785 15.385346 -8.81402
18.91157 14.86362 -8.05164
19.196918 20.92815 -8.613367
19.543169 17.598213 -7.979899
19.901121 14.422801 -7.392573
21.076744 13.758564 -6.709657
22.342155 13.183116 -6.067821
23.658747 12.65385 -5.446149
24.020077 25.675276 -7.324283
26.460953 27.921152 -6.540779
25.395061 25.009134 -6.695793
24.165472 22.254913 -6.793735
24.422136 18.702602 -6.163783
24.749077 15.417619 -5.504853
25.206629 12.259515 -4.762065
26.781961 11.805683 -4.033105
28.422337 11.721244 -3.298103
29.967579 11.415853 -2.482389
30.702097 17.141705 -3.205956
31.181591 14.241516 -2.431258
31.703632 11.244583 -1.483003
33.331478 11.129239 -0.400931
33.211548 27.579367 -0.81033
34.054726 24.666908 -0.527078
34.859695 21.643021 -0.098147
35.907787 23.569632 2.388891
35.943939 21.364697 1.39703
35.590714 19.016365 0.528894
36.309967 16.278839 1.359302
24.073168 4.35317 -3.878107
23.630318 2.072315 -3.905163
23.426857 0.141065 -4.097725
25.522493 -2.700669 -2.370523
30.345932 -10.543356 0.849554
29.375591 -9.933532 -0.651549
28.608027 -9.299617 -2.007066
30.237344 37.688757 2.90034
30.069307 38.304855 2.120642
30.785339 36.442341 2.851457
30.237344 37.688757 2.90034
19.244808 10.449502 -7.587063
18.963141 11.949286 -7.839666
22.101605 1.096288 -5.500219
22.027464 1.954741 -5.33704
22.621406 -0.046498 -5.261443
22.101605 1.096288 -5.500219
35.658527 -10.382995 8.976035
35.100848 -10.462345 8.132472
35.23012 -9.50424 8.237336
26.490243 34.110043 -6.928039
26.34303 35.778364 -7.06145
26.640127 32.390042 -6.723209
26.033344 32.818638 -7.147325
26.490243 34.110043 -6.928039
31.910288 -13.076732 0.039446
32.564706 -13.820858 0.354425
38.116621 -3.742494 10.91588
38.532028 -3.419185 11.708455
37.241863 -8.991623 11.699082
37.034595 -8.080914 10.855956
37.079479 -9.96741 11.623024
37.241863 -8.991623 11.699082
19.438481 29.45938 -9.83524
18.907452 29.811246 -10.183577
19.530482 27.684231 -9.493897
19.438481 29.45938 -9.83524
21.903132 28.355221 -8.529491
21.249519 28.579034 -8.845555
22.540629 27.948889 -8.217075
21.977955 26.480284 -8.231433
21.903132 28.355221 -8.529491
29.57804 37.251955 -3.047168
29.567395 38.304873 -2.425173
28.585036 -8.500089 -0.600874
27.930768 -7.500181 -1.014884
28.443321 -7.859545 -0.370122
38.613882 7.394543 6.163811
38.078659 7.394593 5.353633
39.025442 4.058377 8.322589
38.881411 5.056492 7.550235
39.160697 2.996707 9.130837
38.700991 2.765494 8.355845
39.025442 4.058377 8.322589
39.709903 1.279738 11.650658
39.979301 1.471454 12.450049
39.388561 0.054273 11.634621
39.353775 1.043481 10.7713
39.709903 1.279738 11.650658
39.510323 -2.634192 14.255796
39.714161 -2.328749 15.143858
32.439291 32.509687 2.628055
32.222806 32.952703 1.852594
33.052795 31.154502 2.572526
32.439291 32.509687 2.628055
20.26423 6.20223 -6.716833
19.906371 7.614882 -7.018743
20.294693 7.368446 -6.611252
33.055725 -12.85054 4.106313
32.476864 -12.000584 3.569001
32.961597 -12.149553 4.426298
33.622141 -14.701804 2.94544
33.37401 -14.110538 3.322339
33.934956 -15.252707 2.510697
33.285658 -14.44406 2.057754
33.622141 -14.701804 2.94544
36.607113 -4.197453 8.501027
36.944817 -3.112189 8.534666
37.159485 -4.131296 9.322093
16.129801 27.893594 -11.952331
16.471875 29.365817 -11.874592
16.575781 27.64004 -11.475805
15.875361 26.349202 -12.019732
16.129801 27.893594 -11.952331
16.000357 24.64859 -11.676683
15.875361 26.349202 -12.019732
16.464489 19.392187 -10.697197
16.268421 21.0385 -11.037261
16.610575 20.794064 -10.567781
24.419098 28.767144 -7.55289
24.354008 30.467144 -7.764208
24.991177 30.052016 -7.441802
24.538172 27.013646 -7.277384
23.901003 27.428774 -7.599789
24.419098 28.767144 -7.55289
34.486489 12.594633 0.155599
34.909887 13.901599 0.264394
36.257845 23.294282 3.196823
35.743555 24.551562 2.979488
25.022389 -3.238617 -3.049034
25.126791 -3.968796 -3.251177
29.729378 -10.497846 -1.032879
30.112205 -10.843301 -0.284488
29.345596 -10.180889 -1.710638
28.991809 -9.616574 -1.329308
29.729378 -10.497846 -1.032879
39.961432 0.535838 13.348619
39.979301 1.471454 12.450049
39.952587 -0.383778 14.189786
39.735845 -0.629086 13.355145
39.961432 0.535838 13.348619
39.885164 -1.253881 15.072188
39.952587 -0.383778 14.189786
39.872324 -2.033927 16.019734
39.714161 -2.328749 15.143858
39.885164 -1.253881 15.072188
29.860495 38.803892 1.35633
29.688768 39.397175 0.576781
30.394458 37.45648 1.249111
29.860495 38.803892 1.35633
30.069307 38.304855 2.120642
31.14893 35.611292 1.97264
31.437438 34.715664 1.17322
30.891779 36.061815 1.214001
31.14893 35.611292 1.97264
30.785339 36.442341 2.851457
20.6672 4.948874 -6.462156
21.094562 4.588221 -5.983193
35.95562 -6.344236 8.427201
36.241301 -5.305984 8.46467
36.536101 -6.254812 9.250985
34.578171 -10.551388 7.254608
34.044487 -10.639561 6.51158
34.138756 -9.671763 6.650746
34.578171 -10.551388 7.254608
35.100848 -10.462345 8.132472
17.405298 28.887125 -10.992176
17.380698 30.702067 -11.355436
17.868142 30.476928 -10.949545
16.73087 23.99731 -10.801738
16.324107 24.304098 -11.230695
16.64047 25.86103 -11.124588
16.832925 22.302867 -10.48525
16.73087 23.99731 -10.801738
17.149287 23.859799 -10.379143
17.028993 20.656554 -10.145186
16.610575 20.794064 -10.567781
16.832925 22.302867 -10.48525
25.789458 36.329622 -7.522178
26.34303 35.778364 -7.06145
25.309188 34.884712 -7.725939
25.789458 36.329622 -7.522178
25.404774 33.145328 -7.502638
24.8305 33.4914 -7.876422
25.309188 34.884712 -7.725939
35.358624 15.073736 0.485128
34.909887 13.901599 0.264394
34.620794 15.151758 -0.173696
33.989672 27.836098 1.147215
33.656828 28.166489 0.445201
33.503284 29.252928 1.073233
34.509971 26.501545 1.243749
33.989672 27.836098 1.147215
34.979326 25.094203 1.412956
34.612569 25.342319 0.688389
34.509971 26.501545 1.243749
37.138069 20.808549 3.676039
36.678011 22.07246 3.421978
37.17947 19.778737 3.200766
37.138069 20.808549 3.676039
37.148457 18.531573 2.765444
36.717106 19.878824 2.403879
37.17947 19.778737 3.200766
37.056908 17.341521 2.412811
37.148457 18.531573 2.765444
26.194406 -5.283689 -2.320044
26.10223 -4.556354 -2.132958
26.688873 -5.513227 -1.776899
25.778197 -5.023033 -2.938847
26.194406 -5.283689 -2.320044
25.126791 -3.968796 -3.251177
25.778197 -5.023033 -2.938847
31.552688 -12.574879 0.494718
31.219092 -11.96693 0.835004
31.922961 -12.788739 1.247148
31.552688 -12.574879 0.494718
31.910288 -13.076732 0.039446
21.606922 4.24067 -5.55868
21.094562 4.588221 -5.983193
21.164912 5.608244 -5.88483
22.031537 2.907863 -5.209319
21.606922 4.24067 -5.55868
22.101888 3.927886 -5.110955
22.52243 1.641958 -4.889316
22.027464 1.954741 -5.33704
22.031537 2.907863 -5.209319
37.660292 -3.998364 10.177494
37.953518 -2.790163 10.094118
38.116621 -3.742494 10.91588
37.159485 -4.131296 9.322093
37.660292 -3.998364 10.177494
36.765867 -7.180665 10.082405
36.536101 -6.254812 9.250985
36.519148 -8.193314 9.987067
36.765867 -7.180665 10.082405
37.034595 -8.080914 10.855956
36.66151 -10.112634 10.738858
36.161473 -10.278298 9.898999
36.287838 -9.259227 9.920758
36.66151 -10.112634 10.738858
37.079479 -9.96741 11.623024
18.393588 30.195265 -10.560229
17.868142 30.476928 -10.949545
18.406606 28.277968 -10.209633
18.393588 30.195265 -10.560229
18.907452 29.811246 -10.183577
19.590537 25.945857 -9.18168
18.980526 26.155574 -9.520763
19.530482 27.684231 -9.493897
20.167896 25.700013 -8.86586
19.61794 24.171356 -8.892726
19.590537 25.945857 -9.18168
20.740476 27.180565 -8.849331
21.249519 28.579034 -8.845555
20.767879 25.406064 -8.560377
20.167896 25.700013 -8.86586
20.740476 27.180565 -8.849331
29.51166 36.303325 -3.628655
29.57804 37.251955 -3.047168
29.898537 35.840852 -2.982044
29.04549 36.589018 -4.21915
29.51166 36.303325 -3.628655
29.365987 35.177915 -4.154026
28.622314 37.173186 -4.795301
29.04549 36.589018 -4.21915
28.398141 35.952289 -5.253349
28.622314 37.173186 -4.795301
28.089236 34.787077 -5.677682
28.398141 35.952289 -5.253349
28.590913 34.298395 -5.168853
27.689517 33.407314 -6.048554
28.089236 34.787077 -5.677682
27.933795 31.801414 -5.842383
27.341303 32.075546 -6.297751
27.689517 33.407314 -6.048554
27.285052 -6.5501 -1.374059
26.688873 -5.513227 -1.776899
27.192875 -5.822764 -1.186973
27.285052 -6.5501 -1.374059
27.930768 -7.500181 -1.014884
37.493231 7.35857 4.591039
36.878006 7.296962 3.872203
37.256239 8.580067 3.904088
37.700426 6.111489 5.321748
37.493231 7.35857 4.591039
38.078659 7.394593 5.353633
38.74147 6.216666 6.818607
38.613882 7.394543 6.163811
38.425794 4.987338 6.81597
38.74147 6.216666 6.818607
38.881411 5.056492 7.550235
39.255682 1.986385 9.975715
39.160697 2.996707 9.130837
38.93434 0.76092 9.959677
39.255682 1.986385 9.975715
39.353775 1.043481 10.7713
38.916538 -3.158576 12.522649
38.532028 -3.419185 11.708455
38.794357 -2.273684 11.646698
39.236255 -2.866378 13.388086
39.452934 -1.780889 13.328603
39.510323 -2.634192 14.255796
38.916538 -3.158576 12.522649
39.236255 -2.866378 13.388086
29.852276 37.798495 -1.712625
29.567395 38.304873 -2.425173
29.96264 38.381512 -0.269948
29.688768 39.397175 0.576781
30.169343 37.401154 -1.043978
29.96264 38.381512 -0.269948
30.392349 36.975159 -0.289231
30.281985 36.392142 -1.731909
29.852276 37.798495 -1.712625
30.169343 37.401154 -1.043978
31.897323 33.403855 1.101237
31.640171 33.854377 0.342598
31.437438 34.715664 1.17322
32.425539 32.091417 1.021972
31.897323 33.403855 1.101237
32.222806 32.952703 1.852594
33.293575 30.281402 1.774288
33.503284 29.252928 1.073233
32.960731 30.611792 1.072275
33.293575 30.281402 1.774288
33.052795 31.154502 2.572526
19.511527 9.06107 -7.319383
19.244808 10.449502 -7.587063
19.670116 10.16953 -7.180841
19.511527 9.06107 -7.319383
19.906371 7.614882 -7.018743
20.26423 6.20223 -6.716833
20.6672 4.948874 -6.462156
33.173085 -13.514744 3.700598
33.055725 -12.85054 4.106313
32.771918 -13.297363 2.870757
33.173085 -13.514744 3.700598
33.37401 -14.110538 3.322339
32.927515 -14.195826 1.264936
32.6147 -13.644922 1.699679
33.285658 -14.44406 2.057754
32.564706 -13.820858 0.354425
32.927515 -14.195826 1.264936
36.026633 -4.286878 7.677243
36.607113 -4.197453 8.501027
36.241301 -5.305984 8.46467
33.496643 -12.243145 5.232808
32.961597 -12.149553 4.426298
32.917782 -11.393189 4.695496
33.968364 -11.502983 6.308725
33.528949 -10.623358 5.704862
34.044487 -10.639561 6.51158
33.942049 -12.297951 6.049129
33.968364 -11.502983 6.308725
33.496643 -12.243145 5.232808
33.942049 -12.297951 6.049129
35.658527 -10.382995 8.976035
36.161473 -10.278298 9.898999
16.876985 30.861987 -11.784023
17.380698 30.702067 -11.355436
16.876985 30.861987 -11.784023
16.471875 29.365817 -11.874592
16.000357 24.64859 -11.676683
16.324107 24.304098 -11.230695
15.944672 21.382993 -11.483249
16.268421 21.0385 -11.037261
15.836959 20.048748 -11.678525
15.944672 21.382993 -11.483249
16.078844 18.377164 -11.407967
15.836959 20.048748 -11.678525
16.302661 16.791669 -11.130412
16.078844 18.377164 -11.407967
16.346152 18.051129 -10.889122
16.603933 15.32964 -10.852035
16.302661 16.791669 -11.130412
16.866285 14.981264 -10.315558
16.603933 15.32964 -10.852035
17.194723 14.751109 -9.838231
16.866285 14.981264 -10.315558
16.898407 16.235479 -10.134241
17.508392 14.447423 -9.359964
17.194723 14.751109 -9.838231
17.894362 14.137435 -8.938517
17.508392 14.447423 -9.359964
17.612815 15.695335 -9.235467
18.260835 13.862977 -8.522415
17.894362 14.137435 -8.938517
18.717227 13.602114 -8.141225
18.260835 13.862977 -8.522415
18.455178 15.124483 -8.43283
19.157483 13.210791 -7.750081
18.963141 11.949286 -7.839666
18.717227 13.602114 -8.141225
24.294804 32.206315 -8.009783
24.8305 33.4914 -7.876422
24.294804 32.206315 -8.009783
24.354008 30.467144 -7.764208
23.198691 27.628112 -7.897156
22.540629 27.948889 -8.217075
23.317765 25.874614 -7.62165
23.198691 27.628112 -7.897156
23.901003 27.428774 -7.599789
26.884405 30.784142 -6.517038
26.640127 32.390042 -6.723209
27.341303 32.075546 -6.297751
34.066198 11.169442 0.152349
33.751768 12.55443 -0.397681
34.486489 12.594633 0.155599
34.283707 9.761457 0.688171
33.548986 9.721254 0.134891
34.066198 11.169442 0.152349
35.002983 9.810541 1.261237
34.485771 8.362354 1.243779
34.283707 9.761457 0.688171
35.700715 9.744307 1.918635
35.002983 9.810541 1.261237
36.418698 9.797817 2.602838
35.923031 8.464948 2.501048
35.700715 9.744307 1.918635
35.392257 24.91153 2.178603
35.743555 24.551562 2.979488
35.494855 23.752305 1.623244
34.979326 25.094203 1.412956
35.392257 24.91153 2.178603
36.327953 22.34781 2.614046
36.257845 23.294282 3.196823
36.678011 22.07246 3.421978
35.978842 15.051209 1.14126
35.358624 15.073736 0.485128
35.689749 16.301367 0.703171
36.868845 16.165111 2.108183
36.49803 17.45525 1.66393
37.056908 17.341521 2.412811
36.629444 14.944554 1.859428
36.868845 16.165111 2.108183
35.978842 15.051209 1.14126
36.629444 14.944554 1.859428
37.032823 9.823988 3.284628
36.418698 9.797817 2.602838
37.256239 8.580067 3.904088
37.032823 9.823988 3.284628
24.979754 -2.425543 -2.896244
25.565128 -3.513743 -2.523313
25.022389 -3.238617 -3.049034
24.487567 -1.276192 -3.278274
25.030306 -1.551318 -2.752553
24.979754 -2.425543 -2.896244
23.931936 -1.004676 -3.759845
23.982487 -0.130451 -3.616153
24.487567 -1.276192 -3.278274
23.465351 -0.706317 -4.290537
23.931936 -1.004676 -3.759845
23.0111 -0.432431 -4.750193
22.972606 0.41495 -4.557381
23.465351 -0.706317 -4.290537
22.621406 -0.046498 -5.261443
23.0111 -0.432431 -4.750193
30.597375 -11.148213 0.466064
30.967649 -11.362073 1.218495
31.219092 -11.96693 0.835004
29.860762 -10.238444 0.099002
30.597375 -11.148213 0.466064
30.112205 -10.843301 -0.284488
28.724037 -9.037128 -0.948592
28.585036 -8.500089 -0.600874
29.23659 -9.396493 -0.303831
28.340255 -8.720171 -1.626351
28.724037 -9.037128 -0.948592
28.991809 -9.616574 -1.329308
27.9604 -8.457538 -2.25171
28.340255 -8.720171 -1.626351
28.997035 -9.766773 -2.472521
29.345596 -10.180889 -1.710638
28.280363 -8.931159 -2.718921
28.997035 -9.766773 -2.472521
28.669372 -9.398315 -3.184376
27.9604 -8.457538 -2.25171
28.280363 -8.931159 -2.718921
3 0 59 57
3 1 62 60
3 3 65 63
3 3 67 65
3 3 69 67
3 2 72 70
3 231 75 232
3 234 233 75
3 5 235 236
3 6 237 238
3 6 239 240
3 7 78 76
3 9 81 79
3 9 83 81
3 4 86 84
3 10 89 87
3 10 91 89
3 10 241 243
3 243 242 91
3 241 242 243
3 11 94 92
3 11 95 94
3 11 97 95
3 12 100 98
3 12 102 100
3 244 103 245
3 246 105 247
3 248 247 103
3 246 247 248
3 13 108 106
3 13 110 108
3 13 112 110
3 14 115 113
3 14 117 115
3 8 122 120
3 250 249 124
3 15 127 125
3 17 128 58
3 17 129 128
3 18 132 130
3 20 133 61
3 20 134 133
3 252 251 135
3 253 137 254
3 256 255 137
3 257 138 258
3 260 259 138
3 261 140 262
3 263 141 264
3 265 264 140
3 263 264 265
3 22 266 267
3 23 142 64
3 23 143 142
3 23 145 143
3 25 146 66
3 25 147 146
3 25 149 147
3 27 150 68
3 27 151 150
3 28 154 152
3 30 155 71
3 30 268 270
3 270 269 155
3 268 269 270
3 271 157 272
3 273 158 274
3 275 159 276
3 277 276 158
3 275 276 277
3 32 278 279
3 32 280 282
3 280 160 281
3 280 281 282
3 32 161 160
3 284 283 73
3 33 162 74
3 33 163 162
3 33 165 163
3 285 166 286
3 288 287 166
3 16 289 291
3 291 290 126
3 289 290 291
3 292 169 293
3 294 293 167
3 292 293 294
3 295 170 296
3 299 298 170
3 297 298 299
3 36 173 171
3 38 174 77
3 38 175 174
3 19 176 131
3 39 177 80
3 39 178 177
3 39 179 178
3 40 180 82
3 40 181 180
3 31 182 156
3 41 183 85
3 41 184 183
3 300 185 301
3 302 301 136
3 300 301 302
3 42 186 88
3 42 187 186
3 42 188 187
3 43 189 90
3 43 190 189
3 43 191 190
3 44 303 305
3 305 304 93
3 303 304 305
3 44 306 307
3 44 308 309
3 45 310 312
3 310 192 311
3 310 311 312
3 45 193 192
3 45 194 193
3 46 195 96
3 46 196 195
3 21 197 139
3 47 198 99
3 47 199 198
3 47 200 199
3 48 201 101
3 48 202 201
3 49 313 315
3 315 314 104
3 313 314 315
3 49 316 318
3 316 203 317
3 316 317 318
3 24 204 144
3 50 205 107
3 50 206 205
3 50 207 206
3 51 208 109
3 51 209 208
3 51 210 209
3 52 211 111
3 52 212 211
3 26 213 148
3 53 214 114
3 53 215 214
3 53 216 215
3 320 319 116
3 34 217 164
3 54 218 118
3 54 219 218
3 321 220 322
3 55 221 119
3 55 222 221
3 55 223 222
3 37 224 172
3 56 225 121
3 56 226 225
3 29 227 153
3 324 323 123
3 35 228 168
3 325 229 326
3 327 230 328
3 329 328 229
3 327 328 329
3 57 58 15
3 59 58 57
3 59 17 58
3 60 61 18
3 62 61 60
3 62 20 61
3 63 64 22
3 65 64 63
3 65 23 64
3 65 66 23
3 67 66 65
3 67 25 66
3 67 68 25
3 69 68 67
3 69 27 68
3 70 71 28
3 72 71 70
3 72 30 71
3 330 32 331
3 332 73 333
3 334 333 32
3 332 333 334
3 335 73 336
3 339 338 73
3 337 338 339
3 340 74 341
3 75 342 344
3 342 74 343
3 342 343 344
3 75 33 74
3 75 345 347
3 347 346 33
3 345 346 347
3 349 348 75
3 351 350 16
3 76 77 36
3 78 77 76
3 78 38 77
3 79 80 19
3 81 80 79
3 81 39 80
3 81 82 39
3 83 82 81
3 83 40 82
3 84 85 31
3 86 85 84
3 86 41 85
3 87 352 354
3 352 88 353
3 352 353 354
3 89 88 87
3 89 42 88
3 89 90 42
3 91 90 89
3 91 43 90
3 91 355 357
3 357 356 43
3 355 356 357
3 359 358 91
3 92 360 362
3 360 93 361
3 360 361 362
3 94 93 92
3 94 44 93
3 94 363 365
3 365 364 44
3 363 364 365
3 95 366 368
3 368 367 94
3 366 367 368
3 95 369 371
3 369 45 370
3 369 370 371
3 95 96 45
3 97 96 95
3 97 46 96
3 98 99 21
3 100 99 98
3 100 47 99
3 100 101 47
3 102 101 100
3 102 48 101
3 103 372 373
3 103 374 375
3 103 376 378
3 376 104 377
3 376 377 378
3 105 104 103
3 105 49 104
3 106 107 24
3 108 107 106
3 108 50 107
3 108 109 50
3 110 109 108
3 110 51 109
3 110 111 51
3 112 111 110
3 112 52 111
3 113 114 26
3 115 114 113
3 115 53 114
3 115 116 53
3 117 116 115
3 117 379 381
3 381 380 116
3 379 380 381
3 382 118 383
3 384 383 34
3 382 383 384
3 385 118 386
3 387 54 388
3 389 388 118
3 387 388 389
3 390 119 391
3 392 119 393
3 394 55 395
3 396 395 119
3 394 395 396
3 398 397 55
3 120 121 37
3 122 121 120
3 122 56 121
3 399 123 400
3 401 400 29
3 399 400 401
3 402 123 403
3 405 404 123
3 124 406 408
3 408 407 35
3 406 407 408
3 410 409 124
3 125 126 5
3 127 126 125
3 127 16 126
3 58 127 15
3 128 127 58
3 128 16 127
3 128 411 413
3 413 412 16
3 411 412 413
3 129 414 416
3 416 415 128
3 414 415 416
3 129 417 419
3 417 6 418
3 417 418 419
3 130 131 7
3 132 131 130
3 132 19 131
3 61 132 18
3 133 132 61
3 133 19 132
3 133 79 19
3 134 79 133
3 134 9 79
3 135 136 4
3 420 136 421
3 422 421 135
3 420 421 422
3 424 423 136
3 425 87 426
3 137 427 429
3 427 87 428
3 427 428 429
3 137 10 87
3 137 430 432
3 432 431 10
3 430 431 432
3 434 433 137
3 435 92 436
3 138 437 439
3 437 92 438
3 437 438 439
3 138 11 92
3 138 139 11
3 440 139 441
3 442 441 138
3 440 441 442
3 443 21 444
3 445 444 139
3 443 444 445
3 140 446 447
3 140 448 450
3 448 21 449
3 448 449 450
3 140 98 21
3 141 98 140
3 141 12 98
3 64 451 453
3 453 452 22
3 451 452 453
3 142 454 456
3 456 455 64
3 454 455 456
3 142 457 458
3 142 459 460
3 143 461 463
3 463 462 142
3 461 462 463
3 143 464 465
3 143 466 468
3 466 144 467
3 466 467 468
3 145 144 143
3 145 24 144
3 66 145 23
3 146 145 66
3 146 24 145
3 146 106 24
3 147 106 146
3 147 13 106
3 147 148 13
3 149 148 147
3 149 26 148
3 68 149 25
3 150 149 68
3 150 26 149
3 150 113 26
3 151 113 150
3 151 14 113
3 152 153 8
3 154 153 152
3 154 29 153
3 71 154 28
3 155 154 71
3 155 29 154
3 155 469 471
3 471 470 29
3 469 470 471
3 473 472 155
3 474 156 475
3 476 475 1
3 474 475 476
3 157 477 479
3 477 156 478
3 477 478 479
3 157 31 156
3 480 157 481
3 158 482 484
3 482 157 483
3 482 483 484
3 158 31 157
3 158 84 31
3 159 84 158
3 159 4 84
3 485 159 486
3 160 487 489
3 487 159 488
3 487 488 489
3 160 4 159
3 160 135 4
3 161 135 160
3 161 490 492
3 492 491 135
3 490 491 492
3 73 161 32
3 493 161 494
3 495 494 73
3 493 494 495
3 497 496 161
3 498 22 499
3 74 500 501
3 162 502 504
3 504 503 74
3 502 503 504
3 162 505 507
3 505 22 506
3 505 506 507
3 162 63 22
3 163 63 162
3 163 3 63
3 163 164 3
3 165 164 163
3 165 34 164
3 508 165 509
3 510 509 33
3 508 509 510
3 166 511 513
3 511 165 512
3 511 512 513
3 166 34 165
3 166 514 516
3 516 515 34
3 514 515 516
3 518 517 166
3 126 519 521
3 521 520 5
3 519 520 521
3 523 522 126
3 525 524 16
3 167 168 2
3 169 168 167
3 169 35 168
3 526 169 527
3 170 528 530
3 528 169 529
3 528 529 530
3 170 35 169
3 170 124 35
3 531 124 532
3 533 532 170
3 531 532 533
3 535 534 124
3 171 172 0
3 173 172 171
3 173 37 172
3 77 173 36
3 174 173 77
3 174 37 173
3 174 120 37
3 175 120 174
3 175 8 120
3 131 78 7
3 176 78 131
3 176 38 78
3 80 176 19
3 177 176 80
3 177 38 176
3 177 175 38
3 178 175 177
3 178 8 175
3 178 152 8
3 179 152 178
3 179 28 152
3 82 179 39
3 180 179 82
3 180 28 179
3 180 70 28
3 181 70 180
3 181 2 70
3 156 62 1
3 182 62 156
3 182 20 62
3 85 182 31
3 183 182 85
3 183 20 182
3 183 134 20
3 184 134 183
3 184 9 134
3 136 86 4
3 185 86 136
3 185 41 86
3 88 536 538
3 536 185 537
3 536 537 538
3 186 185 88
3 186 41 185
3 186 184 41
3 187 184 186
3 187 9 184
3 187 83 9
3 188 83 187
3 188 40 83
3 90 188 42
3 189 188 90
3 189 40 188
3 189 181 40
3 190 181 189
3 190 2 181
3 190 167 2
3 191 167 190
3 191 539 541
3 541 540 167
3 539 540 541
3 542 191 543
3 544 543 43
3 542 543 544
3 545 191 546
3 548 547 191
3 550 549 10
3 93 551 552
3 554 553 93
3 556 555 44
3 192 557 558
3 192 559 560
3 192 561 562
3 193 563 565
3 565 564 192
3 563 564 565
3 193 566 567
3 193 568 569
3 194 570 572
3 572 571 193
3 570 571 572
3 194 573 574
3 96 194 45
3 195 194 96
3 195 575 577
3 577 576 194
3 575 576 577
3 195 578 579
3 196 580 582
3 582 581 195
3 580 581 582
3 196 583 585
3 583 5 584
3 583 584 585
3 139 97 11
3 197 97 139
3 197 46 97
3 99 197 21
3 198 197 99
3 198 46 197
3 198 196 46
3 199 196 198
3 199 5 196
3 199 125 5
3 200 125 199
3 200 15 125
3 101 200 47
3 201 200 101
3 201 15 200
3 201 57 15
3 202 57 201
3 202 0 57
3 104 586 587
3 589 588 104
3 590 141 591
3 203 592 594
3 592 141 593
3 592 593 594
3 203 12 141
3 144 595 597
3 595 105 596
3 595 596 597
3 204 105 144
3 204 49 105
3 107 204 24
3 205 204 107
3 205 49 204
3 205 203 49
3 206 203 205
3 206 12 203
3 206 102 12
3 207 102 206
3 207 48 102
3 109 207 50
3 208 207 109
3 208 48 207
3 208 202 48
3 209 202 208
3 209 0 202
3 209 171 0
3 210 171 209
3 210 36 171
3 111 210 51
3 211 210 111
3 211 36 210
3 211 76 36
3 212 76 211
3 212 7 76
3 148 112 13
3 213 112 148
3 213 52 112
3 114 213 26
3 214 213 114
3 214 52 213
3 214 212 52
3 215 212 214
3 215 7 212
3 215 130 7
3 216 130 215
3 216 18 130
3 116 216 53
3 598 216 599
3 600 599 116
3 598 599 600
3 601 18 602
3 603 602 216
3 601 602 603
3 604 60 605
3 606 605 18
3 604 605 606
3 607 60 608
3 609 1 610
3 611 610 60
3 609 610 611
3 164 69 3
3 217 69 164
3 217 27 69
3 118 217 34
3 218 217 118
3 218 27 217
3 218 151 27
3 219 151 218
3 219 14 151
3 220 612 613
3 220 614 616
3 614 54 615
3 614 615 616
3 119 617 619
3 617 220 618
3 617 618 619
3 221 220 119
3 221 54 220
3 221 219 54
3 222 219 221
3 222 14 219
3 222 117 14
3 223 117 222
3 223 620 622
3 622 621 117
3 620 621 622
3 623 223 624
3 625 624 55
3 623 624 625
3 626 223 627
3 629 628 223
3 630 1 631
3 633 632 1
3 172 59 0
3 224 59 172
3 224 17 59
3 121 224 37
3 225 224 121
3 225 17 224
3 225 129 17
3 226 129 225
3 226 6 129
3 153 122 8
3 227 122 153
3 227 56 122
3 123 227 29
3 634 227 635
3 636 635 123
3 634 635 636
3 637 56 638
3 639 638 227
3 637 638 639
3 640 226 641
3 642 641 56
3 640 641 642
3 643 226 644
3 645 6 646
3 647 646 226
3 645 646 647
3 649 648 6
3 168 72 2
3 228 72 168
3 228 30 72
3 650 228 651
3 652 651 35
3 650 651 652
3 229 653 655
3 653 228 654
3 653 654 655
3 229 30 228
3 229 656 658
3 658 657 30
3 656 657 658
3 230 659 661
3 661 660 229
3 659 660 661
3 230 662 663
3 664 230 665
3 666 230 667
3 666 667 668
3 670 669 230
