ply
format ascii 1.0
element vertex 652
property float x
property float y
property float z
element face 682
property list uchar int vertex_index
end_header
-19.85149 60.060127 11.610872
-24.416458 57.992569 -5.871986
-19.035164 72.169449 -20.290688
-24.155535 50.482342 8.094124
-23.033861 60.031513 2.167185
-19.792305 77.683273 -14.415194
-15.894688 83.499794 -24.074327
-15.100258 75.685143 -28.206007
-21.89492 69.595612 -5.315943
-22.066885 65.975075 -12.66338
-19.004997 59.587944 -16.720751
-15.85246 64.37944 -23.019209
-12.48711 66.273621 -29.889446
-23.496517 55.272133 5.358971
-21.499311 60.367989 6.798752
-15.447488 86.149582 -20.582376
-25.453453 53.646847 -3.141323
-19.976002 75.00563 -5.379596
-19.889597 75.147667 -17.594931
-21.348673 71.799477 -13.311667
-20.707226 69.244545 -16.264057
-20.866219 63.287777 -15.079028
-19.313993 66.027023 -18.368132
-17.45681 62.258091 -19.724245
-17.604107 68.542824 -22.009205
-13.857501 71.04628 -29.240585
-10.688843 65.955139 -33.353569
-25.50458 50.243484 3.611285
-24.752787 54.781445 0.951244
-24.079044 59.335617 -2.069497
-18.947313 79.363457 -10.289655
-17.477592 83.075348 -15.45489
-18.043848 81.064522 -19.243126
-18.006306 78.039391 -22.133999
-17.197039 74.412445 -24.261696
-15.81554 79.889969 -26.579479
-19.37941 65.467125 7.841538
-17.036226 70.457016 8.570286
-8.43711 59.540775 -36.999607
-21.134003 65.403389 3.053472
-22.513515 64.84481 -1.261748
-23.368347 63.756958 -5.420521
-21.057508 73.776772 -9.677334
-22.478725 67.981865 -9.298411
-23.325575 62.245419 -9.051966
-22.367254 59.721287 -11.920923
-20.654762 56.744801 -13.944818
-18.484352 52.733833 -15.215091
-16.901487 55.529472 -17.816648
-15.834935 70.027657 -25.490309
-14.122559 65.401917 -26.403276
-11.176456 61.094589 -30.650217
-9.769308 60.7901 -33.986305
-20.970552 57.597786 10.832828
-21.758017 57.680012 8.508609
-20.726587 60.261856 9.073582
-12.314219 89.958305 -23.974653
-24.907253 55.970806 -4.408037
-24.818073 55.137455 -6.223133
-24.195772 57.218124 -7.641479
-18.726467 77.9496 -5.747951
-19.539656 73.771912 -19.087435
-20.376101 72.277168 -16.960701
-19.926653 70.751328 -18.202469
-20.102865 67.706093 -17.394646
-19.27042 69.214073 -19.315285
-18.490591 67.390282 -20.155788
-18.387766 70.473465 -21.258465
-24.843994 50.448486 5.832579
-23.262793 57.704231 3.744201
-24.216759 55.03495 2.998191
-23.903307 57.321667 1.691683
-24.402546 57.073368 -0.447723
-23.596136 59.826248 0.045217
-15.899633 85.7901 -15.988153
-15.780288 84.865997 -22.404896
-16.879234 83.636909 -19.857021
-17.064867 82.335747 -21.575705
-18.172026 79.57122 -20.67626
-17.073925 80.878639 -23.104769
-17.031721 79.02137 -24.219194
-15.966636 81.755737 -25.396528
-17.314692 67.766129 10.619112
-16.03356 70.14019 11.066213
-8.619085 61.997494 -36.771351
-20.300423 65.405754 5.454865
-20.0445 68.04705 3.524442
-21.406223 69.811111 -3.099631
-21.636675 67.664482 -1.142353
-22.295786 67.104195 -3.343911
-23.025717 64.478355 -3.515241
-22.684589 66.759514 -5.421165
-19.503975 78.535561 -12.486132
-20.097431 76.639847 -10.106323
-20.504131 75.72982 -11.886512
-21.78817 68.861893 -12.985924
-21.93696 69.976273 -11.303857
-22.422909 66.914909 -11.005127
-22.952602 65.085121 -9.226655
-22.716724 64.153267 -10.85032
-22.950268 61.109642 -10.615059
-22.324694 62.947586 -12.131008
-20.068932 61.410843 -15.863936
-20.827814 60.02454 -14.44767
-19.845474 58.194256 -15.2747
-19.543245 54.635159 -14.658357
-18.802691 56.339611 -15.927645
-17.665735 54.014778 -16.437744
-17.977751 57.480202 -17.237047
-16.635056 63.257915 -21.320906
-16.346647 59.945427 -20.277931
-15.631886 60.996468 -21.792269
-14.638823 58.533211 -22.24951
-14.89107 61.934082 -23.414854
-16.185335 75.188866 -26.230818
-16.596291 72.157242 -24.902761
-15.597353 72.993469 -26.860346
-13.129295 68.877228 -29.736654
-14.034595 68.285751 -27.86471
-13.329105 65.981529 -28.137232
-13.352017 62.997948 -26.705345
-12.60647 63.544796 -28.460585
-11.798856 63.627026 -30.206062
-9.710503 65.489243 -35.155617
-10.161243 63.302505 -33.690353
-9.373532 62.714607 -35.270397
-9.094725 60.237484 -35.512299
-23.814709 52.795536 6.779675
-22.816294 55.18512 7.641168
-22.507328 57.81765 6.129217
-22.381754 60.05228 4.407883
-14.8115 87.427322 -18.72315
-14.156043 87.475716 -23.24012
-25.901779 51.775833 -1.86593
-26.026447 51.026672 -3.817936
-20.440155 72.542633 -3.200483
-21.048994 72.20459 -5.339927
-19.922279 76.517921 -16.225636
-20.649185 74.835785 -13.918686
-20.643553 73.647041 -15.44956
-21.094313 70.837112 -14.960418
-21.380365 67.823425 -14.510477
-21.573601 64.587616 -13.922339
-20.864107 66.275253 -15.624177
-20.123369 64.566666 -16.617033
-19.246082 62.691372 -17.414698
-18.269958 61.066505 -18.169508
-18.478825 64.159836 -19.0319
-17.679077 65.507431 -20.735655
-16.795576 66.273018 -22.40317
-14.500572 73.472946 -28.846483
-11.604223 66.272835 -31.636324
-24.521191 52.764248 4.369358
-25.160248 52.407192 2.220769
-25.614714 52.116344 0.219674
-25.167356 54.438286 -1.185157
-24.754911 56.647079 -2.59944
-24.318916 58.935711 -4.094621
-18.161274 80.177429 -8.173092
-17.615314 82.080345 -10.7848
-18.23192 81.389519 -12.86313
-18.725861 80.464859 -14.731366
-16.46632 84.826553 -17.974806
-17.829313 82.198723 -17.43203
-18.979362 79.450531 -16.801128
-19.095219 78.149376 -18.410395
-18.984482 76.753433 -19.848265
-18.622671 75.226868 -21.243061
-18.145788 73.387741 -22.273649
-17.650948 76.341919 -23.383801
-16.643517 77.278847 -25.406734
-15.545347 77.727608 -27.468924
-18.745298 62.689205 12.010348
-19.648514 62.690746 9.725365
-19.017481 59.925705 13.904263
-20.480145 62.999729 7.23628
-21.387058 62.734417 4.913757
-22.113611 62.680321 2.685164
-21.870922 65.22113 0.835355
-22.756554 62.452831 0.573774
-23.341967 62.134686 -1.776065
-23.726336 61.650562 -3.839346
-23.923439 60.927864 -5.711459
-19.490252 77.321014 -7.840934
-20.556442 74.631485 -7.637829
-21.540514 71.646935 -7.466649
-21.306416 72.873886 -11.701124
-21.84729 70.908112 -9.436472
-22.311697 68.806465 -7.284722
-22.938154 65.994064 -7.316799
-23.461605 63.078388 -7.346342
-23.901878 59.953682 -7.447454
-23.57366 59.154572 -9.138976
-23.094467 57.933842 -10.441552
-22.394842 56.356327 -11.600611
-21.613262 61.524765 -13.474925
-21.623964 58.394073 -12.989436
-21.46876 55.108601 -12.66229
-20.400572 53.311069 -13.478413
-19.253963 51.145145 -14.083226
-17.372152 50.39817 -15.667619
-16.551231 51.795357 -16.964273
-17.232428 59.004185 -18.710884
-17.506281 71.493088 -23.115316
-16.764822 69.329475 -23.680523
-15.923971 67.337746 -24.243851
-14.860387 70.702179 -27.392378
-14.941196 67.892677 -26.115395
-14.989541 65.061096 -24.737007
-14.12359 62.551716 -25.041231
-10.960257 63.580563 -32.02412
-8.878113 57.885883 -35.881119
-18.065261 79.196453 -5.75729
-18.357772 77.985836 -4.532617
-24.499764 50.465414 6.963351
-25.055152 49.299589 6.46412
-24.710923 49.316517 7.594893
-15.064529 86.996357 -16.192592
-15.479799 86.256317 -14.830365
-15.516831 70.019565 12.231365
-16.183211 68.819282 12.048303
-8.29601 62.859141 -37.468204
-8.711669 63.291582 -36.746719
-19.485661 69.325809 3.682363
-19.628398 68.023296 4.670638
-9.088893 63.650138 -35.996243
-9.542018 64.101925 -35.213007
-9.257378 65.037456 -35.938852
-8.711669 63.291582 -36.746719
-8.996309 62.356051 -36.020874
-9.088893 63.650138 -35.996243
-22.43078 55.130777 8.854302
-22.954696 53.915204 8.433769
-13.522456 87.922139 -24.504752
-13.235131 88.717011 -23.607387
-12.601544 89.163433 -24.872018
-14.358722 86.69265 -24.068333
-13.522456 87.922139 -24.504752
-20.208078 73.774131 -4.29004
-19.839253 73.954453 -3.182967
-19.607177 75.185951 -4.272524
-26.036789 49.024673 3.054665
-25.720866 49.15538 4.205061
-25.79217 50.07741 2.512116
-26.036789 49.024673 3.054665
-16.829073 83.390972 -10.924613
-17.221259 82.32386 -9.566695
-17.854756 82.232434 -14.15901
-17.494748 82.751423 -13.087264
-17.117584 83.594337 -14.383144
-18.599756 64.054163 11.096583
-18.160146 63.784658 12.38663
-17.653709 69.238449 8.356609
-17.792942 67.893006 9.381021
-17.175459 69.111572 9.594699
-17.565157 70.433586 7.361244
-17.653709 69.238449 8.356609
-18.553511 59.843933 15.140111
-19.148961 58.667822 14.756626
-18.440737 61.088991 14.230559
-18.553511 59.843933 15.140111
-8.130361 59.051226 -37.697769
-8.388611 58.422216 -37.131933
-18.3054 50.84667 -14.895285
-18.690205 50.052326 -14.329352
-18.869158 51.939489 -14.649158
-17.928252 51.566001 -15.441355
-17.7493 49.678838 -15.121549
-18.3054 50.84667 -14.895285
-16.386219 54.344622 -18.032331
-16.211091 52.477564 -17.606143
-16.726359 53.662414 -17.39046
-16.254002 58.301606 -19.72788
-15.850236 58.718395 -20.46941
-14.219937 57.255684 -22.426752
-14.298583 58.974295 -23.049473
-13.294398 61.497006 -26.112707
-12.959031 61.780636 -26.952488
-11.253442 59.765656 -29.990234
-11.547068 60.981701 -29.724518
-10.925666 59.715401 -30.863659
-11.253442 59.765656 -29.990234
-10.110632 60.797332 -33.155964
-10.306599 62.053535 -33.007988
-9.965276 62.046302 -33.838329
-9.908314 59.63068 -33.403612
-10.110632 60.797332 -33.155964
-9.630845 59.501791 -34.135128
-9.908314 59.63068 -33.403612
-8.388611 58.422216 -37.131933
-8.609113 57.59477 -36.572689
-8.657612 58.713329 -36.440363
-21.364285 57.638899 9.670718
-21.901642 56.378223 9.288023
-21.50791 56.33711 10.450132
-11.267629 91.166191 -24.254558
-11.970062 90.62722 -22.933693
-11.65325 90.374744 -25.180059
-11.267629 91.166191 -24.254558
-12.601544 89.163433 -24.872018
-11.65325 90.374744 -25.180059
-25.172578 54.508989 -4.647572
-25.445678 53.34701 -4.014215
-25.180353 54.808827 -3.77468
-25.127987 54.092314 -5.55512
-25.172578 54.508989 -4.647572
-24.862663 55.55413 -5.315585
-24.989135 53.746216 -6.402152
-25.127987 54.092314 -5.55512
-24.637775 54.647463 -7.042473
-24.989135 53.746216 -6.402152
-24.326625 55.687798 -7.751646
-24.637775 54.647463 -7.042473
-24.506923 56.17779 -6.932306
-23.988653 56.569401 -8.379649
-24.326625 55.687798 -7.751646
-18.982409 76.657936 -4.456701
-18.357772 77.985836 -4.532617
-19.351235 76.477615 -5.563773
-19.607177 75.185951 -4.272524
-18.982409 76.657936 -4.456701
-25.390572 49.257881 5.315708
-25.055152 49.299589 6.46412
-25.174287 50.345985 4.721932
-25.720866 49.15538 4.205061
-25.390572 49.257881 5.315708
-16.328605 84.951713 -14.649776
-15.479799 86.256317 -14.830365
-16.688613 84.432724 -15.721522
-17.117584 83.594337 -14.383144
-16.328605 84.951713 -14.649776
-16.823777 67.632252 11.824752
-17.444844 66.323121 11.691012
-16.674126 68.953159 10.842662
-16.823777 67.632252 11.824752
-16.183211 68.819282 12.048303
-8.253274 61.557699 -37.491444
-8.162287 60.32934 -37.605571
-8.528098 60.769134 -36.885479
-8.253274 61.557699 -37.491444
-8.29601 62.859141 -37.468204
-19.756359 66.702648 5.635849
-19.839917 65.43644 6.648201
-19.295853 66.733334 6.829186
-20.172461 66.726402 4.489654
-19.756359 66.702648 5.635849
-19.628398 68.023296 4.670638
-21.521449 68.737797 -2.120992
-21.152363 68.944512 -0.989332
-21.037137 70.017826 -1.967971
-15.492856 59.243916 -21.226579
-15.850236 58.718395 -20.46941
-15.989266 60.470948 -21.0351
-15.135355 59.76484 -22.02089
-14.996324 58.012287 -21.455199
-15.492856 59.243916 -21.226579
-14.424707 60.67473 -23.632145
-14.298583 58.974295 -23.049473
-14.764947 60.233646 -22.832182
-12.586257 62.05406 -27.830108
-12.959031 61.780636 -26.952488
-12.979243 63.271372 -27.582965
-12.262075 62.206805 -28.629702
-12.586257 62.05406 -27.830108
-11.858268 62.24792 -29.50244
-12.262075 62.206805 -28.629702
-12.202663 63.585911 -29.333323
-11.487656 62.360807 -30.42814
-11.547068 60.981701 -29.724518
-11.858268 62.24792 -29.50244
-23.453904 52.720411 8.003023
-23.985122 51.638939 7.4369
-23.624316 51.563815 8.660247
-23.315501 53.990328 7.210422
-23.453904 52.720411 8.003023
-22.954696 53.915204 8.433769
-22.287155 56.432566 8.074889
-22.43078 55.130777 8.854302
-21.901642 56.378223 9.288023
-13.908317 88.637352 -18.917006
-14.520463 87.814968 -17.560091
-14.217625 88.117908 -20.030518
-13.908317 88.637352 -18.917006
-14.535619 87.479039 -20.96013
-15.129494 86.788452 -19.652763
-14.217625 88.117908 -20.030518
-12.968984 89.3834 -22.656269
-11.970062 90.62722 -22.933693
-13.889896 88.142105 -22.289003
-12.968984 89.3834 -22.656269
-13.235131 88.717011 -23.607387
-14.801766 86.812649 -21.911248
-14.535619 87.479039 -20.96013
-13.889896 88.142105 -22.289003
-15.170845 85.38779 -23.65072
-14.968166 86.170856 -22.822508
-14.358722 86.69265 -24.068333
-15.228045 84.704689 -24.485436
-15.837488 84.182896 -23.239612
-15.170845 85.38779 -23.65072
-15.299119 83.899059 -25.261855
-15.228045 84.704689 -24.485436
-26.2746 50.402809 -2.236639
-26.163685 50.725134 -1.262247
-26.336934 50.028228 -3.212643
-26.2746 50.402809 -2.236639
-25.964113 51.401252 -2.841933
-26.319669 49.659015 -4.092789
-26.336934 50.028228 -3.212643
-25.732174 52.036923 -4.352521
-25.73995 52.336759 -3.479629
-25.445678 53.34701 -4.014215
-25.968063 50.583929 -4.642428
-25.732174 52.036923 -4.352521
-26.319669 49.659015 -4.092789
-25.968063 50.583929 -4.642428
-20.048995 72.689625 -2.051506
-19.839253 73.954453 -3.182967
-20.554103 71.383587 -2.018397
-20.048995 72.689625 -2.051506
-20.923189 71.176872 -3.150057
-21.037137 70.017826 -1.967971
-20.554103 71.383587 -2.018397
-14.215356 74.71558 -29.532618
-14.800415 74.579044 -28.526245
-14.515199 75.821678 -29.212379
-13.974547 73.544132 -29.749719
-14.215356 74.71558 -29.532618
-13.653012 72.330799 -29.94677
-14.179036 72.259613 -29.043534
-13.974547 73.544132 -29.749719
-13.332574 71.230851 -30.206207
-13.653012 72.330799 -29.94677
-12.968471 70.146324 -30.454242
-13.493398 69.961754 -29.488619
-13.332574 71.230851 -30.206207
-12.659128 68.904717 -30.604638
-12.968471 70.146324 -30.454242
-12.338035 67.602913 -30.681034
-12.808203 67.575424 -29.81305
-12.659128 68.904717 -30.604638
-11.896591 67.60252 -31.554473
-12.045666 66.273228 -30.762885
-12.338035 67.602913 -30.681034
-11.413369 67.502831 -32.40519
-11.896591 67.60252 -31.554473
-10.955679 67.343983 -33.263813
-11.146533 66.113987 -32.494946
-11.413369 67.502831 -32.40519
-10.464089 67.055004 -34.072539
-10.955679 67.343983 -33.263813
-9.974919 66.822056 -34.973562
-10.199673 65.722191 -34.254593
-10.464089 67.055004 -34.072539
-9.424616 66.402378 -35.854103
-9.974919 66.822056 -34.973562
-9.257378 65.037456 -35.938852
-9.424616 66.402378 -35.854103
-25.620004 51.159264 1.816858
-25.79217 50.07741 2.512116
-25.332414 51.325338 2.916027
-25.847237 51.01384 0.81631
-25.620004 51.159264 1.816858
-25.387481 52.261768 1.220222
-26.020153 50.89539 -0.219445
-25.847237 51.01384 0.81631
-25.758246 51.946089 -0.823128
-26.163685 50.725134 -1.262247
-26.020153 50.89539 -0.219445
-17.494239 81.372402 -8.260841
-17.782664 80.310368 -6.969861
-17.888294 81.128887 -9.478946
-17.494239 81.372402 -8.260841
-17.221259 82.32386 -9.566695
-17.186445 83.096836 -12.048099
-16.829073 83.390972 -10.924613
-17.923617 81.734932 -11.823965
-17.186445 83.096836 -12.048099
-17.494748 82.751423 -13.087264
-15.355567 86.608711 -17.355652
-15.064529 86.996357 -16.192592
-14.520463 87.814968 -17.560091
-15.335093 83.027031 -25.922956
-15.930662 82.627765 -24.735428
-15.299119 83.899059 -25.261855
-15.366967 82.08638 -26.529772
-15.335093 83.027031 -25.922956
-15.291419 81.153496 -27.121247
-15.891088 80.822853 -25.988003
-15.366967 82.08638 -26.529772
-15.228632 80.074241 -27.655076
-15.291419 81.153496 -27.121247
-15.093535 78.993061 -28.099798
-15.680443 78.808788 -27.024202
-15.228632 80.074241 -27.655076
-14.912745 78.007553 -28.564782
-15.093535 78.993061 -28.099798
-14.6902 76.986321 -28.933324
-15.322802 76.706376 -27.837466
-14.912745 78.007553 -28.564782
-14.515199 75.821678 -29.212379
-14.6902 76.986321 -28.933324
-19.051364 64.054934 9.954091
-19.196906 62.689976 10.867857
-18.599756 64.054163 11.096583
-18.916812 65.443123 9.012177
-19.513962 64.078936 8.783451
-19.051364 64.054934 9.954091
-17.884453 66.592625 10.400965
-17.444844 66.323121 11.691012
-17.884453 66.592625 10.400965
-17.792942 67.893006 9.381021
-18.825301 66.743504 7.992235
-18.916812 65.443123 9.012177
-19.295853 66.733334 6.829186
-18.825301 66.743504 7.992235
-15.387795 71.406666 11.052738
-15.516831 70.019565 12.231365
-15.912295 71.550041 9.842704
-15.387795 71.406666 11.052738
-16.413628 71.708454 8.594741
-16.534893 70.298603 9.81825
-15.912295 71.550041 9.842704
-16.936349 71.709152 7.457221
-16.413628 71.708454 8.594741
-17.565157 70.433586 7.361244
-16.936349 71.709152 7.457221
-24.387064 49.265185 8.717851
-24.710923 49.316517 7.594893
-23.787951 50.382267 9.361425
-24.387064 49.265185 8.717851
-23.624316 51.563815 8.660247
-23.787951 50.382267 9.361425
-21.099977 56.300741 11.675826
-21.50791 56.33711 10.450132
-20.578758 57.474701 12.033228
-21.099977 56.300741 11.675826
-20.019227 58.705872 12.422251
-20.411021 58.828957 11.22185
-20.578758 57.474701 12.033228
-19.602222 58.638661 13.568946
-19.148961 58.667822 14.756626
-19.434486 59.992916 12.757568
-20.019227 58.705872 12.422251
-19.602222 58.638661 13.568946
-18.304645 62.470741 13.283601
-18.881389 61.307455 12.957306
-18.440737 61.088991 14.230559
-18.160146 63.784658 12.38663
-18.304645 62.470741 13.283601
-8.130361 59.051226 -37.697769
-8.162287 60.32934 -37.605571
-19.924812 69.325672 2.469259
-19.485661 69.325809 3.682363
-20.4878 67.935897 2.323317
-19.924812 69.325672 2.469259
-21.032552 66.614067 2.087832
-20.589251 66.72522 3.288957
-20.4878 67.935897 2.323317
-21.283888 67.744613 -0.01008
-21.152363 68.944512 -0.989332
-21.401012 66.522937 0.978773
-21.283888 67.744613 -0.01008
-21.753799 66.442806 -0.153499
-21.502463 65.31226 1.944414
-21.032552 66.614067 2.087832
-21.401012 66.522937 0.978773
-18.44387 79.063514 -6.960522
-18.065261 79.196453 -5.75729
-17.782664 80.310368 -6.969861
-23.677597 57.537624 -9.128397
-23.988653 56.569401 -8.379649
-23.884716 58.186348 -8.390227
-23.438001 56.927259 -9.779685
-23.677597 57.537624 -9.128397
-23.334063 58.544207 -9.790264
-23.118219 56.391979 -10.408575
-23.438001 56.927259 -9.779685
-22.768406 55.603222 -10.988104
-23.118219 56.391979 -10.408575
-22.744655 57.145084 -11.021082
-22.357808 54.811922 -11.50662
-22.768406 55.603222 -10.988104
-21.894767 54.188059 -12.03746
-22.357808 54.811922 -11.50662
-21.931801 55.732464 -12.13145
-21.395086 53.355936 -12.464378
-21.894767 54.188059 -12.03746
-20.860992 52.45717 -12.872439
-21.395086 53.355936 -12.464378
-20.934666 54.209835 -13.070352
-20.287012 51.500483 -13.226814
-20.860992 52.45717 -12.872439
-19.713707 50.41752 -13.529221
-20.287012 51.500483 -13.226814
-19.827267 52.228107 -13.780819
-19.125284 49.337467 -13.800595
-19.713707 50.41752 -13.529221
-19.125284 49.337467 -13.800595
-18.690205 50.052326 -14.329352
-17.22836 48.553939 -15.327579
-17.7493 49.678838 -15.121549
-16.828802 49.243454 -15.91557
-17.22836 48.553939 -15.327579
-16.418342 49.942047 -16.563897
-16.828802 49.243454 -15.91557
-16.961692 51.096764 -16.315946
-16.071463 50.612196 -17.168866
-16.418342 49.942047 -16.563897
-16.071463 50.612196 -17.168866
-16.211091 52.477564 -17.606143
-16.696893 57.830984 -18.944357
-16.789538 59.474806 -19.494408
-16.254002 58.301606 -19.72788
-16.531422 56.093628 -18.497239
-17.066958 57.266829 -18.263766
-16.696893 57.830984 -18.944357
-16.386219 54.344622 -18.032331
-16.531422 56.093628 -18.497239
-14.549242 56.804333 -21.653672
-14.996324 58.012287 -21.455199
-14.549242 56.804333 -21.653672
-14.219937 57.255684 -22.426752
-14.040967 60.983548 -24.445334
-14.424707 60.67473 -23.632145
-14.50733 62.242899 -24.228043
-13.680184 61.273889 -25.28065
-13.737804 62.774832 -25.873288
-13.294398 61.497006 -26.112707
-14.040967 60.983548 -24.445334
-13.680184 61.273889 -25.28065
-10.706106 62.192564 -32.174872
-10.56075 63.441534 -32.857236
-10.306599 62.053535 -33.007988
-10.814205 60.949577 -31.48792
-11.068357 62.337576 -31.337169
-10.706106 62.192564 -32.174872
-10.925666 59.715401 -30.863659
-10.814205 60.949577 -31.48792
-9.293553 59.225483 -34.898125
-9.630845 59.501791 -34.135128
-9.432016 60.513792 -34.749302
-9.185247 58.049683 -35.082535
-9.293553 59.225483 -34.898125
-8.986419 59.061684 -35.696709
-9.06259 56.943745 -35.386106
-9.185247 58.049683 -35.082535
-8.806652 56.81361 -36.117409
-9.06259 56.943745 -35.386106
-8.537651 56.522498 -36.808979
-8.806652 56.81361 -36.117409
-8.609113 57.59477 -36.572689
3 0 55 53
3 1 58 57
3 1 59 58
3 212 60 213
3 2 63 61
3 2 65 63
3 2 67 65
3 3 214 216
3 214 68 215
3 214 215 216
3 4 71 69
3 4 73 71
3 217 74 218
3 6 77 75
3 6 79 77
3 6 81 79
3 219 83 220
3 222 221 84
3 223 86 224
3 8 89 87
3 8 91 89
3 5 94 92
3 9 97 95
3 9 99 97
3 9 101 99
3 10 104 102
3 10 106 104
3 10 108 106
3 11 111 109
3 11 113 111
3 7 116 114
3 12 119 117
3 12 121 119
3 12 122 121
3 225 125 226
3 227 226 123
3 225 226 227
3 228 84 229
3 230 229 125
3 228 229 230
3 231 128 232
3 14 129 54
3 14 130 129
3 233 132 234
3 235 234 56
3 233 234 235
3 237 236 132
3 16 134 133
3 17 238 240
3 238 135 239
3 238 239 240
3 17 136 135
3 18 139 137
3 20 140 62
3 20 141 140
3 20 143 141
3 22 144 64
3 22 145 144
3 22 147 145
3 24 148 66
3 24 149 148
3 27 241 242
3 27 243 244
3 13 152 127
3 28 153 70
3 28 154 153
3 28 155 154
3 29 156 72
3 29 157 156
3 245 159 246
3 31 247 249
3 247 160 248
3 247 248 249
3 31 161 160
3 15 162 131
3 32 163 76
3 32 164 163
3 32 165 164
3 33 166 78
3 33 167 166
3 33 169 167
3 35 170 80
3 35 171 170
3 251 250 172
3 37 252 254
3 254 253 82
3 252 253 254
3 37 255 256
3 257 174 258
3 260 259 174
3 38 261 262
3 36 175 173
3 39 176 85
3 39 177 176
3 40 178 88
3 40 179 178
3 40 180 179
3 41 181 90
3 41 182 181
3 30 183 158
3 42 184 93
3 42 185 184
3 19 186 138
3 43 187 96
3 43 188 187
3 43 189 188
3 44 190 98
3 44 191 190
3 44 192 191
3 45 193 100
3 45 194 193
3 21 195 142
3 46 196 103
3 46 197 196
3 46 198 197
3 47 199 105
3 47 263 265
3 265 264 199
3 263 264 265
3 47 266 268
3 266 200 267
3 266 267 268
3 48 201 107
3 48 269 271
3 271 270 201
3 269 270 271
3 23 202 146
3 273 272 110
3 275 274 112
3 34 203 168
3 49 204 115
3 49 205 204
3 25 206 150
3 50 207 118
3 50 208 207
3 50 209 208
3 277 276 120
3 51 278 279
3 51 280 281
3 26 210 151
3 52 282 284
3 284 283 124
3 282 283 284
3 52 285 286
3 52 287 288
3 38 211 126
3 38 289 291
3 291 290 211
3 289 290 291
3 53 292 294
3 292 54 293
3 292 293 294
3 55 54 53
3 55 14 54
3 295 56 296
3 297 56 298
3 300 299 56
3 57 301 303
3 303 302 16
3 301 302 303
3 58 304 306
3 306 305 57
3 304 305 306
3 58 307 308
3 58 309 310
3 59 311 313
3 313 312 58
3 311 312 313
3 59 314 315
3 60 316 317
3 60 318 320
3 318 17 319
3 318 319 320
3 61 62 18
3 63 62 61
3 63 20 62
3 63 64 20
3 65 64 63
3 65 22 64
3 65 66 22
3 67 66 65
3 67 24 66
3 68 321 322
3 68 323 325
3 323 27 324
3 323 324 325
3 69 70 13
3 71 70 69
3 71 28 70
3 71 72 28
3 73 72 71
3 73 29 72
3 74 326 327
3 74 328 330
3 328 31 329
3 328 329 330
3 75 76 15
3 77 76 75
3 77 32 76
3 77 78 32
3 79 78 77
3 79 33 78
3 79 80 33
3 81 80 79
3 81 35 80
3 331 82 332
3 83 333 335
3 333 82 334
3 333 334 335
3 83 37 82
3 84 336 338
3 338 337 38
3 336 337 338
3 340 339 84
3 341 85 342
3 343 342 36
3 341 342 343
3 86 344 346
3 344 85 345
3 344 345 346
3 86 39 85
3 87 347 349
3 347 88 348
3 347 348 349
3 89 88 87
3 89 40 88
3 89 90 40
3 91 90 89
3 91 41 90
3 92 93 30
3 94 93 92
3 94 42 93
3 95 96 19
3 97 96 95
3 97 43 96
3 97 98 43
3 99 98 97
3 99 44 98
3 99 100 44
3 101 100 99
3 101 45 100
3 102 103 21
3 104 103 102
3 104 46 103
3 104 105 46
3 106 105 104
3 106 47 105
3 106 107 47
3 108 107 106
3 108 48 107
3 109 110 23
3 111 110 109
3 111 350 352
3 352 351 110
3 350 351 352
3 111 353 355
3 353 112 354
3 353 354 355
3 113 112 111
3 113 356 358
3 358 357 112
3 356 357 358
3 114 115 34
3 116 115 114
3 116 49 115
3 117 118 25
3 119 118 117
3 119 50 118
3 119 120 50
3 121 120 119
3 121 359 361
3 361 360 120
3 359 360 361
3 121 362 363
3 122 364 366
3 366 365 121
3 364 365 366
3 122 367 369
3 367 51 368
3 367 368 369
3 123 124 26
3 125 124 123
3 125 52 124
3 125 126 52
3 84 126 125
3 84 38 126
3 370 127 371
3 372 371 3
3 370 371 372
3 128 373 375
3 373 127 374
3 373 374 375
3 128 13 127
3 54 376 378
3 376 128 377
3 376 377 378
3 129 128 54
3 129 13 128
3 129 69 13
3 130 69 129
3 130 4 69
3 379 131 380
3 381 131 382
3 383 15 384
3 385 384 131
3 383 384 385
3 56 386 387
3 132 388 390
3 390 389 56
3 388 389 390
3 132 391 393
3 391 15 392
3 391 392 393
3 132 75 15
3 394 75 395
3 396 395 132
3 394 395 396
3 397 6 398
3 399 398 75
3 397 398 399
3 401 400 6
3 133 402 403
3 134 404 406
3 406 405 133
3 404 405 406
3 134 407 408
3 409 134 410
3 411 410 16
3 409 410 411
3 412 134 413
3 415 414 134
3 135 416 417
3 135 418 419
3 135 420 422
3 420 87 421
3 420 421 422
3 136 87 135
3 136 8 87
3 137 138 5
3 139 138 137
3 139 19 138
3 62 139 18
3 140 139 62
3 140 19 139
3 140 95 19
3 141 95 140
3 141 9 95
3 141 142 9
3 143 142 141
3 143 21 142
3 64 143 20
3 144 143 64
3 144 21 143
3 144 102 21
3 145 102 144
3 145 10 102
3 145 146 10
3 147 146 145
3 147 23 146
3 66 147 22
3 148 147 66
3 148 23 147
3 148 109 23
3 149 109 148
3 149 11 109
3 423 150 424
3 425 424 7
3 423 424 425
3 426 150 427
3 428 25 429
3 430 429 150
3 428 429 430
3 431 25 432
3 433 117 434
3 435 434 25
3 433 434 435
3 436 117 437
3 438 12 439
3 440 439 117
3 438 439 440
3 441 151 442
3 443 442 12
3 441 442 443
3 444 151 445
3 446 26 447
3 448 447 151
3 446 447 448
3 449 26 450
3 451 123 452
3 453 452 26
3 451 452 453
3 454 123 455
3 457 456 123
3 127 68 3
3 152 68 127
3 152 27 68
3 70 152 13
3 153 152 70
3 153 27 152
3 153 458 460
3 460 459 27
3 458 459 460
3 154 461 463
3 463 462 153
3 461 462 463
3 154 464 465
3 154 466 468
3 466 133 467
3 466 467 468
3 155 133 154
3 155 16 133
3 72 155 28
3 156 155 72
3 156 16 155
3 156 57 16
3 157 57 156
3 157 1 57
3 469 158 470
3 159 471 473
3 471 158 472
3 471 472 473
3 159 30 158
3 474 159 475
3 160 476 478
3 476 159 477
3 476 477 478
3 160 30 159
3 160 92 30
3 161 92 160
3 161 5 92
3 131 479 481
3 479 74 480
3 479 480 481
3 162 74 131
3 162 31 74
3 76 162 15
3 163 162 76
3 163 31 162
3 163 161 31
3 164 161 163
3 164 5 161
3 164 137 5
3 165 137 164
3 165 18 137
3 78 165 32
3 166 165 78
3 166 18 165
3 166 61 18
3 167 61 166
3 167 2 61
3 167 168 2
3 169 168 167
3 169 34 168
3 80 169 33
3 170 169 80
3 170 34 169
3 170 114 34
3 171 114 170
3 171 7 114
3 482 81 483
3 484 483 6
3 482 483 484
3 485 81 486
3 487 35 488
3 489 488 81
3 487 488 489
3 490 35 491
3 492 171 493
3 494 493 35
3 492 493 494
3 495 171 496
3 497 7 498
3 499 498 171
3 497 498 499
3 501 500 7
3 172 173 0
3 502 173 503
3 504 503 172
3 502 503 504
3 505 36 506
3 507 506 173
3 505 506 507
3 82 508 509
3 511 510 82
3 512 36 513
3 515 514 36
3 516 83 517
3 518 83 519
3 520 37 521
3 522 521 83
3 520 521 522
3 523 37 524
3 526 525 37
3 527 3 528
3 529 3 530
3 532 531 3
3 533 53 534
3 535 53 536
3 537 0 538
3 539 538 53
3 537 538 539
3 174 540 541
3 174 542 544
3 542 0 543
3 542 543 544
3 174 172 0
3 545 172 546
3 547 546 174
3 545 546 547
3 549 548 172
3 551 550 38
3 173 55 0
3 175 55 173
3 175 14 55
3 85 175 36
3 176 175 85
3 176 14 175
3 176 130 14
3 177 130 176
3 177 4 130
3 552 86 553
3 554 86 555
3 556 39 557
3 558 557 86
3 556 557 558
3 88 559 560
3 178 561 563
3 563 562 88
3 561 562 563
3 178 564 566
3 564 39 565
3 564 565 566
3 178 177 39
3 179 177 178
3 179 4 177
3 179 73 4
3 180 73 179
3 180 29 73
3 90 180 40
3 181 180 90
3 181 29 180
3 181 157 29
3 182 157 181
3 182 1 157
3 158 567 569
3 567 60 568
3 567 568 569
3 183 60 158
3 183 17 60
3 93 183 30
3 184 183 93
3 184 17 183
3 184 136 17
3 185 136 184
3 185 8 136
3 138 94 5
3 186 94 138
3 186 42 94
3 96 186 19
3 187 186 96
3 187 42 186
3 187 185 42
3 188 185 187
3 188 8 185
3 188 91 8
3 189 91 188
3 189 41 91
3 98 189 43
3 190 189 98
3 190 41 189
3 190 182 41
3 191 182 190
3 191 1 182
3 191 59 1
3 192 59 191
3 192 570 572
3 572 571 59
3 570 571 572
3 100 192 44
3 193 192 100
3 193 573 575
3 575 574 192
3 573 574 575
3 193 576 577
3 194 578 580
3 580 579 193
3 578 579 580
3 194 581 582
3 142 101 9
3 195 101 142
3 195 45 101
3 103 195 21
3 196 195 103
3 196 45 195
3 196 194 45
3 197 194 196
3 197 583 585
3 585 584 194
3 583 584 585
3 197 586 587
3 198 588 590
3 590 589 197
3 588 589 590
3 198 591 592
3 105 198 46
3 199 198 105
3 199 593 595
3 595 594 198
3 593 594 595
3 199 596 597
3 599 598 199
3 200 600 601
3 200 602 603
3 107 200 47
3 201 200 107
3 201 604 606
3 606 605 200
3 604 605 606
3 201 607 608
3 610 609 201
3 146 108 10
3 202 108 146
3 202 48 108
3 110 202 23
3 611 202 612
3 613 612 110
3 611 612 613
3 614 48 615
3 616 615 202
3 614 615 616
3 618 617 48
3 112 619 620
3 622 621 112
3 168 67 2
3 203 67 168
3 203 24 67
3 115 203 34
3 204 203 115
3 204 24 203
3 204 149 24
3 205 149 204
3 205 11 149
3 150 116 7
3 206 116 150
3 206 49 116
3 118 206 25
3 207 206 118
3 207 49 206
3 207 205 49
3 208 205 207
3 208 11 205
3 208 113 11
3 209 113 208
3 209 623 625
3 625 624 113
3 623 624 625
3 120 209 50
3 626 209 627
3 628 627 120
3 626 627 628
3 630 629 209
3 151 122 12
3 210 122 151
3 210 51 122
3 124 210 26
3 631 210 632
3 633 632 124
3 631 632 633
3 634 51 635
3 636 635 210
3 634 635 636
3 638 637 51
3 126 639 641
3 641 640 52
3 639 640 641
3 211 642 644
3 644 643 126
3 642 643 644
3 211 645 646
3 211 647 648
3 651 650 211
3 649 650 651
