ply
format ascii 1.0
element vertex 287
property float x
property float y
property float z
element face 260
property list uchar int vertex_index
end_header
0.428223 62.079052 -47.410851
5.383679 38.025261 -54.385822
8.540997 63.255203 -50.456841
3.89147 50.611832 -51.221378
-2.717985 50.479538 -48.14571
-2.927421 60.862816 -45.078583
-4.033813 54.952518 -45.266331
-1.020056 56.043278 -47.622066
4.939553 44.421417 -52.864002
4.374492 62.968815 -49.228149
2.407654 56.58334 -49.430809
6.403233 56.612938 -50.766125
8.307718 42.809219 -52.973595
-1.961234 66.812065 -45.101387
1.968162 68.288681 -47.405254
0.462404 50.754154 -49.994827
-1.652936 45.98177 -50.938408
-1.391268 61.367542 -46.282597
-1.900685 58.499916 -46.405704
-0.283489 58.905254 -47.507839
5.247356 41.251007 -53.633911
6.499353 62.96479 -49.959423
5.317925 59.803925 -50.007427
7.389494 59.807594 -50.587509
8.000921 46.495533 -52.469219
-3.450895 65.761894 -43.951942
0.478861 70.934067 -46.230518
-3.28116 52.929668 -46.708748
-4.107501 50.37516 -46.933315
3.241642 53.629696 -50.355186
1.470138 53.705803 -49.632935
2.162569 50.770496 -50.671871
-0.02398 45.60894 -51.751545
-4.271996 60.123302 -43.826889
-3.378683 57.905243 -45.203762
-2.589557 55.694744 -46.480339
-1.910479 53.229469 -47.767208
4.494641 47.624859 -52.043613
2.789159 47.801216 -51.694054
2.34351 62.481956 -48.409122
1.471908 59.395813 -48.454041
3.398034 59.614597 -49.331532
4.330126 56.595242 -50.172081
5.230478 53.56218 -50.956295
7.063345 53.083477 -51.408825
5.717938 50.250023 -51.661701
6.188073 46.783661 -52.384338
6.662555 43.707813 -52.976051
6.819239 40.377064 -53.582733
-3.909804 62.949299 -43.817589
-2.426652 63.714867 -45.101532
-0.708805 64.583618 -46.301495
-1.451218 69.993248 -45.104664
-0.074422 67.779205 -46.302536
1.221365 65.096603 -47.43853
3.284893 65.675865 -48.397457
7.508834 66.73381 -49.789162
7.212125 73.208107 -48.831486
8.421195 70.351181 -49.58078
9.672305 66.790909 -50.309887
0.7273 56.37286 -48.637569
-0.248578 53.390335 -48.823151
1.148381 47.981361 -51.195103
-0.504276 48.137936 -50.495422
6.882704 37.013161 -54.149601
4.626537 38.524324 -54.431655
4.558376 40.137197 -54.0557
5.315518 39.638134 -54.009867
4.7083 36.995189 -54.877796
4.626537 38.524324 -54.431655
-3.188905 49.339594 -48.29447
-3.883663 49.287405 -47.688272
-3.412743 50.427349 -47.539513
4.131552 44.646803 -52.76372
3.909095 46.248524 -52.353525
4.717097 46.023138 -52.453807
7.312022 51.434095 -51.686514
8.037447 52.986677 -51.546801
6.639318 50.017369 -51.812952
6.390642 51.66675 -51.535263
7.312022 51.434095 -51.686514
6.874386 48.284188 -52.17427
5.953005 48.516842 -52.02302
6.639318 50.017369 -51.812952
-4.433199 63.96049 -43.147104
-4.549358 62.462365 -43.145569
-1.291218 71.605675 -45.013609
-2.170779 71.023842 -44.451531
6.827687 68.209549 -49.387228
6.430362 66.492714 -49.473751
7.625211 74.831814 -48.683627
6.431762 74.551437 -48.350245
9.600136 70.363762 -49.842767
9.021179 71.977638 -49.499502
10.22569 68.583626 -50.207321
9.04675 68.571045 -49.945334
9.600136 70.363762 -49.842767
10.81028 66.918957 -50.490618
10.22569 68.583626 -50.207321
-4.621029 54.754675 -44.602328
-4.34138 56.067737 -44.606892
-0.391072 50.693764 -49.559072
-0.746563 52.011854 -48.973235
0.106913 52.072244 -49.408989
1.408752 46.620077 -51.754047
1.96877 47.891289 -51.444579
2.229141 46.530004 -52.003523
-1.908458 47.072817 -50.256495
-1.334128 48.1509 -50.035001
-1.078606 47.059853 -50.716915
-2.41254 46.006651 -50.484619
-1.908458 47.072817 -50.256495
7.582509 36.35627 -54.005451
7.56794 38.065072 -53.812775
4.473856 41.63949 -53.59477
4.319954 43.224695 -53.209816
5.093454 42.836212 -53.248956
4.473856 41.63949 -53.59477
4.558376 40.137197 -54.0557
8.73211 47.992729 -52.282061
7.78081 48.140124 -52.216711
8.815945 46.059317 -52.491171
8.73211 47.992729 -52.282061
8.969344 44.21616 -52.743359
8.154319 44.652376 -52.721407
8.815945 46.059317 -52.491171
-4.091926 66.827717 -43.234245
-4.203744 65.366787 -43.214281
-3.348524 67.390087 -43.88553
-4.091926 66.827717 -43.234245
-2.603693 67.915173 -44.460253
-2.706065 66.28698 -44.526665
-3.348524 67.390087 -43.88553
0.707072 72.596238 -46.126291
-0.326179 72.076085 -45.576536
1.506979 71.39819 -46.714707
0.707072 72.596238 -46.126291
2.251629 70.075496 -47.302075
1.223511 69.611374 -46.817886
1.506979 71.39819 -46.714707
2.945259 68.69632 -47.810005
2.251629 70.075496 -47.302075
-3.937956 52.724907 -46.082903
-4.314283 53.736331 -45.361694
-3.657487 53.941093 -45.987539
-4.351127 51.447653 -46.195187
-3.937956 52.724907 -46.082903
-3.69433 51.652414 -46.821032
-4.73543 50.188856 -46.285071
-4.351127 51.447653 -46.195187
-4.538743 49.184332 -47.095827
-4.73543 50.188856 -46.285071
-4.538743 49.184332 -47.095827
-3.883663 49.287405 -47.688272
0.195437 44.382106 -52.363297
0.822572 45.433866 -52.032269
-0.594861 44.65711 -52.046711
0.195437 44.382106 -52.363297
-1.409339 44.843525 -51.640142
-0.838458 45.795355 -51.344977
-0.594861 44.65711 -52.046711
-2.163356 44.921894 -51.298986
-1.409339 44.843525 -51.640142
8.984619 61.486542 -50.732668
9.639796 63.353748 -50.653488
-4.460471 58.65313 -43.887171
-4.850526 59.554865 -43.193281
-4.013814 57.5441 -44.575608
-4.460471 58.65313 -43.887171
-3.82534 59.014273 -44.515326
-3.706248 56.42888 -45.235046
-4.34138 56.067737 -44.606892
-4.013814 57.5441 -44.575608
3.056355 46.336703 -52.178746
3.6419 47.713037 -51.868834
3.909095 46.248524 -52.353525
2.229141 46.530004 -52.003523
3.056355 46.336703 -52.178746
4.131552 44.646803 -52.76372
4.319954 43.224695 -53.209816
8.408867 59.762737 -50.798002
7.965245 61.531399 -50.522175
8.984619 61.486542 -50.732668
7.817625 58.061339 -50.886009
8.408867 59.762737 -50.798002
7.324494 56.464011 -50.975317
6.896363 58.210266 -50.676817
7.817625 58.061339 -50.886009
7.65455 54.69928 -51.296667
8.037447 52.986677 -51.546801
6.733289 54.848208 -51.087475
7.324494 56.464011 -50.975317
7.65455 54.69928 -51.296667
7.094497 46.639597 -52.426778
6.874386 48.284188 -52.17427
7.78081 48.140124 -52.216711
-4.730453 61.049366 -43.150219
-4.850526 59.554865 -43.193281
-4.0909 61.536301 -43.822239
-4.730453 61.049366 -43.150219
-4.549358 62.462365 -43.145569
-3.68035 64.355597 -43.884766
-4.433199 63.96049 -43.147104
-4.203744 65.366787 -43.214281
-2.348686 69.505764 -44.461891
-2.170779 71.023842 -44.451531
-1.706226 68.402657 -45.103026
-2.603693 67.915173 -44.460253
-2.348686 69.505764 -44.461891
-0.486178 70.463657 -45.667591
-1.291218 71.605675 -45.013609
-0.326179 72.076085 -45.576536
3.603625 67.389912 -48.306106
2.626527 66.982273 -47.901356
2.945259 68.69632 -47.810005
4.318391 65.963741 -48.777899
3.603625 67.389912 -48.306106
4.86319 64.610216 -49.193245
3.829693 64.32234 -48.812803
4.318391 65.963741 -48.777899
5.925621 64.608204 -49.558881
5.436922 62.966803 -49.593786
4.86319 64.610216 -49.193245
7.004093 64.8493 -49.874292
5.925621 64.608204 -49.558881
6.430362 66.492714 -49.473751
6.054558 72.79298 -48.491722
6.431762 74.551437 -48.350245
6.679333 71.446697 -48.90839
6.054558 72.79298 -48.491722
8.416644 73.406101 -49.124855
7.625211 74.831814 -48.683627
7.81666 71.779644 -49.206133
8.416644 73.406101 -49.124855
9.021179 71.977638 -49.499502
7.283868 70.018234 -49.283037
6.679333 71.446697 -48.90839
7.81666 71.779644 -49.206133
7.965015 68.542496 -49.684971
6.827687 68.209549 -49.387228
7.283868 70.018234 -49.283037
10.20545 65.121601 -50.580011
9.639796 63.353748 -50.653488
9.106651 65.023056 -50.383364
10.20545 65.121601 -50.580011
10.81028 66.918957 -50.490618
-4.621029 54.754675 -44.602328
-4.314283 53.736331 -45.361694
-1.577514 51.931421 -48.445263
-1.079529 53.309902 -48.29518
-0.746563 52.011854 -48.973235
-1.981267 50.556455 -48.634514
-2.314232 51.854503 -47.956459
-1.577514 51.931421 -48.445263
0.562201 46.79515 -51.473324
1.408752 46.620077 -51.754047
0.822572 45.433866 -52.032269
-0.874412 49.385655 -49.80937
-0.391072 50.693764 -49.559072
-0.020936 49.446045 -50.245125
-0.874412 49.385655 -49.80937
-1.334128 48.1509 -50.035001
-2.440983 49.321701 -48.860146
-1.981267 50.556455 -48.634514
-3.188905 49.339594 -48.29447
-2.440983 49.321701 -48.860146
-2.41254 46.006651 -50.484619
-2.163356 44.921894 -51.298986
9.057125 42.2701 -52.929356
8.969344 44.21616 -52.743359
8.280447 40.9631 -53.224772
9.057125 42.2701 -52.929356
7.536207 39.747023 -53.529341
7.563478 41.593142 -53.278164
8.280447 40.9631 -53.224772
6.850971 38.695112 -53.866167
7.536207 39.747023 -53.529341
7.56794 38.065072 -53.812775
6.802627 35.253411 -54.448303
7.582509 36.35627 -54.005451
6.177559 35.961267 -54.602958
6.802627 35.253411 -54.448303
5.428046 36.467318 -54.721069
6.133192 37.519211 -54.267711
6.177559 35.961267 -54.602958
4.7083 36.995189 -54.877796
5.428046 36.467318 -54.721069
3 0 19 17
3 1 65 67
3 67 66 20
3 65 66 67
3 1 68 69
3 2 23 21
3 4 28 27
3 4 70 72
3 72 71 28
3 70 71 72
3 3 31 29
3 5 34 33
3 7 35 18
3 7 36 35
3 8 73 75
3 75 74 37
3 73 74 75
3 9 41 39
3 11 42 22
3 11 43 42
3 76 44 77
3 78 45 79
3 80 79 44
3 78 79 80
3 81 46 82
3 83 82 45
3 81 82 83
3 12 47 24
3 12 48 47
3 84 49 85
3 13 50 25
3 13 51 50
3 86 52 87
3 14 53 26
3 14 54 53
3 14 55 54
3 88 56 89
3 90 57 91
3 92 58 93
3 94 59 95
3 96 95 58
3 94 95 96
3 98 97 59
3 6 99 100
3 10 60 40
3 15 61 30
3 15 101 103
3 103 102 61
3 101 102 103
3 104 62 105
3 106 105 38
3 104 105 106
3 16 63 32
3 16 107 109
3 109 108 63
3 107 108 109
3 16 110 111
3 112 64 113
3 17 18 5
3 19 18 17
3 19 7 18
3 20 114 116
3 116 115 8
3 114 115 116
3 118 117 20
3 21 22 9
3 23 22 21
3 23 11 22
3 119 24 120
3 121 24 122
3 123 12 124
3 125 124 24
3 123 124 125
3 126 25 127
3 128 25 129
3 130 13 131
3 132 131 25
3 130 131 132
3 133 26 134
3 135 26 136
3 137 14 138
3 139 138 26
3 137 138 139
3 141 140 14
3 27 142 144
3 144 143 6
3 142 143 144
3 28 145 147
3 147 146 27
3 145 146 147
3 28 148 149
3 28 150 151
3 153 152 28
3 29 30 10
3 31 30 29
3 31 15 30
3 154 32 155
3 156 32 157
3 158 16 159
3 160 159 32
3 158 159 160
3 162 161 16
3 164 163 2
3 33 165 166
3 34 167 169
3 169 168 33
3 167 168 169
3 34 170 172
3 170 6 171
3 170 171 172
3 18 34 5
3 35 34 18
3 35 6 34
3 35 27 6
3 36 27 35
3 36 4 27
3 37 38 3
3 173 38 174
3 175 174 37
3 173 174 175
3 177 176 38
3 179 178 8
3 39 40 0
3 41 40 39
3 41 10 40
3 22 41 9
3 42 41 22
3 42 10 41
3 42 29 10
3 43 29 42
3 43 3 29
3 180 23 181
3 182 181 2
3 180 181 182
3 183 23 184
3 185 11 186
3 187 186 23
3 185 186 187
3 44 188 189
3 44 190 192
3 190 11 191
3 190 191 192
3 44 43 11
3 45 43 44
3 45 3 43
3 45 37 3
3 46 37 45
3 46 8 37
3 24 193 195
3 193 46 194
3 193 194 195
3 47 46 24
3 47 8 46
3 47 20 8
3 48 20 47
3 48 1 20
3 196 33 197
3 49 198 200
3 198 33 199
3 198 199 200
3 49 5 33
3 25 201 203
3 201 49 202
3 201 202 203
3 50 49 25
3 50 5 49
3 50 17 5
3 51 17 50
3 51 0 17
3 52 204 205
3 52 206 208
3 206 13 207
3 206 207 208
3 26 209 211
3 209 52 210
3 209 210 211
3 53 52 26
3 53 13 52
3 53 51 13
3 54 51 53
3 54 0 51
3 54 39 0
3 55 39 54
3 55 9 39
3 212 55 213
3 214 213 14
3 212 213 214
3 215 55 216
3 217 9 218
3 219 218 55
3 217 218 219
3 220 21 221
3 222 221 9
3 220 221 222
3 56 223 225
3 223 21 224
3 223 224 225
3 56 2 21
3 57 226 227
3 57 228 229
3 230 57 231
3 58 232 234
3 232 57 233
3 232 233 234
3 58 235 237
3 237 236 57
3 235 236 237
3 58 238 240
3 238 56 239
3 238 239 240
3 59 56 58
3 59 2 56
3 59 241 243
3 243 242 2
3 241 242 243
3 245 244 59
3 247 246 6
3 40 19 0
3 60 19 40
3 60 7 19
3 30 60 10
3 61 60 30
3 61 7 60
3 61 36 7
3 248 36 249
3 250 249 61
3 248 249 250
3 251 4 252
3 253 252 36
3 251 252 253
3 38 31 3
3 62 31 38
3 62 15 31
3 32 254 256
3 254 62 255
3 254 255 256
3 63 62 32
3 63 15 62
3 63 257 259
3 259 258 15
3 257 258 259
3 261 260 63
3 262 4 263
3 265 264 4
3 267 266 16
3 268 12 269
3 270 12 271
3 272 48 273
3 274 273 12
3 272 273 274
3 64 275 277
3 275 48 276
3 275 276 277
3 64 1 48
3 278 64 279
3 280 64 281
3 282 1 283
3 284 283 64
3 282 283 284
3 286 285 1
