ply
format ascii 1.0
element vertex 452
property float x
property float y
property float z
element face 440
property list uchar int vertex_index
end_header
-17.923731 45.438148 -13.953789
-26.425591 49.674435 -0.658565
-21.764774 39.745575 -10.673367
-29.55978 39.275188 -4.04625
-25.81707 46.227539 -7.309085
-22.320774 53.267517 -11.412629
-17.490927 38.197914 -12.931623
-15.91251 40.720615 -14.79933
-16.285452 48.088737 -16.163521
-24.071461 29.712093 -9.037519
-21.580307 32.411098 -10.102205
-24.010702 36.718414 -9.429921
-29.697054 40.595901 -0.44292
-26.612892 48.291359 -4.367642
-25.160198 52.354977 -6.581172
-24.005226 49.916138 -9.254821
-23.781534 55.920677 -9.117818
-26.452698 45.914391 5.859587
-27.631802 45.342228 1.517394
-19.298061 35.260773 -11.402924
-19.688702 42.520374 -12.161512
-25.11393 45.642551 10.668223
-22.646637 50.299992 12.98011
-28.585329 37.027256 -6.569234
-28.062462 44.55201 -2.274116
-27.637907 42.755775 -5.620966
-26.318758 39.945995 -7.93748
-24.083126 43.37822 -9.401538
-22.149315 46.471802 -10.962933
-20.173452 49.689896 -12.975215
-17.659845 41.897511 -13.459181
-16.683155 39.506409 -13.811818
-16.854191 43.215263 -14.403956
-16.092882 44.685192 -15.49412
-17.084568 46.709709 -14.987539
-25.374027 31.980612 -8.740412
-24.113163 33.388447 -9.2644
-25.312166 35.391354 -8.816738
-25.437902 53.047173 -4.887107
-24.457478 54.157471 -7.861814
-25.26631 48.150692 7.095661
-25.937151 48.067276 4.798837
-21.586914 36.015961 -10.441039
-20.35763 33.745182 -10.726745
-20.503605 37.280502 -11.057575
-19.473169 38.744396 -11.768594
-20.653734 40.965454 -11.389849
-26.427624 43.458801 9.355641
-25.659437 43.465202 11.763641
-22.479349 47.383091 16.677761
-23.166224 47.745907 14.193177
-21.971304 49.911903 15.431138
-21.552689 52.537239 13.972322
-20.823156 52.28371 16.349052
-29.168932 38.162266 -5.493463
-26.998974 47.550243 0.350378
-27.282681 47.016796 -1.520557
-26.359308 47.180099 -5.973026
-27.19458 45.48658 -4.917053
-26.742472 44.368301 -6.445006
-27.067295 41.475533 -6.927835
-26.042387 43.150867 -7.686616
-25.180475 41.707436 -8.648646
-25.074263 44.887184 -8.455791
-23.115829 51.641792 -10.352625
-23.149094 48.395073 -10.220917
-22.212532 49.746075 -11.19237
-21.114014 47.955341 -11.929013
-21.321411 51.603271 -12.266465
-23.093098 52.645287 9.22637
-15.063786 38.049023 -15.301553
-15.213411 41.902962 -15.878244
-15.341282 45.762302 -16.650867
-15.591695 49.429035 -17.373459
-22.850473 31.028906 -9.533398
-22.795238 34.661854 -9.840927
-22.879477 38.247314 -10.019423
-30.652462 38.283203 -1.453516
-29.800026 39.932575 -2.316808
-26.647421 49.029785 -2.607349
-25.909678 50.141186 -5.466919
-25.524765 49.332127 -6.901182
-24.916788 47.998878 -8.239202
-24.736029 51.109875 -7.977771
-23.904388 52.87207 -9.203392
-23.14197 54.850117 -10.375597
-27.660791 43.598831 4.819582
-27.130276 45.592297 3.660641
-26.568998 47.805862 2.498044
-26.07976 49.911335 1.412946
-18.28299 36.457561 -12.13089
-18.509975 40.276424 -12.572555
-18.731424 43.855881 -13.021114
-27.046551 43.659672 7.012438
-25.829002 45.789551 8.185566
-24.618593 48.048027 9.341578
-24.36463 45.621613 13.018488
-23.851524 48.015896 11.781384
-23.420366 50.282192 10.628726
-22.285923 52.706581 11.618886
-27.699579 35.64563 -7.512733
-28.644497 43.034641 0.534596
-28.863029 42.559067 -1.354752
-28.847145 41.95771 -3.118279
-27.371778 46.293793 -3.309386
-27.988533 43.794579 -4.000572
-28.605776 41.045723 -4.763103
-28.120365 39.946949 -6.130484
-27.433802 38.57399 -7.242309
-26.52244 36.968224 -8.113524
-25.290123 38.417347 -8.758816
-24.140589 40.154114 -9.402534
-22.969656 41.7262 -10.129949
-24.068827 46.636803 -9.333776
-23.086899 45.057831 -10.164412
-21.899641 43.048851 -10.861853
-20.955971 44.621494 -11.626888
-19.908154 46.009136 -12.544272
-18.996605 47.529789 -13.517964
-18.126448 48.959507 -14.575479
-25.982174 32.927852 -8.49534
-26.073929 31.258744 -8.467413
-25.951244 34.633223 -8.533504
-25.343097 33.685983 -8.778575
-25.982174 32.927852 -8.49534
-25.055152 49.299589 6.46412
-24.710923 49.316517 7.594893
-26.027969 42.248201 12.287812
-26.33486 42.415622 11.115911
-21.593911 49.789249 16.674978
-22.225327 48.647497 16.05445
-21.847933 48.524843 17.29829
-21.019837 50.975153 17.133935
-21.39723 51.097807 15.890095
-21.593911 49.789249 16.674978
-29.907746 37.999134 -4.346875
-30.057961 38.462376 -3.594415
-29.364356 38.718727 -4.769856
-29.712322 37.442673 -5.070481
-29.907746 37.999134 -4.346875
-22.954696 53.915204 8.433769
-22.569183 53.860861 9.646903
-17.012992 36.94001 -13.101876
-17.4087 36.167766 -12.669397
-15.846303 38.745901 -14.495806
-16.231625 38.138798 -14.00205
-16.297832 40.113512 -14.305574
-15.488148 39.384819 -15.050441
-15.421941 37.410105 -14.746918
-15.846303 38.745901 -14.495806
-24.115589 28.0124 -8.866982
-24.775915 29.226322 -8.787937
-23.397132 28.594222 -9.129938
-24.115589 28.0124 -8.866982
-23.460967 30.3705 -9.285459
-22.786638 29.252629 -9.377878
-23.397132 28.594222 -9.129938
-30.174758 39.439552 -0.948218
-30.550371 38.594652 -0.53429
-30.072667 39.751001 -0.028992
-26.036789 49.024673 3.054665
-26.253075 47.936569 3.64844
-25.720866 49.15538 4.205061
-25.79217 50.07741 2.512116
-26.324379 48.858598 1.955495
-26.036789 49.024673 3.054665
-20.965691 31.236978 -10.199898
-21.560966 30.647409 -9.921411
-19.247607 33.367086 -11.182402
-19.777392 32.60929 -10.844312
-19.827846 34.502978 -11.064834
-18.749285 33.982428 -11.522775
-19.247607 33.367086 -11.182402
-18.790526 35.859167 -11.766907
-18.24175 34.580821 -11.886758
-18.749285 33.982428 -11.522775
-27.392491 42.533657 7.5424
-27.684344 42.604771 6.393448
-24.012425 45.443556 14.30058
-24.671821 44.386651 13.629325
-21.391045 53.770467 13.245573
-20.976033 53.745209 14.449778
-28.764854 35.608225 -6.732727
-29.166778 36.27108 -6.22647
-28.142454 36.336443 -7.040983
-28.321979 34.917412 -7.204476
-28.764854 35.608225 -6.732727
-28.13815 44.188434 1.025995
-28.454994 43.159519 1.587678
-27.948646 44.313312 2.079077
-28.462746 43.555538 -1.814434
-28.383336 43.837078 -0.867344
-27.983052 44.83355 -1.327025
-18.3054 50.84667 -14.895285
-18.690205 50.052326 -14.329352
-17.7493 49.678838 -15.121549
-18.3054 50.84667 -14.895285
-25.427199 30.360582 -8.639383
-26.073929 31.258744 -8.467413
-24.722744 30.846353 -8.888965
-24.775915 29.226322 -8.787937
-25.427199 30.360582 -8.639383
-29.524612 40.86864 0.552605
-30.072667 39.751001 -0.028992
-25.172578 54.508989 -4.647572
-25.445678 53.34701 -4.014215
-25.127987 54.092314 -5.55512
-25.172578 54.508989 -4.647572
-24.989135 53.746216 -6.402152
-25.29905 52.701075 -5.734139
-25.127987 54.092314 -5.55512
-24.637775 54.647463 -7.042473
-24.808838 53.256224 -7.221493
-24.989135 53.746216 -6.402152
-24.326625 55.687798 -7.751646
-24.637775 54.647463 -7.042473
-23.988653 56.569401 -8.379649
-24.119506 55.039074 -8.489816
-24.326625 55.687798 -7.751646
-25.390572 49.257881 5.315708
-25.601731 48.108984 5.947249
-25.055152 49.299589 6.46412
-25.720866 49.15538 4.205061
-25.390572 49.257881 5.315708
-26.718954 42.412422 9.911911
-27.083027 42.433222 8.714001
-26.043531 43.462001 10.559641
-26.718954 42.412422 9.911911
-26.33486 42.415622 11.115911
-22.822786 47.564499 15.435469
-23.413221 46.505703 14.887925
-23.069784 46.324295 16.130216
-20.611267 53.618444 15.638143
-20.976033 53.745209 14.449778
-21.187922 52.410474 15.160687
-29.45858 36.838585 -5.688585
-29.712322 37.442673 -5.070481
-28.87713 37.594761 -6.031349
-29.166778 36.27108 -6.22647
-29.45858 36.838585 -5.688585
-27.451308 46.332666 -0.014778
-27.767722 45.228658 0.568729
-27.315388 46.446236 0.933886
-27.593162 46.065942 -0.950246
-27.451308 46.332666 -0.014778
-27.140828 47.283519 -0.585089
-27.672572 45.784403 -1.897336
-27.983052 44.83355 -1.327025
-27.593162 46.065942 -0.950246
-23.453904 52.720411 8.003023
-23.624316 51.563815 8.660247
-23.453904 52.720411 8.003023
-22.954696 53.915204 8.433769
-16.609106 37.594257 -13.541974
-17.012992 36.94001 -13.101876
-17.087041 38.852161 -13.371721
-16.609106 37.594257 -13.541974
-16.231625 38.138798 -14.00205
-15.059663 36.100768 -14.998803
-15.421941 37.410105 -14.746918
-14.764401 36.753963 -15.583333
-14.760279 34.805708 -15.280582
-15.059663 36.100768 -14.998803
-14.762315 38.790651 -15.903181
-14.764401 36.753963 -15.583333
-14.837128 40.717621 -16.191527
-14.762315 38.790651 -15.903181
-15.138599 39.975993 -15.589899
-14.886544 42.656769 -16.521287
-14.837128 40.717621 -16.191527
-14.95048 44.586439 -16.907599
-14.886544 42.656769 -16.521287
-15.277347 43.832632 -16.264556
-15.012662 46.42921 -17.293076
-14.95048 44.586439 -16.907599
-15.137868 48.262577 -17.654371
-15.012662 46.42921 -17.293076
-15.466489 47.595669 -17.012163
-15.246216 50.01906 -18.038723
-15.137868 48.262577 -17.654371
-22.196048 29.956313 -9.637007
-22.786638 29.252629 -9.377878
-22.21539 31.720002 -9.817801
-21.560966 30.647409 -9.921411
-22.196048 29.956313 -9.637007
-22.744587 46.11817 17.341304
-23.069784 46.324295 16.130216
-22.096129 47.265772 17.943002
-22.744587 46.11817 17.341304
-21.847933 48.524843 17.29829
-22.096129 47.265772 17.943002
-31.07656 37.466257 -1.017111
-30.550371 38.594652 -0.53429
-31.098123 37.113979 -1.91281
-31.07656 37.466257 -1.017111
-30.604301 37.966383 -2.298048
-31.098123 37.113979 -1.91281
-30.178083 38.791069 -2.729694
-30.604301 37.966383 -2.298048
-30.226244 39.107889 -1.885162
-29.679903 39.603881 -3.181529
-30.057961 38.462376 -3.594415
-30.178083 38.791069 -2.729694
-26.2746 50.402809 -2.236639
-26.536506 49.35211 -1.632957
-26.163685 50.725134 -1.262247
-26.336934 50.028228 -3.212643
-26.2746 50.402809 -2.236639
-26.319669 49.659015 -4.092789
-26.630156 48.660572 -3.487496
-26.336934 50.028228 -3.212643
-25.732174 52.036923 -4.352521
-25.445678 53.34701 -4.014215
-25.968063 50.583929 -4.642428
-25.732174 52.036923 -4.352521
-25.67379 51.594179 -5.177013
-26.261285 49.216273 -4.917281
-26.319669 49.659015 -4.092789
-25.968063 50.583929 -4.642428
-27.963141 43.441614 3.730171
-28.298403 42.456453 4.222834
-27.697883 44.438347 3.150701
-27.963141 43.441614 3.730171
-27.395533 44.595564 4.240111
-27.381039 45.467263 2.589017
-27.948646 44.313312 2.079077
-27.697883 44.438347 3.150701
-25.620004 51.159264 1.816858
-25.79217 50.07741 2.512116
-25.847237 51.01384 0.81631
-25.620004 51.159264 1.816858
-26.020153 50.89539 -0.219445
-26.252676 49.792885 0.377191
-25.847237 51.01384 0.81631
-26.163685 50.725134 -1.262247
-26.020153 50.89539 -0.219445
-20.354353 31.90402 -10.512168
-20.965691 31.236978 -10.199898
-20.968969 33.07814 -10.414475
-20.354353 31.90402 -10.512168
-19.777392 32.60929 -10.844312
-17.804732 35.29759 -12.26903
-18.24175 34.580821 -11.886758
-17.886958 37.327737 -12.531257
-17.4087 36.167766 -12.669397
-17.804732 35.29759 -12.26903
-27.991464 42.57435 5.297021
-28.298403 42.456453 4.222834
-27.353671 43.629251 5.91601
-27.991464 42.57435 5.297021
-27.684344 42.604771 6.393448
-26.737088 43.559236 8.18404
-27.392491 42.533657 7.5424
-27.083027 42.433222 8.714001
-24.387064 49.265185 8.717851
-24.710923 49.316517 7.594893
-24.942452 48.099359 8.218619
-25.319225 43.308445 13.001901
-26.027969 42.248201 12.287812
-25.012034 44.543408 12.391064
-25.319225 43.308445 13.001901
-24.671821 44.386651 13.629325
-23.765427 46.68376 13.605832
-24.012425 45.443556 14.30058
-23.413221 46.505703 14.887925
-23.787951 50.382267 9.361425
-24.387064 49.265185 8.717851
-24.01948 49.165109 9.985152
-23.256732 51.46374 9.927548
-23.624316 51.563815 8.660247
-23.787951 50.382267 9.361425
-22.165595 53.891508 10.843161
-22.569183 53.860861 9.646903
-22.689511 52.675934 10.422628
-21.757662 53.855138 12.068855
-21.919306 52.62191 12.795604
-21.391045 53.770467 13.245573
-22.165595 53.891508 10.843161
-21.757662 53.855138 12.068855
-20.439751 52.102062 17.605674
-21.019837 50.975153 17.133935
-20.200791 53.502876 16.869575
-20.439751 52.102062 17.605674
-20.611267 53.618444 15.638143
-20.200791 53.502876 16.869575
-27.821846 34.055843 -7.589942
-28.321979 34.917412 -7.204476
-27.144951 34.760361 -7.881501
-27.821846 34.055843 -7.589942
-28.998334 42.08801 1.041362
-28.454994 43.159519 1.587678
-29.170776 41.815271 0.045838
-29.524612 40.86864 0.552605
-28.998334 42.08801 1.041362
-28.27407 44.074865 0.07733
-28.13815 44.188434 1.025995
-27.767722 45.228658 0.568729
-28.753763 42.796854 -0.410078
-28.27407 44.074865 0.07733
-28.383336 43.837078 -0.867344
-26.556381 35.421658 -8.181897
-27.144951 34.760361 -7.881501
-27.11101 36.306927 -7.813128
-25.917303 36.179789 -8.465131
-25.951244 34.633223 -8.533504
-26.556381 35.421658 -8.181897
-23.677597 57.537624 -9.128397
-23.988653 56.569401 -8.379649
-23.438001 56.927259 -9.779685
-23.677597 57.537624 -9.128397
-23.118219 56.391979 -10.408575
-23.461752 55.385397 -9.746707
-23.438001 56.927259 -9.779685
-22.768406 55.603222 -10.988104
-23.118219 56.391979 -10.408575
-22.357808 54.811922 -11.50662
-22.731372 54.058817 -10.894113
-22.768406 55.603222 -10.988104
-21.894767 54.188059 -12.03746
-22.357808 54.811922 -11.50662
-21.395086 53.355936 -12.464378
-21.821092 52.435394 -11.839547
-21.894767 54.188059 -12.03746
-20.860992 52.45717 -12.872439
-21.395086 53.355936 -12.464378
-20.287012 51.500483 -13.226814
-20.747432 50.646583 -12.62084
-20.860992 52.45717 -12.872439
-19.713707 50.41752 -13.529221
-20.287012 51.500483 -13.226814
-19.125284 49.337467 -13.800595
-19.585028 48.609842 -13.246589
-19.713707 50.41752 -13.529221
-18.561526 48.244648 -14.046722
-19.125284 49.337467 -13.800595
-18.690205 50.052326 -14.329352
-17.22836 48.553939 -15.327579
-17.605508 47.834608 -14.781509
-17.7493 49.678838 -15.121549
-16.828802 49.243454 -15.91557
-16.68501 47.399223 -15.57553
-17.22836 48.553939 -15.327579
-16.418342 49.942047 -16.563897
-16.828802 49.243454 -15.91557
-16.071463 50.612196 -17.168866
-15.938574 48.758886 -16.76849
-16.418342 49.942047 -16.563897
-15.731323 51.294403 -17.810736
-16.071463 50.612196 -17.168866
-16.211091 52.477564 -17.606143
-15.246216 50.01906 -18.038723
-15.731323 51.294403 -17.810736
3 0 32 30
3 0 34 32
3 120 35 121
3 122 37 123
3 124 123 35
3 122 123 124
3 126 125 40
3 2 44 42
3 2 46 44
3 127 48 128
3 129 51 130
3 131 130 49
3 129 130 131
3 132 53 133
3 134 133 51
3 132 133 134
3 3 135 136
3 3 137 139
3 137 54 138
3 137 138 139
3 1 56 55
3 4 59 57
3 4 61 59
3 4 63 61
3 5 66 64
3 5 68 66
3 141 140 69
3 6 142 143
3 7 144 146
3 146 145 31
3 144 145 146
3 7 147 149
3 147 70 148
3 147 148 149
3 7 71 70
3 8 72 33
3 8 73 72
3 9 150 151
3 9 152 153
3 9 154 156
3 154 74 155
3 154 155 156
3 11 75 36
3 11 76 75
3 12 157 159
3 157 77 158
3 157 158 159
3 12 78 77
3 14 80 38
3 14 81 80
3 14 83 81
3 16 84 39
3 16 85 84
3 17 87 86
3 160 88 161
3 162 161 41
3 160 161 162
3 163 89 164
3 165 164 88
3 163 164 165
3 10 166 167
3 19 168 170
3 170 169 43
3 168 169 170
3 19 171 172
3 19 173 175
3 173 90 174
3 173 174 175
3 20 91 45
3 20 92 91
3 176 93 177
3 21 94 47
3 21 95 94
3 178 96 179
3 22 97 50
3 22 98 97
3 22 99 98
3 181 180 52
3 23 182 183
3 23 184 186
3 184 100 185
3 184 185 186
3 18 187 189
3 187 101 188
3 187 188 189
3 24 190 192
3 190 102 191
3 190 191 192
3 24 103 102
3 13 104 79
3 25 105 58
3 25 106 105
3 25 107 106
3 26 108 60
3 26 109 108
3 26 110 109
3 27 111 62
3 27 112 111
3 15 113 82
3 28 114 65
3 28 115 114
3 28 116 115
3 29 117 67
3 29 118 117
3 193 119 194
3 196 195 119
3 30 31 6
3 32 31 30
3 32 7 31
3 32 33 7
3 34 33 32
3 34 8 33
3 35 197 198
3 35 199 201
3 199 9 200
3 199 200 201
3 35 36 9
3 37 36 35
3 37 11 36
3 202 12 203
3 204 38 205
3 206 38 207
3 208 14 209
3 210 209 38
3 208 209 210
3 211 39 212
3 213 212 14
3 211 212 213
3 214 39 215
3 216 16 217
3 218 217 39
3 216 217 218
3 40 41 17
3 219 41 220
3 221 220 40
3 219 220 221
3 223 222 41
3 42 43 10
3 44 43 42
3 44 19 43
3 44 45 19
3 46 45 44
3 46 20 45
3 224 47 225
3 48 226 228
3 226 47 227
3 226 227 228
3 48 21 47
3 49 229 231
3 229 50 230
3 229 230 231
3 51 50 49
3 51 22 50
3 51 52 22
3 53 52 51
3 53 232 234
3 234 233 52
3 232 233 234
3 54 235 236
3 54 237 239
3 237 23 238
3 237 238 239
3 55 240 242
3 242 241 18
3 240 241 242
3 56 243 245
3 245 244 55
3 243 244 245
3 56 246 248
3 246 24 247
3 246 247 248
3 57 58 13
3 59 58 57
3 59 25 58
3 59 60 25
3 61 60 59
3 61 26 60
3 61 62 26
3 63 62 61
3 63 27 62
3 64 65 15
3 66 65 64
3 66 28 65
3 66 67 28
3 68 67 66
3 68 29 67
3 69 249 250
3 252 251 69
3 31 253 255
3 255 254 6
3 253 254 255
3 257 256 31
3 70 258 259
3 70 260 262
3 260 261 262
3 70 263 264
3 71 265 267
3 267 266 70
3 265 266 267
3 71 268 269
3 33 71 7
3 72 71 33
3 72 270 272
3 272 271 71
3 270 271 272
3 72 273 274
3 73 275 277
3 277 276 72
3 275 276 277
3 73 278 279
3 74 280 281
3 74 282 284
3 282 10 283
3 282 283 284
3 36 74 9
3 75 74 36
3 75 10 74
3 75 42 10
3 76 42 75
3 76 2 42
3 285 49 286
3 287 49 288
3 290 289 49
3 77 291 292
3 77 293 294
3 77 295 296
3 78 297 299
3 299 298 77
3 297 298 299
3 78 300 302
3 300 3 301
3 300 301 302
3 303 79 304
3 305 304 1
3 303 304 305
3 306 79 307
3 308 13 309
3 310 309 79
3 308 309 310
3 38 311 312
3 80 313 315
3 315 314 38
3 313 314 315
3 80 316 318
3 316 13 317
3 316 317 318
3 80 57 13
3 81 57 80
3 81 4 57
3 81 82 4
3 83 82 81
3 83 15 82
3 39 83 14
3 84 83 39
3 84 15 83
3 84 64 15
3 85 64 84
3 85 5 64
3 86 319 320
3 87 321 323
3 323 322 86
3 321 322 323
3 87 324 326
3 324 18 325
3 324 325 326
3 41 87 17
3 88 87 41
3 88 18 87
3 88 55 18
3 89 55 88
3 89 1 55
3 327 89 328
3 329 89 330
3 331 1 332
3 333 332 89
3 331 332 333
3 335 334 1
3 43 336 338
3 338 337 10
3 336 337 338
3 340 339 43
3 90 341 342
3 90 343 345
3 343 6 344
3 343 344 345
3 45 90 19
3 91 90 45
3 91 6 90
3 91 30 6
3 92 30 91
3 92 0 30
3 346 86 347
3 93 348 350
3 348 86 349
3 348 349 350
3 93 17 86
3 47 351 353
3 351 93 352
3 351 352 353
3 94 93 47
3 94 17 93
3 94 40 17
3 95 40 94
3 95 354 356
3 356 355 40
3 354 355 356
3 357 48 358
3 96 359 361
3 359 48 360
3 359 360 361
3 96 21 48
3 50 362 364
3 362 96 363
3 362 363 364
3 97 96 50
3 97 21 96
3 97 95 21
3 98 95 97
3 98 365 367
3 367 366 95
3 365 366 367
3 98 368 370
3 368 69 369
3 368 369 370
3 99 69 98
3 99 371 373
3 373 372 69
3 371 372 373
3 52 99 22
3 374 99 375
3 376 375 52
3 374 375 376
3 378 377 99
3 379 53 380
3 381 53 382
3 384 383 53
3 100 385 386
3 100 387 388
3 101 389 390
3 101 391 393
3 391 12 392
3 391 392 393
3 394 101 395
3 396 395 18
3 394 395 396
3 102 397 399
3 397 101 398
3 397 398 399
3 102 12 101
3 102 78 12
3 103 78 102
3 103 3 78
3 79 56 1
3 104 56 79
3 104 24 56
3 58 104 13
3 105 104 58
3 105 24 104
3 105 103 24
3 106 103 105
3 106 3 103
3 106 54 3
3 107 54 106
3 107 23 54
3 60 107 25
3 108 107 60
3 108 23 107
3 108 100 23
3 109 100 108
3 109 400 402
3 402 401 100
3 400 401 402
3 109 403 405
3 403 37 404
3 403 404 405
3 110 37 109
3 110 11 37
3 62 110 26
3 111 110 62
3 111 11 110
3 111 76 11
3 112 76 111
3 112 2 76
3 82 63 4
3 113 63 82
3 113 27 63
3 65 113 15
3 114 113 65
3 114 27 113
3 114 112 27
3 115 112 114
3 115 2 112
3 115 46 2
3 116 46 115
3 116 20 46
3 67 116 28
3 117 116 67
3 117 20 116
3 117 92 20
3 118 92 117
3 118 0 92
3 406 16 407
3 408 16 409
3 410 85 411
3 412 411 16
3 410 411 412
3 413 85 414
3 415 5 416
3 417 416 85
3 415 416 417
3 418 5 419
3 420 68 421
3 422 421 5
3 420 421 422
3 423 68 424
3 425 29 426
3 427 426 68
3 425 426 427
3 428 29 429
3 430 118 431
3 432 431 29
3 430 431 432
3 119 433 435
3 433 118 434
3 433 434 435
3 119 0 118
3 119 34 0
3 436 34 437
3 438 437 119
3 436 437 438
3 439 8 440
3 441 440 34
3 439 440 441
3 442 8 443
3 444 73 445
3 446 445 8
3 444 445 446
3 447 73 448
3 447 448 449
3 451 450 73
