ply
format ascii 1.0
element vertex 467
property float x
property float y
property float z
element face 486
property list uchar int vertex_index
end_header
28.26264 27.20348 -59.803776
15.157025 36.98386 -52.012749
35.68412 13.021398 -40.643482
21.461481 32.598507 -57.033588
14.160055 34.945221 -62.1563
27.139935 26.753401 -49.446556
8.721534 39.164883 -55.98106
6.652677 33.162342 -63.365078
30.172199 18.961533 -40.243797
33.257011 20.920465 -50.398163
24.819929 30.307535 -58.82198
21.27195 32.068111 -62.404282
24.841261 29.23443 -63.631645
23.535549 29.11179 -47.937122
25.628757 25.264891 -43.905144
12.026461 38.521164 -54.48978
13.170174 32.682095 -66.374016
10.324112 34.595055 -63.22625
33.764751 12.056868 -35.815296
31.003796 14.814538 -35.816219
33.186848 16.357342 -40.675858
32.081856 20.481802 -45.632496
34.809586 16.952263 -45.351124
18.174948 34.692867 -54.702488
14.703304 36.343483 -57.331875
17.871748 34.290966 -60.122261
21.105536 32.249378 -51.638092
24.444733 30.107424 -53.467571
28.016815 27.499903 -54.807323
11.215096 36.88549 -59.112465
7.717324 36.479256 -59.964401
4.33689 34.947739 -60.201073
3.503626 30.835701 -62.701019
27.11717 21.120329 -39.650032
28.991682 23.039219 -44.991119
30.309902 24.260178 -50.319519
31.108263 24.364326 -55.254452
26.644581 28.814739 -59.327736
24.930401 29.908401 -61.259338
26.590982 28.381725 -61.695366
13.874243 38.234241 -50.724979
13.622409 37.866772 -53.434055
34.873283 12.644075 -38.348499
33.610828 14.195745 -38.303562
34.513691 14.686526 -40.58057
34.027916 16.761116 -42.916431
35.286999 15.029488 -42.971657
19.77137 33.657955 -55.924847
17.993196 34.640892 -57.482471
19.690882 33.605919 -58.493752
21.069075 31.384092 -64.652138
19.264261 32.647991 -63.756256
19.520361 33.279083 -50.283253
20.826921 31.768414 -48.764004
25.335667 27.941116 -48.726913
24.018782 29.699642 -50.655056
25.779295 28.540768 -51.40139
26.261774 28.852722 -54.177841
27.499695 27.381243 -52.20269
7.037131 39.107323 -56.521713
14.374416 35.766014 -59.811626
12.931535 36.724903 -58.412979
12.612229 35.82621 -60.842857
8.468931 33.829262 -63.63483
8.966242 35.450104 -61.667107
7.280224 34.849251 -61.865929
6.070855 35.849709 -60.202492
5.471135 33.989834 -61.774342
3.887911 32.903316 -61.568604
5.090261 31.990429 -63.27515
30.682852 16.92709 -38.10511
29.15543 17.941158 -37.736217
27.570478 19.007421 -37.418026
28.649492 20.049568 -39.948441
28.060644 22.197983 -42.322823
29.681162 21.013882 -42.633266
32.711151 20.826969 -47.965885
31.26717 22.414845 -47.969303
31.887993 22.646435 -50.486523
30.810888 24.408564 -52.798141
32.320835 22.635763 -52.855694
36.526844 14.670394 -47.416
23.022448 31.584591 -58.010227
21.33886 32.537861 -59.713516
23.084446 31.337952 -60.619652
23.088844 30.774553 -63.002312
24.718578 27.21603 -46.022583
26.396519 26.119425 -46.656605
10.400208 38.988537 -55.246399
13.635941 33.973907 -64.328018
12.138146 34.898861 -62.840172
11.663157 33.612778 -64.915573
9.751546 33.069759 -65.113197
7.942637 32.1633 -65.198753
31.305401 12.680673 -33.620773
32.454174 13.596669 -35.990265
32.161419 15.727716 -38.318634
31.727131 17.739569 -40.512348
31.274662 19.729752 -42.881111
32.679634 18.43145 -43.070904
33.485889 18.743303 -45.362541
34.104614 18.980986 -47.839012
16.555622 35.835896 -53.410309
15.036654 36.725086 -54.594097
16.494011 35.626175 -56.203762
16.235331 35.303505 -58.841282
15.954402 34.798359 -61.178581
19.550989 33.254902 -61.233509
17.565735 33.771809 -62.558285
15.705811 33.961227 -63.605129
35.080387 10.547648 -36.014198
16.595188 35.844021 -50.612274
18.050156 34.703033 -52.04068
19.604113 33.615543 -53.083702
21.304331 32.533337 -54.34753
22.440695 30.727903 -49.877087
22.71752 31.211882 -52.552174
23.000557 31.443354 -55.191277
24.69289 30.338682 -56.196888
26.424349 29.062464 -56.939674
28.154449 27.557304 -57.399586
13.423029 37.323723 -55.943264
11.635878 37.799961 -56.795284
9.863041 37.986641 -57.495743
10.75631 35.847855 -61.213875
9.431326 36.819286 -59.613049
8.178365 37.905441 -58.015503
6.467839 37.574013 -58.365643
4.75338 36.890324 -58.64267
3.176619 36.302006 -58.482548
2.787381 34.07991 -59.875027
4.640653 29.881056 -64.444366
3.054019 28.526157 -63.589901
26.443382 23.292225 -41.902256
27.3039 24.197001 -44.512939
28.077101 24.924236 -47.07983
30.59458 21.821684 -45.383121
29.767454 23.754198 -47.734127
28.678703 25.59798 -49.838909
29.119646 26.027224 -52.463493
29.58095 26.042662 -55.046715
29.719604 25.937794 -57.551781
35.409595 16.933207 -47.795048
34.608498 18.852898 -50.088833
34.984837 18.440208 -52.485786
33.71003 20.643906 -52.675484
32.585804 22.397745 -55.141075
31.236412 24.066765 -57.584816
29.937199 25.286951 -59.772915
28.31568 26.809137 -60.891594
27.479852 27.398259 -61.837389
27.426811 27.792603 -60.749571
19.987268 31.601821 -65.26374
20.965944 30.908177 -65.622342
20.612345 31.463307 -47.278652
20.003633 32.362797 -48.137736
8.152764 39.812123 -55.306486
8.966155 39.719143 -54.942905
7.879333 39.136103 -56.251386
7.310562 39.783343 -55.576813
8.152764 39.812123 -55.306486
23.870102 29.595744 -64.426265
22.993893 30.365806 -64.111599
23.965052 30.004492 -63.316979
24.715301 28.764634 -64.671486
23.870102 29.595744 -64.426265
25.173668 26.24046 -44.963864
24.344184 26.748295 -44.566938
24.799273 25.772725 -43.508219
11.405504 39.218237 -53.687055
12.168671 38.858719 -53.239481
11.213334 38.754851 -54.868089
10.592377 39.451923 -54.065365
11.405504 39.218237 -53.687055
9.557644 32.206303 -65.961639
10.490035 32.589813 -65.938133
8.65319 31.753074 -66.004417
8.847091 32.616529 -65.155975
9.557644 32.206303 -65.961639
7.739427 31.211966 -65.920085
8.65319 31.753074 -66.004417
33.109462 12.826769 -35.90278
32.552428 12.426348 -34.734579
33.207716 11.656447 -34.647094
17.438783 33.361841 -63.688288
18.414998 33.2099 -63.15727
18.288047 32.799932 -64.287273
16.508821 33.45655 -64.21171
16.635773 33.866518 -63.081707
17.438783 33.361841 -63.688288
15.512215 33.445606 -64.684141
16.508821 33.45655 -64.21171
35.651867 9.615051 -35.972937
35.152317 9.464021 -34.863945
35.53729 10.683568 -37.099928
35.651867 9.615051 -35.972937
17.2288 35.210911 -49.910677
16.495796 35.869547 -49.235922
17.956285 34.640417 -50.62488
17.322672 35.273527 -51.326477
17.2288 35.210911 -49.910677
22.988122 29.919846 -48.907105
22.196724 30.417533 -48.416718
22.744151 29.609476 -47.446735
2.932993 31.357111 -61.833793
3.125135 32.390918 -61.267586
3.695768 31.869508 -62.134811
2.781668 30.27047 -62.294101
2.932993 31.357111 -61.833793
5.258762 29.53466 -65.262992
5.474881 30.535926 -64.689343
2.94748 27.411211 -63.98044
3.662009 28.114587 -64.479109
2.427691 27.883951 -63.15123
2.94748 27.411211 -63.98044
30.374523 14.361287 -34.647247
30.525325 13.294355 -33.549524
31.154598 13.747606 -34.718496
26.505381 20.634304 -38.349348
26.732036 19.57785 -37.233345
27.343824 20.063875 -38.534029
26.27981 21.706266 -39.45068
26.505381 20.634304 -38.349348
26.780276 22.206277 -40.776144
25.942916 22.792213 -40.576792
26.27981 21.706266 -39.45068
35.590688 16.842329 -48.95644
35.96822 15.8018 -47.605524
36.149313 15.710922 -48.766916
35.19014 17.802174 -50.103333
35.009046 17.893052 -48.941941
35.590688 16.842329 -48.95644
34.524353 19.229864 -53.684477
35.141775 17.996393 -53.555646
34.681292 18.786049 -54.754337
33.88695 20.331713 -53.779325
34.347434 19.542057 -52.580635
34.524353 19.229864 -53.684477
33.324837 21.208633 -55.012121
33.147917 21.520826 -53.908279
33.88695 20.331713 -53.779325
31.38436 23.576229 -58.592048
32.03667 22.890713 -57.42689
30.734754 24.186322 -59.686098
30.586806 24.676858 -58.678866
31.38436 23.576229 -58.592048
29.965526 24.823517 -60.797713
30.734754 24.186322 -59.686098
26.601788 27.929199 -62.759268
25.726928 28.355552 -63.727407
25.716121 28.808077 -62.663505
26.601788 27.929199 -62.759268
27.479852 27.398259 -61.837389
25.210622 24.730269 -42.484112
24.799273 25.772725 -43.508219
13.092562 38.715257 -51.35708
13.235992 38.984447 -50.04776
12.966645 38.531523 -52.711619
13.092562 38.715257 -51.35708
13.748326 38.050506 -52.079517
12.824435 38.193968 -53.961917
12.168671 38.858719 -53.239481
12.966645 38.531523 -52.711619
12.19935 32.395981 -66.568543
12.994903 31.893948 -67.292015
19.084862 32.233771 -64.815799
20.166668 32.016042 -64.204197
19.987268 31.601821 -65.26374
18.288047 32.799932 -64.287273
19.084862 32.233771 -64.815799
19.350354 33.118132 -48.89736
18.691387 33.928442 -49.746167
20.173641 32.523748 -49.523629
19.350354 33.118132 -48.89736
20.003633 32.362797 -48.137736
6.471909 39.796547 -55.827252
7.310562 39.783343 -55.576813
6.194353 38.94006 -56.724039
6.471909 39.796547 -55.827252
30.076561 16.450922 -36.871113
30.237033 15.394646 -35.726667
30.843324 15.870814 -36.960665
29.31285 16.957956 -36.686666
30.076561 16.450922 -36.871113
29.919141 17.434124 -37.920664
28.510303 17.446646 -36.482492
29.31285 16.957956 -36.686666
28.362954 18.47429 -37.577122
27.717827 17.979778 -36.323397
28.510303 17.446646 -36.482492
37.021946 13.434346 -47.280884
36.797634 13.67687 -46.203552
36.717188 14.396402 -48.477939
37.021946 13.434346 -47.280884
36.149313 15.710922 -48.766916
36.717188 14.396402 -48.477939
21.984009 30.670575 -64.936512
22.07896 31.079322 -63.827225
22.993893 30.365806 -64.111599
20.965944 30.908177 -65.622342
21.984009 30.670575 -64.936512
24.715301 28.764634 -64.671486
25.726928 28.355552 -63.727407
23.313522 28.689542 -46.579561
22.744151 29.609476 -47.446735
23.905036 27.741662 -45.622292
24.344184 26.748295 -44.566938
24.127063 28.16391 -46.979852
23.313522 28.689542 -46.579561
23.905036 27.741662 -45.622292
9.805492 39.63097 -54.575575
10.592377 39.451923 -54.065365
9.560871 39.07671 -55.613729
8.966155 39.719143 -54.942905
9.805492 39.63097 -54.575575
11.445841 32.861322 -65.839321
12.416666 33.147436 -65.644794
12.19935 32.395981 -66.568543
10.707351 33.341268 -65.014385
11.445841 32.861322 -65.839321
10.490035 32.589813 -65.938133
7.125872 31.677048 -65.066536
6.480892 32.176569 -64.149698
7.297657 32.662821 -64.281915
7.125872 31.677048 -65.066536
7.739427 31.211966 -65.920085
31.978041 11.96835 -33.549833
31.314588 11.598155 -32.41883
31.879787 13.138671 -34.805519
31.978041 11.96835 -33.549833
32.552428 12.426348 -34.734579
14.47728 33.451946 -65.045586
14.670876 33.967567 -63.966573
15.512215 33.445606 -64.684141
14.244397 32.80604 -66.068585
13.403057 33.328001 -65.351017
14.47728 33.451946 -65.045586
13.955658 32.207183 -66.975121
14.244397 32.80604 -66.068585
12.994903 31.893948 -67.292015
13.955658 32.207183 -66.975121
33.901386 11.007986 -34.776386
33.207716 11.656447 -34.647094
34.559204 10.253376 -34.875837
35.152317 9.464021 -34.863945
34.422569 11.302258 -35.914747
33.901386 11.007986 -34.776386
34.559204 10.253376 -34.875837
35.433739 11.731782 -38.267078
34.976835 11.595862 -37.181348
35.53729 10.683568 -37.099928
35.839157 11.920444 -39.41457
35.278701 12.832736 -39.49599
35.433739 11.731782 -38.267078
13.892633 38.429031 -49.377029
13.235992 38.984447 -50.04776
14.552975 37.679723 -50.034557
13.892633 38.429031 -49.377029
15.194365 37.054533 -50.678442
14.515634 37.60905 -51.368864
14.552975 37.679723 -50.034557
15.913447 36.484613 -49.978205
16.495796 35.869547 -49.235922
15.876107 36.41394 -51.312511
15.194365 37.054533 -50.678442
15.913447 36.484613 -49.978205
18.785259 33.991058 -51.161967
17.956285 34.640417 -50.62488
18.691387 33.928442 -49.746167
21.389837 30.937788 -47.860176
20.612345 31.463307 -47.278652
21.633808 31.248159 -49.320546
21.389837 30.937788 -47.860176
22.196724 30.417533 -48.416718
5.909707 38.173405 -57.646004
6.194353 38.94006 -56.724039
6.752485 38.340668 -57.443678
5.052478 37.83156 -57.784517
5.909707 38.173405 -57.646004
5.610609 37.232169 -58.504157
4.217268 37.628172 -57.838059
5.052478 37.83156 -57.784517
3.428888 37.334013 -57.757998
4.217268 37.628172 -57.838059
3.965 36.596165 -58.562609
2.632283 36.988652 -57.767107
3.428888 37.334013 -57.757998
2.415578 35.828976 -58.400736
2.632283 36.988652 -57.767107
2.220959 34.717928 -59.096975
2.415578 35.828976 -58.400736
2.982 35.190958 -59.178787
2.042314 33.522869 -59.657347
2.220959 34.717928 -59.096975
2.57487 32.979215 -60.420798
3.337646 33.491613 -60.721816
3.125135 32.390918 -61.267586
2.042314 33.522869 -59.657347
2.57487 32.979215 -60.420798
5.699685 31.590612 -64.104735
5.871469 32.576386 -63.320114
6.480892 32.176569 -64.149698
4.865457 30.935742 -63.859758
5.699685 31.590612 -64.104735
5.474881 30.535926 -64.689343
4.455326 28.792036 -64.906341
5.258762 29.53466 -65.262992
3.847336 29.203606 -64.017133
4.455326 28.792036 -64.906341
3.662009 28.114587 -64.479109
2.556864 29.115698 -62.738542
2.781668 30.27047 -62.294101
3.278822 29.680929 -63.14546
2.556864 29.115698 -62.738542
2.427691 27.883951 -63.15123
30.587339 12.247287 -32.427236
31.314588 11.598155 -32.41883
30.587339 12.247287 -32.427236
30.525325 13.294355 -33.549524
30.374523 14.361287 -34.647247
30.237033 15.394646 -35.726667
26.919372 18.536474 -36.188066
27.717827 17.979778 -36.323397
26.919372 18.536474 -36.188066
26.732036 19.57785 -37.233345
25.617934 23.743936 -41.482668
25.942916 22.792213 -40.576792
26.036069 24.278558 -42.9037
25.210622 24.730269 -42.484112
25.617934 23.743936 -41.482668
36.205192 12.030832 -40.546576
35.839157 11.920444 -39.41457
36.067825 12.976528 -41.705988
36.205192 12.030832 -40.546576
35.869264 13.980573 -42.870075
35.48556 14.025443 -41.807569
36.067825 12.976528 -41.705988
35.645534 15.000317 -44.130312
35.869264 13.980573 -42.870075
35.406828 15.961704 -45.320045
35.048293 15.990875 -44.16139
35.645534 15.000317 -44.130312
36.265457 14.82077 -46.352483
36.797634 13.67687 -46.203552
35.706833 15.952176 -46.542007
36.265457 14.82077 -46.352483
35.96822 15.8018 -47.605524
35.109591 16.942735 -46.573086
35.406828 15.961704 -45.320045
35.706833 15.952176 -46.542007
35.590771 17.156662 -52.235113
35.141775 17.996393 -53.555646
35.37831 17.59583 -51.301809
35.590771 17.156662 -52.235113
34.796667 18.646553 -51.287309
35.19014 17.802174 -50.103333
35.37831 17.59583 -51.301809
32.711366 22.056203 -56.205019
33.324837 21.208633 -55.012121
31.911108 23.232255 -56.362945
32.711366 22.056203 -56.205019
32.03667 22.890713 -57.42689
29.15296 25.850872 -60.876164
28.31568 26.809137 -60.891594
29.099919 26.245216 -59.788345
29.15296 25.850872 -60.876164
29.965526 24.823517 -60.797713
3 0 39 37
3 0 149 151
3 151 150 39
3 149 150 151
3 1 41 40
3 2 44 42
3 2 46 44
3 3 49 47
3 153 152 50
3 154 53 155
3 5 56 54
3 5 58 56
3 6 156 157
3 6 158 160
3 158 59 159
3 158 159 160
3 4 62 60
3 7 65 63
3 7 67 65
3 7 69 67
3 8 71 70
3 8 73 71
3 8 75 73
3 9 78 76
3 9 80 78
3 10 84 82
3 12 85 38
3 12 161 163
3 163 162 85
3 161 162 163
3 12 164 165
3 14 166 168
3 166 86 167
3 166 167 168
3 14 87 86
3 15 169 170
3 15 171 173
3 171 88 172
3 171 172 173
3 16 91 89
3 174 92 175
3 176 93 177
3 178 177 92
3 176 177 178
3 180 179 93
3 18 181 183
3 181 95 182
3 181 182 183
3 20 96 43
3 20 97 96
3 20 99 97
3 22 100 45
3 22 101 100
3 23 104 102
3 25 105 48
3 25 106 105
3 11 107 83
3 184 108 185
3 186 185 51
3 184 185 186
3 187 109 188
3 189 188 108
3 187 188 189
3 191 190 109
3 192 110 193
3 195 194 110
3 196 111 197
3 198 112 199
3 200 199 111
3 198 199 200
3 26 113 52
3 26 114 113
3 13 201 203
3 201 115 202
3 201 202 203
3 27 116 55
3 27 117 116
3 27 118 117
3 28 119 57
3 28 120 119
3 24 121 103
3 29 122 61
3 29 123 122
3 17 124 90
3 30 125 64
3 30 126 125
3 30 127 126
3 31 128 66
3 31 129 128
3 31 130 129
3 32 204 206
3 206 205 68
3 204 205 206
3 32 207 208
3 209 131 210
3 211 132 212
3 214 213 132
3 19 215 217
3 217 216 94
3 215 216 217
3 33 218 220
3 220 219 72
3 218 219 220
3 33 221 222
3 33 223 225
3 223 133 224
3 223 224 225
3 34 134 74
3 34 135 134
3 21 136 98
3 35 137 77
3 35 138 137
3 35 139 138
3 36 140 79
3 36 141 140
3 226 142 227
3 228 227 81
3 226 227 228
3 229 143 230
3 231 230 142
3 229 230 231
3 232 144 233
3 232 233 234
3 235 145 236
3 237 236 144
3 235 236 237
3 238 146 239
3 240 239 145
3 238 239 240
3 241 147 242
3 243 148 244
3 245 244 147
3 243 244 245
3 247 246 148
3 37 38 10
3 39 38 37
3 39 12 38
3 39 248 250
3 250 249 12
3 248 249 250
3 252 251 39
3 253 14 254
3 40 255 256
3 41 257 259
3 259 258 40
3 257 258 259
3 41 260 262
3 260 15 261
3 260 261 262
3 264 263 16
3 42 43 18
3 44 43 42
3 44 20 43
3 44 45 20
3 46 45 44
3 46 22 45
3 47 48 23
3 49 48 47
3 49 25 48
3 50 51 11
3 265 51 266
3 267 266 50
3 265 266 267
3 269 268 51
3 270 52 271
3 53 272 274
3 272 52 273
3 272 273 274
3 53 26 52
3 54 55 13
3 56 55 54
3 56 27 55
3 56 57 27
3 58 57 56
3 58 28 57
3 59 275 276
3 59 277 278
3 60 61 24
3 62 61 60
3 62 29 61
3 63 64 17
3 65 64 63
3 65 30 64
3 65 66 30
3 67 66 65
3 67 31 66
3 67 68 31
3 69 68 67
3 69 32 68
3 70 279 281
3 281 280 19
3 279 280 281
3 71 282 284
3 284 283 70
3 282 283 284
3 71 285 286
3 71 287 289
3 287 72 288
3 287 288 289
3 73 72 71
3 73 33 72
3 73 74 33
3 75 74 73
3 75 34 74
3 76 77 21
3 78 77 76
3 78 35 77
3 78 79 35
3 80 79 78
3 80 36 79
3 290 81 291
3 292 81 293
3 295 294 81
3 82 83 3
3 84 83 82
3 84 11 83
3 38 84 10
3 85 84 38
3 85 11 84
3 85 50 11
3 296 50 297
3 298 297 85
3 296 297 298
3 300 299 50
3 302 301 12
3 303 13 304
3 86 305 306
3 86 307 309
3 307 13 308
3 307 308 309
3 86 54 13
3 87 54 86
3 87 5 54
3 88 310 311
3 88 312 314
3 312 6 313
3 312 313 314
3 89 90 4
3 91 90 89
3 91 17 90
3 315 91 316
3 317 316 16
3 315 316 317
3 92 318 320
3 318 91 319
3 318 319 320
3 92 17 91
3 92 63 17
3 93 63 92
3 93 7 63
3 93 321 323
3 323 322 7
3 321 322 323
3 325 324 93
3 326 94 327
3 95 328 330
3 328 94 329
3 328 329 330
3 95 19 94
3 43 95 18
3 96 95 43
3 96 19 95
3 96 70 19
3 97 70 96
3 97 8 70
3 97 98 8
3 99 98 97
3 99 21 98
3 45 99 20
3 100 99 45
3 100 21 99
3 100 76 21
3 101 76 100
3 101 9 76
3 102 103 1
3 104 103 102
3 104 24 103
3 48 104 23
3 105 104 48
3 105 24 104
3 105 60 24
3 106 60 105
3 106 4 60
3 83 49 3
3 107 49 83
3 107 25 49
3 51 107 11
3 108 107 51
3 108 25 107
3 108 106 25
3 109 106 108
3 109 4 106
3 109 89 4
3 331 89 332
3 333 332 109
3 331 332 333
3 334 16 335
3 336 335 89
3 334 335 336
3 337 16 338
3 340 339 16
3 341 18 342
3 110 343 344
3 110 345 347
3 345 18 346
3 345 346 347
3 110 42 18
3 348 42 349
3 350 349 110
3 348 349 350
3 351 2 352
3 353 352 42
3 351 352 353
3 354 40 355
3 356 40 357
3 358 1 359
3 360 359 40
3 358 359 360
3 111 361 362
3 111 363 365
3 363 1 364
3 363 364 365
3 111 102 1
3 112 102 111
3 112 23 102
3 52 366 368
3 366 112 367
3 366 367 368
3 113 112 52
3 113 23 112
3 113 47 23
3 114 47 113
3 114 3 47
3 369 53 370
3 115 371 373
3 371 53 372
3 371 372 373
3 115 26 53
3 55 115 13
3 116 115 55
3 116 26 115
3 116 114 26
3 117 114 116
3 117 3 114
3 117 82 3
3 118 82 117
3 118 10 82
3 57 118 27
3 119 118 57
3 119 10 118
3 119 37 10
3 120 37 119
3 120 0 37
3 103 41 1
3 121 41 103
3 121 15 41
3 61 121 24
3 122 121 61
3 122 15 121
3 122 88 15
3 123 88 122
3 123 6 88
3 90 62 4
3 124 62 90
3 124 29 62
3 64 124 17
3 125 124 64
3 125 29 124
3 125 123 29
3 126 123 125
3 126 6 123
3 126 59 6
3 127 59 126
3 127 374 376
3 376 375 59
3 374 375 376
3 66 127 30
3 128 127 66
3 128 377 379
3 379 378 127
3 377 378 379
3 128 380 381
3 129 382 384
3 384 383 128
3 382 383 384
3 129 385 386
3 129 387 388
3 130 389 391
3 391 390 129
3 389 390 391
3 130 392 393
3 68 130 31
3 394 130 395
3 396 395 68
3 394 395 396
3 398 397 130
3 399 69 400
3 401 400 7
3 399 400 401
3 131 402 404
3 402 69 403
3 402 403 404
3 131 32 69
3 405 131 406
3 132 407 409
3 407 131 408
3 407 408 409
3 132 32 131
3 132 410 412
3 412 411 32
3 410 411 412
3 414 413 132
3 94 415 416
3 418 417 94
3 420 419 19
3 72 421 422
3 424 423 72
3 133 425 426
3 133 427 429
3 427 14 428
3 427 428 429
3 74 133 33
3 134 133 74
3 134 14 133
3 134 87 14
3 135 87 134
3 135 5 87
3 98 75 8
3 136 75 98
3 136 34 75
3 77 136 21
3 137 136 77
3 137 34 136
3 137 135 34
3 138 135 137
3 138 5 135
3 138 58 5
3 139 58 138
3 139 28 58
3 79 139 35
3 140 139 79
3 140 28 139
3 140 120 28
3 141 120 140
3 141 0 120
3 430 2 431
3 432 2 433
3 434 46 435
3 436 435 2
3 434 435 436
3 437 46 438
3 439 22 440
3 441 440 46
3 439 440 441
3 81 442 443
3 142 444 446
3 446 445 81
3 444 445 446
3 142 447 449
3 447 22 448
3 447 448 449
3 142 101 22
3 143 101 142
3 143 9 101
3 144 450 451
3 144 452 453
3 144 454 456
3 454 143 455
3 454 455 456
3 145 143 144
3 145 9 143
3 145 80 9
3 146 80 145
3 146 36 80
3 457 146 458
3 147 459 461
3 459 146 460
3 459 460 461
3 147 36 146
3 147 141 36
3 148 141 147
3 148 0 141
3 148 462 464
3 464 463 0
3 462 463 464
3 466 465 148
