ply
format ascii 1.0
element vertex 676
property float x
property float y
property float z
element face 732
property list uchar int vertex_index
end_header
7.416237 -43.930866 43.725716
17.105274 -49.003506 35.306839
26.576248 -34.845402 32.674641
9.940302 -38.491489 42.26395
15.312548 -39.999348 37.708939
27.991325 -43.630466 28.398256
32.606537 -36.465221 26.59214
23.212395 -51.254776 29.970528
25.560316 -25.642982 36.04958
20.050056 -32.966789 36.71167
21.681601 -42.183567 33.744381
3.620145 -46.232735 48.108727
8.75193 -31.707537 46.848698
2.334969 -55.050747 45.619778
31.713572 -27.685732 31.301487
9.097611 -45.009335 41.75301
7.435194 -47.048233 43.180077
8.482641 -41.487186 43.028713
10.678542 -42.116093 40.721413
28.139803 -47.829815 25.601604
30.451252 -43.981354 24.729631
20.309593 -50.405785 32.785358
16.863537 -32.222912 38.736675
16.189478 -44.456898 36.546989
18.421383 -41.052631 35.761421
19.410191 -45.763477 34.42141
22.664211 -46.688072 32.041569
6.994066 -35.30447 47.384754
2.95725 -50.641453 47.201324
26.023397 -30.174618 34.413239
28.777117 -26.646996 33.825596
29.25705 -31.139803 32.079056
34.734112 -36.652012 22.770775
34.684761 -32.892376 25.578566
14.115878 -47.756031 37.448372
14.840263 -52.384418 36.145401
11.91048 -35.241238 41.434143
14.558175 -35.640137 39.182461
12.589693 -39.121738 39.735756
13.290184 -43.296585 38.542053
27.351994 -39.359825 30.705206
29.790962 -35.795162 29.976257
30.26046 -40.062946 27.59371
32.68111 -40.307438 23.742565
22.709677 -29.340834 36.427803
23.296684 -33.980328 34.77351
17.570978 -36.502602 37.111382
20.816473 -37.463379 35.190189
24.129965 -38.427402 33.163155
24.903008 -43.086964 31.406792
25.533951 -47.577583 29.195492
6.59585 -41.530235 45.418362
5.806861 -44.876945 45.588436
11.300617 -31.701733 43.635662
9.325235 -35.094143 44.267704
7.770079 -38.428646 44.868626
5.414934 -48.751781 45.065399
32.212666 -32.172337 29.148346
34.364117 -28.661879 28.123806
8.14518 -44.387238 42.820744
8.287594 -46.080273 42.423374
7.415576 -45.313759 43.490562
7.890086 -42.888191 43.383434
8.801885 -43.195335 42.324005
29.158621 -47.864262 23.603479
18.683462 -49.870605 34.083794
19.11216 -52.112282 33.200581
17.536274 -51.466782 34.506546
15.338911 -31.932051 39.87112
16.652369 -46.777473 35.949871
17.740887 -45.011303 35.546665
18.246162 -47.372334 34.861591
19.760113 -48.143002 33.730675
26.381815 -32.54707 33.489372
27.674465 -30.73171 33.26828
27.986074 -33.145348 32.297108
12.706933 -46.948143 38.529045
13.112356 -49.375008 37.915161
10.879642 -36.888367 41.832878
12.158786 -37.188911 40.576298
11.187446 -38.742813 40.991024
11.043988 -44.143066 40.122669
11.894889 -42.65567 39.641972
12.355672 -44.717648 39.040077
13.821107 -45.415642 37.932823
27.676973 -41.627228 29.600935
28.867073 -39.716473 29.249926
29.095768 -41.897575 28.013504
31.55162 -42.071121 24.358192
24.573675 -51.517998 28.306849
23.334412 -53.486816 28.70915
19.622189 -30.808903 37.594891
21.322657 -31.084257 36.607861
23.036493 -31.608992 35.575108
21.699722 -33.40416 35.7472
14.88756 -37.792576 38.411522
16.029854 -36.084202 38.105038
16.421452 -38.24818 37.378483
20.100494 -41.53278 34.764194
19.528179 -39.281391 35.48513
21.23838 -39.812305 34.470901
22.473019 -38.090431 34.176815
22.863764 -40.298271 33.46035
24.521744 -40.705002 32.339565
23.272043 -42.582397 32.679588
22.831587 -49.057194 31.181965
24.115368 -47.141857 30.733076
24.328186 -49.4198 29.633873
25.716864 -49.590343 27.96027
5.562464 -42.004002 46.757183
10.303483 -33.390575 43.907551
9.041718 -33.462822 45.45245
7.351031 -36.920483 46.075893
7.110023 -40.015366 45.197159
4.809292 -45.609371 46.716171
5.58711 -46.781055 45.39587
4.444884 -47.564919 46.588322
2.594844 -52.797215 46.583237
3.969611 -51.827183 45.570477
3.683908 -54.187431 44.773617
4.713963 -55.409859 43.192135
3.364355 -56.390553 43.871948
30.315571 -27.07534 32.622311
30.181332 -24.940992 33.356388
31.684958 -25.321306 32.065338
32.866901 -23.606684 31.489525
33.042255 -25.956345 30.618311
31.265676 -36.179523 28.371592
30.995792 -34.00779 29.595716
32.335846 -34.36319 28.03129
35.688225 -31.01285 24.90947
34.540821 -30.874353 26.878134
35.506172 -28.986784 26.295168
35.455025 -26.813988 27.337948
9.176635 -40.104614 42.614304
10.297718 -40.295639 41.426933
9.536134 -41.88908 41.824478
9.920724 -43.664169 41.160271
28.112953 -45.715042 27.106838
29.325998 -43.837234 26.620304
29.335163 -45.865108 25.133512
30.291964 -45.954132 23.130699
21.771791 -50.874252 31.463568
22.017981 -53.131981 30.335102
20.610395 -52.647427 31.828341
18.110441 -30.558849 38.546345
18.473246 -32.706196 37.632492
15.798532 -42.349709 37.057667
16.774635 -40.431671 36.776669
17.300055 -42.71262 36.132469
18.915991 -43.361507 35.116947
20.485933 -43.833294 34.127171
22.085846 -44.47472 33.003376
21.000059 -46.238903 33.319157
21.374945 -48.415604 32.530956
7.500475 -31.986782 48.489174
7.819086 -33.591782 47.085983
6.661859 -33.725498 48.746414
5.821226 -35.485813 49.105503
3.3029 -48.434399 47.699326
2.027622 -49.243725 48.926292
1.533477 -51.296852 48.506935
1.236006 -53.646877 47.542355
25.772686 -27.971436 35.220383
27.183764 -26.171164 34.956284
27.462498 -28.455866 34.102104
29.099552 -28.89398 32.919868
30.555868 -29.496696 31.656706
33.654827 -34.673237 26.138134
15.56343 -48.424255 36.399433
15.974066 -50.653397 35.746216
14.517783 -50.033913 36.837872
12.817676 -33.525967 41.271992
14.254022 -33.641109 40.047352
13.218335 -35.418442 40.2519
13.472866 -37.387833 39.483521
13.881431 -39.583118 38.706791
11.543928 -40.611427 40.25988
12.870121 -41.186943 39.134205
14.338027 -41.670246 38.057693
14.726671 -43.777534 37.533619
15.221992 -46.077423 36.940407
27.03953 -37.135147 31.66231
28.212925 -35.439899 31.375671
28.62369 -37.623306 30.284468
30.097157 -37.984341 28.777433
31.362745 -38.179073 27.255095
30.485895 -41.918144 26.211342
31.61861 -40.089977 25.749262
32.687759 -38.40012 25.240002
33.712559 -38.502972 23.285553
24.120596 -27.461843 36.273499
24.361128 -29.708494 35.453709
24.75946 -32.011108 34.558311
24.913034 -34.373871 33.795067
15.706707 -34.048843 38.884552
17.247265 -34.352947 37.847401
18.795759 -34.818424 36.86507
17.974737 -38.652821 36.431816
19.060722 -36.940807 36.214645
20.36759 -35.251957 35.941578
21.991611 -35.785641 34.979374
23.620903 -36.25211 34.001213
25.384773 -36.611649 32.891964
25.750523 -38.943924 32.003899
26.202806 -41.267654 30.977552
26.529257 -43.475842 29.930645
23.767225 -44.815762 31.747849
25.367712 -45.282593 30.30135
26.724962 -45.623184 28.830517
26.981249 -47.681412 27.432142
26.90333 -49.831223 26.103701
7.007197 -42.892204 44.475876
6.728937 -44.359047 44.503403
6.150561 -43.199638 45.553349
11.566424 -33.45573 42.492424
10.632665 -35.040337 42.781651
9.687348 -36.635208 43.180283
8.111146 -35.203182 45.81583
8.480861 -36.774277 44.593193
8.85507 -38.321022 43.530468
8.098502 -40.010303 43.897755
7.522605 -41.531528 44.172234
6.580737 -46.069378 44.344299
4.248085 -49.594437 46.133339
-0.272574 -54.466019 48.584198
28.634573 -24.366972 34.581944
29.964048 -22.694765 34.126045
29.450565 -33.50502 31.11664
30.714132 -31.858543 30.687845
32.008156 -29.9659 30.229122
33.522472 -32.600262 27.430901
33.31144 -30.379469 28.701681
33.166656 -28.051571 29.774673
34.319271 -26.365843 29.064978
14.662986 -31.865122 40.425899
15.262615 -30.952393 40.336565
12.220453 -47.648251 38.802004
12.063023 -46.560339 39.057632
11.887393 -45.445092 39.313148
11.69983 -44.430357 39.581373
11.231551 -45.157801 39.854444
12.063023 -46.560339 39.057632
12.531302 -45.832895 38.784561
11.887393 -45.445092 39.313148
9.322132 -30.783281 46.637535
8.636836 -30.884431 47.517994
9.36821 -31.714262 46.021423
9.322132 -30.783281 46.637535
8.896824 -32.58518 46.150574
9.513105 -32.591904 45.3233
9.36821 -31.714262 46.021423
26.285397 -24.803346 35.878553
25.485838 -24.558454 36.420576
36.028776 -29.152372 25.218768
35.597199 -29.999817 25.602319
36.119803 -30.165405 24.525919
35.963997 -28.150707 25.871471
36.028776 -29.152372 25.218768
9.234625 -45.926623 41.503506
9.661223 -45.309449 41.196196
7.925743 -47.510075 42.593967
8.351942 -47.026094 42.215616
7.861394 -46.564253 42.801726
7.446945 -48.022265 42.979881
7.925743 -47.510075 42.593967
9.661223 -45.309449 41.196196
10.072779 -44.636865 40.899826
9.509168 -44.336752 41.456641
30.164348 -46.839005 22.324792
29.725293 -46.909197 23.367089
29.597676 -47.794069 22.561182
30.753728 -45.822874 22.060279
30.164348 -46.839005 22.324792
19.199815 -53.260332 32.739996
18.46091 -52.992131 33.416573
17.486989 -31.390881 38.64151
17.374139 -30.363998 39.093308
16.750687 -31.19603 39.188473
6.880358 -32.098163 49.362965
7.320524 -31.185424 49.244192
6.46105 -32.967522 49.491585
7.081167 -32.85614 48.617794
6.880358 -32.098163 49.362965
5.181446 -35.625457 50.053833
5.58199 -34.772204 49.864933
5.421321 -36.353956 49.308716
5.181446 -35.625457 50.053833
1.583975 -48.577948 49.791126
2.223553 -48.212248 49.130685
0.876531 -51.74795 48.989656
1.102418 -50.637499 49.348577
0.727795 -52.922962 48.507367
1.384742 -52.471865 48.024645
0.876531 -51.74795 48.989656
34.722676 -35.764925 23.509227
34.249392 -36.661467 23.720208
13.300723 -50.488059 37.586128
12.550138 -50.043864 38.213524
22.066349 -54.252926 29.696329
21.394443 -53.988102 30.550062
15.573982 -52.740613 35.546284
16.140884 -51.875103 35.346691
15.407165 -51.518907 35.945808
22.632485 -28.282198 36.809532
21.873383 -29.178908 36.92172
23.415136 -28.401339 36.350651
23.337944 -27.342703 36.73238
22.632485 -28.282198 36.809532
26.355029 -50.70385 26.325484
26.310097 -49.710783 27.031986
25.761796 -50.58341 27.253768
26.92747 -50.699763 25.311551
26.355029 -50.70385 26.325484
5.342172 -42.879597 46.798845
5.004659 -42.249378 47.503891
11.874939 -30.798223 43.497759
11.234537 -30.795517 44.21934
11.986306 -31.682909 42.931822
11.874939 -30.798223 43.497759
11.433521 -32.578732 43.064043
12.119209 -32.559908 42.360203
11.986306 -31.682909 42.931822
5.965057 -48.391922 44.534111
6.051145 -47.406559 44.699347
5.501022 -47.766418 45.230635
5.896303 -49.401834 44.353288
5.965057 -48.391922 44.534111
4.58022 -51.321445 45.11454
4.455968 -52.496786 44.792234
5.298633 -56.010578 42.378242
4.628647 -56.449267 42.697172
-0.445348 -55.59639 47.972019
-1.044976 -54.896954 49.065291
0.269761 -55.15452 47.593677
-0.445348 -55.59639 47.972019
30.653552 -22.93423 33.537941
30.07269 -23.817878 33.741217
30.762194 -24.057344 33.153113
30.603939 -21.752617 33.867912
30.653552 -22.93423 33.537941
33.426721 -22.718849 31.147519
33.516768 -23.825847 30.745456
35.346853 -25.729982 27.895375
35.877148 -25.964013 26.974694
28.590454 -48.801599 23.857061
28.649212 -47.847038 24.602542
28.081045 -48.784376 24.856123
29.044926 -48.735485 22.830759
28.590454 -48.801599 23.857061
29.597676 -47.794069 22.561182
29.044926 -48.735485 22.830759
17.672967 -52.669381 34.069555
18.46091 -52.992131 33.416573
18.324217 -51.789532 33.853563
15.988374 -31.050599 39.755695
15.262615 -30.952393 40.336565
16.101224 -32.077482 39.303897
16.750687 -31.19603 39.188473
15.988374 -31.050599 39.755695
35.628137 -35.790617 21.344328
35.219694 -35.760935 22.4328
35.142556 -36.681694 21.682302
12.423164 -48.861683 38.495062
12.909644 -48.161575 38.222103
12.220453 -47.648251 38.802004
12.550138 -50.043864 38.213524
12.423164 -48.861683 38.495062
31.487412 -43.04261 23.523657
31.001436 -43.026238 24.543912
30.937227 -43.997726 23.709376
32.005425 -42.151302 23.306016
31.487412 -43.04261 23.523657
32.570169 -41.26946 22.998202
32.116365 -41.189279 24.050379
32.005425 -42.151302 23.306016
33.105227 -40.331503 22.754391
32.570169 -41.26946 22.998202
24.579911 -52.520861 27.652556
25.190202 -51.547237 27.427058
23.960279 -53.50527 27.853707
24.579911 -52.520861 27.652556
23.954044 -52.502407 28.508
23.340133 -54.534273 28.017795
23.960279 -53.50527 27.853707
15.012659 -53.552894 35.702427
14.272399 -53.192817 36.332912
20.329639 -29.912943 37.505264
19.537085 -29.749616 38.007252
21.179873 -30.05062 37.01175
20.329639 -29.912943 37.505264
20.472423 -30.94658 37.101376
22.016167 -30.212546 36.517832
21.873383 -29.178908 36.92172
21.179873 -30.05062 37.01175
25.190202 -51.547237 27.427058
25.761796 -50.58341 27.253768
25.14527 -50.55417 28.13356
5.790001 -41.123442 46.723385
6.079157 -41.767118 46.087772
6.306694 -40.886558 46.053975
5.274669 -41.316133 47.435806
5.790001 -41.123442 46.723385
5.004659 -42.249378 47.503891
5.274669 -41.316133 47.435806
10.642554 -31.71136 44.414906
11.234537 -30.795517 44.21934
10.143987 -32.555781 44.55085
10.80205 -32.546154 43.771607
10.642554 -31.71136 44.414906
9.6726 -33.426699 44.68
10.143987 -32.555781 44.55085
9.513105 -32.591904 45.3233
6.795829 -36.940208 46.895784
7.172548 -36.112476 46.730323
6.617347 -36.132202 47.550214
6.980171 -37.74802 46.263056
6.795829 -36.940208 46.895784
7.189695 -38.502102 45.659422
7.560555 -37.674565 45.472259
6.980171 -37.74802 46.263056
6.859667 -39.295462 45.823689
7.440051 -39.222006 45.032893
7.189695 -38.502102 45.659422
6.563781 -40.129124 45.943373
6.859667 -39.295462 45.823689
6.306694 -40.886558 46.053975
6.852937 -40.772801 45.307761
6.563781 -40.129124 45.943373
4.313117 -53.67691 44.393805
4.455968 -52.496786 44.792234
3.82676 -53.007307 45.172047
4.198936 -54.798645 43.982876
4.828144 -54.288124 43.603064
4.313117 -53.67691 44.393805
3.953843 -56.939614 43.037079
4.628647 -56.449267 42.697172
4.039159 -55.900206 43.532042
31.514007 -24.247501 32.507587
30.762194 -24.057344 33.153113
30.933145 -25.131149 32.710863
32.27593 -24.463995 31.777431
32.104979 -23.390189 32.219681
31.514007 -24.247501 32.507587
33.604444 -25.000678 30.309849
33.516768 -23.825847 30.745456
32.954578 -24.781515 31.053918
35.938423 -27.06431 26.392862
35.480598 -27.900386 26.816558
35.963997 -28.150707 25.871471
35.877148 -25.964013 26.974694
35.938423 -27.06431 26.392862
8.829616 -46.462091 41.838688
9.234625 -45.926623 41.503506
8.692602 -45.544804 42.088192
8.829616 -46.462091 41.838688
8.351942 -47.026094 42.215616
10.634412 -44.876314 40.381025
10.482356 -43.903617 40.64147
10.072779 -44.636865 40.899826
11.231551 -45.157801 39.854444
10.634412 -44.876314 40.381025
30.857584 -44.984116 22.90991
30.937227 -43.997726 23.709376
30.371608 -44.967743 23.930165
30.857584 -44.984116 22.90991
30.753728 -45.822874 22.060279
20.69065 -53.745825 31.296681
21.394443 -53.988102 30.550062
21.314188 -52.889704 31.081722
19.948932 -53.527905 32.053876
19.861277 -52.379855 32.514461
19.199815 -53.260332 32.739996
20.69065 -53.745825 31.296681
19.948932 -53.527905 32.053876
18.05816 -29.469023 38.991661
17.374139 -30.363998 39.093308
18.781211 -29.624589 38.482979
18.05816 -29.469023 38.991661
18.866315 -30.683876 38.070618
19.537085 -29.749616 38.007252
18.781211 -29.624589 38.482979
8.011108 -31.024054 48.338232
7.320524 -31.185424 49.244192
8.126202 -31.84716 47.668936
8.636836 -30.884431 47.517994
8.011108 -31.024054 48.338232
6.002306 -33.892046 49.685389
6.46105 -32.967522 49.491585
6.241542 -34.605655 48.925959
6.002306 -33.892046 49.685389
5.58199 -34.772204 49.864933
6.030926 -36.222873 48.410589
6.617347 -36.132202 47.550214
6.407646 -35.395142 48.245128
6.030926 -36.222873 48.410589
5.421321 -36.353956 49.308716
2.861192 -47.807585 48.517202
3.461523 -47.333567 47.904027
3.019814 -46.706753 48.721903
2.665261 -48.839062 48.312809
2.861192 -47.807585 48.517202
2.223553 -48.212248 49.130685
1.34949 -49.610935 49.558256
1.583975 -48.577948 49.791126
1.78055 -50.270288 48.716613
1.34949 -49.610935 49.558256
1.102418 -50.637499 49.348577
33.709749 -35.672079 25.403887
33.130682 -35.569229 26.365137
33.185604 -36.568071 25.63089
34.183033 -34.775537 25.192906
33.709749 -35.672079 25.403887
34.698 -33.885107 24.913123
34.169794 -33.782806 25.85835
34.183033 -34.775537 25.192906
34.722676 -35.764925 23.509227
35.219694 -35.760935 22.4328
35.172739 -32.990969 24.604053
34.698 -33.885107 24.913123
35.674471 -32.051206 24.269506
35.186493 -31.952613 25.244018
35.172739 -32.990969 24.604053
36.130083 -31.172569 23.863083
35.674471 -32.051206 24.269506
36.119803 -30.165405 24.525919
36.130083 -31.172569 23.863083
14.003436 -50.817511 37.047483
13.815069 -49.70446 37.376516
13.300723 -50.488059 37.586128
14.164676 -51.992763 36.701248
14.679023 -51.209165 36.491636
14.003436 -50.817511 37.047483
14.272399 -53.192817 36.332912
14.164676 -51.992763 36.701248
13.535849 -33.583538 40.659672
14.120542 -32.719651 40.514015
13.402369 -32.66208 41.126335
33.226215 -37.535521 24.954821
33.185604 -36.568071 25.63089
32.647148 -37.432671 25.916071
33.738615 -37.586946 23.977597
33.226215 -37.535521 24.954821
33.200159 -38.451546 24.262777
34.223336 -37.577492 23.028164
34.249392 -36.661467 23.720208
33.738615 -37.586946 23.977597
33.620951 -39.42927 22.525886
33.196834 -39.405205 23.514059
33.105227 -40.331503 22.754391
34.163051 -38.477915 22.225304
33.620951 -39.42927 22.525886
34.673828 -37.552435 21.967914
34.223336 -37.577492 23.028164
34.163051 -38.477915 22.225304
35.142556 -36.681694 21.682302
34.673828 -37.552435 21.967914
22.724564 -54.430343 28.883353
22.676196 -53.309399 29.522126
22.066349 -54.252926 29.696329
23.340133 -54.534273 28.017795
22.724564 -54.430343 28.883353
16.921988 -52.281796 34.726856
16.75517 -51.06009 35.126381
16.140884 -51.875103 35.346691
17.672967 -52.669381 34.069555
16.921988 -52.281796 34.726856
15.573982 -52.740613 35.546284
15.012659 -53.552894 35.702427
24.752922 -25.47653 36.551348
25.485838 -24.558454 36.420576
24.033062 -26.38596 36.663308
23.337944 -27.342703 36.73238
24.840456 -26.552412 36.16154
24.752922 -25.47653 36.551348
24.033062 -26.38596 36.663308
14.796467 -32.78658 39.959236
14.662986 -31.865122 40.425899
14.120542 -32.719651 40.514015
27.462809 -49.78508 25.107172
28.081045 -48.784376 24.856123
27.521566 -48.830519 25.852652
27.462809 -49.78508 25.107172
26.92747 -50.699763 25.311551
5.63622 -43.477415 46.196928
5.856513 -42.60182 46.155266
5.342172 -42.879597 46.798845
5.46437 -44.316069 46.214472
5.978711 -44.038291 45.570892
5.63622 -43.477415 46.196928
4.965585 -44.682282 46.77834
5.308077 -45.243158 46.152304
5.46437 -44.316069 46.214472
4.435156 -44.966149 47.443339
4.965585 -44.682282 46.77834
3.840582 -45.277831 48.139617
4.214719 -45.921053 47.412449
4.435156 -44.966149 47.443339
3.20999 -45.625198 48.904843
3.840582 -45.277831 48.139617
3.019814 -46.706753 48.721903
3.20999 -45.625198 48.904843
12.744835 -32.595026 41.749987
13.402369 -32.66208 41.126335
12.19205 -33.490848 41.882208
12.744835 -32.595026 41.749987
12.119209 -32.559908 42.360203
6.547959 -47.05072 44.173561
6.083924 -46.425217 44.870085
6.051145 -47.406559 44.699347
6.975187 -47.540148 43.59145
7.007966 -46.558806 43.762188
6.547959 -47.05072 44.173561
7.446945 -48.022265 42.979881
6.975187 -47.540148 43.59145
4.719457 -50.205072 45.395972
4.108848 -50.71081 45.851908
4.58022 -51.321445 45.11454
5.302881 -49.783744 44.862001
4.831509 -49.173109 45.599369
4.719457 -50.205072 45.395972
5.896303 -49.401834 44.353288
5.302881 -49.783744 44.862001
5.401304 -54.866473 42.821441
4.828144 -54.288124 43.603064
5.401304 -54.866473 42.821441
5.298633 -56.010578 42.378242
-0.810037 -53.802099 49.579939
-1.044976 -54.896954 49.065291
-0.026494 -53.332533 49.028288
-0.810037 -53.802099 49.579939
0.481716 -54.056448 48.063277
0.727795 -52.922962 48.507367
-0.026494 -53.332533 49.028288
1.024051 -54.744949 47.072756
0.481716 -54.056448 48.063277
0.269761 -55.15452 47.593677
1.573533 -55.446884 46.111468
1.785487 -54.348812 46.581066
1.024051 -54.744949 47.072756
2.109047 -56.143032 45.148388
1.573533 -55.446884 46.111468
2.623741 -56.812935 44.274473
2.849662 -55.72065 44.745863
2.109047 -56.143032 45.148388
3.227237 -57.438503 43.329823
2.623741 -56.812935 44.274473
3.953843 -56.939614 43.037079
3.227237 -57.438503 43.329823
27.097121 -25.067438 35.331905
26.285397 -24.803346 35.878553
26.37204 -25.907073 35.502932
27.822525 -24.165342 35.144735
27.097121 -25.067438 35.331905
27.909168 -25.269068 34.769114
28.535393 -23.294193 34.938026
27.822525 -24.165342 35.144735
29.200131 -22.45809 34.710077
28.535393 -23.294193 34.938026
29.29931 -23.530869 34.353994
29.892242 -21.511637 34.463293
29.200131 -22.45809 34.710077
29.892242 -21.511637 34.463293
30.603939 -21.752617 33.867912
32.75485 -22.473454 31.88476
32.104979 -23.390189 32.219681
32.75485 -22.473454 31.88476
33.426721 -22.718849 31.147519
34.242953 -25.205427 29.533183
33.604444 -25.000678 30.309849
33.680763 -26.161094 29.841645
34.778976 -25.50591 28.75889
34.887148 -26.589916 28.201463
35.346853 -25.729982 27.895375
34.242953 -25.205427 29.533183
34.778976 -25.50591 28.75889
3 0 61 59
3 0 59 62
3 1 67 65
3 235 68 236
3 1 71 69
3 1 65 71
3 2 75 73
3 238 237 76
3 3 80 78
3 239 83 240
3 241 240 81
3 239 240 241
3 242 76 243
3 244 243 83
3 242 243 244
3 5 87 85
3 7 90 89
3 9 92 91
3 9 94 92
3 4 97 95
3 10 100 98
3 10 102 100
3 10 104 102
3 7 107 105
3 7 89 107
3 12 245 246
3 12 247 248
3 12 249 251
3 249 111 250
3 249 250 251
3 11 116 114
3 13 119 117
3 13 121 119
3 8 252 253
3 14 124 122
3 14 126 124
3 6 129 127
3 254 132 255
3 256 255 130
3 254 255 256
3 258 257 132
3 15 259 260
3 16 261 263
3 263 262 60
3 261 262 263
3 16 264 265
3 17 136 134
3 15 137 63
3 15 266 268
3 268 267 137
3 266 267 268
3 19 140 138
3 269 141 270
3 271 270 64
3 269 270 271
3 273 272 141
3 21 144 142
3 275 274 66
3 22 276 278
3 276 145 277
3 276 277 278
3 22 146 145
3 23 149 147
3 25 150 70
3 25 151 150
3 25 153 151
3 21 154 72
3 21 142 154
3 279 155 280
3 281 157 282
3 283 282 155
3 281 282 283
3 284 158 285
3 287 286 158
3 288 160 289
3 290 161 291
3 292 162 293
3 294 293 161
3 292 293 294
3 29 165 163
3 31 166 74
3 31 167 166
3 32 295 296
3 34 171 169
3 298 297 77
3 36 174 172
3 38 175 79
3 38 176 175
3 18 177 135
3 39 178 82
3 39 179 178
3 39 180 179
3 34 181 84
3 34 169 181
3 40 184 182
3 42 185 86
3 42 186 185
3 20 187 139
3 43 188 88
3 43 189 188
3 43 190 189
3 300 299 143
3 35 301 303
3 303 302 170
3 301 302 303
3 44 304 305
3 44 306 308
3 306 191 307
3 306 307 308
3 44 192 191
3 45 193 93
3 45 194 193
3 37 195 173
3 46 196 96
3 46 197 196
3 24 198 148
3 47 199 99
3 47 200 199
3 47 201 200
3 48 202 101
3 48 203 202
3 48 204 203
3 49 205 103
3 49 206 205
3 26 207 152
3 50 208 106
3 50 209 208
3 50 210 209
3 309 211 310
3 311 310 108
3 309 310 311
3 313 312 211
3 51 214 212
3 315 314 109
3 53 316 317
3 53 318 319
3 53 320 322
3 320 215 321
3 320 321 322
3 54 216 110
3 54 217 216
3 27 218 156
3 55 219 112
3 55 220 219
3 55 221 220
3 51 222 113
3 51 212 222
3 52 223 213
3 56 323 325
3 325 324 115
3 323 324 325
3 56 326 327
3 28 224 159
3 329 328 118
3 331 330 120
3 332 225 333
3 335 334 225
3 30 226 164
3 336 227 337
3 338 337 123
3 336 337 338
3 340 339 227
3 342 341 125
3 41 228 183
3 57 229 128
3 57 230 229
3 33 231 168
3 58 232 131
3 58 233 232
3 58 234 233
3 344 343 133
3 59 60 15
3 61 60 59
3 61 16 60
3 62 63 17
3 59 63 62
3 59 15 63
3 345 64 346
3 347 346 19
3 345 346 347
3 348 64 349
3 351 350 64
3 65 66 21
3 67 66 65
3 67 352 354
3 354 353 66
3 352 353 354
3 68 355 356
3 68 357 359
3 357 22 358
3 357 358 359
3 69 70 23
3 71 70 69
3 71 25 70
3 71 72 25
3 65 72 71
3 65 21 72
3 73 74 29
3 75 74 73
3 75 31 74
3 362 361 32
3 360 361 362
3 76 77 34
3 363 77 364
3 365 364 76
3 363 364 365
3 367 366 77
3 78 79 36
3 80 79 78
3 80 38 79
3 81 82 18
3 83 82 81
3 83 39 82
3 83 84 39
3 76 84 83
3 76 34 84
3 85 86 40
3 87 86 85
3 87 42 86
3 368 88 369
3 370 369 20
3 368 369 370
3 371 88 372
3 373 43 374
3 375 374 88
3 373 374 375
3 377 376 43
3 89 378 379
3 90 380 382
3 382 381 89
3 380 381 382
3 90 383 384
3 386 385 35
3 91 387 388
3 92 389 391
3 391 390 91
3 389 390 391
3 92 392 394
3 392 44 393
3 392 393 394
3 92 93 44
3 94 93 92
3 94 45 93
3 95 96 37
3 97 96 95
3 97 46 96
3 98 99 24
3 100 99 98
3 100 47 99
3 100 101 47
3 102 101 100
3 102 48 101
3 102 103 48
3 104 103 102
3 104 49 103
3 105 106 26
3 107 106 105
3 107 50 106
3 107 108 50
3 89 108 107
3 89 395 397
3 397 396 108
3 395 396 397
3 398 109 399
3 400 399 51
3 398 399 400
3 401 109 402
3 404 403 109
3 405 53 406
3 407 110 408
3 409 408 53
3 407 408 409
3 111 410 412
3 410 110 411
3 410 411 412
3 111 54 110
3 413 112 414
3 415 414 27
3 413 414 415
3 416 112 417
3 418 55 419
3 420 419 112
3 418 419 420
3 421 113 422
3 423 422 55
3 421 422 423
3 424 113 425
3 426 51 427
3 428 427 113
3 426 427 428
3 114 115 52
3 116 115 114
3 116 56 115
3 117 118 28
3 119 118 117
3 119 429 431
3 431 430 118
3 429 430 431
3 119 432 434
3 432 120 433
3 432 433 434
3 121 120 119
3 121 435 437
3 437 436 120
3 435 436 437
3 122 123 30
3 124 123 122
3 124 438 440
3 440 439 123
3 438 439 440
3 124 441 443
3 441 125 442
3 441 442 443
3 126 125 124
3 126 444 446
3 446 445 125
3 444 445 446
3 127 128 41
3 129 128 127
3 129 57 128
3 130 131 33
3 132 131 130
3 132 58 131
3 132 133 58
3 447 133 448
3 449 448 132
3 447 448 449
3 451 450 133
3 60 452 454
3 454 453 15
3 452 453 454
3 456 455 60
3 134 135 3
3 136 135 134
3 136 18 135
3 63 136 17
3 137 136 63
3 137 18 136
3 137 81 18
3 457 81 458
3 459 458 137
3 457 458 459
3 461 460 81
3 138 139 5
3 140 139 138
3 140 20 139
3 64 140 19
3 141 140 64
3 141 20 140
3 141 462 464
3 464 463 20
3 462 463 464
3 466 465 141
3 142 143 7
3 144 143 142
3 144 467 469
3 469 468 143
3 467 468 469
3 66 144 21
3 470 144 471
3 472 471 66
3 470 471 472
3 474 473 144
3 145 475 476
3 145 477 478
3 145 479 481
3 479 91 480
3 479 480 481
3 146 91 145
3 146 9 91
3 147 148 4
3 149 148 147
3 149 24 148
3 70 149 23
3 150 149 70
3 150 24 149
3 150 98 24
3 151 98 150
3 151 10 98
3 151 152 10
3 153 152 151
3 153 26 152
3 72 153 25
3 154 153 72
3 154 26 153
3 154 105 26
3 142 105 154
3 142 7 105
3 155 482 483
3 155 484 486
3 484 12 485
3 484 485 486
3 155 156 12
3 157 156 155
3 157 27 156
3 487 157 488
3 158 489 491
3 489 157 490
3 489 490 491
3 158 27 157
3 158 492 494
3 494 493 27
3 492 493 494
3 496 495 158
3 497 159 498
3 499 498 11
3 497 498 499
3 160 500 502
3 500 159 501
3 500 501 502
3 160 28 159
3 503 160 504
3 161 505 507
3 505 160 506
3 505 506 507
3 161 28 160
3 161 117 28
3 162 117 161
3 162 13 117
3 163 164 8
3 165 164 163
3 165 30 164
3 74 165 29
3 166 165 74
3 166 30 165
3 166 122 30
3 167 122 166
3 167 14 122
3 508 168 509
3 510 509 6
3 508 509 510
3 511 168 512
3 513 33 514
3 515 514 168
3 513 514 515
3 517 516 32
3 518 33 519
3 520 130 521
3 522 521 33
3 520 521 522
3 523 130 524
3 526 525 130
3 169 170 1
3 171 170 169
3 171 35 170
3 77 171 34
3 527 171 528
3 529 528 77
3 527 528 529
3 530 35 531
3 532 531 171
3 530 531 532
3 534 533 35
3 172 535 537
3 535 173 536
3 535 536 537
3 174 173 172
3 174 37 173
3 79 174 36
3 175 174 79
3 175 37 174
3 175 95 37
3 176 95 175
3 176 4 95
3 135 80 3
3 177 80 135
3 177 38 80
3 82 177 18
3 178 177 82
3 178 38 177
3 178 176 38
3 179 176 178
3 179 4 176
3 179 147 4
3 180 147 179
3 180 23 147
3 84 180 39
3 181 180 84
3 181 23 180
3 181 69 23
3 169 69 181
3 169 1 69
3 182 183 2
3 184 183 182
3 184 41 183
3 86 184 40
3 185 184 86
3 185 41 184
3 185 127 41
3 186 127 185
3 186 6 127
3 139 87 5
3 187 87 139
3 187 42 87
3 88 187 20
3 188 187 88
3 188 42 187
3 188 186 42
3 189 186 188
3 189 6 186
3 189 538 540
3 540 539 6
3 538 539 540
3 190 541 543
3 543 542 189
3 541 542 543
3 190 544 546
3 544 32 545
3 544 545 546
3 547 190 548
3 549 548 43
3 547 548 549
3 550 190 551
3 552 32 553
3 554 553 190
3 552 553 554
3 556 555 32
3 143 90 7
3 557 90 558
3 559 558 143
3 557 558 559
3 561 560 90
3 170 67 1
3 562 67 563
3 564 563 170
3 562 563 564
3 566 565 67
3 568 567 35
3 569 8 570
3 191 571 572
3 191 573 575
3 573 8 574
3 573 574 575
3 191 163 8
3 192 163 191
3 192 29 163
3 93 192 44
3 193 192 93
3 193 29 192
3 193 73 29
3 194 73 193
3 194 2 73
3 173 576 578
3 576 68 577
3 576 577 578
3 195 68 173
3 195 22 68
3 96 195 37
3 196 195 96
3 196 22 195
3 196 146 22
3 197 146 196
3 197 9 146
3 148 97 4
3 198 97 148
3 198 46 97
3 99 198 24
3 199 198 99
3 199 46 198
3 199 197 46
3 200 197 199
3 200 9 197
3 200 94 9
3 201 94 200
3 201 45 94
3 101 201 47
3 202 201 101
3 202 45 201
3 202 194 45
3 203 194 202
3 203 2 194
3 203 182 2
3 204 182 203
3 204 40 182
3 103 204 48
3 205 204 103
3 205 40 204
3 205 85 40
3 206 85 205
3 206 5 85
3 152 104 10
3 207 104 152
3 207 49 104
3 106 207 26
3 208 207 106
3 208 49 207
3 208 206 49
3 209 206 208
3 209 5 206
3 209 138 5
3 210 138 209
3 210 19 138
3 108 210 50
3 211 210 108
3 211 19 210
3 211 579 581
3 581 580 19
3 579 580 581
3 583 582 211
3 212 213 0
3 214 213 212
3 214 52 213
3 109 214 51
3 584 214 585
3 586 585 109
3 584 585 586
3 587 52 588
3 589 588 214
3 587 588 589
3 590 114 591
3 592 591 52
3 590 591 592
3 593 114 594
3 595 11 596
3 597 596 114
3 595 596 597
3 598 11 599
3 601 600 11
3 602 172 603
3 215 604 606
3 604 172 605
3 604 605 606
3 215 36 172
3 110 215 53
3 216 215 110
3 216 36 215
3 216 78 36
3 217 78 216
3 217 3 78
3 156 111 12
3 218 111 156
3 218 54 111
3 112 218 27
3 219 218 112
3 219 54 218
3 219 217 54
3 220 217 219
3 220 3 217
3 220 134 3
3 221 134 220
3 221 17 134
3 113 221 55
3 222 221 113
3 222 17 221
3 222 62 17
3 212 62 222
3 212 0 62
3 213 61 0
3 223 61 213
3 223 16 61
3 115 223 52
3 607 223 608
3 609 608 115
3 607 608 609
3 610 16 611
3 612 611 223
3 610 611 612
3 614 613 16
3 159 116 11
3 224 116 159
3 224 56 116
3 118 224 28
3 615 224 616
3 617 616 118
3 615 616 617
3 618 56 619
3 620 619 224
3 618 619 620
3 622 621 56
3 120 623 624
3 626 625 120
3 225 627 628
3 225 629 630
3 225 631 633
3 631 162 632
3 631 632 633
3 634 162 635
3 636 635 225
3 634 635 636
3 637 13 638
3 639 638 162
3 637 638 639
3 640 13 641
3 642 121 643
3 644 643 13
3 642 643 644
3 645 121 646
3 648 647 121
3 164 649 651
3 651 650 8
3 649 650 651
3 226 652 654
3 654 653 164
3 652 653 654
3 226 655 656
3 123 226 30
3 227 226 123
3 227 657 659
3 659 658 226
3 657 658 659
3 227 660 661
3 663 662 227
3 125 664 665
3 667 666 125
3 183 75 2
3 228 75 183
3 228 31 75
3 128 228 41
3 229 228 128
3 229 31 228
3 229 167 31
3 230 167 229
3 230 14 167
3 168 129 6
3 231 129 168
3 231 57 129
3 131 231 33
3 232 231 131
3 232 57 231
3 232 230 57
3 233 230 232
3 233 14 230
3 233 126 14
3 234 126 233
3 234 668 670
3 670 669 126
3 668 669 670
3 133 234 58
3 671 234 672
3 673 672 133
3 671 672 673
3 675 674 234
