ply
format ascii 1.0
element vertex 694
property float x
property float y
property float z
element face 758
property list uchar int vertex_index
end_header
6.100946 -75.283157 -43.880764
9.554511 8.075827 -70.306602
6.733288 -21.913244 -57.417297
-2.884538 -57.549728 -44.318584
16.068132 -40.252865 -53.615582
-4.579156 -45.625961 -44.407036
3.057129 -39.254333 -50.354649
21.987591 -46.646782 -50.853413
11.57533 -58.518627 -48.21051
10.864136 20.285072 -72.447449
15.264122 -0.494245 -68.806
8.444925 -5.943151 -64.610107
13.444701 -14.923699 -62.546486
0.713821 -67.793343 -44.556896
6.784005 -49.827591 -49.415119
10.959805 -31.836931 -55.518749
18.9021 -22.793791 -60.080601
12.07366 -69.544136 -44.953602
14.557706 -61.259823 -47.250092
8.918941 -67.015022 -46.026371
11.487254 25.177601 -71.647552
8.979717 1.260642 -67.753761
11.687537 -3.086766 -67.057777
12.4468 4.107905 -69.988068
-1.217598 -62.793388 -44.502861
3.956108 -58.907135 -46.86668
1.827839 -54.057178 -46.934647
5.09691 -30.57962 -53.699284
7.097048 -35.729259 -53.045143
8.777035 -26.831591 -56.532738
12.412229 -23.045351 -59.037655
10.117143 -18.293949 -60.231071
19.035744 -43.696529 -52.434822
23.585749 -37.930248 -53.811813
20.670744 -34.879635 -55.424686
17.777033 -31.291735 -56.784306
-3.911883 -51.66251 -44.358181
0.247922 -48.342819 -47.145363
-0.910508 -42.824429 -47.39175
1.570055 -34.047184 -50.684971
19.818455 -55.50359 -48.069241
16.792009 -52.575684 -49.724289
13.970145 -49.30135 -50.766426
3.606487 -82.558197 -41.735592
10.216121 14.571643 -71.984024
14.843111 22.177109 -73.008018
13.973381 16.75271 -73.140541
13.206937 10.791758 -72.094757
17.751371 -5.157186 -67.219872
7.778534 -13.745371 -61.080441
10.916636 -10.413039 -63.747574
14.284958 -7.527386 -65.832588
16.96113 -11.658252 -64.498337
0.3017 -79.968269 -42.357159
-2.482189 -76.163712 -42.414017
3.291743 -71.915138 -44.489082
6.355738 -63.151051 -46.654583
9.086836 -54.36895 -48.939476
11.473126 -45.518597 -51.529053
4.75309 -44.73962 -49.840061
9.055471 -40.765041 -52.2798
13.364879 -36.351845 -54.576813
14.957343 -27.261711 -57.975075
16.020559 -19.132427 -61.28178
19.495026 -15.325809 -63.141148
7.825049 -76.527367 -43.333401
9.038397 -72.532494 -44.469589
10.450859 -68.557266 -45.524544
7.514924 -71.139153 -44.974503
9.354028 4.651549 -69.147461
10.673654 2.726273 -68.988991
10.917172 6.120985 -70.228783
-4.952558 -58.433407 -43.106968
-1.985681 -60.041 -44.487419
0.281168 -58.451004 -45.666817
-0.543482 -55.513336 -45.700871
5.924092 -26.152817 -55.529606
6.920376 -28.525734 -55.208832
7.669884 -24.310488 -56.989151
9.391181 -22.519838 -58.330372
8.420417 -20.092274 -58.878487
17.474382 -42.163548 -53.025089
19.749537 -39.361832 -53.879433
18.372089 -37.687775 -54.528343
19.111776 -33.531048 -55.993645
16.889463 -35.846832 -55.13018
-6.277355 -46.531689 -42.886848
-6.174724 -49.634254 -42.884407
-5.872509 -52.672245 -42.954582
-4.352693 -48.686481 -44.341534
-2.356387 -47.093464 -45.8587
-2.776134 -44.15942 -45.93425
-0.108983 -35.705635 -49.13435
2.553969 -29.582937 -52.443626
13.107967 -59.764748 -47.85656
15.721155 -56.883976 -48.479774
14.286835 -55.33313 -49.066299
15.452662 -50.875393 -50.33342
12.794396 -53.827404 -49.474178
8.69834 15.990751 -71.439857
10.420907 17.503395 -72.324684
14.607234 8.547564 -71.720741
7.292809 -4.068388 -64.737686
6.617887 -11.627822 -61.270111
8.208015 -9.972773 -62.825352
9.387981 -12.095975 -62.482315
9.734975 -8.125635 -64.279411
13.381606 -1.463587 -68.128799
12.980823 -5.151319 -66.547867
14.679812 -3.811411 -67.43058
16.010542 -6.296233 -66.612495
16.575172 -2.989737 -67.982727
-1.767084 -69.530838 -43.500706
-0.726491 -71.994148 -43.539921
0.462739 -74.060356 -43.546906
1.858765 -69.923691 -44.553291
4.643038 -67.717415 -45.502201
3.480265 -65.586159 -45.637703
5.346334 -54.23542 -48.111568
6.537027 -56.510445 -47.976276
7.823985 -52.256229 -49.153854
10.131048 -50.053638 -50.128834
9.148494 -47.508476 -50.554096
1.626958 -44.079948 -48.608829
2.568639 -46.480339 -48.576138
3.772247 -42.156319 -50.017494
8.989397 -33.63028 -54.349937
8.071516 -38.321777 -52.650246
10.039312 -36.126534 -53.899845
11.209859 -38.490673 -53.485329
12.14874 -34.195538 -55.040752
14.310564 -31.876041 -56.226074
12.971775 -29.731743 -56.721954
12.915442 -18.960501 -60.768799
14.202544 -21.045616 -60.21114
14.753943 -16.991606 -61.949707
16.494299 -15.100729 -63.000267
15.222467 -13.234303 -63.593697
20.941641 -16.703972 -62.554642
19.223537 -18.788105 -61.705647
-4.734184 -42.61866 -44.441265
-3.085865 -41.418121 -45.978622
14.756147 -67.011429 -45.197376
16.07761 -62.680134 -46.445267
13.234561 -65.571053 -46.069195
11.658593 -64.270844 -46.667229
10.219929 -62.859901 -47.082733
7.532007 -0.42677 -66.330643
8.725087 -2.221824 -66.269264
9.991348 -4.330706 -65.966614
10.34918 -0.630186 -67.59919
11.988064 0.549106 -68.581657
13.79915 1.719429 -69.416504
-2.73891 -67.025787 -43.398121
-0.212936 -65.21833 -44.587593
2.329852 -63.322826 -45.686634
1.329421 -60.747746 -45.742386
2.913883 -56.455856 -46.951649
4.288744 -51.982033 -48.205414
4.105123 -34.789661 -51.997036
4.989758 -37.714027 -51.639008
6.013562 -33.152027 -53.363853
7.829635 -31.351505 -54.661076
9.879539 -29.056679 -56.134983
11.817808 -27.253681 -57.324623
10.654131 -24.766039 -57.904034
11.196833 -20.739254 -59.606697
11.776877 -16.582741 -61.442326
20.384369 -45.476707 -51.637829
22.72595 -42.260281 -52.346973
21.284252 -40.844341 -53.166439
21.209846 -30.685802 -56.955624
19.799265 -29.040844 -57.651985
18.299976 -26.990986 -58.415894
-5.520941 -55.718002 -42.979004
-3.252798 -54.292408 -44.473579
-1.245034 -52.795891 -45.727772
-1.860472 -49.915653 -45.785557
-0.379221 -45.598507 -47.266052
1.036837 -41.121704 -48.876022
-1.313932 -39.925663 -47.551521
0.330239 -38.432556 -48.95723
2.220126 -36.747993 -50.483742
3.319237 -32.153351 -52.267712
4.274629 -27.901854 -54.049484
20.789097 -51.141479 -49.461407
17.203476 -58.245487 -47.758862
18.349556 -54.115433 -48.961815
19.311781 -49.985107 -50.228905
17.920269 -48.198322 -51.028065
16.504154 -46.522827 -51.641525
15.112739 -44.835297 -52.132511
4.861599 -78.962578 -42.846264
9.820934 11.402649 -71.260742
13.103064 23.788528 -72.47612
12.756059 21.28813 -72.873337
12.357868 18.475513 -72.93972
12.005651 15.68692 -72.69294
11.597817 12.632896 -72.122688
11.283685 9.559198 -71.33812
12.674148 7.654695 -71.167068
14.195891 5.378591 -70.734406
15.61688 2.816735 -70.036163
4.232501 -21.392334 -56.069374
5.702363 -19.705376 -57.63929
7.269623 -17.940706 -59.176003
8.836547 -16.204605 -60.580193
10.497057 -14.3471 -61.963619
12.12452 -12.723837 -63.139534
11.341002 -6.665893 -65.465897
12.573281 -8.974834 -64.839996
13.922001 -11.152685 -64.230782
15.66815 -9.80503 -65.109627
17.292837 -8.488846 -65.85128
18.449503 -10.364349 -65.169319
0.460217 -85.037506 -40.968174
1.809579 -81.559692 -42.088547
3.09022 -77.789627 -43.170517
1.907869 -75.723915 -43.51627
4.644066 -73.825943 -44.235687
6.029855 -69.629295 -45.288635
7.349791 -65.45446 -46.315037
8.904506 -60.930973 -47.459866
5.006652 -61.259529 -46.732525
7.638885 -58.757885 -47.749413
10.28518 -56.344437 -48.65358
11.563787 -51.821327 -49.894703
12.638331 -47.501801 -51.156498
13.798998 -42.640766 -52.68235
1.061433 -51.084671 -47.081593
3.364985 -49.24321 -48.377678
5.690564 -47.264706 -49.631397
5.99103 -40.263908 -51.386536
6.947749 -42.643188 -51.129894
8.008877 -45.365128 -50.787418
10.374434 -42.868744 -52.036835
12.544366 -40.742317 -53.073925
14.77583 -38.104649 -54.203793
15.605727 -33.777695 -55.739498
16.272509 -29.468578 -57.336975
16.972197 -25.328871 -58.958233
13.692744 -25.160751 -58.527248
15.570946 -23.24168 -59.58844
17.411747 -21.276392 -60.585995
17.77096 -17.200422 -62.270393
18.130806 -13.523439 -63.827457
9.454269 6.363688 -69.727032
8.689464 5.563752 -69.108204
8.789706 7.275891 -69.687774
-3.611348 -59.498486 -43.752719
-4.645358 -59.940325 -43.146912
-3.918548 -57.991568 -43.712776
-2.43511 -58.795364 -44.403002
-3.161919 -60.744121 -43.837137
-3.611348 -59.498486 -43.752719
9.873469 19.603516 -72.039395
10.042756 20.885174 -72.023258
10.642522 18.894233 -72.386066
9.651855 18.212677 -71.978012
9.873469 19.603516 -72.039395
7.748359 -6.854913 -63.84876
7.172301 -5.917531 -63.91255
7.868867 -5.005769 -64.673896
8.32647 -7.957962 -63.71773
7.629905 -8.869724 -62.956383
7.748359 -6.854913 -63.84876
23.131469 -45.140286 -51.103313
22.617859 -47.418997 -50.349049
19.763846 -21.641015 -60.548338
19.571227 -23.744234 -59.708199
19.062818 -20.790948 -60.893124
19.924565 -19.638172 -61.360861
19.763846 -21.641015 -60.548338
-4.781092 -41.000982 -44.440416
-5.492091 -43.025753 -43.683642
-4.04283 -40.526592 -45.213017
-4.781092 -41.000982 -44.440416
12.753113 -70.224403 -44.51557
11.320935 -71.599521 -44.386123
13.414904 -68.277783 -45.075489
14.094356 -68.95805 -44.637457
12.753113 -70.224403 -44.51557
10.52966 24.630993 -71.431622
10.670134 25.832404 -71.052727
11.26325 23.97992 -71.908035
10.52966 24.630993 -71.431622
8.255862 0.416936 -67.042202
7.663206 1.415509 -67.095753
8.387061 2.259215 -67.807312
-1.978254 -64.909588 -43.950491
-3.238602 -65.736755 -43.307
-2.477946 -63.620555 -43.859369
21.320957 -35.679369 -55.050427
20.860353 -37.920468 -54.2778
20.210141 -37.120734 -54.65206
21.729487 -33.45829 -55.834606
21.320957 -35.679369 -55.050427
20.940295 -32.782719 -56.190155
21.999038 -31.361373 -56.600075
21.729487 -33.45829 -55.834606
-1.513978 -38.511093 -47.582691
-2.199899 -40.671892 -46.765072
-2.399945 -39.257322 -46.796242
3.845463 -26.730294 -54.113657
3.414299 -28.742396 -53.246555
2.985132 -27.570836 -53.310728
4.634062 -25.85959 -54.915605
3.845463 -26.730294 -54.113657
21.080592 -53.922196 -48.263784
20.512814 -56.072281 -47.580809
20.303776 -53.322535 -48.765324
21.565913 -51.74114 -48.959868
21.080592 -53.922196 -48.263784
5.054487 -81.415024 -41.967726
4.325375 -83.225987 -41.367985
4.234043 -80.760388 -42.290928
5.682043 -79.617214 -42.523062
5.054487 -81.415024 -41.967726
9.335106 13.782052 -71.449635
8.576216 14.491606 -71.177551
9.45723 15.281197 -71.71194
10.018527 12.987146 -71.622383
9.137513 12.197555 -71.087993
9.335106 13.782052 -71.449635
13.973088 22.982819 -72.742069
14.133436 24.214883 -72.448986
15.003459 23.409174 -72.714935
14.169115 18.224721 -73.183701
15.026421 17.208783 -73.215271
13.165624 17.614111 -73.040131
13.361358 19.086123 -73.08329
14.169115 18.224721 -73.183701
12.402377 11.712327 -72.108722
12.54848 13.146173 -72.417393
13.35304 12.225604 -72.403427
15.177975 5.749532 -70.936223
14.401563 6.963077 -71.227574
15.383647 7.334019 -71.42939
15.888469 4.468604 -70.587101
14.906385 4.097663 -70.385285
15.177975 5.749532 -70.936223
4.526381 -19.317916 -56.994591
3.835765 -20.274495 -56.110264
5.261312 -18.474437 -57.779549
4.967432 -20.548855 -56.854332
4.526381 -19.317916 -56.994591
7.030559 -14.713325 -60.284619
6.450235 -13.65455 -60.379453
7.198211 -12.686597 -61.175276
7.524078 -15.843038 -60.128222
6.776103 -16.810992 -59.3324
7.030559 -14.713325 -60.284619
18.298882 -6.377129 -66.76273
18.069615 -8.042959 -66.078434
17.522104 -6.823016 -66.535576
-1.116483 -86.056816 -40.521633
-0.199644 -86.75737 -40.340471
1.05564 -80.763981 -42.222853
0.256672 -82.620956 -41.656904
-0.497267 -81.825244 -41.791211
-3.797516 -76.868935 -41.863947
-2.911957 -74.846859 -42.434616
-3.264678 -78.096153 -41.88122
-3.797516 -76.868935 -41.863947
-1.769929 -77.096936 -42.455376
-3.264678 -78.096153 -41.88122
24.353331 -38.689725 -53.295446
23.923431 -40.854742 -52.563026
23.15585 -40.095264 -53.079393
20.241784 -14.219065 -63.586344
20.965091 -14.908147 -63.293091
20.218333 -16.01489 -62.847895
19.541277 -13.587601 -63.866411
20.241784 -14.219065 -63.586344
9.19663 -75.091137 -43.576023
8.591309 -77.079647 -42.95995
9.803304 -73.0937 -44.144117
9.19663 -75.091137 -43.576023
8.431723 -74.529931 -43.901495
10.556029 -71.038315 -44.711596
11.320935 -71.599521 -44.386123
9.803304 -73.0937 -44.144117
11.666835 26.304312 -71.203002
10.670134 25.832404 -71.052727
8.574216 3.954669 -68.504162
8.689464 5.563752 -69.108204
9.166873 2.956095 -68.450611
8.387061 2.259215 -67.807312
8.574216 3.954669 -68.504162
-5.759828 -60.637867 -42.468611
-5.995356 -59.080174 -42.416256
-5.759828 -60.637867 -42.468611
-4.645358 -59.940325 -43.146912
-2.861987 -62.244361 -43.851648
-3.161919 -60.744121 -43.837137
-1.60164 -61.417194 -44.49514
-2.477946 -63.620555 -43.859369
-2.861987 -62.244361 -43.851648
-7.044657 -48.495317 -42.158934
-7.034262 -46.964735 -42.14402
-6.993342 -50.0466 -42.157713
-7.044657 -48.495317 -42.158934
-6.22604 -48.082971 -42.885627
-6.941607 -51.667883 -42.189028
-6.993342 -50.0466 -42.157713
-6.023617 -51.15325 -42.919494
-6.790499 -53.186878 -42.224115
-6.941607 -51.667883 -42.189028
-0.338707 -34.297657 -49.172245
-0.911504 -36.401079 -48.374105
0.431083 -33.499515 -49.984821
-0.338707 -34.297657 -49.172245
1.270601 -32.670289 -50.760132
0.730536 -34.87641 -49.909661
0.431083 -33.499515 -49.984821
1.762558 -30.438166 -51.63946
2.062012 -31.815061 -51.564298
1.270601 -32.670289 -50.760132
2.224254 -28.406467 -52.484859
1.762558 -30.438166 -51.63946
2.985132 -27.570836 -53.310728
2.224254 -28.406467 -52.484859
19.235165 -57.58997 -47.439321
20.512814 -56.072281 -47.580809
2.914265 -84.367275 -41.106373
4.325375 -83.225987 -41.367985
8.790571 17.456355 -71.535598
8.006686 16.617561 -71.049847
9.559624 16.747073 -71.882271
8.790571 17.456355 -71.535598
9.651855 18.212677 -71.978012
15.893539 22.536715 -72.905018
15.003459 23.409174 -72.714935
14.755689 15.710255 -73.089664
15.026421 17.208783 -73.215271
13.736262 15.206081 -72.926319
14.755689 15.710255 -73.089664
14.181435 11.22375 -72.303108
13.35304 12.225604 -72.403427
14.881584 10.101653 -72.1161
13.907086 9.669661 -71.907749
14.181435 11.22375 -72.303108
15.612927 9.009805 -71.891514
14.881584 10.101653 -72.1161
15.383647 7.334019 -71.42939
15.612927 9.009805 -71.891514
6.619497 -4.871412 -63.955568
6.735079 -3.091408 -64.746814
6.619497 -4.871412 -63.955568
7.172301 -5.917531 -63.91255
6.834841 -9.697249 -62.178763
6.183968 -10.413491 -61.451364
7.412951 -10.800297 -62.047731
6.834841 -9.697249 -62.178763
7.629905 -8.869724 -62.956383
-1.178454 -80.837581 -41.89189
-0.497267 -81.825244 -41.791211
-2.554404 -71.530422 -42.977961
-3.041974 -70.291043 -42.912058
-2.034108 -72.762077 -42.997568
-2.554404 -71.530422 -42.977961
-1.246787 -70.762493 -43.520314
-1.60434 -74.07893 -42.976969
-2.911957 -74.846859 -42.434616
-2.034108 -72.762077 -42.997568
24.724792 -36.441114 -54.094801
23.909599 -35.776032 -54.580118
20.783617 -18.596106 -61.785359
21.7051 -17.355319 -62.228014
20.082589 -17.746039 -62.130145
20.783617 -18.596106 -61.785359
19.924565 -19.638172 -61.360861
-6.263676 -44.982267 -42.906433
-7.034262 -46.964735 -42.14402
-5.505769 -44.575175 -43.664057
-6.263676 -44.982267 -42.906433
-5.492091 -43.025753 -43.683642
-3.218671 -39.926323 -45.981695
-3.910025 -42.01839 -45.209944
-4.04283 -40.526592 -45.213017
-2.399945 -39.257322 -46.796242
-3.218671 -39.926323 -45.981695
15.516606 -67.458493 -44.743189
14.094356 -68.95805 -44.637457
16.147201 -65.413102 -45.364193
15.516606 -67.458493 -44.743189
15.416878 -64.845782 -45.821321
16.807932 -63.247454 -45.988139
16.147201 -65.413102 -45.364193
10.951691 21.533655 -72.307984
10.042756 20.885174 -72.023258
7.005235 0.575081 -66.359745
7.663206 1.415509 -67.095753
6.854678 -1.270599 -65.543293
7.005235 0.575081 -66.359745
7.412408 -2.247579 -65.534165
6.735079 -3.091408 -64.746814
6.854678 -1.270599 -65.543293
-4.013736 -67.854691 -42.746783
-3.238602 -65.736755 -43.307
-3.527887 -69.038517 -42.860765
-4.013736 -67.854691 -42.746783
-2.252997 -68.278312 -43.449414
-3.041974 -70.291043 -42.912058
-3.527887 -69.038517 -42.860765
21.62771 -38.661722 -53.921303
20.516894 -40.103087 -53.522936
20.860353 -37.920468 -54.2778
22.778459 -37.204676 -54.24399
22.435001 -39.387294 -53.489126
21.62771 -38.661722 -53.921303
23.909599 -35.776032 -54.580118
22.778459 -37.204676 -54.24399
22.269042 -29.335145 -57.356318
21.999038 -31.361373 -56.600075
21.498362 -28.472013 -57.793621
22.269042 -29.335145 -57.356318
20.793071 -27.649534 -58.141801
21.498362 -28.472013 -57.793621
20.504555 -29.863323 -57.303804
20.019809 -26.86776 -58.493891
20.793071 -27.649534 -58.141801
19.270164 -25.842831 -58.875845
20.019809 -26.86776 -58.493891
19.04962 -28.015915 -58.03394
18.601038 -24.892388 -59.248248
19.571227 -23.744234 -59.708199
19.270164 -25.842831 -58.875845
8.872468 8.990978 -70.211277
8.789706 7.275891 -69.687774
-6.688136 -54.697186 -42.254423
-6.790499 -53.186878 -42.224115
-6.512352 -56.220064 -42.266634
-6.688136 -54.697186 -42.254423
-5.696725 -54.195123 -42.966793
-6.279547 -57.722471 -42.352274
-6.512352 -56.220064 -42.266634
-5.23675 -57.075705 -43.042986
-5.995356 -59.080174 -42.416256
-6.279547 -57.722471 -42.352274
-0.711458 -37.815649 -48.342935
-1.513978 -38.511093 -47.582691
-0.911504 -36.401079 -48.374105
5.458794 -24.985072 -55.655666
5.09936 -27.027335 -54.789545
4.634062 -25.85959 -54.915605
5.863392 -22.865285 -56.599512
6.32869 -24.03303 -56.473451
5.458794 -24.985072 -55.655666
22.018612 -49.666345 -49.653046
21.565913 -51.74114 -48.959868
21.388344 -48.894131 -50.15741
22.617859 -47.418997 -50.349049
22.018612 -49.666345 -49.653046
17.364742 -61.178242 -46.627335
16.807932 -63.247454 -45.988139
17.927675 -58.960918 -47.284132
17.364742 -61.178242 -46.627335
16.640543 -60.462811 -47.102064
18.510965 -56.874538 -47.914051
19.235165 -57.58997 -47.439321
17.927675 -58.960918 -47.284132
7.163768 -78.399609 -42.766631
8.591309 -77.079647 -42.95995
6.343324 -77.744972 -43.089832
7.163768 -78.399609 -42.766631
5.682043 -79.617214 -42.523062
7.924016 15.193091 -70.878597
8.006686 16.617561 -71.049847
7.924016 15.193091 -70.878597
8.576216 14.491606 -71.177551
9.005679 10.654389 -70.688347
9.137513 12.197555 -71.087993
9.687722 9.739238 -70.783672
8.872468 8.990978 -70.211277
9.005679 10.654389 -70.688347
12.526066 25.745331 -71.659126
11.666835 26.304312 -71.203002
13.333971 25.050795 -72.07341
14.133436 24.214883 -72.448986
12.295159 24.483064 -72.061836
12.526066 25.745331 -71.659126
13.333971 25.050795 -72.07341
12.071155 23.285383 -72.322319
11.26325 23.97992 -71.908035
12.295159 24.483064 -72.061836
11.897652 22.035184 -72.520927
12.071155 23.285383 -72.322319
12.929562 22.538329 -72.674729
11.810098 20.786601 -72.660393
10.951691 21.533655 -72.307984
11.897652 22.035184 -72.520927
15.718435 21.251288 -73.108104
15.893539 22.536715 -72.905018
16.768862 21.610894 -73.005104
14.60398 20.93692 -73.117439
15.718435 21.251288 -73.108104
13.560454 20.492431 -73.050099
13.799585 21.732619 -72.940678
14.60398 20.93692 -73.117439
12.556964 19.881822 -72.906529
13.560454 20.492431 -73.050099
13.361358 19.086123 -73.08329
12.752397 14.673186 -72.702518
12.989516 16.219815 -72.916741
13.736262 15.206081 -72.926319
11.801734 14.159908 -72.407814
12.752397 14.673186 -72.702518
12.54848 13.146173 -72.417393
16.631304 3.169516 -70.192047
15.888469 4.468604 -70.587101
16.326981 1.538365 -69.629192
16.631304 3.169516 -70.192047
16.150602 -0.117125 -69.014111
15.440501 1.161245 -69.421081
16.326981 1.538365 -69.629192
16.806126 -1.364871 -68.602474
15.919647 -1.741991 -68.394363
16.150602 -0.117125 -69.014111
17.46369 -2.543066 -68.189884
16.806126 -1.364871 -68.602474
18.05179 -3.626791 -67.808457
17.163272 -4.073462 -67.601299
17.46369 -2.543066 -68.189884
18.611359 -4.924257 -67.320641
18.05179 -3.626791 -67.808457
18.298882 -6.377129 -66.76273
18.611359 -4.924257 -67.320641
3.471999 -22.340535 -55.171183
3.835765 -20.274495 -56.110264
3.824399 -23.475535 -55.123602
3.471999 -22.340535 -55.171183
4.612998 -22.60483 -55.92555
3.824399 -23.475535 -55.123602
5.347929 -21.761351 -56.710509
4.612998 -22.60483 -55.92555
4.967432 -20.548855 -56.854332
6.217826 -20.80931 -57.528294
5.863392 -22.865285 -56.599512
5.347929 -21.761351 -56.710509
5.96371 -12.447542 -60.504946
6.183968 -10.413491 -61.451364
5.96371 -12.447542 -60.504946
6.450235 -13.65455 -60.379453
5.992474 -17.693327 -58.564043
5.261312 -18.474437 -57.779549
6.485993 -18.823041 -58.407646
5.992474 -17.693327 -58.564043
6.776103 -16.810992 -59.3324
18.647948 -8.980711 -65.737454
17.87117 -9.426597 -65.5103
18.069615 -8.042959 -66.078434
19.028662 -9.878549 -65.387551
18.647948 -8.980711 -65.737454
1.34113 -85.60693 -40.722664
-0.199644 -86.75737 -40.340471
2.033352 -83.797852 -41.351883
2.914265 -84.367275 -41.106373
1.34113 -85.60693 -40.722664
-0.418009 -84.359863 -41.096718
-1.116483 -86.056816 -40.521633
1.134898 -83.298599 -41.52836
-0.418009 -84.359863 -41.096718
0.256672 -82.620956 -41.656904
-0.377984 -78.999214 -42.426947
-1.178454 -80.837581 -41.89189
-0.297465 -76.045257 -43.021821
-1.769929 -77.096936 -42.455376
-1.009725 -75.112034 -42.980462
0.4251 -76.877037 -43.006502
-0.297465 -76.045257 -43.021821
1.185304 -74.892135 -43.531588
1.104785 -77.846092 -42.936715
-0.377984 -78.999214 -42.426947
0.4251 -76.877037 -43.006502
18.859167 -12.686415 -64.209566
19.541277 -13.587601 -63.866411
18.812916 -14.424624 -63.484302
19.018515 -11.10687 -64.880497
18.859167 -12.686415 -64.209566
18.290154 -11.943894 -64.498388
19.028662 -9.878549 -65.387551
19.018515 -11.10687 -64.880497
23.500649 -42.947035 -51.850093
23.131469 -45.140286 -51.103313
22.35677 -44.453531 -51.600193
23.500649 -42.947035 -51.850093
23.923431 -40.854742 -52.563026
24.353331 -38.689725 -53.295446
24.724792 -36.441114 -54.094801
21.72752 -15.567213 -62.954892
21.7051 -17.355319 -62.228014
21.72752 -15.567213 -62.954892
20.965091 -14.908147 -63.293091
3 0 66 65
3 0 68 66
3 1 246 248
3 246 69 247
3 246 247 248
3 1 71 69
3 3 249 251
3 251 250 72
3 249 250 251
3 3 252 254
3 252 73 253
3 252 253 254
3 3 75 73
3 2 78 76
3 2 80 78
3 4 83 81
3 4 85 83
3 5 87 86
3 5 89 87
3 5 91 89
3 8 96 94
3 8 98 96
3 9 255 256
3 9 257 259
3 257 100 258
3 257 258 259
3 11 260 262
3 262 261 102
3 260 261 262
3 11 263 265
3 263 104 264
3 263 264 265
3 11 106 104
3 10 109 107
3 10 111 109
3 13 113 112
3 13 115 113
3 13 117 115
3 14 120 118
3 14 122 120
3 6 125 123
3 15 128 126
3 15 130 128
3 15 132 130
3 12 135 133
3 12 137 135
3 7 266 267
3 16 268 269
3 16 270 272
3 270 139 271
3 270 271 272
3 273 140 274
3 276 275 140
3 17 277 278
3 17 279 281
3 279 142 280
3 279 280 281
3 17 144 142
3 19 145 67
3 19 146 145
3 20 282 283
3 20 284 285
3 21 286 288
3 286 147 287
3 286 287 288
3 21 148 147
3 21 150 148
3 23 151 70
3 23 152 151
3 24 289 291
3 289 153 290
3 289 290 291
3 24 154 153
3 24 156 154
3 26 157 74
3 26 158 157
3 27 161 159
3 29 162 77
3 29 163 162
3 29 165 163
3 31 166 79
3 31 167 166
3 32 170 168
3 34 292 294
3 294 293 82
3 292 293 294
3 34 295 296
3 34 297 299
3 297 171 298
3 297 298 299
3 35 172 84
3 35 173 172
3 36 174 88
3 36 175 174
3 36 177 175
3 38 178 90
3 38 179 178
3 300 180 301
3 302 301 141
3 300 301 302
3 39 181 92
3 39 182 181
3 39 183 182
3 303 184 304
3 305 304 93
3 303 304 305
3 307 306 184
3 40 308 309
3 40 310 312
3 310 185 311
3 310 311 312
3 18 186 143
3 41 187 95
3 41 188 187
3 41 189 188
3 42 190 97
3 42 191 190
3 43 313 314
3 43 315 317
3 315 192 316
3 315 316 317
3 44 318 320
3 320 319 99
3 318 319 320
3 44 321 323
3 321 193 322
3 321 322 323
3 45 324 326
3 324 194 325
3 324 325 326
3 45 195 194
3 46 327 328
3 46 329 331
3 329 196 330
3 329 330 331
3 46 197 196
3 47 332 334
3 332 198 333
3 332 333 334
3 47 199 198
3 47 200 199
3 335 201 336
3 337 336 101
3 335 336 337
3 338 202 339
3 340 339 201
3 338 339 340
3 341 203 342
3 343 204 344
3 345 344 203
3 343 344 345
3 49 346 348
3 348 347 103
3 346 347 348
3 49 349 351
3 349 205 350
3 349 350 351
3 49 206 205
3 50 207 105
3 50 208 207
3 22 209 149
3 51 210 108
3 51 211 210
3 51 212 211
3 48 213 110
3 48 352 354
3 354 353 213
3 352 353 354
3 355 215 356
3 53 357 359
3 357 216 358
3 357 358 359
3 53 217 216
3 54 360 361
3 54 362 363
3 54 364 365
3 55 218 114
3 55 219 218
3 55 220 219
3 56 221 116
3 56 222 221
3 25 223 155
3 57 224 119
3 57 225 224
3 57 226 225
3 58 227 121
3 58 228 227
3 37 229 176
3 59 230 124
3 59 231 230
3 28 232 160
3 60 233 127
3 60 234 233
3 60 235 234
3 61 236 129
3 61 237 236
3 61 238 237
3 62 239 131
3 62 240 239
3 30 241 164
3 63 242 134
3 63 243 242
3 63 244 243
3 52 245 136
3 52 214 245
3 33 366 368
3 368 367 169
3 366 367 368
3 64 369 371
3 371 370 138
3 369 370 371
3 64 372 373
3 65 374 375
3 66 376 378
3 378 377 65
3 376 377 378
3 66 379 381
3 379 17 380
3 379 380 381
3 66 67 17
3 68 67 66
3 68 19 67
3 382 20 383
3 69 384 385
3 69 386 388
3 386 21 387
3 386 387 388
3 69 70 21
3 71 70 69
3 71 23 70
3 72 389 390
3 392 391 72
3 73 393 394
3 73 395 397
3 395 24 396
3 395 396 397
3 73 74 24
3 75 74 73
3 75 26 74
3 76 77 27
3 78 77 76
3 78 29 77
3 78 79 29
3 80 79 78
3 80 31 79
3 81 82 32
3 83 82 81
3 83 34 82
3 83 84 34
3 85 84 83
3 85 35 84
3 86 398 399
3 87 400 402
3 402 401 86
3 400 401 402
3 87 403 404
3 87 405 407
3 405 88 406
3 405 406 407
3 89 88 87
3 89 36 88
3 89 90 36
3 91 90 89
3 91 38 90
3 408 92 409
3 410 92 411
3 412 39 413
3 414 413 92
3 412 413 414
3 415 93 416
3 417 416 39
3 415 416 417
3 418 93 419
3 421 420 93
3 422 40 423
3 94 95 18
3 96 95 94
3 96 41 95
3 96 97 41
3 98 97 96
3 98 42 97
3 424 43 425
3 426 99 427
3 100 428 430
3 428 99 429
3 428 429 430
3 100 44 99
3 431 45 432
3 433 46 434
3 436 435 46
3 437 47 438
3 439 101 440
3 441 440 47
3 439 440 441
3 442 101 443
3 445 444 101
3 102 446 447
3 449 448 102
3 450 103 451
3 104 452 454
3 452 103 453
3 452 453 454
3 104 49 103
3 104 105 49
3 106 105 104
3 106 50 105
3 107 108 22
3 109 108 107
3 109 51 108
3 109 110 51
3 111 110 109
3 111 48 110
3 455 53 456
3 112 457 458
3 113 459 461
3 461 460 112
3 459 460 461
3 113 462 464
3 462 54 463
3 462 463 464
3 113 114 54
3 115 114 113
3 115 55 114
3 115 116 55
3 117 116 115
3 117 56 116
3 118 119 25
3 120 119 118
3 120 57 119
3 120 121 57
3 122 121 120
3 122 58 121
3 123 124 37
3 125 124 123
3 125 59 124
3 126 127 28
3 128 127 126
3 128 60 127
3 128 129 60
3 130 129 128
3 130 61 129
3 130 131 61
3 132 131 130
3 132 62 131
3 133 134 30
3 135 134 133
3 135 63 134
3 135 136 63
3 137 136 135
3 137 52 136
3 466 465 33
3 467 138 468
3 139 469 471
3 469 138 470
3 469 470 471
3 139 64 138
3 472 86 473
3 140 474 476
3 474 86 475
3 474 475 476
3 140 5 86
3 140 141 5
3 477 141 478
3 479 478 140
3 477 478 479
3 481 480 141
3 142 482 483
3 142 484 485
3 142 486 488
3 486 143 487
3 486 487 488
3 144 143 142
3 144 18 143
3 67 144 17
3 145 144 67
3 145 18 144
3 145 94 18
3 146 94 145
3 146 8 94
3 489 9 490
3 147 491 492
3 147 493 494
3 147 495 497
3 495 102 496
3 495 496 497
3 148 102 147
3 148 11 102
3 148 149 11
3 150 149 148
3 150 22 149
3 70 150 21
3 151 150 70
3 151 22 150
3 151 107 22
3 152 107 151
3 152 10 107
3 153 498 499
3 153 500 501
3 153 502 504
3 502 112 503
3 502 503 504
3 154 112 153
3 154 13 112
3 154 155 13
3 156 155 154
3 156 25 155
3 74 156 24
3 157 156 74
3 157 25 156
3 157 118 25
3 158 118 157
3 158 14 118
3 159 160 6
3 161 160 159
3 161 28 160
3 77 161 27
3 162 161 77
3 162 28 161
3 162 126 28
3 163 126 162
3 163 15 126
3 163 164 15
3 165 164 163
3 165 30 164
3 79 165 29
3 166 165 79
3 166 30 165
3 166 133 30
3 167 133 166
3 167 12 133
3 168 169 7
3 170 169 168
3 170 33 169
3 82 170 32
3 505 170 506
3 507 506 82
3 505 506 507
3 508 33 509
3 510 509 170
3 508 509 510
3 512 511 33
3 171 513 514
3 171 515 516
3 84 171 34
3 172 171 84
3 172 517 519
3 519 518 171
3 517 518 519
3 172 520 521
3 173 522 524
3 524 523 172
3 522 523 524
3 173 525 527
3 525 16 526
3 525 526 527
3 528 1 529
3 88 530 531
3 174 532 534
3 534 533 88
3 532 533 534
3 174 535 536
3 174 537 539
3 537 72 538
3 537 538 539
3 175 72 174
3 175 3 72
3 175 176 3
3 177 176 175
3 177 37 176
3 90 177 36
3 178 177 90
3 178 37 177
3 178 123 37
3 179 123 178
3 179 6 123
3 141 91 5
3 180 91 141
3 180 38 91
3 92 540 542
3 540 180 541
3 540 541 542
3 181 180 92
3 181 38 180
3 181 179 38
3 182 179 181
3 182 6 179
3 182 159 6
3 183 159 182
3 183 27 159
3 93 183 39
3 184 183 93
3 184 27 183
3 184 76 27
3 543 76 544
3 545 544 184
3 543 544 545
3 546 2 547
3 548 547 76
3 546 547 548
3 185 549 550
3 185 551 553
3 551 7 552
3 551 552 553
3 143 554 555
3 186 556 558
3 558 557 143
3 556 557 558
3 186 559 561
3 559 40 560
3 559 560 561
3 95 186 18
3 187 186 95
3 187 40 186
3 187 185 40
3 188 185 187
3 188 7 185
3 188 168 7
3 189 168 188
3 189 32 168
3 97 189 41
3 190 189 97
3 190 32 189
3 190 81 32
3 191 81 190
3 191 4 81
3 562 65 563
3 192 564 566
3 564 65 565
3 564 565 566
3 192 0 65
3 99 567 568
3 570 569 99
3 193 571 572
3 193 573 575
3 573 1 574
3 573 574 575
3 576 20 577
3 194 578 579
3 194 580 582
3 580 20 581
3 580 581 582
3 194 583 585
3 585 584 20
3 583 584 585
3 195 586 588
3 588 587 194
3 586 587 588
3 195 589 591
3 589 9 590
3 589 590 591
3 592 45 593
3 592 593 594
3 595 45 596
3 597 195 598
3 599 598 45
3 597 598 599
3 196 600 602
3 600 195 601
3 600 601 602
3 196 9 195
3 196 100 9
3 197 100 196
3 197 44 100
3 603 197 604
3 605 604 46
3 603 604 605
3 198 606 608
3 606 197 607
3 606 607 608
3 198 44 197
3 198 193 44
3 199 193 198
3 199 1 193
3 199 71 1
3 200 71 199
3 200 23 71
3 101 200 47
3 201 200 101
3 201 23 200
3 201 152 23
3 202 152 201
3 202 10 152
3 609 202 610
3 611 202 612
3 613 10 614
3 615 614 202
3 613 614 615
3 616 111 617
3 618 617 10
3 616 617 618
3 619 111 620
3 621 48 622
3 623 622 111
3 621 622 623
3 624 48 625
3 627 626 48
3 203 628 629
3 203 630 631
3 203 632 633
3 204 634 636
3 636 635 203
3 634 635 636
3 204 637 639
3 637 2 638
3 637 638 639
3 103 640 641
3 643 642 103
3 644 204 645
3 205 646 648
3 646 204 647
3 646 647 648
3 205 2 204
3 205 80 2
3 206 80 205
3 206 31 80
3 105 206 49
3 207 206 105
3 207 31 206
3 207 167 31
3 208 167 207
3 208 12 167
3 149 106 11
3 209 106 149
3 209 50 106
3 108 209 22
3 210 209 108
3 210 50 209
3 210 208 50
3 211 208 210
3 211 12 208
3 211 137 12
3 212 137 211
3 212 52 137
3 110 212 51
3 213 212 110
3 213 52 212
3 213 214 52
3 649 214 650
3 651 650 213
3 649 650 651
3 653 652 214
3 215 654 655
3 215 656 658
3 656 43 657
3 656 657 658
3 659 215 660
3 216 661 663
3 661 215 662
3 661 662 663
3 216 43 215
3 216 192 43
3 217 192 216
3 217 0 192
3 664 53 665
3 114 666 668
3 668 667 54
3 666 667 668
3 218 669 671
3 671 670 114
3 669 670 671
3 218 672 674
3 672 53 673
3 672 673 674
3 218 217 53
3 219 217 218
3 219 0 217
3 219 68 0
3 220 68 219
3 220 19 68
3 116 220 55
3 221 220 116
3 221 19 220
3 221 146 19
3 222 146 221
3 222 8 146
3 155 117 13
3 223 117 155
3 223 56 117
3 119 223 25
3 224 223 119
3 224 56 223
3 224 222 56
3 225 222 224
3 225 8 222
3 225 98 8
3 226 98 225
3 226 42 98
3 121 226 57
3 227 226 121
3 227 42 226
3 227 191 42
3 228 191 227
3 228 4 191
3 176 75 3
3 229 75 176
3 229 26 75
3 124 229 37
3 230 229 124
3 230 26 229
3 230 158 26
3 231 158 230
3 231 14 158
3 160 125 6
3 232 125 160
3 232 59 125
3 127 232 28
3 233 232 127
3 233 59 232
3 233 231 59
3 234 231 233
3 234 14 231
3 234 122 14
3 235 122 234
3 235 58 122
3 129 235 60
3 236 235 129
3 236 58 235
3 236 228 58
3 237 228 236
3 237 4 228
3 237 85 4
3 238 85 237
3 238 35 85
3 131 238 61
3 239 238 131
3 239 35 238
3 239 173 35
3 240 173 239
3 240 16 173
3 164 132 15
3 241 132 164
3 241 62 132
3 134 241 30
3 242 241 134
3 242 62 241
3 242 240 62
3 243 240 242
3 243 16 240
3 243 139 16
3 244 139 243
3 244 64 139
3 136 244 63
3 245 244 136
3 245 64 244
3 245 675 677
3 677 676 64
3 675 676 677
3 214 678 680
3 680 679 245
3 678 679 680
3 214 681 682
3 169 683 685
3 685 684 7
3 683 684 685
3 687 686 169
3 689 688 33
3 138 690 691
3 693 692 138
