ply
format ascii 1.0
element vertex 713
property float x
property float y
property float z
element face 763
property list uchar int vertex_index
end_header
-2.24815 -4.416752 58.641224
0.997042 -6.024637 75.093018
-4.675161 21.324471 78.425797
-0.290756 21.990761 63.268311
0.137815 -20.225912 86.174049
-0.05378 48.812092 49.262585
-1.019918 33.16106 51.927422
0.134115 36.959774 62.484024
-0.164278 -5.421893 65.838066
-0.205475 23.360756 73.240486
0.598814 8.648355 71.229996
-0.931356 7.529554 61.453304
-1.349445 18.456566 53.21122
-2.168964 -0.728067 56.41914
-2.835911 -7.295973 55.912163
0.120089 43.052589 56.087883
0.773708 -5.810991 70.394394
-4.837685 -27.697586 88.350006
-5.918295 35.220776 71.541183
-3.656832 29.337387 74.657967
-1.136738 30.453659 72.256348
-1.859529 22.81654 76.610054
0.342068 1.111197 77.921944
0.369465 8.622175 75.87381
0.863297 1.312092 73.496506
0.501152 1.392668 68.770065
-0.70488 27.773308 57.841564
-1.298092 25.73938 52.725452
-1.026016 20.431362 57.977146
-1.270475 13.201626 57.700001
-0.560238 14.672955 62.610374
0.419939 -6.185523 79.527596
0.713388 -13.161424 81.080406
-2.578178 14.970043 79.915504
-1.059973 0.650566 81.586273
-1.234495 38.341412 45.719856
-0.531939 40.862518 50.782471
-0.263294 35.312492 57.219738
-0.02375 29.428425 63.250408
-1.398897 -4.897962 61.741615
-2.603233 -9.892662 58.899849
-1.814096 -20.90616 88.169434
-0.521433 37.678719 66.979431
0.021446 30.424747 68.301376
0.191704 23.027874 68.587082
-0.53882 15.855846 77.029831
0.338535 16.038887 72.850494
0.180756 15.619873 67.837616
0.008307 8.311562 66.26252
-0.479063 1.322266 64.164215
-1.543541 0.837774 60.011787
-1.364536 30.804504 47.123985
-1.166405 23.450859 48.28093
-0.803869 16.057957 49.213287
-1.365374 11.153549 53.425179
-1.619625 6.087948 57.123928
-3.631863 -14.167906 55.651459
-2.264627 -2.782087 57.682602
-2.492693 -4.005053 56.122482
-2.565062 -5.690814 57.415775
0.986399 -5.936182 72.748535
0.824451 -9.404246 71.038254
1.03492 -9.529491 73.427689
-6.343391 20.23608 78.755959
-7.623854 23.018639 77.194977
-5.857664 24.297901 77.107025
-5.314407 28.352776 75.257645
-4.18063 25.345512 76.650787
-2.69627 26.142788 75.806877
-3.150236 22.188137 77.714264
0.754768 -2.465189 76.608429
0.718136 1.232023 75.775589
0.939571 -2.377747 74.342682
0.907507 -2.292021 72.009109
-0.509331 24.945789 60.636303
-0.883148 24.083019 57.966835
-0.66987 21.267265 60.582005
-0.814259 17.621349 60.394253
-0.422903 18.316212 63.014515
-1.097269 6.129011 51.699238
-0.146133 -6.326545 81.490707
0.539515 -9.710632 80.30043
0.020958 -9.829652 82.277603
-0.119581 -16.862238 85.497803
0.503256 -16.660482 83.836235
0.758173 -20.027693 84.565994
-1.016741 -2.997625 82.403847
-0.23917 -2.742306 80.700226
-0.429873 47.542667 46.617935
-0.682035 43.55048 47.446785
-0.274372 44.817616 50.071697
0.144884 40.052948 59.344875
-0.047138 39.164261 56.718098
0.028297 36.224926 59.899014
-0.141132 32.423855 60.299236
0.083261 33.187271 62.960709
-0.783936 -5.169033 63.712376
-1.407473 -8.09594 62.229645
-0.75174 -8.551673 64.250671
-4.141563 36.338036 70.999817
-1.380022 37.574467 68.72377
-0.612364 26.94619 72.915619
-0.384563 30.575928 70.454956
-0.077536 26.958481 70.901672
0.138668 26.734192 68.578629
0.135246 23.294624 71.041611
-1.422209 15.506302 78.651962
0.606667 8.68108 73.625504
0.368328 12.365236 74.510956
0.503937 12.341396 72.172646
0.366461 15.898632 70.410263
0.404577 12.199747 69.689095
0.121834 11.943815 67.134186
0.381807 8.527056 68.754028
0.251722 -2.092745 67.348053
0.059647 1.386005 66.428955
-0.290636 -1.992416 65.110916
-0.88681 -1.921684 62.98996
-1.140291 35.770844 48.855972
-1.287367 31.998848 49.44392
-1.343479 22.092247 53.004673
-1.351017 24.627422 50.406071
-1.287954 20.977318 50.788807
-0.988728 19.772572 48.775238
-1.197617 17.315823 51.110329
-1.114904 13.624199 51.371067
-1.346115 14.813503 53.350155
-1.128366 10.426582 59.690769
-1.421423 9.622503 57.441116
-1.343138 6.907368 59.216797
-1.614073 3.489735 58.693718
-1.204979 4.094671 60.75378
-2.866665 -13.208521 58.988155
-3.17963 -12.065555 57.294785
-3.553602 -15.504477 57.279057
-1.935728 1.495226 54.975571
-2.56159 -5.52818 54.543915
-2.951241 -9.059937 54.352409
-0.952711 -17.179493 86.785042
0.054972 45.971241 52.725636
0.376577 -5.639241 68.077576
-0.112179 -8.921412 66.413849
0.431934 -9.204879 68.687294
-4.691162 -24.841908 88.527374
-3.103992 -24.486578 88.728447
-6.537117 31.183224 73.596085
-4.736071 32.374043 73.218033
-3.124985 33.272285 72.458405
-1.796783 33.857948 71.293686
-2.239527 30.041473 73.661583
-1.489496 26.677261 74.560791
-0.868111 23.205845 75.112137
-0.212742 4.670099 78.970673
-0.130316 8.461107 77.912521
0.35393 4.85598 76.988068
0.67473 4.961983 74.805794
0.752403 5.003523 72.482132
0.606838 4.987202 70.078064
0.783306 1.364847 71.142807
0.668406 -2.196808 69.661575
-0.874956 30.502304 54.928291
-1.192297 29.421524 52.368011
-1.057644 26.791241 55.216637
-1.187975 23.127865 55.407425
-1.276131 19.493439 55.507694
-1.344961 15.871559 55.526051
-1.147247 16.806267 57.883663
-0.959257 14.005405 60.090469
-0.722088 11.069902 62.081066
-3.966818 -19.003342 57.317677
0.805183 -6.097419 77.373138
1.054239 -9.600748 75.80751
0.88632 -9.648351 78.120255
1.006433 -13.11841 78.875488
1.162548 -16.521477 79.641403
0.246351 -13.267254 83.064743
0.926331 -16.557228 81.859886
-5.114399 17.304592 79.978485
-3.578548 18.20948 79.378067
-1.011974 4.382544 80.700691
-0.25692 0.926945 79.877556
0.357462 -2.576496 78.747948
-1.058416 42.222801 44.914303
-0.929707 39.621407 48.191463
-0.791527 36.973434 51.399914
-0.146948 42.024723 53.439133
-0.392633 38.119141 54.042015
-0.646069 34.276173 54.537674
-0.492495 31.514301 57.5938
-0.329029 28.663227 60.544384
-0.155493 25.694931 63.351303
-6.641665 -27.865229 87.618767
-1.918087 -4.633013 59.991676
-2.397263 -6.839702 58.78384
-1.986685 -7.544675 60.389816
-2.12306 -10.762019 60.652332
-0.719557 -20.521414 87.386185
-1.71768 -24.136997 88.517715
-0.564131 -23.821295 87.861008
0.335148 -23.562927 86.755203
-0.811745 34.124302 69.719711
-0.188906 34.081375 67.762665
0.092123 33.755703 65.481308
0.120201 30.02948 65.868874
0.088596 26.301991 66.030029
0.024481 22.584965 65.965126
-2.230358 18.902145 78.393158
-1.143301 19.380806 77.024498
-0.361357 19.649582 75.286865
-0.036352 12.262129 76.634193
0.046724 16.029083 75.079506
0.105345 19.718555 73.216354
0.277884 19.6026 70.872345
0.20249 19.319183 68.333023
-0.056484 18.885555 65.685455
-0.153305 15.210377 65.213112
-0.278822 11.570486 64.578033
-0.454842 7.987064 63.813263
0.275999 4.909346 67.653221
-0.184376 4.75515 65.261826
-0.703903 4.497496 62.950069
-1.039181 1.16194 62.014931
-1.454451 -1.927439 61.027874
-1.919319 -2.111101 59.271305
-1.193993 29.574284 44.989414
-1.356884 28.292076 49.959179
-1.301085 27.118149 47.731277
-0.988871 25.886883 45.6996
-0.729023 22.190594 46.358528
-0.44924 18.4561 46.965229
-1.072811 9.894388 51.56868
-1.434113 7.478024 53.438976
-1.423166 12.25362 55.471592
-1.537476 8.642313 55.353558
-1.706152 5.050838 55.18288
-1.87178 2.628603 56.771175
-1.93244 0.23674 58.158661
-2.853077 -8.762903 57.335743
-3.211733 -10.682573 55.763199
-4.092247 -17.710943 55.592014
-3.881985 -16.248747 54.055206
-1.151057 4.233344 51.729567
-1.333629 4.962522 52.547235
-0.429607 -8.194637 82.736656
-0.062588 -8.078098 81.884155
-0.513152 -6.443084 82.343208
0.55582 -21.800815 85.701603
0.865999 -21.701706 84.897575
0.447994 -20.126803 85.370022
-0.948456 -4.778624 82.799778
-1.485085 -3.187018 83.101899
-0.513152 -6.443084 82.343208
-0.581437 -4.662085 81.947277
-0.948456 -4.778624 82.799778
-0.129926 50.189537 47.481172
0.022187 50.8079 48.805159
-0.241826 48.17738 47.94026
-0.317972 49.554825 46.158848
-0.129926 50.189537 47.481172
-3.844072 38.282095 69.806717
-3.37155 36.733004 70.533242
-1.99078 37.351219 69.395218
-1.739689 39.232029 68.11055
-3.368892 -16.073638 58.181605
-3.210133 -14.356499 58.133606
-3.025423 -14.92566 59.036153
-2.195876 -1.375321 55.587049
-2.079258 -0.263674 54.865265
-2.052346 0.383579 55.697356
-1.600066 -15.72495 86.908394
-1.091523 -15.491962 86.438813
0.625954 -11.074662 70.140747
0.830349 -11.173064 71.345161
-4.013652 -27.595712 88.539211
-3.940391 -26.167873 88.627895
-4.764423 -26.269747 88.43869
-8.281707 24.324366 76.278774
-7.367778 25.063469 76.339702
-6.824409 29.145761 74.540256
-7.477726 30.455675 73.609025
-0.076686 -13.370179 83.91045
-0.209371 -11.656337 83.522969
1.039683 -18.238185 82.239517
0.714794 -16.608855 82.848061
0.828145 -18.289812 83.227691
1.133274 -18.217588 81.132889
1.039683 -18.238185 82.239517
-5.291974 15.310001 80.646149
-5.930538 16.749496 80.08855
-4.53352 15.772514 80.391812
-5.291974 15.310001 80.646149
-1.537816 2.309565 81.858715
-1.549733 0.451159 82.290703
-1.035973 2.516555 81.143482
-1.513816 4.175554 81.415924
-1.537816 2.309565 81.858715
-0.949167 44.200414 44.474486
-1.114842 43.495024 43.240324
-7.60326 -27.925829 87.114117
-7.482658 -26.665782 87.374695
-6.810733 -29.111649 87.356056
-7.60326 -27.925829 87.114117
-1.806245 -11.10952 61.620132
-1.765267 -9.42898 61.440989
-1.448451 -9.77648 62.408789
-2.224705 -12.452474 60.754715
-1.806245 -11.10952 61.620132
-0.45395 -10.466691 65.548023
-0.122312 -10.68015 66.661663
1.062618 -11.32481 74.951713
1.090454 -11.347962 76.165806
-1.906742 -19.259258 87.915059
-2.533454 -19.525007 88.143235
-1.266827 -20.713787 87.777809
-1.359472 -19.066885 87.523434
-1.906742 -19.259258 87.915059
-1.727631 -25.70402 88.603832
-2.410836 -24.311788 88.623081
-2.420787 -25.87881 88.709198
-0.064912 -25.336628 87.543415
-0.54192 -25.435721 88.026855
0.384728 -25.207444 86.990512
-0.114492 -23.692111 87.308105
-0.064912 -25.336628 87.543415
0.722494 -25.127784 86.283901
0.384728 -25.207444 86.990512
-6.547303 36.530842 70.606239
-6.872096 34.512625 71.631405
-0.39643 39.3976 65.521248
-0.759869 39.43063 66.476013
-0.274823 37.569954 65.927376
-0.39643 39.3976 65.521248
-1.29335 37.692303 44.561615
-1.265999 39.605337 44.119102
-1.341737 32.044283 45.674728
-1.330423 33.911279 45.340244
-1.353222 32.671501 46.789501
-1.279265 30.189394 46.056699
-1.256465 31.429172 44.607442
-1.341737 32.044283 45.674728
-0.495631 15.359907 48.363697
-0.318317 16.558979 47.239668
-0.626554 17.257028 48.089258
-0.726161 14.174628 49.401748
-0.495631 15.359907 48.363697
-3.512468 -13.402369 54.917748
-3.302404 -11.659703 54.973618
-3.421798 -12.425239 55.707329
-4.333984 -19.490295 55.606618
-4.029533 -18.357143 56.454846
-4.27127 -20.136494 56.46945
-3.879257 -17.292137 53.316848
-4.142006 -18.05988 54.02749
-3.612589 -15.442548 53.369991
-3.879257 -17.292137 53.316848
0.935583 -11.235686 72.539879
0.830349 -11.173064 71.345161
0.929686 -9.466869 72.232971
-4.130395 -29.013167 88.453277
-4.982549 -29.031088 88.172146
-6.983622 21.62736 77.975468
-7.838885 20.978417 77.955856
-7.198654 19.587137 78.736347
-6.484683 25.7031 76.295727
-7.367778 25.063469 76.339702
-6.740759 23.65827 77.151001
-5.586035 26.325339 76.182335
-6.213055 27.730537 75.371037
-6.484683 25.7031 76.295727
-0.820869 5.363188 50.91306
-0.825734 7.298895 50.798512
-0.820869 5.363188 50.91306
-1.151057 4.233344 51.729567
0.191838 -16.76136 84.667019
0.051767 -15.066793 84.296196
-0.259652 -15.167671 85.12698
0.955603 -19.973418 83.592571
0.828145 -18.289812 83.227691
0.630715 -18.344088 84.201115
1.059355 -21.644237 83.951927
0.955603 -19.973418 83.592571
1.059355 -21.644237 83.951927
0.865999 -21.701706 84.897575
-1.528118 -1.372936 82.699489
-1.485085 -3.187018 83.101899
-1.038357 -1.17353 81.99506
-1.549733 0.451159 82.290703
-1.528118 -1.372936 82.699489
-0.519639 48.865085 44.847735
-0.317972 49.554825 46.158848
-0.634896 46.860348 45.326301
-0.519639 48.865085 44.847735
-0.555954 45.546574 47.03236
-0.760976 44.864254 45.740727
-0.634896 46.860348 45.326301
-1.120584 -10.004347 63.419302
-1.448451 -9.77648 62.408789
-1.079606 -8.323806 63.240158
-2.473367 -21.13214 88.345391
-2.533454 -19.525007 88.143235
-4.706603 37.769721 70.164413
-5.594969 37.21109 70.435097
-5.029929 35.779406 71.2705
-4.706603 37.769721 70.164413
-3.844072 38.282095 69.806717
-1.189164 39.378504 67.348183
-1.739689 39.232029 68.11055
-0.950728 37.626593 67.851601
-0.759869 39.43063 66.476013
-1.189164 39.378504 67.348183
-1.551474 13.564083 79.333881
-2.000193 15.238173 79.283733
-2.129458 13.295953 79.965652
-1.072653 13.762729 78.567867
-1.551474 13.564083 79.333881
-0.630958 13.937501 77.756801
-0.980514 15.681074 77.840896
-1.072653 13.762729 78.567867
-1.2411 35.154671 47.655495
-1.288202 36.439955 46.087436
-1.187393 37.056128 47.287914
-1.314638 33.268673 47.949468
-1.2411 35.154671 47.655495
-1.213829 33.884846 49.149946
-1.325951 31.401676 48.283952
-1.353222 32.671501 46.789501
-1.314638 33.268673 47.949468
-1.858224 0.805947 54.138365
-1.752858 2.645629 54.185402
-1.858224 0.805947 54.138365
-2.079258 -0.263674 54.865265
-2.357741 -3.013814 55.438721
-2.195876 -1.375321 55.587049
-2.330828 -2.36656 56.270811
-2.392189 -3.775377 54.649437
-2.357741 -3.013814 55.438721
-2.527141 -4.766616 55.333198
-2.314249 -4.543781 53.855959
-2.392189 -3.775377 54.649437
-2.49386 -6.384262 53.776474
-2.314249 -4.543781 53.855959
-2.688686 -8.15014 53.680721
-2.49386 -6.384262 53.776474
-2.756416 -7.294059 54.448162
-2.902789 -9.996771 53.596229
-2.688686 -8.15014 53.680721
-0.674958 -15.333335 85.795193
-0.259652 -15.167671 85.12698
-0.536146 -17.020865 86.141423
-0.674958 -15.333335 85.795193
-1.091523 -15.491962 86.438813
0.062939 49.366642 50.579039
0.022187 50.8079 48.805159
0.117315 47.946216 52.310564
0.000596 47.391666 50.994111
0.062939 49.366642 50.579039
0.129269 46.458332 54.025932
0.117315 47.946216 52.310564
0.161828 44.999006 55.707056
0.08753 44.511915 54.406759
0.129269 46.458332 54.025932
0.146666 43.466877 57.363045
0.161828 44.999006 55.707056
0.159064 41.967056 58.99154
0.132487 41.552768 57.716379
0.146666 43.466877 57.363045
0.119487 40.38825 60.58535
0.159064 41.967056 58.99154
0.114102 38.841664 62.154924
0.139499 38.506361 60.91445
0.119487 40.38825 60.58535
0.149745 -10.821884 67.798385
-0.122312 -10.68015 66.661663
0.159878 -9.063146 67.550571
0.429695 -10.974978 68.965267
0.628193 -9.304562 69.862774
0.625954 -11.074662 70.140747
0.149745 -10.821884 67.798385
0.429695 -10.974978 68.965267
-3.897577 -24.664243 88.62791
-3.877651 -23.166094 88.599571
-4.671236 -23.343759 88.499034
-3.146806 -25.990208 88.728431
-3.897577 -24.664243 88.62791
-3.940391 -26.167873 88.627895
-2.420787 -25.87881 88.709198
-3.146806 -25.990208 88.728431
-4.013652 -27.595712 88.539211
-4.130395 -29.013167 88.453277
-8.499849 22.274549 77.063381
-7.838885 20.978417 77.955856
-8.499849 22.274549 77.063381
-8.281707 24.324366 76.278774
-7.181507 32.493849 72.658856
-7.477726 30.455675 73.609025
-6.227706 33.202 72.568634
-6.872096 34.512625 71.631405
-7.181507 32.493849 72.658856
-5.925762 29.768 74.426865
-6.824409 29.145761 74.540256
-6.213055 27.730537 75.371037
-2.863262 35.200128 71.262535
-3.37155 36.733004 70.533242
-3.633274 34.80516 71.729111
-2.460884 33.565117 71.876046
-2.199161 35.49296 70.680176
-2.863262 35.200128 71.262535
-0.171529 6.565603 78.441597
-0.510416 8.32148 78.800323
-0.551629 6.425976 79.329399
-3.754433 -19.558926 58.275914
-3.5755 -17.823071 58.200915
-4.183191 -20.756424 57.385157
-3.754433 -19.558926 58.275914
-3.970807 -21.312008 58.343394
-4.27127 -20.136494 56.46945
-4.183191 -20.756424 57.385157
1.006495 -11.371763 77.322178
1.090454 -11.347962 76.165806
0.970279 -9.62455 76.963882
1.066551 -13.106793 77.699794
1.006495 -11.371763 77.322178
0.946376 -11.383381 78.497872
1.114266 -14.815726 78.066375
1.066551 -13.106793 77.699794
1.192324 -16.517259 78.449333
1.114266 -14.815726 78.066375
1.08449 -14.819944 79.258445
1.250125 -18.195895 78.822823
1.192324 -16.517259 78.449333
-0.322068 -9.937535 83.129399
-0.429607 -8.194637 82.736656
0.133654 -11.548453 82.671173
-0.322068 -9.937535 83.129399
-0.209371 -11.656337 83.522969
0.374804 -14.963868 83.450489
-0.076686 -13.370179 83.91045
0.051767 -15.066793 84.296196
1.251383 -18.199712 80.023647
1.044439 -16.539352 80.750644
1.133274 -18.217588 81.132889
1.250125 -18.195895 78.822823
1.251383 -18.199712 80.023647
-6.545034 18.215241 79.477288
-7.198654 19.587137 78.736347
-5.728895 18.770336 79.367222
-6.545034 18.215241 79.477288
-5.930538 16.749496 80.08855
-3.765595 16.224958 80.091602
-4.346474 17.757036 79.678276
-4.53352 15.772514 80.391812
-3.26541 14.60524 80.360321
-3.078363 16.589762 79.646785
-3.765595 16.224958 80.091602
-2.725582 13.013281 80.557827
-3.26541 14.60524 80.360321
-2.129458 13.295953 79.965652
-2.725582 13.013281 80.557827
-1.450322 6.074034 80.929028
-1.513816 4.175554 81.415924
-0.951245 6.282199 80.194409
-1.450322 6.074034 80.929028
-0.612358 4.526321 79.835682
-0.551629 6.425976 79.329399
-0.951245 6.282199 80.194409
-1.17796 41.546032 43.716326
-1.114842 43.495024 43.240324
-1.146456 40.282106 45.317079
-1.265999 39.605337 44.119102
-1.17796 41.546032 43.716326
-0.870225 42.88664 46.180544
-0.949167 44.200414 44.474486
-0.760976 44.864254 45.740727
-5.515799 -23.587675 88.299072
-4.671236 -23.343759 88.499034
-5.567028 -25.008805 88.249542
-5.515799 -23.587675 88.299072
-5.640289 -26.436644 88.160858
-4.764423 -26.269747 88.43869
-5.567028 -25.008805 88.249542
-6.542279 -26.520465 87.795239
-7.482658 -26.665782 87.374695
-5.739675 -27.781408 87.984386
-5.640289 -26.436644 88.160858
-6.542279 -26.520465 87.795239
-5.884539 -29.114909 87.806527
-4.982549 -29.031088 88.172146
-5.739675 -27.781408 87.984386
-5.884539 -29.114909 87.806527
-6.810733 -29.111649 87.356056
-2.596508 -13.675725 59.922626
-2.494862 -11.98527 59.820244
-2.224705 -12.452474 60.754715
-3.025423 -14.92566 59.036153
-2.596508 -13.675725 59.922626
-0.77373 -10.281822 64.466434
-0.431959 -8.736542 65.33226
-0.45395 -10.466691 65.548023
-1.120584 -10.004347 63.419302
-0.77373 -10.281822 64.466434
1.052958 -11.289181 73.761803
1.044579 -9.565119 74.617599
1.062618 -11.32481 74.951713
0.935583 -11.235686 72.539879
1.052958 -11.289181 73.761803
-1.47605 -17.395924 87.222863
-1.600066 -15.72495 86.908394
-0.836134 -18.850454 87.085613
-1.47605 -17.395924 87.222863
-1.359472 -19.066885 87.523434
-3.118314 -22.922349 88.624897
-3.877651 -23.166094 88.599571
-2.425159 -22.747559 88.519531
-3.118314 -22.922349 88.624897
-2.410836 -24.311788 88.623081
-1.765888 -22.521579 88.343574
-2.473367 -21.13214 88.345391
-2.425159 -22.747559 88.519531
-1.118695 -25.593573 88.355209
-1.727631 -25.70402 88.603832
-1.140906 -23.979146 88.189361
-1.118695 -25.593573 88.355209
-0.54192 -25.435721 88.026855
0.654486 -23.469323 85.992179
0.55582 -21.800815 85.701603
0.236482 -21.894419 86.464626
0.654486 -23.469323 85.992179
0.722494 -25.127784 86.283901
-6.547303 36.530842 70.606239
-5.594969 37.21109 70.435097
0.052952 37.210482 63.679672
0.114102 38.841664 62.154924
-1.588402 35.716207 70.008728
-1.99078 37.351219 69.395218
-2.199161 35.49296 70.680176
-0.108559 35.771282 66.318993
-0.274823 37.569954 65.927376
-0.35517 35.880047 67.371048
0.031955 35.608446 65.178314
-0.108559 35.771282 66.318993
-0.048391 33.918539 66.621986
0.113119 35.357738 63.982666
0.052952 37.210482 63.679672
0.031955 35.608446 65.178314
-0.426706 10.240132 78.198147
-0.510416 8.32148 78.800323
-0.379725 12.140643 77.558982
-0.426706 10.240132 78.198147
-0.083334 10.361618 77.273357
-0.287586 14.058988 76.832012
-0.630958 13.937501 77.756801
-0.379725 12.140643 77.558982
-1.29335 37.692303 44.561615
-1.288202 36.439955 46.087436
-1.110412 30.784359 43.586092
-1.256465 31.429172 44.607442
-0.974761 28.929882 44.019495
-1.110412 30.784359 43.586092
-0.8722 27.086182 44.374588
-0.974761 28.929882 44.019495
-1.091432 27.730584 45.344507
-0.706028 25.227969 44.783237
-0.8722 27.086182 44.374588
-0.576104 23.379824 45.112702
-0.706028 25.227969 44.783237
-0.858947 24.038739 46.029064
-0.395529 21.50256 45.496389
-0.576104 23.379824 45.112702
-0.255637 19.635313 45.79974
-0.395529 21.50256 45.496389
-0.589131 20.323347 46.661879
-0.079133 17.726364 46.15584
-0.255637 19.635313 45.79974
-0.079133 17.726364 46.15584
-0.318317 16.558979 47.239668
-0.881678 12.95775 50.480638
-0.726161 14.174628 49.401748
-0.959386 14.841078 50.292177
-0.860632 11.092844 50.579445
-0.881678 12.95775 50.480638
-1.093857 11.759294 51.469873
-0.813505 9.181583 50.733232
-0.860632 11.092844 50.579445
-1.08504 8.011699 51.633959
-0.825734 7.298895 50.798512
-0.813505 9.181583 50.733232
-1.50205 5.637028 53.417104
-1.333629 4.962522 52.547235
-1.265691 6.803517 52.569107
-1.63807 4.423435 54.289057
-1.50205 5.637028 53.417104
-1.570132 6.264431 54.310928
-1.82094 3.273032 55.079225
-1.752858 2.645629 54.185402
-1.63807 4.423435 54.289057
-3.172157 -10.848385 54.268223
-3.081487 -9.871255 55.057804
-3.302404 -11.659703 54.973618
-2.902789 -9.996771 53.596229
-3.172157 -10.848385 54.268223
-3.76021 -17.253909 57.298367
-3.368892 -16.073638 58.181605
-3.5755 -17.823071 58.200915
-4.247137 -18.790978 54.795895
-4.333984 -19.490295 55.606618
-3.987116 -16.979845 54.82361
-4.247137 -18.790978 54.795895
-4.142006 -18.05988 54.02749
-3.637529 -14.44279 54.119621
-3.512468 -13.402369 54.917748
-3.756924 -15.208327 54.853333
-3.637529 -14.44279 54.119621
-3.612589 -15.442548 53.369991
3 0 59 57
3 1 62 60
3 2 65 63
3 2 67 65
3 2 69 67
3 1 72 70
3 1 60 72
3 3 76 74
3 3 78 76
3 242 241 79
3 243 82 244
3 245 244 80
3 243 244 245
3 4 85 83
3 4 246 248
3 248 247 85
3 246 247 248
3 249 86 250
3 251 80 252
3 253 252 86
3 251 252 253
3 5 254 255
3 5 256 258
3 256 88 257
3 256 257 258
3 5 90 88
3 7 93 91
3 7 95 93
3 8 98 96
3 260 259 99
3 261 100 262
3 9 103 101
3 9 105 103
3 10 109 107
3 10 111 109
3 10 113 111
3 8 116 114
3 8 96 116
3 6 119 118
3 12 122 120
3 12 124 122
3 12 126 124
3 11 129 127
3 11 131 129
3 263 134 264
3 265 264 132
3 263 264 265
3 13 266 268
3 268 267 135
3 266 267 268
3 14 136 58
3 14 137 136
3 269 138 270
3 16 142 140
3 272 271 61
3 17 273 275
3 275 274 143
3 273 274 275
3 277 276 64
3 278 145 279
3 19 146 66
3 19 147 146
3 19 149 147
3 21 150 68
3 21 151 150
3 22 154 152
3 24 155 71
3 24 156 155
3 24 158 156
3 16 159 73
3 16 140 159
3 26 162 160
3 28 163 75
3 28 164 163
3 28 166 164
3 30 167 77
3 30 168 167
3 31 172 170
3 32 173 81
3 32 174 173
3 280 175 281
3 282 176 283
3 284 283 84
3 282 283 284
3 286 285 176
3 287 177 288
3 290 289 177
3 34 291 292
3 34 293 295
3 293 179 294
3 293 294 295
3 34 180 179
3 31 181 87
3 31 170 181
3 296 182 297
3 36 183 89
3 36 184 183
3 15 185 139
3 37 186 92
3 37 187 186
3 37 188 187
3 38 189 94
3 38 190 189
3 298 191 299
3 301 300 191
3 39 194 192
3 302 195 303
3 304 303 97
3 302 303 304
3 306 305 195
3 308 307 141
3 310 309 171
3 41 311 312
3 41 313 315
3 313 196 314
3 313 314 315
3 316 197 317
3 318 317 144
3 316 317 318
3 319 198 320
3 321 199 322
3 323 322 198
3 321 322 323
3 325 324 199
3 18 326 327
3 42 328 329
3 42 330 331
3 20 200 148
3 43 201 102
3 43 202 201
3 43 203 202
3 44 204 104
3 44 205 204
3 33 206 178
3 45 207 106
3 45 208 207
3 23 209 153
3 46 210 108
3 46 211 210
3 46 212 211
3 47 213 110
3 47 214 213
3 47 215 214
3 48 216 112
3 48 217 216
3 25 218 157
3 49 219 115
3 49 220 219
3 49 221 220
3 39 222 117
3 39 192 222
3 35 332 333
3 51 334 336
3 334 335 336
3 51 337 339
3 337 224 338
3 337 338 339
3 27 225 161
3 52 226 121
3 52 227 226
3 52 228 227
3 53 229 123
3 53 340 342
3 342 341 229
3 340 341 342
3 53 343 344
3 54 230 125
3 54 231 230
3 29 232 165
3 55 233 128
3 55 234 233
3 55 235 234
3 50 236 130
3 50 223 236
3 40 237 193
3 56 238 133
3 56 345 347
3 347 346 238
3 345 346 347
3 348 239 349
3 350 349 169
3 348 349 350
3 351 240 352
3 354 353 240
3 57 58 13
3 59 58 57
3 59 14 58
3 60 61 16
3 62 61 60
3 62 355 357
3 357 356 61
3 355 356 357
3 359 358 17
3 63 360 362
3 360 64 361
3 360 361 362
3 65 64 63
3 65 363 365
3 365 364 64
3 363 364 365
3 65 366 368
3 366 66 367
3 366 367 368
3 67 66 65
3 67 19 66
3 67 68 19
3 69 68 67
3 69 21 68
3 70 71 22
3 72 71 70
3 72 24 71
3 72 73 24
3 60 73 72
3 60 16 73
3 74 75 26
3 76 75 74
3 76 28 75
3 76 77 28
3 78 77 76
3 78 30 77
3 79 369 370
3 372 371 79
3 80 81 31
3 82 81 80
3 82 32 81
3 83 373 375
3 373 84 374
3 373 374 375
3 85 84 83
3 85 376 378
3 378 377 84
3 376 377 378
3 85 379 380
3 382 381 85
3 86 383 384
3 86 385 387
3 385 34 386
3 385 386 387
3 86 87 34
3 80 87 86
3 80 31 87
3 88 388 389
3 88 390 391
3 88 392 394
3 392 89 393
3 392 393 394
3 90 89 88
3 90 36 89
3 91 92 15
3 93 92 91
3 93 37 92
3 93 94 37
3 95 94 93
3 95 38 94
3 96 97 39
3 98 97 96
3 98 395 397
3 397 396 97
3 395 396 397
3 398 41 399
3 99 400 402
3 402 401 18
3 400 401 402
3 404 403 99
3 100 405 406
3 100 407 409
3 407 42 408
3 407 408 409
3 101 102 20
3 103 102 101
3 103 43 102
3 103 104 43
3 105 104 103
3 105 44 104
3 410 106 411
3 412 411 33
3 410 411 412
3 413 106 414
3 415 45 416
3 417 416 106
3 415 416 417
3 107 108 23
3 109 108 107
3 109 46 108
3 109 110 46
3 111 110 109
3 111 47 110
3 111 112 47
3 113 112 111
3 113 48 112
3 114 115 25
3 116 115 114
3 116 49 115
3 116 117 49
3 96 117 116
3 96 39 117
3 118 418 420
3 420 419 35
3 418 419 420
3 119 421 423
3 423 422 118
3 421 422 423
3 119 424 426
3 424 51 425
3 424 425 426
3 120 121 27
3 122 121 120
3 122 52 121
3 122 123 52
3 124 123 122
3 124 53 123
3 124 125 53
3 126 125 124
3 126 54 125
3 127 128 29
3 129 128 127
3 129 55 128
3 129 130 55
3 131 130 129
3 131 50 130
3 132 133 40
3 134 133 132
3 134 56 133
3 135 427 428
3 430 429 135
3 58 431 433
3 433 432 13
3 431 432 433
3 136 434 436
3 436 435 58
3 434 435 436
3 136 437 438
3 136 439 440
3 137 441 443
3 443 442 136
3 441 442 443
3 137 444 445
3 446 83 447
3 138 448 450
3 448 83 449
3 448 449 450
3 138 4 83
3 451 5 452
3 453 139 454
3 455 454 5
3 453 454 455
3 456 139 457
3 458 15 459
3 460 459 139
3 458 459 460
3 461 15 462
3 463 91 464
3 465 464 15
3 463 464 465
3 466 91 467
3 468 7 469
3 470 469 91
3 468 469 470
3 140 141 8
3 142 141 140
3 142 471 473
3 473 472 141
3 471 472 473
3 61 142 16
3 474 142 475
3 476 475 61
3 474 475 476
3 478 477 142
3 143 479 481
3 479 144 480
3 479 480 481
3 482 144 483
3 484 483 143
3 482 483 484
3 486 485 144
3 488 487 17
3 64 489 490
3 492 491 64
3 145 493 494
3 145 495 497
3 495 18 496
3 495 496 497
3 66 498 500
3 498 145 499
3 498 499 500
3 146 145 66
3 146 18 145
3 146 99 18
3 147 99 146
3 147 501 503
3 503 502 99
3 501 502 503
3 147 504 506
3 504 148 505
3 504 505 506
3 149 148 147
3 149 20 148
3 68 149 19
3 150 149 68
3 150 20 149
3 150 101 20
3 151 101 150
3 151 9 101
3 152 507 509
3 507 153 508
3 507 508 509
3 154 153 152
3 154 23 153
3 71 154 22
3 155 154 71
3 155 23 154
3 155 107 23
3 156 107 155
3 156 10 107
3 156 157 10
3 158 157 156
3 158 25 157
3 73 158 24
3 159 158 73
3 159 25 158
3 159 114 25
3 140 114 159
3 140 8 114
3 160 161 6
3 162 161 160
3 162 27 161
3 75 162 26
3 163 162 75
3 163 27 162
3 163 120 27
3 164 120 163
3 164 12 120
3 164 165 12
3 166 165 164
3 166 29 165
3 77 166 28
3 167 166 77
3 167 29 166
3 167 127 29
3 168 127 167
3 168 11 127
3 510 169 511
3 512 169 513
3 512 513 514
3 516 515 169
3 170 171 1
3 172 171 170
3 172 517 519
3 519 518 171
3 517 518 519
3 81 172 31
3 173 172 81
3 173 520 522
3 522 521 172
3 520 521 522
3 173 523 524
3 174 525 527
3 527 526 173
3 525 526 527
3 174 528 529
3 530 82 531
3 175 532 534
3 532 82 533
3 532 533 534
3 175 32 82
3 84 535 537
3 535 175 536
3 535 536 537
3 176 175 84
3 176 32 175
3 176 174 32
3 538 174 539
3 540 539 176
3 538 539 540
3 542 541 174
3 543 63 544
3 177 545 547
3 545 63 546
3 545 546 547
3 177 2 63
3 177 178 2
3 548 178 549
3 550 549 177
3 548 549 550
3 551 33 552
3 553 552 178
3 551 552 553
3 554 33 555
3 557 556 33
3 179 558 559
3 179 560 561
3 179 562 564
3 562 152 563
3 562 563 564
3 180 152 179
3 180 22 152
3 87 180 34
3 181 180 87
3 181 22 180
3 181 70 22
3 170 70 181
3 170 1 70
3 182 565 566
3 182 567 569
3 567 35 568
3 567 568 569
3 89 570 572
3 570 182 571
3 570 571 572
3 183 182 89
3 183 35 182
3 183 118 35
3 184 118 183
3 184 6 118
3 139 90 5
3 185 90 139
3 185 36 90
3 92 185 15
3 186 185 92
3 186 36 185
3 186 184 36
3 187 184 186
3 187 6 184
3 187 160 6
3 188 160 187
3 188 26 160
3 94 188 37
3 189 188 94
3 189 26 188
3 189 74 26
3 190 74 189
3 190 3 74
3 573 143 574
3 575 143 576
3 577 17 578
3 579 578 143
3 577 578 579
3 191 580 581
3 191 582 584
3 582 17 583
3 582 583 584
3 191 585 587
3 587 586 17
3 585 586 587
3 589 588 191
3 192 193 0
3 194 193 192
3 194 40 193
3 97 194 39
3 195 194 97
3 195 40 194
3 195 132 40
3 590 132 591
3 592 591 195
3 590 591 592
3 594 593 132
3 141 98 8
3 595 98 596
3 597 596 141
3 595 596 597
3 599 598 98
3 171 62 1
3 600 62 601
3 602 601 171
3 600 601 602
3 604 603 62
3 605 138 606
3 196 607 609
3 607 138 608
3 607 608 609
3 196 4 138
3 144 610 611
3 197 612 614
3 614 613 144
3 612 613 614
3 197 615 617
3 615 41 616
3 615 616 617
3 618 197 619
3 198 620 622
3 620 197 621
3 620 621 622
3 198 41 197
3 198 196 41
3 199 196 198
3 199 4 196
3 199 623 625
3 625 624 4
3 623 624 625
3 627 626 199
3 629 628 18
3 630 7 631
3 148 632 634
3 632 100 633
3 632 633 634
3 200 100 148
3 200 42 100
3 102 200 20
3 201 200 102
3 201 42 200
3 201 635 637
3 637 636 42
3 635 636 637
3 202 638 640
3 640 639 201
3 638 639 640
3 202 641 643
3 641 7 642
3 641 642 643
3 202 95 7
3 203 95 202
3 203 38 95
3 104 203 43
3 204 203 104
3 204 38 203
3 204 190 38
3 205 190 204
3 205 3 190
3 178 69 2
3 206 69 178
3 206 21 69
3 106 206 33
3 207 206 106
3 207 21 206
3 207 151 21
3 208 151 207
3 208 9 151
3 153 644 645
3 209 646 648
3 648 647 153
3 646 647 648
3 209 649 651
3 649 45 650
3 649 650 651
3 108 209 23
3 210 209 108
3 210 45 209
3 210 208 45
3 211 208 210
3 211 9 208
3 211 105 9
3 212 105 211
3 212 44 105
3 110 212 46
3 213 212 110
3 213 44 212
3 213 205 44
3 214 205 213
3 214 3 205
3 214 78 3
3 215 78 214
3 215 30 78
3 112 215 47
3 216 215 112
3 216 30 215
3 216 168 30
3 217 168 216
3 217 11 168
3 157 113 10
3 218 113 157
3 218 48 113
3 115 218 25
3 219 218 115
3 219 48 218
3 219 217 48
3 220 217 219
3 220 11 217
3 220 131 11
3 221 131 220
3 221 50 131
3 117 221 49
3 222 221 117
3 222 50 221
3 222 223 50
3 192 223 222
3 192 0 223
3 653 652 35
3 224 654 655
3 224 656 657
3 161 119 6
3 225 119 161
3 225 51 119
3 121 225 27
3 226 225 121
3 226 51 225
3 226 224 51
3 227 224 226
3 227 658 660
3 660 659 224
3 658 659 660
3 227 661 662
3 228 663 665
3 665 664 227
3 663 664 665
3 228 666 667
3 123 228 52
3 229 228 123
3 229 668 670
3 670 669 228
3 668 669 670
3 229 671 672
3 674 673 229
3 125 675 677
3 677 676 53
3 675 676 677
3 230 678 680
3 680 679 125
3 678 679 680
3 230 681 682
3 230 683 685
3 683 79 684
3 683 684 685
3 231 79 230
3 231 686 688
3 688 687 79
3 686 687 688
3 165 126 12
3 232 126 165
3 232 54 126
3 128 232 29
3 233 232 128
3 233 54 232
3 233 231 54
3 234 231 233
3 234 689 691
3 691 690 231
3 689 690 691
3 234 692 694
3 692 135 693
3 692 693 694
3 235 135 234
3 235 13 135
3 130 235 55
3 236 235 130
3 236 13 235
3 236 57 13
3 223 57 236
3 223 0 57
3 193 59 0
3 237 59 193
3 237 14 59
3 133 237 40
3 238 237 133
3 238 14 237
3 238 137 14
3 695 137 696
3 697 696 238
3 695 696 697
3 699 698 137
3 169 700 702
3 700 134 701
3 700 701 702
3 239 134 169
3 239 56 134
3 703 239 704
3 240 705 707
3 705 239 706
3 705 706 707
3 240 56 239
3 240 708 710
3 710 709 56
3 708 709 710
3 712 711 240
