ply
format ascii 1.0
element vertex 133
property float x
property float y
property float z
element face 100
property list uchar int vertex_index
end_header
-18.434872 54.188412 -28.870682
-16.271576 61.786274 -28.413769
-15.009011 48.530514 -31.097939
-11.801834 75.944611 -26.048832
-14.025398 69.24855 -27.699356
-15.448972 55.269833 -29.957672
-16.589157 51.458317 -30.08984
-13.790543 52.369228 -31.090435
-8.667059 76.785904 -26.760147
-9.696545 73.705154 -27.977303
-12.899733 72.734756 -27.032875
-10.80265 70.322357 -28.815948
-11.953348 66.710358 -29.346115
-15.028726 41.57275 -31.665478
-20.523521 56.727535 -27.54324
-17.366991 57.972767 -28.638481
-14.291384 59.115467 -29.831573
-15.154634 65.570221 -28.129444
-13.122427 62.949604 -29.654495
-13.178397 54.303551 -31.085584
-14.619757 53.81953 -30.524054
-14.007612 55.753853 -30.519203
-12.448831 52.761223 -31.58024
-13.178397 54.303551 -31.085584
-8.75967 72.397598 -28.862631
-8.246723 74.014785 -28.326172
-9.312722 70.706199 -29.281954
-10.249598 72.013756 -28.396625
-8.75967 72.397598 -28.862631
-9.87322 68.957878 -29.629635
-9.312722 70.706199 -29.281954
-14.582142 39.873262 -31.756325
-13.860332 41.803024 -31.906187
-21.671655 57.901737 -26.872543
-22.114655 56.075825 -27.080751
-16.819283 59.87952 -28.526125
-18.444435 59.225448 -27.934793
-17.896727 61.132202 -27.822437
-18.952008 52.331089 -29.008285
-19.957333 53.61533 -28.385836
-16.358955 48.121418 -30.675087
-17.149028 49.585319 -30.171037
-15.799084 49.994416 -30.593889
-15.616179 46.639654 -31.108519
-16.358955 48.121418 -30.675087
-14.358311 46.962067 -31.450985
-15.616179 46.639654 -31.108519
-11.282512 77.377724 -25.368021
-9.715125 77.798371 -25.723678
-10.234447 76.365257 -26.40449
-12.951511 76.852631 -25.0287
-11.282512 77.377724 -25.368021
-13.500993 75.365578 -25.598532
-12.951511 76.852631 -25.0287
-15.168081 70.367065 -26.831043
-14.605248 72.110168 -26.497802
-13.462566 70.991653 -27.366115
-15.717432 68.593765 -27.111311
-15.168081 70.367065 -26.831043
-14.590016 67.409385 -27.9144
-16.28205 66.754601 -27.326355
-15.717432 68.593765 -27.111311
-11.624259 63.427841 -30.246231
-12.537888 64.829981 -29.500305
-11.03972 65.308218 -30.092041
-12.231534 61.524777 -30.337789
-11.624259 63.427841 -30.246231
-17.376897 63.013139 -27.665096
-17.896727 61.132202 -27.822437
-13.096733 50.816067 -31.516632
-13.705967 48.89671 -31.520384
-14.399777 50.449871 -31.094187
-13.096733 50.816067 -31.516632
-12.448831 52.761223 -31.58024
-7.731981 75.55516 -27.717594
-7.283425 77.011154 -26.965933
-9.181802 75.245529 -27.368725
-7.731981 75.55516 -27.717594
-8.246723 74.014785 -28.326172
-10.448569 67.151879 -29.894718
-11.377999 68.516357 -29.081032
-9.87322 68.957878 -29.629635
-11.03972 65.308218 -30.092041
-10.448569 67.151879 -29.894718
-15.704291 39.699558 -31.591196
-16.234437 41.309221 -31.40271
-15.704291 39.699558 -31.591196
-14.582142 39.873262 -31.756325
-21.001658 54.884892 -27.722115
-22.114655 56.075825 -27.080751
-19.479197 55.457974 -28.206961
-19.957333 53.61533 -28.385836
-21.001658 54.884892 -27.722115
-20.0227 58.602833 -27.387173
-21.671655 57.901737 -26.872543
-18.945256 57.350151 -28.09086
-20.0227 58.602833 -27.387173
-18.444435 59.225448 -27.934793
-13.428818 57.67667 -30.456153
-14.007612 55.753853 -30.519203
-14.870178 57.19265 -29.894622
-18.029151 50.966042 -29.617864
-18.952008 52.331089 -29.008285
-17.512014 52.823364 -29.480261
-18.029151 50.966042 -29.617864
-17.149028 49.585319 -30.171037
-15.626037 43.160773 -31.392288
-16.234437 41.309221 -31.40271
-14.368168 43.483185 -31.734755
-15.626037 43.160773 -31.392288
-13.860332 41.803024 -31.906187
-14.368168 43.483185 -31.734755
-14.358311 46.962067 -31.450985
-13.705967 48.89671 -31.520384
-8.207471 78.148751 -25.940706
-7.283425 77.011154 -26.965933
-8.207471 78.148751 -25.940706
-9.715125 77.798371 -25.723678
-14.049943 73.76065 -26.090553
-13.500993 75.365578 -25.598532
-12.350783 74.339684 -26.540854
-14.049943 73.76065 -26.090553
-14.605248 72.110168 -26.497802
-16.818426 64.905113 -27.522934
-16.28205 66.754601 -27.326355
-15.713105 63.678247 -28.271606
-17.376897 63.013139 -27.665096
-16.818426 64.905113 -27.522934
-12.816012 59.607708 -30.426328
-13.706906 61.032536 -29.743034
-12.231534 61.524777 -30.337789
-13.428818 57.67667 -30.456153
-12.816012 59.607708 -30.426328
3 19 7 20
3 21 20 5
3 19 20 21
3 23 22 7
3 24 9 25
3 26 11 27
3 28 27 9
3 26 27 28
3 30 29 11
3 32 31 13
3 33 14 34
3 1 35 37
3 35 15 36
3 35 36 37
3 1 16 15
3 0 38 39
3 2 40 42
3 42 41 6
3 40 41 42
3 2 43 44
3 2 45 46
3 3 47 49
3 49 48 8
3 47 48 49
3 3 50 51
3 3 52 53
3 4 54 56
3 56 55 10
3 54 55 56
3 4 57 58
3 4 59 61
3 59 17 60
3 59 60 61
3 62 18 63
3 64 63 12
3 62 63 64
3 66 65 18
3 67 1 68
3 5 6 0
3 7 6 5
3 7 2 6
3 7 69 71
3 71 70 2
3 69 70 71
3 73 72 7
3 74 8 75
3 9 76 78
3 76 8 77
3 76 77 78
3 9 3 8
3 9 10 3
3 11 10 9
3 11 4 10
3 11 12 4
3 79 12 80
3 81 80 11
3 79 80 81
3 83 82 12
3 13 84 85
3 87 86 13
3 14 88 89
3 14 90 92
3 90 0 91
3 90 91 92
3 93 14 94
3 15 95 97
3 95 14 96
3 95 96 97
3 15 0 14
3 15 5 0
3 16 5 15
3 16 98 100
3 100 99 5
3 98 99 100
3 6 101 103
3 103 102 0
3 101 102 103
3 105 104 6
3 106 13 107
3 108 13 109
3 111 110 13
3 113 112 2
3 8 114 115
3 117 116 8
3 10 118 120
3 120 119 3
3 118 119 120
3 122 121 10
3 17 123 124
3 17 125 127
3 125 1 126
3 125 126 127
3 12 17 4
3 18 17 12
3 18 1 17
3 18 16 1
3 128 16 129
3 130 129 18
3 128 129 130
3 132 131 16
