ply
format ascii 1.0
element vertex 671
property float x
property float y
property float z
element face 724
property list uchar int vertex_index
end_header
49.896248 -10.885262 16.426113
66.836197 -10.679463 18.143646
53.000072 -31.874119 22.917637
61.373314 10.775881 10.800816
66.56028 -19.858797 25.22102
42.8857 -10.122377 15.434201
43.170769 -22.714113 17.262663
58.69133 -11.097974 16.332146
50.03035 -22.791098 19.90122
59.016785 -21.578825 21.532215
60.460014 -29.765764 27.998539
43.844425 4.926525 11.826288
50.940903 2.91194 11.220535
58.359665 1.020283 10.80404
65.115601 0.107254 13.160477
46.040352 -10.541408 16.278091
42.647972 -16.794044 16.657242
45.748459 -17.079391 17.901846
63.053459 -10.950062 16.854584
58.821213 -16.59837 18.902336
63.230438 -16.123981 19.75316
47.239311 3.955757 11.766649
59.102226 16.017471 11.120312
59.661469 12.151119 8.559456
58.034004 7.389765 8.507599
60.879627 6.290035 9.590255
61.872444 0.428236 11.619246
63.466705 5.534107 11.566449
51.089848 -27.731915 21.274376
47.493118 -28.084768 19.563187
49.899406 -32.307278 20.288174
66.877167 -15.534645 21.439915
68.578911 -18.700371 28.148722
59.643238 14.261608 14.193982
62.939209 9.775532 13.828311
53.319595 -35.643272 21.338409
54.199905 -11.082246 16.302776
49.692501 -17.132931 18.41165
54.167183 -16.954111 18.592485
54.45755 -22.276241 20.626911
55.222435 -26.949831 22.813341
63.22863 -20.784973 22.998125
59.471161 -25.969952 24.53714
56.653835 -30.9408 25.417446
41.042648 5.765482 10.999386
40.911655 -2.236435 12.432501
43.418877 -2.822905 13.727684
46.658417 -3.481256 14.10829
50.403538 -4.162932 13.902319
54.850883 8.73764 8.390144
54.695423 1.886515 10.739973
54.428219 -4.766189 13.588854
58.553806 -5.184176 13.588564
62.597244 -5.37534 14.140505
65.740944 5.045973 14.214615
67.788933 -0.088816 15.370736
46.146851 -22.971796 18.906128
47.89624 -10.727566 16.414452
45.829197 -13.883318 17.171631
47.70385 -14.001108 17.40057
65.05024 -10.827762 17.388725
63.174942 -13.595743 18.272356
65.16523 -13.397348 18.884125
60.232849 13.376389 10.816487
59.665089 14.199757 9.562768
60.545948 11.417034 9.563999
60.289871 9.217936 8.918695
61.405067 8.648443 9.881994
62.203789 5.869175 10.480048
62.465233 8.173056 11.061829
51.932907 -29.903606 22.047661
50.157524 -30.184748 21.006313
51.359657 -32.17395 21.63221
68.174957 -20.474615 30.287241
57.986755 16.572514 14.667928
58.046917 15.626274 16.40387
56.439461 -11.112702 16.275143
54.150932 -14.080045 17.499733
56.449596 -14.013468 17.52368
58.902031 -19.159214 20.187729
56.589851 -19.441004 19.855314
56.74865 -21.942295 21.030144
54.769104 -24.698454 21.677103
56.995972 -24.288401 22.277428
66.742729 -17.765224 23.274471
65.126884 -18.163898 22.188084
65.036552 -20.344664 24.012093
61.794693 -27.35046 27.418941
61.485855 -25.442112 25.556673
59.883224 -27.940266 26.2192
57.87635 -28.501295 25.106026
58.568291 -30.374052 26.686914
43.953304 8.898647 10.897243
42.392361 9.415472 10.695009
42.353149 5.367002 11.539721
42.240101 1.376755 12.384168
42.061897 -2.519575 13.205323
43.662373 1.009085 12.781269
49.069649 3.438725 11.521382
46.971619 0.201145 12.929161
48.793678 -0.227777 12.772629
48.482849 -3.824559 14.049955
50.684425 -0.660236 12.545163
56.314667 14.724247 7.114382
54.873562 12.188038 7.599166
56.41106 11.382809 7.559142
58.216763 4.191509 9.552036
56.534737 4.718222 9.403024
56.543308 1.424438 10.683702
54.567902 -1.474163 12.146109
56.522934 -1.821543 12.088439
56.488388 -5.003106 13.530422
58.468452 -2.110189 12.175824
63.541656 0.239943 12.303944
62.267624 -2.490189 12.844227
64.068886 -2.590544 13.433582
64.499123 -5.398694 14.665077
65.749184 -2.649416 14.197234
64.426186 7.46339 13.929968
67.844246 2.348436 16.109514
49.781246 -20.043715 19.19943
47.721107 -20.119446 18.901949
47.996582 -22.932144 19.464258
46.012825 -28.025188 18.543653
54.553879 -36.864136 19.904663
44.360462 -10.336722 15.964984
42.699837 -13.545408 16.11985
44.15094 -13.728689 16.757463
44.075512 -16.963053 17.391092
44.185875 -20.025076 17.860691
60.913284 -11.041954 16.513327
58.754631 -13.906996 17.630476
61.016018 -13.76627 17.86623
61.087227 -16.374071 19.238014
61.14003 -18.852852 20.663364
66.381508 -21.815556 27.264553
64.959915 -22.386362 25.949108
62.255051 -29.119576 29.363815
45.650436 8.34219 10.875944
45.485111 4.453873 11.887527
49.290661 7.150736 10.364773
51.152042 6.530769 10.006739
59.028652 15.103432 8.545489
58.684982 12.962315 7.81319
57.815964 10.604387 7.750852
59.101498 9.875347 8.202601
59.49316 6.799688 8.926099
59.841038 3.734936 9.923486
60.139053 0.686695 11.116209
61.409821 3.359318 10.513569
62.919273 3.065536 11.305058
64.35363 2.84343 12.276407
50.460579 -25.358465 20.573868
48.483795 -25.557131 19.965101
49.200356 -27.978306 20.462107
48.562782 -30.310841 19.894356
66.918671 -13.17007 19.727526
68.373558 -12.910926 20.814909
68.257065 -15.18115 22.634268
68.033043 -17.315002 24.573696
67.75061 -19.313606 26.610092
67.462044 -21.180439 28.720964
59.362171 15.091103 12.566467
60.775543 12.648895 12.278263
62.16806 10.232065 12.234786
61.322605 12.020235 13.913683
61.885544 11.477396 15.686755
54.294621 -33.652885 23.883707
52.802917 -33.953426 22.351999
54.472862 -35.540421 23.155214
55.345886 -37.025063 21.980459
52.008072 -11.005565 16.370161
49.740108 -14.075184 17.494057
51.90152 -14.101604 17.50808
51.884506 -17.069969 18.514376
51.977711 -19.896433 19.418297
56.495834 -16.793972 18.703644
54.263733 -19.690794 19.61731
52.200584 -22.565691 20.269691
52.572647 -25.063198 21.126793
53.113945 -27.378124 22.042564
53.844139 -29.506065 23.052971
65.182686 -15.846216 20.480564
63.237808 -18.52294 21.321348
61.199253 -21.193403 22.177429
63.245407 -22.906233 24.794212
61.300606 -23.390327 23.805725
59.194557 -23.849995 22.974688
57.361351 -26.474525 23.631996
55.843071 -29.028971 24.060371
54.78001 -31.450296 24.169868
55.931141 -33.221069 25.379986
39.982517 -1.975071 11.406446
39.932995 -5.814058 11.921797
40.772903 -6.047418 13.072029
41.846542 -6.289396 13.974037
43.144447 -6.541468 14.625254
45.250076 0.615723 12.949995
44.960304 -3.144783 14.0173
44.648323 -6.802745 15.038434
46.333199 -7.068583 15.243042
48.170151 -7.330386 15.28384
50.129051 -7.57661 15.216358
52.994072 5.907806 9.680573
56.489471 8.042934 8.336325
54.792694 5.297176 9.459251
52.823421 2.388758 10.937243
52.616371 -1.081436 12.315205
52.393158 -4.481827 13.728924
52.18084 -7.794716 15.100161
54.298431 -7.973455 14.991878
56.455948 -8.104837 14.94019
58.625839 -8.185379 14.984212
60.39024 -2.332895 12.425665
60.600815 -5.30697 13.786505
60.774895 -8.216352 15.155202
62.860313 -8.20313 15.480062
63.4758 7.785063 12.422529
64.655289 5.269108 12.819647
65.68277 2.671635 13.409039
66.682617 4.825512 15.732211
66.863495 2.519239 14.689602
66.549538 0.007355 14.183084
67.252403 -2.687534 15.142174
47.633537 -17.136805 18.225965
45.842094 -20.114367 18.47118
44.52549 -22.899715 18.182934
46.690899 -25.634172 19.251799
51.492287 -34.079319 20.768745
50.394009 -33.987888 19.124863
49.535301 -33.64463 17.421097
57.068905 16.198652 17.586635
57.122492 16.736244 16.687202
58.132566 15.201709 17.338757
57.068905 16.198652 17.586635
42.192669 -11.731566 15.335229
42.262664 -10.013338 15.047252
42.641253 -22.567822 16.694803
42.979554 -21.284275 17.149231
43.004551 -23.860619 16.704034
42.641253 -22.567822 16.694803
59.956247 -30.933524 28.169875
59.010385 -31.237668 27.514063
59.514153 -30.069908 27.342727
56.946998 14.276142 7.224855
56.832056 15.889929 7.192779
56.995195 12.605423 7.447235
56.362864 13.053528 7.336762
56.946998 14.276142 7.224855
54.2659 -36.652354 18.85306
55.494095 -37.222542 19.013807
65.663338 -23.052414 27.624912
66.317608 -22.726525 28.324866
63.063457 -28.775184 30.074296
62.895237 -27.92284 29.0383
62.564606 -29.937936 30.357473
63.063457 -28.775184 30.074296
46.616966 9.960276 10.291943
45.699736 10.296992 10.411723
46.546978 8.04962 10.777114
46.616966 9.960276 10.291943
50.300717 8.661264 9.668029
49.37153 9.016752 9.861673
51.231407 8.351281 9.489012
50.221351 6.840753 10.185756
50.300717 8.661264 9.668029
58.957826 16.521275 10.500483
58.573915 17.377351 11.404078
49.277885 -32.271056 19.577964
48.609573 -31.272837 19.381055
49.231094 -31.309059 20.091265
68.949944 -11.614168 20.595793
68.359752 -11.709632 19.976535
68.77052 -14.980112 23.340677
68.870689 -13.899259 22.38744
68.658509 -16.047038 24.310391
68.145054 -16.248076 23.603982
68.77052 -14.980112 23.340677
68.772167 -17.752443 27.104417
69.055413 -17.466261 27.919149
68.16476 -19.006988 27.379407
68.358017 -18.05906 26.335102
68.772167 -17.752443 27.104417
67.69313 -21.697422 30.585757
67.983963 -21.305082 31.370763
61.132202 12.180426 16.778652
60.931729 12.504133 15.829829
62.171366 11.233645 16.62444
61.132202 12.180426 16.778652
42.069494 -16.68729 16.168382
42.095427 -15.062972 15.899686
42.673905 -15.169726 16.388546
55.140766 -35.398587 24.039136
54.383741 -34.596653 23.519461
55.051645 -34.454819 24.403383
56.432644 -37.641499 22.322918
55.843342 -36.992293 22.996961
57.197215 -38.153525 21.534496
56.110456 -37.537089 21.192037
56.432644 -37.641499 22.322918
63.289887 -23.896127 25.749869
64.102661 -22.646297 25.37166
64.147141 -23.636191 26.327317
41.023075 7.820527 10.617384
41.697931 9.645522 10.465196
41.717505 7.590477 10.847198
40.490158 5.936179 10.594637
41.023075 7.820527 10.617384
40.517181 3.889757 10.913185
40.490158 5.936179 10.594637
40.447086 -2.105753 11.919474
40.496279 -0.130459 11.571067
40.960847 -0.261141 12.084094
53.985291 9.095271 8.506745
53.99663 10.82047 8.111256
54.862223 10.462839 7.994655
53.922477 7.322723 9.035359
53.056885 7.680354 9.15196
53.985291 9.095271 8.506745
64.66354 -6.776294 15.32468
65.374859 -5.394614 15.02054
67.057476 4.693343 16.544355
66.355228 5.846101 16.502454
45.57011 -26.798334 18.468874
45.405941 -27.904985 17.96218
51.025383 -34.564165 18.344729
51.384121 -34.755064 19.298371
50.596029 -34.392536 17.492846
49.964655 -33.816259 18.27298
51.025383 -34.564165 18.344729
68.809849 -18.359751 28.970772
69.055413 -17.466261 27.919149
68.607872 -19.246873 30.040032
68.376934 -19.587493 29.217982
68.809849 -18.359751 28.970772
68.346947 -20.088235 31.10568
68.607872 -19.246873 30.040032
68.155952 -20.918701 32.189203
67.983963 -21.305082 31.370763
68.346947 -20.088235 31.10568
57.092411 17.209364 15.81923
57.21559 17.793631 14.990022
58.016836 16.099394 15.535899
57.092411 17.209364 15.81923
57.122492 16.736244 16.687202
59.012415 14.578571 16.188387
59.810575 13.896238 15.083443
58.845078 14.943941 15.298926
59.012415 14.578571 16.188387
58.132566 15.201709 17.338757
42.162329 -18.20228 16.316952
42.718155 -18.324241 16.846521
61.640274 -26.396286 26.487807
62.410111 -25.164067 26.131099
62.56453 -26.11824 27.062233
58.118481 -31.534589 26.773429
57.161253 -31.817963 26.138694
57.611063 -30.657426 26.05218
58.118481 -31.534589 26.773429
59.010385 -31.237668 27.514063
43.172832 9.157059 10.796126
43.193895 11.154146 10.355082
43.974367 10.895734 10.456198
41.681595 3.540578 11.637704
41.026344 3.739818 11.367537
41.697899 5.566242 11.269554
41.62507 1.545454 12.059928
41.681595 3.540578 11.637704
42.296625 3.371879 11.961945
41.575878 -0.42984 12.408335
40.960847 -0.261141 12.084094
41.62507 1.545454 12.059928
56.268517 16.390076 7.055708
56.832056 15.889929 7.192779
55.595108 15.177393 7.115438
56.268517 16.390076 7.055708
55.594115 13.456143 7.356774
54.874555 13.909289 7.35783
55.595108 15.177393 7.115438
65.999889 -4.019976 14.786619
65.374859 -5.394614 15.02054
65.124154 -4.024055 14.431155
64.052208 8.42179 14.737921
63.682698 8.619461 13.87914
63.308719 9.577861 14.687092
64.858017 7.31816 14.742454
64.052208 8.42179 14.737921
65.515396 6.109452 14.884778
65.083565 6.254682 14.072292
64.858017 7.31816 14.742454
68.208813 2.233011 16.885399
67.63829 3.454805 16.733007
68.310772 1.067214 16.416716
68.208813 2.233011 16.885399
68.283116 -0.151412 16.047327
67.816589 1.12981 15.740125
68.310772 1.067214 16.416716
68.153293 -1.40888 15.823739
68.283116 -0.151412 16.047327
46.601656 -29.136784 18.614531
46.752972 -28.054978 19.05342
47.341803 -29.166574 19.124297
46.04541 -29.000194 17.953587
46.601656 -29.136784 18.614531
45.405941 -27.904985 17.96218
46.04541 -29.000194 17.953587
53.464056 -36.193188 19.688271
52.846914 -35.582756 20.405144
53.936737 -36.253704 20.621536
53.464056 -36.193188 19.688271
54.2659 -36.652354 18.85306
43.431925 -18.408745 17.213445
42.718155 -18.324241 16.846521
43.361742 -16.878549 17.024167
43.487107 -19.939757 17.448245
43.431925 -18.408745 17.213445
44.130694 -18.494065 17.625892
43.678322 -21.369594 17.561677
42.979554 -21.284275 17.149231
43.487107 -19.939757 17.448245
64.952541 -23.337817 26.967189
65.670711 -22.100959 26.606831
65.663338 -23.052414 27.624912
64.147141 -23.636191 26.327317
64.952541 -23.337817 26.967189
62.665058 -27.038283 28.065863
62.56453 -26.11824 27.062233
62.024872 -28.235018 28.391378
62.665058 -27.038283 28.065863
62.895237 -27.92284 29.0383
61.734814 -30.286591 29.600105
60.837295 -30.609685 28.917467
61.357533 -29.44267 28.681177
61.734814 -30.286591 29.600105
62.564606 -29.937936 30.357473
44.851169 10.57522 10.422372
43.974367 10.895734 10.456198
44.80187 8.620418 10.886594
44.851169 10.57522 10.422372
45.699736 10.296992 10.411723
46.464315 6.105462 11.282906
45.567774 6.398032 11.381736
46.546978 8.04962 10.777114
47.341415 5.856404 11.222466
46.362211 4.204815 11.827088
46.464315 6.105462 11.282906
48.367091 7.453893 10.521528
49.37153 9.016752 9.861673
48.264986 5.553247 11.065711
47.341415 5.856404 11.222466
48.367091 7.453893 10.521528
59.239258 15.612417 9.721711
58.957826 16.521275 10.500483
59.383657 15.108614 10.34154
58.921039 16.064255 9.213071
59.239258 15.612417 9.721711
59.346871 14.651594 9.054129
58.731257 16.596449 8.705018
58.921039 16.064255 9.213071
58.650759 15.583704 8.163489
58.731257 16.596449 8.705018
58.478924 14.513146 7.797339
58.650759 15.583704 8.163489
58.856817 14.032874 8.179339
58.132156 13.395176 7.574259
58.478924 14.513146 7.797339
58.250473 11.783351 7.782021
57.697647 12.216212 7.54309
58.132156 13.395176 7.574259
47.876634 -30.279611 19.289882
47.341803 -29.166574 19.124297
48.02795 -29.197805 19.728772
47.876634 -30.279611 19.289882
48.609573 -31.272837 19.381055
67.632309 -11.839203 19.432844
66.877434 -11.924767 18.935586
67.591072 -10.5939 18.640904
67.646115 -13.040498 20.271217
67.632309 -11.839203 19.432844
68.359752 -11.709632 19.976535
68.928936 -12.764146 21.477761
68.949944 -11.614168 20.595793
68.315312 -14.046038 21.724588
68.928936 -12.764146 21.477761
68.870689 -13.899259 22.38744
68.499234 -17.059758 25.316904
68.658509 -16.047038 24.310391
67.891827 -18.314304 25.591894
68.499234 -17.059758 25.316904
68.358017 -18.05906 26.335102
66.857876 -22.408966 29.053071
66.317608 -22.726525 28.324866
66.921776 -21.497998 27.992759
67.336674 -22.050334 29.802619
67.8185 -20.827527 29.504103
67.69313 -21.697422 30.585757
66.857876 -22.408966 29.053071
67.336674 -22.050334 29.802619
58.55319 16.816124 12.105061
58.573915 17.377351 11.404078
57.995455 17.093646 13.878868
57.21559 17.793631 14.990022
58.683162 16.35294 12.828138
57.995455 17.093646 13.878868
58.674463 15.831809 13.617197
59.232198 15.554287 11.84339
58.55319 16.816124 12.105061
58.683162 16.35294 12.828138
60.650259 12.775552 14.943293
60.482922 13.140922 14.053833
59.810575 13.896238 15.083443
61.604075 11.748815 14.800219
60.650259 12.775552 14.943293
60.931729 12.504133 15.829829
62.781887 10.428793 15.616314
63.308719 9.577861 14.687092
62.412377 10.626464 14.757533
62.781887 10.428793 15.616314
62.171366 11.233645 16.62444
42.099738 -13.443081 15.678054
42.192669 -11.731566 15.335229
42.792769 -11.833893 15.777026
42.099738 -13.443081 15.678054
42.095427 -15.062972 15.899686
42.069494 -16.68729 16.168382
42.162329 -18.20228 16.316952
55.40683 -36.249972 23.584339
55.140766 -35.398587 24.039136
54.909374 -36.282742 22.567836
55.40683 -36.249972 23.584339
55.843342 -36.992293 22.996961
55.714453 -37.456625 20.154139
54.949883 -36.9446 20.942561
56.110456 -37.537089 21.192037
55.494095 -37.222542 19.013807
55.714453 -37.456625 20.154139
62.365631 -24.174173 25.175443
63.289887 -23.896127 25.749869
62.410111 -25.164067 26.131099
55.869906 -34.238911 25.151522
55.051645 -34.454819 24.403383
55.112881 -33.436977 24.631847
56.799906 -32.958098 26.119965
56.292488 -32.080934 25.398716
57.161253 -31.817963 26.138694
56.612646 -34.027344 26.014874
56.799906 -32.958098 26.119965
55.869906 -34.238911 25.151522
56.612646 -34.027344 26.014874
59.956247 -30.933524 28.169875
60.837295 -30.609685 28.917467
42.379702 11.449877 10.277669
43.193895 11.154146 10.355082
42.379702 11.449877 10.277669
41.697931 9.645522 10.465196
40.517181 3.889757 10.913185
41.026344 3.739818 11.367537
39.987116 0.01948 11.116715
40.496279 -0.130459 11.571067
39.630869 -1.857178 10.771278
39.987116 0.01948 11.116715
39.654226 -3.781322 10.972151
39.630869 -1.857178 10.771278
39.629465 -5.700816 11.229826
39.654226 -3.781322 10.972151
39.957756 -3.894564 11.664122
39.654103 -7.521698 11.395251
39.629465 -5.700816 11.229826
39.908905 -7.637466 12.143204
39.654103 -7.521698 11.395251
40.328859 -7.754146 12.718319
39.908905 -7.637466 12.143204
40.352949 -5.930738 12.496913
40.705257 -7.865921 13.353407
40.328859 -7.754146 12.718319
41.242076 -7.98691 13.804412
40.705257 -7.865921 13.353407
41.309722 -6.168407 13.523033
41.743085 -8.096848 14.31717
41.242076 -7.98691 13.804412
42.392038 -8.222884 14.642779
41.743085 -8.096848 14.31717
42.495494 -6.415432 14.299646
43.015073 -8.331923 15.029727
42.262664 -10.013338 15.047252
42.392038 -8.222884 14.642779
54.039337 12.594805 7.709874
54.874555 13.909289 7.35783
54.039337 12.594805 7.709874
53.99663 10.82047 8.111256
52.13587 7.991836 9.315043
51.231407 8.351281 9.489012
52.073057 6.219288 9.843656
52.13587 7.991836 9.315043
53.056885 7.680354 9.15196
57.113512 10.993598 7.654997
56.995195 12.605423 7.447235
57.697647 12.216212 7.54309
63.844135 -8.178512 15.732172
63.679718 -6.800912 15.07257
64.66354 -6.776294 15.32468
63.940708 -9.551978 16.419433
62.956886 -9.576596 16.167323
63.844135 -8.178512 15.732172
64.939099 -9.490828 16.686504
64.05185 -10.888912 17.121654
63.940708 -9.551978 16.419433
65.832302 -9.452967 17.040496
64.939099 -9.490828 16.686504
66.725281 -9.378818 17.417957
65.943219 -10.753612 17.766185
65.832302 -9.452967 17.040496
65.986232 5.999221 15.643576
66.355228 5.846101 16.502454
66.211781 4.935742 14.973413
65.515396 6.109452 14.884778
65.986232 5.999221 15.643576
67.263431 3.586974 15.920863
67.057476 4.693343 16.544355
67.63829 3.454805 16.733007
66.751499 -4.039034 15.259089
65.999889 -4.019976 14.786619
66.500794 -2.668475 14.669704
67.885029 -2.708239 15.709458
67.520668 -1.388175 15.256455
68.153293 -1.40888 15.823739
67.520347 -4.027202 15.715895
67.885029 -2.708239 15.709458
66.751499 -4.039034 15.259089
67.520347 -4.027202 15.715895
67.494724 -9.332602 17.884053
66.725281 -9.378818 17.417957
67.591072 -10.5939 18.640904
67.494724 -9.332602 17.884053
45.909148 -25.602826 18.822947
46.351862 -26.82968 18.897726
45.57011 -26.798334 18.468874
45.637124 -24.271638 18.650112
46.418875 -24.302984 19.078964
45.909148 -25.602826 18.822947
44.826443 -24.235598 18.288515
45.33617 -22.935755 18.544531
45.637124 -24.271638 18.650112
44.179254 -24.130493 17.773369
44.826443 -24.235598 18.288515
43.501894 -24.037692 17.313233
43.848129 -22.806914 17.722798
44.179254 -24.130493 17.773369
43.004551 -23.860619 16.704034
43.501894 -24.037692 17.313233
51.93326 -34.800779 20.120311
52.405941 -34.861295 21.053577
52.846914 -35.582756 20.405144
50.943148 -34.033603 19.946804
51.93326 -34.800779 20.120311
51.384121 -34.755064 19.298371
49.525187 -33.111361 18.996309
49.277885 -32.271056 19.577964
50.146707 -33.147583 19.706519
49.095833 -32.939732 18.144426
49.525187 -33.111361 18.996309
49.964655 -33.816259 18.27298
48.599542 -32.786057 17.392011
49.095833 -32.939732 18.144426
50.358863 -34.059702 16.527978
50.596029 -34.392536 17.492846
49.236751 -33.337507 16.544719
50.358863 -34.059702 16.527978
50.060314 -33.752578 15.651601
48.599542 -32.786057 17.392011
49.236751 -33.337507 16.544719
3 0 59 57
3 1 62 60
3 3 65 63
3 3 67 65
3 3 69 67
3 2 72 70
3 231 75 232
3 234 233 75
3 5 235 236
3 6 237 238
3 6 239 240
3 7 78 76
3 9 81 79
3 9 83 81
3 4 86 84
3 10 89 87
3 10 91 89
3 10 241 243
3 243 242 91
3 241 242 243
3 11 94 92
3 11 95 94
3 11 97 95
3 12 100 98
3 12 102 100
3 244 103 245
3 246 105 247
3 248 247 103
3 246 247 248
3 13 108 106
3 13 110 108
3 13 112 110
3 14 115 113
3 14 117 115
3 8 122 120
3 250 249 124
3 15 127 125
3 17 128 58
3 17 129 128
3 18 132 130
3 20 133 61
3 20 134 133
3 252 251 135
3 253 137 254
3 256 255 137
3 257 138 258
3 260 259 138
3 261 140 262
3 263 141 264
3 265 264 140
3 263 264 265
3 22 266 267
3 23 142 64
3 23 143 142
3 23 145 143
3 25 146 66
3 25 147 146
3 25 149 147
3 27 150 68
3 27 151 150
3 28 154 152
3 30 155 71
3 30 268 270
3 270 269 155
3 268 269 270
3 271 157 272
3 273 158 274
3 275 159 276
3 277 276 158
3 275 276 277
3 32 278 279
3 32 280 282
3 280 160 281
3 280 281 282
3 32 161 160
3 284 283 73
3 33 162 74
3 33 163 162
3 33 165 163
3 285 166 286
3 288 287 166
3 16 289 291
3 291 290 126
3 289 290 291
3 292 169 293
3 294 293 167
3 292 293 294
3 295 170 296
3 299 298 170
3 297 298 299
3 36 173 171
3 38 174 77
3 38 175 174
3 19 176 131
3 39 177 80
3 39 178 177
3 39 179 178
3 40 180 82
3 40 181 180
3 31 182 156
3 41 183 85
3 41 184 183
3 300 185 301
3 302 301 136
3 300 301 302
3 42 186 88
3 42 187 186
3 42 188 187
3 43 189 90
3 43 190 189
3 43 191 190
3 44 303 305
3 305 304 93
3 303 304 305
3 44 306 307
3 44 308 309
3 45 310 312
3 310 192 311
3 310 311 312
3 45 193 192
3 45 194 193
3 46 195 96
3 46 196 195
3 21 197 139
3 47 198 99
3 47 199 198
3 47 200 199
3 48 201 101
3 48 202 201
3 49 313 315
3 315 314 104
3 313 314 315
3 49 316 318
3 316 203 317
3 316 317 318
3 24 204 144
3 50 205 107
3 50 206 205
3 50 207 206
3 51 208 109
3 51 209 208
3 51 210 209
3 52 211 111
3 52 212 211
3 26 213 148
3 53 214 114
3 53 215 214
3 53 216 215
3 320 319 116
3 34 217 164
3 54 218 118
3 54 219 218
3 321 220 322
3 55 221 119
3 55 222 221
3 55 223 222
3 37 224 172
3 56 225 121
3 56 226 225
3 29 227 153
3 324 323 123
3 35 228 168
3 325 229 326
3 327 230 328
3 329 328 229
3 327 328 329
3 57 58 15
3 59 58 57
3 59 17 58
3 60 61 18
3 62 61 60
3 62 20 61
3 63 64 22
3 65 64 63
3 65 23 64
3 65 66 23
3 67 66 65
3 67 25 66
3 67 68 25
3 69 68 67
3 69 27 68
3 70 71 28
3 72 71 70
3 72 30 71
3 330 32 331
3 332 73 333
3 334 333 32
3 332 333 334
3 335 73 336
3 339 338 73
3 337 338 339
3 340 74 341
3 75 342 344
3 342 74 343
3 342 343 344
3 75 33 74
3 75 345 347
3 347 346 33
3 345 346 347
3 349 348 75
3 351 350 16
3 76 77 36
3 78 77 76
3 78 38 77
3 79 80 19
3 81 80 79
3 81 39 80
3 81 82 39
3 83 82 81
3 83 40 82
3 84 85 31
3 86 85 84
3 86 41 85
3 87 352 354
3 352 88 353
3 352 353 354
3 89 88 87
3 89 42 88
3 89 90 42
3 91 90 89
3 91 43 90
3 91 355 357
3 357 356 43
3 355 356 357
3 359 358 91
3 92 360 362
3 360 93 361
3 360 361 362
3 94 93 92
3 94 44 93
3 94 363 365
3 365 364 44
3 363 364 365
3 95 366 368
3 368 367 94
3 366 367 368
3 95 369 371
3 369 45 370
3 369 370 371
3 95 96 45
3 97 96 95
3 97 46 96
3 98 99 21
3 100 99 98
3 100 47 99
3 100 101 47
3 102 101 100
3 102 48 101
3 103 372 373
3 103 374 375
3 103 376 378
3 376 104 377
3 376 377 378
3 105 104 103
3 105 49 104
3 106 107 24
3 108 107 106
3 108 50 107
3 108 109 50
3 110 109 108
3 110 51 109
3 110 111 51
3 112 111 110
3 112 52 111
3 113 114 26
3 115 114 113
3 115 53 114
3 115 116 53
3 117 116 115
3 117 379 381
3 381 380 116
3 379 380 381
3 382 118 383
3 384 383 34
3 382 383 384
3 385 118 386
3 387 54 388
3 389 388 118
3 387 388 389
3 390 119 391
3 392 119 393
3 394 55 395
3 396 395 119
3 394 395 396
3 398 397 55
3 120 121 37
3 122 121 120
3 122 56 121
3 399 123 400
3 401 400 29
3 399 400 401
3 402 123 403
3 405 404 123
3 124 406 408
3 408 407 35
3 406 407 408
3 410 409 124
3 125 126 5
3 127 126 125
3 127 16 126
3 58 127 15
3 128 127 58
3 128 16 127
3 128 411 413
3 413 412 16
3 411 412 413
3 129 414 416
3 416 415 128
3 414 415 416
3 129 417 419
3 417 6 418
3 417 418 419
3 130 131 7
3 132 131 130
3 132 19 131
3 61 132 18
3 133 132 61
3 133 19 132
3 133 79 19
3 134 79 133
3 134 9 79
3 135 136 4
3 420 136 421
3 422 421 135
3 420 421 422
3 424 423 136
3 425 87 426
3 137 427 429
3 427 87 428
3 427 428 429
3 137 10 87
3 137 430 432
3 432 431 10
3 430 431 432
3 434 433 137
3 435 92 436
3 138 437 439
3 437 92 438
3 437 438 439
3 138 11 92
3 138 139 11
3 440 139 441
3 442 441 138
3 440 441 442
3 443 21 444
3 445 444 139
3 443 444 445
3 140 446 447
3 140 448 450
3 448 21 449
3 448 449 450
3 140 98 21
3 141 98 140
3 141 12 98
3 64 451 453
3 453 452 22
3 451 452 453
3 142 454 456
3 456 455 64
3 454 455 456
3 142 457 458
3 142 459 460
3 143 461 463
3 463 462 142
3 461 462 463
3 143 464 465
3 143 466 468
3 466 144 467
3 466 467 468
3 145 144 143
3 145 24 144
3 66 145 23
3 146 145 66
3 146 24 145
3 146 106 24
3 147 106 146
3 147 13 106
3 147 148 13
3 149 148 147
3 149 26 148
3 68 149 25
3 150 149 68
3 150 26 149
3 150 113 26
3 151 113 150
3 151 14 113
3 152 153 8
3 154 153 152
3 154 29 153
3 71 154 28
3 155 154 71
3 155 29 154
3 155 469 471
3 471 470 29
3 469 470 471
3 473 472 155
3 474 156 475
3 476 475 1
3 474 475 476
3 157 477 479
3 477 156 478
3 477 478 479
3 157 31 156
3 480 157 481
3 158 482 484
3 482 157 483
3 482 483 484
3 158 31 157
3 158 84 31
3 159 84 158
3 159 4 84
3 485 159 486
3 160 487 489
3 487 159 488
3 487 488 489
3 160 4 159
3 160 135 4
3 161 135 160
3 161 490 492
3 492 491 135
3 490 491 492
3 73 161 32
3 493 161 494
3 495 494 73
3 493 494 495
3 497 496 161
3 498 22 499
3 74 500 501
3 162 502 504
3 504 503 74
3 502 503 504
3 162 505 507
3 505 22 506
3 505 506 507
3 162 63 22
3 163 63 162
3 163 3 63
3 163 164 3
3 165 164 163
3 165 34 164
3 508 165 509
3 510 509 33
3 508 509 510
3 166 511 513
3 511 165 512
3 511 512 513
3 166 34 165
3 166 514 516
3 516 515 34
3 514 515 516
3 518 517 166
3 126 519 521
3 521 520 5
3 519 520 521
3 523 522 126
3 525 524 16
3 167 168 2
3 169 168 167
3 169 35 168
3 526 169 527
3 170 528 530
3 528 169 529
3 528 529 530
3 170 35 169
3 170 124 35
3 531 124 532
3 533 532 170
3 531 532 533
3 535 534 124
3 171 172 0
3 173 172 171
3 173 37 172
3 77 173 36
3 174 173 77
3 174 37 173
3 174 120 37
3 175 120 174
3 175 8 120
3 131 78 7
3 176 78 131
3 176 38 78
3 80 176 19
3 177 176 80
3 177 38 176
3 177 175 38
3 178 175 177
3 178 8 175
3 178 152 8
3 179 152 178
3 179 28 152
3 82 179 39
3 180 179 82
3 180 28 179
3 180 70 28
3 181 70 180
3 181 2 70
3 156 62 1
3 182 62 156
3 182 20 62
3 85 182 31
3 183 182 85
3 183 20 182
3 183 134 20
3 184 134 183
3 184 9 134
3 136 86 4
3 185 86 136
3 185 41 86
3 88 536 538
3 536 185 537
3 536 537 538
3 186 185 88
3 186 41 185
3 186 184 41
3 187 184 186
3 187 9 184
3 187 83 9
3 188 83 187
3 188 40 83
3 90 188 42
3 189 188 90
3 189 40 188
3 189 181 40
3 190 181 189
3 190 2 181
3 190 167 2
3 191 167 190
3 191 539 541
3 541 540 167
3 539 540 541
3 542 191 543
3 544 543 43
3 542 543 544
3 545 191 546
3 548 547 191
3 550 549 10
3 93 551 552
3 554 553 93
3 556 555 44
3 192 557 558
3 192 559 560
3 192 561 562
3 193 563 565
3 565 564 192
3 563 564 565
3 193 566 567
3 193 568 569
3 194 570 572
3 572 571 193
3 570 571 572
3 194 573 574
3 96 194 45
3 195 194 96
3 195 575 577
3 577 576 194
3 575 576 577
3 195 578 579
3 196 580 582
3 582 581 195
3 580 581 582
3 196 583 585
3 583 5 584
3 583 584 585
3 139 97 11
3 197 97 139
3 197 46 97
3 99 197 21
3 198 197 99
3 198 46 197
3 198 196 46
3 199 196 198
3 199 5 196
3 199 125 5
3 200 125 199
3 200 15 125
3 101 200 47
3 201 200 101
3 201 15 200
3 201 57 15
3 202 57 201
3 202 0 57
3 104 586 587
3 589 588 104
3 590 141 591
3 203 592 594
3 592 141 593
3 592 593 594
3 203 12 141
3 144 595 597
3 595 105 596
3 595 596 597
3 204 105 144
3 204 49 105
3 107 204 24
3 205 204 107
3 205 49 204
3 205 203 49
3 206 203 205
3 206 12 203
3 206 102 12
3 207 102 206
3 207 48 102
3 109 207 50
3 208 207 109
3 208 48 207
3 208 202 48
3 209 202 208
3 209 0 202
3 209 171 0
3 210 171 209
3 210 36 171
3 111 210 51
3 211 210 111
3 211 36 210
3 211 76 36
3 212 76 211
3 212 7 76
3 148 112 13
3 213 112 148
3 213 52 112
3 114 213 26
3 214 213 114
3 214 52 213
3 214 212 52
3 215 212 214
3 215 7 212
3 215 130 7
3 216 130 215
3 216 18 130
3 116 216 53
3 598 216 599
3 600 599 116
3 598 599 600
3 601 18 602
3 603 602 216
3 601 602 603
3 604 60 605
3 606 605 18
3 604 605 606
3 607 60 608
3 609 1 610
3 611 610 60
3 609 610 611
3 164 69 3
3 217 69 164
3 217 27 69
3 118 217 34
3 218 217 118
3 218 27 217
3 218 151 27
3 219 151 218
3 219 14 151
3 220 612 613
3 220 614 616
3 614 54 615
3 614 615 616
3 119 617 619
3 617 220 618
3 617 618 619
3 221 220 119
3 221 54 220
3 221 219 54
3 222 219 221
3 222 14 219
3 222 117 14
3 223 117 222
3 223 620 622
3 622 621 117
3 620 621 622
3 623 223 624
3 625 624 55
3 623 624 625
3 626 223 627
3 629 628 223
3 630 1 631
3 633 632 1
3 172 59 0
3 224 59 172
3 224 17 59
3 121 224 37
3 225 224 121
3 225 17 224
3 225 129 17
3 226 129 225
3 226 6 129
3 153 122 8
3 227 122 153
3 227 56 122
3 123 227 29
3 634 227 635
3 636 635 123
3 634 635 636
3 637 56 638
3 639 638 227
3 637 638 639
3 640 226 641
3 642 641 56
3 640 641 642
3 643 226 644
3 645 6 646
3 647 646 226
3 645 646 647
3 649 648 6
3 168 72 2
3 228 72 168
3 228 30 72
3 650 228 651
3 652 651 35
3 650 651 652
3 229 653 655
3 653 228 654
3 653 654 655
3 229 30 228
3 229 656 658
3 658 657 30
3 656 657 658
3 230 659 661
3 661 660 229
3 659 660 661
3 230 662 663
3 664 230 665
3 666 230 667
3 666 667 668
3 670 669 230
