ply
format ascii 1.0
element vertex 637
property float x
property float y
property float z
element face 693
property list uchar int vertex_index
end_header
4.267363 25.649288 76.407906
0.540371 36.217567 57.995934
0.865461 4.054701 66.983788
0.717403 32.140217 69.220367
-0.410208 -0.732138 75.710823
0.517143 15.92382 74.349586
0.852951 20.27359 64.465088
4.680784 -23.700863 57.22081
-1.435427 -17.521387 75.22155
1.029964 -12.588961 66.32
3.081182 -7.746293 58.332222
2.246655 8.265684 57.885788
2.046654 23.963169 53.661415
2.066057 29.226871 73.437523
3.741726 17.777973 79.093872
1.358374 13.099163 78.149918
1.846334 21.203747 76.24247
0.718565 24.055367 72.265945
8.373051 9.406078 81.836754
1.263414 37.677639 51.908089
3.644299 -26.061476 61.259026
-1.140312 -14.751128 83.259972
-1.272547 -11.873024 79.58651
0.021975 1.778646 71.477951
-0.223736 -6.663473 71.205116
0.882 -4.254745 66.882256
2.355394 -10.159456 62.170074
1.969002 -1.955137 62.624168
2.547045 0.305098 58.530617
1.751017 6.165474 62.397148
0.720062 28.265812 61.704681
1.511492 22.098351 59.029411
1.366852 29.960464 55.908653
2.021751 31.614098 50.23497
0.266811 34.423496 63.930283
0.619043 4.859737 79.176422
0.121572 7.67001 75.449753
0.265179 10.105515 71.065468
0.886011 12.22455 66.229156
0.412481 18.279095 69.691643
0.406755 26.362011 67.299164
6.984262 21.486843 78.240837
-0.535023 -17.831114 86.227203
6.069262 13.828461 80.908386
-0.977629 -9.194741 75.490417
-0.356415 -15.041361 70.70565
1.375185 -20.707771 65.81813
2.929865 -18.278969 61.535706
3.827644 -15.81496 57.709991
2.811523 -5.280045 54.852478
2.287195 2.680048 54.661224
2.063705 10.565392 53.534836
1.628479 14.170349 61.211929
2.111996 16.151566 56.246246
3.07486 27.518036 75.077042
3.149996 31.479416 73.413376
4.406029 29.558472 74.784904
4.048298 21.725075 77.847656
2.713236 19.560364 77.807137
2.931725 23.547646 76.544922
1.988634 25.221066 74.948334
0.865679 36.981537 54.94355
0.826887 40.838604 52.683884
0.473736 40.154537 55.801765
-0.466644 -10.669547 83.043007
-1.259115 -13.284345 81.493233
-0.678848 -9.148891 81.382141
0.411201 2.943499 69.253563
0.348358 -1.239647 69.221474
0.862968 -0.086048 67.020546
1.458942 -3.093626 64.73893
1.381401 1.030321 64.814232
1.842539 2.120527 62.619644
1.331226 5.1231 64.690758
0.62859 32.249462 59.965996
1.021379 29.127628 58.80806
0.935896 33.07053 56.987732
1.302988 33.846622 54.014755
0.387266 33.353405 66.686768
0.310522 37.395088 64.73822
0.662254 36.182495 67.356033
1.595293 7.423763 80.313927
0.843393 14.572845 76.368263
0.591906 10.461725 76.997566
0.340811 11.815952 75.018944
0.117153 8.93273 73.329399
0.267281 13.062592 72.846153
0.355509 14.208836 70.506378
0.379608 17.155827 72.113312
0.740643 28.099209 70.859444
0.468657 25.270222 69.887589
0.445282 29.312065 68.405418
0.348171 30.393227 65.733505
1.51265 -17.295248 87.720978
0.261292 -13.90844 85.823883
9.109274 13.149036 80.56897
7.249327 11.673868 81.475113
6.584539 17.676311 79.660164
5.098274 -27.497847 57.182602
-1.816114 -18.783838 77.469437
-1.008831 -20.339914 72.841377
-0.421879 -2.082739 77.682961
-0.805332 -6.30378 77.651207
-0.69779 -4.966269 75.633102
0.28727 -9.645607 68.775436
-0.311541 -10.875978 70.952774
0.314854 -13.812732 68.488457
0.395056 -17.91102 68.243324
1.175873 -16.692451 66.029686
2.197174 -19.498356 63.626801
1.940985 -15.469996 63.891586
2.825466 -8.95323 60.207581
3.139957 -13.018445 59.886093
3.432821 -11.788519 58.039879
3.452755 -10.549077 56.307266
3.08098 -6.527262 56.548676
2.370102 4.29661 58.329491
2.529684 1.466412 56.568687
2.358021 5.431047 56.253883
2.141283 6.63069 54.22319
2.248425 9.377647 55.690643
0.880838 16.259979 65.474533
1.266998 13.206985 63.726379
1.22967 17.208805 62.864487
1.814722 23.013546 56.325661
1.868652 19.086426 57.636246
2.074831 20.069546 55.065491
2.162546 17.22361 53.820427
2.159445 21.114616 52.537994
2.172096 24.967953 51.046455
1.275593 30.767635 71.481354
2.087353 33.228546 71.719078
3.344814 13.800827 80.139244
2.042524 11.503595 79.687805
2.416553 15.547928 78.855377
1.635939 17.165924 77.311028
1.039501 18.650337 75.500771
0.644295 20.00034 73.43161
1.176409 22.702255 74.392761
1.253576 26.738327 73.050018
9.413227 7.033798 82.010841
10.241085 10.722414 80.728264
4.682142 -28.636314 59.201576
4.285175 -24.889889 59.161339
-1.744204 -18.779253 83.47258
-1.787409 -17.372625 81.610092
-1.71163 -16.007421 79.605095
-1.525663 -14.682049 77.50116
-0.26017 0.554333 73.636566
-0.463715 -3.677959 73.54351
-0.107515 -2.43619 71.400932
0.302542 -5.444114 69.041588
0.934324 -8.43184 66.626671
1.733059 -11.37089 64.210777
1.57369 -7.23516 64.516434
2.13842 -6.054155 62.454491
2.560879 -4.883133 60.451279
2.783976 -3.71067 58.516273
2.34906 -0.828014 60.55098
2.187984 3.201746 60.453583
2.070892 7.204199 60.123657
0.798374 24.273808 63.206291
1.17679 21.193748 61.752731
1.105721 25.166641 60.398338
1.440466 26.039993 57.58242
1.76129 26.917137 54.791275
2.027197 27.818504 52.047157
1.714849 30.783813 53.042198
1.686142 34.592754 51.08699
0.328669 35.37114 61.011864
0.245722 39.363003 58.894043
0.180542 38.449158 61.895744
0.519154 -0.832869 81.054291
0.173403 0.690018 79.418106
-0.050928 2.128321 77.61779
1.017326 8.997583 78.765106
0.291006 6.312893 77.403946
-0.132357 3.485041 75.666962
-0.062193 4.762136 73.581444
0.150404 5.9622 71.380417
0.477753 7.090767 69.087181
0.877176 8.158237 66.728699
0.535675 11.197704 68.687355
0.573965 15.268108 68.035545
0.583677 19.31076 67.12664
0.447689 21.221428 71.125931
0.429998 22.326637 68.620811
0.559599 23.335911 65.963692
0.502487 27.352257 64.552826
0.420523 31.364471 62.900291
5.591736 23.634079 77.452858
5.802938 27.481503 75.856758
-0.905602 -16.271053 84.850296
-0.15733 -12.258762 84.531952
6.49678 7.833532 82.572311
5.437876 9.939871 81.982643
4.370401 11.930094 81.176521
4.88039 15.864918 80.120773
5.286676 19.764374 78.877655
5.932035 31.314053 74.099373
-0.794727 -7.695665 79.57592
-1.180845 -10.512376 77.574905
-1.230207 -13.389866 75.337273
-0.657274 -7.913188 73.360085
-0.823837 -12.123141 73.146072
-0.946371 -16.276134 72.9571
-0.345671 -19.125895 70.519691
0.534533 -21.906897 68.095451
3.275188 -22.227978 61.323357
3.88372 -21.01878 59.296745
2.620501 -14.245018 61.840065
3.496716 -17.050987 59.559013
4.249994 -19.796406 57.414833
4.319586 -18.560846 55.690804
2.770714 -2.519688 56.654251
2.510332 -1.289425 54.86084
2.020056 0.000763 53.119347
1.730904 7.916204 52.222588
1.297089 9.180832 64.333923
1.683733 10.18033 61.931
1.987047 11.182791 59.544067
1.573696 18.141697 60.242134
1.923605 15.142487 58.712585
2.165201 12.21645 57.190094
2.188133 13.308918 54.876419
2.199638 28.761868 49.363327
-0.217286 -7.85455 82.092697
-0.572746 -9.909219 82.212574
-0.111184 -8.614878 82.92313
2.227095 8.606303 80.64925
1.942693 6.582299 80.978432
1.161345 -16.446734 87.307923
1.969211 -15.42224 87.427685
8.493377 14.309122 80.393494
9.409453 14.995323 79.859421
4.945693 -25.020035 56.286735
5.154438 -26.918527 56.267632
4.889529 -25.599355 57.201706
4.727296 -23.097934 56.338532
4.945693 -25.020035 56.286735
-1.504402 -19.539849 75.202587
-1.694746 -20.171074 76.32653
-1.625771 -18.152613 76.345494
-1.222129 -18.93065 74.031464
-1.291104 -20.949112 74.0125
-1.504402 -19.539849 75.202587
3.159918 33.458242 72.487484
3.813037 32.469311 73.200382
9.890883 5.804087 82.016853
8.941205 5.168127 82.59055
11.132744 11.251202 80.007999
10.749866 9.461729 80.721604
10.587336 12.540669 80.018001
11.132744 11.251202 80.007999
1.261787 39.551569 50.753075
1.472884 39.870728 49.266415
1.474511 37.996797 50.421429
0.829014 42.725401 51.45205
0.635643 42.437308 53.038865
4.16322 -27.348895 60.230301
4.351884 -29.19544 60.293098
3.832963 -27.908021 61.321824
1.474511 37.996797 50.421429
1.685875 36.454355 50.01088
1.474778 36.135196 51.49754
0.272433 39.412716 63.652176
0.45194 38.809414 65.005291
1.084958 0.413694 81.597454
0.739677 -1.638669 81.784253
0.396223 2.774878 79.297264
0.628217 1.999747 80.087719
0.851037 4.084607 79.966877
7.130021 23.37669 77.450584
6.433758 24.450308 77.056595
6.287999 22.560461 77.846847
-0.877609 -19.75406 86.4039
-0.26947 -18.618677 86.790077
-1.049285 -19.025616 85.6865
-0.877609 -19.75406 86.4039
-0.720313 -17.051083 85.538749
-1.234574 -18.245586 84.998047
-1.049285 -19.025616 85.6865
0.488794 -11.098239 84.951618
0.051981 -13.083601 85.177918
0.698105 -11.923078 85.597583
0.245095 -10.234573 84.357247
0.488794 -11.098239 84.951618
7.434916 8.619805 82.204532
7.004214 6.725154 82.766708
7.94235 7.511427 82.39893
0.217845 41.342365 57.724869
0.177247 40.91049 59.265667
6.701731 30.168617 74.514671
5.867487 29.397778 74.978065
6.637182 28.252342 75.393364
-0.549678 -5.598203 79.55547
-0.435641 -6.343494 80.412037
1.501281 -22.655572 65.778408
1.080955 -23.255135 66.917068
0.954859 -21.307334 66.95679
1.936146 -22.065366 64.647476
1.501281 -22.655572 65.778408
2.725465 -6.637322 54.003422
2.997149 -7.284608 54.768566
2.551052 -4.633328 54.039333
2.725465 -6.637322 54.003422
2.060822 3.323791 53.726867
1.927252 1.984148 52.955929
2.153625 1.340406 53.890285
1.881214 11.206424 52.469612
1.714813 9.88183 51.813488
1.897305 9.240798 52.878712
2.101465 15.853704 53.210121
2.109447 17.801725 52.626377
4.441054 31.508839 73.886146
3.813037 32.469311 73.200382
3.778012 30.518944 74.09914
0.459067 42.095274 54.597805
0.635643 42.437308 53.038865
0.650312 40.49657 54.242824
3.23846 -26.638465 62.374844
3.832963 -27.908021 61.321824
0.627806 38.203118 66.314198
0.45194 38.809414 65.005291
0.486388 36.788792 66.047126
1.339162 5.36662 80.535629
1.942693 6.582299 80.978432
1.107168 6.14175 79.745175
0.851037 4.084607 79.966877
1.339162 5.36662 80.535629
7.86972 22.208506 77.734039
7.680872 20.353317 78.520118
0.754367 -18.350744 87.536965
1.111624 -19.128055 87.955048
0.754367 -18.350744 87.536965
1.161345 -16.446734 87.307923
0.137509 -16.714667 86.561035
-0.26947 -18.618677 86.790077
0.535667 -14.75333 86.359375
-0.136866 -15.869777 86.025543
0.137509 -16.714667 86.561035
0.990821 -12.817667 86.09103
0.535667 -14.75333 86.359375
0.698105 -11.923078 85.597583
0.990821 -12.817667 86.09103
7.563404 13.571538 80.846565
8.179301 12.411452 81.022042
8.493377 14.309122 80.393494
6.973372 14.648834 80.563202
6.659294 12.751165 81.191749
7.563404 13.571538 80.846565
7.23101 16.57276 79.939091
6.326901 15.752386 80.284275
6.973372 14.648834 80.563202
7.48101 18.448051 79.229782
7.23101 16.57276 79.939091
7.680872 20.353317 78.520118
6.784401 19.581577 78.950501
7.48101 18.448051 79.229782
5.351427 -28.781118 56.303543
5.541533 -30.613031 56.381771
5.288381 -29.32976 57.26083
5.351427 -28.781118 56.303543
5.154438 -26.918527 56.267632
-1.922108 -20.785428 77.49115
-1.950384 -19.427081 78.566056
-1.922108 -20.785428 77.49115
-1.694746 -20.171074 76.32653
-1.002493 -22.311776 72.840435
-1.291104 -20.949112 74.0125
-0.638779 -21.718732 71.642063
-1.002493 -22.311776 72.840435
-0.613606 -4.193259 77.667084
-0.55498 -4.90226 78.593113
-0.363254 -2.79174 78.60899
3.652363 -13.178581 57.018619
3.849775 -15.191802 56.853676
3.630232 -13.80174 57.874935
3.66233 -12.558861 56.152313
3.652363 -13.178581 57.018619
3.442788 -11.168798 57.173572
3.530585 -11.927435 55.363487
3.66233 -12.558861 56.152313
3.317765 -9.919124 55.49596
3.530585 -11.927435 55.363487
3.131877 -7.908216 55.616665
3.317765 -9.919124 55.49596
3.266868 -8.53817 56.427971
2.946251 -5.903654 55.700577
2.997149 -7.284608 54.768566
3.131877 -7.908216 55.616665
2.107897 19.747228 51.98516
2.109447 17.801725 52.626377
2.160995 19.169113 53.17921
2.129616 21.677567 51.29512
2.107897 19.747228 51.98516
2.135941 23.604235 50.549351
2.129616 21.677567 51.29512
2.16577 23.041285 51.792225
2.168115 25.506472 49.764263
2.135941 23.604235 50.549351
2.133086 32.039935 48.870674
2.029515 33.467363 49.235893
1.264442 32.782007 70.588192
0.985348 33.468298 69.457698
0.996498 31.453926 70.35086
1.670322 34.012462 70.707054
1.264442 32.782007 70.588192
1.681473 31.99809 71.600216
2.077102 35.229042 70.7594
1.670322 34.012462 70.707054
2.628597 34.332808 71.640335
2.618675 32.353981 72.566227
3.159918 33.458242 72.487484
2.077102 35.229042 70.7594
2.628597 34.332808 71.640335
2.693669 12.652211 79.913524
2.45071 10.646219 80.336189
3.101855 11.794835 80.561909
1.951152 -18.12623 87.998711
1.111624 -19.128055 87.955048
2.394125 -16.329644 87.705437
1.951152 -18.12623 87.998711
1.969211 -15.42224 87.427685
2.394125 -16.329644 87.705437
8.462438 6.325287 82.485973
8.941205 5.168127 82.59055
8.893139 8.219938 81.923798
7.94235 7.511427 82.39893
8.462438 6.325287 82.485973
10.335938 7.617421 81.362892
9.890883 5.804087 82.016853
9.827156 8.878106 81.369552
10.335938 7.617421 81.362892
10.749866 9.461729 80.721604
10.021431 13.753981 79.938355
9.675179 11.935725 80.648617
10.587336 12.540669 80.018001
9.409453 14.995323 79.859421
10.021431 13.753981 79.938355
1.043524 41.132052 51.140973
1.261787 39.551569 50.753075
1.045151 39.258122 52.295986
1.043524 41.132052 51.140973
0.829014 42.725401 51.45205
4.86744 -30.436285 59.325603
4.351884 -29.19544 60.293098
5.080315 -29.898993 58.270317
4.86744 -30.436285 59.325603
4.890208 -28.06708 58.192089
5.288381 -29.32976 57.26083
5.080315 -29.898993 58.270317
-1.988694 -20.081824 82.614116
-1.994765 -20.750979 83.584602
-2.010296 -19.37851 81.682873
-1.988694 -20.081824 82.614116
-1.765807 -18.075939 82.541336
-1.936031 -18.721474 80.636383
-2.010296 -19.37851 81.682873
-1.898142 -18.038873 79.633884
-1.936031 -18.721474 80.636383
-1.749519 -16.690023 80.607594
-1.763872 -17.395629 78.537266
-1.950384 -19.427081 78.566056
-1.898142 -18.038873 79.633884
1.861711 34.956691 49.661903
2.029515 33.467363 49.235893
1.853947 33.103426 50.66098
1.861711 34.956691 49.661903
1.685875 36.454355 50.01088
0.144657 40.453567 60.766517
0.177247 40.91049 59.265667
0.213132 38.906081 60.394894
0.207443 39.939751 62.230938
0.245532 37.922123 63.316982
0.272433 39.412716 63.652176
0.144657 40.453567 60.766517
0.207443 39.939751 62.230938
0.957773 35.489437 68.525531
0.689828 34.161356 68.2882
0.985348 33.468298 69.457698
0.932662 37.504069 67.526561
0.957773 35.489437 68.525531
0.627806 38.203118 66.314198
0.932662 37.504069 67.526561
0.2213 -2.912096 81.151223
0.739677 -1.638669 81.784253
0.107263 -2.166805 80.294655
0.2213 -2.912096 81.151223
0.801092 1.238304 80.905811
1.084958 0.413694 81.597454
0.346278 -0.071425 80.236199
0.801092 1.238304 80.905811
0.628217 1.999747 80.087719
-0.065613 -1.405362 79.476562
0.107263 -2.166805 80.294655
0.346278 -0.071425 80.236199
-0.124238 -0.696361 78.550534
-0.363254 -2.79174 78.60899
-0.065613 -1.405362 79.476562
1.818909 9.463679 80.000866
2.227095 8.606303 80.64925
2.45071 10.646219 80.336189
6.539359 26.37402 76.258545
5.697337 25.557791 76.654808
6.433758 24.450308 77.056595
6.637182 28.252342 75.393364
6.539359 26.37402 76.258545
7.130021 23.37669 77.450584
7.86972 22.208506 77.734039
-1.653876 -19.499686 84.309189
-1.994765 -20.750979 83.584602
-1.324903 -17.525153 84.161438
-1.653876 -19.499686 84.309189
-1.234574 -18.245586 84.998047
0.090438 -9.439965 83.612774
-0.311987 -11.464154 83.78748
0.245095 -10.234573 84.357247
-0.111184 -8.614878 82.92313
0.090438 -9.439965 83.612774
6.06588 5.893156 83.04795
7.004214 6.725154 82.766708
5.597575 6.922342 82.731857
6.06588 5.893156 83.04795
5.068123 7.975511 82.437023
5.597575 6.922342 82.731857
5.967328 8.886702 82.277477
4.599007 8.948671 82.015819
5.068123 7.975511 82.437023
4.06527 9.943782 81.612758
4.599007 8.948671 82.015819
4.904139 10.934983 81.579582
3.614649 10.859469 81.080547
4.06527 9.943782 81.612758
3.857608 12.865461 80.657882
3.101855 11.794835 80.561909
3.614649 10.859469 81.080547
0.331852 41.738132 56.17873
0.359729 39.75877 57.347904
0.217845 41.342365 57.724869
0.459067 42.095274 54.597805
0.331852 41.738132 56.17873
5.204057 32.386629 73.543381
4.441054 31.508839 73.886146
5.169032 30.436262 74.442138
6.759634 32.038853 73.578636
6.701731 30.168617 74.514671
5.963368 33.225447 73.143028
6.759634 32.038853 73.578636
5.204057 32.386629 73.543381
5.963368 33.225447 73.143028
-0.377702 -7.070107 81.315147
-0.217286 -7.85455 82.092697
-0.736787 -8.422278 80.47903
-0.377702 -7.070107 81.315147
-0.435641 -6.343494 80.412037
-0.800029 -6.999722 78.613563
-0.549678 -5.598203 79.55547
-0.55498 -4.90226 78.593113
-0.307199 -21.111722 70.48122
-0.638779 -21.718732 71.642063
-0.677251 -19.732905 71.680534
0.132904 -22.502223 69.2691
-0.307199 -21.111722 70.48122
0.094431 -20.516396 69.307571
0.635875 -23.838757 68.09314
0.132904 -22.502223 69.2691
0.635875 -23.838757 68.09314
1.080955 -23.255135 66.917068
3.070704 -24.742219 62.367924
3.23846 -26.638465 62.374844
2.347141 -21.460659 63.551811
1.936146 -22.065366 64.647476
1.78618 -20.103064 64.722465
2.886148 -22.82547 62.400089
2.347141 -21.460659 63.551811
2.736181 -20.863167 62.475079
3.459744 -24.144727 61.291191
3.070704 -24.742219 62.367924
2.886148 -22.82547 62.400089
4.511902 -21.145705 56.435543
4.727296 -23.097934 56.338532
4.465389 -21.748635 57.317822
4.546698 -20.527926 55.573528
4.511902 -21.145705 56.435543
4.28479 -19.178626 56.552819
4.42753 -19.916328 54.783047
4.546698 -20.527926 55.573528
4.095746 -16.564745 55.844082
4.073615 -17.187903 56.700398
3.849775 -15.191802 56.853676
4.19348 -17.935134 54.908913
4.095746 -16.564745 55.844082
4.42753 -19.916328 54.783047
4.19348 -17.935134 54.908913
2.400456 -2.638018 54.043515
2.551052 -4.633328 54.039333
2.660928 -3.284735 54.856659
2.155318 -1.992924 53.172768
2.400456 -2.638018 54.043515
2.265194 -0.644331 53.990094
1.792212 -1.315335 52.378956
2.155318 -1.992924 53.172768
1.681123 0.683545 52.260105
1.792212 -1.315335 52.378956
1.681123 0.683545 52.260105
1.927252 1.984148 52.955929
1.987866 5.299112 53.507851
2.060822 3.323791 53.726867
2.214239 4.655369 54.442207
1.782676 5.941868 52.507549
1.987866 5.299112 53.507851
1.936094 7.273447 53.222889
1.469595 6.629409 51.579255
1.782676 5.941868 52.507549
1.444141 8.607335 51.22511
1.469595 6.629409 51.579255
1.444141 8.607335 51.22511
1.714813 9.88183 51.813488
2.114259 13.896358 53.738117
2.175339 15.266264 54.348423
2.101465 15.853704 53.210121
2.052045 12.524596 53.067325
2.125919 11.937155 54.205627
2.114259 13.896358 53.738117
1.881214 11.206424 52.469612
2.052045 12.524596 53.067325
2.181887 27.40343 48.922699
2.168115 25.506472 49.764263
2.185867 26.864911 50.204891
2.22203 30.613819 48.434852
2.110695 30.187983 49.799149
2.133086 32.039935 48.870674
2.223296 29.262517 48.054817
2.22203 30.613819 48.434852
2.181887 27.40343 48.922699
2.223296 29.262517 48.054817
3 0 56 54
3 0 59 57
3 0 54 59
3 1 63 61
3 226 66 227
3 228 227 64
3 226 227 228
3 2 69 67
3 2 71 69
3 2 73 71
3 1 76 74
3 1 61 76
3 3 80 78
3 229 81 230
3 5 84 82
3 5 86 84
3 5 88 86
3 3 91 89
3 3 78 91
3 232 231 93
3 234 233 95
3 7 235 237
3 237 236 98
3 235 236 237
3 7 238 239
3 8 240 242
3 242 241 99
3 240 241 242
3 8 243 245
3 243 100 244
3 243 244 245
3 4 103 101
3 9 106 104
3 9 108 106
3 9 110 108
3 10 113 111
3 10 114 113
3 10 115 114
3 11 118 116
3 11 120 118
3 6 123 121
3 12 126 124
3 12 128 126
3 12 129 128
3 13 131 130
3 247 246 55
3 14 134 132
3 16 135 58
3 16 136 135
3 16 138 136
3 13 139 60
3 13 130 139
3 248 140 249
3 250 141 251
3 253 252 141
3 19 254 256
3 254 255 256
3 258 257 62
3 20 259 261
3 259 142 260
3 259 260 261
3 20 143 142
3 21 145 144
3 22 146 65
3 22 147 146
3 23 150 148
3 25 151 68
3 25 152 151
3 25 154 152
3 27 155 70
3 27 156 155
3 27 158 156
3 29 159 72
3 29 160 159
3 30 163 161
3 32 164 75
3 32 165 164
3 32 167 165
3 19 168 77
3 19 262 264
3 264 263 168
3 262 263 264
3 34 171 169
3 266 265 79
3 267 172 268
3 35 269 271
3 269 173 270
3 269 270 271
3 35 174 173
3 15 175 133
3 36 176 83
3 36 177 176
3 36 178 177
3 37 179 85
3 37 180 179
3 37 182 180
3 39 183 87
3 39 184 183
3 17 185 137
3 40 186 90
3 40 187 186
3 40 188 187
3 34 189 92
3 34 169 189
3 41 272 274
3 274 273 190
3 272 273 274
3 42 275 276
3 42 277 278
3 42 279 281
3 279 192 280
3 279 280 281
3 282 193 283
3 284 283 94
3 282 283 284
3 286 285 193
3 18 287 289
3 287 194 288
3 287 288 289
3 43 195 96
3 43 196 195
3 43 197 196
3 41 198 97
3 41 190 198
3 291 290 170
3 292 199 293
3 294 293 191
3 292 293 294
3 295 200 296
3 44 201 102
3 44 202 201
3 24 203 149
3 45 204 105
3 45 205 204
3 45 206 205
3 46 207 107
3 46 297 299
3 299 298 207
3 297 298 299
3 46 300 301
3 47 208 109
3 47 209 208
3 26 210 153
3 48 211 112
3 48 212 211
3 48 213 212
3 49 302 303
3 49 304 305
3 28 214 157
3 50 215 117
3 50 216 215
3 50 306 308
3 308 307 216
3 306 307 308
3 51 217 119
3 51 309 311
3 311 310 217
3 309 310 311
3 38 218 181
3 52 219 122
3 52 220 219
3 31 221 162
3 53 222 125
3 53 223 222
3 53 224 223
3 313 312 127
3 33 225 166
3 54 55 13
3 56 55 54
3 56 314 316
3 316 315 55
3 314 315 316
3 57 58 14
3 59 58 57
3 59 16 58
3 59 60 16
3 54 60 59
3 54 13 60
3 61 62 19
3 63 62 61
3 63 317 319
3 319 318 62
3 317 318 319
3 320 20 321
3 64 65 21
3 66 65 64
3 66 22 65
3 67 68 23
3 69 68 67
3 69 25 68
3 69 70 25
3 71 70 69
3 71 27 70
3 71 72 27
3 73 72 71
3 73 29 72
3 74 75 30
3 76 75 74
3 76 32 75
3 76 77 32
3 61 77 76
3 61 19 77
3 78 79 34
3 80 79 78
3 80 322 324
3 324 323 79
3 322 323 324
3 81 325 326
3 81 327 329
3 327 35 328
3 327 328 329
3 82 83 15
3 84 83 82
3 84 36 83
3 84 85 36
3 86 85 84
3 86 37 85
3 86 87 37
3 88 87 86
3 88 39 87
3 89 90 17
3 91 90 89
3 91 40 90
3 91 92 40
3 78 92 91
3 78 34 92
3 331 330 41
3 93 332 333
3 335 334 93
3 336 42 337
3 338 94 339
3 340 339 42
3 338 339 340
3 341 94 342
3 344 343 94
3 95 96 18
3 345 96 346
3 347 346 95
3 345 346 347
3 348 43 349
3 350 349 96
3 348 349 350
3 351 97 352
3 353 352 43
3 351 352 353
3 354 97 355
3 356 41 357
3 358 357 97
3 356 357 358
3 98 359 361
3 359 360 361
3 363 362 98
3 99 364 365
3 367 366 99
3 100 368 369
3 100 370 371
3 101 372 374
3 372 102 373
3 372 373 374
3 103 102 101
3 103 44 102
3 104 105 24
3 106 105 104
3 106 45 105
3 106 107 45
3 108 107 106
3 108 46 107
3 108 109 46
3 110 109 108
3 110 47 109
3 111 112 26
3 113 112 111
3 113 48 112
3 113 375 377
3 377 376 48
3 375 376 377
3 114 378 380
3 380 379 113
3 378 379 380
3 114 381 382
3 114 383 384
3 115 385 387
3 387 386 114
3 385 386 387
3 115 388 390
3 388 49 389
3 388 389 390
3 116 117 28
3 118 117 116
3 118 50 117
3 118 119 50
3 120 119 118
3 120 51 119
3 121 122 38
3 123 122 121
3 123 52 122
3 124 125 31
3 126 125 124
3 126 53 125
3 126 127 53
3 128 127 126
3 128 391 393
3 393 392 127
3 391 392 393
3 128 394 395
3 129 396 398
3 398 397 128
3 396 397 398
3 129 399 400
3 402 401 33
3 130 403 405
3 405 404 3
3 403 404 405
3 131 406 408
3 408 407 130
3 406 407 408
3 131 409 410
3 55 131 13
3 411 131 412
3 413 412 55
3 411 412 413
3 415 414 131
3 132 416 418
3 416 133 417
3 416 417 418
3 134 133 132
3 134 15 133
3 58 134 14
3 135 134 58
3 135 15 134
3 135 82 15
3 136 82 135
3 136 5 82
3 136 137 5
3 138 137 136
3 138 17 137
3 60 138 16
3 139 138 60
3 139 17 138
3 139 89 17
3 130 89 139
3 130 3 89
3 419 93 420
3 421 93 422
3 424 423 93
3 140 425 426
3 140 427 429
3 427 18 428
3 427 428 429
3 430 140 431
3 141 432 434
3 432 140 433
3 432 433 434
3 141 18 140
3 141 95 18
3 435 95 436
3 437 436 141
3 435 436 437
3 439 438 95
3 62 440 442
3 442 441 19
3 440 441 442
3 444 443 62
3 142 445 446
3 142 447 448
3 142 449 451
3 449 98 450
3 449 450 451
3 143 98 142
3 143 7 98
3 144 452 453
3 145 454 456
3 456 455 144
3 454 455 456
3 145 457 458
3 65 145 21
3 146 145 65
3 146 459 461
3 461 460 145
3 459 460 461
3 146 462 464
3 462 99 463
3 462 463 464
3 147 99 146
3 147 8 99
3 148 149 4
3 150 149 148
3 150 24 149
3 68 150 23
3 151 150 68
3 151 24 150
3 151 104 24
3 152 104 151
3 152 9 104
3 152 153 9
3 154 153 152
3 154 26 153
3 70 154 25
3 155 154 70
3 155 26 154
3 155 111 26
3 156 111 155
3 156 10 111
3 156 157 10
3 158 157 156
3 158 28 157
3 72 158 27
3 159 158 72
3 159 28 158
3 159 116 28
3 160 116 159
3 160 11 116
3 161 162 6
3 163 162 161
3 163 31 162
3 75 163 30
3 164 163 75
3 164 31 163
3 164 124 31
3 165 124 164
3 165 12 124
3 165 166 12
3 167 166 165
3 167 33 166
3 77 167 32
3 168 167 77
3 168 33 167
3 168 465 467
3 467 466 33
3 465 466 467
3 469 468 168
3 169 170 1
3 171 170 169
3 171 470 472
3 472 471 170
3 470 471 472
3 79 171 34
3 473 171 474
3 475 474 79
3 473 474 475
3 477 476 171
3 478 80 479
3 480 479 3
3 478 479 480
3 481 80 482
3 484 483 80
3 172 485 486
3 172 487 488
3 489 172 490
3 173 491 493
3 491 172 492
3 491 492 493
3 173 494 496
3 496 495 172
3 494 495 496
3 173 497 499
3 497 101 498
3 497 498 499
3 174 101 173
3 174 4 101
3 133 500 502
3 500 81 501
3 500 501 502
3 175 81 133
3 175 35 81
3 83 175 15
3 176 175 83
3 176 35 175
3 176 174 35
3 177 174 176
3 177 4 174
3 177 148 4
3 178 148 177
3 178 23 148
3 85 178 36
3 179 178 85
3 179 23 178
3 179 67 23
3 180 67 179
3 180 2 67
3 180 181 2
3 182 181 180
3 182 38 181
3 87 182 37
3 183 182 87
3 183 38 182
3 183 121 38
3 184 121 183
3 184 6 121
3 137 88 5
3 185 88 137
3 185 39 88
3 90 185 17
3 186 185 90
3 186 39 185
3 186 184 39
3 187 184 186
3 187 6 184
3 187 161 6
3 188 161 187
3 188 30 161
3 92 188 40
3 189 188 92
3 189 30 188
3 189 74 30
3 169 74 189
3 169 1 74
3 190 191 0
3 503 191 504
3 505 504 190
3 503 504 505
3 507 506 191
3 509 508 41
3 510 144 511
3 192 512 514
3 512 144 513
3 512 513 514
3 192 21 144
3 94 192 42
3 193 192 94
3 193 21 192
3 193 64 21
3 515 64 516
3 517 516 193
3 515 516 517
3 519 518 64
3 194 520 521
3 194 522 523
3 96 194 18
3 195 194 96
3 195 524 526
3 526 525 194
3 524 525 526
3 195 527 528
3 196 529 531
3 531 530 195
3 529 530 531
3 196 532 533
3 196 534 536
3 534 132 535
3 534 535 536
3 197 132 196
3 197 14 132
3 97 197 43
3 198 197 97
3 198 14 197
3 198 57 14
3 190 57 198
3 190 0 57
3 170 63 1
3 537 63 538
3 539 538 170
3 537 538 539
3 541 540 63
3 191 56 0
3 199 56 191
3 199 542 544
3 544 543 56
3 542 543 544
3 545 199 546
3 547 199 548
3 550 549 199
3 551 66 552
3 200 553 555
3 553 66 554
3 553 554 555
3 200 22 66
3 102 556 558
3 556 200 557
3 556 557 558
3 201 200 102
3 201 22 200
3 201 147 22
3 202 147 201
3 202 8 147
3 149 103 4
3 203 103 149
3 203 44 103
3 105 203 24
3 204 203 105
3 204 44 203
3 204 202 44
3 205 202 204
3 205 8 202
3 205 100 8
3 206 100 205
3 206 559 561
3 561 560 100
3 559 560 561
3 107 206 45
3 207 206 107
3 207 562 564
3 564 563 206
3 562 563 564
3 207 565 566
3 568 567 207
3 569 20 570
3 109 571 573
3 573 572 46
3 571 572 573
3 208 574 576
3 576 575 109
3 574 575 576
3 208 577 579
3 577 20 578
3 577 578 579
3 208 143 20
3 209 143 208
3 209 7 143
3 153 110 9
3 210 110 153
3 210 47 110
3 112 210 26
3 211 210 112
3 211 47 210
3 211 209 47
3 212 209 211
3 212 7 209
3 212 580 582
3 582 581 7
3 580 581 582
3 213 583 585
3 585 584 212
3 583 584 585
3 213 586 587
3 588 213 589
3 590 589 48
3 588 589 590
3 591 213 592
3 594 593 213
3 157 115 10
3 214 115 157
3 214 49 115
3 117 214 28
3 215 214 117
3 215 49 214
3 215 595 597
3 597 596 49
3 595 596 597
3 216 598 600
3 600 599 215
3 598 599 600
3 216 601 602
3 216 603 604
3 606 605 216
3 119 607 609
3 609 608 50
3 607 608 609
3 217 610 612
3 612 611 119
3 610 611 612
3 217 613 614
3 217 615 616
3 618 617 217
3 181 73 2
3 218 73 181
3 218 29 73
3 122 218 38
3 219 218 122
3 219 29 218
3 219 160 29
3 220 160 219
3 220 11 160
3 162 123 6
3 221 123 162
3 221 52 123
3 125 221 31
3 222 221 125
3 222 52 221
3 222 220 52
3 223 220 222
3 223 11 220
3 223 120 11
3 224 120 223
3 224 51 120
3 127 224 53
3 619 224 620
3 621 620 127
3 619 620 621
3 622 51 623
3 624 623 224
3 622 623 624
3 626 625 51
3 166 129 12
3 225 129 166
3 225 627 629
3 629 628 129
3 627 628 629
3 630 225 631
3 632 631 33
3 630 631 632
3 633 225 634
3 636 635 225
