ply
format ascii 1.0
element vertex 467
property float x
property float y
property float z
element face 438
property list uchar int vertex_index
end_header
-12.098032 -52.460793 -8.529631
-26.266478 -25.451096 -37.110443
-23.615744 -42.589127 -21.238781
-28.009529 -16.825783 -39.389393
-30.100767 -26.850584 -30.929806
-18.084475 -48.35054 -14.534861
-28.910152 -34.968426 -23.264145
-26.317345 -34.925735 -28.787048
-30.686157 -22.380886 -31.339073
-27.002159 -21.094709 -38.589134
-21.086884 -45.701637 -17.78746
-21.324305 -44.347847 -15.098162
-24.400896 -41.845066 -18.619595
-26.705004 -38.769104 -22.292923
-28.046795 -35.112556 -26.108021
-25.396109 -38.997078 -24.901852
-28.729708 -12.482728 -39.377247
-29.918888 -17.6091 -35.296467
-29.249884 -22.041485 -35.097904
-27.87746 -26.215231 -34.28289
-14.979928 -50.577148 -11.461931
-20.670231 -47.244858 -19.886322
-23.068661 -43.569176 -23.20113
-27.015734 -11.288547 -43.628368
-28.378092 -30.908445 -30.098732
-26.486015 -30.39604 -32.882183
-24.766016 -39.499645 -26.851711
-25.756668 -35.029621 -30.813423
-26.564693 -23.247139 -37.931919
-11.426727 -50.786255 -7.093288
-13.033516 -50.045311 -8.557528
-22.430992 -44.204716 -19.487438
-22.799381 -43.703476 -18.198296
-24.097364 -42.231522 -19.972778
-25.66396 -40.380123 -20.439125
-25.200558 -40.626892 -21.79092
-26.084772 -38.888481 -23.652046
-24.610802 -40.853447 -23.04306
-29.848381 -15.254494 -35.121391
-30.219069 -17.639822 -33.209145
-30.570827 -24.679893 -31.190498
-30.225391 -22.325167 -33.209293
-29.761259 -24.500685 -32.988739
-28.613304 -24.148676 -34.76162
-29.060246 -26.588135 -32.640667
-5.497156 -53.468632 -1.221449
-8.378117 -52.145844 -4.194954
-8.362408 -54.874657 -4.219353
-28.436638 -14.670008 -39.497494
-27.844893 -11.949633 -41.588413
-27.444414 -14.089341 -41.525715
-26.291742 -15.099251 -44.262024
-16.521339 -49.512566 -12.977695
-16.389454 -48.348106 -11.582586
-18.089836 -47.360046 -13.161266
-29.626478 -33.15266 -25.108505
-27.14731 -35.015427 -27.510185
-28.334011 -33.075542 -28.078861
-27.331356 -32.88813 -29.512505
-27.313099 -30.640949 -31.564224
-26.479038 -32.716007 -30.811195
-24.011345 -41.584229 -24.983604
-30.416466 -19.941462 -31.359154
-27.508276 -18.961979 -39.079216
-27.015409 -16.235132 -41.234402
-26.620432 -18.398113 -40.742607
-19.622692 -47.082272 -16.137245
-19.754425 -46.262218 -14.790188
-21.338774 -45.04554 -16.469818
-22.943253 -43.166176 -16.837509
-25.742369 -40.015862 -19.09193
-26.984722 -38.542015 -20.921124
-27.986284 -36.911507 -22.775433
-28.727654 -35.126659 -24.658886
-27.503374 -37.012253 -24.18129
-26.735006 -37.017063 -25.557529
-25.963261 -37.020546 -26.816456
-29.137081 -10.410079 -36.565365
-28.842604 -10.25306 -39.007187
-29.36652 -12.790169 -37.065022
-29.340599 -15.086889 -37.335842
-29.083227 -17.312986 -37.386967
-30.389866 -20.042343 -33.288715
-29.705885 -19.867292 -35.282181
-28.638723 -19.48041 -37.239086
-28.068752 -21.603767 -36.914513
-27.448702 -23.704273 -36.429131
-26.862255 -25.81295 -35.788342
-12.416754 -54.148079 -9.886328
-13.497885 -51.555553 -9.981915
-13.652016 -53.084499 -11.324686
-15.006043 -51.941681 -12.783915
-17.928112 -49.379993 -15.787994
-19.395203 -47.947449 -17.345436
-20.794205 -46.409142 -18.949848
-22.076759 -44.763977 -20.609241
-23.203819 -43.011429 -22.330662
-21.946938 -45.455872 -21.504185
-9.877131 -51.479916 -5.644344
-10.785254 -53.306652 -7.094368
-28.160553 -9.807163 -41.392982
-27.377373 -9.168658 -43.638409
-26.777761 -8.447954 -45.68206
-26.664787 -13.440847 -43.361515
-14.693674 -49.238289 -10.050428
-30.212597 -29.082787 -28.931156
-29.197515 -33.193142 -26.579487
-29.396101 -31.119225 -28.546455
-29.338997 -28.91444 -30.566566
-28.20948 -28.61912 -32.168564
-27.1364 -28.280264 -33.660038
-26.392595 -27.971813 -34.987808
-24.147671 -41.150841 -24.119114
-24.893261 -39.181442 -25.976849
-25.439568 -37.102962 -27.902828
-25.801058 -34.916367 -29.892227
-26.008743 -32.624413 -31.935707
-26.109852 -30.231995 -34.018787
-26.165195 -27.746616 -36.12191
-26.224359 -24.147921 -38.169706
-26.373466 -23.045943 -38.580444
-26.415585 -24.349117 -37.521181
-26.255094 -25.315171 -37.666092
-26.224359 -24.147921 -38.169706
-29.991311 -17.495773 -32.22217
-29.961987 -16.37307 -33.083216
-6.208437 -53.135877 -1.974351
-6.350856 -54.545443 -1.984196
-7.783482 -55.248455 -3.483148
-7.641063 -53.83889 -3.473303
-26.444608 -13.707022 -45.277535
-26.562871 -14.903456 -44.819032
-28.641256 -34.768557 -22.648798
-28.416441 -35.797241 -22.35561
-29.140984 -33.924583 -23.518864
-28.641256 -34.768557 -22.648798
-29.268315 -34.060543 -24.186325
-29.499147 -33.0167 -24.441043
-29.140984 -33.924583 -23.518864
-24.342639 -41.589512 -17.954146
-23.613817 -42.250067 -17.063102
-23.672075 -42.505621 -17.728552
-25.071632 -40.930464 -18.855763
-25.013376 -40.67491 -18.190313
-24.342639 -41.589512 -17.954146
-29.307253 -11.600624 -35.655501
-28.975328 -10.307074 -35.370394
-29.421973 -12.790669 -35.905329
-29.251801 -11.600124 -36.815193
-29.307253 -11.600624 -35.655501
-13.065574 -54.498255 -11.212198
-13.034385 -53.616289 -10.605507
-12.447943 -55.030045 -10.493019
-14.968269 -52.67371 -13.360591
-14.316333 -53.32186 -12.648861
-15.726529 -51.32563 -13.526831
-14.968269 -52.67371 -13.360591
-17.87179 -49.952878 -16.312593
-17.137101 -50.69766 -15.581691
-18.605335 -49.236607 -17.091314
-18.661657 -48.663721 -16.566715
-17.87179 -49.952878 -16.312593
-20.732218 -46.827 -19.418085
-20.035319 -47.672246 -18.642767
-19.973332 -48.090103 -19.111004
-9.712402 -52.793395 -5.653571
-9.127624 -51.81288 -4.919649
-8.962895 -53.126358 -4.928876
-10.166463 -53.706762 -6.378583
-10.331193 -52.393284 -6.369356
-9.712402 -52.793395 -5.653571
-26.521919 -14.536275 -43.116388
-26.840098 -14.837989 -42.297959
-26.69723 -15.933417 -42.052832
-16.140393 -47.740291 -10.879182
-17.073569 -47.334461 -11.67442
-20.453224 -44.872166 -14.252461
-19.668284 -45.829351 -14.098475
-20.539365 -45.305032 -14.944175
-30.136444 -30.134996 -27.962229
-30.373455 -29.064657 -28.145364
-25.548246 -36.17206 -29.806271
-25.747175 -36.349199 -30.168455
-25.778863 -34.972994 -30.352825
-25.570441 -36.115433 -29.345672
-25.548246 -36.17206 -29.806271
-26.201847 -30.205412 -34.492012
-26.083276 -31.440329 -33.447654
-26.229519 -28.962722 -35.543574
-26.137524 -28.989306 -35.070349
-26.201847 -30.205412 -34.492012
-26.348047 -27.689135 -36.587267
-26.229519 -28.962722 -35.543574
-26.443922 -21.920559 -39.001259
-26.662655 -20.844344 -39.329867
-26.783426 -22.170924 -38.260526
-26.443922 -21.920559 -39.001259
-26.373466 -23.045943 -38.580444
-11.796547 -49.634056 -7.106823
-10.888504 -49.923559 -6.363872
-12.599941 -49.263584 -7.838943
-11.796547 -49.634056 -7.106823
-12.230121 -50.415783 -7.825408
-13.526086 -48.945923 -8.59384
-12.599941 -49.263584 -7.838943
-29.776643 -15.180406 -34.039339
-29.662903 -14.022832 -34.933514
-30.033725 -16.447158 -34.165268
-29.776643 -15.180406 -34.039339
-29.961987 -16.37307 -33.083216
-20.049659 -48.668873 -19.4784
-19.973332 -48.090103 -19.111004
-20.769924 -47.748646 -20.229056
-20.049659 -48.668873 -19.4784
-5.332759 -52.090521 -1.193693
-4.525528 -52.390243 -0.414563
-5.332759 -52.090521 -1.193693
-6.208437 -53.135877 -1.974351
-7.648917 -52.474483 -3.461104
-7.612933 -51.148453 -3.435096
-8.370262 -53.51025 -4.207154
-7.648917 -52.474483 -3.461104
-7.641063 -53.83889 -3.473303
-8.95504 -54.490765 -4.941076
-8.962895 -53.126358 -4.928876
-8.370262 -53.51025 -4.207154
-26.313901 -13.959869 -44.611931
-26.335397 -15.365476 -43.566643
-26.313901 -13.959869 -44.611931
-26.444608 -13.707022 -45.277535
-17.923759 -46.840431 -12.46376
-17.073569 -47.334461 -11.67442
-17.239645 -47.854076 -12.371926
-21.084291 -43.933609 -14.439535
-21.982379 -43.423874 -15.307184
-29.861534 -32.094522 -25.325598
-29.499147 -33.0167 -24.441043
-29.843384 -32.169932 -26.050903
-29.861534 -32.094522 -25.325598
-23.675358 -42.940208 -24.416735
-23.540003 -42.576702 -24.092367
-23.204016 -43.932682 -23.525498
-24.162875 -41.882575 -25.314579
-23.675358 -42.940208 -24.416735
-24.54021 -40.840283 -26.248632
-24.38868 -40.541937 -25.917658
-24.162875 -41.882575 -25.314579
-25.995975 -35.151533 -31.191085
-25.747175 -36.349199 -30.168455
-25.906684 -33.839142 -31.844973
-25.995975 -35.151533 -31.191085
-30.012831 -19.732374 -30.483052
-30.090009 -18.646593 -31.297175
-30.403696 -21.047778 -30.476771
-30.012831 -19.732374 -30.483052
-30.538542 -22.267489 -30.46673
-30.551312 -21.161174 -31.349114
-30.403696 -21.047778 -30.476771
-30.72005 -23.499466 -30.40242
-30.538542 -22.267489 -30.46673
-30.662385 -24.648969 -30.328133
-30.628492 -23.530389 -31.264786
-30.72005 -23.499466 -30.40242
-30.628543 -25.801791 -30.215055
-30.662385 -24.648969 -30.328133
-30.393514 -26.887137 -30.084709
-30.335797 -25.765239 -31.060152
-30.628543 -25.801791 -30.215055
-4.807505 -53.811766 -0.439043
-4.525528 -52.390243 -0.414563
-5.776938 -54.914465 -1.224724
-4.807505 -53.811766 -0.439043
-6.350856 -54.545443 -1.984196
-5.776938 -54.914465 -1.224724
-26.499741 -17.014907 -41.806934
-26.69723 -15.933417 -42.052832
-26.81792 -17.316623 -40.988505
-26.471792 -19.496046 -40.406603
-26.811295 -19.746411 -39.66587
-26.662655 -20.844344 -39.329867
-26.416378 -18.134038 -41.46396
-26.471792 -19.496046 -40.406603
-26.499741 -17.014907 -41.806934
-26.416378 -18.134038 -41.46396
-26.252033 -16.484607 -43.223669
-26.335397 -15.365476 -43.566643
-26.35427 -16.272513 -43.81826
-26.252033 -16.484607 -43.223669
-26.562871 -14.903456 -44.819032
-26.35427 -16.272513 -43.81826
-22.791853 -42.833039 -16.176858
-21.982379 -43.423874 -15.307184
-22.133779 -43.757012 -15.967835
-22.791853 -42.833039 -16.176858
-23.613817 -42.250067 -17.063102
-25.480788 -39.733627 -18.476406
-25.013376 -40.67491 -18.190313
-26.213215 -39.068289 -19.369694
-25.480788 -39.733627 -18.476406
-26.834392 -38.331366 -20.28429
-26.213215 -39.068289 -19.369694
-26.363546 -39.278938 -20.006527
-27.453727 -37.584036 -21.1841
-26.834392 -38.331366 -20.28429
-27.954507 -36.768782 -22.111254
-27.453727 -37.584036 -21.1841
-27.485503 -37.726761 -21.848278
-28.448218 -35.939966 -23.019789
-28.416441 -35.797241 -22.35561
-27.954507 -36.768782 -22.111254
-28.894177 -9.170549 -36.207105
-28.975328 -10.307074 -35.370394
-28.942084 -9.189283 -37.473198
-28.894177 -9.170549 -36.207105
-28.989843 -10.33157 -37.786276
-28.794846 -9.110774 -38.694109
-28.942084 -9.189283 -37.473198
-29.60745 -14.022331 -36.093207
-29.421973 -12.790669 -35.905329
-29.662903 -14.022832 -34.933514
-30.317768 -18.790642 -32.284149
-29.991311 -17.495773 -32.22217
-30.090009 -18.646593 -31.297175
-13.639319 -53.893269 -11.919246
-13.065574 -54.498255 -11.212198
-14.32903 -52.51309 -12.054301
-13.639319 -53.893269 -11.919246
-14.316333 -53.32186 -12.648861
-16.484177 -50.111072 -13.623721
-15.763691 -50.727124 -12.880805
-15.726529 -51.32563 -13.526831
-17.265745 -49.53006 -14.402304
-17.302907 -48.931553 -13.756278
-16.484177 -50.111072 -13.623721
-17.187563 -50.044786 -15.028871
-17.137101 -50.69766 -15.581691
-18.006293 -48.865267 -15.161427
-17.265745 -49.53006 -14.402304
-17.187563 -50.044786 -15.028871
-19.335817 -48.441399 -17.840561
-18.605335 -49.236607 -17.091314
-20.094704 -47.178296 -18.147642
-19.335817 -48.441399 -17.840561
-20.035319 -47.672246 -18.642767
-21.408278 -46.854153 -21.037987
-21.308585 -46.350365 -20.695253
-20.769924 -47.748646 -20.229056
-22.065878 -45.887794 -21.832167
-21.408278 -46.854153 -21.037987
-21.527217 -47.286075 -21.365969
-22.626739 -44.944446 -22.680639
-22.507799 -44.512524 -22.352657
-22.065878 -45.887794 -21.832167
-23.204016 -43.932682 -23.525498
-22.626739 -44.944446 -22.680639
-8.477435 -50.877232 -4.176604
-7.612933 -51.148453 -3.435096
-9.226942 -50.544268 -4.9013
-8.477435 -50.877232 -4.176604
-9.127624 -51.81288 -4.919649
-10.113706 -50.27039 -5.639399
-9.226942 -50.544268 -4.9013
-10.651929 -51.133085 -6.368816
-10.888504 -49.923559 -6.363872
-10.113706 -50.27039 -5.639399
-8.46665 -56.338997 -4.192398
-7.783482 -55.248455 -3.483148
-8.893538 -55.918848 -4.91693
-8.46665 -56.338997 -4.192398
-8.95504 -54.490765 -4.941076
-8.893538 -55.918848 -4.91693
-10.554721 -54.692581 -7.068147
-10.166463 -53.706762 -6.378583
-11.048283 -54.224772 -7.778111
-10.554721 -54.692581 -7.068147
-11.704672 -53.801842 -8.495742
-11.441643 -52.883723 -7.812
-11.048283 -54.224772 -7.778111
-11.864033 -54.645485 -9.174091
-12.257393 -53.304436 -9.20798
-11.704672 -53.801842 -8.495742
-11.963905 -55.596257 -9.788905
-11.864033 -54.645485 -9.174091
-11.995095 -56.478222 -10.395595
-12.447943 -55.030045 -10.493019
-11.963905 -55.596257 -9.788905
-28.594433 -8.952946 -39.96273
-28.794846 -9.110774 -38.694109
-28.253408 -8.729997 -41.155628
-28.594433 -8.952946 -39.96273
-28.501579 -10.030112 -40.200085
-27.930077 -8.441547 -42.376587
-28.253408 -8.729997 -41.155628
-27.538487 -8.122295 -43.4993
-27.930077 -8.441547 -42.376587
-27.768963 -9.48791 -42.515696
-27.232335 -7.7595 -44.634377
-27.538487 -8.122295 -43.4993
-26.932529 -7.399148 -45.656202
-27.232335 -7.7595 -44.634377
-27.077567 -8.808306 -44.660235
-26.770195 -7.023461 -46.677609
-26.932529 -7.399148 -45.656202
-26.500424 -13.130667 -44.161676
-26.521919 -14.536275 -43.116388
-26.588658 -12.022575 -44.404139
-26.500424 -13.130667 -44.161676
-26.764131 -10.946424 -44.537565
-26.84026 -12.364697 -43.494941
-26.588658 -12.022575 -44.404139
-26.645145 -9.526128 -45.564411
-26.896748 -9.86825 -44.655214
-26.764131 -10.946424 -44.537565
-26.684148 -8.10322 -46.580841
-26.645145 -9.526128 -45.564411
-26.770195 -7.023461 -46.677609
-26.684148 -8.10322 -46.580841
-14.356165 -48.542412 -9.34029
-13.526086 -48.945923 -8.59384
-13.863595 -49.6418 -9.303978
-15.292503 -48.185383 -10.113104
-15.541564 -48.793198 -10.816507
-16.140393 -47.740291 -10.879182
-14.356165 -48.542412 -9.34029
-15.292503 -48.185383 -10.113104
-18.835989 -46.378265 -13.284014
-18.922131 -46.811132 -13.975727
-19.668284 -45.829351 -14.098475
-17.923759 -46.840431 -12.46376
-18.835989 -46.378265 -13.284014
-20.453224 -44.872166 -14.252461
-21.084291 -43.933609 -14.439535
-30.449428 -28.003238 -29.085384
-30.373455 -29.064657 -28.145364
-30.156682 -27.966686 -29.930481
-30.393514 -26.887137 -30.084709
-30.449428 -28.003238 -29.085384
-29.628903 -32.190173 -26.786394
-29.843384 -32.169932 -26.050903
-29.411997 -33.172901 -25.843996
-29.728196 -31.153215 -27.769878
-29.628903 -32.190173 -26.786394
-29.296808 -32.156183 -27.562971
-29.804349 -30.101006 -28.738806
-30.136444 -30.134996 -27.962229
-29.728196 -31.153215 -27.769878
-24.937224 -39.735841 -27.19669
-24.54021 -40.840283 -26.248632
-25.05292 -38.407072 -27.825415
-24.937224 -39.735841 -27.19669
-25.389696 -37.208731 -28.350973
-25.102792 -38.301304 -27.37727
-25.05292 -38.407072 -27.825415
-25.620313 -36.009664 -28.897527
-25.389696 -37.208731 -28.350973
-25.570441 -36.115433 -29.345672
-26.032722 -32.636538 -32.406115
-25.882706 -33.827017 -31.374565
-25.906684 -33.839142 -31.844973
-26.059297 -31.428204 -32.977247
-26.032722 -32.636538 -32.406115
-26.083276 -31.440329 -33.447654
-26.204453 -26.46293 -37.171825
-26.255094 -25.315171 -37.666092
-26.215837 -26.598856 -36.616176
-26.204453 -26.46293 -37.171825
-26.348047 -27.689135 -36.587267
3 1 119 121
3 121 120 28
3 119 120 121
3 1 122 123
3 0 30 29
3 2 33 31
3 2 35 33
3 2 37 35
3 124 39 125
3 4 42 40
3 4 44 42
3 127 126 45
3 128 47 129
3 3 50 48
3 131 130 51
3 5 54 52
3 6 132 133
3 6 134 135
3 6 136 138
3 136 55 137
3 136 137 138
3 7 58 56
3 7 60 58
3 9 65 63
3 10 68 66
3 12 69 32
3 12 139 141
3 141 140 69
3 139 140 141
3 12 142 144
3 142 70 143
3 142 143 144
3 13 71 34
3 13 72 71
3 13 74 72
3 15 75 36
3 15 76 75
3 145 77 146
3 147 79 148
3 149 148 77
3 147 148 149
3 17 80 38
3 17 81 80
3 8 82 62
3 18 83 41
3 18 84 83
3 18 85 84
3 19 86 43
3 19 87 86
3 150 90 151
3 152 151 88
3 150 151 152
3 153 91 154
3 156 155 91
3 157 92 158
3 159 93 160
3 161 160 92
3 159 160 161
3 21 162 164
3 162 94 163
3 162 163 164
3 21 95 94
3 21 97 95
3 165 98 166
3 167 166 46
3 165 166 167
3 168 99 169
3 170 169 98
3 168 169 170
3 16 100 78
3 23 101 49
3 23 102 101
3 171 103 172
3 173 172 64
3 171 172 173
3 20 104 89
3 175 174 53
3 11 176 178
3 178 177 67
3 176 177 178
3 179 105 180
3 14 106 73
3 24 107 57
3 24 108 107
3 24 109 108
3 25 110 59
3 25 111 110
3 22 112 96
3 26 113 61
3 26 114 113
3 27 181 182
3 27 183 185
3 183 115 184
3 183 184 185
3 27 116 115
3 186 117 187
3 188 118 189
3 190 189 117
3 188 189 190
3 192 191 118
3 28 193 195
3 195 194 9
3 193 194 195
3 197 196 28
3 29 198 199
3 30 200 202
3 202 201 29
3 200 201 202
3 30 203 204
3 31 32 10
3 33 32 31
3 33 12 32
3 33 34 12
3 35 34 33
3 35 13 34
3 35 36 13
3 37 36 35
3 37 15 36
3 205 38 206
3 39 207 209
3 207 38 208
3 207 208 209
3 39 17 38
3 40 41 8
3 42 41 40
3 42 18 41
3 42 43 18
3 44 43 42
3 44 19 43
3 210 21 211
3 213 212 21
3 45 214 215
3 217 216 45
3 218 46 219
3 47 220 222
3 220 46 221
3 220 221 222
3 47 223 225
3 225 224 46
3 223 224 225
3 48 49 16
3 50 49 48
3 50 23 49
3 51 226 227
3 229 228 51
3 52 53 20
3 54 53 52
3 54 230 232
3 232 231 53
3 230 231 232
3 234 233 11
3 55 235 236
3 55 237 238
3 56 57 14
3 58 57 56
3 58 24 57
3 58 59 24
3 60 59 58
3 60 25 59
3 239 61 240
3 241 240 22
3 239 240 241
3 242 61 243
3 244 26 245
3 246 245 61
3 244 245 246
3 247 27 248
3 250 249 27
3 251 62 252
3 253 62 254
3 255 8 256
3 257 256 62
3 255 256 257
3 258 8 259
3 260 40 261
3 262 261 8
3 260 261 262
3 263 40 264
3 265 4 266
3 267 266 40
3 265 266 267
3 268 45 269
3 270 45 271
3 273 272 45
3 63 64 3
3 65 64 63
3 65 274 276
3 276 275 64
3 274 275 276
3 277 65 278
3 279 278 9
3 277 278 279
3 280 65 281
3 283 282 65
3 284 51 285
3 286 51 287
3 289 288 51
3 66 67 5
3 68 67 66
3 68 11 67
3 32 68 10
3 69 68 32
3 69 11 68
3 69 290 292
3 292 291 11
3 290 291 292
3 294 293 69
3 70 295 296
3 70 297 298
3 34 70 12
3 71 70 34
3 71 299 301
3 301 300 70
3 299 300 301
3 71 302 303
3 72 304 306
3 306 305 71
3 304 305 306
3 72 307 309
3 307 6 308
3 307 308 309
3 72 73 6
3 74 73 72
3 74 14 73
3 36 74 13
3 75 74 36
3 75 14 74
3 75 56 14
3 76 56 75
3 76 7 56
3 77 310 311
3 77 312 313
3 77 314 316
3 314 78 315
3 314 315 316
3 79 78 77
3 79 16 78
3 38 317 319
3 317 79 318
3 317 318 319
3 80 79 38
3 80 16 79
3 80 48 16
3 81 48 80
3 81 3 48
3 62 320 322
3 320 39 321
3 320 321 322
3 82 39 62
3 82 17 39
3 41 82 8
3 83 82 41
3 83 17 82
3 83 81 17
3 84 81 83
3 84 3 81
3 84 63 3
3 85 63 84
3 85 9 63
3 43 85 18
3 86 85 43
3 86 9 85
3 86 28 9
3 87 28 86
3 87 1 28
3 88 89 0
3 90 89 88
3 90 20 89
3 323 90 324
3 91 325 327
3 325 90 326
3 325 326 327
3 91 20 90
3 91 52 20
3 328 52 329
3 330 329 91
3 328 329 330
3 331 5 332
3 333 332 52
3 331 332 333
3 92 334 335
3 92 336 338
3 336 5 337
3 336 337 338
3 92 66 5
3 93 66 92
3 93 10 66
3 339 93 340
3 94 341 343
3 341 93 342
3 341 342 343
3 94 10 93
3 94 31 10
3 95 31 94
3 95 2 31
3 95 96 2
3 97 96 95
3 97 22 96
3 344 97 345
3 346 345 21
3 344 345 346
3 347 97 348
3 347 348 349
3 350 22 351
3 352 351 97
3 350 351 352
3 354 353 22
3 46 355 356
3 98 357 359
3 359 358 46
3 357 358 359
3 98 360 361
3 98 362 364
3 362 29 363
3 362 363 364
3 99 29 98
3 99 0 29
3 365 47 366
3 367 47 368
3 370 369 47
3 371 99 372
3 373 99 374
3 375 0 376
3 377 376 99
3 375 376 377
3 378 88 379
3 380 379 0
3 378 379 380
3 381 88 382
3 385 384 88
3 383 384 385
3 78 386 387
3 100 388 390
3 390 389 78
3 388 389 390
3 100 391 392
3 49 100 16
3 101 100 49
3 101 393 395
3 395 394 100
3 393 394 395
3 101 396 397
3 102 398 400
3 400 399 101
3 398 399 400
3 102 401 402
3 64 50 3
3 103 50 64
3 103 23 50
3 403 103 404
3 405 103 406
3 407 23 408
3 409 408 103
3 407 408 409
3 410 102 411
3 412 411 23
3 410 411 412
3 413 102 414
3 416 415 102
3 89 30 0
3 104 30 89
3 104 417 419
3 419 418 30
3 417 418 419
3 53 104 20
3 420 104 421
3 422 421 53
3 420 421 422
3 424 423 104
3 67 54 5
3 425 54 426
3 427 426 67
3 425 426 427
3 429 428 54
3 431 430 11
3 105 432 433
3 105 434 436
3 434 4 435
3 434 435 436
3 73 55 6
3 106 55 73
3 106 437 439
3 439 438 55
3 437 438 439
3 57 106 14
3 107 106 57
3 107 440 442
3 442 441 106
3 440 441 442
3 107 443 445
3 443 105 444
3 443 444 445
3 108 105 107
3 108 4 105
3 108 44 4
3 109 44 108
3 109 19 44
3 59 109 24
3 110 109 59
3 110 19 109
3 110 87 19
3 111 87 110
3 111 1 87
3 96 37 2
3 112 37 96
3 112 15 37
3 61 112 22
3 113 112 61
3 113 15 112
3 113 76 15
3 114 76 113
3 114 7 76
3 446 26 447
3 448 26 449
3 450 114 451
3 452 451 26
3 450 451 452
3 115 453 455
3 453 114 454
3 453 454 455
3 115 7 114
3 115 60 7
3 116 60 115
3 116 25 60
3 456 116 457
3 458 457 27
3 456 457 458
3 117 459 461
3 459 116 460
3 459 460 461
3 117 25 116
3 117 111 25
3 118 111 117
3 118 1 111
3 118 462 464
3 464 463 1
3 462 463 464
3 466 465 118
