ply
format ascii 1.0
element vertex 989
property float x
property float y
property float z
element face 1106
property list uchar int vertex_index
end_header
-56.372734 -58.544769 50.801025
-31.693153 -66.990677 53.388084
-52.850601 -74.458397 43.839745
-43.988167 -62.895863 47.434593
-55.571117 -66.376007 47.787685
-57.831512 -67.949242 39.924309
-60.184853 -60.245617 46.474487
-51.03627 -60.906868 49.464764
-49.987972 -70.74791 48.404732
-40.849613 -44.930809 51.265446
-52.697014 -73.405891 34.070724
-36.900009 -64.658722 48.27784
-35.113655 -75.167343 49.291267
-42.62093 -73.464813 48.518192
-46.980003 -79.979408 47.526886
-52.481033 -51.332165 49.960815
-59.704243 -51.395832 49.852551
-33.832932 -52.702679 64.800323
-34.314186 -57.922359 55.025318
-38.383617 -54.800991 49.298542
-44.84671 -52.58292 48.166451
-56.130814 -62.121929 49.662472
-57.87841 -63.510235 47.192154
-58.273586 -59.405781 49.493336
-54.071205 -59.690575 50.454288
-53.617943 -64.181747 49.423161
-28.278509 -72.792755 55.492668
-30.386305 -71.66468 52.740482
-50.460625 -77.822784 41.793259
-50.152596 -77.048141 36.670296
-52.998028 -74.415344 39.276321
-40.319141 -63.752697 47.329033
-39.630035 -69.003937 47.795219
-43.464146 -68.145523 47.707409
-51.902527 -73.262314 47.054054
-48.76989 -75.497238 48.121307
-50.094505 -77.380058 45.845947
-47.835995 -81.10379 44.137321
-49.805656 -46.939514 48.781826
-35.263351 -50.713337 61.032379
-35.367405 -53.365047 56.073906
-36.026451 -56.254658 51.64119
-36.989437 -51.527626 52.707569
-43.909885 -43.541908 49.468414
-42.253567 -48.51413 48.848606
-45.819389 -47.527622 48.46302
-48.607845 -51.831539 48.946651
-61.761833 -47.250565 48.163292
-62.526024 -52.045017 47.694038
-54.556 -70.593796 45.775803
-55.342194 -71.262466 41.778847
-56.922287 -67.556671 44.449211
-59.308525 -64.307449 43.244682
-61.7976 -60.990402 42.211311
-47.628677 -61.975304 48.293869
-47.220993 -67.129433 48.161678
-50.646568 -65.835022 48.842075
-53.014656 -68.794449 48.202717
-38.460732 -46.712814 53.927608
-23.928047 -75.731308 60.830986
-26.244179 -74.123367 58.26289
-49.630905 -75.47052 31.101959
-52.389652 -71.767502 28.659275
-55.622501 -70.994362 36.892731
-55.7024 -70.007782 31.699839
-55.883682 -68.468536 26.443747
-33.988754 -65.716232 50.359692
-32.917358 -70.689163 50.352173
-36.028374 -69.822289 48.653988
-38.740082 -74.412628 48.738979
-41.419792 -78.805901 49.26865
-46.46447 -72.273636 48.463253
-45.207745 -77.331078 48.873398
-43.571938 -82.244049 48.634125
-45.020126 -84.194366 45.971603
-54.85593 -55.447693 50.87421
-57.800377 -55.387192 50.694778
-56.262386 -51.156418 50.495491
-58.139378 -46.802513 49.275806
-60.249344 -42.565536 47.265923
-62.340458 -38.522163 44.696144
-31.573677 -64.146698 58.088554
-32.802746 -49.848263 69.11734
-33.082115 -62.42033 54.109337
-35.069321 -60.935467 50.790714
-37.682793 -59.689533 48.542889
-40.849228 -58.638035 47.547562
-39.272175 -49.876953 50.241161
-41.375538 -53.573799 48.170269
-44.357025 -57.716244 47.709957
-47.978943 -56.864769 48.68713
-51.536098 -56.068302 49.957664
-60.385139 -55.912052 48.893517
-62.495579 -56.710407 45.557098
-56.290867 -60.148129 50.376442
-57.231644 -60.872608 49.626614
-57.262058 -58.956036 50.377106
-55.372849 -59.07365 50.732574
-55.14505 -61.070812 50.254097
-30.744452 -67.715706 55.134109
-51.720222 -76.202194 42.85355
-51.731163 -76.129845 40.536346
-53.005394 -74.577698 41.679478
-42.14077 -63.325333 47.264442
-41.868462 -65.940659 47.378128
-43.758259 -65.51078 47.489895
-52.492802 -74.026268 45.660149
-51.082893 -75.372604 46.480728
-51.516293 -75.958817 44.866886
-50.384644 -77.773842 44.001923
-48.581093 -44.769035 48.457123
-35.284779 -52.030014 58.531799
-36.106483 -52.428352 54.297237
-45.672108 -43.039429 48.89119
-44.708729 -45.476635 48.733906
-46.587715 -45.065056 48.511997
-47.770939 -47.185528 48.562069
-62.76321 -45.203026 47.001526
-64.16024 -45.623085 45.860867
-55.135696 -68.512161 46.775528
-55.755054 -69.112747 45.106812
-56.314575 -67.079346 46.309311
-59.022556 -61.921558 46.848824
-58.630196 -63.966194 45.367737
-59.820305 -62.318298 44.911583
-60.552296 -62.652233 42.71172
-61.029655 -60.629913 44.458817
-49.370682 -61.46233 48.870979
-49.198463 -63.989853 48.650394
-50.851898 -63.364426 49.145012
-54.674843 -65.41716 48.829433
-53.359158 -66.490135 48.812275
-54.341141 -67.642868 48.022064
-53.889805 -69.843071 47.216797
-26.18844 -73.043823 61.028118
-27.200544 -72.198959 59.511192
-51.373238 -75.205139 35.356232
-49.884769 -76.330811 33.915588
-51.122883 -74.452026 32.628525
-50.911903 -73.572586 29.861773
-52.514946 -72.644882 31.377035
-56.569221 -69.607544 40.811756
-55.526726 -71.231201 39.403114
-56.827232 -69.554962 38.367485
-57.375488 -68.433052 30.657345
-55.762367 -69.299721 29.075397
-57.574638 -67.769287 28.059872
-59.443104 -66.318321 27.148487
-35.369183 -65.163353 49.18251
-34.88303 -67.677429 49.236938
-36.471416 -67.21315 48.394547
-41.13839 -71.262955 48.097183
-39.211128 -71.691284 48.245743
-40.666191 -73.964996 48.596828
-40.122791 -76.683205 49.055943
-42.06073 -76.137222 48.958206
-48.692448 -69.051254 48.427872
-46.900631 -69.707512 48.26561
-48.281097 -71.559143 48.444229
-47.93079 -77.774017 47.904022
-47.031845 -76.460632 48.540962
-46.208954 -78.835938 48.460945
-44.416756 -79.808167 48.889561
-45.305 -81.156639 48.166069
-44.384945 -83.422714 47.565117
-45.98262 -82.117332 46.905846
-46.74506 -82.854599 42.947678
-53.743542 -53.456234 50.513988
-55.487122 -53.321121 50.787403
-54.397766 -51.196686 50.335823
-56.110321 -46.714394 49.384682
-57.125763 -44.524025 48.620247
-59.181335 -44.661503 48.359013
-58.208946 -42.384605 47.689957
-60.448288 -38.268745 45.472672
-30.894329 -65.087151 60.163834
-33.41753 -51.308437 67.016296
-32.358074 -52.242214 68.658051
-33.004078 -61.044861 56.517429
-33.729008 -60.170422 54.546555
-34.001122 -61.646683 52.337536
-34.573158 -59.352356 52.74778
-37.120441 -55.500248 50.323112
-36.718563 -57.890591 49.877037
-38.034458 -57.24427 48.880215
-39.208351 -59.143337 47.888084
-39.500465 -56.650337 48.200253
-39.570797 -45.784683 52.493885
-38.694675 -48.231262 51.899971
-39.943848 -47.39959 50.739712
-43.439484 -50.500336 48.312183
-41.742165 -51.04142 48.516121
-43.063347 -53.048447 48.043755
-42.792507 -55.604126 47.759884
-44.565041 -55.14407 47.941624
-46.166008 -57.284374 48.125912
-46.387642 -54.721722 48.328209
-50.542046 -51.547779 49.466236
-50.095333 -53.98843 49.454338
-51.9384 -53.68882 50.0373
-53.238083 -55.718372 50.504944
-58.715637 -53.435043 50.374199
-59.141815 -55.602413 50.005325
-60.163078 -53.671982 49.578838
-62.603329 -54.411293 46.819206
-24.136002 -76.649261 57.893909
-22.837105 -77.44931 58.985149
-33.928806 -72.854858 49.602261
-32.420883 -73.226692 50.372414
-55.894836 -64.227859 48.771553
-56.738129 -64.997307 47.507481
-57.044411 -62.910248 48.640263
-58.155602 -61.447586 48.441597
-59.262276 -59.838264 48.176479
-52.610275 -60.311886 50.012794
-52.40139 -62.668964 49.607189
-53.8377 -61.904087 49.989906
-54.929981 -63.208565 49.59473
-29.05378 -70.661255 56.284897
-29.298599 -72.207001 54.094429
-50.365372 -77.564346 39.319336
-51.596794 -75.78154 38.010818
-52.877209 -74.010422 36.717918
-59.146561 -66.310852 39.133682
-58.186913 -67.909225 37.433823
-38.560226 -64.192551 47.660744
-38.186874 -66.777176 47.807732
-39.998283 -66.357651 47.474449
-41.537521 -68.586563 47.666386
-43.08847 -70.798477 48.069576
-51.065952 -72.16391 47.968483
-49.458801 -73.151711 48.264088
-50.398193 -74.433449 47.621979
-49.560577 -76.620972 47.236771
-48.580551 -78.720062 46.743385
-47.517784 -80.735077 46.066963
-48.985424 -79.285866 45.086037
-49.167027 -79.483101 43.007378
-51.139252 -49.142212 49.334572
-53.173782 -49.001858 49.710339
-51.897301 -46.782536 49.049465
-34.572933 -51.713512 62.930912
-34.064289 -54.031944 62.453636
-34.672836 -53.028755 60.480362
-34.734879 -54.329865 57.989746
-35.097134 -57.062698 53.222843
-35.591515 -54.758759 53.742718
-36.482418 -53.903278 52.156971
-37.540905 -53.097042 50.819374
-42.29837 -44.17638 50.25642
-41.370163 -46.652382 49.827381
-42.963608 -46.007298 49.163345
-43.973309 -47.970501 48.543579
-45.250057 -50.039593 48.346825
-46.702171 -52.177238 48.488369
-47.151749 -49.660423 48.572056
-49.122669 -49.361816 48.926273
-60.731342 -49.322598 49.116772
-61.210079 -51.672428 48.962357
-62.247337 -49.646626 48.13929
-36.383862 -77.546188 49.272465
-53.800045 -72.584854 44.8018
-54.115517 -72.88736 42.798927
-55.03051 -71.059296 43.934654
-56.222733 -69.468765 43.088394
-57.418739 -67.83799 42.290352
-57.467609 -65.558701 45.83535
-58.098267 -65.947754 43.824097
-58.65078 -66.192352 41.561119
-59.927937 -64.552094 40.910156
-61.227203 -62.927521 40.33276
-45.827072 -62.450043 47.795418
-45.630295 -65.052063 47.770889
-47.452118 -64.549377 48.174759
-48.986404 -66.523438 48.494766
-50.372894 -68.302521 48.591393
-52.191055 -65.055923 49.163265
-51.928726 -67.450897 48.727451
-51.56723 -69.828743 48.328281
-52.540863 -71.061783 47.617874
-53.282803 -71.981026 46.432369
-42.023678 -42.491676 51.831825
-25.066296 -73.943924 62.448891
-25.137966 -74.887497 59.579659
-25.339762 -75.96225 56.779591
-27.276857 -73.428619 56.893135
-26.470261 -75.372711 55.647034
-54.263664 -72.913811 40.517456
-54.28611 -72.696236 38.050583
-54.228481 -72.269485 35.47506
-57.028397 -69.332443 35.83017
-55.668282 -70.578842 34.311798
-54.13858 -71.668228 32.843689
-54.065102 -70.924438 30.185987
-54.055866 -70.065742 27.514526
-61.280693 -64.918869 26.34479
-32.766235 -66.324188 51.77726
-32.157063 -68.725922 51.615974
-33.442596 -68.179428 50.320839
-34.400673 -70.245346 49.402157
-35.57552 -72.479561 48.988255
-37.781429 -69.411812 48.119289
-37.345306 -72.094032 48.537724
-36.878769 -74.812363 48.965107
-38.219505 -77.15387 49.154167
-39.520134 -79.402985 49.34219
-40.724895 -81.457588 49.318432
-45.370537 -67.665154 47.885315
-45.021767 -70.284897 48.135719
-44.566235 -72.904579 48.480965
-47.729065 -74.032791 48.505054
-45.898788 -74.817612 48.695545
-43.997963 -75.516525 48.84296
-43.326546 -78.113083 49.115253
-42.579479 -80.686104 49.177147
-46.456463 -82.678017 45.140083
-55.759266 -57.211555 50.967381
-56.995094 -57.162827 50.83112
-56.374363 -55.323521 50.967262
-57.149986 -53.312218 50.764809
-58.042801 -51.222229 50.354694
-55.192673 -48.944126 49.959961
-57.155983 -48.974693 49.991768
-59.018372 -49.099373 49.728043
-60.042957 -46.978683 48.88343
-61.082977 -44.884567 47.831924
-62.10688 -42.831711 46.597744
-59.32724 -40.300579 46.627686
-61.311832 -40.520065 46.031548
-29.98164 -67.216316 59.520233
-31.519945 -65.476578 55.589733
-31.178925 -53.16568 70.227676
-32.357597 -61.970997 58.598236
-32.286221 -63.255211 56.048065
-32.392483 -64.690048 53.723766
-33.390308 -63.965717 52.011799
-34.538391 -63.304279 50.513084
-35.845722 -62.702801 49.275219
-35.564899 -58.592564 51.176422
-36.297733 -60.284657 49.515305
-37.305954 -62.155048 48.330547
-38.899765 -61.652096 47.694122
-40.598591 -61.183086 47.363144
-42.369099 -60.736084 47.317719
-38.041065 -50.673035 51.345707
-38.775188 -52.346493 49.759602
-40.680462 -49.153 49.409023
-40.180538 -51.658863 48.992451
-39.807896 -54.158367 48.581856
-41.095261 -56.104954 47.833786
-42.575554 -58.165096 47.500435
-44.177528 -60.299019 47.522682
-45.993134 -59.860783 47.930035
-47.790192 -59.412556 48.481796
-49.548004 -58.949535 49.112713
-48.237961 -54.335739 48.856903
-49.775547 -56.457035 49.323574
-51.248581 -58.473495 49.752522
-52.871845 -57.996964 50.327393
-54.389008 -57.551704 50.76025
-58.174026 -57.398384 50.263645
-59.315754 -57.732121 49.255733
-60.38311 -58.10614 47.833801
-61.466644 -54.002399 48.38147
-61.508118 -56.286629 47.391075
-61.354446 -58.502281 46.053055
-62.222015 -58.91161 43.987541
-31.583164 -71.160416 51.477776
-31.355065 -68.155823 53.233076
-30.880714 -68.518338 54.106088
-31.218802 -67.353192 54.261097
-49.083813 -43.597464 48.362648
-48.07568 -43.719688 48.47992
-47.078991 -43.867699 48.507357
-46.129912 -44.052242 48.701594
-46.621188 -42.854885 48.696953
-48.07568 -43.719688 48.47992
-47.584404 -44.917046 48.48456
-47.078991 -43.867699 48.507357
-63.934223 -44.408308 45.757336
-63.461725 -45.413055 46.431196
-63.235708 -44.198279 46.327665
-27.69926 -71.200882 60.03821
-27.236809 -71.659149 60.887346
-58.247404 -67.686901 30.192192
-58.094135 -67.920117 31.481879
-58.346979 -67.355018 28.893456
-57.475063 -68.101169 29.358608
-58.247404 -67.686901 30.192192
-59.281212 -66.629536 28.437763
-58.508871 -67.043804 27.60418
-58.346979 -67.355018 28.893456
-56.592768 -43.401627 48.273449
-56.054329 -44.494188 48.649637
-57.134359 -42.331917 47.808304
-57.667355 -43.454315 48.155102
-56.592768 -43.401627 48.273449
-33.625231 -52.005558 65.90831
-33.891711 -50.833091 66.158417
-34.099412 -51.530213 65.05043
-33.419238 -53.192009 65.708855
-33.211537 -52.494888 66.816841
-33.625231 -52.005558 65.90831
-33.621909 -53.869526 64.607033
-33.419238 -53.192009 65.708855
-33.980154 -58.376472 56.010881
-34.262848 -57.259193 56.254915
-34.021597 -59.046391 54.785936
-33.687565 -59.500504 55.7715
-33.980154 -58.376472 56.010881
-23.662783 -77.499313 56.925466
-24.312285 -77.184219 56.45982
-34.290785 -75.324333 49.508674
-33.69836 -74.168091 49.664171
-34.521231 -74.0111 49.446764
-29.466977 -69.578716 56.618531
-29.051732 -69.994148 57.532743
-29.842452 -71.935841 53.417456
-29.647362 -71.086583 54.373896
-30.191215 -70.815422 53.696922
-30.097812 -72.828342 52.516783
-29.553959 -73.099502 53.193756
-29.842452 -71.935841 53.417456
-50.412999 -77.693565 40.556297
-49.763136 -78.454369 39.962529
-49.810762 -78.583587 41.19949
-59.375132 -66.310745 37.874115
-59.824531 -65.50853 38.788983
-49.810762 -78.583587 41.19949
-49.163963 -79.413746 41.80655
-49.813826 -78.652942 42.400318
-35.244009 -50.049082 62.274794
-35.64553 -49.550288 61.358825
-34.918142 -51.213425 61.981645
-34.8988 -50.54917 63.22406
-35.244009 -50.049082 62.274794
-35.106768 -54.51152 55.804491
-34.790504 -54.993929 56.762411
-35.051142 -53.847456 57.031826
-35.47946 -54.061903 54.908312
-35.218823 -55.208376 54.638897
-35.106768 -54.51152 55.804491
-36.126408 -78.906425 49.293806
-37.021902 -78.719917 49.311714
-62.145432 -61.153664 41.01049
-61.860233 -62.122223 40.071214
-61.512402 -61.958962 41.272036
-42.7445 -41.297106 52.137991
-42.080911 -41.722233 52.842779
-42.755855 -42.11943 51.270021
-42.7445 -41.297106 52.137991
-25.649589 -73.009338 63.147398
-25.058142 -73.506412 63.871986
-27.777683 -73.110687 56.192902
-27.708225 -72.417046 57.406122
-28.209051 -72.099114 56.705889
-26.685499 -76.106384 54.450369
-27.016277 -75.116752 55.077244
-26.093739 -76.29903 54.885635
-26.685499 -76.106384 54.450369
-49.468796 -77.656242 35.939829
-49.583476 -77.98328 37.324692
-49.085106 -76.458065 31.729069
-49.212038 -76.88821 33.135883
-49.757837 -75.900666 32.508774
-48.990578 -75.997253 30.280701
-49.085106 -76.458065 31.729069
-49.547092 -74.996193 29.680209
-48.990578 -75.997253 30.280701
-51.598101 -72.189865 27.867173
-50.859226 -73.092407 28.468422
-51.650778 -72.670044 29.260524
-52.383478 -71.28775 27.293672
-51.598101 -72.189865 27.867173
-57.768013 -68.53025 35.355841
-57.607655 -68.620834 36.631996
-58.347271 -67.818642 36.157668
-55.685341 -70.293312 33.005819
-56.435154 -69.767117 33.78133
-56.452213 -69.481587 32.47535
-55.019142 -68.79137 25.638669
-54.105234 -69.589973 26.174059
-54.969774 -69.267139 26.979136
-55.990451 -67.996384 25.124593
-55.125912 -68.319218 24.319515
-55.019142 -68.79137 25.638669
-61.898102 -64.520389 27.276645
-61.072872 -65.216236 27.628482
-42.686486 -82.734535 48.772341
-42.190256 -81.955562 49.043852
-43.075709 -81.465077 48.905636
-43.153145 -83.43795 48.322548
-42.686486 -82.734535 48.772341
-44.271662 -84.913421 46.2801
-43.954071 -84.527595 47.076857
-44.702535 -83.80854 46.76836
-44.596954 -85.204559 45.325708
-44.271662 -84.913421 46.2801
-46.116987 -83.70858 43.430766
-46.27685 -83.706611 42.216525
-54.60273 -47.826257 49.62023
-54.183228 -48.972992 49.83515
-53.593285 -47.855123 49.495419
-58.867039 -39.196455 46.363453
-58.269869 -40.22851 46.841115
-62.713774 -39.673901 44.955743
-62.199461 -40.672852 45.623446
-61.826145 -39.521114 45.363846
-63.170915 -38.692566 44.210385
-62.713774 -39.673901 44.955743
-30.087174 -66.641682 60.865461
-29.595656 -67.685158 60.489217
-31.153417 -65.23386 57.816242
-30.813744 -65.704087 58.853882
-31.234003 -64.616925 59.126194
-31.546811 -64.811638 56.839144
-31.126551 -65.8988 56.566832
-31.153417 -65.23386 57.816242
-33.14154 -48.676949 69.444641
-33.405334 -49.400393 68.348018
-32.402132 -49.093224 70.126427
-33.14154 -48.676949 69.444641
-32.143323 -50.287245 69.84766
-32.402132 -49.093224 70.126427
-31.621523 -53.90856 69.297699
-31.7685 -52.703947 69.442864
-32.211098 -53.446827 68.512887
-31.086383 -54.390633 70.134872
-31.621523 -53.90856 69.297699
-33.83209 -55.176167 62.246864
-34.113439 -54.674324 61.224135
-32.704025 -60.876816 58.838299
-32.41739 -61.371427 59.90477
-38.041956 -47.920162 53.61042
-37.983666 -47.20121 54.733637
-23.263537 -76.196293 61.421404
-23.870106 -75.317124 62.296854
-22.135959 -77.908943 59.518724
-22.322316 -78.291183 57.951969
-31.736848 -73.414669 50.82576
-32.186784 -74.493736 50.320646
-30.370289 -68.840935 54.893736
-30.312314 -68.105942 56.043137
-30.370289 -68.840935 54.893736
-30.880714 -68.518338 54.106088
-30.701641 -70.492825 52.909275
-30.191215 -70.815422 53.696922
-49.623539 -44.673786 48.485845
-50.235821 -45.759025 48.648197
-49.193375 -45.854275 48.619475
-49.623539 -44.673786 48.485845
-49.083813 -43.597464 48.362648
-35.606742 -50.208809 60.085417
-35.64553 -49.550288 61.358825
-35.617457 -50.867148 58.835127
-35.274065 -51.371676 59.782089
-35.606742 -50.208809 60.085417
-35.617648 -51.535427 57.592168
-35.617457 -50.867148 58.835127
-35.65896 -52.202944 56.363222
-35.326092 -52.69753 57.302853
-35.617648 -51.535427 57.592168
-36.028499 -51.734596 55.474888
-35.736944 -52.896699 55.185572
-35.65896 -52.202944 56.363222
-36.411819 -51.248852 54.593996
-36.028499 -51.734596 55.474888
-36.853296 -50.798488 53.799162
-36.54796 -51.977989 53.502403
-36.411819 -51.248852 54.593996
-63.001697 -46.413374 47.0524
-62.501009 -47.437144 47.633283
-62.262522 -46.226796 47.582409
-63.700212 -46.623404 46.482071
-63.001697 -46.413374 47.0524
-63.461725 -45.413055 46.431196
-64.295856 -46.860096 45.791848
-63.700212 -46.623404 46.482071
-26.730757 -72.081581 61.645809
-26.210661 -72.559288 62.437011
-26.694492 -72.621391 60.269655
-26.730757 -72.081581 61.645809
-27.236809 -71.659149 60.887346
-27.9204 -73.826774 55.000061
-28.469143 -73.599625 54.436468
-57.288757 -68.694221 31.954103
-58.094135 -67.920117 31.481879
-56.538944 -69.220417 31.178592
-56.452213 -69.481587 32.47535
-57.288757 -68.694221 31.954103
-57.698931 -67.36686 26.759639
-56.853453 -67.716484 25.951577
-56.72916 -68.118911 27.25181
-58.633163 -66.641377 26.303947
-57.698931 -67.36686 26.759639
-58.508871 -67.043804 27.60418
-59.620829 -65.923382 25.85944
-58.633163 -66.641377 26.303947
-47.353319 -81.982803 42.388625
-47.290527 -81.979195 43.5425
-47.898786 -81.107399 42.983446
-46.810484 -82.770675 41.68845
-47.353319 -81.982803 42.388625
-46.27685 -83.706611 42.216525
-46.810484 -82.770675 41.68845
-55.546608 -45.589373 49.031855
-55.061554 -46.711391 49.33259
-56.618042 -45.619209 49.002465
-55.546608 -45.589373 49.031855
-56.054329 -44.494188 48.649637
-60.028515 -37.17255 45.284359
-59.427563 -38.180538 45.785946
-60.995579 -37.273674 44.867894
-60.028515 -37.17255 45.284359
-61.941664 -37.400383 44.47963
-61.394373 -38.395454 45.084408
-60.995579 -37.273674 44.867894
-62.826271 -37.541611 43.997835
-61.941664 -37.400383 44.47963
-30.995016 -64.517071 61.498722
-30.543519 -65.577099 61.187262
-31.316986 -64.014315 60.444125
-30.995016 -64.517071 61.498722
-31.65666 -63.544089 59.406485
-31.234003 -64.616925 59.126194
-31.316986 -64.014315 60.444125
-33.712727 -50.130479 67.297496
-33.891711 -50.833091 66.158417
-33.110138 -50.57835 68.066818
-33.405334 -49.400393 68.348018
-33.712727 -50.130479 67.297496
-32.681809 -52.961776 67.637719
-32.887802 -51.775325 67.837174
-33.211537 -52.494888 66.816841
-32.211098 -53.446827 68.512887
-32.681809 -52.961776 67.637719
-33.3251 -59.937723 56.756937
-33.027265 -60.413748 57.797895
-33.366543 -60.607641 55.531992
-33.3251 -59.937723 56.756937
-33.687565 -59.500504 55.7715
-63.114244 -53.457618 46.453914
-62.564677 -53.228155 47.256622
-63.075592 -52.27448 46.89133
-63.080574 -54.647665 45.886059
-63.114244 -53.457618 46.453914
-63.026699 -55.797222 45.255004
-62.549454 -55.56085 46.188152
-63.080574 -54.647665 45.886059
-62.918178 -56.939275 44.51111
-63.026699 -55.797222 45.255004
-23.013334 -77.899338 57.471086
-23.486553 -77.049285 58.439529
-23.662783 -77.499313 56.925466
-22.322316 -78.291183 57.951969
-23.013334 -77.899338 57.471086
-32.944399 -74.354007 50.049248
-33.174845 -73.040775 49.987337
-33.69836 -74.168091 49.664171
-32.186784 -74.493736 50.320646
-32.944399 -74.354007 50.049248
-28.596687 -71.033364 57.102003
-29.051732 -69.994148 57.532743
-28.666145 -71.727005 55.888783
-28.209051 -72.099114 56.705889
-28.596687 -71.033364 57.102003
-29.524953 -70.31371 55.46913
-29.466977 -69.578716 56.618531
-29.176189 -71.434128 55.189663
-29.524953 -70.31371 55.46913
-29.647362 -71.086583 54.373896
-28.979188 -73.306748 53.737348
-28.469143 -73.599625 54.436468
-28.788554 -72.499878 54.793548
-28.979188 -73.306748 53.737348
-29.553959 -73.099502 53.193756
-49.689864 -78.241383 38.649212
-49.763136 -78.454369 39.962529
-50.258984 -77.306243 37.994816
-49.583476 -77.98328 37.324692
-49.689864 -78.241383 38.649212
-58.895308 -67.109932 37.024186
-58.666737 -67.110039 38.283752
-59.375132 -66.310745 37.874115
-58.347271 -67.818642 36.157668
-58.895308 -67.109932 37.024186
-48.564302 -80.297055 42.418475
-47.898786 -81.107399 42.983446
-48.501511 -80.293446 43.57235
-48.564302 -80.297055 42.418475
-49.163963 -79.413746 41.80655
-52.955044 -46.745463 49.164982
-53.593285 -47.855123 49.495419
-52.535542 -47.892197 49.379902
-51.281643 -45.680537 48.782016
-50.851478 -46.861025 48.915645
-50.235821 -45.759025 48.648197
-52.355118 -45.631609 48.832414
-51.281643 -45.680537 48.782016
-52.955044 -46.745463 49.164982
-52.355118 -45.631609 48.832414
-34.469412 -51.035629 64.115724
-34.8988 -50.54917 63.22406
-34.202933 -52.208095 63.865617
-34.099412 -51.530213 65.05043
-34.469412 -51.035629 64.115724
-34.417713 -54.17273 60.237498
-34.113439 -54.674324 61.224135
-34.368562 -53.530349 61.466999
-34.448735 -54.823284 58.992189
-34.417713 -54.17273 60.237498
-34.703857 -53.67931 59.235054
-34.473194 -55.462946 57.737129
-34.448735 -54.823284 58.992189
-34.473194 -55.462946 57.737129
-34.790504 -54.993929 56.762411
-34.580158 -56.790176 55.280197
-34.262848 -57.259193 56.254915
-34.971632 -56.360345 54.378959
-34.70566 -57.492528 54.12408
-34.580158 -56.790176 55.280197
-35.344324 -55.910728 53.482781
-34.971632 -56.360345 54.378959
-35.218823 -55.208376 54.638897
-62.743761 -48.635174 47.621282
-62.004585 -48.448595 48.151291
-62.501009 -47.437144 47.633283
-62.886189 -49.858095 47.475197
-62.743761 -48.635174 47.621282
-63.025532 -51.057291 47.252571
-62.38668 -50.845821 47.916664
-62.886189 -49.858095 47.475197
-63.075592 -52.27448 46.89133
-63.025532 -51.057291 47.252571
-35.513666 -77.701957 49.350866
-34.878563 -76.512535 49.360267
-35.748759 -76.356765 49.281866
-35.513666 -77.701957 49.350866
-36.126408 -78.906425 49.293806
-60.21522 -64.629151 39.677219
-59.824531 -65.50853 38.788983
-59.537249 -65.431473 40.021919
-60.864852 -63.816864 39.388521
-60.21522 -64.629151 39.677219
-60.57757 -63.739807 40.621458
-61.540022 -63.031672 39.089556
-60.864852 -63.816864 39.388521
-61.540022 -63.031672 39.089556
-61.860233 -62.122223 40.071214
-38.50222 -46.008171 55.095652
-37.983666 -47.20121 54.733637
-39.010298 -45.506312 54.277902
-38.50222 -46.008171 55.095652
-39.565331 -45.042246 53.561041
-39.015765 -46.248749 53.210746
-39.010298 -45.506312 54.277902
-40.143102 -44.568384 52.818381
-39.565331 -45.042246 53.561041
-40.782511 -44.141447 52.204161
-40.210205 -45.357746 51.879666
-40.143102 -44.568384 52.818381
-41.369543 -42.921881 52.487351
-42.080911 -41.722233 52.842779
-41.436645 -43.711242 51.548636
-40.782511 -44.141447 52.204161
-41.369543 -42.921881 52.487351
-42.893202 -42.961782 50.482319
-42.161024 -43.334028 51.044123
-42.755855 -42.11943 51.270021
-43.698959 -42.644547 50.088316
-43.104128 -43.859144 49.862417
-42.893202 -42.961782 50.482319
-44.507396 -42.340667 49.62196
-43.698959 -42.644547 50.088316
-45.388508 -42.089428 49.333348
-44.790997 -43.290668 49.179802
-44.507396 -42.340667 49.62196
-46.269267 -41.858513 48.959612
-45.388508 -42.089428 49.333348
-46.621188 -42.854885 48.696953
-46.269267 -41.858513 48.959612
-24.439231 -74.423431 63.105806
-25.058142 -73.506412 63.871986
-24.497172 -74.837616 61.639938
-23.870106 -75.317124 62.296854
-24.439231 -74.423431 63.105806
-25.627368 -73.493874 61.738505
-25.649589 -73.009338 63.147398
-26.210661 -72.559288 62.437011
-24.914164 -76.840713 55.902661
-24.312285 -77.184219 56.45982
-24.737882 -76.305756 57.33675
-27.670068 -71.802216 58.715151
-27.69926 -71.200882 60.03821
-27.238701 -72.813789 58.202163
-27.670068 -71.802216 58.715151
-27.708225 -72.417046 57.406122
-27.419574 -74.144706 55.700294
-27.777683 -73.110687 56.192902
-27.9204 -73.826774 55.000061
-26.873559 -74.400665 56.270084
-27.419574 -74.144706 55.700294
-27.016277 -75.116752 55.077244
-25.52849 -76.593799 55.451914
-25.905012 -75.66748 56.213313
-26.093739 -76.29903 54.885635
-24.914164 -76.840713 55.902661
-25.52849 -76.593799 55.451914
-49.334882 -77.297577 34.562475
-49.468796 -77.656242 35.939829
-50.018682 -76.689476 35.292942
-49.334882 -77.297577 34.562475
-49.212038 -76.88821 33.135883
-50.187591 -74.047226 29.060116
-49.547092 -74.996193 29.680209
-50.271404 -74.521553 30.481866
-50.187591 -74.047226 29.060116
-50.859226 -73.092407 28.468422
-57.115212 -69.143917 34.540516
-57.768013 -68.53025 35.355841
-56.348339 -69.955642 35.070984
-57.115212 -69.143917 34.540516
-56.435154 -69.767117 33.78133
-53.216585 -70.43687 26.721298
-52.383478 -71.28775 27.293672
-53.222759 -70.916622 28.0869
-53.216585 -70.43687 26.721298
-54.105234 -69.589973 26.174059
-55.990451 -67.996384 25.124593
-56.853453 -67.716484 25.951577
-60.154077 -65.915962 28.03033
-59.281212 -66.629536 28.437763
-60.361898 -65.618595 26.746638
-60.154077 -65.915962 28.03033
-61.072872 -65.216236 27.628482
-60.539623 -65.223656 25.457591
-59.620829 -65.923382 25.85944
-60.361898 -65.618595 26.746638
-62.129029 -64.226404 25.995624
-61.898102 -64.520389 27.276645
-61.494831 -64.521789 25.063254
-62.129029 -64.226404 25.995624
-60.539623 -65.223656 25.457591
-61.494831 -64.521789 25.063254
-37.939724 -78.523758 49.252566
-37.021902 -78.719917 49.311714
-37.301683 -77.350029 49.213316
-38.590038 -79.648315 49.346577
-37.939724 -78.523758 49.252566
-38.869819 -78.278427 49.248179
-39.201403 -80.753464 49.329785
-38.590038 -79.648315 49.346577
-39.803783 -81.780766 49.317906
-39.201403 -80.753464 49.329785
-40.122514 -80.430286 49.330311
-40.370775 -82.765782 49.151369
-39.803783 -81.780766 49.317906
-41.262964 -82.341305 49.114494
-41.652187 -81.071846 49.247789
-42.190256 -81.955562 49.043852
-40.370775 -82.765782 49.151369
-41.262964 -82.341305 49.114494
-43.559649 -84.027282 47.788044
-43.153145 -83.43795 48.322548
-43.978442 -82.833382 48.099621
-43.559649 -84.027282 47.788044
-43.954071 -84.527595 47.076857
-45.972689 -83.620289 44.526968
-46.600762 -82.766308 44.043881
-46.116987 -83.70858 43.430766
-45.25452 -84.378464 44.942728
-45.738294 -83.436192 45.555843
-45.972689 -83.620289 44.526968
-44.596954 -85.204559 45.325708
-45.25452 -84.378464 44.942728
-55.651497 -47.82926 49.672321
-54.60273 -47.826257 49.62023
-55.061554 -46.711391 49.33259
-62.907543 -43.012621 46.125774
-63.235708 -44.198279 46.327665
-62.435045 -44.017369 46.799635
-57.710722 -41.270523 47.37225
-57.134359 -42.331917 47.808304
-58.768093 -41.342592 47.158822
-57.710722 -41.270523 47.37225
-58.269869 -40.22851 46.841115
-59.887764 -39.284662 46.050179
-58.867039 -39.196455 46.363453
-59.427563 -38.180538 45.785946
-62.596985 -41.828674 45.906543
-61.709356 -41.675888 46.314646
-62.199461 -40.672852 45.623446
-62.907543 -43.012621 46.125774
-62.596985 -41.828674 45.906543
-63.170915 -38.692566 44.210385
-62.826271 -37.541611 43.997835
-29.515662 -68.271679 59.150411
-29.595656 -67.685158 60.489217
-29.930907 -67.856247 58.236199
-29.515662 -68.271679 59.150411
-30.437984 -66.151734 59.842033
-30.087174 -66.641682 60.865461
-30.543519 -65.577099 61.187262
-30.357399 -66.768669 58.532082
-30.437984 -66.151734 59.842033
-30.813744 -65.704087 58.853882
-29.930907 -67.856247 58.236199
-30.357399 -66.768669 58.532082
-30.738805 -67.018364 56.33902
-30.312314 -68.105942 56.043137
-31.132199 -66.596142 55.361921
-30.738805 -67.018364 56.33902
-31.126551 -65.8988 56.566832
-31.920987 -51.48422 69.618015
-32.143323 -50.287245 69.84766
-32.58041 -51.045238 68.887696
-31.331412 -51.945954 70.402828
-31.920987 -51.48422 69.618015
-31.7685 -52.703947 69.442864
-30.61963 -52.381588 71.102352
-31.331412 -51.945954 70.402828
-30.530769 -53.625603 70.978714
-30.61963 -52.381588 71.102352
-30.530769 -53.625603 70.978714
-31.086383 -54.390633 70.134872
-33.737587 -54.534159 63.433689
-33.621909 -53.869526 64.607033
-33.948611 -53.367311 63.62698
-33.737587 -54.534159 63.433689
-33.83209 -55.176167 62.246864
-32.04862 -62.456238 59.661326
-32.41739 -61.371427 59.90477
-31.965637 -63.058847 58.343395
-31.65666 -63.544089 59.406485
-32.04862 -62.456238 59.661326
-32.680837 -61.507929 57.557833
-32.704025 -60.876816 58.838299
-33.027265 -60.413748 57.797895
-37.306309 -50.327568 53.0004
-36.853296 -50.798488 53.799162
-38.158927 -48.679386 52.596602
-38.041956 -47.920162 53.61042
-38.577703 -47.472038 52.91379
-37.832122 -49.900272 52.319469
-38.158927 -48.679386 52.596602
-38.36787 -49.452148 51.622839
-37.515251 -51.10033 52.026638
-37.306309 -50.327568 53.0004
-37.832122 -49.900272 52.319469
-62.781396 -58.039877 43.726332
-62.358797 -57.811008 44.77232
-62.918178 -56.939275 44.51111
-62.603786 -59.116427 42.851814
-62.781396 -58.039877 43.726332
-62.391579 -60.155822 41.963699
-62.009808 -59.951006 43.099426
-62.603786 -59.116427 42.851814
-62.145432 -61.153664 41.01049
-62.391579 -60.155822 41.963699
-64.574032 -44.639381 45.146076
-63.934223 -44.408308 45.757336
-64.692318 -45.882565 45.146435
-64.574032 -44.639381 45.146076
-64.295856 -46.860096 45.791848
-64.692318 -45.882565 45.146435
-22.718066 -77.055294 60.498486
-23.263537 -76.196293 61.421404
-23.382576 -76.590309 59.908068
-22.718066 -77.055294 60.498486
-22.135959 -77.908943 59.518724
-31.58702 -69.023446 52.347021
-31.355065 -68.155823 53.233076
-31.925108 -67.8583 52.502029
-31.300071 -70.240692 52.277922
-31.58702 -69.023446 52.347021
-31.870114 -69.943169 51.546875
-30.984735 -71.412548 52.109129
-30.701641 -70.492825 52.909275
-31.300071 -70.240692 52.277922
-31.317988 -72.381531 51.378441
-32.002023 -72.193554 50.925095
-31.736848 -73.414669 50.82576
-30.719559 -72.633663 52.009794
-30.984735 -71.412548 52.109129
-31.317988 -72.381531 51.378441
-30.097812 -72.828342 52.516783
-30.719559 -72.633663 52.009794
-34.290785 -75.324333 49.508674
-34.878563 -76.512535 49.360267
3 0 96 94
3 0 94 97
3 1 368 370
3 370 369 99
3 368 369 370
3 2 102 100
3 3 105 103
3 2 108 106
3 2 100 108
3 372 371 110
3 373 115 374
3 375 374 113
3 373 374 375
3 376 110 377
3 378 377 115
3 376 377 378
3 379 118 380
3 381 380 117
3 379 380 381
3 4 121 119
3 6 124 122
3 6 126 124
3 7 129 127
3 4 132 130
3 4 119 132
3 382 135 383
3 10 138 136
3 10 140 138
3 5 143 141
3 384 144 385
3 386 146 387
3 388 387 144
3 386 387 388
3 389 147 390
3 391 390 146
3 389 390 391
3 11 150 148
3 13 153 151
3 13 155 153
3 8 158 156
3 14 161 159
3 14 163 161
3 14 165 163
3 15 169 167
3 392 171 393
3 394 173 395
3 396 395 171
3 394 395 396
3 17 397 399
3 397 176 398
3 397 398 399
3 17 400 402
3 402 401 176
3 400 401 402
3 17 403 404
3 18 405 406
3 18 407 409
3 407 179 408
3 407 408 409
3 18 181 179
3 19 184 182
3 19 186 184
3 9 189 187
3 20 192 190
3 20 194 192
3 20 196 194
3 15 199 197
3 15 167 199
3 16 203 201
3 411 410 205
3 12 412 414
3 414 413 207
3 412 413 414
3 21 211 209
3 23 212 95
3 23 213 212
3 24 216 214
3 21 217 98
3 21 209 217
3 415 218 416
3 27 417 419
3 417 219 418
3 417 418 419
3 27 420 422
3 422 421 219
3 420 421 422
3 28 423 425
3 423 220 424
3 423 424 425
3 30 221 101
3 30 222 221
3 427 426 223
3 31 227 225
3 33 228 104
3 33 229 228
3 34 232 230
3 36 233 107
3 36 234 233
3 36 236 234
3 28 237 109
3 28 428 430
3 430 429 237
3 428 429 430
3 38 240 238
3 39 431 432
3 39 433 435
3 433 241 434
3 433 434 435
3 39 243 241
3 40 244 111
3 40 436 438
3 438 437 244
3 436 437 438
3 40 439 441
3 439 246 440
3 439 440 441
3 42 247 112
3 42 248 247
3 43 251 249
3 45 252 114
3 45 253 252
3 45 255 253
3 38 256 116
3 38 238 256
3 47 259 257
3 443 442 260
3 49 263 261
3 51 264 120
3 51 265 264
3 22 266 210
3 52 267 123
3 52 268 267
3 52 269 268
3 53 270 125
3 53 444 446
3 446 445 270
3 444 445 446
3 54 273 271
3 56 274 128
3 56 275 274
3 25 276 215
3 57 277 131
3 57 278 277
3 57 279 278
3 49 280 133
3 49 261 280
3 447 281 448
3 450 449 281
3 451 282 452
3 60 283 134
3 60 284 283
3 26 453 455
3 453 285 454
3 453 454 455
3 456 286 457
3 459 458 286
3 29 460 461
3 61 462 464
3 464 463 137
3 462 463 464
3 61 465 466
3 61 467 468
3 62 469 471
3 471 470 139
3 469 470 471
3 62 472 473
3 50 287 262
3 63 288 142
3 63 289 288
3 474 290 475
3 476 475 224
3 474 475 476
3 64 477 479
3 477 291 478
3 477 478 479
3 64 292 291
3 64 293 292
3 65 294 145
3 65 480 482
3 482 481 294
3 480 481 482
3 65 483 485
3 483 484 485
3 486 295 487
3 66 298 296
3 68 299 149
3 68 300 299
3 32 301 226
3 69 302 152
3 69 303 302
3 69 304 303
3 70 305 154
3 70 306 305
3 55 307 272
3 71 308 157
3 71 309 308
3 35 310 231
3 72 311 160
3 72 312 311
3 72 313 312
3 73 314 162
3 73 488 490
3 490 489 314
3 488 489 490
3 73 491 492
3 74 493 495
3 495 494 164
3 493 494 495
3 74 496 497
3 37 315 235
3 499 498 166
3 75 318 316
3 77 319 168
3 77 320 319
3 500 321 501
3 502 501 239
3 500 501 502
3 78 322 170
3 78 323 322
3 78 324 323
3 79 325 172
3 79 326 325
3 503 327 504
3 80 328 174
3 80 505 507
3 507 506 328
3 505 506 507
3 80 508 509
3 510 329 511
3 81 512 514
3 514 513 175
3 512 513 514
3 81 515 517
3 515 330 516
3 515 516 517
3 82 518 519
3 82 520 521
3 82 522 523
3 524 331 525
3 526 525 177
3 524 525 526
3 528 527 331
3 530 529 242
3 531 332 532
3 83 333 178
3 83 334 333
3 83 335 334
3 84 336 180
3 84 337 336
3 41 338 245
3 85 339 183
3 85 340 339
3 85 341 340
3 86 342 185
3 86 343 342
3 58 533 534
3 87 344 188
3 87 345 344
3 44 346 250
3 88 347 191
3 88 348 347
3 88 349 348
3 89 350 193
3 89 351 350
3 89 352 351
3 90 353 195
3 90 354 353
3 46 355 254
3 91 356 198
3 91 357 356
3 91 358 357
3 75 359 200
3 75 316 359
3 76 360 317
3 92 361 202
3 92 362 361
3 48 363 258
3 93 364 204
3 93 365 364
3 93 366 365
3 59 535 536
3 538 537 206
3 67 367 297
3 540 539 208
3 94 95 21
3 96 95 94
3 96 23 95
3 97 98 24
3 94 98 97
3 94 21 98
3 99 541 542
3 544 543 99
3 545 27 546
3 100 101 28
3 102 101 100
3 102 30 101
3 103 104 31
3 105 104 103
3 105 33 104
3 106 107 34
3 108 107 106
3 108 36 107
3 108 109 36
3 100 109 108
3 100 28 109
3 110 547 549
3 549 548 38
3 547 548 549
3 551 550 110
3 552 39 553
3 554 111 555
3 556 555 39
3 554 555 556
3 557 111 558
3 559 40 560
3 561 560 111
3 559 560 561
3 562 112 563
3 564 563 40
3 562 563 564
3 565 112 566
3 567 42 568
3 569 568 112
3 567 568 569
3 113 114 43
3 115 114 113
3 115 45 114
3 115 116 45
3 110 116 115
3 110 38 116
3 117 570 572
3 572 571 47
3 570 571 572
3 118 573 575
3 575 574 117
3 573 574 575
3 118 576 577
3 119 120 49
3 121 120 119
3 121 51 120
3 122 123 22
3 124 123 122
3 124 52 123
3 124 125 52
3 126 125 124
3 126 53 125
3 127 128 54
3 129 128 127
3 129 56 128
3 130 131 25
3 132 131 130
3 132 57 131
3 132 133 57
3 119 133 132
3 119 49 133
3 578 134 579
3 135 580 582
3 580 134 581
3 580 581 582
3 135 60 134
3 584 583 26
3 136 137 29
3 138 137 136
3 138 61 137
3 138 139 61
3 140 139 138
3 140 62 139
3 141 142 50
3 143 142 141
3 143 63 142
3 144 585 586
3 144 587 589
3 587 64 588
3 587 588 589
3 144 145 64
3 146 145 144
3 146 65 145
3 146 590 592
3 592 591 65
3 590 591 592
3 147 593 595
3 595 594 146
3 593 594 595
3 147 596 597
3 148 149 66
3 150 149 148
3 150 68 149
3 151 152 32
3 153 152 151
3 153 69 152
3 153 154 69
3 155 154 153
3 155 70 154
3 156 157 55
3 158 157 156
3 158 71 157
3 159 160 35
3 161 160 159
3 161 72 160
3 161 162 72
3 163 162 161
3 163 73 162
3 163 164 73
3 165 164 163
3 165 74 164
3 598 166 599
3 600 599 37
3 598 599 600
3 601 166 602
3 604 603 166
3 167 168 75
3 169 168 167
3 169 77 168
3 605 170 606
3 171 607 609
3 607 170 608
3 607 608 609
3 171 78 170
3 171 172 78
3 173 172 171
3 173 79 172
3 610 174 611
3 612 174 613
3 614 80 615
3 616 615 174
3 614 615 616
3 618 617 80
3 619 175 620
3 621 175 622
3 623 81 624
3 625 624 175
3 623 624 625
3 176 626 627
3 176 628 630
3 628 82 629
3 628 629 630
3 176 177 82
3 631 177 632
3 633 632 176
3 631 632 633
3 635 634 177
3 636 178 637
3 179 638 640
3 638 178 639
3 638 639 640
3 179 83 178
3 179 180 83
3 181 180 179
3 181 84 180
3 182 183 41
3 184 183 182
3 184 85 183
3 184 185 85
3 186 185 184
3 186 86 185
3 187 188 58
3 189 188 187
3 189 87 188
3 190 191 44
3 192 191 190
3 192 88 191
3 192 193 88
3 194 193 192
3 194 89 193
3 194 195 89
3 196 195 194
3 196 90 195
3 197 198 46
3 199 198 197
3 199 91 198
3 199 200 91
3 167 200 199
3 167 75 200
3 201 202 76
3 203 202 201
3 203 92 202
3 641 204 642
3 643 642 48
3 641 642 643
3 644 204 645
3 646 93 647
3 648 647 204
3 646 647 648
3 650 649 93
3 205 206 59
3 651 206 652
3 653 652 205
3 651 652 653
3 655 654 206
3 207 208 67
3 656 208 657
3 658 657 207
3 656 657 658
3 660 659 208
3 209 210 4
3 211 210 209
3 211 22 210
3 95 211 21
3 212 211 95
3 212 22 211
3 212 122 22
3 213 122 212
3 213 6 122
3 214 215 7
3 216 215 214
3 216 25 215
3 98 216 24
3 217 216 98
3 217 25 216
3 217 130 25
3 209 130 217
3 209 4 130
3 218 661 662
3 218 663 665
3 663 26 664
3 663 664 665
3 666 218 667
3 219 668 670
3 668 218 669
3 668 669 670
3 219 26 218
3 219 671 673
3 673 672 26
3 671 672 673
3 675 674 219
3 220 676 677
3 220 678 680
3 678 29 679
3 678 679 680
3 101 220 28
3 221 220 101
3 221 29 220
3 221 136 29
3 222 136 221
3 222 10 136
3 223 224 5
3 681 224 682
3 683 682 223
3 681 682 683
3 685 684 224
3 225 226 11
3 227 226 225
3 227 32 226
3 104 227 31
3 228 227 104
3 228 32 227
3 228 151 32
3 229 151 228
3 229 13 151
3 230 231 8
3 232 231 230
3 232 35 231
3 107 232 34
3 233 232 107
3 233 35 232
3 233 159 35
3 234 159 233
3 234 14 159
3 234 235 14
3 236 235 234
3 236 37 235
3 109 236 36
3 237 236 109
3 237 37 236
3 237 686 688
3 688 687 37
3 686 687 688
3 690 689 237
3 238 239 15
3 240 239 238
3 240 691 693
3 693 692 239
3 691 692 693
3 694 240 695
3 696 695 38
3 694 695 696
3 697 240 698
3 700 699 240
3 241 701 702
3 241 703 705
3 703 17 704
3 703 704 705
3 241 242 17
3 243 242 241
3 243 706 708
3 708 707 242
3 706 707 708
3 111 243 39
3 244 243 111
3 244 709 711
3 711 710 243
3 709 710 711
3 244 712 713
3 715 714 244
3 716 18 717
3 718 245 719
3 720 719 18
3 718 719 720
3 246 721 723
3 721 245 722
3 721 722 723
3 246 41 245
3 112 246 40
3 247 246 112
3 247 41 246
3 247 182 41
3 248 182 247
3 248 19 182
3 249 250 9
3 251 250 249
3 251 44 250
3 114 251 43
3 252 251 114
3 252 44 251
3 252 190 44
3 253 190 252
3 253 20 190
3 253 254 20
3 255 254 253
3 255 46 254
3 116 255 45
3 256 255 116
3 256 46 255
3 256 197 46
3 238 197 256
3 238 15 197
3 257 258 16
3 259 258 257
3 259 48 258
3 724 259 725
3 726 725 47
3 724 725 726
3 727 259 728
3 729 48 730
3 731 730 259
3 729 730 731
3 733 732 48
3 260 734 736
3 736 735 12
3 734 735 736
3 738 737 260
3 261 262 2
3 263 262 261
3 263 50 262
3 120 263 49
3 264 263 120
3 264 50 263
3 264 141 50
3 265 141 264
3 265 5 141
3 210 121 4
3 266 121 210
3 266 51 121
3 123 266 22
3 267 266 123
3 267 51 266
3 267 265 51
3 268 265 267
3 268 5 265
3 268 223 5
3 269 223 268
3 269 739 741
3 741 740 223
3 739 740 741
3 125 269 52
3 270 269 125
3 270 742 744
3 744 743 269
3 742 743 744
3 270 745 746
3 748 747 270
3 271 272 3
3 273 272 271
3 273 55 272
3 128 273 54
3 274 273 128
3 274 55 273
3 274 156 55
3 275 156 274
3 275 8 156
3 215 129 7
3 276 129 215
3 276 56 129
3 131 276 25
3 277 276 131
3 277 56 276
3 277 275 56
3 278 275 277
3 278 8 275
3 278 230 8
3 279 230 278
3 279 34 230
3 133 279 57
3 280 279 133
3 280 34 279
3 280 106 34
3 261 106 280
3 261 2 106
3 749 58 750
3 751 58 752
3 753 187 754
3 755 754 58
3 753 754 755
3 756 187 757
3 758 9 759
3 760 759 187
3 758 759 760
3 281 761 762
3 281 763 765
3 763 9 764
3 763 764 765
3 281 249 9
3 766 249 767
3 768 767 281
3 766 767 768
3 769 43 770
3 771 770 249
3 769 770 771
3 772 43 773
3 774 113 775
3 776 775 43
3 774 775 776
3 777 113 778
3 780 779 113
3 282 781 782
3 282 783 785
3 783 59 784
3 783 784 785
3 134 786 788
3 786 282 787
3 786 787 788
3 283 282 134
3 283 59 282
3 283 205 59
3 284 205 283
3 284 789 791
3 791 790 205
3 789 790 791
3 792 135 793
3 285 794 796
3 794 135 795
3 794 795 796
3 285 60 135
3 797 285 798
3 799 798 26
3 797 798 799
3 286 800 802
3 800 285 801
3 800 801 802
3 286 60 285
3 286 284 60
3 803 284 804
3 805 804 286
3 803 804 805
3 807 806 284
3 137 808 810
3 810 809 29
3 808 809 810
3 812 811 137
3 139 813 815
3 815 814 61
3 813 814 815
3 817 816 139
3 262 102 2
3 287 102 262
3 287 30 102
3 142 287 50
3 288 287 142
3 288 30 287
3 288 222 30
3 289 222 288
3 289 10 222
3 224 143 5
3 290 143 224
3 290 63 143
3 818 290 819
3 291 820 822
3 820 290 821
3 820 821 822
3 291 63 290
3 291 289 63
3 292 289 291
3 292 10 289
3 292 140 10
3 293 140 292
3 293 62 140
3 145 293 64
3 294 293 145
3 294 62 293
3 294 823 825
3 825 824 62
3 823 824 825
3 827 826 294
3 829 828 65
3 830 147 831
3 295 832 834
3 832 147 833
3 832 833 834
3 295 835 837
3 837 836 147
3 835 836 837
3 838 295 839
3 840 295 841
3 843 842 295
3 296 297 1
3 298 297 296
3 298 67 297
3 149 298 66
3 299 298 149
3 299 67 298
3 299 207 67
3 300 207 299
3 300 12 207
3 226 150 11
3 301 150 226
3 301 68 150
3 152 301 32
3 302 301 152
3 302 68 301
3 302 300 68
3 303 300 302
3 303 12 300
3 303 260 12
3 304 260 303
3 304 844 846
3 846 845 260
3 844 845 846
3 154 304 69
3 305 304 154
3 305 847 849
3 849 848 304
3 847 848 849
3 305 850 851
3 306 852 854
3 854 853 305
3 852 853 854
3 306 855 856
3 272 105 3
3 307 105 272
3 307 33 105
3 157 307 55
3 308 307 157
3 308 33 307
3 308 229 33
3 309 229 308
3 309 13 229
3 231 158 8
3 310 158 231
3 310 71 158
3 160 310 35
3 311 310 160
3 311 71 310
3 311 309 71
3 312 309 311
3 312 13 309
3 312 155 13
3 313 155 312
3 313 70 155
3 162 313 72
3 314 313 162
3 314 70 313
3 314 306 70
3 857 306 858
3 859 858 314
3 857 858 859
3 861 860 306
3 164 862 864
3 864 863 73
3 862 863 864
3 866 865 164
3 235 165 14
3 315 165 235
3 315 74 165
3 166 315 37
3 867 315 868
3 869 868 166
3 867 868 869
3 870 74 871
3 872 871 315
3 870 871 872
3 874 873 74
3 316 317 0
3 318 317 316
3 318 76 317
3 168 318 75
3 319 318 168
3 319 76 318
3 319 201 76
3 320 201 319
3 320 16 201
3 239 169 15
3 321 169 239
3 321 77 169
3 170 875 877
3 875 321 876
3 875 876 877
3 322 321 170
3 322 77 321
3 322 320 77
3 323 320 322
3 323 16 320
3 323 257 16
3 324 257 323
3 324 47 257
3 172 324 78
3 325 324 172
3 325 47 324
3 325 117 47
3 326 117 325
3 326 878 880
3 880 879 117
3 878 879 880
3 881 173 882
3 327 883 885
3 883 173 884
3 883 884 885
3 327 79 173
3 174 886 888
3 886 327 887
3 886 887 888
3 328 327 174
3 328 79 327
3 328 326 79
3 889 326 890
3 891 890 328
3 889 890 891
3 893 892 326
3 895 894 80
3 329 896 897
3 329 898 899
3 175 900 902
3 900 329 901
3 900 901 902
3 903 329 904
3 905 904 175
3 903 904 905
3 907 906 329
3 908 99 909
3 330 910 912
3 910 99 911
3 910 911 912
3 330 1 99
3 177 913 915
3 915 914 82
3 913 914 915
3 331 916 918
3 918 917 177
3 916 917 918
3 331 919 920
3 331 921 922
3 924 923 331
3 242 925 927
3 927 926 17
3 925 926 927
3 929 928 242
3 332 930 931
3 332 932 934
3 932 81 933
3 932 933 934
3 178 935 937
3 935 332 936
3 935 936 937
3 333 332 178
3 333 81 332
3 333 330 81
3 334 330 333
3 334 1 330
3 334 296 1
3 335 296 334
3 335 66 296
3 180 335 83
3 336 335 180
3 336 66 335
3 336 148 66
3 337 148 336
3 337 11 148
3 245 181 18
3 338 181 245
3 338 84 181
3 183 338 41
3 339 338 183
3 339 84 338
3 339 337 84
3 340 337 339
3 340 11 337
3 340 225 11
3 341 225 340
3 341 31 225
3 185 341 85
3 342 341 185
3 342 31 341
3 342 103 31
3 343 103 342
3 343 3 103
3 938 42 939
3 188 940 942
3 942 941 58
3 940 941 942
3 344 943 945
3 945 944 188
3 943 944 945
3 344 946 948
3 946 42 947
3 946 947 948
3 344 248 42
3 345 248 344
3 345 19 248
3 250 189 9
3 346 189 250
3 346 87 189
3 191 346 44
3 347 346 191
3 347 87 346
3 347 345 87
3 348 345 347
3 348 19 345
3 348 186 19
3 349 186 348
3 349 86 186
3 193 349 88
3 350 349 193
3 350 86 349
3 350 343 86
3 351 343 350
3 351 3 343
3 351 271 3
3 352 271 351
3 352 54 271
3 195 352 89
3 353 352 195
3 353 54 352
3 353 127 54
3 354 127 353
3 354 7 127
3 254 196 20
3 355 196 254
3 355 90 196
3 198 355 46
3 356 355 198
3 356 90 355
3 356 354 90
3 357 354 356
3 357 7 354
3 357 214 7
3 358 214 357
3 358 24 214
3 200 358 91
3 359 358 200
3 359 24 358
3 359 97 24
3 316 97 359
3 316 0 97
3 317 96 0
3 360 96 317
3 360 23 96
3 202 360 76
3 361 360 202
3 361 23 360
3 361 213 23
3 362 213 361
3 362 6 213
3 258 203 16
3 363 203 258
3 363 92 203
3 204 363 48
3 364 363 204
3 364 92 363
3 364 362 92
3 365 362 364
3 365 6 362
3 365 126 6
3 366 126 365
3 366 53 126
3 949 366 950
3 951 950 93
3 949 950 951
3 952 366 953
3 954 53 955
3 956 955 366
3 954 955 956
3 958 957 53
3 959 118 960
3 961 118 962
3 964 963 118
3 206 965 967
3 967 966 59
3 965 966 967
3 969 968 206
3 297 970 972
3 972 971 1
3 970 971 972
3 367 973 975
3 975 974 297
3 973 974 975
3 367 976 978
3 976 27 977
3 976 977 978
3 208 367 67
3 979 367 980
3 981 980 208
3 979 980 981
3 982 27 983
3 984 983 367
3 982 983 984
3 986 985 27
3 988 987 12
