ply
format ascii 1.0
element vertex 969
property float x
property float y
property float z
element face 1086
property list uchar int vertex_index
end_header
40.589478 -6.579755 -4.454247
38.44548 16.023228 -11.620039
38.113705 22.738529 5.855444
39.37521 -9.229338 10.868705
46.569439 -28.34927 10.645838
31.508982 14.941368 -35.785812
39.837685 3.617794 -7.63932
44.683342 3.382841 -18.730947
45.850586 -6.430392 -13.278677
38.21384 36.627705 -0.42765
40.785374 -21.031933 11.463001
31.89839 23.56945 -29.512476
36.338005 26.27586 -16.636595
37.453133 20.17812 -26.648458
41.969318 12.922829 -23.068964
37.802086 6.137817 2.243454
39.291565 -8.137798 3.237873
39.055138 6.370296 9.106703
35.952534 33.097992 -7.83791
36.417244 20.926556 -1.394264
44.972565 -13.850804 -5.837412
42.388012 -18.248203 3.146982
47.663784 -31.927483 17.362925
40.294441 -2.235928 -5.890385
42.469429 -2.732096 -10.996986
42.613075 -7.433816 -8.522423
29.683651 29.174137 -28.311827
37.497818 21.601715 -13.961498
38.730389 18.764355 -19.298952
40.162521 13.852268 -17.241148
48.81871 1.62187 -21.140982
47.465656 6.04031 -24.141748
37.31966 14.611977 4.793999
37.982822 6.559826 6.145959
36.206745 37.328918 -12.015253
36.365322 29.44997 -0.09824
36.687099 22.371334 2.761727
37.07827 13.653709 0.75845
39.007126 -8.723466 7.312295
40.46841 -13.973214 3.159034
39.765442 -14.968496 7.462966
43.022045 -25.170279 11.22783
43.828804 -23.174189 7.405369
28.983919 18.385895 -32.392563
26.271555 17.338352 -31.789843
40.684177 16.533558 -30.790632
37.650379 18.448471 -31.99423
48.617195 -15.240624 -5.6171
39.215874 9.883846 -9.537979
41.220215 8.399311 -15.229868
41.981277 2.739061 -13.180706
45.471447 -1.63825 -16.186369
39.2514 41.787048 -5.059521
40.637611 -9.684425 13.634786
39.709198 -15.728201 11.3211
40.618076 -16.329836 14.45454
41.364368 -22.0345 14.772934
43.283768 -26.770521 14.591257
31.691626 19.178059 -32.713188
34.755039 25.974072 -23.818705
36.902012 22.862011 -21.484079
39.928513 16.957188 -24.938326
43.409164 13.680161 -29.03557
43.532459 8.317513 -21.009615
45.672752 10.112574 -26.793264
39.057888 -1.493828 -1.25633
39.918991 -7.438541 -0.967287
38.499386 -1.253809 3.045521
38.520157 -1.378504 6.937429
39.279221 -1.739285 10.13611
35.426826 33.796955 -15.731264
35.961433 29.880692 -12.10582
36.497414 24.760235 -8.935184
36.60025 35.454918 -3.875713
36.001148 27.546677 -4.253658
37.106358 18.634254 -6.284161
37.773491 11.909159 -4.119274
38.432858 5.043913 -2.411694
42.24913 -10.650789 -5.337324
41.422836 -12.61747 -1.262924
43.767197 -16.331703 -1.394981
47.067467 -18.281122 -1.138767
41.247524 -19.777491 7.511464
45.328381 -20.887037 3.246264
44.799057 -27.784782 17.380707
46.52964 -30.572464 14.119224
34.717876 22.398308 -28.197157
34.580196 19.300823 -32.620583
34.061092 16.550343 -36.900276
45.705967 -10.585133 -9.857903
40.458908 -4.73409 -5.098663
41.38102 -5.095816 -7.369076
41.407192 -7.149447 -6.269772
37.996677 18.907257 -12.753119
38.725544 17.552979 -15.470947
39.272335 14.829956 -14.400726
37.526772 18.778027 5.523236
37.833096 14.747147 6.410876
38.351685 18.757645 6.869
37.94025 26.563145 4.650766
37.053055 26.438499 3.188004
37.252884 22.691307 4.458613
36.983269 18.552204 3.871736
39.09166 -8.98491 9.173973
39.324909 -12.011314 7.404475
39.302402 -12.333635 9.3453
30.34691 16.395248 -33.826141
29.131714 15.677418 -33.317032
40.744293 16.765545 -33.741508
39.545555 6.737169 -8.569483
40.517616 6.023624 -11.374712
40.822994 3.043713 -10.391378
44.055328 -4.92879 -12.312204
43.888023 -2.442308 -13.610357
45.718655 -4.087561 -14.786394
47.508041 -2.658897 -17.190008
47.747334 -5.002324 -15.584345
41.639629 -9.9043 14.660304
40.564079 -13.118967 14.101423
41.499638 -13.340754 15.236257
42.788338 -19.854437 17.035799
41.676685 -19.610516 15.976662
42.111736 -22.421532 16.126942
42.160816 -24.522274 14.73677
42.838333 -25.007126 16.145405
30.701048 26.278469 -28.698309
29.261549 26.540627 -29.447439
30.471945 23.801384 -30.049681
30.356287 21.31469 -31.344156
31.778276 21.355465 -31.131979
35.675732 28.214886 -18.105574
35.748608 26.33704 -20.331713
36.606377 24.50753 -19.01792
40.274681 15.528538 -21.112715
39.355312 17.696499 -22.084044
41.009575 15.026962 -24.025354
41.640625 14.9258 -26.985643
42.771095 13.089836 -26.039557
42.863079 5.495523 -17.06349
42.361382 8.138647 -18.116476
44.154507 5.876762 -19.899733
46.625546 8.128712 -25.514048
47.623302 9.914007 -28.306349
46.47015 11.64813 -29.688292
38.36076 2.128016 0.556534
38.710777 -1.318478 0.928539
38.151619 2.404671 2.731031
38.4035 6.530293 7.754488
38.268669 2.54846 6.604351
38.623833 2.449589 8.24701
38.796513 -1.53661 8.63866
39.195831 2.264702 9.660467
41.01004 1.714153 11.735688
36.056816 35.381397 -9.869726
35.829659 33.762295 -11.846388
35.895714 31.570412 -9.940203
36.222023 27.465477 -10.456001
36.002636 29.055214 -8.166969
38.652527 39.377411 -2.637449
37.683041 38.826424 -4.301439
37.272606 36.202106 -2.069788
36.182487 25.314804 -0.544006
36.053226 28.632404 -2.092106
36.168018 24.345341 -2.732492
36.386402 23.154457 -5.078419
36.661045 19.859722 -3.768175
37.435951 15.318039 -5.144032
36.977585 16.40876 -2.60845
37.442104 9.902306 1.584244
37.672153 9.259663 -0.723122
38.019833 5.667048 -0.001287
38.743591 1.705875 -1.749531
39.581272 -7.80614 1.11879
40.576767 -10.164588 -1.098511
40.180603 -10.737924 1.037992
41.314007 -16.324005 3.133664
41.893295 -15.569008 0.876721
43.07534 -17.348095 0.882526
45.297348 -17.514452 -1.308029
44.507465 -18.687408 0.956843
40.123764 -18.533096 11.435215
40.148762 -18.0742 9.53767
40.905937 -20.435228 9.553389
46.334236 -23.121124 5.290779
44.51981 -22.065834 5.360881
47.190487 -30.248381 18.685408
46.077995 -29.975201 17.363522
45.256008 -29.48402 15.923429
46.949196 -31.371445 15.776329
25.400734 13.58754 -31.515917
35.992023 22.896984 -25.013117
34.729645 24.129402 -25.990412
36.104836 21.420593 -27.445864
37.495712 17.872845 -34.660568
36.102364 19.007729 -32.378838
35.902889 18.015392 -34.818871
34.380013 17.900639 -34.789101
43.488586 -12.461996 -5.67309
43.835892 -11.011548 -7.606091
45.410511 -12.329144 -7.918276
40.08828 0.595949 -6.744665
41.07365 0.139156 -9.403404
41.262978 -2.610895 -8.400562
42.592445 -5.22704 -9.812035
44.113747 -7.22855 -10.902822
30.297297 31.716484 -27.090193
36.945232 24.067028 -15.254307
37.392174 22.422005 -17.770819
38.099628 20.095356 -16.590807
39.497177 16.394974 -18.258852
41.078278 13.190399 -20.133238
46.677528 2.107124 -20.115427
46.107346 4.460461 -21.453764
48.19696 3.86532 -22.682985
37.433975 10.35268 3.684016
37.786098 6.434547 4.300817
37.661697 10.598312 5.546992
38.855347 10.522938 8.467462
36.742836 38.83424 -10.210089
36.416782 36.794899 -7.943682
37.034595 33.23962 -0.06735
36.968624 29.970654 1.684984
36.469086 26.020683 1.44405
36.414951 21.776798 0.797022
36.728706 17.345051 -0.232969
36.721935 18.070786 1.940898
37.071606 14.246887 2.899754
39.086857 -8.442027 5.319667
39.809746 -11.224687 3.206374
39.509041 -11.644907 5.344604
40.060207 -14.506775 5.348002
40.794205 -16.981911 5.353147
41.741386 -23.236586 11.394954
41.950909 -22.470449 9.50028
43.31218 -24.212042 9.366004
48.656364 -32.234833 18.867754
26.018194 20.458416 -31.457552
27.64205 17.867992 -32.120796
27.926146 14.940674 -32.75592
39.043949 18.008541 -28.623514
37.62133 19.199303 -29.312231
39.190147 17.620029 -31.464197
39.123466 17.45636 -34.302109
46.689804 -14.768611 -5.811869
47.213455 -13.156054 -7.985981
38.850037 12.99778 -10.551769
39.747387 11.96879 -13.368696
40.160011 9.016638 -12.363636
41.634109 5.57263 -14.215467
43.284229 2.822908 -15.969393
42.261799 -0.050018 -12.112957
43.627388 0.16111 -14.82313
45.123219 0.866159 -17.496542
47.147057 -0.276274 -18.696756
49.324409 -0.668163 -19.515249
39.252293 22.53389 6.934885
40.466827 42.144897 -3.49416
39.884815 -9.460874 12.36461
39.481663 -12.620571 11.13028
39.89489 -12.880161 12.725495
40.028709 -16.045881 12.994076
40.352989 -18.942858 13.159227
41.491016 -16.580536 15.679523
40.865318 -19.303669 14.680503
40.927906 -21.567307 13.211535
41.800816 -23.925627 13.14757
43.002125 -26.031092 12.974881
44.541275 -27.900448 12.71567
30.324398 18.840561 -32.595306
31.608915 17.041534 -34.261528
33.830807 29.215092 -23.099581
34.823841 27.905285 -21.700537
35.861774 24.547276 -22.636404
37.197224 21.404064 -24.031839
37.862602 20.928448 -20.371679
38.324894 19.66375 -23.055311
38.736382 18.683258 -25.811987
40.392593 16.575352 -27.847406
42.098766 15.210903 -29.978624
43.809437 14.625031 -32.046295
40.733223 11.173485 -16.23498
41.770386 10.715473 -19.137136
42.807724 10.676079 -22.064917
45.437817 6.758625 -22.715776
44.664165 8.978916 -23.902063
43.777946 11.097954 -25.010881
44.601692 11.971275 -27.970449
45.197659 13.226921 -30.941133
39.841488 -4.511615 -3.026295
40.271172 -7.024467 -2.909723
39.427025 -4.537348 -0.990417
39.104042 -4.643161 1.105501
38.868301 -4.788852 3.201833
38.116714 2.539967 4.756278
38.429092 -1.279158 5.061444
38.741646 -4.962764 5.238165
38.754917 -5.157948 7.165195
38.940247 -5.367955 8.942896
39.325935 -5.587573 10.537855
39.81675 10.254745 9.496529
41.003502 9.875572 10.235382
39.937668 6.106876 10.189887
39.991714 2.014032 10.826984
35.657249 30.120125 -15.955477
35.774353 35.634365 -13.853598
35.703884 31.989605 -13.87261
36.116825 28.092197 -14.335466
36.546768 25.776745 -12.817923
36.953773 23.187576 -11.40967
37.341568 20.355595 -10.108995
36.946754 37.956253 -6.080111
36.172867 34.408283 -5.809036
36.404236 32.609398 -1.873465
36.047665 31.678196 -3.850132
35.929008 30.478352 -5.958437
36.165169 26.236771 -6.544268
36.79221 21.800232 -7.545771
37.713074 17.325314 -8.909338
38.070309 14.149662 -7.802181
38.41304 10.885298 -6.779247
38.737843 7.590601 -5.83452
37.32029 12.857479 -1.593992
38.108887 8.465044 -3.207081
39.039223 4.327358 -4.966879
39.313812 1.165739 -4.184519
39.568886 -1.810074 -3.514181
41.26392 -8.562925 -4.889688
40.954979 -9.467862 -3.116899
41.873997 -11.737461 -3.381014
43.025196 -13.672136 -3.578571
40.939049 -13.351053 0.938419
42.479622 -14.694677 -1.376806
44.413754 -15.175083 -3.648832
46.03952 -16.215124 -3.574673
47.889511 -16.823658 -3.376789
49.938416 -17.085333 -3.104012
39.633598 -15.371908 9.465992
40.388191 -17.56057 7.499146
41.759892 -19.052471 5.366401
42.385994 -21.635605 7.486606
42.994911 -20.732546 5.376825
43.721313 -19.754219 3.19295
46.1964 -19.629995 1.074847
45.127396 -25.57148 18.394096
43.833019 -25.361271 17.363804
43.883106 -27.362516 16.063063
44.743221 -28.78442 14.370593
46.407455 -29.553778 12.405173
48.938202 -33.030384 15.668342
33.589661 27.139927 -25.009642
33.425209 25.097317 -26.94639
33.312603 23.110439 -28.890676
36.156815 20.129257 -29.910769
34.681484 20.79142 -30.415491
33.218567 21.19286 -30.823038
33.107334 19.346466 -32.727501
32.94791 17.560989 -34.593414
32.720776 15.815208 -36.414032
42.503723 -9.248674 -7.054981
44.045139 -9.270623 -9.346254
45.850925 -8.61164 -11.642277
47.586956 -11.364799 -10.065775
47.798798 -9.39447 -12.029196
47.849129 -7.262215 -13.867558
46.778483 -27.672901 9.747333
45.602429 -27.606232 10.80812
47.912485 -28.242277 9.572906
46.778483 -27.672901 9.747333
30.954261 14.464298 -35.423019
30.373225 15.191238 -34.443184
30.927946 15.668308 -34.805976
31.445598 13.903135 -36.538014
30.954261 14.464298 -35.423019
42.192669 -11.731566 15.335229
41.569633 -11.622527 14.94828
42.262664 -10.013338 15.047252
42.641253 -22.567822 16.694803
42.450037 -21.137985 16.58137
42.979554 -21.284275 17.149231
43.004551 -23.860619 16.704034
42.475034 -23.714329 16.136173
42.641253 -22.567822 16.694803
48.606571 10.127119 -28.899662
48.14068 8.979619 -27.559407
47.983785 10.948859 -29.708418
48.606571 10.127119 -28.899662
46.769293 -22.422508 4.280854
47.830253 -22.740018 4.262443
26.322874 12.375704 -32.057996
26.046942 13.90946 -31.835149
25.747034 11.97758 -31.62167
26.322874 12.375704 -32.057996
36.516474 17.703919 -36.046669
36.6993 17.944119 -34.739719
37.312885 17.632645 -35.967517
35.719429 17.553434 -36.009236
36.516474 17.703919 -36.046669
30.699589 32.930712 -26.445301
30.023985 33.213677 -27.10232
37.983935 12.697363 6.779295
38.222256 14.708179 7.069985
38.733382 12.596075 8.098278
38.49506 10.585259 7.807588
37.076187 39.469784 -9.325024
37.332702 40.377993 -10.548283
36.91316 38.450114 -8.191821
36.579809 37.81457 -9.076885
37.076187 39.469784 -9.325024
37.421787 30.077005 2.451409
37.462824 31.761485 1.606774
49.277885 -32.271056 19.577964
48.609573 -31.272837 19.381055
28.312984 18.126944 -32.25668
27.569561 19.340508 -31.810706
28.240496 19.599459 -31.94659
28.638804 13.9746 -33.514843
28.52893 15.309046 -33.036476
29.241588 14.342972 -33.795399
28.121198 13.497416 -33.103001
28.638804 13.9746 -33.514843
39.827129 17.309442 -35.484905
39.93388 17.110952 -34.021809
40.637542 16.964035 -35.204605
38.966667 17.438778 -35.701206
39.827129 17.309442 -35.484905
48.91561 -14.379399 -6.725446
47.951914 -14.143393 -6.822831
47.6535 -15.004618 -5.714484
49.513378 -1.822242 -18.658665
48.416225 -1.66353 -18.352629
48.605194 -2.81761 -17.496044
50.460293 -0.561125 -19.733989
49.513378 -1.822242 -18.658665
41.173544 42.159672 -2.768381
41.519405 43.350149 -4.008695
40.165546 40.871222 -2.306406
41.173544 42.159672 -2.768381
42.069494 -16.68729 16.168382
42.095427 -15.062972 15.899686
28.93759 29.309536 -28.766718
29.271996 30.659613 -28.26825
28.505028 26.587819 -29.769253
29.140594 25.192557 -29.970476
34.889094 28.894617 -20.67358
34.49286 29.599247 -21.465798
46.08784 13.342381 -31.767934
45.833905 12.437525 -30.314712
46.724085 12.552985 -31.141513
46.237261 14.098728 -33.257218
45.347081 13.983269 -32.430417
46.08784 13.342381 -31.767934
39.347231 20.525635 7.415765
39.944485 22.323727 7.316462
40.360508 12.127617 9.470327
39.729637 12.331394 9.117783
41.023075 7.820527 10.617384
41.697931 9.645522 10.465196
40.490158 5.936179 10.594637
40.470585 7.991224 10.212635
41.023075 7.820527 10.617384
40.517181 3.889757 10.913185
39.964691 4.060454 10.508436
40.490158 5.936179 10.594637
40.496279 -0.130459 11.571067
40.960847 -0.261141 12.084094
35.290688 32.830494 -16.695038
35.260399 34.561483 -16.686514
35.542037 31.95854 -15.84337
35.405899 30.992079 -16.807144
35.290688 32.830494 -16.695038
35.990549 36.481642 -12.934425
36.059478 37.300635 -14.0362
36.275674 38.147911 -13.117028
38.74422 41.443888 -5.887952
39.602531 42.826868 -6.341805
44.963226 -26.678131 17.887402
45.57011 -26.798334 18.468874
45.405941 -27.904985 17.96218
49.94923 -33.275652 14.687489
50.060314 -33.752578 15.651601
49.78838 -32.833427 13.795372
48.777351 -32.58816 14.776225
49.94923 -33.275652 14.687489
25.379557 18.721272 -31.563834
25.252877 20.281303 -31.397688
26.144875 18.898384 -31.623697
48.620451 -11.507043 -10.032808
47.400205 -12.260426 -9.025878
48.433701 -12.40267 -8.992911
48.906846 -8.44736 -13.060953
48.860491 -9.516056 -12.060378
48.932011 -7.381232 -13.980134
47.823963 -8.328342 -12.948377
48.906846 -8.44736 -13.060953
48.893356 -6.264617 -14.931827
48.932011 -7.381232 -13.980134
49.597317 2.794872 -22.342129
49.935679 1.70595 -21.463479
38.48155 16.713428 7.299048
38.222256 14.708179 7.069985
38.092391 16.752396 6.639938
37.496652 26.500822 3.919385
37.464002 28.310928 3.202919
37.9076 28.373251 3.9343
44.00884 -25.437289 10.186798
43.828732 -26.016737 11.099115
29.765627 14.832323 -34.188629
29.739312 16.036333 -33.571586
30.373225 15.191238 -34.443184
29.241588 14.342972 -33.795399
29.765627 14.832323 -34.188629
41.530853 16.289763 -33.363411
40.714235 16.649552 -32.26607
41.500795 16.173769 -31.887972
41.49493 16.69169 -34.861492
41.530853 16.289763 -33.363411
40.637542 16.964035 -35.204605
41.49493 16.69169 -34.861492
49.993336 -14.371778 -6.567127
49.668897 -15.295966 -5.460932
48.72484 -3.989323 -16.693213
48.605194 -2.81761 -17.496044
47.627688 -3.83061 -16.387176
42.232512 -19.732477 16.506231
42.162329 -18.20228 16.316952
42.718155 -18.324241 16.846521
29.745793 23.822935 -30.271597
29.140594 25.192557 -29.970476
29.866747 25.171005 -29.74856
30.414116 22.558037 -30.696919
29.687963 22.579588 -30.918835
29.745793 23.822935 -30.271597
35.71217 27.275963 -19.218643
35.351477 28.110495 -19.989168
35.315039 29.049418 -18.876099
47.641802 8.086972 -26.163256
47.045601 7.084511 -24.827898
48.061857 7.04277 -25.477106
47.124424 9.021359 -26.910198
47.641802 8.086972 -26.163256
48.14068 8.979619 -27.559407
47.407209 11.815921 -30.399389
47.046726 10.781068 -28.997321
47.983785 10.948859 -29.708418
46.724085 12.552985 -31.141513
47.407209 11.815921 -30.399389
41.681595 3.540578 11.637704
41.026344 3.739818 11.367537
41.62507 1.545454 12.059928
41.681595 3.540578 11.637704
40.960847 -0.261141 12.084094
41.62507 1.545454 12.059928
35.554287 35.504936 -15.822744
35.260399 34.561483 -16.686514
45.86208 -21.894863 4.315905
45.427023 -22.593479 5.32583
46.769293 -22.422508 4.280854
46.266365 -21.305464 3.258597
44.924095 -21.476436 4.303572
45.86208 -21.894863 4.315905
46.73004 -20.57269 2.220441
46.266365 -21.305464 3.258597
46.601656 -29.136784 18.614531
47.341803 -29.166574 19.124297
46.04541 -29.000194 17.953587
46.601656 -29.136784 18.614531
46.634241 -30.111791 18.024465
45.438526 -28.879991 17.372115
45.405941 -27.904985 17.96218
46.04541 -29.000194 17.953587
25.561455 17.090458 -31.596359
26.482352 15.784866 -31.972112
25.126044 15.215052 -31.459397
26.046942 13.90946 -31.835149
24.384451 15.002688 -31.237751
25.126044 15.215052 -31.459397
24.712228 13.312693 -31.179172
24.384451 15.002688 -31.237751
24.712228 13.312693 -31.179172
25.747034 11.97758 -31.62167
34.957991 17.496057 -35.99435
35.141451 17.958016 -34.803986
35.719429 17.553434 -36.009236
34.79853 16.820909 -37.049938
34.220552 17.225491 -35.844689
34.957991 17.496057 -35.99435
43.431925 -18.408745 17.213445
42.718155 -18.324241 16.846521
43.487107 -19.939757 17.448245
43.431925 -18.408745 17.213445
42.979554 -21.284275 17.149231
43.487107 -19.939757 17.448245
29.578819 31.930786 -27.657432
30.023985 33.213677 -27.10232
29.990474 30.445311 -27.70101
29.271996 30.659613 -28.26825
29.578819 31.930786 -27.657432
30.9433 31.409565 -26.463154
30.699589 32.930712 -26.445301
30.682825 30.218552 -27.190018
30.9433 31.409565 -26.463154
30.376002 28.947378 -27.800835
29.990474 30.445311 -27.70101
30.682825 30.218552 -27.190018
30.884701 27.499544 -27.994076
30.192349 27.726303 -28.505068
30.376002 28.947378 -27.800835
31.392621 26.04298 -28.277878
30.884701 27.499544 -27.994076
31.991292 24.688471 -28.684962
31.299719 24.92396 -29.105393
31.392621 26.04298 -28.277878
49.286441 3.916596 -23.11313
48.507835 2.743595 -21.911983
49.597317 2.794872 -22.342129
48.886449 4.961819 -23.952053
49.286441 3.916596 -23.11313
48.520798 6.049314 -24.681435
47.831308 4.952815 -23.412366
48.886449 4.961819 -23.952053
48.061857 7.04277 -25.477106
48.520798 6.049314 -24.681435
37.898235 10.622946 6.347353
37.747396 12.672729 5.978934
37.983935 12.697363 6.779295
38.058797 8.603703 6.646836
37.82226 8.579069 5.846476
37.898235 10.622946 6.347353
38.269137 8.588936 7.451101
38.193161 6.54506 6.950223
38.058797 8.603703 6.646836
38.629424 8.526616 8.110975
38.269137 8.588936 7.451101
38.49506 10.585259 7.807588
36.646896 38.939529 -12.280171
36.275674 38.147911 -13.117028
36.914942 39.69219 -11.377588
37.332702 40.377993 -10.548283
36.47479 38.081579 -11.112671
36.646896 38.939529 -12.280171
36.914942 39.69219 -11.377588
37.49581 33.395967 0.730606
37.624218 34.933662 -0.2475
38.085432 35.09001 0.550456
37.00161 31.605137 0.808817
37.49581 33.395967 0.730606
37.462824 31.761485 1.606774
37.01084 28.204577 2.436494
37.421787 30.077005 2.451409
37.464002 28.310928 3.202919
44.153908 -24.95817 9.255885
43.167113 -24.691161 10.296917
44.00884 -25.437289 10.186798
44.44566 -24.331411 8.308244
44.153908 -24.95817 9.255885
44.703972 -23.812484 7.327927
43.570492 -23.693115 8.385687
44.44566 -24.331411 8.308244
45.956688 -23.785951 6.270632
45.08152 -23.147656 6.348074
44.703972 -23.812484 7.327927
47.376545 -23.549986 5.218825
45.956688 -23.785951 6.270632
47.830253 -22.740018 4.262443
47.376545 -23.549986 5.218825
47.876634 -30.279611 19.289882
47.341803 -29.166574 19.124297
47.923426 -31.241607 18.776581
47.876634 -30.279611 19.289882
48.609573 -31.272837 19.381055
26.757633 20.63572 -31.479084
25.993094 22.009456 -31.274166
26.830122 19.163204 -31.789174
26.757633 20.63572 -31.479084
27.569561 19.340508 -31.810706
27.309648 14.586027 -32.455151
26.482352 15.784866 -31.972112
27.09885 16.139513 -32.272882
27.309648 14.586027 -32.455151
28.121198 13.497416 -33.103001
38.15279 17.64702 -35.880436
38.309589 17.664603 -34.481338
38.966667 17.438778 -35.701206
37.312885 17.632645 -35.967517
38.15279 17.64702 -35.880436
48.21374 -13.337114 -7.909886
46.95163 -13.962332 -6.898925
47.951914 -14.143393 -6.822831
48.433701 -12.40267 -8.992911
48.21374 -13.337114 -7.909886
48.91561 -14.379399 -6.725446
49.993336 -14.371778 -6.567127
50.188528 0.560934 -20.650612
49.935679 1.70595 -21.463479
49.07156 0.476853 -20.328116
50.188528 0.560934 -20.650612
50.460293 -0.561125 -19.733989
39.183543 24.471607 6.371967
38.682999 22.636209 6.395164
38.614249 24.573927 5.832247
39.897498 24.271736 6.797174
39.183543 24.471607 6.371967
39.944485 22.323727 7.316462
39.897498 24.271736 6.797174
40.218662 43.081075 -5.552029
39.602531 42.826868 -6.341805
40.826376 43.26 -4.769349
41.519405 43.350149 -4.008695
39.859113 41.965972 -4.276841
40.218662 43.081075 -5.552029
40.826376 43.26 -4.769349
39.258396 39.487479 -1.878051
39.559677 40.761154 -3.065805
40.165546 40.871222 -2.306406
39.039052 38.112626 -0.773151
38.433183 38.002558 -1.53255
39.258396 39.487479 -1.878051
38.81998 36.677363 0.295121
39.039052 38.112626 -0.773151
38.085432 35.09001 0.550456
38.81998 36.677363 0.295121
38.506561 28.329731 4.561214
37.9076 28.373251 3.9343
38.527521 26.486235 5.229907
38.506561 28.329731 4.561214
38.614249 24.573927 5.832247
38.026978 24.650837 5.253105
38.527521 26.486235 5.229907
42.099738 -13.443081 15.678054
42.192669 -11.731566 15.335229
41.495327 -14.960645 15.45789
42.099738 -13.443081 15.678054
42.095427 -15.062972 15.899686
41.58385 -18.095526 15.828093
42.069494 -16.68729 16.168382
42.162329 -18.20228 16.316952
43.818771 -26.447143 11.972641
43.828732 -26.016737 11.099115
43.012085 -25.600686 12.101356
44.588347 -27.381821 11.843035
43.818771 -26.447143 11.972641
43.7717 -26.96577 12.845275
45.555357 -28.124859 11.680754
45.602429 -27.606232 10.80812
44.588347 -27.381821 11.843035
28.726539 27.992781 -29.334524
28.93759 29.309536 -28.766718
29.4726 27.857382 -28.879633
28.726539 27.992781 -29.334524
28.505028 26.587819 -29.769253
28.960192 19.751181 -31.928655
28.240496 19.599459 -31.94659
29.646375 21.215578 -31.404451
29.687963 22.579588 -30.918835
29.630431 19.978514 -32.030026
29.646375 21.215578 -31.404451
30.340342 20.077625 -31.969731
29.654159 18.613228 -32.493935
28.960192 19.751181 -31.928655
29.630431 19.978514 -32.030026
33.996343 30.254151 -22.16532
33.553587 30.837231 -22.958424
34.327324 28.560188 -22.400059
33.996343 30.254151 -22.16532
34.49286 29.599247 -21.465798
35.286225 27.121162 -21.016125
34.889094 28.894617 -20.67358
35.351477 28.110495 -19.989168
42.208089 15.512442 -31.481969
41.500795 16.173769 -31.887972
41.391471 15.872231 -30.384628
43.063425 15.219506 -32.515804
42.208089 15.512442 -31.481969
42.954102 14.917967 -31.012459
43.860594 15.21361 -33.551979
43.063425 15.219506 -32.515804
44.652969 14.682323 -32.982998
44.503548 13.925976 -31.493714
45.347081 13.983269 -32.430417
43.860594 15.21361 -33.551979
44.652969 14.682323 -32.982998
38.896927 18.637512 7.382822
38.801989 20.645767 6.901943
39.347231 20.525635 7.415765
38.48155 16.713428 7.299048
38.896927 18.637512 7.382822
39.248936 12.46549 8.60325
38.733382 12.596075 8.098278
39.336049 10.388841 8.981996
39.248936 12.46549 8.60325
39.729637 12.331394 9.117783
41.685272 11.679927 10.047855
41.697931 9.645522 10.465196
40.953884 11.93803 9.839753
41.685272 11.679927 10.047855
40.410126 10.065158 9.865956
40.360508 12.127617 9.470327
40.953884 11.93803 9.839753
40.500877 1.864092 11.281336
40.517181 3.889757 10.913185
41.026344 3.739818 11.367537
39.987116 0.01948 11.116715
40.500877 1.864092 11.281336
40.496279 -0.130459 11.571067
39.630869 -1.857178 10.771278
39.635468 0.137373 10.481547
39.987116 0.01948 11.116715
39.654226 -3.781322 10.972151
39.302578 -3.663429 10.336983
39.630869 -1.857178 10.771278
39.629465 -5.700816 11.229826
39.654226 -3.781322 10.972151
39.654103 -7.521698 11.395251
39.350572 -7.408456 10.70328
39.629465 -5.700816 11.229826
39.908905 -7.637466 12.143204
39.630013 -9.345106 11.616658
39.654103 -7.521698 11.395251
40.328859 -7.754146 12.718319
39.908905 -7.637466 12.143204
40.705257 -7.865921 13.353407
40.261213 -9.57265 12.999698
40.328859 -7.754146 12.718319
41.242076 -7.98691 13.804412
40.705257 -7.865921 13.353407
41.743085 -8.096848 14.31717
41.13862 -9.794362 14.147545
41.242076 -7.98691 13.804412
42.392038 -8.222884 14.642779
41.743085 -8.096848 14.31717
42.262664 -10.013338 15.047252
42.392038 -8.222884 14.642779
35.41514 30.039459 -17.882193
35.315039 29.049418 -18.876099
35.66649 29.167506 -17.030525
35.41514 30.039459 -17.882193
35.405899 30.992079 -16.807144
35.72805 36.423641 -14.883911
36.059478 37.300635 -14.0362
35.600589 34.71566 -14.792431
35.554287 35.504936 -15.822744
35.72805 36.423641 -14.883911
37.960041 39.963576 -5.508911
38.74422 41.443888 -5.887952
38.46722 40.306736 -4.68048
37.591898 39.52849 -6.398247
37.960041 39.963576 -5.508911
37.314898 38.391339 -5.190775
37.178146 39.03079 -7.260035
37.591898 39.52849 -6.398247
36.681768 37.375576 -7.011896
36.91316 38.450114 -8.191821
37.178146 39.03079 -7.260035
49.305055 -16.087483 -4.340776
49.668897 -15.295966 -5.460932
48.253353 -16.032141 -4.496944
50.329508 -16.21832 -4.204388
49.305055 -16.087483 -4.340776
48.913963 -16.954496 -3.2404
51.446724 -16.155989 -4.02422
50.329508 -16.21832 -4.204388
47.164049 -19.944169 1.134733
45.76239 -20.258516 2.160556
46.73004 -20.57269 2.220441
47.628351 -19.173188 0.07085
47.164049 -19.944169 1.134733
48.063885 -18.498751 -1.035957
46.631934 -18.955559 -0.03196
47.628351 -19.173188 0.07085
49.499359 -17.900857 -2.018579
48.502941 -17.683228 -2.12139
48.063885 -18.498751 -1.035957
51.04327 -17.103099 -2.961371
49.499359 -17.900857 -2.018579
52.551579 -16.173755 -3.881578
51.446724 -16.155989 -4.02422
51.04327 -17.103099 -2.961371
45.909148 -25.602826 18.822947
45.57011 -26.798334 18.468874
45.637124 -24.271638 18.650112
45.909148 -25.602826 18.822947
44.826443 -24.235598 18.288515
45.637124 -24.271638 18.650112
44.179254 -24.130493 17.773369
44.826443 -24.235598 18.288515
44.480207 -25.466375 17.87895
43.501894 -24.037692 17.313233
44.179254 -24.130493 17.773369
43.335676 -25.184199 16.754604
43.004551 -23.860619 16.704034
43.501894 -24.037692 17.313233
49.525187 -33.111361 18.996309
49.277885 -32.271056 19.577964
49.095833 -32.939732 18.144426
49.525187 -33.111361 18.996309
48.599542 -32.786057 17.392011
48.160074 -32.081158 18.11534
49.095833 -32.939732 18.144426
49.236751 -33.337507 16.544719
50.060314 -33.752578 15.651601
48.300993 -32.478933 16.515633
48.599542 -32.786057 17.392011
49.236751 -33.337507 16.544719
47.782849 -31.75869 14.830219
47.943699 -32.200914 15.722335
48.777351 -32.58816 14.776225
47.573071 -31.3592 14.001666
46.739418 -30.971955 14.947776
47.782849 -31.75869 14.830219
47.550981 -30.791885 13.102941
47.573071 -31.3592 14.001666
47.489889 -30.282542 12.245915
46.468547 -30.063121 13.262199
47.550981 -30.791885 13.102941
47.6007 -29.607232 11.34751
47.489889 -30.282542 12.245915
47.681692 -29.004978 10.467842
46.488447 -28.951524 11.525505
47.6007 -29.607232 11.34751
47.912485 -28.242277 9.572906
47.681692 -29.004978 10.467842
25.182912 21.899927 -31.351579
25.993094 22.009456 -31.274166
25.182912 21.899927 -31.351579
25.252877 20.281303 -31.397688
25.379557 18.721272 -31.563834
25.561455 17.090458 -31.596359
33.294932 29.745469 -23.795967
33.553587 30.837231 -22.958424
33.174358 28.707886 -24.750998
33.294932 29.745469 -23.795967
33.710234 28.177509 -24.054612
32.977037 27.595255 -25.594009
33.174358 28.707886 -24.750998
32.894812 26.57395 -26.562384
32.977037 27.595255 -25.594009
33.507435 26.118622 -25.978016
32.754701 25.452404 -27.401919
32.894812 26.57395 -26.562384
32.698398 24.458965 -28.374061
32.754701 25.452404 -27.401919
33.368906 24.103878 -27.918533
32.605497 23.339945 -29.201576
31.991292 24.688471 -28.684962
32.698398 24.458965 -28.374061
34.53154 16.356793 -38.195377
34.79853 16.820909 -37.049938
33.84206 15.875208 -37.917416
34.53154 16.356793 -38.195377
33.171902 15.507641 -37.674294
33.390934 16.182776 -36.657154
33.84206 15.875208 -37.917416
32.571381 14.94746 -37.298103
33.171902 15.507641 -37.674294
31.965484 14.51054 -36.983993
32.114879 15.378288 -36.099922
32.571381 14.94746 -37.298103
31.445598 13.903135 -36.538014
31.965484 14.51054 -36.983993
48.75457 -10.50122 -11.078667
48.620451 -11.507043 -10.032808
47.692877 -10.379634 -11.047486
48.75457 -10.50122 -11.078667
48.860491 -9.516056 -12.060378
48.842459 -5.134671 -15.790221
47.798231 -6.132269 -14.725952
48.893356 -6.264617 -14.931827
48.72484 -3.989323 -16.693213
48.842459 -5.134671 -15.790221
3 0 92 90
3 1 95 93
3 2 98 96
3 2 101 99
3 2 96 101
3 3 105 103
3 4 364 365
3 4 366 367
3 5 368 370
3 370 369 106
3 368 369 370
3 5 371 372
3 6 111 109
3 8 114 112
3 8 116 114
3 373 119 374
3 375 374 117
3 373 374 375
3 376 122 377
3 378 377 120
3 376 377 378
3 379 124 380
3 381 380 122
3 379 380 381
3 11 127 125
3 11 129 127
3 12 132 130
3 14 135 133
3 14 137 135
3 7 140 138
3 382 142 383
3 385 384 142
3 15 146 144
3 17 149 147
3 17 151 149
3 18 155 153
3 18 157 155
3 9 160 158
3 19 163 161
3 19 165 163
3 19 167 165
3 15 170 168
3 15 144 170
3 16 174 172
3 21 177 175
3 21 179 177
3 10 182 180
3 387 386 183
3 22 186 185
3 22 188 186
3 388 189 389
3 391 390 189
3 13 192 190
3 392 195 393
3 394 393 193
3 392 393 394
3 396 395 195
3 20 199 197
3 23 202 200
3 25 203 91
3 25 204 203
3 397 205 398
3 27 208 206
3 29 209 94
3 29 210 209
3 30 213 211
3 32 216 214
3 400 399 97
3 401 217 402
3 403 218 404
3 405 219 406
3 407 406 218
3 405 406 407
3 408 221 409
3 36 222 100
3 36 223 222
3 36 225 223
3 32 226 102
3 32 214 226
3 38 229 227
3 40 230 104
3 40 231 230
3 41 234 232
3 410 235 411
3 43 412 414
3 412 237 413
3 412 413 414
3 415 238 416
3 417 416 107
3 415 416 417
3 419 418 238
3 45 241 239
3 420 242 421
3 422 421 108
3 420 421 422
3 424 423 242
3 47 425 427
3 427 426 243
3 425 426 427
3 48 247 245
3 50 248 110
3 50 249 248
3 24 250 201
3 51 251 113
3 51 252 251
3 51 253 252
3 428 254 429
3 430 429 115
3 428 429 430
3 432 431 254
3 433 256 434
3 436 435 256
3 53 259 257
3 55 260 118
3 55 261 260
3 437 262 438
3 56 263 121
3 56 264 263
3 56 265 264
3 57 266 123
3 57 267 266
3 26 439 440
3 442 441 126
3 58 268 128
3 58 269 268
3 443 271 444
3 60 272 131
3 60 273 272
3 28 274 207
3 61 275 134
3 61 276 275
3 61 277 276
3 62 278 136
3 62 279 278
3 49 280 246
3 63 281 139
3 63 282 281
3 31 283 212
3 64 284 141
3 64 285 284
3 64 286 285
3 445 287 446
3 447 446 143
3 445 446 447
3 450 449 287
3 448 449 450
3 65 290 288
3 67 291 145
3 67 292 291
3 33 293 215
3 68 294 148
3 68 295 294
3 68 296 295
3 69 297 150
3 69 298 297
3 452 451 255
3 453 299 454
3 455 300 456
3 457 301 458
3 459 458 300
3 457 458 459
3 460 302 461
3 462 461 301
3 460 461 462
3 464 463 152
3 70 465 466
3 70 467 469
3 467 303 468
3 467 468 469
3 34 470 472
3 470 304 471
3 470 471 472
3 71 305 154
3 71 306 305
3 71 307 306
3 72 308 156
3 72 309 308
3 52 473 474
3 73 310 159
3 73 311 310
3 35 312 220
3 74 313 162
3 74 314 313
3 74 315 314
3 75 316 164
3 75 317 316
3 75 318 317
3 76 319 166
3 76 320 319
3 37 321 224
3 77 322 169
3 77 323 322
3 77 324 323
3 65 325 171
3 65 288 325
3 66 327 289
3 79 328 173
3 79 329 328
3 39 330 228
3 80 331 176
3 80 332 331
3 80 333 332
3 81 334 178
3 81 335 334
3 54 336 258
3 82 337 181
3 82 338 337
3 42 339 233
3 83 340 184
3 83 341 340
3 83 342 341
3 84 475 477
3 475 343 476
3 475 476 477
3 84 344 343
3 84 345 344
3 85 346 187
3 85 347 346
3 478 348 479
3 482 481 348
3 480 481 482
3 44 483 485
3 485 484 236
3 483 484 485
3 59 349 270
3 86 350 191
3 86 351 350
3 46 352 240
3 87 353 194
3 87 354 353
3 87 355 354
3 88 356 196
3 88 357 356
3 78 358 326
3 89 359 198
3 89 360 359
3 486 361 487
3 488 487 244
3 486 487 488
3 489 362 490
3 491 363 492
3 493 492 362
3 491 492 493
3 495 494 363
3 90 91 23
3 92 91 90
3 92 25 91
3 93 94 27
3 95 94 93
3 95 29 94
3 497 496 30
3 96 97 32
3 98 97 96
3 98 498 500
3 500 499 97
3 498 499 500
3 99 501 503
3 501 100 502
3 501 502 503
3 101 100 99
3 101 36 100
3 101 102 36
3 96 102 101
3 96 32 102
3 103 104 38
3 105 104 103
3 105 40 104
3 505 504 41
3 106 107 43
3 506 107 507
3 508 507 106
3 506 507 508
3 510 509 107
3 511 108 512
3 513 512 45
3 511 512 513
3 514 108 515
3 517 516 108
3 519 518 47
3 109 110 48
3 111 110 109
3 111 50 110
3 112 113 24
3 114 113 112
3 114 51 113
3 114 115 51
3 116 115 114
3 116 520 522
3 522 521 115
3 520 521 522
3 117 118 53
3 119 118 117
3 119 55 118
3 120 523 525
3 523 121 524
3 523 524 525
3 122 121 120
3 122 56 121
3 122 123 56
3 124 123 122
3 124 57 123
3 125 126 26
3 127 126 125
3 127 526 528
3 528 527 126
3 526 527 528
3 127 529 531
3 529 128 530
3 529 530 531
3 129 128 127
3 129 58 128
3 130 532 534
3 532 131 533
3 532 533 534
3 132 131 130
3 132 60 131
3 133 134 28
3 135 134 133
3 135 61 134
3 135 136 61
3 137 136 135
3 137 62 136
3 138 139 49
3 140 139 138
3 140 63 139
3 535 141 536
3 537 536 31
3 535 536 537
3 142 538 540
3 538 141 539
3 538 539 540
3 142 64 141
3 142 143 64
3 541 143 542
3 543 542 142
3 541 542 543
3 545 544 143
3 144 145 65
3 146 145 144
3 146 67 145
3 147 148 33
3 149 148 147
3 149 68 148
3 149 150 68
3 151 150 149
3 151 69 150
3 546 152 547
3 548 152 549
3 551 550 152
3 552 70 553
3 153 154 34
3 155 154 153
3 155 71 154
3 155 156 71
3 157 156 155
3 157 72 156
3 158 159 52
3 160 159 158
3 160 73 159
3 161 162 35
3 163 162 161
3 163 74 162
3 163 164 74
3 165 164 163
3 165 75 164
3 165 166 75
3 167 166 165
3 167 76 166
3 168 169 37
3 170 169 168
3 170 77 169
3 170 171 77
3 144 171 170
3 144 65 171
3 172 173 66
3 174 173 172
3 174 79 173
3 175 176 39
3 177 176 175
3 177 80 176
3 177 178 80
3 179 178 177
3 179 81 178
3 180 181 54
3 182 181 180
3 182 82 181
3 183 184 42
3 554 184 555
3 556 555 183
3 554 555 556
3 557 83 558
3 559 558 184
3 557 558 559
3 561 560 83
3 185 562 563
3 186 564 566
3 566 565 185
3 564 565 566
3 186 567 569
3 567 84 568
3 567 568 569
3 186 187 84
3 188 187 186
3 188 85 187
3 571 570 44
3 189 572 573
3 189 574 575
3 189 576 577
3 579 578 189
3 190 191 59
3 192 191 190
3 192 86 191
3 193 194 46
3 195 194 193
3 195 87 194
3 195 196 87
3 580 196 581
3 582 581 195
3 580 581 582
3 583 88 584
3 585 584 196
3 583 584 585
3 197 198 78
3 199 198 197
3 199 89 198
3 200 201 6
3 202 201 200
3 202 24 201
3 91 202 23
3 203 202 91
3 203 24 202
3 203 112 24
3 204 112 203
3 204 8 112
3 586 120 587
3 588 120 589
3 591 590 120
3 205 592 593
3 205 594 596
3 594 26 595
3 594 595 596
3 597 205 598
3 599 205 600
3 601 26 602
3 603 602 205
3 601 602 603
3 604 125 605
3 606 605 26
3 604 605 606
3 607 125 608
3 609 11 610
3 611 610 125
3 609 610 611
3 206 207 12
3 208 207 206
3 208 28 207
3 94 208 27
3 209 208 94
3 209 28 208
3 209 133 28
3 210 133 209
3 210 14 133
3 211 212 7
3 213 212 211
3 213 31 212
3 612 213 613
3 614 613 30
3 612 613 614
3 615 213 616
3 617 31 618
3 619 618 213
3 617 618 619
3 621 620 31
3 214 215 15
3 216 215 214
3 216 33 215
3 97 216 32
3 622 216 623
3 624 623 97
3 622 623 624
3 625 33 626
3 627 626 216
3 625 626 627
3 628 147 629
3 630 629 33
3 628 629 630
3 217 631 633
3 631 147 632
3 631 632 633
3 217 17 147
3 634 34 635
3 218 636 637
3 218 638 640
3 638 34 639
3 638 639 640
3 218 153 34
3 219 153 218
3 219 18 153
3 641 220 642
3 643 642 9
3 641 642 643
3 221 644 646
3 644 220 645
3 644 645 646
3 221 35 220
3 100 647 649
3 647 221 648
3 647 648 649
3 222 221 100
3 222 35 221
3 222 161 35
3 223 161 222
3 223 19 161
3 223 224 19
3 225 224 223
3 225 37 224
3 102 225 36
3 226 225 102
3 226 37 225
3 226 168 37
3 214 168 226
3 214 15 168
3 227 228 16
3 229 228 227
3 229 39 228
3 104 229 38
3 230 229 104
3 230 39 229
3 230 175 39
3 231 175 230
3 231 21 175
3 232 233 10
3 234 233 232
3 234 42 233
3 650 234 651
3 652 651 41
3 650 651 652
3 653 234 654
3 655 42 656
3 657 656 234
3 655 656 657
3 658 183 659
3 660 659 42
3 658 659 660
3 661 183 662
3 664 663 183
3 665 185 666
3 235 667 669
3 667 185 668
3 667 668 669
3 235 22 185
3 670 236 671
3 237 672 674
3 672 236 673
3 672 673 674
3 237 44 236
3 107 237 43
3 238 237 107
3 238 44 237
3 238 675 677
3 677 676 44
3 675 676 677
3 679 678 238
3 239 240 13
3 241 240 239
3 241 46 240
3 108 241 45
3 242 241 108
3 242 46 241
3 242 193 46
3 680 193 681
3 682 681 242
3 680 681 682
3 684 683 193
3 243 244 20
3 685 244 686
3 687 686 243
3 685 686 687
3 689 688 244
3 691 690 47
3 245 246 1
3 247 246 245
3 247 49 246
3 110 247 48
3 248 247 110
3 248 49 247
3 248 138 49
3 249 138 248
3 249 7 138
3 201 111 6
3 250 111 201
3 250 50 111
3 113 250 24
3 251 250 113
3 251 50 250
3 251 249 50
3 252 249 251
3 252 7 249
3 252 211 7
3 253 211 252
3 253 30 211
3 115 253 51
3 254 253 115
3 254 30 253
3 254 692 694
3 694 693 30
3 692 693 694
3 696 695 254
3 697 255 698
3 699 698 2
3 697 698 699
3 700 255 701
3 703 702 255
3 704 52 705
3 256 706 707
3 256 708 710
3 708 52 709
3 708 709 710
3 256 158 52
3 711 158 712
3 713 712 256
3 711 712 713
3 714 9 715
3 716 715 158
3 714 715 716
3 717 9 718
3 720 719 9
3 721 99 722
3 723 99 724
3 725 2 726
3 727 726 99
3 725 726 727
3 257 258 3
3 259 258 257
3 259 54 258
3 118 259 53
3 260 259 118
3 260 54 259
3 260 180 54
3 261 180 260
3 261 10 180
3 728 119 729
3 262 730 732
3 730 119 731
3 730 731 732
3 262 55 119
3 121 733 735
3 733 262 734
3 733 734 735
3 263 262 121
3 263 55 262
3 263 261 55
3 264 261 263
3 264 10 261
3 264 232 10
3 265 232 264
3 265 41 232
3 123 265 56
3 266 265 123
3 266 41 265
3 266 736 738
3 738 737 41
3 736 737 738
3 267 739 741
3 741 740 266
3 739 740 741
3 267 742 744
3 742 4 743
3 742 743 744
3 126 745 747
3 747 746 26
3 745 746 747
3 749 748 126
3 750 43 751
3 128 752 753
3 268 754 756
3 756 755 128
3 754 755 756
3 268 757 759
3 757 43 758
3 757 758 759
3 268 106 43
3 269 106 268
3 269 5 106
3 760 270 761
3 271 762 764
3 762 270 763
3 762 763 764
3 271 59 270
3 131 765 767
3 765 271 766
3 765 766 767
3 272 271 131
3 272 59 271
3 272 190 59
3 273 190 272
3 273 13 190
3 207 132 12
3 274 132 207
3 274 60 132
3 134 274 28
3 275 274 134
3 275 60 274
3 275 273 60
3 276 273 275
3 276 13 273
3 276 239 13
3 277 239 276
3 277 45 239
3 136 277 61
3 278 277 136
3 278 45 277
3 278 768 770
3 770 769 45
3 768 769 770
3 279 771 773
3 773 772 278
3 771 772 773
3 279 774 775
3 246 95 1
3 280 95 246
3 280 29 95
3 139 280 49
3 281 280 139
3 281 29 280
3 281 210 29
3 282 210 281
3 282 14 210
3 212 140 7
3 283 140 212
3 283 63 140
3 141 283 31
3 284 283 141
3 284 63 283
3 284 282 63
3 285 282 284
3 285 14 282
3 285 137 14
3 286 137 285
3 286 62 137
3 143 286 64
3 287 286 143
3 287 62 286
3 287 279 62
3 776 279 777
3 778 777 287
3 776 777 778
3 780 779 279
3 288 289 0
3 290 289 288
3 290 66 289
3 145 290 65
3 291 290 145
3 291 66 290
3 291 172 66
3 292 172 291
3 292 16 172
3 215 146 15
3 293 146 215
3 293 67 146
3 148 293 33
3 294 293 148
3 294 67 293
3 294 292 67
3 295 292 294
3 295 16 292
3 295 227 16
3 296 227 295
3 296 38 227
3 150 296 68
3 297 296 150
3 297 38 296
3 297 103 38
3 298 103 297
3 298 3 103
3 255 98 2
3 781 98 782
3 783 782 255
3 781 782 783
3 785 784 98
3 786 217 787
3 299 788 790
3 788 217 789
3 788 789 790
3 299 17 217
3 300 791 792
3 300 793 794
3 300 795 797
3 795 299 796
3 795 796 797
3 301 299 300
3 301 17 299
3 301 151 17
3 302 151 301
3 302 69 151
3 152 798 800
3 798 302 799
3 798 799 800
3 801 302 802
3 803 802 152
3 801 802 803
3 804 69 805
3 806 805 302
3 804 805 806
3 807 298 808
3 809 808 69
3 807 808 809
3 810 298 811
3 812 3 813
3 814 813 298
3 812 813 814
3 815 257 816
3 817 816 3
3 815 816 817
3 818 257 819
3 820 53 821
3 822 821 257
3 820 821 822
3 823 53 824
3 825 117 826
3 827 826 53
3 825 826 827
3 828 117 829
3 831 830 117
3 832 130 833
3 303 834 836
3 834 130 835
3 834 835 836
3 303 12 130
3 304 837 838
3 304 839 841
3 839 70 840
3 839 840 841
3 154 304 34
3 305 304 154
3 305 70 304
3 305 303 70
3 306 303 305
3 306 12 303
3 306 206 12
3 307 206 306
3 307 27 206
3 156 307 71
3 308 307 156
3 308 27 307
3 308 93 27
3 309 93 308
3 309 1 93
3 159 842 844
3 844 843 52
3 842 843 844
3 310 845 847
3 847 846 159
3 845 846 847
3 310 848 849
3 310 850 852
3 850 219 851
3 850 851 852
3 311 219 310
3 311 18 219
3 220 160 9
3 312 160 220
3 312 73 160
3 162 312 35
3 313 312 162
3 313 73 312
3 313 311 73
3 314 311 313
3 314 18 311
3 314 157 18
3 315 157 314
3 315 72 157
3 164 315 74
3 316 315 164
3 316 72 315
3 316 309 72
3 317 309 316
3 317 1 309
3 317 245 1
3 318 245 317
3 318 48 245
3 166 318 75
3 319 318 166
3 319 48 318
3 319 109 48
3 320 109 319
3 320 6 109
3 224 167 19
3 321 167 224
3 321 76 167
3 169 321 37
3 322 321 169
3 322 76 321
3 322 320 76
3 323 320 322
3 323 6 320
3 323 200 6
3 324 200 323
3 324 23 200
3 171 324 77
3 325 324 171
3 325 23 324
3 325 90 23
3 288 90 325
3 288 0 90
3 289 326 0
3 327 326 289
3 327 78 326
3 173 327 66
3 328 327 173
3 328 78 327
3 328 197 78
3 329 197 328
3 329 20 197
3 228 174 16
3 330 174 228
3 330 79 174
3 176 330 39
3 331 330 176
3 331 79 330
3 331 329 79
3 332 329 331
3 332 20 329
3 332 243 20
3 333 243 332
3 333 47 243
3 178 333 80
3 334 333 178
3 334 47 333
3 334 853 855
3 855 854 47
3 853 854 855
3 335 856 858
3 858 857 334
3 856 857 858
3 335 859 860
3 258 105 3
3 336 105 258
3 336 40 105
3 181 336 54
3 337 336 181
3 337 40 336
3 337 231 40
3 338 231 337
3 338 21 231
3 233 182 10
3 339 182 233
3 339 82 182
3 184 339 42
3 340 339 184
3 340 82 339
3 340 338 82
3 341 338 340
3 341 21 338
3 341 179 21
3 342 179 341
3 342 81 179
3 861 342 862
3 863 862 83
3 861 862 863
3 864 342 865
3 866 81 867
3 868 867 342
3 866 867 868
3 869 335 870
3 871 870 81
3 869 870 871
3 872 335 873
3 876 875 335
3 874 875 876
3 343 877 878
3 343 879 880
3 343 881 882
3 344 883 885
3 885 884 343
3 883 884 885
3 344 886 887
3 344 888 890
3 888 124 889
3 888 889 890
3 345 124 344
3 345 57 124
3 187 345 84
3 346 345 187
3 346 57 345
3 346 267 57
3 347 267 346
3 347 4 267
3 891 235 892
3 893 235 894
3 895 22 896
3 897 896 235
3 895 896 897
3 348 898 899
3 348 900 902
3 900 22 901
3 900 901 902
3 348 188 22
3 903 188 904
3 905 904 348
3 903 904 905
3 906 85 907
3 908 907 188
3 906 907 908
3 909 85 910
3 911 347 912
3 913 912 85
3 911 912 913
3 914 347 915
3 916 4 917
3 918 917 347
3 916 917 918
3 920 919 4
3 236 921 922
3 924 923 236
3 926 925 44
3 270 927 928
3 349 929 931
3 931 930 270
3 929 930 931
3 349 932 933
3 191 349 59
3 350 349 191
3 350 934 936
3 936 935 349
3 934 935 936
3 350 937 938
3 351 939 941
3 941 940 350
3 939 940 941
3 351 942 944
3 942 11 943
3 942 943 944
3 240 192 13
3 352 192 240
3 352 86 192
3 194 352 46
3 353 352 194
3 353 86 352
3 353 351 86
3 354 351 353
3 354 11 351
3 354 129 11
3 355 129 354
3 355 58 129
3 196 355 87
3 356 355 196
3 356 58 355
3 356 269 58
3 357 269 356
3 357 5 269
3 945 88 946
3 947 88 948
3 949 357 950
3 951 950 88
3 949 950 951
3 952 357 953
3 954 5 955
3 956 955 357
3 954 955 956
3 958 957 5
3 326 92 0
3 358 92 326
3 358 25 92
3 198 358 78
3 359 358 198
3 359 25 358
3 359 204 25
3 360 204 359
3 360 8 204
3 244 199 20
3 361 199 244
3 361 89 199
3 959 361 960
3 362 961 963
3 961 361 962
3 961 962 963
3 362 89 361
3 362 360 89
3 363 360 362
3 363 8 360
3 363 116 8
3 964 116 965
3 966 965 363
3 964 965 966
3 968 967 116
