ply
format ascii 1.0
element vertex 519
property float x
property float y
property float z
element face 504
property list uchar int vertex_index
end_header
26.237247 -50.730114 -22.496977
30.246103 -15.23662 -45.833664
29.533188 -3.07889 -51.208328
32.292004 -45.537918 -29.001463
30.715204 7.445829 -51.711998
28.692789 -36.446182 -30.166445
32.164204 -29.076363 -37.951195
29.641605 -7.73316 -44.161057
29.087294 -2.649885 -48.440498
23.179457 -58.589863 -19.194124
27.324219 -57.151211 -21.586893
30.693691 -54.717499 -24.705126
29.584103 -48.53463 -25.458944
28.815264 -30.154228 -33.97776
30.289608 -32.941429 -34.095543
29.625711 -26.123791 -38.184998
32.694553 -10.782574 -49.414574
33.619537 -17.600502 -45.568596
28.849384 -18.570335 -40.381004
28.935772 -19.791952 -41.822891
28.566042 -13.796758 -44.875725
29.647896 -8.987889 -48.964699
32.037003 -4.427565 -52.605583
34.517639 -41.922909 -32.765938
22.677483 -52.117405 -20.03034
30.705776 6.854094 -46.961418
29.780979 2.378773 -48.400047
29.883675 2.458302 -52.208878
31.803152 1.564995 -54.66008
22.994665 -47.138847 -20.127211
25.3927 -45.528236 -23.086138
27.981943 -43.291882 -26.234266
30.444031 -40.402184 -29.750109
32.673565 -36.942535 -33.519333
34.899994 -33.099018 -37.138611
31.200338 -21.889322 -42.102455
34.492344 -25.005413 -41.423019
29.217052 -5.217478 -46.356506
29.509638 -2.646906 -46.598946
24.8776 -54.62587 -20.785112
25.310581 -57.992954 -20.312925
26.828815 -53.829262 -22.035299
28.6443 -52.802486 -23.450129
27.975592 -49.737286 -23.900537
29.139482 -28.172203 -36.104424
34.260761 -8.695303 -51.044472
34.674992 -12.032234 -49.142342
30.050404 -12.79372 -41.201561
28.553909 -16.201113 -42.675751
28.903116 -5.558352 -49.249672
28.856693 -8.431789 -48.231255
29.53001 -5.991718 -50.219574
30.697948 -6.653664 -50.84668
30.544939 -3.626755 -52.086357
31.660027 -50.072418 -26.80261
32.874283 -48.408524 -28.670969
33.433311 -43.790916 -30.892466
31.228008 9.24662 -48.44899
30.596498 7.195215 -49.472313
30.212337 4.695786 -47.849068
30.068111 4.937284 -50.149704
29.639385 2.503681 -50.459969
30.234407 5.038361 -52.154312
31.87779 4.423368 -55.125885
24.149979 -46.406712 -21.600355
27.954481 -38.025928 -28.245279
27.42075 -41.188805 -26.420259
28.440105 -39.792877 -28.196386
29.243509 -41.926376 -27.945158
29.455891 -38.25486 -30.03998
31.180862 -31.045069 -36.051727
31.471462 -34.799248 -33.859955
32.504993 -32.917732 -35.760536
33.763741 -35.054939 -35.378326
33.596287 -30.963659 -37.588051
29.438669 -17.51667 -43.881432
29.84528 -20.716478 -42.101913
30.695805 -18.505573 -44.0298
34.088234 -21.222385 -43.518967
35.861507 -22.953178 -42.946289
30.274876 -10.162428 -41.864784
29.391041 -10.369 -43.552032
28.827915 -5.320884 -47.95414
29.055792 -2.768017 -49.986122
25.619953 -61.529205 -19.89316
29.13224 -56.057243 -23.050417
30.26062 -51.545738 -25.04524
31.022661 -47.128696 -27.170237
28.79896 -33.240063 -32.104736
29.466785 -34.747074 -32.123055
29.340639 -31.392605 -34.155014
29.989162 -29.460699 -36.186958
30.771536 -27.459679 -38.169983
31.342646 -12.979372 -47.677467
31.802067 -16.298082 -45.844551
33.13953 -14.125712 -47.546677
29.373423 -20.882477 -38.007896
28.783377 -21.387165 -38.975838
28.597216 -19.091518 -41.248199
28.697292 -16.75849 -43.431091
29.125443 -14.408703 -45.512924
28.549948 -10.901971 -46.133018
28.928963 -11.382061 -46.973045
29.889242 -12.067581 -47.489372
30.967186 -9.768545 -49.35981
32.319477 -7.554974 -51.121017
33.90065 -5.479382 -52.759697
35.628017 -39.970566 -34.541626
22.887154 -55.204849 -19.657393
24.441334 -51.518257 -21.222101
29.820648 -0.168812 -46.507935
29.406799 -0.076929 -48.596313
29.302952 -0.073893 -50.400085
29.651745 -0.256641 -51.884697
30.824211 4.888834 -53.821281
30.601486 2.159451 -53.615616
30.511532 -0.686279 -53.025406
31.861084 -1.388708 -53.804794
33.618916 -2.363556 -54.211876
22.681633 -49.411217 -20.213148
24.152699 -48.756805 -21.52434
25.702587 -47.939072 -22.87945
26.413668 -42.437431 -24.707029
26.684875 -44.492222 -24.620382
27.262743 -46.942566 -24.321947
28.767801 -45.759407 -25.883509
30.169579 -44.390862 -27.574526
31.448298 -42.848328 -29.378962
30.463072 -36.585072 -31.938101
31.580379 -38.733723 -31.623487
32.617565 -41.152885 -31.254599
33.720966 -39.333076 -33.138924
30.306589 -24.024065 -40.192635
31.709187 -25.406271 -40.070786
32.308907 -19.739271 -43.89666
32.814358 -23.319397 -41.859932
33.26244 -27.055603 -39.752647
34.77853 -28.961483 -39.294289
36.128376 -31.102573 -38.749062
29.818315 -2.650511 -45.548965
29.701002 -3.902821 -45.542705
35.318103 -9.384534 -50.840454
35.131778 -7.735492 -51.800602
29.932427 -14.127881 -40.758945
29.606447 -12.925931 -41.948753
30.655851 7.320522 -50.592156
30.966561 8.415826 -50.181702
31.025914 8.541134 -51.301544
28.323635 -37.236055 -29.205862
28.144732 -36.507368 -29.152328
28.513886 -35.717495 -30.112911
36.614939 -21.944251 -43.637294
35.69182 -21.049974 -43.995865
36.685119 -23.937444 -42.590561
36.614939 -21.944251 -43.637294
29.95824 -8.947794 -43.01292
30.371204 -8.868698 -42.06749
30.054568 -7.654064 -43.215626
29.298407 -7.80037 -44.983788
29.173126 -9.11829 -44.679276
29.516323 -9.05108 -43.856544
23.304674 -60.38419 -18.966639
22.172708 -60.582379 -18.452818
27.474156 -58.881274 -21.405409
26.622022 -61.07027 -20.558543
26.472086 -59.340208 -20.740026
28.228229 -56.604227 -22.318655
28.378166 -58.334289 -22.137171
27.474156 -58.881274 -21.405409
28.712564 -31.104454 -32.903632
28.818264 -29.676018 -33.753121
28.807112 -31.697145 -33.041248
28.704411 -32.647371 -31.96712
28.712564 -31.104454 -32.903632
34.89246 -13.771359 -48.133026
35.715015 -12.776236 -48.858921
29.111404 -19.726406 -39.19445
29.479222 -19.521373 -38.625244
29.217202 -18.365302 -39.811798
28.596311 -9.488454 -46.652378
28.646918 -10.744164 -45.55904
30.779369 -56.347515 -24.588919
30.034534 -57.070316 -23.730106
34.788883 -43.290066 -32.595543
34.246803 -44.256433 -31.670122
35.072828 -40.946737 -33.653782
35.344072 -42.313895 -33.483387
34.788883 -43.290066 -32.595543
22.782318 -53.661127 -19.843866
21.9282 -55.39756 -19.126669
21.823364 -53.853838 -19.313142
30.983122 7.846914 -46.367108
31.244238 9.043177 -47.110894
30.966892 8.050357 -47.705204
30.785715 6.722265 -45.61259
30.983122 7.846914 -46.367108
30.599915 5.656254 -46.138451
30.785715 6.722265 -45.61259
29.964171 2.291074 -47.237721
30.179851 3.44958 -46.962231
29.996658 3.537279 -48.124558
29.800813 1.10498 -47.453991
29.984006 1.017281 -46.291665
29.964171 2.291074 -47.237721
31.464792 6.023449 -54.498352
31.009814 6.176979 -53.72271
34.510745 -1.439438 -54.914894
33.527079 -0.847543 -54.770462
34.644199 -2.98117 -54.229206
34.510745 -1.439438 -54.914894
22.472057 -47.438749 -19.381504
23.314622 -46.220236 -19.932234
22.171151 -48.531115 -19.514594
22.472057 -47.438749 -19.381504
22.838149 -48.275032 -20.170179
22.014635 -49.667299 -19.557562
22.171151 -48.531115 -19.514594
26.828972 -40.956844 -25.536199
26.485151 -41.613236 -24.613878
34.860472 -35.260035 -36.049217
34.292346 -36.237995 -35.169075
34.331868 -34.076978 -36.258468
35.441664 -34.273838 -36.894172
34.860472 -35.260035 -36.049217
29.096849 -21.350001 -40.945988
28.831122 -20.916807 -40.745007
36.805323 -30.09815 -39.465569
36.103117 -29.019924 -39.797596
36.695436 -32.273885 -38.454915
36.805323 -30.09815 -39.465569
29.766985 -6.445948 -44.323761
30.054568 -7.654064 -43.215626
29.554709 -5.188107 -45.421486
29.429328 -6.475319 -45.258781
29.766985 -6.445948 -44.323761
29.363345 -3.932192 -46.477726
29.554709 -5.188107 -45.421486
29.701002 -3.902821 -45.542705
28.803647 -28.659408 -34.868622
28.818264 -29.676018 -33.753121
28.965756 -27.668396 -35.931954
28.977373 -29.163215 -35.041092
28.803647 -28.659408 -34.868622
29.02931 -26.617432 -37.026043
28.965756 -27.668396 -35.931954
29.272424 -25.593226 -38.06633
29.382596 -27.147997 -37.144711
29.02931 -26.617432 -37.026043
35.525219 -11.053 -49.889389
34.467877 -10.363768 -50.093407
35.318103 -9.384534 -50.840454
35.715015 -12.776236 -48.858921
35.525219 -11.053 -49.889389
30.432589 -13.954932 -39.989334
30.524698 -12.636053 -40.344296
30.432589 -13.954932 -39.989334
29.932427 -14.127881 -40.758945
28.913241 -17.181947 -41.004894
29.217202 -18.365302 -39.811798
28.765503 -15.997336 -42.152268
28.701647 -17.385724 -41.528377
28.913241 -17.181947 -41.004894
28.579284 -14.783463 -43.30299
28.765503 -15.997336 -42.152268
28.58535 -13.581285 -44.402977
28.559976 -14.998935 -43.775738
28.579284 -14.783463 -43.30299
28.879905 -6.995071 -48.740463
28.749683 -8.253363 -47.701496
28.772894 -6.816645 -48.210705
31.841731 -51.612505 -26.659046
31.358563 -53.935046 -25.610304
31.176859 -52.394959 -25.753868
32.448859 -50.780558 -27.593225
31.841731 -51.612505 -26.659046
32.267155 -49.240471 -27.73679
33.030648 -49.902214 -28.542562
32.448859 -50.780558 -27.593225
33.425125 -47.499241 -29.622637
33.030648 -49.902214 -28.542562
33.704639 -45.190437 -30.733385
33.425125 -47.499241 -29.622637
33.153797 -46.09972 -29.781717
33.975475 -42.856912 -31.829202
34.246803 -44.256433 -31.670122
33.704639 -45.190437 -30.733385
21.856661 -52.334757 -19.44972
21.823364 -53.853838 -19.313142
31.282316 9.441529 -49.67004
31.662577 10.406613 -49.082443
30.912253 8.220918 -48.960651
31.282316 9.441529 -49.67004
30.966561 8.415826 -50.181702
32.663218 5.452343 -55.737236
31.991582 5.790716 -55.150654
32.623956 4.022386 -55.589664
32.663218 5.452343 -55.737236
32.586636 2.5932 -55.356762
31.840471 2.994181 -54.892983
32.623956 4.022386 -55.589664
33.402681 2.144938 -55.691246
32.619197 1.116732 -54.994564
32.586636 2.5932 -55.356762
23.752471 -45.814953 -20.758554
23.314622 -46.220236 -19.932234
24.330128 -45.448885 -21.495126
23.572322 -46.772779 -20.863783
23.752471 -45.814953 -20.758554
24.794168 -44.972156 -22.319458
24.330128 -45.448885 -21.495126
25.415529 -44.532919 -23.062349
24.771339 -45.967474 -22.343246
24.794168 -44.972156 -22.319458
27.936864 -37.325525 -28.138933
28.144732 -36.507368 -29.152328
27.599379 -38.751092 -27.305324
27.936864 -37.325525 -28.138933
27.687615 -39.607366 -27.332769
27.332513 -40.332531 -26.392815
27.599379 -38.751092 -27.305324
34.805183 -20.184577 -44.282204
33.853886 -19.411443 -44.543782
34.570835 -18.373635 -45.307018
34.974871 -22.087781 -43.232628
34.805183 -20.184577 -44.282204
35.69182 -21.049974 -43.995865
35.969683 -24.945227 -41.896209
35.285101 -25.971344 -41.134574
35.176926 -23.979295 -42.184654
35.969683 -24.945227 -41.896209
36.685119 -23.937444 -42.590561
30.696828 -10.014906 -40.915622
30.371204 -8.868698 -42.06749
30.636933 -11.320407 -40.675907
30.696828 -10.014906 -40.915622
30.16264 -11.478074 -41.533172
30.524698 -12.636053 -40.344296
30.636933 -11.320407 -40.675907
29.276765 -11.713571 -43.123989
29.606447 -12.925931 -41.948753
29.720723 -11.58136 -42.376796
29.067465 -10.477678 -44.268547
29.276765 -11.713571 -43.123989
29.067465 -10.477678 -44.268547
29.173126 -9.11829 -44.679276
29.086131 -6.542529 -46.081513
29.298407 -7.80037 -44.983788
29.429328 -6.475319 -45.258781
28.891562 -6.594232 -46.88033
29.086131 -6.542529 -46.081513
29.022483 -5.269181 -47.155323
28.735294 -6.697911 -47.562939
28.891562 -6.594232 -46.88033
28.865516 -5.439618 -48.601906
28.772894 -6.816645 -48.210705
28.735294 -6.697911 -47.562939
24.370236 -60.085735 -19.526039
23.304674 -60.38419 -18.966639
24.245019 -58.291409 -19.753524
24.524922 -61.85386 -19.316157
24.370236 -60.085735 -19.526039
25.465267 -59.761079 -20.103043
24.586588 -63.705417 -19.133192
24.524922 -61.85386 -19.316157
25.681472 -63.340294 -19.741227
24.648108 -65.516506 -18.981259
24.586588 -63.705417 -19.133192
25.681472 -63.340294 -19.741227
26.622022 -61.07027 -20.558543
29.253809 -57.740189 -22.902752
28.378166 -58.334289 -22.137171
29.912965 -55.387371 -23.877772
30.034534 -57.070316 -23.730106
29.253809 -57.740189 -22.902752
31.223782 8.641883 -52.368072
31.025914 8.541134 -51.301544
30.95531 7.455476 -52.668068
31.223782 8.641883 -52.368072
28.566972 -34.114435 -31.082057
28.704411 -32.647371 -31.96712
28.745874 -34.843122 -31.13559
28.513886 -35.717495 -30.112911
28.566972 -34.114435 -31.082057
34.124729 -14.818098 -47.335194
33.907261 -13.078973 -48.34451
34.89246 -13.771359 -48.133026
34.364733 -16.555493 -46.346153
33.379534 -15.863107 -46.557637
34.124729 -14.818098 -47.335194
34.570835 -18.373635 -45.307018
34.364733 -16.555493 -46.346153
29.843905 -20.662721 -37.402512
29.479222 -19.521373 -38.625244
29.696045 -21.999146 -36.795292
29.843905 -20.662721 -37.402512
29.277698 -22.254294 -37.32061
29.696045 -21.999146 -36.795292
28.982675 -22.506638 -37.804581
29.277698 -22.254294 -37.32061
29.0784 -21.134821 -38.491867
28.777162 -22.817692 -38.203186
28.982675 -22.506638 -37.804581
28.754925 -21.714413 -39.32148
28.777162 -22.817692 -38.203186
28.661845 -20.56659 -40.457661
28.754925 -21.714413 -39.32148
28.690297 -20.239342 -40.112019
28.766494 -19.441735 -41.535545
28.831122 -20.916807 -40.745007
28.661845 -20.56659 -40.457661
28.577303 -12.133892 -45.031623
28.646918 -10.744164 -45.55904
28.557995 -12.349365 -45.504372
28.58535 -13.581285 -44.402977
28.577303 -12.133892 -45.031623
28.703321 -9.66688 -47.182136
28.596311 -9.488454 -46.652378
28.749683 -8.253363 -47.701496
34.951723 -6.127531 -52.658214
35.131778 -7.735492 -51.800602
34.080706 -7.087343 -51.902085
30.779369 -56.347515 -24.588919
31.358563 -53.935046 -25.610304
35.924879 -41.309986 -34.341576
35.344072 -42.313895 -33.483387
36.234098 -38.968984 -35.347164
35.924879 -41.309986 -34.341576
22.114765 -58.77619 -18.68477
22.172708 -60.582379 -18.452818
21.968614 -57.083683 -18.916405
21.9282 -55.39756 -19.126669
23.033305 -56.897356 -19.425759
22.114765 -58.77619 -18.68477
21.968614 -57.083683 -18.916405
31.590595 10.157298 -47.781731
32.025163 11.317291 -48.415184
31.662577 10.406613 -49.082443
31.590595 10.157298 -47.781731
31.244238 9.043177 -47.110894
30.353195 4.5771 -46.582276
30.599915 5.656254 -46.138451
30.459057 5.77494 -47.405243
30.353195 4.5771 -46.582276
30.179851 3.44958 -46.962231
30.079666 -0.197759 -45.346589
29.984006 1.017281 -46.291665
29.97382 -1.411464 -45.50346
30.079666 -0.197759 -45.346589
29.665143 -1.407859 -46.553441
29.818315 -2.650511 -45.548965
29.97382 -1.411464 -45.50346
30.714912 6.251743 -52.889225
30.474806 6.242095 -51.933155
30.95531 7.455476 -52.668068
30.529309 4.963598 -52.987797
30.714912 6.251743 -52.889225
31.009814 6.176979 -53.72271
31.351 4.656101 -54.473583
31.464792 6.023449 -54.498352
31.991582 5.790716 -55.150654
32.648163 -0.360119 -54.566921
31.832118 0.088143 -54.232437
32.619197 1.116732 -54.994564
32.74 -1.876132 -54.008335
32.648163 -0.360119 -54.566921
33.527079 -0.847543 -54.770462
34.785066 -4.539083 -53.503117
33.759783 -3.921469 -53.485787
34.644199 -2.98117 -54.229206
34.951723 -6.127531 -52.658214
34.785066 -4.539083 -53.503117
21.858736 -50.981663 -19.541125
22.014635 -49.667299 -19.557562
22.679558 -50.764311 -20.121744
21.856661 -52.334757 -19.44972
21.858736 -50.981663 -19.541125
25.926013 -42.987516 -23.872795
26.485151 -41.613236 -24.613878
25.903184 -43.982833 -23.896583
25.415529 -44.532919 -23.062349
25.926013 -42.987516 -23.872795
26.917209 -41.813118 -25.563644
26.828972 -40.956844 -25.536199
27.332513 -40.332531 -26.392815
34.270958 -38.377063 -34.049374
33.742354 -37.194007 -34.258625
34.292346 -36.237995 -35.169075
34.669295 -39.67198 -33.862881
34.119303 -40.627992 -32.952431
34.270958 -38.377063 -34.049374
35.224484 -38.695808 -34.750725
35.072828 -40.946737 -33.653782
34.669295 -39.67198 -33.862881
35.805675 -37.709612 -35.59568
35.224484 -38.695808 -34.750725
36.234098 -38.968984 -35.347164
35.805675 -37.709612 -35.59568
29.441819 -24.515921 -39.127041
29.272424 -25.593226 -38.06633
29.551603 -21.812264 -41.085498
29.096849 -21.350001 -40.945988
29.390526 -20.254215 -41.962402
29.782258 -23.466058 -40.130859
29.551603 -21.812264 -41.085498
30.075934 -22.370272 -41.147274
29.96615 -25.073928 -39.188817
29.441819 -24.515921 -39.127041
29.782258 -23.466058 -40.130859
35.428194 -27.949379 -40.07021
34.635437 -26.983448 -40.358654
35.285101 -25.971344 -41.134574
35.453453 -30.032028 -39.021676
35.428194 -27.949379 -40.07021
36.103117 -29.019924 -39.797596
36.055855 -33.275616 -37.699398
35.441664 -34.273838 -36.894172
35.514185 -32.100796 -37.943837
36.055855 -33.275616 -37.699398
36.695436 -32.273885 -38.454915
3 139 38 140
3 0 41 39
3 0 43 41
3 142 141 45
3 144 143 47
3 2 51 49
3 2 53 51
3 3 55 54
3 3 56 55
3 4 145 147
3 145 58 146
3 145 146 147
3 4 60 58
3 4 62 60
3 5 148 150
3 148 65 149
3 148 149 150
3 5 67 65
3 5 69 67
3 6 72 70
3 6 74 72
3 1 77 75
3 151 79 152
3 154 153 79
3 7 155 157
3 155 80 156
3 155 156 157
3 7 81 80
3 7 158 160
3 160 159 81
3 158 159 160
3 8 82 37
3 8 83 82
3 9 161 162
3 10 84 40
3 10 163 165
3 165 164 84
3 163 164 165
3 10 166 168
3 166 85 167
3 166 167 168
3 12 86 42
3 12 87 86
3 13 169 170
3 13 171 173
3 171 88 172
3 171 172 173
3 13 90 88
3 15 91 44
3 15 92 91
3 16 95 93
3 175 174 46
3 18 176 178
3 176 96 177
3 176 177 178
3 18 97 96
3 18 98 97
3 20 99 48
3 20 100 99
3 179 101 180
3 21 102 50
3 21 103 102
3 21 104 103
3 22 105 52
3 22 106 105
3 11 181 182
3 23 183 184
3 23 185 187
3 185 107 186
3 185 186 187
3 24 188 190
3 188 108 189
3 188 189 190
3 24 109 108
3 25 191 193
3 193 192 57
3 191 192 193
3 25 194 195
3 25 196 197
3 26 198 200
3 200 199 59
3 198 199 200
3 26 201 203
3 201 110 202
3 201 202 203
3 26 111 110
3 27 112 61
3 27 113 112
3 204 114 205
3 28 115 63
3 28 116 115
3 28 117 116
3 206 118 207
3 209 208 118
3 29 210 211
3 29 212 213
3 29 214 216
3 214 119 215
3 214 215 216
3 30 120 64
3 30 121 120
3 217 122 218
3 31 123 66
3 31 124 123
3 31 125 124
3 32 126 68
3 32 127 126
3 14 128 89
3 33 129 71
3 33 130 129
3 33 131 130
3 34 219 221
3 221 220 73
3 219 220 221
3 34 222 223
3 19 224 225
3 35 132 76
3 35 133 132
3 17 134 94
3 36 135 78
3 36 136 135
3 36 137 136
3 226 138 227
3 229 228 138
3 230 7 231
3 232 37 233
3 234 233 7
3 232 233 234
3 38 235 237
3 235 37 236
3 235 236 237
3 38 8 37
3 39 40 9
3 41 40 39
3 41 10 40
3 41 42 10
3 43 42 41
3 43 12 42
3 238 13 239
3 240 44 241
3 242 241 13
3 240 241 242
3 243 44 244
3 245 15 246
3 247 246 44
3 245 246 247
3 45 46 16
3 248 46 249
3 250 249 45
3 248 249 250
3 252 251 46
3 47 253 254
3 256 255 47
3 257 18 258
3 259 48 260
3 261 260 18
3 259 260 261
3 262 48 263
3 264 20 265
3 266 265 48
3 264 265 266
3 49 267 269
3 267 50 268
3 267 268 269
3 51 50 49
3 51 21 50
3 51 52 21
3 53 52 51
3 53 22 52
3 54 270 272
3 272 271 11
3 270 271 272
3 55 273 275
3 275 274 54
3 273 274 275
3 55 276 277
3 55 278 279
3 56 280 282
3 282 281 55
3 280 281 282
3 56 283 285
3 283 23 284
3 283 284 285
3 286 24 287
3 288 57 289
3 58 290 292
3 290 57 291
3 290 291 292
3 58 25 57
3 58 59 25
3 60 59 58
3 60 26 59
3 60 61 26
3 62 61 60
3 62 27 61
3 293 63 294
3 295 63 296
3 297 28 298
3 299 298 63
3 297 298 299
3 302 301 28
3 300 301 302
3 303 29 304
3 305 64 306
3 307 306 29
3 305 306 307
3 308 64 309
3 310 30 311
3 312 311 64
3 310 311 312
3 65 313 314
3 65 315 316
3 65 317 319
3 317 66 318
3 317 318 319
3 67 66 65
3 67 31 66
3 67 68 31
3 69 68 67
3 69 32 68
3 70 71 14
3 72 71 70
3 72 33 71
3 72 73 33
3 74 73 72
3 74 34 73
3 75 76 19
3 77 76 75
3 77 35 76
3 320 78 321
3 322 321 17
3 320 321 322
3 79 323 325
3 323 78 324
3 323 324 325
3 79 36 78
3 79 326 328
3 328 327 36
3 326 327 328
3 330 329 79
3 80 331 332
3 80 333 334
3 80 335 337
3 335 47 336
3 335 336 337
3 81 47 80
3 81 338 340
3 340 339 47
3 338 339 340
3 81 341 342
3 344 343 81
3 37 345 347
3 347 346 7
3 345 346 347
3 82 348 350
3 350 349 37
3 348 349 350
3 82 351 352
3 82 353 355
3 353 49 354
3 353 354 355
3 83 49 82
3 83 2 49
3 40 356 358
3 358 357 9
3 356 357 358
3 84 359 361
3 361 360 40
3 359 360 361
3 84 362 363
3 84 364 366
3 364 365 366
3 368 367 84
3 85 369 370
3 85 371 373
3 371 11 372
3 371 372 373
3 42 85 10
3 86 85 42
3 86 11 85
3 86 54 11
3 87 54 86
3 87 3 54
3 374 4 375
3 377 376 4
3 88 378 379
3 88 380 382
3 380 5 381
3 380 381 382
3 88 89 5
3 90 89 88
3 90 14 89
3 44 90 13
3 91 90 44
3 91 14 90
3 91 70 14
3 92 70 91
3 92 6 70
3 93 94 1
3 95 94 93
3 95 17 94
3 46 95 16
3 383 95 384
3 385 384 46
3 383 384 385
3 386 17 387
3 388 387 95
3 386 387 388
3 390 389 17
3 96 391 392
3 96 393 394
3 96 395 396
3 97 397 399
3 399 398 96
3 397 398 399
3 97 400 401
3 97 402 403
3 98 404 406
3 406 405 97
3 404 405 406
3 98 407 409
3 407 19 408
3 407 408 409
3 48 98 18
3 99 98 48
3 99 19 98
3 99 75 19
3 100 75 99
3 100 1 75
3 101 410 411
3 101 412 414
3 412 20 413
3 412 413 414
3 50 415 417
3 415 101 416
3 415 416 417
3 102 101 50
3 102 20 101
3 102 100 20
3 103 100 102
3 103 1 100
3 103 93 1
3 104 93 103
3 104 16 93
3 52 104 21
3 105 104 52
3 105 16 104
3 105 45 16
3 106 45 105
3 106 418 420
3 420 419 45
3 418 419 420
3 422 421 11
3 107 423 424
3 107 425 426
3 427 9 428
3 108 429 430
3 108 431 433
3 431 9 432
3 431 432 433
3 108 39 9
3 109 39 108
3 109 0 39
3 57 434 436
3 434 435 436
3 438 437 57
3 59 439 441
3 441 440 25
3 439 440 441
3 443 442 59
3 110 444 445
3 110 446 447
3 110 448 450
3 448 38 449
3 448 449 450
3 111 38 110
3 111 8 38
3 61 111 26
3 112 111 61
3 112 8 111
3 112 83 8
3 113 83 112
3 113 2 83
3 451 62 452
3 453 452 4
3 451 452 453
3 114 454 456
3 454 62 455
3 454 455 456
3 114 27 62
3 63 457 459
3 457 114 458
3 457 458 459
3 115 114 63
3 115 27 114
3 115 113 27
3 116 113 115
3 116 2 113
3 116 53 2
3 117 53 116
3 117 22 53
3 460 117 461
3 462 461 28
3 460 461 462
3 118 463 465
3 463 117 464
3 463 464 465
3 118 22 117
3 118 106 22
3 466 106 467
3 468 467 118
3 466 467 468
3 470 469 106
3 119 471 472
3 119 473 475
3 473 24 474
3 473 474 475
3 64 119 29
3 120 119 64
3 120 24 119
3 120 109 24
3 121 109 120
3 121 0 109
3 122 476 477
3 122 478 480
3 478 30 479
3 478 479 480
3 66 481 483
3 481 122 482
3 481 482 483
3 123 122 66
3 123 30 122
3 123 121 30
3 124 121 123
3 124 0 121
3 124 43 0
3 125 43 124
3 125 12 43
3 68 125 31
3 126 125 68
3 126 12 125
3 126 87 12
3 127 87 126
3 127 3 87
3 89 69 5
3 128 69 89
3 128 32 69
3 71 128 14
3 129 128 71
3 129 32 128
3 129 127 32
3 130 127 129
3 130 3 127
3 130 56 3
3 131 56 130
3 131 23 56
3 73 131 33
3 484 131 485
3 486 485 73
3 484 485 486
3 487 23 488
3 489 488 131
3 487 488 489
3 490 107 491
3 492 491 23
3 490 491 492
3 493 107 494
3 496 495 107
3 497 15 498
3 76 499 501
3 501 500 19
3 499 500 501
3 132 502 504
3 504 503 76
3 502 503 504
3 132 505 507
3 505 15 506
3 505 506 507
3 132 92 15
3 133 92 132
3 133 6 92
3 94 77 1
3 134 77 94
3 134 35 77
3 78 134 17
3 135 134 78
3 135 35 134
3 135 133 35
3 136 133 135
3 136 6 133
3 136 74 6
3 137 74 136
3 137 34 74
3 508 137 509
3 510 509 36
3 508 509 510
3 138 511 513
3 511 137 512
3 511 512 513
3 138 34 137
3 138 514 516
3 516 515 34
3 514 515 516
3 518 517 138
