ply
format ascii 1.0
element vertex 428
property float x
property float y
property float z
element face 410
property list uchar int vertex_index
end_header
-32.406281 35.871651 -16.948601
-41.656693 53.175236 -19.803932
-34.201569 59.648289 -22.735653
-36.28595 44.248241 -18.430038
-31.888451 37.494434 -23.85228
-34.486629 47.515354 -24.480568
-24.519606 51.869358 -27.092197
-40.797188 68.115814 -15.321835
-43.122337 66.837387 -10.842707
-44.874058 63.018421 -14.22234
-39.311306 48.57687 -19.351906
-36.534176 45.833561 -22.090511
-38.392075 50.735859 -22.246456
-27.819452 63.153751 -23.703583
-29.271122 56.145847 -24.752037
-22.81979 59.075939 -26.201847
-44.136559 54.539707 -16.769016
-41.425095 50.444447 -16.19673
-42.693184 58.167004 -19.444038
-39.131241 56.232433 -21.791656
-32.874382 66.21431 -21.405327
-45.336372 58.784 -16.216621
-32.409443 36.80304 -20.186348
-34.172169 41.316017 -21.331074
-33.282066 42.367847 -24.568493
-34.813538 53.278652 -23.762695
-30.193712 49.567722 -25.854469
-20.462608 46.854382 -29.461147
-42.09148 67.642181 -13.198317
-40.62188 50.826885 -19.65921
-39.191502 49.622059 -20.995049
-40.122025 52.068905 -21.075661
-25.273474 61.224766 -24.913338
-42.989708 54.012058 -18.380238
-42.937149 52.476269 -16.591022
-41.86483 51.792423 -18.201393
-40.446735 49.638081 -17.837151
-42.673378 60.751553 -18.868195
-43.725697 63.350964 -16.244505
-45.299747 60.923901 -15.404842
-44.107491 61.018787 -17.27243
-44.126583 58.651608 -17.957439
-34.02224 40.712757 -19.415092
-35.277786 42.887497 -19.934662
-35.820538 46.632069 -23.45034
-34.940262 44.190445 -23.356766
-33.966949 44.87933 -24.624409
-32.430172 45.65205 -25.597641
-36.912483 57.909519 -22.32906
-37.04388 54.862263 -22.786388
-34.612331 56.404118 -23.277287
-26.836994 54.09837 -25.885033
-29.813055 52.782749 -25.303387
-27.463316 50.701321 -26.432938
-25.24119 48.440304 -27.605656
-23.206808 45.991177 -28.750748
-22.378845 49.45705 -28.313908
-32.270947 37.171501 -22.062851
-31.462305 35.005978 -23.289368
-30.245443 30.10638 -25.689774
-41.67878 65.803131 -16.809044
-39.217503 68.221634 -17.187225
-44.981026 64.125046 -10.278494
-45.797718 62.354534 -11.957859
-44.121693 65.009979 -12.688688
-43.031921 65.582214 -14.878357
-37.822624 46.397602 -18.925903
-36.655075 45.069462 -20.397945
-38.00362 47.299534 -20.761772
-37.580376 48.215656 -22.247299
-36.49654 49.211246 -23.368511
-31.129499 61.409161 -23.154499
-31.751593 58.003315 -23.711224
-28.598066 59.622219 -24.224072
-26.099087 57.620228 -25.378078
-23.705788 55.424114 -26.618263
-21.479794 53.042248 -27.90099
-45.129623 54.732159 -14.959435
-43.873436 52.84264 -14.815327
-42.281635 50.955944 -14.421324
-40.470737 49.03735 -13.867922
-39.709312 48.414845 -15.666248
-38.837505 47.522305 -17.351643
-30.845337 35.252323 -25.007214
-42.355488 55.627979 -19.744934
-40.73951 54.6497 -20.984936
-41.024807 57.348637 -20.702858
-33.613468 62.947124 -22.124115
-30.380695 64.830643 -22.553387
-46.279663 60.485126 -13.285465
-46.351456 58.567387 -14.229141
-45.969139 56.641628 -14.780416
-44.948776 56.645672 -16.661594
-43.754234 56.303699 -18.315243
-32.820667 37.744694 -17.115677
-32.414948 36.359173 -18.382771
-33.03183 38.528633 -18.888588
-33.144485 39.080013 -20.784935
-33.02042 39.519909 -22.631435
-35.352798 43.550671 -21.77877
-33.960312 41.839348 -23.07806
-32.54245 39.927334 -24.301628
-38.914314 53.411091 -22.093498
-36.909748 51.954311 -23.137897
-34.775749 50.311176 -24.176857
-32.22102 54.686893 -24.253395
-32.505638 51.509762 -24.777378
-32.577816 48.497555 -25.245644
-21.409483 43.344948 -29.777691
-32.064579 34.437069 -19.566467
-30.773684 32.630882 -24.493069
-32.312984 35.01605 -17.36925
-32.403759 34.99588 -16.533172
-41.660162 61.83453 -19.167561
-42.497429 62.036572 -18.430771
-43.214486 62.170189 -17.632888
-43.916594 62.184876 -16.758468
-43.023589 63.336277 -17.118926
-42.497429 62.036572 -18.430771
-43.390434 60.88517 -18.070312
-43.214486 62.170189 -17.632888
-35.781868 43.567869 -19.18235
-35.063698 42.488304 -18.927488
-35.56778 43.168676 -18.175176
-35.93745 43.745657 -17.360867
-36.727402 44.826519 -17.621431
-35.56778 43.168676 -18.175176
-35.93745 43.745657 -17.360867
-43.523254 66.290177 -9.569641
-42.542242 67.641007 -9.789466
-44.051682 65.481217 -10.5606
-44.452599 64.934006 -9.287535
-43.523254 66.290177 -9.569641
-21.671655 57.901737 -26.872543
-22.114655 56.075825 -27.080751
-23.262789 57.250027 -26.410055
-34.422575 65.203781 -21.230866
-34.047395 66.738037 -20.792534
-33.243925 64.580717 -21.764721
-34.792118 63.570189 -21.59026
-34.422575 65.203781 -21.230866
-33.344454 39.216577 -18.17429
-32.926248 38.136663 -18.002133
-33.238872 38.824608 -17.287834
-32.458379 41.362223 -25.144523
-32.088571 40.141966 -25.011091
-32.912258 41.14759 -24.43506
-30.292115 48.040729 -26.100946
-31.484167 47.505646 -25.796534
-31.385764 49.032639 -25.550057
-19.635009 45.453728 -29.947376
-20.108447 43.699011 -30.105648
-20.936045 45.099665 -29.619419
-18.952008 52.331089 -29.008285
-20.474469 51.758007 -28.52344
-19.957333 53.61533 -28.385836
-33.238872 38.824608 -17.287834
-33.029985 38.228365 -16.361013
-30.362903 32.726618 -25.298296
-30.809511 33.941603 -24.750141
-30.39873 34.037338 -25.555369
-30.646003 30.009804 -24.863774
-30.555739 28.724497 -25.555834
-39.504202 69.335777 -15.479643
-40.265698 69.149315 -14.438751
-42.049305 68.151383 -11.043771
-42.542242 67.641007 -9.789466
-41.533876 68.553779 -12.221576
-42.606909 67.239784 -12.020512
-42.049305 68.151383 -11.043771
-40.912843 68.912498 -13.376991
-41.533876 68.553779 -12.221576
-40.265698 69.149315 -14.438751
-41.444334 67.878997 -14.260076
-40.912843 68.912498 -13.376991
-24.824534 63.03599 -24.682761
-26.546463 62.189259 -24.30846
-26.097522 64.000483 -24.077883
-23.574784 62.000599 -25.365982
-24.824534 63.03599 -24.682761
-22.347942 60.926186 -26.010236
-24.046632 60.150352 -25.557592
-23.574784 62.000599 -25.365982
-21.170834 59.777034 -26.716476
-22.347942 60.926186 -26.010236
-41.829493 60.438431 -19.536842
-41.839396 59.146157 -19.824764
-42.683281 59.459278 -19.156116
-41.829493 60.438431 -19.536842
-41.660162 61.83453 -19.167561
-32.438591 67.780777 -20.967705
-34.047395 66.738037 -20.792534
-31.197868 67.19368 -21.629906
-32.438591 67.780777 -20.967705
-34.435924 41.400934 -18.667704
-33.839659 40.308639 -18.437542
-34.650013 41.800127 -19.674877
-34.435924 41.400934 -18.667704
-35.063698 42.488304 -18.927488
-33.029136 43.915735 -25.197185
-32.686695 42.659994 -25.169227
-33.624507 43.623588 -24.596451
-32.260748 44.302096 -25.683802
-33.029136 43.915735 -25.197185
-33.19856 45.26569 -25.111025
-31.417286 44.632567 -26.152477
-32.260748 44.302096 -25.683802
-27.707944 49.076012 -26.706205
-29.073142 48.509213 -26.416971
-28.828514 50.134522 -26.143704
-26.596881 47.945504 -27.292564
-27.707944 49.076012 -26.706205
-26.352253 49.570813 -27.019297
-25.546835 46.794647 -27.854071
-26.596881 47.945504 -27.292564
-24.223999 47.21574 -28.178202
-24.529644 45.570084 -28.426617
-25.546835 46.794647 -27.854071
-32.056381 35.95346 -21.751278
-32.125629 35.76923 -20.813026
-32.340195 36.987271 -21.124599
-31.65206 34.870699 -22.364536
-32.056381 35.95346 -21.751278
-31.866626 36.08874 -22.676109
-31.419427 33.706826 -23.001974
-31.65206 34.870699 -22.364536
-29.749187 30.17614 -26.417866
-30.098782 31.464367 -25.896648
-30.071372 28.802725 -26.290534
-29.749187 30.17614 -26.417866
-30.381668 27.420841 -26.156593
-30.555739 28.724497 -25.555834
-30.071372 28.802725 -26.290534
-40.861391 65.724563 -17.636942
-42.00013 64.56236 -17.401196
-39.630753 66.933815 -17.826033
-40.861391 65.724563 -17.636942
-40.448142 67.012383 -16.998134
-38.284143 68.079513 -17.991188
-39.630753 66.933815 -17.826033
-38.71436 69.388687 -16.412338
-40.007345 68.168724 -16.25453
-39.504202 69.335777 -15.479643
-37.808763 69.385742 -17.332726
-38.71436 69.388687 -16.412338
-38.284143 68.079513 -17.991188
-37.808763 69.385742 -17.332726
-45.315121 63.54669 -8.98751
-44.452599 64.934006 -9.287535
-45.758171 62.761786 -9.88849
-45.315121 63.54669 -8.98751
-45.389372 63.23979 -11.118177
-46.166517 61.87653 -10.728172
-45.758171 62.761786 -9.88849
-42.00013 64.56236 -17.401196
-43.023589 63.336277 -17.118926
-42.702238 64.577047 -16.526775
-21.001658 54.884892 -27.722115
-22.592791 54.233181 -27.259626
-22.114655 56.075825 -27.080751
-19.957333 53.61533 -28.385836
-21.001658 54.884892 -27.722115
-21.671655 57.901737 -26.872543
-21.170834 59.777034 -26.716476
-44.92395 53.802033 -13.921762
-45.570135 54.657841 -13.963265
-44.295856 52.857273 -13.849708
-44.92395 53.802033 -13.921762
-44.50153 53.7874 -14.887381
-43.468393 51.992531 -13.667148
-44.295856 52.857273 -13.849708
-42.672493 51.049183 -13.470147
-43.468393 51.992531 -13.667148
-43.077535 51.899292 -14.618326
-41.725409 50.155003 -13.194173
-42.672493 51.049183 -13.470147
-40.819959 49.195706 -12.917472
-41.725409 50.155003 -13.194173
-41.376186 49.996647 -14.144623
-39.828547 48.245457 -12.602802
-40.819959 49.195706 -12.917472
-39.527395 48.03859 -13.561347
-39.828547 48.245457 -12.602802
-39.146682 47.727337 -14.46051
-39.527395 48.03859 -13.561347
-40.090024 48.726098 -14.767085
-38.817823 47.379932 -15.375679
-39.146682 47.727337 -14.46051
-38.381919 46.933662 -16.218376
-38.817823 47.379932 -15.375679
-39.273409 47.968575 -16.508945
-38.00318 46.463551 -17.082234
-38.381919 46.933662 -16.218376
-37.495739 45.9012 -17.869363
-38.00318 46.463551 -17.082234
-38.330064 46.959953 -18.138773
-37.054287 45.322921 -18.677971
-36.727402 44.826519 -17.621431
-37.495739 45.9012 -17.869363
-31.009838 36.53117 -25.228247
-31.366894 36.373379 -24.429747
-31.531395 37.652226 -24.65078
-30.387725 35.372547 -25.76086
-31.009838 36.53117 -25.228247
-30.39873 34.037338 -25.555369
-30.387725 35.372547 -25.76086
-41.005207 58.736973 -20.454174
-41.858996 57.75782 -20.073448
-41.839396 59.146157 -19.824764
-40.039615 58.256676 -21.018286
-41.005207 58.736973 -20.454174
-39.092833 57.698574 -21.562685
-40.078024 56.790535 -21.247257
-40.039615 58.256676 -21.018286
-37.983453 58.537117 -21.831387
-38.021862 57.070976 -22.060358
-39.092833 57.698574 -21.562685
-36.728344 59.47712 -22.044865
-37.983453 58.537117 -21.831387
-35.372887 60.346504 -22.248162
-35.557026 58.778904 -22.532356
-36.728344 59.47712 -22.044865
-35.078836 61.995922 -21.942393
-34.792118 63.570189 -21.59026
-33.907518 61.297707 -22.429884
-35.372887 60.346504 -22.248162
-35.078836 61.995922 -21.942393
-29.951024 66.501846 -22.203936
-31.627538 65.522476 -21.979357
-31.197868 67.19368 -21.629906
-28.665788 65.744934 -22.847341
-29.951024 66.501846 -22.203936
-27.385166 64.906488 -23.422439
-29.100074 63.992197 -23.128485
-28.665788 65.744934 -22.847341
-26.097522 64.000483 -24.077883
-27.385166 64.906488 -23.422439
-46.441648 61.044975 -11.457251
-46.166517 61.87653 -10.728172
-46.682621 60.110271 -12.121054
-46.441648 61.044975 -11.457251
-46.038691 61.41983 -12.621662
-46.745002 59.254669 -12.657295
-46.682621 60.110271 -12.121054
-46.780899 58.2958 -13.129133
-46.745002 59.254669 -12.657295
-46.315559 59.526257 -13.757303
-46.603184 57.433895 -13.462635
-46.780899 58.2958 -13.129133
-46.412025 56.471016 -13.738273
-46.603184 57.433895 -13.462635
-46.160297 57.604507 -14.504779
-45.989893 55.612575 -13.873756
-46.412025 56.471016 -13.738273
-45.549381 55.686893 -14.869926
-45.570135 54.657841 -13.963265
-45.989893 55.612575 -13.873756
-33.527035 39.620695 -19.15184
-33.344454 39.216577 -18.17429
-33.839659 40.308639 -18.437542
-31.858395 38.868676 -24.875454
-31.531395 37.652226 -24.65078
-32.215451 38.710884 -24.076954
-31.858395 38.868676 -24.875454
-32.088571 40.141966 -25.011091
-32.458379 41.362223 -25.144523
-32.686695 42.659994 -25.169227
-31.410345 46.082893 -25.972532
-32.503994 47.074803 -25.421642
-31.484167 47.505646 -25.796534
-31.417286 44.632567 -26.152477
-31.410345 46.082893 -25.972532
-30.292115 48.040729 -26.100946
-29.073142 48.509213 -26.416971
-23.580946 44.321478 -28.949837
-24.529644 45.570084 -28.426617
-22.682284 42.998363 -29.463309
-23.580946 44.321478 -28.949837
-22.308146 44.668063 -29.26422
-21.860396 41.648611 -29.906492
-22.682284 42.998363 -29.463309
-20.648662 41.920166 -30.186262
-21.860396 41.648611 -29.906492
-20.648662 41.920166 -30.186262
-20.108447 43.699011 -30.105648
-20.923995 49.965408 -28.729899
-21.929319 51.249649 -28.107449
-20.474469 51.758007 -28.52344
-19.965877 48.664074 -29.303518
-21.420727 48.155716 -28.887528
-20.923995 49.965408 -28.729899
-19.085753 47.283352 -29.856691
-19.965877 48.664074 -29.303518
-19.635009 45.453728 -29.947376
-19.085753 47.283352 -29.856691
-32.729962 37.078051 -16.369838
-33.029985 38.228365 -16.361013
-32.613474 36.808172 -17.032139
-32.522768 36.141529 -16.2863
-32.729962 37.078051 -16.369838
-32.522768 36.141529 -16.2863
-32.403759 34.99588 -16.533172
-32.317318 35.259811 -18.086334
-32.312984 35.01605 -17.36925
-32.410615 36.115412 -17.665686
-32.142133 34.29876 -18.678182
-32.317318 35.259811 -18.086334
-32.239764 35.398121 -18.974619
-32.105507 33.164221 -19.268446
-32.142133 34.29876 -18.678182
-31.953197 34.586244 -20.503086
-32.237011 35.620055 -19.876407
-32.125629 35.76923 -20.813026
-31.93961 33.294804 -20.206626
-31.953197 34.586244 -20.503086
-32.105507 33.164221 -19.268446
-31.93961 33.294804 -20.206626
-31.075117 32.519278 -23.603825
-31.419427 33.706826 -23.001974
-31.117995 33.81843 -23.891219
-30.509563 31.368631 -25.091421
-30.362903 32.726618 -25.298296
-30.098782 31.464367 -25.896648
-30.910124 31.272054 -24.265421
-30.509563 31.368631 -25.091421
-30.646003 30.009804 -24.863774
-31.075117 32.519278 -23.603825
-30.910124 31.272054 -24.265421
3 0 111 112
3 1 31 29
3 1 35 33
3 1 29 35
3 114 113 37
3 115 40 116
3 117 116 38
3 115 116 117
3 118 37 119
3 120 119 40
3 118 119 120
3 3 121 123
3 121 43 122
3 121 122 123
3 5 46 44
3 5 47 46
3 2 50 48
3 6 53 51
3 6 54 53
3 6 56 54
3 3 124 125
3 3 126 127
3 4 58 57
3 7 61 60
3 8 128 129
3 8 130 132
3 130 62 131
3 130 131 132
3 8 64 62
3 7 65 28
3 7 60 65
3 10 68 66
3 12 69 30
3 12 70 69
3 13 73 71
3 15 74 32
3 15 75 74
3 15 133 135
3 135 134 75
3 133 134 135
3 16 78 77
3 17 79 34
3 17 80 79
3 17 81 80
3 10 82 36
3 10 66 82
3 18 86 84
3 20 136 137
3 20 138 140
3 138 87 139
3 138 139 140
3 20 88 87
3 9 89 63
3 21 90 39
3 21 91 90
3 21 92 91
3 18 93 41
3 18 84 93
3 141 96 142
3 143 142 94
3 141 142 143
3 23 97 42
3 23 98 97
3 11 99 67
3 24 100 45
3 24 101 100
3 24 144 146
3 146 145 101
3 144 145 146
3 19 102 85
3 25 103 49
3 25 104 103
3 14 105 72
3 26 106 52
3 26 107 106
3 26 147 149
3 149 148 107
3 147 148 149
3 27 108 55
3 27 150 152
3 152 151 108
3 150 151 152
3 155 154 76
3 153 154 155
3 156 94 157
3 22 109 95
3 158 110 159
3 160 159 83
3 158 159 160
3 162 161 59
3 164 163 7
3 165 8 166
3 167 28 168
3 169 168 8
3 167 168 169
3 170 28 171
3 172 7 173
3 174 173 28
3 172 173 174
3 29 30 10
3 31 30 29
3 31 12 30
3 175 32 176
3 177 176 13
3 175 176 177
3 178 32 179
3 180 15 181
3 182 181 32
3 180 181 182
3 184 183 15
3 33 34 16
3 35 34 33
3 35 17 34
3 35 36 17
3 29 36 35
3 29 10 36
3 37 185 187
3 187 186 18
3 185 186 187
3 189 188 37
3 190 20 191
3 193 192 20
3 38 39 9
3 40 39 38
3 40 21 39
3 40 41 21
3 37 41 40
3 37 18 41
3 194 42 195
3 43 196 198
3 196 42 197
3 196 197 198
3 43 23 42
3 44 45 11
3 46 45 44
3 46 24 45
3 46 199 201
3 201 200 24
3 199 200 201
3 47 202 204
3 204 203 46
3 202 203 204
3 47 205 206
3 48 49 19
3 50 49 48
3 50 25 49
3 51 52 14
3 53 52 51
3 53 26 52
3 53 207 209
3 209 208 26
3 207 208 209
3 54 210 212
3 212 211 53
3 210 211 212
3 54 213 214
3 54 215 217
3 215 55 216
3 215 216 217
3 56 55 54
3 56 27 55
3 57 218 220
3 220 219 22
3 218 219 220
3 58 221 223
3 223 222 57
3 221 222 223
3 58 224 225
3 226 59 227
3 228 59 229
3 232 231 59
3 230 231 232
3 60 233 234
3 61 235 237
3 237 236 60
3 235 236 237
3 61 238 239
3 240 61 241
3 242 241 7
3 240 241 242
3 243 61 244
3 246 245 61
3 62 247 248
3 62 249 250
3 62 251 253
3 251 63 252
3 251 252 253
3 64 63 62
3 64 9 63
3 28 64 8
3 65 64 28
3 65 9 64
3 65 38 9
3 60 38 65
3 60 254 256
3 256 255 38
3 254 255 256
3 66 67 3
3 68 67 66
3 68 11 67
3 30 68 10
3 69 68 30
3 69 11 68
3 69 44 11
3 70 44 69
3 70 5 44
3 71 72 2
3 73 72 71
3 73 14 72
3 32 73 13
3 74 73 32
3 74 14 73
3 74 51 14
3 75 51 74
3 75 6 51
3 75 76 6
3 257 76 258
3 259 258 75
3 257 258 259
3 261 260 76
3 263 262 15
3 77 264 265
3 78 266 268
3 268 267 77
3 266 267 268
3 78 269 270
3 34 78 16
3 79 78 34
3 79 271 273
3 273 272 78
3 271 272 273
3 79 274 275
3 80 276 278
3 278 277 79
3 276 277 278
3 80 279 280
3 80 281 282
3 81 283 285
3 285 284 80
3 283 284 285
3 81 286 287
3 36 81 17
3 82 81 36
3 82 288 290
3 290 289 81
3 288 289 290
3 82 291 292
3 66 293 295
3 295 294 82
3 293 294 295
3 66 296 298
3 296 3 297
3 296 297 298
3 299 83 300
3 301 300 4
3 299 300 301
3 302 83 303
3 305 304 83
3 84 85 1
3 86 85 84
3 86 19 85
3 306 86 307
3 308 307 18
3 306 307 308
3 309 86 310
3 311 19 312
3 313 312 86
3 311 312 313
3 314 48 315
3 316 315 19
3 314 315 316
3 317 48 318
3 319 2 320
3 321 320 48
3 319 320 321
3 87 322 323
3 87 324 326
3 324 2 325
3 324 325 326
3 87 71 2
3 88 71 87
3 88 13 71
3 327 88 328
3 329 328 20
3 327 328 329
3 330 88 331
3 332 13 333
3 334 333 88
3 332 333 334
3 336 335 13
3 63 337 338
3 89 339 341
3 341 340 63
3 339 340 341
3 89 342 343
3 39 89 9
3 90 89 39
3 90 344 346
3 346 345 89
3 344 345 346
3 90 347 348
3 91 349 351
3 351 350 90
3 349 350 351
3 91 352 353
3 91 354 356
3 354 77 355
3 354 355 356
3 92 77 91
3 92 16 77
3 41 92 21
3 93 92 41
3 93 16 92
3 93 33 16
3 84 33 93
3 84 1 33
3 94 95 0
3 96 95 94
3 96 22 95
3 42 357 359
3 357 96 358
3 357 358 359
3 97 96 42
3 97 22 96
3 97 57 22
3 98 57 97
3 98 4 57
3 67 43 3
3 99 43 67
3 99 23 43
3 45 99 11
3 100 99 45
3 100 23 99
3 100 98 23
3 101 98 100
3 101 4 98
3 101 360 362
3 362 361 4
3 360 361 362
3 364 363 101
3 366 365 24
3 85 31 1
3 102 31 85
3 102 12 31
3 49 102 19
3 103 102 49
3 103 12 102
3 103 70 12
3 104 70 103
3 104 5 70
3 72 50 2
3 105 50 72
3 105 25 50
3 52 105 14
3 106 105 52
3 106 25 105
3 106 104 25
3 107 104 106
3 107 5 104
3 107 47 5
3 367 47 368
3 369 368 107
3 367 368 369
3 371 370 47
3 373 372 26
3 55 374 375
3 108 376 378
3 378 377 55
3 376 377 378
3 108 379 380
3 108 381 382
3 384 383 108
3 76 56 6
3 385 56 386
3 387 386 76
3 385 386 387
3 388 27 389
3 390 389 56
3 388 389 390
3 391 27 392
3 394 393 27
3 94 395 396
3 94 397 399
3 397 0 398
3 397 398 399
3 400 0 401
3 95 402 404
3 404 403 0
3 402 403 404
3 109 405 407
3 407 406 95
3 405 406 407
3 109 408 409
3 410 109 411
3 412 411 22
3 410 411 412
3 413 109 414
3 416 415 109
3 83 58 4
3 110 58 83
3 110 417 419
3 419 418 58
3 417 418 419
3 59 420 422
3 420 110 421
3 420 421 422
3 423 110 424
3 425 424 59
3 423 424 425
3 427 426 110
