ply
format ascii 1.0
element vertex 578
property float x
property float y
property float z
element face 554
property list uchar int vertex_index
end_header
-21.638996 -104.221436 24.208786
-8.880409 -106.06105 39.195499
-27.066185 -116.647919 7.003837
-6.040543 -122.448044 13.817093
-14.256497 -107.14679 31.642313
-14.005286 -115.831711 19.727238
-15.990278 -122.60614 8.701454
-5.793194 -98.949203 40.993088
-13.397329 -99.353348 44.368782
-19.252331 -95.323669 36.48357
-21.650375 -84.9104 45.583496
-17.722828 -105.799225 27.33717
-13.947025 -111.467178 25.496651
-18.129524 -110.380005 21.71978
-18.897633 -114.736343 16.749163
-22.765997 -108.977631 19.365032
-16.272814 -97.649872 40.310184
-17.517391 -91.955933 43.412331
-7.097744 -103.101166 40.791138
-5.852997 -107.084015 35.701668
-21.527126 -120.168442 7.32807
-17.795033 -123.926102 3.021054
-23.342213 -120.497604 2.388636
-25.855238 -119.505646 -2.421434
-28.892775 -116.114014 2.6725
-11.285627 -107.406738 35.964355
-9.712397 -115.789062 23.516399
-10.708435 -123.485428 10.962181
-14.709544 -119.756241 14.219709
-20.073219 -118.195206 12.083235
-25.560204 -115.71434 11.184525
-11.539417 -103.423752 41.951065
-14.278686 -103.085556 38.02713
-17.269833 -101.473816 33.626919
-20.574678 -99.498322 29.95853
-20.534122 -89.611893 40.568939
-24.180958 -98.139542 28.030033
-12.372656 -125.788925 4.532166
-19.630177 -104.982773 25.563988
-17.899279 -108.081558 24.437405
-19.989899 -107.340622 22.839212
-20.405678 -109.676727 20.321377
-22.177822 -106.637161 21.679955
-7.913792 -104.763962 40.199364
-6.628277 -105.104279 38.305603
-7.37159 -106.770615 37.556419
-4.493393 -123.093277 11.74914
-24.306112 -118.514297 7.029908
-22.371172 -120.526962 4.870198
-25.148197 -118.624146 4.730924
-26.119129 -118.384705 2.418043
-12.706097 -107.456345 33.877777
-10.859877 -109.449509 32.884544
-12.397369 -109.537292 30.74548
-13.901736 -113.66774 22.566093
-11.848242 -113.827423 24.58017
-11.768862 -115.985382 21.569841
-12.17543 -120.052277 15.65732
-14.276582 -117.888535 16.956785
-21.484108 -113.93721 15.765991
-19.44348 -116.621262 14.406096
-22.130508 -115.676437 13.615027
-22.820255 -117.046555 11.467495
-24.830465 -114.588974 13.192254
-12.575977 -101.540527 43.169197
-12.879963 -103.45546 40.118271
-13.973102 -101.175385 41.22131
-17.740904 -96.49791 38.296413
-16.861559 -99.490555 36.943687
-18.379108 -98.398666 34.910385
-18.879982 -100.465576 31.62842
-19.962708 -97.320312 33.144241
-20.128201 -85.747391 46.425385
-19.55658 -88.095444 44.034004
-21.083593 -87.123779 43.004715
-13.296169 -123.268295 9.735656
-11.448538 -124.821838 7.763455
-14.093466 -124.374817 6.720985
-18.944267 -123.983185 0.169012
-16.194172 -125.390518 0.620174
-28.629961 -117.15799 -2.021053
-15.929918 -106.559402 29.41058
-14.091192 -109.28244 28.52562
-15.928566 -108.76416 26.374954
-15.969252 -111.008026 23.480537
-16.112839 -113.239944 20.726675
-16.392204 -115.390991 18.091629
-18.456909 -112.625931 19.169447
-20.90337 -111.906662 17.980646
-14.830657 -98.642227 42.382042
-15.495035 -95.959152 43.677605
-16.95462 -94.777115 41.733185
-18.433212 -93.5327 39.924149
-6.405088 -101.137573 41.027531
-6.077158 -103.131546 38.666687
-2.298992 -123.31871 7.214334
-4.07242 -124.970963 5.817498
-6.119875 -126.125168 4.474324
-8.403444 -126.744583 3.243722
-18.746286 -121.552719 7.8909
-16.820988 -123.470261 5.878182
-19.589972 -122.165604 5.256014
-20.564964 -122.371628 2.590533
-21.713757 -122.203537 -0.058826
-23.078821 -121.70929 -2.626463
-24.489874 -120.135986 -0.064222
-27.269289 -117.871307 0.145988
-30.047836 -115.497986 0.554816
-10.006359 -106.947357 37.768902
-8.328367 -108.071259 36.382866
-9.496641 -108.967682 34.801826
-12.080076 -111.666458 27.640547
-9.976055 -113.650131 26.645615
-8.274389 -123.218063 12.340301
-10.153381 -121.836792 14.125523
-12.654169 -121.806335 12.710018
-15.285964 -121.352295 11.477978
-16.811749 -117.378845 15.536228
-17.356071 -119.11705 13.012241
-18.004539 -120.527435 10.474068
-20.768358 -119.390381 9.732809
-23.541862 -117.997025 9.2788
-26.297276 -116.395355 9.124833
-6.282404 -99.112549 43.319771
-7.158045 -101.072556 43.185318
-9.146513 -104.04834 41.899094
-10.25783 -102.950821 43.428673
-10.293362 -104.942245 40.645782
-11.546213 -105.398758 38.992592
-12.899862 -105.428558 37.011848
-14.349496 -105.078125 34.821251
-15.397791 -100.458206 39.098358
-15.739241 -102.389557 35.811897
-15.894108 -104.427612 32.56794
-17.536484 -103.584641 30.41016
-19.279331 -102.673172 28.500217
-21.11903 -101.817566 26.970524
-18.042414 -89.285843 45.356773
-19.012875 -90.704514 41.844856
-19.94693 -92.363876 38.374954
-22.081898 -88.783371 39.661129
-21.615801 -96.38739 31.769613
-22.34827 -98.693222 28.732674
-23.040075 -101.123657 25.922813
-24.428219 -106.038818 21.025089
-6.601221 -108.76741 34.786377
-9.801403 -125.985031 5.582063
-10.87756 -126.816605 2.171957
-15.052617 -125.086456 3.672337
-13.491259 -126.35347 1.291049
-5.046055 -121.815384 14.571542
-5.880453 -121.473374 15.542363
-5.266968 -122.77066 12.783117
-4.27248 -122.138001 13.537566
-5.046055 -121.815384 14.571542
-6.320502 -123.319748 12.070175
-5.546926 -123.642364 11.036199
-5.266968 -122.77066 12.783117
-27.489708 -116.587433 5.921795
-26.530714 -117.575547 4.785339
-26.107191 -117.636032 5.86738
-12.940727 -116.958199 19.164601
-11.822515 -117.035034 20.085903
-12.887074 -115.908546 20.648539
-14.140934 -116.860123 18.342011
-13.076375 -117.986611 17.779375
-12.940727 -116.958199 19.164601
-23.11959 -114.361 14.399998
-21.807308 -114.806824 14.690509
-22.79639 -113.491387 15.47548
-24.469568 -113.817268 14.188612
-23.480486 -115.132706 13.40364
-23.11959 -114.361 14.399998
-12.679466 -99.521133 45.256275
-12.978428 -98.487717 45.906536
-12.986653 -100.446937 43.76899
-12.26879 -100.614723 44.656482
-12.679466 -99.521133 45.256275
-21.209648 -84.283386 47.252127
-21.518335 -83.297062 48.552528
-21.959063 -83.924076 46.883898
-20.889288 -85.328895 46.004441
-20.448561 -84.701881 47.673071
-21.209648 -84.283386 47.252127
-5.57149 -98.753517 39.770164
-5.502714 -97.781364 40.885511
-18.245504 -124.640084 -1.10623
-19.625177 -123.827072 -1.223973
-29.414348 -116.729584 -3.019064
-30.010721 -115.957016 -1.738827
-23.089599 -110.061951 18.29272
-22.158285 -111.526466 17.600527
-21.834683 -110.442147 18.672839
-15.023141 -95.187927 45.341515
-14.765109 -96.452423 44.65075
-17.236005 -93.366524 42.572758
-16.495349 -94.007667 43.452093
-16.776735 -92.597077 44.291666
-5.610525 -106.088455 35.95565
-5.998164 -105.098588 37.257618
-6.240637 -106.094147 37.003636
-5.132284 -107.058716 34.66303
-5.610525 -106.088455 35.95565
-2.767586 -123.344818 8.369807
-1.937891 -122.409271 9.06901
-3.6543 -124.170944 7.671389
-3.185706 -124.144836 6.515916
-2.767586 -123.344818 8.369807
-6.754803 -125.88575 5.634088
-5.653298 -125.446617 6.300431
-7.896587 -126.195458 5.018787
-7.26166 -126.434876 3.859023
-6.754803 -125.88575 5.634088
-9.875079 -110.230782 32.318441
-10.623279 -110.490372 31.328525
-8.789819 -115.494766 24.483892
-8.921648 -114.4253 26.0485
-9.844226 -114.719596 25.081007
-8.666804 -116.556266 22.870859
-8.789819 -115.494766 24.483892
-9.973961 -120.893814 15.694492
-8.990541 -121.621384 14.89677
-6.530176 -99.068382 44.415953
-6.003182 -98.086593 44.442309
-6.967996 -100.048386 44.348726
-6.720225 -100.092553 43.252544
-6.530176 -99.068382 44.415953
-9.092232 -103.041336 43.201565
-8.625901 -103.394737 42.316872
-10.898623 -103.187286 42.689869
-10.729495 -102.218056 44.127483
-11.370288 -102.454521 43.388679
-18.32199 -88.060242 46.445768
-17.556909 -88.687126 47.10993
-22.863511 -88.534988 39.414633
-22.35029 -87.616119 40.990137
-22.026574 -94.913551 32.856734
-21.216954 -95.325981 33.384399
-23.264614 -98.416382 28.381353
-22.838332 -97.199905 29.805704
-23.754676 -96.923066 29.454384
-25.137083 -104.605446 22.03744
-24.075989 -104.820678 22.190599
-7.110224 -109.42778 34.120541
-7.464794 -108.419334 35.584621
-7.973797 -109.079704 34.918785
-9.821418 -124.126861 9.969707
-8.604395 -123.993179 10.658767
-9.491412 -123.351745 11.651241
-14.157127 -126.429787 -0.31153
-14.842715 -125.871994 0.955611
-15.508583 -125.948311 -0.646967
-12.831615 -126.794098 0.037727
-14.157127 -126.429787 -0.31153
-25.271937 -120.221435 -3.729025
-23.883729 -121.323257 -3.831539
-24.46703 -120.607468 -2.523949
-17.026592 -91.270996 45.155727
-16.776735 -92.597077 44.291666
-3.574891 -122.297432 12.469145
-4.27248 -122.138001 13.537566
-3.864786 -123.232101 10.63721
-3.574891 -122.297432 12.469145
-4.840057 -123.930672 9.937839
-3.864786 -123.232101 10.63721
-4.840057 -123.930672 9.937839
-5.546926 -123.642364 11.036199
-27.01618 -117.455826 3.628899
-25.633663 -118.504425 3.574483
-26.530714 -117.575547 4.785339
-28.403003 -116.320481 3.756127
-27.505952 -117.249359 2.545272
-27.01618 -117.455826 3.628899
-11.392025 -110.534263 30.258994
-10.623279 -110.490372 31.328525
-11.628623 -109.493401 31.815012
-10.707406 -116.947418 20.979983
-9.679173 -116.849258 21.953262
-10.74063 -115.887222 22.54312
-10.707406 -116.947418 20.979983
-11.822515 -117.035034 20.085903
-12.025799 -119.068482 17.129642
-10.984986 -120.001556 16.460391
-13.226006 -118.970406 16.307053
-12.025799 -119.068482 17.129642
-13.076375 -117.986611 17.779375
-11.888568 -101.512909 43.997745
-12.26879 -100.614723 44.656482
-12.057697 -102.482139 42.560131
-11.370288 -102.454521 43.388679
-11.888568 -101.512909 43.997745
-19.686573 -85.187797 48.151079
-20.448561 -84.701881 47.673071
-19.364883 -86.291016 46.980074
-19.686573 -85.187797 48.151079
-19.842391 -86.921417 45.229695
-19.079073 -87.465043 45.784384
-19.364883 -86.291016 46.980074
-24.62863 -96.740494 29.276995
-23.754676 -96.923066 29.454384
-16.870456 -125.34375 -0.880649
-17.569219 -124.686852 0.394593
-18.245504 -124.640084 -1.10623
-15.508583 -125.948311 -0.646967
-16.870456 -125.34375 -0.880649
-28.042857 -117.90979 -3.315624
-26.655496 -119.083619 -3.515815
-27.2426 -118.331818 -2.221243
-28.042857 -117.90979 -3.315624
-29.414348 -116.729584 -3.019064
-22.448654 -112.541741 16.493199
-21.193739 -112.921936 16.873318
-22.158285 -111.526466 17.600527
-22.79639 -113.491387 15.47548
-22.448654 -112.541741 16.493199
-13.716255 -98.149521 44.996338
-12.978428 -98.487717 45.906536
-14.43292 -97.79396 44.002968
-14.113993 -98.997788 43.375412
-13.716255 -98.149521 44.996338
-15.162846 -97.30069 43.029823
-14.43292 -97.79396 44.002968
-14.765109 -96.452423 44.65075
-15.765557 -94.598686 44.424303
-15.023141 -95.187927 45.341515
-16.224827 -95.368133 42.705395
-15.765557 -94.598686 44.424303
-16.495349 -94.007667 43.452093
-22.405183 -84.641319 45.310089
-21.959063 -83.924076 46.883898
-22.134529 -85.679634 43.95132
-22.405183 -84.641319 45.310089
-6.038809 -101.030822 39.871601
-5.732862 -99.936637 39.85438
-6.099141 -100.043388 41.01031
-5.874843 -102.027809 38.69118
-6.038809 -101.030822 39.871601
-6.241123 -102.134559 39.847109
-5.593447 -102.996453 37.517404
-5.874843 -102.027809 38.69118
-5.722605 -104.112221 37.43816
-6.352717 -104.117913 38.486145
-5.998164 -105.098588 37.257618
-5.593447 -102.996453 37.517404
-5.722605 -104.112221 37.43816
-1.565252 -122.272148 7.906146
-1.937891 -122.409271 9.06901
-1.990354 -123.148658 6.048125
-1.565252 -122.272148 7.906146
-2.784518 -124.075561 5.339962
-1.990354 -123.148658 6.048125
-3.671232 -124.901688 4.641544
-2.784518 -124.075561 5.339962
-3.185706 -124.144836 6.515916
-4.610017 -125.596893 3.953882
-3.671232 -124.901688 4.641544
-4.62957 -124.869515 6.972017
-3.6543 -124.170944 7.671389
-5.096148 -125.548066 5.145911
-4.62957 -124.869515 6.972017
-5.653298 -125.446617 6.300431
-5.633745 -126.173996 3.282296
-4.610017 -125.596893 3.953882
-5.096148 -125.548066 5.145911
-6.702215 -126.61319 2.64639
-5.633745 -126.173996 3.282296
-7.843999 -126.922898 2.031089
-6.702215 -126.61319 2.64639
-7.26166 -126.434876 3.859023
-9.022673 -127.092201 1.473534
-7.843999 -126.922898 2.031089
-21.009922 -122.937248 -1.337892
-19.625177 -123.827072 -1.223973
-20.329012 -123.093361 0.055093
-22.396289 -121.956413 -1.342645
-21.692454 -122.690124 -2.62171
-21.009922 -122.937248 -1.337892
-30.719659 -115.127014 -0.450892
-30.010721 -115.957016 -1.738827
-29.338898 -116.327988 -0.733119
-8.557934 -109.527916 34.128265
-7.973797 -109.079704 34.918785
-8.912504 -108.51947 35.592346
-9.193461 -109.989868 33.277082
-10.178259 -109.208596 33.843185
-9.875079 -110.230782 32.318441
-8.557934 -109.527916 34.128265
-9.193461 -109.989868 33.277082
-11.233379 -111.598847 28.706527
-11.392025 -110.534263 30.258994
-12.238722 -110.601875 29.193013
-10.181368 -112.590683 28.209061
-11.233379 -111.598847 28.706527
-11.028066 -112.658295 27.143081
-9.144459 -113.370002 27.638443
-10.181368 -112.590683 28.209061
-9.144459 -113.370002 27.638443
-8.921648 -114.4253 26.0485
-8.666804 -116.556266 22.870859
-9.679173 -116.849258 21.953262
-6.934123 -121.927009 14.742555
-5.880453 -121.473374 15.542363
-8.051046 -122.312019 14.004159
-7.157466 -122.833054 13.078697
-6.934123 -121.927009 14.742555
-9.213885 -122.527428 13.232912
-8.051046 -122.312019 14.004159
-8.990541 -121.621384 14.89677
-11.164406 -120.944535 14.891421
-9.973961 -120.893814 15.694492
-10.984986 -120.001556 16.460391
-5.621633 -97.944198 42.10764
-5.502714 -97.781364 40.885511
-5.866238 -98.025871 43.270981
-6.003182 -98.086593 44.442309
-6.037799 -99.030876 42.15643
-5.621633 -97.944198 42.10764
-5.866238 -98.025871 43.270981
-7.51891 -100.889443 44.183971
-6.967996 -100.048386 44.348726
-7.631666 -101.906846 42.959984
-7.51891 -100.889443 44.183971
-7.601516 -102.921151 41.762894
-7.127895 -102.086861 41.988228
-7.631666 -101.906846 42.959984
-8.00954 -103.752549 41.467007
-7.505768 -103.932564 40.495251
-7.601516 -102.921151 41.762894
-8.530152 -104.406151 41.049229
-8.00954 -103.752549 41.467007
-8.625901 -103.394737 42.316872
-10.053939 -101.9646 44.773877
-10.729495 -102.218056 44.127483
-9.64789 -102.492577 43.966355
-10.053939 -101.9646 44.773877
-9.702172 -103.499581 42.663883
-9.092232 -103.041336 43.201565
-9.64789 -102.492577 43.966355
-17.289104 -89.935952 46.127949
-17.556909 -88.687126 47.10993
-17.779902 -90.620888 44.384552
-17.026592 -91.270996 45.155727
-17.289104 -89.935952 46.127949
-18.799497 -88.690643 44.695388
-18.32199 -88.060242 46.445768
-19.079073 -87.465043 45.784384
-21.851138 -86.786324 42.66193
-21.366984 -86.017089 44.294106
-22.134529 -85.679634 43.95132
-21.582746 -87.953575 41.332922
-21.851138 -86.786324 42.66193
-22.35029 -87.616119 40.990137
-22.587639 -89.755646 38.050596
-22.863511 -88.534988 39.414633
-21.792165 -90.090042 38.425085
-22.587639 -89.755646 38.050596
-21.018277 -90.504303 38.87899
-21.30801 -89.197632 40.115034
-21.792165 -90.090042 38.425085
-20.724681 -91.880295 37.781998
-20.240526 -90.987885 39.471947
-21.018277 -90.504303 38.87899
-20.382519 -93.314224 36.687069
-20.724681 -91.880295 37.781998
-20.03522 -94.79412 35.741377
-19.59963 -93.843773 37.429262
-20.382519 -93.314224 36.687069
-20.390408 -95.792442 34.071713
-19.60752 -96.32199 34.813906
-20.03522 -94.79412 35.741377
-20.789254 -96.853851 32.456927
-20.390408 -95.792442 34.071713
-21.216954 -95.325981 33.384399
-22.472098 -96.046989 31.324174
-22.026574 -94.913551 32.856734
-21.982036 -97.540306 30.251143
-22.472098 -96.046989 31.324174
-22.838332 -97.199905 29.805704
-25.110253 -98.008736 27.95814
-24.62863 -96.740494 29.276995
-24.59691 -99.399681 26.724849
-25.110253 -98.008736 27.95814
-24.026468 -100.891739 25.671239
-23.610517 -99.631599 26.976423
-24.59691 -99.399681 26.724849
-23.381917 -102.363098 24.63946
-24.026468 -100.891739 25.671239
-22.681377 -103.911987 23.782447
-22.339536 -102.672546 25.0658
-23.381917 -102.363098 24.63946
-22.950791 -105.11985 22.518031
-21.908409 -105.429299 22.94437
-22.681377 -103.911987 23.782447
-23.30302 -106.33799 21.352522
-22.950791 -105.11985 22.518031
-24.075989 -104.820678 22.190599
-25.561992 -105.804665 20.962263
-25.137083 -104.605446 22.03744
-24.798273 -107.185318 19.961085
-25.561992 -105.804665 20.962263
-23.967162 -108.654725 19.131056
-23.597108 -107.508225 20.195061
-24.798273 -107.185318 19.961085
-23.089599 -110.061951 18.29272
-23.967162 -108.654725 19.131056
-25.778132 -113.337585 14.107139
-24.469568 -113.817268 14.188612
-26.16674 -113.985207 13.168402
-25.778132 -113.337585 14.107139
-26.53161 -114.547889 12.164538
-25.195335 -115.151657 12.188389
-26.16674 -113.985207 13.168402
-26.910883 -114.9702 11.209988
-26.53161 -114.547889 12.164538
-27.279419 -115.310707 10.180142
-25.92874 -116.054847 10.154679
-26.910883 -114.9702 11.209988
-27.655327 -115.50959 9.196542
-27.279419 -115.310707 10.180142
-28.039782 -115.635872 8.136043
-26.681731 -116.521637 8.064335
-27.655327 -115.50959 9.196542
-28.430571 -115.634819 7.123575
-28.039782 -115.635872 8.136043
-27.489708 -116.587433 5.921795
-28.430571 -115.634819 7.123575
-29.77561 -115.20755 3.928502
-28.403003 -116.320481 3.756127
-30.273372 -114.936882 2.901978
-29.77561 -115.20755 3.928502
-30.850903 -114.628868 1.843135
-29.470306 -115.806 1.613658
-30.273372 -114.936882 2.901978
-31.428621 -114.294433 0.842579
-30.850903 -114.628868 1.843135
-30.719659 -115.127014 -0.450892
-31.428621 -114.294433 0.842579
-5.57149 -98.753517 39.770164
-5.732862 -99.936637 39.85438
-6.176096 -109.76995 33.330238
-7.110224 -109.42778 34.120541
-5.760568 -108.912071 33.869507
-6.176096 -109.76995 33.330238
-5.386456 -108.070373 34.327152
-6.227109 -107.925713 35.244022
-5.760568 -108.912071 33.869507
-5.132284 -107.058716 34.66303
-5.386456 -108.070373 34.327152
-7.437424 -123.704757 11.331779
-6.320502 -123.319748 12.070175
-7.157466 -122.833054 13.078697
-7.437424 -123.704757 11.331779
-8.604395 -123.993179 10.658767
-10.19147 -124.795066 8.370344
-9.821418 -124.126861 9.969707
-11.078487 -124.153633 9.362818
-9.367902 -125.376663 7.279648
-10.19147 -124.795066 8.370344
-10.62497 -125.403435 6.672759
-8.595567 -125.815682 6.187957
-9.367902 -125.376663 7.279648
-9.102424 -126.364807 4.412892
-7.896587 -126.195458 5.018787
-8.595567 -125.815682 6.187957
-10.259732 -127.128212 0.937652
-9.022673 -127.092201 1.473534
-9.640502 -126.780594 2.707839
-11.524765 -127.025666 0.478181
-12.18441 -126.585037 1.731503
-12.831615 -126.794098 0.037727
-10.259732 -127.128212 0.937652
-11.524765 -127.025666 0.478181
-22.495336 -122.368095 -3.94393
-21.692454 -122.690124 -2.62171
-22.495336 -122.368095 -3.94393
-23.883729 -121.323257 -3.831539
-25.271937 -120.221435 -3.729025
-26.655496 -119.083619 -3.515815
3 0 40 38
3 0 42 40
3 1 45 43
3 3 150 151
3 3 152 154
3 152 46 153
3 152 153 154
3 3 155 157
3 157 156 46
3 155 156 157
3 2 49 47
3 2 158 160
3 160 159 49
3 158 159 160
3 4 53 51
3 5 56 54
3 5 161 163
3 163 162 56
3 161 162 163
3 5 164 166
3 164 58 165
3 164 165 166
3 167 61 168
3 169 168 59
3 167 168 169
3 170 63 171
3 172 171 61
3 170 171 172
3 8 173 174
3 8 175 177
3 175 64 176
3 175 176 177
3 8 66 64
3 9 69 67
3 9 71 69
3 10 178 180
3 178 179 180
3 10 181 183
3 181 72 182
3 181 182 183
3 10 74 72
3 7 184 185
3 6 77 75
3 187 186 78
3 189 188 80
3 11 83 81
3 13 84 39
3 13 85 84
3 13 87 85
3 15 88 41
3 15 190 192
3 192 191 88
3 190 191 192
3 193 90 194
3 17 195 197
3 195 91 196
3 195 196 197
3 17 92 91
3 18 94 93
3 19 198 200
3 200 199 44
3 198 199 200
3 19 201 202
3 203 95 204
3 205 96 206
3 207 206 95
3 205 206 207
3 208 97 209
3 210 98 211
3 212 211 97
3 210 211 212
3 20 101 99
3 22 102 48
3 22 103 102
3 22 105 103
3 24 106 50
3 24 107 106
3 25 110 108
3 214 213 52
3 12 111 82
3 26 112 55
3 26 215 217
3 217 216 112
3 215 216 217
3 26 218 219
3 220 114 221
3 28 115 57
3 28 116 115
3 14 117 86
3 29 118 60
3 29 119 118
3 29 120 119
3 30 121 62
3 30 122 121
3 222 123 223
3 224 124 225
3 226 225 123
3 224 225 226
3 227 125 228
3 31 229 231
3 229 126 230
3 229 230 231
3 31 127 126
3 31 128 127
3 32 129 65
3 32 130 129
3 16 131 89
3 33 132 68
3 33 133 132
3 33 134 133
3 34 135 70
3 34 136 135
3 232 137 233
3 35 138 73
3 35 139 138
3 234 140 235
3 236 141 237
3 36 238 240
3 238 142 239
3 238 239 240
3 36 143 142
3 241 144 242
3 243 145 244
3 245 244 109
3 243 244 245
3 27 246 248
3 248 247 113
3 246 247 248
3 37 146 76
3 37 147 146
3 21 148 100
3 249 149 250
3 251 250 79
3 249 250 251
3 253 252 149
3 23 254 256
3 256 255 104
3 254 255 256
3 38 39 11
3 40 39 38
3 40 13 39
3 40 41 13
3 42 41 40
3 42 15 41
3 257 17 258
3 43 44 18
3 45 44 43
3 45 19 44
3 46 259 260
3 46 261 262
3 46 263 264
3 266 265 46
3 47 48 20
3 49 48 47
3 49 22 48
3 49 50 22
3 267 50 268
3 269 268 49
3 267 268 269
3 270 24 271
3 272 271 50
3 270 271 272
3 51 52 25
3 53 52 51
3 53 273 275
3 275 274 52
3 273 274 275
3 54 55 12
3 56 55 54
3 56 26 55
3 56 276 278
3 278 277 26
3 276 277 278
3 280 279 56
3 281 57 282
3 58 283 285
3 283 57 284
3 283 284 285
3 58 28 57
3 59 60 14
3 61 60 59
3 61 29 60
3 61 62 29
3 63 62 61
3 63 30 62
3 64 286 287
3 64 288 290
3 288 31 289
3 288 289 290
3 64 65 31
3 66 65 64
3 66 32 65
3 67 68 16
3 69 68 67
3 69 33 68
3 69 70 33
3 71 70 69
3 71 34 70
3 72 291 292
3 72 293 294
3 72 295 297
3 295 73 296
3 295 296 297
3 74 73 72
3 74 35 73
3 298 36 299
3 75 76 27
3 77 76 75
3 77 37 76
3 78 79 21
3 300 79 301
3 302 301 78
3 300 301 302
3 304 303 79
3 80 305 307
3 307 306 23
3 305 306 307
3 309 308 80
3 81 82 4
3 83 82 81
3 83 12 82
3 39 83 11
3 84 83 39
3 84 12 83
3 84 54 12
3 85 54 84
3 85 5 54
3 85 86 5
3 87 86 85
3 87 14 86
3 41 87 13
3 88 87 41
3 88 14 87
3 88 59 14
3 310 59 311
3 312 311 88
3 310 311 312
3 314 313 59
3 315 8 316
3 317 89 318
3 319 318 8
3 317 318 319
3 90 320 322
3 320 89 321
3 320 321 322
3 90 16 89
3 323 90 324
3 91 325 327
3 325 90 326
3 325 326 327
3 91 16 90
3 91 67 16
3 92 67 91
3 92 9 67
3 328 10 329
3 331 330 10
3 93 332 334
3 334 333 7
3 332 333 334
3 94 335 337
3 337 336 93
3 335 336 337
3 94 338 339
3 44 94 18
3 340 94 341
3 342 341 44
3 340 341 342
3 344 343 94
3 95 345 346
3 95 347 348
3 95 349 350
3 96 351 353
3 353 352 95
3 351 352 353
3 96 354 355
3 356 96 357
3 97 358 360
3 358 96 359
3 358 359 360
3 97 361 363
3 363 362 96
3 361 362 363
3 97 364 365
3 98 366 368
3 368 367 97
3 366 367 368
3 98 369 370
3 99 100 6
3 101 100 99
3 101 21 100
3 48 101 20
3 102 101 48
3 102 21 101
3 102 78 21
3 103 78 102
3 103 371 373
3 373 372 78
3 371 372 373
3 103 374 376
3 374 104 375
3 374 375 376
3 105 104 103
3 105 23 104
3 50 105 22
3 106 105 50
3 106 23 105
3 106 80 23
3 107 80 106
3 107 377 379
3 379 378 80
3 377 378 379
3 108 109 1
3 110 109 108
3 110 380 382
3 382 381 109
3 380 381 382
3 52 110 25
3 383 110 384
3 385 384 52
3 383 384 385
3 387 386 110
3 82 53 4
3 111 53 82
3 111 388 390
3 390 389 53
3 388 389 390
3 55 111 12
3 112 111 55
3 112 391 393
3 393 392 111
3 391 392 393
3 112 394 395
3 397 396 112
3 399 398 26
3 400 3 401
3 402 113 403
3 404 403 3
3 402 403 404
3 114 405 407
3 405 113 406
3 405 406 407
3 114 27 113
3 57 408 410
3 408 114 409
3 408 409 410
3 115 114 57
3 115 27 114
3 115 75 27
3 116 75 115
3 116 6 75
3 86 58 5
3 117 58 86
3 117 28 58
3 60 117 14
3 118 117 60
3 118 28 117
3 118 116 28
3 119 116 118
3 119 6 116
3 119 99 6
3 120 99 119
3 120 20 99
3 62 120 29
3 121 120 62
3 121 20 120
3 121 47 20
3 122 47 121
3 122 2 47
3 411 7 412
3 123 413 414
3 123 415 417
3 415 7 416
3 415 416 417
3 123 93 7
3 124 93 123
3 124 18 93
3 418 124 419
3 420 124 421
3 422 18 423
3 424 423 124
3 422 423 424
3 425 43 426
3 427 426 18
3 425 426 427
3 125 428 430
3 428 43 429
3 428 429 430
3 125 1 43
3 126 431 432
3 126 433 434
3 126 435 437
3 435 125 436
3 435 436 437
3 127 125 126
3 127 1 125
3 127 108 1
3 128 108 127
3 128 25 108
3 65 128 31
3 129 128 65
3 129 25 128
3 129 51 25
3 130 51 129
3 130 4 51
3 89 66 8
3 131 66 89
3 131 32 66
3 68 131 16
3 132 131 68
3 132 32 131
3 132 130 32
3 133 130 132
3 133 4 130
3 133 81 4
3 134 81 133
3 134 11 81
3 70 134 33
3 135 134 70
3 135 11 134
3 135 38 11
3 136 38 135
3 136 0 38
3 137 438 439
3 137 440 442
3 440 17 441
3 440 441 442
3 73 443 445
3 443 137 444
3 443 444 445
3 138 137 73
3 138 17 137
3 138 92 17
3 139 92 138
3 139 9 92
3 446 74 447
3 448 447 10
3 446 447 448
3 140 449 451
3 449 74 450
3 449 450 451
3 140 35 74
3 452 140 453
3 454 140 455
3 456 35 457
3 458 457 140
3 456 457 458
3 459 139 460
3 461 460 35
3 459 460 461
3 462 139 463
3 464 9 465
3 466 465 139
3 464 465 466
3 467 71 468
3 469 468 9
3 467 468 469
3 141 470 472
3 470 71 471
3 470 471 472
3 141 34 71
3 473 141 474
3 142 475 477
3 475 141 476
3 475 476 477
3 142 34 141
3 142 136 34
3 143 136 142
3 143 0 136
3 478 36 479
3 480 36 481
3 482 143 483
3 484 483 36
3 482 483 484
3 485 143 486
3 487 0 488
3 489 488 143
3 487 488 489
3 490 42 491
3 492 491 0
3 490 491 492
3 144 493 495
3 493 42 494
3 493 494 495
3 144 15 42
3 496 144 497
3 498 144 499
3 500 15 501
3 502 501 144
3 500 501 502
3 504 503 15
3 505 63 506
3 507 63 508
3 509 30 510
3 511 510 63
3 509 510 511
3 512 30 513
3 514 122 515
3 516 515 30
3 514 515 516
3 517 122 518
3 519 2 520
3 521 520 122
3 519 520 521
3 522 2 523
3 525 524 2
3 526 24 527
3 528 24 529
3 530 107 531
3 532 531 24
3 530 531 532
3 533 107 534
3 536 535 107
3 538 537 7
3 109 45 1
3 145 45 109
3 145 19 45
3 539 145 540
3 541 145 542
3 543 19 544
3 545 544 145
3 543 544 545
3 547 546 19
3 113 548 550
3 550 549 3
3 548 549 550
3 552 551 113
3 76 553 555
3 555 554 27
3 553 554 555
3 146 556 558
3 558 557 76
3 556 557 558
3 146 559 560
3 146 561 563
3 561 98 562
3 561 562 563
3 147 98 146
3 147 564 566
3 566 565 98
3 564 565 566
3 100 77 6
3 148 77 100
3 148 37 77
3 79 148 21
3 149 148 79
3 149 37 148
3 149 147 37
3 567 147 568
3 569 568 149
3 567 568 569
3 571 570 147
3 104 572 573
3 575 574 104
3 577 576 23
