ply
format ascii 1.0
element vertex 450
property float x
property float y
property float z
element face 438
property list uchar int vertex_index
end_header
47.168373 -95.936012 -17.028105
26.221745 -120.441315 -3.160427
19.689968 -125.673592 -10.244291
41.956993 -96.531685 -22.793245
51.582611 -82.377319 -21.657412
45.985985 -80.676727 -25.463095
37.286423 -109.558365 -19.439089
29.15435 -109.089119 -21.946951
21.122803 -124.316162 -1.741852
23.193382 -123.686829 -7.202225
18.086479 -126.556046 -4.725187
38.435413 -95.645271 -23.745611
44.025726 -88.799484 -24.040495
28.09935 -119.451736 -16.562773
34.621155 -114.148079 -16.697275
30.735184 -115.375755 -19.531878
33.378941 -109.896835 -21.43799
26.370268 -115.228088 -20.727453
48.63343 -94.477119 -12.514507
51.63961 -87.362144 -11.018845
50.763596 -88.671799 -15.501421
25.53923 -122.146439 -12.363556
44.96479 -96.634224 -20.581755
49.298115 -89.407669 -19.402502
47.025299 -89.449944 -22.287771
49.047615 -81.853195 -23.968767
45.153889 -101.485725 -14.275841
40.496468 -108.090157 -15.820734
42.833805 -102.994713 -18.506525
39.719009 -103.582237 -21.374392
35.977421 -103.217445 -22.698236
19.682751 -125.605362 -3.399363
17.495409 -126.583015 -2.10803
39.586452 -91.615105 -24.301092
26.042406 -119.975868 -17.783064
29.413708 -117.593903 -18.199469
28.585434 -115.474236 -20.321058
25.085796 -117.83445 -19.812838
47.979042 -95.294312 -14.855526
49.641323 -91.681885 -14.033165
49.009537 -92.307976 -16.236483
21.500931 -124.871994 -8.87262
24.330112 -123.043419 -9.868494
22.54418 -124.115898 -11.503242
23.65941 -123.065605 -13.909924
43.551384 -96.682106 -21.861994
46.000195 -93.11557 -21.460714
44.587894 -93.012924 -22.593428
45.01218 -84.775925 -24.709955
46.582973 -85.312439 -24.016195
47.556824 -81.34552 -24.79751
50.050468 -77.967712 -24.906805
48.532307 -77.319229 -25.676893
49.525433 -73.233566 -26.681086
46.967228 -76.510818 -26.331205
45.048767 -102.486107 -10.166935
46.050831 -100.426605 -11.828239
44.101772 -103.759537 -12.717493
35.984032 -112.037254 -18.182741
37.684788 -111.195847 -16.365778
38.989189 -108.958412 -17.814337
41.702961 -105.721817 -17.249205
40.214897 -106.353455 -19.064604
41.374252 -103.407768 -20.135889
38.529419 -106.728325 -20.491438
31.272844 -109.632668 -21.846792
34.689011 -106.688705 -22.120195
32.646519 -106.279434 -22.393538
34.013153 -102.685043 -22.881334
30.614281 -105.618637 -22.402544
52.928925 -84.525276 -12.700314
50.428452 -85.930969 -20.525583
52.55785 -82.388969 -20.137403
56.885788 -75.473045 -19.715509
23.604445 -122.552704 -2.544006
24.760521 -122.184448 -5.276764
22.13332 -124.105026 -4.460449
20.546299 -125.360756 -6.126436
40.230965 -96.185974 -23.403502
43.01059 -92.728493 -23.415964
41.322937 -92.263672 -23.967089
42.369999 -88.217918 -24.56629
30.010033 -118.546646 -14.950071
31.393827 -116.915909 -16.775961
32.760796 -114.92952 -18.321306
34.098953 -112.578529 -19.601748
35.403103 -109.873009 -20.648386
32.058529 -112.803185 -20.594412
29.914042 -112.708832 -21.178679
27.730972 -112.303078 -21.413069
50.138718 -90.90654 -11.708748
51.258469 -88.075165 -13.301624
53.821976 -78.920151 -21.463472
25.9832 -121.627441 -7.953793
27.278292 -120.860916 -10.500174
28.629402 -119.84845 -12.848835
26.802471 -120.960701 -14.611288
24.829285 -121.693184 -16.016394
46.170597 -96.385254 -18.957769
48.209614 -92.762466 -18.249041
47.211124 -93.032822 -20.006117
48.266838 -89.517029 -20.989542
49.334213 -85.892593 -21.950502
45.596558 -89.209785 -23.296049
48.040771 -85.685257 -23.108782
50.404377 -82.198334 -22.932196
47.008125 -98.018387 -13.39023
46.160824 -98.863533 -15.710047
41.813911 -106.980873 -13.532614
42.993271 -104.84903 -15.106447
44.089287 -102.349312 -16.529539
45.137337 -99.511322 -17.807936
43.913799 -99.947495 -19.608706
42.48251 -100.165909 -21.056555
40.860512 -100.166267 -22.127508
36.671452 -106.839973 -21.504343
37.901737 -103.517792 -22.217199
39.08984 -99.951241 -22.834826
37.230362 -99.523575 -23.224627
35.348866 -98.883781 -23.363348
50.122078 -89.122726 -17.555983
54.704643 -78.904495 -19.866259
17.299811 -126.480961 -1.062043
18.181441 -126.107605 -1.473377
26.668387 -118.938877 -18.495241
24.960356 -120.037716 -18.190722
24.482051 -118.967007 -19.205609
26.190081 -117.868168 -19.510128
26.865638 -120.19299 -4.491553
27.577558 -119.260445 -3.352171
20.165847 -125.228764 -11.527672
21.592954 -124.449917 -12.157147
21.117074 -124.894745 -10.873767
44.003647 -104.076565 -10.601278
44.498234 -103.339527 -9.288434
43.530149 -104.71328 -11.876558
44.575269 -103.122822 -11.442214
44.003647 -104.076565 -10.601278
53.823484 -82.801304 -12.471381
53.652109 -83.036984 -13.545549
18.45752 -126.407299 -6.113354
19.68743 -125.809654 -6.813978
19.316389 -125.958401 -5.425812
41.528578 -87.838184 -24.745531
40.978226 -89.916511 -24.433691
40.136804 -89.536777 -24.612932
42.877365 -86.145302 -24.901944
41.528578 -87.838184 -24.745531
49.386074 -92.69183 -12.111628
49.648617 -92.208344 -10.893107
48.895973 -93.993633 -11.295986
51.64605 -86.872116 -15.189087
51.893486 -86.573799 -14.089189
51.011032 -88.373482 -14.401523
23.245577 -122.631305 -15.556181
24.244347 -122.379395 -14.963159
22.66064 -123.317516 -14.502946
23.784683 -121.852326 -16.524601
23.245577 -122.631305 -15.556181
50.258541 -80.153343 -23.970741
50.936922 -80.325913 -23.452455
49.725996 -82.025765 -23.450482
51.288294 -76.313301 -25.003393
50.554103 -75.997803 -25.429279
49.262501 -70.683067 -27.580448
50.037504 -71.158943 -27.253094
48.750429 -72.75769 -27.00844
35.459503 -113.604801 -15.702618
33.913101 -115.021412 -15.832612
39.845697 -109.087071 -15.017284
38.439858 -110.639916 -15.289806
39.090628 -109.643002 -16.093256
41.155189 -107.535515 -14.676674
40.504419 -108.532429 -13.873224
39.845697 -109.087071 -15.017284
33.712927 -100.40327 -23.103363
34.68101 -100.784412 -23.122341
33.045071 -102.303901 -22.862356
34.42882 -98.456176 -23.34206
33.712927 -100.40327 -23.103363
51.782764 -86.963852 -9.86184
51.082662 -88.68684 -10.172322
55.389679 -77.209664 -20.626335
54.263309 -78.912323 -20.664865
54.948346 -77.217491 -21.424942
56.141506 -77.108249 -18.891188
57.204099 -75.392284 -18.789421
19.275112 -125.618778 -2.119044
20.402777 -124.960762 -2.570607
19.995137 -124.974178 -1.290288
18.58908 -126.094189 -2.753697
19.275112 -125.618778 -2.119044
18.181441 -126.107605 -1.473377
38.110277 -93.260292 -24.091957
39.010932 -93.630188 -24.023352
37.534757 -95.275375 -23.814217
38.722831 -91.194699 -24.387335
38.110277 -93.260292 -24.091957
40.136804 -89.536777 -24.612932
38.722831 -91.194699 -24.387335
28.354038 -117.747895 -18.703443
27.728057 -118.784886 -17.991267
26.668387 -118.938877 -18.495241
29.014775 -116.638821 -19.369648
30.074446 -116.484829 -18.865673
28.354038 -117.747895 -18.703443
27.939901 -116.688061 -19.764238
29.660309 -115.424995 -19.926468
29.014775 -116.638821 -19.369648
26.835615 -116.654343 -20.066948
27.939901 -116.688061 -19.764238
26.190081 -117.868168 -19.510128
22.150568 -123.92477 -13.360488
23.101795 -123.590752 -12.706583
21.592954 -124.449917 -12.157147
22.66064 -123.317516 -14.502946
22.150568 -123.92477 -13.360488
49.795023 -75.673561 -25.814324
50.554103 -75.997803 -25.429279
49.291387 -77.643471 -25.291849
49.02887 -75.276398 -26.17899
50.291586 -73.63073 -26.31642
49.795023 -75.673561 -25.814324
47.471327 -74.396316 -26.8335
48.750429 -72.75769 -27.00844
48.24633 -74.872192 -26.506146
45.448415 -101.777371 -8.847653
44.498234 -103.339527 -9.288434
45.924637 -100.844429 -9.716521
45.448415 -101.777371 -8.847653
45.549799 -101.456356 -10.997587
46.425669 -99.814678 -10.547173
45.924637 -100.844429 -9.716521
31.345634 -103.770699 -22.622961
33.045071 -102.303901 -22.862356
32.313717 -104.15184 -22.641939
53.080772 -84.213452 -11.58467
52.436115 -85.631886 -10.743935
52.284267 -85.94371 -11.85958
53.080772 -84.213452 -11.58467
53.823484 -82.801304 -12.471381
50.870718 -85.865467 -19.685288
50.305549 -87.603817 -19.123747
49.863284 -87.669319 -19.964042
51.935417 -84.094467 -19.491197
50.870718 -85.865467 -19.685288
51.493151 -84.159969 -20.331493
52.944317 -82.314518 -19.264175
51.935417 -84.094467 -19.491197
57.609405 -73.805744 -20.559086
56.480251 -75.493938 -20.550961
57.986698 -73.775978 -19.683858
57.609405 -73.805744 -20.559086
57.204099 -75.392284 -18.789421
57.986698 -73.775978 -19.683858
20.164746 -125.565274 -8.18707
21.023615 -125.116375 -7.499528
19.68743 -125.809654 -6.813978
19.259264 -125.966072 -8.872905
20.59545 -125.272793 -9.558456
20.164746 -125.565274 -8.18707
44.198456 -84.424305 -24.973776
43.69109 -86.496921 -24.638123
42.877365 -86.145302 -24.901944
44.685358 -82.374706 -25.350346
45.499083 -82.726326 -25.086525
44.198456 -84.424305 -24.973776
45.186383 -80.260078 -25.737355
44.685358 -82.374706 -25.350346
31.60754 -117.220696 -14.95901
30.882217 -117.924476 -13.971937
32.299437 -116.405327 -15.871955
31.60754 -117.220696 -14.95901
30.70193 -117.731278 -15.863016
33.007491 -115.531994 -16.736618
33.913101 -115.021412 -15.832612
32.299437 -116.405327 -15.871955
50.332217 -90.459038 -10.517274
49.648617 -92.208344 -10.893107
50.889164 -89.134342 -11.363796
51.082662 -88.68684 -10.172322
50.332217 -90.459038 -10.517274
52.728714 -84.798855 -13.788533
52.093697 -86.30022 -13.000969
51.893486 -86.573799 -14.089189
53.652109 -83.036984 -13.545549
52.728714 -84.798855 -13.788533
53.280418 -78.845947 -22.14812
52.702293 -80.648735 -21.560442
52.160736 -80.574532 -22.24509
54.446522 -77.161445 -22.153511
53.280418 -78.845947 -22.14812
54.948346 -77.217491 -21.424942
54.446522 -77.161445 -22.153511
26.135026 -121.064556 -5.549721
26.865638 -120.19299 -4.491553
25.491133 -121.312882 -4.218596
26.746365 -120.786053 -6.888236
26.135026 -121.064556 -5.549721
25.371861 -121.905945 -6.615279
27.428413 -120.453011 -8.168895
26.746365 -120.786053 -6.888236
28.075958 -120.069748 -9.442086
27.428413 -120.453011 -8.168895
26.630746 -121.244179 -9.226983
28.788585 -119.637115 -10.644673
28.075958 -120.069748 -9.442086
29.46414 -119.130882 -11.819004
28.788585 -119.637115 -10.644673
27.953847 -120.354683 -11.674504
30.191902 -118.575378 -12.921319
29.46414 -119.130882 -11.819004
29.319717 -119.197548 -13.899453
30.882217 -117.924476 -13.971937
30.191902 -118.575378 -12.921319
24.391244 -120.993668 -17.407936
25.435845 -120.834526 -16.899729
23.784683 -121.852326 -16.524601
24.960356 -120.037716 -18.190722
24.391244 -120.993668 -17.407936
51.571619 -80.485039 -22.882483
52.160736 -80.574532 -22.24509
50.993494 -82.287826 -22.294804
51.571619 -80.485039 -22.882483
50.936922 -80.325913 -23.452455
50.759968 -78.210601 -24.43976
50.258541 -80.153343 -23.970741
49.549042 -79.910454 -24.437786
50.759968 -78.210601 -24.43976
51.288294 -76.313301 -25.003393
50.802099 -71.628852 -26.900605
50.291586 -73.63073 -26.31642
50.802099 -71.628852 -26.900605
50.037504 -71.158943 -27.253094
45.677004 -78.177124 -26.17141
46.476607 -78.593773 -25.89715
45.186383 -80.260078 -25.737355
46.182958 -76.025711 -26.621189
45.677004 -78.177124 -26.17141
47.471327 -74.396316 -26.8335
46.182958 -76.025711 -26.621189
48.169773 -95.73803 -11.721315
48.895973 -93.993633 -11.295986
46.878473 -98.712772 -11.37818
46.425669 -99.814678 -10.547173
47.357121 -97.508664 -12.159176
46.878473 -98.712772 -11.37818
46.529478 -99.222496 -12.609234
47.820777 -96.247753 -12.952369
48.169773 -95.73803 -11.721315
47.357121 -97.508664 -12.159176
36.99132 -112.128685 -15.53687
35.459503 -113.604801 -15.702618
36.152971 -112.671963 -16.531526
36.99132 -112.128685 -15.53687
38.439858 -110.639916 -15.289806
41.169449 -107.861629 -12.670911
40.504419 -108.532429 -13.873224
42.386219 -106.323948 -12.284118
41.169449 -107.861629 -12.670911
42.957842 -105.370205 -13.125053
43.530149 -104.71328 -11.876558
42.386219 -106.323948 -12.284118
35.991484 -96.89463 -23.623085
37.534757 -95.275375 -23.814217
36.892139 -97.264526 -23.554479
35.991484 -96.89463 -23.623085
34.42882 -98.456176 -23.34206
26.91608 -119.489578 -2.042826
27.577558 -119.260445 -3.352171
25.611342 -120.607296 -1.807988
26.91608 -119.489578 -2.042826
24.302692 -121.662991 -1.499777
24.913095 -121.49701 -2.852216
25.611342 -120.607296 -1.807988
23.041326 -122.642655 -1.182059
24.302692 -121.662991 -1.499777
21.800505 -123.524383 -0.780982
22.363624 -123.434433 -2.142929
23.041326 -122.642655 -1.182059
20.601288 -124.322181 -0.423057
21.800505 -123.524383 -0.780982
19.995137 -124.974178 -1.290288
20.601288 -124.322181 -0.423057
16.552046 -126.759495 -1.257816
17.299811 -126.480961 -1.062043
16.66873 -126.888947 -2.538314
16.552046 -126.759495 -1.257816
16.964265 -126.875462 -3.846892
17.790944 -126.56953 -3.416608
16.66873 -126.888947 -2.538314
17.212719 -126.842052 -5.238753
16.964265 -126.875462 -3.846892
18.45752 -126.407299 -6.113354
17.212719 -126.842052 -5.238753
18.349149 -126.209542 -9.412458
19.259264 -125.966072 -8.872905
18.741765 -125.85833 -10.770128
18.349149 -126.209542 -9.412458
20.165847 -125.228764 -11.527672
18.741765 -125.85833 -10.770128
23.373715 -118.830857 -19.426807
24.482051 -118.967007 -19.205609
23.967763 -117.618657 -19.94186
23.373715 -118.830857 -19.426807
24.609999 -116.315475 -20.399168
25.728032 -116.531269 -20.270145
23.967763 -117.618657 -19.94186
25.26377 -114.939964 -20.775807
24.609999 -116.315475 -20.399168
25.944122 -113.477459 -21.118614
27.05062 -113.765583 -21.070261
25.26377 -114.939964 -20.775807
26.65533 -111.951493 -21.397299
25.944122 -113.477459 -21.118614
27.367019 -110.344513 -21.66424
28.442661 -110.696099 -21.68001
26.65533 -111.951493 -21.397299
28.123742 -108.682899 -21.885939
27.367019 -110.344513 -21.66424
28.853707 -106.947659 -22.113735
29.884315 -107.353878 -22.174747
28.123742 -108.682899 -21.885939
29.636322 -105.164978 -22.315677
28.853707 -106.947659 -22.113735
31.345634 -103.770699 -22.622961
29.636322 -105.164978 -22.315677
51.782764 -86.963852 -9.86184
52.436115 -85.631886 -10.743935
50.717531 -87.461345 -18.200488
49.710097 -89.265197 -18.479242
50.305549 -87.603817 -19.123747
51.062178 -87.315048 -17.250242
50.717531 -87.461345 -18.200488
51.382936 -87.089585 -16.222962
50.442837 -88.897262 -16.528702
51.062178 -87.315048 -17.250242
51.64605 -86.872116 -15.189087
51.382936 -87.089585 -16.222962
54.017713 -80.572281 -19.128603
52.944317 -82.314518 -19.264175
53.631247 -80.646732 -20.001831
55.795215 -77.18877 -19.790884
55.389679 -77.209664 -20.626335
56.480251 -75.493938 -20.550961
55.050933 -78.823974 -18.966563
55.795215 -77.18877 -19.790884
56.141506 -77.108249 -18.891188
54.017713 -80.572281 -19.128603
55.050933 -78.823974 -18.966563
3 122 32 123
3 125 124 34
3 126 37 127
3 0 40 38
3 1 128 129
3 2 43 41
3 2 130 132
3 132 131 43
3 130 131 132
3 3 47 45
3 5 50 48
3 5 52 50
3 5 54 52
3 133 55 134
3 135 57 136
3 137 136 55
3 135 136 137
3 6 60 58
3 6 62 60
3 6 64 62
3 7 67 65
3 7 69 67
3 139 138 70
3 4 72 71
3 8 76 74
3 10 77 31
3 10 140 142
3 142 141 77
3 140 141 142
3 11 80 78
3 143 81 144
3 145 144 33
3 143 144 145
3 147 146 81
3 13 83 82
3 15 84 35
3 15 85 84
3 15 87 85
3 17 88 36
3 17 89 88
3 18 148 150
3 148 90 149
3 148 149 150
3 20 91 39
3 20 151 153
3 153 152 91
3 151 152 153
3 9 93 75
3 21 94 42
3 21 95 94
3 21 96 95
3 154 97 155
3 156 155 44
3 154 155 156
3 158 157 97
3 22 100 98
3 24 101 46
3 24 102 101
3 12 103 79
3 25 104 49
3 25 105 104
3 25 159 161
3 161 160 105
3 159 160 161
3 163 162 51
3 166 165 53
3 164 165 166
3 26 106 56
3 26 107 106
3 14 167 168
3 27 169 171
3 171 170 59
3 169 170 171
3 27 172 174
3 172 108 173
3 172 173 174
3 27 109 108
3 28 110 61
3 28 111 110
3 28 112 111
3 29 113 63
3 29 114 113
3 16 115 86
3 30 116 66
3 30 117 116
3 30 118 117
3 175 119 176
3 177 176 68
3 175 176 177
3 179 178 119
3 19 180 181
3 23 120 99
3 182 121 183
3 184 183 92
3 182 183 184
3 186 185 73
3 187 31 188
3 189 188 8
3 187 188 189
3 32 190 192
3 190 31 191
3 190 191 192
3 32 10 31
3 193 33 194
3 195 194 11
3 193 194 195
3 196 33 197
3 199 198 33
3 34 35 13
3 200 35 201
3 202 201 34
3 200 201 202
3 203 15 204
3 205 204 35
3 203 204 205
3 206 36 207
3 208 207 15
3 206 207 208
3 37 209 211
3 209 36 210
3 209 210 211
3 37 17 36
3 38 39 18
3 40 39 38
3 40 20 39
3 41 42 9
3 43 42 41
3 43 21 42
3 43 44 21
3 212 44 213
3 214 213 43
3 212 213 214
3 216 215 44
3 45 46 22
3 47 46 45
3 47 24 46
3 48 49 12
3 50 49 48
3 50 25 49
3 50 51 25
3 52 51 50
3 52 217 219
3 219 218 51
3 217 218 219
3 52 220 222
3 220 53 221
3 220 221 222
3 54 53 52
3 54 223 225
3 225 224 53
3 223 224 225
3 55 226 227
3 55 228 229
3 55 230 232
3 230 56 231
3 230 231 232
3 57 56 55
3 57 26 56
3 58 59 14
3 60 59 58
3 60 27 59
3 60 61 27
3 62 61 60
3 62 28 61
3 62 63 28
3 64 63 62
3 64 29 63
3 65 66 16
3 67 66 65
3 67 30 66
3 67 68 30
3 69 68 67
3 69 233 235
3 235 234 68
3 233 234 235
3 70 236 238
3 238 237 19
3 236 237 238
3 240 239 70
3 71 241 243
3 243 242 23
3 241 242 243
3 72 244 246
3 246 245 71
3 244 245 246
3 72 247 248
3 249 73 250
3 251 73 252
3 254 253 73
3 74 75 1
3 76 75 74
3 76 9 75
3 31 76 8
3 77 76 31
3 77 9 76
3 77 41 9
3 255 41 256
3 257 256 77
3 255 256 257
3 258 2 259
3 260 259 41
3 258 259 260
3 78 79 3
3 80 79 78
3 80 12 79
3 33 80 11
3 81 80 33
3 81 12 80
3 81 48 12
3 261 48 262
3 263 262 81
3 261 262 263
3 264 5 265
3 266 265 48
3 264 265 266
3 268 267 5
3 82 269 270
3 83 271 273
3 273 272 82
3 271 272 273
3 83 274 276
3 274 14 275
3 274 275 276
3 35 83 13
3 84 83 35
3 84 14 83
3 84 58 14
3 85 58 84
3 85 6 58
3 85 86 6
3 87 86 85
3 87 16 86
3 36 87 15
3 88 87 36
3 88 16 87
3 88 65 16
3 89 65 88
3 89 7 65
3 90 277 278
3 90 279 281
3 279 19 280
3 279 280 281
3 39 90 18
3 91 90 39
3 91 19 90
3 91 70 19
3 282 70 283
3 284 283 91
3 282 283 284
3 286 285 70
3 287 92 288
3 289 288 4
3 287 288 289
3 290 92 291
3 293 292 92
3 75 294 296
3 296 295 1
3 294 295 296
3 93 297 299
3 299 298 75
3 297 298 299
3 93 300 301
3 42 93 9
3 94 93 42
3 94 302 304
3 304 303 93
3 302 303 304
3 94 305 306
3 95 307 309
3 309 308 94
3 307 308 309
3 95 310 311
3 95 312 314
3 312 82 313
3 312 313 314
3 96 82 95
3 96 13 82
3 44 96 21
3 97 96 44
3 97 13 96
3 97 34 13
3 315 34 316
3 317 316 97
3 315 316 317
3 319 318 34
3 98 99 0
3 100 99 98
3 100 23 99
3 46 100 22
3 101 100 46
3 101 23 100
3 101 71 23
3 102 71 101
3 102 4 71
3 79 47 3
3 103 47 79
3 103 24 47
3 49 103 12
3 104 103 49
3 104 24 103
3 104 102 24
3 105 102 104
3 105 4 102
3 105 320 322
3 322 321 4
3 320 321 322
3 324 323 105
3 51 325 327
3 327 326 25
3 325 326 327
3 329 328 51
3 53 330 331
3 333 332 53
3 334 54 335
3 336 335 5
3 334 335 336
3 337 54 338
3 340 339 54
3 341 18 342
3 56 343 344
3 106 345 347
3 347 346 56
3 345 346 347
3 106 348 350
3 348 18 349
3 348 349 350
3 106 38 18
3 107 38 106
3 107 0 38
3 59 351 353
3 353 352 14
3 351 352 353
3 355 354 59
3 108 356 357
3 108 358 359
3 108 360 362
3 360 57 361
3 360 361 362
3 109 57 108
3 109 26 57
3 61 109 27
3 110 109 61
3 110 26 109
3 110 107 26
3 111 107 110
3 111 0 107
3 111 98 0
3 112 98 111
3 112 22 98
3 63 112 28
3 113 112 63
3 113 22 112
3 113 45 22
3 114 45 113
3 114 3 45
3 86 64 6
3 115 64 86
3 115 29 64
3 66 115 16
3 116 115 66
3 116 29 115
3 116 114 29
3 117 114 116
3 117 3 114
3 117 78 3
3 118 78 117
3 118 11 78
3 68 118 30
3 119 118 68
3 119 11 118
3 119 363 365
3 365 364 11
3 363 364 365
3 367 366 119
3 368 1 369
3 370 1 371
3 372 74 373
3 374 373 1
3 372 373 374
3 375 74 376
3 377 8 378
3 379 378 74
3 377 378 379
3 380 8 381
3 383 382 8
3 384 32 385
3 386 32 387
3 388 10 389
3 390 389 32
3 388 389 390
3 391 10 392
3 394 393 10
3 395 2 396
3 397 2 398
3 400 399 2
3 401 37 402
3 403 37 404
3 405 17 406
3 407 406 37
3 405 406 407
3 408 17 409
3 410 89 411
3 412 411 17
3 410 411 412
3 413 89 414
3 415 7 416
3 417 416 89
3 415 416 417
3 418 7 419
3 420 69 421
3 422 421 7
3 420 421 422
3 423 69 424
3 426 425 69
3 428 427 19
3 99 40 0
3 120 40 99
3 120 20 40
3 429 120 430
3 431 430 23
3 429 430 431
3 432 120 433
3 434 20 435
3 436 435 120
3 434 435 436
3 438 437 20
3 92 72 4
3 121 72 92
3 121 439 441
3 441 440 72
3 439 440 441
3 73 442 444
3 442 121 443
3 442 443 444
3 445 121 446
3 447 446 73
3 445 446 447
3 449 448 121
