ply
format ascii 1.0
element vertex 193
property float x
property float y
property float z
element face 170
property list uchar int vertex_index
end_header
49.326271 -22.358913 3.234107
47.620766 -25.530552 7.016611
54.129723 -23.398014 2.918958
52.422123 -27.342125 6.372011
57.587776 -14.854855 -4.353504
51.243683 -18.93449 -0.745335
55.980228 -19.212391 -0.596561
51.261585 -30.827135 9.94408
44.635418 -26.863194 10.970401
44.995636 -25.704298 9.145765
46.987526 -26.996532 8.848829
49.9188 -26.476198 6.714985
49.255531 -28.135283 8.499973
47.20435 -21.723892 3.270929
48.131699 -20.258343 1.194618
50.286186 -20.677963 1.271772
53.570419 -19.060637 -0.623219
52.615971 -21.000502 1.272275
56.687393 -23.955269 2.659515
57.557266 -21.741594 1.006392
54.408218 -30.110271 7.792613
45.57914 -24.450779 7.250484
48.418854 -23.978849 5.14687
51.653358 -22.888351 3.116664
50.73592 -24.718641 4.925393
53.231979 -25.410133 4.640667
55.840572 -26.108141 4.320829
55.265434 -15.013061 -4.60784
58.204773 -12.607283 -6.354372
49.060303 -18.716381 -0.933147
52.148125 -17.120865 -2.818729
54.467804 -17.066906 -2.581409
56.835308 -17.055187 -2.436579
55.062813 -21.328012 1.181532
58.402489 -19.485048 -0.67164
48.616501 -32.145935 13.884108
48.572323 -31.011305 12.086658
48.793945 -29.660686 10.289846
51.750534 -29.161432 8.134933
55.065479 -28.17231 6.022783
58.484482 -26.852865 3.999685
46.778483 -27.672901 9.747333
45.811472 -26.929863 9.909615
45.602429 -27.606232 10.80812
47.912485 -28.242277 9.572906
48.121528 -27.565908 8.674401
46.778483 -27.672901 9.747333
48.26531 -22.041403 3.252518
46.769293 -22.422508 4.280854
47.830253 -22.740018 4.262443
58.354809 -23.126089 1.714856
57.96837 -24.281241 2.513799
57.579843 -18.203687 -1.500514
58.007384 -17.125085 -2.420523
56.407768 -18.133789 -1.51657
59.581303 -19.714631 -0.752614
57.979878 -20.613321 0.167376
59.158692 -20.842904 0.086402
59.913063 -18.523849 -1.576037
59.581303 -19.714631 -0.752614
49.78838 -32.833427 13.795372
48.777351 -32.58816 14.776225
49.916954 -30.91922 11.015369
49.78134 -31.652837 11.945222
51.12597 -31.560752 10.873933
56.418316 -28.587136 5.862673
54.736849 -29.141291 6.907698
56.089685 -29.556116 6.747588
58.127817 -27.927413 4.851125
56.77498 -27.512588 5.011234
56.418316 -28.587136 5.862673
44.815527 -26.283746 10.058083
44.00884 -25.437289 10.186798
43.828732 -26.016737 11.099115
58.987461 -13.688721 -5.237359
58.719337 -14.864626 -4.28466
45.86208 -21.894863 4.315905
46.769293 -22.422508 4.280854
46.266365 -21.305464 3.258597
45.86208 -21.894863 4.315905
47.668025 -20.991118 2.232773
46.73004 -20.57269 2.220441
46.266365 -21.305464 3.258597
58.789745 -22.019251 0.888294
57.122329 -22.848432 1.832953
58.354809 -23.126089 1.714856
59.158692 -20.842904 0.086402
58.789745 -22.019251 0.888294
52.585271 -31.352378 9.795908
51.12597 -31.560752 10.873933
54.158588 -30.993946 8.720175
52.834902 -30.468703 8.868346
52.585271 -31.352378 9.795908
55.779241 -30.562117 7.649745
54.158588 -30.993946 8.720175
56.089685 -29.556116 6.747588
55.779241 -30.562117 7.649745
44.153908 -24.95817 9.255885
44.00884 -25.437289 10.186798
44.44566 -24.331411 8.308244
44.153908 -24.95817 9.255885
45.287388 -25.077539 8.198125
44.703972 -23.812484 7.327927
44.44566 -24.331411 8.308244
45.956688 -23.785951 6.270632
44.703972 -23.812484 7.327927
47.376545 -23.549986 5.218825
45.956688 -23.785951 6.270632
46.998997 -24.214814 6.198677
48.872563 -23.168881 4.190488
47.830253 -22.740018 4.262443
47.376545 -23.549986 5.218825
57.54496 -25.357677 3.344456
57.96837 -24.281241 2.513799
56.263982 -25.031705 3.490172
43.818771 -26.447143 11.972641
43.828732 -26.016737 11.099115
44.588347 -27.381821 11.843035
43.818771 -26.447143 11.972641
45.602429 -27.606232 10.80812
44.588347 -27.381821 11.843035
55.596676 -13.95251 -5.654314
54.110233 -15.119853 -4.776134
57.066345 -12.749621 -6.527579
55.596676 -13.95251 -5.654314
56.735104 -13.810172 -5.481106
58.433018 -11.458232 -7.396111
57.066345 -12.749621 -6.527579
59.29596 -12.564935 -6.237793
57.896275 -13.731069 -5.353938
58.987461 -13.688721 -5.237359
59.485626 -11.372609 -7.240679
59.29596 -12.564935 -6.237793
58.433018 -11.458232 -7.396111
59.485626 -11.372609 -7.240679
47.164049 -19.944169 1.134733
46.73004 -20.57269 2.220441
47.628351 -19.173188 0.07085
47.164049 -19.944169 1.134733
48.596001 -19.487362 0.130736
48.063885 -18.498751 -1.035957
47.628351 -19.173188 0.07085
49.499359 -17.900857 -2.018579
48.063885 -18.498751 -1.035957
51.04327 -17.103099 -2.961371
49.499359 -17.900857 -2.018579
50.604214 -17.918623 -1.875938
52.551579 -16.173755 -3.881578
51.04327 -17.103099 -2.961371
53.706779 -16.066963 -3.713285
54.110233 -15.119853 -4.776134
52.551579 -16.173755 -3.881578
58.343103 -15.964792 -3.326197
58.719337 -14.864626 -4.28466
57.211542 -15.955021 -3.395042
58.343103 -15.964792 -3.326197
58.007384 -17.125085 -2.420523
58.790974 -18.340015 -1.538053
57.579843 -18.203687 -1.500514
57.191358 -19.34872 -0.6341
58.790974 -18.340015 -1.538053
59.913063 -18.523849 -1.576037
47.782849 -31.75869 14.830219
48.777351 -32.58816 14.776225
47.573071 -31.3592 14.001666
47.782849 -31.75869 14.830219
49.803428 -32.220152 12.843947
49.78838 -32.833427 13.795372
48.594412 -31.57862 12.985383
49.803428 -32.220152 12.843947
49.78134 -31.652837 11.945222
47.550981 -30.791885 13.102941
47.573071 -31.3592 14.001666
48.594412 -31.57862 12.985383
47.489889 -30.282542 12.245915
47.550981 -30.791885 13.102941
47.6007 -29.607232 11.34751
47.489889 -30.282542 12.245915
48.683134 -30.335995 11.188252
47.681692 -29.004978 10.467842
47.6007 -29.607232 11.34751
49.024738 -28.897984 9.39491
47.912485 -28.242277 9.572906
47.681692 -29.004978 10.467842
58.866915 -25.730038 3.183884
57.54496 -25.357677 3.344456
57.162527 -26.480503 4.160257
59.781136 -27.26314 3.85419
58.127817 -27.927413 4.851125
60.108326 -26.118276 3.038296
59.781136 -27.26314 3.85419
58.866915 -25.730038 3.183884
60.108326 -26.118276 3.038296
3 41 10 42
3 43 42 8
3 41 42 43
3 44 12 45
3 46 45 10
3 44 45 46
3 0 47 49
3 47 13 48
3 47 48 49
3 0 15 13
3 0 17 15
3 51 50 18
3 1 21 9
3 1 22 21
3 1 24 22
3 3 25 11
3 3 26 25
3 4 28 27
3 5 29 14
3 5 30 29
3 5 31 30
3 6 32 16
3 6 52 54
3 54 53 32
3 52 53 54
3 2 33 23
3 55 34 56
3 57 56 19
3 55 56 57
3 59 58 34
3 60 35 61
3 7 62 64
3 62 36 63
3 62 63 64
3 7 37 36
3 7 38 37
3 65 39 66
3 67 66 20
3 65 66 67
3 68 40 69
3 70 69 39
3 68 69 70
3 8 71 73
3 71 9 72
3 71 72 73
3 10 9 8
3 10 1 9
3 10 11 1
3 12 11 10
3 12 3 11
3 75 74 4
3 13 76 77
3 13 78 79
3 13 80 82
3 80 14 81
3 80 81 82
3 15 14 13
3 15 5 14
3 15 16 5
3 17 16 15
3 17 6 16
3 18 19 2
3 83 19 84
3 85 84 18
3 83 84 85
3 87 86 19
3 88 7 89
3 90 20 91
3 92 91 7
3 90 91 92
3 93 20 94
3 96 95 20
3 9 97 98
3 21 99 101
3 101 100 9
3 99 100 101
3 21 102 103
3 21 104 105
3 22 106 108
3 108 107 21
3 106 107 108
3 22 109 111
3 109 0 110
3 109 110 111
3 22 23 0
3 24 23 22
3 24 2 23
3 11 24 1
3 25 24 11
3 25 2 24
3 25 18 2
3 26 18 25
3 26 112 114
3 114 113 18
3 112 113 114
3 115 8 116
3 117 8 118
3 120 119 8
3 27 121 122
3 28 123 125
3 125 124 27
3 123 124 125
3 28 126 127
3 128 28 129
3 130 129 4
3 128 129 130
3 131 28 132
3 134 133 28
3 14 135 136
3 29 137 139
3 139 138 14
3 137 138 139
3 29 140 141
3 29 142 143
3 30 144 146
3 146 145 29
3 144 145 146
3 30 147 148
3 30 149 151
3 149 27 150
3 149 150 151
3 31 27 30
3 31 4 27
3 16 31 5
3 32 31 16
3 32 4 31
3 32 152 154
3 154 153 4
3 152 153 154
3 156 155 32
3 23 17 0
3 33 17 23
3 33 6 17
3 19 33 2
3 34 33 19
3 34 6 33
3 34 157 159
3 159 158 6
3 157 158 159
3 161 160 34
3 35 162 163
3 35 164 165
3 166 35 167
3 36 168 170
3 168 35 169
3 168 169 170
3 36 171 173
3 173 172 35
3 171 172 173
3 36 174 175
3 37 176 178
3 178 177 36
3 176 177 178
3 37 179 180
3 37 181 183
3 181 12 182
3 181 182 183
3 38 12 37
3 38 3 12
3 20 38 7
3 39 38 20
3 39 3 38
3 39 26 3
3 40 26 39
3 40 184 186
3 186 185 26
3 184 185 186
3 187 40 188
3 189 40 190
3 192 191 40
