ply
format ascii 1.0
element vertex 301
property float x
property float y
property float z
element face 259
property list uchar int vertex_index
end_header
-2.725733 -58.574894 3.758702
1.566952 -63.66124 20.244999
3.046612 -52.785965 29.880951
-7.204556 -55.622253 -2.746944
0.844347 -65.863525 28.624966
0.476433 -61.371796 11.594064
3.978996 -46.022102 30.342216
-4.916077 -57.096714 0.354098
3.069283 -57.761196 20.812439
1.264042 -62.566383 15.88572
3.799015 -52.224201 25.787231
2.697853 -58.594971 25.138893
2.028492 -59.425274 29.214191
1.413921 -64.748886 24.515202
-0.298803 -70.483574 24.216745
-0.862133 -60.026714 7.517542
-3.79657 -57.835354 2.013212
2.343479 -60.747829 20.512161
2.330906 -60.249744 18.306818
1.472868 -63.120159 18.067322
0.255922 -65.32119 15.737931
0.538998 -65.897003 17.889341
3.514465 -49.426018 30.147629
3.927025 -49.192596 28.134949
3.42997 -52.50161 27.873001
3.252007 -55.431549 25.479147
2.932961 -55.770447 27.554127
1.007267 -63.183342 30.870594
1.458838 -62.684608 28.887499
1.827843 -62.19244 26.870346
1.17354 -65.304276 26.588335
2.00246 -59.142323 13.872629
-0.121536 -60.717319 9.521282
3.100796 -49.685669 32.0914
-6.056721 -56.360298 -1.227999
0.459118 -66.418922 30.642609
2.223469 -59.71925 16.085974
0.935099 -61.9869 13.721338
-0.710564 -64.146988 11.53642
-0.161079 -64.741196 13.614451
-4.001715 -61.545902 3.861216
-4.967661 -60.842754 2.121093
3.535835 -55.085796 23.32888
2.914124 -58.185394 23.00584
2.267159 -61.229507 22.68239
-5.922642 -60.120296 0.454003
-7.720751 -58.605671 -2.679832
2.615616 -53.095848 31.82575
2.098009 -56.490067 31.50845
2.55574 -56.119282 29.559422
2.407593 -59.004997 27.206829
2.097565 -61.708282 24.803616
1.547176 -64.201645 22.399069
0.431393 -68.304047 26.399267
0.61915 -67.68454 24.311506
0.712271 -67.074402 22.193157
-1.737247 -59.308796 5.594224
-3.059376 -62.229729 5.674938
-3.261151 -58.205124 2.885957
-2.693303 -56.720286 2.869992
-2.157884 -57.090056 3.742737
-7.062137 -54.212688 -2.737099
-6.350856 -54.545443 -1.984196
-7.783482 -55.248455 -3.483148
-7.062137 -54.212688 -2.737099
1.058401 -59.941601 11.642722
1.821414 -58.826864 12.782005
1.239447 -60.257059 12.733346
0.177449 -61.044558 10.557673
0.759416 -59.614362 10.606331
1.058401 -59.941601 11.642722
-0.45523 -62.451723 10.555065
-0.754214 -62.124485 9.518674
0.177449 -61.044558 10.557673
3.118786 -48.104677 33.133468
3.328871 -47.966911 32.188318
-4.516966 -55.625807 0.34873
-3.860081 -55.982284 1.170701
-5.486399 -56.728506 -0.436951
-5.087288 -55.257599 -0.442318
-4.516966 -55.625807 0.34873
0.260835 -66.69025 31.654408
0.483753 -65.05207 31.742971
3.115744 -57.532425 19.692192
3.430756 -56.236637 20.959593
-0.530129 -66.353745 14.657107
-0.293164 -66.642551 15.703138
-5.125962 -62.702011 3.090269
-4.676991 -63.016634 3.95102
4.213722 -45.921408 29.33303
4.219645 -44.28284 30.400829
4.084848 -50.592577 25.91168
4.148854 -49.076774 27.085539
3.86302 -50.708399 26.96109
3.986034 -52.077433 24.701608
4.084848 -50.592577 25.91168
3.667425 -53.654999 24.558056
3.854444 -53.50823 23.472433
3.986034 -52.077433 24.701608
-6.499926 -61.657223 0.55546
-5.445151 -60.481525 1.287548
-6.022436 -62.018451 1.389005
-8.079444 -60.167234 -2.5865
-7.28166 -58.990885 -1.911804
2.361956 -53.270744 32.775897
2.629238 -51.543674 32.905907
2.06325 -57.957671 30.36132
1.827471 -58.175541 31.341631
1.792713 -59.643145 30.194502
-0.351309 -70.820828 25.271609
-0.814685 -71.804699 24.225617
0.066295 -69.393811 25.308006
0.013789 -69.731064 26.36287
-0.351309 -70.820828 25.271609
0.193687 -68.125034 21.069451
0.225408 -68.446694 22.141253
0.700856 -66.776696 21.120466
0.193687 -68.125034 21.069451
-0.235194 -58.56534 7.519261
0.123675 -58.927482 8.542145
-1.29969 -59.667755 6.555883
-0.672751 -58.206381 6.557602
-0.235194 -58.56534 7.519261
-1.691918 -65.197887 10.552133
-1.320903 -65.482017 11.53804
-3.300327 -56.351605 2.000258
-2.693303 -56.720286 2.869992
-4.356324 -57.466034 1.183655
-3.860081 -55.982284 1.170701
-3.300327 -56.351605 2.000258
-0.151626 -66.930458 16.778844
-0.293164 -66.642551 15.703138
0.39746 -65.609096 16.813636
1.2821 -61.522179 31.022703
1.008488 -61.748998 31.990385
1.507886 -61.272812 30.031155
1.2821 -61.522179 31.022703
1.233052 -62.933975 29.879047
1.743665 -61.054941 29.050845
1.792713 -59.643145 30.194502
1.507886 -61.272812 30.031155
-0.83441 -71.449795 23.15465
-0.814685 -71.804699 24.225617
-0.280129 -70.15128 23.153047
-0.83441 -71.449795 23.15465
2.530357 -57.681382 13.955761
2.587046 -57.968342 15.088857
2.530357 -57.681382 13.955761
1.821414 -58.826864 12.782005
0.493973 -59.272785 9.544015
0.759416 -59.614362 10.606331
-0.491835 -60.372017 8.519412
0.123675 -58.927482 8.542145
0.493973 -59.272785 9.544015
-1.149402 -61.80485 8.54104
-1.519701 -61.459547 7.539169
-0.491835 -60.372017 8.519412
-1.149402 -61.80485 8.54104
-0.754214 -62.124485 9.518674
3.988949 -44.389446 31.371872
4.219645 -44.28284 30.400829
3.767971 -46.135128 31.313726
3.988949 -44.389446 31.371872
3.535705 -47.837086 31.216432
3.74673 -47.72406 30.244923
3.767971 -46.135128 31.313726
3.307631 -49.555843 31.119515
3.535705 -47.837086 31.216432
3.328871 -47.966911 32.188318
-5.776938 -54.914465 -1.224724
-5.087288 -55.257599 -0.442318
-6.630638 -55.991276 -1.987472
-6.350856 -54.545443 -1.984196
-5.776938 -54.914465 -1.224724
0.757827 -63.43428 31.856964
1.008488 -61.748998 31.990385
0.733192 -64.801132 30.756602
0.757827 -63.43428 31.856964
0.483753 -65.05207 31.742971
2.746556 -58.776699 18.439381
3.115744 -57.532425 19.692192
2.700095 -59.00547 19.559629
2.692837 -58.511452 17.328959
2.746556 -58.776699 18.439381
2.277188 -59.984497 17.196396
2.69755 -58.256805 16.19553
2.692837 -58.511452 17.328959
2.112965 -59.430786 14.979302
2.587046 -57.968342 15.088857
2.69755 -58.256805 16.19553
-1.046161 -65.779122 12.577056
-1.320903 -65.482017 11.53804
-0.435821 -64.444092 12.575436
-0.738629 -66.063748 13.595367
0.047421 -65.031193 14.676191
-0.530129 -66.353745 14.657107
-1.046161 -65.779122 12.577056
-0.738629 -66.063748 13.595367
-5.608935 -62.350437 2.220207
-4.484688 -61.194328 2.991155
-5.125962 -62.702011 3.090269
-6.022436 -62.018451 1.389005
-5.608935 -62.350437 2.220207
4.187736 -47.506654 28.229396
4.213722 -45.921408 29.33303
3.95301 -47.607349 29.238582
4.187736 -47.506654 28.229396
4.148854 -49.076774 27.085539
3.664032 -54.898937 22.217813
3.854444 -53.50823 23.472433
3.302559 -56.423496 22.07066
3.430756 -56.236637 20.959593
3.664032 -54.898937 22.217813
-6.865036 -61.303593 -0.246225
-6.499926 -61.657223 0.55546
-6.382606 -59.748198 -0.344886
-6.865036 -61.303593 -0.246225
-5.879323 -58.236407 -0.394839
-5.419359 -58.608505 0.40405
-6.382606 -59.748198 -0.344886
-6.449645 -57.868199 -1.185887
-5.486399 -56.728506 -0.436951
-5.879323 -58.236407 -0.394839
-6.888736 -57.482985 -1.953916
-6.449645 -57.868199 -1.185887
-7.28166 -58.990885 -1.911804
-8.35663 -59.759966 -3.33462
-8.079444 -60.167234 -2.5865
-8.145822 -58.204504 -3.422637
-8.35663 -59.759966 -3.33462
-7.887724 -56.712795 -3.456193
-7.462654 -57.113962 -2.713388
-8.145822 -58.204504 -3.422637
-8.46665 -56.338997 -4.192398
-7.783482 -55.248455 -3.483148
-7.887724 -56.712795 -3.456193
2.871828 -49.838585 33.038733
3.118786 -48.104677 33.133468
2.858206 -51.390758 31.958575
2.871828 -49.838585 33.038733
2.629238 -51.543674 32.905907
1.82559 -56.690661 32.464533
1.827471 -58.175541 31.341631
2.103153 -54.967854 32.617247
1.82559 -56.690661 32.464533
2.356813 -54.792957 31.6671
2.361956 -53.270744 32.775897
2.103153 -54.967854 32.617247
0.184142 -67.972408 30.585078
0.260835 -66.69025 31.654408
0.320123 -67.67062 29.553799
0.184142 -67.972408 30.585078
0.512737 -67.392921 28.544978
0.651733 -66.141223 29.633788
0.320123 -67.67062 29.553799
0.306261 -68.613182 27.432128
0.013789 -69.731064 26.36287
0.63787 -67.083786 27.512116
0.512737 -67.392921 28.544978
0.306261 -68.613182 27.432128
0.178848 -68.751762 23.200427
0.160173 -69.084057 24.264125
-0.280129 -70.15128 23.153047
0.66571 -67.379471 23.252332
0.178848 -68.751762 23.200427
0.225408 -68.446694 22.141253
1.118309 -65.340317 21.223422
1.129724 -65.638024 22.296113
0.700856 -66.776696 21.120466
1.128197 -65.070115 20.146387
1.557064 -63.931443 21.322034
1.118309 -65.340317 21.223422
0.61422 -66.187996 18.968558
1.052975 -64.779122 19.06717
1.128197 -65.070115 20.146387
0.012713 -67.227539 17.844016
0.61422 -66.187996 18.968558
-0.151626 -66.930458 16.778844
0.012713 -67.227539 17.844016
-1.61986 -57.465603 4.66497
-2.157884 -57.090056 3.742737
-1.125617 -57.832554 5.582731
-0.672751 -58.206381 6.557602
-2.23149 -58.941845 4.676463
-1.61986 -57.465603 4.66497
-1.125617 -57.832554 5.582731
-4.205821 -63.358548 4.857881
-4.676991 -63.016634 3.95102
-3.530545 -61.887816 4.768077
-2.618322 -62.561054 6.617868
-1.960754 -61.128221 6.59624
-1.519701 -61.459547 7.539169
-3.742233 -63.660091 5.748164
-2.618322 -62.561054 6.617868
-4.205821 -63.358548 4.857881
-3.742233 -63.660091 5.748164
-1.048728 -63.839319 10.526243
-0.45523 -62.451723 10.555065
-0.117065 -62.759392 11.565242
-1.048728 -63.839319 10.526243
-1.691918 -65.197887 10.552133
3 0 58 60
3 58 16 59
3 58 59 60
3 1 19 17
3 1 21 19
3 2 24 22
3 2 26 24
3 3 61 62
3 3 63 64
3 4 28 27
3 4 30 28
3 5 65 67
3 67 66 31
3 65 66 67
3 5 68 70
3 68 32 69
3 68 69 70
3 5 71 73
3 73 72 32
3 71 72 73
3 74 33 75
3 7 76 77
3 7 78 80
3 78 34 79
3 78 79 80
3 81 35 82
3 8 83 84
3 9 36 18
3 9 37 36
3 9 39 37
3 86 85 20
3 88 87 40
3 6 89 90
3 10 91 93
3 93 92 23
3 91 92 93
3 10 94 95
3 10 96 98
3 96 42 97
3 96 97 98
3 11 43 25
3 11 44 43
3 99 45 100
3 101 100 41
3 99 100 101
3 102 46 103
3 104 47 105
3 12 106 108
3 106 48 107
3 106 107 108
3 12 49 48
3 12 50 49
3 13 51 29
3 13 52 51
3 14 109 110
3 14 111 113
3 111 53 112
3 111 112 113
3 14 54 53
3 114 55 115
3 117 116 55
3 15 118 119
3 15 120 122
3 120 56 121
3 120 121 122
3 15 57 56
3 124 123 38
3 16 125 126
3 16 127 129
3 127 7 128
3 127 128 129
3 17 18 8
3 19 18 17
3 19 9 18
3 19 20 9
3 21 20 19
3 21 130 132
3 132 131 20
3 130 131 132
3 22 23 6
3 24 23 22
3 24 10 23
3 24 25 10
3 26 25 24
3 26 11 25
3 27 133 134
3 28 135 137
3 137 136 27
3 135 136 137
3 28 138 140
3 138 12 139
3 138 139 140
3 28 29 12
3 30 29 28
3 30 13 29
3 141 14 142
3 144 143 14
3 31 145 146
3 148 147 31
3 32 149 150
3 32 151 153
3 151 15 152
3 151 152 153
3 32 154 156
3 156 155 15
3 154 155 156
3 158 157 32
3 159 6 160
3 161 6 162
3 163 22 164
3 165 164 6
3 163 164 165
3 33 166 168
3 166 22 167
3 166 167 168
3 33 2 22
3 34 169 170
3 34 171 173
3 171 3 172
3 171 172 173
3 174 27 175
3 35 176 178
3 176 27 177
3 176 177 178
3 35 4 27
3 18 179 181
3 181 180 8
3 179 180 181
3 36 182 184
3 184 183 18
3 182 183 184
3 36 185 186
3 36 187 189
3 187 31 188
3 187 188 189
3 37 31 36
3 37 5 31
3 37 38 5
3 39 38 37
3 39 190 192
3 192 191 38
3 190 191 192
3 20 39 9
3 193 39 194
3 195 194 20
3 193 194 195
3 197 196 39
3 40 41 0
3 198 41 199
3 200 199 40
3 198 199 200
3 202 201 41
3 23 203 205
3 205 204 6
3 203 204 205
3 207 206 23
3 42 208 209
3 42 210 212
3 210 8 211
3 210 211 212
3 25 42 10
3 43 42 25
3 43 8 42
3 43 17 8
3 44 17 43
3 44 1 17
3 41 16 0
3 45 16 41
3 45 7 16
3 213 45 214
3 215 45 216
3 217 7 218
3 219 218 45
3 217 218 219
3 220 34 221
3 222 221 7
3 220 221 222
3 46 223 225
3 223 34 224
3 223 224 225
3 46 3 34
3 226 46 227
3 228 46 229
3 230 3 231
3 232 231 46
3 230 231 232
3 235 234 3
3 233 234 235
3 236 33 237
3 47 238 240
3 238 33 239
3 238 239 240
3 47 2 33
3 48 241 242
3 48 243 244
3 48 245 247
3 245 47 246
3 245 246 247
3 49 47 48
3 49 2 47
3 49 26 2
3 50 26 49
3 50 11 26
3 29 50 12
3 51 50 29
3 51 11 50
3 51 44 11
3 52 44 51
3 52 1 44
3 248 35 249
3 250 35 251
3 252 4 253
3 254 253 35
3 252 253 254
3 53 255 256
3 53 257 259
3 257 4 258
3 257 258 259
3 53 30 4
3 54 30 53
3 54 13 30
3 260 54 261
3 262 261 14
3 260 261 262
3 55 263 265
3 263 54 264
3 263 264 265
3 55 13 54
3 55 52 13
3 266 52 267
3 268 267 55
3 266 267 268
3 269 1 270
3 271 270 52
3 269 270 271
3 272 21 273
3 274 273 1
3 272 273 274
3 275 21 276
3 278 277 21
3 279 0 280
3 56 281 282
3 56 283 285
3 283 0 284
3 283 284 285
3 56 40 0
3 57 40 56
3 57 286 288
3 288 287 40
3 286 287 288
3 289 57 290
3 291 290 15
3 289 290 291
3 292 57 293
3 295 294 57
3 38 296 298
3 298 297 5
3 296 297 298
3 300 299 38
