ply
format ascii 1.0
element vertex 966
property float x
property float y
property float z
element face 1134
property list uchar int vertex_index
end_header
-37.245678 -111.40596 -7.303373
-45.184036 -98.729141 11.842463
-49.876518 -90.152222 -5.922316
-27.519571 -84.422577 45.103256
-37.25843 -101.365616 29.58073
-28.226177 -119.360275 -11.564283
-27.921629 -117.88504 -19.970753
-38.383682 -110.252457 -14.514956
-48.178932 -89.137756 11.331538
-24.488567 -77.719177 55.02573
-42.675873 -95.339355 33.250954
-41.905926 -101.659866 21.040045
-24.108671 -113.045563 15.184969
-41.539722 -105.369675 1.383375
-44.519089 -102.341888 -6.280317
-47.615685 -95.320602 2.672273
-25.764318 -92.772156 33.340504
-33.277184 -85.583252 47.480282
-32.068024 -94.31073 37.324112
-30.017879 -102.797394 24.016659
-34.128521 -108.646484 16.748699
-37.577251 -108.005997 9.18726
-31.391481 -114.756042 -1.4566
-20.306087 -123.670959 -2.616957
-46.25526 -96.898849 -13.468378
-47.07209 -88.847717 -18.941364
-33.369247 -115.043015 -9.462986
-33.306656 -115.458725 -13.833199
-37.738178 -111.342117 -10.683641
-43.687157 -101.979141 6.569473
-45.204372 -100.524811 2.368681
-46.518623 -97.151764 7.213075
-25.706051 -80.528801 49.710033
-22.948151 -81.137321 50.685612
-24.645496 -84.140076 44.789719
-23.645123 -88.286606 39.168137
-26.737583 -88.310913 39.441677
-37.606953 -97.715546 36.450439
-35.003574 -94.653625 40.251244
-34.612648 -98.629761 33.536285
-31.397564 -98.38327 30.432529
-33.853561 -102.490463 26.544121
-32.149452 -106.588074 20.298494
-36.25523 -104.9263 22.797335
-43.660095 -100.285309 16.486593
-40.240597 -104.782043 14.953961
-41.97155 -103.409164 10.78643
-39.496723 -106.665894 5.251007
-47.323154 -96.32222 -5.880501
-45.462242 -99.967056 -10.055141
-48.350227 -93.348907 -9.689226
-50.152321 -85.998672 -16.104721
-22.618553 -123.249863 -12.883871
-27.92186 -119.472504 -16.220509
-33.619415 -114.31813 -17.789303
-38.936657 -107.937851 -17.90097
-45.867462 -95.605682 17.087057
-47.084053 -93.951767 11.988992
-26.900736 -76.840057 53.253704
-28.345201 -80.531563 49.261917
-40.394203 -95.359695 38.278084
-40.237991 -98.930817 32.045212
-39.769516 -102.254395 25.416622
-42.584373 -98.549118 27.245358
-44.436371 -97.229477 22.218061
-53.010132 -84.349411 -6.372038
-51.393353 -86.96434 -9.78533
-39.187763 -108.733948 -3.491049
-40.910721 -107.611206 -6.901716
-43.283192 -104.045288 -2.430103
-46.358521 -98.722382 -1.80233
-48.630455 -92.985443 -1.733433
-48.225975 -92.147049 7.05451
-22.437347 -93.439713 33.943855
-31.088272 -80.663597 49.169453
-30.330414 -85.147995 46.169052
-32.578674 -90.161179 43.384155
-29.694 -89.24324 41.083267
-29.017675 -93.327957 34.681599
-27.883621 -97.889725 28.287685
-25.845947 -103.172073 23.049791
-27.563839 -107.747177 18.92532
-29.291946 -111.054276 15.263133
-30.897758 -112.595612 11.599581
-38.396584 -105.54007 18.970121
-35.873718 -108.930817 13.063439
-32.476871 -112.481888 7.722781
-34.377052 -111.380615 3.755682
-36.755291 -110.016495 -0.033364
-34.479118 -113.08139 -4.947506
-18.207005 -125.618271 -7.934795
-23.776619 -122.083832 -7.68351
-29.276161 -117.637756 -6.558498
-41.971733 -106.1828 -10.585917
-42.768929 -103.894913 -14.151756
-43.291107 -100.712555 -17.186558
-49.371262 -89.920197 -13.074297
-46.796982 -93.210663 -16.375093
-43.496815 -96.714951 -19.612328
-35.572151 -113.027771 -8.307093
-35.533508 -113.372574 -10.291803
-37.456135 -111.468369 -8.83049
-44.535366 -100.335312 9.203323
-45.27766 -99.591248 6.994066
-45.879375 -97.952026 9.520179
-26.552221 -82.337814 47.318264
-25.161026 -82.309311 47.396553
-26.098387 -84.179718 44.824593
-25.656727 -86.086609 42.041069
-27.132235 -86.330795 42.406837
-37.473003 -99.571671 33.059036
-36.131634 -98.353088 35.083794
-35.934193 -100.228149 31.583273
-34.319878 -100.549667 30.001638
-35.608749 -102.07634 28.071447
-35.074883 -103.942001 24.668268
-36.877052 -103.138229 26.128387
-44.443558 -99.507904 14.169056
-42.931744 -101.834396 13.622867
-43.747299 -101.080994 11.416284
-42.837425 -102.686417 8.678363
-27.913231 -116.526947 4.839754
-48.573486 -93.217285 -5.843489
-47.824348 -94.898315 -7.831465
-49.168549 -91.70546 -7.806408
-25.454006 -121.412231 -12.349493
-25.180611 -121.535995 -14.774675
-28.010664 -119.631912 -13.966883
-35.892296 -113.01886 -14.347952
-33.447525 -115.081894 -15.898355
-36.141113 -112.313553 -16.258785
-36.374043 -111.263077 -17.992622
-38.686157 -109.244492 -16.296293
-46.533714 -93.238617 16.990099
-27.562292 -74.860794 54.507454
-28.075191 -76.530907 52.419556
-27.534794 -78.556747 51.124092
-28.797377 -78.452148 50.652523
-42.689674 -93.656006 36.057655
-41.655922 -93.734833 38.649895
-41.573753 -95.534668 35.838531
-40.312824 -97.18959 35.252674
-41.537983 -97.25116 32.826096
-41.465897 -98.90303 29.682407
-42.668053 -96.96489 30.296089
-44.541882 -95.70845 25.042904
-45.19136 -96.427826 19.657553
-24.92651 -120.470718 -18.937511
-40.356083 -107.078018 -1.116724
-41.339542 -106.466522 -2.91692
-42.474018 -104.730347 -0.523075
-46.542336 -97.963455 2.610084
-45.823917 -99.688858 0.278242
-47.062576 -96.992722 0.443138
-47.545555 -95.878128 -1.698229
-48.112793 -94.222153 0.448888
-47.678932 -91.541428 11.739542
-47.657463 -93.084869 9.495378
-48.279331 -90.629501 9.204854
-50.172607 -88.683121 0.077624
-23.189564 -78.349365 55.957024
-22.26775 -82.937752 48.184299
-21.495434 -81.776711 51.407494
-24.700928 -90.409531 36.165817
-23.09338 -90.727921 36.440063
-24.095097 -92.931778 33.382942
-23.328394 -95.706589 30.878735
-25.076303 -95.341446 30.523958
-32.158649 -83.100769 48.291557
-30.693533 -82.965225 47.941017
-31.77322 -85.440887 46.82679
-33.539322 -94.61972 38.818901
-33.767883 -92.535812 41.891705
-32.313343 -92.272629 40.541183
-31.133974 -89.764938 42.203979
-30.85968 -91.805832 39.192432
-29.382141 -91.254623 37.968903
-30.567116 -93.834824 35.899651
-30.828121 -100.527359 27.09527
-29.677097 -98.09816 29.171328
-28.946684 -100.429199 26.063141
-26.996378 -100.442322 25.47765
-27.95899 -102.923569 23.287027
-26.695765 -105.570511 20.899437
-28.931341 -105.207809 21.282932
-33.168495 -107.852005 18.526405
-30.857635 -108.77919 17.629169
-31.769527 -109.921112 15.863333
-30.112507 -112.054901 13.453334
-32.628647 -110.595963 14.073153
-40.891636 -102.101547 23.253872
-39.222717 -103.890991 22.141602
-40.259579 -103.688019 20.078257
-39.015316 -106.376053 12.025162
-38.152935 -106.910187 14.004572
-36.710651 -108.568237 11.143314
-34.247746 -110.68692 10.33458
-35.085224 -110.266937 8.394167
-33.365959 -112.003372 5.734012
-35.999966 -109.676666 6.435442
-40.526524 -106.006165 3.305403
-38.115551 -108.342178 2.571924
-39.254822 -107.697098 0.704986
-38.013878 -109.357346 -1.801178
-16.389027 -126.255295 -5.016462
-19.138416 -124.829544 -5.260273
-20.98827 -124.014664 -7.934111
-21.91185 -123.026901 -5.261396
-27.455753 -118.661591 -4.610195
-30.198734 -116.301178 -4.017075
-31.93292 -115.331009 -5.777937
-32.894299 -113.940903 -3.307486
-42.81221 -105.10405 -6.587679
-41.486614 -106.985565 -8.725439
-43.353588 -104.232086 -8.467518
-45.881119 -98.513519 -11.822699
-44.241844 -101.901001 -12.124834
-44.605633 -100.435608 -13.807232
-43.071022 -102.409134 -15.749834
-44.900166 -98.785141 -15.350063
-50.440536 -88.399063 -11.435965
-51.032887 -86.600235 -13.108406
-48.659538 -87.390015 -17.512241
-48.44511 -89.541061 -16.141026
-46.957977 -91.122345 -17.680016
-45.248032 -94.951096 -18.022816
-45.325981 -92.755142 -19.210308
-43.531784 -94.407593 -20.672905
-45.382095 -90.354828 -20.359074
-30.885925 -117.198853 -10.580093
-30.722105 -117.567062 -12.91221
-33.254765 -115.443954 -11.66716
-35.670628 -113.369751 -12.331533
-38.057331 -110.949142 -12.616816
-43.665222 -94.858368 30.563005
-23.4132 -111.146271 17.220407
-42.671326 -103.660828 3.956002
-43.538166 -102.989868 1.951518
-44.487144 -101.271988 4.465744
-45.950821 -98.815765 4.795035
-47.094402 -96.288071 4.928721
-25.011732 -78.997574 52.284782
-23.690304 -79.4245 52.987217
-24.350471 -80.730606 50.122864
-23.733629 -82.493706 47.678207
-23.15999 -84.372238 45.036682
-22.618683 -86.448868 42.319145
-24.148512 -86.106995 42.000137
-25.203945 -88.140579 39.102676
-26.298698 -90.438446 36.363884
-36.476318 -94.346039 41.504333
-36.286861 -96.40538 38.437176
-34.813934 -96.68071 37.004272
-33.319748 -96.625854 35.445866
-31.786509 -96.328384 33.896431
-33.039711 -98.605087 31.937052
-32.620438 -100.611572 28.455582
-31.988752 -102.692947 25.14448
-31.091286 -104.881638 22.111246
-33.144577 -104.494278 23.282438
-34.271709 -105.860275 21.467161
-35.344215 -106.757324 19.657846
-42.821594 -101.025009 18.781101
-41.208359 -103.213745 17.965801
-42.090679 -102.566452 15.810397
-41.107559 -104.127029 12.882888
-39.89473 -105.717468 10.015421
-38.504368 -107.346069 7.21634
-40.807983 -105.018478 7.992207
-41.745289 -104.329315 5.969726
-46.005699 -99.390366 -6.032263
-45.010887 -101.245804 -8.194599
-46.475204 -98.106216 -7.968508
-46.939354 -96.664551 -9.826029
-47.391869 -95.081818 -11.576647
-48.832497 -85.050049 -18.878941
-47.173286 -86.368134 -20.205914
-22.287107 -123.188171 -15.287437
-25.019669 -121.218491 -16.998829
-27.905663 -118.882965 -18.246193
-30.704016 -117.523605 -15.147633
-30.766956 -117.06279 -17.216572
-30.860504 -116.197525 -19.045753
-45.62426 -97.154968 14.474139
-46.281319 -96.351471 12.033022
-46.49181 -94.782898 14.524769
-47.104401 -92.400742 14.339523
-25.717218 -77.225349 54.124237
-26.284569 -78.722725 51.666203
-27.029203 -80.482834 49.430187
-27.920752 -82.509949 47.410439
-39.034538 -96.706787 37.536316
-38.937145 -98.552643 34.310501
-38.80442 -100.315948 30.940235
-38.549294 -102.030792 27.525642
-40.084549 -100.609604 28.740517
-41.274937 -100.512634 26.472202
-42.350601 -100.109131 24.145823
-43.672703 -96.42038 27.69384
-43.573944 -97.961319 24.752228
-43.306198 -99.492966 21.771116
-44.154846 -98.752838 19.358707
-44.919983 -97.959259 16.921373
-51.335533 -87.186447 -6.104923
-50.616859 -88.596893 -7.899054
-52.247051 -85.614624 -8.101744
-38.107407 -110.245255 -5.639561
-38.943054 -109.782227 -7.161036
-40.166275 -108.160492 -5.16375
-42.156029 -105.827499 -4.732964
-43.956535 -103.264664 -4.350519
-44.305344 -102.272339 -0.048926
-44.957893 -101.45845 -2.050457
-45.512276 -100.506149 -4.05024
-46.844139 -97.601273 -3.861996
-48.036713 -94.61525 -3.800287
-49.211121 -91.621689 -3.862329
-46.895004 -95.53241 9.612835
-47.466576 -94.663605 7.225092
-48.005749 -93.706955 4.877131
-48.927711 -89.634216 6.742739
-48.811974 -91.108231 4.671189
-48.538292 -92.633621 2.573069
-49.745987 -90.111237 -1.887989
-50.49044 -88.689026 -4.031534
-51.966599 -85.865494 -4.283957
-22.305849 -80.034935 53.779778
-21.502432 -91.396713 37.189041
-20.818108 -94.264572 34.999184
-30.110617 -78.363602 50.248383
-29.686871 -80.611206 49.182423
-29.290941 -82.745499 47.632633
-28.922256 -84.778046 45.572357
-32.897068 -87.937561 45.723034
-31.431889 -87.656494 44.783478
-30.000656 -87.227295 43.859322
-28.575565 -86.74791 43.038403
-28.233757 -88.716293 40.12925
-27.863047 -90.755035 36.991058
-27.413378 -92.932312 33.795052
-30.19591 -95.913513 32.500893
-28.539501 -95.524719 31.399372
-26.824963 -95.298889 30.711666
-26.039547 -97.87793 27.886248
-25.012861 -100.659821 25.419666
-23.723759 -103.602539 23.356108
-25.168327 -108.331818 18.897081
-25.94034 -110.37886 16.91802
-29.904264 -107.188843 19.416513
-28.436531 -109.601974 17.068075
-26.7258 -112.086197 15.022023
-27.503016 -113.381439 13.14455
-28.261562 -114.226059 11.235451
-29.013378 -114.623825 9.26825
-38.091026 -103.730988 24.156006
-37.367413 -105.445053 20.904303
-36.344872 -107.193253 17.82173
-39.346966 -105.286804 16.986155
-37.274197 -107.216705 15.93907
-35.024746 -108.987015 14.932673
-33.444168 -110.828918 12.231961
-31.671173 -112.712692 9.686646
-29.794958 -114.621719 7.243314
-30.658445 -114.301086 5.184504
-31.653969 -113.75975 3.131455
-32.809406 -113.090881 1.130341
-37.014168 -109.012558 4.486639
-35.518021 -110.699707 1.823666
-34.114189 -112.365875 -0.77449
-35.511154 -111.628311 -2.546881
-36.894848 -110.905548 -4.164789
-36.013878 -112.202835 -6.320473
-17.488676 -125.994141 -10.563042
-20.285477 -124.612442 -10.583506
-23.099398 -122.872528 -10.321081
-25.892433 -120.861069 -9.80621
-24.688637 -120.937225 -5.036615
-26.547127 -119.922836 -7.211908
-28.629427 -118.680252 -9.08025
-31.268963 -116.440323 -8.198055
-33.75367 -114.250397 -7.237442
-39.472527 -109.428497 -8.885834
-39.918404 -108.930252 -10.738447
-40.325676 -108.195175 -12.610954
-43.823547 -103.168701 -10.3302
-42.398312 -105.155884 -12.415257
-40.69397 -107.192108 -14.418324
-41.006889 -105.921432 -16.095854
-41.246174 -104.398163 -17.601406
-49.804192 -90.097519 -9.672291
-48.877754 -91.688766 -11.437115
-47.808807 -93.3694 -13.205959
-49.800125 -88.031158 -14.618708
-48.164154 -91.526886 -14.719032
-46.564671 -95.131897 -14.981882
-45.113365 -96.957535 -16.748829
-45.451515 -87.737854 -21.514847
-27.489708 -116.587433 5.921795
-26.530714 -117.575547 4.785339
-28.678907 -76.398395 52.026224
-28.367484 -75.4687 52.899912
-29.04 -77.359016 51.142708
-28.436284 -77.491527 51.53604
-28.678907 -76.398395 52.026224
-23.11959 -114.361 14.399998
-22.79639 -113.491387 15.47548
-24.469568 -113.817268 14.188612
-23.11959 -114.361 14.399998
-26.396262 -118.603844 -20.246305
-24.898702 -119.896682 -19.729685
-26.42407 -119.177879 -19.454132
-23.839066 -78.034271 55.491377
-23.662783 -77.499313 56.925466
-24.312285 -77.184219 56.45982
-21.518335 -83.297062 48.552528
-21.959063 -83.924076 46.883898
-32.717917 -84.342011 47.885919
-32.933544 -83.101272 48.466734
-33.492812 -84.342514 48.061097
-18.926414 -124.48397 -2.499214
-19.625177 -123.827072 -1.223973
-19.722251 -124.250251 -3.938615
-18.342579 -125.063263 -3.820873
-18.926414 -124.48397 -2.499214
-30.795108 -115.52861 -2.736838
-29.414348 -116.729584 -3.019064
-30.010721 -115.957016 -1.738827
-51.939718 -85.012764 -13.215296
-51.592806 -85.923874 -12.347402
-23.089599 -110.061951 18.29272
-22.158285 -111.526466 17.600527
-36.946907 -97.060463 37.443808
-37.015953 -96.082519 39.03517
-37.675999 -96.737603 38.041801
-49.756241 -83.224148 -18.977156
-49.635024 -84.422852 -18.227444
-48.913507 -83.77652 -19.580849
-49.756241 -83.224148 -18.977156
-22.45283 -123.219017 -14.085654
-21.026601 -123.985336 -14.207217
-21.192324 -124.016182 -13.005434
-33.700183 -113.752914 -18.615271
-32.320728 -114.692611 -19.243496
-32.239959 -115.257827 -18.417528
-37.749178 -108.9142 -18.699308
-36.467871 -110.576813 -18.745134
-37.65535 -109.600464 -17.946796
-39.027029 -107.146316 -18.597675
-37.749178 -108.9142 -18.699308
-47.044465 -91.635223 15.502185
-46.819057 -92.81968 15.664811
-46.759121 -92.054161 16.827472
-47.268993 -90.444939 15.312611
-47.32893 -91.210457 14.149949
-47.044465 -91.635223 15.502185
-26.685499 -76.106384 54.450369
-27.016277 -75.116752 55.077244
-27.231514 -75.850426 53.880579
-26.308977 -77.032703 53.68897
-26.093739 -76.29903 54.885635
-26.685499 -76.106384 54.450369
-40.476303 -94.391182 39.656216
-41.107163 -93.57875 39.842122
-41.025062 -94.547264 38.463989
-39.785827 -95.05513 39.395588
-40.476303 -94.391182 39.656216
-39.714371 -96.033241 37.9072
-39.105995 -95.728676 39.024704
-39.785827 -95.05513 39.395588
-44.09762 -95.301338 27.75239
-43.668962 -95.639374 29.128422
-44.093879 -94.520332 29.186972
-49.313406 -88.396698 6.539554
-48.907249 -88.913262 7.76621
-49.130253 -90.530563 3.508532
-49.231148 -89.821763 4.51209
-48.993412 -91.293259 2.459471
-48.675133 -91.870926 3.622129
-49.130253 -90.530563 3.508532
-48.821287 -92.033089 1.444673
-48.993412 -91.293259 2.459471
-50.378559 -88.712746 -2.010576
-49.959297 -89.397179 -0.905183
-50.591869 -87.998688 -1.02777
-50.750785 -88.001641 -3.082349
-50.118213 -89.400132 -2.959761
-50.378559 -88.712746 -2.010576
-51.488865 -86.589875 -3.20856
-51.22852 -87.27726 -4.157745
-50.750785 -88.001641 -3.082349
-21.175045 -81.309018 53.036242
-20.745672 -82.212582 51.847561
-22.863511 -88.534988 39.414633
-22.35029 -87.616119 40.990137
-23.131903 -87.367737 40.743641
-22.026574 -94.913551 32.856734
-21.216954 -95.325981 33.384399
-21.627727 -93.852142 34.471519
-22.838332 -97.199905 29.805704
-23.754676 -96.923066 29.454384
-31.298642 -79.458095 49.540148
-31.832867 -80.652882 49.185541
-30.599445 -79.513599 49.708918
-30.809815 -78.308098 50.079613
-31.298642 -79.458095 49.540148
-35.124382 -93.581612 41.690295
-35.860754 -93.427819 42.316839
-35.739946 -94.499832 40.877789
-33.316249 -90.248353 43.951645
-33.910854 -91.435669 43.20542
-33.173278 -91.348496 42.63793
-32.737871 -89.04937 44.553595
-33.475447 -89.136544 45.121084
-33.316249 -90.248353 43.951645
-25.137083 -104.605446 22.03744
-24.075989 -104.820678 22.190599
-24.784853 -103.387306 23.202949
-16.8367 -126.216347 -7.800374
-15.927711 -126.534859 -6.341207
-17.298016 -125.936783 -6.475629
-17.847841 -125.806206 -9.248919
-16.477536 -126.404282 -9.114497
-16.8367 -126.216347 -7.800374
-25.271937 -120.221435 -3.729025
-23.883729 -121.323257 -3.831539
-42.347242 -101.676254 -18.053011
-41.324776 -103.519058 -18.260435
-42.268641 -102.555359 -17.393982
-49.976223 -87.014915 -15.361715
-50.674771 -86.354805 -14.667808
-50.850869 -85.338562 -15.410815
-43.462141 -97.764634 -19.038645
-44.33775 -96.882706 -18.243889
-44.372423 -95.833023 -18.817572
-42.492216 -98.687005 -19.837372
-43.462141 -97.764634 -19.038645
-42.511362 -97.587326 -20.339365
-42.492216 -98.687005 -19.837372
-42.543467 -95.223679 -21.327292
-43.550995 -93.145264 -21.184793
-46.371349 -85.705169 -21.513361
-46.3124 -87.052994 -20.86038
-47.232234 -85.020309 -20.858894
-27.01618 -117.455826 3.628899
-26.530714 -117.575547 4.785339
-28.403003 -116.320481 3.756127
-27.01618 -117.455826 3.628899
-46.236644 -93.656739 18.330824
-46.200588 -94.42215 17.038578
-45.903519 -94.840271 18.379303
-46.48648 -92.475273 18.207885
-46.236644 -93.656739 18.330824
-46.759121 -92.054161 16.827472
-46.48648 -92.475273 18.207885
-28.111034 -74.633644 53.943861
-27.9204 -73.826774 55.000061
-28.469143 -73.599625 54.436468
-27.818742 -75.695851 53.463505
-28.111034 -74.633644 53.943861
-28.367484 -75.4687 52.899912
-42.172798 -93.695419 37.353775
-42.223335 -92.818871 38.654471
-42.740212 -92.779457 37.358351
-44.896515 -94.551186 25.032484
-44.53221 -94.945374 26.426922
-44.914825 -95.308121 23.702735
-44.896515 -94.551186 25.032484
-44.86207 -96.068634 22.290313
-44.489126 -96.468964 23.630482
-44.914825 -95.308121 23.702735
-45.239565 -95.667809 21.01006
-44.813866 -96.828652 20.937807
-44.86207 -96.068634 22.290313
-45.565467 -95.251343 19.664551
-45.239565 -95.667809 21.01006
-45.903519 -94.840271 18.379303
-45.529411 -96.016754 18.372305
-45.565467 -95.251343 19.664551
-53.548304 -83.557186 -7.385258
-53.956352 -82.991944 -6.537809
-23.412225 -121.118515 -19.097439
-23.492819 -121.57862 -18.188669
-23.412225 -121.118515 -19.097439
-24.898702 -119.896682 -19.729685
-50.324085 -88.005524 1.053961
-49.810569 -89.318008 1.211749
-50.798763 -87.352104 -0.077253
-50.324085 -88.005524 1.053961
-50.591869 -87.998688 -1.02777
-50.798763 -87.352104 -0.077253
-23.013334 -77.899338 57.471086
-23.662783 -77.499313 56.925466
-22.498546 -78.741211 56.437906
-22.322316 -78.291183 57.951969
-23.013334 -77.899338 57.471086
-21.132177 -82.716542 50.164125
-21.881592 -82.357232 49.795896
-21.518335 -83.297062 48.552528
-20.745672 -82.212582 51.847561
-21.132177 -82.716542 50.164125
-24.62863 -96.740494 29.276995
-23.754676 -96.923066 29.454384
-24.202348 -95.524017 30.701346
-32.368055 -81.871467 48.746594
-32.933544 -83.101272 48.466734
-31.623461 -81.882183 48.730505
-31.832867 -80.652882 49.185541
-32.368055 -81.871467 48.746594
-16.967884 -125.776139 -3.698967
-15.606011 -126.380699 -3.465285
-17.763721 -125.542419 -5.138367
-16.967884 -125.776139 -3.698967
-18.342579 -125.063263 -3.820873
-28.042857 -117.90979 -3.315624
-26.655496 -119.083619 -3.515815
-28.827244 -117.481384 -4.313635
-28.042857 -117.90979 -3.315624
-29.414348 -116.729584 -3.019064
-51.29663 -86.823288 -11.511181
-50.916944 -87.681702 -10.610647
-51.773039 -86.105927 -10.685863
-50.736711 -87.499649 -12.272185
-51.29663 -86.823288 -11.511181
-51.592806 -85.923874 -12.347402
-44.476151 -91.118882 -21.027878
-43.550995 -93.145264 -21.184793
-44.45694 -92.381211 -20.515989
-43.164282 -92.639069 35.994085
-42.740212 -92.779457 37.358351
-43.158062 -93.459305 34.690212
-43.164282 -92.639069 35.994085
-43.151162 -94.300979 33.286862
-42.682773 -94.497681 34.654304
-43.158062 -93.459305 34.690212
-43.645836 -94.060486 31.942887
-43.170547 -95.098861 31.906979
-43.151162 -94.300979 33.286862
-44.054136 -93.750389 30.530226
-43.645836 -94.060486 31.942887
-44.093879 -94.520332 29.186972
-44.054136 -93.750389 30.530226
-22.448654 -112.541741 16.493199
-22.158285 -111.526466 17.600527
-23.760936 -112.095917 16.202688
-22.79639 -113.491387 15.47548
-22.448654 -112.541741 16.493199
-27.934416 -117.199928 -20.657131
-29.436563 -116.42096 -20.273424
-48.53286 -88.665031 10.060609
-48.439281 -87.94838 11.074034
-22.405183 -84.641319 45.310089
-21.959063 -83.924076 46.883898
-22.71387 -83.654995 46.61049
-22.889336 -85.410553 43.677914
-22.134529 -85.679634 43.95132
-22.405183 -84.641319 45.310089
-34.067934 -85.5551 47.774821
-33.492812 -84.342514 48.061097
-37.110681 -95.052849 40.568748
-37.216871 -94.011444 41.995666
-36.38159 -95.375709 39.970754
-37.110681 -95.052849 40.568748
-37.015953 -96.082519 39.03517
-21.009922 -122.937248 -1.337892
-19.625177 -123.827072 -1.223973
-21.692454 -122.690124 -2.62171
-21.009922 -122.937248 -1.337892
-30.719659 -115.127014 -0.450892
-30.010721 -115.957016 -1.738827
-51.066578 -84.301727 -16.202482
-50.850869 -85.338562 -15.410815
-50.294936 -84.897163 -16.840334
-51.066578 -84.301727 -16.202482
-49.548544 -85.592835 -17.544094
-49.405929 -86.694344 -16.808481
-50.294936 -84.897163 -16.840334
-48.746017 -86.220032 -18.195591
-49.548544 -85.592835 -17.544094
-49.635024 -84.422852 -18.227444
-48.083902 -84.435563 -20.244335
-48.002891 -85.709091 -19.542428
-48.913507 -83.77652 -19.580849
-47.232234 -85.020309 -20.858894
-48.083902 -84.435563 -20.244335
-20.836727 -123.850693 -15.378588
-21.026601 -123.985336 -14.207217
-22.173118 -122.937347 -16.363632
-20.836727 -123.850693 -15.378588
-23.539399 -121.952507 -17.219328
-22.173118 -122.937347 -16.363632
-23.653388 -122.203331 -16.143133
-24.97309 -120.844605 -17.96817
-23.492819 -121.57862 -18.188669
-23.539399 -121.952507 -17.219328
-30.906001 -115.577202 -19.810924
-29.436563 -116.42096 -20.273424
-29.391067 -117.041282 -19.508253
-30.906001 -115.577202 -19.810924
-32.320728 -114.692611 -19.243496
-35.077497 -112.225387 -18.71693
-33.700183 -113.752914 -18.615271
-34.996729 -112.790604 -17.890963
-35.077497 -112.225387 -18.71693
-36.467871 -110.576813 -18.745134
-47.616196 -90.7808 12.849958
-47.391666 -91.971085 13.039532
-47.32893 -91.210457 14.149949
-47.866196 -89.578964 12.645957
-47.928932 -90.339592 11.53554
-47.616196 -90.7808 12.849958
-48.062988 -88.395882 12.385893
-47.866196 -89.578964 12.645957
-48.439281 -87.94838 11.074034
-48.062988 -88.395882 12.385893
-24.914164 -76.840713 55.902661
-24.312285 -77.184219 56.45982
-27.419574 -74.144706 55.700294
-27.9204 -73.826774 55.000061
-27.419574 -74.144706 55.700294
-27.016277 -75.116752 55.077244
-25.52849 -76.593799 55.451914
-26.093739 -76.29903 54.885635
-25.102892 -77.472263 54.574984
-24.914164 -76.840713 55.902661
-25.52849 -76.593799 55.451914
-41.756439 -92.788002 39.919327
-42.223335 -92.818871 38.654471
-41.756439 -92.788002 39.919327
-41.107163 -93.57875 39.842122
-38.389792 -96.233223 38.584739
-39.105995 -95.728676 39.024704
-38.320746 -97.211167 36.993378
-37.675999 -96.737603 38.041801
-38.389792 -96.233223 38.584739
-44.107292 -96.064415 26.368372
-44.09762 -95.301338 27.75239
-44.53221 -94.945374 26.426922
-53.166763 -84.189793 -8.250111
-52.628591 -84.982018 -7.236891
-53.548304 -83.557186 -7.385258
-52.707884 -84.792099 -9.062735
-53.166763 -84.189793 -8.250111
-52.281035 -85.466957 -9.904528
-51.820202 -86.289482 -8.943537
-52.707884 -84.792099 -9.062735
-52.66072 -84.608543 -10.805062
-51.773039 -86.105927 -10.685863
-52.281035 -85.466957 -9.904528
-26.396262 -118.603844 -20.246305
-27.934416 -117.199928 -20.657131
-48.583059 -89.410904 8.997267
-48.229132 -89.883629 10.268196
-48.53286 -88.665031 10.060609
-48.603521 -90.131858 7.973796
-48.583059 -89.410904 8.997267
-48.907249 -88.913262 7.76621
-49.289017 -89.084755 5.547865
-49.313406 -88.396698 6.539554
-48.869843 -90.371223 5.706964
-49.289017 -89.084755 5.547865
-49.231148 -89.821763 4.51209
-48.608537 -92.827355 0.382582
-48.325542 -93.427887 1.510979
-48.821287 -92.033089 1.444673
-48.867368 -92.209 -0.708578
-48.371624 -93.603798 -0.642273
-48.608537 -92.827355 0.382582
-49.638444 -90.057839 0.19695
-49.810569 -89.318008 1.211749
-49.425134 -90.771896 -0.785856
-49.638444 -90.057839 0.19695
-49.959297 -89.397179 -0.905183
-49.188221 -91.54834 -1.810711
-48.867368 -92.209 -0.708578
-49.425134 -90.771896 -0.785856
-52.23366 -85.247872 -3.361807
-51.488865 -86.589875 -3.20856
-52.822029 -84.516563 -4.439808
-52.23366 -85.247872 -3.361807
-53.343796 -83.758522 -5.483849
-52.488366 -85.107452 -5.327998
-52.822029 -84.516563 -4.439808
-53.956352 -82.991944 -6.537809
-53.343796 -83.758522 -5.483849
-22.056688 -79.583996 55.349283
-22.498546 -78.741211 56.437906
-22.747706 -79.19215 54.868401
-21.580253 -80.43813 54.222383
-21.900641 -80.905823 52.593636
-21.175045 -81.309018 53.036242
-22.056688 -79.583996 55.349283
-21.580253 -80.43813 54.222383
-21.851138 -86.786324 42.66193
-22.134529 -85.679634 43.95132
-21.851138 -86.786324 42.66193
-22.35029 -87.616119 40.990137
-22.587639 -89.755646 38.050596
-22.863511 -88.534988 39.414633
-23.369252 -89.507263 37.8041
-21.792165 -90.090042 38.425085
-22.587639 -89.755646 38.050596
-22.297906 -91.062317 36.814552
-21.018277 -90.504303 38.87899
-21.792165 -90.090042 38.425085
-20.724681 -91.880295 37.781998
-21.018277 -90.504303 38.87899
-20.382519 -93.314224 36.687069
-20.724681 -91.880295 37.781998
-21.16027 -92.830643 36.094113
-20.03522 -94.79412 35.741377
-20.382519 -93.314224 36.687069
-20.390408 -95.792442 34.071713
-20.03522 -94.79412 35.741377
-20.390408 -95.792442 34.071713
-21.216954 -95.325981 33.384399
-22.472098 -96.046989 31.324174
-22.026574 -94.913551 32.856734
-22.88287 -94.573151 32.411295
-22.472098 -96.046989 31.324174
-22.838332 -97.199905 29.805704
-30.337368 -77.190174 50.579133
-30.809815 -78.308098 50.079613
-29.69662 -77.314743 50.940638
-30.337368 -77.190174 50.579133
-29.453997 -78.407875 50.450453
-29.04 -77.359016 51.142708
-29.69662 -77.314743 50.940638
-33.847954 -86.791085 47.037817
-34.067934 -85.5551 47.774821
-36.615634 -93.248077 42.831062
-37.216871 -94.011444 41.995666
-36.615634 -93.248077 42.831062
-35.860754 -93.427819 42.316839
-34.506536 -92.522705 42.510525
-35.124382 -93.581612 41.690295
-34.385728 -93.594718 41.071475
-34.506536 -92.522705 42.510525
-33.910854 -91.435669 43.20542
-33.657896 -87.968239 46.159193
-33.475447 -89.136544 45.121084
-33.087126 -86.760407 46.601658
-33.847954 -86.791085 47.037817
-33.657896 -87.968239 46.159193
-25.110253 -98.008736 27.95814
-24.62863 -96.740494 29.276995
-25.557925 -96.609688 29.205103
-24.59691 -99.399681 26.724849
-25.110253 -98.008736 27.95814
-25.526204 -99.268876 26.652957
-24.026468 -100.891739 25.671239
-24.59691 -99.399681 26.724849
-23.381917 -102.363098 24.63946
-24.026468 -100.891739 25.671239
-24.36831 -102.13118 24.387887
-22.681377 -103.911987 23.782447
-23.381917 -102.363098 24.63946
-22.950791 -105.11985 22.518031
-22.681377 -103.911987 23.782447
-22.950791 -105.11985 22.518031
-24.075989 -104.820678 22.190599
-25.561992 -105.804665 20.962263
-25.137083 -104.605446 22.03744
-26.270856 -104.371292 21.974614
-24.798273 -107.185318 19.961085
-25.561992 -105.804665 20.962263
-25.932046 -106.951165 19.898259
-23.967162 -108.654725 19.131056
-24.798273 -107.185318 19.961085
-24.290764 -109.739045 18.058744
-23.089599 -110.061951 18.29272
-23.967162 -108.654725 19.131056
-25.778132 -113.337585 14.107139
-24.469568 -113.817268 14.188612
-25.417236 -112.56588 15.103496
-26.16674 -113.985207 13.168402
-25.778132 -113.337585 14.107139
-27.114408 -112.733818 14.083286
-26.53161 -114.547889 12.164538
-26.16674 -113.985207 13.168402
-26.910883 -114.9702 11.209988
-26.53161 -114.547889 12.164538
-27.882289 -113.803749 12.190001
-27.279419 -115.310707 10.180142
-26.910883 -114.9702 11.209988
-27.655327 -115.50959 9.196542
-27.279419 -115.310707 10.180142
-28.63747 -114.424942 10.25185
-28.039782 -115.635872 8.136043
-27.655327 -115.50959 9.196542
-28.430571 -115.634819 7.123575
-28.039782 -115.635872 8.136043
-29.404168 -114.622772 8.255782
-28.854095 -115.574333 6.041534
-27.489708 -116.587433 5.921795
-28.430571 -115.634819 7.123575
-29.77561 -115.20755 3.928502
-28.403003 -116.320481 3.756127
-29.285838 -115.414017 5.012129
-30.273372 -114.936882 2.901978
-29.77561 -115.20755 3.928502
-31.156207 -114.030418 4.157979
-30.850903 -114.628868 1.843135
-30.273372 -114.936882 2.901978
-31.428621 -114.294433 0.842579
-30.850903 -114.628868 1.843135
-32.231687 -113.425315 2.130898
-32.100443 -113.923462 -0.163129
-30.719659 -115.127014 -0.450892
-31.428621 -114.294433 0.842579
-15.043174 -126.743599 -4.768695
-15.606011 -126.380699 -3.465285
-15.043174 -126.743599 -4.768695
-15.927711 -126.534859 -6.341207
-16.121598 -126.472572 -10.402621
-16.477536 -126.404282 -9.114497
-17.217584 -125.966019 -11.807483
-16.121598 -126.472572 -10.402621
-18.627386 -125.388321 -11.845019
-17.217584 -125.966019 -11.807483
-20.025787 -124.697472 -11.855251
-18.627386 -125.388321 -11.845019
-18.887076 -125.303292 -10.573274
-21.452015 -123.931152 -11.733688
-21.192324 -124.016182 -13.005434
-20.025787 -124.697472 -11.855251
-22.495336 -122.368095 -3.94393
-21.108969 -123.34893 -3.939177
-21.692454 -122.690124 -2.62171
-23.300244 -121.982063 -5.149006
-22.495336 -122.368095 -3.94393
-23.883729 -121.323257 -3.831539
-26.072195 -119.799408 -4.823405
-25.271937 -120.221435 -3.729025
-26.655496 -119.083619 -3.515815
-40.181787 -105.376473 -18.447893
-39.027029 -107.146316 -18.597675
-40.091415 -106.168007 -17.751188
-40.181787 -105.376473 -18.447893
-41.324776 -103.519058 -18.260435
-51.291151 -85.639343 -13.912657
-51.939718 -85.012764 -13.215296
-50.416506 -87.315697 -13.863557
-51.291151 -85.639343 -13.912657
-50.674771 -86.354805 -14.667808
-44.270416 -97.885925 -17.606896
-45.180699 -95.954316 -17.385822
-44.33775 -96.882706 -18.243889
-43.359287 -99.763435 -17.82576
-44.202236 -98.835045 -16.967694
-44.270416 -97.885925 -17.606896
-42.347242 -101.676254 -18.053011
-43.359287 -99.763435 -17.82576
-42.528847 -96.433648 -20.869653
-42.511362 -97.587326 -20.339365
-43.514299 -95.561272 -20.142617
-42.528847 -96.433648 -20.869653
-42.543467 -95.223679 -21.327292
-44.51086 -89.810395 -21.605764
-44.476151 -91.118882 -21.027878
-45.416805 -89.046341 -20.93696
-45.503801 -86.319344 -22.113077
-46.371349 -85.705169 -21.513361
-44.546316 -88.436684 -22.121237
-45.503801 -86.319344 -22.113077
-44.51086 -89.810395 -21.605764
-44.546316 -88.436684 -22.121237
3 0 101 99
3 1 104 102
3 3 107 105
3 3 109 107
3 4 112 110
3 4 114 112
3 4 116 114
3 1 119 117
3 1 102 119
3 397 121 398
3 2 124 122
3 5 127 125
3 7 130 128
3 7 132 130
3 399 135 400
3 401 137 402
3 403 402 135
3 401 402 403
3 10 140 138
3 10 142 140
3 10 144 142
3 12 404 405
3 12 406 407
3 6 408 410
3 410 409 147
3 408 409 410
3 13 150 148
3 15 153 151
3 15 155 153
3 8 158 156
3 9 411 413
3 411 160 412
3 411 412 413
3 415 414 161
3 16 165 163
3 16 167 165
3 17 416 418
3 416 168 417
3 416 417 418
3 17 170 168
3 18 173 171
3 18 175 173
3 18 177 175
3 19 180 178
3 19 182 180
3 19 184 182
3 20 187 185
3 20 189 187
3 11 192 190
3 21 195 193
3 21 197 195
3 21 199 197
3 13 202 200
3 13 148 202
3 23 419 420
3 23 421 423
3 421 205 422
3 421 422 423
3 23 207 205
3 22 424 426
3 424 209 425
3 424 425 426
3 22 211 209
3 14 214 212
3 24 217 215
3 24 219 217
3 427 221 428
3 25 224 222
3 25 226 224
3 25 228 226
3 26 231 229
3 28 232 100
3 28 233 232
3 429 235 430
3 29 238 236
3 31 239 103
3 31 240 239
3 32 243 241
3 34 244 106
3 34 245 244
3 34 247 245
3 36 248 108
3 36 249 248
3 37 431 433
3 431 251 432
3 431 432 433
3 39 252 111
3 39 253 252
3 39 255 253
3 41 256 113
3 41 257 256
3 41 259 257
3 43 260 115
3 43 261 260
3 44 264 262
3 46 265 118
3 46 266 265
3 46 268 266
3 29 269 120
3 29 236 269
3 48 272 270
3 50 273 123
3 50 274 273
3 434 275 435
3 437 436 275
3 52 438 440
3 438 277 439
3 438 439 440
3 53 278 126
3 53 279 278
3 27 280 230
3 54 281 129
3 54 282 281
3 54 441 443
3 443 442 282
3 441 442 443
3 55 444 446
3 446 445 131
3 444 445 446
3 55 447 448
3 56 285 283
3 449 286 450
3 451 450 133
3 449 450 451
3 454 453 286
3 452 453 454
3 58 455 457
3 457 456 134
3 455 456 457
3 58 458 460
3 458 287 459
3 458 459 460
3 58 288 287
3 59 289 136
3 59 290 289
3 60 461 463
3 463 462 139
3 461 462 463
3 60 464 465
3 60 466 468
3 466 291 467
3 466 467 468
3 61 292 141
3 61 293 292
3 61 295 293
3 63 296 143
3 63 297 296
3 469 298 470
3 471 470 234
3 469 470 471
3 64 299 145
3 64 300 299
3 64 301 300
3 56 302 146
3 56 283 302
3 65 305 303
3 67 308 306
3 69 309 149
3 69 310 309
3 30 311 237
3 70 312 152
3 70 313 312
3 70 314 313
3 71 315 154
3 71 316 315
3 57 317 284
3 72 318 157
3 72 319 318
3 472 320 473
3 474 321 475
3 476 322 477
3 478 477 321
3 476 477 478
3 480 479 322
3 481 323 482
3 483 482 159
3 481 482 483
3 484 324 485
3 486 485 323
3 484 485 486
3 487 325 488
3 489 488 324
3 487 488 489
3 33 326 242
3 491 490 162
3 35 492 494
3 494 493 246
3 492 493 494
3 73 327 164
3 73 328 327
3 73 495 497
3 497 496 328
3 495 496 497
3 499 498 166
3 74 500 501
3 74 502 504
3 502 329 503
3 502 503 504
3 74 330 329
3 75 331 169
3 75 332 331
3 38 505 507
3 507 506 250
3 505 506 507
3 76 508 510
3 510 509 172
3 508 509 510
3 76 511 513
3 511 333 512
3 511 512 513
3 76 334 333
3 77 335 174
3 77 336 335
3 77 337 336
3 78 338 176
3 78 339 338
3 40 340 254
3 79 341 179
3 79 342 341
3 79 343 342
3 80 344 181
3 80 345 344
3 80 514 516
3 516 515 345
3 514 515 516
3 81 346 183
3 81 347 346
3 42 348 258
3 82 349 186
3 82 350 349
3 82 351 350
3 83 352 188
3 83 353 352
3 62 354 294
3 84 355 191
3 84 356 355
3 45 357 263
3 85 358 194
3 85 359 358
3 85 360 359
3 86 361 196
3 86 362 361
3 86 363 362
3 87 364 198
3 87 365 364
3 47 366 267
3 88 367 201
3 88 368 367
3 88 369 368
3 67 370 203
3 67 306 370
3 90 517 519
3 519 518 204
3 517 518 519
3 90 520 522
3 520 372 521
3 520 521 522
3 90 373 372
3 91 374 206
3 91 375 374
3 523 376 524
3 92 377 208
3 92 378 377
3 92 379 378
3 89 380 210
3 89 371 380
3 68 381 307
3 93 382 213
3 93 383 382
3 49 384 271
3 94 385 216
3 94 386 385
3 94 387 386
3 95 388 218
3 95 525 527
3 527 526 388
3 525 526 527
3 66 389 304
3 96 390 220
3 96 391 390
3 51 528 530
3 528 392 529
3 528 529 530
3 97 393 223
3 97 394 393
3 97 395 394
3 98 531 533
3 533 532 225
3 531 532 533
3 98 534 535
3 98 536 537
3 539 538 227
3 540 396 541
3 542 541 276
3 540 541 542
3 99 100 26
3 101 100 99
3 101 28 100
3 102 103 29
3 104 103 102
3 104 31 103
3 105 106 32
3 107 106 105
3 107 34 106
3 107 108 34
3 109 108 107
3 109 36 108
3 110 111 37
3 112 111 110
3 112 39 111
3 112 113 39
3 114 113 112
3 114 41 113
3 114 115 41
3 116 115 114
3 116 43 115
3 117 118 44
3 119 118 117
3 119 46 118
3 119 120 46
3 102 120 119
3 102 29 120
3 121 543 544
3 121 545 546
3 122 123 48
3 124 123 122
3 124 50 123
3 125 126 52
3 127 126 125
3 127 53 126
3 128 129 27
3 130 129 128
3 130 54 129
3 130 131 54
3 132 131 130
3 132 55 131
3 547 133 548
3 549 548 56
3 547 548 549
3 550 133 551
3 553 552 133
3 554 134 555
3 554 555 556
3 135 557 559
3 557 134 558
3 557 558 559
3 135 58 134
3 135 136 58
3 137 136 135
3 137 59 136
3 138 560 562
3 560 139 561
3 560 561 562
3 140 139 138
3 140 60 139
3 140 141 60
3 142 141 140
3 142 61 141
3 142 143 61
3 144 143 142
3 144 63 143
3 563 145 564
3 565 145 566
3 567 64 568
3 569 568 145
3 567 568 569
3 570 146 571
3 572 571 64
3 570 571 572
3 573 146 574
3 575 56 576
3 577 576 146
3 575 576 577
3 579 578 65
3 147 580 581
3 583 582 147
3 148 149 67
3 150 149 148
3 150 69 149
3 151 152 30
3 153 152 151
3 153 70 152
3 153 154 70
3 155 154 153
3 155 71 154
3 156 157 57
3 158 157 156
3 158 72 157
3 584 159 585
3 586 159 587
3 589 588 159
3 160 590 591
3 160 592 594
3 592 593 594
3 161 162 33
3 595 162 596
3 597 596 161
3 595 596 597
3 599 598 162
3 163 164 35
3 165 164 163
3 165 73 164
3 165 166 73
3 167 166 165
3 167 600 602
3 602 601 166
3 600 601 602
3 168 603 604
3 168 605 607
3 605 74 606
3 605 606 607
3 168 169 74
3 170 169 168
3 170 75 169
3 171 172 38
3 173 172 171
3 173 76 172
3 173 174 76
3 175 174 173
3 175 77 174
3 175 176 77
3 177 176 175
3 177 78 176
3 178 179 40
3 180 179 178
3 180 79 179
3 180 181 79
3 182 181 180
3 182 80 181
3 182 183 80
3 184 183 182
3 184 81 183
3 185 186 42
3 187 186 185
3 187 82 186
3 187 188 82
3 189 188 187
3 189 83 188
3 190 191 62
3 192 191 190
3 192 84 191
3 193 194 45
3 195 194 193
3 195 85 194
3 195 196 85
3 197 196 195
3 197 86 196
3 197 198 86
3 199 198 197
3 199 87 198
3 200 201 47
3 202 201 200
3 202 88 201
3 202 203 88
3 148 203 202
3 148 67 203
3 608 204 609
3 205 610 612
3 610 204 611
3 610 611 612
3 205 90 204
3 205 206 90
3 207 206 205
3 207 91 206
3 613 208 614
3 209 615 617
3 615 208 616
3 615 616 617
3 209 92 208
3 209 210 92
3 211 210 209
3 211 89 210
3 212 213 68
3 214 213 212
3 214 93 213
3 215 216 49
3 217 216 215
3 217 94 216
3 217 218 94
3 219 218 217
3 219 95 218
3 618 220 619
3 620 619 66
3 618 619 620
3 221 621 623
3 621 220 622
3 621 622 623
3 221 96 220
3 222 223 51
3 224 223 222
3 224 97 223
3 224 225 97
3 226 225 224
3 226 98 225
3 226 227 98
3 228 227 226
3 228 624 626
3 626 625 227
3 624 625 626
3 229 230 5
3 231 230 229
3 231 27 230
3 100 231 26
3 232 231 100
3 232 27 231
3 232 128 27
3 233 128 232
3 233 7 128
3 627 138 628
3 629 138 630
3 631 10 632
3 633 632 138
3 631 632 633
3 634 234 635
3 636 635 10
3 634 635 636
3 637 234 638
3 640 639 234
3 235 641 642
3 235 643 645
3 643 12 644
3 643 644 645
3 647 646 6
3 236 237 13
3 238 237 236
3 238 30 237
3 103 238 29
3 239 238 103
3 239 30 238
3 239 151 30
3 240 151 239
3 240 15 151
3 649 648 8
3 241 242 9
3 243 242 241
3 243 33 242
3 106 243 32
3 244 243 106
3 244 33 243
3 244 161 33
3 245 161 244
3 245 650 652
3 652 651 161
3 650 651 652
3 245 653 655
3 653 246 654
3 653 654 655
3 247 246 245
3 247 35 246
3 108 247 34
3 248 247 108
3 248 35 247
3 248 163 35
3 249 163 248
3 249 16 163
3 656 17 657
3 658 250 659
3 251 660 662
3 660 250 661
3 660 661 662
3 251 38 250
3 111 251 37
3 252 251 111
3 252 38 251
3 252 171 38
3 253 171 252
3 253 18 171
3 253 254 18
3 255 254 253
3 255 40 254
3 113 255 39
3 256 255 113
3 256 40 255
3 256 178 40
3 257 178 256
3 257 19 178
3 257 258 19
3 259 258 257
3 259 42 258
3 115 259 41
3 260 259 115
3 260 42 259
3 260 185 42
3 261 185 260
3 261 20 185
3 262 263 11
3 264 263 262
3 264 45 263
3 118 264 44
3 265 264 118
3 265 45 264
3 265 193 45
3 266 193 265
3 266 21 193
3 266 267 21
3 268 267 266
3 268 47 267
3 120 268 46
3 269 268 120
3 269 47 268
3 269 200 47
3 236 200 269
3 236 13 200
3 663 23 664
3 666 665 23
3 667 22 668
3 270 271 14
3 272 271 270
3 272 49 271
3 123 272 48
3 273 272 123
3 273 49 272
3 273 215 49
3 274 215 273
3 274 24 215
3 669 51 670
3 671 51 672
3 673 222 674
3 675 674 51
3 673 674 675
3 275 676 678
3 676 222 677
3 676 677 678
3 275 25 222
3 275 276 25
3 679 276 680
3 681 680 275
3 679 680 681
3 683 682 276
3 277 684 685
3 277 686 687
3 126 277 52
3 278 277 126
3 278 688 690
3 690 689 277
3 688 689 690
3 278 691 693
3 691 147 692
3 691 692 693
3 279 147 278
3 279 6 147
3 230 127 5
3 280 127 230
3 280 53 127
3 129 280 27
3 281 280 129
3 281 53 280
3 281 279 53
3 282 279 281
3 282 6 279
3 282 694 696
3 696 695 6
3 694 695 696
3 698 697 282
3 131 699 701
3 701 700 54
3 699 700 701
3 703 702 131
3 283 284 1
3 285 284 283
3 285 57 284
3 133 285 56
3 286 285 133
3 286 57 285
3 286 156 57
3 704 156 705
3 706 705 286
3 704 705 706
3 707 8 708
3 709 708 156
3 707 708 709
3 710 8 711
3 713 712 8
3 714 9 715
3 134 716 717
3 719 718 134
3 287 720 721
3 287 722 724
3 722 9 723
3 722 723 724
3 287 241 9
3 288 241 287
3 288 32 241
3 136 288 58
3 289 288 136
3 289 32 288
3 289 105 32
3 290 105 289
3 290 3 105
3 139 725 726
3 728 727 139
3 291 729 730
3 291 731 733
3 731 37 732
3 731 732 733
3 141 291 60
3 292 291 141
3 292 37 291
3 292 110 37
3 293 110 292
3 293 4 110
3 293 294 4
3 295 294 293
3 295 62 294
3 143 295 61
3 296 295 143
3 296 62 295
3 296 190 62
3 297 190 296
3 297 11 190
3 234 144 10
3 298 144 234
3 298 63 144
3 145 734 736
3 734 298 735
3 734 735 736
3 299 298 145
3 299 63 298
3 299 297 63
3 300 297 299
3 300 11 297
3 300 262 11
3 301 262 300
3 301 44 262
3 146 301 64
3 302 301 146
3 302 44 301
3 302 117 44
3 283 117 302
3 283 1 117
3 303 304 2
3 305 304 303
3 305 66 304
3 737 305 738
3 739 738 65
3 737 738 739
3 740 305 741
3 742 66 743
3 744 743 305
3 742 743 744
3 747 746 66
3 745 746 747
3 749 748 6
3 306 307 0
3 308 307 306
3 308 68 307
3 149 308 67
3 309 308 149
3 309 68 308
3 309 212 68
3 310 212 309
3 310 14 212
3 237 150 13
3 311 150 237
3 311 69 150
3 152 311 30
3 312 311 152
3 312 69 311
3 312 310 69
3 313 310 312
3 313 14 310
3 313 270 14
3 314 270 313
3 314 48 270
3 154 314 70
3 315 314 154
3 315 48 314
3 315 122 48
3 316 122 315
3 316 2 122
3 284 104 1
3 317 104 284
3 317 31 104
3 157 317 57
3 318 317 157
3 318 31 317
3 318 240 31
3 319 240 318
3 319 15 240
3 750 158 751
3 752 751 8
3 750 751 752
3 320 753 755
3 753 158 754
3 753 754 755
3 320 72 158
3 756 320 757
3 321 758 760
3 758 320 759
3 758 759 760
3 321 72 320
3 321 319 72
3 322 319 321
3 322 15 319
3 322 155 15
3 761 155 762
3 763 762 322
3 761 762 763
3 764 71 765
3 766 765 155
3 764 765 766
3 159 767 768
3 323 769 771
3 771 770 159
3 769 770 771
3 323 772 774
3 772 71 773
3 772 773 774
3 323 316 71
3 324 316 323
3 324 2 316
3 324 303 2
3 325 303 324
3 325 65 303
3 775 325 776
3 777 325 778
3 779 65 780
3 781 780 325
3 779 780 781
3 783 782 65
3 242 160 9
3 326 160 242
3 326 784 786
3 786 785 160
3 784 785 786
3 162 326 33
3 787 326 788
3 789 788 162
3 787 788 789
3 791 790 326
3 246 792 793
3 795 794 246
3 164 796 798
3 798 797 35
3 796 797 798
3 327 799 801
3 801 800 164
3 799 800 801
3 327 802 803
3 327 804 805
3 328 806 808
3 808 807 327
3 806 807 808
3 328 809 810
3 328 811 812
3 814 813 328
3 166 815 817
3 817 816 73
3 815 816 817
3 819 818 166
3 329 820 821
3 329 822 823
3 329 824 826
3 824 137 825
3 824 825 826
3 330 137 329
3 330 59 137
3 169 330 74
3 331 330 169
3 331 59 330
3 331 290 59
3 332 290 331
3 332 3 290
3 827 17 828
3 250 829 830
3 832 831 250
3 172 833 835
3 835 834 38
3 833 834 835
3 837 836 172
3 333 838 839
3 333 840 842
3 840 17 841
3 840 841 842
3 333 170 17
3 334 170 333
3 334 75 170
3 174 334 76
3 335 334 174
3 335 75 334
3 335 332 75
3 336 332 335
3 336 3 332
3 336 109 3
3 337 109 336
3 337 36 109
3 176 337 77
3 338 337 176
3 338 36 337
3 338 249 36
3 339 249 338
3 339 16 249
3 254 177 18
3 340 177 254
3 340 78 177
3 179 340 40
3 341 340 179
3 341 78 340
3 341 339 78
3 342 339 341
3 342 16 339
3 342 167 16
3 343 167 342
3 343 843 845
3 845 844 167
3 843 844 845
3 181 343 79
3 344 343 181
3 344 846 848
3 848 847 343
3 846 847 848
3 344 849 850
3 345 851 853
3 853 852 344
3 851 852 853
3 345 854 855
3 345 856 857
3 859 858 345
3 183 860 862
3 862 861 80
3 860 861 862
3 346 863 865
3 865 864 183
3 863 864 865
3 346 866 867
3 346 868 870
3 868 235 869
3 868 869 870
3 347 235 346
3 347 12 235
3 258 184 19
3 348 184 258
3 348 81 184
3 186 348 42
3 349 348 186
3 349 81 348
3 349 347 81
3 350 347 349
3 350 12 347
3 350 871 873
3 873 872 12
3 871 872 873
3 351 874 876
3 876 875 350
3 874 875 876
3 351 877 878
3 188 351 82
3 352 351 188
3 352 879 881
3 881 880 351
3 879 880 881
3 352 882 883
3 353 884 886
3 886 885 352
3 884 885 886
3 353 887 888
3 294 116 4
3 354 116 294
3 354 43 116
3 191 354 62
3 355 354 191
3 355 43 354
3 355 261 43
3 356 261 355
3 356 20 261
3 263 192 11
3 357 192 263
3 357 84 192
3 194 357 45
3 358 357 194
3 358 84 357
3 358 356 84
3 359 356 358
3 359 20 356
3 359 189 20
3 360 189 359
3 360 83 189
3 196 360 85
3 361 360 196
3 361 83 360
3 361 353 83
3 362 353 361
3 362 889 891
3 891 890 353
3 889 890 891
3 362 892 894
3 892 121 893
3 892 893 894
3 363 121 362
3 363 895 897
3 897 896 121
3 895 896 897
3 198 363 86
3 364 363 198
3 364 898 900
3 900 899 363
3 898 899 900
3 364 901 902
3 365 903 905
3 905 904 364
3 903 904 905
3 365 906 908
3 906 22 907
3 906 907 908
3 267 199 21
3 366 199 267
3 366 87 199
3 201 366 47
3 367 366 201
3 367 87 366
3 367 365 87
3 368 365 367
3 368 22 365
3 368 211 22
3 369 211 368
3 369 89 211
3 203 369 88
3 370 369 203
3 370 89 369
3 370 371 89
3 306 371 370
3 306 0 371
3 204 909 910
3 912 911 204
3 372 913 914
3 372 915 916
3 372 917 918
3 373 919 921
3 921 920 372
3 919 920 921
3 373 922 924
3 922 52 923
3 922 923 924
3 206 373 90
3 374 373 206
3 374 52 373
3 374 125 52
3 375 125 374
3 375 5 125
3 925 207 926
3 927 926 23
3 925 926 927
3 376 928 930
3 928 207 929
3 928 929 930
3 376 91 207
3 208 931 933
3 931 376 932
3 931 932 933
3 377 376 208
3 377 91 376
3 377 375 91
3 378 375 377
3 378 5 375
3 378 229 5
3 379 229 378
3 379 26 229
3 210 379 92
3 380 379 210
3 380 26 379
3 380 99 26
3 371 99 380
3 371 0 99
3 307 101 0
3 381 101 307
3 381 28 101
3 213 381 68
3 382 381 213
3 382 28 381
3 382 233 28
3 383 233 382
3 383 7 233
3 271 214 14
3 384 214 271
3 384 93 214
3 216 384 49
3 385 384 216
3 385 93 384
3 385 383 93
3 386 383 385
3 386 7 383
3 386 132 7
3 387 132 386
3 387 55 132
3 218 387 94
3 388 387 218
3 388 55 387
3 388 934 936
3 936 935 55
3 934 935 936
3 938 937 388
3 304 124 2
3 389 124 304
3 389 50 124
3 220 389 66
3 390 389 220
3 390 50 389
3 390 274 50
3 391 274 390
3 391 24 274
3 939 221 940
3 392 941 943
3 941 221 942
3 941 942 943
3 392 96 221
3 223 392 51
3 393 392 223
3 393 96 392
3 393 391 96
3 394 391 393
3 394 24 391
3 394 219 24
3 395 219 394
3 395 95 219
3 225 395 97
3 944 395 945
3 946 945 225
3 944 945 946
3 947 95 948
3 949 948 395
3 947 948 949
3 951 950 95
3 227 952 954
3 954 953 98
3 952 953 954
3 956 955 227
3 276 228 25
3 396 228 276
3 396 957 959
3 959 958 228
3 957 958 959
3 960 396 961
3 962 396 963
3 965 964 396
