ply
format ascii 1.0
element vertex 278
property float x
property float y
property float z
element face 242
property list uchar int vertex_index
end_header
-34.942738 13.366093 -56.411888
-29.00728 5.151871 -54.442215
-52.854301 8.579321 -48.775024
-31.489237 9.686392 -56.29969
-29.344641 8.965551 -52.762306
-43.647507 12.994282 -54.564659
-48.391716 13.639507 -50.336632
-48.527985 8.2805 -53.317184
-39.285702 15.925457 -54.57061
-39.11599 11.206589 -57.295738
-35.194626 8.47121 -58.141647
-29.481354 0.562963 -54.424255
-56.525139 7.834194 -43.497143
-43.757656 10.203255 -55.823586
-46.051125 10.815252 -54.086006
-46.297989 7.79414 -55.178871
-48.882454 5.090654 -54.22979
-46.748062 4.546267 -55.864136
-37.430214 16.547157 -54.035995
-37.019512 14.804241 -55.730949
-39.058407 13.787865 -56.12442
-36.895569 12.558992 -57.054573
-37.065277 9.947214 -57.968956
-34.925423 11.067625 -57.493393
-30.130421 7.511963 -55.559685
-31.627207 7.397511 -56.8993
-29.1544 2.930588 -54.643547
-50.61919 11.265163 -49.666008
-50.661724 13.481548 -47.806446
-52.745361 11.06085 -47.099369
-54.672604 10.556725 -44.359955
-54.804417 8.343845 -46.206898
-56.804321 5.412336 -45.128674
-55.053722 5.667601 -47.669212
-33.09341 11.648247 -56.597511
-31.623741 11.691582 -55.265182
-30.209347 9.535055 -54.736877
-29.065975 7.180407 -53.811241
-43.784794 15.33971 -52.934303
-46.027615 13.471779 -52.608444
-48.3624 11.177307 -52.013084
-50.73748 8.551167 -51.16201
-53.101982 5.681635 -50.06588
-51.020859 5.479126 -52.272987
-41.374249 14.724609 -54.734993
-41.323902 12.230436 -56.145905
-41.54203 9.36688 -57.162781
-39.447563 8.327955 -58.047279
-37.499931 7.100597 -58.438705
-33.168312 9.340063 -57.433632
-33.50996 6.790363 -57.820381
-34.07016 4.090132 -57.740128
-28.183363 4.663523 -52.559296
-28.109594 2.631313 -53.024437
-56.352531 9.757856 -41.487823
-57.978378 7.053513 -40.676472
-45.203102 7.456583 -55.92884
-45.027822 8.998698 -55.501228
-43.932935 8.661141 -56.251198
-45.428139 5.832647 -56.271473
-46.523026 6.170203 -55.521504
-45.203102 7.456583 -55.92884
-45.705567 4.207892 -56.482869
-45.428139 5.832647 -56.271473
-35.981125 14.085167 -56.071419
-36.139122 15.023876 -55.33152
-35.100735 14.304802 -55.671989
-29.650222 5.204051 -55.193283
-30.211793 6.384097 -55.752018
-29.56885 6.331917 -55.00095
-29.08084 4.04123 -54.542881
-29.723782 4.093409 -55.293949
-29.650222 5.204051 -55.193283
-31.830389 12.509552 -54.546547
-32.467619 12.650523 -55.302929
-29.776994 9.250303 -53.749592
-30.376545 10.396216 -54.118015
-29.944192 10.111463 -53.13073
-50.166096 3.629772 -53.613056
-49.139012 3.407174 -54.48515
-39.527625 16.701475 -53.622501
-38.59988 17.012325 -53.355194
-38.357958 16.236307 -54.303303
-40.484747 16.310077 -53.769219
-39.527625 16.701475 -53.622501
-40.329976 15.325033 -54.652802
-41.529021 15.709653 -53.85141
-40.484747 16.310077 -53.769219
-35.451652 7.080296 -58.234607
-36.604305 6.394989 -58.383136
-36.347279 7.785903 -58.290176
-32.757084 5.8502 -57.432975
-32.568584 7.093937 -57.35984
-31.815707 6.153773 -56.972435
-33.037184 4.500084 -57.392849
-33.79006 5.440247 -57.780254
-32.757084 5.8502 -57.432975
-33.321333 3.191801 -57.238102
-33.037184 4.500084 -57.392849
-30.34245 0.427111 -54.910797
-30.07291 1.697752 -55.154949
-29.720332 -0.676581 -54.118358
-30.34245 0.427111 -54.910797
-27.992166 4.282709 -51.44574
-28.30901 5.581575 -52.12098
-27.771434 1.304421 -52.203796
-27.830205 2.324621 -52.040115
-28.157409 1.53464 -53.05178
-27.771434 1.304421 -52.203796
-48.49168 14.577343 -49.331046
-47.304485 14.623966 -50.557468
-50.74602 14.269083 -46.720123
-51.713053 13.237215 -46.438709
-57.411263 6.368508 -42.986515
-58.137882 5.978167 -41.576179
-57.251759 7.443853 -42.086807
-57.759889 3.872203 -44.49828
-56.991213 4.005827 -45.743052
-54.254993 4.161506 -49.402119
-53.288242 4.083948 -50.518345
-29.590186 9.714968 -52.044296
-29.944192 10.111463 -53.13073
-48.071815 3.134981 -55.302323
-49.139012 3.407174 -54.48515
-47.815258 4.818461 -55.046963
-47.052773 2.862076 -55.993035
-48.071815 3.134981 -55.302323
-47.052773 2.862076 -55.993035
-45.705567 4.207892 -56.482869
-36.344473 15.895334 -54.484043
-36.638336 16.568319 -53.56504
-37.224863 15.675699 -54.883472
-36.344473 15.895334 -54.484043
-36.139122 15.023876 -55.33152
-30.960186 6.326871 -56.421825
-30.878814 7.454737 -56.229492
-30.211793 6.384097 -55.752018
-31.815707 6.153773 -56.972435
-30.960186 6.326871 -56.421825
-29.909433 2.881565 -55.264595
-29.723782 4.093409 -55.293949
-29.317877 1.746776 -54.533901
-30.07291 1.697752 -55.154949
-29.909433 2.881565 -55.264595
-52.754871 12.026866 -46.085171
-51.713053 13.237215 -46.438709
-51.703542 12.271199 -47.452908
-53.708983 10.808788 -45.729662
-53.718492 11.774804 -44.715463
-52.754871 12.026866 -46.085171
-56.115913 4.133459 -47.013321
-56.991213 4.005827 -45.743052
-55.929022 5.539969 -46.398943
-34.127117 13.487778 -55.876281
-35.100735 14.304802 -55.671989
-33.202454 12.628855 -55.969093
-34.018074 12.50717 -56.5047
-34.127117 13.487778 -55.876281
-32.358576 11.669915 -55.931347
-33.202454 12.628855 -55.969093
-32.467619 12.650523 -55.302929
-31.083742 11.474479 -54.382168
-31.830389 12.509552 -54.546547
-30.916544 10.613319 -55.00103
-31.083742 11.474479 -54.382168
-30.376545 10.396216 -54.118015
-45.001024 15.474068 -51.856304
-43.962736 16.211643 -51.953621
-46.122435 14.540102 -51.693375
-45.001024 15.474068 -51.856304
-44.906205 14.405745 -52.771373
-47.209665 13.555643 -51.472538
-47.304485 14.623966 -50.557468
-46.122435 14.540102 -51.693375
-52.247681 3.982693 -51.621899
-53.288242 4.083948 -50.518345
-52.06142 5.580381 -51.169433
-51.235298 3.824008 -52.634655
-49.951656 5.28489 -53.251389
-50.166096 3.629772 -53.613056
-52.247681 3.982693 -51.621899
-51.235298 3.824008 -52.634655
-37.754679 17.110739 -53.023922
-36.638336 16.568319 -53.56504
-37.754679 17.110739 -53.023922
-38.59988 17.012325 -53.355194
-42.734293 16.017204 -52.951065
-43.962736 16.211643 -51.953621
-42.579521 15.032159 -53.834648
-42.734293 16.017204 -52.951065
-41.529021 15.709653 -53.85141
-42.825122 8.242953 -56.920795
-43.932935 8.661141 -56.251198
-42.649843 9.785068 -56.493184
-41.772694 7.821833 -57.456906
-42.825122 8.242953 -56.920795
-40.72546 7.30237 -57.899155
-41.772694 7.821833 -57.456906
-40.494796 8.847417 -57.60503
-39.729565 6.803681 -58.195705
-40.72546 7.30237 -57.899155
-38.755748 6.190003 -58.391418
-39.729565 6.803681 -58.195705
-38.473747 7.714276 -58.242992
-37.823109 5.613827 -58.436352
-38.755748 6.190003 -58.391418
-37.823109 5.613827 -58.436352
-36.604305 6.394989 -58.383136
-34.609319 6.239872 -58.073974
-35.451652 7.080296 -58.234607
-34.352293 7.630786 -57.981014
-34.88942 4.889756 -58.033848
-34.609319 6.239872 -58.073974
-33.79006 5.440247 -57.780254
-35.239429 3.449308 -57.886639
-34.88942 4.889756 -58.033848
-34.430453 2.697267 -57.465858
-35.239429 3.449308 -57.886639
-34.430453 2.697267 -57.465858
-33.321333 3.191801 -57.238102
-29.101672 8.537437 -51.589141
-29.590186 9.714968 -52.044296
-28.889648 7.732589 -52.222485
-29.101672 8.537437 -51.589141
-28.750315 6.840018 -52.746952
-29.205308 8.072979 -53.286774
-28.889648 7.732589 -52.222485
-28.624669 5.921965 -53.185269
-28.750315 6.840018 -52.746952
-28.30901 5.581575 -52.12098
-27.867089 3.340726 -51.807545
-27.992166 4.282709 -51.44574
-28.146479 3.647418 -52.791866
-27.867089 3.340726 -51.807545
-27.830205 2.324621 -52.040115
-28.679811 1.684278 -53.861335
-28.631997 2.780951 -53.833992
-28.157409 1.53464 -53.05178
-28.843288 0.500465 -53.751689
-29.317877 1.746776 -54.533901
-28.679811 1.684278 -53.861335
-28.968957 -0.661074 -53.584744
-28.843288 0.500465 -53.751689
-29.720332 -0.676581 -54.118358
-28.968957 -0.661074 -53.584744
-49.626684 14.498363 -48.065953
-48.49168 14.577343 -49.331046
-49.52672 13.560527 -49.071539
-49.626684 14.498363 -48.065953
-50.74602 14.269083 -46.720123
-54.657423 11.368906 -43.269464
-53.718492 11.774804 -44.715463
-55.497387 10.969472 -41.833399
-54.657423 11.368906 -43.269464
-55.512568 10.157291 -42.923889
-56.307403 10.411935 -40.33152
-55.497387 10.969472 -41.833399
-57.058991 9.220027 -40.002859
-56.307403 10.411935 -40.33152
-57.871914 7.867855 -39.597183
-57.058991 9.220027 -40.002859
-57.165454 8.405684 -41.082147
-58.568735 6.536279 -39.223146
-57.871914 7.867855 -39.597183
-58.742149 5.597459 -40.204348
-58.568735 6.536279 -39.223146
-58.742149 5.597459 -40.204348
-58.137882 5.978167 -41.576179
-57.550854 5.157579 -43.80228
-57.411263 6.368508 -42.986515
-56.66473 6.623265 -44.312908
-57.550854 5.157579 -43.80228
-57.759889 3.872203 -44.49828
-55.230863 4.15449 -48.203785
-54.077852 5.674618 -48.867546
-54.254993 4.161506 -49.402119
-56.115913 4.133459 -47.013321
-55.230863 4.15449 -48.203785
3 56 15 57
3 58 57 13
3 56 57 58
3 59 17 60
3 61 60 15
3 59 60 61
3 63 62 17
3 0 64 66
3 64 19 65
3 64 65 66
3 0 21 19
3 0 23 21
3 1 67 69
3 69 68 24
3 67 68 69
3 1 70 72
3 70 26 71
3 70 71 72
3 2 29 27
3 2 31 29
3 2 33 31
3 73 35 74
3 4 75 77
3 75 36 76
3 75 76 77
3 4 37 36
3 5 39 38
3 7 40 14
3 7 41 40
3 7 43 41
3 79 78 16
3 8 80 82
3 82 81 18
3 80 81 82
3 8 83 84
3 8 85 87
3 85 44 86
3 85 86 87
3 9 45 20
3 9 46 45
3 9 47 46
3 10 48 22
3 10 88 90
3 90 89 48
3 88 89 90
3 3 49 34
3 91 50 92
3 93 92 25
3 91 92 93
3 94 51 95
3 96 95 50
3 94 95 96
3 98 97 51
3 11 99 100
3 11 101 102
3 103 52 104
3 105 53 106
3 108 107 53
3 6 109 110
3 112 111 28
3 12 54 30
3 12 55 54
3 12 113 115
3 115 114 55
3 113 114 115
3 117 116 32
3 119 118 42
3 120 4 121
3 13 14 5
3 15 14 13
3 15 7 14
3 15 16 7
3 17 16 15
3 17 122 124
3 124 123 16
3 122 123 124
3 17 125 126
3 128 127 17
3 129 18 130
3 19 131 133
3 131 18 132
3 131 132 133
3 19 8 18
3 19 20 8
3 21 20 19
3 21 9 20
3 21 22 9
3 23 22 21
3 23 10 22
3 24 25 3
3 134 25 135
3 136 135 24
3 134 135 136
3 138 137 25
3 26 139 140
3 26 141 143
3 141 11 142
3 141 142 143
3 27 28 6
3 29 28 27
3 29 144 146
3 146 145 28
3 144 145 146
3 29 147 149
3 147 30 148
3 147 148 149
3 31 30 29
3 31 12 30
3 31 32 12
3 33 32 31
3 33 150 152
3 152 151 32
3 150 151 152
3 153 0 154
3 155 34 156
3 157 156 0
3 155 156 157
3 35 158 160
3 158 34 159
3 158 159 160
3 35 3 34
3 161 35 162
3 36 163 165
3 163 35 164
3 163 164 165
3 36 3 35
3 36 24 3
3 37 24 36
3 37 1 24
3 38 166 167
3 39 168 170
3 170 169 38
3 168 169 170
3 39 171 173
3 171 6 172
3 171 172 173
3 14 39 5
3 40 39 14
3 40 6 39
3 40 27 6
3 41 27 40
3 41 2 27
3 41 42 2
3 43 42 41
3 43 174 176
3 176 175 42
3 174 175 176
3 16 43 7
3 177 43 178
3 179 178 16
3 177 178 179
3 181 180 43
3 18 182 183
3 185 184 18
3 186 38 187
3 44 188 190
3 188 38 189
3 188 189 190
3 44 5 38
3 20 44 8
3 45 44 20
3 45 5 44
3 45 13 5
3 46 13 45
3 46 191 193
3 193 192 13
3 191 192 193
3 46 194 195
3 47 196 198
3 198 197 46
3 196 197 198
3 47 199 200
3 22 47 9
3 48 47 22
3 48 201 203
3 203 202 47
3 201 202 203
3 48 204 205
3 207 206 48
3 34 23 0
3 49 23 34
3 49 10 23
3 25 49 3
3 50 49 25
3 50 10 49
3 50 208 210
3 210 209 10
3 208 209 210
3 51 211 213
3 213 212 50
3 211 212 213
3 51 214 215
3 51 216 217
3 219 218 51
3 220 4 221
3 222 4 223
3 224 37 225
3 226 225 4
3 224 225 226
3 52 227 229
3 227 37 228
3 227 228 229
3 52 1 37
3 230 52 231
3 53 232 234
3 232 52 233
3 232 233 234
3 53 1 52
3 53 26 1
3 235 26 236
3 237 236 53
3 235 236 237
3 238 11 239
3 240 239 26
3 238 239 240
3 241 11 242
3 244 243 11
3 28 245 247
3 247 246 6
3 245 246 247
3 249 248 28
3 30 250 251
3 54 252 254
3 254 253 30
3 252 253 254
3 54 255 256
3 54 257 258
3 55 259 261
3 261 260 54
3 259 260 261
3 55 262 263
3 55 264 265
3 267 266 55
3 32 268 270
3 270 269 12
3 268 269 270
3 272 271 32
3 42 33 2
3 273 33 274
3 275 274 42
3 273 274 275
3 277 276 33
