ply
format ascii 1.0
element vertex 758
property float x
property float y
property float z
element face 871
property list uchar int vertex_index
end_header
3.192894 -40.244576 37.971535
0.599932 13.100513 45.993095
-0.439129 -19.309406 48.04501
-3.291842 -47.547077 51.222927
-1.569988 3.796032 53.395233
0.914143 -3.13341 47.662567
-2.854338 -10.933605 52.84005
-6.229799 -39.477226 54.966267
4.723461 -25.084797 37.464714
2.835175 21.626522 37.068356
4.003414 4.672237 40.996742
3.757061 -12.830784 42.970955
2.462662 -28.929787 43.979141
0.837196 37.18626 31.773525
-0.755529 28.28548 43.049576
-4.967514 -25.652641 52.685211
-2.414633 -34.195454 48.994167
0.34025 -43.184113 44.848148
0.85845 -54.307819 37.471218
-2.066908 -3.559383 53.168003
4.017384 -32.92202 37.802658
4.011803 -39.449402 34.321423
3.136776 -46.523685 34.175537
1.716337 17.547356 41.703934
3.591499 13.324459 39.260078
2.38842 9.366972 43.354736
0.412281 -11.32775 47.923992
2.531281 -7.64751 45.329384
2.012445 -15.999638 45.766693
3.21386 -21.142952 43.495796
1.217978 -23.960777 46.138767
-0.070536 44.671894 28.762617
-0.801781 40.420868 35.141296
-0.10317 32.921547 37.545689
-1.215002 35.725754 41.263435
-4.575722 -21.269646 55.621223
-5.499937 -28.308636 56.105965
-4.971087 -43.55582 53.127094
-4.827387 -36.963051 51.581001
-3.085073 -41.053482 50.011929
-0.713364 -38.516571 47.300755
-1.583633 -45.283081 47.991829
-0.470379 -55.426956 41.251221
-0.141935 -61.278954 37.007317
1.00971 -60.314655 33.110176
-0.554199 8.468779 49.897785
0.972567 5.078697 47.032784
-0.633293 0.69113 50.271179
-1.121382 -7.159113 50.318264
-1.979652 -14.955071 50.175922
-5.912357 -45.713638 57.05125
-4.435017 -49.666756 54.949528
5.401699 -16.63995 36.948887
5.16753 7.958075 37.017982
5.184155 -1.042374 38.643288
2.672729 0.894779 44.572884
4.04377 -4.138992 42.207451
4.910667 -10.009625 39.705956
4.44104 -18.657646 40.375229
3.839382 -26.777353 40.861496
3.071823 -34.331467 41.263725
1.856918 29.546383 34.546524
0.807287 25.362377 39.738136
-0.062035 20.814526 44.634251
-3.87653 -18.335527 52.578491
-3.06027 -22.583088 50.145615
-5.849472 -32.745804 53.453724
-4.109413 -29.946407 50.558735
-1.458736 -26.949213 48.334381
0.270172 -31.449884 46.643745
1.500154 -36.219032 44.465256
2.025423 -41.476387 41.510445
-1.951212 -58.189365 49.272476
-2.086756 -51.842548 48.631145
-0.803057 -50.015263 45.044632
0.719959 -48.458305 41.486748
2.108765 -47.299438 37.867374
2.108297 -53.445641 33.726044
3.630524 -36.634125 37.913872
4.022568 -36.154709 36.117287
3.617298 -39.798775 36.159004
3.588432 -43.020531 34.285912
3.17057 -43.358307 36.134548
1.165018 15.357613 43.894577
2.094152 13.502743 42.576569
1.484751 11.344597 44.619293
0.020735 -15.355077 47.982456
1.238115 -13.603702 46.837448
0.855446 -17.648905 46.959763
1.642076 -20.037386 45.945129
0.412491 -21.599108 47.094185
-1.045319 38.113129 38.235741
-4.115389 -45.540138 52.227734
-4.124941 -42.328911 51.485741
-3.255737 -44.344616 50.605011
-2.255301 -43.127617 49.100555
-2.491133 -46.413147 49.570148
-0.635967 -61.787304 39.014999
0.011786 -64.186279 34.832977
-0.544468 4.597364 50.126881
-1.204845 2.337677 51.759895
-2.42613 -7.240344 53.009033
-1.693123 -5.28152 51.6833
-2.070368 -9.094697 51.569843
-1.510807 -11.071278 50.254917
-2.525454 -12.900584 51.437557
-5.478559 -48.617653 58.21217
-5.244751 -47.708332 56.014137
5.066624 -20.935589 37.236294
3.44083 23.466412 34.632549
3.848007 19.338211 35.904877
3.844372 9.033394 40.192451
4.427235 10.787756 38.131676
4.58329 6.38936 39.053478
5.217308 3.471586 37.906189
4.64946 1.94058 39.833641
1.000771 0.984112 47.40078
1.838131 3.090988 45.772263
1.849623 -1.104189 46.180962
3.210697 -10.157142 44.169941
3.359829 -5.856304 43.832138
3.936943 -8.517729 42.63385
4.537235 -6.972989 40.983353
4.377815 -11.364208 41.386436
4.69479 -14.389691 40.075687
4.163116 -15.665376 41.710232
2.863323 -25.104591 43.735359
3.596458 -23.895987 42.23164
3.246899 -27.800407 42.468666
3.483055 -30.619305 41.074123
2.844929 -31.568207 42.697517
0.362598 40.942715 30.298248
1.419853 39.105896 28.794781
1.945951 35.304108 30.352482
1.341068 33.392544 33.189461
-0.462465 30.636669 40.331696
0.336805 29.161869 38.667736
-0.069937 26.898567 41.302917
0.355087 23.122383 42.22435
-0.423185 24.569054 43.866875
-4.927172 -23.477858 54.05983
-4.402027 -19.871012 53.999775
-4.429026 -22.013573 52.564358
-3.596422 -20.444542 51.269894
-4.156218 -24.15538 51.323532
-6.388508 -37.329163 56.060444
-6.117973 -36.16555 54.122562
-3.707394 -35.592415 50.216682
-4.527475 -33.503002 50.993446
-3.318356 -32.073078 49.743744
-2.845245 -28.457973 49.400368
-1.9594 -30.622105 48.613605
-0.564827 -29.17802 47.515533
-1.053261 -32.805359 47.83054
-0.087627 -40.786953 46.191708
0.451832 -37.324608 45.923676
0.938349 -39.728634 44.677971
1.842667 -38.775421 43.08564
1.238358 -42.272705 43.209694
-2.108521 -55.046669 48.943626
-1.730797 -54.218178 46.99474
-1.493866 -50.908955 46.822727
0.177826 -54.834564 39.350342
0.074537 -51.94331 41.381676
0.791649 -51.329201 39.539322
1.453299 -47.827202 39.68557
1.483307 -50.802414 37.697731
2.106873 -50.359505 35.850006
1.516251 -53.846676 35.601662
1.556934 -59.861015 31.174812
-1.78072 0.116669 53.301159
-2.222788 -2.022575 54.754959
4.375984 -29.078552 37.651333
4.408573 -32.391846 36.022694
3.998901 -42.75679 32.401527
3.556946 -46.248154 32.285236
2.266537 19.645378 39.426765
3.2509 17.525284 38.213104
2.674927 15.571857 40.438728
3.005215 11.401533 41.355064
3.243172 7.146835 42.159645
0.715033 -7.246156 47.828972
1.748606 -5.305266 46.480881
1.541058 -9.481236 46.689949
2.313576 -11.862181 45.572922
2.981262 -14.384893 44.437149
3.513405 -17.047089 43.248566
2.682121 -18.512424 44.66563
2.32373 -22.520571 44.884933
1.915119 -26.399937 45.116684
-0.477789 42.618145 31.981834
-0.103258 38.870178 33.366058
0.328869 35.114563 34.69212
-0.487944 36.667427 36.371284
-0.793823 34.366085 39.310425
-1.026831 31.994434 42.18277
-4.399565 -22.509506 57.452637
-5.055624 -24.810678 55.780632
-5.424225 -27.046671 54.274994
-5.72213 -41.546333 54.010941
-5.687668 -38.270332 53.152489
-4.981522 -40.316879 52.302219
-3.983751 -39.012123 50.805531
-2.797741 -37.671486 49.466839
-1.512281 -36.332756 48.211246
-1.920546 -39.770142 48.641415
-1.175732 -41.929653 47.650227
-0.620174 -44.195736 46.433006
-0.316149 -58.330116 39.159927
0.297369 -57.808254 37.225235
0.939095 -57.329147 35.318645
0.425484 -60.787319 35.045929
0.508387 -63.685219 32.843334
0.0215 10.798018 47.995064
0.834517 9.124304 46.560074
0.149456 6.867369 48.395451
0.177458 2.883316 48.703724
0.095549 -1.133984 48.914165
-1.403191 -1.468626 51.751984
-0.826164 -3.233184 50.331341
-0.09808 -5.161703 49.031197
-0.398054 -9.177349 49.072033
-0.792294 -13.160398 49.066669
-1.262051 -17.093056 49.054893
-6.430498 -40.552078 57.023735
-6.297964 -43.643204 58.128098
-6.16432 -42.664318 55.955341
-5.574871 -44.694992 54.977871
-4.787693 -46.673439 54.020786
-3.947632 -48.644218 53.002892
4.180485 15.109699 37.077072
1.714149 7.249504 45.249672
2.58387 5.155781 44.023293
3.381535 2.830967 42.840836
2.653809 -3.384295 45.004051
3.419182 -1.515099 43.395607
4.068424 0.269915 41.666943
4.63121 -2.525732 40.472992
5.077934 -5.548539 39.237118
5.430576 -8.785883 37.942944
5.188644 -13.237591 38.363823
4.913696 -17.585131 38.693863
4.616852 -21.801647 38.960754
3.901299 -19.848764 41.98381
4.155952 -22.790695 40.630951
4.303017 -25.87068 39.186714
3.968147 -29.788769 39.384178
3.598518 -33.566368 39.553596
3.173855 -37.226517 39.684349
2.362926 25.62991 35.841988
0.80505 31.335583 35.962498
1.304501 27.512188 37.177979
1.801029 23.621822 38.335472
1.277754 21.497452 40.753204
0.778301 19.28149 43.091507
0.290974 16.996628 45.346451
-1.318937 33.284061 44.225471
-0.187393 14.661858 47.514107
-0.648453 12.2913 49.59021
-3.393074 -12.636833 54.184036
-3.343193 -14.636349 52.684776
-3.042198 -16.688305 51.322914
-2.505894 -18.7966 50.124306
-1.782038 -20.960657 49.080658
-5.875452 -31.742792 56.620483
-5.856707 -30.557503 54.674164
-5.453979 -29.235687 52.975201
-5.485359 -34.87899 52.437508
-5.139809 -31.386433 51.890823
-4.683989 -27.807203 51.522156
-3.607601 -26.303139 50.280624
-2.321314 -24.751783 49.185204
-0.941908 -23.176994 48.151501
-0.068657 -25.443434 47.272469
0.755756 -27.763966 46.368805
1.463142 -30.151714 45.370712
-0.224672 -35.028961 46.959145
0.973139 -33.787033 45.644089
2.009243 -32.628071 44.226376
2.379528 -35.217545 42.908909
2.588959 -37.939735 41.415386
2.675167 -40.800987 39.759224
-3.930735 -52.537224 55.885033
-3.624561 -51.641212 53.78804
-3.180647 -50.661751 51.848408
-2.563032 -52.781006 50.502853
-2.601326 -49.630962 50.038513
-1.900627 -48.586517 48.317883
-1.10605 -47.567238 46.641327
-0.258476 -46.608414 44.9683
-0.615067 -52.640282 43.231274
-0.04925 -49.191322 43.271133
0.591339 -45.737926 43.270432
1.3906 -44.973907 41.53479
2.096037 -44.324387 39.761925
2.686306 -43.788475 37.959564
2.66658 -46.868809 36.032234
2.64286 -49.991501 33.986065
1.553171 -56.891254 33.420616
-1.387417 3.066854 52.577564
-1.151057 4.233344 51.729567
-1.333629 4.962522 52.547235
-5.181071 -49.99694 58.80509
-5.48929 -49.002064 59.404438
-5.111928 -49.600872 57.647121
-5.181071 -49.99694 58.80509
4.954193 -24.750733 36.581081
5.125775 -22.67613 36.466871
4.895043 -23.010193 37.350504
-1.602561 -55.494332 46.075769
-1.754305 -55.850705 47.088303
-1.479497 -53.812202 46.046082
-1.602561 -55.494332 46.075769
-2.195876 -1.375321 55.587049
-2.079258 -0.263674 54.865265
4.219597 -37.611717 34.306792
4.224979 -35.964371 35.204724
4.017186 -37.802055 35.219355
4.228834 -39.312912 33.382733
4.219597 -37.611717 34.306792
4.005352 -41.103096 33.361475
4.222383 -40.966606 32.422785
4.228834 -39.312912 33.382733
3.118786 -48.104677 33.133468
3.328871 -47.966911 32.188318
3.346861 -46.385919 33.230386
-0.639785 41.519506 33.561565
-0.758163 43.406667 32.91707
-0.92016 42.308029 34.496801
-4.158886 -23.041746 58.468029
-3.970807 -21.312008 58.343394
-5.277781 -26.559657 55.943298
-4.94029 -25.399175 56.752516
-5.162446 -27.148155 56.915183
0.285469 -65.323398 32.75477
0.260086 -63.935749 33.838155
0.037169 -65.573928 33.749592
0.260835 -66.69025 31.654408
0.483753 -65.05207 31.742971
0.285469 -65.323398 32.75477
-6.366277 -41.012954 58.161129
-6.36541 -39.447979 57.627869
-6.105161 -44.678421 57.589674
-6.141552 -45.116574 58.730744
-5.948749 -46.151791 58.192319
5.68304 -16.231285 36.039724
5.55938 -14.429627 36.763317
5.098107 10.172462 36.49978
4.727959 11.587303 37.056628
4.797382 9.372915 37.574829
5.47793 8.659056 35.953253
5.098107 10.172462 36.49978
5.491617 6.401035 36.451412
5.47793 8.659056 35.953253
5.471085 -0.375338 37.682637
5.487661 1.881642 37.314087
5.200731 1.214606 38.274738
5.404709 -2.653084 38.023304
5.471085 -0.375338 37.682637
0.173198 45.610592 27.12744
-0.262172 46.524887 27.965369
2.416031 28.521549 33.911262
2.163595 30.492407 33.196787
2.109922 27.588147 35.194256
2.669034 26.563313 34.558994
2.416031 28.521549 33.911262
-1.341737 32.044283 45.674728
-1.330423 33.911279 45.340244
-1.256465 31.429172 44.607442
-1.341737 32.044283 45.674728
-0.495631 15.359907 48.363697
-0.318317 16.558979 47.239668
-0.726161 14.174628 49.401748
-0.417923 13.476579 48.552159
-0.495631 15.359907 48.363697
-3.512468 -13.402369 54.917748
-3.302404 -11.659703 54.973618
-4.333984 -19.490295 55.606618
-4.27127 -20.136494 56.46945
-3.879257 -17.292137 53.316848
-4.142006 -18.05988 54.02749
-4.139278 -19.103269 53.289133
-3.609862 -16.485938 52.631633
-3.612589 -15.442548 53.369991
-3.879257 -17.292137 53.316848
-6.013297 -33.418461 56.976188
-5.706145 -32.25549 57.704971
-5.853089 -31.651654 54.063944
-6.022738 -32.27443 54.972395
-6.019121 -33.36858 54.362175
-3.619369 -53.914332 56.345753
-4.018465 -52.931957 57.017275
-3.271823 -52.664911 53.130079
-3.393568 -53.087372 54.177817
-3.049867 -52.17518 52.160263
-3.402604 -51.151482 52.818224
-3.271823 -52.664911 53.130079
-1.789912 -59.724613 49.453643
-1.787962 -59.438225 48.340849
-1.984847 -58.526138 50.358211
-1.789912 -59.724613 49.453643
-2.158376 -57.024597 50.120323
-1.984847 -58.526138 50.358211
-0.542723 -54.033619 42.241248
-0.824292 -54.358897 43.207434
-0.751948 -55.752234 42.217408
2.361956 -53.270744 32.775897
2.629238 -51.543674 32.905907
2.375579 -51.718571 33.856054
1.827471 -58.175541 31.341631
1.792713 -59.643145 30.194502
-1.005966 41.158608 36.122253
-0.92016 42.308029 34.496801
-1.127735 40.004738 37.669475
-0.92355 39.266998 36.688519
-1.005966 41.158608 36.122253
-1.178346 38.807972 39.261322
-1.127735 40.004738 37.669475
-1.263187 37.614284 40.775169
-1.130161 36.919442 39.749588
-1.178346 38.807972 39.261322
-5.356713 -28.861071 57.135006
-5.162446 -27.148155 56.915183
-0.700838 -63.477606 38.986347
-0.823411 -62.046888 40.048859
-0.532193 -63.234785 37.939899
-0.700838 -63.477606 38.986347
-0.285177 -62.98061 36.936058
-0.388951 -61.533129 38.011158
-0.532193 -63.234785 37.939899
-0.208316 -64.434272 35.848888
-0.065075 -62.732616 35.920147
-0.285177 -62.98061 36.936058
-0.142114 -65.834637 34.777732
-0.208316 -64.434272 35.848888
0.037169 -65.573928 33.749592
-0.142114 -65.834637 34.777732
-0.820869 5.363188 50.91306
-0.549333 6.533072 50.012333
-0.825734 7.298895 50.798512
-0.874656 3.467521 50.943388
-0.820869 5.363188 50.91306
-1.151057 4.233344 51.729567
-5.73185 -47.603798 58.772779
-5.48929 -49.002064 59.404438
-5.695458 -47.165645 57.63171
-5.948749 -46.151791 58.192319
-5.73185 -47.603798 58.772779
-4.995024 -49.146211 56.548105
-5.361655 -48.162993 57.113153
-5.111928 -49.600872 57.647121
-4.590158 -50.125423 56.0158
-4.839884 -48.687544 55.481832
-4.995024 -49.146211 56.548105
5.323023 -20.563454 36.34485
5.49056 -18.415635 36.201147
5.234161 -18.787769 37.092591
5.323023 -20.563454 36.34485
5.125775 -22.67613 36.466871
3.962757 22.227579 34.074316
3.767342 24.304466 33.377081
4.166346 20.163479 34.71048
3.962757 22.227579 34.074316
3.644419 21.402311 35.268713
4.323793 18.03665 35.356777
4.166346 20.163479 34.71048
0.63446 41.897726 28.736265
0.417893 43.762315 27.968449
0.146031 42.807305 29.530432
1.163088 40.979316 27.984532
0.63446 41.897726 28.736265
0.891226 40.024305 29.546515
1.743781 39.974659 27.278878
1.163088 40.979316 27.984532
2.016558 38.073988 28.125946
1.743781 39.974659 27.278878
2.279606 36.173094 28.904796
2.016558 38.073988 28.125946
1.682902 37.205002 29.573631
2.544137 34.233216 29.718139
2.279606 36.173094 28.904796
2.208112 33.371269 31.099766
2.544137 34.233216 29.718139
1.90567 32.415487 32.518256
2.208112 33.371269 31.099766
1.643509 34.348326 31.770972
1.598993 31.469463 33.867992
2.163595 30.492407 33.196787
1.90567 32.415487 32.518256
-6.288639 -35.66026 55.665535
-6.269825 -36.211647 56.696169
-6.153372 -35.078453 54.696594
-6.288639 -35.66026 55.665535
-6.253241 -36.747357 55.091503
-5.983722 -34.455677 53.788143
-6.019121 -33.36858 54.362175
-6.153372 -35.078453 54.696594
-1.864513 -57.836298 48.227171
-1.787962 -59.438225 48.340849
-1.943167 -56.26495 48.062746
-2.029866 -56.618017 49.108051
-1.864513 -57.836298 48.227171
-1.919659 -54.632424 47.969183
-1.943167 -56.26495 48.062746
-1.754305 -55.850705 47.088303
-1.361031 -52.157591 45.960076
-1.612331 -52.563567 46.908733
-1.479497 -53.812202 46.046082
-1.015627 -51.710745 45.071028
-1.148462 -50.462109 45.933679
-1.361031 -52.157591 45.960076
1.2821 -61.522179 31.022703
1.283322 -60.087835 32.142494
1.008488 -61.748998 31.990385
1.507886 -61.272812 30.031155
1.2821 -61.522179 31.022703
1.792713 -59.643145 30.194502
1.507886 -61.272812 30.031155
-1.858224 0.805947 54.138365
-1.675354 1.95635 53.348196
-1.752858 2.645629 54.185402
-2.001754 -0.952953 54.028059
-1.858224 0.805947 54.138365
-2.079258 -0.263674 54.865265
-2.357741 -3.013814 55.438721
-2.195876 -1.375321 55.587049
-2.392189 -3.775377 54.649437
-2.357741 -3.013814 55.438721
-2.314249 -4.543781 53.855959
-2.144848 -2.790979 53.961481
-2.392189 -3.775377 54.649437
-2.49386 -6.384262 53.776474
-2.246519 -5.399864 53.088518
-2.314249 -4.543781 53.855959
-2.688686 -8.15014 53.680721
-2.49386 -6.384262 53.776474
-2.902789 -9.996771 53.596229
-2.640234 -9.086975 52.924542
-2.688686 -8.15014 53.680721
4.584706 -28.781166 36.767286
4.758444 -26.784288 36.673977
4.549722 -27.081674 37.558024
4.601 -30.437813 35.952967
4.584706 -28.781166 36.767286
4.392278 -30.735199 36.837013
4.63038 -32.177011 35.114775
4.601 -30.437813 35.952967
4.417982 -34.08294 35.157427
4.215571 -34.273277 36.069991
4.224979 -35.964371 35.204724
4.63038 -32.177011 35.114775
4.417982 -34.08294 35.157427
4.229597 -42.650185 31.430484
4.222383 -40.966606 32.422785
3.988949 -44.389446 31.371872
4.229597 -42.650185 31.430484
3.767971 -46.135128 31.313726
3.988949 -44.389446 31.371872
3.777923 -44.502472 32.343381
3.535705 -47.837086 31.216432
3.767971 -46.135128 31.313726
3.535705 -47.837086 31.216432
3.328871 -47.966911 32.188318
-0.429257 45.519356 29.6503
-0.262172 46.524887 27.965369
-0.632883 44.492481 31.259909
-0.758163 43.406667 32.91707
-0.274163 43.64502 30.372225
-0.429257 45.519356 29.6503
-0.632883 44.492481 31.259909
-4.183191 -20.756424 57.385157
-3.970807 -21.312008 58.343394
-4.487643 -21.889576 56.53693
-4.27127 -20.136494 56.46945
-4.183191 -20.756424 57.385157
-4.61226 -24.24859 57.588519
-4.158886 -23.041746 58.468029
-4.727595 -23.660092 56.616635
-4.61226 -24.24859 57.588519
-4.94029 -25.399175 56.752516
-0.657978 -57.159182 41.194244
-0.751948 -55.752234 42.217408
-0.740772 -60.339355 40.076133
-0.823411 -62.046888 40.048859
-0.580863 -58.610761 40.148598
-0.740772 -60.339355 40.076133
-0.476058 -60.05871 39.087463
-0.393264 -56.878536 40.205574
-0.657978 -57.159182 41.194244
-0.580863 -58.610761 40.148598
0.757827 -63.43428 31.856964
1.008488 -61.748998 31.990385
0.759049 -61.999937 32.976755
0.757827 -63.43428 31.856964
0.483753 -65.05207 31.742971
-6.344416 -37.836522 57.146223
-6.269825 -36.211647 56.696169
-6.409503 -38.940621 56.54209
-6.344416 -37.836522 57.146223
-6.36541 -39.447979 57.627869
-6.220276 -44.055656 59.313185
-6.141552 -45.116574 58.730744
-6.30001 -42.558517 58.713311
-6.222322 -42.97097 59.898398
-6.220276 -44.055656 59.313185
-6.364231 -42.097641 57.575917
-6.366277 -41.012954 58.161129
-6.30001 -42.558517 58.713311
5.68304 -16.231285 36.039724
5.49056 -18.415635 36.201147
4.954193 -24.750733 36.581081
4.758444 -26.784288 36.673977
4.490032 15.922394 35.942875
4.323793 18.03665 35.356777
4.014246 17.223955 36.490975
4.604584 13.748275 36.529325
4.30386 12.948728 37.604374
4.727959 11.587303 37.056628
4.490032 15.922394 35.942875
4.604584 13.748275 36.529325
5.516506 4.157791 36.895516
5.491617 6.401035 36.451412
5.192419 5.71483 37.462086
5.516506 4.157791 36.895516
5.487661 1.881642 37.314087
5.351598 -4.906167 38.320219
5.404709 -2.653084 38.023304
5.131044 -3.295456 38.940203
5.52792 -6.524839 37.673132
5.351598 -4.906167 38.320219
5.254255 -7.167211 38.590031
5.71373 -8.245069 37.019068
5.52792 -6.524839 37.673132
5.573818 -10.502594 37.260345
5.71373 -8.245069 37.019068
5.452852 -12.728448 37.470785
5.573818 -10.502594 37.260345
5.30961 -11.011737 38.153383
5.295172 -14.938771 37.656355
5.55938 -14.429627 36.763317
5.452852 -12.728448 37.470785
0.173198 45.610592 27.12744
0.417893 43.762315 27.968449
3.207987 25.481564 33.954275
3.767342 24.304466 33.377081
2.901878 24.548161 35.237268
3.207987 25.481564 33.954275
2.669034 26.563313 34.558994
-1.283603 36.384474 42.333405
-1.263187 37.614284 40.775169
-1.335571 35.163628 43.814422
-1.330423 33.911279 45.340244
-1.26697 34.504908 42.744453
-1.283603 36.384474 42.333405
-1.335571 35.163628 43.814422
-1.110412 30.784359 43.586092
-1.172884 32.639247 43.204121
-1.256465 31.429172 44.607442
-0.974761 28.929882 44.019495
-0.89118 30.139957 42.616173
-1.110412 30.784359 43.586092
-0.8722 27.086182 44.374588
-0.974761 28.929882 44.019495
-0.706028 25.227969 44.783237
-0.589357 26.427267 43.458225
-0.8722 27.086182 44.374588
-0.576104 23.379824 45.112702
-0.706028 25.227969 44.783237
-0.395529 21.50256 45.496389
-0.24261 22.69179 44.250563
-0.576104 23.379824 45.112702
-0.255637 19.635313 45.79974
-0.395529 21.50256 45.496389
-0.079133 17.726364 46.15584
0.11447 18.905577 44.990351
-0.255637 19.635313 45.79974
0.051791 15.829243 46.430279
-0.079133 17.726364 46.15584
-0.318317 16.558979 47.239668
-0.881678 12.95775 50.480638
-0.726161 14.174628 49.401748
-0.860632 11.092844 50.579445
-0.881678 12.95775 50.480638
-0.813505 9.181583 50.733232
-0.601326 10.380039 49.743997
-0.860632 11.092844 50.579445
-0.825734 7.298895 50.798512
-0.813505 9.181583 50.733232
-1.50205 5.637028 53.417104
-1.333629 4.962522 52.547235
-1.63807 4.423435 54.289057
-1.50205 5.637028 53.417104
-1.752858 2.645629 54.185402
-1.63807 4.423435 54.289057
-3.172157 -10.848385 54.268223
-3.302404 -11.659703 54.973618
-3.123706 -11.785219 53.512043
-2.902789 -9.996771 53.596229
-3.172157 -10.848385 54.268223
-4.247137 -18.790978 54.795895
-4.333984 -19.490295 55.606618
-4.488874 -20.570329 54.810499
-4.247137 -18.790978 54.795895
-4.142006 -18.05988 54.02749
-3.637529 -14.44279 54.119621
-3.512468 -13.402369 54.917748
-3.368133 -13.636591 53.434406
-3.637529 -14.44279 54.119621
-3.612589 -15.442548 53.369991
-5.54447 -30.578149 57.392265
-5.706145 -32.25549 57.704971
-5.687695 -30.025714 56.363224
-5.356713 -28.861071 57.135006
-5.54447 -30.578149 57.392265
-6.032111 -32.867074 55.945555
-6.013297 -33.418461 56.976188
-5.866079 -31.150148 55.647323
-6.032111 -32.867074 55.945555
-6.022738 -32.27443 54.972395
-4.338017 -51.560658 56.483553
-4.018465 -52.931957 57.017275
-4.182876 -51.10199 55.417281
-4.590158 -50.125423 56.0158
-4.338017 -51.560658 56.483553
-3.546655 -53.535378 55.226313
-3.619369 -53.914332 56.345753
-3.777648 -52.089218 54.836537
-3.546655 -53.535378 55.226313
-3.393568 -53.087372 54.177817
-2.237031 -55.453249 49.955898
-2.158376 -57.024597 50.120323
-2.029866 -56.618017 49.108051
-2.464286 -54.320417 50.735512
-2.237031 -55.453249 49.955898
-2.335777 -53.913837 49.72324
-2.741059 -53.234808 51.487486
-2.464286 -54.320417 50.735512
-2.87184 -51.721379 51.17563
-3.049867 -52.17518 52.160263
-2.741059 -53.234808 51.487486
-0.921632 -53.023255 44.164349
-0.824292 -54.358897 43.207434
-0.709062 -51.327772 44.137953
-1.015627 -51.710745 45.071028
-0.921632 -53.023255 44.164349
2.871828 -49.838585 33.038733
3.118786 -48.104677 33.133468
2.889818 -48.257593 34.080801
2.871828 -49.838585 33.038733
2.629238 -51.543674 32.905907
1.82559 -56.690661 32.464533
1.555052 -58.376135 32.297714
1.827471 -58.175541 31.341631
2.103153 -54.967854 32.617247
1.830734 -55.168447 33.57333
1.82559 -56.690661 32.464533
2.361956 -53.270744 32.775897
2.103153 -54.967854 32.617247
3 0 80 78
3 0 82 80
3 1 85 83
3 2 88 86
3 2 90 88
3 3 94 92
3 3 96 94
3 4 299 301
3 299 100 300
3 299 300 301
3 6 103 101
3 6 105 103
3 302 106 303
3 305 304 106
3 8 306 308
3 308 307 108
3 306 307 308
3 9 110 109
3 10 113 111
3 10 115 113
3 5 118 116
3 11 121 119
3 11 123 121
3 11 125 123
3 12 128 126
3 12 130 128
3 13 132 131
3 13 133 132
3 13 134 133
3 14 137 135
3 14 139 137
3 15 142 140
3 15 144 142
3 7 146 145
3 16 149 147
3 16 151 149
3 16 153 151
3 17 156 154
3 17 158 156
3 309 160 310
3 312 311 160
3 18 164 162
3 18 166 164
3 18 168 166
3 313 171 314
3 20 173 172
3 21 315 317
3 317 316 79
3 315 316 317
3 21 318 319
3 21 320 322
3 320 174 321
3 320 321 322
3 22 175 81
3 22 323 325
3 325 324 175
3 323 324 325
3 23 178 176
3 25 179 84
3 25 180 179
3 26 183 181
3 28 184 87
3 28 185 184
3 28 187 185
3 30 188 89
3 30 189 188
3 32 326 328
3 326 190 327
3 326 327 328
3 32 191 190
3 32 193 191
3 34 194 91
3 34 195 194
3 329 196 330
3 36 331 333
3 331 197 332
3 331 332 333
3 36 198 197
3 37 201 199
3 39 202 93
3 39 203 202
3 39 205 203
3 41 206 95
3 41 207 206
3 43 208 97
3 43 209 208
3 43 211 209
3 334 212 335
3 336 335 98
3 334 335 336
3 339 338 212
3 337 338 339
3 45 215 213
3 47 216 99
3 47 217 216
3 19 218 170
3 48 219 102
3 48 220 219
3 48 221 220
3 49 222 104
3 49 223 222
3 340 224 341
3 50 342 344
3 342 225 343
3 342 343 344
3 50 226 225
3 50 227 226
3 51 228 107
3 51 229 228
3 52 345 346
3 24 230 177
3 53 347 349
3 349 348 112
3 347 348 349
3 53 350 351
3 53 352 353
3 54 354 356
3 356 355 114
3 354 355 356
3 54 357 358
3 46 231 214
3 55 232 117
3 55 233 232
3 27 234 182
3 56 235 120
3 56 236 235
3 56 237 236
3 57 238 122
3 57 239 238
3 57 240 239
3 58 241 124
3 58 242 241
3 29 243 186
3 59 244 127
3 59 245 244
3 59 246 245
3 60 247 129
3 60 248 247
3 31 359 360
3 61 361 362
3 61 363 365
3 363 249 364
3 363 364 365
3 33 250 192
3 62 251 136
3 62 252 251
3 62 253 252
3 63 254 138
3 63 255 254
3 366 256 367
3 369 368 256
3 370 257 371
3 372 258 373
3 374 373 257
3 372 373 374
3 375 259 376
3 35 377 378
3 64 379 381
3 381 380 141
3 379 380 381
3 64 382 384
3 382 260 383
3 382 383 384
3 64 261 260
3 65 262 143
3 65 263 262
3 385 264 386
3 66 387 389
3 387 265 388
3 387 388 389
3 66 266 265
3 38 267 200
3 67 268 148
3 67 269 268
3 67 270 269
3 68 271 150
3 68 272 271
3 68 273 272
3 69 274 152
3 69 275 274
3 40 276 204
3 70 277 155
3 70 278 277
3 70 279 278
3 71 280 157
3 71 281 280
3 390 282 391
3 392 283 393
3 394 284 395
3 396 395 283
3 394 395 396
3 72 397 398
3 72 399 400
3 72 401 402
3 73 285 159
3 73 286 285
3 73 287 286
3 74 288 161
3 74 289 288
3 42 403 405
3 403 290 404
3 403 404 405
3 75 291 163
3 75 292 291
3 75 293 292
3 76 294 165
3 76 295 294
3 76 296 295
3 77 297 167
3 77 406 408
3 408 407 297
3 406 407 408
3 44 298 210
3 410 409 169
3 78 79 20
3 80 79 78
3 80 21 79
3 80 81 21
3 82 81 80
3 82 22 81
3 83 84 23
3 85 84 83
3 85 25 84
3 86 87 26
3 88 87 86
3 88 28 87
3 88 89 28
3 90 89 88
3 90 30 89
3 411 32 412
3 413 91 414
3 415 414 32
3 413 414 415
3 416 91 417
3 418 34 419
3 420 419 91
3 418 419 420
3 421 36 422
3 92 93 37
3 94 93 92
3 94 39 93
3 94 95 39
3 96 95 94
3 96 41 95
3 423 97 424
3 425 97 426
3 427 43 428
3 429 428 97
3 427 428 429
3 430 98 431
3 432 431 43
3 430 431 432
3 433 98 434
3 436 435 98
3 437 99 438
3 439 438 45
3 437 438 439
3 100 440 442
3 440 99 441
3 440 441 442
3 100 47 99
3 101 102 19
3 103 102 101
3 103 48 102
3 103 104 48
3 105 104 103
3 105 49 104
3 106 443 444
3 106 445 447
3 445 50 446
3 445 446 447
3 106 107 50
3 448 107 449
3 450 449 106
3 448 449 450
3 451 51 452
3 453 452 107
3 451 452 453
3 108 454 456
3 456 455 52
3 454 455 456
3 458 457 108
3 109 459 460
3 110 461 463
3 463 462 109
3 461 462 463
3 110 464 465
3 111 112 24
3 113 112 111
3 113 53 112
3 113 114 53
3 115 114 113
3 115 54 114
3 116 117 46
3 118 117 116
3 118 55 117
3 119 120 27
3 121 120 119
3 121 56 120
3 121 122 56
3 123 122 121
3 123 57 122
3 123 124 57
3 125 124 123
3 125 58 124
3 126 127 29
3 128 127 126
3 128 59 127
3 128 129 59
3 130 129 128
3 130 60 129
3 131 466 468
3 468 467 31
3 466 467 468
3 132 469 471
3 471 470 131
3 469 470 471
3 132 472 473
3 132 474 475
3 133 476 478
3 478 477 132
3 476 477 478
3 133 479 480
3 133 481 482
3 134 483 485
3 485 484 133
3 483 484 485
3 134 486 488
3 486 61 487
3 486 487 488
3 135 136 33
3 137 136 135
3 137 62 136
3 137 138 62
3 139 138 137
3 139 63 138
3 140 141 35
3 142 141 140
3 142 64 141
3 142 143 64
3 144 143 142
3 144 65 143
3 145 489 490
3 146 491 493
3 493 492 145
3 491 492 493
3 146 494 496
3 494 66 495
3 494 495 496
3 147 148 38
3 149 148 147
3 149 67 148
3 149 150 67
3 151 150 149
3 151 68 150
3 151 152 68
3 153 152 151
3 153 69 152
3 154 155 40
3 156 155 154
3 156 70 155
3 156 157 70
3 158 157 156
3 158 71 157
3 497 72 498
3 499 159 500
3 501 500 72
3 499 500 501
3 160 502 504
3 502 159 503
3 502 503 504
3 160 73 159
3 160 161 73
3 505 161 506
3 507 506 160
3 505 506 507
3 508 74 509
3 510 509 161
3 508 509 510
3 162 163 42
3 164 163 162
3 164 75 163
3 164 165 75
3 166 165 164
3 166 76 165
3 166 167 76
3 168 167 166
3 168 77 167
3 511 169 512
3 513 512 44
3 511 512 513
3 514 169 515
3 517 516 169
3 518 170 519
3 520 519 4
3 518 519 520
3 171 521 523
3 521 170 522
3 521 522 523
3 171 19 170
3 524 171 525
3 526 171 527
3 528 19 529
3 530 529 171
3 528 529 530
3 531 101 532
3 533 532 19
3 531 532 533
3 534 101 535
3 536 6 537
3 538 537 101
3 536 537 538
3 172 539 541
3 541 540 8
3 539 540 541
3 173 542 544
3 544 543 172
3 542 543 544
3 173 545 546
3 79 173 20
3 547 173 548
3 549 548 79
3 547 548 549
3 551 550 173
3 174 552 553
3 174 554 555
3 81 174 21
3 175 174 81
3 175 556 558
3 558 557 174
3 556 557 558
3 175 559 560
3 562 561 175
3 176 177 9
3 178 177 176
3 178 24 177
3 84 178 23
3 179 178 84
3 179 24 178
3 179 111 24
3 180 111 179
3 180 10 111
3 181 182 5
3 183 182 181
3 183 27 182
3 87 183 26
3 184 183 87
3 184 27 183
3 184 119 27
3 185 119 184
3 185 11 119
3 185 186 11
3 187 186 185
3 187 29 186
3 89 187 28
3 188 187 89
3 188 29 187
3 188 126 29
3 189 126 188
3 189 12 126
3 563 31 564
3 190 565 566
3 190 567 569
3 567 31 568
3 567 568 569
3 190 131 31
3 191 131 190
3 191 13 131
3 191 192 13
3 193 192 191
3 193 33 192
3 91 193 32
3 194 193 91
3 194 33 193
3 194 135 33
3 195 135 194
3 195 14 135
3 196 570 571
3 196 572 574
3 572 35 573
3 572 573 574
3 575 196 576
3 197 577 579
3 577 196 578
3 577 578 579
3 197 35 196
3 197 140 35
3 198 140 197
3 198 15 140
3 199 200 7
3 201 200 199
3 201 38 200
3 93 201 37
3 202 201 93
3 202 38 201
3 202 147 38
3 203 147 202
3 203 16 147
3 203 204 16
3 205 204 203
3 205 40 204
3 95 205 39
3 206 205 95
3 206 40 205
3 206 154 40
3 207 154 206
3 207 17 154
3 580 42 581
3 97 582 583
3 208 584 586
3 586 585 97
3 584 585 586
3 208 587 589
3 587 42 588
3 587 588 589
3 208 162 42
3 209 162 208
3 209 18 162
3 209 210 18
3 211 210 209
3 211 44 210
3 98 211 43
3 212 211 98
3 212 44 211
3 212 590 592
3 592 591 44
3 590 591 592
3 594 593 212
3 213 214 1
3 215 214 213
3 215 46 214
3 99 215 45
3 216 215 99
3 216 46 215
3 216 116 46
3 217 116 216
3 217 5 116
3 170 100 4
3 218 100 170
3 218 47 100
3 102 218 19
3 219 218 102
3 219 47 218
3 219 217 47
3 220 217 219
3 220 5 217
3 220 181 5
3 221 181 220
3 221 26 181
3 104 221 48
3 222 221 104
3 222 26 221
3 222 86 26
3 223 86 222
3 223 2 86
3 595 145 596
3 224 597 599
3 597 145 598
3 597 598 599
3 224 7 145
3 225 600 601
3 225 602 604
3 602 603 604
3 225 605 607
3 605 224 606
3 605 606 607
3 226 224 225
3 226 7 224
3 226 199 7
3 227 199 226
3 227 37 199
3 107 227 50
3 228 227 107
3 228 37 227
3 228 92 37
3 229 92 228
3 229 3 92
3 609 608 52
3 611 610 8
3 177 110 9
3 230 110 177
3 230 612 614
3 614 613 110
3 612 613 614
3 112 230 24
3 615 230 616
3 617 616 112
3 615 616 617
3 619 618 230
3 114 620 622
3 622 621 53
3 620 621 622
3 624 623 114
3 214 85 1
3 231 85 214
3 231 25 85
3 117 231 46
3 232 231 117
3 232 25 231
3 232 180 25
3 233 180 232
3 233 10 180
3 182 118 5
3 234 118 182
3 234 55 118
3 120 234 27
3 235 234 120
3 235 55 234
3 235 233 55
3 236 233 235
3 236 10 233
3 236 115 10
3 237 115 236
3 237 54 115
3 122 237 56
3 238 237 122
3 238 54 237
3 238 625 627
3 627 626 54
3 625 626 627
3 239 628 630
3 630 629 238
3 628 629 630
3 239 631 632
3 239 633 634
3 240 635 637
3 637 636 239
3 635 636 637
3 240 638 640
3 638 52 639
3 638 639 640
3 124 240 57
3 241 240 124
3 241 52 240
3 241 108 52
3 242 108 241
3 242 8 108
3 186 125 11
3 243 125 186
3 243 58 125
3 127 243 29
3 244 243 127
3 244 58 243
3 244 242 58
3 245 242 244
3 245 8 242
3 245 172 8
3 246 172 245
3 246 20 172
3 129 246 59
3 247 246 129
3 247 20 246
3 247 78 20
3 248 78 247
3 248 0 78
3 642 641 31
3 643 109 644
3 249 645 647
3 645 109 646
3 645 646 647
3 249 9 109
3 192 134 13
3 250 134 192
3 250 61 134
3 136 250 33
3 251 250 136
3 251 61 250
3 251 249 61
3 252 249 251
3 252 9 249
3 252 176 9
3 253 176 252
3 253 23 176
3 138 253 62
3 254 253 138
3 254 23 253
3 254 83 23
3 255 83 254
3 255 1 83
3 648 34 649
3 256 650 651
3 256 652 654
3 652 34 653
3 652 653 654
3 256 195 34
3 655 195 656
3 657 656 256
3 655 656 657
3 658 14 659
3 660 659 195
3 658 659 660
3 661 14 662
3 663 139 664
3 665 664 14
3 663 664 665
3 666 139 667
3 668 63 669
3 670 669 139
3 668 669 670
3 671 63 672
3 673 255 674
3 675 674 63
3 673 674 675
3 257 676 678
3 676 255 677
3 676 677 678
3 257 1 255
3 257 213 1
3 258 213 257
3 258 45 213
3 679 258 680
3 681 258 682
3 683 45 684
3 685 684 258
3 683 684 685
3 687 686 45
3 688 4 689
3 690 4 691
3 693 692 4
3 259 694 695
3 259 696 698
3 696 6 697
3 696 697 698
3 141 699 701
3 701 700 35
3 699 700 701
3 703 702 141
3 704 259 705
3 260 706 708
3 706 259 707
3 706 707 708
3 260 6 259
3 260 105 6
3 261 105 260
3 261 49 105
3 143 261 64
3 262 261 143
3 262 49 261
3 262 223 49
3 263 223 262
3 263 2 223
3 264 709 710
3 264 711 713
3 711 36 712
3 711 712 713
3 714 264 715
3 265 716 718
3 716 264 717
3 716 717 718
3 265 36 264
3 265 198 36
3 266 198 265
3 266 15 198
3 200 146 7
3 267 146 200
3 267 66 146
3 148 267 38
3 268 267 148
3 268 66 267
3 268 266 66
3 269 266 268
3 269 15 266
3 269 144 15
3 270 144 269
3 270 65 144
3 150 270 67
3 271 270 150
3 271 65 270
3 271 263 65
3 272 263 271
3 272 2 263
3 272 90 2
3 273 90 272
3 273 30 90
3 152 273 68
3 274 273 152
3 274 30 273
3 274 189 30
3 275 189 274
3 275 12 189
3 204 153 16
3 276 153 204
3 276 69 153
3 155 276 40
3 277 276 155
3 277 69 276
3 277 275 69
3 278 275 277
3 278 12 275
3 278 130 12
3 279 130 278
3 279 60 130
3 157 279 70
3 280 279 157
3 280 60 279
3 280 248 60
3 281 248 280
3 281 0 248
3 282 719 720
3 282 721 723
3 721 51 722
3 721 722 723
3 724 282 725
3 283 726 728
3 726 282 727
3 726 727 728
3 283 51 282
3 283 229 51
3 284 229 283
3 284 3 229
3 159 729 731
3 731 730 72
3 729 730 731
3 285 732 734
3 734 733 159
3 732 733 734
3 285 735 736
3 285 737 739
3 737 284 738
3 737 738 739
3 286 284 285
3 286 3 284
3 286 96 3
3 287 96 286
3 287 41 96
3 161 287 73
3 288 287 161
3 288 41 287
3 288 207 41
3 289 207 288
3 289 17 207
3 290 740 741
3 290 742 744
3 742 74 743
3 742 743 744
3 163 290 42
3 291 290 163
3 291 74 290
3 291 289 74
3 292 289 291
3 292 17 289
3 292 158 17
3 293 158 292
3 293 71 158
3 165 293 75
3 294 293 165
3 294 71 293
3 294 281 71
3 295 281 294
3 295 0 281
3 295 82 0
3 296 82 295
3 296 22 82
3 167 296 76
3 297 296 167
3 297 22 296
3 297 745 747
3 747 746 22
3 745 746 747
3 749 748 297
3 210 168 18
3 298 168 210
3 298 77 168
3 169 298 44
3 750 298 751
3 752 751 169
3 750 751 752
3 753 77 754
3 755 754 298
3 753 754 755
3 757 756 77
