ply
format ascii 1.0
element vertex 573
property float x
property float y
property float z
element face 542
property list uchar int vertex_index
end_header
9.123188 -100.854187 42.884499
6.478184 -116.194283 21.28437
19.714016 -99.457817 36.411613
27.005423 -111.361488 14.723881
13.272579 -103.693504 42.415958
13.566376 -110.135033 29.541466
7.471224 -92.748863 38.200718
21.589182 -87.750664 45.79546
27.143505 -93.828293 32.426712
22.781719 -105.773209 23.776035
16.397757 -116.277229 17.632252
10.803829 -103.17907 43.560825
8.397411 -120.125687 15.205566
7.459536 -91.969917 32.741745
17.934649 -96.652657 43.517605
18.388275 -91.030136 47.953091
21.105633 -93.266029 40.674858
23.351521 -96.228897 33.652622
25.393726 -99.70887 27.541561
21.172241 -102.542801 29.636211
9.778276 -113.639854 25.798429
14.531672 -113.229507 23.236801
11.143476 -117.072624 19.616247
24.151447 -116.118782 11.224169
15.005198 -99.258141 46.189568
16.321039 -102.296349 39.722771
17.111412 -105.348724 32.876549
13.369143 -107.007042 36.16909
8.522881 -96.725136 45.851013
8.140327 -97.17942 40.841885
8.493141 -85.9263 24.966795
24.764872 -108.889572 18.944492
18.070103 -108.381691 26.37261
19.632641 -111.404213 20.705547
21.771799 -114.162247 15.824821
18.838121 -118.873329 12.538612
8.760494 -102.892929 41.02803
8.208998 -101.234459 40.343281
9.808517 -100.207718 45.27169
10.703533 -101.247589 45.690628
9.861813 -102.219765 43.435875
9.556488 -104.188423 41.30954
7.298084 -118.179901 18.190746
5.188503 -117.244675 18.728922
18.896004 -98.011253 39.969994
19.489307 -94.983658 42.048622
20.553833 -96.334084 38.432003
21.505394 -97.811714 34.892914
22.394405 -99.393707 31.521128
20.45092 -100.973579 32.93819
8.02845 -115.007576 23.64539
10.318031 -115.350548 22.64049
8.702148 -116.849815 20.518723
9.662771 -118.686577 17.514202
12.975662 -101.967339 45.200985
14.321371 -101.598724 44.299141
15.770793 -100.766502 43.046211
14.741806 -103.219528 41.215912
14.995246 -104.815773 37.951633
13.365129 -105.378044 39.383762
7.796413 -94.981133 44.643402
7.794975 -95.021973 39.551689
7.67944 -97.115387 38.146988
7.578369 -94.803078 36.840881
19.958694 -89.322853 46.804642
21.670326 -85.429329 48.5756
28.377766 -95.816093 29.724365
24.18169 -102.761597 25.534859
26.42588 -101.530922 24.928257
25.150631 -104.47094 22.969202
23.727209 -107.372871 21.247553
15.418444 -107.907051 31.224426
17.532412 -106.864388 29.540596
15.776688 -109.423553 27.94722
15.364861 -114.775932 20.346415
17.062498 -112.455811 21.919632
18.000025 -113.943138 19.212549
20.648087 -112.846664 18.19252
19.091162 -115.348442 16.673607
20.281607 -116.59993 14.239058
17.576321 -117.668266 15.050557
11.761805 -101.846939 45.6744
11.94833 -103.680382 43.218086
11.886843 -105.463562 40.472618
10.604719 -105.060257 41.128571
9.715889 -121.945145 12.325394
7.496826 -92.413979 35.508057
7.376453 -90.00457 34.199245
7.592466 -89.502556 31.49177
7.792007 -88.939346 28.748539
16.782043 -95.39991 46.961128
18.270992 -93.778381 45.645721
19.817368 -92.051781 44.330288
21.426094 -90.375778 43.140701
23.095963 -88.900314 42.189312
22.784691 -91.661201 39.524914
24.379112 -97.923737 30.455002
23.27211 -101.054344 28.387703
21.935715 -104.150238 26.570927
11.653576 -112.034042 27.752274
13.931377 -111.678741 26.312399
12.084692 -113.642143 24.561745
12.785561 -115.263832 21.515205
13.730581 -116.871002 18.634119
14.869668 -118.406601 15.900773
12.210609 -118.757828 16.737173
10.854977 -120.449059 14.634664
22.749918 -118.366211 9.406588
16.4389 -98.119804 44.943214
17.300251 -99.535538 41.557034
17.983555 -101.002831 38.071476
18.561417 -102.50309 34.579926
16.737034 -103.826942 36.301666
15.186413 -106.376465 34.589752
11.702871 -107.178734 37.478149
11.484236 -110.437538 31.027264
9.541203 -111.957001 29.039656
7.678627 -113.199249 26.854393
9.063496 -98.785606 44.481102
8.564241 -99.149055 41.986423
8.435499 -97.052574 43.409096
7.8794 -95.085442 42.153618
7.348665 -92.959129 40.802914
7.867287 -99.283676 39.347656
7.275431 -94.445335 34.036995
7.997351 -88.352051 25.99651
27.509592 -98.621849 27.174711
28.636835 -100.54612 24.806402
25.868759 -110.246384 16.797438
19.11338 -104.025612 31.176834
19.712463 -105.566551 27.945145
20.413576 -107.120865 24.94346
16.317429 -110.940269 24.831741
18.766756 -109.901184 23.423279
21.245605 -108.671204 22.195625
22.208744 -110.178978 19.686161
23.27833 -111.58271 17.36389
24.414818 -112.805992 15.153998
22.954025 -115.2752 13.526382
21.51569 -117.624382 11.836979
20.12487 -119.824799 10.034727
16.139214 -119.795197 13.2693
17.472771 -120.960167 10.684862
27.576597 -111.764145 13.685351
28.269118 -110.625336 14.652763
26.29167 -112.567535 13.850031
27.576597 -111.764145 13.685351
20.79404 -87.305973 47.612425
19.978796 -88.092067 48.117016
20.773938 -88.536758 46.300051
21.629754 -86.589996 47.18553
20.834612 -86.145306 49.002495
20.79404 -87.305973 47.612425
22.43139 -87.096764 45.407881
22.471962 -85.936096 46.797951
21.629754 -86.589996 47.18553
27.416177 -92.496159 33.853657
26.503287 -92.900418 33.929028
28.086962 -93.503441 32.491642
27.416177 -92.496159 33.853657
27.760635 -94.822193 31.075539
28.704092 -94.497341 31.140469
28.086962 -93.503441 32.491642
9.292055 -105.13784 40.096039
8.830694 -104.529671 40.097672
7.897633 -120.759231 13.953774
8.556873 -121.66896 12.513689
9.05665 -121.035416 13.76548
7.045374 -89.046459 34.8638
7.249054 -90.213242 35.523923
7.604484 -88.291641 30.896558
7.38277 -88.55981 32.214869
7.704254 -88.010036 29.524943
7.692236 -89.220951 30.120154
7.604484 -88.291641 30.896558
23.699921 -94.698021 34.852499
22.812298 -95.447293 35.368656
24.295319 -95.545856 33.228399
23.699921 -94.698021 34.852499
23.865316 -97.076317 32.053812
24.809114 -96.393276 31.629589
24.295319 -95.545856 33.228399
24.745573 -116.386024 10.044791
25.446078 -115.2747 10.993847
23.450682 -117.242497 10.315378
24.044809 -117.509739 9.136001
24.745573 -116.386024 10.044791
14.487615 -98.526196 47.639744
14.325736 -99.617783 46.663594
15.176144 -98.016873 47.168974
14.487615 -98.526196 47.639744
15.722049 -98.688973 45.566391
15.892995 -97.447704 46.545797
15.176144 -98.016873 47.168974
13.385852 -107.796433 34.51294
14.294487 -107.481144 33.72327
14.277778 -106.691754 35.379421
10.970948 -107.023758 37.942207
11.794857 -106.321148 38.975383
11.062934 -106.166172 39.439442
10.535765 -110.363255 31.655268
11.506841 -109.633411 32.664049
9.564248 -111.122986 30.661464
10.512719 -111.19727 30.03346
10.535765 -110.363255 31.655268
6.766908 -112.761463 27.251198
7.669273 -112.315121 28.463279
6.833094 -113.71558 25.656153
6.766908 -112.761463 27.251198
7.490443 -94.058617 42.730976
7.837907 -95.033288 43.39851
7.44895 -94.006462 43.975868
7.225075 -92.995461 42.055624
7.614033 -94.022286 41.478266
7.490443 -94.058617 42.730976
8.920137 -97.457146 46.346927
8.45379 -96.459538 47.018093
8.793188 -97.755371 45.166058
9.190445 -98.487381 45.661972
8.920137 -97.457146 46.346927
7.359871 -98.160939 37.358382
7.394733 -96.996681 36.741707
8.273374 -86.215294 26.301865
8.30781 -85.039803 25.773354
8.245246 -87.139175 25.481653
8.025479 -87.428169 26.816723
8.273374 -86.215294 26.301865
17.601332 -90.608711 49.702387
17.631702 -91.877339 48.541708
24.666233 -89.0304 40.135806
23.95503 -88.323131 41.87727
23.807165 -89.607582 40.447848
26.451659 -99.165359 27.358136
26.946779 -97.661739 28.505782
25.888846 -98.20525 28.689207
28.064848 -101.933597 23.700584
27.531357 -101.038521 24.867329
26.95937 -102.425998 23.761512
29.20642 -101.464184 23.746886
28.064848 -101.933597 23.700584
26.021354 -108.25977 18.745678
25.475674 -107.504856 19.802447
25.316816 -109.567978 17.870965
26.573298 -108.938175 17.672151
26.021354 -108.25977 18.745678
14.799036 -120.064126 13.62471
15.504441 -119.100899 14.585036
14.164263 -119.369827 14.940447
16.849528 -121.895927 9.677419
16.146508 -121.337872 10.994305
18.141385 -121.401649 9.393967
16.849528 -121.895927 9.677419
8.121427 -103.083576 39.73793
8.432697 -103.881923 39.956917
7.845678 -102.254341 39.395556
8.121427 -103.083576 39.73793
8.484746 -102.063694 40.685655
7.675763 -101.298462 38.992853
7.845678 -102.254341 39.395556
10.256025 -100.727654 45.481159
10.458709 -100.273842 46.609112
10.011201 -99.753906 46.399643
8.432697 -103.881923 39.956917
8.830694 -104.529671 40.097672
9.158491 -103.540676 41.168785
6.728694 -118.772087 16.930343
7.278358 -119.74498 15.437753
7.847748 -119.152794 16.698156
5.673903 -118.304474 17.199431
6.728694 -118.772087 16.930343
6.243294 -117.712288 18.459834
4.697915 -117.713692 17.368311
5.673903 -118.304474 17.199431
21.413454 -95.499886 37.758347
21.689354 -93.965858 38.879774
20.829733 -94.800057 39.553431
21.889235 -96.238701 35.988802
21.413454 -95.499886 37.758347
21.029613 -97.072899 36.662458
22.428458 -97.020306 34.272768
22.812298 -95.447293 35.368656
21.889235 -96.238701 35.988802
24.864682 -114.946182 12.100175
25.446078 -115.2747 10.993847
13.310968 -100.972382 46.169302
12.67897 -101.09726 46.450091
13.983822 -100.788074 45.71838
13.310968 -100.972382 46.169302
13.648516 -101.783031 44.750063
14.663284 -100.428432 45.244355
14.325736 -99.617783 46.663594
13.983822 -100.788074 45.71838
7.662756 -94.839878 45.837486
8.159647 -95.853135 45.247208
8.02599 -95.71188 46.441292
7.255486 -93.96682 45.183129
7.662756 -94.839878 45.837486
6.908023 -92.992149 44.515595
7.44895 -94.006462 43.975868
7.255486 -93.96682 45.183129
8.02599 -95.71188 46.441292
8.45379 -96.459538 47.018093
7.344198 -95.840527 36.088654
7.394733 -96.996681 36.741707
7.628904 -95.959232 37.493935
7.19778 -92.971722 31.953886
7.4275 -91.704963 31.334297
8.624643 -84.761605 24.477496
8.30781 -85.039803 25.773354
19.169096 -88.907055 48.612053
18.383887 -89.760696 49.186278
19.173485 -90.176494 47.378867
19.169096 -88.907055 48.612053
19.978796 -88.092067 48.117016
20.842983 -85.055454 50.356922
20.834612 -86.145306 49.002495
21.702493 -84.414704 49.987458
20.842983 -85.055454 50.356922
22.526128 -84.863823 48.255616
22.558295 -83.849198 49.667473
21.702493 -84.414704 49.987458
22.526128 -84.863823 48.255616
22.471962 -85.936096 46.797951
29.35029 -95.551754 29.926265
28.704092 -94.497341 31.140469
28.981125 -96.833664 28.522754
29.35029 -95.551754 29.926265
26.321746 -103.896007 22.781985
26.95937 -102.425998 23.761512
25.788255 -103.000931 23.948729
25.668554 -105.29554 21.814802
26.321746 -103.896007 22.781985
24.956843 -106.746506 20.953978
25.668554 -105.29554 21.814802
24.43892 -105.921906 22.108377
24.24604 -108.131222 20.096023
25.475674 -107.504856 19.802447
24.956843 -106.746506 20.953978
10.968787 -100.621132 46.759475
10.458709 -100.273842 46.609112
11.497923 -100.920807 46.751362
10.968787 -100.621132 46.759475
11.232669 -101.547264 45.682514
12.072041 -101.037059 46.686798
11.497923 -100.920807 46.751362
12.368734 -101.907139 45.437692
12.67897 -101.09726 46.450091
12.072041 -101.037059 46.686798
10.421872 -105.964519 39.767418
11.062934 -106.166172 39.439442
11.245781 -105.26191 40.800595
9.81617 -105.573757 40.005555
10.080603 -104.62434 41.219055
9.292055 -105.13784 40.096039
10.421872 -105.964519 39.767418
9.81617 -105.573757 40.005555
9.28019 -122.588211 11.072676
10.452566 -122.744358 10.929025
9.28019 -122.588211 11.072676
8.556873 -121.66896 12.513689
7.897633 -120.759231 13.953774
7.278358 -119.74498 15.437753
7.309241 -91.417946 36.17833
7.484025 -92.581421 36.854388
7.29644 -91.585388 37.52466
7.43664 -91.209274 34.853651
7.309241 -91.417946 36.17833
7.249054 -90.213242 35.523923
7.274763 -88.810817 33.568607
7.045374 -89.046459 34.8638
7.484459 -89.753563 32.845507
7.274763 -88.810817 33.568607
7.38277 -88.55981 32.214869
7.493965 -90.471283 30.709309
7.4275 -91.704963 31.334297
7.526001 -90.736236 32.116757
7.593735 -90.189678 29.337694
7.493965 -90.471283 30.709309
7.692236 -89.220951 30.120154
7.566434 -89.900032 27.921464
7.593735 -90.189678 29.337694
16.828587 -94.062226 48.045727
16.097974 -94.83025 48.590519
17.573061 -93.251461 47.388023
16.828587 -94.062226 48.045727
17.526518 -94.589146 46.303425
18.329633 -92.404258 46.799406
17.631702 -91.877339 48.541708
17.573061 -93.251461 47.388023
23.651529 -90.988026 39.115649
23.807165 -89.607582 40.447848
22.940327 -90.280757 40.857113
22.528883 -93.163444 38.304802
21.945162 -92.463615 40.099886
21.689354 -93.965858 38.879774
23.416506 -92.414173 37.788645
22.528883 -93.163444 38.304802
23.651529 -90.988026 39.115649
23.416506 -92.414173 37.788645
26.191311 -94.345554 32.615444
26.503287 -92.900418 33.929028
26.763735 -95.264961 31.131782
26.191311 -94.345554 32.615444
25.381538 -97.312683 30.145927
24.809114 -96.393276 31.629589
24.886419 -98.816304 28.998282
25.888846 -98.20525 28.689207
25.381538 -97.312683 30.145927
12.834733 -119.545441 15.358646
14.164263 -119.369827 14.940447
13.540139 -118.582214 16.318973
12.156917 -120.391057 14.307392
12.834733 -119.545441 15.358646
11.532793 -119.603443 15.685918
11.53435 -121.250103 13.245588
12.156917 -120.391057 14.307392
10.964806 -121.998146 12.090953
11.53435 -121.250103 13.245588
10.285433 -121.197102 13.480029
10.452566 -122.744358 10.929025
10.964806 -121.998146 12.090953
23.356327 -118.584214 8.159022
24.044809 -117.509739 9.136001
22.071516 -119.423626 8.45058
23.356327 -118.584214 8.159022
5.50993 -115.656185 21.572979
6.232873 -115.213097 22.871141
16.064567 -96.087757 47.554754
16.097974 -94.83025 48.590519
16.610472 -96.759857 45.952171
16.064567 -96.087757 47.554754
15.892995 -97.447704 46.545797
14.410502 -108.246437 32.040608
15.302428 -107.141758 32.907089
14.294487 -107.481144 33.72327
13.484469 -109.360428 31.199127
14.49241 -109.021042 30.382946
14.410502 -108.246437 32.040608
10.778712 -107.891529 36.456585
10.970948 -107.023758 37.942207
11.616159 -108.004009 35.889492
10.778712 -107.891529 36.456585
12.449295 -107.918163 35.234962
12.536007 -107.092888 36.823619
11.616159 -108.004009 35.889492
13.385852 -107.796433 34.51294
12.449295 -107.918163 35.234962
12.443399 -109.511681 31.942026
11.506841 -109.633411 32.664049
12.525306 -110.286286 30.284365
13.484469 -109.360428 31.199127
12.443399 -109.511681 31.942026
8.600561 -111.693996 29.555911
9.564248 -111.122986 30.661464
8.609915 -112.578125 27.947025
8.600561 -111.693996 29.555911
7.669273 -112.315121 28.463279
7.008006 -114.619743 24.051651
7.853538 -114.103412 25.249892
6.833094 -113.71558 25.656153
6.232873 -115.213097 22.871141
7.253317 -115.60093 22.46488
7.008006 -114.619743 24.051651
27.70335 -110.137165 15.635986
28.269118 -110.625336 14.652763
6.879058 -91.952331 41.360527
7.225075 -92.995461 42.055624
7.077283 -91.849464 40.113455
6.879058 -91.952331 41.360527
7.138563 -91.744331 38.812357
7.409944 -92.853996 39.501816
7.077283 -91.849464 40.113455
7.29644 -91.585388 37.52466
7.138563 -91.744331 38.812357
9.562956 -99.198437 46.057266
10.011201 -99.753906 46.399643
9.436007 -99.496662 44.876396
9.562956 -99.198437 46.057266
9.190445 -98.487381 45.661972
4.865089 -116.181382 20.295255
5.833343 -116.719479 20.006646
5.50993 -115.656185 21.572979
4.293232 -116.574341 18.912573
4.865089 -116.181382 20.295255
4.697915 -117.713692 17.368311
4.293232 -116.574341 18.912573
7.504908 -100.323071 38.495041
7.675763 -101.298462 38.992853
8.038142 -100.259068 39.845468
7.453794 -99.245083 37.958715
7.773364 -98.199532 38.747322
7.359871 -98.160939 37.358382
7.504908 -100.323071 38.495041
7.453794 -99.245083 37.958715
7.192729 -95.661655 34.686711
7.344198 -95.840527 36.088654
7.4269 -94.624206 35.438938
7.105728 -94.20943 32.601511
7.367484 -93.207626 33.38937
7.19778 -92.971722 31.953886
6.885409 -95.469929 33.235861
7.105728 -94.20943 32.601511
7.192729 -95.661655 34.686711
6.885409 -95.469929 33.235861
7.922808 -87.721817 28.192737
7.704254 -88.010036 29.524943
7.894679 -88.645699 27.372525
7.922808 -87.721817 28.192737
8.025479 -87.428169 26.816723
7.669106 -89.606385 26.54545
7.566434 -89.900032 27.921464
7.894679 -88.645699 27.372525
8.719062 -85.661724 23.641129
8.624643 -84.761605 24.477496
8.36207 -86.858986 24.116101
8.719062 -85.661724 23.641129
8.114175 -88.071862 24.630958
8.245246 -87.139175 25.481653
8.36207 -86.858986 24.116101
7.664334 -89.317616 25.13776
8.114175 -88.071862 24.630958
7.669106 -89.606385 26.54545
7.664334 -89.317616 25.13776
17.601332 -90.608711 49.702387
18.383887 -89.760696 49.186278
23.184781 -87.671588 43.604807
22.43139 -87.096764 45.407881
22.342573 -88.325489 43.992386
23.184781 -87.671588 43.604807
23.95503 -88.323131 41.87727
27.380865 -96.258861 29.780609
27.760635 -94.822193 31.075539
26.763735 -95.264961 31.131782
27.943679 -97.218971 28.449538
27.380865 -96.258861 29.780609
26.946779 -97.661739 28.505782
28.547038 -98.236542 27.247927
28.981125 -96.833664 28.522754
27.943679 -97.218971 28.449538
29.11066 -99.198677 26.063773
28.547038 -98.236542 27.247927
28.073214 -99.583984 25.990556
29.707442 -100.189537 24.993143
29.11066 -99.198677 26.063773
29.707442 -100.189537 24.993143
29.20642 -101.464184 23.746886
27.135018 -109.579613 16.672764
26.573298 -108.938175 17.672151
26.437091 -110.803936 15.760659
27.70335 -110.137165 15.635986
27.135018 -109.579613 16.672764
24.996367 -113.289787 14.065089
26.29167 -112.567535 13.850031
25.710121 -112.08374 14.93894
24.265971 -114.524391 13.251282
24.996367 -113.289787 14.065089
23.684421 -114.040596 14.34019
23.552736 -115.696991 12.375276
24.864682 -114.946182 12.100175
24.265971 -114.524391 13.251282
20.758992 -120.15292 8.76465
22.071516 -119.423626 8.45058
21.437394 -119.095505 9.720657
15.479729 -120.755387 12.286523
14.799036 -120.064126 13.62471
16.805993 -120.377682 11.977081
15.479729 -120.755387 12.286523
16.146508 -121.337872 10.994305
19.467434 -120.833966 9.0689
18.798821 -120.392483 10.359794
18.141385 -121.401649 9.393967
20.758992 -120.15292 8.76465
19.467434 -120.833966 9.0689
3 0 37 36
3 0 40 38
3 0 36 40
3 1 43 42
3 2 46 44
3 2 47 46
3 2 49 47
3 1 52 50
3 1 42 52
3 3 143 144
3 3 145 146
3 4 55 54
3 4 57 55
3 4 59 57
3 6 63 61
3 7 147 149
3 149 148 64
3 147 148 149
3 7 150 152
3 150 65 151
3 150 151 152
3 7 153 155
3 155 154 65
3 153 154 155
3 8 156 157
3 8 158 159
3 8 160 162
3 160 66 161
3 160 161 162
3 9 69 67
3 9 70 69
3 5 73 71
3 10 76 74
3 10 78 76
3 10 80 78
3 11 81 39
3 11 82 81
3 11 84 82
3 164 163 41
3 12 165 167
3 167 166 85
3 165 166 167
3 168 87 169
3 170 88 171
3 172 89 173
3 174 173 88
3 172 173 174
3 14 91 90
3 16 92 45
3 16 93 92
3 16 95 93
3 17 175 176
3 17 177 178
3 17 179 181
3 179 96 180
3 179 180 181
3 19 97 48
3 19 98 97
3 20 101 99
3 22 102 51
3 22 103 102
3 22 105 103
3 12 106 53
3 12 85 106
3 23 182 183
3 23 184 186
3 184 107 185
3 184 185 186
3 24 187 188
3 24 189 190
3 24 191 193
3 191 108 192
3 191 192 193
3 25 109 56
3 25 110 109
3 25 112 110
3 27 113 58
3 27 194 196
3 196 195 113
3 194 195 196
3 197 114 198
3 199 198 83
3 197 198 199
3 200 115 201
3 202 116 203
3 204 203 115
3 202 203 204
3 205 117 206
3 208 207 117
3 28 120 118
3 209 121 210
3 211 210 60
3 209 210 211
3 212 122 213
3 214 213 121
3 212 213 214
3 28 215 216
3 28 217 219
3 217 118 218
3 217 218 219
3 29 123 119
3 221 220 62
3 13 124 86
3 30 222 223
3 30 224 226
3 224 125 225
3 224 225 226
3 15 227 228
3 231 230 94
3 229 230 231
3 18 232 234
3 232 126 233
3 232 233 234
3 235 127 236
3 237 236 68
3 235 236 237
3 239 238 127
3 31 240 241
3 31 242 244
3 242 128 243
3 242 243 244
3 26 129 111
3 32 130 72
3 32 131 130
3 21 132 100
3 33 133 75
3 33 134 133
3 33 135 134
3 34 136 77
3 34 137 136
3 34 138 137
3 35 139 79
3 35 140 139
3 245 141 246
3 247 246 104
3 245 246 247
3 248 142 249
3 251 250 142
3 36 252 253
3 37 254 256
3 256 255 36
3 254 255 256
3 37 257 258
3 38 259 261
3 259 39 260
3 259 260 261
3 40 39 38
3 40 11 39
3 40 41 11
3 36 41 40
3 36 262 264
3 264 263 41
3 262 263 264
3 42 265 267
3 267 266 12
3 265 266 267
3 43 268 270
3 270 269 42
3 268 269 270
3 43 271 272
3 44 45 14
3 46 45 44
3 46 16 45
3 46 273 275
3 275 274 16
3 273 274 275
3 47 276 278
3 278 277 46
3 276 277 278
3 47 279 281
3 279 17 280
3 279 280 281
3 47 48 17
3 49 48 47
3 49 19 48
3 50 51 20
3 52 51 50
3 52 22 51
3 52 53 22
3 42 53 52
3 42 12 53
3 282 23 283
3 54 284 285
3 55 286 288
3 288 287 54
3 286 287 288
3 55 289 291
3 289 24 290
3 289 290 291
3 55 56 24
3 57 56 55
3 57 25 56
3 57 58 25
3 59 58 57
3 59 27 58
3 292 60 293
3 294 293 28
3 292 293 294
3 295 60 296
3 299 298 60
3 297 298 299
3 300 28 301
3 61 62 29
3 63 62 61
3 63 302 304
3 304 303 62
3 302 303 304
3 306 305 13
3 307 30 308
3 64 309 311
3 311 310 15
3 309 310 311
3 313 312 64
3 65 314 315
3 65 316 317
3 65 318 320
3 318 319 320
3 322 321 65
3 66 323 324
3 66 325 326
3 67 68 18
3 69 68 67
3 69 327 329
3 329 328 68
3 327 328 329
3 69 330 331
3 70 332 334
3 334 333 69
3 332 333 334
3 70 335 337
3 335 31 336
3 335 336 337
3 71 72 26
3 73 72 71
3 73 32 72
3 74 75 21
3 76 75 74
3 76 33 75
3 76 77 33
3 78 77 76
3 78 34 77
3 78 79 34
3 80 79 78
3 80 35 79
3 39 338 339
3 81 340 342
3 342 341 39
3 340 341 342
3 81 343 344
3 81 345 347
3 345 54 346
3 345 346 347
3 82 54 81
3 82 4 54
3 82 83 4
3 84 83 82
3 84 348 350
3 350 349 83
3 348 349 350
3 41 84 11
3 351 84 352
3 353 352 41
3 351 352 353
3 355 354 84
3 85 356 357
3 359 358 85
3 361 360 12
3 362 86 363
3 364 363 6
3 362 363 364
3 87 365 367
3 365 86 366
3 365 366 367
3 87 13 86
3 368 87 369
3 88 370 372
3 370 87 371
3 370 371 372
3 88 13 87
3 88 373 375
3 375 374 13
3 373 374 375
3 89 376 378
3 378 377 88
3 376 377 378
3 89 379 380
3 90 381 382
3 91 383 385
3 385 384 90
3 383 384 385
3 91 386 388
3 386 15 387
3 386 387 388
3 45 91 14
3 92 91 45
3 92 15 91
3 92 64 15
3 93 64 92
3 93 7 64
3 93 94 7
3 95 94 93
3 95 389 391
3 391 390 94
3 389 390 391
3 392 95 393
3 394 393 16
3 392 393 394
3 395 95 396
3 398 397 95
3 399 8 400
3 402 401 8
3 96 403 404
3 96 405 407
3 405 18 406
3 405 406 407
3 48 96 17
3 97 96 48
3 97 18 96
3 97 67 18
3 98 67 97
3 98 9 67
3 99 100 5
3 101 100 99
3 101 21 100
3 51 101 20
3 102 101 51
3 102 21 101
3 102 74 21
3 103 74 102
3 103 10 74
3 103 104 10
3 105 104 103
3 105 408 410
3 410 409 104
3 408 409 410
3 53 105 22
3 106 105 53
3 106 411 413
3 413 412 105
3 411 412 413
3 106 414 415
3 85 416 418
3 418 417 106
3 416 417 418
3 85 419 420
3 107 421 422
3 107 423 424
3 426 425 1
3 427 90 428
3 108 429 431
3 429 90 430
3 429 430 431
3 108 14 90
3 56 108 24
3 109 108 56
3 109 14 108
3 109 44 14
3 110 44 109
3 110 2 44
3 110 111 2
3 112 111 110
3 112 26 111
3 58 112 25
3 113 112 58
3 113 26 112
3 113 71 26
3 432 71 433
3 434 433 113
3 432 433 434
3 435 5 436
3 437 436 71
3 435 436 437
3 83 59 4
3 114 59 83
3 114 27 59
3 438 114 439
3 440 114 441
3 442 27 443
3 444 443 114
3 442 443 444
3 446 445 27
3 115 447 448
3 115 449 451
3 449 5 450
3 449 450 451
3 115 99 5
3 116 99 115
3 116 20 99
3 452 116 453
3 117 454 456
3 454 116 455
3 454 455 456
3 117 20 116
3 117 50 20
3 457 50 458
3 459 458 117
3 457 458 459
3 460 1 461
3 462 461 50
3 460 461 462
3 463 3 464
3 118 119 0
3 120 119 118
3 120 29 119
3 60 120 28
3 121 120 60
3 121 29 120
3 121 61 29
3 122 61 121
3 122 6 61
3 465 122 466
3 467 122 468
3 469 6 470
3 471 470 122
3 469 470 471
3 473 472 6
3 474 38 475
3 118 476 478
3 476 38 477
3 476 477 478
3 118 0 38
3 479 43 480
3 481 480 1
3 479 480 481
3 482 43 483
3 485 484 43
3 119 37 0
3 123 37 119
3 123 486 488
3 488 487 37
3 486 487 488
3 62 123 29
3 489 123 490
3 491 490 62
3 489 490 491
3 493 492 123
3 86 63 6
3 124 63 86
3 124 494 496
3 496 495 63
3 494 495 496
3 497 124 498
3 499 498 13
3 497 498 499
3 500 124 501
3 503 502 124
3 504 89 505
3 125 506 508
3 506 89 507
3 506 507 508
3 125 509 511
3 511 510 89
3 509 510 511
3 512 30 513
3 514 30 515
3 516 125 517
3 518 517 30
3 516 517 518
3 519 125 520
3 522 521 125
3 524 523 15
3 94 525 527
3 527 526 7
3 525 526 527
3 529 528 94
3 530 66 531
3 532 531 8
3 530 531 532
3 126 533 535
3 533 66 534
3 533 534 535
3 126 536 538
3 538 537 66
3 536 537 538
3 68 126 18
3 127 126 68
3 127 539 541
3 541 540 126
3 539 540 541
3 127 542 543
3 545 544 127
3 128 546 547
3 128 548 550
3 548 3 549
3 548 549 550
3 111 49 2
3 129 49 111
3 129 19 49
3 72 129 26
3 130 129 72
3 130 19 129
3 130 98 19
3 131 98 130
3 131 9 98
3 100 73 5
3 132 73 100
3 132 32 73
3 75 132 21
3 133 132 75
3 133 32 132
3 133 131 32
3 134 131 133
3 134 9 131
3 134 70 9
3 135 70 134
3 135 31 70
3 77 135 33
3 136 135 77
3 136 31 135
3 136 128 31
3 137 128 136
3 137 3 128
3 137 551 553
3 553 552 3
3 551 552 553
3 138 554 556
3 556 555 137
3 554 555 556
3 138 557 559
3 557 23 558
3 557 558 559
3 79 138 34
3 139 138 79
3 139 23 138
3 139 107 23
3 140 107 139
3 140 560 562
3 562 561 107
3 560 561 562
3 104 80 10
3 141 80 104
3 141 35 80
3 563 141 564
3 142 565 567
3 565 141 566
3 565 566 567
3 142 35 141
3 142 140 35
3 568 140 569
3 570 569 142
3 568 569 570
3 572 571 140
