ply
format ascii 1.0
element vertex 588
property float x
property float y
property float z
element face 652
property list uchar int vertex_index
end_header
-5.608297 -32.789238 87.557388
-4.622086 -30.344624 60.4174
1.548695 -32.919533 81.037666
1.337702 -19.870312 78.004242
-3.200132 -42.56974 89.053528
-5.24769 -42.843502 64.323936
-13.801612 -31.924463 82.372612
-3.184181 -16.642799 59.084152
-0.330755 -19.363407 67.890106
-0.925852 -32.407429 70.630714
-1.919603 -44.160847 75.113373
0.17182 -33.094994 87.887283
-0.375378 -44.263664 84.75959
-4.942215 -48.348068 67.063629
-16.963364 -28.06003 81.1222
-16.012535 -34.841484 81.577354
-0.132444 -12.438888 66.909477
0.836246 -12.941881 71.652069
1.559549 -26.470516 79.50589
0.784613 -26.372211 74.3564
0.660759 -32.74979 75.982437
-1.333529 -38.49987 72.62413
0.218931 -38.837097 77.934677
-1.737581 -27.271042 88.689949
-2.269655 -33.029819 88.623978
-1.184616 -43.672943 87.842148
-2.098106 -49.157444 82.861549
-3.918207 -23.573986 59.483421
1.126669 -13.095175 76.524101
1.153034 -19.919142 82.619148
1.509706 -26.579889 84.005356
-7.314684 -36.752594 86.839233
-3.725283 -37.710873 88.439827
-6.2472 -41.111748 88.424515
-5.109741 -36.806633 62.042187
-6.151142 -35.094131 57.331894
-6.302057 -41.473831 59.298523
-9.52602 -32.393372 85.253891
-11.46899 -35.750221 84.336189
-1.489429 -11.457021 62.587933
-1.852386 -18.353024 63.206448
-2.362511 -25.147129 64.045509
0.813507 -19.79155 72.930206
-0.615904 -26.020967 69.085541
-2.864548 -31.677906 65.354492
-3.284447 -37.886078 67.238068
-3.594545 -43.679371 69.688705
-3.72529 -48.946594 72.543839
0.434307 -26.851961 87.225822
1.453245 -33.035179 85.223625
-0.981436 -38.458252 88.43409
0.625574 -38.880646 86.464256
0.976744 -38.979362 82.75676
-0.713139 -44.379181 80.299782
-2.635521 -49.229439 77.938477
-4.615551 -50.886299 68.507721
-5.025684 -50.507324 65.784927
1.603621 -29.722427 80.260643
1.272787 -29.665257 77.755287
1.210432 -32.845894 78.578323
0.494165 -35.843395 76.908409
1.036922 -35.948799 79.466911
-5.127413 -30.36459 87.994286
-3.423105 -30.328747 88.556549
-3.847771 -32.932014 88.287468
-4.286694 -26.990578 59.869232
-4.824955 -25.987673 57.7244
-5.213488 -29.413506 58.164047
1.360537 -23.260782 83.33786
0.973824 -23.375719 85.229156
-8.570438 -38.282654 86.650352
-6.63154 -38.92865 87.67263
-5.22921 -39.885723 63.109924
-5.892307 -39.195908 60.597706
-5.886761 -42.235291 61.747795
-15.2901 -29.991863 81.652672
-13.115286 -30.114866 83.154808
-10.996395 -30.224926 84.600159
-11.627764 -32.161633 83.850052
-10.359457 -34.208252 84.696236
-12.522989 -33.845222 83.282074
-15.130678 -36.494682 82.847183
-0.211815 -15.929401 67.38636
-0.908278 -15.490189 65.076416
-1.072319 -18.940647 65.489189
-2.099909 -21.77766 63.578594
-1.266718 -22.335825 65.961273
1.222099 -16.513041 77.257263
1.109869 -16.488228 74.78051
1.159111 -19.855623 75.489822
0.056635 -29.458168 72.472672
0.149475 -26.246237 71.710358
-0.765587 -29.247017 69.808258
-1.677555 -28.920561 67.183968
-1.878849 -32.105984 67.966064
-3.086246 -34.826729 66.222076
-2.080248 -35.215343 68.876732
-1.603792 -41.395817 73.809875
-2.504894 -41.15744 71.103897
-2.72681 -43.954971 72.409386
-3.688139 -46.383614 71.083611
-2.942181 -46.614162 73.813126
-0.623363 -30.158613 88.392883
-0.519709 -27.050148 88.192703
0.394411 -30.049755 87.592987
1.122536 -29.944229 86.321785
0.96595 -33.075832 86.781334
-3.289675 -40.153923 88.804787
-2.227732 -38.120354 88.672745
-1.959793 -40.676006 88.743507
-0.626741 -44.034378 86.512642
-0.155285 -41.425774 87.144547
0.278706 -41.635021 85.634766
0.954601 -38.965988 84.793289
0.401817 -41.739632 83.729118
0.236353 -41.753822 81.511536
-0.414347 -44.372353 82.659943
-2.273895 -49.246979 80.490662
-3.003658 -51.523983 79.339188
-3.299818 -51.489166 76.725128
-6.18877 -33.991356 55.270626
-5.154104 -45.666946 65.654404
-18.784275 -26.143341 80.738365
-19.172482 -28.02776 79.616722
-17.51347 -29.867573 80.132393
-16.038015 -31.693933 80.872162
-14.764647 -33.497646 81.831573
-17.075556 -33.175003 80.389458
-18.400082 -34.445427 80.229073
0.427456 -12.745077 69.24324
0.380581 -16.228094 69.796997
1.458895 -23.185532 78.7556
1.215277 -23.166533 76.22197
1.262398 -26.435013 76.975174
0.747034 -29.586763 75.13829
-0.064127 -32.612175 73.316025
-1.110386 -35.496567 71.565681
-0.235971 -35.698097 74.256531
-0.480776 -38.694561 75.309242
-0.812126 -41.572884 76.480804
-3.189619 -27.493837 88.728416
-1.907856 -30.256382 88.706871
-0.91659 -33.082535 88.502228
-2.048244 -43.179878 88.694786
-2.435787 -45.627964 88.490242
-1.739935 -46.156586 87.365768
-1.337088 -46.534561 85.793701
-1.218245 -46.766567 83.840187
-2.902626 -51.255054 84.029266
-3.542048 -20.11451 59.23415
1.340218 -19.877947 80.405891
1.514473 -23.205643 81.153519
1.651093 -26.510643 81.876076
1.708363 -29.780472 82.578911
-6.327345 -34.925911 87.146545
-4.507673 -35.249428 88.011337
-5.433853 -37.24781 87.79953
-4.859587 -39.562012 88.422188
-4.611212 -41.869041 88.943008
-4.902403 -33.621311 61.1413
-5.536839 -32.768188 58.789459
-5.770075 -36.034668 59.604118
-6.300323 -38.34388 58.232002
-6.979801 -30.35807 87.093346
-8.945086 -30.309486 85.935631
-7.511753 -32.606594 86.516815
-8.287474 -34.573574 86.011101
-9.334833 -36.246918 85.654716
-10.647165 -37.649525 85.451523
-13.699072 -35.27813 82.95858
-12.839386 -37.049103 84.161499
-2.326351 -14.142929 60.857098
-0.795721 -12.011971 64.682198
-1.64212 -14.898148 62.892712
-2.5877 -17.589655 61.064774
-2.889372 -21.03928 61.328186
-3.208321 -24.453516 61.690414
-3.521177 -27.810406 62.183159
1.070997 -13.048871 74.095917
0.827526 -16.405195 72.275833
0.310503 -19.638586 70.382004
0.800913 -23.109728 73.622665
0.231802 -22.975561 71.016479
-0.469866 -22.727676 68.450424
-1.472466 -25.663507 66.520111
-2.621439 -28.449295 64.632111
-3.808317 -31.096943 62.82695
-4.055401 -34.303009 63.632229
-4.252224 -37.417488 64.600197
-4.389906 -40.426933 65.722961
-2.287956 -38.237968 69.922684
-3.456224 -40.842201 68.398239
-4.458509 -43.31678 66.983124
-4.447023 -46.074219 68.353256
-4.346598 -48.691544 69.795929
-4.156481 -51.16861 71.264305
1.10984 -26.692642 85.812599
1.556313 -29.852997 84.626816
1.640163 -32.981701 83.281441
-2.864975 -35.529472 88.514282
-1.440716 -35.754623 88.578331
-0.275772 -35.918484 88.153831
-0.905739 -41.104866 88.192284
-0.022104 -38.712906 87.694237
0.596031 -36.020557 87.227692
1.155159 -36.06591 85.826797
1.401279 -36.063332 84.011337
1.351774 -36.022186 81.862129
0.719082 -38.933132 80.441963
-0.182678 -41.69392 79.069199
-1.23081 -44.303841 77.761215
-1.359503 -46.869247 81.586937
-1.724775 -46.865116 79.117477
-2.269249 -46.775482 76.506241
-3.136505 -49.125572 75.271881
-3.700663 -51.368149 74.017075
-4.550056 -51.932092 67.846588
-4.404165 -52.087834 69.222954
0.55582 -21.800815 85.701603
0.865999 -21.701706 84.897575
-8.322071 -39.308243 87.117512
-9.315266 -38.925308 86.585491
-3.186653 -52.597374 79.980495
-2.930864 -51.489073 80.568669
-3.219167 -52.61896 78.718788
-3.186653 -52.597374 79.980495
-3.368892 -16.073638 58.181605
-3.025423 -14.92566 59.036153
-5.197223 -48.12228 65.722973
-5.303168 -46.781719 65.018361
-5.04816 -47.007507 66.359016
-5.180883 -50.260208 64.459646
-4.874114 -51.536247 65.135025
-20.290436 -28.009911 78.863758
-20.076796 -27.106667 79.450008
-17.921996 -30.673067 79.758156
-18.646425 -29.808395 79.376675
-17.184268 -31.586247 80.12804
-16.775742 -30.780753 80.502277
-17.921996 -30.673067 79.758156
-17.703038 -32.326782 79.886689
-16.556786 -32.434468 80.63081
-17.184268 -31.586247 80.12804
-19.626555 -34.266621 79.581883
-18.924377 -33.663277 79.606846
-19.181703 -34.994261 80.270565
-19.626555 -34.266621 79.581883
0.631851 -12.843479 70.447654
0.625954 -11.074662 70.140747
0.830349 -11.173064 71.345161
-4.013652 -27.595712 88.539211
-3.940391 -26.167873 88.627895
-3.149237 -46.479467 88.738231
-2.926773 -45.293798 88.810119
-2.094829 -47.359522 87.054199
-2.380537 -47.091099 87.731682
-1.893405 -47.548509 86.268166
-1.538512 -46.345574 86.579735
-2.094829 -47.359522 87.054199
-1.742144 -47.735416 85.383266
-1.893405 -47.548509 86.268166
-3.327583 -52.221288 84.505795
-3.035154 -51.078931 84.991253
-3.18413 -52.379348 83.485497
-3.327583 -52.221288 84.505795
-4.158886 -23.041746 58.468029
-3.970807 -21.312008 58.343394
-3.730128 -21.844248 59.358785
-4.94029 -25.399175 56.752516
-5.162446 -27.148155 56.915183
1.039683 -18.238185 82.239517
0.828145 -18.289812 83.227691
1.246626 -19.898544 81.512519
1.133274 -18.217588 81.132889
1.039683 -18.238185 82.239517
-6.366277 -41.012954 58.161129
-6.36541 -39.447979 57.627869
-6.30119 -39.908856 58.765263
-7.772328 -29.172249 86.851406
-6.810733 -29.111649 87.356056
-16.785312 -27.072719 81.644165
-17.695768 -26.114375 81.452247
-17.873819 -27.101686 80.930283
-13.628764 -37.607956 84.119007
-13.985032 -36.771892 83.504341
-14.77441 -37.330745 83.461849
-12.510375 -37.944486 84.743393
-13.628764 -37.607956 84.119007
-1.806245 -11.10952 61.620132
-1.448451 -9.77648 62.408789
-1.90789 -12.799975 61.722516
-2.224705 -12.452474 60.754715
-1.806245 -11.10952 61.620132
-0.464083 -12.22543 65.795838
-0.45395 -10.466691 65.548023
-0.122312 -10.68015 66.661663
1.098833 -13.072023 75.310009
1.062618 -11.32481 74.951713
1.090454 -11.347962 76.165806
-1.727631 -25.70402 88.603832
-2.420787 -25.87881 88.709198
-0.064912 -25.336628 87.543415
-0.54192 -25.435721 88.026855
-0.042701 -26.951054 87.709262
0.384728 -25.207444 86.990512
-0.064912 -25.336628 87.543415
0.772073 -26.772301 86.51921
0.722494 -25.127784 86.283901
0.384728 -25.207444 86.990512
-3.66165 -52.512255 74.728425
-3.500241 -51.428657 75.371102
-3.461228 -52.572763 76.082451
-3.795545 -52.440773 73.36036
-3.66165 -52.512255 74.728425
-6.013297 -33.418461 56.976188
-5.706145 -32.25549 57.704971
-5.843991 -33.931159 58.060676
-6.022738 -32.27443 54.972395
-6.019121 -33.36858 54.362175
-4.755122 -51.742605 66.485191
-4.820617 -50.696811 67.146324
-4.550056 -51.932092 67.846588
-4.874114 -51.536247 65.135025
-4.755122 -51.742605 66.485191
0.935583 -11.235686 72.539879
0.830349 -11.173064 71.345161
-4.275259 -30.346668 88.275418
-4.130395 -29.013167 88.453277
-4.982549 -29.031088 88.172146
-5.356713 -28.861071 57.135006
-5.162446 -27.148155 56.915183
-5.019222 -27.700589 57.944223
0.955603 -19.973418 83.592571
0.828145 -18.289812 83.227691
1.059355 -21.644237 83.951927
1.256785 -21.589962 82.978504
0.955603 -19.973418 83.592571
1.167181 -23.31825 84.283508
1.059355 -21.644237 83.951927
0.865999 -21.701706 84.897575
-7.352622 -39.631241 87.62865
-7.600989 -38.605652 87.161491
-8.322071 -39.308243 87.117512
-7.160452 -40.72279 88.004593
-6.43937 -40.020199 88.048573
-7.352622 -39.631241 87.62865
-15.039585 -29.037817 82.13007
-15.876216 -28.0719 81.864834
-16.126732 -29.025946 81.387436
-13.952177 -29.099318 82.881138
-15.039585 -29.037817 82.13007
-14.202693 -30.053365 82.40374
-12.886185 -29.101295 83.599938
-13.952177 -29.099318 82.881138
-12.05584 -30.169896 83.877484
-11.826739 -29.156325 84.322613
-12.886185 -29.101295 83.599938
-16.319724 -36.243775 82.201023
-15.571606 -35.668083 82.212268
-16.760652 -35.417175 81.566108
-15.943103 -37.026161 82.839481
-16.319724 -36.243775 82.201023
-14.77441 -37.330745 83.461849
-15.943103 -37.026161 82.839481
-1.120584 -10.004347 63.419302
-1.448451 -9.77648 62.408789
-2.565983 -50.350571 81.144406
-2.186001 -49.202212 81.676106
-2.478088 -50.305803 82.329849
-2.638777 -50.385481 79.914925
-2.565983 -50.350571 81.144406
-2.930864 -51.489073 80.568669
-3.367247 -52.601551 77.411758
-3.151738 -51.506574 78.032158
-3.219167 -52.61896 78.718788
-3.461228 -52.572763 76.082451
-3.367247 -52.601551 77.411758
-6.288639 -35.66026 55.665535
-6.169956 -34.542744 56.30126
-6.269825 -36.211647 56.696169
-6.153372 -35.078453 54.696594
-6.288639 -35.66026 55.665535
-6.019121 -33.36858 54.362175
-6.153372 -35.078453 54.696594
-5.447836 -45.40275 64.338351
-5.494629 -43.991028 63.673117
-5.200897 -44.255224 64.98917
-5.447836 -45.40275 64.338351
-5.303168 -46.781719 65.018361
-5.238958 -49.201908 65.083622
-5.197223 -48.12228 65.722973
-4.983949 -49.427696 66.424278
-5.238958 -49.201908 65.083622
-5.180883 -50.260208 64.459646
-19.882693 -26.164457 80.01083
-19.744404 -25.197883 80.581524
-18.978378 -27.085551 80.177543
-19.882693 -26.164457 80.01083
-20.076796 -27.106667 79.450008
-19.475932 -28.888489 79.118839
-20.290436 -28.009911 78.863758
-18.342976 -28.947667 79.874557
-19.475932 -28.888489 79.118839
-18.646425 -29.808395 79.376675
-18.262113 -33.028064 79.687038
-17.703038 -32.326782 79.886689
-17.737819 -33.810215 80.309266
-18.262113 -33.028064 79.687038
-18.924377 -33.663277 79.606846
-17.954426 -35.219147 80.891968
-16.760652 -35.417175 81.566108
-17.206308 -34.643456 80.903213
-17.954426 -35.219147 80.891968
-19.181703 -34.994261 80.270565
0.149745 -10.821884 67.798385
-0.122312 -10.68015 66.661663
0.429695 -10.974978 68.965267
0.625954 -11.074662 70.140747
0.147506 -12.591983 68.076358
0.149745 -10.821884 67.798385
0.429695 -10.974978 68.965267
-3.146806 -25.990208 88.728431
-3.940391 -26.167873 88.627895
-2.4636 -27.38244 88.709182
-2.420787 -25.87881 88.709198
-3.146806 -25.990208 88.728431
-3.306362 -28.911292 88.642482
-4.013652 -27.595712 88.539211
-4.130395 -29.013167 88.453277
-2.733002 -44.069755 88.912391
-2.624188 -42.874809 88.874157
-3.308946 -43.764686 89.091763
-2.242015 -44.403921 88.592514
-2.733002 -44.069755 88.912391
-2.926773 -45.293798 88.810119
-2.728463 -46.826788 88.293918
-3.149237 -46.479467 88.738231
-2.087861 -45.892275 87.928005
-2.728463 -46.826788 88.293918
-2.380537 -47.091099 87.731682
-1.682723 -47.85142 84.406509
-1.277667 -46.650564 84.816944
-1.742144 -47.735416 85.383266
-2.122653 -49.046858 83.917191
-1.658176 -47.962006 83.350868
-1.682723 -47.85142 84.406509
-2.524913 -50.095663 84.501049
-3.035154 -51.078931 84.991253
-2.500366 -50.206249 83.445408
-2.122653 -49.046858 83.917191
-2.524913 -50.095663 84.501049
-2.880348 -51.354608 82.913708
-2.478088 -50.305803 82.329849
-2.500366 -50.206249 83.445408
-2.880348 -51.354608 82.913708
-3.18413 -52.379348 83.485497
-3.754433 -19.558926 58.275914
-3.5755 -17.823071 58.200915
-3.363115 -18.378654 59.159151
-3.754433 -19.558926 58.275914
-3.970807 -21.312008 58.343394
-4.61226 -24.24859 57.588519
-4.158886 -23.041746 58.468029
-4.371581 -24.78083 58.60391
-4.61226 -24.24859 57.588519
-4.94029 -25.399175 56.752516
1.006495 -11.371763 77.322178
1.090454 -11.347962 76.165806
1.066551 -13.106793 77.699794
1.006495 -11.371763 77.322178
1.114266 -14.815726 78.066375
1.174384 -14.804108 76.890682
1.066551 -13.106793 77.699794
1.192324 -16.517259 78.449333
1.114266 -14.815726 78.066375
1.250125 -18.195895 78.822823
1.279901 -18.191676 77.630752
1.192324 -16.517259 78.449333
1.251383 -18.199712 80.023647
1.133274 -18.217588 81.132889
1.33896 -19.874129 79.205067
1.250125 -18.195895 78.822823
1.251383 -18.199712 80.023647
-7.042955 -41.769695 88.389438
-7.160452 -40.72279 88.004593
-6.198174 -42.215896 88.714142
-7.042955 -41.769695 88.389438
-5.38018 -42.594543 88.973388
-5.429206 -41.490395 88.683762
-6.198174 -42.215896 88.714142
-4.638165 -43.023493 89.115036
-5.38018 -42.594543 88.973388
-3.932625 -43.373842 89.170296
-3.905672 -42.219391 88.998268
-4.638165 -43.023493 89.115036
-3.308946 -43.764686 89.091763
-3.932625 -43.373842 89.170296
-6.344416 -37.836522 57.146223
-6.269825 -36.211647 56.696169
-6.225732 -36.719005 57.781948
-6.344416 -37.836522 57.146223
-6.36541 -39.447979 57.627869
-5.814165 -43.686922 62.385046
-5.567226 -42.539396 63.035865
-5.494629 -43.991028 63.673117
-6.014674 -43.3517 61.123034
-5.814165 -43.686922 62.385046
-6.222322 -42.97097 59.898398
-6.094409 -41.854561 60.523159
-6.014674 -43.3517 61.123034
-6.30001 -42.558517 58.713311
-6.222322 -42.97097 59.898398
-6.366277 -41.012954 58.161129
-6.30001 -42.558517 58.713311
-5.884539 -29.114909 87.806527
-4.982549 -29.031088 88.172146
-6.053607 -30.36133 87.543816
-5.884539 -29.114909 87.806527
-6.810733 -29.111649 87.356056
-18.652245 -25.137791 81.248695
-19.744404 -25.197883 80.581524
-18.652245 -25.137791 81.248695
-17.695768 -26.114375 81.452247
-16.785312 -27.072719 81.644165
-15.876216 -28.0719 81.864834
-10.786868 -29.141891 84.998299
-11.826739 -29.156325 84.322613
-9.761214 -29.184171 85.666035
-10.786868 -29.141891 84.998299
-9.97074 -30.267206 85.267895
-8.75497 -29.147958 86.272549
-9.761214 -29.184171 85.666035
-7.962444 -30.333778 86.514488
-7.772328 -29.172249 86.851406
-8.75497 -29.147958 86.272549
-10.35363 -38.608744 85.986076
-9.315266 -38.925308 86.585491
-9.608801 -37.966089 86.050938
-11.414264 -38.244698 85.388405
-11.743275 -37.349314 84.806511
-12.510375 -37.944486 84.743393
-10.35363 -38.608744 85.986076
-11.414264 -38.244698 85.388405
-2.596508 -13.675725 59.922626
-2.224705 -12.452474 60.754715
-2.755266 -15.392864 59.970625
-3.025423 -14.92566 59.036153
-2.596508 -13.675725 59.922626
-0.77373 -10.281822 64.466434
-0.45395 -10.466691 65.548023
-1.142575 -11.734496 63.635065
-1.120584 -10.004347 63.419302
-0.77373 -10.281822 64.466434
1.052958 -11.289181 73.761803
1.062618 -11.32481 74.951713
0.953622 -12.995376 72.873993
0.935583 -11.235686 72.539879
1.052958 -11.289181 73.761803
-4.174629 -52.228989 70.601246
-4.404165 -52.087834 69.222954
-4.386016 -51.027455 69.886013
-1.118695 -25.593573 88.355209
-1.727631 -25.70402 88.603832
-1.128645 -27.160595 88.441326
-1.118695 -25.593573 88.355209
-0.54192 -25.435721 88.026855
0.654486 -23.469323 85.992179
0.55582 -21.800815 85.701603
1.041832 -25.03418 85.520878
0.654486 -23.469323 85.992179
0.722494 -25.127784 86.283901
-4.023454 -52.341003 71.983974
-3.928572 -51.26838 72.64069
-3.795545 -52.440773 73.36036
-4.174629 -52.228989 70.601246
-4.023454 -52.341003 71.983974
-3.368892 -16.073638 58.181605
-3.5755 -17.823071 58.200915
-5.54447 -30.578149 57.392265
-5.375163 -31.090847 58.476753
-5.706145 -32.25549 57.704971
-5.356713 -28.861071 57.135006
-5.54447 -30.578149 57.392265
-6.032111 -32.867074 55.945555
-6.013297 -33.418461 56.976188
-6.169956 -34.542744 56.30126
-6.032111 -32.867074 55.945555
-6.022738 -32.27443 54.972395
3 217 216 55
3 2 59 57
3 2 61 59
3 0 64 62
3 1 67 65
3 218 69 219
3 221 220 70
3 5 74 72
3 6 76 75
3 6 78 76
3 6 80 78
3 8 84 82
3 8 86 84
3 3 89 87
3 9 92 90
3 9 94 92
3 9 96 94
3 10 99 97
3 10 101 99
3 11 104 102
3 11 106 104
3 4 109 107
3 12 112 110
3 12 114 112
3 12 116 114
3 222 118 223
3 225 224 118
3 7 226 227
3 13 228 230
3 230 229 121
3 228 229 230
3 232 231 56
3 233 123 234
3 235 124 236
3 237 125 238
3 239 238 124
3 237 238 239
3 240 127 241
3 242 241 125
3 240 241 242
3 243 128 244
3 246 245 128
3 17 247 249
3 247 129 248
3 247 248 249
3 17 130 129
3 18 133 131
3 20 134 58
3 20 135 134
3 20 137 135
3 22 138 60
3 22 139 138
3 250 140 251
3 24 141 63
3 24 142 141
3 252 144 253
3 254 145 255
3 256 146 257
3 258 257 145
3 256 257 258
3 260 259 146
3 261 148 262
3 264 263 148
3 27 265 267
3 267 266 149
3 265 266 267
3 269 268 66
3 29 270 271
3 29 272 274
3 272 150 273
3 272 273 274
3 29 151 150
3 30 152 68
3 30 153 152
3 31 156 154
3 33 157 71
3 33 158 157
3 34 161 159
3 36 162 73
3 36 275 277
3 277 276 162
3 275 276 277
3 278 163 279
3 14 280 282
3 282 281 122
3 280 281 282
3 37 164 77
3 37 165 164
3 37 166 165
3 38 167 79
3 38 168 167
3 15 169 126
3 283 170 284
3 285 284 81
3 283 284 285
3 287 286 170
3 39 288 289
3 39 290 292
3 290 171 291
3 290 291 292
3 16 293 295
3 293 172 294
3 293 294 295
3 40 173 83
3 40 174 173
3 40 175 174
3 41 176 85
3 41 177 176
3 28 296 298
3 296 178 297
3 296 297 298
3 42 179 88
3 42 180 179
3 19 181 132
3 43 182 91
3 43 183 182
3 43 184 183
3 44 185 93
3 44 186 185
3 44 187 186
3 45 188 95
3 45 189 188
3 21 190 136
3 46 191 98
3 46 192 191
3 46 193 192
3 47 194 100
3 47 195 194
3 23 299 300
3 48 301 303
3 303 302 103
3 301 302 303
3 48 304 305
3 48 306 308
3 306 196 307
3 306 307 308
3 49 197 105
3 49 198 197
3 32 199 155
3 50 200 108
3 50 201 200
3 25 202 143
3 51 203 111
3 51 204 203
3 51 205 204
3 52 206 113
3 52 207 206
3 52 208 207
3 53 209 115
3 53 210 209
3 26 211 147
3 54 212 117
3 54 213 212
3 54 214 213
3 309 215 310
3 311 310 119
3 309 310 311
3 313 312 215
3 35 314 316
3 316 315 160
3 314 315 316
3 318 317 120
3 55 56 13
3 319 56 320
3 321 320 55
3 319 320 321
3 323 322 56
3 324 17 325
3 57 58 18
3 59 58 57
3 59 20 58
3 59 60 20
3 61 60 59
3 61 22 60
3 62 326 328
3 326 63 327
3 326 327 328
3 64 63 62
3 64 24 63
3 65 66 27
3 67 66 65
3 67 329 331
3 331 330 66
3 329 330 331
3 332 29 333
3 334 68 335
3 336 335 29
3 334 335 336
3 69 337 339
3 337 68 338
3 337 338 339
3 69 30 68
3 70 71 31
3 340 71 341
3 342 341 70
3 340 341 342
3 343 33 344
3 345 344 71
3 343 344 345
3 72 73 34
3 74 73 72
3 74 36 73
3 75 346 348
3 348 347 14
3 346 347 348
3 76 349 351
3 351 350 75
3 349 350 351
3 76 352 353
3 76 354 356
3 354 77 355
3 354 355 356
3 78 77 76
3 78 37 77
3 78 79 37
3 80 79 78
3 80 38 79
3 357 81 358
3 359 358 15
3 357 358 359
3 360 81 361
3 363 362 81
3 364 39 365
3 82 83 16
3 84 83 82
3 84 40 83
3 84 85 40
3 86 85 84
3 86 41 85
3 87 88 28
3 89 88 87
3 89 42 88
3 90 91 19
3 92 91 90
3 92 43 91
3 92 93 43
3 94 93 92
3 94 44 93
3 94 95 44
3 96 95 94
3 96 45 95
3 97 98 21
3 99 98 97
3 99 46 98
3 99 100 46
3 101 100 99
3 101 47 100
3 102 103 23
3 104 103 102
3 104 48 103
3 104 105 48
3 106 105 104
3 106 49 105
3 107 108 32
3 109 108 107
3 109 50 108
3 110 111 25
3 112 111 110
3 112 51 111
3 112 113 51
3 114 113 112
3 114 52 113
3 114 115 52
3 116 115 114
3 116 53 115
3 366 117 367
3 368 367 26
3 366 367 368
3 118 369 371
3 369 117 370
3 369 370 371
3 118 54 117
3 118 119 54
3 372 119 373
3 374 373 118
3 372 373 374
3 376 375 119
3 377 120 378
3 379 378 35
3 377 378 379
3 380 120 381
3 383 382 120
3 121 384 386
3 386 385 5
3 384 385 386
3 388 387 121
3 56 389 391
3 391 390 13
3 389 390 391
3 393 392 56
3 394 122 395
3 123 396 398
3 396 122 397
3 396 397 398
3 123 14 122
3 399 123 400
3 124 401 403
3 401 123 402
3 401 402 403
3 124 14 123
3 124 75 14
3 125 75 124
3 125 6 75
3 125 126 6
3 127 126 125
3 127 15 126
3 404 127 405
3 128 406 408
3 406 127 407
3 406 407 408
3 128 15 127
3 128 409 411
3 411 410 15
3 409 410 411
3 413 412 128
3 414 16 415
3 129 416 417
3 129 418 420
3 418 16 419
3 418 419 420
3 129 82 16
3 130 82 129
3 130 8 82
3 131 132 3
3 133 132 131
3 133 19 132
3 58 133 18
3 134 133 58
3 134 19 133
3 134 90 19
3 135 90 134
3 135 9 90
3 135 136 9
3 137 136 135
3 137 21 136
3 60 137 20
3 138 137 60
3 138 21 137
3 138 97 21
3 139 97 138
3 139 10 97
3 140 421 422
3 140 423 425
3 423 23 424
3 423 424 425
3 63 426 428
3 426 140 427
3 426 427 428
3 141 140 63
3 141 23 140
3 141 102 23
3 142 102 141
3 142 11 102
3 429 143 430
3 431 430 4
3 429 430 431
3 144 432 434
3 432 143 433
3 432 433 434
3 144 25 143
3 435 144 436
3 145 437 439
3 437 144 438
3 437 438 439
3 145 25 144
3 145 110 25
3 146 110 145
3 146 12 110
3 146 147 12
3 440 147 441
3 442 441 146
3 440 441 442
3 443 26 444
3 445 444 147
3 443 444 445
3 148 446 447
3 148 448 450
3 448 26 449
3 448 449 450
3 148 451 453
3 453 452 26
3 451 452 453
3 455 454 148
3 149 456 458
3 458 457 7
3 456 457 458
3 460 459 149
3 66 461 463
3 463 462 27
3 461 462 463
3 465 464 66
3 466 28 467
3 468 28 469
3 470 87 471
3 472 471 28
3 470 471 472
3 473 87 474
3 475 3 476
3 477 476 87
3 475 476 477
3 150 478 479
3 150 480 482
3 480 3 481
3 480 481 482
3 150 131 3
3 151 131 150
3 151 18 131
3 68 151 29
3 152 151 68
3 152 18 151
3 152 57 18
3 153 57 152
3 153 2 57
3 154 155 0
3 156 155 154
3 156 32 155
3 71 156 31
3 157 156 71
3 157 32 156
3 157 107 32
3 158 107 157
3 158 4 107
3 483 33 484
3 485 33 486
3 487 158 488
3 489 488 33
3 487 488 489
3 490 158 491
3 492 4 493
3 494 493 158
3 492 493 494
3 496 495 4
3 159 160 1
3 161 160 159
3 161 35 160
3 73 161 34
3 162 161 73
3 162 35 161
3 162 497 499
3 499 498 35
3 497 498 499
3 501 500 162
3 502 74 503
3 504 503 5
3 502 503 504
3 505 74 506
3 507 36 508
3 509 508 74
3 507 508 509
3 510 36 511
3 513 512 36
3 514 62 515
3 163 516 518
3 516 62 517
3 516 517 518
3 163 0 62
3 122 519 520
3 522 521 122
3 524 523 14
3 77 525 526
3 164 527 529
3 529 528 77
3 527 528 529
3 164 530 531
3 164 532 534
3 532 163 533
3 532 533 534
3 165 163 164
3 165 0 163
3 165 154 0
3 166 154 165
3 166 31 154
3 79 166 37
3 167 166 79
3 167 31 166
3 167 70 31
3 168 70 167
3 168 535 537
3 537 536 70
3 535 536 537
3 126 80 6
3 169 80 126
3 169 38 80
3 81 169 15
3 170 169 81
3 170 38 169
3 170 168 38
3 538 168 539
3 540 539 170
3 538 539 540
3 542 541 168
3 171 543 544
3 171 545 547
3 545 7 546
3 545 546 547
3 172 548 549
3 172 550 552
3 550 39 551
3 550 551 552
3 83 172 16
3 173 172 83
3 173 39 172
3 173 171 39
3 174 171 173
3 174 7 171
3 174 149 7
3 175 149 174
3 175 27 149
3 85 175 40
3 176 175 85
3 176 27 175
3 176 65 27
3 177 65 176
3 177 1 65
3 178 553 554
3 178 555 557
3 555 17 556
3 555 556 557
3 88 178 28
3 179 178 88
3 179 17 178
3 179 130 17
3 180 130 179
3 180 8 130
3 132 89 3
3 181 89 132
3 181 42 89
3 91 181 19
3 182 181 91
3 182 42 181
3 182 180 42
3 183 180 182
3 183 8 180
3 183 86 8
3 184 86 183
3 184 41 86
3 93 184 43
3 185 184 93
3 185 41 184
3 185 177 41
3 186 177 185
3 186 1 177
3 186 159 1
3 187 159 186
3 187 34 159
3 95 187 44
3 188 187 95
3 188 34 187
3 188 72 34
3 189 72 188
3 189 5 72
3 136 96 9
3 190 96 136
3 190 45 96
3 98 190 21
3 191 190 98
3 191 45 190
3 191 189 45
3 192 189 191
3 192 5 189
3 192 121 5
3 193 121 192
3 193 13 121
3 100 193 46
3 194 193 100
3 194 13 193
3 194 55 13
3 195 55 194
3 195 558 560
3 560 559 55
3 558 559 560
3 103 561 563
3 563 562 23
3 561 562 563
3 565 564 103
3 566 69 567
3 196 568 570
3 568 69 569
3 568 569 570
3 196 30 69
3 105 196 48
3 197 196 105
3 197 30 196
3 197 153 30
3 198 153 197
3 198 2 153
3 155 64 0
3 199 64 155
3 199 24 64
3 108 199 32
3 200 199 108
3 200 24 199
3 200 142 24
3 201 142 200
3 201 11 142
3 143 109 4
3 202 109 143
3 202 50 109
3 111 202 25
3 203 202 111
3 203 50 202
3 203 201 50
3 204 201 203
3 204 11 201
3 204 106 11
3 205 106 204
3 205 49 106
3 113 205 51
3 206 205 113
3 206 49 205
3 206 198 49
3 207 198 206
3 207 2 198
3 207 61 2
3 208 61 207
3 208 22 61
3 115 208 52
3 209 208 115
3 209 22 208
3 209 139 22
3 210 139 209
3 210 10 139
3 147 116 12
3 211 116 147
3 211 53 116
3 117 211 26
3 212 211 117
3 212 53 211
3 212 210 53
3 213 210 212
3 213 10 210
3 213 101 10
3 214 101 213
3 214 47 101
3 119 214 54
3 215 214 119
3 215 47 214
3 215 195 47
3 571 195 572
3 573 572 215
3 571 572 573
3 575 574 195
3 577 576 7
3 160 67 1
3 578 67 579
3 580 579 160
3 578 579 580
3 582 581 67
3 120 583 585
3 585 584 35
3 583 584 585
3 587 586 120
