ply
format ascii 1.0
element vertex 282
property float x
property float y
property float z
element face 254
property list uchar int vertex_index
end_header
-8.314447 42.529835 -32.877678
-15.135777 26.896774 -30.7178
-12.566252 56.237873 -31.080734
-7.822794 71.090042 -29.747959
-12.691938 42.033298 -32.146896
-15.638957 34.391907 -31.544178
-11.530058 34.588413 -31.715847
-5.899792 77.236404 -27.171719
-2.931692 71.44133 -30.638382
-4.828167 64.924362 -32.594799
-18.885017 27.212807 -30.97123
-7.723143 34.138752 -31.642345
-9.915268 49.851917 -32.723759
-10.126091 63.906078 -30.837967
-7.25 57.58749 -33.062069
-5.378384 50.346996 -33.891182
-15.920045 18.72686 -29.394154
-10.450159 42.37252 -32.556961
-11.96545 38.434944 -32.10778
-9.882551 38.553581 -32.292091
-15.22392 30.744602 -31.251774
-17.219223 30.724606 -31.242661
-16.997711 27.085049 -30.890198
-17.106842 23.287769 -30.384701
-12.402924 49.262905 -31.942829
-11.107119 53.153217 -32.070045
-6.796902 74.324417 -28.675041
-8.94379 67.593399 -30.443321
-5.992773 61.330074 -32.973892
-6.194239 54.086369 -33.668926
-14.324534 17.956581 -28.929661
-18.255863 15.392353 -29.410831
-16.379856 37.826366 -31.516914
-14.135559 38.173775 -31.847172
-13.550266 34.544235 -31.667477
-13.276266 30.684155 -31.17944
-5.172291 71.481781 -30.38409
-6.199167 68.148727 -31.305809
-3.795532 68.31366 -31.838612
-17.777544 34.181038 -31.341763
-6.29644 42.448254 -33.100639
-7.894028 38.472385 -32.403019
-6.010229 38.142883 -32.445911
-13.707611 45.39362 -31.804031
-11.289663 45.936611 -32.443413
-8.986446 46.317371 -32.995621
-11.340641 60.099949 -31.021084
-7.339878 64.586578 -31.850601
-8.557993 60.860836 -32.100204
-9.821453 57.032627 -32.144962
-8.565392 53.747334 -32.950989
-7.565754 50.23357 -33.38665
-6.812664 46.473736 -33.431335
-4.789267 46.352283 -33.729427
-9.585955 34.470051 -31.701603
-11.387587 30.494656 -31.045212
-13.314793 26.607376 -30.478474
-11.992697 21.664131 -29.314659
-13.66526 22.346867 -29.686333
-15.370673 22.875774 -30.055779
-17.53307 19.372307 -29.850235
-19.746387 16.173317 -29.952374
-13.178397 54.303551 -31.085584
-14.007612 55.753853 -30.519203
-11.836686 54.695545 -31.575389
-12.448831 52.761223 -31.58024
-13.178397 54.303551 -31.085584
-8.75967 72.397598 -28.862631
-8.246723 74.014785 -28.326172
-7.309848 72.707229 -29.2115
-9.312722 70.706199 -29.281954
-8.75967 72.397598 -28.862631
-8.383292 69.341721 -30.09564
-9.87322 68.957878 -29.629635
-9.312722 70.706199 -29.281954
-13.413749 40.103537 -31.997034
-14.582142 39.873262 -31.756325
-13.860332 41.803024 -31.906187
-3.612862 72.983162 -29.831736
-2.597798 72.850082 -29.797848
-4.051991 71.461556 -30.511236
-4.733162 73.003388 -29.70459
-3.612862 72.983162 -29.831736
-19.06127 28.938975 -31.054859
-18.228372 30.694874 -31.190575
-18.05212 28.968707 -31.106945
-19.827244 27.261927 -30.955774
-19.06127 28.938975 -31.054859
-19.757126 25.558247 -30.883135
-19.827244 27.261927 -30.955774
-5.212928 40.113781 -32.831047
-6.153334 40.295569 -32.773275
-5.356033 42.266466 -33.158411
-14.358311 46.962067 -31.450985
-14.965479 45.071207 -31.461565
-15.616179 46.639654 -31.108519
-6.823837 78.374 -26.146492
-5.529582 78.511634 -26.194454
-11.624259 63.427841 -30.246231
-11.03972 65.308218 -30.092041
-10.733366 62.003014 -30.929525
-12.231534 61.524777 -30.337789
-11.624259 63.427841 -30.246231
-11.464137 28.333657 -30.624399
-10.474824 30.310954 -30.960302
-12.42774 26.390017 -30.34103
-12.35119 28.551016 -30.761843
-11.464137 28.333657 -30.624399
-12.369231 19.348793 -28.906105
-11.17353 21.230797 -29.145717
-20.166118 14.298513 -29.888478
-19.001125 15.782835 -29.681603
-19.420856 13.90803 -29.617706
-20.833796 14.76556 -30.204767
-20.166118 14.298513 -29.888478
-2.046261 71.190323 -30.547169
-2.597798 72.850082 -29.797848
-2.366063 69.743874 -31.305424
-2.046261 71.190323 -30.547169
-17.931669 25.352543 -30.765127
-18.875322 25.416422 -30.805643
-17.941364 27.148928 -30.930714
-17.986235 23.453903 -30.512379
-17.931669 25.352543 -30.765127
-17.052276 25.186409 -30.63745
-18.134205 21.605963 -30.322122
-17.986235 23.453903 -30.512379
-13.096733 50.816067 -31.516632
-13.705967 48.89671 -31.520384
-11.755022 51.208061 -32.006437
-13.096733 50.816067 -31.516632
-12.448831 52.761223 -31.58024
-7.731981 75.55516 -27.717594
-7.283425 77.011154 -26.965933
-6.348347 75.78041 -27.92338
-7.731981 75.55516 -27.717594
-8.246723 74.014785 -28.326172
-10.448569 67.151879 -29.894718
-9.87322 68.957878 -29.629635
-9.534941 65.749739 -30.640644
-11.03972 65.308218 -30.092041
-10.448569 67.151879 -29.894718
-4.846928 61.389126 -33.269688
-5.41047 63.127218 -32.784346
-4.264625 63.18627 -33.080141
-5.443485 59.584358 -33.36689
-4.846928 61.389126 -33.269688
-6.072098 57.713066 -33.410978
-6.621386 59.458782 -33.017981
-5.443485 59.584358 -33.36689
-5.544218 55.962505 -33.714407
-6.722119 55.836929 -33.365498
-6.072098 57.713066 -33.410978
-5.11233 54.099998 -33.921257
-5.544218 55.962505 -33.714407
-4.704403 52.230312 -34.032385
-5.786312 52.216682 -33.780054
-5.11233 54.099998 -33.921257
-4.382224 50.246227 -34.047303
-4.704403 52.230312 -34.032385
-8.642602 32.133001 -31.258869
-7.763754 31.840029 -31.168621
-14.804475 15.732326 -28.623804
-13.535149 17.495018 -28.713606
-15.547071 16.234234 -28.89106
-14.804475 15.732326 -28.623804
-16.344826 16.619373 -29.123306
-15.12229 18.341721 -29.161907
-15.547071 16.234234 -28.89106
-17.512736 14.95212 -29.131645
-17.087954 17.059607 -29.402493
-16.344826 16.619373 -29.123306
-18.751318 13.401984 -29.288708
-17.512736 14.95212 -29.131645
-19.420856 13.90803 -29.617706
-18.751318 13.401984 -29.288708
-15.704291 39.699558 -31.591196
-16.910001 39.436029 -31.328428
-16.234437 41.309221 -31.40271
-15.257708 38.00007 -31.682043
-15.704291 39.699558 -31.591196
-14.582142 39.873262 -31.756325
-13.428818 57.67667 -30.456153
-14.007612 55.753853 -30.519203
-4.745607 77.23407 -27.185555
-5.529582 78.511634 -26.194454
-5.096913 75.880699 -28.098404
-4.745607 77.23407 -27.185555
-5.545467 74.424706 -28.850065
-6.348347 75.78041 -27.92338
-5.096913 75.880699 -28.098404
-5.984597 72.903099 -29.529566
-5.545467 74.424706 -28.850065
-4.733162 73.003388 -29.70459
-2.797983 68.180038 -31.905539
-3.363612 69.877495 -31.238497
-2.366063 69.743874 -31.305424
-3.226126 66.590508 -32.41646
-2.797983 68.180038 -31.905539
-3.742443 64.895859 -32.794553
-4.31185 66.619011 -32.216706
-3.226126 66.590508 -32.41646
-4.264625 63.18627 -33.080141
-3.742443 64.895859 -32.794553
-17.525257 37.633274 -31.322874
-16.910001 39.436029 -31.328428
-18.224101 35.81061 -31.235298
-17.525257 37.633274 -31.322874
-17.0787 36.003702 -31.429339
-18.854119 34.065653 -31.199542
-18.224101 35.81061 -31.235298
-18.507533 32.42309 -31.240126
-17.498383 32.452822 -31.292212
-18.228372 30.694874 -31.190575
-18.854119 34.065653 -31.199542
-18.507533 32.42309 -31.240126
-19.757126 25.558247 -30.883135
-18.875322 25.416422 -30.805643
-5.130211 37.838513 -32.430194
-5.212928 40.113781 -32.831047
-5.981089 35.849953 -31.997557
-5.130211 37.838513 -32.430194
-6.837546 33.847887 -31.595773
-6.866686 36.140817 -32.044128
-5.981089 35.849953 -31.997557
-7.763754 31.840029 -31.168621
-6.837546 33.847887 -31.595773
-14.368168 43.483185 -31.734755
-15.626037 43.160773 -31.392288
-14.965479 45.071207 -31.461565
-13.199775 43.713459 -31.975463
-13.860332 41.803024 -31.906187
-14.368168 43.483185 -31.734755
-13.055267 47.328263 -31.87343
-14.358311 46.962067 -31.450985
-13.705967 48.89671 -31.520384
-6.823837 78.374 -26.146492
-7.283425 77.011154 -26.965933
-12.816012 59.607708 -30.426328
-12.231534 61.524777 -30.337789
-11.953447 58.168911 -31.050909
-13.428818 57.67667 -30.456153
-12.816012 59.607708 -30.426328
-4.602447 44.218481 -33.472805
-5.356033 42.266466 -33.158411
-5.542853 44.400268 -33.415033
-4.087665 48.24887 -33.966425
-5.083825 48.349639 -33.810305
-4.382224 50.246227 -34.047303
-3.867996 46.135349 -33.796885
-4.087665 48.24887 -33.966425
-4.602447 44.218481 -33.472805
-3.867996 46.135349 -33.796885
-9.574008 32.298651 -31.288498
-8.654549 34.304401 -31.671974
-8.642602 32.133001 -31.258869
-10.486771 32.482354 -31.373407
-9.574008 32.298651 -31.288498
-10.474824 30.310954 -30.960302
-10.904243 23.608225 -29.620891
-11.17353 21.230797 -29.145717
-11.766692 23.918394 -29.759123
-10.904243 23.608225 -29.620891
-13.158615 19.810356 -29.12216
-12.369231 19.348793 -28.906105
-13.535149 17.495018 -28.713606
-12.602974 24.259762 -29.94496
-11.766692 23.918394 -29.759123
-12.828978 22.005499 -29.500496
-13.490026 24.477121 -30.082403
-12.42774 26.390017 -30.34103
-12.602974 24.259762 -29.94496
-18.347319 19.648232 -30.05489
-18.134205 21.605963 -30.322122
-17.319956 21.330038 -30.117468
-19.453978 18.048737 -30.105959
-18.347319 19.648232 -30.05489
-18.639728 17.772812 -29.901305
-20.493623 16.526097 -30.197193
-19.453978 18.048737 -30.105959
-20.493623 16.526097 -30.197193
-20.833796 14.76556 -30.204767
3 0 19 17
3 1 22 20
3 1 23 22
3 2 62 63
3 2 64 66
3 64 25 65
3 64 65 66
3 3 67 69
3 69 68 26
3 67 68 69
3 3 70 71
3 3 72 74
3 72 27 73
3 72 73 74
3 4 75 77
3 75 33 76
3 75 76 77
3 6 34 18
3 6 35 34
3 8 78 79
3 8 80 82
3 80 36 81
3 80 81 82
3 8 38 36
3 5 39 32
3 10 83 85
3 85 84 21
3 83 84 85
3 10 86 87
3 10 88 89
3 90 42 91
3 92 91 40
3 90 91 92
3 93 43 94
3 93 94 95
3 12 44 24
3 12 45 44
3 7 96 97
3 13 98 99
3 13 100 102
3 100 46 101
3 100 101 102
3 9 47 37
3 14 48 28
3 14 49 48
3 14 50 49
3 15 51 29
3 15 52 51
3 15 53 52
3 11 54 41
3 103 55 104
3 105 56 106
3 107 106 55
3 105 106 107
3 108 57 109
3 16 58 30
3 16 59 58
3 16 60 59
3 110 61 111
3 112 111 31
3 110 111 112
3 114 113 61
3 17 18 4
3 19 18 17
3 19 6 18
3 115 8 116
3 118 117 8
3 20 21 5
3 22 21 20
3 22 10 21
3 22 119 121
3 121 120 10
3 119 120 121
3 23 122 124
3 124 123 22
3 122 123 124
3 23 125 126
3 127 24 128
3 25 129 131
3 129 24 130
3 129 130 131
3 25 12 24
3 26 132 134
3 134 133 7
3 132 133 134
3 136 135 26
3 27 137 138
3 27 139 141
3 139 13 140
3 139 140 141
3 142 28 143
3 144 143 9
3 142 143 144
3 145 28 146
3 147 14 148
3 149 148 28
3 147 148 149
3 150 29 151
3 152 151 14
3 150 151 152
3 153 29 154
3 155 15 156
3 157 156 29
3 155 156 157
3 159 158 15
3 161 160 11
3 162 30 163
3 164 30 165
3 166 16 167
3 168 167 30
3 166 167 168
3 169 31 170
3 171 170 16
3 169 170 171
3 172 31 173
3 175 174 31
3 176 32 177
3 176 177 178
3 33 179 181
3 179 32 180
3 179 180 181
3 33 5 32
3 18 33 4
3 34 33 18
3 34 5 33
3 34 20 5
3 35 20 34
3 35 1 20
3 182 2 183
3 184 7 185
3 186 7 187
3 188 26 189
3 190 189 7
3 188 189 190
3 36 191 193
3 191 26 192
3 191 192 193
3 36 3 26
3 36 37 3
3 38 37 36
3 38 9 37
3 194 38 195
3 196 195 8
3 194 195 196
3 197 38 198
3 199 9 200
3 201 200 38
3 199 200 201
3 203 202 9
3 32 204 205
3 39 206 208
3 208 207 32
3 206 207 208
3 39 209 210
3 21 39 5
3 211 39 212
3 213 212 21
3 211 212 213
3 215 214 39
3 217 216 10
3 40 41 0
3 42 41 40
3 42 11 41
3 218 42 219
3 220 42 221
3 222 11 223
3 224 223 42
3 222 223 224
3 226 225 11
3 43 227 229
3 227 228 229
3 43 230 232
3 230 4 231
3 230 231 232
3 24 233 235
3 233 43 234
3 233 234 235
3 44 43 24
3 44 4 43
3 44 17 4
3 45 17 44
3 45 0 17
3 237 236 7
3 46 238 239
3 46 240 242
3 240 2 241
3 240 241 242
3 37 27 3
3 47 27 37
3 47 13 27
3 28 47 9
3 48 47 28
3 48 13 47
3 48 46 13
3 49 46 48
3 49 2 46
3 49 25 2
3 50 25 49
3 50 12 25
3 29 50 14
3 51 50 29
3 51 12 50
3 51 45 12
3 52 45 51
3 52 0 45
3 52 40 0
3 53 40 52
3 53 243 245
3 245 244 40
3 243 244 245
3 246 53 247
3 248 247 15
3 246 247 248
3 249 53 250
3 252 251 53
3 41 19 0
3 54 19 41
3 54 6 19
3 253 54 254
3 255 254 11
3 253 254 255
3 55 256 258
3 256 54 257
3 256 257 258
3 55 6 54
3 55 35 6
3 56 35 55
3 56 1 35
3 57 259 260
3 57 261 262
3 30 263 265
3 263 57 264
3 263 264 265
3 58 57 30
3 58 266 268
3 268 267 57
3 266 267 268
3 58 269 271
3 269 56 270
3 269 270 271
3 59 56 58
3 59 1 56
3 59 23 1
3 60 23 59
3 60 272 274
3 274 273 23
3 272 273 274
3 31 60 16
3 61 60 31
3 61 275 277
3 277 276 60
3 275 276 277
3 61 278 279
3 281 280 61
