ply
format ascii 1.0
element vertex 706
property float x
property float y
property float z
element face 761
property list uchar int vertex_index
end_header
66.567352 -42.63744 30.611313
38.294834 -47.216866 51.11499
66.253845 -26.89855 33.759777
64.694145 -38.424461 48.336937
63.288826 -29.135048 46.9468
58.153072 -35.688576 50.810493
59.377373 -38.0303 27.063494
64.295364 -35.81469 35.232738
66.557228 -23.323652 39.77034
66.633461 -32.428722 42.230412
67.418236 -41.001617 40.831326
65.543945 -47.186951 43.843513
68.462013 -47.725018 33.028332
63.238335 -40.404182 29.018539
62.007118 -40.429283 24.030262
66.007637 -42.470764 25.234264
68.628181 -44.670998 26.266201
41.009239 -43.448776 51.057022
44.684074 -44.312164 49.278549
66.253708 -23.637493 29.385178
63.334366 -24.886021 26.705526
63.871864 -28.430792 30.784777
62.136147 -33.013592 31.685635
64.91761 -31.473991 34.968727
63.961235 -33.785286 48.053635
65.550179 -30.738344 44.898945
66.119202 -35.258419 45.749359
66.906845 -36.825508 42.420204
66.661713 -39.7187 45.150414
65.408424 -50.937737 39.73238
67.288925 -47.655273 38.712418
66.899506 -50.802261 34.203537
68.012352 -50.15097 28.486351
65.62326 -53.37392 29.920244
67.792969 -22.135548 32.454285
62.957024 -24.482977 46.006824
60.605087 -27.56864 48.737709
60.959946 -32.329895 49.447952
61.687065 -37.118721 50.115494
55.80867 -35.256752 24.923059
57.519402 -38.257935 22.665377
51.291225 -37.49733 51.088821
47.888275 -40.857765 50.216095
58.885498 -34.304798 28.34621
61.797977 -37.153259 31.255156
64.861221 -39.655128 33.811783
67.145844 -25.163502 36.800621
65.107826 -26.168404 43.607948
66.513123 -27.942936 41.02951
66.513428 -29.747549 38.127514
66.137459 -34.175388 38.943581
66.318848 -38.376892 38.336872
67.213112 -42.071178 35.866119
55.04586 -39.065025 50.9412
58.921211 -40.578461 50.849731
62.464859 -41.86441 49.718254
65.26059 -42.95974 46.944298
67.107109 -43.927689 42.664188
68.077927 -44.6866 37.457523
68.461357 -45.012093 31.885984
69.266617 -47.220284 27.287159
68.846275 -48.88987 22.920496
65.029541 -41.520329 29.86235
64.520782 -41.586086 27.276077
66.250504 -42.65593 27.932308
67.540665 -43.535835 25.764463
67.62439 -43.762642 28.523777
39.559013 -45.32114 50.99292
41.301807 -45.622452 49.787338
66.208595 -25.328905 31.55904
65.029381 -26.05587 30.097158
65.228607 -27.691986 32.2547
64.342415 -30.008423 32.883476
65.532028 -29.209328 34.424419
64.337852 -36.108231 48.366089
65.188087 -34.511684 47.035164
65.523041 -36.797596 47.180035
66.398087 -37.504284 45.678871
65.828697 -39.068138 46.912815
64.320404 -52.651073 40.17709
65.117126 -52.608929 37.57122
66.210106 -50.928032 37.025192
65.798538 -52.446804 34.820141
66.387009 -52.157909 32.002335
60.614845 -25.231842 48.581718
57.917015 -33.243496 50.651093
59.607704 -33.99799 50.284218
61.296928 -34.72448 49.852295
59.947559 -36.423981 50.551392
57.518105 -36.707588 25.99761
56.340797 -36.959522 24.013464
58.359524 -38.24017 24.888842
46.723885 -44.972473 48.939758
57.668671 -32.695126 26.859943
59.45248 -32.101284 28.341211
63.185623 -34.460091 33.498581
61.753159 -35.164482 31.681393
63.079109 -36.532089 33.271896
63.360184 -38.433365 32.591965
64.415138 -37.821999 34.757984
67.216515 -21.885765 37.746384
67.50309 -22.801752 36.193966
67.014854 -24.247421 38.300106
63.069893 -26.805841 46.416168
64.078835 -25.311533 44.811859
64.256989 -27.626049 45.359875
66.277885 -31.570955 43.649818
66.09552 -29.320787 43.029243
66.556938 -30.198 41.691559
66.715904 -28.847176 39.618439
66.623535 -31.088951 40.230576
66.27655 -31.979824 38.660091
66.583206 -33.303001 40.653381
67.130577 -38.957787 41.869316
66.762451 -37.617584 40.450821
67.027351 -39.662712 39.665604
66.685371 -40.307762 37.330692
67.406731 -41.581264 38.402138
51.477592 -39.928246 50.557457
53.128876 -38.267075 50.936188
53.453568 -40.732922 50.609467
65.444351 -45.124802 45.57502
66.304138 -43.460434 44.960857
66.447281 -45.521988 43.333298
67.934532 -47.750687 35.901333
67.868835 -46.125244 38.119354
68.340134 -46.287766 35.313377
68.319954 -44.919678 34.691483
68.696579 -46.320518 32.460968
68.974548 -46.196892 29.603247
68.897636 -47.554882 30.145912
67.3442 -51.16555 26.385822
68.460678 -49.600471 25.674812
56.375801 -34.921726 51.022507
61.315979 -39.252289 28.080395
60.459984 -39.414787 25.743011
62.550552 -40.517994 26.544977
64.125145 -41.446915 24.658085
67.521362 -43.09848 23.009338
68.729019 -44.204559 23.479202
69.426788 -45.40509 23.957592
44.358719 -42.00116 50.301628
42.767616 -43.792946 49.97287
64.945168 -24.289272 27.985271
63.535423 -26.726105 28.712784
61.214577 -31.453606 29.836395
62.874161 -30.756296 31.35113
63.63237 -32.27182 33.336155
64.4814 -33.684368 35.275169
63.598045 -31.461334 47.532639
64.521935 -29.929123 45.986389
64.844276 -32.222351 46.590454
65.831711 -33.001251 45.447258
66.481079 -33.807812 44.084824
66.745697 -34.640778 42.513168
66.698662 -36.032074 44.200829
66.932777 -38.22908 43.892136
67.184837 -40.370056 43.101704
62.326378 -54.320686 42.821457
63.382118 -52.576973 42.547478
64.472374 -50.840462 42.236649
65.540413 -49.128246 41.857506
66.499725 -47.461445 41.389122
66.432076 -49.265511 39.247372
67.187332 -49.30228 36.469528
67.827431 -49.222767 33.606277
68.37233 -49.008438 30.721064
67.495384 -50.547775 31.339905
66.898918 -51.733585 29.177679
66.018326 -52.789726 27.159889
67.211304 -22.920229 30.884274
67.023491 -24.540127 33.078392
61.816944 -23.694132 47.236778
61.831902 -26.00432 47.470078
61.952911 -28.348249 47.839104
59.27034 -29.17519 49.776901
60.719551 -29.941307 49.041016
62.190289 -30.704201 48.323761
62.520531 -33.063374 48.835526
62.902626 -35.423325 49.24144
63.293785 -37.779999 49.398682
59.769718 -39.379501 23.358936
59.263672 -39.118607 20.940622
51.343433 -35.114586 51.762169
49.567734 -36.811073 51.514862
49.578461 -39.171558 50.699585
49.843597 -41.590797 50.042221
46.247959 -42.567833 49.716431
48.251549 -43.267776 49.47403
57.294151 -34.833618 26.649761
58.84639 -36.306213 27.933971
60.524345 -33.693634 30.022648
60.27943 -35.784821 29.827065
60.540482 -37.659508 29.185656
62.301582 -38.917519 30.364616
64.029175 -40.109135 31.443066
65.605309 -41.268764 32.408051
38.016941 -45.202988 52.573166
36.826035 -47.123367 52.807236
68.00161 -21.292049 34.063362
67.451828 -23.693375 34.63134
66.898575 -26.0525 35.281616
63.993866 -22.997719 44.3829
64.99659 -23.853304 43.065361
65.864601 -24.74272 41.733063
65.299164 -28.463554 44.24485
65.950943 -27.04731 42.355965
66.509911 -25.652618 40.362762
66.847183 -26.56942 38.941978
66.811127 -27.47805 37.470688
66.370033 -28.362705 35.959343
65.90152 -30.628374 36.571465
65.541359 -32.851673 37.001205
65.347511 -35.021263 37.12878
66.620056 -35.486034 40.760788
66.13974 -36.318626 38.863266
65.374382 -37.107712 36.853848
65.654709 -39.067627 36.11515
66.18338 -40.854805 34.902863
66.909363 -42.434044 33.260979
52.998951 -35.825523 51.314453
54.770821 -36.59864 51.10807
56.622467 -37.382118 51.023087
58.502113 -38.13784 50.918449
60.346603 -38.845776 50.652306
62.087608 -39.503662 50.103439
63.65934 -40.122261 49.188728
63.975243 -42.429924 48.543976
65.006577 -40.716835 47.874054
66.092789 -41.299271 46.173016
66.903015 -41.870934 44.135262
67.445335 -42.41954 41.830883
67.247917 -45.861477 40.818634
67.687706 -44.345234 40.136784
67.749092 -42.920345 39.334488
67.860657 -43.339684 36.712219
67.837036 -43.641197 34.015129
67.739113 -43.791267 31.278351
68.549881 -44.936024 29.071657
69.208435 -45.896118 26.764694
69.590721 -46.707703 24.469311
68.839859 -48.641777 27.856564
69.244919 -48.10968 25.036854
39.141481 -47.350302 50.450203
39.773571 -46.402439 50.389168
38.926924 -46.269003 51.053955
64.875476 -53.373373 36.511261
64.55981 -53.467055 37.841003
65.216183 -53.29231 35.135722
65.457832 -52.527867 36.19568
64.875476 -53.373373 36.511261
65.482551 -53.134354 33.759767
65.216183 -53.29231 35.135722
59.956247 -30.933524 28.169875
59.010385 -31.237668 27.514063
66.886871 -22.604709 38.758362
66.934533 -21.428189 38.511143
66.604889 -22.147132 39.523121
52.663607 -41.561945 50.353058
52.46558 -40.330584 50.583462
51.675619 -41.159607 50.327053
64.973587 -47.014332 44.913128
65.017585 -48.043819 44.024906
65.494148 -46.155877 44.709266
64.92379 -45.983258 45.778881
64.973587 -47.014332 44.913128
67.535488 -50.807018 25.017049
66.851024 -51.615972 25.415886
55.525081 -34.536829 51.172447
56.333833 -33.700449 51.04977
65.938622 -42.269577 23.8806
64.997376 -41.757652 23.59251
65.066391 -41.958839 24.946174
66.764499 -42.784622 24.121801
66.695484 -42.583435 22.768137
65.938622 -42.269577 23.8806
41.888427 -43.620861 50.514946
42.691124 -42.700599 50.623802
41.811936 -42.528514 51.165878
42.2618 -45.85929 49.378898
41.592458 -46.769993 49.31448
65.599438 -23.963383 28.685225
65.663338 -23.052414 27.624912
66.317608 -22.726525 28.324866
63.063457 -28.775184 30.074296
62.895237 -27.92284 29.0383
63.703643 -27.578449 29.74878
63.373013 -29.593544 31.067954
62.564606 -29.937936 30.357473
63.063457 -28.775184 30.074296
63.312923 -53.481466 41.572174
62.854248 -53.44883 42.684467
62.785054 -54.353323 41.709164
67.502137 -22.527888 31.66928
67.69313 -21.697422 30.585757
67.983963 -21.305082 31.370763
61.260506 -23.329074 47.888729
61.835863 -22.57399 47.161367
58.549867 -29.995643 50.169292
58.586254 -28.799992 50.199913
60.839748 -31.135601 49.244484
60.04522 -30.759557 49.513928
60.165417 -31.953851 49.717396
55.140766 -35.398587 24.039136
55.051645 -34.454819 24.403383
56.432644 -37.641499 22.322918
55.843342 -36.992293 22.996961
56.930099 -37.608728 23.33942
57.197215 -38.153525 21.534496
56.432644 -37.641499 22.322918
60.343612 -39.338673 19.937591
60.446667 -39.617561 21.21374
59.105352 -38.861687 19.72475
60.343612 -39.338673 19.937591
48.773724 -36.537799 51.90305
49.696005 -35.667107 52.02494
48.733368 -40.014662 50.45784
48.684708 -38.845056 50.921528
47.839615 -39.68816 50.679783
48.547871 -44.49842 49.178951
47.487717 -44.120125 49.206894
47.784039 -45.350769 48.911816
49.290989 -43.659574 49.481922
48.547871 -44.49842 49.178951
63.289887 -23.896127 25.749869
64.147141 -23.636191 26.327317
38.027189 -44.267729 53.456253
38.723942 -44.249724 52.549633
36.203587 -47.158065 53.806954
36.752542 -46.191586 53.643558
36.349941 -48.082399 53.019551
36.203587 -47.158065 53.806954
67.934055 -20.850138 34.871975
68.258972 -20.084231 33.826193
63.475445 -23.740348 45.194862
63.462158 -22.594569 45.048582
62.943737 -23.337198 45.860544
57.958244 -40.212004 50.905914
58.187021 -41.437878 50.79121
58.711662 -39.35815 50.88409
57.748695 -38.991693 50.940273
57.958244 -40.212004 50.905914
62.276234 -40.684036 49.910847
61.425647 -40.377237 50.28622
61.614273 -41.557612 50.093628
64.617916 -42.694832 47.744137
64.101086 -43.553961 48.001283
64.743759 -43.818869 47.201445
69.222187 -48.147828 22.596141
69.421509 -47.757733 23.65432
69.045597 -48.499775 23.978675
69.008328 -48.454716 21.573586
69.222187 -48.147828 22.596141
40.644968 -46.553095 49.786377
40.43041 -45.471796 50.390129
39.773571 -46.402439 50.389168
41.592458 -46.769993 49.31448
40.644968 -46.553095 49.786377
64.16145 -53.488126 39.143938
63.782066 -53.518516 40.38698
64.718765 -52.630001 38.874155
64.16145 -53.488126 39.143938
64.55981 -53.467055 37.841003
65.776787 -52.989906 32.350865
66.092773 -52.302357 33.411238
65.482551 -53.134354 33.759767
65.394913 -53.597911 31.309819
66.005134 -52.765914 30.961289
65.776787 -52.989906 32.350865
68.155952 -20.918701 32.189203
67.983963 -21.305082 31.370763
60.037165 -24.870945 49.192234
60.659456 -24.097929 48.561199
59.963337 -26.020505 49.150318
60.037165 -24.870945 49.192234
59.958458 -27.188904 49.228313
60.609966 -26.400241 48.659714
59.963337 -26.020505 49.150318
58.643952 -32.410652 50.318966
57.873205 -32.029797 50.606389
59.489296 -32.787899 50.135529
58.643952 -32.410652 50.318966
58.76236 -33.620743 50.467656
60.283825 -33.163943 49.866085
60.165417 -31.953851 49.717396
59.489296 -32.787899 50.135529
61.81839 -40.272899 22.75856
62.938041 -40.757763 23.024946
46.966114 -40.551593 50.465546
47.839615 -39.68816 50.679783
46.002305 -45.843357 48.728935
45.70398 -44.642319 49.109153
44.982399 -45.513203 48.898331
47.077642 -46.204729 48.654125
46.002305 -45.843357 48.728935
47.784039 -45.350769 48.911816
47.077642 -46.204729 48.654125
62.410111 -25.164067 26.131099
62.56453 -26.11824 27.062233
58.118481 -31.534589 26.773429
57.161253 -31.817963 26.138694
58.560575 -32.398205 27.600577
58.118481 -31.534589 26.773429
59.010385 -31.237668 27.514063
67.326443 -20.698031 37.513422
66.934533 -21.428189 38.511143
67.541508 -21.146997 36.713486
67.326443 -20.698031 37.513422
67.359803 -22.343758 36.970175
67.684796 -21.60499 35.937277
67.541508 -21.146997 36.713486
59.146394 -41.787056 50.67918
58.187021 -41.437878 50.79121
59.842449 -40.914637 50.659367
59.146394 -41.787056 50.67918
61.81604 -42.743299 49.823494
61.614273 -41.557612 50.093628
64.83564 -44.9014 46.516806
64.92379 -45.983258 45.778881
65.35247 -44.042271 46.259659
64.743759 -43.818869 47.201445
64.83564 -44.9014 46.516806
68.093727 -50.024479 24.661544
67.902439 -50.38301 26.030317
67.535488 -50.807018 25.017049
68.286526 -49.669178 23.284385
68.653477 -49.245171 24.297654
68.093727 -50.024479 24.661544
68.445736 -49.236123 21.946485
68.286526 -49.669178 23.284385
57.10444 -32.861334 50.864064
57.873205 -32.029797 50.606389
57.146408 -34.082611 50.8368
57.10444 -32.861334 50.864064
56.333833 -33.700449 51.04977
63.997055 -41.266579 23.338857
62.938041 -40.757763 23.024946
63.066131 -40.938099 24.344174
63.997055 -41.266579 23.338857
64.997376 -41.757652 23.59251
67.552394 -42.771114 21.638481
66.695484 -42.583435 22.768137
68.19659 -43.314917 21.863163
67.552394 -42.771114 21.638481
68.800419 -43.867956 22.098095
68.19659 -43.314917 21.863163
68.125191 -43.65152 23.24427
69.188846 -44.461578 22.333177
68.800419 -43.867956 22.098095
69.537731 -45.061844 22.572372
69.188846 -44.461578 22.333177
69.077903 -44.804825 23.718397
69.656211 -45.708271 22.828156
69.537731 -45.061844 22.572372
43.486676 -41.804706 50.788181
44.348173 -40.900932 50.948494
43.563167 -42.897053 50.137249
43.486676 -41.804706 50.788181
42.691124 -42.700599 50.623802
42.994705 -44.944536 49.471665
42.034712 -44.707699 49.880104
42.2618 -45.85929 49.378898
43.952934 -45.204146 49.124504
43.725845 -44.052555 49.625709
42.994705 -44.944536 49.471665
44.982399 -45.513203 48.898331
43.952934 -45.204146 49.124504
64.952541 -23.337817 26.967189
65.663338 -23.052414 27.624912
64.139767 -24.587646 27.345399
64.147141 -23.636191 26.327317
64.952541 -23.337817 26.967189
62.665058 -27.038283 28.065863
62.56453 -26.11824 27.062233
63.434894 -25.806063 27.709155
62.665058 -27.038283 28.065863
62.895237 -27.92284 29.0383
61.734814 -30.286591 29.600105
60.837295 -30.609685 28.917467
62.044369 -31.104951 30.593763
61.734814 -30.286591 29.600105
62.564606 -29.937936 30.357473
66.201706 -22.868263 40.490677
66.604889 -22.147132 39.523121
62.301262 -53.354099 43.707033
61.774349 -54.225126 43.762089
62.829132 -52.482242 43.570043
62.301262 -53.354099 43.707033
62.854248 -53.44883 42.684467
63.380543 -51.608742 43.495661
62.829132 -52.482242 43.570043
63.851261 -52.614023 41.362284
63.312923 -53.481466 41.572174
63.782066 -53.518516 40.38698
63.925671 -50.740487 43.340246
63.380543 -51.608742 43.495661
63.927246 -51.708718 42.392063
64.4818 -49.870575 43.221474
63.925671 -50.740487 43.340246
65.015819 -49.014467 43.031903
64.4818 -49.870575 43.221474
65.006394 -49.984354 42.047078
65.542179 -48.157598 42.85051
65.017585 -48.043819 44.024906
65.015819 -49.014467 43.031903
66.188087 -52.428061 25.80292
66.851024 -51.615972 25.415886
66.681263 -51.977638 26.772855
38.569637 -48.289746 50.549759
37.764824 -48.168346 51.274273
66.857876 -22.408966 29.053071
66.317608 -22.726525 28.324866
67.336674 -22.050334 29.802619
67.69313 -21.697422 30.585757
66.732506 -23.278861 30.134726
66.857876 -22.408966 29.053071
67.336674 -22.050334 29.802619
62.373697 -22.942776 46.475521
61.835863 -22.57399 47.161367
62.386984 -24.088555 46.621801
62.943737 -23.337198 45.860544
62.373697 -22.942776 46.475521
61.215895 -24.462987 47.909248
61.260506 -23.329074 47.888729
60.659456 -24.097929 48.561199
59.291084 -27.992179 49.74791
58.586254 -28.799992 50.199913
59.937714 -28.371915 49.257305
59.958458 -27.188904 49.228313
59.291084 -27.992179 49.74791
59.320614 -30.376499 49.88187
58.549867 -29.995643 50.169292
59.994946 -29.558248 49.408958
59.320614 -30.376499 49.88187
60.04522 -30.759557 49.513928
61.82736 -55.190804 42.960014
61.774349 -54.225126 43.762089
62.272407 -55.223913 41.917893
61.82736 -55.190804 42.960014
62.785054 -54.353323 41.709164
62.272407 -55.223913 41.917893
55.40683 -36.249972 23.584339
55.140766 -35.398587 24.039136
56.074734 -36.108137 24.468261
55.40683 -36.249972 23.584339
55.843342 -36.992293 22.996961
60.69969 -39.748008 22.422897
60.888418 -39.904392 23.694599
61.81839 -40.272899 22.75856
59.516695 -39.249054 22.149779
60.69969 -39.748008 22.422897
60.446667 -39.617561 21.21374
58.06935 -38.583861 20.672119
57.197215 -38.153525 21.534496
58.391537 -38.688271 21.802999
58.06935 -38.583861 20.672119
59.105352 -38.861687 19.72475
50.583855 -34.818863 52.148594
51.491472 -33.954745 52.196713
50.455584 -35.962829 51.638515
50.583855 -34.818863 52.148594
49.696005 -35.667107 52.02494
48.679344 -37.664814 51.329166
48.773724 -36.537799 51.90305
49.573098 -37.991315 51.107224
48.679344 -37.664814 51.329166
48.684708 -38.845056 50.921528
50.858621 -41.990882 50.069435
51.675619 -41.159607 50.327053
50.660595 -40.759522 50.299839
45.201336 -41.123291 50.508312
44.348173 -40.900932 50.948494
46.145956 -41.406627 50.215713
45.201336 -41.123291 50.508312
45.303339 -42.284497 50.009029
47.068117 -41.712799 49.966263
46.966114 -40.551593 50.465546
46.145956 -41.406627 50.215713
50.087013 -42.821085 49.766018
49.047573 -42.429287 49.758125
49.290989 -43.659574 49.481922
50.858621 -41.990882 50.069435
50.087013 -42.821085 49.766018
39.141481 -47.350302 50.450203
38.569637 -48.289746 50.549759
63.289887 -23.896127 25.749869
62.410111 -25.164067 26.131099
55.869906 -34.238911 25.151522
55.051645 -34.454819 24.403383
56.799906 -32.958098 26.119965
57.161253 -31.817963 26.138694
56.612646 -34.027344 26.014874
56.799906 -32.958098 26.119965
57.481411 -33.764372 26.754852
56.551411 -35.045185 25.78641
55.869906 -34.238911 25.151522
56.612646 -34.027344 26.014874
60.333528 -31.777445 29.088803
59.956247 -30.933524 28.169875
60.837295 -30.609685 28.917467
41.02195 -42.430996 51.848606
41.811936 -42.528514 51.165878
40.220091 -43.372618 51.791561
41.02195 -42.430996 51.848606
39.494978 -44.308799 51.75951
40.284126 -44.384958 51.024971
40.220091 -43.372618 51.791561
38.787977 -45.262064 51.783043
39.494978 -44.308799 51.75951
38.723942 -44.249724 52.549633
37.347995 -45.231396 53.526523
38.027189 -44.267729 53.456253
37.421488 -46.163178 52.690201
37.347995 -45.231396 53.526523
36.752542 -46.191586 53.643558
37.030424 -48.121597 52.120396
37.764824 -48.168346 51.274273
37.560434 -47.170117 51.961113
37.030424 -48.121597 52.120396
36.349941 -48.082399 53.019551
68.260273 -20.496952 32.993741
68.258972 -20.084231 33.826193
67.897289 -21.713798 33.258823
68.155952 -20.918701 32.189203
68.260273 -20.496952 32.993741
67.75235 -22.0469 35.128664
67.934055 -20.850138 34.871975
67.684796 -21.60499 35.937277
63.983227 -21.856138 44.213768
63.462158 -22.594569 45.048582
64.477543 -22.266875 43.50691
63.983227 -21.856138 44.213768
64.978905 -22.694668 42.84814
64.477543 -22.266875 43.50691
64.495228 -23.425511 43.724131
65.421387 -23.133089 42.138188
64.978905 -22.694668 42.84814
65.855392 -23.577797 41.472038
65.421387 -23.133089 42.138188
65.430595 -24.298012 42.399212
66.210915 -24.033186 40.751701
66.201706 -22.868263 40.490677
65.855392 -23.577797 41.472038
52.216169 -34.269577 51.795868
51.491472 -33.954745 52.196713
53.043928 -34.625045 51.57201
52.216169 -34.269577 51.795868
52.171192 -35.470055 51.538311
53.836657 -34.988727 51.318421
53.043928 -34.625045 51.57201
54.722592 -35.375286 51.215229
53.836657 -34.988727 51.318421
53.884886 -36.212081 51.211261
55.573311 -35.760183 51.065288
55.525081 -34.536829 51.172447
54.722592 -35.375286 51.215229
53.694324 -41.969672 50.429966
52.663607 -41.561945 50.353058
54.457918 -41.134139 50.66383
53.694324 -41.969672 50.429966
55.254064 -40.30019 50.829696
54.249714 -39.898973 50.775334
54.457918 -41.134139 50.66383
56.020568 -39.455286 50.951649
55.254064 -40.30019 50.829696
56.808872 -38.613833 50.992592
55.834164 -38.223571 50.982143
56.020568 -39.455286 50.951649
57.56229 -37.759979 50.970768
56.808872 -38.613833 50.992592
57.748695 -38.991693 50.940273
60.555145 -40.048294 50.560654
59.633907 -39.712119 50.751019
59.842449 -40.914637 50.659367
61.217106 -39.174719 50.377873
60.555145 -40.048294 50.560654
61.425647 -40.377237 50.28622
62.63044 -43.022163 49.318684
61.81604 -42.743299 49.823494
63.385632 -43.30492 48.731544
64.101086 -43.553961 48.001283
63.220051 -42.147167 49.131115
62.63044 -43.022163 49.318684
63.385632 -43.30492 48.731544
69.738178 -46.359578 23.084015
69.656211 -45.708271 22.828156
69.508755 -46.056397 24.213452
69.59441 -47.056744 23.370548
69.41782 -47.408692 24.753083
69.421509 -47.757733 23.65432
69.738178 -46.359578 23.084015
69.59441 -47.056744 23.370548
69.008328 -48.454716 21.573586
68.445736 -49.236123 21.946485
64.959515 -54.215513 30.308303
65.394913 -53.597911 31.309819
65.112366 -53.916669 28.948735
64.959515 -54.215513 30.308303
64.44862 -54.758263 29.336794
65.309899 -53.624572 27.568558
65.820793 -53.081823 28.540067
65.112366 -53.916669 28.948735
65.43964 -53.260241 26.226605
65.309899 -53.624572 27.568558
66.188087 -52.428061 25.80292
65.43964 -53.260241 26.226605
3 0 64 62
3 0 66 64
3 1 243 245
3 245 244 67
3 243 244 245
3 2 71 69
3 2 73 71
3 3 76 74
3 3 78 76
3 246 80 247
3 248 82 249
3 250 249 80
3 248 249 250
3 252 251 82
3 5 86 85
3 5 88 86
3 6 91 89
3 253 94 254
3 7 97 95
3 7 99 97
3 8 255 257
3 255 100 256
3 255 256 257
3 8 102 100
3 4 105 103
3 9 108 106
3 9 110 108
3 9 112 110
3 10 115 113
3 10 117 115
3 258 120 259
3 260 259 118
3 258 259 260
3 11 261 262
3 11 263 265
3 263 121 264
3 263 264 265
3 11 123 121
3 12 126 124
3 12 128 126
3 12 130 128
3 267 266 131
3 268 133 269
3 13 136 134
3 15 137 63
3 15 270 272
3 272 271 137
3 270 271 272
3 15 273 275
3 273 138 274
3 273 274 275
3 16 139 65
3 16 140 139
3 17 276 278
3 276 142 277
3 276 277 278
3 280 279 68
3 19 281 283
3 281 143 282
3 281 282 283
3 21 144 70
3 21 284 286
3 286 285 144
3 284 285 286
3 21 287 289
3 287 146 288
3 287 288 289
3 23 147 72
3 23 148 147
3 24 151 149
3 26 152 75
3 26 153 152
3 26 155 153
3 28 156 77
3 28 157 156
3 290 159 291
3 292 291 158
3 290 291 292
3 29 160 79
3 29 161 160
3 29 163 161
3 31 164 81
3 31 165 164
3 31 167 165
3 33 168 83
3 33 169 168
3 34 293 295
3 293 170 294
3 293 294 295
3 34 171 170
3 296 172 297
3 36 173 84
3 36 174 173
3 298 175 299
3 37 300 302
3 300 176 301
3 300 301 302
3 37 177 176
3 37 178 177
3 38 179 87
3 38 180 179
3 39 303 304
3 40 305 307
3 307 306 90
3 305 306 307
3 40 308 309
3 14 181 135
3 310 182 311
3 313 312 182
3 314 184 315
3 42 316 318
3 316 185 317
3 316 317 318
3 42 186 185
3 18 187 141
3 319 188 320
3 321 320 92
3 319 320 321
3 323 322 188
3 20 324 325
3 43 189 93
3 43 190 189
3 22 191 145
3 44 192 96
3 44 193 192
3 44 194 193
3 45 195 98
3 45 196 195
3 326 197 327
3 328 198 329
3 331 330 198
3 332 199 333
3 46 200 101
3 46 201 200
3 35 334 336
3 334 202 335
3 334 335 336
3 47 203 104
3 47 204 203
3 25 205 150
3 48 206 107
3 48 207 206
3 48 208 207
3 49 209 109
3 49 210 209
3 49 211 210
3 50 212 111
3 50 213 212
3 27 214 154
3 51 215 114
3 51 216 215
3 51 217 216
3 52 218 116
3 52 219 218
3 41 220 183
3 53 221 119
3 53 222 221
3 54 337 338
3 54 339 341
3 339 223 340
3 339 340 341
3 54 224 223
3 55 342 344
3 342 225 343
3 342 343 344
3 55 226 225
3 56 345 347
3 345 227 346
3 345 346 347
3 56 228 227
3 56 229 228
3 57 230 122
3 57 231 230
3 30 232 162
3 58 233 125
3 58 234 233
3 58 235 234
3 59 236 127
3 59 237 236
3 59 238 237
3 60 239 129
3 60 240 239
3 32 241 166
3 61 242 132
3 61 348 350
3 350 349 242
3 348 349 350
3 61 351 352
3 62 63 13
3 64 63 62
3 64 15 63
3 64 65 15
3 66 65 64
3 66 16 65
3 67 68 17
3 353 68 354
3 355 354 67
3 353 354 355
3 357 356 68
3 69 70 19
3 71 70 69
3 71 21 70
3 71 72 21
3 73 72 71
3 73 23 72
3 74 75 24
3 76 75 74
3 76 26 75
3 76 77 26
3 78 77 76
3 78 28 77
3 358 79 359
3 80 360 362
3 360 79 361
3 360 361 362
3 80 29 79
3 80 81 29
3 82 81 80
3 82 31 81
3 82 83 31
3 363 83 364
3 365 364 82
3 363 364 365
3 366 33 367
3 368 367 83
3 366 367 368
3 369 34 370
3 371 84 372
3 373 84 374
3 375 36 376
3 377 376 84
3 375 376 377
3 85 378 379
3 86 380 382
3 382 381 85
3 380 381 382
3 86 383 385
3 383 37 384
3 383 384 385
3 86 87 37
3 88 87 86
3 88 38 87
3 89 90 39
3 91 90 89
3 91 40 90
3 387 386 14
3 388 42 389
3 390 92 391
3 392 391 18
3 390 391 392
3 393 92 394
3 396 395 92
3 398 397 20
3 399 93 400
3 94 401 403
3 401 93 402
3 401 402 403
3 94 43 93
3 95 96 22
3 97 96 95
3 97 44 96
3 97 98 44
3 99 98 97
3 99 45 98
3 100 404 405
3 100 406 407
3 100 408 410
3 408 101 409
3 408 409 410
3 102 101 100
3 102 46 101
3 103 104 35
3 105 104 103
3 105 47 104
3 106 107 25
3 108 107 106
3 108 48 107
3 108 109 48
3 110 109 108
3 110 49 109
3 110 111 49
3 112 111 110
3 112 50 111
3 113 114 27
3 115 114 113
3 115 51 114
3 115 116 51
3 117 116 115
3 117 52 116
3 118 119 41
3 120 119 118
3 120 53 119
3 411 54 412
3 414 413 54
3 415 55 416
3 121 417 418
3 121 419 421
3 419 56 420
3 419 420 421
3 121 122 56
3 123 122 121
3 123 57 122
3 124 125 30
3 126 125 124
3 126 58 125
3 126 127 58
3 128 127 126
3 128 59 127
3 128 129 59
3 130 129 128
3 130 60 129
3 131 132 32
3 422 132 423
3 424 423 131
3 422 423 424
3 425 61 426
3 427 426 132
3 425 426 427
3 429 428 61
3 430 85 431
3 133 432 434
3 432 85 433
3 432 433 434
3 133 5 85
3 134 135 6
3 136 135 134
3 136 14 135
3 63 136 13
3 137 136 63
3 137 14 136
3 137 435 437
3 437 436 14
3 435 436 437
3 439 438 137
3 138 440 441
3 138 442 443
3 65 138 15
3 139 138 65
3 139 444 446
3 446 445 138
3 444 445 446
3 139 447 448
3 140 449 451
3 451 450 139
3 449 450 451
3 140 452 453
3 454 141 455
3 142 456 458
3 456 141 457
3 456 457 458
3 142 18 141
3 68 142 17
3 459 142 460
3 461 460 68
3 459 460 461
3 462 18 463
3 464 463 142
3 462 463 464
3 466 465 18
3 143 467 468
3 143 469 471
3 469 20 470
3 469 470 471
3 70 143 19
3 144 143 70
3 144 20 143
3 144 472 474
3 474 473 20
3 472 473 474
3 476 475 144
3 477 145 478
3 146 479 481
3 479 145 480
3 479 480 481
3 146 22 145
3 72 146 21
3 147 146 72
3 147 22 146
3 147 95 22
3 148 95 147
3 148 7 95
3 482 8 483
3 149 150 4
3 151 150 149
3 151 25 150
3 75 151 24
3 152 151 75
3 152 25 151
3 152 106 25
3 153 106 152
3 153 9 106
3 153 154 9
3 155 154 153
3 155 27 154
3 77 155 26
3 156 155 77
3 156 27 155
3 156 113 27
3 157 113 156
3 157 10 113
3 158 484 485
3 159 486 488
3 488 487 158
3 486 487 488
3 159 489 490
3 79 491 493
3 491 159 492
3 491 492 493
3 160 159 79
3 160 494 496
3 496 495 159
3 494 495 496
3 160 497 498
3 161 499 501
3 501 500 160
3 499 500 501
3 161 502 504
3 502 11 503
3 502 503 504
3 161 162 11
3 163 162 161
3 163 30 162
3 81 163 29
3 164 163 81
3 164 30 163
3 164 124 30
3 165 124 164
3 165 12 124
3 165 166 12
3 167 166 165
3 167 32 166
3 83 167 31
3 168 167 83
3 168 32 167
3 168 131 32
3 169 131 168
3 169 505 507
3 507 506 131
3 505 506 507
3 509 508 1
3 510 19 511
3 170 512 513
3 170 514 516
3 514 19 515
3 514 515 516
3 170 69 19
3 171 69 170
3 171 2 69
3 172 517 518
3 172 519 521
3 519 35 520
3 519 520 521
3 84 522 524
3 522 172 523
3 522 523 524
3 173 172 84
3 173 35 172
3 173 103 35
3 174 103 173
3 174 4 103
3 175 525 526
3 175 527 529
3 527 36 528
3 527 528 529
3 530 175 531
3 176 532 534
3 532 175 533
3 532 533 534
3 176 36 175
3 176 174 36
3 177 174 176
3 177 4 174
3 177 149 4
3 178 149 177
3 178 24 149
3 87 178 37
3 179 178 87
3 179 24 178
3 179 74 24
3 180 74 179
3 180 3 74
3 535 158 536
3 537 158 538
3 540 539 158
3 90 541 543
3 543 542 39
3 541 542 543
3 545 544 90
3 135 91 6
3 181 91 135
3 181 40 91
3 546 181 547
3 548 547 14
3 546 547 548
3 182 549 551
3 549 181 550
3 549 550 551
3 182 40 181
3 182 552 554
3 554 553 40
3 552 553 554
3 556 555 182
3 557 183 558
3 184 559 561
3 559 183 560
3 559 560 561
3 184 41 183
3 562 184 563
3 185 564 566
3 564 184 565
3 564 565 566
3 185 41 184
3 185 118 41
3 186 118 185
3 186 567 569
3 569 568 118
3 567 568 569
3 141 570 571
3 187 572 574
3 574 573 141
3 572 573 574
3 187 575 577
3 575 42 576
3 575 576 577
3 92 187 18
3 188 187 92
3 188 42 187
3 188 186 42
3 578 186 579
3 580 579 188
3 578 579 580
3 582 581 186
3 584 583 1
3 586 585 20
3 587 39 588
3 93 589 590
3 189 591 593
3 593 592 93
3 591 592 593
3 189 594 596
3 594 39 595
3 594 595 596
3 189 89 39
3 190 89 189
3 190 6 89
3 145 597 599
3 597 94 598
3 597 598 599
3 191 94 145
3 191 43 94
3 96 191 22
3 192 191 96
3 192 43 191
3 192 190 43
3 193 190 192
3 193 6 190
3 193 134 6
3 194 134 193
3 194 13 134
3 98 194 44
3 195 194 98
3 195 13 194
3 195 62 13
3 196 62 195
3 196 0 62
3 600 17 601
3 602 17 603
3 604 67 605
3 606 605 17
3 604 605 606
3 197 607 609
3 607 67 608
3 607 608 609
3 197 1 67
3 610 197 611
3 198 612 614
3 612 197 613
3 612 613 614
3 198 1 197
3 198 615 617
3 617 616 1
3 615 616 617
3 619 618 198
3 199 620 621
3 199 622 624
3 622 34 623
3 622 623 624
3 101 625 627
3 625 199 626
3 625 626 627
3 200 199 101
3 200 34 199
3 200 171 34
3 201 171 200
3 201 2 171
3 202 628 629
3 202 630 631
3 104 202 35
3 203 202 104
3 203 632 634
3 634 633 202
3 632 633 634
3 203 635 636
3 204 637 639
3 639 638 203
3 637 638 639
3 204 640 642
3 640 8 641
3 640 641 642
3 150 105 4
3 205 105 150
3 205 47 105
3 107 205 25
3 206 205 107
3 206 47 205
3 206 204 47
3 207 204 206
3 207 8 204
3 207 102 8
3 208 102 207
3 208 46 102
3 109 208 48
3 209 208 109
3 209 46 208
3 209 201 46
3 210 201 209
3 210 2 201
3 210 73 2
3 211 73 210
3 211 23 73
3 111 211 49
3 212 211 111
3 212 23 211
3 212 148 23
3 213 148 212
3 213 7 148
3 154 112 9
3 214 112 154
3 214 50 112
3 114 214 27
3 215 214 114
3 215 50 214
3 215 213 50
3 216 213 215
3 216 7 213
3 216 99 7
3 217 99 216
3 217 45 99
3 116 217 51
3 218 217 116
3 218 45 217
3 218 196 45
3 219 196 218
3 219 0 196
3 183 643 644
3 220 645 647
3 647 646 183
3 645 646 647
3 220 648 649
3 119 220 41
3 221 220 119
3 221 650 652
3 652 651 220
3 650 651 652
3 221 653 655
3 653 133 654
3 653 654 655
3 222 133 221
3 222 5 133
3 656 120 657
3 658 120 659
3 660 53 661
3 662 661 120
3 660 661 662
3 663 53 664
3 665 222 666
3 667 666 53
3 665 666 667
3 223 668 670
3 668 222 669
3 668 669 670
3 223 5 222
3 223 88 5
3 224 88 223
3 224 38 88
3 671 224 672
3 673 672 54
3 671 672 673
3 225 674 676
3 674 224 675
3 674 675 676
3 225 38 224
3 225 180 38
3 226 180 225
3 226 3 180
3 677 55 678
3 227 679 680
3 227 681 683
3 681 55 682
3 681 682 683
3 227 226 55
3 228 226 227
3 228 3 226
3 228 78 3
3 229 78 228
3 229 28 78
3 122 229 56
3 230 229 122
3 230 28 229
3 230 157 28
3 231 157 230
3 231 10 157
3 162 123 11
3 232 123 162
3 232 57 123
3 125 232 30
3 233 232 125
3 233 57 232
3 233 231 57
3 234 231 233
3 234 10 231
3 234 117 10
3 235 117 234
3 235 52 117
3 127 235 58
3 236 235 127
3 236 52 235
3 236 219 52
3 237 219 236
3 237 0 219
3 237 66 0
3 238 66 237
3 238 16 66
3 129 238 59
3 239 238 129
3 239 16 238
3 239 140 16
3 240 140 239
3 240 684 686
3 686 685 140
3 684 685 686
3 166 130 12
3 241 130 166
3 241 60 130
3 132 241 32
3 242 241 132
3 242 60 241
3 242 240 60
3 687 240 688
3 689 688 242
3 687 688 689
3 691 690 240
3 693 692 61
3 694 33 695
3 696 33 697
3 696 697 698
3 699 169 700
3 701 700 33
3 699 700 701
3 702 169 703
3 705 704 169
