ply
format ascii 1.0
element vertex 803
property float x
property float y
property float z
element face 861
property list uchar int vertex_index
end_header
-10.741703 -81.386894 71.966873
-15.531427 -89.399826 50.344109
-23.713602 -74.101181 66.603302
-29.790443 -56.576725 71.632278
-9.143385 -92.834564 56.173988
-12.155848 -85.580765 63.131405
-23.78581 -60.448612 76.954498
-23.696899 -49.973637 77.784416
-28.197975 -70.202805 60.565228
-7.665945 -98.023895 49.475182
-14.00116 -73.909744 76.961258
-17.116306 -78.405426 70.440659
-21.867527 -70.151413 75.447083
-28.241192 -65.987274 70.816872
-31.873178 -61.78997 63.33712
-18.796894 -81.142395 58.931953
-11.205759 -83.526489 68.397781
-8.928799 -79.84594 73.438499
-29.880175 -68.496178 56.952164
-5.352936 -93.97287 54.246788
-12.3843 -91.706848 53.441971
-11.510908 -95.975174 50.435734
-14.551246 -94.416702 47.005424
-15.527536 -69.265091 78.82254
-17.980526 -72.114204 76.603943
-19.506256 -67.425308 78.045982
-27.004532 -58.502384 74.521362
-26.650095 -63.460209 74.378769
-29.409565 -61.42944 71.496384
-30.373589 -63.877594 67.360672
-31.496712 -59.38398 68.002129
-34.16259 -55.316704 59.994633
-20.613438 -76.255783 68.795746
-17.944809 -79.88208 65.137459
-21.149843 -77.675522 63.121788
-10.329187 -89.240662 59.508919
-13.64056 -87.413422 56.990429
-20.243156 -62.4123 78.878151
-20.291437 -57.129787 79.475235
-23.68005 -55.193207 77.166016
-26.969761 -53.358971 74.646027
-26.232882 -72.074753 63.845905
-4.617689 -94.199997 40.457996
-4.710571 -94.892456 45.417953
-6.777948 -99.024216 45.512135
-9.037951 -102.034332 44.504036
-8.380043 -95.902084 52.945812
-10.521318 -99.588745 47.61282
-12.212761 -78.164497 74.540421
-13.577465 -80.261856 71.530746
-15.889817 -76.437874 74.388046
-19.683258 -74.466705 73.385429
-23.221758 -72.352196 71.656052
-23.289494 -65.469757 76.561493
-25.369614 -68.088448 73.525589
-26.2146 -70.213242 69.197464
-28.511967 -68.107788 66.011642
-30.192709 -66.067047 62.21069
-32.064121 -54.65144 68.367722
-32.99675 -57.336014 64.081848
-33.050453 -59.782635 59.078362
-10.208685 -75.542847 76.349899
-14.512916 -82.032646 66.892532
-15.529198 -83.490814 61.033489
-16.880747 -84.933304 54.463627
-21.807528 -79.133057 56.918789
-19.995911 -82.648453 52.287628
-18.601566 -86.834641 47.534763
-9.660231 -82.363235 71.063782
-10.916487 -82.406158 70.489288
-9.926065 -80.803749 72.704498
-29.996126 -69.966164 54.653362
-31.016977 -69.320969 53.078068
-13.971655 -90.646973 51.898777
-13.491507 -93.008743 50.265507
-15.02381 -91.870071 48.569256
-16.036079 -93.23822 45.171001
-16.535793 -90.58606 46.899124
-16.093958 -66.841049 79.57122
-17.526461 -68.363831 78.527397
-18.049829 -65.913818 79.130676
-28.457687 -57.537983 73.12896
-28.368305 -60.025875 73.115982
-29.667713 -59.033539 71.589615
-30.535887 -60.40826 69.81604
-30.815405 -58.038891 69.937988
-22.228695 -75.167297 67.769402
-20.89794 -76.99025 66.060532
-22.419983 -75.920929 64.966232
-9.515181 -87.969818 62.369358
-11.161873 -87.39798 61.286247
-11.987049 -88.464462 58.276482
-12.834209 -86.505905 60.140759
-21.896345 -50.853828 79.004341
-21.905548 -53.480083 78.623146
-23.624929 -52.555191 77.400681
-25.341785 -54.264362 75.926613
-25.352222 -51.666725 76.167114
-27.273075 -71.119339 62.2635
-6.287443 -96.613831 49.895851
-6.008638 -96.957962 47.791943
-7.24589 -98.665283 47.563236
-7.879774 -100.706329 45.182625
-8.529045 -100.02565 47.023865
-7.533173 -92.746185 57.238415
-7.146093 -94.063278 55.5215
-8.732374 -94.464813 54.568047
-12.559528 -97.622086 47.44429
-11.061829 -97.901932 49.032188
-11.961603 -99.688919 46.143768
-11.201159 -101.485291 44.826294
-13.113146 -76.105362 75.816772
-14.012111 -77.331116 74.588043
-15.029308 -75.241623 75.819702
-19.954163 -71.150238 76.120529
-18.938026 -73.362671 75.160294
-20.848183 -72.355881 74.536415
-21.504883 -73.418678 72.610497
-22.675045 -71.319702 73.724182
-22.047607 -61.430012 77.982262
-21.849884 -63.983391 77.747162
-23.646093 -62.998119 76.820641
-27.62793 -64.786942 72.759621
-26.135031 -65.819138 74.070259
-26.895422 -67.040245 72.269859
-25.93663 -69.205002 71.524689
-27.316536 -68.141922 70.132278
-27.451443 -69.154526 67.692139
-28.510393 -67.080704 68.548592
-31.186981 -62.828003 65.402344
-30.372204 -64.977631 64.869835
-31.095703 -63.946991 62.833611
-31.739643 -62.941479 60.724415
-33.005543 -53.681339 66.617386
-32.671074 -56.039902 66.330193
-33.410885 -55.036373 64.413742
-34.21151 -56.596027 57.484512
-33.643112 -57.56776 59.537533
-33.646122 -58.830585 56.996445
-12.838938 -72.462158 77.908981
-10.917402 -73.257645 77.608391
-12.066267 -74.742233 76.791275
-11.269983 -76.934525 75.545067
-15.321587 -79.39389 71.05854
-14.060638 -81.191452 69.400848
-15.80125 -80.247162 68.718307
-18.343517 -80.513557 62.116005
-16.68701 -81.666016 63.11174
-17.187473 -82.304352 59.975838
-16.155945 -84.185593 57.81271
-17.771214 -82.967941 56.694473
-20.768921 -83.656372 48.920757
-19.244944 -84.628204 49.876774
-5.212233 -96.613525 40.777935
-10.019043 -85.069565 66.760124
-11.614529 -84.593994 65.909035
-7.876585 -78.583664 74.066826
-6.355949 -79.410454 72.866074
-29.049683 -69.327042 58.78059
-28.139593 -71.405472 57.919109
-5.144321 -94.531113 52.198608
-6.557877 -96.016281 51.87677
-10.770149 -92.466827 54.8909
-10.337084 -94.391693 53.343342
-11.928867 -93.882477 51.886669
-13.045954 -95.3647 48.796658
-14.035182 -96.945694 45.623894
-14.820003 -71.622849 77.960052
-15.983958 -73.03511 76.889938
-16.829063 -70.738495 77.788925
-18.833351 -69.811386 77.41748
-20.799286 -68.847557 76.858658
-25.442818 -59.47229 75.799179
-25.343601 -62.008255 75.738892
-26.92304 -61.017197 74.502441
-28.112642 -62.446808 73.022171
-28.943586 -63.749397 71.26033
-29.398602 -64.932144 69.174683
-30.07597 -62.707966 69.584274
-31.031578 -61.664574 67.752029
-31.829865 -60.622803 65.792297
-34.84613 -55.657993 55.535076
-18.896582 -77.345657 69.685608
-17.553795 -79.193329 67.934158
-19.265945 -78.091942 67.048767
-19.591526 -78.759361 64.162842
-19.932718 -79.398819 61.095821
-8.037243 -91.254944 58.932316
-9.662703 -91.071747 57.809475
-11.30583 -90.468323 56.526344
-12.939974 -89.528824 55.139961
-14.551562 -88.35907 53.716221
-16.747042 -61.783443 80.846977
-18.388565 -63.388275 79.634407
-18.552261 -60.790756 80.080505
-20.330627 -59.796577 79.178162
-22.072067 -58.810398 78.160721
-20.199638 -54.444031 79.818153
-21.994656 -56.14827 78.353668
-23.767675 -57.837708 77.041428
-25.408258 -56.880539 75.830002
-26.983097 -55.93819 74.535461
-28.479351 -55.007927 73.166489
-25.049988 -73.068901 65.295082
-23.812166 -74.902939 63.762722
-4.635307 -94.627914 42.971832
-5.450071 -96.939194 43.222191
-5.723959 -97.060638 45.564846
-8.105288 -102.741135 42.73465
-5.621164 -93.183136 56.19342
-6.834221 -95.162506 53.744846
-8.037271 -97.098557 51.26088
-9.94953 -96.169434 51.836674
-9.548178 -97.732925 50.315033
-9.084137 -99.029572 48.72501
-9.850048 -100.978378 46.11908
-11.377874 -79.998657 73.191635
-11.981266 -80.952721 71.841583
-12.983603 -79.257172 73.234833
-14.741992 -78.42392 73.017822
-16.577158 -77.491425 72.601044
-16.984535 -74.327545 75.592354
-17.796631 -75.479034 73.980484
-18.423664 -76.482437 72.010262
-20.228378 -75.425537 71.256081
-21.947525 -74.347061 70.340775
-23.545252 -73.267426 69.262276
-19.976681 -64.958046 78.518532
-21.437054 -66.457764 77.389755
-22.693064 -67.855377 76.116432
-25.035568 -64.468796 75.558815
-24.481735 -66.843521 75.188469
-23.684031 -69.127762 74.58345
-24.381741 -70.266281 72.721512
-24.800138 -71.280777 70.519211
-24.99436 -72.200012 68.017639
-26.278786 -71.151993 66.605995
-27.396782 -70.126602 65.031754
-28.363218 -69.126091 63.30777
-29.5222 -66.02446 66.786575
-29.414295 -67.076691 64.174347
-29.209673 -68.153999 61.458202
-30.733158 -66.321022 57.54393
-25.531973 -49.138481 76.588577
-29.882614 -54.085526 71.729752
-30.993841 -55.615585 70.042068
-31.812956 -57.041019 68.178543
-32.308022 -58.358715 66.080658
-32.502357 -59.588116 63.740974
-33.599892 -56.320389 62.040092
-33.090603 -58.56736 61.640224
-32.477184 -60.771858 61.211304
-9.085726 -74.011322 77.032516
-8.453377 -76.320679 75.61515
-9.520445 -77.755417 74.966187
-10.520824 -78.983238 74.175385
-12.40185 -81.94751 69.983269
-12.815781 -82.91037 67.673492
-13.285254 -83.798508 65.014221
-16.239054 -80.99527 66.047287
-14.989646 -82.789352 64.079697
-13.843089 -84.616272 62.091282
-14.505541 -85.398788 58.971313
-15.274357 -86.198776 55.703171
-16.137642 -87.075943 52.323219
-22.599026 -76.661278 62.011822
-21.434814 -78.368576 60.052299
-20.341019 -80.070839 57.91114
-20.854656 -80.841324 54.664989
-19.340544 -81.831818 55.639763
-18.455851 -83.721085 53.314014
-17.701038 -85.796738 51.025063
-17.071404 -88.088409 48.863087
-31.355065 -68.155823 53.233076
-30.880714 -68.518338 54.106088
-17.275714 -65.130814 79.683071
-17.071894 -66.377433 79.350948
-16.297779 -65.594429 79.903343
-16.297779 -65.594429 79.903343
-15.348141 -66.059616 80.113308
-11.65886 -86.489373 62.208826
-10.830588 -86.838127 62.709477
-11.327575 -85.92952 63.632055
-27.69926 -71.200882 60.03821
-27.236809 -71.659149 60.887346
-27.735525 -70.661072 61.414364
-12.679466 -99.521133 45.256275
-12.260566 -98.655502 46.794029
-12.978428 -98.487717 45.906536
-12.26879 -100.614723 44.656482
-12.679466 -99.521133 45.256275
-33.419238 -53.192009 65.708855
-33.211537 -52.494888 66.816841
-33.621909 -53.869526 64.607033
-33.208214 -54.358856 65.515564
-33.419238 -53.192009 65.708855
-33.980154 -58.376472 56.010881
-33.928816 -57.713306 57.240479
-34.262848 -57.259193 56.254915
-33.687565 -59.500504 55.7715
-33.980154 -58.376472 56.010881
-21.209648 -84.283386 47.252127
-21.518335 -83.297062 48.552528
-20.448561 -84.701881 47.673071
-21.209648 -84.283386 47.252127
-5.28101 -97.585678 39.662588
-5.502714 -97.781364 40.885511
-10.612401 -84.298027 67.578952
-9.875252 -84.415169 67.927834
-10.46861 -83.643631 68.746662
-8.176633 -80.303036 72.895381
-7.650526 -79.671898 73.209545
-8.402692 -79.214802 73.752662
-29.466977 -69.578716 56.618531
-29.051732 -69.994148 57.532743
-29.464929 -68.91161 57.866377
-29.647362 -71.086583 54.373896
-30.191215 -70.815422 53.696922
-5.248628 -94.251992 53.222698
-4.561937 -93.456574 53.342327
-4.666244 -93.177452 54.366417
-15.023141 -95.187927 45.341515
-14.765109 -96.452423 44.65075
-14.293214 -95.681198 46.314659
-16.495349 -94.007667 43.452093
-16.776735 -92.597077 44.291666
-35.106768 -54.51152 55.804491
-34.790504 -54.993929 56.762411
-35.218823 -55.208376 54.638897
-35.106768 -54.51152 55.804491
-14.533603 -69.693664 78.866539
-14.831318 -68.497231 79.320156
-15.173769 -70.44397 78.391296
-14.179836 -70.872544 78.435295
-14.533603 -69.693664 78.866539
-7.574286 -90.428306 60.272066
-7.25265 -91.109581 59.392342
-9.510748 -89.442391 60.072501
-9.103745 -88.806969 61.50272
-9.922184 -88.60524 60.939138
-9.995945 -90.156205 58.659197
-9.177506 -90.357933 59.222779
-9.510748 -89.442391 60.072501
-5.670764 -79.810383 72.132076
-6.192148 -80.549435 71.923401
-17.698406 -59.972623 80.757728
-17.649652 -61.287099 80.463741
-16.795797 -60.468967 81.140964
-20.311032 -58.463182 79.326698
-19.452168 -58.965539 79.844765
-19.432573 -57.632144 79.993302
-20.169054 -53.114178 80.026024
-19.312058 -53.605564 80.632595
-16.795797 -60.468967 81.140964
-15.928083 -60.979799 81.527714
-25.649589 -73.009338 63.147398
-25.058142 -73.506412 63.871986
-25.641435 -72.571827 64.570493
-27.708225 -72.417046 57.406122
-28.209051 -72.099114 56.705889
-4.672939 -94.760185 44.194892
-4.186624 -93.608947 44.054564
-4.224257 -93.741219 45.277624
-6.530176 -99.068382 44.415953
-6.003182 -98.086593 44.442309
-6.250953 -98.042427 45.538491
-6.967996 -100.048386 44.348726
-6.530176 -99.068382 44.415953
-9.092232 -103.041336 43.201565
-8.625901 -103.394737 42.316872
-8.57162 -102.387733 43.619343
-5.801188 -92.677384 57.123877
-5.078444 -92.149803 57.404215
-10.729495 -102.218056 44.127483
-11.370288 -102.454521 43.388679
-30.087174 -66.641682 60.865461
-29.595656 -67.685158 60.489217
-29.701191 -67.110523 61.834446
-31.153417 -65.23386 57.816242
-30.813744 -65.704087 58.853882
-31.126551 -65.8988 56.566832
-31.153417 -65.23386 57.816242
-26.458499 -48.739384 76.003655
-25.734393 -47.934894 76.87896
-26.303548 -49.974034 75.759655
-26.458499 -48.739384 76.003655
-29.971474 -52.841511 71.85339
-29.215775 -53.27888 72.529847
-31.621523 -53.90856 69.297699
-32.211098 -53.446827 68.512887
-31.528981 -55.133513 69.204895
-31.086383 -54.390633 70.134872
-31.621523 -53.90856 69.297699
-33.881241 -55.818546 61.017363
-33.83209 -55.176167 62.246864
-34.113439 -54.674324 61.224135
-32.704025 -60.876816 58.838299
-32.41739 -61.371427 59.90477
-32.763818 -60.277247 60.144833
-23.263537 -76.196293 61.421404
-23.205596 -75.782108 62.887272
-23.870106 -75.317124 62.296854
-21.621171 -78.750816 58.485544
-22.135959 -77.908943 59.518724
-22.322316 -78.291183 57.951969
-20.425283 -81.744889 53.476309
-21.175045 -81.309018 53.036242
-20.745672 -82.212582 51.847561
-18.32199 -88.060242 46.445768
-17.556909 -88.687126 47.10993
-17.836485 -87.461525 48.198925
-4.645373 -93.912636 39.177626
-4.300433 -92.981071 40.270926
-9.695846 -83.062004 70.079663
-9.028336 -82.943733 70.425461
-10.323974 -83.083466 69.792416
-9.695846 -83.062004 70.079663
-10.288359 -82.384697 70.776535
-11.061123 -82.966324 69.443534
-10.46861 -83.643631 68.746662
-10.323974 -83.083466 69.792416
-9.228457 -81.287018 72.21846
-8.729824 -80.808113 72.58546
-9.427432 -80.324844 73.071498
-9.09554 -82.066761 71.398102
-9.228457 -81.287018 72.21846
-9.793148 -81.583492 71.88414
-9.028336 -82.943733 70.425461
-9.09554 -82.066761 71.398102
-30.370289 -68.840935 54.893736
-29.93815 -69.231171 55.802763
-30.312314 -68.105942 56.043137
-30.506552 -69.643567 53.865715
-30.370289 -68.840935 54.893736
-30.880714 -68.518338 54.106088
-30.701641 -70.492825 52.909275
-30.191215 -70.815422 53.696922
-30.506552 -69.643567 53.865715
-4.779097 -92.913032 55.422405
-4.666244 -93.177452 54.366417
-17.026592 -91.270996 45.155727
-16.776735 -92.597077 44.291666
-16.285936 -91.91214 46.035062
-15.114529 -67.28521 79.694496
-15.348141 -66.059616 80.113308
-15.810747 -68.05307 79.19688
-14.831318 -68.497231 79.320156
-15.114529 -67.28521 79.694496
-10.007241 -87.124046 63.251032
-9.210934 -87.28994 63.719995
-10.338527 -87.683899 61.827803
-10.007241 -87.124046 63.251032
-10.830588 -86.838127 62.709477
-19.399625 -56.288031 80.218373
-19.432573 -57.632144 79.993302
-21.900946 -52.166956 78.813744
-21.022009 -52.632204 79.42852
-21.017408 -51.319077 79.619118
-26.730757 -72.081581 61.645809
-26.210661 -72.559288 62.437011
-26.752978 -71.597046 63.054703
-26.730757 -72.081581 61.645809
-27.236809 -71.659149 60.887346
-4.212464 -93.843078 46.504709
-4.224257 -93.741219 45.277624
-6.148041 -96.785897 48.843897
-5.490511 -95.909698 48.917048
-5.629913 -95.737633 49.969002
-7.339633 -93.404731 56.379958
-6.563652 -93.117455 56.787917
-6.757192 -92.458908 57.646374
-11.888568 -101.512909 43.997745
-11.581381 -100.587105 45.485031
-12.26879 -100.614723 44.656482
-11.370288 -102.454521 43.388679
-11.888568 -101.512909 43.997745
-30.995016 -64.517071 61.498722
-30.543519 -65.577099 61.187262
-30.644206 -65.007019 62.52215
-31.316986 -64.014315 60.444125
-30.995016 -64.517071 61.498722
-31.417673 -63.444235 61.779013
-31.65666 -63.544089 59.406485
-31.316986 -64.014315 60.444125
-32.681809 -52.961776 67.637719
-33.211537 -52.494888 66.816841
-32.534832 -54.16639 67.492554
-32.211098 -53.446827 68.512887
-32.681809 -52.961776 67.637719
-33.3251 -59.937723 56.756937
-33.027265 -60.413748 57.797895
-33.348287 -59.30661 58.037403
-33.3251 -59.937723 56.756937
-33.687565 -59.500504 55.7715
-11.87817 -72.859902 77.758686
-11.255506 -72.093846 78.18591
-12.216275 -71.696102 78.336205
-22.498546 -78.741211 56.437906
-22.322316 -78.291183 57.951969
-21.132177 -82.716542 50.164125
-21.518335 -83.297062 48.552528
-20.382416 -83.152412 50.604192
-20.745672 -82.212582 51.847561
-21.132177 -82.716542 50.164125
-19.686573 -85.187797 48.151079
-20.006932 -84.142288 49.398765
-20.448561 -84.701881 47.673071
-19.364883 -86.291016 46.980074
-18.923255 -85.731423 48.705768
-19.686573 -85.187797 48.151079
-19.079073 -87.465043 45.784384
-19.364883 -86.291016 46.980074
-5.124835 -96.359146 39.514843
-4.827562 -95.152382 39.354873
-4.914961 -95.406761 40.617965
-5.124835 -96.359146 39.514843
-5.28101 -97.585678 39.662588
-9.273864 -85.10093 67.160458
-9.875252 -84.415169 67.927834
-9.462865 -85.839813 65.915379
-9.273864 -85.10093 67.160458
-10.259173 -85.67392 65.446415
-9.462865 -85.839813 65.915379
-11.056915 -85.436134 65.020871
-10.259173 -85.67392 65.446415
-10.816786 -84.831779 66.33458
-11.885188 -85.087379 64.52022
-11.327575 -85.92952 63.632055
-11.056915 -85.436134 65.020871
-7.116267 -78.997059 73.46645
-6.590279 -78.242763 73.724297
-7.350598 -77.829369 74.324673
-6.890208 -80.085293 72.609169
-7.116267 -78.997059 73.46645
-7.650526 -79.671898 73.209545
-6.192148 -80.549435 71.923401
-6.890208 -80.085293 72.609169
-8.176633 -80.303036 72.895381
-8.729824 -80.808113 72.58546
-21.039929 -50.029194 79.859302
-21.017408 -51.319077 79.619118
-21.968442 -49.588893 79.246933
-21.039929 -50.029194 79.859302
-22.868719 -49.148798 78.63697
-22.796622 -50.413732 78.394378
-21.968442 -49.588893 79.246933
-28.596687 -71.033364 57.102003
-28.594638 -70.366257 58.349849
-29.051732 -69.994148 57.532743
-28.209051 -72.099114 56.705889
-28.596687 -71.033364 57.102003
-29.524953 -70.31371 55.46913
-29.466977 -69.578716 56.618531
-29.93815 -69.231171 55.802763
-29.524953 -70.31371 55.46913
-29.647362 -71.086583 54.373896
-4.488401 -93.61869 52.237875
-4.561937 -93.456574 53.342327
-5.058352 -94.696274 51.12038
-4.488401 -93.61869 52.237875
-5.715882 -95.572472 51.04723
-5.629913 -95.737633 49.969002
-5.058352 -94.696274 51.12038
-13.716255 -98.149521 44.996338
-12.978428 -98.487717 45.906536
-13.297355 -97.28389 46.534092
-14.43292 -97.79396 44.002968
-13.716255 -98.149521 44.996338
-14.43292 -97.79396 44.002968
-14.765109 -96.452423 44.65075
-15.765557 -94.598686 44.424303
-15.023141 -95.187927 45.341515
-15.293662 -93.827461 46.088212
-15.765557 -94.598686 44.424303
-16.495349 -94.007667 43.452093
-34.417713 -54.17273 60.237498
-34.113439 -54.674324 61.224135
-34.448735 -54.823284 58.992189
-34.417713 -54.17273 60.237498
-34.473194 -55.462946 57.737129
-34.18705 -55.956366 58.739573
-34.448735 -54.823284 58.992189
-34.52882 -56.12701 56.509794
-34.473194 -55.462946 57.737129
-34.790504 -54.993929 56.762411
-34.580158 -56.790176 55.280197
-34.262848 -57.259193 56.254915
-34.52882 -56.12701 56.509794
-34.971632 -56.360345 54.378959
-34.580158 -56.790176 55.280197
-34.971632 -56.360345 54.378959
-35.218823 -55.208376 54.638897
-13.189304 -71.292198 78.40976
-12.216275 -71.696102 78.336205
-13.82947 -72.042504 77.934517
-13.189304 -71.292198 78.40976
-14.179836 -70.872544 78.435295
-7.000614 -91.855201 58.545391
-6.757192 -92.458908 57.646374
-7.785208 -92.000564 58.085366
-7.000614 -91.855201 58.545391
-7.25265 -91.109581 59.392342
-8.7208 -88.051758 62.859751
-9.210934 -87.28994 63.719995
-8.7208 -88.051758 62.859751
-9.103745 -88.806969 61.50272
-8.364776 -90.449532 59.784199
-7.574286 -90.428306 60.272066
-8.849973 -91.163345 58.370896
-8.364776 -90.449532 59.784199
-9.177506 -90.357933 59.222779
-5.852181 -78.602184 73.065323
-6.590279 -78.242763 73.724297
-5.852181 -78.602184 73.065323
-5.670764 -79.810383 72.132076
-17.567804 -62.585859 80.240692
-17.445082 -63.868042 79.934936
-16.624321 -63.065626 80.541222
-18.562985 -59.462629 80.295937
-17.698406 -59.972623 80.757728
-19.441444 -60.293667 79.629334
-18.562985 -59.462629 80.295937
-19.452168 -58.965539 79.844765
-19.353726 -54.945153 80.389831
-19.312058 -53.605564 80.632595
-20.245537 -55.786909 79.646694
-19.399625 -56.288031 80.218373
-19.353726 -54.945153 80.389831
-21.052593 -53.962057 79.22065
-20.169054 -53.114178 80.026024
-21.022009 -52.632204 79.42852
-15.837363 -62.272131 81.146717
-15.928083 -60.979799 81.527714
-16.624321 -63.065626 80.541222
-15.837363 -62.272131 81.146717
-24.439231 -74.423431 63.105806
-24.431077 -73.98592 64.528902
-25.058142 -73.506412 63.871986
-23.870106 -75.317124 62.296854
-24.439231 -74.423431 63.105806
-25.649589 -73.009338 63.147398
-26.210661 -72.559288 62.437011
-27.670068 -71.802216 58.715151
-27.69926 -71.200882 60.03821
-28.168784 -70.804138 59.242168
-27.670068 -71.802216 58.715151
-27.708225 -72.417046 57.406122
-4.221205 -93.22094 41.543415
-4.300433 -92.981071 40.270926
-4.230015 -93.434898 42.800333
-4.186624 -93.608947 44.054564
-4.626498 -94.413956 41.714914
-4.221205 -93.22094 41.543415
-4.230015 -93.434898 42.800333
-5.621633 -97.944198 42.10764
-5.502714 -97.781364 40.885511
-5.331152 -96.776359 42.000063
-4.768764 -94.934365 46.598548
-4.212464 -93.843078 46.504709
-5.417798 -95.967118 47.785544
-5.490511 -95.909698 48.917048
-5.275459 -96.018456 46.671995
-5.417798 -95.967118 47.785544
-5.866299 -97.0093 46.678395
-5.217265 -95.976547 45.491399
-4.768764 -94.934365 46.598548
-5.275459 -96.018456 46.671995
-5.866238 -98.025871 43.270981
-5.587015 -96.999916 44.393518
-6.003182 -98.086593 44.442309
-5.621633 -97.944198 42.10764
-5.866238 -98.025871 43.270981
-7.51891 -100.889443 44.183971
-6.967996 -100.048386 44.348726
-7.328861 -99.865273 45.34738
-7.631666 -101.906846 42.959984
-7.51891 -100.889443 44.183971
-7.992531 -101.723732 43.958638
-7.601516 -102.921151 41.762894
-7.631666 -101.906846 42.959984
-8.00954 -103.752549 41.467007
-7.601516 -102.921151 41.762894
-8.00954 -103.752549 41.467007
-8.625901 -103.394737 42.316872
-4.913212 -92.518166 56.395721
-5.078444 -92.149803 57.404215
-5.48705 -93.578003 55.220104
-4.779097 -92.913032 55.422405
-4.913212 -92.518166 56.395721
-6.383629 -93.623207 55.85746
-5.801188 -92.677384 57.123877
-6.563652 -93.117455 56.787917
-10.053939 -101.9646 44.773877
-10.525603 -101.231835 45.472687
-10.729495 -102.218056 44.127483
-9.64789 -102.492577 43.966355
-9.444 -101.506355 45.311558
-10.053939 -101.9646 44.773877
-9.092232 -103.041336 43.201565
-9.64789 -102.492577 43.966355
-18.219197 -64.651047 79.382542
-17.275714 -65.130814 79.683071
-17.445082 -63.868042 79.934936
-29.515662 -68.271679 59.150411
-29.129678 -68.740521 60.119396
-29.595656 -67.685158 60.489217
-29.930907 -67.856247 58.236199
-29.464929 -68.91161 57.866377
-29.515662 -68.271679 59.150411
-30.087174 -66.641682 60.865461
-30.543519 -65.577099 61.187262
-30.357399 -66.768669 58.532082
-30.813744 -65.704087 58.853882
-30.306666 -67.4086 57.248047
-29.930907 -67.856247 58.236199
-30.357399 -66.768669 58.532082
-30.738805 -67.018364 56.33902
-30.312314 -68.105942 56.043137
-30.306666 -67.4086 57.248047
-30.738805 -67.018364 56.33902
-31.126551 -65.8988 56.566832
-23.829704 -48.738005 78.044735
-22.868719 -49.148798 78.63697
-24.747241 -48.320427 77.446815
-25.734393 -47.934894 76.87896
-24.614436 -49.556059 77.186497
-23.829704 -48.738005 78.044735
-24.747241 -48.320427 77.446815
-26.213673 -51.238156 75.548924
-25.442098 -50.402603 76.377846
-26.303548 -49.974034 75.759655
-27.022442 -52.084278 74.78838
-26.160992 -52.512848 75.406571
-26.213673 -51.238156 75.548924
-27.759348 -52.915602 73.987984
-27.022442 -52.084278 74.78838
-28.514143 -53.74008 73.248215
-27.724556 -54.183449 73.906258
-27.759348 -52.915602 73.987984
-29.180982 -54.546727 72.448121
-28.514143 -53.74008 73.248215
-29.215775 -53.27888 72.529847
-30.530769 -53.625603 70.978714
-29.971474 -52.841511 71.85339
-30.438227 -54.850555 70.88591
-30.530769 -53.625603 70.978714
-31.086383 -54.390633 70.134872
-33.737587 -54.534159 63.433689
-33.621909 -53.869526 64.607033
-33.505388 -55.678381 63.226917
-33.737587 -54.534159 63.433689
-33.83209 -55.176167 62.246864
-32.04862 -62.456238 59.661326
-32.108413 -61.856668 60.96786
-32.41739 -61.371427 59.90477
-31.65666 -63.544089 59.406485
-32.04862 -62.456238 59.661326
-32.704025 -60.876816 58.838299
-33.027265 -60.413748 57.797895
-10.319212 -72.470913 77.980004
-11.255506 -72.093846 78.18591
-9.403374 -72.847752 77.692066
-10.319212 -72.470913 77.980004
-10.001564 -73.634484 77.320453
-8.520094 -73.195572 77.341606
-9.403374 -72.847752 77.692066
-8.229693 -74.366699 76.598698
-8.520094 -73.195572 77.341606
-7.913519 -75.521377 75.890015
-8.229693 -74.366699 76.598698
-8.769551 -75.166 76.323833
-7.638993 -76.697876 75.098835
-7.913519 -75.521377 75.890015
-8.164981 -77.452171 74.840988
-7.350598 -77.829369 74.324673
-7.638993 -76.697876 75.098835
-22.718066 -77.055294 60.498486
-23.263537 -76.196293 61.421404
-22.01692 -77.514927 61.032061
-22.718066 -77.055294 60.498486
-22.135959 -77.908943 59.518724
-22.056688 -79.583996 55.349283
-22.498546 -78.741211 56.437906
-21.580253 -80.43813 54.222383
-21.175045 -81.309018 53.036242
-21.331092 -79.98719 55.791889
-22.056688 -79.583996 55.349283
-21.580253 -80.43813 54.222383
-17.289104 -89.935952 46.127949
-16.803598 -89.337234 47.881106
-17.556909 -88.687126 47.10993
-17.026592 -91.270996 45.155727
-17.289104 -89.935952 46.127949
-18.32199 -88.060242 46.445768
-19.079073 -87.465043 45.784384
-31.58702 -69.023446 52.347021
-31.355065 -68.155823 53.233076
-31.300071 -70.240692 52.277922
-31.58702 -69.023446 52.347021
-30.701641 -70.492825 52.909275
-31.300071 -70.240692 52.277922
-4.645373 -93.912636 39.177626
-4.827562 -95.152382 39.354873
3 0 69 68
3 0 68 70
3 273 72 274
3 1 75 73
3 1 77 75
3 275 80 276
3 277 276 78
3 275 276 277
3 3 83 81
3 3 85 83
3 278 78 279
3 2 88 86
3 5 280 282
3 280 90 281
3 280 281 282
3 5 92 90
3 7 95 93
3 7 97 95
3 8 283 285
3 285 284 98
3 283 284 285
3 9 101 99
3 9 103 101
3 4 106 104
3 286 109 287
3 288 287 107
3 286 287 288
3 290 289 109
3 10 113 111
3 12 116 114
3 12 118 116
3 6 121 119
3 13 124 122
3 13 126 124
3 13 128 126
3 14 131 129
3 14 132 131
3 291 133 292
3 293 135 294
3 295 294 133
3 293 294 295
3 296 138 297
3 298 297 136
3 296 297 298
3 300 299 138
3 10 141 139
3 10 111 141
3 11 145 143
3 15 148 146
3 15 150 148
3 301 151 302
3 304 303 151
3 306 305 153
3 16 307 309
3 307 154 308
3 307 308 309
3 16 155 154
3 17 310 312
3 312 311 156
3 310 311 312
3 18 313 315
3 315 314 158
3 313 314 315
3 317 316 71
3 19 318 320
3 318 160 319
3 318 319 320
3 19 161 160
3 20 164 162
3 22 165 74
3 22 166 165
3 22 321 323
3 323 322 166
3 321 322 323
3 325 324 76
3 23 169 167
3 25 170 79
3 25 171 170
3 26 174 172
3 28 175 82
3 28 176 175
3 28 178 176
3 30 179 84
3 30 180 179
3 326 181 327
3 329 328 181
3 23 330 331
3 23 332 334
3 332 167 333
3 332 333 334
3 32 184 182
3 34 185 87
3 34 186 185
3 335 187 336
3 35 337 339
3 339 338 89
3 337 338 339
3 35 340 342
3 340 188 341
3 340 341 342
3 35 189 188
3 36 190 91
3 36 191 190
3 344 343 157
3 345 194 346
3 347 346 192
3 345 346 347
3 38 348 350
3 348 195 349
3 348 349 350
3 38 196 195
3 351 197 352
3 39 198 94
3 39 199 198
3 39 200 199
3 40 201 96
3 40 202 201
3 353 192 354
3 41 355 357
3 357 356 203
3 355 356 357
3 359 358 159
3 43 360 362
3 360 205 361
3 360 361 362
3 43 206 205
3 44 207 100
3 44 363 365
3 365 364 207
3 363 364 365
3 44 366 367
3 45 208 102
3 45 368 370
3 370 369 208
3 368 369 370
3 371 209 372
3 46 210 105
3 46 211 210
3 21 212 163
3 47 213 108
3 47 214 213
3 47 215 214
3 374 373 110
3 48 218 216
3 50 219 112
3 50 220 219
3 24 221 168
3 51 222 115
3 51 223 222
3 51 224 223
3 52 225 117
3 52 226 225
3 37 227 193
3 53 228 120
3 53 229 228
3 27 230 173
3 54 231 123
3 54 232 231
3 54 233 232
3 55 234 125
3 55 235 234
3 55 236 235
3 56 237 127
3 56 238 237
3 29 239 177
3 57 240 130
3 57 241 240
3 57 375 377
3 377 376 241
3 375 376 377
3 378 242 379
3 381 380 242
3 382 243 383
3 385 384 243
3 386 244 387
3 58 388 389
3 58 390 392
3 390 245 391
3 390 391 392
3 58 246 245
3 59 247 134
3 59 248 247
3 31 393 395
3 393 249 394
3 393 394 395
3 60 250 137
3 60 251 250
3 60 396 398
3 398 397 251
3 396 397 398
3 61 252 140
3 61 253 252
3 61 254 253
3 48 255 142
3 48 216 255
3 49 256 217
3 62 257 144
3 62 258 257
3 33 259 183
3 63 260 147
3 63 261 260
3 63 262 261
3 64 263 149
3 64 264 263
3 399 265 400
3 401 400 204
3 399 400 401
3 65 402 404
3 402 266 403
3 402 403 404
3 65 267 266
3 66 405 407
3 405 268 406
3 405 406 407
3 66 269 268
3 66 270 269
3 67 271 152
3 67 272 271
3 67 408 410
3 410 409 272
3 408 409 410
3 42 411 412
3 68 413 414
3 69 415 417
3 417 416 68
3 415 416 417
3 69 418 420
3 418 16 419
3 418 419 420
3 70 421 423
3 423 422 17
3 421 422 423
3 68 424 426
3 426 425 70
3 424 425 426
3 68 427 428
3 429 71 430
3 431 430 18
3 429 430 431
3 72 432 434
3 432 71 433
3 432 433 434
3 72 435 437
3 437 436 71
3 435 436 437
3 438 19 439
3 73 74 20
3 75 74 73
3 75 22 74
3 75 76 22
3 77 76 75
3 77 440 442
3 442 441 76
3 440 441 442
3 78 79 23
3 80 79 78
3 80 25 79
3 81 82 26
3 83 82 81
3 83 28 82
3 83 84 28
3 85 84 83
3 85 30 84
3 78 443 444
3 78 445 447
3 445 23 446
3 445 446 447
3 86 87 32
3 88 87 86
3 88 34 87
3 448 89 449
3 90 450 452
3 450 89 451
3 450 451 452
3 90 35 89
3 90 91 35
3 92 91 90
3 92 36 91
3 453 38 454
3 93 455 457
3 455 94 456
3 455 456 457
3 95 94 93
3 95 39 94
3 95 96 39
3 97 96 95
3 97 40 96
3 98 458 460
3 460 459 41
3 458 459 460
3 462 461 98
3 463 43 464
3 99 465 467
3 465 100 466
3 465 466 467
3 101 100 99
3 101 44 100
3 101 102 44
3 103 102 101
3 103 45 102
3 104 468 470
3 468 105 469
3 468 469 470
3 106 105 104
3 106 46 105
3 107 108 21
3 109 108 107
3 109 47 108
3 109 110 47
3 471 110 472
3 473 472 109
3 471 472 473
3 475 474 110
3 111 112 48
3 113 112 111
3 113 50 112
3 114 115 24
3 116 115 114
3 116 51 115
3 116 117 51
3 118 117 116
3 118 52 117
3 119 120 37
3 121 120 119
3 121 53 120
3 122 123 27
3 124 123 122
3 124 54 123
3 124 125 54
3 126 125 124
3 126 55 125
3 126 127 55
3 128 127 126
3 128 56 127
3 129 130 29
3 131 130 129
3 131 57 130
3 131 476 478
3 478 477 57
3 476 477 478
3 132 479 481
3 481 480 131
3 479 480 481
3 132 482 483
3 133 484 485
3 133 486 488
3 486 58 487
3 486 487 488
3 133 134 58
3 135 134 133
3 135 59 134
3 136 137 31
3 138 137 136
3 138 60 137
3 138 489 491
3 491 490 60
3 489 490 491
3 493 492 138
3 139 494 496
3 494 140 495
3 494 495 496
3 141 140 139
3 141 61 140
3 141 142 61
3 111 142 141
3 111 48 142
3 143 144 49
3 145 144 143
3 145 62 144
3 146 147 33
3 148 147 146
3 148 63 147
3 148 149 63
3 150 149 148
3 150 64 149
3 497 65 498
3 151 499 500
3 151 501 503
3 501 66 502
3 501 502 503
3 151 152 66
3 504 152 505
3 506 505 151
3 504 505 506
3 507 67 508
3 509 508 152
3 507 508 509
3 511 510 67
3 153 512 514
3 514 513 42
3 512 513 514
3 516 515 153
3 154 517 518
3 154 519 520
3 154 521 522
3 155 523 525
3 525 524 154
3 523 524 525
3 155 526 528
3 526 5 527
3 526 527 528
3 156 529 531
3 529 157 530
3 529 530 531
3 532 157 533
3 534 533 156
3 532 533 534
3 536 535 157
3 538 537 17
3 539 93 540
3 541 93 542
3 543 7 544
3 545 544 93
3 543 544 545
3 158 159 8
3 546 159 547
3 548 547 158
3 546 547 548
3 550 549 159
3 71 551 553
3 553 552 18
3 551 552 553
3 555 554 71
3 160 556 557
3 160 558 559
3 160 560 562
3 560 99 561
3 560 561 562
3 161 99 160
3 161 9 99
3 162 163 4
3 164 163 162
3 164 21 163
3 74 164 20
3 165 164 74
3 165 21 164
3 165 107 21
3 166 107 165
3 166 563 565
3 565 564 107
3 563 564 565
3 166 566 567
3 569 568 166
3 76 570 572
3 572 571 22
3 570 571 572
3 574 573 76
3 167 168 10
3 169 168 167
3 169 24 168
3 79 169 23
3 170 169 79
3 170 24 169
3 170 114 24
3 171 114 170
3 171 12 114
3 172 173 6
3 174 173 172
3 174 27 173
3 82 174 26
3 175 174 82
3 175 27 174
3 175 122 27
3 176 122 175
3 176 13 122
3 176 177 13
3 178 177 176
3 178 29 177
3 84 178 28
3 179 178 84
3 179 29 178
3 179 129 29
3 180 129 179
3 180 14 129
3 575 31 576
3 577 31 578
3 579 136 580
3 581 580 31
3 579 580 581
3 181 582 584
3 582 136 583
3 582 583 584
3 181 585 587
3 587 586 136
3 585 586 587
3 181 588 589
3 591 590 181
3 592 139 593
3 167 594 596
3 594 139 595
3 594 595 596
3 167 10 139
3 182 183 11
3 184 183 182
3 184 33 183
3 87 184 32
3 185 184 87
3 185 33 184
3 185 146 33
3 186 146 185
3 186 15 146
3 597 104 598
3 187 599 601
3 599 104 600
3 599 600 601
3 187 4 104
3 89 602 603
3 605 604 89
3 606 187 607
3 188 608 610
3 608 187 609
3 608 609 610
3 188 4 187
3 188 162 4
3 189 162 188
3 189 20 162
3 91 189 35
3 190 189 91
3 190 20 189
3 190 73 20
3 191 73 190
3 191 1 73
3 157 611 612
3 614 613 157
3 192 615 617
3 615 193 616
3 615 616 617
3 194 193 192
3 194 37 193
3 618 194 619
3 195 620 622
3 620 194 621
3 620 621 622
3 195 37 194
3 195 119 37
3 196 119 195
3 196 6 119
3 197 623 624
3 197 625 627
3 625 38 626
3 625 626 627
3 94 628 630
3 628 197 629
3 628 629 630
3 198 197 94
3 198 38 197
3 198 196 38
3 199 196 198
3 199 6 196
3 199 172 6
3 200 172 199
3 200 26 172
3 96 200 39
3 201 200 96
3 201 26 200
3 201 81 26
3 202 81 201
3 202 3 81
3 192 631 632
3 192 633 634
3 203 204 2
3 635 204 636
3 637 636 203
3 635 636 637
3 639 638 204
3 641 640 41
3 159 642 644
3 644 643 8
3 642 643 644
3 646 645 159
3 647 42 648
3 205 649 650
3 205 651 653
3 651 42 652
3 651 652 653
3 205 153 42
3 206 153 205
3 206 654 656
3 656 655 153
3 654 655 656
3 657 43 658
3 100 659 660
3 207 661 663
3 663 662 100
3 661 662 663
3 207 664 666
3 664 43 665
3 664 665 666
3 207 206 43
3 667 206 668
3 669 668 207
3 667 668 669
3 671 670 206
3 102 672 674
3 674 673 44
3 672 673 674
3 208 675 677
3 677 676 102
3 675 676 677
3 208 678 679
3 208 680 681
3 683 682 208
3 209 684 685
3 209 686 688
3 686 19 687
3 686 687 688
3 105 689 691
3 689 209 690
3 689 690 691
3 210 209 105
3 210 19 209
3 210 161 19
3 211 161 210
3 211 9 161
3 163 106 4
3 212 106 163
3 212 46 106
3 108 212 21
3 213 212 108
3 213 46 212
3 213 211 46
3 214 211 213
3 214 9 211
3 214 103 9
3 215 103 214
3 215 45 103
3 110 215 47
3 692 215 693
3 694 693 110
3 692 693 694
3 695 45 696
3 697 696 215
3 695 696 697
3 699 698 45
3 216 217 0
3 218 217 216
3 218 49 217
3 112 218 48
3 219 218 112
3 219 49 218
3 219 143 49
3 220 143 219
3 220 11 143
3 168 113 10
3 221 113 168
3 221 50 113
3 115 221 24
3 222 221 115
3 222 50 221
3 222 220 50
3 223 220 222
3 223 11 220
3 223 182 11
3 224 182 223
3 224 32 182
3 117 224 51
3 225 224 117
3 225 32 224
3 225 86 32
3 226 86 225
3 226 2 86
3 193 700 702
3 700 80 701
3 700 701 702
3 227 80 193
3 227 25 80
3 120 227 37
3 228 227 120
3 228 25 227
3 228 171 25
3 229 171 228
3 229 12 171
3 173 121 6
3 230 121 173
3 230 53 121
3 123 230 27
3 231 230 123
3 231 53 230
3 231 229 53
3 232 229 231
3 232 12 229
3 232 118 12
3 233 118 232
3 233 52 118
3 125 233 54
3 234 233 125
3 234 52 233
3 234 226 52
3 235 226 234
3 235 2 226
3 235 203 2
3 236 203 235
3 236 41 203
3 127 236 55
3 237 236 127
3 237 41 236
3 237 98 41
3 238 98 237
3 238 8 98
3 177 128 13
3 239 128 177
3 239 56 128
3 130 239 29
3 240 239 130
3 240 56 239
3 240 238 56
3 241 238 240
3 241 8 238
3 241 158 8
3 703 158 704
3 705 704 241
3 703 704 705
3 706 18 707
3 708 707 158
3 706 707 708
3 710 709 57
3 242 711 712
3 242 713 715
3 713 18 714
3 713 714 715
3 242 716 718
3 718 717 18
3 716 717 718
3 720 719 242
3 721 7 722
3 243 723 724
3 243 725 727
3 725 7 726
3 725 726 727
3 243 97 7
3 728 97 729
3 730 729 243
3 728 729 730
3 731 40 732
3 733 732 97
3 731 732 733
3 734 40 735
3 736 202 737
3 738 737 40
3 736 737 738
3 244 739 741
3 739 202 740
3 739 740 741
3 244 3 202
3 742 244 743
3 245 744 746
3 744 244 745
3 744 745 746
3 245 3 244
3 245 85 3
3 246 85 245
3 246 30 85
3 134 246 58
3 247 246 134
3 247 30 246
3 247 180 30
3 248 180 247
3 248 14 180
3 747 135 748
3 249 749 751
3 749 135 750
3 749 750 751
3 249 59 135
3 137 249 31
3 250 249 137
3 250 59 249
3 250 248 59
3 251 248 250
3 251 14 248
3 251 132 14
3 752 132 753
3 754 753 251
3 752 753 754
3 756 755 132
3 758 757 60
3 140 759 760
3 252 761 763
3 763 762 140
3 761 762 763
3 252 764 765
3 252 766 767
3 253 768 770
3 770 769 252
3 768 769 770
3 253 771 772
3 253 773 775
3 773 156 774
3 773 774 775
3 254 156 253
3 254 17 156
3 142 254 61
3 255 254 142
3 255 17 254
3 255 70 17
3 216 70 255
3 216 0 70
3 217 69 0
3 256 69 217
3 256 16 69
3 144 256 49
3 257 256 144
3 257 16 256
3 257 155 16
3 258 155 257
3 258 5 155
3 183 145 11
3 259 145 183
3 259 62 145
3 147 259 33
3 260 259 147
3 260 62 259
3 260 258 62
3 261 258 260
3 261 5 258
3 261 92 5
3 262 92 261
3 262 36 92
3 149 262 63
3 263 262 149
3 263 36 262
3 263 191 36
3 264 191 263
3 264 1 191
3 204 88 2
3 265 88 204
3 265 34 88
3 776 265 777
3 266 778 780
3 778 265 779
3 778 779 780
3 266 34 265
3 266 186 34
3 267 186 266
3 267 15 186
3 781 65 782
3 268 783 784
3 268 785 787
3 785 65 786
3 785 786 787
3 268 267 65
3 269 267 268
3 269 15 267
3 269 150 15
3 270 150 269
3 270 64 150
3 152 270 66
3 271 270 152
3 271 64 270
3 271 264 64
3 272 264 271
3 272 1 264
3 272 77 1
3 788 77 789
3 790 789 272
3 788 789 790
3 792 791 77
3 794 793 67
3 795 72 796
3 797 72 798
3 800 799 72
3 802 801 42
