ply
format ascii 1.0
element vertex 97
property float x
property float y
property float z
element face 76
property list uchar int vertex_index
end_header
-42.32148 63.32159 -17.993347
-37.350784 67.937393 -18.795151
-35.311974 72.851852 -15.909534
-38.710472 62.148563 -20.700077
-38.211216 70.55574 -15.637451
-40.985607 60.125309 -20.20549
-40.646946 62.917507 -19.466927
-34.316795 70.1465 -19.09388
-35.220409 67.261765 -20.179741
-40.044003 65.645996 -18.46484
-36.400024 70.54985 -17.478226
-39.054424 59.164715 -21.333714
-36.544205 61.04472 -21.76067
-38.131653 65.104141 -19.863037
-35.970768 64.193253 -21.056404
-41.484213 63.119549 -18.730137
-41.660162 61.83453 -19.167561
-42.497429 62.036572 -18.430771
-33.159797 69.746872 -19.811982
-32.664663 71.192307 -19.272499
-43.214486 62.170189 -17.632888
-43.023589 63.336277 -17.118926
-42.497429 62.036572 -18.430771
-43.214486 62.170189 -17.632888
-34.296841 72.799049 -16.84096
-34.840866 71.648048 -17.625305
-35.855999 71.700851 -16.69388
-34.422575 65.203781 -21.230866
-35.595588 65.727509 -20.618073
-34.047395 66.738037 -20.792534
-34.792118 63.570189 -21.59026
-34.422575 65.203781 -21.230866
-38.972712 70.369278 -14.596559
-39.504202 69.335777 -15.479643
-37.640817 71.564224 -14.73646
-38.972712 70.369278 -14.596559
-36.191197 72.71228 -14.872501
-36.761595 71.703796 -15.773492
-37.640817 71.564224 -14.73646
-41.829493 60.438431 -19.536842
-41.839396 59.146157 -19.824764
-40.816277 61.521408 -19.836208
-41.829493 60.438431 -19.536842
-41.660162 61.83453 -19.167561
-33.611604 68.304505 -20.354912
-34.768602 68.704133 -19.63681
-33.159797 69.746872 -19.811982
-34.047395 66.738037 -20.792534
-33.611604 68.304505 -20.354912
-40.861391 65.724563 -17.636942
-41.182741 64.483793 -18.229093
-42.00013 64.56236 -17.401196
-39.630753 66.933815 -17.826033
-40.861391 65.724563 -17.636942
-38.284143 68.079513 -17.991188
-38.697393 66.791695 -18.629995
-39.630753 66.933815 -17.826033
-38.71436 69.388687 -16.412338
-39.504202 69.335777 -15.479643
-37.808763 69.385742 -17.332726
-38.71436 69.388687 -16.412338
-37.30562 70.552795 -16.557838
-36.875404 69.243622 -18.136688
-38.284143 68.079513 -17.991188
-37.808763 69.385742 -17.332726
-33.799251 71.446373 -18.433132
-35.35841 70.348175 -18.286053
-34.840866 71.648048 -17.625305
-32.664663 71.192307 -19.272499
-33.799251 71.446373 -18.433132
-42.00013 64.56236 -17.401196
-43.023589 63.336277 -17.118926
-41.005207 58.736973 -20.454174
-41.839396 59.146157 -19.824764
-40.039615 58.256676 -21.018286
-41.005207 58.736973 -20.454174
-40.020015 59.645012 -20.769602
-39.092833 57.698574 -21.562685
-40.039615 58.256676 -21.018286
-37.983453 58.537117 -21.831387
-39.092833 57.698574 -21.562685
-36.728344 59.47712 -22.044865
-37.983453 58.537117 -21.831387
-37.799314 60.104717 -21.547192
-35.372887 60.346504 -22.248162
-36.728344 59.47712 -22.044865
-35.078836 61.995922 -21.942393
-36.257486 62.618986 -21.408537
-34.792118 63.570189 -21.59026
-35.372887 60.346504 -22.248162
-35.078836 61.995922 -21.942393
-34.716698 73.81459 -15.006353
-36.191197 72.71228 -14.872501
-33.725597 73.915054 -16.057634
-34.716698 73.81459 -15.006353
-34.296841 72.799049 -16.84096
-33.725597 73.915054 -16.057634
3 0 15 17
3 15 6 16
3 15 16 17
3 19 18 7
3 0 20 21
3 0 22 23
3 2 10 4
3 2 24 26
3 26 25 10
3 24 25 26
3 3 11 5
3 3 12 11
3 1 13 9
3 27 14 28
3 29 28 8
3 27 28 29
3 31 30 14
3 32 4 33
3 34 4 35
3 36 2 37
3 38 37 4
3 36 37 38
3 39 5 40
3 6 41 43
3 41 5 42
3 41 42 43
3 6 3 5
3 7 8 1
3 44 8 45
3 46 45 7
3 44 45 46
3 48 47 8
3 49 9 50
3 51 50 0
3 49 50 51
3 52 9 53
3 54 1 55
3 56 55 9
3 54 55 56
3 4 57 58
3 10 59 61
3 61 60 4
3 59 60 61
3 10 62 64
3 62 1 63
3 62 63 64
3 10 7 1
3 65 7 66
3 67 66 10
3 65 66 67
3 69 68 7
3 70 0 71
3 5 72 73
3 11 74 76
3 76 75 5
3 74 75 76
3 11 77 78
3 11 79 80
3 12 81 83
3 83 82 11
3 81 82 83
3 12 84 85
3 9 6 0
3 13 6 9
3 13 3 6
3 8 13 1
3 14 13 8
3 14 3 13
3 14 12 3
3 86 12 87
3 88 87 14
3 86 87 88
3 90 89 12
3 91 2 92
3 93 2 94
3 96 95 2
