ply
format ascii 1.0
element vertex 822
property float x
property float y
property float z
element face 859
property list uchar int vertex_index
end_header
17.104214 -126.378906 -0.016056
3.62484 -98.800415 1.014847
13.334026 -74.56987 -2.105564
4.467888 -120.595085 -1.732639
2.215578 -110.527573 -0.653854
2.458542 -106.336746 -8.564226
8.464184 -86.885422 0.577958
3.275688 -92.553642 -5.13854
7.99288 -78.167175 -5.72003
10.066988 -126.653198 -1.48901
3.166445 -99.522499 9.137257
7.849922 -89.148964 16.277082
9.259214 -89.393875 7.417199
13.704596 -79.669525 4.778914
2.450436 -104.762596 0.245845
2.265038 -109.154083 -5.053541
2.148937 -102.971313 -3.50868
11.309196 -80.837891 -0.692741
7.766632 -83.216057 -2.506655
10.676249 -76.54631 -3.876448
1.209015 -105.015068 9.603779
2.320681 -99.273369 14.078753
10.444981 -84.566612 14.727353
8.627937 -89.176605 11.560843
11.447102 -84.665405 10.18141
12.06287 -84.619576 6.140661
12.929182 -80.21273 8.780594
6.871096 -124.336121 -1.787933
10.938772 -126.227127 -7.416
7.777819 -123.529396 -7.561543
5.247677 -87.382431 -7.959028
12.796566 -69.857094 -5.229876
2.903324 -115.879265 -1.351109
5.197063 -119.589027 -7.175062
3.314762 -114.743439 -6.339998
5.703695 -92.829529 1.206652
3.048992 -96.448593 -2.237713
4.998421 -89.834267 -1.836802
5.270361 -85.354935 -4.85932
7.178905 -79.742355 -8.052641
10.7612 -71.066315 -7.102386
9.58009 -72.174294 -9.078432
13.784653 -127.246292 -0.828331
3.574671 -120.582787 4.195117
1.990078 -116.045143 4.227386
1.524126 -110.806213 4.392855
2.1555 -105.243256 4.646094
3.805567 -99.642326 4.796871
4.765823 -94.155258 17.936649
5.279943 -94.019669 12.869998
6.043673 -94.297218 8.432982
6.277014 -94.188919 4.572034
9.201134 -88.884415 3.800022
11.973747 -83.532745 2.568504
13.802053 -77.900253 1.193374
12.661724 -75.525307 7.450027
13.661898 -74.336029 3.553209
14.008818 -71.924179 0.042767
28.959915 -116.55072 1.367325
23.814484 -120.918808 2.241598
14.514046 -127.277916 -6.529997
8.603985 -121.494148 -12.426931
18.867472 -125.632195 -0.838724
2.920362 -101.792244 0.675177
2.322983 -104.055443 -1.719412
2.696606 -100.960114 -1.137346
12.481852 -77.731682 -1.417446
10.942091 -78.872086 -2.281313
12.145452 -75.627533 -3.016037
2.11401 -99.306725 16.790951
11.275173 -82.399796 13.976517
10.967567 -84.581116 12.393229
11.866972 -82.412079 11.671248
12.392609 -82.45166 9.479191
12.349901 -80.252419 10.952389
5.565819 -122.614929 -1.801954
7.325418 -124.083466 -4.74901
6.014402 -122.29364 -4.697701
13.331127 -62.801777 -4.671482
2.446497 -113.267746 -1.039286
3.173569 -115.453659 -3.939552
2.62483 -112.803551 -3.490126
2.264393 -107.936264 -6.931314
2.722021 -110.919609 -7.775217
7.026041 -89.859726 0.993984
5.297098 -91.536224 -0.337931
6.605696 -88.395615 -0.535057
7.722197 -80.83728 -4.087997
6.27158 -84.297592 -3.586653
6.576427 -81.756538 -5.174473
6.011263 -82.669464 -6.434849
7.270607 -78.953979 -6.816069
11.939085 -65.312637 -11.267498
10.802307 -68.49913 -9.696398
10.855837 -68.960403 -10.732397
4.791172 -122.443161 4.216763
3.297352 -120.240067 7.213628
0.168879 -110.27285 12.876438
0.666769 -113.110565 10.061674
1.512682 -115.864647 7.159228
1.098518 -113.348816 7.129273
1.618189 -113.487213 4.293205
0.999264 -110.693771 7.105012
2.046038 -102.248528 9.393064
1.721817 -105.172585 7.055979
2.517368 -102.394333 7.001493
2.86224 -102.43277 4.751196
3.568848 -99.651375 6.896229
7.570206 -89.376381 18.839775
6.168472 -91.880081 19.74235
6.306145 -91.599365 17.092562
4.947517 -94.005539 15.324634
6.586668 -91.494522 14.583439
9.001888 -89.314407 9.418742
7.348808 -91.686234 10.021674
7.653753 -91.812317 7.964351
6.265377 -94.351784 6.434971
7.790993 -91.799446 6.04579
7.714254 -91.526779 4.255749
9.334444 -89.288788 5.548388
13.069986 -82.183792 5.456623
12.111958 -84.255013 4.30302
13.15303 -81.658539 3.617907
13.056374 -80.761322 1.87487
13.841389 -78.971962 2.941034
11.975588 -75.811897 9.552557
11.378366 -69.628883 4.449506
12.496719 -72.398895 4.905633
12.971453 -71.514709 3.054538
13.920546 -73.300568 1.753277
13.286192 -70.337738 1.300183
21.325127 -122.701927 2.861435
11.895288 -127.168289 -1.199242
14.034872 -127.433884 -3.636147
12.2043 -127.245407 -4.140402
11.489302 -125.512032 -10.166645
13.285423 -126.367973 -9.891291
5.445272 -118.652725 -9.570232
6.742176 -120.787132 -9.916603
7.072973 -119.570358 -12.113071
2.9849 -94.680077 -3.713945
2.402369 -98.115334 -4.320337
5.519045 -95.789124 -11.087992
2.215895 -107.683807 -0.213852
2.294422 -110.005745 -2.950329
2.19133 -107.080986 -2.344959
2.085176 -106.123116 -4.286915
2.051821 -104.783485 -6.02103
9.92923 -83.885117 -0.003981
8.050226 -85.24826 -0.961967
9.535164 -82.078217 -1.568441
9.261568 -79.890427 -3.145144
9.202028 -77.376053 -4.755344
0.273554 -107.598816 12.612359
0.688482 -107.781342 9.781874
1.571676 -102.092834 11.934004
2.708195 -99.365578 11.528292
9.269831 -86.808395 15.49091
8.219166 -89.09446 13.8475
9.718979 -86.797546 13.117979
10.160742 -86.893951 10.877611
10.530489 -87.004349 8.773277
10.761808 -87.009613 6.802726
11.82971 -84.717972 8.097502
12.807673 -82.413666 7.40766
13.392836 -80.053421 6.72268
8.377954 -125.699051 -1.685291
10.442335 -126.608574 -4.486588
8.805931 -125.540565 -4.684271
9.29277 -125.061012 -7.567156
9.784971 -124.261414 -10.237341
4.018446 -90.109077 -6.546137
4.576393 -91.170601 -8.382732
5.786589 -92.077751 -10.250731
13.78348 -71.373878 -2.69133
13.034046 -72.359116 -3.68811
13.3388 -66.58255 -5.676107
3.579201 -118.3339 -1.582422
4.879831 -120.228584 -4.543024
3.929354 -117.936806 -4.290421
4.159973 -117.266426 -6.814556
4.328499 -116.289406 -9.102764
2.678513 -112.034508 -5.749233
3.414524 -113.708771 -8.50518
4.558155 -95.809082 1.206823
3.318495 -97.826485 -0.671345
4.189539 -94.680305 -0.38895
3.897465 -93.142715 -1.90234
3.841341 -91.221489 -3.372385
6.31192 -86.527443 -2.048807
4.952444 -87.758453 -3.332134
4.152798 -88.957108 -4.839354
4.9091 -86.39257 -6.330673
6.127539 -83.565285 -7.855024
7.770422 -80.506004 -9.400389
10.595169 -73.921288 -5.487051
9.422367 -74.596474 -6.400364
11.211327 -68.055603 -8.69368
9.955336 -71.61573 -8.059738
8.613678 -75.261353 -7.393587
8.350473 -75.935822 -8.491791
15.853554 -126.264854 1.845835
15.608684 -126.935974 -0.407602
13.865156 -126.692421 1.794339
9.897465 -126.358772 1.474332
5.125292 -122.661522 1.191267
4.002266 -120.707573 1.197783
2.641453 -118.42952 4.19626
3.124041 -118.48893 1.26047
2.489561 -116.06279 1.382415
2.099564 -113.477669 1.56463
1.95612 -110.773079 1.802267
1.210091 -107.952667 7.084181
1.705326 -108.045578 4.516973
2.060305 -107.982246 2.080703
2.410133 -105.135513 2.373048
2.999653 -102.261917 2.640475
3.818533 -99.387688 2.83629
3.421959 -96.618233 16.064873
3.699539 -96.60096 13.489043
4.102879 -96.709244 11.07645
6.961134 -91.545532 12.226169
5.680735 -94.147324 10.574906
4.520969 -96.866875 8.82156
4.835949 -96.967171 6.714516
4.956825 -96.891808 4.747017
4.850515 -96.532417 2.913518
6.06971 -93.704552 2.834467
7.43511 -90.898857 2.579584
8.885311 -88.097176 2.152826
10.806782 -86.78669 4.958284
10.653673 -86.230957 3.22552
10.336044 -85.272896 1.581878
11.683119 -82.398308 0.913405
12.81213 -79.45282 0.205173
13.614492 -76.429573 -0.482485
12.384439 -78.063843 10.242024
13.020103 -77.913193 8.098582
13.540014 -77.607903 6.063081
11.882341 -73.029541 6.85565
13.234896 -75.058914 5.450236
13.9104 -77.055977 4.135717
14.108797 -76.184433 2.308861
14.13282 -74.949181 0.569772
14.007088 -73.33902 -1.093899
13.950823 -70.20816 -1.582958
17.874174 -125.49424 1.545321
27.610416 -118.537842 -0.925226
26.362089 -118.840683 1.719473
25.000938 -120.773277 -0.455549
22.478207 -122.732605 0.179888
20.079773 -124.328201 0.895738
15.842052 -127.194878 -2.968597
16.338959 -127.128059 -5.752319
12.692511 -126.977081 -7.078756
6.408199 -121.688797 -7.425409
8.195843 -122.669548 -10.143696
10.276794 -123.138985 -12.611786
9.076221 -119.989586 -14.365036
10.811666 -121.686455 -14.633444
2.466993 -99.734489 -2.797476
2.094252 -101.496254 -5.119896
17.299811 -126.480961 -1.062043
18.181441 -126.107605 -1.473377
17.985843 -126.00555 -0.42739
2.136893 -99.397118 18.221758
1.609716 -100.668735 17.136204
11.483885 -81.337608 13.603237
11.131587 -81.382477 14.787384
11.779784 -81.34375 12.450603
11.571072 -82.405937 12.823882
11.483885 -81.337608 13.603237
12.021248 -80.26392 12.091173
12.108436 -81.332249 11.311819
11.779784 -81.34375 12.450603
13.004517 -62.402697 -4.033088
13.366459 -63.921053 -4.016313
2.684597 -107.884949 -9.049601
2.587522 -108.684708 -8.233144
2.361467 -107.136505 -7.74777
2.929326 -106.952247 -9.788919
2.684597 -107.884949 -9.049601
11.619359 -67.317657 -11.523402
11.397461 -67.13652 -10.999948
12.160983 -65.493774 -11.790952
11.161037 -69.193878 -11.263897
11.619359 -67.317657 -11.523402
3.284617 -119.972546 8.713435
3.982046 -121.108086 7.21643
0.585458 -111.804451 9.998056
0.417824 -111.691708 11.469056
0.336513 -110.385593 11.405438
0.801333 -111.923576 8.531856
0.882644 -113.229691 8.595474
0.585458 -111.804451 9.998056
0.751706 -110.596054 8.519725
1.048891 -112.021293 7.117142
0.801333 -111.923576 8.531856
7.710064 -89.262673 17.558428
8.21536 -88.177608 18.412917
8.355218 -88.0639 17.131571
12.431817 -70.060181 2.85665
12.17491 -70.571796 3.752022
11.635274 -69.117267 3.554134
12.589187 -69.471695 1.979473
13.128823 -70.926223 2.17736
12.431817 -70.060181 2.85665
12.774697 -68.829521 1.13435
12.589187 -69.471695 1.979473
12.712136 -125.465683 -11.313987
11.776351 -124.988019 -11.402705
6.3928 -118.481788 -11.8949
6.259123 -119.111542 -10.841652
5.578949 -118.022972 -10.62348
2.970578 -94.339401 -5.437131
2.825184 -95.402618 -4.724833
3.130294 -93.61686 -4.426242
5.499532 -97.575974 -11.593122
6.47458 -96.093384 -12.014769
0.36949 -106.174331 13.873362
0.178644 -107.526409 14.091114
0.510838 -106.226112 12.454144
0.36949 -106.174331 13.873362
1.946179 -100.683101 13.006379
1.397596 -102.048789 13.282704
1.772099 -100.639057 14.355078
10.183038 -84.62751 15.949585
10.548903 -83.529335 15.55426
9.857406 -85.687504 15.109132
9.595463 -85.748401 16.331363
10.183038 -84.62751 15.949585
6.834939 -90.532772 -10.805727
6.026534 -90.173992 -9.958569
6.672605 -92.418995 -11.149822
6.834939 -90.532772 -10.805727
13.658316 -70.236698 -3.457016
13.790468 -69.777569 -2.906559
13.42202 -65.002641 -5.779765
13.479724 -66.239147 -5.119107
13.312005 -65.243833 -6.352738
13.42202 -65.002641 -5.779765
3.512975 -113.013492 -9.449132
3.068272 -112.31419 -8.140199
3.166723 -111.618911 -9.08415
3.982705 -114.341496 -9.806428
3.512975 -113.013492 -9.449132
12.34255 -71.524982 -4.916421
12.461289 -72.775993 -4.145538
12.915306 -71.108105 -4.458993
10.678185 -72.493802 -6.294719
11.192882 -72.208561 -5.830811
11.275897 -70.781075 -6.638478
11.584436 -66.510613 -9.457763
11.761611 -66.344642 -8.935542
14.10113 -126.222297 3.008996
14.859355 -126.478637 1.820087
15.095329 -126.008514 3.034744
9.95307 -126.043884 2.899821
10.873508 -126.549076 1.557411
4.772308 -94.314648 19.313868
5.473633 -93.177059 20.216718
5.467148 -93.01767 18.839499
4.057532 -95.47575 18.367318
4.772308 -94.314648 19.313868
4.093891 -95.386746 17.000761
3.3856 -96.707238 17.43143
4.057532 -95.47575 18.367318
11.797581 -77.034096 10.996357
12.026037 -78.110093 11.363772
11.310237 -71.721779 6.596829
10.941505 -72.016655 7.58861
15.095329 -126.008514 3.034744
16.222285 -125.701133 2.901527
29.623558 -116.333332 0.094428
30.28049 -115.33984 1.299189
28.285165 -117.544281 0.221049
28.948808 -117.326893 -1.051848
29.623558 -116.333332 0.094428
25.088287 -119.879745 1.980536
25.76015 -118.893474 3.031476
24.486348 -119.932537 3.292539
19.496488 -124.223988 2.18627
20.70245 -123.515064 1.878587
20.119166 -123.410851 3.169119
18.393689 -124.807007 2.511062
18.976973 -124.911221 1.22053
19.496488 -124.223988 2.18627
15.761188 -127.011704 -7.555311
16.673645 -126.936775 -7.166472
15.426502 -127.202988 -6.141158
14.21331 -126.57687 -9.631643
14.572166 -126.162441 -10.959532
9.394604 -119.065601 -15.15182
8.289607 -119.00399 -14.169846
12.092641 -121.520775 -15.56323
11.139217 -120.790333 -15.455622
11.743102 -122.383294 -14.696469
12.092641 -121.520775 -15.56323
2.21161 -100.568367 -5.84415
2.248311 -99.805794 -4.720116
2.365668 -98.877907 -5.444371
2.178286 -102.277664 -6.332491
2.21161 -100.568367 -5.84415
19.275112 -125.618778 -2.119044
19.995137 -124.974178 -1.290288
19.275112 -125.618778 -2.119044
18.181441 -126.107605 -1.473377
1.668763 -100.655735 15.711177
1.609716 -100.668735 17.136204
2.217345 -99.290047 15.434852
1.772099 -100.639057 14.355078
1.668763 -100.655735 15.711177
10.963999 -82.445927 15.178842
11.131587 -81.382477 14.787384
10.860077 -83.483204 14.351935
10.548903 -83.529335 15.55426
10.963999 -82.445927 15.178842
5.757078 -87.826332 -8.812717
6.092534 -85.892571 -8.670148
13.475887 -64.34876 -4.616795
13.366459 -63.921053 -4.016313
13.418183 -63.112255 -5.277452
13.475887 -64.34876 -4.616795
2.816336 -110.17638 -8.655096
2.493207 -109.427936 -7.353266
2.587522 -108.684708 -8.233144
3.166723 -111.618911 -9.08415
2.816336 -110.17638 -8.655096
12.246492 -68.817749 -6.445353
12.29358 -70.176464 -5.702223
12.749478 -68.498379 -5.973006
11.338878 -69.340508 -7.406324
11.275897 -70.781075 -6.638478
11.370696 -66.905883 -10.481948
11.379926 -66.732376 -9.959122
11.948315 -65.139129 -10.744672
10.314224 -70.852985 -10.448799
9.676351 -72.45993 -9.621816
10.217963 -70.567349 -9.905414
10.314224 -70.852985 -10.448799
11.161037 -69.193878 -11.263897
4.728956 -122.209633 5.717997
5.538528 -123.197178 4.234916
4.044262 -121.341614 5.715196
4.728956 -122.209633 5.717997
3.982046 -121.108086 7.21643
0.306993 -111.543495 12.976449
0.134611 -110.164498 14.396205
0.555938 -112.962352 11.569066
0.306993 -111.543495 12.976449
0.417824 -111.691708 11.469056
0.924229 -114.334129 10.109541
0.555938 -112.962352 11.569066
1.089726 -114.487606 8.610451
1.347185 -115.71117 8.658318
0.924229 -114.334129 10.109541
8.042102 -88.34644 19.712723
8.687256 -87.147667 19.285865
8.21536 -88.177608 18.412917
7.484925 -89.572433 20.178053
8.042102 -88.34644 19.712723
6.869339 -90.628231 19.291062
6.784059 -90.824284 20.62934
7.484925 -89.572433 20.178053
11.170577 -74.796856 10.298386
11.593156 -75.908123 10.651623
11.568058 -74.639248 9.228235
11.170577 -74.796856 10.298386
11.911126 -74.495953 8.17697
12.318656 -75.668602 8.501292
11.568058 -74.639248 9.228235
11.937542 -71.013889 4.67757
11.617425 -71.406456 5.621821
11.058249 -70.02145 5.393757
13.363706 -69.59597 0.470921
13.72502 -70.38919 -0.157787
13.647505 -71.130958 0.671475
13.363706 -69.59597 0.470921
12.774697 -68.829521 1.13435
29.62742 -115.54813 2.523281
30.28049 -115.33984 1.299189
23.217979 -120.877629 3.569331
24.486348 -119.932537 3.292539
21.973301 -121.769188 3.87925
22.569806 -121.810367 2.551516
23.217979 -120.877629 3.569331
20.714323 -122.560517 4.180318
21.973301 -121.769188 3.87925
20.119166 -123.410851 3.169119
20.714323 -122.560517 4.180318
13.610197 -125.893653 -11.17631
12.387363 -125.940003 -10.028968
12.712136 -125.465683 -11.313987
14.572166 -126.162441 -10.959532
13.610197 -125.893653 -11.17631
2.533919 -97.120247 -5.02803
2.693634 -96.397706 -4.017141
2.825184 -95.402618 -4.724833
2.365668 -98.877907 -5.444371
2.533919 -97.120247 -5.02803
4.729831 -97.161255 -10.565579
4.827848 -95.344643 -10.093818
4.729831 -97.161255 -10.565579
5.499532 -97.575974 -11.593122
12.464396 -63.592166 -11.458282
11.948315 -65.139129 -10.744672
12.631044 -63.716735 -12.002367
12.464396 -63.592166 -11.458282
12.160983 -65.493774 -11.790952
12.631044 -63.716735 -12.002367
0.126306 -108.863426 14.223154
0.134611 -110.164498 14.396205
0.221217 -108.935833 12.744398
0.126306 -108.863426 14.223154
0.178644 -107.526409 14.091114
0.38885 -109.048576 11.273398
0.336513 -110.385593 11.405438
0.221217 -108.935833 12.744398
0.481018 -107.690079 11.197116
0.596315 -109.139839 9.858156
0.38885 -109.048576 11.273398
0.718303 -106.317375 11.038901
0.481018 -107.690079 11.197116
0.510838 -106.226112 12.454144
0.978569 -104.934238 10.949854
0.948748 -106.398205 9.692826
0.718303 -106.317375 11.038901
1.1599 -103.473121 12.114966
1.397596 -102.048789 13.282704
1.390346 -103.553951 10.768891
0.978569 -104.934238 10.949854
1.1599 -103.473121 12.114966
9.065172 -86.893616 16.738484
9.595463 -85.748401 16.331363
8.559876 -87.978679 15.883996
8.355218 -88.0639 17.131571
9.065172 -86.893616 16.738484
10.343341 -68.651169 5.183919
11.058249 -70.02145 5.393757
10.670939 -68.19247 4.274155
10.343341 -68.651169 5.183919
11.635274 -69.117267 3.554134
10.670939 -68.19247 4.274155
10.924186 -124.362709 -11.438053
11.776351 -124.988019 -11.402705
10.637137 -124.886723 -10.201993
3.69542 -91.953868 -6.812623
3.324041 -93.176151 -6.108824
3.647067 -91.331359 -5.842339
3.974394 -92.484631 -7.73092
3.69542 -91.953868 -6.812623
4.29742 -90.639839 -7.464435
4.356522 -93.035381 -8.741188
3.974394 -92.484631 -7.73092
5.421436 -89.720417 -9.02457
4.912035 -89.276516 -8.17088
5.757078 -87.826332 -8.812717
5.181491 -91.624176 -9.316731
5.421436 -89.720417 -9.02457
6.026534 -90.173992 -9.958569
4.96162 -93.488957 -9.675187
4.356522 -93.035381 -8.741188
5.181491 -91.624176 -9.316731
5.652817 -93.933437 -10.669362
4.827848 -95.344643 -10.093818
4.96162 -93.488957 -9.675187
6.538833 -94.274681 -11.568453
5.652817 -93.933437 -10.669362
6.672605 -92.418995 -11.149822
6.47458 -96.093384 -12.014769
6.538833 -94.274681 -11.568453
13.283599 -70.729317 -3.955406
13.408763 -71.866497 -3.18972
13.658316 -70.236698 -3.457016
13.164859 -69.478306 -4.726289
12.915306 -71.108105 -4.458993
13.283599 -70.729317 -3.955406
13.435976 -67.841034 -4.949404
13.479724 -66.239147 -5.119107
13.067683 -68.219822 -5.452991
13.164859 -69.478306 -4.726289
13.435976 -67.841034 -4.949404
13.020595 -66.861107 -6.196121
12.749478 -68.498379 -5.973006
13.067683 -68.219822 -5.452991
13.020595 -66.861107 -6.196121
13.312005 -65.243833 -6.352738
13.038756 -61.336326 -4.607369
13.004517 -62.402697 -4.033088
13.333037 -61.616478 -5.247433
13.038756 -61.336326 -4.607369
13.418183 -63.112255 -5.277452
13.333037 -61.616478 -5.247433
5.020563 -116.841313 -10.389747
5.578949 -118.022972 -10.62348
4.886885 -117.471066 -9.336498
4.439692 -115.631813 -10.105221
3.871511 -114.999088 -8.803972
3.982705 -114.341496 -9.806428
5.020563 -116.841313 -10.389747
4.439692 -115.631813 -10.105221
6.532465 -83.983998 -8.618146
6.092534 -85.892571 -8.670148
5.687608 -85.473858 -7.907026
7.353906 -82.454357 -9.390829
6.532465 -83.983998 -8.618146
6.94898 -82.035645 -8.627707
8.391655 -80.849514 -10.101375
7.353906 -82.454357 -9.390829
12.016993 -74.410202 -3.809502
12.589749 -73.993324 -3.352073
12.461289 -72.775993 -4.145538
11.282391 -74.869591 -4.239707
11.410851 -76.086922 -3.446242
12.016993 -74.410202 -3.809502
12.34255 -71.524982 -4.916421
12.29358 -70.176464 -5.702223
11.241851 -73.55708 -5.045008
11.192882 -72.208561 -5.830811
10.635709 -75.233799 -4.68175
11.282391 -74.869591 -4.239707
11.241851 -73.55708 -5.045008
11.563942 -67.835151 -8.201971
11.761611 -66.344642 -8.935542
10.986263 -69.560959 -7.898033
11.338878 -69.340508 -7.406324
11.563942 -67.835151 -8.201971
11.006817 -68.277366 -9.195039
11.584436 -66.510613 -9.457763
11.379926 -66.732376 -9.959122
9.061542 -74.340694 -9.328496
8.965281 -74.055058 -8.785111
9.676351 -72.45993 -9.621816
8.539994 -76.272438 -9.089194
9.061542 -74.340694 -9.328496
7.95421 -78.175705 -8.869619
7.764689 -77.839089 -8.272216
8.539994 -76.272438 -9.089194
8.249968 -78.55753 -9.543494
7.474664 -80.124179 -8.726515
7.95421 -78.175705 -8.869619
8.764463 -78.87376 -10.170893
8.249968 -78.55753 -9.543494
8.391655 -80.849514 -10.101375
8.764463 -78.87376 -10.170893
12.998292 -126.324433 3.05648
14.10113 -126.222297 3.008996
12.857354 -126.715901 1.717414
12.998292 -126.324433 3.05648
12.817103 -126.992836 0.406079
13.824905 -126.969357 0.483004
12.857354 -126.715901 1.717414
11.87242 -126.953834 0.220624
12.83997 -127.20729 -1.013786
12.817103 -126.992836 0.406079
10.896377 -126.763531 0.137545
11.87242 -126.953834 0.220624
10.873508 -126.549076 1.557411
8.968181 -125.708134 2.884353
9.95307 -126.043884 2.899821
8.995162 -125.947422 1.404393
8.968181 -125.708134 2.884353
9.079923 -126.094635 -0.077277
9.982226 -126.505985 -0.007339
8.995162 -125.947422 1.404393
8.235406 -125.617561 -0.175418
9.222471 -126.176125 -1.58715
9.079923 -126.094635 -0.077277
7.435147 -124.994411 -0.223693
8.235406 -125.617561 -0.175418
6.681718 -124.312947 -0.275014
7.624525 -125.017586 -1.736612
7.435147 -124.994411 -0.223693
5.641756 -123.366467 2.727334
5.538528 -123.197178 4.234916
5.808816 -123.475647 1.214586
5.641756 -123.366467 2.727334
4.958232 -122.552342 2.704015
5.998194 -123.498822 -0.298333
6.681718 -124.312947 -0.275014
5.808816 -123.475647 1.214586
2.674146 -119.008358 8.712613
3.284617 -119.972546 8.713435
2.771168 -119.211277 7.201941
2.674146 -119.008358 8.712613
2.909828 -119.382637 5.692685
3.436012 -120.411427 5.704372
2.771168 -119.211277 7.201941
1.878833 -117.023567 7.174741
1.347185 -115.71117 8.658318
2.443218 -118.306004 5.693257
1.878833 -117.023567 7.174741
2.077068 -117.147084 5.677744
3.108062 -119.506153 4.195688
2.909828 -119.382637 5.692685
2.443218 -118.306004 5.693257
0.843873 -109.237556 8.443443
0.751706 -110.596054 8.519725
0.596315 -109.139839 9.858156
6.177725 -92.097286 21.126173
6.784059 -90.824284 20.62934
6.177725 -92.097286 21.126173
5.473633 -93.177059 20.216718
2.731625 -98.051484 17.794469
2.136893 -99.397118 18.221758
2.767984 -97.962479 16.427912
2.731625 -98.051484 17.794469
3.3856 -96.707238 17.43143
12.008768 -79.20438 11.718955
12.021248 -80.26392 12.091173
12.36717 -79.158131 10.597207
12.008768 -79.20438 11.718955
12.026037 -78.110093 11.363772
12.180014 -76.93787 9.897291
11.797581 -77.034096 10.996357
11.593156 -75.908123 10.651623
11.521434 -73.24807 7.879781
10.941505 -72.016655 7.58861
12.272032 -74.277424 7.152838
11.911126 -74.495953 8.17697
11.521434 -73.24807 7.879781
12.18953 -72.714218 5.880641
11.310237 -71.721779 6.596829
11.617425 -71.406456 5.621821
13.874139 -69.19471 -2.352373
13.790468 -69.777569 -2.906559
13.867152 -70.791019 -2.137144
13.696022 -69.531181 -0.97065
13.97982 -71.06617 -0.770096
13.72502 -70.38919 -0.157787
13.706685 -68.642273 -1.749696
13.696022 -69.531181 -0.97065
13.874139 -69.19471 -2.352373
13.706685 -68.642273 -1.749696
17.232594 -125.315827 2.75127
18.393689 -124.807007 2.511062
16.863864 -125.879547 1.695578
17.232594 -125.315827 2.75127
16.222285 -125.701133 2.901527
28.271894 -118.308708 -2.234571
28.948808 -117.326893 -1.051848
26.91608 -119.489578 -2.042826
27.577558 -119.260445 -3.352171
28.271894 -118.308708 -2.234571
28.337212 -116.687149 2.64241
29.62742 -115.54813 2.523281
27.0383 -117.832131 2.818484
26.43636 -117.884922 4.130487
25.76015 -118.893474 3.031476
27.661002 -117.695701 1.543399
28.337212 -116.687149 2.64241
27.0383 -117.832131 2.818484
25.611342 -120.607296 -1.807988
26.91608 -119.489578 -2.042826
26.305677 -119.655559 -0.690387
24.302692 -121.662991 -1.499777
25.611342 -120.607296 -1.807988
23.041326 -122.642655 -1.182059
24.302692 -121.662991 -1.499777
23.739573 -121.752941 -0.13783
21.800505 -123.524383 -0.780982
23.041326 -122.642655 -1.182059
20.601288 -124.322181 -0.423057
21.800505 -123.524383 -0.780982
21.27899 -123.530403 0.537813
19.473622 -124.980198 0.028507
19.995137 -124.974178 -1.290288
20.601288 -124.322181 -0.423057
16.552046 -126.759495 -1.257816
17.299811 -126.480961 -1.062043
16.356449 -126.65744 -0.211829
16.66873 -126.888947 -2.538314
16.552046 -126.759495 -1.257816
15.725368 -127.065426 -1.688099
16.964265 -126.875462 -3.846892
16.66873 -126.888947 -2.538314
17.212719 -126.842052 -5.238753
16.964265 -126.875462 -3.846892
16.090505 -127.161468 -4.360458
17.583759 -126.693306 -6.626919
18.45752 -126.407299 -6.113354
17.212719 -126.842052 -5.238753
17.583759 -126.693306 -6.626919
16.673645 -126.936775 -7.166472
13.916854 -126.881424 -8.225375
12.988967 -126.672527 -8.485024
14.21331 -126.57687 -9.631643
14.827622 -127.031842 -7.950996
13.603279 -127.127499 -6.804377
13.916854 -126.881424 -8.225375
15.761188 -127.011704 -7.555311
14.827622 -127.031842 -7.950996
11.170097 -123.801495 -12.625276
10.924186 -124.362709 -11.438053
10.030883 -123.700199 -11.424564
7.287983 -118.794376 -13.043863
6.3928 -118.481788 -11.8949
8.074597 -119.779972 -13.239054
7.287983 -118.794376 -13.043863
8.289607 -119.00399 -14.169846
10.271494 -119.941899 -15.321418
9.394604 -119.065601 -15.15182
9.943943 -120.83802 -14.49924
10.271494 -119.941899 -15.321418
11.139217 -120.790333 -15.455622
11.475666 -123.109559 -13.68564
10.54423 -122.41272 -13.622615
11.743102 -122.383294 -14.696469
11.170097 -123.801495 -12.625276
11.475666 -123.109559 -13.68564
2.15707 -103.921279 -6.783058
2.073036 -103.13987 -5.570463
2.178286 -102.277664 -6.332491
2.360431 -104.69791 -8.054656
2.255181 -105.560115 -7.292628
2.15707 -103.921279 -6.783058
2.970578 -94.339401 -5.437131
3.324041 -93.176151 -6.108824
2.729863 -105.3484 -9.258437
2.360431 -104.69791 -8.054656
2.929326 -106.952247 -9.788919
2.729863 -105.3484 -9.258437
3 0 262 264
3 264 263 62
3 262 263 264
3 1 65 63
3 2 68 66
3 265 69 266
3 267 70 268
3 269 72 270
3 271 270 70
3 269 270 271
3 272 74 273
3 274 273 72
3 272 273 274
3 3 77 75
3 275 78 276
3 4 81 79
3 5 277 279
3 279 278 82
3 277 278 279
3 5 280 281
3 6 86 84
3 8 89 87
3 8 91 89
3 282 94 283
3 284 283 92
3 282 283 284
3 286 285 94
3 287 96 288
3 289 98 290
3 291 290 97
3 289 290 291
3 292 100 293
3 294 293 98
3 292 293 294
3 295 102 296
3 297 296 100
3 295 296 297
3 10 105 103
3 10 107 105
3 11 298 300
3 298 108 299
3 298 299 300
3 11 110 108
3 11 112 110
3 12 115 113
3 12 117 115
3 12 119 117
3 13 122 120
3 13 124 122
3 301 128 302
3 303 302 126
3 301 302 303
3 304 130 305
3 306 305 128
3 304 305 306
3 308 307 130
3 9 134 132
3 310 309 135
3 311 139 312
3 313 312 137
3 311 312 313
3 7 314 316
3 316 315 140
3 314 315 316
3 318 317 142
3 14 145 143
3 16 146 64
3 16 147 146
3 17 150 148
3 19 151 67
3 19 152 151
3 319 153 320
3 322 321 153
3 21 323 325
3 323 155 324
3 323 324 325
3 21 156 155
3 22 326 327
3 22 328 330
3 328 157 329
3 328 329 330
3 22 159 157
3 24 160 71
3 24 161 160
3 24 163 161
3 26 164 73
3 26 165 164
3 27 168 166
3 29 169 76
3 29 170 169
3 30 172 171
3 331 173 332
3 334 333 173
3 336 335 174
3 337 176 338
3 340 339 176
3 32 179 177
3 34 180 80
3 34 181 180
3 15 182 144
3 341 183 342
3 343 342 83
3 341 342 343
3 345 344 183
3 35 186 184
3 37 187 85
3 37 188 187
3 18 189 149
3 38 190 88
3 38 191 190
3 38 192 191
3 39 193 90
3 39 194 193
3 31 346 348
3 348 347 175
3 346 347 348
3 40 349 351
3 349 195 350
3 349 350 351
3 40 196 195
3 352 197 353
3 41 198 93
3 41 199 198
3 41 200 199
3 354 203 355
3 356 355 201
3 354 355 356
3 357 204 358
3 43 205 95
3 43 206 205
3 44 207 99
3 44 208 207
3 44 209 208
3 45 210 101
3 45 211 210
3 20 212 154
3 46 213 104
3 46 214 213
3 46 215 214
3 47 216 106
3 47 217 216
3 48 359 361
3 361 360 109
3 359 360 361
3 48 362 363
3 48 364 366
3 364 218 365
3 364 365 366
3 49 219 111
3 49 220 219
3 23 221 158
3 50 222 114
3 50 223 222
3 50 224 223
3 51 225 116
3 51 226 225
3 51 227 226
3 52 228 118
3 52 229 228
3 25 230 162
3 53 231 121
3 53 232 231
3 53 233 232
3 54 234 123
3 54 235 234
3 367 236 368
3 55 237 125
3 55 238 237
3 369 239 370
3 56 240 127
3 56 241 240
3 56 242 241
3 57 243 129
3 57 244 243
3 57 245 244
3 371 201 372
3 58 373 374
3 58 375 377
3 375 247 376
3 375 376 377
3 59 378 380
3 378 248 379
3 378 379 380
3 59 249 248
3 59 250 249
3 381 251 382
3 383 382 131
3 381 382 383
3 384 246 385
3 386 385 251
3 384 385 386
3 42 252 202
3 60 253 133
3 60 387 389
3 389 388 253
3 387 388 389
3 28 254 167
3 391 390 136
3 33 255 178
3 61 256 138
3 61 257 256
3 392 258 393
3 394 259 395
3 397 396 259
3 36 260 185
3 398 261 399
3 400 399 141
3 398 399 400
3 402 401 261
3 62 403 404
3 406 405 62
3 63 64 14
3 65 64 63
3 65 16 64
3 66 67 17
3 68 67 66
3 68 19 67
3 69 407 408
3 69 409 411
3 409 21 410
3 409 410 411
3 70 412 413
3 70 414 416
3 414 22 415
3 414 415 416
3 70 71 22
3 72 71 70
3 72 24 71
3 72 73 24
3 74 73 72
3 74 26 73
3 75 76 27
3 77 76 75
3 77 29 76
3 418 417 30
3 78 419 420
3 78 421 422
3 79 80 32
3 81 80 79
3 81 34 80
3 82 83 15
3 423 83 424
3 425 424 82
3 423 424 425
3 427 426 83
3 84 85 35
3 86 85 84
3 86 37 85
3 87 88 18
3 89 88 87
3 89 38 88
3 89 90 38
3 91 90 89
3 91 39 90
3 430 429 31
3 428 429 430
3 431 40 432
3 92 433 435
3 433 93 434
3 433 434 435
3 94 93 92
3 94 41 93
3 94 436 438
3 438 437 41
3 436 437 438
3 440 439 94
3 441 95 442
3 96 443 445
3 443 95 444
3 443 444 445
3 96 43 95
3 97 446 447
3 98 448 450
3 450 449 97
3 448 449 450
3 98 451 452
3 98 453 455
3 453 99 454
3 453 454 455
3 100 99 98
3 100 44 99
3 100 101 44
3 102 101 100
3 102 45 101
3 103 104 20
3 105 104 103
3 105 46 104
3 105 106 46
3 107 106 105
3 107 47 106
3 108 456 458
3 456 457 458
3 108 459 460
3 108 461 463
3 461 109 462
3 461 462 463
3 110 109 108
3 110 48 109
3 110 111 48
3 112 111 110
3 112 49 111
3 113 114 23
3 115 114 113
3 115 50 114
3 115 116 50
3 117 116 115
3 117 51 116
3 117 118 51
3 119 118 117
3 119 52 118
3 120 121 25
3 122 121 120
3 122 53 121
3 122 123 53
3 124 123 122
3 124 54 123
3 464 125 465
3 466 125 467
3 468 55 469
3 470 469 125
3 468 469 470
3 126 471 473
3 471 127 472
3 471 472 473
3 128 127 126
3 128 56 127
3 128 129 56
3 130 129 128
3 130 57 129
3 130 474 476
3 476 475 57
3 474 475 476
3 478 477 130
3 479 58 480
3 481 59 482
3 483 131 484
3 485 484 59
3 483 484 485
3 486 131 487
3 489 488 131
3 132 133 42
3 134 133 132
3 134 60 133
3 135 136 28
3 490 136 491
3 492 491 135
3 490 491 492
3 494 493 136
3 137 138 33
3 139 138 137
3 139 61 138
3 140 141 36
3 495 141 496
3 497 496 140
3 495 496 497
3 499 498 141
3 142 500 501
3 503 502 142
3 143 144 4
3 145 144 143
3 145 15 144
3 64 145 14
3 146 145 64
3 146 15 145
3 146 82 15
3 147 82 146
3 147 5 82
3 148 149 6
3 150 149 148
3 150 18 149
3 67 150 17
3 151 150 67
3 151 18 150
3 151 87 18
3 152 87 151
3 152 8 87
3 504 92 505
3 506 92 507
3 509 508 92
3 510 97 511
3 153 512 514
3 512 97 513
3 512 513 514
3 153 515 517
3 517 516 97
3 515 516 517
3 153 518 520
3 518 154 519
3 518 519 520
3 521 154 522
3 523 522 153
3 521 522 523
3 524 20 525
3 526 525 154
3 524 525 526
3 155 527 528
3 155 529 531
3 529 20 530
3 529 530 531
3 155 103 20
3 156 103 155
3 156 10 103
3 157 532 533
3 157 534 536
3 534 11 535
3 534 535 536
3 157 158 11
3 159 158 157
3 159 23 158
3 71 159 22
3 160 159 71
3 160 23 159
3 160 113 23
3 161 113 160
3 161 12 113
3 161 162 12
3 163 162 161
3 163 25 162
3 73 163 24
3 164 163 73
3 164 25 163
3 164 120 25
3 165 120 164
3 165 13 120
3 537 126 538
3 539 126 540
3 542 541 126
3 166 167 9
3 168 167 166
3 168 28 167
3 76 168 27
3 169 168 76
3 169 28 168
3 169 135 28
3 170 135 169
3 170 543 545
3 545 544 135
3 543 544 545
3 171 546 548
3 548 547 7
3 546 547 548
3 172 549 551
3 551 550 171
3 549 550 551
3 172 552 553
3 554 172 555
3 556 555 30
3 554 555 556
3 173 557 559
3 557 172 558
3 557 558 559
3 173 560 562
3 562 561 172
3 560 561 562
3 173 563 565
3 563 142 564
3 563 564 565
3 566 142 567
3 568 567 173
3 566 567 568
3 570 569 142
3 174 175 2
3 571 175 572
3 573 572 174
3 571 572 573
3 574 31 575
3 576 575 175
3 574 575 576
3 176 577 578
3 176 579 581
3 579 31 580
3 579 580 581
3 176 582 584
3 584 583 31
3 582 583 584
3 586 585 176
3 587 78 588
3 589 78 590
3 592 591 78
3 177 178 3
3 179 178 177
3 179 33 178
3 80 179 32
3 180 179 80
3 180 33 179
3 180 137 33
3 181 137 180
3 181 593 595
3 595 594 137
3 593 594 595
3 144 81 4
3 182 81 144
3 182 34 81
3 83 182 15
3 183 182 83
3 183 34 182
3 183 181 34
3 596 181 597
3 598 597 183
3 596 597 598
3 600 599 181
3 184 185 1
3 186 185 184
3 186 36 185
3 85 186 35
3 187 186 85
3 187 36 186
3 187 140 36
3 188 140 187
3 188 7 140
3 149 86 6
3 189 86 149
3 189 37 86
3 88 189 18
3 190 189 88
3 190 37 189
3 190 188 37
3 191 188 190
3 191 7 188
3 191 171 7
3 192 171 191
3 192 30 171
3 90 192 38
3 193 192 90
3 193 30 192
3 193 601 603
3 603 602 30
3 601 602 603
3 194 604 606
3 606 605 193
3 604 605 606
3 194 607 608
3 175 68 2
3 609 68 610
3 611 610 175
3 609 610 611
3 612 19 613
3 614 613 68
3 612 613 614
3 616 615 31
3 195 617 618
3 195 619 621
3 619 19 620
3 619 620 621
3 195 152 19
3 196 152 195
3 196 8 152
3 197 622 623
3 197 624 626
3 624 40 625
3 624 625 626
3 93 627 629
3 627 197 628
3 627 628 629
3 198 197 93
3 198 40 197
3 198 196 40
3 199 196 198
3 199 8 196
3 199 91 8
3 200 91 199
3 200 39 91
3 630 200 631
3 632 631 41
3 630 631 632
3 633 200 634
3 635 39 636
3 637 636 200
3 635 636 637
3 638 194 639
3 640 639 39
3 638 639 640
3 641 194 642
3 644 643 194
3 201 202 0
3 203 202 201
3 203 42 202
3 645 203 646
3 647 203 648
3 649 42 650
3 651 650 203
3 649 650 651
3 652 132 653
3 654 653 42
3 652 653 654
3 204 655 657
3 655 132 656
3 655 656 657
3 204 9 132
3 658 204 659
3 660 204 661
3 662 9 663
3 664 663 204
3 662 663 664
3 665 166 666
3 667 666 9
3 665 666 667
3 668 166 669
3 670 27 671
3 672 671 166
3 670 671 672
3 95 673 674
3 205 675 677
3 677 676 95
3 675 676 677
3 205 678 680
3 678 27 679
3 678 679 680
3 205 75 27
3 206 75 205
3 206 3 75
3 681 96 682
3 683 96 684
3 685 43 686
3 687 686 96
3 685 686 687
3 99 688 689
3 207 690 692
3 692 691 99
3 690 691 692
3 207 693 695
3 693 43 694
3 693 694 695
3 207 206 43
3 208 206 207
3 208 3 206
3 208 177 3
3 209 177 208
3 209 32 177
3 101 209 44
3 210 209 101
3 210 32 209
3 210 79 32
3 211 79 210
3 211 4 79
3 154 696 698
3 696 102 697
3 696 697 698
3 212 102 154
3 212 45 102
3 104 212 20
3 213 212 104
3 213 45 212
3 213 211 45
3 214 211 213
3 214 4 211
3 214 143 4
3 215 143 214
3 215 14 143
3 106 215 46
3 216 215 106
3 216 14 215
3 216 63 14
3 217 63 216
3 217 1 63
3 109 699 700
3 702 701 109
3 703 69 704
3 218 705 707
3 705 69 706
3 705 706 707
3 218 21 69
3 111 218 48
3 219 218 111
3 219 21 218
3 219 156 21
3 220 156 219
3 220 10 156
3 158 112 11
3 221 112 158
3 221 49 112
3 114 221 23
3 222 221 114
3 222 49 221
3 222 220 49
3 223 220 222
3 223 10 220
3 223 107 10
3 224 107 223
3 224 47 107
3 116 224 50
3 225 224 116
3 225 47 224
3 225 217 47
3 226 217 225
3 226 1 217
3 226 184 1
3 227 184 226
3 227 35 184
3 118 227 51
3 228 227 118
3 228 35 227
3 228 84 35
3 229 84 228
3 229 6 84
3 162 119 12
3 230 119 162
3 230 52 119
3 121 230 25
3 231 230 121
3 231 52 230
3 231 229 52
3 232 229 231
3 232 6 229
3 232 148 6
3 233 148 232
3 233 17 148
3 123 233 53
3 234 233 123
3 234 17 233
3 234 66 17
3 235 66 234
3 235 2 66
3 708 74 709
3 236 710 712
3 710 74 711
3 710 711 712
3 236 26 74
3 125 713 715
3 713 236 714
3 713 714 715
3 237 236 125
3 237 26 236
3 237 165 26
3 238 165 237
3 238 13 165
3 239 716 717
3 239 718 720
3 718 55 719
3 718 719 720
3 127 721 723
3 721 239 722
3 721 722 723
3 240 239 127
3 240 55 239
3 240 238 55
3 241 238 240
3 241 13 238
3 241 124 13
3 242 124 241
3 242 54 124
3 129 242 56
3 243 242 129
3 243 54 242
3 243 235 54
3 244 235 243
3 244 2 235
3 244 174 2
3 245 174 244
3 245 724 726
3 726 725 174
3 724 725 726
3 727 245 728
3 729 728 57
3 727 728 729
3 730 245 731
3 733 732 245
3 734 246 735
3 201 736 738
3 736 246 737
3 736 737 738
3 201 0 246
3 247 739 740
3 247 741 743
3 741 742 743
3 744 58 745
3 248 746 748
3 746 747 748
3 248 749 751
3 749 58 750
3 749 750 751
3 248 247 58
3 249 247 248
3 249 752 754
3 754 753 247
3 752 753 754
3 249 755 756
3 250 757 759
3 759 758 249
3 757 758 759
3 250 760 761
3 131 250 59
3 251 250 131
3 251 762 764
3 764 763 250
3 762 763 764
3 251 765 767
3 765 62 766
3 765 766 767
3 246 62 251
3 246 0 62
3 202 768 770
3 770 769 0
3 768 769 770
3 252 771 773
3 773 772 202
3 771 772 773
3 252 774 775
3 133 252 42
3 253 252 133
3 253 776 778
3 778 777 252
3 776 777 778
3 253 779 781
3 779 780 781
3 783 782 253
3 167 134 9
3 254 134 167
3 254 60 134
3 136 254 28
3 784 254 785
3 786 785 136
3 784 785 786
3 787 60 788
3 789 788 254
3 787 788 789
3 791 790 60
3 178 77 3
3 255 77 178
3 255 29 77
3 138 255 33
3 256 255 138
3 256 29 255
3 256 170 29
3 257 170 256
3 257 792 794
3 794 793 170
3 792 793 794
3 795 139 796
3 258 797 799
3 797 139 798
3 797 798 799
3 258 61 139
3 800 258 801
3 259 802 804
3 802 258 803
3 802 803 804
3 259 61 258
3 259 257 61
3 805 257 806
3 807 806 259
3 805 806 807
3 809 808 257
3 185 65 1
3 260 65 185
3 260 16 65
3 141 260 36
3 261 260 141
3 261 16 260
3 261 147 16
3 810 147 811
3 812 811 261
3 810 811 812
3 813 5 814
3 815 814 147
3 813 814 815
3 817 816 7
3 818 5 819
3 821 820 5
