ply
format ascii 1.0
element vertex 281
property float x
property float y
property float z
element face 234
property list uchar int vertex_index
end_header
2.908205 -60.620811 8.917184
-3.097223 -52.56292 25.354908
5.887709 -56.510582 2.250235
0.05171 -64.183975 21.138783
4.319586 -58.736343 5.363585
1.722212 -62.116783 12.799814
-0.234661 -65.1567 29.825073
-1.402563 -59.444904 29.306894
-2.516085 -53.107666 29.413691
-1.776377 -59.05938 25.085653
-1.818979 -58.3587 20.905294
-1.642012 -57.312771 16.778313
7.543495 -54.177197 -0.309404
3.589193 -59.727955 7.092041
1.218895 -62.737129 14.829077
-3.399645 -49.38266 27.61327
-2.821379 -52.868732 27.385078
-2.242239 -56.169052 27.227833
-2.441889 -55.907043 25.161243
-1.827829 -58.751198 22.98954
-2.594572 -55.56493 23.09882
8.028233 -58.255756 0.753713
8.65485 -56.888252 -0.525295
6.708836 -55.334297 0.892603
0.379774 -63.767197 19.006512
5.088911 -57.656399 3.745294
2.284781 -61.414753 10.824647
-0.818026 -62.371841 29.473999
-1.012476 -62.233047 27.320698
-2.67544 -49.924328 31.589493
-1.971064 -56.360851 29.299465
-1.642664 -59.287769 27.192345
-1.078772 -62.024227 25.17527
-1.034723 -61.738415 23.04216
-0.904591 -61.373531 20.925377
-0.708143 -60.929752 18.828396
-1.759336 -57.879616 18.833906
-0.453653 -60.407097 16.755156
-0.136921 -59.804134 14.711788
0.254677 -59.118122 12.708153
0.73568 -58.346729 10.758186
1.31666 -57.490803 8.878752
2.00112 -56.557301 7.087353
2.785641 -55.56168 5.399714
3.662315 -54.529205 3.828325
4.62154 -53.495483 2.382312
5.652967 -52.507545 1.068084
8.365395 -53.110451 -1.325375
9.252663 -55.494312 -1.619255
4.091711 -61.693967 8.064069
3.737425 -62.102312 9.00039
3.248699 -60.174383 8.004613
4.432205 -61.24754 7.151497
4.091711 -61.693967 8.064069
0.995175 -63.011219 15.865022
1.912501 -64.097294 14.977362
6.957971 -57.383169 1.501974
7.701474 -58.905492 1.46988
6.631213 -58.032905 2.218141
0.782345 -65.292439 20.264145
0.555851 -65.493073 21.350397
0.215742 -63.975586 20.072648
0.946377 -65.08405 19.198009
0.782345 -65.292439 20.264145
5.50649 -59.74426 4.556717
5.154528 -60.280766 5.396344
4.704249 -58.196371 4.554439
5.891153 -59.204289 3.747571
5.50649 -59.74426 4.556717
2.800559 -63.203789 11.917459
2.472663 -63.512699 12.926497
2.003497 -61.765768 11.812231
3.081844 -62.852773 10.929876
2.800559 -63.203789 11.917459
0.042454 -66.407654 28.991121
0.047537 -66.486606 30.096207
-0.294517 -65.087139 28.732387
0.042454 -66.407654 28.991121
-1.110294 -60.908372 29.390446
-0.930461 -60.958365 30.449738
-1.22273 -59.494896 30.366186
-2.595763 -51.515997 30.501592
-2.859573 -49.80055 30.596546
-2.779896 -51.392219 29.508645
-2.334568 -53.200979 30.428474
-2.414245 -51.60931 31.516375
-2.595763 -51.515997 30.501592
-2.243574 -54.734258 29.356578
-2.062057 -54.827571 30.371361
-2.334568 -53.200979 30.428474
-1.700674 -57.596193 17.806109
-2.27315 -56.248452 18.906486
-2.214488 -55.965029 17.87869
-0.445652 -57.517832 12.728966
-0.595919 -57.888088 13.72702
-0.20515 -57.132136 11.753982
0.495178 -58.732426 11.733169
-0.445652 -57.517832 12.728966
0.589444 -55.850769 8.910346
0.300629 -56.294161 9.843502
0.931674 -55.384018 8.014647
1.65889 -57.024052 7.983053
0.589444 -55.850769 8.910346
2.130869 -53.945099 5.453465
1.689612 -54.419834 6.284903
2.569206 -53.428861 4.66777
3.223978 -55.045443 4.61402
2.130869 -53.945099 5.453465
4.139123 -52.01477 2.458086
3.561289 -52.447403 3.171834
4.654837 -51.520802 1.800972
5.137253 -53.001514 1.725198
4.139123 -52.01477 2.458086
-0.07183 -64.35857 22.215373
0.555851 -65.493073 21.350397
4.789332 -60.776572 6.260573
4.432205 -61.24754 7.151497
3.95439 -59.232149 6.227813
5.154528 -60.280766 5.396344
4.789332 -60.776572 6.260573
2.221004 -63.822872 13.941128
1.912501 -64.097294 14.977362
1.470554 -62.426956 13.814445
2.472663 -63.512699 12.926497
2.221004 -63.822872 13.941128
-0.111648 -65.198574 30.919705
0.047537 -66.486606 30.096207
-1.503451 -57.97085 30.340696
-1.22273 -59.494896 30.366186
-3.221676 -49.529716 28.608434
-3.484909 -47.723122 28.717514
-2.932543 -51.272752 28.494338
-3.221676 -49.529716 28.608434
-3.110512 -51.125696 27.499174
-2.668732 -52.988199 28.399385
-2.779896 -51.392219 29.508645
-2.932543 -51.272752 28.494338
-2.217089 -55.65988 16.85154
-2.214488 -55.965029 17.87869
-1.544264 -56.985412 15.7621
-2.217089 -55.65988 16.85154
8.759894 -59.752069 0.727842
7.701474 -58.905492 1.46988
8.989893 -59.003439 0.037078
8.759894 -59.752069 0.727842
8.341541 -57.572004 0.114209
9.303202 -58.319687 -0.602426
8.989893 -59.003439 0.037078
1.206525 -64.859829 18.123821
0.946377 -65.08405 19.198009
0.575614 -63.526253 17.95374
1.206525 -64.859829 18.123821
-3.698492 -47.546654 27.736742
-3.484909 -47.723122 28.717514
-3.582758 -49.204851 26.611993
-3.698492 -47.546654 27.736742
-3.431547 -50.794981 25.482812
-3.248434 -50.97279 26.484089
-3.582758 -49.204851 26.611993
-3.228464 -52.371035 24.336335
-3.431547 -50.794981 25.482812
6.231814 -58.605814 2.96567
5.891153 -59.204289 3.747571
5.48831 -57.08349 2.997764
6.631213 -58.032905 2.218141
6.231814 -58.605814 2.96567
3.425713 -62.499283 9.954121
3.081844 -62.852773 10.929876
2.596493 -61.017782 9.870916
3.737425 -62.102312 9.00039
3.425713 -62.499283 9.954121
-0.364762 -63.80534 30.728176
-0.111648 -65.198574 30.919705
-0.656444 -62.41291 30.552639
-0.930461 -60.958365 30.449738
-0.526344 -63.764271 29.649536
-0.364762 -63.80534 30.728176
-0.656444 -62.41291 30.552639
-0.5862 -63.69471 28.556849
-0.294517 -65.087139 28.732387
-0.526344 -63.764271 29.649536
-0.683425 -63.625312 27.480199
-0.5862 -63.69471 28.556849
-0.915251 -62.302444 28.397348
-0.675219 -63.522186 26.390662
-0.683425 -63.625312 27.480199
-2.924673 -48.150938 31.679674
-2.859573 -49.80055 30.596546
-2.726109 -48.297024 32.650933
-2.924673 -48.150938 31.679674
-2.46833 -50.033629 32.581417
-2.726109 -48.297024 32.650933
-2.46833 -50.033629 32.581417
-2.414245 -51.60931 31.516375
-1.787701 -56.428824 30.336982
-2.062057 -54.827571 30.371361
-1.686813 -57.902878 29.303179
-1.503451 -57.97085 30.340696
-1.787701 -56.428824 30.336982
-0.708368 -63.417776 25.317948
-0.675219 -63.522186 26.390662
-1.045624 -62.128637 26.247984
-0.637071 -63.278696 24.233616
-0.708368 -63.417776 25.317948
-0.615047 -63.13579 23.167061
-0.637071 -63.278696 24.233616
-1.056748 -61.881321 24.108715
-0.491507 -62.961195 22.090471
-0.07183 -64.35857 22.215373
-0.615047 -63.13579 23.167061
0.031656 -62.10753 17.864682
0.575614 -63.526253 17.95374
-0.164184 -62.348475 18.917454
-2.977138 -53.87204 23.208291
-2.845897 -54.063925 24.226864
-3.228464 -52.371035 24.336335
-2.653389 -55.350601 22.068594
-2.977138 -53.87204 23.208291
-2.265592 -56.747486 20.971831
-2.206776 -56.961815 22.002057
-2.653389 -55.350601 22.068594
-2.235771 -56.507944 19.936137
-2.27315 -56.248452 18.906486
-1.789157 -58.119158 19.8696
-2.265592 -56.747486 20.971831
-2.235771 -56.507944 19.936137
0.158901 -61.846203 16.828062
0.031656 -62.10753 17.864682
-0.580898 -60.668425 17.791776
0.382621 -61.572113 15.792116
0.995175 -63.011219 15.865022
0.158901 -61.846203 16.828062
-0.791718 -58.231094 14.728838
-0.889467 -58.558453 15.745051
-1.544264 -56.985412 15.7621
0.058878 -59.461128 13.709971
-0.791718 -58.231094 14.728838
-0.595919 -57.888088 13.72702
0.01014 -56.722124 10.783219
-0.20515 -57.132136 11.753982
1.02617 -57.918766 9.818469
0.01014 -56.722124 10.783219
0.300629 -56.294161 9.843502
1.297352 -54.917645 7.128722
0.931674 -55.384018 8.014647
2.393381 -56.059491 6.243533
1.297352 -54.917645 7.128722
1.689612 -54.419834 6.284903
3.081676 -52.964264 3.89484
2.569206 -53.428861 4.66777
4.141928 -54.012344 3.105319
3.081676 -52.964264 3.89484
3.561289 -52.447403 3.171834
5.291801 -51.145305 1.143527
4.654837 -51.520802 1.800972
6.198465 -52.068281 0.478488
5.291801 -51.145305 1.143527
7.143729 -52.903107 -0.210257
6.598231 -53.342371 0.37934
6.198465 -52.068281 0.478488
7.554679 -52.369734 -0.718242
7.954445 -53.643824 -0.817389
7.143729 -52.903107 -0.210257
8.124465 -52.034817 -1.245074
7.554679 -52.369734 -0.718242
8.717302 -52.69307 -1.696506
8.124465 -52.034817 -1.245074
9.507989 -57.516517 -1.209358
9.303202 -58.319687 -0.602426
9.806895 -56.819547 -1.756338
9.507989 -57.516517 -1.209358
8.953757 -56.191282 -1.072275
9.996546 -55.977005 -2.261642
9.806895 -56.819547 -1.756338
9.523941 -54.795738 -2.048606
9.996546 -55.977005 -2.261642
9.080307 -53.603808 -1.901666
9.523941 -54.795738 -2.048606
8.809029 -54.302381 -1.472315
8.717302 -52.69307 -1.696506
9.080307 -53.603808 -1.901666
3 0 49 50
3 0 51 53
3 51 13 52
3 51 52 53
3 54 14 55
3 1 16 15
3 1 18 16
3 1 20 18
3 2 56 58
3 56 21 57
3 56 57 58
3 2 23 21
3 3 59 60
3 3 61 63
3 61 24 62
3 61 62 63
3 4 64 65
3 4 66 68
3 66 25 67
3 66 67 68
3 5 69 70
3 5 71 73
3 71 26 72
3 71 72 73
3 6 74 75
3 6 76 77
3 7 78 80
3 78 27 79
3 78 79 80
3 7 28 27
3 8 81 83
3 81 29 82
3 81 82 83
3 8 84 86
3 86 85 29
3 84 85 86
3 8 87 89
3 87 30 88
3 87 88 89
3 9 31 17
3 9 32 31
3 9 33 32
3 10 34 19
3 10 35 34
3 11 90 92
3 90 36 91
3 90 91 92
3 11 37 36
3 11 38 37
3 93 39 94
3 95 40 96
3 97 96 39
3 95 96 97
3 98 41 99
3 100 42 101
3 102 101 41
3 100 101 102
3 103 43 104
3 105 44 106
3 107 106 43
3 105 106 107
3 108 45 109
3 110 46 111
3 112 111 45
3 110 111 112
3 12 48 22
3 12 47 48
3 113 3 114
3 13 115 116
3 13 117 119
3 117 4 118
3 117 118 119
3 14 120 121
3 14 122 124
3 122 5 123
3 122 123 124
3 125 6 126
3 127 7 128
3 15 129 130
3 16 131 133
3 133 132 15
3 131 132 133
3 16 134 136
3 134 8 135
3 134 135 136
3 16 17 8
3 18 17 16
3 18 9 17
3 18 19 9
3 20 19 18
3 20 10 19
3 137 11 138
3 140 139 11
3 21 141 142
3 21 143 144
3 21 145 147
3 145 22 146
3 145 146 147
3 23 22 21
3 23 12 22
3 24 148 149
3 24 150 151
3 152 15 153
3 154 15 155
3 156 1 157
3 158 157 15
3 156 157 158
3 160 159 1
3 25 161 162
3 25 163 165
3 163 2 164
3 163 164 165
3 26 166 167
3 26 168 170
3 168 0 169
3 168 169 170
3 171 6 172
3 27 173 174
3 27 175 177
3 175 6 176
3 175 176 177
3 27 178 180
3 180 179 6
3 178 179 180
3 28 181 183
3 183 182 27
3 181 182 183
3 28 184 185
3 29 186 187
3 29 188 189
3 29 190 191
3 193 192 29
3 30 194 195
3 30 196 198
3 196 7 197
3 196 197 198
3 17 30 8
3 31 30 17
3 31 7 30
3 31 28 7
3 32 28 31
3 32 199 201
3 201 200 28
3 199 200 201
3 32 202 203
3 33 204 206
3 206 205 32
3 204 205 206
3 33 207 209
3 207 3 208
3 207 208 209
3 19 33 9
3 34 33 19
3 34 3 33
3 34 24 3
3 35 24 34
3 35 210 212
3 212 211 24
3 210 211 212
3 213 20 214
3 215 214 1
3 213 214 215
3 216 20 217
3 218 10 219
3 220 219 20
3 218 219 220
3 36 221 222
3 36 223 225
3 223 10 224
3 223 224 225
3 36 35 10
3 37 35 36
3 37 226 228
3 228 227 35
3 226 227 228
3 37 229 231
3 229 14 230
3 229 230 231
3 38 14 37
3 38 5 14
3 232 38 233
3 234 233 11
3 232 233 234
3 39 235 237
3 235 38 236
3 235 236 237
3 39 5 38
3 39 26 5
3 40 26 39
3 40 0 26
3 238 40 239
3 41 240 242
3 240 40 241
3 240 241 242
3 41 0 40
3 41 13 0
3 42 13 41
3 42 4 13
3 243 42 244
3 43 245 247
3 245 42 246
3 245 246 247
3 43 4 42
3 43 25 4
3 44 25 43
3 44 2 25
3 248 44 249
3 45 250 252
3 250 44 251
3 250 251 252
3 45 2 44
3 45 23 2
3 46 23 45
3 46 12 23
3 253 46 254
3 255 46 256
3 257 12 258
3 259 258 46
3 257 258 259
3 260 47 261
3 262 261 12
3 260 261 262
3 263 47 264
3 266 265 47
3 22 267 268
3 48 269 271
3 271 270 22
3 269 270 271
3 48 272 273
3 48 274 275
3 47 276 278
3 278 277 48
3 276 277 278
3 47 279 280
