ply
format ascii 1.0
element vertex 242
property float x
property float y
property float z
element face 219
property list uchar int vertex_index
end_header
-46.781338 -20.386074 -1.312229
-49.361092 -31.904053 5.432495
-54.145748 -23.138411 -0.305429
-42.659241 -26.720022 6.90132
-58.262611 -13.448835 -7.171316
-50.316528 -21.926119 -0.50862
-56.496765 -18.408571 -3.442852
-52.660053 -17.592731 -4.395256
-55.712971 -29.507465 1.763669
-58.060993 -24.635185 -0.738565
-51.582253 -27.667133 2.530345
-47.819878 -25.902664 3.031682
-44.557281 -23.745901 2.926353
-60.186455 -19.674494 -3.299179
-61.645996 -14.697287 -6.413799
-48.496628 -21.247795 -0.866531
-51.530968 -19.810501 -2.402035
-49.665981 -19.259775 -2.934612
-47.882908 -18.52696 -3.517826
-52.455208 -30.833508 3.507326
-53.607662 -28.559612 2.137994
-50.391052 -29.834665 3.952561
-45.012554 -26.614164 4.908518
-46.114548 -24.913458 3.048917
-43.537525 -25.277519 4.948912
-48.561943 -33.83799 6.99589
-50.697933 -35.031685 6.574517
-51.464401 -33.004284 4.978396
-54.635143 -31.853809 3.140942
-56.10231 -23.827238 -0.468904
-57.297157 -21.406082 -1.817888
-57.467106 -15.960117 -5.222549
-59.286682 -16.478662 -4.884275
-60.009926 -13.968779 -6.682699
-47.41925 -30.766319 5.930099
-52.209373 -22.526636 -0.311694
-55.376495 -20.799109 -1.814381
-53.445194 -20.291426 -2.01071
-54.582336 -17.979479 -3.826164
-55.585052 -15.580343 -5.774212
-54.848724 -26.216206 0.830163
-52.85873 -25.429527 1.126712
-48.45562 -28.828575 4.384035
-49.648758 -26.797838 2.850644
-50.923546 -24.694521 1.297454
-49.06102 -23.953564 1.296495
-47.295856 -23.127386 1.126496
-45.65699 -22.119936 0.837831
-58.373371 -18.957003 -3.273737
-61.017025 -17.186687 -4.761282
-42.253613 -23.684444 4.879459
-43.172272 -22.308083 2.727071
-45.198421 -19.231279 -1.748085
-46.209908 -17.497705 -4.045454
-47.169365 -15.614933 -6.367205
-43.835898 -26.667093 5.904919
-44.534514 -27.420551 5.811105
-43.357857 -27.47348 6.807506
-59.397322 -12.43867 -7.928198
-60.270979 -12.698642 -7.683889
-59.136268 -13.708807 -6.927008
-58.566837 -12.16247 -8.232309
-59.397322 -12.43867 -7.928198
-53.16522 -16.426678 -5.443587
-54.627719 -15.420483 -6.133066
-54.122552 -16.586537 -5.084734
-56.296208 -28.299473 1.125784
-57.322662 -28.792036 0.976572
-47.05172 -29.192363 5.382084
-47.937435 -29.797447 5.157067
-46.533535 -30.161236 6.155116
-48.734318 -26.350251 2.941163
-48.153526 -27.285937 3.784858
-47.239086 -26.83835 3.875377
-51.847597 -35.609703 6.449962
-52.205101 -34.562855 5.615145
-56.794892 -30.019436 1.628605
-56.255978 -31.192608 2.317241
-55.174057 -30.680637 2.452306
-57.322662 -28.792036 0.976572
-56.794892 -30.019436 1.628605
-59.53982 -23.858624 -1.480498
-59.032086 -25.110067 -0.883733
-61.049788 -20.130347 -3.379923
-59.685589 -20.916735 -2.638974
-61.410221 -18.891673 -4.056432
-61.049788 -20.130347 -3.379923
-62.396736 -15.177027 -6.378405
-62.082251 -16.421726 -5.552147
-61.33151 -15.941987 -5.58754
-62.543676 -13.965967 -7.253716
-62.396736 -15.177027 -6.378405
-41.379711 -23.296168 5.90223
-41.86283 -24.326685 5.917972
-42.573843 -21.410799 2.629789
-42.173466 -22.033009 3.746437
-43.671669 -21.568573 1.620304
-42.573843 -21.410799 2.629789
-44.482185 -18.45833 -1.912326
-44.026817 -19.19626 -0.751155
-44.987928 -17.591543 -3.061011
-45.704165 -18.364492 -2.89677
-44.482185 -18.45833 -1.912326
-46.346685 -14.962687 -6.568976
-45.917915 -15.843281 -5.393322
-47.609253 -14.595885 -7.535592
-46.346685 -14.962687 -6.568976
-50.214359 -18.203456 -4.006046
-51.711395 -17.369934 -4.736368
-51.163017 -18.426253 -3.664934
-49.322823 -17.837049 -4.297653
-50.214359 -18.203456 -4.006046
-48.774445 -18.893368 -3.226219
-48.402923 -17.526835 -4.644498
-49.322823 -17.837049 -4.297653
-45.835425 -27.1941 4.813795
-44.534514 -27.420551 5.811105
-46.416216 -26.258414 3.9701
-47.239086 -26.83835 3.875377
-45.835425 -27.1941 4.813795
-49.629938 -34.434838 6.785203
-49.373985 -35.313023 7.613239
-48.30599 -34.716175 7.823926
-52.588335 -33.549155 4.817084
-52.205101 -34.562855 5.615145
-51.081167 -34.017984 5.776457
-53.049772 -32.429046 4.059669
-54.173706 -32.973917 3.898357
-52.588335 -33.549155 4.817084
-57.643517 -22.993107 -1.223836
-58.622858 -23.397081 -1.358667
-57.081652 -24.231212 -0.603735
-58.24094 -21.782529 -1.898328
-57.643517 -22.993107 -1.223836
-56.699734 -22.61666 -1.143396
-58.741806 -20.540288 -2.558534
-59.685589 -20.916735 -2.638974
-58.24094 -21.782529 -1.898328
-61.036072 -13.088682 -7.484977
-61.854107 -13.452936 -7.350527
-60.827961 -14.333033 -6.548249
-61.036072 -13.088682 -7.484977
-60.270979 -12.698642 -7.683889
-47.015839 -31.672859 6.721125
-48.390171 -31.335186 5.681297
-47.986759 -32.241726 6.472323
-46.140026 -30.995729 6.980556
-47.015839 -31.672859 6.721125
-46.533535 -30.161236 6.155116
-46.140026 -30.995729 6.980556
-42.323168 -27.393834 7.839533
-43.357857 -27.47348 6.807506
-47.330089 -34.033321 8.068206
-48.30599 -34.716175 7.823926
-47.587185 -33.208695 7.254021
-47.330089 -34.033321 8.068206
-47.986759 -32.241726 6.472323
-48.961517 -32.871021 6.214193
-47.587185 -33.208695 7.254021
-56.007227 -14.334254 -6.817165
-57.346006 -13.2685 -7.515716
-56.923831 -14.514589 -6.472764
-56.007227 -14.334254 -6.817165
-54.627719 -15.420483 -6.133066
-53.16522 -16.426678 -5.443587
-51.711395 -17.369934 -4.736368
-57.470219 -25.863333 -0.125333
-59.032086 -25.110067 -0.883733
-55.243553 -27.825547 1.312947
-56.296208 -28.299473 1.125784
-54.660317 -29.033538 1.950832
-55.864084 -26.653844 0.659031
-55.243553 -27.825547 1.312947
-54.228193 -27.387909 1.484078
-56.454859 -25.425695 0.045799
-57.470219 -25.863333 -0.125333
-55.864084 -26.653844 0.659031
-47.556958 -28.301305 4.551554
-47.05172 -29.192363 5.382084
-49.052189 -27.813206 3.617339
-47.556958 -28.301305 4.551554
-48.153526 -27.285937 3.784858
-50.450403 -35.952528 7.437415
-49.373985 -35.313023 7.613239
-50.450403 -35.952528 7.437415
-51.847597 -35.609703 6.449962
-55.76942 -32.385513 3.035191
-54.173706 -32.973917 3.898357
-55.76942 -32.385513 3.035191
-56.255978 -31.192608 2.317241
-59.53982 -23.858624 -1.480498
-58.622858 -23.397081 -1.358667
-61.825506 -17.647769 -4.787483
-61.410221 -18.891673 -4.056432
-60.60174 -18.430591 -4.030231
-61.825506 -17.647769 -4.787483
-62.082251 -16.421726 -5.552147
-62.543676 -13.965967 -7.253716
-61.854107 -13.452936 -7.350527
-58.566837 -12.16247 -8.232309
-57.346006 -13.2685 -7.515716
-41.77328 -26.441819 7.921663
-42.323168 -27.393834 7.839533
-42.065644 -25.844475 6.928902
-41.77328 -26.441819 7.921663
-42.504785 -25.123223 5.952699
-43.098383 -25.99877 5.925116
-42.065644 -25.844475 6.928902
-42.895569 -24.480981 4.914186
-42.504785 -25.123223 5.952699
-41.86283 -24.326685 5.917972
-41.714137 -22.72119 4.822631
-41.379711 -23.296168 5.90223
-42.712942 -22.996263 3.803265
-41.714137 -22.72119 4.822631
-42.173466 -22.033009 3.746437
-44.914028 -21.4745 0.675684
-44.414631 -22.214009 1.782451
-43.671669 -21.568573 1.620304
-45.476202 -20.607568 -0.399346
-46.219164 -21.253005 -0.237199
-44.914028 -21.4745 0.675684
-44.684744 -20.030171 -0.617274
-44.026817 -19.19626 -0.751155
-45.98988 -19.808677 -1.530157
-45.476202 -20.607568 -0.399346
-44.684744 -20.030171 -0.617274
-47.566423 -17.012208 -4.908312
-48.402923 -17.526835 -4.644498
-47.046408 -18.012332 -3.78164
-45.438187 -16.784667 -4.232447
-44.987928 -17.591543 -3.061011
-46.689636 -16.556319 -5.20633
-45.438187 -16.784667 -4.232447
-45.917915 -15.843281 -5.393322
-48.046152 -16.070822 -6.069187
-47.566423 -17.012208 -4.908312
-46.689636 -16.556319 -5.20633
-48.520328 -14.995366 -7.215456
-48.046152 -16.070822 -6.069187
-48.520328 -14.995366 -7.215456
-47.609253 -14.595885 -7.535592
3 0 17 15
3 0 18 17
3 1 21 19
3 3 55 57
3 55 22 56
3 55 56 57
3 3 24 22
3 1 27 25
3 1 19 27
3 2 30 29
3 4 33 31
3 4 58 60
3 60 59 33
3 58 59 60
3 4 61 62
3 5 37 35
3 7 38 16
3 7 39 38
3 7 63 65
3 65 64 39
3 63 64 65
3 8 66 67
3 10 40 20
3 10 41 40
3 68 42 69
3 70 69 34
3 68 69 70
3 11 71 73
3 71 43 72
3 71 72 73
3 11 44 43
3 11 45 44
3 12 46 23
3 12 47 46
3 75 74 26
3 8 76 78
3 78 77 28
3 76 77 78
3 8 79 80
3 9 81 82
3 13 83 84
3 13 85 86
3 6 48 36
3 14 49 32
3 14 87 89
3 89 88 49
3 87 88 89
3 14 90 91
3 92 50 93
3 94 51 95
3 97 96 51
3 98 52 99
3 100 53 101
3 102 101 52
3 100 101 102
3 103 54 104
3 106 105 54
3 15 16 5
3 17 16 15
3 17 7 16
3 17 107 109
3 109 108 7
3 107 108 109
3 18 110 112
3 112 111 17
3 110 111 112
3 18 113 114
3 19 20 8
3 21 20 19
3 21 10 20
3 22 115 116
3 22 117 119
3 117 11 118
3 117 118 119
3 22 23 11
3 24 23 22
3 24 12 23
3 25 120 122
3 120 26 121
3 120 121 122
3 27 26 25
3 27 123 125
3 125 124 26
3 123 124 125
3 27 126 128
3 126 28 127
3 126 127 128
3 19 28 27
3 19 8 28
3 29 129 131
3 131 130 9
3 129 130 131
3 30 132 134
3 134 133 29
3 132 133 134
3 30 135 137
3 135 13 136
3 135 136 137
3 31 32 6
3 33 32 31
3 33 14 32
3 33 138 140
3 140 139 14
3 138 139 140
3 142 141 33
3 143 34 144
3 145 144 1
3 143 144 145
3 146 34 147
3 149 148 34
3 150 3 151
3 152 25 153
3 154 25 155
3 156 1 157
3 158 157 25
3 156 157 158
3 35 36 2
3 37 36 35
3 37 6 36
3 16 37 5
3 38 37 16
3 38 6 37
3 38 31 6
3 39 31 38
3 39 4 31
3 39 159 161
3 161 160 4
3 159 160 161
3 163 162 39
3 165 164 7
3 166 9 167
3 20 168 170
3 170 169 8
3 168 169 170
3 40 171 173
3 173 172 20
3 171 172 173
3 40 174 176
3 174 9 175
3 174 175 176
3 40 29 9
3 41 29 40
3 41 2 29
3 34 21 1
3 42 21 34
3 42 10 21
3 177 42 178
3 43 179 181
3 179 42 180
3 179 180 181
3 43 10 42
3 43 41 10
3 44 41 43
3 44 2 41
3 44 35 2
3 45 35 44
3 45 5 35
3 23 45 11
3 46 45 23
3 46 5 45
3 46 15 5
3 47 15 46
3 47 0 15
3 26 182 183
3 185 184 26
3 28 186 187
3 189 188 28
3 191 190 9
3 36 30 2
3 48 30 36
3 48 13 30
3 32 48 6
3 49 48 32
3 49 13 48
3 49 192 194
3 194 193 13
3 192 193 194
3 196 195 49
3 198 197 14
3 200 199 4
3 201 3 202
3 203 3 204
3 205 24 206
3 207 206 3
3 205 206 207
3 50 208 210
3 208 24 209
3 208 209 210
3 50 12 24
3 211 50 212
3 51 213 215
3 213 50 214
3 213 214 215
3 51 12 50
3 51 47 12
3 216 47 217
3 218 217 51
3 216 217 218
3 219 0 220
3 221 220 47
3 219 220 221
3 52 222 223
3 52 224 226
3 224 0 225
3 224 225 226
3 52 18 0
3 53 18 52
3 53 227 229
3 229 228 18
3 227 228 229
3 230 53 231
3 54 232 234
3 232 53 233
3 232 233 234
3 54 235 237
3 237 236 53
3 235 236 237
3 54 238 239
3 241 240 54
