ply
format ascii 1.0
element vertex 305
property float x
property float y
property float z
element face 282
property list uchar int vertex_index
end_header
28.197561 35.128887 -28.282503
25.967995 23.560497 -31.09078
25.680761 47.385567 -27.897837
33.918861 44.344112 -23.644773
31.101881 34.144939 -25.800409
30.408924 45.937431 -25.962446
38.707893 45.933609 -17.840536
24.51651 35.665569 -30.217726
23.015848 29.622494 -31.224421
26.579617 29.575916 -30.009108
29.01964 23.844486 -30.493513
22.557625 41.99918 -30.252024
27.059729 41.119434 -28.313986
30.723396 40.053993 -26.048525
33.223351 38.611008 -23.119425
37.473827 48.083733 -21.32102
35.844086 42.545109 -20.449896
22.668373 23.140648 -31.303686
23.368168 16.417835 -30.959585
32.267502 33.402584 -24.356188
31.589304 31.102646 -25.836115
26.444876 35.433441 -29.310087
25.512585 32.595745 -30.096678
27.264812 32.423824 -29.225996
24.022413 44.758968 -29.138945
24.879726 41.567837 -29.299719
26.427195 44.195198 -28.157827
32.351017 45.161896 -24.891676
30.613131 42.969692 -26.078936
32.255772 42.273235 -24.847216
32.122898 39.389713 -24.676451
33.546555 41.503277 -23.417707
39.281555 49.747719 -20.19145
37.260448 44.312897 -19.141905
24.461811 26.522747 -31.04624
22.699139 26.424866 -31.35882
24.34763 23.341438 -31.245607
24.851355 16.842564 -31.402876
29.750673 34.710869 -27.114447
28.86034 32.145088 -28.224672
31.068354 28.720619 -27.289843
32.084194 25.807491 -27.857447
32.300312 48.12838 -24.779345
34.200504 47.214584 -23.727808
39.967213 48.575226 -18.521833
27.497072 20.813023 -31.500616
22.456692 35.870789 -31.028357
21.639883 32.817039 -31.492228
23.624554 32.709854 -30.848574
24.848589 29.617176 -30.675016
26.149162 26.61097 -30.623907
28.191528 29.444935 -29.221609
27.748507 26.63501 -30.091066
27.523375 23.746414 -30.840425
28.936464 21.116467 -31.464746
21.315281 39.108501 -31.147875
23.545856 38.791344 -30.280909
25.671041 38.472305 -29.355574
27.625319 38.112179 -28.344133
28.650307 43.605366 -27.160036
29.025787 40.623501 -27.247923
29.359486 37.674206 -27.208952
30.846704 37.127197 -25.919924
32.084831 36.445034 -24.468039
36.119698 49.137619 -22.608183
35.672207 46.279297 -22.46715
38.326935 47.023857 -19.733564
36.686649 45.318504 -20.942461
35.080662 43.477268 -22.169054
34.487511 40.643608 -21.775953
21.114603 29.64399 -31.659082
24.48756 20.104191 -31.337824
22.902531 19.79557 -31.140032
32.513279 31.839214 -24.42427
32.771935 32.930977 -23.586727
24.377328 47.732597 -28.405477
25.24231 49.054199 -27.744124
24.851587 46.072268 -28.518391
23.548154 46.419298 -29.026032
24.377328 47.732597 -28.405477
40.168319 50.495942 -19.617871
39.632915 51.156315 -20.32407
30.699589 32.930712 -26.445301
30.023985 33.213677 -27.10232
30.426277 34.427904 -26.457428
31.716384 28.385601 -26.73411
31.328829 29.911632 -26.562979
31.976859 29.576614 -26.007246
32.224304 26.929037 -27.017912
31.576274 27.264055 -27.573645
31.716384 28.385601 -26.73411
33.293272 49.158886 -24.213676
32.16946 49.679848 -24.655554
34.243368 48.701988 -23.687908
33.250408 47.671482 -24.253577
33.293272 49.158886 -24.213676
27.569561 19.340508 -31.810706
28.240496 19.599459 -31.94659
28.93759 29.309536 -28.766718
28.525934 30.795012 -28.72314
29.271996 30.659613 -28.26825
28.384073 25.239748 -30.29229
28.505028 26.587819 -29.769253
29.140594 25.192557 -29.970476
21.365434 42.221311 -30.722158
22.040073 43.659098 -30.199284
21.936453 40.55384 -30.699949
20.744262 40.775972 -31.170084
21.365434 42.221311 -30.722158
29.529615 44.771398 -26.561241
28.403659 45.140577 -27.048132
29.282967 46.30661 -26.449337
33.158886 37.107384 -22.994978
32.589626 36.024397 -23.669285
32.654091 37.528021 -23.793732
36.796762 48.610676 -21.964602
37.091576 50.03281 -22.068091
37.768641 49.505867 -21.424509
21.777549 24.753679 -31.431244
21.792932 26.395789 -31.458811
22.683756 24.782757 -31.331253
21.807312 23.071112 -31.282531
21.777549 24.753679 -31.431244
25.379557 18.721272 -31.563834
25.252877 20.281303 -31.397688
22.31804 17.993009 -30.911163
22.085221 19.681877 -31.001387
23.13535 18.106703 -31.049809
22.591475 16.254629 -30.711239
22.31804 17.993009 -30.911163
32.17418 30.689245 -25.164234
31.928403 32.252615 -25.096151
32.513279 31.839214 -24.42427
31.976859 29.576614 -26.007246
32.17418 30.689245 -25.164234
29.745793 23.822935 -30.271597
29.140594 25.192557 -29.970476
29.687963 22.579588 -30.918835
29.745793 23.822935 -30.271597
22.772467 45.038992 -29.642744
23.548154 46.419298 -29.026032
23.290019 43.379074 -29.695484
22.040073 43.659098 -30.199284
22.772467 45.038992 -29.642744
38.672505 50.33786 -20.859724
39.632915 51.156315 -20.32407
38.377691 48.915726 -20.756235
37.768641 49.505867 -21.424509
38.672505 50.33786 -20.859724
37.357107 43.768007 -18.119065
37.98417 45.123253 -18.491221
38.08083 44.578363 -17.46838
36.758003 42.914545 -18.826822
37.357107 43.768007 -18.119065
36.049822 42.030651 -19.480818
36.552267 43.429003 -19.795901
36.758003 42.914545 -18.826822
35.478972 41.106899 -20.196258
36.049822 42.030651 -19.480818
25.772253 15.536972 -31.778628
25.561455 17.090458 -31.596359
25.126044 15.215052 -31.459397
25.772253 15.536972 -31.778628
24.384451 15.002688 -31.237751
24.109762 16.630199 -31.18123
25.126044 15.215052 -31.459397
23.695945 14.72784 -30.901007
24.384451 15.002688 -31.237751
29.578819 31.930786 -27.657432
29.305506 33.427979 -27.669559
30.023985 33.213677 -27.10232
29.271996 30.659613 -28.26825
29.578819 31.930786 -27.657432
30.9433 31.409565 -26.463154
30.699589 32.930712 -26.445301
31.345592 32.623793 -25.818262
30.682825 30.218552 -27.190018
30.9433 31.409565 -26.463154
31.328829 29.911632 -26.562979
30.376002 28.947378 -27.800835
30.682825 30.218552 -27.190018
30.884701 27.499544 -27.994076
30.376002 28.947378 -27.800835
31.392621 26.04298 -28.277878
30.884701 27.499544 -27.994076
31.576274 27.264055 -27.573645
31.991292 24.688471 -28.684962
31.392621 26.04298 -28.277878
26.593319 48.633724 -27.257538
25.24231 49.054199 -27.744124
26.918886 47.030678 -27.417032
26.593319 48.633724 -27.257538
30.223629 47.477733 -25.835825
29.282967 46.30661 -26.449337
31.169323 48.573208 -25.244274
32.16946 49.679848 -24.655554
31.354618 47.032905 -25.370895
30.223629 47.477733 -25.835825
31.169323 48.573208 -25.244274
40.772885 49.257297 -17.898281
40.511149 49.909695 -18.783062
40.065604 47.977836 -17.523161
40.772885 49.257297 -17.898281
39.435944 46.657028 -17.182512
39.337553 47.254418 -18.181185
40.065604 47.977836 -17.523161
38.700103 45.349486 -16.761274
39.435944 46.657028 -17.182512
38.08083 44.578363 -17.46838
38.700103 45.349486 -16.761274
26.757633 20.63572 -31.479084
25.993094 22.009456 -31.274166
26.732533 22.18676 -31.295698
26.757633 20.63572 -31.479084
27.569561 19.340508 -31.810706
22.048288 34.343914 -31.260292
20.98226 34.455383 -31.62278
21.390664 35.982258 -31.390845
28.726539 27.992781 -29.334524
28.93759 29.309536 -28.766718
27.970018 28.039973 -29.656337
28.726539 27.992781 -29.334524
28.505028 26.587819 -29.769253
28.960192 19.751181 -31.928655
28.240496 19.599459 -31.94659
28.216768 20.964745 -31.482681
29.646375 21.215578 -31.404451
28.978052 22.480477 -30.979129
29.687963 22.579588 -30.918835
29.630431 19.978514 -32.030026
29.646375 21.215578 -31.404451
28.960192 19.751181 -31.928655
29.630431 19.978514 -32.030026
20.18384 39.283441 -31.553764
20.744262 40.775972 -31.170084
20.819958 37.601114 -31.450603
20.18384 39.283441 -31.553764
21.885987 37.489645 -31.088116
21.390664 35.982258 -31.390845
20.819958 37.601114 -31.450603
27.292103 45.435493 -27.547027
26.053978 45.790382 -28.027832
26.918886 47.030678 -27.417032
27.538751 43.900282 -27.658932
27.292103 45.435493 -27.547027
28.403659 45.140577 -27.048132
32.680961 34.503172 -23.61336
32.176167 34.923809 -24.412114
32.589626 36.024397 -23.669285
32.771935 32.930977 -23.586727
32.680961 34.503172 -23.61336
36.221516 50.629661 -22.592877
37.091576 50.03281 -22.068091
35.202965 49.663505 -23.128096
36.221516 50.629661 -22.592877
35.160101 48.176102 -23.167995
34.243368 48.701988 -23.687908
35.202965 49.663505 -23.128096
39.624384 49.161473 -19.356642
40.168319 50.495942 -19.617871
40.511149 49.909695 -18.783062
34.800684 40.156149 -20.859287
35.165798 41.594358 -21.112924
35.478972 41.106899 -20.196258
34.269483 39.169319 -21.585987
34.800684 40.156149 -20.859287
33.637404 38.153019 -22.257723
33.855431 39.627308 -22.447689
34.269483 39.169319 -21.585987
33.158886 37.107384 -22.994978
33.637404 38.153019 -22.257723
20.625262 32.890234 -31.759813
20.98226 34.455383 -31.62278
20.362622 31.303709 -31.84324
20.625262 32.890234 -31.759813
21.377243 31.230514 -31.575655
20.151342 29.684739 -31.816069
20.362622 31.303709 -31.84324
21.000664 28.00535 -31.608942
21.906871 28.034428 -31.508951
21.792932 26.395789 -31.458811
20.151342 29.684739 -31.816069
21.000664 28.00535 -31.608942
25.182912 21.899927 -31.351579
25.157812 23.450968 -31.168194
25.993094 22.009456 -31.274166
24.417595 21.722814 -31.291716
25.182912 21.899927 -31.351579
25.252877 20.281303 -31.397688
24.669458 18.473377 -31.37035
25.379557 18.721272 -31.563834
25.561455 17.090458 -31.596359
21.924391 21.398573 -31.200705
21.807312 23.071112 -31.282531
22.785452 21.468109 -31.221859
21.924391 21.398573 -31.200705
22.085221 19.681877 -31.001387
22.591475 16.254629 -30.711239
23.695945 14.72784 -30.901007
32.754701 25.452404 -27.401919
32.224304 26.929037 -27.017912
32.698398 24.458965 -28.374061
32.754701 25.452404 -27.401919
31.991292 24.688471 -28.684962
32.698398 24.458965 -28.374061
3 74 73 19
3 0 23 21
3 2 75 76
3 2 77 79
3 77 24 78
3 77 78 79
3 2 26 24
3 3 29 27
3 3 31 29
3 80 32 81
3 1 36 34
3 4 82 84
3 84 83 38
3 82 83 84
3 85 40 86
3 87 86 20
3 85 86 87
3 88 41 89
3 90 89 40
3 88 89 90
3 91 42 92
3 93 43 94
3 95 94 42
3 93 94 95
3 97 96 45
3 7 48 46
3 9 49 22
3 9 50 49
3 98 51 99
3 100 99 39
3 98 99 100
3 10 101 103
3 101 52 102
3 101 102 103
3 10 53 52
3 10 54 53
3 11 104 105
3 11 106 108
3 106 55 107
3 106 107 108
3 11 56 55
3 12 57 25
3 12 58 57
3 5 109 111
3 109 59 110
3 109 110 111
3 13 60 28
3 13 61 60
3 13 62 61
3 14 63 30
3 14 112 114
3 114 113 63
3 112 113 114
3 15 115 117
3 115 64 116
3 115 116 117
3 15 65 64
3 6 66 44
3 16 67 33
3 16 68 67
3 16 69 68
3 8 70 47
3 17 118 120
3 120 119 35
3 118 119 120
3 17 121 122
3 123 71 124
3 18 72 37
3 18 125 127
3 127 126 72
3 125 126 127
3 18 128 129
3 19 20 4
3 130 20 131
3 132 131 19
3 130 131 132
3 134 133 20
3 21 22 7
3 23 22 21
3 23 9 22
3 135 10 136
3 138 137 10
3 24 139 140
3 24 141 143
3 141 11 142
3 141 142 143
3 24 25 11
3 26 25 24
3 26 12 25
3 27 28 5
3 29 28 27
3 29 13 28
3 29 30 13
3 31 30 29
3 31 14 30
3 32 144 145
3 32 146 148
3 146 15 147
3 146 147 148
3 149 33 150
3 151 150 6
3 149 150 151
3 152 33 153
3 154 16 155
3 156 155 33
3 154 155 156
3 158 157 16
3 34 35 8
3 36 35 34
3 36 17 35
3 159 37 160
3 161 37 162
3 163 18 164
3 165 164 37
3 163 164 165
3 167 166 18
3 38 39 0
3 168 39 169
3 170 169 38
3 168 169 170
3 172 171 39
3 20 173 175
3 175 174 4
3 173 174 175
3 40 176 178
3 178 177 20
3 176 177 178
3 40 179 180
3 40 181 182
3 41 183 185
3 185 184 40
3 183 184 185
3 41 186 187
3 188 2 189
3 191 190 2
3 192 5 193
3 42 194 195
3 42 196 198
3 196 5 197
3 196 197 198
3 42 27 5
3 43 27 42
3 43 3 27
3 199 44 200
3 201 44 202
3 203 6 204
3 205 204 44
3 203 204 205
3 206 6 207
3 209 208 6
3 45 210 212
3 212 211 1
3 210 211 212
3 214 213 45
3 46 215 217
3 215 47 216
3 215 216 217
3 48 47 46
3 48 8 47
3 22 48 7
3 49 48 22
3 49 8 48
3 49 34 8
3 50 34 49
3 50 1 34
3 39 23 0
3 51 23 39
3 51 9 23
3 218 51 219
3 52 220 222
3 220 51 221
3 220 221 222
3 52 9 51
3 52 50 9
3 53 50 52
3 53 1 50
3 53 45 1
3 54 45 53
3 54 223 225
3 225 224 45
3 223 224 225
3 226 54 227
3 228 227 10
3 226 227 228
3 229 54 230
3 232 231 54
3 55 233 234
3 55 235 236
3 55 237 239
3 237 46 238
3 237 238 239
3 56 46 55
3 56 7 46
3 25 56 11
3 57 56 25
3 57 7 56
3 57 21 7
3 58 21 57
3 58 0 21
3 240 26 241
3 242 241 2
3 240 241 242
3 59 243 245
3 243 26 244
3 243 244 245
3 59 12 26
3 28 59 5
3 60 59 28
3 60 12 59
3 60 58 12
3 61 58 60
3 61 0 58
3 61 38 0
3 62 38 61
3 62 4 38
3 30 62 13
3 63 62 30
3 63 4 62
3 63 19 4
3 246 19 247
3 248 247 63
3 246 247 248
3 250 249 19
3 64 251 252
3 64 253 254
3 64 255 257
3 255 43 256
3 255 256 257
3 65 43 64
3 65 3 43
3 44 258 260
3 258 32 259
3 258 259 260
3 66 32 44
3 66 15 32
3 33 66 6
3 67 66 33
3 67 15 66
3 67 65 15
3 68 65 67
3 68 3 65
3 68 31 3
3 69 31 68
3 69 14 31
3 261 69 262
3 263 262 16
3 261 262 263
3 264 69 265
3 266 14 267
3 268 267 69
3 266 267 268
3 270 269 14
3 47 271 272
3 70 273 275
3 275 274 47
3 273 274 275
3 70 276 277
3 35 70 8
3 278 70 279
3 280 279 35
3 278 279 280
3 282 281 70
3 283 36 284
3 285 284 1
3 283 284 285
3 71 286 288
3 286 36 287
3 286 287 288
3 71 17 36
3 37 289 291
3 289 71 290
3 289 290 291
3 72 71 37
3 72 17 71
3 72 292 294
3 294 293 17
3 292 293 294
3 296 295 72
3 298 297 18
3 299 41 300
3 301 41 302
3 304 303 41
