ply
format ascii 1.0
element vertex 500
property float x
property float y
property float z
element face 518
property list uchar int vertex_index
end_header
-1.347937 56.535416 -10.884073
0.287195 54.229294 14.779689
3.15085 78.846687 6.767364
-2.920248 40.487057 22.250427
1.485544 47.925331 27.065704
2.292236 73.244095 21.189398
-3.30654 35.183372 -24.032366
-0.696503 57.159447 1.810526
2.691233 60.673286 23.156269
2.870176 66.614578 9.640511
2.266714 69.300064 -3.830549
0.487524 41.364658 29.968483
2.069286 44.058056 32.571877
-3.287683 48.695206 -12.907389
-3.091448 46.993805 -18.492838
-1.650404 55.495735 -16.803247
-1.441568 47.585472 18.319355
-2.306288 49.692497 12.117985
-0.244209 56.180031 8.330876
2.54048 56.449348 29.637058
2.183002 62.874031 28.887966
2.820906 76.427002 13.947184
2.949896 70.295914 15.034483
3.150215 72.770821 8.033195
2.716845 68.331253 2.85067
-2.580011 30.254181 31.770861
-1.688745 37.663418 27.963276
-0.492823 44.721798 24.300434
0.870848 51.417725 21.060843
1.723036 69.21936 28.373798
-4.001661 37.406876 -19.421984
-1.053736 57.200272 -4.645496
2.507483 50.139954 30.824898
2.30562 54.325829 24.79949
2.093412 57.816711 18.423006
2.585194 67.015938 22.029894
2.82373 64.064804 16.445505
1.872847 60.498238 11.856041
1.600449 62.289001 5.209222
1.220146 63.187943 -1.407177
0.693953 63.343933 -7.872835
1.754442 41.069252 33.738106
-2.333799 53.347878 -8.991837
-3.380766 49.473457 -9.963095
-2.365408 52.754906 -12.008228
-2.391176 52.086098 -14.934671
-1.494223 56.043968 -13.887289
-0.588524 50.963318 16.484455
-1.88933 48.746414 15.242553
-0.94953 52.094185 13.34024
-1.284464 52.998787 10.155321
0.013485 55.321281 11.570832
1.989946 60.461494 32.217461
1.703568 63.686378 32.047852
3.021397 77.728706 10.344223
3.041321 74.712929 10.913624
3.137159 75.845383 7.377645
3.139925 73.724701 4.560883
-2.174643 33.999641 29.869562
0.990978 44.674843 28.439642
-0.003511 43.082428 27.182476
0.585905 46.448486 25.574833
0.183834 48.113045 22.614086
1.176294 49.742287 24.107464
-3.505934 36.78392 24.276482
-1.837442 54.06395 3.707608
-2.038343 54.213432 0.476505
-2.184031 54.122063 -2.731815
-0.886398 57.287056 -1.435526
2.616333 58.664848 26.435268
2.573288 55.480705 27.082943
2.563524 57.501419 23.903858
2.199242 56.166115 21.643198
2.551949 59.326485 20.654377
2.004894 71.343124 24.798304
2.18099 68.231155 25.127579
2.428106 70.162079 21.592678
3.043751 68.534088 12.226919
2.95223 67.179878 15.681427
2.864244 65.445404 13.0475
2.510454 62.361969 14.01796
2.46501 63.559578 10.661252
1.746716 61.507965 8.536106
2.388525 64.538101 7.296773
2.531881 68.899757 -0.50868
2.096403 65.852638 0.597277
1.863707 66.217049 -2.711138
0.976227 63.343643 -4.665852
1.569513 66.418785 -5.97578
0.967831 39.636753 32.634373
1.387182 42.851292 31.176252
1.789 46.0093 29.903934
-4.065035 44.341743 -13.620892
-3.839441 43.345207 -16.381716
-3.185743 47.857452 -15.752819
-2.424189 51.376274 -17.76491
-1.815226 54.910583 -19.623938
-2.228003 44.091564 20.252853
-1.5837 53.659081 6.93989
-0.481997 56.793694 5.07225
2.463554 54.028786 32.738937
2.257896 57.230965 32.43927
2.399332 59.656036 29.217279
2.544468 61.860199 25.910717
2.570585 74.935028 17.5667
2.665804 71.879539 18.034163
2.877064 73.3936 14.469584
3.08049 71.63063 11.527806
3.086227 69.684608 8.774676
2.825958 67.574165 6.237513
3.061396 70.637543 5.336679
2.953825 71.403145 1.923176
-3.633238 27.848259 30.978634
-3.282721 31.685764 29.062735
-2.842665 35.453487 27.103035
-2.308542 39.141033 25.138
-0.560564 39.632614 28.908064
-1.124487 41.23872 26.094208
-1.681803 42.737606 23.205526
-0.973789 46.23455 21.341606
-0.209023 49.628006 19.579136
0.573729 52.921318 17.946762
1.456352 66.860512 31.894958
1.936787 74.331482 24.455904
2.266186 76.198769 20.779419
2.884417 79.322258 13.428679
3.130928 80.595078 9.782088
-3.668577 36.286221 -21.820498
-3.622164 42.337559 -19.027052
-3.412584 41.333309 -21.540731
-2.278788 53.819557 -5.894688
-1.204496 56.935249 -7.800114
2.330635 47.066841 31.618816
2.140802 49.155556 28.806721
2.579599 53.272285 30.168293
2.410574 52.310966 27.869816
1.93593 51.137459 25.852264
1.728184 52.97673 22.794424
1.523623 54.64669 19.659843
1.323967 56.126617 16.467333
1.936798 66.075897 28.619385
2.38341 65.056602 25.485489
2.689939 63.846313 22.54002
2.778738 68.759903 18.540337
2.829378 65.618317 19.124384
2.762529 62.473618 19.820377
2.536304 60.948898 17.353708
1.986214 59.264641 15.155945
1.128433 57.398941 13.231035
0.935217 58.448448 9.963038
0.7423 59.263725 6.675525
0.547623 59.840309 3.382384
2.2691 65.299232 3.937647
1.426908 62.844482 1.889652
0.348906 60.184105 0.09984
0.143326 60.313416 -3.154217
-0.072615 60.2584 -6.362234
-0.30279 60.057213 -9.509426
1.457211 63.971985 33.694406
1.595052 62.371376 33.720421
3.148585 77.822708 5.318553
3.141739 76.322056 5.623693
3.144005 77.346035 7.072504
-3.538871 39.22534 21.821769
-3.831714 37.373772 22.834797
-3.213091 38.635489 23.263455
-3.279743 32.504323 -24.058808
-3.536634 33.092653 -23.026583
1.192521 38.814787 33.897116
0.762685 37.975309 33.446829
-3.785183 46.995376 -11.829935
-3.831724 47.384502 -10.357788
-3.334224 49.084332 -11.435242
-3.676359 46.518474 -13.26414
-4.173858 44.818645 -12.186687
-3.785183 46.995376 -11.829935
-2.09859 46.428082 17.78131
-2.491808 44.681128 18.748059
-1.834786 45.838518 19.286104
-2.779022 47.9706 13.149711
-2.570543 47.497558 14.711996
-2.097809 49.219456 13.680269
-3.002329 48.346634 11.59507
-2.779022 47.9706 13.149711
-2.492144 50.046886 10.535587
-3.002329 48.346634 11.59507
2.033107 57.523376 33.946657
2.190067 55.90791 33.997427
2.994795 72.953034 1.520903
3.046875 72.563923 3.242029
3.087845 74.113811 2.839756
2.854251 71.699783 0.232915
2.994795 72.953034 1.520903
-0.03652 40.498636 29.438274
-0.278252 38.801021 30.27077
0.245791 39.667043 30.80098
-2.744062 28.344538 32.697261
-2.22797 29.492615 33.093339
-3.106624 29.05122 31.374747
-3.270676 27.141577 32.301147
-2.744062 28.344538 32.697261
1.817386 74.702438 26.118824
1.776711 73.287861 26.282249
2.354424 77.570675 20.552865
2.16475 76.657769 22.420295
2.427492 77.028877 18.938906
2.354424 77.570675 20.552865
3.027919 80.652042 13.155815
2.851694 79.942104 15.012059
3.151174 81.288453 11.33252
3.007672 79.958668 11.605384
3.027919 80.652042 13.155815
-4.113735 34.811806 -19.582487
-4.333049 35.437309 -18.358871
-3.835119 36.846548 -20.621241
-3.947193 34.251478 -20.781744
-4.113735 34.811806 -19.582487
-3.164831 43.285028 -22.56752
-3.209951 43.726965 -21.327997
-3.301139 40.832248 -22.715896
-3.164831 43.285028 -22.56752
2.419059 48.603397 31.221857
2.457776 47.449733 32.622747
2.5462 48.98629 32.225788
1.910253 40.274462 34.903009
1.585826 39.531036 34.448982
2.026706 41.624317 34.357271
1.910253 40.274462 34.903009
2.184127 43.118719 33.774157
1.911864 42.563654 33.154992
2.026706 41.624317 34.357271
-2.857283 51.410668 -9.477466
-3.411112 49.809708 -8.445602
-2.887628 51.746918 -7.959974
1.738241 60.758934 33.805225
1.899131 59.138641 33.835752
1.846757 62.073936 32.132656
1.738241 60.758934 33.805225
1.595052 62.371376 33.720421
3.143122 75.261715 4.215312
3.138542 74.785042 5.969264
3.141739 76.322056 5.623693
3.087845 74.113811 2.839756
3.143122 75.261715 4.215312
-1.839207 33.227628 31.220239
-2.377327 32.126911 30.820211
-2.041891 31.354898 32.170888
-1.619466 35.045309 30.294087
-1.839207 33.227628 31.220239
-1.376517 36.877198 29.340944
-1.931694 35.83153 28.916419
-1.619466 35.045309 30.294087
-2.041891 31.354898 32.170888
-2.22797 29.492615 33.093339
-4.167461 37.97617 -18.148394
-4.333049 35.437309 -18.358871
-3.049383 46.557213 -19.80405
-2.779022 48.818798 -19.491131
-4.09186 35.473843 23.873957
-3.745003 34.890422 25.286017
-4.09186 35.473843 23.873957
-3.831714 37.373772 22.834797
-2.530933 52.553997 3.129533
-2.413044 52.459401 4.733325
-2.631384 52.628738 1.513982
-2.530933 52.553997 3.129533
-1.937892 54.138691 2.092056
-2.707668 52.593155 -0.085999
-2.631384 52.628738 1.513982
-2.111187 54.167747 -1.127655
-2.780512 52.547471 -1.69016
-2.707668 52.593155 -0.085999
2.54252 50.512372 31.978493
2.5462 48.98629 32.225788
0.485945 38.803091 32.133924
0.762685 37.975309 33.446829
0.727677 40.500705 31.301428
0.245791 39.667043 30.80098
0.485945 38.803091 32.133924
1.361136 40.353003 33.186239
1.192521 38.814787 33.897116
1.585826 39.531036 34.448982
-3.923342 47.817154 -8.873535
-3.411112 49.809708 -8.445602
-3.923342 47.817154 -8.873535
-3.831724 47.384502 -10.357788
-4.533148 42.574078 -12.515294
-4.173858 44.818645 -12.186687
-4.367724 42.015138 -13.910675
-4.533148 42.574078 -12.515294
-3.952238 43.843475 -15.001304
-4.254926 41.51687 -15.291087
-4.367724 42.015138 -13.910675
-2.445393 51.010033 -19.127167
-2.779022 48.818798 -19.491131
-2.757818 49.18504 -18.128874
-2.140912 52.777187 -20.056681
-2.445393 51.010033 -19.127167
-2.119708 53.143428 -18.694424
-1.894652 54.600311 -20.978177
-2.140912 52.777187 -20.056681
-2.872229 42.881733 19.779218
-3.218351 41.07948 20.778005
-2.574126 42.28931 21.25164
-2.872229 42.881733 19.779218
-2.491808 44.681128 18.748059
-2.322471 47.008553 16.242909
-2.09859 46.428082 17.78131
-1.665449 48.165943 16.780954
-2.322471 47.008553 16.242909
-2.570543 47.497558 14.711996
-1.981231 51.700032 9.554255
-2.492144 50.046886 10.535587
-1.795376 51.345642 11.136653
-2.13085 52.030179 7.946539
-1.981231 51.700032 9.554255
-1.434082 53.328934 8.547605
-2.286173 52.256966 6.349465
-2.13085 52.030179 7.946539
-1.710571 53.861515 5.323749
-2.413044 52.459401 4.733325
-2.286173 52.256966 6.349465
2.292896 54.30682 34.147261
2.423888 52.717286 34.22789
2.360725 55.629875 32.589104
2.292896 54.30682 34.147261
2.190067 55.90791 33.997427
2.123921 58.846229 32.328366
2.033107 57.523376 33.946657
1.899131 59.138641 33.835752
2.643279 70.448089 -0.983013
2.742853 70.151451 0.707248
2.854251 71.699783 0.232915
2.510695 70.648243 -2.643947
2.399297 69.09991 -2.169614
2.643279 70.448089 -0.983013
-3.088879 34.636781 -25.017595
-3.109967 37.251305 -25.03001
-3.99684 28.494215 29.625815
-4.138394 26.536348 30.576988
-3.821581 30.412968 28.667865
-3.99684 28.494215 29.625815
-3.457979 29.767011 30.020685
-3.633396 32.341344 27.679144
-3.821581 30.412968 28.667865
-3.413368 34.225206 26.699294
-3.633396 32.341344 27.679144
-3.062693 33.569626 28.082885
-3.1743 36.118704 25.689758
-3.745003 34.890422 25.286017
-3.413368 34.225206 26.699294
-0.812426 37.861795 29.813339
-0.278252 38.801021 30.27077
-1.124654 38.648016 28.43567
-1.376517 36.877198 29.340944
-0.812426 37.861795 29.813339
-3.767294 25.898533 31.895867
-3.270676 27.141577 32.301147
-4.138394 26.536348 30.576988
-3.767294 25.898533 31.895867
1.250087 67.10923 33.575806
1.333603 65.559052 33.617959
1.386564 68.391964 31.805551
1.250087 67.10923 33.575806
1.519906 69.571388 30.044972
1.589694 68.039936 30.134378
1.386564 68.391964 31.805551
1.669836 70.7318 28.241197
1.519906 69.571388 30.044972
1.810765 71.793682 26.45345
1.863965 70.281242 26.586051
1.669836 70.7318 28.241197
1.97084 72.837303 24.627104
1.810765 71.793682 26.45345
1.776711 73.287861 26.282249
2.00005 75.724125 24.258538
1.817386 74.702438 26.118824
2.101487 75.265125 22.617662
2.00005 75.724125 24.258538
2.16475 76.657769 22.420295
2.579692 76.397007 17.332546
2.418385 75.566899 19.17306
2.427492 77.028877 18.938906
2.704852 77.142994 15.522788
2.695746 75.681015 15.756942
2.579692 76.397007 17.332546
2.736608 78.590622 15.263535
2.851694 79.942104 15.012059
2.852661 77.87463 13.687932
2.704852 77.142994 15.522788
2.736608 78.590622 15.263535
-3.717653 33.644077 -21.920649
-3.947193 34.251478 -20.781744
-3.487559 35.734797 -22.926432
-3.536634 33.092653 -23.026583
-3.717653 33.644077 -21.920649
-4.086351 40.945335 -16.62826
-4.254926 41.51687 -15.291087
-3.977712 40.441512 -17.950928
-4.086351 40.945335 -16.62826
-3.730803 42.841383 -17.704384
-3.811913 39.872217 -19.224518
-4.167461 37.97617 -18.148394
-3.977712 40.441512 -17.950928
-3.314741 44.22909 -20.071157
-3.356806 44.665682 -18.759945
-3.049383 46.557213 -19.80405
-3.517374 41.835434 -20.283892
-3.314741 44.22909 -20.071157
-3.209951 43.726965 -21.327997
-3.429136 38.308704 -22.85578
-3.54058 38.809765 -21.680615
-3.301139 40.832248 -22.715896
-3.248118 37.75728 -23.961714
-3.487559 35.734797 -22.926432
-3.429136 38.308704 -22.85578
-3.109967 37.251305 -25.03001
-3.248118 37.75728 -23.961714
-3.538871 39.22534 21.821769
-3.218351 41.07948 20.778005
-2.815126 52.391796 -3.274137
-2.780512 52.547471 -1.69016
-2.862505 52.240544 -4.855573
-2.815126 52.391796 -3.274137
-2.231409 53.97081 -4.313251
-2.860123 51.982758 -6.411399
-2.862505 52.240544 -4.855573
-2.306293 53.583718 -7.443263
-2.887628 51.746918 -7.959974
-2.860123 51.982758 -6.411399
2.277524 44.48708 33.401043
2.184127 43.118719 33.774157
2.408199 45.991472 32.924512
2.457776 47.449733 32.622747
2.19996 45.562449 32.095346
2.277524 44.48708 33.401043
2.408199 45.991472 32.924512
2.520555 52.456787 32.935513
2.423888 52.717286 34.22789
2.578578 52.078537 31.650191
2.520555 52.456787 32.935513
2.521577 53.650535 31.453615
2.543541 51.706119 30.496595
2.54252 50.512372 31.978493
2.578578 52.078537 31.650191
1.57996 65.273445 31.971405
1.457211 63.971985 33.694406
1.333603 65.559052 33.617959
3.304512 81.899811 9.4907
3.151174 81.288453 11.33252
3.219583 81.137794 7.974336
3.304512 81.899811 9.4907
3.229544 80.263599 6.466973
3.140889 79.720883 8.274726
3.219583 81.137794 7.974336
3.172013 79.316235 4.995048
3.229544 80.263599 6.466973
3.148585 77.822708 5.318553
3.172013 79.316235 4.995048
2.365706 70.867752 -4.314447
2.510695 70.648243 -2.643947
2.096095 69.428108 -5.468775
2.365706 70.867752 -4.314447
1.747494 67.987469 -6.541391
1.918114 67.859425 -4.903164
2.096095 69.428108 -5.468775
1.394037 66.453213 -7.581583
1.747494 67.987469 -6.541391
0.956257 64.915786 -8.530111
1.131733 64.881359 -6.924308
1.394037 66.453213 -7.581583
0.534763 63.283935 -9.445393
0.956257 64.915786 -8.530111
0.036391 61.640575 -10.263689
0.195582 61.700573 -8.69113
0.534763 63.283935 -9.445393
-0.426526 59.903366 -11.047385
0.036391 61.640575 -10.263689
-0.949099 58.142467 -11.734708
-0.825363 58.296314 -10.196749
-0.426526 59.903366 -11.047385
-1.022242 57.896743 -13.236317
-1.42108 56.289692 -12.385681
-0.949099 58.142467 -11.734708
-1.154575 57.706398 -14.735183
-1.022242 57.896743 -13.236317
-1.232665 57.432282 -16.193161
-1.572313 55.769852 -15.345268
-1.154575 57.706398 -14.735183
-1.370175 57.215626 -17.649269
-1.232665 57.432282 -16.193161
-1.452587 56.92305 -19.059615
-1.732815 55.203159 -18.213592
-1.370175 57.215626 -17.649269
-1.586512 56.681556 -20.465832
-1.452587 56.92305 -19.059615
-1.894652 54.600311 -20.978177
-1.586512 56.681556 -20.465832
-3.279743 32.504323 -24.058808
-3.088879 34.636781 -25.017595
3 0 44 42
3 0 46 44
3 1 49 47
3 1 51 49
3 158 53 159
3 2 56 54
3 2 160 162
3 162 161 56
3 160 161 162
3 4 61 59
3 4 63 61
3 3 163 165
3 165 164 64
3 163 164 165
3 7 66 65
3 7 68 66
3 8 71 69
3 8 73 71
3 5 76 74
3 9 79 77
3 9 81 79
3 9 83 81
3 10 86 84
3 10 88 86
3 6 166 167
3 168 89 169
3 12 90 41
3 12 91 90
3 13 170 172
3 172 171 43
3 170 171 172
3 13 173 175
3 173 92 174
3 173 174 175
3 13 94 92
3 15 95 45
3 15 96 95
3 16 176 178
3 178 177 97
3 176 177 178
3 17 179 181
3 181 180 48
3 179 180 181
3 17 182 183
3 17 184 185
3 18 98 50
3 18 99 98
3 186 101 187
3 20 102 52
3 20 103 102
3 21 106 104
3 23 107 55
3 23 108 107
3 23 110 108
3 188 111 189
3 190 189 57
3 188 189 190
3 192 191 111
3 25 113 112
3 26 114 58
3 26 115 114
3 11 193 195
3 193 116 194
3 193 194 195
3 27 117 60
3 27 118 117
3 27 119 118
3 28 120 62
3 28 121 120
3 25 196 197
3 25 198 200
3 198 112 199
3 198 199 200
3 201 123 202
3 203 124 204
3 206 205 124
3 207 125 208
3 209 126 210
3 211 210 125
3 209 210 211
3 30 212 213
3 30 214 216
3 214 127 215
3 214 215 216
3 14 128 93
3 217 129 218
3 220 219 129
3 31 130 67
3 31 131 130
3 32 221 223
3 221 132 222
3 221 222 223
3 32 133 132
3 19 134 100
3 33 135 70
3 33 136 135
3 33 137 136
3 34 138 72
3 34 139 138
3 29 140 122
3 35 141 75
3 35 142 141
3 22 143 105
3 36 144 78
3 36 145 144
3 36 146 145
3 37 147 80
3 37 148 147
3 37 149 148
3 38 150 82
3 38 151 150
3 24 152 109
3 39 153 85
3 39 154 153
3 39 155 154
3 40 156 87
3 40 157 156
3 224 41 225
3 226 41 227
3 228 12 229
3 230 229 41
3 228 229 230
3 42 231 233
3 231 43 232
3 231 232 233
3 44 43 42
3 44 13 43
3 44 45 13
3 46 45 44
3 46 15 45
3 47 48 16
3 49 48 47
3 49 17 48
3 49 50 17
3 51 50 49
3 51 18 50
3 234 52 235
3 53 236 238
3 236 52 237
3 236 237 238
3 53 20 52
3 54 55 21
3 56 55 54
3 56 23 55
3 56 57 23
3 239 57 240
3 241 240 56
3 239 240 241
3 243 242 57
3 244 58 245
3 246 245 25
3 244 245 246
3 247 58 248
3 249 26 250
3 251 250 58
3 249 250 251
3 59 60 11
3 61 60 59
3 61 27 60
3 61 62 27
3 63 62 61
3 63 28 62
3 252 25 253
3 254 30 255
3 257 256 14
3 64 258 259
3 261 260 64
3 65 262 263
3 66 264 266
3 266 265 65
3 264 265 266
3 66 267 268
3 66 269 271
3 269 67 270
3 269 270 271
3 68 67 66
3 68 31 67
3 272 32 273
3 69 70 19
3 71 70 69
3 71 33 70
3 71 72 33
3 73 72 71
3 73 34 72
3 74 75 29
3 76 75 74
3 76 35 75
3 77 78 22
3 79 78 77
3 79 36 78
3 79 80 36
3 81 80 79
3 81 37 80
3 81 82 37
3 83 82 81
3 83 38 82
3 84 85 24
3 86 85 84
3 86 39 85
3 86 87 39
3 88 87 86
3 88 40 87
3 89 274 275
3 89 276 278
3 276 11 277
3 276 277 278
3 41 279 281
3 279 89 280
3 279 280 281
3 90 89 41
3 90 11 89
3 90 59 11
3 91 59 90
3 91 4 59
3 43 282 283
3 285 284 43
3 92 286 287
3 92 288 289
3 92 290 292
3 290 93 291
3 290 291 292
3 94 93 92
3 94 14 93
3 45 94 13
3 95 94 45
3 95 14 94
3 95 293 295
3 295 294 14
3 293 294 295
3 96 296 298
3 298 297 95
3 296 297 298
3 96 299 300
3 97 301 303
3 303 302 3
3 301 302 303
3 305 304 97
3 48 306 308
3 308 307 16
3 306 307 308
3 310 309 48
3 50 311 313
3 313 312 17
3 311 312 313
3 98 314 316
3 316 315 50
3 314 315 316
3 98 317 318
3 98 319 321
3 319 65 320
3 319 320 321
3 99 65 98
3 99 7 65
3 322 100 323
3 101 324 326
3 324 100 325
3 324 325 326
3 101 19 100
3 52 327 329
3 327 101 328
3 327 328 329
3 102 101 52
3 102 19 101
3 102 69 19
3 103 69 102
3 103 8 69
3 104 105 5
3 106 105 104
3 106 22 105
3 55 106 21
3 107 106 55
3 107 22 106
3 107 77 22
3 108 77 107
3 108 9 77
3 108 109 9
3 110 109 108
3 110 24 109
3 57 110 23
3 111 110 57
3 111 24 110
3 111 84 24
3 330 84 331
3 332 331 111
3 330 331 332
3 333 10 334
3 335 334 84
3 333 334 335
3 337 336 6
3 112 338 339
3 113 340 342
3 342 341 112
3 340 341 342
3 113 343 344
3 58 113 25
3 114 113 58
3 114 345 347
3 347 346 113
3 345 346 347
3 114 348 350
3 348 64 349
3 348 349 350
3 115 64 114
3 115 3 64
3 116 351 352
3 116 353 355
3 353 26 354
3 353 354 355
3 60 116 11
3 117 116 60
3 117 26 116
3 117 115 26
3 118 115 117
3 118 3 115
3 118 97 3
3 119 97 118
3 119 16 97
3 62 119 27
3 120 119 62
3 120 16 119
3 120 47 16
3 121 47 120
3 121 1 47
3 112 356 357
3 112 358 359
3 360 122 361
3 362 122 363
3 364 29 365
3 366 365 122
3 364 365 366
3 367 29 368
3 369 74 370
3 371 370 29
3 369 370 371
3 123 372 374
3 372 74 373
3 372 373 374
3 123 5 74
3 375 123 376
3 124 377 379
3 377 123 378
3 377 378 379
3 124 5 123
3 124 104 5
3 380 104 381
3 382 381 124
3 380 381 382
3 383 21 384
3 385 384 104
3 383 384 385
3 125 386 387
3 125 388 390
3 388 21 389
3 388 389 390
3 125 54 21
3 126 54 125
3 126 2 54
3 127 391 392
3 127 393 395
3 393 6 394
3 393 394 395
3 93 396 397
3 128 398 400
3 400 399 93
3 398 399 400
3 128 401 403
3 401 30 402
3 401 402 403
3 404 128 405
3 406 405 14
3 404 405 406
3 129 407 409
3 407 128 408
3 407 408 409
3 129 30 128
3 129 127 30
3 410 127 411
3 412 411 129
3 410 411 412
3 413 6 414
3 415 414 127
3 413 414 415
3 417 416 6
3 419 418 3
3 67 420 421
3 130 422 424
3 424 423 67
3 422 423 424
3 130 425 426
3 130 427 429
3 427 42 428
3 427 428 429
3 131 42 130
3 131 0 42
3 430 12 431
3 132 432 433
3 132 434 436
3 434 12 435
3 434 435 436
3 132 91 12
3 133 91 132
3 133 4 91
3 100 437 438
3 134 439 441
3 441 440 100
3 439 440 441
3 134 442 444
3 442 32 443
3 442 443 444
3 70 134 19
3 135 134 70
3 135 32 134
3 135 133 32
3 136 133 135
3 136 4 133
3 136 63 4
3 137 63 136
3 137 28 63
3 72 137 33
3 138 137 72
3 138 28 137
3 138 121 28
3 139 121 138
3 139 1 121
3 122 445 447
3 445 53 446
3 445 446 447
3 140 53 122
3 140 20 53
3 75 140 29
3 141 140 75
3 141 20 140
3 141 103 20
3 142 103 141
3 142 8 103
3 105 76 5
3 143 76 105
3 143 35 76
3 78 143 22
3 144 143 78
3 144 35 143
3 144 142 35
3 145 142 144
3 145 8 142
3 145 73 8
3 146 73 145
3 146 34 73
3 80 146 36
3 147 146 80
3 147 34 146
3 147 139 34
3 148 139 147
3 148 1 139
3 148 51 1
3 149 51 148
3 149 18 51
3 82 149 37
3 150 149 82
3 150 18 149
3 150 99 18
3 151 99 150
3 151 7 99
3 109 83 9
3 152 83 109
3 152 38 83
3 85 152 24
3 153 152 85
3 153 38 152
3 153 151 38
3 154 151 153
3 154 7 151
3 154 68 7
3 155 68 154
3 155 31 68
3 87 155 39
3 156 155 87
3 156 31 155
3 156 131 31
3 157 131 156
3 157 0 131
3 448 126 449
3 450 126 451
3 452 2 453
3 454 453 126
3 452 453 454
3 455 2 456
3 458 457 2
3 459 10 460
3 461 10 462
3 463 88 464
3 465 464 10
3 463 464 465
3 466 88 467
3 468 40 469
3 470 469 88
3 468 469 470
3 471 40 472
3 473 157 474
3 475 474 40
3 473 474 475
3 476 157 477
3 478 0 479
3 480 479 157
3 478 479 480
3 481 46 482
3 483 482 0
3 481 482 483
3 484 46 485
3 486 15 487
3 488 487 46
3 486 487 488
3 489 15 490
3 491 96 492
3 493 492 15
3 491 492 493
3 494 96 495
3 497 496 96
3 499 498 6
