ply
format ascii 1.0
element vertex 852
property float x
property float y
property float z
element face 978
property list uchar int vertex_index
end_header
2.434093 40.630913 36.859573
3.129343 -18.759716 51.199524
1.177444 13.231487 49.276947
-4.440439 -8.152911 39.76226
-1.801088 -41.218307 41.263767
-0.439602 34.470009 33.39624
1.707874 28.466038 43.477287
-1.681707 19.47451 40.314415
4.698549 -34.067749 51.210289
1.590399 -43.936737 47.391239
0.016348 -29.78319 46.657738
1.564367 -2.631432 51.638565
-1.336836 -13.380199 46.330704
-2.026014 3.377621 44.861824
2.077692 38.902412 46.063957
2.384222 51.405785 35.716843
2.43351 -55.536182 49.045998
0.710146 -54.153938 41.44487
-1.707335 -53.446995 33.472031
-3.417261 -25.581194 40.935364
-3.710997 -39.185684 33.964436
1.41721 37.992821 35.159859
2.117649 35.333263 39.922699
0.758041 31.295033 38.522457
4.010357 -26.638889 50.960297
2.487127 -31.955694 48.85424
1.72654 -24.23772 48.742546
1.208286 5.342613 50.935921
-0.229101 0.28372 48.411682
-0.350163 8.346231 47.126335
-3.164606 22.548519 35.385902
-3.48477 14.589386 38.490303
1.299309 45.057373 47.096252
1.808317 57.815788 35.454044
3.324001 -51.169178 51.459854
-0.258049 -42.499619 44.505756
0.864542 -48.899479 44.773994
-0.563812 -47.978203 41.290283
-0.562733 -53.739021 37.50243
-1.826376 -47.261848 37.56789
-3.112738 -10.650192 43.297478
-2.641584 -19.264673 43.772079
-3.96501 -16.950161 40.509941
-3.570173 -46.063583 29.821758
1.373564 20.989918 46.716824
-0.17775 16.267521 44.926842
0.208733 23.970242 41.952587
-1.170252 27.150761 36.993729
5.019217 -40.856728 52.07991
3.409195 -45.444855 50.229843
3.088934 -39.053322 49.341743
0.801565 -37.216389 46.937435
-1.265234 -35.416206 44.301407
2.248291 -10.689334 51.584404
0.923079 -16.126425 48.854965
0.220676 -7.893178 48.879723
-1.804213 -4.948284 45.895012
-3.437815 -2.045382 42.412971
-1.97555 11.531096 43.004288
-3.570814 6.387915 40.85524
-4.807924 0.550394 38.467796
2.553354 39.920372 40.810493
2.62731 45.397018 36.231544
2.218548 45.553452 41.219334
1.497065 51.841637 41.571232
5.981609 -36.094109 54.291222
5.396347 -28.944668 53.726494
4.535473 -21.271809 53.87529
3.608416 -13.305792 54.419708
2.056349 18.379841 51.432327
2.164135 26.044991 48.482071
2.345997 33.353409 44.872017
2.214148 -49.998665 48.076569
1.539738 -59.928661 41.972672
0.551226 -59.715103 37.770844
-0.571917 -59.607494 33.544205
-0.706306 -21.750168 46.497726
-2.042875 -27.61694 44.070415
-2.740652 -33.742268 41.171402
-4.411882 -23.799725 37.438225
-3.700369 -32.270897 37.673256
-2.885695 -40.126194 37.686981
-2.776777 -46.66972 33.712372
2.066063 39.479671 36.067913
2.298969 42.179382 34.976437
2.308657 38.317753 38.227436
1.810558 36.543282 37.561516
3.582405 -22.739752 51.035614
2.937452 -25.450813 49.816277
2.514416 -21.491041 49.88916
1.157377 9.298466 50.227631
0.460907 6.806667 49.058273
0.465252 10.774803 48.208694
-3.90135 23.948807 32.813099
-4.094477 19.991531 34.530613
1.486536 61.056374 35.39299
3.752943 -51.750427 53.281464
-1.084064 -41.8358 42.935249
-0.483883 -45.204323 42.990906
-1.211306 -44.682259 41.275887
-1.230803 -47.597294 39.454338
-1.850447 -44.210556 39.484344
-3.808516 -9.358706 41.583546
-3.597582 -13.724793 41.934216
-4.212526 -12.553713 40.189331
-1.503771 32.455616 32.570915
-1.064289 36.090977 30.718613
1.527037 24.778069 45.163437
0.835051 22.441051 44.351028
1.042473 26.192829 42.726749
0.174631 32.854206 35.994026
-0.169611 29.260441 37.765339
-0.832447 30.86134 35.202667
-1.875929 28.731049 34.415817
4.91507 -37.549416 51.56797
4.135246 -39.962757 50.632713
3.946428 -36.578663 50.236572
1.237356 -30.874313 47.776615
1.604874 -34.591335 47.921722
0.402842 -33.586304 46.778717
-0.290754 -36.306381 45.675285
-0.712286 -32.585197 45.549526
1.87085 -6.651355 51.683167
1.27507 -9.315526 50.242935
0.949034 -5.250346 50.225601
-1.153494 1.821852 46.69101
-1.028368 -2.289028 47.157291
-1.949247 -0.766378 45.47168
-2.673037 -3.474983 44.21814
-2.780523 0.741974 43.662102
-0.927258 17.868027 42.659828
-1.079834 13.92643 43.989868
-1.856695 15.531887 41.754982
-4.280882 11.902742 37.492531
-3.556028 10.518822 39.774071
-4.28414 7.766451 38.692078
-4.233271 3.566799 39.690147
-4.930464 4.818178 37.550484
2.383131 39.438622 43.337795
2.459421 42.622295 41.039772
2.140734 42.322803 43.724182
6.105011 -39.423912 54.866486
5.60458 -30.064388 55.424484
5.210602 -26.339207 55.352661
4.987148 -25.160757 53.725662
4.773809 -22.495005 55.456253
3.871906 -14.568644 55.99736
3.182774 -9.289171 54.684654
2.099787 22.240517 50.052246
2.037279 35.320629 48.236816
2.244421 32.465771 47.506378
2.307301 36.039909 45.493301
2.453812 36.760677 42.887341
2.56027 48.323059 35.94429
2.584917 47.832626 33.626678
2.577557 50.884789 33.132088
2.526873 -44.688065 48.786644
2.714294 -47.710819 49.225143
1.937712 -47.042244 47.70092
0.754642 -51.482346 43.180992
1.368303 -51.890877 44.983131
1.280935 -54.438755 43.371338
1.089912 -59.80262 39.875385
0.654497 -56.907532 39.62159
-1.171545 -53.587521 35.4944
-0.570852 -56.682137 35.518272
-1.132753 -56.596161 33.449081
-1.042896 -59.544888 31.425478
-1.604338 -56.496796 31.374498
-0.244789 -14.762459 47.643948
0.107683 -18.909472 47.653828
-1.036413 -17.588482 46.428303
-3.100363 -22.370827 42.401672
-2.359831 -23.493073 43.933517
-2.809114 -26.573921 42.563805
-2.475637 -30.646301 42.694221
-3.102934 -29.737568 41.073292
-4.761045 -19.408924 37.211174
-4.132254 -31.618135 35.858734
-3.72658 -35.713852 35.874298
-3.315752 -36.286182 37.703545
-3.305017 -39.642006 35.834038
-2.847666 -43.390694 35.752083
-3.255217 -43.018089 33.852608
-3.043707 -49.676773 29.603598
0.557539 36.313866 34.259285
0.004059 37.969429 31.633476
1.909058 32.007809 41.707867
1.280685 29.827881 41.006363
1.541557 33.299675 39.254307
1.079609 34.738705 36.789078
4.38982 -30.424147 51.010788
3.671904 -33.021282 49.971573
3.32955 -29.304409 49.835648
2.119722 -28.162817 48.757271
0.859608 -27.001698 47.693657
1.34219 1.366327 51.400864
0.699553 -1.20664 50.04834
0.536573 2.812424 49.668274
-0.330746 4.330408 47.883369
-1.200811 5.897223 46.014496
-2.42734 21.046932 37.888466
-2.613718 17.102367 39.429798
-3.355291 18.599396 37.019119
-4.219183 15.976868 36.099236
1.685608 38.315956 48.934769
1.719116 41.920467 46.595215
2.122238 54.584854 35.555584
0.646948 -43.203247 45.981155
1.124189 -46.392914 46.182236
0.305708 -45.776592 44.622566
0.145985 -48.412209 43.063721
0.097054 -51.127342 41.335686
0.080685 -53.922729 39.487957
-0.569462 -50.82716 39.444046
-1.204348 -50.573975 37.511948
-1.773535 -50.352478 35.550812
-2.297674 -12.000427 44.88401
-2.045069 -16.267851 45.070618
-2.892809 -14.971167 43.568893
-3.36133 -18.074545 42.197952
-3.700991 -21.305866 40.751724
-3.66271 -42.64967 31.944872
1.253887 17.133583 48.098537
0.537388 14.711498 47.126141
0.664228 18.605911 45.83033
-0.007187 20.153976 43.520485
-0.722567 21.747746 41.151752
0.465273 27.693722 40.267754
-0.46944 25.551273 39.504166
-1.452932 23.350945 38.713848
-2.182535 24.925373 36.203697
-2.908113 26.434895 33.623661
4.993906 -43.984337 52.730507
4.190645 -46.19598 51.7827
4.221361 -43.168087 51.152985
3.29261 -42.337105 49.737732
2.265678 -41.499634 48.423782
2.81506 -35.590996 49.047142
1.95224 -38.135201 48.136154
1.203197 -40.665409 47.139412
0.166708 -39.845123 45.816383
-0.788853 -39.049698 44.40345
-1.62179 -38.289391 42.875179
-4.806364 -11.477987 38.355461
2.676044 -14.732854 51.402184
2.080996 -17.460001 50.017738
1.65991 -13.391956 50.154243
0.549076 -12.010609 48.903168
-0.562185 -10.594247 47.589325
-0.04327 -3.791995 48.731766
-0.828156 -6.430799 47.442932
-1.596735 -9.15842 46.16724
-2.509756 -7.727944 44.612953
-3.296556 -6.33359 42.924198
-3.989241 -5.007314 41.113564
-0.295507 12.327675 46.136917
-1.173784 9.933672 45.113522
-2.033697 7.478151 44.042152
-2.743223 13.096363 40.794876
-2.815313 9.032267 41.960449
-2.828203 4.912958 42.915264
-3.530615 2.19829 41.73119
-4.133055 -0.693779 40.491539
-4.641748 -3.777655 39.197952
-5.30739 -2.666523 37.188801
2.562574 40.332699 38.572224
2.577297 42.734825 36.5564
2.617897 42.78833 38.614655
2.521286 45.57756 38.581291
2.301838 48.581322 38.548622
1.78607 45.373207 44.077675
1.880636 48.646484 41.391006
1.994972 51.721024 38.545586
1.642189 54.939362 38.57819
1.290098 58.186142 38.635605
5.650644 -38.499046 53.100708
5.487234 -35.092785 52.636795
5.736694 -32.596169 53.910118
5.213333 -31.521553 52.35331
4.852972 -27.80299 52.246521
4.430984 -23.961786 52.296486
3.972677 -20.028431 52.467361
4.067375 -17.309422 54.127022
3.503971 -16.036161 52.708984
3.051132 -12.016472 52.960213
2.639406 -7.9946 53.154366
2.290581 -3.986611 53.226189
1.834448 3.967533 52.792511
1.698723 11.847456 51.404388
2.040384 14.483799 52.599815
1.723057 15.757004 50.347252
1.789362 19.633942 49.070374
1.886744 23.459873 47.599014
2.00865 27.207619 45.962852
2.246954 29.763165 46.746307
2.150347 30.838448 44.19696
2.303936 34.296738 42.344112
2.452288 37.50079 40.455223
2.485762 44.916103 34.230209
3.423311 -48.38485 50.808456
2.806231 -50.582161 49.737244
2.388102 -52.82423 48.524216
1.561493 -49.432636 46.435303
1.915789 -52.343212 46.756168
2.145647 -55.144405 47.157455
1.344601 -62.62421 40.269661
0.913118 -62.565651 38.109352
0.423016 -62.528881 35.949425
0.042803 -56.778934 37.577137
-0.022881 -59.656349 35.66
-0.066032 -62.498783 33.790054
-0.494862 -62.453979 31.631279
1.322054 -20.213486 48.786575
0.479919 -23.00164 47.659882
-0.354076 -25.82748 46.567825
-1.758959 -20.497721 45.208038
-1.442705 -24.652151 45.323311
-1.095186 -28.692535 45.433952
-1.681429 -31.600367 44.191689
-2.08436 -34.557739 42.797035
-2.311193 -37.572567 41.233017
-4.523222 -15.910081 38.734341
-4.229055 -20.315002 39.013973
-3.925852 -24.653433 39.217365
-4.060537 -28.099115 37.587822
-3.607798 -28.886158 39.360458
-3.260542 -32.978535 39.452473
-2.863733 -36.90448 39.498852
-2.397287 -40.649281 39.505714
-2.391459 -43.783535 37.635433
-2.338148 -46.958347 35.648415
-2.261221 -50.142929 33.573341
-3.173906 -46.377548 31.769855
-2.153051 -53.294292 31.443256
-4.371697 22.602206 32.391872
-4.27245 24.586622 31.494221
1.595052 62.371376 33.720421
1.348695 62.656982 35.366975
-4.642907 8.393423 37.563786
-4.282511 9.834596 38.092304
-4.641278 10.461569 36.964012
-4.966069 6.919287 36.992988
-4.607302 6.292314 38.121281
-4.642907 8.393423 37.563786
-5.29159 5.374963 36.434162
-4.966069 6.919287 36.992988
4.945693 -25.020035 56.286735
5.154438 -26.918527 56.267632
4.727296 -23.097934 56.338532
4.992205 -24.417106 55.404457
4.945693 -25.020035 56.286735
2.384729 -56.842519 49.34293
2.536903 -55.734785 50.001846
2.326804 -56.694438 48.346134
2.384729 -56.842519 49.34293
0.959827 -55.617607 41.546982
1.245221 -55.760016 42.510216
0.99554 -54.296346 42.408104
0.682322 -55.530735 40.53323
0.932002 -56.994404 40.635342
0.959827 -55.617607 41.546982
-3.718788 -37.449768 34.919367
-3.944439 -35.446316 34.949797
-3.936647 -37.182232 33.994866
1.192521 38.814787 33.897116
0.762685 37.975309 33.446829
0.987375 37.153343 34.709572
-4.591379 16.605652 34.864155
-4.15683 17.984199 35.314925
-4.529026 18.612983 34.079844
-4.616974 14.567297 35.611748
-4.591379 16.605652 34.864155
1.472884 39.870728 49.266415
1.474511 37.996797 50.421429
1.474511 37.996797 50.421429
1.685875 36.454355 50.01088
2.033107 57.523376 33.946657
2.190067 55.90791 33.997427
1.965278 56.200321 35.504814
3.215838 -52.490606 51.813396
3.430308 -52.781231 52.724201
3.538472 -51.459803 52.370659
3.054417 -52.243545 50.88874
3.215838 -52.490606 51.813396
-0.278252 38.801021 30.27077
0.245791 39.667043 30.80098
-2.744062 28.344538 32.697261
-2.392021 27.582972 34.019739
-2.22797 29.492615 33.093339
-3.270676 27.141577 32.301147
-2.744062 28.344538 32.697261
1.688851 50.244061 41.481119
1.63041 48.593021 42.903421
1.438624 50.190597 42.993534
1.04509 58.252624 40.282654
1.204782 56.635315 40.196453
1.140402 59.797176 38.663826
1.04509 58.252624 40.282654
2.725465 -6.637322 54.003422
2.91109 -8.641886 53.91951
2.997149 -7.284608 54.768566
2.551052 -4.633328 54.039333
2.464994 -5.990606 53.190278
2.725465 -6.637322 54.003422
2.060822 3.323791 53.726867
1.927252 1.984148 52.955929
1.881214 11.206424 52.469612
1.714813 9.88183 51.813488
2.048367 16.43182 52.016071
2.101465 15.853704 53.210121
2.109447 17.801725 52.626377
2.457776 47.449733 32.622747
2.5462 48.98629 32.225788
1.839449 -53.558143 46.013952
1.642046 -52.117045 45.86965
1.565706 -53.331976 45.127433
1.954378 -54.95874 46.214596
2.030718 -53.743809 46.956812
1.839449 -53.558143 46.013952
2.074015 -56.354778 46.406826
1.954378 -54.95874 46.214596
1.702851 -60.010281 43.017508
1.60277 -58.615842 42.816102
1.605084 -61.319153 42.20102
1.702851 -60.010281 43.017508
1.442169 -61.276435 41.121167
1.507515 -62.666927 41.349514
1.605084 -61.319153 42.20102
-0.930461 -60.958365 30.449738
-1.22273 -59.494896 30.366186
-4.81456 -15.438225 37.810866
-4.664793 -13.694034 38.544901
-4.956131 -13.222179 37.621426
-2.859573 -49.80055 30.596546
-2.779896 -51.392219 29.508645
-2.334568 -53.200979 30.428474
-2.414245 -51.60931 31.516375
-2.062057 -54.827571 30.371361
-2.334568 -53.200979 30.428474
1.910253 40.274462 34.903009
1.585826 39.531036 34.448982
1.741637 38.736246 35.613886
2.026706 41.624317 34.357271
1.910253 40.274462 34.903009
2.182516 40.829527 35.522175
2.184127 43.118719 33.774157
2.026706 41.624317 34.357271
-4.46826 20.623568 33.25063
-3.997914 21.970169 33.671856
-4.371697 22.602206 32.391872
-4.529026 18.612983 34.079844
-4.46826 20.623568 33.25063
1.738241 60.758934 33.805225
1.899131 59.138641 33.835752
1.647426 59.436081 35.423517
1.738241 60.758934 33.805225
1.595052 62.371376 33.720421
4.136099 -50.729635 53.810154
3.914992 -52.036836 54.253888
3.893766 -50.401774 52.891132
4.136099 -50.729635 53.810154
3.679295 -50.111149 51.980328
3.538472 -51.459803 52.370659
3.893766 -50.401774 52.891132
-1.839207 33.227628 31.220239
-2.041891 31.354898 32.170888
-1.619466 35.045309 30.294087
-1.839207 33.227628 31.220239
-1.28403 34.273297 31.644764
-1.376517 36.877198 29.340944
-1.619466 35.045309 30.294087
-2.041891 31.354898 32.170888
-2.22797 29.492615 33.093339
-1.68985 30.593332 33.493366
-5.217524 3.241789 36.950085
-5.156254 1.107897 37.408741
-4.869194 2.684286 38.00914
-5.217524 3.241789 36.950085
-5.29159 5.374963 36.434162
1.339746 46.798465 45.756044
1.091267 46.662563 47.331587
1.23921 51.805565 43.155737
1.438624 50.190597 42.993534
1.308266 53.463062 41.664266
1.23921 51.805565 43.155737
6.181857 -39.872867 55.866844
6.094095 -41.000517 55.241032
6.130738 -38.24684 55.524945
6.181857 -39.872867 55.866844
6.069038 -36.581938 55.237313
6.04331 -37.759011 54.578854
6.130738 -38.24684 55.524945
5.351427 -28.781118 56.303543
5.541533 -30.613031 56.381771
5.407591 -28.201797 55.388572
5.351427 -28.781118 56.303543
5.154438 -26.918527 56.267632
3.652363 -13.178581 57.018619
3.849775 -15.191802 56.853676
3.66233 -12.558861 56.152313
3.652363 -13.178581 57.018619
3.530585 -11.927435 55.363487
3.740161 -13.937218 55.208534
3.66233 -12.558861 56.152313
3.317765 -9.919124 55.49596
3.395595 -11.297481 54.552181
3.530585 -11.927435 55.363487
3.131877 -7.908216 55.616665
3.317765 -9.919124 55.49596
2.997149 -7.284608 54.768566
3.131877 -7.908216 55.616665
2.107897 19.747228 51.98516
2.109447 17.801725 52.626377
2.129616 21.677567 51.29512
2.078068 20.310179 50.742286
2.107897 19.747228 51.98516
2.135941 23.604235 50.549351
2.129616 21.677567 51.29512
2.168115 25.506472 49.764263
2.131961 24.142754 49.267158
2.135941 23.604235 50.549351
2.14085 33.8932 47.871597
2.133086 32.039935 48.870674
2.029515 33.467363 49.235893
2.54252 50.512372 31.978493
2.5462 48.98629 32.225788
2.581237 49.358707 33.379383
1.522022 -54.605915 44.321537
1.565706 -53.331976 45.127433
1.324619 -53.164816 44.177234
1.473368 -55.87089 43.515434
1.522022 -54.605915 44.321537
1.473368 -55.87089 43.515434
1.245221 -55.760016 42.510216
1.374623 -58.504969 41.810883
1.60277 -58.615842 42.816102
1.14971 -58.441948 40.762239
1.314825 -59.86564 40.924029
1.374623 -58.504969 41.810883
0.872205 -58.355076 39.748487
1.14971 -58.441948 40.762239
0.932002 -56.994404 40.635342
-1.503451 -57.97085 30.340696
-1.22273 -59.494896 30.366186
-1.323617 -58.020842 31.399988
-5.058788 -19.000164 36.280648
-4.933471 -17.187647 37.049282
-4.853696 -21.215664 36.411434
-5.058788 -19.000164 36.280648
-4.679115 -23.411065 36.52496
-4.586464 -21.604324 37.3247
-4.853696 -21.215664 36.411434
-4.147276 -33.398457 34.942014
-4.377203 -31.315734 34.938202
-3.929417 -33.665993 35.866516
-4.147276 -33.398457 34.942014
-3.944439 -35.446316 34.949797
-3.221676 -49.529716 28.608434
-3.30694 -47.870178 29.712678
-3.484909 -47.723122 28.717514
-2.932543 -51.272752 28.494338
-3.221676 -49.529716 28.608434
-2.779896 -51.392219 29.508645
-2.932543 -51.272752 28.494338
0.485945 38.803091 32.133924
0.280799 37.141647 32.946381
0.762685 37.975309 33.446829
0.245791 39.667043 30.80098
0.485945 38.803091 32.133924
1.192521 38.814787 33.897116
1.585826 39.531036 34.448982
-4.647823 12.530234 36.308396
-4.250032 13.939805 36.795884
-4.616974 14.567297 35.611748
-4.641278 10.461569 36.964012
-4.647823 12.530234 36.308396
1.489638 41.672983 48.096638
1.702362 40.118212 47.764992
1.472884 39.870728 49.266415
1.279734 43.241436 48.347156
1.509213 43.48892 46.845734
1.489638 41.672983 48.096638
1.065225 44.834785 48.658234
1.279734 43.241436 48.347156
1.091267 46.662563 47.331587
1.065225 44.834785 48.658234
1.861711 34.956691 49.661903
2.029515 33.467363 49.235893
1.861444 36.818292 48.585792
1.861711 34.956691 49.661903
1.685875 36.454355 50.01088
2.292896 54.30682 34.147261
2.423888 52.717286 34.22789
2.25323 52.99532 35.636213
2.292896 54.30682 34.147261
2.190067 55.90791 33.997427
2.033107 57.523376 33.946657
1.899131 59.138641 33.835752
3.554251 -53.026089 53.688817
3.914992 -52.036836 54.253888
3.554251 -53.026089 53.688817
3.430308 -52.781231 52.724201
2.609171 -54.427048 49.681812
2.536903 -55.734785 50.001846
-3.934992 -38.964355 33.023066
-3.936647 -37.182232 33.994866
-3.910849 -40.696348 32.013284
-3.686853 -40.917677 32.954654
-3.934992 -38.964355 33.023066
-3.887991 -42.459024 30.98476
-3.910849 -40.696348 32.013284
-3.841723 -44.165981 29.923203
-3.616442 -44.356627 30.883315
-3.887991 -42.459024 30.98476
-3.783756 -45.887116 28.840986
-3.841723 -44.165981 29.923203
-3.484909 -47.723122 28.717514
-3.783756 -45.887116 28.840986
-0.812426 37.861795 29.813339
-0.530115 37.030203 31.176045
-0.278252 38.801021 30.27077
-1.376517 36.877198 29.340944
-0.812426 37.861795 29.813339
-3.767294 25.898533 31.895867
-3.404732 25.191851 33.21838
-3.270676 27.141577 32.301147
-4.27245 24.586622 31.494221
-3.767294 25.898533 31.895867
4.592275 -45.090159 52.256603
4.509308 -46.56447 52.638561
4.910939 -45.458649 53.112465
-4.938734 -9.266028 38.102545
-4.623401 -9.815449 39.05886
-4.755771 -7.60349 38.805944
-5.122189 -10.994414 37.398983
-4.938734 -9.266028 38.102545
-4.956131 -13.222179 37.621426
-5.122189 -10.994414 37.398983
-4.856426 -5.415862 38.52379
-4.755771 -7.60349 38.805944
-4.541093 -5.965283 39.480106
-5.189247 -4.860296 37.519215
-4.856426 -5.415862 38.52379
-4.974569 -3.222089 38.193376
-5.526563 -4.371341 36.519523
-5.189247 -4.860296 37.519215
-5.405987 -0.500561 36.769244
-5.057657 -1.058064 37.828299
-5.156254 1.107897 37.408741
-5.662059 -2.177273 36.137876
-5.405987 -0.500561 36.769244
-5.526563 -4.371341 36.519523
-5.662059 -2.177273 36.137876
1.583127 46.956383 44.246755
1.54269 45.21529 45.586963
1.339746 46.798465 45.756044
1.833353 47.009845 42.734341
1.583127 46.956383 44.246755
1.63041 48.593021 42.903421
1.380828 55.011925 40.167745
1.569627 53.3905 40.074711
1.308266 53.463062 41.664266
1.466143 56.562752 38.606898
1.380828 55.011925 40.167745
1.204782 56.635315 40.196453
1.238622 61.232292 37.042518
1.388317 59.621258 37.014297
1.140402 59.797176 38.663826
1.348695 62.656982 35.366975
1.238622 61.232292 37.042518
5.278443 -44.382044 53.620083
4.910939 -45.458649 53.112465
5.337767 -42.856945 53.231964
5.278443 -44.382044 53.620083
5.350423 -41.29314 52.906666
5.006562 -42.420532 52.405209
5.337767 -42.856945 53.231964
5.89332 -40.576733 54.299954
5.882404 -42.153338 54.674499
6.094095 -41.000517 55.241032
5.666137 -40.1143 53.417064
5.89332 -40.576733 54.299954
5.877828 -38.961479 53.983597
5.334931 -39.677887 52.590309
5.350423 -41.29314 52.906666
5.666137 -40.1143 53.417064
5.955358 -34.870537 54.99498
6.069038 -36.581938 55.237313
5.766844 -31.855677 55.561611
5.541533 -30.613031 56.381771
5.832901 -33.121567 54.804428
5.766844 -31.855677 55.561611
5.670637 -31.330279 54.667301
5.859151 -34.345139 54.10067
5.955358 -34.870537 54.99498
5.832901 -33.121567 54.804428
4.511902 -21.145705 56.435543
4.727296 -23.097934 56.338532
4.546698 -20.527926 55.573528
4.511902 -21.145705 56.435543
4.42753 -19.916328 54.783047
4.654641 -21.883407 54.665771
4.546698 -20.527926 55.573528
4.095746 -16.564745 55.844082
3.849775 -15.191802 56.853676
4.19348 -17.935134 54.908913
4.095746 -16.564745 55.844082
3.969641 -15.939033 55.062191
4.301424 -19.290616 54.001156
4.42753 -19.916328 54.783047
4.19348 -17.935134 54.908913
2.400456 -2.638018 54.043515
2.551052 -4.633328 54.039333
2.155318 -1.992924 53.172768
2.400456 -2.638018 54.043515
1.792212 -1.315335 52.378956
1.927474 -3.309022 52.432377
2.155318 -1.992924 53.172768
1.681123 0.683545 52.260105
1.453279 -0.632553 51.519714
1.792212 -1.315335 52.378956
1.588319 2.66693 52.096688
1.681123 0.683545 52.260105
1.927252 1.984148 52.955929
1.987866 5.299112 53.507851
2.060822 3.323791 53.726867
1.782676 5.941868 52.507549
1.987866 5.299112 53.507851
1.469595 6.629409 51.579255
1.521367 4.655073 51.864216
1.782676 5.941868 52.507549
1.444141 8.607335 51.22511
1.182832 7.320539 50.581776
1.469595 6.629409 51.579255
1.42805 10.572961 50.816009
1.444141 8.607335 51.22511
1.714813 9.88183 51.813488
2.114259 13.896358 53.738117
2.101465 15.853704 53.210121
2.052045 12.524596 53.067325
2.114259 13.896358 53.738117
1.869553 13.165627 52.002101
1.881214 11.206424 52.469612
2.052045 12.524596 53.067325
2.181887 27.40343 48.922699
2.168115 25.506472 49.764263
2.22203 30.613819 48.434852
2.133086 32.039935 48.870674
2.223296 29.262517 48.054817
2.22203 30.613819 48.434852
2.245687 31.114468 47.126342
2.205545 27.904078 47.614189
2.181887 27.40343 48.922699
2.223296 29.262517 48.054817
2.277524 44.48708 33.401043
2.184127 43.118719 33.774157
2.392365 43.547742 34.603323
2.408199 45.991472 32.924512
2.53534 46.374364 33.928444
2.457776 47.449733 32.622747
2.277524 44.48708 33.401043
2.408199 45.991472 32.924512
2.520555 52.456787 32.935513
2.480889 51.145287 34.424465
2.423888 52.717286 34.22789
2.578578 52.078537 31.650191
2.520555 52.456787 32.935513
2.54252 50.512372 31.978493
2.578578 52.078537 31.650191
4.112617 -47.62455 52.141751
4.509308 -46.56447 52.638561
3.72895 -48.718985 51.654629
4.112617 -47.62455 52.141751
3.806978 -47.290415 51.295578
3.373656 -49.777014 51.134155
3.679295 -50.111149 51.980328
3.72895 -48.718985 51.654629
2.795532 -51.950037 50.027435
3.054417 -52.243545 50.88874
3.065116 -50.87567 50.598549
2.586467 -53.071072 49.420922
2.795532 -51.950037 50.027435
2.597167 -51.703195 49.13073
2.410806 -54.180206 48.785107
2.609171 -54.427048 49.681812
2.586467 -53.071072 49.420922
2.182873 -56.49855 47.401863
2.326804 -56.694438 48.346134
2.289579 -55.340294 48.101726
2.182873 -56.49855 47.401863
2.074015 -56.354778 46.406826
1.376552 -64.003305 40.540909
1.507515 -62.666927 41.349514
1.225289 -63.983912 39.437629
1.376552 -64.003305 40.540909
1.009547 -63.954632 38.357475
1.225289 -63.983912 39.437629
1.128859 -62.594931 39.189507
0.824461 -63.94035 37.25658
1.009547 -63.954632 38.357475
0.57941 -63.921965 36.176617
0.824461 -63.94035 37.25658
0.668067 -62.547266 37.029388
0.38729 -63.907697 35.078209
0.57941 -63.921965 36.176617
0.142766 -63.892648 33.998523
0.38729 -63.907697 35.078209
0.178492 -62.513832 34.869739
-0.027333 -63.869616 32.902195
0.142766 -63.892648 33.998523
-0.241748 -63.847213 31.822807
-0.027333 -63.869616 32.902195
-0.280447 -62.476381 32.710667
-0.364762 -63.80534 30.728176
-0.111648 -65.198574 30.919705
-0.241748 -63.847213 31.822807
-0.656444 -62.41291 30.552639
-0.768879 -60.999433 31.528378
-0.930461 -60.958365 30.449738
-0.364762 -63.80534 30.728176
-0.656444 -62.41291 30.552639
-4.642133 -17.659502 37.972758
-4.81456 -15.438225 37.810866
-4.933471 -17.187647 37.049282
-4.474428 -25.588459 36.606898
-4.679115 -23.411065 36.52496
-4.334614 -29.497664 35.817152
-4.377203 -31.315734 34.938202
-4.298756 -27.738154 36.681696
-4.334614 -29.497664 35.817152
-4.096395 -29.858625 36.723278
-4.23621 -25.94942 37.513024
-4.474428 -25.588459 36.606898
-4.298756 -27.738154 36.681696
-2.924673 -48.150938 31.679674
-3.108807 -48.02716 30.686726
-2.859573 -49.80055 30.596546
-2.726109 -48.297024 32.650933
-2.975341 -46.523634 32.741113
-2.924673 -48.150938 31.679674
-2.46833 -50.033629 32.581417
-2.518999 -48.406324 33.642857
-2.726109 -48.297024 32.650933
-2.207136 -51.71861 32.508299
-2.46833 -50.033629 32.581417
-2.414245 -51.60931 31.516375
-1.787701 -56.428824 30.336982
-1.878694 -54.895544 31.408877
-2.062057 -54.827571 30.371361
-1.503451 -57.97085 30.340696
-1.787701 -56.428824 30.336982
3 0 84 83
3 0 83 85
3 1 89 87
3 2 92 90
3 336 335 93
3 338 337 95
3 4 99 97
3 4 101 99
3 3 104 102
3 5 106 105
3 6 109 107
3 5 112 110
3 5 105 112
3 8 116 114
3 10 119 117
3 10 121 119
3 11 124 122
3 13 127 125
3 13 129 127
3 7 132 130
3 339 135 340
3 341 340 133
3 339 340 341
3 342 137 343
3 344 343 135
3 342 343 344
3 346 345 137
3 14 140 138
3 347 143 348
3 349 145 350
3 351 350 143
3 349 350 351
3 14 151 149
3 14 138 151
3 15 155 153
3 16 352 353
3 16 354 355
3 9 158 156
3 17 161 159
3 17 356 358
3 358 357 161
3 356 357 358
3 17 359 361
3 359 163 360
3 359 360 361
3 18 166 164
3 18 168 166
3 12 171 169
3 19 174 172
3 19 176 174
3 20 362 364
3 362 179 363
3 362 363 364
3 20 181 179
3 20 183 181
3 21 365 367
3 367 366 185
3 365 366 367
3 22 189 187
3 21 190 86
3 21 185 190
3 24 193 191
3 26 194 88
3 26 195 194
3 27 198 196
3 29 199 91
3 29 200 199
3 30 203 201
3 368 204 369
3 370 369 94
3 368 369 370
3 372 371 204
3 374 373 205
3 375 205 376
3 33 377 379
3 379 378 207
3 377 378 379
3 34 380 382
3 382 381 96
3 380 381 382
3 34 383 384
3 35 210 208
3 37 211 98
3 37 212 211
3 37 214 212
3 39 215 100
3 39 216 215
3 40 219 217
3 42 220 103
3 42 221 220
3 386 385 186
3 44 225 223
3 46 226 108
3 46 227 226
3 23 228 188
3 47 229 111
3 47 230 229
3 47 231 230
3 387 232 388
3 389 388 113
3 387 388 389
3 391 390 232
3 48 235 233
3 50 236 115
3 50 237 236
3 25 238 192
3 51 239 118
3 51 240 239
3 51 241 240
3 52 242 120
3 52 243 242
3 53 247 245
3 55 248 123
3 55 249 248
3 28 250 197
3 56 251 126
3 56 252 251
3 56 253 252
3 57 254 128
3 57 255 254
3 45 256 224
3 58 257 131
3 58 258 257
3 31 259 202
3 59 260 134
3 59 261 260
3 59 262 261
3 60 263 136
3 60 264 263
3 60 265 264
3 61 268 266
3 63 269 139
3 63 270 269
3 32 271 206
3 64 392 394
3 392 272 393
3 392 393 394
3 64 273 272
3 64 274 273
3 395 275 396
3 398 397 275
3 65 276 141
3 65 277 276
3 66 278 142
3 66 279 278
3 66 280 279
3 67 281 144
3 67 282 281
3 68 283 146
3 68 284 283
3 68 285 284
3 399 286 400
3 401 400 147
3 399 400 401
3 402 287 403
3 404 403 286
3 402 403 404
3 405 288 406
3 407 289 408
3 69 409 411
3 409 290 410
3 409 410 411
3 69 291 290
3 69 292 291
3 70 293 148
3 70 294 293
3 71 295 150
3 71 296 295
3 71 297 296
3 61 298 152
3 61 266 298
3 62 299 267
3 413 412 154
3 49 300 234
3 72 301 157
3 72 302 301
3 36 303 209
3 414 304 415
3 416 415 160
3 414 415 416
3 417 305 418
3 419 418 304
3 417 418 419
3 421 420 305
3 73 422 423
3 73 424 425
3 73 426 428
3 426 306 427
3 426 427 428
3 74 307 162
3 74 308 307
3 38 309 213
3 75 310 165
3 75 311 310
3 75 312 311
3 430 429 167
3 54 313 246
3 76 314 170
3 76 315 314
3 41 316 218
3 77 317 173
3 77 318 317
3 77 319 318
3 78 320 175
3 78 321 320
3 431 322 432
3 433 432 244
3 431 432 433
3 79 323 177
3 79 324 323
3 80 325 178
3 80 326 325
3 80 327 326
3 81 328 180
3 81 329 328
3 81 330 329
3 82 331 182
3 82 332 331
3 43 333 222
3 435 434 184
3 436 334 437
3 439 438 334
3 83 440 442
3 442 441 21
3 440 441 442
3 84 443 445
3 445 444 83
3 443 444 445
3 84 446 447
3 85 86 22
3 83 86 85
3 83 21 86
3 87 88 24
3 89 88 87
3 89 26 88
3 90 91 27
3 92 91 90
3 92 29 91
3 93 94 30
3 448 94 449
3 450 449 93
3 448 449 450
3 452 451 94
3 95 453 455
3 455 454 33
3 453 454 455
3 457 456 95
3 458 96 459
3 460 96 461
3 462 34 463
3 464 463 96
3 462 463 464
3 97 98 35
3 99 98 97
3 99 37 98
3 99 100 37
3 101 100 99
3 101 39 100
3 102 103 40
3 104 103 102
3 104 42 103
3 105 465 466
3 106 467 469
3 469 468 105
3 467 468 469
3 106 470 471
3 107 108 44
3 109 108 107
3 109 46 108
3 110 111 23
3 112 111 110
3 112 47 111
3 112 113 47
3 105 113 112
3 105 472 474
3 474 473 113
3 472 473 474
3 114 115 48
3 116 115 114
3 116 50 115
3 117 118 25
3 119 118 117
3 119 51 118
3 119 120 51
3 121 120 119
3 121 52 120
3 122 123 53
3 124 123 122
3 124 55 123
3 125 126 28
3 127 126 125
3 127 56 126
3 127 128 56
3 129 128 127
3 129 57 128
3 130 131 45
3 132 131 130
3 132 58 131
3 133 134 31
3 135 134 133
3 135 59 134
3 135 136 59
3 137 136 135
3 137 60 136
3 137 475 477
3 477 476 60
3 475 476 477
3 479 478 137
3 138 139 61
3 140 139 138
3 140 63 139
3 481 480 32
3 482 64 483
3 485 484 64
3 486 141 487
3 488 141 489
3 490 65 491
3 492 491 141
3 490 491 492
3 493 142 494
3 143 495 497
3 495 142 496
3 495 496 497
3 143 66 142
3 143 144 66
3 145 144 143
3 145 67 144
3 498 146 499
3 500 146 501
3 502 68 503
3 504 503 146
3 502 503 504
3 505 147 506
3 507 506 68
3 505 506 507
3 508 147 509
3 511 510 147
3 512 69 513
3 514 148 515
3 516 515 69
3 514 515 516
3 517 148 518
3 519 70 520
3 521 520 148
3 519 520 521
3 149 522 524
3 522 150 523
3 522 523 524
3 151 150 149
3 151 71 150
3 151 152 71
3 138 152 151
3 138 61 152
3 153 154 62
3 155 154 153
3 155 525 527
3 527 526 154
3 525 526 527
3 156 157 49
3 158 157 156
3 158 72 157
3 159 160 36
3 161 160 159
3 161 528 530
3 530 529 160
3 528 529 530
3 161 531 532
3 534 533 161
3 535 73 536
3 537 162 538
3 539 538 73
3 537 538 539
3 163 540 542
3 540 162 541
3 540 541 542
3 163 74 162
3 164 165 38
3 166 165 164
3 166 75 165
3 166 167 75
3 168 167 166
3 168 543 545
3 545 544 167
3 543 544 545
3 169 170 54
3 171 170 169
3 171 76 170
3 172 173 41
3 174 173 172
3 174 77 173
3 174 175 77
3 176 175 174
3 176 78 175
3 546 177 547
3 548 177 549
3 550 79 551
3 552 551 177
3 550 551 552
3 553 178 554
3 179 555 557
3 555 178 556
3 555 556 557
3 179 80 178
3 179 180 80
3 181 180 179
3 181 81 180
3 181 182 81
3 183 182 181
3 183 82 182
3 558 184 559
3 560 559 43
3 558 559 560
3 561 184 562
3 564 563 184
3 185 186 5
3 565 186 566
3 567 566 185
3 565 566 567
3 569 568 186
3 571 570 21
3 187 188 6
3 189 188 187
3 189 23 188
3 86 189 22
3 190 189 86
3 190 23 189
3 190 110 23
3 185 110 190
3 185 5 110
3 191 192 8
3 193 192 191
3 193 25 192
3 88 193 24
3 194 193 88
3 194 25 193
3 194 117 25
3 195 117 194
3 195 10 117
3 196 197 11
3 198 197 196
3 198 28 197
3 91 198 27
3 199 198 91
3 199 28 198
3 199 125 28
3 200 125 199
3 200 13 125
3 201 202 7
3 203 202 201
3 203 31 202
3 94 203 30
3 204 203 94
3 204 31 203
3 204 133 31
3 572 133 573
3 574 573 204
3 572 573 574
3 576 575 133
3 205 206 14
3 577 206 578
3 579 578 205
3 577 578 579
3 580 32 581
3 582 581 206
3 580 581 582
3 583 32 584
3 586 585 32
3 587 149 588
3 205 589 591
3 589 149 590
3 589 590 591
3 205 14 149
3 207 592 594
3 594 593 15
3 592 593 594
3 596 595 207
3 598 597 33
3 96 599 600
3 602 601 96
3 603 16 604
3 208 209 9
3 210 209 208
3 210 36 209
3 98 210 35
3 211 210 98
3 211 36 210
3 211 159 36
3 212 159 211
3 212 17 159
3 212 213 17
3 214 213 212
3 214 38 213
3 100 214 37
3 215 214 100
3 215 38 214
3 215 164 38
3 216 164 215
3 216 18 164
3 217 218 12
3 219 218 217
3 219 41 218
3 103 219 40
3 220 219 103
3 220 41 219
3 220 172 41
3 221 172 220
3 221 19 172
3 605 20 606
3 607 222 608
3 609 608 20
3 607 608 609
3 610 222 611
3 612 43 613
3 614 613 222
3 612 613 614
3 615 43 616
3 618 617 43
3 186 106 5
3 619 106 620
3 621 620 186
3 619 620 621
3 623 622 106
3 223 224 2
3 225 224 223
3 225 45 224
3 108 225 44
3 226 225 108
3 226 45 225
3 226 130 45
3 227 130 226
3 227 7 130
3 188 109 6
3 228 109 188
3 228 46 109
3 111 228 23
3 229 228 111
3 229 46 228
3 229 227 46
3 230 227 229
3 230 7 227
3 230 201 7
3 231 201 230
3 231 30 201
3 113 231 47
3 232 231 113
3 232 30 231
3 232 93 30
3 624 93 625
3 626 625 232
3 624 625 626
3 628 627 93
3 233 629 631
3 629 234 630
3 629 630 631
3 235 234 233
3 235 49 234
3 115 235 48
3 236 235 115
3 236 49 235
3 236 156 49
3 237 156 236
3 237 9 156
3 192 116 8
3 238 116 192
3 238 50 116
3 118 238 25
3 239 238 118
3 239 50 238
3 239 237 50
3 240 237 239
3 240 9 237
3 240 208 9
3 241 208 240
3 241 35 208
3 120 241 51
3 242 241 120
3 242 35 241
3 242 97 35
3 243 97 242
3 243 4 97
3 632 244 633
3 634 633 3
3 632 633 634
3 635 244 636
3 638 637 244
3 245 246 1
3 247 246 245
3 247 54 246
3 123 247 53
3 248 247 123
3 248 54 247
3 248 169 54
3 249 169 248
3 249 12 169
3 197 124 11
3 250 124 197
3 250 55 124
3 126 250 28
3 251 250 126
3 251 55 250
3 251 249 55
3 252 249 251
3 252 12 249
3 252 217 12
3 253 217 252
3 253 40 217
3 128 253 56
3 254 253 128
3 254 40 253
3 254 102 40
3 255 102 254
3 255 3 102
3 224 92 2
3 256 92 224
3 256 29 92
3 131 256 45
3 257 256 131
3 257 29 256
3 257 200 29
3 258 200 257
3 258 13 200
3 202 132 7
3 259 132 202
3 259 58 132
3 134 259 31
3 260 259 134
3 260 58 259
3 260 258 58
3 261 258 260
3 261 13 258
3 261 129 13
3 262 129 261
3 262 57 129
3 136 262 59
3 263 262 136
3 263 57 262
3 263 255 57
3 264 255 263
3 264 3 255
3 264 639 641
3 641 640 3
3 639 640 641
3 265 642 644
3 644 643 264
3 642 643 644
3 265 645 646
3 647 265 648
3 649 648 60
3 647 648 649
3 650 265 651
3 653 652 265
3 266 267 0
3 268 267 266
3 268 62 267
3 139 268 61
3 269 268 139
3 269 62 268
3 269 153 62
3 270 153 269
3 270 15 153
3 206 140 14
3 271 140 206
3 271 63 140
3 654 271 655
3 656 655 32
3 654 655 656
3 272 657 659
3 657 271 658
3 657 658 659
3 272 63 271
3 272 270 63
3 273 270 272
3 273 15 270
3 273 207 15
3 274 207 273
3 274 33 207
3 660 274 661
3 662 661 64
3 660 661 662
3 275 663 665
3 663 274 664
3 663 664 665
3 275 33 274
3 275 95 33
3 666 95 667
3 668 667 275
3 666 667 668
3 670 669 95
3 671 233 672
3 673 233 674
3 675 48 676
3 677 676 233
3 675 676 677
3 141 678 680
3 678 679 680
3 276 681 683
3 683 682 141
3 681 682 683
3 276 684 686
3 684 48 685
3 684 685 686
3 276 114 48
3 277 114 276
3 277 8 114
3 687 65 688
3 142 689 690
3 278 691 693
3 693 692 142
3 691 692 693
3 278 694 696
3 694 65 695
3 694 695 696
3 278 277 65
3 279 277 278
3 279 8 277
3 279 191 8
3 280 191 279
3 280 24 191
3 144 280 66
3 281 280 144
3 281 24 280
3 281 87 24
3 282 87 281
3 282 1 87
3 697 145 698
3 699 145 700
3 701 67 702
3 703 702 145
3 701 702 703
3 146 704 705
3 283 706 708
3 708 707 146
3 706 707 708
3 283 709 711
3 709 67 710
3 709 710 711
3 283 282 67
3 284 282 283
3 284 1 282
3 284 245 1
3 285 245 284
3 285 53 245
3 147 285 68
3 286 285 147
3 286 53 285
3 286 122 53
3 287 122 286
3 287 11 122
3 712 287 713
3 714 287 715
3 716 11 717
3 718 717 287
3 716 717 718
3 719 196 720
3 721 720 11
3 719 720 721
3 288 722 724
3 722 196 723
3 722 723 724
3 288 27 196
3 725 288 726
3 727 288 728
3 729 27 730
3 731 730 288
3 729 730 731
3 732 90 733
3 734 733 27
3 732 733 734
3 289 735 737
3 735 90 736
3 735 736 737
3 289 2 90
3 290 738 739
3 290 740 741
3 290 742 744
3 742 289 743
3 742 743 744
3 291 289 290
3 291 2 289
3 291 223 2
3 292 223 291
3 292 44 223
3 148 292 69
3 293 292 148
3 293 44 292
3 293 107 44
3 294 107 293
3 294 6 107
3 745 70 746
3 150 747 748
3 295 749 751
3 751 750 150
3 749 750 751
3 295 752 754
3 752 70 753
3 752 753 754
3 295 294 70
3 296 294 295
3 296 6 294
3 296 187 6
3 297 187 296
3 297 22 187
3 152 297 71
3 298 297 152
3 298 22 297
3 298 85 22
3 266 85 298
3 266 0 85
3 267 84 0
3 299 84 267
3 299 755 757
3 757 756 84
3 755 756 757
3 154 299 62
3 758 299 759
3 760 759 154
3 758 759 760
3 762 761 299
3 763 155 764
3 765 764 15
3 763 764 765
3 766 155 767
3 769 768 155
3 234 770 771
3 300 772 774
3 774 773 234
3 772 773 774
3 300 775 777
3 775 34 776
3 775 776 777
3 157 300 49
3 301 300 157
3 301 34 300
3 301 778 780
3 780 779 34
3 778 779 780
3 302 781 783
3 783 782 301
3 781 782 783
3 302 784 786
3 784 16 785
3 784 785 786
3 209 158 9
3 303 158 209
3 303 72 158
3 160 303 36
3 304 303 160
3 304 72 303
3 304 302 72
3 305 302 304
3 305 16 302
3 305 787 789
3 789 788 16
3 787 788 789
3 791 790 305
3 306 792 793
3 306 794 795
3 162 306 73
3 307 306 162
3 307 796 798
3 798 797 306
3 796 797 798
3 307 799 800
3 308 801 803
3 803 802 307
3 801 802 803
3 308 804 805
3 213 163 17
3 309 163 213
3 309 74 163
3 165 309 38
3 310 309 165
3 310 74 309
3 310 308 74
3 311 308 310
3 311 806 808
3 808 807 308
3 806 807 808
3 311 809 810
3 312 811 813
3 813 812 311
3 811 812 813
3 312 814 816
3 814 815 816
3 167 312 75
3 817 312 818
3 819 818 167
3 817 818 819
3 821 820 312
3 246 89 1
3 313 89 246
3 313 26 89
3 170 313 54
3 314 313 170
3 314 26 313
3 314 195 26
3 315 195 314
3 315 10 195
3 218 171 12
3 316 171 218
3 316 76 171
3 173 316 41
3 317 316 173
3 317 76 316
3 317 315 76
3 318 315 317
3 318 10 315
3 318 121 10
3 319 121 318
3 319 52 121
3 175 319 77
3 320 319 175
3 320 52 319
3 320 243 52
3 321 243 320
3 321 4 243
3 244 104 3
3 322 104 244
3 322 42 104
3 177 822 824
3 822 322 823
3 822 823 824
3 323 322 177
3 323 42 322
3 323 221 42
3 324 221 323
3 324 19 221
3 825 79 826
3 178 827 828
3 325 829 831
3 831 830 178
3 829 830 831
3 325 832 834
3 832 79 833
3 832 833 834
3 325 324 79
3 326 324 325
3 326 19 324
3 326 176 19
3 327 176 326
3 327 78 176
3 180 327 80
3 328 327 180
3 328 78 327
3 328 321 78
3 329 321 328
3 329 4 321
3 329 101 4
3 330 101 329
3 330 39 101
3 182 330 81
3 331 330 182
3 331 39 330
3 331 216 39
3 332 216 331
3 332 18 216
3 222 183 20
3 333 183 222
3 333 82 183
3 184 333 43
3 835 333 836
3 837 836 184
3 835 836 837
3 838 82 839
3 840 839 333
3 838 839 840
3 841 332 842
3 843 842 82
3 841 842 843
3 334 844 846
3 844 332 845
3 844 845 846
3 334 18 332
3 334 168 18
3 847 168 848
3 849 848 334
3 847 848 849
3 851 850 168
