ply
format ascii 1.0
element vertex 467
property float x
property float y
property float z
element face 486
property list uchar int vertex_index
end_header
55.463177 15.703011 -42.721413
43.911751 15.802189 -35.057663
63.965462 -0.755936 -21.70075
49.825195 18.684467 -40.687126
41.224079 19.465435 -46.529991
56.666946 13.048172 -31.578508
37.130058 17.392445 -37.274467
33.927593 14.529316 -46.44162
60.919006 4.468479 -21.606199
61.044731 8.403227 -32.319397
52.640049 18.416595 -42.03231
48.27002 20.022552 -46.282578
51.278419 17.87149 -47.359055
53.37825 12.041252 -30.935751
55.764919 8.287928 -26.542128
40.530792 17.162525 -36.667702
38.864014 18.677063 -51.263313
37.155987 17.631283 -47.287941
64.345375 -1.95623 -16.558691
62.132408 -0.389553 -16.743315
63.079865 2.904829 -21.509916
61.415085 7.588531 -26.707346
62.676083 3.919903 -26.954645
46.948097 17.188286 -38.447586
43.125771 18.187656 -40.988029
45.607384 19.799591 -44.217384
50.417259 15.066658 -34.987717
53.562653 16.346558 -36.356873
56.326569 15.60812 -37.163673
39.259525 17.893063 -42.286888
35.78706 16.329273 -42.192223
33.085651 13.797276 -40.870483
31.86293 10.649324 -44.329636
57.537445 3.960196 -21.978415
59.106735 9.019344 -26.601233
59.223618 11.903868 -31.983774
58.724457 12.437592 -37.63102
54.048161 17.357162 -42.455193
51.974876 18.46838 -44.783745
53.473598 16.943413 -45.115555
42.317413 15.81398 -32.985313
42.245567 16.617836 -35.981476
64.322556 -1.086798 -19.059416
63.759285 0.48698 -18.993235
63.672356 1.308258 -21.586927
62.959152 3.678213 -24.183455
63.344711 1.593655 -24.302916
48.400551 18.060093 -39.701019
46.416218 18.720837 -41.36248
47.760895 19.411366 -42.578003
47.352707 19.676262 -48.861534
45.916142 20.286137 -48.04969
48.725395 14.162834 -33.943161
50.188568 12.747189 -32.211601
55.104267 12.75095 -31.316702
53.645164 14.420033 -33.591286
55.198296 14.802151 -34.005981
54.993965 16.286243 -36.807045
56.6091 14.636238 -34.328072
35.535969 17.091476 -37.1996
42.281376 19.041496 -43.832535
41.172344 18.206776 -41.80835
40.231503 18.668766 -44.552048
35.40881 16.212788 -47.052704
36.475689 16.891994 -44.837578
34.889233 15.558075 -44.419525
34.326057 15.155827 -41.661079
33.554138 14.001953 -43.679497
32.484642 12.293352 -42.680779
32.74398 12.649817 -45.51046
61.600677 2.064314 -19.149469
60.029289 2.066389 -19.384005
58.178715 1.640268 -19.671869
59.364311 4.434208 -21.780344
58.537544 6.713205 -24.188868
60.088486 6.796 -24.096148
61.262688 8.261147 -29.495821
60.39679 9.806341 -29.346277
60.217323 10.420296 -32.168854
58.994537 12.447752 -34.825027
59.991493 10.495626 -34.991707
62.797363 0.913996 -29.681616
51.235184 18.846653 -41.450874
49.124985 19.684284 -43.531723
50.525932 19.388664 -44.258499
49.728577 19.252327 -46.936417
54.645935 10.246292 -28.769384
56.406933 10.895393 -28.97611
38.809868 17.421196 -37.100304
40.050331 19.35915 -49.024551
39.116322 18.728493 -47.115387
37.924171 18.301743 -49.447372
35.996506 16.888046 -49.439491
34.331261 15.167034 -49.016258
62.510147 -2.868872 -14.404774
63.414574 -0.913193 -16.589777
62.851837 1.546427 -19.015841
62.163631 3.967701 -21.510717
61.348427 6.328239 -24.055254
62.302711 5.279408 -24.088236
62.165215 6.003992 -26.826975
61.924164 6.199621 -29.633768
45.454914 16.341133 -36.897537
43.682922 17.049793 -38.048706
45.065815 17.841827 -39.854645
44.36153 19.055447 -42.755814
43.409637 19.82267 -45.551254
46.90115 20.179138 -45.3843
44.60825 20.300816 -46.952721
42.302612 20.029385 -48.182076
64.916565 -3.493326 -16.622702
45.496502 14.739616 -33.919701
47.14307 15.369572 -35.51683
48.739494 16.253601 -36.810799
50.281044 17.102516 -37.821541
51.966629 13.65469 -33.01799
52.034348 15.879322 -35.771156
51.766827 17.651501 -38.597511
53.198845 17.701668 -39.194061
54.580177 17.143421 -39.653374
55.917496 15.956398 -39.995682
41.859871 17.470715 -38.935745
40.029312 17.587273 -39.530807
38.242397 17.396187 -39.817924
38.275017 17.943718 -44.888588
37.445938 17.257366 -42.411667
36.551556 16.911022 -39.797813
35.001987 16.163242 -39.490479
33.623028 15.200073 -38.934555
32.421986 14.079712 -38.182175
32.063198 12.320753 -39.884071
31.953182 11.067976 -47.114471
31.260468 8.839733 -45.772797
56.730579 6.185114 -24.273138
57.551487 8.87528 -26.593397
57.968323 11.11195 -29.102327
60.398598 8.602703 -26.629995
59.301567 10.764294 -29.214808
58.042664 12.785213 -31.788546
57.872421 13.8493 -34.597694
57.566414 14.306339 -37.442284
57.217533 14.187481 -40.216034
62.41983 3.717205 -29.712862
61.738106 5.948853 -32.392242
61.712547 5.328056 -34.98423
60.88763 8.088106 -35.059875
59.816467 10.09411 -37.698418
58.487526 11.923822 -40.290108
56.884911 13.534378 -42.81443
55.239573 15.294148 -43.983459
54.244783 15.914348 -45.180531
54.468388 16.323212 -43.918484
46.12701 19.695599 -49.6824
46.903914 19.173364 -50.030201
49.889204 11.54371 -30.852288
49.266419 12.36545 -31.661044
36.516474 17.703919 -36.046669
37.312885 17.632645 -35.967517
36.333013 17.24196 -37.237033
35.719429 17.553434 -36.009236
36.516474 17.703919 -36.046669
50.099708 18.163431 -48.381844
49.324787 18.85385 -48.170525
50.503498 18.561909 -47.147736
50.942871 17.271299 -48.522037
50.099708 18.163431 -48.381844
55.205427 9.26711 -27.655756
54.221165 8.848325 -27.563858
54.780656 7.869143 -26.45023
39.827129 17.309442 -35.484905
40.637542 16.964035 -35.204605
39.67033 17.29186 -36.884003
38.966667 17.438778 -35.701206
39.827129 17.309442 -35.484905
35.442753 16.28965 -50.370876
36.376072 17.12166 -50.470692
34.61013 15.429144 -50.15926
35.163883 16.02754 -49.227874
35.442753 16.28965 -50.370876
33.82707 14.453235 -49.853047
34.61013 15.429144 -50.15926
63.879975 -1.434711 -16.574234
63.6316 -2.152934 -15.42044
64.097 -2.674452 -15.404896
44.063555 20.228172 -48.227833
45.262196 20.293477 -47.501205
44.717501 20.220833 -48.776317
42.910736 20.092457 -48.842511
43.455431 20.165101 -47.567398
44.063555 20.228172 -48.227833
41.723049 19.823608 -49.385307
42.910736 20.092457 -48.842511
65.029033 -4.479315 -16.679975
65.184078 -4.698045 -15.459884
64.738868 -3.302833 -17.896954
65.029033 -4.479315 -16.679975
46.237261 14.098728 -33.257218
45.347081 13.983269 -32.430417
47.060545 14.413706 -34.055782
46.319786 15.054594 -34.718266
46.237261 14.098728 -33.257218
52.672439 12.847971 -31.97687
51.745733 12.39983 -31.685708
52.451543 11.593111 -30.644588
31.765105 10.576966 -42.911716
32.075961 11.39898 -42.087288
32.173786 11.471338 -43.505207
31.56184 9.625551 -43.650341
31.765105 10.576966 -42.911716
32.025163 11.317291 -48.415184
32.464382 12.135257 -47.667259
30.983122 7.846914 -46.367108
31.244238 9.043177 -47.110894
31.063061 7.715085 -45.01828
30.983122 7.846914 -46.367108
61.493656 -1.602934 -15.716461
61.682525 -2.842593 -14.547191
62.321278 -1.629212 -15.574044
56.822059 2.448479 -20.955311
57.142694 1.288515 -19.802038
57.85808 2.800232 -20.825142
56.515789 3.58489 -22.046482
56.822059 2.448479 -20.955311
57.134012 5.072655 -23.125777
56.112356 4.697348 -23.193844
56.515789 3.58489 -22.046482
62.378402 3.438178 -31.025559
62.608596 2.3156 -29.697239
62.567169 2.036574 -31.009936
62.037541 4.554002 -32.36525
62.078968 4.833029 -31.052552
62.378402 3.438178 -31.025559
61.286895 6.353288 -36.294346
61.795012 4.857009 -36.148254
61.36936 5.882242 -37.458371
60.874437 7.733313 -36.332168
61.300089 6.708081 -35.022053
61.286895 6.353288 -36.294346
60.338856 8.736315 -37.65144
60.352049 9.091108 -36.379146
60.874437 7.733313 -36.332168
58.399536 11.436829 -41.499184
59.111573 10.595254 -40.237301
57.598229 12.242107 -42.761345
57.686219 12.7291 -41.552269
58.399536 11.436829 -41.499184
56.738135 12.961604 -43.984893
57.598229 12.242107 -42.761345
53.191217 16.442097 -46.332657
52.093627 16.906136 -47.454407
52.376008 17.407452 -46.237305
53.191217 16.442097 -46.332657
54.244783 15.914348 -45.180531
55.242832 6.838506 -25.401196
54.780656 7.869143 -26.45023
41.530853 16.289763 -33.363411
41.500795 16.173769 -31.887972
41.49493 16.69169 -34.861492
41.530853 16.289763 -33.363411
42.28149 16.215908 -34.483395
41.388179 16.89018 -36.324589
40.637542 16.964035 -35.204605
41.49493 16.69169 -34.861492
37.809826 18.016168 -51.382602
38.313137 18.052347 -52.232029
45.408728 20.000536 -49.276477
46.634425 19.9812 -48.455612
46.12701 19.695599 -49.6824
44.717501 20.220833 -48.776317
45.408728 20.000536 -49.276477
48.534832 13.073272 -32.526824
47.851708 13.810337 -33.268948
49.456981 13.455012 -33.077381
48.534832 13.073272 -32.526824
49.266419 12.36545 -31.661044
34.957991 17.496057 -35.99435
35.719429 17.553434 -36.009236
34.79853 16.820909 -37.049938
34.957991 17.496057 -35.99435
61.064353 0.85204 -18.082377
61.330219 -0.374893 -16.8793
61.866542 0.83738 -17.946392
60.27866 0.853078 -18.199644
61.064353 0.85204 -18.082377
60.814983 2.065352 -19.266737
59.337888 0.661518 -18.375235
60.27866 0.853078 -18.199644
59.104002 1.853328 -19.527937
58.412601 0.448458 -18.519167
59.337888 0.661518 -18.375235
62.952434 -0.602419 -29.589245
62.979427 -0.227838 -28.356493
62.840076 0.5205 -30.8983
62.952434 -0.602419 -29.589245
62.567169 2.036574 -31.009936
62.840076 0.5205 -30.8983
48.136853 19.065817 -49.133083
48.540642 19.464295 -47.898975
49.324787 18.85385 -48.170525
46.903914 19.173364 -50.030201
48.136853 19.065817 -49.133083
50.942871 17.271299 -48.522037
52.093627 16.906136 -47.454407
53.053657 10.707738 -29.665442
52.451543 11.593111 -30.644588
53.6875 9.810258 -28.582258
54.221165 8.848325 -27.563858
54.012093 11.143772 -29.852567
53.053657 10.707738 -29.665442
53.6875 9.810258 -28.582258
38.15279 17.64702 -35.880436
38.966667 17.438778 -35.701206
37.969963 17.40682 -37.187386
37.312885 17.632645 -35.967517
38.15279 17.64702 -35.880436
37.339905 17.828508 -50.474632
38.394092 18.489403 -50.355342
37.809826 18.016168 -51.382602
36.960338 17.594894 -49.443432
37.339905 17.828508 -50.474632
36.376072 17.12166 -50.470692
33.653422 14.184786 -48.618153
33.451588 13.865927 -47.330833
34.129427 14.848175 -47.728939
33.653422 14.184786 -48.618153
33.82707 14.453235 -49.853047
63.179386 -3.130773 -14.327938
62.619374 -4.111456 -13.277607
62.962361 -1.891033 -15.497276
63.179386 -3.130773 -14.327938
63.6316 -2.152934 -15.42044
40.596908 19.488491 -49.806545
41.176472 19.694268 -48.603313
41.723049 19.823608 -49.385307
40.00375 19.147447 -50.925926
39.457172 19.018107 -50.143932
40.596908 19.488491 -49.806545
39.448257 18.63154 -51.990196
40.00375 19.147447 -50.925926
38.313137 18.052347 -52.232029
39.448257 18.63154 -51.990196
64.590176 -3.183921 -15.392122
64.097 -2.674452 -15.404896
64.875771 -3.95247 -15.424127
65.184078 -4.698045 -15.459884
64.63097 -2.724778 -16.590696
64.590176 -3.183921 -15.392122
64.875771 -3.95247 -15.424127
64.441864 -2.099569 -19.115311
64.619561 -2.290062 -17.841059
64.738868 -3.302833 -17.896954
64.263317 -1.934138 -20.435978
64.144009 -0.921367 -20.380083
64.441864 -2.099569 -19.115311
42.208089 15.512442 -31.481969
41.500795 16.173769 -31.887972
43.063425 15.219506 -32.515804
42.208089 15.512442 -31.481969
43.860594 15.21361 -33.551979
43.114582 15.808084 -34.021488
43.063425 15.219506 -32.515804
44.652969 14.682323 -32.982998
45.347081 13.983269 -32.430417
44.704127 15.270903 -34.488682
43.860594 15.21361 -33.551979
44.652969 14.682323 -32.982998
47.934233 14.766203 -34.729996
47.060545 14.413706 -34.055782
47.851708 13.810337 -33.268948
50.856702 11.946079 -31.282514
49.889204 11.54371 -30.852288
51.077598 13.20094 -32.614795
50.856702 11.946079 -31.282514
51.745733 12.39983 -31.685708
34.53154 16.356793 -38.195377
34.79853 16.820909 -37.049938
35.268978 16.627359 -38.345039
33.84206 15.875208 -37.917416
34.53154 16.356793 -38.195377
34.312507 15.681658 -39.212517
33.171902 15.507641 -37.674294
33.84206 15.875208 -37.917416
32.571381 14.94746 -37.298103
33.171902 15.507641 -37.674294
33.022507 14.639893 -38.558365
31.965484 14.51054 -36.983993
32.571381 14.94746 -37.298103
31.9021 13.472307 -37.736195
31.965484 14.51054 -36.983993
31.722706 12.592828 -38.587143
31.9021 13.472307 -37.736195
32.242592 13.200233 -39.033123
31.64669 11.55696 -39.324783
31.722706 12.592828 -38.587143
31.865239 11.412681 -40.688934
32.27392 12.307053 -41.282425
32.075961 11.39898 -42.087288
31.64669 11.55696 -39.324783
31.865239 11.412681 -40.688934
32.859781 12.926178 -46.865254
33.335786 13.589567 -45.97604
33.451588 13.865927 -47.330833
32.348581 11.858897 -46.312466
32.859781 12.926178 -46.865254
32.464382 12.135257 -47.667259
31.590595 10.157298 -47.781731
32.025163 11.317291 -48.415184
31.606825 9.953855 -46.443634
31.590595 10.157298 -47.781731
31.244238 9.043177 -47.110894
31.260609 8.720755 -44.371921
31.56184 9.625551 -43.650341
31.561699 9.744529 -45.051216
31.260609 8.720755 -44.371921
31.063061 7.715085 -45.01828
61.757446 -4.072572 -13.413802
62.619374 -4.111456 -13.277607
61.757446 -4.072572 -13.413802
61.682525 -2.842593 -14.547191
61.493656 -1.602934 -15.716461
61.330219 -0.374893 -16.8793
57.363066 0.120879 -18.697446
58.412601 0.448458 -18.519167
57.363066 0.120879 -18.697446
57.142694 1.288515 -19.802038
55.725662 5.787099 -24.2667
56.112356 4.697348 -23.193844
56.247749 7.236521 -25.407633
55.242832 6.838506 -25.401196
55.725662 5.787099 -24.2667
63.98378 -1.978689 -21.749912
64.263317 -1.934138 -20.435978
63.734463 -0.82008 -23.047798
63.98378 -1.978689 -21.749912
63.424087 0.354716 -24.348881
63.655086 0.418859 -23.001833
63.734463 -0.82008 -23.047798
63.167533 1.511583 -25.671584
63.424087 0.354716 -24.348881
62.833219 2.674707 -26.997448
63.010397 2.756779 -25.62878
63.167533 1.511583 -25.671584
62.893859 1.171753 -28.360934
62.979427 -0.227838 -28.356493
62.705093 2.573358 -28.376556
62.893859 1.171753 -28.360934
62.608596 2.3156 -29.697239
62.547956 3.818554 -28.333754
62.833219 2.674707 -26.997448
62.705093 2.573358 -28.376556
62.104668 3.818905 -34.854313
61.795012 4.857009 -36.148254
62.024761 4.243603 -33.661243
62.104668 3.818905 -34.854313
61.725327 5.638454 -33.688236
62.037541 4.554002 -32.36525
62.024761 4.243603 -33.661243
59.776043 9.680398 -38.941456
60.338856 8.736315 -37.65144
59.151997 11.008966 -38.994263
59.776043 9.680398 -38.941456
59.111573 10.595254 -40.237301
55.95044 14.209831 -44.029968
55.239573 15.294148 -43.983459
56.174044 14.618695 -42.767921
55.95044 14.209831 -44.029968
56.738135 12.961604 -43.984893
3 0 39 37
3 0 149 151
3 151 150 39
3 149 150 151
3 1 41 40
3 2 44 42
3 2 46 44
3 3 49 47
3 153 152 50
3 154 53 155
3 5 56 54
3 5 58 56
3 6 156 157
3 6 158 160
3 158 59 159
3 158 159 160
3 4 62 60
3 7 65 63
3 7 67 65
3 7 69 67
3 8 71 70
3 8 73 71
3 8 75 73
3 9 78 76
3 9 80 78
3 10 84 82
3 12 85 38
3 12 161 163
3 163 162 85
3 161 162 163
3 12 164 165
3 14 166 168
3 166 86 167
3 166 167 168
3 14 87 86
3 15 169 170
3 15 171 173
3 171 88 172
3 171 172 173
3 16 91 89
3 174 92 175
3 176 93 177
3 178 177 92
3 176 177 178
3 180 179 93
3 18 181 183
3 181 95 182
3 181 182 183
3 20 96 43
3 20 97 96
3 20 99 97
3 22 100 45
3 22 101 100
3 23 104 102
3 25 105 48
3 25 106 105
3 11 107 83
3 184 108 185
3 186 185 51
3 184 185 186
3 187 109 188
3 189 188 108
3 187 188 189
3 191 190 109
3 192 110 193
3 195 194 110
3 196 111 197
3 198 112 199
3 200 199 111
3 198 199 200
3 26 113 52
3 26 114 113
3 13 201 203
3 201 115 202
3 201 202 203
3 27 116 55
3 27 117 116
3 27 118 117
3 28 119 57
3 28 120 119
3 24 121 103
3 29 122 61
3 29 123 122
3 17 124 90
3 30 125 64
3 30 126 125
3 30 127 126
3 31 128 66
3 31 129 128
3 31 130 129
3 32 204 206
3 206 205 68
3 204 205 206
3 32 207 208
3 209 131 210
3 211 132 212
3 214 213 132
3 19 215 217
3 217 216 94
3 215 216 217
3 33 218 220
3 220 219 72
3 218 219 220
3 33 221 222
3 33 223 225
3 223 133 224
3 223 224 225
3 34 134 74
3 34 135 134
3 21 136 98
3 35 137 77
3 35 138 137
3 35 139 138
3 36 140 79
3 36 141 140
3 226 142 227
3 228 227 81
3 226 227 228
3 229 143 230
3 231 230 142
3 229 230 231
3 232 144 233
3 232 233 234
3 235 145 236
3 237 236 144
3 235 236 237
3 238 146 239
3 240 239 145
3 238 239 240
3 241 147 242
3 243 148 244
3 245 244 147
3 243 244 245
3 247 246 148
3 37 38 10
3 39 38 37
3 39 12 38
3 39 248 250
3 250 249 12
3 248 249 250
3 252 251 39
3 253 14 254
3 40 255 256
3 41 257 259
3 259 258 40
3 257 258 259
3 41 260 262
3 260 15 261
3 260 261 262
3 264 263 16
3 42 43 18
3 44 43 42
3 44 20 43
3 44 45 20
3 46 45 44
3 46 22 45
3 47 48 23
3 49 48 47
3 49 25 48
3 50 51 11
3 265 51 266
3 267 266 50
3 265 266 267
3 269 268 51
3 270 52 271
3 53 272 274
3 272 52 273
3 272 273 274
3 53 26 52
3 54 55 13
3 56 55 54
3 56 27 55
3 56 57 27
3 58 57 56
3 58 28 57
3 59 275 276
3 59 277 278
3 60 61 24
3 62 61 60
3 62 29 61
3 63 64 17
3 65 64 63
3 65 30 64
3 65 66 30
3 67 66 65
3 67 31 66
3 67 68 31
3 69 68 67
3 69 32 68
3 70 279 281
3 281 280 19
3 279 280 281
3 71 282 284
3 284 283 70
3 282 283 284
3 71 285 286
3 71 287 289
3 287 72 288
3 287 288 289
3 73 72 71
3 73 33 72
3 73 74 33
3 75 74 73
3 75 34 74
3 76 77 21
3 78 77 76
3 78 35 77
3 78 79 35
3 80 79 78
3 80 36 79
3 290 81 291
3 292 81 293
3 295 294 81
3 82 83 3
3 84 83 82
3 84 11 83
3 38 84 10
3 85 84 38
3 85 11 84
3 85 50 11
3 296 50 297
3 298 297 85
3 296 297 298
3 300 299 50
3 302 301 12
3 303 13 304
3 86 305 306
3 86 307 309
3 307 13 308
3 307 308 309
3 86 54 13
3 87 54 86
3 87 5 54
3 88 310 311
3 88 312 314
3 312 6 313
3 312 313 314
3 89 90 4
3 91 90 89
3 91 17 90
3 315 91 316
3 317 316 16
3 315 316 317
3 92 318 320
3 318 91 319
3 318 319 320
3 92 17 91
3 92 63 17
3 93 63 92
3 93 7 63
3 93 321 323
3 323 322 7
3 321 322 323
3 325 324 93
3 326 94 327
3 95 328 330
3 328 94 329
3 328 329 330
3 95 19 94
3 43 95 18
3 96 95 43
3 96 19 95
3 96 70 19
3 97 70 96
3 97 8 70
3 97 98 8
3 99 98 97
3 99 21 98
3 45 99 20
3 100 99 45
3 100 21 99
3 100 76 21
3 101 76 100
3 101 9 76
3 102 103 1
3 104 103 102
3 104 24 103
3 48 104 23
3 105 104 48
3 105 24 104
3 105 60 24
3 106 60 105
3 106 4 60
3 83 49 3
3 107 49 83
3 107 25 49
3 51 107 11
3 108 107 51
3 108 25 107
3 108 106 25
3 109 106 108
3 109 4 106
3 109 89 4
3 331 89 332
3 333 332 109
3 331 332 333
3 334 16 335
3 336 335 89
3 334 335 336
3 337 16 338
3 340 339 16
3 341 18 342
3 110 343 344
3 110 345 347
3 345 18 346
3 345 346 347
3 110 42 18
3 348 42 349
3 350 349 110
3 348 349 350
3 351 2 352
3 353 352 42
3 351 352 353
3 354 40 355
3 356 40 357
3 358 1 359
3 360 359 40
3 358 359 360
3 111 361 362
3 111 363 365
3 363 1 364
3 363 364 365
3 111 102 1
3 112 102 111
3 112 23 102
3 52 366 368
3 366 112 367
3 366 367 368
3 113 112 52
3 113 23 112
3 113 47 23
3 114 47 113
3 114 3 47
3 369 53 370
3 115 371 373
3 371 53 372
3 371 372 373
3 115 26 53
3 55 115 13
3 116 115 55
3 116 26 115
3 116 114 26
3 117 114 116
3 117 3 114
3 117 82 3
3 118 82 117
3 118 10 82
3 57 118 27
3 119 118 57
3 119 10 118
3 119 37 10
3 120 37 119
3 120 0 37
3 103 41 1
3 121 41 103
3 121 15 41
3 61 121 24
3 122 121 61
3 122 15 121
3 122 88 15
3 123 88 122
3 123 6 88
3 90 62 4
3 124 62 90
3 124 29 62
3 64 124 17
3 125 124 64
3 125 29 124
3 125 123 29
3 126 123 125
3 126 6 123
3 126 59 6
3 127 59 126
3 127 374 376
3 376 375 59
3 374 375 376
3 66 127 30
3 128 127 66
3 128 377 379
3 379 378 127
3 377 378 379
3 128 380 381
3 129 382 384
3 384 383 128
3 382 383 384
3 129 385 386
3 129 387 388
3 130 389 391
3 391 390 129
3 389 390 391
3 130 392 393
3 68 130 31
3 394 130 395
3 396 395 68
3 394 395 396
3 398 397 130
3 399 69 400
3 401 400 7
3 399 400 401
3 131 402 404
3 402 69 403
3 402 403 404
3 131 32 69
3 405 131 406
3 132 407 409
3 407 131 408
3 407 408 409
3 132 32 131
3 132 410 412
3 412 411 32
3 410 411 412
3 414 413 132
3 94 415 416
3 418 417 94
3 420 419 19
3 72 421 422
3 424 423 72
3 133 425 426
3 133 427 429
3 427 14 428
3 427 428 429
3 74 133 33
3 134 133 74
3 134 14 133
3 134 87 14
3 135 87 134
3 135 5 87
3 98 75 8
3 136 75 98
3 136 34 75
3 77 136 21
3 137 136 77
3 137 34 136
3 137 135 34
3 138 135 137
3 138 5 135
3 138 58 5
3 139 58 138
3 139 28 58
3 79 139 35
3 140 139 79
3 140 28 139
3 140 120 28
3 141 120 140
3 141 0 120
3 430 2 431
3 432 2 433
3 434 46 435
3 436 435 2
3 434 435 436
3 437 46 438
3 439 22 440
3 441 440 46
3 439 440 441
3 81 442 443
3 142 444 446
3 446 445 81
3 444 445 446
3 142 447 449
3 447 22 448
3 447 448 449
3 142 101 22
3 143 101 142
3 143 9 101
3 144 450 451
3 144 452 453
3 144 454 456
3 454 143 455
3 454 455 456
3 145 143 144
3 145 9 143
3 145 80 9
3 146 80 145
3 146 36 80
3 457 146 458
3 147 459 461
3 459 146 460
3 459 460 461
3 147 36 146
3 147 141 36
3 148 141 147
3 148 0 141
3 148 462 464
3 464 463 0
3 462 463 464
3 466 465 148
