ply
format ascii 1.0
element vertex 495
property float x
property float y
property float z
element face 479
property list uchar int vertex_index
end_header
2.159775 -99.487511 19.652565
6.600822 -108.632172 33.725662
0.994892 -109.714188 22.150612
4.906343 -101.004333 31.823755
11.189243 -123.543571 9.532655
3.271881 -119.705025 10.213242
0.504147 -110.498337 9.934438
7.34086 -90.860718 27.094389
21.393114 -120.481041 7.494572
8.1049 -104.870918 38.885803
5.018684 -105.385651 33.477936
7.142529 -101.362465 37.642426
10.239025 -106.868782 38.406265
6.70495 -122.472626 10.023925
4.207327 -118.182709 16.0077
0.767963 -104.826469 21.184561
0.100344 -110.056145 15.915972
0.465427 -104.749847 15.134365
13.458858 -120.333054 13.98012
5.85519 -112.323677 27.648003
2.95381 -113.649841 22.209942
3.281422 -109.381973 28.233801
2.372601 -105.179817 27.452108
3.080078 -100.20063 25.692106
9.587294 -110.288971 32.283272
14.337103 -125.752174 4.223652
10.008675 -125.728996 4.325311
6.285885 -123.951195 4.253069
1.360279 -114.69828 16.249866
1.181688 -115.557693 10.157408
7.110027 -96.877975 35.336426
5.898642 -96.004669 29.476341
4.991602 -94.928749 23.559498
7.399645 -89.768486 21.516331
16.226284 -122.831688 8.669975
18.913204 -124.119774 3.476802
7.482359 -103.274223 38.44783
6.159304 -119.364273 15.669941
1.279316 -102.182587 20.463631
0.45499 -104.739136 18.107199
1.105423 -102.030746 17.481457
1.223516 -102.004745 14.631403
6.076414 -110.466797 30.767588
4.372355 -111.037689 28.118172
4.84873 -109.09623 31.07518
4.792475 -103.304543 32.78656
3.596111 -105.336388 30.523329
3.572163 -103.067986 29.758026
2.542353 -102.756027 26.656956
3.905777 -100.625229 28.773388
8.436607 -107.911659 36.167221
9.854553 -108.604324 35.43502
7.939188 -109.680885 33.206596
7.65992 -111.430992 30.072166
12.752546 -124.834091 6.821157
12.131428 -125.956444 4.318621
10.440817 -124.780952 7.018332
4.832306 -121.285973 10.152919
6.338854 -123.336464 7.196893
4.66674 -121.976105 7.219231
1.761536 -111.831192 22.30661
1.976881 -114.194725 19.270283
0.959902 -112.164482 19.243093
0.445107 -112.81414 13.076459
7.395464 -91.44001 29.926849
6.936024 -93.973526 31.166027
6.61009 -93.424889 28.261686
5.379431 -95.461411 26.502832
6.345728 -92.850952 25.362753
8.513998 -87.316498 20.585672
12.213722 -122.051147 11.856512
14.820244 -121.715576 11.303747
13.670547 -123.406677 9.151277
15.15543 -124.447044 6.509538
23.962736 -118.802216 6.911457
25.158211 -118.946266 4.343479
22.621475 -120.836449 4.897065
20.103518 -122.419106 5.499201
7.326538 -106.778572 36.447128
5.619446 -107.18222 33.810593
6.555428 -105.252968 36.273701
6.126266 -103.394638 35.694691
6.01218 -101.269981 34.79351
9.027622 -106.087257 38.882538
8.84449 -123.231277 9.819958
7.397856 -121.392776 12.701983
5.328787 -120.405403 12.980656
3.566088 -119.009201 13.156673
0.665716 -107.358223 21.763477
0.366674 -109.869789 19.022907
0.201334 -107.373253 18.633293
0.083733 -107.454002 15.569869
0.748123 -104.853409 12.295929
5.987562 -114.231911 24.457912
4.541676 -115.118088 21.861588
4.263161 -113.041481 25.017429
2.912912 -111.470589 25.283159
1.977856 -109.566505 25.240952
4.017124 -107.366707 30.983761
2.612831 -107.409439 27.999077
1.478706 -107.385483 24.905861
1.414503 -104.988823 24.319002
1.763971 -102.439789 23.539516
2.485424 -99.800407 22.634258
13.402561 -108.585823 32.856789
11.529446 -108.829285 34.300835
11.849552 -126.73938 1.640489
8.281036 -124.279602 7.13518
8.038897 -125.057495 4.294373
8.092859 -125.536072 1.334455
6.49234 -124.289772 1.237905
3.397961 -115.904007 19.096224
2.595142 -116.612816 16.203505
2.150434 -117.243568 13.228168
0.525629 -112.492302 16.149469
1.106327 -115.158875 13.19822
2.05094 -117.776649 10.211599
2.244984 -118.182487 7.190253
7.040302 -99.20649 36.569775
6.159559 -98.947586 33.672684
6.495386 -96.494522 32.434727
5.300972 -98.55024 30.688915
4.534891 -98.070297 27.660778
3.923494 -97.573311 24.636816
3.517496 -97.128143 21.667215
8.944983 -85.397148 22.315462
8.230999 -87.791672 23.265406
7.331318 -90.28318 24.279009
6.186977 -92.314491 22.509996
4.778793 -94.474037 20.691086
3.349241 -96.796242 18.797987
18.809998 -121.843132 8.103072
17.611393 -123.634895 6.060938
16.591015 -125.137413 3.957219
2.136893 -99.397118 18.221758
1.609716 -100.668735 17.136204
1.632599 -100.759129 18.567011
3.284617 -119.972546 8.713435
3.982046 -121.108086 7.21643
3.96931 -120.840565 8.716236
0.585458 -111.804451 9.998056
0.336513 -110.385593 11.405438
0.801333 -111.923576 8.531856
0.585458 -111.804451 9.998056
0.751706 -110.596054 8.519725
0.801333 -111.923576 8.531856
8.566261 -105.479087 38.88417
9.292055 -105.13784 40.096039
8.830694 -104.529671 40.097672
7.897633 -120.759231 13.953774
8.556873 -121.66896 12.513689
0.36949 -106.174331 13.873362
0.178644 -107.526409 14.091114
0.27458 -106.101924 15.352117
0.606775 -104.801628 13.715147
0.510838 -106.226112 12.454144
0.36949 -106.174331 13.873362
1.397596 -102.048789 13.282704
1.772099 -100.639057 14.355078
13.385852 -107.796433 34.51294
14.294487 -107.481144 33.72327
10.970948 -107.023758 37.942207
11.062934 -106.166172 39.439442
10.535765 -110.363255 31.655268
11.506841 -109.633411 32.664049
10.55837 -109.559128 33.292053
9.564248 -111.122986 30.661464
10.535765 -110.363255 31.655268
6.766908 -112.761463 27.251198
7.669273 -112.315121 28.463279
6.757555 -111.877335 28.860084
5.921376 -113.277794 26.052957
6.833094 -113.71558 25.656153
6.766908 -112.761463 27.251198
14.10113 -126.222297 3.008996
15.095329 -126.008514 3.034744
9.95307 -126.043884 2.899821
10.873508 -126.549076 1.557411
10.929113 -126.234188 2.9829
7.075164 -98.042233 35.953101
7.359871 -98.160939 37.358382
7.394733 -96.996681 36.741707
9.182059 -85.183757 21.012089
9.16686 -84.251602 21.862559
4.772308 -94.314648 19.313868
5.473633 -93.177059 20.216718
4.057532 -95.47575 18.367318
4.064017 -95.63514 19.744536
4.772308 -94.314648 19.313868
3.3856 -96.707238 17.43143
4.057532 -95.47575 18.367318
14.799036 -120.064126 13.62471
14.164263 -119.369827 14.940447
16.849528 -121.895927 9.677419
16.146508 -121.337872 10.994305
15.523264 -122.273632 9.986861
17.518141 -122.33741 8.386523
18.141385 -121.401649 9.393967
16.849528 -121.895927 9.677419
15.095329 -126.008514 3.034744
16.222285 -125.701133 2.901527
15.464059 -125.444794 4.090435
25.76015 -118.893474 3.031476
24.486348 -119.932537 3.292539
19.496488 -124.223988 2.18627
20.119166 -123.410851 3.169119
18.393689 -124.807007 2.511062
19.496488 -124.223988 2.18627
8.121427 -103.083576 39.73793
7.793629 -104.072571 38.666817
8.432697 -103.881923 39.956917
7.845678 -102.254341 39.395556
8.121427 -103.083576 39.73793
7.675763 -101.298462 38.992853
7.312444 -102.318344 38.045128
7.845678 -102.254341 39.395556
8.432697 -103.881923 39.956917
8.830694 -104.529671 40.097672
6.728694 -118.772087 16.930343
7.278358 -119.74498 15.437753
5.673903 -118.304474 17.199431
6.728694 -118.772087 16.930343
4.697915 -117.713692 17.368311
5.183315 -118.773491 15.838821
5.673903 -118.304474 17.199431
1.668763 -100.655735 15.711177
1.16447 -102.017745 16.05643
1.609716 -100.668735 17.136204
1.772099 -100.639057 14.355078
1.668763 -100.655735 15.711177
4.728956 -122.209633 5.717997
5.538528 -123.197178 4.234916
5.476313 -122.96365 5.73615
4.728956 -122.209633 5.717997
3.982046 -121.108086 7.21643
0.306993 -111.543495 12.976449
0.272726 -111.435142 14.496215
0.134611 -110.164498 14.396205
0.555938 -112.962352 11.569066
0.306993 -111.543495 12.976449
0.924229 -114.334129 10.109541
0.813397 -114.185916 11.616934
0.555938 -112.962352 11.569066
1.347185 -115.71117 8.658318
0.924229 -114.334129 10.109541
7.344198 -95.840527 36.088654
7.394733 -96.996681 36.741707
7.165744 -92.706768 30.546438
7.19778 -92.971722 31.953886
7.4275 -91.704963 31.334297
8.687256 -87.147667 19.285865
8.966566 -86.143432 20.147194
8.042102 -88.34644 19.712723
8.687256 -87.147667 19.285865
7.484925 -89.572433 20.178053
7.956822 -88.542492 21.051001
8.042102 -88.34644 19.712723
6.784059 -90.824284 20.62934
7.484925 -89.572433 20.178053
24.560474 -118.874241 5.627468
25.838881 -117.911484 5.385393
25.241143 -117.839459 6.669382
23.217979 -120.877629 3.569331
24.486348 -119.932537 3.292539
23.889843 -119.891357 4.620272
21.973301 -121.769188 3.87925
23.217979 -120.877629 3.569331
20.714323 -122.560517 4.180318
21.973301 -121.769188 3.87925
21.362496 -121.627778 5.198133
19.508361 -123.26944 4.488002
20.119166 -123.410851 3.169119
20.714323 -122.560517 4.180318
10.421872 -105.964519 39.767418
11.062934 -106.166172 39.439442
9.81617 -105.573757 40.005555
9.292055 -105.13784 40.096039
9.633323 -106.478019 38.644402
10.421872 -105.964519 39.767418
9.81617 -105.573757 40.005555
9.28019 -122.588211 11.072676
10.016866 -123.387424 9.676306
10.452566 -122.744358 10.929025
8.121173 -122.312027 11.26097
9.28019 -122.588211 11.072676
8.556873 -121.66896 12.513689
6.77858 -120.378524 14.185962
7.897633 -120.759231 13.953774
7.278358 -119.74498 15.437753
0.126306 -108.863426 14.223154
0.134611 -110.164498 14.396205
0.092038 -108.755074 15.742921
0.126306 -108.863426 14.223154
0.178644 -107.526409 14.091114
0.38885 -109.048576 11.273398
0.336513 -110.385593 11.405438
0.596315 -109.139839 9.858156
0.38885 -109.048576 11.273398
0.718303 -106.317375 11.038901
0.510838 -106.226112 12.454144
0.978569 -104.934238 10.949854
0.718303 -106.317375 11.038901
1.1599 -103.473121 12.114966
0.98582 -103.429077 13.463666
1.397596 -102.048789 13.282704
0.978569 -104.934238 10.949854
1.1599 -103.473121 12.114966
7.493965 -90.471283 30.709309
7.4275 -91.704963 31.334297
7.593735 -90.189678 29.337694
7.493965 -90.471283 30.709309
7.566434 -89.900032 27.921464
7.368162 -91.150364 28.510619
7.593735 -90.189678 29.337694
12.834733 -119.545441 15.358646
14.164263 -119.369827 14.940447
12.156917 -120.391057 14.307392
12.834733 -119.545441 15.358646
11.53435 -121.250103 13.245588
12.83629 -121.192101 12.918316
12.156917 -120.391057 14.307392
10.964806 -121.998146 12.090953
11.53435 -121.250103 13.245588
10.452566 -122.744358 10.929025
11.701483 -122.797359 10.694584
10.964806 -121.998146 12.090953
24.651218 -117.727742 7.888435
25.241143 -117.839459 6.669382
23.356327 -118.584214 8.159022
24.651218 -117.727742 7.888435
24.044809 -117.509739 9.136001
22.071516 -119.423626 8.45058
22.677925 -119.641628 7.203015
23.356327 -118.584214 8.159022
5.264619 -114.674999 23.15975
5.50993 -115.656185 21.572979
6.232873 -115.213097 22.871141
14.410502 -108.246437 32.040608
14.294487 -107.481144 33.72327
13.484469 -109.360428 31.199127
14.410502 -108.246437 32.040608
10.778712 -107.891529 36.456585
10.970948 -107.023758 37.942207
10.046789 -107.736553 36.920642
11.616159 -108.004009 35.889492
10.778712 -107.891529 36.456585
10.691999 -108.716804 34.867928
12.449295 -107.918163 35.234962
11.616159 -108.004009 35.889492
12.466003 -108.707554 33.578812
13.385852 -107.796433 34.51294
12.449295 -107.918163 35.234962
12.443399 -109.511681 31.942026
12.466003 -108.707554 33.578812
11.506841 -109.633411 32.664049
13.484469 -109.360428 31.199127
12.443399 -109.511681 31.942026
8.600561 -111.693996 29.555911
9.564248 -111.122986 30.661464
8.623607 -110.859982 31.177719
8.600561 -111.693996 29.555911
7.669273 -112.315121 28.463279
7.008006 -114.619743 24.051651
6.833094 -113.71558 25.656153
6.232873 -115.213097 22.871141
7.008006 -114.619743 24.051651
12.998292 -126.324433 3.05648
14.10113 -126.222297 3.008996
13.234265 -125.854309 4.271137
12.857354 -126.715901 1.717414
12.998292 -126.324433 3.05648
11.99049 -126.347912 2.979555
12.817103 -126.992836 0.406079
12.857354 -126.715901 1.717414
11.87242 -126.953834 0.220624
12.817103 -126.992836 0.406079
11.87242 -126.953834 0.220624
10.873508 -126.549076 1.557411
8.968181 -125.708134 2.884353
9.95307 -126.043884 2.899821
9.023786 -125.393246 4.309842
8.995162 -125.947422 1.404393
8.968181 -125.708134 2.884353
8.065878 -125.296784 2.814414
9.079923 -126.094635 -0.077277
8.995162 -125.947422 1.404393
8.235406 -125.617561 -0.175418
9.079923 -126.094635 -0.077277
7.435147 -124.994411 -0.223693
8.235406 -125.617561 -0.175418
7.2926 -124.912922 1.28618
6.681718 -124.312947 -0.275014
7.435147 -124.994411 -0.223693
5.641756 -123.366467 2.727334
6.389113 -124.120484 2.745487
5.538528 -123.197178 4.234916
5.808816 -123.475647 1.214586
5.641756 -123.366467 2.727334
6.681718 -124.312947 -0.275014
5.808816 -123.475647 1.214586
4.865089 -116.181382 20.295255
5.50993 -115.656185 21.572979
4.293232 -116.574341 18.912573
4.865089 -116.181382 20.295255
3.969818 -115.511047 20.478906
3.802644 -117.043358 17.551962
4.697915 -117.713692 17.368311
4.293232 -116.574341 18.912573
2.674146 -119.008358 8.712613
3.284617 -119.972546 8.713435
2.661411 -118.740837 10.212421
2.771168 -119.211277 7.201941
2.674146 -119.008358 8.712613
2.147962 -117.979568 8.700926
2.909828 -119.382637 5.692685
2.771168 -119.211277 7.201941
1.878833 -117.023567 7.174741
1.713336 -116.87009 8.673831
1.347185 -115.71117 8.658318
2.443218 -118.306004 5.693257
1.878833 -117.023567 7.174741
2.909828 -119.382637 5.692685
2.443218 -118.306004 5.693257
0.751706 -110.596054 8.519725
0.596315 -109.139839 9.858156
7.504908 -100.323071 38.495041
7.675763 -101.298462 38.992853
7.453794 -99.245083 37.958715
7.359871 -98.160939 37.358382
7.091416 -100.284478 37.1061
7.504908 -100.323071 38.495041
7.453794 -99.245083 37.958715
7.192729 -95.661655 34.686711
7.344198 -95.840527 36.088654
7.105728 -94.20943 32.601511
7.19778 -92.971722 31.953886
6.885409 -95.469929 33.235861
7.105728 -94.20943 32.601511
6.715705 -95.234024 31.800377
6.802706 -96.686249 33.885576
7.192729 -95.661655 34.686711
6.885409 -95.469929 33.235861
7.669106 -89.606385 26.54545
7.566434 -89.900032 27.921464
8.850564 -84.497028 23.151829
9.16686 -84.251602 21.862559
8.719062 -85.661724 23.641129
8.624643 -84.761605 24.477496
8.850564 -84.497028 23.151829
8.729491 -86.356823 21.450567
9.182059 -85.183757 21.012089
8.966566 -86.143432 20.147194
8.36207 -86.858986 24.116101
8.719062 -85.661724 23.641129
8.587991 -86.59441 22.790434
8.114175 -88.071862 24.630958
8.36207 -86.858986 24.116101
7.664334 -89.317616 25.13776
8.114175 -88.071862 24.630958
7.781159 -89.037426 23.772208
7.336089 -90.571949 25.686699
7.669106 -89.606385 26.54545
7.664334 -89.317616 25.13776
6.177725 -92.097286 21.126173
6.793311 -91.041488 22.013164
6.784059 -90.824284 20.62934
5.482885 -93.394264 21.600541
6.177725 -92.097286 21.126173
5.473633 -93.177059 20.216718
2.731625 -98.051484 17.794469
2.136893 -99.397118 18.221758
2.754508 -98.141876 19.225276
2.731625 -98.051484 17.794469
3.3856 -96.707238 17.43143
20.758992 -120.15292 8.76465
22.071516 -119.423626 8.45058
15.479729 -120.755387 12.286523
14.799036 -120.064126 13.62471
14.139551 -121.024315 12.641934
15.479729 -120.755387 12.286523
16.146508 -121.337872 10.994305
19.467434 -120.833966 9.0689
18.141385 -121.401649 9.393967
20.101556 -121.162087 7.798822
20.758992 -120.15292 8.76465
19.467434 -120.833966 9.0689
17.232594 -125.315827 2.75127
18.393689 -124.807007 2.511062
17.752109 -124.628593 3.71701
17.232594 -125.315827 2.75127
16.222285 -125.701133 2.901527
26.43636 -117.884922 4.130487
25.838881 -117.911484 5.385393
26.43636 -117.884922 4.130487
25.76015 -118.893474 3.031476
3 0 40 38
3 0 134 136
3 136 135 40
3 134 135 136
3 1 44 42
3 3 47 45
3 3 49 47
3 1 52 50
3 1 42 52
3 4 56 54
3 5 59 57
3 5 137 139
3 139 138 59
3 137 138 139
3 2 62 60
3 6 140 141
3 6 142 143
3 6 144 145
3 7 66 64
3 7 68 66
3 4 72 70
3 4 54 72
3 8 76 74
3 8 77 76
3 9 80 78
3 11 81 36
3 11 82 81
3 9 146 148
3 146 83 147
3 146 147 148
3 9 78 83
3 149 85 150
3 14 86 37
3 14 87 86
3 15 90 88
3 17 91 39
3 17 151 153
3 153 152 91
3 151 152 153
3 17 154 156
3 154 92 155
3 154 155 156
3 158 157 41
3 19 95 93
3 21 96 43
3 21 97 96
3 10 98 79
3 22 99 46
3 22 100 99
3 22 101 100
3 23 102 48
3 23 103 102
3 159 104 160
3 12 161 162
3 24 105 51
3 24 163 165
3 165 164 105
3 163 164 165
3 24 166 167
3 19 168 170
3 170 169 53
3 168 169 170
3 19 171 173
3 171 93 172
3 171 172 173
3 25 174 175
3 26 106 55
3 26 176 178
3 178 177 106
3 176 177 178
3 13 107 84
3 27 108 58
3 27 109 108
3 27 110 109
3 20 111 94
3 28 112 61
3 28 113 112
3 16 114 89
3 29 115 63
3 29 116 115
3 29 117 116
3 30 179 181
3 179 118 180
3 179 180 181
3 30 119 118
3 31 120 65
3 31 121 120
3 31 122 121
3 32 123 67
3 32 124 123
3 182 125 183
3 33 126 69
3 33 127 126
3 33 128 127
3 184 129 185
3 186 130 187
3 188 187 129
3 186 187 188
3 190 189 130
3 18 191 192
3 34 193 195
3 195 194 71
3 193 194 195
3 34 196 198
3 196 131 197
3 196 197 198
3 34 132 131
3 25 133 73
3 25 199 201
3 201 200 133
3 199 200 201
3 203 202 75
3 35 204 205
3 35 206 207
3 208 36 209
3 210 209 9
3 208 209 210
3 211 36 212
3 213 11 214
3 215 214 36
3 213 214 215
3 216 9 217
3 218 37 219
3 220 37 221
3 222 14 223
3 224 223 37
3 222 223 224
3 38 39 15
3 40 39 38
3 40 17 39
3 40 41 17
3 225 41 226
3 227 226 40
3 225 226 227
3 229 228 41
3 42 43 19
3 44 43 42
3 44 21 43
3 45 46 10
3 47 46 45
3 47 22 46
3 47 48 22
3 49 48 47
3 49 23 48
3 50 51 12
3 52 51 50
3 52 24 51
3 52 53 24
3 42 53 52
3 42 19 53
3 54 55 25
3 56 55 54
3 56 26 55
3 57 58 13
3 59 58 57
3 59 27 58
3 59 230 232
3 232 231 27
3 230 231 232
3 234 233 59
3 60 61 20
3 62 61 60
3 62 28 61
3 235 63 236
3 237 236 16
3 235 236 237
3 238 63 239
3 240 29 241
3 242 241 63
3 240 241 242
3 244 243 29
3 245 30 246
3 64 247 249
3 247 65 248
3 247 248 249
3 66 65 64
3 66 31 65
3 66 67 31
3 68 67 66
3 68 32 67
3 250 69 251
3 252 69 253
3 254 33 255
3 256 255 69
3 254 255 256
3 258 257 33
3 70 71 18
3 72 71 70
3 72 34 71
3 72 73 34
3 54 73 72
3 54 25 73
3 74 259 261
3 259 75 260
3 259 260 261
3 76 75 74
3 76 262 264
3 264 263 75
3 262 263 264
3 76 265 266
3 77 267 269
3 269 268 76
3 267 268 269
3 77 270 272
3 270 35 271
3 270 271 272
3 78 79 1
3 80 79 78
3 80 10 79
3 36 80 9
3 81 80 36
3 81 10 80
3 81 45 10
3 82 45 81
3 82 3 45
3 273 12 274
3 83 275 276
3 83 277 279
3 277 12 278
3 277 278 279
3 83 50 12
3 78 50 83
3 78 1 50
3 280 84 281
3 282 281 4
3 280 281 282
3 85 283 285
3 283 84 284
3 283 284 285
3 85 13 84
3 37 286 288
3 286 85 287
3 286 287 288
3 86 85 37
3 86 13 85
3 86 57 13
3 87 57 86
3 87 5 57
3 88 89 2
3 90 89 88
3 90 16 89
3 39 90 15
3 91 90 39
3 91 16 90
3 91 289 291
3 291 290 16
3 289 290 291
3 293 292 91
3 294 6 295
3 297 296 6
3 92 298 299
3 92 300 301
3 41 92 17
3 302 92 303
3 304 303 41
3 302 303 304
3 306 305 92
3 307 64 308
3 309 64 310
3 311 7 312
3 313 312 64
3 311 312 313
3 314 18 315
3 316 18 317
3 318 70 319
3 320 319 18
3 318 319 320
3 321 70 322
3 323 4 324
3 325 324 70
3 323 324 325
3 326 74 327
3 328 74 329
3 328 329 330
3 331 8 332
3 333 332 74
3 331 332 333
3 93 334 336
3 334 94 335
3 334 335 336
3 95 94 93
3 95 20 94
3 43 95 19
3 96 95 43
3 96 20 95
3 96 60 20
3 97 60 96
3 97 2 60
3 79 44 1
3 98 44 79
3 98 21 44
3 46 98 10
3 99 98 46
3 99 21 98
3 99 97 21
3 100 97 99
3 100 2 97
3 100 88 2
3 101 88 100
3 101 15 88
3 48 101 22
3 102 101 48
3 102 15 101
3 102 38 15
3 103 38 102
3 103 0 38
3 104 337 338
3 104 339 340
3 51 341 343
3 343 342 12
3 341 342 343
3 105 344 346
3 346 345 51
3 344 345 346
3 105 347 348
3 105 349 351
3 349 104 350
3 349 350 351
3 352 104 353
3 354 353 105
3 352 353 354
3 356 355 104
3 53 357 359
3 359 358 24
3 357 358 359
3 361 360 53
3 93 362 363
3 93 364 365
3 55 366 368
3 368 367 25
3 366 367 368
3 106 369 371
3 371 370 55
3 369 370 371
3 106 372 373
3 106 374 375
3 377 376 106
3 84 56 4
3 107 56 84
3 107 26 56
3 58 107 13
3 108 107 58
3 108 26 107
3 108 378 380
3 380 379 26
3 378 379 380
3 109 381 383
3 383 382 108
3 381 382 383
3 109 384 385
3 109 386 387
3 110 388 390
3 390 389 109
3 388 389 390
3 110 391 392
3 393 110 394
3 395 394 27
3 393 394 395
3 396 110 397
3 399 398 110
3 94 400 401
3 111 402 404
3 404 403 94
3 402 403 404
3 111 405 407
3 405 14 406
3 405 406 407
3 61 111 20
3 112 111 61
3 112 14 111
3 112 87 14
3 113 87 112
3 113 5 87
3 89 62 2
3 114 62 89
3 114 28 62
3 63 114 16
3 115 114 63
3 115 28 114
3 115 113 28
3 116 113 115
3 116 5 113
3 116 408 410
3 410 409 5
3 408 409 410
3 117 411 413
3 413 412 116
3 411 412 413
3 117 414 415
3 416 117 417
3 418 417 29
3 416 417 418
3 419 117 420
3 422 421 117
3 424 423 6
3 425 11 426
3 118 427 428
3 118 429 431
3 429 11 430
3 429 430 431
3 118 82 11
3 119 82 118
3 119 3 82
3 432 30 433
3 65 434 435
3 120 436 438
3 438 437 65
3 436 437 438
3 120 439 441
3 439 30 440
3 439 440 441
3 120 119 30
3 121 119 120
3 121 3 119
3 121 49 3
3 122 49 121
3 122 23 49
3 67 122 31
3 123 122 67
3 123 23 122
3 123 103 23
3 124 103 123
3 124 0 103
3 442 7 443
3 125 444 445
3 125 446 448
3 446 447 448
3 69 449 451
3 449 125 450
3 449 450 451
3 126 125 69
3 126 452 454
3 454 453 125
3 452 453 454
3 126 455 456
3 127 457 459
3 459 458 126
3 457 458 459
3 127 460 462
3 460 7 461
3 460 461 462
3 127 68 7
3 128 68 127
3 128 32 68
3 463 128 464
3 465 464 33
3 463 464 465
3 129 466 468
3 466 128 467
3 466 467 468
3 129 32 128
3 129 124 32
3 130 124 129
3 130 0 124
3 130 469 471
3 471 470 0
3 469 470 471
3 473 472 130
3 474 8 475
3 71 476 478
3 478 477 18
3 476 477 478
3 480 479 71
3 131 481 482
3 131 483 485
3 483 8 484
3 483 484 485
3 131 77 8
3 132 77 131
3 132 35 77
3 73 132 34
3 133 132 73
3 133 35 132
3 133 486 488
3 488 487 35
3 486 487 488
3 490 489 133
3 75 491 492
3 494 493 75
