ply
format ascii 1.0
element vertex 444
property float x
property float y
property float z
element face 393
property list uchar int vertex_index
end_header
3.022797 54.22295 -14.312969
0.917259 57.477436 11.303925
4.95668 26.397987 -21.151928
-0.003195 68.215622 -10.65538
2.506313 58.240627 -2.260046
3.484844 43.662945 19.576954
-0.780308 52.059643 25.521458
4.581264 46.177761 -14.629206
4.780293 49.378681 -9.482582
1.842192 58.484745 4.369421
3.424545 52.315868 8.836615
2.215927 50.828671 15.497937
1.943552 58.668644 -19.034969
3.225574 50.712337 -19.631618
4.401314 42.002594 -19.153545
1.387388 61.495144 -12.986744
2.849934 56.776836 -8.498795
0.92247 63.345654 -6.581097
4.093853 25.142521 32.121613
4.79958 16.735088 34.808678
0.974173 48.21944 22.182144
2.067709 40.843422 25.762974
3.142323 33.162323 29.083796
4.244949 36.74905 -22.867279
5.408394 32.519882 -18.025387
3.828182 50.306995 -14.587454
4.689842 47.89909 -12.126661
3.843548 51.875202 -11.907249
1.4002 58.135227 7.806239
2.634575 55.482166 6.584925
2.118738 55.002224 9.971655
2.841679 51.721615 12.155491
1.559473 54.216724 13.401024
2.37875 56.472858 -16.692478
2.588493 54.773716 -19.47905
3.112999 52.582767 -17.044579
3.820892 48.502277 -17.129166
3.956284 24.823658 -24.505772
0.641258 64.909775 -11.939058
1.151491 62.550152 -9.824078
0.360023 65.791702 -8.639843
0.106583 64.028458 3.65305
0.343882 67.255737 -14.017904
0.959192 63.783344 -15.165951
4.484684 20.988747 33.516083
2.712765 57.654789 -5.431107
3.787155 54.253323 -6.174549
0.450701 51.79269 20.310604
-0.037642 50.196339 23.754223
0.906322 42.852737 27.174282
2.613262 37.04208 27.457111
2.470272 31.438431 31.84705
3.867043 41.616547 -23.627708
5.082912 39.72604 -16.647068
4.925354 37.343925 -18.631771
5.262341 41.833462 -14.484976
5.453678 43.690956 -12.158628
2.216015 58.519787 1.009703
3.41766 55.493099 0.015636
3.075127 55.646908 3.260194
2.863472 47.309925 17.564339
-0.453808 48.37788 27.168121
3.858906 44.170067 -21.690811
3.83374 46.460247 -19.50906
4.481213 44.215961 -16.978134
2.195873 57.943264 -13.781096
2.943401 55.626186 -11.460716
2.029711 59.17384 -10.767313
1.857929 60.147015 -7.659634
1.654924 60.843464 -4.459139
0.101416 66.41539 -5.270773
0.679699 63.865047 -3.255875
1.400478 61.246639 -1.165211
1.086153 61.345661 2.220531
0.718157 61.136326 5.692205
0.31629 60.620785 9.23913
1.318369 62.423382 -18.304142
1.648808 60.197186 -16.063597
3.840683 53.196644 -9.100908
0.427004 56.522953 14.843978
0.992252 53.140476 16.853611
1.582621 49.654194 18.845686
2.178293 46.06348 20.795679
0.416931 46.54929 25.492264
1.51754 44.569206 24.003128
2.763981 42.370853 22.686956
3.328236 38.580029 24.510496
3.861336 34.693768 26.262241
4.353104 30.712582 27.939445
3.641075 29.198284 30.640593
2.975143 27.496716 33.276001
4.606255 31.66357 -22.008739
4.332798 39.518986 -21.127506
4.778088 34.660374 -20.423981
5.200676 29.630058 -19.670811
4.784678 24.635278 -21.810992
4.655817 27.383726 -22.262329
0.170344 67.73568 -12.336642
0.084569 68.942131 -13.329949
-0.08897 69.422073 -11.648687
3.079626 56.632675 -2.696613
3.182852 56.339756 -4.282143
2.609539 57.947708 -3.845576
4.14546 42.31303 19.037872
3.842905 44.180262 18.010755
3.776685 41.778496 20.549041
4.14546 42.31303 19.037872
-0.911695 53.88601 24.678618
-0.994232 52.961346 26.503616
-0.612997 52.925945 23.746865
-0.911695 53.88601 24.678618
-0.408975 51.127991 24.63784
-0.241664 51.994293 22.863247
-0.612997 52.925945 23.746865
3.665667 43.937075 -23.910915
3.689919 42.632221 -24.838262
5.352909 37.395073 -16.428519
5.472319 38.511736 -15.43428
5.205611 47.34433 -9.58026
5.160385 46.604534 -10.902299
4.735067 48.638886 -10.804621
5.269938 48.032662 -8.266527
5.205611 47.34433 -9.58026
3.677602 52.457527 7.198912
3.282617 54.040676 6.073067
3.02956 53.899017 7.71077
4.084352 50.837741 8.356801
3.677602 52.457527 7.198912
3.802488 50.645042 9.962193
4.084352 50.837741 8.356801
2.879072 49.557496 14.910495
3.191948 50.003968 13.239272
2.528803 51.275143 13.826714
2.5397 49.069298 16.531138
3.202844 47.798123 15.943696
2.879072 49.557496 14.910495
2.102469 57.791343 -20.448087
1.825087 59.751683 -20.17604
3.020916 51.779877 -20.86553
2.702375 53.810566 -20.789246
2.907033 52.743026 -19.555334
3.289049 49.660103 -20.832571
3.020916 51.779877 -20.86553
3.529657 48.586292 -19.570339
3.593132 47.534058 -20.771292
3.289049 49.660103 -20.832571
3.647194 22.959057 -24.954234
4.024534 21.979471 -24.062142
-0.228574 67.904442 -4.506565
-0.09977 67.673523 -6.250523
0.544194 63.980154 -1.550366
0.264941 65.316358 -2.541523
0.904583 62.67095 -0.505034
1.040088 62.555843 -2.210543
0.544194 63.980154 -1.550366
0.747421 62.720461 1.187837
1.243316 61.29615 0.52766
0.904583 62.67095 -0.505034
0.250993 62.399392 6.46317
0.41237 62.582392 4.672627
-0.054794 63.845458 5.443592
0.05006 62.141621 8.236632
0.517224 60.878555 7.465668
0.250993 62.399392 6.46317
1.02963 64.241659 -17.804443
1.245793 63.527296 -19.393635
4.62949 23.800382 31.584072
4.442873 25.888666 30.829439
5.130265 17.458887 33.630955
4.972817 19.585717 32.984657
4.642132 18.861918 34.16238
5.234913 15.273926 34.274273
5.130265 17.458887 33.630955
4.302869 52.428619 -6.439447
4.279306 52.904541 -4.986697
4.015629 53.853866 -0.380138
3.87509 54.029152 1.182913
0.19511 55.905418 16.625349
-0.021498 57.614327 15.669583
0.477735 54.21418 17.630165
0.709628 54.831715 15.848795
0.19511 55.905418 16.625349
0.173198 45.610592 27.12744
-0.018438 47.463585 26.330192
-0.262172 46.524887 27.965369
2.416031 28.521549 33.911262
2.722708 29.467574 32.561526
2.163595 30.492407 33.196787
2.669034 26.563313 34.558994
2.416031 28.521549 33.911262
4.166481 35.219847 -23.604248
4.027641 37.768934 -24.068689
4.425602 34.20631 -22.438009
4.347134 32.677107 -23.174978
4.166481 35.219847 -23.604248
5.631298 30.063238 -17.718942
5.527439 28.618326 -18.541654
5.304535 31.07497 -18.848099
4.155619 26.596561 -23.939251
3.878088 27.593252 -25.015753
4.284479 23.848114 -23.487913
4.155619 26.596561 -23.939251
4.024534 21.979471 -24.062142
4.284479 23.848114 -23.487913
-0.148155 65.433411 2.674979
0.257636 64.061859 1.904097
-0.275037 65.324883 4.478743
-0.148155 65.433411 2.674979
-0.054794 63.845458 5.443592
-0.275037 65.324883 4.478743
0.287304 68.422852 -15.039341
0.084569 68.942131 -13.329949
0.542386 66.657837 -15.661324
0.287304 68.422852 -15.039341
0.651537 65.519541 -14.591928
0.850042 64.92164 -16.235348
0.542386 66.657837 -15.661324
3.962757 22.227579 34.074316
4.289269 23.065634 32.818848
3.767342 24.304466 33.377081
4.166346 20.163479 34.71048
3.962757 22.227579 34.074316
4.323793 18.03665 35.356777
4.642132 18.861918 34.16238
4.166346 20.163479 34.71048
3.720047 54.639023 -4.653864
3.24996 55.954056 -5.802828
3.182852 56.339756 -4.282143
4.279306 52.904541 -4.986697
3.720047 54.639023 -4.653864
0.002507 52.792469 21.141438
0.206959 53.540287 19.358662
0.20653 50.994515 22.032414
0.002507 52.792469 21.141438
-0.241664 51.994293 22.863247
0.63446 41.897726 28.736265
0.417893 43.762315 27.968449
1.163088 40.979316 27.984532
0.63446 41.897726 28.736265
1.743781 39.974659 27.278878
1.487015 41.848079 26.468628
1.163088 40.979316 27.984532
2.016558 38.073988 28.125946
2.340485 38.942751 26.610042
1.743781 39.974659 27.278878
2.279606 36.173094 28.904796
2.016558 38.073988 28.125946
2.544137 34.233216 29.718139
2.877792 35.102201 28.270454
2.279606 36.173094 28.904796
2.208112 33.371269 31.099766
2.806298 32.300377 30.465423
2.544137 34.233216 29.718139
1.90567 32.415487 32.518256
2.208112 33.371269 31.099766
2.163595 30.492407 33.196787
1.90567 32.415487 32.518256
3.838688 40.202682 -24.448904
3.689919 42.632221 -24.838262
4.055996 39.182798 -23.247493
4.027641 37.768934 -24.068689
3.838688 40.202682 -24.448904
5.27413 36.204015 -17.42087
5.004133 38.534982 -17.63942
5.352909 37.395073 -16.428519
5.51565 33.791994 -17.117678
5.166874 34.931904 -18.328579
5.27413 36.204015 -17.42087
5.75528 31.413248 -16.885868
5.51565 33.791994 -17.117678
5.125261 23.707828 -20.764809
5.280188 25.446556 -20.049484
-0.152076 68.573639 -8.942827
-0.262459 69.822838 -9.905931
-0.262459 69.822838 -9.905931
-0.08897 69.422073 -11.648687
5.690268 40.549065 -13.273791
5.562033 39.565447 -14.353233
5.785937 41.477812 -12.110616
5.690268 40.549065 -13.273791
5.358009 42.762209 -13.321802
5.910801 42.343403 -10.949045
5.785937 41.477812 -12.110616
5.542303 44.500467 -10.918283
5.07176 45.795023 -12.142644
5.160385 46.604534 -10.902299
5.910801 42.343403 -10.949045
5.542303 44.500467 -10.918283
3.703823 54.106057 2.805191
3.87509 54.029152 1.182913
3.246393 55.570003 1.637915
3.502893 54.123047 4.410702
2.854851 55.564537 4.92256
3.282617 54.040676 6.073067
3.703823 54.106057 2.805191
3.502893 54.123047 4.410702
3.511055 50.347915 11.621631
3.802488 50.645042 9.962193
3.133112 52.018742 10.496053
3.511055 50.347915 11.621631
3.191948 50.003968 13.239272
3.532219 46.003751 17.004447
3.202844 47.798123 15.943696
3.174158 45.486435 18.570647
3.842905 44.180262 18.010755
3.532219 46.003751 17.004447
-0.905932 51.08833 27.279094
-0.994232 52.961346 26.503616
-0.742681 49.247448 28.102425
-0.617058 50.218761 26.344789
-0.905932 51.08833 27.279094
-0.620893 47.372349 28.853052
-0.742681 49.247448 28.102425
-0.262172 46.524887 27.965369
-0.620893 47.372349 28.853052
2.42494 55.843879 -20.670128
2.102469 57.791343 -20.448087
2.266023 56.72118 -19.25701
2.42494 55.843879 -20.670128
2.702375 53.810566 -20.789246
3.605715 46.388968 -21.862167
3.661599 45.213835 -22.942467
3.846323 45.315157 -20.599936
3.605715 46.388968 -21.862167
3.593132 47.534058 -20.771292
5.562033 39.565447 -14.353233
5.472319 38.511736 -15.43428
5.172626 40.779751 -15.566022
3.635424 25.815298 -25.458483
3.878088 27.593252 -25.015753
3.635424 25.815298 -25.458483
3.647194 22.959057 -24.954234
4.784678 24.635278 -21.810992
5.125261 23.707828 -20.764809
0.029533 67.361679 -7.935059
0.178414 67.003662 -9.647612
-0.152076 68.573639 -8.942827
0.230719 66.103546 -6.955308
0.029533 67.361679 -7.935059
-0.09977 67.673523 -6.250523
-0.0242 66.59153 -3.548972
-0.228574 67.904442 -4.506565
0.390558 65.140219 -4.263324
-0.0242 66.59153 -3.548972
0.264941 65.316358 -2.541523
0.596368 62.68706 2.93679
0.747421 62.720461 1.187837
0.257636 64.061859 1.904097
1.512496 61.629052 -19.810627
1.245793 63.527296 -19.393635
1.630961 60.546013 -18.669556
1.825087 59.751683 -20.17604
1.512496 61.629052 -19.810627
1.13878 63.103363 -16.735046
1.02963 64.241659 -17.804443
0.850042 64.92164 -16.235348
4.824905 21.723495 32.281306
4.62949 23.800382 31.584072
4.289269 23.065634 32.818848
4.824905 21.723495 32.281306
4.972817 19.585717 32.984657
4.490032 15.922394 35.942875
4.323793 18.03665 35.356777
4.914131 14.560969 35.395128
4.490032 15.922394 35.942875
5.234913 15.273926 34.274273
4.914131 14.560969 35.395128
4.329633 51.90028 -7.902627
3.813919 53.724984 -7.637728
4.302869 52.428619 -6.439447
4.799439 49.991298 -8.093464
4.310488 51.287662 -9.291745
4.329633 51.90028 -7.902627
5.269938 48.032662 -8.266527
4.799439 49.991298 -8.093464
3.535299 55.258911 -1.558771
3.079626 56.632675 -2.696613
2.961987 56.866863 -1.122205
3.535299 55.258911 -1.558771
4.015629 53.853866 -0.380138
-0.110872 61.810448 10.064075
0.05006 62.141621 8.236632
0.11294 60.213665 11.042696
-0.110872 61.810448 10.064075
0.413425 58.64199 12.075093
0.616775 59.04911 10.271527
0.11294 60.213665 11.042696
0.168297 58.164749 13.84512
-0.021498 57.614327 15.669583
0.672131 57.000194 13.073951
0.413425 58.64199 12.075093
0.168297 58.164749 13.84512
0.721477 52.466583 18.582107
0.477735 54.21418 17.630165
0.206959 53.540287 19.358662
0.661627 44.701014 26.333273
0.173198 45.610592 27.12744
0.417893 43.762315 27.968449
3.416254 41.13245 22.104042
3.776685 41.778496 20.549041
3.124413 43.016899 21.131955
3.698381 39.237038 23.015812
3.416254 41.13245 22.104042
3.046108 40.475441 23.598726
3.967485 37.295441 23.949894
3.698381 39.237038 23.015812
4.234036 35.352311 24.825767
3.967485 37.295441 23.949894
3.594786 36.636899 25.386368
4.477083 33.356881 25.719938
4.234036 35.352311 24.825767
4.722968 31.366287 26.55854
4.477083 33.356881 25.719938
4.10722 32.703175 27.100843
4.936207 29.319246 27.410856
4.722968 31.366287 26.55854
4.572499 28.673696 28.738355
4.936207 29.319246 27.410856
4.216484 27.916548 30.088929
4.572499 28.673696 28.738355
3.997089 29.955433 29.290019
3.867464 27.170403 31.381103
4.442873 25.888666 30.829439
4.216484 27.916548 30.088929
3.207987 25.481564 33.954275
3.767342 24.304466 33.377081
3.534498 26.319618 32.698807
3.207987 25.481564 33.954275
2.669034 26.563313 34.558994
4.480605 30.016517 -22.690734
4.347134 32.677107 -23.174978
4.781467 29.030779 -21.580334
4.655817 27.383726 -22.262329
4.480605 30.016517 -22.690734
3.862974 42.893307 -22.659259
3.665667 43.937075 -23.910915
3.661599 45.213835 -22.942467
5.402185 27.062591 -19.308926
5.280188 25.446556 -20.049484
5.078678 28.014022 -20.411369
5.402185 27.062591 -19.308926
5.527439 28.618326 -18.541654
5.631298 30.063238 -17.718942
5.75528 31.413248 -16.885868
3 0 27 25
3 1 30 28
3 1 32 30
3 0 35 33
3 0 25 35
3 2 95 96
3 3 40 38
3 3 97 99
3 97 42 98
3 97 98 99
3 3 38 42
3 4 100 102
3 102 101 45
3 100 101 102
3 5 103 104
3 5 105 106
3 6 107 108
3 6 109 110
3 6 111 113
3 111 48 112
3 111 112 113
3 114 52 115
3 117 116 53
3 7 56 55
3 8 118 120
3 120 119 26
3 118 119 120
3 8 121 122
3 9 59 57
3 10 123 125
3 125 124 29
3 123 124 125
3 10 126 127
3 10 128 129
3 11 130 132
3 132 131 31
3 130 131 132
3 11 133 135
3 133 60 134
3 133 134 135
3 12 136 137
3 13 138 140
3 140 139 34
3 138 139 140
3 13 141 142
3 13 143 145
3 143 63 144
3 143 144 145
3 7 64 36
3 7 55 64
3 147 146 37
3 15 67 65
3 17 68 39
3 17 69 68
3 148 70 149
3 150 71 151
3 152 72 153
3 154 153 71
3 152 153 154
3 155 73 156
3 157 156 72
3 155 156 157
3 158 74 159
3 160 159 41
3 158 159 160
3 161 75 162
3 163 162 74
3 161 162 163
3 164 76 165
3 15 77 43
3 15 65 77
3 18 166 167
3 19 168 170
3 170 169 44
3 168 169 170
3 19 171 172
3 16 78 66
3 174 173 46
3 176 175 58
3 177 79 178
3 179 80 180
3 181 180 79
3 179 180 181
3 20 81 47
3 20 82 81
3 182 83 183
3 184 183 61
3 182 183 184
3 21 84 49
3 21 85 84
3 21 86 85
3 22 87 50
3 22 88 87
3 22 89 88
3 185 90 186
3 187 186 51
3 185 186 187
3 189 188 90
3 23 190 191
3 23 192 194
3 192 91 193
3 192 193 194
3 14 92 62
3 24 93 54
3 24 94 93
3 24 195 197
3 197 196 94
3 195 196 197
3 25 26 7
3 27 26 25
3 27 8 26
3 28 29 9
3 30 29 28
3 30 10 29
3 30 31 10
3 32 31 30
3 32 11 31
3 33 34 12
3 35 34 33
3 35 13 34
3 35 36 13
3 25 36 35
3 25 7 36
3 198 37 199
3 200 37 201
3 203 202 37
3 38 39 15
3 40 39 38
3 40 17 39
3 204 41 205
3 206 41 207
3 209 208 41
3 42 210 211
3 42 212 213
3 42 214 216
3 214 43 215
3 214 215 216
3 38 43 42
3 38 15 43
3 217 44 218
3 219 218 18
3 217 218 219
3 220 44 221
3 222 19 223
3 224 223 44
3 222 223 224
3 45 46 16
3 225 46 226
3 227 226 45
3 225 226 227
3 229 228 46
3 230 47 231
3 48 232 234
3 232 47 233
3 232 233 234
3 48 20 47
3 235 49 236
3 237 49 238
3 239 21 240
3 241 240 49
3 239 240 241
3 242 50 243
3 244 243 21
3 242 243 244
3 245 50 246
3 247 22 248
3 249 248 50
3 247 248 249
3 250 51 251
3 252 251 22
3 250 251 252
3 253 51 254
3 256 255 51
3 52 257 258
3 52 259 261
3 259 23 260
3 259 260 261
3 53 54 14
3 262 54 263
3 264 263 53
3 262 263 264
3 265 24 266
3 267 266 54
3 265 266 267
3 269 268 24
3 271 270 2
3 273 272 3
3 274 3 275
3 55 276 277
3 56 278 280
3 280 279 55
3 278 279 280
3 56 281 282
3 26 56 7
3 283 56 284
3 285 284 26
3 283 284 285
3 287 286 56
3 57 58 4
3 59 58 57
3 59 288 290
3 290 289 58
3 288 289 290
3 29 59 9
3 291 59 292
3 293 292 29
3 291 292 293
3 295 294 59
3 31 296 298
3 298 297 10
3 296 297 298
3 300 299 31
3 60 301 302
3 60 303 305
3 303 5 304
3 303 304 305
3 306 6 307
3 308 61 309
3 310 309 6
3 308 309 310
3 311 61 312
3 314 313 61
3 34 315 317
3 317 316 12
3 315 316 317
3 319 318 34
3 320 62 321
3 63 322 324
3 322 62 323
3 322 323 324
3 63 14 62
3 36 63 13
3 64 63 36
3 64 14 63
3 64 53 14
3 55 53 64
3 55 325 327
3 327 326 53
3 325 326 327
3 37 328 329
3 331 330 37
3 333 332 2
3 65 66 0
3 67 66 65
3 67 16 66
3 39 67 15
3 68 67 39
3 68 16 67
3 68 45 16
3 69 45 68
3 69 4 45
3 334 40 335
3 336 335 3
3 334 335 336
3 70 337 339
3 337 40 338
3 337 338 339
3 70 17 40
3 340 70 341
3 71 342 344
3 342 70 343
3 342 343 344
3 71 17 70
3 71 69 17
3 72 69 71
3 72 4 69
3 72 57 4
3 73 57 72
3 73 9 57
3 41 345 347
3 345 73 346
3 345 346 347
3 74 73 41
3 74 9 73
3 74 28 9
3 75 28 74
3 75 1 28
3 76 348 349
3 76 350 352
3 350 12 351
3 350 351 352
3 43 353 355
3 353 76 354
3 353 354 355
3 77 76 43
3 77 12 76
3 77 33 12
3 65 33 77
3 65 0 33
3 44 356 358
3 358 357 18
3 356 357 358
3 360 359 44
3 361 19 362
3 363 19 364
3 366 365 19
3 66 27 0
3 78 27 66
3 78 8 27
3 46 78 16
3 367 78 368
3 369 368 46
3 367 368 369
3 370 8 371
3 372 371 78
3 370 371 372
3 374 373 8
3 58 375 377
3 377 376 4
3 375 376 377
3 379 378 58
3 380 75 381
3 382 75 383
3 384 1 385
3 386 385 75
3 384 385 386
3 79 387 388
3 79 389 391
3 389 1 390
3 389 390 391
3 79 32 1
3 80 32 79
3 80 11 32
3 47 392 394
3 392 80 393
3 392 393 394
3 81 80 47
3 81 11 80
3 81 60 11
3 82 60 81
3 82 5 60
3 61 48 6
3 83 48 61
3 83 20 48
3 49 395 397
3 395 83 396
3 395 396 397
3 84 83 49
3 84 20 83
3 84 82 20
3 85 82 84
3 85 5 82
3 85 398 400
3 400 399 5
3 398 399 400
3 86 401 403
3 403 402 85
3 401 402 403
3 86 404 405
3 50 86 21
3 87 86 50
3 87 406 408
3 408 407 86
3 406 407 408
3 87 409 410
3 88 411 413
3 413 412 87
3 411 412 413
3 88 414 415
3 88 416 417
3 89 418 420
3 420 419 88
3 418 419 420
3 89 421 423
3 421 18 422
3 421 422 423
3 51 89 22
3 90 89 51
3 90 18 89
3 90 424 426
3 426 425 18
3 424 425 426
3 428 427 90
3 91 429 430
3 91 431 433
3 431 2 432
3 431 432 433
3 62 434 436
3 434 52 435
3 434 435 436
3 92 52 62
3 92 23 52
3 54 92 14
3 93 92 54
3 93 23 92
3 93 91 23
3 94 91 93
3 94 2 91
3 94 437 439
3 439 438 2
3 437 438 439
3 441 440 94
3 443 442 24
