ply
format ascii 1.0
element vertex 753
property float x
property float y
property float z
element face 758
property list uchar int vertex_index
end_header
-13.942536 -69.073807 -14.557272
-16.158829 -112.537033 -20.955261
-2.568136 -100.869583 -10.702463
-23.661964 -83.095268 -19.847324
-29.314949 -99.270218 -23.590366
-19.21566 -99.265472 -19.868938
-12.34354 -59.852772 -12.915615
-22.938126 -60.164352 -19.15147
-28.134079 -110.573593 -23.388523
-7.773224 -85.735275 -12.029026
-11.945801 -94.064972 -16.163206
-18.462151 -77.27034 -16.544888
-12.663895 -64.365326 -13.926355
-15.08784 -56.810707 -15.548372
-16.290157 -60.793224 -16.307512
-20.198038 -56.690266 -18.727962
-18.529377 -64.901497 -16.746834
-34.071095 -107.922363 -22.698399
-34.262367 -103.128738 -23.730389
-1.078228 -102.291931 -6.776031
-2.292196 -95.798157 -7.840151
-4.440205 -88.507919 -9.014091
-4.778803 -93.578354 -11.260904
-10.419382 -117.037354 -18.927902
-21.397661 -91.41449 -19.633263
-15.198649 -97.188705 -18.042255
-18.035791 -89.003616 -17.863605
-15.212479 -85.777084 -16.17296
-20.966682 -80.512573 -18.066074
-23.636612 -71.911316 -18.747463
-25.840214 -74.557419 -20.540146
-22.749039 -106.53952 -22.262402
-17.373596 -106.372803 -20.4151
-12.479132 -55.91201 -11.099709
-14.930495 -53.405739 -13.937267
-17.815468 -50.525764 -16.837193
-15.685439 -117.668777 -20.986736
-21.700813 -116.876083 -22.305347
-21.967106 -112.193909 -22.617714
-28.563578 -105.364975 -23.603123
-10.623219 -62.484917 -10.207546
-10.07453 -72.5327 -12.156101
-7.211342 -80.691277 -10.464201
-11.016287 -77.515366 -13.116955
-12.791567 -104.769394 -18.486515
-9.127411 -101.906906 -16.382601
-6.418612 -98.096222 -13.90583
-9.431906 -90.209839 -14.074911
-12.827229 -81.953323 -14.510761
-16.028145 -73.460526 -15.349876
-21.178299 -68.668358 -17.469349
-25.623844 -63.330727 -20.087177
-13.179621 -66.729843 -14.252155
-14.392218 -62.651234 -15.132292
-15.184581 -64.876671 -15.401566
-17.311733 -62.866219 -16.524796
-16.206333 -67.069595 -15.658192
-10.287394 -72.867233 -4.681444
-1.517517 -101.750381 -8.800152
-1.565428 -99.167007 -7.313927
-2.23925 -98.39209 -9.195501
-3.218796 -94.828796 -9.60041
-3.550644 -97.309799 -10.968405
-13.132877 -114.991516 -20.088528
-10.667276 -114.383926 -19.01355
-22.531403 -87.29599 -19.681011
-19.63727 -90.33577 -18.724461
-20.956154 -86.151169 -18.767639
-19.51033 -84.781219 -17.912647
-22.269411 -81.904335 -18.921143
-23.54583 -77.620796 -19.190681
-24.7714 -78.841446 -20.13303
-26.087029 -103.052856 -22.896152
-23.328394 -103.365005 -22.025124
-12.410183 -57.804413 -12.117765
-13.626623 -54.702038 -12.513807
-13.568371 -56.461548 -13.493744
-16.686882 -55.122322 -16.852787
-16.384926 -53.481354 -16.24036
-17.913414 -51.837337 -17.634754
-19.276432 -48.935349 -18.335686
-19.429087 -50.092888 -19.070477
-20.869617 -48.252434 -20.571789
-21.516975 -58.44492 -18.90823
-23.427391 -56.06974 -20.283886
-24.869522 -57.630047 -20.58947
-12.911697 -119.806564 -19.69836
-15.683014 -119.835327 -20.618565
-28.033651 -112.823792 -23.011169
-24.844423 -115.990768 -22.516624
-24.902176 -113.886734 -22.973419
-21.776848 -114.661102 -22.587727
-25.040724 -111.528717 -23.156696
-25.281666 -108.931885 -23.151501
-28.305708 -108.083618 -23.558659
-37.338161 -93.142319 -24.817989
-10.786535 -60.233177 -9.348146
-10.20615 -63.667908 -8.835659
-9.979685 -69.942467 -11.773462
-8.70274 -73.99102 -10.844162
-5.827847 -87.244492 -10.570679
-7.341202 -83.276169 -11.166941
-8.896204 -79.213379 -11.840982
-9.401962 -81.665268 -12.529955
-6.537622 -112.117386 -16.591095
-5.55283 -107.28653 -15.270863
-18.232784 -102.927246 -20.118542
-14.971439 -105.745407 -19.457043
-15.970545 -102.167236 -19.17775
-13.480274 -95.733948 -17.126724
-12.081499 -99.690979 -17.281425
-10.454199 -98.061172 -16.254356
-7.649706 -100.10199 -15.190378
-9.03886 -96.225449 -15.144402
-7.844555 -94.212173 -13.965479
-10.59351 -92.217194 -15.139482
-16.871246 -81.542343 -16.304024
-13.962676 -83.938278 -15.327538
-15.643669 -79.709793 -15.553829
-14.488407 -77.729675 -14.869843
-17.227646 -75.439514 -15.89772
-18.647232 -71.142624 -16.386724
-19.918629 -72.973427 -16.923134
-24.743008 -67.608414 -19.3223
-32.355057 -95.214966 -24.352226
-29.757231 -95.914383 -23.629997
-32.686714 -91.775452 -24.585583
-12.399185 -62.052261 -13.503651
-13.614653 -58.386829 -14.240818
-13.870346 -60.465397 -14.770094
-15.5384 -58.75156 -16.009296
-17.312849 -56.913811 -17.245895
-18.256523 -58.801159 -17.489502
-19.453768 -60.715725 -17.673527
-20.803156 -62.592701 -17.888618
-31.091948 -111.502625 -22.65324
-31.169361 -109.36058 -23.24625
-31.286072 -106.975281 -23.621716
-34.148895 -105.641846 -23.289608
-10.178032 -69.306732 -5.435066
-9.712223 -67.279358 -8.160822
-1.509821 -99.638077 -5.385612
-2.020119 -96.497421 -6.041441
-2.748451 -93.118195 -6.707453
-3.25996 -92.232101 -8.397511
-4.431414 -91.102417 -10.05158
-6.207365 -89.7117 -11.608942
-8.164913 -116.176346 -17.727718
-8.463184 -113.419098 -17.853287
-20.282694 -95.416443 -19.699833
-17.108294 -98.38208 -18.944016
-18.343372 -94.425339 -18.786545
-16.584877 -93.151459 -17.910057
-14.991791 -91.647797 -17.034393
-13.550535 -89.959167 -16.131052
-16.567612 -87.471222 -17.019619
-18.157425 -83.235168 -17.094177
-19.707287 -78.961372 -17.272892
-21.158764 -74.664566 -17.577705
-22.359224 -76.217712 -18.337429
-24.749123 -73.319321 -19.586964
-26.841208 -70.261642 -21.075207
-1.853422 -104.213089 -10.419092
-19.401768 -109.709244 -21.643326
-16.674129 -109.580673 -20.713181
-19.978065 -106.636169 -21.362564
-20.694675 -103.3284 -21.076805
-21.518559 -99.801208 -20.834606
-22.411617 -96.077179 -20.671844
-23.338509 -92.185349 -20.613052
-24.272194 -88.15863 -20.672649
-25.196093 -84.030197 -20.856441
-26.10239 -79.830215 -21.164139
-16.447014 -50.709579 -14.269747
-14.913335 -55.022346 -14.865278
-16.34609 -52.015327 -15.375389
-12.93619 -117.536087 -20.02198
-15.833959 -115.23439 -21.072353
-18.635656 -119.501251 -21.304882
-18.625328 -117.443146 -21.771221
-18.732506 -115.1185 -21.927422
-18.985909 -112.538528 -21.85677
-22.290241 -109.48468 -22.482357
-25.633427 -106.104538 -23.040943
-28.906326 -102.424606 -23.594704
-31.464251 -104.35994 -23.855598
-31.711765 -101.522385 -24.019665
-32.017845 -98.470123 -24.171772
-34.90498 -94.272171 -24.772121
-11.478996 -59.059006 -10.735607
-11.335144 -61.215698 -11.569656
-11.204403 -65.934875 -12.671511
-11.409269 -68.417244 -13.045021
-11.858021 -70.896622 -13.39657
-7.385523 -78.014801 -9.918314
-8.66301 -76.640518 -11.287857
-10.420628 -75.075783 -12.587589
-12.546535 -73.306061 -13.79302
-14.149647 -109.087784 -19.739288
-11.85548 -108.236359 -18.731113
-9.806774 -107.048523 -17.667385
-13.919641 -101.074829 -18.24361
-10.842545 -103.476364 -17.473969
-8.011387 -105.558121 -16.514189
-6.475243 -103.803986 -15.247139
-4.224173 -99.64975 -12.420013
-5.452377 -95.915344 -12.572477
-6.890907 -92.03775 -12.764233
-8.481552 -88.048782 -13.01734
-12.256163 -88.112915 -15.195356
-11.116673 -86.117493 -14.25165
-10.154194 -83.969421 -13.346045
-11.832222 -79.813156 -13.762356
-13.439915 -75.593307 -14.27903
-14.91226 -71.332237 -14.908476
-17.386997 -69.17041 -15.971323
-19.848669 -66.845757 -17.045887
-22.192543 -64.383766 -18.208813
-22.450804 -70.357986 -18.037155
-23.525581 -66.060501 -18.680859
-24.338356 -61.802849 -19.530376
-26.236177 -59.111176 -21.057541
-26.986876 -75.584007 -21.592793
-14.846114 -112.355423 -20.463052
-13.333137 -113.582664 -20.029686
-14.645853 -113.764274 -20.521895
-27.96618 -99.527817 -23.181151
-26.35222 -101.419136 -22.834043
-27.700989 -101.161537 -23.243259
-18.122352 -52.581302 -17.907232
-17.300148 -53.479829 -17.243771
-17.509087 -54.223795 -17.516248
-18.880189 -51.709078 -18.625093
-18.67125 -50.965113 -18.352615
-18.122352 -52.581302 -17.907232
-19.687328 -50.759868 -19.316044
-18.880189 -51.709078 -18.625093
-15.736481 -120.779267 -20.257599
-14.350074 -120.817948 -19.834373
-10.125039 -64.217514 -8.146178
-10.258977 -62.499903 -8.395213
-8.264754 -74.641079 -10.166778
-8.839741 -72.655323 -10.648244
-5.719931 -111.313217 -15.898601
-6.839755 -110.545204 -16.596782
-6.347359 -108.129776 -15.936667
-5.227534 -108.897789 -15.238485
-33.922999 -91.348145 -24.873072
-32.520886 -93.495209 -24.468905
-33.75717 -93.067902 -24.756394
-32.581522 -109.712494 -22.675819
-32.546149 -110.72966 -22.27142
-34.035723 -108.939529 -22.293999
-9.927152 -70.647495 -5.726166
-10.232713 -71.086983 -5.058255
-9.981832 -72.427746 -5.349355
-10.01481 -68.825393 -6.118291
-9.927152 -70.647495 -5.726166
-1.294024 -100.965004 -6.080821
-1.349518 -101.064697 -5.040204
-1.133722 -102.391625 -5.735413
-9.292148 -116.60685 -18.32781
-8.122897 -117.408417 -17.552208
-9.250132 -117.838921 -18.1523
-9.802993 -112.433258 -18.38991
-9.56523 -113.901512 -18.433419
-10.90504 -112.915672 -18.970042
-8.73564 -111.89534 -17.833088
-9.802993 -112.433258 -18.38991
-1.627544 -105.753875 -10.24025
-1.451487 -104.534965 -9.391286
-22.346731 -101.650253 -21.449571
-22.011534 -103.346702 -21.550964
-23.66359 -101.668556 -21.923731
-22.758673 -99.886657 -21.328472
-21.106617 -101.564804 -20.955706
-22.346731 -101.650253 -21.449571
-28.473407 -96.115425 -23.168663
-29.976701 -94.145294 -23.684683
-23.93931 -94.342529 -21.165627
-23.567554 -96.227753 -21.181797
-24.402756 -92.396614 -21.13623
-22.875063 -94.131264 -20.642448
-23.93931 -94.342529 -21.165627
-25.59326 -86.406807 -21.30997
-25.237175 -88.42424 -21.207231
-26.05521 -84.342591 -21.401867
-24.734144 -86.094414 -20.764545
-25.59326 -86.406807 -21.30997
-26.398915 -82.281364 -21.566871
-26.05521 -84.342591 -21.401867
-13.065574 -54.498255 -11.212198
-12.447943 -55.030045 -10.493019
-14.968269 -52.67371 -13.360591
-14.316333 -53.32186 -12.648861
-14.278559 -54.053888 -13.225537
-15.688754 -52.057659 -14.103507
-15.726529 -51.32563 -13.526831
-14.968269 -52.67371 -13.360591
-17.87179 -49.952878 -16.312593
-17.137101 -50.69766 -15.581691
-17.080779 -51.270545 -16.106291
-18.605335 -49.236607 -17.091314
-17.87179 -49.952878 -16.312593
-20.035319 -47.672246 -18.642767
-19.973332 -48.090103 -19.111004
-21.527217 -47.286075 -21.365969
-21.167669 -48.843595 -20.801358
-20.517173 -54.798361 -19.29718
-19.651528 -55.825886 -18.622675
-21.706186 -117.848159 -21.99745
-23.277991 -117.405502 -22.103088
-23.272618 -116.433425 -22.410986
-20.168235 -118.188667 -21.805115
-20.173608 -119.160743 -21.497217
-21.706186 -117.848159 -21.99745
-33.181083 -99.478653 -24.221184
-33.07068 -100.956589 -24.054304
-33.334124 -97.952522 -24.297238
-31.864805 -99.996254 -24.095719
-33.181083 -99.478653 -24.221184
-34.777691 -95.853546 -24.597412
-33.461413 -96.371147 -24.471947
-33.334124 -97.952522 -24.297238
-38.655319 -89.287247 -25.29554
-37.438459 -91.508713 -25.099735
-38.555021 -90.920853 -25.013794
-9.785315 -66.700173 -8.839404
-9.421373 -68.582699 -8.4263
-10.651408 -66.651787 -12.020498
-11.205307 -64.725824 -12.436466
-4.628669 -87.164215 -8.601422
-4.065947 -89.027305 -8.215567
-6.640704 -81.329739 -9.745078
-6.495682 -82.672657 -10.083572
-7.298433 -79.353039 -10.191257
-6.727794 -79.991501 -9.472134
-6.640704 -81.329739 -9.745078
-5.813018 -99.959938 -13.887662
-6.428565 -100.962822 -14.529936
-7.034159 -99.099106 -14.548104
-5.321392 -98.872986 -13.162921
-4.715799 -100.736702 -13.144753
-5.813018 -99.959938 -13.887662
-27.629266 -75.966049 -22.160483
-26.544633 -77.707111 -21.378466
-27.187023 -78.089153 -21.946155
-35.422401 -107.10839 -22.227444
-34.035723 -108.939529 -22.293999
-35.451062 -106.020409 -22.626692
-35.422401 -107.10839 -22.227444
-10.315553 -74.628242 -4.257929
-10.612544 -73.23695 -4.004461
-9.882709 -74.247421 -4.909848
-10.315553 -74.628242 -4.257929
-9.981832 -72.427746 -5.349355
-9.882709 -74.247421 -4.909848
-12.100337 -113.278869 -19.492197
-11.900077 -114.687721 -19.551039
-13.333137 -113.582664 -20.029686
-10.90504 -112.915672 -18.970042
-12.100337 -113.278869 -19.492197
-24.972903 -101.57521 -22.39853
-24.707712 -103.208931 -22.460638
-26.35222 -101.419136 -22.834043
-23.66359 -101.668556 -21.923731
-24.972903 -101.57521 -22.39853
-20.049659 -48.668873 -19.4784
-19.973332 -48.090103 -19.111004
-19.352759 -49.514119 -18.703081
-20.149352 -49.172661 -19.821133
-20.769924 -47.748646 -20.229056
-20.049659 -48.668873 -19.4784
-20.407592 -49.839641 -20.0667
-20.149352 -49.172661 -19.821133
-19.687328 -50.759868 -19.316044
-21.167669 -48.843595 -20.801358
-20.407592 -49.839641 -20.0667
-21.776676 -56.460279 -19.490911
-21.117207 -55.582953 -19.400778
-20.857506 -57.567593 -18.818096
-22.731884 -55.272689 -20.178739
-21.776676 -56.460279 -19.490911
-22.472183 -57.25733 -19.596058
-23.570168 -54.118717 -20.925114
-22.731884 -55.272689 -20.178739
-24.281299 -54.834305 -21.060531
-23.570168 -54.118717 -20.925114
-25.002365 -55.614458 -21.213324
-24.281299 -54.834305 -21.060531
-24.148457 -56.849894 -20.436678
-25.715553 -56.31234 -21.40991
-25.002365 -55.614458 -21.213324
-12.964416 -120.803566 -19.374271
-11.686795 -120.652092 -18.840555
-14.297356 -119.820945 -20.158462
-12.964416 -120.803566 -19.374271
-14.350074 -120.817948 -19.834373
-26.439037 -114.40728 -22.763897
-26.412026 -115.402618 -22.432752
-28.00664 -113.81913 -22.680025
-34.345981 -101.759766 -23.909666
-35.630505 -101.100716 -23.745131
-37.243481 -94.678131 -24.551521
-35.994281 -95.28862 -24.620346
-38.4738 -92.510391 -24.641853
-37.243481 -94.678131 -24.551521
-38.555021 -90.920853 -25.013794
-38.4738 -92.510391 -24.641853
-10.54917 -60.782538 -8.651457
-10.752579 -59.170053 -8.816505
-10.496343 -61.950542 -9.091902
-10.54917 -60.782538 -8.651457
-10.258977 -62.499903 -8.395213
-9.478213 -70.631046 -11.112894
-10.039049 -68.655582 -11.571473
-9.341213 -71.966744 -11.308812
-9.478213 -70.631046 -11.112894
-8.839741 -72.655323 -10.648244
-5.803935 -85.949264 -10.136812
-5.110113 -86.580978 -9.358518
-5.134026 -87.876205 -9.792385
-6.560612 -83.965103 -10.434943
-5.803935 -85.949264 -10.136812
-6.584525 -85.26033 -10.86881
-7.276272 -81.983723 -10.815571
-6.495682 -82.672657 -10.083572
-6.560612 -83.965103 -10.434943
-5.528515 -112.77935 -15.791553
-6.365522 -113.543152 -16.505523
-5.528515 -112.77935 -15.791553
-5.719931 -111.313217 -15.898601
-4.559999 -107.958336 -14.482129
-5.227534 -108.897789 -15.238485
-4.901511 -106.318184 -14.543672
-4.559999 -107.958336 -14.482129
-25.288923 -68.311996 -19.724716
-24.18981 -69.759865 -19.034881
-24.735726 -70.463448 -19.437297
-25.746992 -66.167946 -20.077278
-25.288923 -68.311996 -19.724716
-26.18741 -64.029103 -20.459716
-25.183426 -65.469571 -19.704738
-25.746992 -66.167946 -20.077278
-26.533898 -61.905459 -20.904245
-26.18741 -64.029103 -20.459716
-31.441443 -92.075829 -24.162475
-29.976701 -94.145294 -23.684683
-31.221972 -93.844918 -24.10779
-34.030911 -89.591133 -25.092188
-33.922999 -91.348145 -24.873072
-32.831909 -89.976082 -24.735594
-34.030911 -89.591133 -25.092188
-31.441443 -92.075829 -24.162475
-32.831909 -89.976082 -24.735594
-17.82207 -55.11954 -17.712803
-17.509087 -54.223795 -17.516248
-16.999865 -56.018067 -17.049341
-18.208934 -55.937658 -17.881641
-17.82207 -55.11954 -17.712803
-18.680771 -56.881332 -18.003445
-18.208934 -55.937658 -17.881641
-17.784686 -57.857485 -17.367699
-19.22728 -57.745712 -18.108732
-19.651528 -55.825886 -18.622675
-18.680771 -56.881332 -18.003445
-31.059227 -112.440781 -22.21501
-32.546149 -110.72966 -22.27142
-29.535789 -113.158546 -22.501061
-31.059227 -112.440781 -22.21501
-29.562799 -112.163208 -22.832204
-28.00664 -113.81913 -22.680025
-29.535789 -113.158546 -22.501061
-35.489962 -104.88015 -22.922297
-34.109995 -106.782105 -22.994003
-35.451062 -106.020409 -22.626692
-35.522819 -103.67553 -23.245725
-35.489962 -104.88015 -22.922297
-35.579555 -102.418976 -23.466116
-34.205631 -104.385292 -23.509999
-35.522819 -103.67553 -23.245725
-35.630505 -101.100716 -23.745131
-35.579555 -102.418976 -23.466116
-10.428305 -71.510532 -4.365446
-10.612544 -73.23695 -4.004461
-10.373624 -69.730281 -4.742257
-10.428305 -71.510532 -4.365446
-10.232713 -71.086983 -5.058255
-10.169875 -68.001205 -5.045922
-10.373624 -69.730281 -4.742257
-10.119986 -67.542884 -5.75099
-10.169875 -68.001205 -5.045922
-10.119986 -67.542884 -5.75099
-10.01481 -68.825393 -6.118291
-9.781906 -67.811706 -7.48117
-9.878075 -66.023239 -7.808759
-9.480915 -69.134556 -7.755959
-9.781906 -67.811706 -7.48117
-9.421373 -68.582699 -8.4263
-9.480915 -69.134556 -7.755959
-1.747057 -99.718437 -4.423972
-1.349518 -101.064697 -5.040204
-1.930921 -98.283203 -4.820407
-1.747057 -99.718437 -4.423972
-2.18607 -96.712875 -5.148322
-1.930921 -98.283203 -4.820407
-1.76497 -98.067749 -5.713527
-2.452402 -95.134621 -5.537636
-2.18607 -96.712875 -5.148322
-2.816568 -93.445008 -5.870642
-2.452402 -95.134621 -5.537636
-2.384285 -94.807808 -6.374447
-3.176149 -91.749161 -6.27053
-2.816568 -93.445008 -5.870642
-3.22007 -91.332443 -7.062247
-3.176149 -91.749161 -6.27053
-3.475824 -90.889397 -7.907277
-3.22007 -91.332443 -7.062247
-3.004206 -92.675148 -7.552482
-3.850083 -90.37001 -8.705801
-4.065947 -89.027305 -8.215567
-3.475824 -90.889397 -7.907277
-7.121188 -116.8479 -16.879799
-8.122897 -117.408417 -17.552208
-7.179168 -115.572632 -17.073835
-7.121188 -116.8479 -16.879799
-7.328303 -114.194008 -17.13662
-7.179168 -115.572632 -17.073835
-8.314049 -114.797722 -17.790503
-7.500403 -112.768242 -17.222191
-6.365522 -113.543152 -16.505523
-7.328303 -114.194008 -17.13662
-7.772858 -111.244484 -17.201992
-7.500403 -112.768242 -17.222191
-8.73564 -111.89534 -17.833088
-6.839755 -110.545204 -16.596782
-7.772858 -111.244484 -17.201992
-25.291981 -71.16745 -19.857048
-24.735726 -70.463448 -19.437297
-24.192867 -72.615319 -19.167213
-26.338023 -69.63861 -20.601169
-25.291981 -71.16745 -19.857048
-25.795166 -71.790481 -20.331086
-27.288217 -68.116814 -21.412639
-26.338023 -69.63861 -20.601169
-0.938245 -103.70929 -6.474463
-1.133722 -102.391625 -5.735413
-1.06389 -103.574387 -7.569755
-0.938245 -103.70929 -6.474463
-1.283535 -103.303612 -8.581816
-1.297872 -102.021156 -7.788092
-1.06389 -103.574387 -7.569755
-1.685469 -102.981735 -9.609622
-1.283535 -103.303612 -8.581816
-1.451487 -104.534965 -9.391286
-28.187321 -97.849899 -23.200966
-27.96618 -99.527817 -23.181151
-29.53609 -97.5923 -23.610181
-28.187321 -97.849899 -23.200966
-28.473407 -96.115425 -23.168663
-23.121026 -98.089767 -21.263178
-22.758673 -99.886657 -21.328472
-21.965088 -97.939194 -20.753225
-23.121026 -98.089767 -21.263178
-23.567554 -96.227753 -21.181797
-24.770332 -90.4376 -21.177433
-24.402756 -92.396614 -21.13623
-23.805352 -90.171989 -20.642851
-24.770332 -90.4376 -21.177433
-25.237175 -88.42424 -21.207231
-26.852063 -80.181374 -21.72072
-25.649242 -81.930206 -21.01029
-26.398915 -82.281364 -21.566871
-27.187023 -78.089153 -21.946155
-26.852063 -80.181374 -21.72072
-13.639319 -53.893269 -11.919246
-13.065574 -54.498255 -11.212198
-13.052878 -55.307024 -11.806758
-13.639319 -53.893269 -11.919246
-14.316333 -53.32186 -12.648861
-16.484177 -50.111072 -13.623721
-15.726529 -51.32563 -13.526831
-17.265745 -49.53006 -14.402304
-16.484177 -50.111072 -13.623721
-17.187563 -50.044786 -15.028871
-16.396552 -51.362453 -14.822568
-17.137101 -50.69766 -15.581691
-17.265745 -49.53006 -14.402304
-17.187563 -50.044786 -15.028871
-19.335817 -48.441399 -17.840561
-18.605335 -49.236607 -17.091314
-18.54595 -49.730557 -17.586439
-19.335817 -48.441399 -17.840561
-20.035319 -47.672246 -18.642767
-21.408278 -46.854153 -21.037987
-20.769924 -47.748646 -20.229056
-21.408278 -46.854153 -21.037987
-21.527217 -47.286075 -21.365969
-20.517173 -54.798361 -19.29718
-21.117207 -55.582953 -19.400778
-10.393042 -118.222374 -18.766153
-9.250132 -117.838921 -18.1523
-11.6392 -119.606979 -19.151382
-11.686795 -120.652092 -18.840555
-11.651446 -118.47174 -19.313192
-11.6392 -119.606979 -19.151382
-12.923944 -118.671325 -19.86017
-11.677786 -117.286721 -19.474941
-10.393042 -118.222374 -18.766153
-11.651446 -118.47174 -19.313192
-24.842759 -116.902885 -22.115278
-26.412026 -115.402618 -22.432752
-24.842759 -116.902885 -22.115278
-23.277991 -117.405502 -22.103088
-18.683865 -120.386711 -20.882223
-20.173608 -119.160743 -21.497217
-17.212802 -120.612229 -20.600758
-18.683865 -120.386711 -20.882223
-17.159335 -119.668289 -20.961723
-15.736481 -120.779267 -20.257599
-17.212802 -120.612229 -20.600758
-32.946923 -102.375366 -23.972271
-32.863309 -103.744339 -23.792994
-34.345981 -101.759766 -23.909666
-31.588008 -102.941162 -23.937632
-32.946923 -102.375366 -23.972271
-33.07068 -100.956589 -24.054304
-35.032132 -92.596504 -24.966341
-33.75717 -93.067902 -24.756394
-33.630019 -94.743569 -24.562174
-36.121571 -93.707245 -24.795055
-34.777691 -95.853546 -24.597412
-35.994281 -95.28862 -24.620346
-36.221868 -92.073639 -25.076801
-36.121571 -93.707245 -24.795055
-37.438459 -91.508713 -25.099735
-35.032132 -92.596504 -24.966341
-36.221868 -92.073639 -25.076801
-11.995095 -56.478222 -10.395595
-12.447943 -55.030045 -10.493019
-11.148796 -58.638806 -9.519813
-10.752579 -59.170053 -8.816505
-11.495026 -58.05172 -10.213544
-11.148796 -58.638806 -9.519813
-11.132766 -59.646091 -10.041877
-11.979064 -57.485508 -10.917658
-11.995095 -56.478222 -10.395595
-11.495026 -58.05172 -10.213544
-9.959186 -65.473633 -8.49824
-10.125039 -64.217514 -8.146178
-9.878075 -66.023239 -7.808759
-10.032278 -64.894447 -9.176823
-9.959186 -65.473633 -8.49824
-9.785315 -66.700173 -8.839404
-10.240813 -64.302952 -9.862766
-10.414684 -63.076413 -9.521603
-10.032278 -64.894447 -9.176823
-10.487015 -63.677071 -10.53812
-10.240813 -64.302952 -9.862766
-10.842977 -63.042462 -11.219175
-10.979181 -61.850307 -10.888601
-10.487015 -63.677071 -10.53812
-11.270677 -62.366236 -11.885538
-10.842977 -63.042462 -11.219175
-11.774876 -61.684773 -12.558518
-11.839342 -60.534235 -12.242636
-11.270677 -62.366236 -11.885538
-11.802698 -62.784517 -12.852536
-12.371363 -60.952517 -13.209633
-11.774876 -61.684773 -12.558518
-11.801794 -63.993568 -13.087581
-11.802698 -62.784517 -12.852536
-11.205307 -64.725824 -12.436466
-10.592044 -67.938671 -12.222487
-10.651408 -66.651787 -12.020498
-10.039049 -68.655582 -11.571473
-4.628669 -87.164215 -8.601422
-5.110113 -86.580978 -9.358518
-7.025939 -78.618652 -9.219012
-6.727794 -79.991501 -9.472134
-7.606145 -76.65297 -9.703854
-7.025939 -78.618652 -9.219012
-8.044132 -76.002911 -10.381238
-8.264754 -74.641079 -10.166778
-7.606145 -76.65297 -9.703854
-2.199151 -105.365944 -11.248627
-1.627544 -105.753875 -10.24025
-2.550748 -103.706299 -11.345437
-2.199151 -105.365944 -11.248627
-2.908105 -102.034546 -11.487122
-2.210779 -102.541336 -10.560778
-2.550748 -103.706299 -11.345437
-15.103763 -110.877243 -20.342012
-14.846114 -112.355423 -20.463052
-16.416479 -111.058853 -20.834221
-13.841522 -110.630798 -19.855066
-15.103763 -110.877243 -20.342012
-15.411888 -109.334228 -20.226234
-12.646225 -110.267601 -19.33291
-13.841522 -110.630798 -19.855066
-11.499142 -109.841888 -18.828823
-12.646225 -110.267601 -19.33291
-13.002564 -108.662071 -19.2352
-10.431788 -109.30397 -18.272001
-11.499142 -109.841888 -18.828823
-9.407435 -108.710053 -17.740137
-10.431788 -109.30397 -18.272001
-10.831127 -107.642441 -18.199249
-8.474331 -108.010773 -17.134927
-9.407435 -108.710053 -17.740137
-7.576637 -107.265571 -16.558329
-8.474331 -108.010773 -17.134927
-8.90908 -106.303322 -17.090787
-6.782108 -106.422325 -15.892526
-6.347359 -108.129776 -15.936667
-7.576637 -107.265571 -16.558329
-5.362718 -104.576912 -14.53181
-4.901511 -106.318184 -14.543672
-6.014036 -105.545258 -15.259001
-5.841333 -102.81382 -14.558316
-7.062475 -101.952988 -15.218758
-6.428565 -100.962822 -14.529936
-5.362718 -104.576912 -14.53181
-5.841333 -102.81382 -14.558316
-3.736124 -101.42463 -12.345897
-4.715799 -100.736702 -13.144753
-3.396155 -100.259667 -11.561238
-2.908105 -102.034546 -11.487122
-3.736124 -101.42463 -12.345897
-26.398881 -57.052904 -21.643946
-25.715553 -56.31234 -21.40991
-25.55285 -58.370611 -20.823505
-26.840065 -59.795683 -21.389427
-25.930011 -61.220951 -20.572359
-26.533898 -61.905459 -20.904245
-27.053079 -57.709982 -21.930424
-26.840065 -59.795683 -21.389427
-26.398881 -57.052904 -21.643946
-27.053079 -57.709982 -21.930424
-27.959871 -73.853771 -22.44323
-27.629266 -75.966049 -22.160483
-27.414105 -73.448292 -21.866596
-27.959871 -73.853771 -22.44323
-26.840773 -72.934998 -21.340273
-26.413545 -75.070713 -21.06647
-27.414105 -73.448292 -21.866596
-27.341271 -70.787109 -21.607803
-26.340711 -72.40953 -20.807676
-26.840773 -72.934998 -21.340273
-27.743454 -68.648415 -21.94191
-27.341271 -70.787109 -21.607803
-27.288217 -68.116814 -21.412639
-27.743454 -68.648415 -21.94191
3 0 54 52
3 0 56 54
3 2 60 58
3 2 62 60
3 1 223 225
3 225 224 63
3 223 224 225
3 3 67 65
3 3 69 67
3 3 71 69
3 4 226 228
3 228 227 72
3 226 227 228
3 6 76 74
3 229 79 230
3 231 230 77
3 229 230 231
3 232 81 233
3 234 233 79
3 232 233 234
3 236 235 81
3 7 84 83
3 7 85 84
3 237 87 238
3 8 90 88
3 8 92 90
3 8 94 92
3 239 97 240
3 241 99 242
3 9 101 100
3 9 103 101
3 244 243 104
3 245 105 246
3 5 108 106
3 10 111 109
3 10 113 111
3 10 115 113
3 11 118 116
3 11 120 118
3 11 122 120
3 247 126 248
3 249 248 124
3 247 248 249
3 12 129 127
3 14 130 53
3 14 131 130
3 14 132 131
3 16 133 55
3 16 134 133
3 17 250 252
3 250 135 251
3 250 251 252
3 17 136 135
3 17 138 136
3 253 139 254
3 255 254 57
3 253 254 255
3 257 256 139
3 19 258 260
3 258 141 259
3 258 259 260
3 20 142 59
3 20 143 142
3 20 144 143
3 22 145 61
3 22 146 145
3 23 261 263
3 261 147 262
3 261 262 263
3 264 148 265
3 266 265 64
3 264 265 266
3 268 267 148
3 24 151 149
3 26 152 66
3 26 153 152
3 26 155 153
3 28 156 68
3 28 157 156
3 28 159 157
3 30 160 70
3 30 161 160
3 269 162 270
3 31 165 163
3 271 166 272
3 273 272 73
3 271 272 273
3 274 167 275
3 276 275 166
3 274 275 276
3 278 277 125
3 279 168 280
3 281 169 282
3 283 282 168
3 281 282 283
3 284 170 285
3 286 171 287
3 288 287 170
3 286 287 288
3 290 289 171
3 33 291 292
3 34 293 295
3 295 294 75
3 293 294 295
3 34 296 298
3 296 173 297
3 296 297 298
3 13 174 128
3 35 175 78
3 35 299 301
3 301 300 175
3 299 300 301
3 35 302 303
3 305 304 80
3 307 306 82
3 15 308 309
3 36 176 86
3 36 177 176
3 37 310 312
3 312 311 89
3 310 311 312
3 37 313 315
3 313 178 314
3 313 314 315
3 37 179 178
3 38 180 91
3 38 181 180
3 38 182 181
3 39 183 93
3 39 184 183
3 18 185 137
3 316 186 317
3 318 187 319
3 320 319 186
3 318 319 320
3 321 188 322
3 323 322 187
3 321 322 323
3 326 325 95
3 324 325 326
3 40 189 96
3 40 190 189
3 328 327 140
3 329 191 330
3 41 192 98
3 41 193 192
3 21 331 332
3 42 333 334
3 42 335 337
3 335 194 336
3 335 336 337
3 42 195 194
3 43 196 102
3 43 197 196
3 32 198 164
3 44 199 107
3 44 200 199
3 25 201 150
3 45 202 110
3 45 203 202
3 45 204 203
3 46 338 340
3 340 339 112
3 338 339 340
3 46 341 343
3 341 205 342
3 341 342 343
3 46 206 205
3 47 207 114
3 47 208 207
3 27 209 154
3 48 210 117
3 48 211 210
3 48 212 211
3 49 213 119
3 49 214 213
3 49 215 214
3 50 216 121
3 50 217 216
3 29 218 158
3 51 219 123
3 51 220 219
3 51 221 220
3 344 222 345
3 346 345 172
3 344 345 346
3 52 53 12
3 54 53 52
3 54 14 53
3 54 55 14
3 56 55 54
3 56 16 55
3 347 17 348
3 350 349 17
3 351 57 352
3 353 57 354
3 356 355 57
3 58 59 19
3 60 59 58
3 60 20 59
3 60 61 20
3 62 61 60
3 62 22 61
3 63 64 23
3 357 64 358
3 359 358 63
3 357 358 359
3 361 360 64
3 65 66 24
3 67 66 65
3 67 26 66
3 67 68 26
3 69 68 67
3 69 28 68
3 69 70 28
3 71 70 69
3 71 30 70
3 72 73 31
3 362 73 363
3 364 363 72
3 362 363 364
3 366 365 73
3 74 75 33
3 76 75 74
3 76 34 75
3 77 78 13
3 79 78 77
3 79 35 78
3 79 80 35
3 81 80 79
3 81 367 369
3 369 368 80
3 367 368 369
3 81 370 372
3 370 82 371
3 370 371 372
3 373 82 374
3 375 374 81
3 373 374 375
3 377 376 82
3 83 378 380
3 380 379 15
3 378 379 380
3 84 381 383
3 383 382 83
3 381 382 383
3 84 384 385
3 84 386 387
3 85 388 390
3 390 389 84
3 388 389 390
3 85 391 392
3 393 86 394
3 87 395 397
3 395 86 396
3 395 396 397
3 87 36 86
3 88 398 400
3 398 89 399
3 398 399 400
3 90 89 88
3 90 37 89
3 90 91 37
3 92 91 90
3 92 38 91
3 92 93 38
3 94 93 92
3 94 39 93
3 402 401 18
3 403 95 404
3 405 95 406
3 408 407 95
3 409 96 410
3 97 411 413
3 411 96 412
3 411 412 413
3 97 40 96
3 414 98 415
3 99 416 418
3 416 98 417
3 416 417 418
3 99 41 98
3 100 419 421
3 421 420 21
3 419 420 421
3 101 422 424
3 424 423 100
3 422 423 424
3 101 425 427
3 425 42 426
3 425 426 427
3 101 102 42
3 103 102 101
3 103 43 102
3 104 428 429
3 431 430 104
3 105 432 433
3 105 434 435
3 106 107 32
3 108 107 106
3 108 44 107
3 109 110 25
3 111 110 109
3 111 45 110
3 111 112 45
3 113 112 111
3 113 46 112
3 113 114 46
3 115 114 113
3 115 47 114
3 116 117 27
3 118 117 116
3 118 48 117
3 118 119 48
3 120 119 118
3 120 49 119
3 120 121 49
3 122 121 120
3 122 50 121
3 436 123 437
3 438 437 29
3 436 437 438
3 439 123 440
3 441 51 442
3 443 442 123
3 441 442 443
3 445 444 51
3 124 125 4
3 126 125 124
3 126 446 448
3 448 447 125
3 446 447 448
3 449 126 450
3 451 126 452
3 454 453 126
3 127 128 6
3 129 128 127
3 129 13 128
3 53 129 12
3 130 129 53
3 130 13 129
3 130 77 13
3 131 77 130
3 131 455 457
3 457 456 77
3 455 456 457
3 131 458 459
3 132 460 462
3 462 461 131
3 460 461 462
3 132 463 465
3 463 15 464
3 463 464 465
3 55 132 14
3 133 132 55
3 133 15 132
3 133 83 15
3 134 83 133
3 134 7 83
3 135 466 467
3 135 468 469
3 135 470 472
3 470 88 471
3 470 471 472
3 136 88 135
3 136 8 88
3 136 137 8
3 138 137 136
3 138 18 137
3 473 138 474
3 475 474 17
3 473 474 475
3 476 138 477
3 478 18 479
3 480 479 138
3 478 479 480
3 482 481 18
3 57 483 484
3 139 485 487
3 487 486 57
3 485 486 487
3 139 488 489
3 139 490 491
3 493 492 139
3 494 140 495
3 496 140 497
3 499 498 140
3 141 500 501
3 141 502 503
3 59 141 19
3 142 141 59
3 142 504 506
3 506 505 141
3 504 505 506
3 142 507 508
3 143 509 511
3 511 510 142
3 509 510 511
3 143 512 513
3 143 514 515
3 144 516 518
3 518 517 143
3 516 517 518
3 144 519 521
3 519 21 520
3 519 520 521
3 61 144 20
3 145 144 61
3 145 21 144
3 145 100 21
3 146 100 145
3 146 9 100
3 147 522 523
3 147 524 525
3 64 147 23
3 148 147 64
3 148 526 528
3 528 527 147
3 526 527 528
3 148 529 531
3 529 104 530
3 529 530 531
3 532 104 533
3 534 533 148
3 532 533 534
3 536 535 104
3 149 150 5
3 151 150 149
3 151 25 150
3 66 151 24
3 152 151 66
3 152 25 151
3 152 109 25
3 153 109 152
3 153 10 109
3 153 154 10
3 155 154 153
3 155 27 154
3 68 155 26
3 156 155 68
3 156 27 155
3 156 116 27
3 157 116 156
3 157 11 116
3 157 158 11
3 159 158 157
3 159 29 158
3 70 159 28
3 160 159 70
3 160 29 159
3 160 537 539
3 539 538 29
3 537 538 539
3 161 540 542
3 542 541 160
3 540 541 542
3 161 543 544
3 545 19 546
3 547 19 548
3 549 58 550
3 551 550 19
3 549 550 551
3 162 552 554
3 552 58 553
3 552 553 554
3 162 2 58
3 163 164 1
3 165 164 163
3 165 32 164
3 73 165 31
3 166 165 73
3 166 32 165
3 166 106 32
3 167 106 166
3 167 5 106
3 125 555 557
3 557 556 4
3 555 556 557
3 559 558 125
3 560 167 561
3 168 562 564
3 562 167 563
3 562 563 564
3 168 5 167
3 168 149 5
3 169 149 168
3 169 24 149
3 565 169 566
3 170 567 569
3 567 169 568
3 567 568 569
3 170 24 169
3 170 65 24
3 171 65 170
3 171 3 65
3 171 172 3
3 570 172 571
3 572 571 171
3 570 571 572
3 574 573 172
3 75 575 577
3 577 576 33
3 575 576 577
3 579 578 75
3 173 580 581
3 173 582 583
3 128 76 6
3 174 76 128
3 174 34 76
3 78 174 13
3 175 174 78
3 175 34 174
3 175 173 34
3 584 173 585
3 586 585 175
3 584 585 586
3 588 587 173
3 80 589 591
3 591 590 35
3 589 590 591
3 593 592 80
3 82 594 595
3 597 596 82
3 599 598 15
3 600 23 601
3 86 602 603
3 176 604 606
3 606 605 86
3 604 605 606
3 176 607 609
3 607 23 608
3 607 608 609
3 176 63 23
3 177 63 176
3 177 1 63
3 89 610 611
3 613 612 89
3 178 614 615
3 178 616 617
3 178 618 620
3 618 87 619
3 618 619 620
3 179 87 178
3 179 36 87
3 91 179 37
3 180 179 91
3 180 36 179
3 180 177 36
3 181 177 180
3 181 1 177
3 181 163 1
3 182 163 181
3 182 31 163
3 93 182 38
3 183 182 93
3 183 31 182
3 183 72 31
3 184 72 183
3 184 4 72
3 137 94 8
3 185 94 137
3 185 39 94
3 621 185 622
3 623 622 18
3 621 622 623
3 186 624 626
3 624 185 625
3 624 625 626
3 186 39 185
3 186 184 39
3 187 184 186
3 187 4 184
3 187 124 4
3 188 124 187
3 188 627 629
3 629 628 124
3 627 628 629
3 95 630 632
3 630 188 631
3 630 631 632
3 633 188 634
3 635 634 95
3 633 634 635
3 637 636 188
3 638 33 639
3 96 640 641
3 189 642 644
3 644 643 96
3 642 643 644
3 189 645 647
3 645 33 646
3 645 646 647
3 189 74 33
3 190 74 189
3 190 6 74
3 140 648 650
3 648 97 649
3 648 649 650
3 651 97 652
3 653 652 140
3 651 652 653
3 654 40 655
3 656 655 97
3 654 655 656
3 657 40 658
3 659 190 660
3 661 660 40
3 659 660 661
3 662 190 663
3 664 6 665
3 666 665 190
3 664 665 666
3 667 127 668
3 669 668 6
3 667 668 669
3 191 670 672
3 670 127 671
3 670 671 672
3 191 12 127
3 98 673 675
3 673 191 674
3 673 674 675
3 192 191 98
3 192 12 191
3 192 52 12
3 193 52 192
3 193 0 52
3 677 676 21
3 194 678 679
3 194 680 681
3 194 682 684
3 682 99 683
3 682 683 684
3 195 99 194
3 195 41 99
3 102 195 42
3 196 195 102
3 196 41 195
3 196 193 41
3 197 193 196
3 197 0 193
3 685 162 686
3 687 162 688
3 689 2 690
3 691 690 162
3 689 690 691
3 164 692 694
3 694 693 1
3 692 693 694
3 198 695 697
3 697 696 164
3 695 696 697
3 198 698 699
3 107 198 32
3 199 198 107
3 199 700 702
3 702 701 198
3 700 701 702
3 199 703 704
3 200 705 707
3 707 706 199
3 705 706 707
3 200 708 709
3 150 108 5
3 201 108 150
3 201 44 108
3 110 201 25
3 202 201 110
3 202 44 201
3 202 200 44
3 203 200 202
3 203 710 712
3 712 711 200
3 710 711 712
3 203 713 715
3 713 105 714
3 713 714 715
3 204 105 203
3 204 716 718
3 718 717 105
3 716 717 718
3 112 204 45
3 719 204 720
3 721 720 112
3 719 720 721
3 723 722 204
3 205 724 725
3 205 726 728
3 726 2 727
3 726 727 728
3 205 62 2
3 206 62 205
3 206 22 62
3 114 206 46
3 207 206 114
3 207 22 206
3 207 146 22
3 208 146 207
3 208 9 146
3 154 115 10
3 209 115 154
3 209 47 115
3 117 209 27
3 210 209 117
3 210 47 209
3 210 208 47
3 211 208 210
3 211 9 208
3 211 103 9
3 212 103 211
3 212 43 103
3 119 212 48
3 213 212 119
3 213 43 212
3 213 197 43
3 214 197 213
3 214 0 197
3 214 56 0
3 215 56 214
3 215 16 56
3 121 215 49
3 216 215 121
3 216 16 215
3 216 134 16
3 217 134 216
3 217 7 134
3 158 122 11
3 218 122 158
3 218 50 122
3 123 218 29
3 219 218 123
3 219 50 218
3 219 217 50
3 220 217 219
3 220 7 217
3 220 85 7
3 221 85 220
3 221 729 731
3 731 730 85
3 729 730 731
3 732 221 733
3 734 733 51
3 732 733 734
3 735 221 736
3 738 737 221
3 172 71 3
3 222 71 172
3 222 30 71
3 739 222 740
3 741 222 742
3 743 30 744
3 745 744 222
3 743 744 745
3 746 161 747
3 748 747 30
3 746 747 748
3 749 161 750
3 752 751 161
