ply
format ascii 1.0
element vertex 316
property float x
property float y
property float z
element face 309
property list uchar int vertex_index
end_header
2.329779 81.102547 -20.01346
10.181911 84.713005 -20.462393
-1.974077 54.290039 -22.332415
0.62604 69.647438 -16.600058
-0.354288 67.907143 -27.704775
4.359369 85.723862 -15.037514
2.389862 81.784668 -13.838078
1.777695 76.087173 -12.251261
1.061155 75.97847 -18.566946
-0.13155 69.136848 -22.504393
0.823519 75.040977 -24.304525
8.220436 87.170906 -15.584801
5.283703 84.121857 -20.717611
3.059479 79.236282 -25.245634
-2.917078 45.236748 -23.594309
-2.136072 52.867111 -27.261957
1.521601 69.690842 -10.332071
0.027876 63.014549 -14.09413
-0.693697 62.391083 -20.006182
-1.246965 61.434555 -25.449194
3.266441 83.620285 -17.597952
3.155724 84.03569 -14.500984
2.285103 81.573143 -17.010775
1.696384 79.030411 -16.287409
1.528246 78.754982 -19.364958
0.854513 75.633018 -21.536043
1.524912 78.225441 -22.257833
10.82955 86.961922 -15.550562
9.095245 86.092499 -18.192392
6.666056 85.896584 -18.215521
7.503386 84.70784 -20.712442
6.083651 82.827728 -23.093061
8.560108 83.179199 -22.847372
-2.466597 50.643791 -20.489424
-3.007318 46.120621 -21.115263
-2.504343 49.888649 -23.087442
-2.505037 49.094978 -25.520399
-2.096254 53.618279 -24.895773
1.226915 72.97419 -14.530783
1.671864 72.916611 -11.342014
1.077841 69.719994 -13.499788
0.822411 66.45089 -12.339199
0.400034 66.326859 -15.424587
-0.335938 62.735641 -17.094378
-0.021202 66.119713 -18.432318
-0.336006 68.633591 -25.222879
-0.704277 65.390457 -24.111429
-0.868271 64.800583 -26.690733
-1.345919 60.754333 -27.880297
-0.844582 64.003342 -29.012159
2.19075 76.23777 -27.222509
4.167082 86.087509 -11.861628
3.17457 84.188927 -11.24696
2.583572 81.767929 -10.548693
1.971336 79.08873 -13.082232
1.388035 76.118813 -15.456974
0.804859 72.900452 -17.643469
0.206802 69.461914 -19.613131
0.4569 72.671066 -20.648245
0.238018 72.249535 -23.497057
0.201633 71.591705 -26.128099
-2.913393 39.319237 -26.027655
-2.871218 34.090191 -26.002825
9.189787 88.653801 -9.880892
9.917555 87.930428 -12.844931
7.549059 87.971397 -12.693123
6.047853 86.774918 -15.409401
4.716311 85.076813 -18.010965
3.562578 82.914009 -20.47637
2.576153 80.336472 -22.781008
4.08399 81.883759 -23.068884
-3.189695 40.331188 -23.891062
-2.784983 44.327553 -25.885309
-2.420748 48.237213 -27.730474
1.218561 66.48764 -9.187387
0.375572 63.223938 -11.017952
-0.550261 59.749519 -12.585344
-0.814926 59.368828 -15.583076
-1.089947 58.935516 -18.495291
-1.357798 58.45253 -21.307726
-0.404577 65.816994 -21.340498
-1.012171 61.967117 -22.804972
-1.587427 57.904907 -23.992167
-1.734461 57.263351 -26.502241
1.735237 77.400085 -24.89908
1.014322 74.157684 -26.804968
0.392078 70.652283 -28.474081
9.638578 85.402752 -19.327393
10.519352 85.914139 -18.06992
11.062685 85.224392 -19.20492
4.263225 85.905686 -13.449571
4.893877 86.725807 -12.108923
4.99002 86.543983 -13.696866
-2.722227 38.800517 -26.956537
-2.736929 41.345498 -26.976674
10.449987 88.420014 -9.946468
10.056461 88.742905 -8.43447
5.46568 81.661205 -24.203243
6.596303 81.995384 -24.090503
-3.164831 43.285028 -22.56752
-3.209951 43.726965 -21.327997
-2.962198 45.678685 -22.354786
-3.053387 42.783968 -23.742686
-3.301139 40.832248 -22.715896
-3.164831 43.285028 -22.56752
-2.087606 52.435276 -28.312509
-2.229945 50.120327 -28.546768
-2.27841 50.552162 -27.496215
1.977183 75.996216 -10.615008
2.035636 77.522942 -11.021197
1.808756 71.214405 -9.213494
1.883888 72.82729 -9.718466
1.596732 71.303727 -10.837042
1.723539 69.623497 -8.719537
1.808756 71.214405 -9.213494
1.370081 68.089241 -9.759729
1.572018 68.021896 -8.147194
1.723539 69.623497 -8.719537
-1.545866 58.622612 -28.327455
-1.301386 60.319786 -28.954735
1.235032 73.549839 -27.889427
1.602536 75.197727 -27.013738
1.823246 74.589882 -28.098197
0.92391 71.797138 -28.723984
0.7032 72.404984 -27.639525
1.235032 73.549839 -27.889427
-2.754395 31.386429 -25.941161
-2.590496 33.543613 -26.835196
11.386505 86.34885 -16.749004
12.313975 86.604657 -15.432265
9.962397 86.52721 -16.871477
11.386505 86.34885 -16.749004
10.519352 85.914139 -18.06992
7.834531 82.17112 -23.967659
6.596303 81.995384 -24.090503
7.321879 83.003463 -22.970216
-2.736957 48.382206 -20.802343
-3.049383 46.557213 -19.80405
-2.779022 48.818798 -19.491131
-1.050717 61.944291 -29.520666
-1.301386 60.319786 -28.954735
-1.095251 62.378838 -28.446228
2.991134 77.002167 -27.285992
2.625115 77.737026 -26.234071
3.425498 78.501423 -26.297554
2.545241 75.471183 -28.199047
2.991134 77.002167 -27.285992
3.345625 76.23558 -28.262529
1.823246 74.589882 -28.098197
2.545241 75.471183 -28.199047
11.713919 84.46698 -20.227936
11.062685 85.224392 -19.20492
10.820257 83.855755 -21.408779
11.713919 84.46698 -20.227936
-2.445393 51.010033 -19.127167
-2.779022 48.818798 -19.491131
-2.140912 52.777187 -20.056681
-2.445393 51.010033 -19.127167
-1.894652 54.600311 -20.978177
-2.220337 52.466915 -21.410919
-2.140912 52.777187 -20.056681
4.750617 86.882889 -10.488511
4.893877 86.725807 -12.108923
4.123945 86.137264 -10.200499
4.750617 86.882889 -10.488511
3.627689 85.187973 -9.893165
4.123945 86.137264 -10.200499
3.670826 85.138218 -11.554294
3.217809 84.146214 -9.565622
3.627689 85.187973 -9.893165
2.922311 82.935714 -9.216489
3.217809 84.146214 -9.565622
2.879071 82.978428 -10.897827
2.69484 81.65731 -8.864455
2.922311 82.935714 -9.216489
2.438575 80.363319 -10.169913
2.69484 81.65731 -8.864455
2.132456 79.02372 -11.436683
2.438575 80.363319 -10.169913
2.277454 80.428329 -11.815462
1.874516 77.587952 -12.666746
2.035636 77.522942 -11.021197
2.132456 79.02372 -11.436683
-2.892305 36.704714 -26.01524
-3.088879 34.636781 -25.017595
-3.109967 37.251305 -25.03001
-2.70114 36.185993 -26.944122
-2.892305 36.704714 -26.01524
-2.722227 38.800517 -26.956537
-2.590496 33.543613 -26.835196
-2.70114 36.185993 -26.944122
8.896753 88.891121 -8.294771
10.056461 88.742905 -8.43447
8.117407 88.578957 -9.727688
8.896753 88.891121 -8.294771
11.744677 87.143051 -14.176375
12.313975 86.604657 -15.432265
11.28868 87.627305 -12.82356
11.744677 87.143051 -14.176375
10.373552 87.446175 -14.197747
10.813871 88.058327 -11.428488
11.28868 87.627305 -12.82356
9.553671 88.292114 -11.362911
10.449987 88.420014 -9.946468
10.813871 88.058327 -11.428488
7.297043 88.237754 -11.133803
8.117407 88.578957 -9.727688
8.369423 88.312599 -11.287007
6.584865 87.667751 -12.52467
7.297043 88.237754 -11.133803
5.834262 87.069512 -13.88281
6.584865 87.667751 -12.52467
6.798456 87.373157 -14.051262
5.203611 86.24939 -15.223458
4.99002 86.543983 -13.696866
5.834262 87.069512 -13.88281
4.465849 81.189221 -24.191154
5.08382 82.355743 -23.080973
5.46568 81.661205 -24.203243
3.953594 79.865482 -25.279529
3.571734 80.560021 -24.157259
4.465849 81.189221 -24.191154
4.319612 79.130623 -26.331449
3.425498 78.501423 -26.297554
3.953594 79.865482 -25.279529
10.009355 83.088852 -22.601268
9.371009 83.946102 -21.654882
10.820257 83.855755 -21.408779
9.184012 82.228943 -23.716755
10.009355 83.088852 -22.601268
7.834531 82.17112 -23.967659
9.184012 82.228943 -23.716755
-3.314741 44.22909 -20.071157
-3.049383 46.557213 -19.80405
-3.314741 44.22909 -20.071157
-3.209951 43.726965 -21.327997
-3.429136 38.308704 -22.85578
-3.301139 40.832248 -22.715896
-3.248118 37.75728 -23.961714
-3.429136 38.308704 -22.85578
-3.051544 39.825212 -24.959359
-3.109967 37.251305 -25.03001
-3.248118 37.75728 -23.961714
-2.672724 43.849655 -26.905501
-2.736929 41.345498 -26.976674
-2.849188 41.823395 -25.956482
-2.490607 45.804485 -27.828083
-2.672724 43.849655 -26.905501
-2.602866 46.282383 -26.807892
-2.308295 47.762569 -28.688524
-2.490607 45.804485 -27.828083
-2.308295 47.762569 -28.688524
-2.229945 50.120327 -28.546768
1.924268 74.410934 -10.160384
1.977183 75.996216 -10.615008
1.724779 74.501892 -11.796637
1.924268 74.410934 -10.160384
1.883888 72.82729 -9.718466
1.394037 66.453213 -7.581583
1.572018 68.021896 -8.147194
0.956257 64.915786 -8.530111
1.394037 66.453213 -7.581583
0.534763 63.283935 -9.445393
0.956257 64.915786 -8.530111
0.797067 64.855789 -10.102669
0.036391 61.640575 -10.263689
0.534763 63.283935 -9.445393
-0.426526 59.903366 -11.047385
0.036391 61.640575 -10.263689
-0.087344 61.486728 -11.801648
-0.949099 58.142467 -11.734708
-0.426526 59.903366 -11.047385
-1.022242 57.896743 -13.236317
-0.949099 58.142467 -11.734708
-1.154575 57.706398 -14.735183
-1.022242 57.896743 -13.236317
-0.682594 59.559173 -14.08421
-1.232665 57.432282 -16.193161
-1.154575 57.706398 -14.735183
-1.370175 57.215626 -17.649269
-1.232665 57.432282 -16.193161
-0.952437 59.152172 -17.039184
-1.452587 56.92305 -19.059615
-1.370175 57.215626 -17.649269
-1.586512 56.681556 -20.465832
-1.452587 56.92305 -19.059615
-1.223873 58.694023 -19.901508
-1.665938 56.371285 -21.82007
-1.894652 54.600311 -20.978177
-1.586512 56.681556 -20.465832
-1.740137 56.877121 -27.638427
-1.54019 59.008842 -27.191269
-1.545866 58.622612 -28.327455
-1.940943 54.679001 -28.018285
-1.935267 55.065231 -26.882099
-1.740137 56.877121 -27.638427
-2.087606 52.435276 -28.312509
-1.940943 54.679001 -28.018285
0.614142 70.02216 -29.474297
0.92391 71.797138 -28.723984
0.124486 68.782925 -29.178469
0.614142 70.02216 -29.474297
-0.248697 67.410355 -28.793816
0.018895 69.279713 -28.089428
0.124486 68.782925 -29.178469
-0.493844 65.458455 -29.447508
-0.599435 65.955242 -28.358467
-0.248697 67.410355 -28.793816
-0.717572 63.480652 -30.010236
-0.493844 65.458455 -29.447508
-1.050717 61.944291 -29.520666
-0.717572 63.480652 -30.010236
-3.062082 31.957733 -25.044037
-3.088879 34.636781 -25.017595
-3.062082 31.957733 -25.044037
-2.754395 31.386429 -25.941161
3 0 22 20
3 0 24 22
3 0 26 24
3 1 87 89
3 87 28 88
3 87 88 89
3 1 30 28
3 1 32 30
3 2 35 33
3 2 37 35
3 3 40 38
3 3 42 40
3 3 44 42
3 4 47 45
3 4 49 47
3 5 90 92
3 90 51 91
3 90 91 92
3 6 52 21
3 6 53 52
3 6 54 53
3 8 55 23
3 8 56 55
3 8 58 56
3 10 59 25
3 10 60 59
3 94 93 61
3 95 63 96
3 11 64 27
3 11 65 64
3 11 66 65
3 12 67 29
3 12 68 67
3 12 70 68
3 98 97 31
3 14 99 101
3 101 100 34
3 99 100 101
3 14 102 104
3 102 71 103
3 102 103 104
3 14 72 71
3 15 73 36
3 15 105 107
3 107 106 73
3 105 106 107
3 7 108 109
3 16 110 112
3 112 111 39
3 110 111 112
3 16 113 114
3 16 115 117
3 115 74 116
3 115 116 117
3 17 75 41
3 17 76 75
3 17 77 76
3 18 78 43
3 18 79 78
3 9 80 57
3 19 81 46
3 19 82 81
3 19 83 82
3 119 118 48
3 13 84 69
3 120 85 121
3 122 121 50
3 120 121 122
3 123 86 124
3 125 124 85
3 123 124 125
3 127 126 62
3 20 21 5
3 22 21 20
3 22 6 21
3 22 23 6
3 24 23 22
3 24 8 23
3 24 25 8
3 26 25 24
3 26 10 25
3 128 27 129
3 28 130 132
3 130 27 131
3 130 131 132
3 28 11 27
3 28 29 11
3 30 29 28
3 30 12 29
3 30 31 12
3 32 31 30
3 32 133 135
3 135 134 31
3 133 134 135
3 33 136 138
3 136 34 137
3 136 137 138
3 35 34 33
3 35 14 34
3 35 36 14
3 37 36 35
3 37 15 36
3 38 39 7
3 40 39 38
3 40 16 39
3 40 41 16
3 42 41 40
3 42 17 41
3 42 43 17
3 44 43 42
3 44 18 43
3 45 46 9
3 47 46 45
3 47 19 46
3 47 48 19
3 49 48 47
3 49 139 141
3 141 140 48
3 139 140 141
3 142 50 143
3 144 143 13
3 142 143 144
3 145 50 146
3 145 146 147
3 149 148 50
3 150 1 151
3 153 152 1
3 154 33 155
3 156 33 157
3 158 2 159
3 160 159 33
3 158 159 160
3 51 161 162
3 51 163 164
3 21 51 5
3 52 51 21
3 52 165 167
3 167 166 51
3 165 166 167
3 52 168 169
3 53 170 172
3 172 171 52
3 170 171 172
3 53 173 174
3 53 175 176
3 54 177 179
3 179 178 53
3 177 178 179
3 54 180 182
3 180 7 181
3 180 181 182
3 23 54 6
3 55 54 23
3 55 7 54
3 55 38 7
3 56 38 55
3 56 3 38
3 56 57 3
3 58 57 56
3 58 9 57
3 25 58 8
3 59 58 25
3 59 9 58
3 59 45 9
3 60 45 59
3 60 4 45
3 61 183 185
3 183 62 184
3 183 184 185
3 186 62 187
3 188 187 61
3 186 187 188
3 190 189 62
3 63 191 192
3 63 193 194
3 27 195 196
3 64 197 199
3 199 198 27
3 197 198 199
3 64 200 201
3 64 202 204
3 202 63 203
3 202 203 204
3 65 63 64
3 65 205 207
3 207 206 63
3 205 206 207
3 65 208 209
3 66 210 212
3 212 211 65
3 210 211 212
3 66 213 215
3 213 5 214
3 213 214 215
3 29 66 11
3 67 66 29
3 67 5 66
3 67 20 5
3 68 20 67
3 68 0 20
3 68 69 0
3 70 69 68
3 70 13 69
3 31 70 12
3 216 70 217
3 218 217 31
3 216 217 218
3 219 13 220
3 221 220 70
3 219 220 221
3 224 223 13
3 222 223 224
3 225 32 226
3 227 226 1
3 225 226 227
3 228 32 229
3 231 230 32
3 34 232 233
3 235 234 34
3 71 236 237
3 71 238 239
3 71 240 242
3 240 61 241
3 240 241 242
3 72 61 71
3 72 243 245
3 245 244 61
3 243 244 245
3 36 72 14
3 73 72 36
3 73 246 248
3 248 247 72
3 246 247 248
3 73 249 250
3 252 251 73
3 39 253 255
3 255 254 7
3 253 254 255
3 257 256 39
3 74 258 259
3 74 260 261
3 41 74 16
3 75 74 41
3 75 262 264
3 264 263 74
3 262 263 264
3 75 265 266
3 76 267 269
3 269 268 75
3 267 268 269
3 76 270 271
3 76 272 273
3 77 274 276
3 276 275 76
3 274 275 276
3 77 277 278
3 43 77 17
3 78 77 43
3 78 279 281
3 281 280 77
3 279 280 281
3 78 282 283
3 79 284 286
3 286 285 78
3 284 285 286
3 79 287 289
3 287 2 288
3 287 288 289
3 57 44 3
3 80 44 57
3 80 18 44
3 46 80 9
3 81 80 46
3 81 18 80
3 81 79 18
3 82 79 81
3 82 2 79
3 82 37 2
3 83 37 82
3 83 15 37
3 48 83 19
3 290 83 291
3 292 291 48
3 290 291 292
3 293 15 294
3 295 294 83
3 293 294 295
3 297 296 15
3 69 26 0
3 84 26 69
3 84 10 26
3 50 84 13
3 85 84 50
3 85 10 84
3 85 60 10
3 86 60 85
3 86 4 60
3 298 86 299
3 300 86 301
3 302 4 303
3 304 303 86
3 302 303 304
3 305 49 306
3 307 306 4
3 305 306 307
3 308 49 309
3 311 310 49
3 62 312 313
3 315 314 62
