ply
format ascii 1.0
element vertex 403
property float x
property float y
property float z
element face 364
property list uchar int vertex_index
end_header
-39.227745 -104.517731 -20.471245
-54.715004 -74.522293 -20.293007
-52.84655 -83.425293 -13.322186
-39.472492 -94.853226 -23.750153
-47.610806 -77.6539 -24.318581
-48.015984 -63.967682 -30.39204
-33.90892 -111.722214 -20.811638
-27.97963 -114.814468 -22.348881
-39.325001 -100.139297 -22.292507
-53.947174 -79.346909 -16.732754
-50.679985 -81.398247 -19.075371
-47.291183 -83.672485 -21.511875
-51.128731 -75.976105 -22.274342
-21.782608 -120.463547 -20.681019
-34.650402 -97.434921 -24.422703
-39.771881 -88.699387 -25.209599
-43.570206 -91.882935 -21.696682
-43.75388 -86.169388 -23.794907
-44.033661 -79.662048 -26.066391
-55.274654 -68.886276 -24.130878
-51.555832 -69.783859 -25.767029
-47.922935 -70.975952 -27.338482
-36.69223 -108.225204 -20.749702
-34.000351 -109.956696 -21.889599
-36.773708 -106.294418 -21.756489
-36.831028 -104.118454 -22.554985
-39.286163 -102.4431 -21.455284
-54.363419 -77.036385 -18.480682
-52.338844 -80.351471 -17.900181
-52.645798 -77.898155 -19.552074
-50.905258 -78.792053 -20.635921
-52.921951 -75.236176 -21.277493
-21.89794 -121.766312 -19.257366
-24.870895 -119.322647 -20.521858
-36.998642 -99.072693 -23.759872
-34.429596 -100.390793 -24.088943
-37.1488 -96.213943 -24.285053
-39.60944 -91.878464 -24.465717
-52.152725 -85.247513 -11.586397
-47.439331 -80.762245 -22.881458
-45.556087 -84.900833 -22.711308
-45.696404 -81.853531 -23.96452
-43.895016 -83.001541 -24.909496
-45.852413 -78.620193 -25.272873
-55.483002 -65.796738 -26.131664
-53.405743 -69.320343 -24.95237
-49.942848 -63.450508 -29.94405
-49.869881 -66.919418 -28.261997
-48.006302 -67.492165 -28.873825
-46.08091 -71.749718 -27.989323
-30.951498 -114.956879 -20.576096
-27.947203 -116.514816 -21.34351
-31.026506 -113.378937 -21.776779
-36.896744 -101.709213 -23.201843
-39.379051 -97.608826 -23.039459
-53.446156 -81.468414 -15.02496
-51.549416 -84.678452 -14.716908
-51.980835 -82.604782 -16.300243
-50.43755 -83.795654 -17.575947
-48.994518 -82.502991 -20.282757
-49.168167 -79.741943 -21.751926
-49.359192 -76.774651 -23.296913
-33.780952 -113.187698 -19.441238
-36.561699 -109.890549 -19.497646
-39.117401 -106.354782 -19.29438
-19.104805 -123.817093 -17.518291
-24.841095 -117.815002 -21.713932
-21.711559 -118.820236 -21.689552
-41.403378 -102.639954 -18.919464
-43.427467 -98.814316 -18.464962
-41.487617 -100.659058 -20.062416
-41.525909 -98.459702 -21.066402
-41.555149 -96.039764 -21.981678
-41.608982 -93.395737 -22.860226
-43.641117 -89.135513 -22.727627
-41.705147 -90.528519 -23.744316
-41.838745 -87.448486 -24.659527
-41.984032 -84.177872 -25.613697
-42.103577 -80.750168 -26.601097
-56.834602 -71.215263 -21.244831
-57.130463 -68.429817 -23.271229
-55.017147 -71.802162 -22.178589
-53.176506 -72.370636 -23.081158
-51.350151 -72.964233 -23.989826
-49.555695 -73.623817 -24.911022
-49.734367 -70.324631 -26.574833
-47.782143 -74.378143 -25.811497
-45.991653 -75.237541 -26.621605
-44.132774 -76.191071 -27.250572
-26.396262 -118.603844 -20.246305
-24.898702 -119.896682 -19.729685
-51.939718 -85.012764 -13.215296
-51.592806 -85.923874 -12.347402
-52.499637 -84.336403 -12.454292
-55.55831 -64.180633 -27.144064
-56.499901 -64.059678 -26.784239
-54.540138 -65.956101 -26.500628
-55.55831 -64.180633 -27.144064
-47.056208 -66.084396 -29.872879
-47.051367 -67.846638 -29.113771
-48.011143 -65.729923 -29.632933
-47.02262 -64.298146 -30.543432
-47.056208 -66.084396 -29.872879
-32.546149 -110.72966 -22.27142
-34.035723 -108.939529 -22.293999
-49.756241 -83.224148 -18.977156
-49.635024 -84.422852 -18.227444
-50.558768 -82.59695 -18.325659
-49.837252 -81.950619 -19.679064
-48.913507 -83.77652 -19.580849
-49.756241 -83.224148 -18.977156
-33.700183 -113.752914 -18.615271
-32.320728 -114.692611 -19.243496
-37.749178 -108.9142 -18.699308
-36.467871 -110.576813 -18.745134
-39.027029 -107.146316 -18.597675
-37.83955 -108.122665 -19.396013
-37.749178 -108.9142 -18.699308
-20.581967 -123.251808 -17.479059
-19.245576 -124.165154 -16.494015
-20.336779 -121.59372 -19.938715
-20.394445 -122.245102 -19.226889
-21.840274 -121.11493 -19.969192
-20.257341 -120.867859 -20.570291
-20.336779 -121.59372 -19.938715
-21.706186 -117.848159 -21.99745
-23.277991 -117.405502 -22.103088
-20.173608 -119.160743 -21.497217
-21.706186 -117.848159 -21.99745
-33.181083 -99.478653 -24.221184
-33.07068 -100.956589 -24.054304
-34.539999 -98.912857 -24.255823
-33.334124 -97.952522 -24.297238
-33.181083 -99.478653 -24.221184
-34.777691 -95.853546 -24.597412
-33.334124 -97.952522 -24.297238
-38.655319 -89.287247 -25.29554
-38.555021 -90.920853 -25.013794
-39.848749 -87.020325 -25.599186
-38.655319 -89.287247 -25.29554
-42.347242 -101.676254 -18.053011
-41.324776 -103.519058 -18.260435
-50.674771 -86.354805 -14.667808
-50.850869 -85.338562 -15.410815
-43.462141 -97.764634 -19.038645
-44.33775 -96.882706 -18.243889
-42.492216 -98.687005 -19.837372
-42.457542 -99.736687 -19.263689
-43.462141 -97.764634 -19.038645
-42.511362 -97.587326 -20.339365
-41.506763 -99.55938 -20.564409
-42.492216 -98.687005 -19.837372
-42.562677 -93.96135 -21.83918
-42.543467 -95.223679 -21.327292
-43.550995 -93.145264 -21.184793
-46.371349 -85.705169 -21.513361
-47.232234 -85.020309 -20.858894
-57.882566 -69.561203 -21.785179
-57.709903 -70.895069 -20.736733
-56.202558 -68.658046 -23.701054
-57.244659 -66.94376 -24.306925
-56.316755 -67.171989 -24.73675
-44.147054 -74.41201 -27.847192
-45.106842 -73.970394 -27.619947
-45.121122 -72.191334 -28.216568
-43.146812 -76.698593 -27.429922
-44.147054 -74.41201 -27.847192
-35.422401 -107.10839 -22.227444
-34.035723 -108.939529 -22.293999
-35.387029 -108.125557 -21.823044
-36.802368 -105.206436 -22.155737
-35.451062 -106.020409 -22.626692
-35.422401 -107.10839 -22.227444
-23.412225 -121.118515 -19.097439
-21.978534 -122.226417 -18.348596
-23.384417 -120.544479 -19.889612
-23.412225 -121.118515 -19.097439
-24.898702 -119.896682 -19.729685
-26.412026 -115.402618 -22.432752
-28.00664 -113.81913 -22.680025
-35.714119 -99.731743 -23.924408
-34.345981 -101.759766 -23.909666
-35.630505 -101.100716 -23.745131
-37.243481 -94.678131 -24.551521
-35.994281 -95.28862 -24.620346
-35.899601 -96.824432 -24.353878
-38.4738 -92.510391 -24.641853
-37.243481 -94.678131 -24.551521
-38.37912 -94.046203 -24.375385
-39.69066 -90.288926 -24.837658
-38.555021 -90.920853 -25.013794
-38.4738 -92.510391 -24.641853
-51.29663 -86.823288 -11.511181
-51.773039 -86.105927 -10.685863
-51.29663 -86.823288 -11.511181
-51.592806 -85.923874 -12.347402
-44.476151 -91.118882 -21.027878
-43.550995 -93.145264 -21.184793
-56.420929 -65.62722 -25.737143
-56.499901 -64.059678 -26.784239
-55.378828 -67.341507 -25.131271
-56.316755 -67.171989 -24.73675
-56.420929 -65.62722 -25.737143
-53.501509 -67.717903 -25.910981
-54.444373 -67.55854 -25.542017
-54.540138 -65.956101 -26.500628
-52.576554 -67.949661 -26.31831
-52.480788 -69.552101 -25.359699
-53.501509 -67.717903 -25.910981
-49.906364 -65.184963 -29.103023
-50.855835 -64.994873 -28.832971
-50.892319 -63.260418 -29.673998
-46.088671 -69.975414 -28.67152
-47.043606 -69.620942 -28.431574
-47.051367 -67.846638 -29.113771
-45.121122 -72.191334 -28.216568
-46.088671 -69.975414 -28.67152
-29.449351 -115.735848 -20.959803
-27.934416 -117.199928 -20.657131
-29.436563 -116.42096 -20.273424
-31.059227 -112.440781 -22.21501
-32.513429 -111.667816 -21.833189
-32.546149 -110.72966 -22.27142
-29.535789 -113.158546 -22.501061
-29.503068 -114.096702 -22.06283
-31.059227 -112.440781 -22.21501
-28.00664 -113.81913 -22.680025
-29.535789 -113.158546 -22.501061
-35.489962 -104.88015 -22.922297
-35.451062 -106.020409 -22.626692
-35.522819 -103.67553 -23.245725
-35.489962 -104.88015 -22.922297
-36.863886 -102.913834 -22.878414
-35.579555 -102.418976 -23.466116
-35.522819 -103.67553 -23.245725
-36.947693 -100.390953 -23.480857
-35.630505 -101.100716 -23.745131
-35.579555 -102.418976 -23.466116
-51.066578 -84.301727 -16.202482
-50.850869 -85.338562 -15.410815
-51.765125 -83.641617 -15.508575
-50.294936 -84.897163 -16.840334
-51.066578 -84.301727 -16.202482
-51.209193 -83.200218 -16.938095
-49.548544 -85.592835 -17.544094
-50.294936 -84.897163 -16.840334
-49.548544 -85.592835 -17.544094
-49.635024 -84.422852 -18.227444
-48.083902 -84.435563 -20.244335
-48.913507 -83.77652 -19.580849
-48.14285 -83.087738 -20.897316
-47.232234 -85.020309 -20.858894
-48.083902 -84.435563 -20.244335
-50.917214 -61.532849 -30.574774
-50.892319 -63.260418 -29.673998
-49.943073 -61.701456 -30.768669
-50.917214 -61.532849 -30.574774
-48.979641 -61.960043 -30.992664
-48.979416 -63.709095 -30.168045
-49.943073 -61.701456 -30.768669
-48.945674 -60.192299 -31.731573
-47.982017 -62.199938 -31.130949
-48.979641 -61.960043 -30.992664
-30.906001 -115.577202 -19.810924
-29.436563 -116.42096 -20.273424
-32.366225 -114.072288 -20.008667
-30.906001 -115.577202 -19.810924
-32.320728 -114.692611 -19.243496
-35.077497 -112.225387 -18.71693
-33.700183 -113.752914 -18.615271
-35.171325 -111.539123 -19.469442
-35.077497 -112.225387 -18.71693
-36.467871 -110.576813 -18.745134
-52.66072 -84.608543 -10.805062
-51.773039 -86.105927 -10.685863
-53.096641 -83.739991 -11.735343
-52.66072 -84.608543 -10.805062
-53.604637 -83.101021 -10.954007
-53.443554 -82.82888 -12.603238
-52.499637 -84.336403 -12.454292
-53.096641 -83.739991 -11.735343
-53.831779 -81.90017 -13.515334
-53.443554 -82.82888 -12.603238
-54.131583 -80.92173 -14.366722
-53.146353 -82.446854 -14.173573
-53.831779 -81.90017 -13.515334
-54.461508 -79.917587 -15.276834
-54.131583 -80.92173 -14.366722
-54.712017 -78.856834 -16.130731
-53.696665 -80.407661 -15.878857
-54.461508 -79.917587 -15.276834
-54.984688 -77.764046 -17.055059
-54.712017 -78.856834 -16.130731
-55.192811 -76.608784 -17.929023
-54.155296 -78.191647 -17.606718
-54.984688 -77.764046 -17.055059
-55.416153 -75.418209 -18.879846
-55.192811 -76.608784 -17.929023
-55.591946 -74.161164 -19.786009
-54.539212 -75.779339 -19.386845
-55.416153 -75.418209 -18.879846
-17.821157 -124.635689 -16.411198
-19.245576 -124.165154 -16.494015
-17.663565 -124.192124 -17.37516
-17.821157 -124.635689 -16.411198
-20.501372 -122.791702 -18.387829
-20.581967 -123.251808 -17.479059
-21.978534 -122.226417 -18.348596
-18.997878 -123.270493 -18.357351
-20.501372 -122.791702 -18.387829
-20.394445 -122.245102 -19.226889
-17.663565 -124.192124 -17.37516
-18.997878 -123.270493 -18.357351
-26.409049 -117.918732 -20.932684
-26.396262 -118.603844 -20.246305
-27.934416 -117.199928 -20.657131
-24.842759 -116.902885 -22.115278
-26.410362 -116.314735 -22.031406
-26.412026 -115.402618 -22.432752
-23.276327 -118.317619 -21.701742
-24.842759 -116.902885 -22.115278
-23.277991 -117.405502 -22.103088
-20.221817 -120.046203 -21.074558
-20.257341 -120.867859 -20.570291
-21.747084 -119.641891 -21.185285
-20.221817 -120.046203 -21.074558
-20.173608 -119.160743 -21.497217
-32.946923 -102.375366 -23.972271
-34.345981 -101.759766 -23.909666
-32.946923 -102.375366 -23.972271
-33.07068 -100.956589 -24.054304
-34.777691 -95.853546 -24.597412
-35.994281 -95.28862 -24.620346
-40.181787 -105.376473 -18.447893
-39.027029 -107.146316 -18.597675
-40.26039 -104.497368 -19.106922
-40.181787 -105.376473 -18.447893
-41.324776 -103.519058 -18.260435
-51.291151 -85.639343 -13.912657
-51.939718 -85.012764 -13.215296
-52.197983 -84.051873 -14.019547
-51.291151 -85.639343 -13.912657
-50.674771 -86.354805 -14.667808
-44.270416 -97.885925 -17.606896
-44.33775 -96.882706 -18.243889
-43.359287 -99.763435 -17.82576
-44.270416 -97.885925 -17.606896
-42.415422 -100.727135 -18.692213
-42.347242 -101.676254 -18.053011
-43.359287 -99.763435 -17.82576
-42.528847 -96.433648 -20.869653
-42.511362 -97.587326 -20.339365
-41.540529 -97.249733 -21.52404
-42.528847 -96.433648 -20.869653
-42.543467 -95.223679 -21.327292
-44.51086 -89.810395 -21.605764
-44.476151 -91.118882 -21.027878
-45.503801 -86.319344 -22.113077
-46.371349 -85.705169 -21.513361
-46.423635 -84.286659 -22.111591
-44.546316 -88.436684 -22.121237
-45.503801 -86.319344 -22.113077
-44.598602 -87.018173 -22.719468
-43.605661 -90.509224 -22.212154
-44.51086 -89.810395 -21.605764
-44.546316 -88.436684 -22.121237
-40.954825 -84.759568 -25.801235
-39.848749 -87.020325 -25.599186
-40.877956 -86.438629 -25.411648
-41.014597 -83.045716 -26.294935
-40.954825 -84.759568 -25.801235
-42.043805 -82.46402 -26.107397
-41.067572 -81.294311 -26.700235
-41.014597 -83.045716 -26.294935
-56.651744 -72.507648 -20.261921
-57.709903 -70.895069 -20.736733
-55.774803 -72.868778 -20.768919
-55.591946 -74.161164 -19.786009
-56.651744 -72.507648 -20.261921
-58.158716 -66.738296 -23.865591
-57.244659 -66.94376 -24.306925
-58.030497 -68.16848 -22.798378
-58.158716 -66.738296 -23.865591
-56.982532 -69.82254 -22.25803
-57.882566 -69.561203 -21.785179
-58.030497 -68.16848 -22.798378
-51.640829 -68.128056 -26.674174
-52.576554 -67.949661 -26.31831
-50.797854 -66.695835 -27.921658
-50.855835 -64.994873 -28.832971
-50.730097 -68.398441 -27.078076
-50.797854 -66.695835 -27.921658
-49.802124 -68.622024 -27.418415
-50.6451 -70.054245 -26.170931
-51.640829 -68.128056 -26.674174
-50.730097 -68.398441 -27.078076
-42.132214 -78.978142 -27.105185
-43.118175 -78.470619 -26.925835
-43.146812 -76.698593 -27.429922
-41.067572 -81.294311 -26.700235
-42.132214 -78.978142 -27.105185
-47.02262 -64.298146 -30.543432
-47.982017 -62.199938 -31.130949
3 0 24 22
3 0 26 24
3 1 29 27
3 1 31 29
3 89 33 90
3 3 36 34
3 3 37 36
3 2 91 93
3 93 92 38
3 91 92 93
3 4 41 39
3 4 43 41
3 94 44 95
3 97 96 44
3 5 48 46
3 5 98 100
3 100 99 48
3 98 99 100
3 5 101 102
3 6 52 50
3 104 103 23
3 8 53 25
3 8 54 53
3 9 57 55
3 10 58 28
3 10 105 107
3 107 106 58
3 105 106 107
3 10 108 110
3 108 59 109
3 108 109 110
3 12 60 30
3 12 61 60
3 111 62 112
3 113 63 114
3 115 64 116
3 117 116 63
3 115 116 117
3 118 65 119
3 13 120 122
3 122 121 32
3 120 121 122
3 13 123 124
3 7 66 51
3 125 67 126
3 128 127 67
3 14 129 131
3 131 130 35
3 129 130 131
3 14 132 133
3 14 134 135
3 15 136 137
3 15 138 139
3 140 68 141
3 143 142 56
3 144 69 145
3 146 70 147
3 148 147 69
3 146 147 148
3 149 71 150
3 151 150 70
3 149 150 151
3 16 152 154
3 152 72 153
3 152 153 154
3 16 73 72
3 11 155 156
3 17 74 40
3 17 75 74
3 17 76 75
3 18 77 42
3 18 78 77
3 157 79 158
3 19 159 161
3 159 80 160
3 159 160 161
3 19 81 80
3 19 82 81
3 20 83 45
3 20 84 83
3 21 85 47
3 21 86 85
3 21 87 86
3 162 88 163
3 164 163 49
3 162 163 164
3 166 165 88
3 22 23 6
3 24 23 22
3 24 167 169
3 169 168 23
3 167 168 169
3 24 170 172
3 170 25 171
3 170 171 172
3 26 25 24
3 26 8 25
3 27 28 9
3 29 28 27
3 29 10 28
3 29 30 10
3 31 30 29
3 31 12 30
3 173 32 174
3 33 175 177
3 175 32 176
3 175 176 177
3 33 13 32
3 179 178 7
3 34 180 182
3 180 35 181
3 180 181 182
3 36 35 34
3 36 14 35
3 36 183 185
3 185 184 14
3 183 184 185
3 37 186 188
3 188 187 36
3 186 187 188
3 37 189 191
3 189 15 190
3 189 190 191
3 38 192 193
3 195 194 38
3 196 16 197
3 39 40 11
3 41 40 39
3 41 17 40
3 41 42 17
3 43 42 41
3 43 18 42
3 44 198 199
3 44 200 202
3 200 19 201
3 200 201 202
3 44 45 19
3 203 45 204
3 205 204 44
3 203 204 205
3 206 20 207
3 208 207 45
3 206 207 208
3 46 209 211
3 209 47 210
3 209 210 211
3 48 47 46
3 48 21 47
3 48 49 21
3 212 49 213
3 214 213 48
3 212 213 214
3 216 215 49
3 50 217 219
3 217 51 218
3 217 218 219
3 52 51 50
3 52 7 51
3 23 52 6
3 220 52 221
3 222 221 23
3 220 221 222
3 223 7 224
3 225 224 52
3 223 224 225
3 227 226 7
3 25 228 229
3 53 230 232
3 232 231 25
3 230 231 232
3 53 233 234
3 53 235 237
3 235 34 236
3 235 236 237
3 54 34 53
3 54 3 34
3 55 56 2
3 57 56 55
3 57 238 240
3 240 239 56
3 238 239 240
3 28 57 9
3 58 57 28
3 58 241 243
3 243 242 57
3 241 242 243
3 58 244 245
3 247 246 58
3 59 248 249
3 59 250 252
3 250 11 251
3 250 251 252
3 30 59 10
3 60 59 30
3 60 11 59
3 60 39 11
3 61 39 60
3 61 4 39
3 253 46 254
3 255 46 256
3 257 5 258
3 259 258 46
3 257 258 259
3 262 261 5
3 260 261 262
3 263 50 264
3 62 265 267
3 265 50 266
3 265 266 267
3 62 6 50
3 268 62 269
3 63 270 272
3 270 62 271
3 270 271 272
3 63 6 62
3 63 22 6
3 64 22 63
3 64 0 22
3 273 38 274
3 275 38 276
3 275 276 277
3 278 2 279
3 280 279 38
3 278 279 280
3 281 2 282
3 283 55 284
3 285 284 2
3 283 284 285
3 286 55 287
3 288 9 289
3 290 289 55
3 288 289 290
3 291 9 292
3 293 27 294
3 295 294 9
3 293 294 295
3 296 27 297
3 298 1 299
3 300 299 27
3 298 299 300
3 65 301 302
3 65 303 304
3 32 305 307
3 305 65 306
3 305 306 307
3 308 65 309
3 310 309 32
3 308 309 310
3 312 311 65
3 51 313 315
3 313 33 314
3 313 314 315
3 66 33 51
3 66 13 33
3 316 66 317
3 318 317 7
3 316 317 318
3 67 319 321
3 319 66 320
3 319 320 321
3 67 13 66
3 67 322 324
3 324 323 13
3 322 323 324
3 326 325 67
3 35 327 328
3 330 329 35
3 332 331 14
3 333 64 334
3 68 335 337
3 335 64 336
3 335 336 337
3 68 0 64
3 56 338 340
3 340 339 2
3 338 339 340
3 342 341 56
3 69 343 344
3 69 345 346
3 69 347 349
3 347 68 348
3 347 348 349
3 70 68 69
3 70 0 68
3 70 26 0
3 71 26 70
3 71 8 26
3 350 71 351
3 72 352 354
3 352 71 353
3 352 353 354
3 72 8 71
3 72 54 8
3 73 54 72
3 73 3 54
3 355 16 356
3 40 357 359
3 359 358 11
3 357 358 359
3 74 360 362
3 362 361 40
3 360 361 362
3 74 363 365
3 363 16 364
3 363 364 365
3 74 73 16
3 75 73 74
3 75 3 73
3 75 37 3
3 76 37 75
3 76 15 37
3 42 76 17
3 77 76 42
3 77 15 76
3 77 366 368
3 368 367 15
3 366 367 368
3 78 369 371
3 371 370 77
3 369 370 371
3 78 372 373
3 79 374 375
3 79 376 378
3 376 1 377
3 376 377 378
3 80 379 380
3 80 381 382
3 80 383 385
3 383 79 384
3 383 384 385
3 81 79 80
3 81 1 79
3 81 31 1
3 82 31 81
3 82 12 31
3 45 82 19
3 83 82 45
3 83 12 82
3 83 61 12
3 84 61 83
3 84 4 61
3 386 20 387
3 47 388 389
3 85 390 392
3 392 391 47
3 390 391 392
3 85 393 395
3 393 20 394
3 393 394 395
3 85 84 20
3 86 84 85
3 86 4 84
3 86 43 4
3 87 43 86
3 87 18 43
3 49 87 21
3 88 87 49
3 88 18 87
3 88 78 18
3 396 78 397
3 398 397 88
3 396 397 398
3 400 399 78
3 402 401 5
