ply
format ascii 1.0
element vertex 761
property float x
property float y
property float z
element face 833
property list uchar int vertex_index
end_header
50.343964 -24.053705 -44.472748
53.287331 -1.474695 -54.474251
56.071259 -67.613022 -26.800783
62.446362 -33.611233 -40.036118
66.350418 -20.12406 -39.887909
70.167511 -44.238403 -18.93989
44.215004 -1.799307 -56.575638
52.845589 -13.260794 -51.396118
68.302597 -55.324787 -20.918177
54.375294 -81.548691 -14.390783
60.567055 -68.763847 -21.456987
65.052704 -54.293442 -28.189619
59.996002 -51.310184 -32.978561
54.585487 -45.974083 -36.250626
56.71302 -28.525669 -43.966263
60.501053 -16.359247 -47.876183
69.15448 -39.02697 -30.23807
68.410751 -46.698837 -15.021206
48.719765 4.675463 -56.479866
43.967274 4.0723 -57.937431
48.756363 -1.152611 -56.443459
48.859573 -7.0068 -54.407509
53.237244 -7.380136 -53.857033
65.872154 -62.180626 -17.329668
53.87896 -75.118759 -24.076361
56.074715 -75.514832 -21.386412
58.644745 -68.538559 -24.554976
63.12397 -61.810841 -24.985243
60.844772 -61.142776 -27.767229
62.628086 -53.165413 -30.862261
58.12339 -59.702122 -29.793745
51.682568 -42.733944 -37.423576
64.823593 -26.858294 -40.445419
63.641052 -18.234726 -44.133568
62.212494 -24.800062 -43.941635
59.161499 -22.590216 -46.558418
59.808037 -31.161064 -42.473549
53.444496 4.328398 -53.42495
51.057739 -74.027893 -25.951754
53.119797 -65.945312 -28.416647
64.816742 -35.748047 -37.003578
70.937523 -42.131958 -22.821589
44.509468 -7.845903 -53.321777
48.652172 -13.035687 -50.721069
51.798691 -19.070889 -47.735252
70.382034 -49.271812 -20.010641
69.851906 -48.079468 -24.009378
58.400429 -74.825325 -13.80065
53.330784 -82.240067 -18.390947
57.522411 -75.311523 -17.863333
61.841198 -68.618355 -17.644152
64.789909 -61.978943 -21.417982
67.000923 -54.854828 -24.833937
68.43647 -47.189983 -27.724489
66.365471 -46.151718 -31.010485
63.98642 -44.625038 -33.868416
61.547638 -42.537163 -36.370773
55.251045 -57.542637 -31.373102
57.32695 -48.852257 -34.751244
59.020771 -39.997578 -38.480423
56.22023 -37.132942 -40.025948
53.116867 -34.006912 -40.940651
53.314064 -25.9643 -44.481537
57.59901 -2.498753 -50.994232
61.146751 -10.065785 -47.777718
57.38308 -8.521705 -51.504974
56.881767 -14.576948 -50.458977
55.603432 -20.479523 -47.84008
69.967842 -39.733124 -28.446184
51.03336 1.716736 -55.61364
48.703045 1.766628 -56.701637
51.037399 -1.211519 -55.680054
51.066803 -4.141141 -55.270172
53.274544 -4.429379 -54.398491
54.991512 -71.406296 -25.399549
56.278458 -71.827309 -24.284231
57.427399 -68.172012 -25.778421
59.796234 -64.906029 -26.168062
58.509445 -64.410858 -27.309645
59.521057 -60.521782 -28.859426
57.116051 -63.716854 -28.269751
63.753418 -30.264317 -40.386261
63.559731 -25.853842 -42.267258
62.500114 -29.174833 -41.967957
61.154518 -28.02302 -43.366333
61.177349 -32.419445 -41.354324
66.106697 -32.238731 -36.911942
70.690964 -43.128284 -20.887686
44.062439 1.143999 -57.515999
41.663635 3.367552 -57.976387
41.812977 0.414455 -57.23748
39.648804 -0.621851 -56.554192
42.01619 -2.573503 -56.004959
44.377579 -4.782035 -55.150009
50.96991 -10.005982 -52.986427
48.810394 -9.985215 -52.714859
50.749607 -12.970045 -51.235298
50.38868 -15.963767 -49.255768
52.407299 -16.188616 -49.638115
69.579071 -52.190845 -20.499567
70.23526 -48.613976 -22.032892
69.186508 -51.749855 -22.532469
53.23262 -83.901627 -10.469025
54.718044 -81.077332 -12.242447
56.647728 -77.763428 -11.914331
56.335648 -78.128052 -14.041643
51.312984 -85.799965 -18.844992
58.333023 -72.138443 -21.402662
59.087608 -72.078911 -19.652208
59.685066 -71.937973 -17.740858
61.274803 -68.706985 -19.619856
63.398735 -65.354919 -19.557348
62.735363 -65.375 -21.481707
64.168228 -58.130463 -26.639151
65.158241 -58.346684 -25.001184
66.100693 -54.620705 -26.595404
67.813217 -51.090981 -26.343775
66.865967 -50.742538 -28.06418
67.462082 -46.716431 -29.424639
65.782677 -50.296879 -29.638582
61.322533 -52.325275 -31.975378
63.3629 -48.955536 -32.365181
62.098801 -48.034294 -33.551155
62.769501 -43.646603 -35.162109
60.827553 -46.958946 -34.644119
51.61116 -64.86882 -29.112837
54.18042 -61.784637 -29.837252
52.706577 -60.589218 -30.539446
53.52729 -50.415127 -34.474678
54.923523 -51.871456 -33.765274
55.972736 -47.45813 -35.538002
58.250862 -44.435394 -36.576233
56.909691 -43.028267 -37.39917
57.663635 -38.600342 -39.334312
55.50811 -41.540237 -38.106697
50.188629 -40.955147 -37.89949
52.52169 -38.320175 -39.163589
50.981987 -36.570805 -39.559097
65.527824 -15.945345 -41.621506
62.12735 -17.296717 -46.107735
62.549553 -14.083942 -45.984642
60.879608 -13.200961 -47.984901
59.318062 -9.257927 -49.77095
59.096252 -12.351741 -49.751534
57.200367 -11.559086 -51.195312
58.752846 -15.440285 -49.352097
58.088875 -25.606464 -45.380928
57.436913 -21.495089 -47.380577
56.373795 -24.411522 -45.928352
54.585461 -23.303127 -46.173187
55.024029 -27.211449 -44.328362
68.023262 -43.482231 -16.446371
69.395081 -45.441738 -16.983915
43.9771 6.979649 -57.850739
46.330154 4.501127 -57.433525
46.369446 1.585596 -57.342674
46.47176 -1.335859 -56.737556
46.58577 -4.271431 -55.618416
48.826557 -4.072154 -55.673943
51.062595 -7.068329 -54.361969
53.11198 -10.322845 -52.83992
67.196739 -58.803268 -19.175768
52.528503 -85.072433 -14.876753
52.738861 -78.771744 -22.832769
55.071068 -75.40274 -22.84355
57.39827 -72.066002 -22.953463
59.694149 -68.72496 -23.111994
61.920319 -65.348473 -23.246897
60.940067 -65.20903 -24.8155
62.05571 -61.564983 -26.481108
63.036331 -57.77187 -28.082567
63.883568 -53.818871 -29.608541
61.788498 -57.230988 -29.33359
60.460083 -56.492798 -30.415125
59.087406 -55.564075 -31.363817
50.977982 -53.340069 -33.471275
52.110901 -48.86277 -35.134361
53.154572 -44.401993 -36.879417
65.686241 -23.452942 -40.25856
65.049973 -19.172628 -42.037018
64.397804 -22.499722 -42.272865
63.024132 -21.522429 -44.186951
61.548092 -20.518196 -45.924599
59.949913 -19.499342 -47.404259
60.753288 -23.704865 -45.395164
59.687584 -26.824451 -44.519836
58.318596 -29.854477 -43.351219
51.10276 4.613655 -55.121399
53.331856 1.460661 -54.130806
51.469467 -78.453491 -23.972715
52.526119 -74.65889 -25.099981
53.575356 -70.802238 -26.329054
54.61972 -66.865929 -27.662722
52.078766 -70.024139 -27.120123
50.549576 -69.08432 -27.825102
66.892395 -24.396847 -38.205948
66.026978 -27.817215 -38.542145
64.947784 -31.285065 -38.683411
63.648621 -34.723534 -38.569984
70.893188 -41.249184 -24.732409
41.613667 6.295397 -58.202072
39.346375 5.32214 -58.091774
46.663895 -7.252413 -54.03624
46.669998 -10.319242 -52.094658
46.582993 -13.510052 -49.936409
48.381298 -16.176893 -48.58709
49.908539 -18.966032 -47.230629
49.37973 -21.944212 -45.342743
51.064526 -21.803055 -45.905525
50.286743 -26.899292 -43.138069
70.173134 -47.630409 -17.484278
70.600594 -46.614235 -19.484663
70.768394 -45.725464 -21.473833
70.669159 -44.966259 -23.437799
70.306656 -44.314545 -25.358824
58.696167 -74.599686 -11.681311
52.002277 -85.50737 -16.944502
53.924629 -81.949478 -16.458067
55.397224 -78.743454 -18.066866
55.928833 -78.470024 -16.108477
58.01638 -75.077957 -15.87554
60.155888 -71.774895 -15.715754
63.929779 -65.358849 -17.51956
65.398773 -62.040783 -19.416986
66.67186 -58.609974 -21.231489
64.035088 -61.926979 -23.287924
65.993378 -58.481934 -23.187197
67.737442 -55.0653 -22.929785
68.593613 -51.403942 -24.491213
69.244644 -47.624191 -25.914328
69.69912 -43.729679 -27.219374
68.880447 -43.161438 -29.006632
67.897919 -42.559799 -30.715212
66.805634 -41.883316 -32.347275
64.60173 -49.708981 -31.067732
65.193459 -45.460167 -32.487915
65.65451 -41.10405 -33.909019
64.481468 -40.208782 -35.40464
63.301773 -39.196915 -36.829826
62.107414 -38.076614 -38.167412
55.659637 -62.834621 -29.095095
56.690308 -58.700676 -30.616758
57.699287 -54.466415 -32.219452
53.82032 -56.252987 -32.094574
56.311058 -53.227257 -33.014153
58.664101 -50.143654 -33.898674
59.549686 -45.75164 -35.653496
60.306679 -41.314758 -37.484009
60.872536 -36.860672 -39.38739
59.56448 -35.563221 -40.452057
58.157646 -34.198524 -41.325928
56.644859 -32.781387 -41.987961
54.040962 -39.972778 -38.691277
54.695354 -35.601044 -40.553177
55.044384 -31.328682 -42.442665
53.401413 -29.860064 -42.727844
51.785751 -28.391851 -42.918594
51.682976 -24.862015 -44.499268
55.569656 1.015619 -52.327225
55.482262 -1.91095 -52.885445
64.103287 -14.995388 -43.838486
57.49807 -5.488594 -51.419075
55.424698 -4.890806 -53.092682
55.351513 -7.882296 -52.891022
55.199265 -10.863755 -52.240616
54.902603 -13.825422 -51.145271
58.218925 -18.495949 -48.551498
56.363674 -17.55773 -49.313881
54.412491 -16.756962 -49.671333
53.706318 -19.630442 -47.947517
52.790474 -22.378202 -46.153778
70.264855 -40.096874 -27.528034
70.298935 -38.132277 -28.126288
70.066857 -42.536623 -19.612803
69.631909 -43.186729 -18.656099
70.429237 -43.683343 -19.913788
70.328583 -41.981564 -20.5867
70.066857 -42.536623 -19.612803
68.940834 -53.757816 -20.708872
69.135284 -53.942766 -19.668352
68.497048 -55.509737 -19.877657
54.546669 -81.313012 -13.316615
53.823484 -82.801304 -12.471381
53.652109 -83.036984 -13.545549
51.412668 -62.120138 -30.163304
52.158868 -62.729019 -29.826141
50.864959 -64.259939 -29.449999
49.843593 -37.809161 -38.951363
50.585308 -38.762976 -38.729293
49.446914 -40.001331 -38.121559
50.222912 -35.638267 -39.74886
49.843593 -37.809161 -38.951363
65.939121 -18.034703 -40.754707
66.161598 -16.450274 -40.50618
66.572895 -18.539632 -39.639381
69.208954 -36.923328 -30.855933
69.607521 -37.342476 -29.942189
68.666493 -38.665093 -31.112715
69.208954 -36.923328 -30.855933
68.217006 -45.090534 -15.733788
67.413437 -44.157291 -15.475701
67.607181 -45.765594 -14.763119
47.52496 4.588295 -56.956696
46.365521 5.944403 -57.240421
47.560326 6.03157 -56.763592
66.720104 -60.649353 -17.195124
66.041957 -62.313267 -16.262773
66.534447 -60.491947 -18.252718
67.382396 -58.960674 -18.118174
66.720104 -60.649353 -17.195124
51.64605 -86.872116 -15.189087
51.893486 -86.573799 -14.089189
50.2644 -52.529981 -33.79211
49.68022 -54.799427 -33.018936
50.83086 -50.291332 -34.623654
51.544441 -51.101419 -34.302818
50.2644 -52.529981 -33.79211
51.390396 -48.035212 -35.435253
50.83086 -50.291332 -34.623654
52.273628 4.471026 -54.273174
51.18808 6.016795 -54.689099
52.358947 5.874166 -53.840874
50.258541 -80.153343 -23.970741
50.936922 -80.325913 -23.452455
51.791929 -74.343391 -25.525868
51.288294 -76.313301 -25.003393
50.554103 -75.997803 -25.429279
49.262501 -70.683067 -27.580448
50.037504 -71.158943 -27.253094
49.787035 -68.538704 -28.156332
49.262501 -70.683067 -27.580448
67.033715 -26.570217 -37.407146
67.445213 -24.875389 -37.182277
66.601006 -28.280401 -37.575245
66.459687 -26.107031 -38.374046
67.033715 -26.570217 -37.407146
70.922699 -40.311916 -23.449099
70.76017 -40.873238 -22.504548
70.915356 -41.690571 -23.776999
70.900531 -39.87053 -24.404509
70.922699 -40.311916 -23.449099
39.398455 3.846012 -57.829941
40.505005 4.344846 -58.034081
40.557085 2.868717 -57.772248
38.277314 4.687864 -57.816071
39.398455 3.846012 -57.829941
38.621262 -1.294071 -56.043602
39.774928 -2.146806 -55.824807
43.466657 -8.323329 -52.836399
43.370582 -6.738009 -53.831707
44.544441 -9.441539 -52.268223
43.466657 -8.323329 -52.836399
48.699749 -20.684189 -45.909061
48.494445 -22.389654 -44.919064
70.061215 -49.320114 -16.699703
69.837437 -48.188724 -16.482864
70.334461 -49.672531 -18.988188
70.072159 -51.020771 -19.217306
70.491314 -47.943023 -19.747652
70.443741 -48.343743 -18.725199
70.334461 -49.672531 -18.988188
53.342308 -83.568027 -9.34663
54.104164 -82.237977 -10.263844
59.462845 -73.235348 -13.711624
59.610714 -73.122528 -12.651955
58.548298 -74.712506 -12.74098
55.389679 -77.209664 -20.626335
54.948346 -77.217491 -21.424942
56.459817 -77.027489 -17.9651
56.141506 -77.108249 -18.891188
57.204099 -75.392284 -18.789421
62.065928 -68.59026 -16.610475
61.223273 -70.16853 -15.646276
60.998543 -70.196625 -16.679953
62.885489 -66.988602 -17.581856
63.110218 -66.960507 -16.548179
62.065928 -68.59026 -16.610475
53.109478 -55.551359 -32.444702
52.535425 -57.759418 -31.660874
50.891987 -29.494271 -42.237686
51.659103 -30.369306 -42.081817
50.142482 -28.747991 -42.347424
51.036247 -27.645571 -43.028332
50.891987 -29.494271 -42.237686
56.584333 -0.741567 -51.660728
56.641277 0.703323 -51.306302
57.655954 -1.053863 -50.639805
62.001503 -10.500854 -46.696323
62.702904 -12.509933 -45.799785
61.848152 -12.074863 -46.88118
61.2444 -8.536909 -47.54628
62.001503 -10.500854 -46.696323
60.312201 -8.131977 -48.620541
61.2444 -8.536909 -47.54628
70.014202 -37.695553 -29.046245
70.298935 -38.132277 -28.126288
69.561161 -39.380047 -29.342127
69.607521 -37.342476 -29.942189
70.014202 -37.695553 -29.046245
67.834164 -47.328287 -14.035652
67.607181 -45.765594 -14.763119
65.107369 -63.813869 -16.37127
66.041957 -62.313267 -16.262773
53.540882 5.692815 -52.912445
52.358947 5.874166 -53.840874
49.795023 -75.673561 -25.814324
50.554103 -75.997803 -25.429279
50.291586 -73.63073 -26.31642
49.795023 -75.673561 -25.814324
66.669468 -32.686489 -36.010334
66.640865 -30.491159 -36.760143
66.037796 -34.460312 -36.142364
66.669468 -32.686489 -36.010334
65.392819 -36.214969 -36.188182
65.46172 -33.993389 -36.95776
66.037796 -34.460312 -36.142364
70.63689 -41.371401 -21.537596
70.328583 -41.981564 -20.5867
70.814244 -42.630121 -21.854637
70.76017 -40.873238 -22.504548
70.63689 -41.371401 -21.537596
40.631756 1.392169 -57.402794
40.557085 2.868717 -57.772248
41.738306 1.891004 -57.606933
40.730891 -0.103698 -56.895836
39.54967 0.874016 -57.06115
40.631756 1.392169 -57.402794
40.958621 -3.122632 -55.55019
39.774928 -2.146806 -55.824807
40.832497 -1.597677 -56.279575
42.123943 -4.101809 -55.173298
40.958621 -3.122632 -55.55019
43.304638 -5.206075 -54.745823
42.123943 -4.101809 -55.173298
43.196884 -3.677769 -55.577484
44.443523 -6.313969 -54.235893
43.370582 -6.738009 -53.831707
43.304638 -5.206075 -54.745823
69.670677 -52.480288 -19.461769
69.135284 -53.942766 -19.668352
69.980553 -50.731329 -20.255104
70.072159 -51.020771 -19.217306
69.670677 -52.480288 -19.461769
53.080772 -84.213452 -11.58467
52.436115 -85.631886 -10.743935
53.975332 -82.48948 -11.355736
53.080772 -84.213452 -11.58467
53.823484 -82.801304 -12.471381
54.846876 -80.825829 -11.150555
54.104164 -82.237977 -10.263844
53.975332 -82.48948 -11.355736
55.682886 -79.42038 -12.078389
55.811718 -79.168877 -10.986497
54.846876 -80.825829 -11.150555
50.870718 -85.865467 -19.685288
50.305549 -87.603817 -19.123747
51.935417 -84.094467 -19.491197
50.870718 -85.865467 -19.685288
52.944317 -82.314518 -19.264175
52.321884 -84.020016 -18.61797
51.935417 -84.094467 -19.491197
57.609405 -73.805744 -20.559086
56.480251 -75.493938 -20.550961
57.203869 -73.826638 -21.394537
57.986698 -73.775978 -19.683858
57.609405 -73.805744 -20.559086
58.710316 -72.108677 -20.527435
58.305009 -73.695217 -18.75777
57.204099 -75.392284 -18.789421
57.986698 -73.775978 -19.683858
54.225407 -51.143292 -34.119976
53.661079 -53.360594 -33.280052
52.962963 -52.632429 -33.634754
51.257221 -34.458782 -40.402069
52.324661 -33.176836 -41.092846
52.049427 -35.288859 -40.249874
51.257221 -34.458782 -40.402069
50.222912 -35.638267 -39.74886
58.604177 -2.86276 -49.940799
57.655954 -1.053863 -50.639805
65.670562 -14.420742 -41.348751
66.161598 -16.450274 -40.50618
64.975796 -13.90951 -42.491169
65.670562 -14.420742 -41.348751
67.126808 -42.594753 -16.141056
67.413437 -44.157291 -15.475701
67.762577 -41.874848 -17.100527
67.126808 -42.594753 -16.141056
68.559784 -42.808644 -17.40934
67.762577 -41.874848 -17.100527
69.245694 -43.788397 -17.678112
68.559784 -42.808644 -17.40934
68.709171 -44.461984 -16.715143
69.781296 -44.84007 -17.961903
69.631909 -43.186729 -18.656099
69.245694 -43.788397 -17.678112
45.188993 7.183663 -57.449028
44.055014 8.402207 -57.573124
45.153627 5.740388 -57.642132
45.188993 7.183663 -57.449028
46.365521 5.944403 -57.240421
67.944119 -57.248978 -19.006453
67.382396 -58.960674 -18.118174
67.749668 -57.064028 -20.046973
68.497048 -55.509737 -19.877657
67.944119 -57.248978 -19.006453
52.728714 -84.798855 -13.788533
51.893486 -86.573799 -14.089189
53.451898 -83.310562 -14.633768
53.652109 -83.036984 -13.545549
52.728714 -84.798855 -13.788533
53.280418 -78.845947 -22.14812
52.160736 -80.574532 -22.24509
54.446522 -77.161445 -22.153511
53.280418 -78.845947 -22.14812
53.904964 -77.087242 -22.838159
55.572891 -75.458786 -22.114981
54.948346 -77.217491 -21.424942
54.446522 -77.161445 -22.153511
50.394669 -55.581522 -32.688632
49.68022 -54.799427 -33.018936
51.688309 -54.0949 -33.133052
50.394669 -55.581522 -32.688632
52.252636 -51.877598 -33.972977
52.962963 -52.632429 -33.634754
51.688309 -54.0949 -33.133052
51.912232 -45.804823 -36.307781
52.632737 -46.632381 -36.006889
51.390396 -48.035212 -35.435253
51.17623 -44.970799 -36.57986
52.41857 -43.567968 -37.151496
51.912232 -45.804823 -36.307781
50.448019 -44.084413 -36.852432
51.17623 -44.970799 -36.57986
49.701049 -43.195015 -37.090389
50.935598 -41.844545 -37.661533
50.448019 -44.084413 -36.852432
48.977239 -42.24073 -37.342888
49.701049 -43.195015 -37.090389
49.446914 -40.001331 -38.121559
48.977239 -42.24073 -37.342888
48.78315 6.103515 -56.154716
47.560326 6.03157 -56.763592
49.974648 6.072611 -55.475483
51.18808 6.016795 -54.689099
49.911263 4.644559 -55.800632
48.78315 6.103515 -56.154716
49.974648 6.072611 -55.475483
51.571619 -80.485039 -22.882483
52.160736 -80.574532 -22.24509
52.104164 -78.612617 -23.402742
51.571619 -80.485039 -22.882483
50.936922 -80.325913 -23.452455
50.759968 -78.210601 -24.43976
50.258541 -80.153343 -23.970741
51.997793 -76.55619 -24.536348
50.759968 -78.210601 -24.43976
51.288294 -76.313301 -25.003393
50.802099 -71.628852 -26.900605
51.568252 -72.026016 -26.535939
50.291586 -73.63073 -26.31642
51.314171 -69.55423 -27.472613
50.802099 -71.628852 -26.900605
50.037504 -71.158943 -27.253094
50.317827 -66.430954 -28.800199
51.080368 -66.97657 -28.46897
49.787035 -68.538704 -28.156332
50.864959 -64.259939 -29.449999
50.317827 -66.430954 -28.800199
66.935756 -20.618206 -38.812905
66.572895 -18.539632 -39.639381
67.206745 -22.7546 -37.971924
67.445213 -24.875389 -37.182277
66.621407 -22.260454 -39.046928
66.935756 -20.618206 -38.812905
67.206745 -22.7546 -37.971924
66.066837 -30.027973 -37.727044
66.601006 -28.280401 -37.575245
66.640865 -30.491159 -36.760143
70.907653 -39.358795 -25.341276
70.900531 -39.87053 -24.404509
70.727528 -40.854905 -25.671146
70.907653 -39.358795 -25.341276
42.841775 8.076169 -57.891865
44.055014 8.402207 -57.573124
41.660059 7.734043 -58.067532
42.841775 8.076169 -57.891865
42.795383 6.637523 -58.026405
40.496323 7.259951 -58.159146
41.660059 7.734043 -58.067532
39.362677 6.773323 -58.103997
40.496323 7.259951 -58.159146
40.480021 5.808769 -58.146923
38.268273 6.149678 -57.967015
39.362677 6.773323 -58.103997
38.268273 6.149678 -57.967015
38.277314 4.687864 -57.816071
38.502015 0.225185 -56.657185
39.54967 0.874016 -57.06115
38.502015 0.225185 -56.657185
38.621262 -1.294071 -56.043602
45.624706 -10.678209 -51.654663
44.544441 -9.441539 -52.268223
45.589733 -9.082572 -52.708218
45.581204 -12.273613 -50.575539
45.624706 -10.678209 -51.654663
46.626496 -11.914647 -51.015534
45.573964 -13.953494 -49.454498
45.581204 -12.273613 -50.575539
46.489826 -15.183285 -48.826206
45.573964 -13.953494 -49.454498
47.388979 -16.516706 -48.151547
46.489826 -15.183285 -48.826206
47.482146 -14.843473 -49.26175
48.200533 -17.800529 -47.531235
47.388979 -16.516706 -48.151547
48.964153 -19.195099 -46.853004
48.200533 -17.800529 -47.531235
49.144919 -17.571462 -47.90886
49.644134 -20.455122 -46.286686
48.699749 -20.684189 -45.909061
48.964153 -19.195099 -46.853004
49.162872 -23.516889 -44.489342
48.494445 -22.389654 -44.919064
49.861847 -22.998959 -44.907746
49.644989 -24.571635 -44.054344
49.162872 -23.516889 -44.489342
49.418278 -27.788509 -42.568493
50.142482 -28.747991 -42.347424
49.616378 -25.994428 -43.387005
49.418278 -27.788509 -42.568493
49.644989 -24.571635 -44.054344
50.315354 -25.476498 -43.805408
49.616378 -25.994428 -43.387005
68.510387 -48.307522 -14.250218
67.834164 -47.328287 -14.035652
68.956245 -47.722938 -15.251328
68.510387 -48.307522 -14.250218
69.44841 -47.094389 -16.232683
68.902916 -46.070287 -16.002561
68.956245 -47.722938 -15.251328
69.784108 -46.536074 -17.234096
69.44841 -47.094389 -16.232683
69.837437 -48.188724 -16.482864
70.230011 -48.85183 -17.725006
70.061215 -49.320114 -16.699703
70.386864 -47.122322 -18.484471
70.230011 -48.85183 -17.725006
70.443741 -48.343743 -18.725199
70.434262 -42.387585 -25.984354
70.727528 -40.854905 -25.671146
70.599922 -42.781864 -25.045617
52.579269 -85.233593 -9.58693
52.436115 -85.631886 -10.743935
52.579269 -85.233593 -9.58693
53.342308 -83.568027 -9.34663
56.763588 -77.58799 -10.839499
55.811718 -79.168877 -10.986497
57.787807 -76.006119 -10.722988
56.763588 -77.58799 -10.839499
57.671948 -76.181557 -11.797821
58.801815 -74.513768 -10.615166
57.787807 -76.006119 -10.722988
59.749752 -73.093773 -11.589992
58.801815 -74.513768 -10.615166
59.749752 -73.093773 -11.589992
59.610714 -73.122528 -12.651955
50.717531 -87.461345 -18.200488
50.305549 -87.603817 -19.123747
51.062178 -87.315048 -17.250242
50.717531 -87.461345 -18.200488
51.65763 -85.653667 -17.894747
51.382936 -87.089585 -16.222962
51.062178 -87.315048 -17.250242
52.26539 -85.289901 -15.910628
51.64605 -86.872116 -15.189087
51.382936 -87.089585 -16.222962
54.017713 -80.572281 -19.128603
52.944317 -82.314518 -19.264175
55.389679 -77.209664 -20.626335
56.480251 -75.493938 -20.550961
55.050933 -78.823974 -18.966563
56.141506 -77.108249 -18.891188
54.364004 -80.49176 -18.228907
54.017713 -80.572281 -19.128603
55.050933 -78.823974 -18.966563
60.340575 -71.710133 -14.669176
59.462845 -73.235348 -13.711624
59.278159 -73.30011 -14.758202
60.340575 -71.710133 -14.669176
61.223273 -70.16853 -15.646276
64.136181 -65.402981 -16.466216
63.110218 -66.960507 -16.548179
64.900966 -63.769738 -17.424614
65.107369 -63.813869 -16.37127
64.136181 -65.402981 -16.466216
70.130494 -42.095152 -26.914629
70.434262 -42.387585 -25.984354
70.002888 -44.022112 -26.289099
69.833481 -41.731401 -27.832779
70.264855 -40.096874 -27.528034
70.130494 -42.095152 -26.914629
68.038212 -40.431507 -31.351286
68.666493 -38.665093 -31.112715
68.5262 -40.793385 -30.476641
67.492069 -40.093266 -32.167318
68.038212 -40.431507 -31.351286
67.351776 -42.221558 -31.531244
66.952686 -39.70628 -33.022824
67.492069 -40.093266 -32.167318
66.377125 -39.316647 -33.803696
66.952686 -39.70628 -33.022824
66.230072 -41.493683 -33.128147
65.811702 -38.892971 -34.640903
66.377125 -39.316647 -33.803696
65.225182 -38.445337 -35.388714
65.811702 -38.892971 -34.640903
65.067989 -40.656416 -34.65683
64.649105 -37.978414 -36.204109
65.392819 -36.214969 -36.188182
65.225182 -38.445337 -35.388714
51.978554 -59.927534 -30.883311
51.412668 -62.120138 -30.163304
53.263449 -58.421103 -31.31701
51.978554 -59.927534 -30.883311
52.535425 -57.759418 -31.660874
54.371921 -54.062221 -32.929924
53.109478 -55.551359 -32.444702
53.661079 -53.360594 -33.280052
52.466934 -31.103412 -41.986442
53.25914 -31.933488 -41.834248
52.324661 -33.176836 -41.092846
52.593582 -29.125957 -42.823219
52.466934 -31.103412 -41.986442
51.659103 -30.369306 -42.081817
54.575243 4.077466 -52.446247
53.540882 5.692815 -52.912445
55.637823 2.421076 -51.897385
56.641277 0.703323 -51.306302
54.507076 2.672009 -52.876087
54.575243 4.077466 -52.446247
55.637823 2.421076 -51.897385
64.263527 -13.434532 -43.599659
64.975796 -13.90951 -42.491169
64.815555 -15.470367 -42.729996
63.479771 -12.965656 -44.726708
63.32642 -14.539665 -44.911564
62.702904 -12.509933 -45.799785
64.263527 -13.434532 -43.599659
63.479771 -12.965656 -44.726708
58.53833 -4.348461 -50.228798
58.604177 -2.86276 -49.940799
59.397856 -7.728048 -49.617157
60.312201 -8.131977 -48.620541
60.232406 -9.661856 -48.774334
58.48786 -5.843381 -50.44122
59.397856 -7.728048 -49.617157
58.408066 -7.373261 -50.595012
57.54854 -3.993673 -51.206654
58.53833 -4.348461 -50.228798
58.48786 -5.843381 -50.44122
3 271 68 272
3 1 71 69
3 1 73 71
3 2 76 74
3 2 78 76
3 2 80 78
3 3 83 81
3 3 85 83
3 5 273 274
3 5 275 277
3 275 87 276
3 275 276 277
3 6 90 88
3 6 92 90
3 6 93 92
3 7 96 94
3 7 98 96
3 8 278 280
3 278 99 279
3 278 279 280
3 8 101 99
3 9 281 283
3 281 103 282
3 281 282 283
3 9 105 103
3 10 108 107
3 10 110 108
3 10 112 110
3 11 115 113
3 11 117 115
3 11 119 117
3 12 122 120
3 12 124 122
3 284 127 285
3 286 285 125
3 284 285 286
3 13 130 128
3 13 132 130
3 13 134 132
3 287 137 288
3 289 288 135
3 287 288 289
3 291 290 137
3 4 292 294
3 292 138 293
3 292 293 294
3 15 141 139
3 15 143 141
3 15 145 143
3 14 148 146
3 14 150 148
3 16 295 296
3 16 297 298
3 17 299 301
3 299 151 300
3 299 300 301
3 17 152 151
3 18 302 304
3 302 154 303
3 302 303 304
3 20 155 70
3 20 156 155
3 20 158 156
3 22 159 72
3 22 160 159
3 23 305 306
3 23 307 309
3 307 161 308
3 307 308 309
3 310 162 311
3 24 164 163
3 26 165 75
3 26 166 165
3 26 168 166
3 28 169 77
3 28 170 169
3 28 172 170
3 30 173 79
3 30 174 173
3 312 175 313
3 314 176 315
3 316 315 175
3 314 315 316
3 318 317 176
3 32 180 178
3 34 181 82
3 34 182 181
3 34 184 182
3 36 185 84
3 36 186 185
3 37 319 321
3 319 187 320
3 319 320 321
3 37 188 187
3 322 189 323
3 38 324 326
3 324 190 325
3 324 325 326
3 38 191 190
3 38 193 191
3 327 194 328
3 330 329 194
3 331 195 332
3 333 196 334
3 335 334 195
3 333 334 335
3 40 197 86
3 40 198 197
3 41 336 337
3 41 338 340
3 338 199 339
3 338 339 340
3 19 200 153
3 341 201 342
3 343 342 89
3 341 342 343
3 345 344 201
3 347 346 91
3 42 348 349
3 42 350 351
3 21 202 157
3 43 203 95
3 43 204 203
3 43 205 204
3 44 206 97
3 44 208 206
3 352 207 353
3 354 210 355
3 45 356 357
3 45 358 360
3 358 211 359
3 358 359 360
3 45 212 211
3 46 213 100
3 46 214 213
3 362 361 102
3 47 215 104
3 47 363 365
3 365 364 215
3 363 364 365
3 48 216 106
3 48 217 216
3 25 366 367
3 49 368 370
3 368 218 369
3 368 369 370
3 49 219 218
3 49 220 219
3 50 221 109
3 50 371 373
3 373 372 221
3 371 372 373
3 50 374 376
3 374 222 375
3 374 375 376
3 51 223 111
3 51 224 223
3 27 225 167
3 52 226 114
3 52 227 226
3 52 228 227
3 53 229 116
3 53 230 229
3 53 231 230
3 54 232 118
3 54 233 232
3 29 234 171
3 55 235 121
3 55 236 235
3 55 237 236
3 56 238 123
3 56 239 238
3 39 240 192
3 57 241 126
3 57 242 241
3 377 243 378
3 58 244 129
3 58 245 244
3 58 246 245
3 59 247 131
3 59 248 247
3 59 249 248
3 60 250 133
3 60 251 250
3 31 252 177
3 61 253 136
3 61 254 253
3 61 255 254
3 379 256 380
3 381 209 382
3 383 382 256
3 381 382 383
3 63 384 386
3 384 258 385
3 384 385 386
3 63 259 258
3 33 260 179
3 64 387 389
3 389 388 140
3 387 388 389
3 64 390 391
3 64 392 393
3 65 261 142
3 65 262 261
3 65 263 262
3 66 264 144
3 66 265 264
3 35 266 183
3 67 267 147
3 67 268 267
3 67 269 268
3 62 270 149
3 62 257 270
3 68 394 395
3 68 396 398
3 396 16 397
3 396 397 398
3 399 17 400
3 69 70 18
3 71 70 69
3 71 20 70
3 71 72 20
3 73 72 71
3 73 22 72
3 401 23 402
3 74 75 24
3 76 75 74
3 76 26 75
3 76 77 26
3 78 77 76
3 78 28 77
3 78 79 28
3 80 79 78
3 80 30 79
3 81 82 32
3 83 82 81
3 83 34 82
3 83 84 34
3 85 84 83
3 85 36 84
3 403 37 404
3 405 38 406
3 408 407 38
3 409 86 410
3 411 86 412
3 413 40 414
3 415 414 86
3 413 414 415
3 87 416 417
3 87 418 420
3 418 41 419
3 418 419 420
3 88 89 19
3 90 89 88
3 90 421 423
3 423 422 89
3 421 422 423
3 90 424 426
3 424 91 425
3 424 425 426
3 92 91 90
3 92 427 429
3 429 428 91
3 427 428 429
3 92 430 431
3 93 432 434
3 434 433 92
3 432 433 434
3 93 435 437
3 435 42 436
3 435 436 437
3 94 95 21
3 96 95 94
3 96 43 95
3 96 97 43
3 98 97 96
3 98 44 97
3 99 438 439
3 99 440 442
3 440 45 441
3 440 441 442
3 99 100 45
3 101 100 99
3 101 46 100
3 443 102 444
3 103 445 447
3 445 102 446
3 445 446 447
3 103 448 450
3 450 449 102
3 448 449 450
3 103 451 453
3 451 104 452
3 451 452 453
3 105 104 103
3 105 47 104
3 454 106 455
3 456 106 457
3 458 48 459
3 460 459 106
3 458 459 460
3 107 461 463
3 463 462 25
3 461 462 463
3 108 464 466
3 466 465 107
3 464 465 466
3 108 467 469
3 467 49 468
3 467 468 469
3 108 109 49
3 110 109 108
3 110 50 109
3 110 111 50
3 112 111 110
3 112 51 111
3 113 114 27
3 115 114 113
3 115 52 114
3 115 116 52
3 117 116 115
3 117 53 116
3 117 118 53
3 119 118 117
3 119 54 118
3 120 121 29
3 122 121 120
3 122 55 121
3 122 123 55
3 124 123 122
3 124 56 123
3 125 126 39
3 127 126 125
3 127 57 126
3 128 470 472
3 470 129 471
3 470 471 472
3 130 129 128
3 130 58 129
3 130 131 58
3 132 131 130
3 132 59 131
3 132 133 59
3 134 133 132
3 134 60 133
3 135 136 31
3 137 136 135
3 137 61 136
3 137 473 475
3 475 474 61
3 473 474 475
3 477 476 137
3 478 63 479
3 138 480 481
3 138 482 483
3 139 140 33
3 141 140 139
3 141 64 140
3 141 142 64
3 143 142 141
3 143 65 142
3 143 144 65
3 145 144 143
3 145 66 144
3 146 147 35
3 148 147 146
3 148 67 147
3 148 149 67
3 150 149 148
3 150 62 149
3 151 484 485
3 151 486 487
3 151 488 489
3 152 490 492
3 492 491 151
3 490 491 492
3 152 493 495
3 493 5 494
3 493 494 495
3 496 153 497
3 154 498 500
3 498 153 499
3 498 499 500
3 154 19 153
3 70 154 18
3 155 154 70
3 155 19 154
3 155 88 19
3 156 88 155
3 156 6 88
3 156 157 6
3 158 157 156
3 158 21 157
3 72 158 20
3 159 158 72
3 159 21 158
3 159 94 21
3 160 94 159
3 160 7 94
3 161 501 502
3 161 503 505
3 503 8 504
3 503 504 505
3 162 506 507
3 162 508 510
3 508 9 509
3 508 509 510
3 163 511 512
3 164 513 515
3 515 514 163
3 513 514 515
3 164 516 518
3 516 25 517
3 516 517 518
3 75 164 24
3 165 164 75
3 165 25 164
3 165 107 25
3 166 107 165
3 166 10 107
3 166 167 10
3 168 167 166
3 168 27 167
3 77 168 26
3 169 168 77
3 169 27 168
3 169 113 27
3 170 113 169
3 170 11 113
3 170 171 11
3 172 171 170
3 172 29 171
3 79 172 28
3 173 172 79
3 173 29 172
3 173 120 29
3 174 120 173
3 174 12 120
3 175 519 520
3 175 521 522
3 175 523 525
3 523 128 524
3 523 524 525
3 176 128 175
3 176 13 128
3 176 177 13
3 526 177 527
3 528 527 176
3 526 527 528
3 529 31 530
3 531 530 177
3 529 530 531
3 532 31 533
3 534 135 535
3 536 535 31
3 534 535 536
3 537 135 538
3 540 539 135
3 178 179 4
3 180 179 178
3 180 33 179
3 82 180 32
3 181 180 82
3 181 33 180
3 181 139 33
3 182 139 181
3 182 15 139
3 182 183 15
3 184 183 182
3 184 35 183
3 84 184 34
3 185 184 84
3 185 35 184
3 185 146 35
3 186 146 185
3 186 14 146
3 541 18 542
3 187 543 544
3 187 545 547
3 545 18 546
3 545 546 547
3 187 69 18
3 188 69 187
3 188 1 69
3 548 163 549
3 189 550 552
3 550 163 551
3 550 551 552
3 189 24 163
3 553 189 554
3 190 555 557
3 555 189 556
3 555 556 557
3 190 24 189
3 190 74 24
3 191 74 190
3 191 2 74
3 191 192 2
3 193 192 191
3 193 39 192
3 558 193 559
3 560 559 38
3 558 559 560
3 194 561 563
3 561 193 562
3 561 562 563
3 194 39 193
3 194 125 39
3 564 125 565
3 566 565 194
3 564 565 566
3 568 567 125
3 569 4 570
3 195 571 572
3 195 573 575
3 573 4 574
3 573 574 575
3 195 178 4
3 196 178 195
3 196 32 178
3 86 576 578
3 576 196 577
3 576 577 578
3 197 196 86
3 197 32 196
3 197 81 32
3 198 81 197
3 198 3 81
3 199 579 580
3 199 581 582
3 153 583 584
3 200 585 587
3 587 586 153
3 585 586 587
3 200 588 589
3 89 200 19
3 201 200 89
3 201 590 592
3 592 591 200
3 590 591 592
3 201 593 594
3 596 595 201
3 91 597 598
3 600 599 91
3 157 93 6
3 202 93 157
3 202 42 93
3 95 202 21
3 203 202 95
3 203 42 202
3 203 601 603
3 603 602 42
3 601 602 603
3 204 604 606
3 606 605 203
3 604 605 606
3 204 607 608
3 204 609 610
3 205 611 613
3 613 612 204
3 611 612 613
3 205 614 615
3 97 205 43
3 206 205 97
3 206 616 618
3 618 617 205
3 616 617 618
3 206 619 621
3 619 207 620
3 619 620 621
3 208 207 206
3 208 0 207
3 207 622 623
3 207 624 626
3 624 0 625
3 624 625 626
3 627 209 628
3 629 209 630
3 631 0 632
3 633 632 209
3 631 632 633
3 634 17 635
3 636 17 637
3 638 152 639
3 640 639 17
3 638 639 640
3 210 641 643
3 641 152 642
3 641 642 643
3 210 5 152
3 644 210 645
3 211 646 648
3 646 210 647
3 646 647 648
3 211 5 210
3 211 87 5
3 212 87 211
3 212 41 87
3 100 212 45
3 213 212 100
3 213 41 212
3 213 199 41
3 214 199 213
3 214 649 651
3 651 650 199
3 649 650 651
3 102 652 653
3 655 654 102
3 104 656 657
3 215 658 660
3 660 659 104
3 658 659 660
3 215 661 662
3 215 663 664
3 666 665 215
3 106 667 668
3 216 669 671
3 671 670 106
3 669 670 671
3 216 672 673
3 216 674 676
3 674 162 675
3 674 675 676
3 217 162 216
3 217 9 162
3 677 48 678
3 680 679 25
3 218 681 682
3 218 683 685
3 683 48 684
3 683 684 685
3 218 217 48
3 219 217 218
3 219 9 217
3 219 105 9
3 220 105 219
3 220 47 105
3 109 220 49
3 221 220 109
3 221 47 220
3 221 686 688
3 688 687 47
3 686 687 688
3 690 689 221
3 222 691 692
3 222 693 695
3 693 23 694
3 693 694 695
3 111 222 50
3 223 222 111
3 223 23 222
3 223 161 23
3 224 161 223
3 224 8 161
3 167 112 10
3 225 112 167
3 225 51 112
3 114 225 27
3 226 225 114
3 226 51 225
3 226 224 51
3 227 224 226
3 227 8 224
3 227 101 8
3 228 101 227
3 228 46 101
3 116 228 52
3 229 228 116
3 229 46 228
3 229 214 46
3 230 214 229
3 230 696 698
3 698 697 214
3 696 697 698
3 230 699 701
3 699 68 700
3 699 700 701
3 231 68 230
3 231 16 68
3 118 231 53
3 232 231 118
3 232 16 231
3 232 702 704
3 704 703 16
3 702 703 704
3 233 705 707
3 707 706 232
3 705 706 707
3 233 708 709
3 171 119 11
3 234 119 171
3 234 54 119
3 121 234 29
3 235 234 121
3 235 54 234
3 235 233 54
3 236 233 235
3 236 710 712
3 712 711 233
3 710 711 712
3 236 713 714
3 237 715 717
3 717 716 236
3 715 716 717
3 237 718 720
3 718 40 719
3 718 719 720
3 123 237 55
3 238 237 123
3 238 40 237
3 238 198 40
3 239 198 238
3 239 3 198
3 192 80 2
3 240 80 192
3 240 30 80
3 126 240 39
3 241 240 126
3 241 30 240
3 241 174 30
3 242 174 241
3 242 12 174
3 721 127 722
3 243 723 725
3 723 127 724
3 723 724 725
3 243 57 127
3 129 726 728
3 726 243 727
3 726 727 728
3 244 243 129
3 244 57 243
3 244 242 57
3 245 242 244
3 245 12 242
3 245 124 12
3 246 124 245
3 246 56 124
3 131 246 58
3 247 246 131
3 247 56 246
3 247 239 56
3 248 239 247
3 248 3 239
3 248 85 3
3 249 85 248
3 249 36 85
3 133 249 59
3 250 249 133
3 250 36 249
3 250 186 36
3 251 186 250
3 251 14 186
3 177 134 13
3 252 134 177
3 252 60 134
3 136 252 31
3 253 252 136
3 253 60 252
3 253 251 60
3 254 251 253
3 254 14 251
3 254 150 14
3 255 150 254
3 255 62 150
3 729 255 730
3 731 730 61
3 729 730 731
3 256 732 734
3 732 255 733
3 732 733 734
3 256 62 255
3 256 257 62
3 209 257 256
3 209 0 257
3 735 37 736
3 258 737 738
3 258 739 741
3 739 37 740
3 739 740 741
3 258 188 37
3 259 188 258
3 259 1 188
3 179 138 4
3 260 138 179
3 260 742 744
3 744 743 138
3 742 743 744
3 140 260 33
3 745 260 746
3 747 746 140
3 745 746 747
3 749 748 260
3 750 63 751
3 142 752 754
3 754 753 64
3 752 753 754
3 261 755 757
3 757 756 142
3 755 756 757
3 261 758 760
3 758 63 759
3 758 759 760
3 261 259 63
3 262 259 261
3 262 1 259
3 262 73 1
3 263 73 262
3 263 22 73
3 144 263 65
3 264 263 144
3 264 22 263
3 264 160 22
3 265 160 264
3 265 7 160
3 183 145 15
3 266 145 183
3 266 66 145
3 147 266 35
3 267 266 147
3 267 66 266
3 267 265 66
3 268 265 267
3 268 7 265
3 268 98 7
3 269 98 268
3 269 44 98
3 149 269 67
3 270 269 149
3 270 44 269
3 270 208 44
3 257 208 270
3 257 0 208
