ply
format ascii 1.0
element vertex 345
property float x
property float y
property float z
element face 347
property list uchar int vertex_index
end_header
9.998684 64.695969 -32.218971
20.324636 36.093727 -31.753332
4.757772 75.901688 -29.055029
6.982426 51.358734 -35.054306
12.271032 37.570675 -33.429329
15.316761 50.134987 -32.290161
19.201355 22.955685 -31.11706
8.141315 58.196533 -34.319084
10.78145 51.227997 -34.149879
12.738132 57.546776 -32.395973
7.216644 70.983757 -31.282473
5.466129 64.404495 -33.815689
4.368822 57.214745 -35.105469
16.10141 36.717701 -32.892197
15.427614 30.164825 -32.199768
19.18808 29.725487 -31.973055
12.584885 70.618546 -29.207952
15.429079 63.52523 -29.645628
9.683651 76.644913 -27.864344
6.518005 44.444134 -34.396523
9.027424 38.302338 -33.35778
9.569941 44.743111 -34.426636
13.367311 43.953384 -33.640076
17.804625 42.921249 -32.105316
20.427177 48.770393 -30.007582
11.956772 30.949566 -31.949911
15.703634 23.198959 -30.574759
8.981756 61.501335 -33.416382
10.340996 58.025032 -33.485756
11.387236 61.190804 -32.368233
8.595028 67.984352 -31.880869
6.256516 67.785316 -32.683479
7.607719 64.777328 -33.17112
6.793848 61.425629 -34.180611
18.185764 36.370087 -32.383682
17.59272 33.182529 -32.440468
19.610641 32.963428 -32.027397
15.629454 69.89743 -27.894617
11.121744 73.801521 -28.68799
6.664667 47.884926 -34.875374
7.945538 44.801136 -34.501457
8.280073 48.133125 -34.794266
12.961613 50.748764 -33.316757
12.071104 47.60408 -33.92662
14.238256 47.07238 -33.149193
15.519213 43.433662 -32.942619
16.564613 46.484665 -32.208488
16.770187 59.789673 -29.720392
3.791517 77.766563 -27.349474
10.569931 37.984512 -33.451691
10.402294 34.736195 -32.682198
12.028358 34.299438 -32.804504
17.240803 26.508259 -31.600164
15.459693 26.7374 -31.449488
17.450806 23.020195 -30.879213
17.876926 19.440636 -30.106688
19.591047 19.445946 -30.511503
7.474808 54.807175 -34.87339
8.787592 51.471138 -34.73407
9.474504 54.777267 -34.292099
11.667387 54.418701 -33.437729
14.045723 53.839447 -32.357559
5.917662 73.635696 -30.357504
4.209927 67.078972 -33.159874
3.59141 63.507164 -34.135635
4.837427 60.873352 -34.634338
6.148441 57.957581 -34.858925
14.11977 37.129356 -33.246704
13.774815 33.870403 -32.828796
15.635705 33.488071 -32.711464
17.280472 29.895905 -32.155327
19.057018 26.386803 -31.640184
11.197897 67.748833 -30.793974
12.615635 64.248375 -31.01362
14.029764 67.164825 -29.50017
7.029306 76.534935 -28.608839
8.356434 73.955803 -29.661715
9.764191 71.008995 -30.368395
7.677013 38.461861 -33.210693
7.762884 41.540043 -33.933533
9.229492 41.500618 -34.023712
10.884567 41.210995 -33.967842
10.082851 47.995193 -34.482292
11.37953 44.420471 -34.142982
12.712152 40.785751 -33.728531
14.700785 40.314831 -33.29512
16.827894 39.861485 -32.690514
19.052399 39.458382 -31.959654
13.99194 60.590721 -31.102583
15.316752 56.859398 -31.127234
16.590883 53.129555 -31.136797
17.820286 49.46096 -31.156351
19.011919 45.89315 -31.183443
20.173244 42.443443 -31.192293
8.901052 35.158146 -32.532127
10.341623 31.429508 -31.760435
13.650898 30.522949 -32.118233
13.722416 27.067181 -31.221453
16.125835 19.5541 -29.687994
20.886726 26.366711 -31.558802
20.946251 23.001575 -31.261377
21.267912 19.568184 -30.862741
3.828753 75.303143 -29.115307
3.345625 76.23558 -28.262529
4.274644 76.834125 -28.202252
6.174127 51.063415 -35.090935
6.326703 52.877674 -35.114647
6.823546 49.62183 -34.96484
6.015247 49.326511 -35.001469
6.174127 51.063415 -35.090935
6.099253 70.725448 -31.585037
5.449763 72.051418 -31.122553
6.567153 72.309726 -30.819989
16.339154 68.107674 -27.999969
17.236333 69.411891 -27.216791
9.004942 77.87463 -27.270344
10.440099 77.815517 -26.893297
8.356478 76.589924 -28.236591
7.67777 77.819641 -27.642592
9.004942 77.87463 -27.270344
7.140444 42.992088 -34.165028
7.145846 41.351711 -33.831669
6.523407 42.803757 -34.063164
16.683418 56.450893 -30.456532
16.04347 58.324535 -30.423813
17.410136 57.916031 -29.753111
17.320484 54.585972 -30.461314
15.953817 54.994477 -31.132016
16.683418 56.450893 -30.456532
19.848204 50.561714 -29.943457
21.228506 50.158344 -29.343101
19.123731 49.115676 -30.581967
18.544758 50.906998 -30.517842
19.848204 50.561714 -29.943457
21.365434 42.221311 -30.722158
20.847883 43.88123 -30.669418
22.040073 43.659098 -30.199284
20.744262 40.775972 -31.170084
21.365434 42.221311 -30.722158
3.589349 56.558022 -35.09095
3.745934 58.49527 -34.943444
5.912123 43.960358 -34.261673
5.879209 45.776266 -34.574696
6.523407 42.803757 -34.063164
5.912123 43.960358 -34.261673
11.991515 29.218212 -31.461767
11.183941 29.458183 -31.367029
11.149197 31.189537 -31.855173
14.831691 23.343134 -30.413519
13.841082 25.277245 -30.736866
14.713025 25.13307 -30.898106
15.914734 21.376529 -30.131377
15.042791 21.520705 -29.970137
14.831691 23.343134 -30.413519
18.178659 17.615763 -29.744999
19.031873 17.660351 -30.016859
21.777549 24.753679 -31.431244
21.792932 26.395789 -31.458811
21.807312 23.071112 -31.282531
20.916488 24.684143 -31.410089
21.777549 24.753679 -31.431244
22.31804 17.993009 -30.911163
22.085221 19.681877 -31.001387
21.541346 17.829803 -30.662817
22.31804 17.993009 -30.911163
14.894139 71.574886 -27.704338
14.10717 70.257988 -28.551285
13.371854 71.935444 -28.361005
16.516652 71.144936 -27.067366
14.894139 71.574886 -27.704338
17.236333 69.411891 -27.216791
16.516652 71.144936 -27.067366
11.174845 76.47308 -27.372559
10.440099 77.815517 -26.893297
11.893892 75.051384 -27.784382
10.402697 75.223217 -28.276167
11.174845 76.47308 -27.372559
12.640283 73.526931 -28.101025
11.893892 75.051384 -27.784382
13.371854 71.935444 -28.361005
11.853314 72.210033 -28.947971
12.640283 73.526931 -28.101025
17.586542 61.198425 -28.974693
16.099633 61.657452 -29.68301
16.915988 63.066204 -28.937311
18.228457 59.32378 -29.028993
17.586542 61.198425 -28.974693
17.410136 57.916031 -29.753111
18.228457 59.32378 -29.028993
21.750536 48.42501 -29.46035
21.228506 50.158344 -29.343101
20.974849 47.044704 -30.077063
21.750536 48.42501 -29.46035
2.991134 77.002167 -27.285992
3.425498 78.501423 -26.297554
2.991134 77.002167 -27.285992
3.345625 76.23558 -28.262529
4.217289 55.331387 -35.16077
5.019901 55.805679 -35.140228
5.95254 47.496662 -34.814121
6.015247 49.326511 -35.001469
6.591336 46.16453 -34.635948
5.879209 45.776266 -34.574696
5.95254 47.496662 -34.814121
19.888934 17.663006 -30.219267
19.031873 17.660351 -30.016859
18.733987 19.443291 -30.309095
4.880974 73.208256 -30.543354
4.301029 74.341251 -29.892117
5.337717 74.768692 -29.706266
4.880974 73.208256 -30.543354
5.449763 72.051418 -31.122553
5.61919 69.126228 -32.28554
6.099253 70.725448 -31.585037
6.73658 69.384536 -31.982976
4.595895 68.773056 -32.523738
5.61919 69.126228 -32.28554
5.233222 67.432144 -32.921677
3.648151 68.242951 -32.65783
4.595895 68.773056 -32.523738
3.340723 66.44928 -33.230908
3.648151 68.242951 -32.65783
3.031465 64.663376 -33.718788
3.340723 66.44928 -33.230908
3.900669 65.293068 -33.647755
2.792928 62.775978 -34.136246
3.031465 64.663376 -33.718788
3.357229 61.64148 -34.458527
2.792928 62.775978 -34.136246
3.980237 60.324573 -34.707878
3.357229 61.64148 -34.458527
4.214418 62.190258 -34.384986
4.603124 59.044049 -34.869903
3.745934 58.49527 -34.943444
3.980237 60.324573 -34.707878
5.909711 56.177098 -35.016956
5.019901 55.805679 -35.140228
5.258631 57.586163 -34.982197
6.572894 54.601895 -35.024189
5.909711 56.177098 -35.016956
6.811625 56.382378 -34.866157
7.228617 53.082954 -34.963848
6.326703 52.877674 -35.114647
6.572894 54.601895 -35.024189
15.539309 66.741371 -28.802746
14.829609 68.531127 -28.697394
16.339154 68.107674 -27.999969
16.238967 64.921573 -28.875475
14.729422 65.345028 -29.572899
15.539309 66.741371 -28.802746
16.915988 63.066204 -28.937311
16.238967 64.921573 -28.875475
4.319612 79.130623 -26.331449
3.425498 78.501423 -26.297554
4.81678 78.241478 -27.257248
4.319612 79.130623 -26.331449
5.299907 77.30904 -28.110025
4.274644 76.834125 -28.202252
4.81678 78.241478 -27.257248
6.435675 77.625664 -27.88693
7.67777 77.819641 -27.642592
5.893539 76.218311 -28.831934
5.299907 77.30904 -28.110025
6.435675 77.625664 -27.88693
20.98226 34.455383 -31.62278
21.390664 35.982258 -31.390845
7.102911 39.81262 -33.470249
7.166393 38.448531 -33.142948
7.719948 40.000952 -33.572113
7.102911 39.81262 -33.470249
7.145846 41.351711 -33.831669
17.930056 52.741295 -30.508065
17.320484 54.585972 -30.461314
17.205585 51.295258 -31.146574
17.930056 52.741295 -30.508065
18.544758 50.906998 -30.517842
20.267221 45.606083 -30.664994
19.719548 47.331772 -30.595512
20.974849 47.044704 -30.077063
19.592582 44.168296 -31.187868
20.267221 45.606083 -30.664994
20.847883 43.88123 -30.669418
20.18384 39.283441 -31.553764
19.612822 40.950913 -31.575973
20.744262 40.775972 -31.170084
20.819958 37.601114 -31.450603
19.688518 37.776055 -31.856493
20.18384 39.283441 -31.553764
21.390664 35.982258 -31.390845
20.819958 37.601114 -31.450603
3.828753 75.303143 -29.115307
4.301029 74.341251 -29.892117
3.589349 56.558022 -35.09095
4.217289 55.331387 -35.16077
7.60555 37.04019 -32.825794
7.166393 38.448531 -33.142948
8.217569 35.388333 -32.486511
7.60555 37.04019 -32.825794
8.289032 36.810004 -32.87141
8.848709 33.570194 -32.081151
8.217569 35.388333 -32.486511
9.568995 31.705875 -31.695305
8.848709 33.570194 -32.081151
9.621337 33.293827 -32.146281
10.351647 29.713234 -31.269547
9.568995 31.705875 -31.695305
10.351647 29.713234 -31.269547
11.183941 29.458183 -31.367029
12.874337 27.27702 -31.097538
11.991515 29.218212 -31.461767
12.839594 29.008374 -31.585682
12.874337 27.27702 -31.097538
13.841082 25.277245 -30.736866
15.230244 19.668451 -29.499778
15.042791 21.520705 -29.970137
16.409031 17.688968 -29.283951
15.230244 19.668451 -29.499778
17.303113 17.672495 -29.535652
17.00138 19.497368 -29.897341
18.178659 17.615763 -29.744999
16.409031 17.688968 -29.283951
17.303113 17.672495 -29.535652
20.625262 32.890234 -31.759813
19.967638 34.528577 -31.890365
20.98226 34.455383 -31.62278
20.362622 31.303709 -31.84324
20.625262 32.890234 -31.759813
20.151342 29.684739 -31.816069
19.399361 31.344458 -32.000226
20.362622 31.303709 -31.84324
21.000664 28.00535 -31.608942
21.792932 26.395789 -31.458811
20.037403 28.046099 -31.765929
20.151342 29.684739 -31.816069
21.000664 28.00535 -31.608942
21.924391 21.398573 -31.200705
21.807312 23.071112 -31.282531
21.107081 21.284879 -31.062059
21.924391 21.398573 -31.200705
22.085221 19.681877 -31.001387
20.702914 17.768684 -30.487198
20.429479 19.507065 -30.687122
21.541346 17.829803 -30.662817
19.888934 17.663006 -30.219267
20.702914 17.768684 -30.487198
3 0 29 27
3 0 32 30
3 0 27 32
3 1 36 34
3 3 41 39
3 5 44 42
3 5 46 44
3 2 102 104
3 104 103 48
3 102 103 104
3 3 105 106
3 3 107 109
3 107 39 108
3 107 108 109
3 4 51 49
3 6 54 52
3 6 56 54
3 7 59 57
3 9 60 28
3 9 61 60
3 10 110 112
3 112 111 62
3 110 111 112
3 11 63 31
3 11 64 63
3 11 65 64
3 7 66 33
3 7 57 66
3 13 69 67
3 15 70 35
3 15 71 70
3 16 74 72
3 114 113 37
3 18 115 116
3 18 117 119
3 117 75 118
3 117 118 119
3 18 76 75
3 16 77 38
3 16 72 77
3 19 120 122
3 120 79 121
3 120 121 122
3 21 80 40
3 21 81 80
3 8 82 58
3 22 83 43
3 22 84 83
3 22 85 84
3 23 86 45
3 23 87 86
3 17 88 73
3 123 89 124
3 125 124 47
3 123 124 125
3 126 90 127
3 128 127 89
3 126 127 128
3 24 129 130
3 24 131 133
3 131 91 132
3 131 132 133
3 24 92 91
3 134 93 135
3 134 135 136
3 138 137 93
3 12 139 140
3 19 141 142
3 19 143 144
3 20 94 78
3 25 95 50
3 25 145 147
3 147 146 95
3 145 146 147
3 14 96 68
3 26 97 53
3 26 148 150
3 150 149 97
3 148 149 150
3 26 151 153
3 151 98 152
3 151 152 153
3 155 154 55
3 156 99 157
3 158 100 159
3 160 159 99
3 158 159 160
3 161 101 162
3 164 163 101
3 27 28 7
3 29 28 27
3 29 9 28
3 30 31 10
3 32 31 30
3 32 11 31
3 32 33 11
3 27 33 32
3 27 7 33
3 34 35 13
3 36 35 34
3 36 15 35
3 165 37 166
3 167 166 16
3 165 166 167
3 168 37 169
3 171 170 37
3 172 18 173
3 174 38 175
3 176 175 18
3 174 175 176
3 177 38 178
3 179 16 180
3 181 180 38
3 179 180 181
3 39 40 19
3 41 40 39
3 41 21 40
3 42 43 8
3 44 43 42
3 44 22 43
3 44 45 22
3 46 45 44
3 46 23 45
3 182 47 183
3 184 183 17
3 182 183 184
3 185 47 186
3 188 187 47
3 189 24 190
3 192 191 24
3 48 193 194
3 196 195 48
3 198 197 12
3 39 199 200
3 39 201 203
3 201 19 202
3 201 202 203
3 49 50 20
3 51 50 49
3 51 25 50
3 52 53 14
3 54 53 52
3 54 26 53
3 54 55 26
3 56 55 54
3 56 204 206
3 206 205 55
3 204 205 206
3 57 58 3
3 59 58 57
3 59 8 58
3 28 59 7
3 60 59 28
3 60 8 59
3 60 42 8
3 61 42 60
3 61 5 42
3 62 207 209
3 209 208 2
3 207 208 209
3 211 210 62
3 31 212 214
3 214 213 10
3 212 213 214
3 63 215 217
3 217 216 31
3 215 216 217
3 63 218 219
3 63 220 221
3 64 222 224
3 224 223 63
3 222 223 224
3 64 225 226
3 64 227 228
3 65 229 231
3 231 230 64
3 229 230 231
3 65 232 234
3 232 12 233
3 232 233 234
3 33 65 11
3 66 65 33
3 66 12 65
3 66 235 237
3 237 236 12
3 235 236 237
3 57 238 240
3 240 239 66
3 238 239 240
3 57 241 243
3 241 3 242
3 241 242 243
3 67 68 4
3 69 68 67
3 69 14 68
3 35 69 13
3 70 69 35
3 70 14 69
3 70 52 14
3 71 52 70
3 71 6 52
3 72 73 0
3 74 73 72
3 74 17 73
3 37 74 16
3 244 74 245
3 246 245 37
3 244 245 246
3 247 17 248
3 249 248 74
3 247 248 249
3 251 250 17
3 252 48 253
3 254 48 255
3 256 2 257
3 258 257 48
3 256 257 258
3 75 259 260
3 75 261 263
3 261 2 262
3 261 262 263
3 75 62 2
3 76 62 75
3 76 10 62
3 38 76 18
3 77 76 38
3 77 10 76
3 77 30 10
3 72 30 77
3 72 0 30
3 265 264 1
3 266 78 267
3 79 268 270
3 268 78 269
3 268 269 270
3 79 20 78
3 40 79 19
3 80 79 40
3 80 20 79
3 80 49 20
3 81 49 80
3 81 4 49
3 58 41 3
3 82 41 58
3 82 21 41
3 43 82 8
3 83 82 43
3 83 21 82
3 83 81 21
3 84 81 83
3 84 4 81
3 84 67 4
3 85 67 84
3 85 13 67
3 45 85 22
3 86 85 45
3 86 13 85
3 86 34 13
3 87 34 86
3 87 1 34
3 73 29 0
3 88 29 73
3 88 9 29
3 47 88 17
3 89 88 47
3 89 9 88
3 89 61 9
3 90 61 89
3 90 5 61
3 271 90 272
3 91 273 275
3 273 90 274
3 273 274 275
3 91 5 90
3 91 46 5
3 92 46 91
3 92 23 46
3 276 92 277
3 278 277 24
3 276 277 278
3 93 279 281
3 279 92 280
3 279 280 281
3 93 23 92
3 93 87 23
3 282 87 283
3 284 283 93
3 282 283 284
3 285 1 286
3 287 286 87
3 285 286 287
3 289 288 1
3 291 290 2
3 293 292 12
3 78 294 295
3 94 296 298
3 298 297 78
3 296 297 298
3 94 299 300
3 50 94 20
3 95 94 50
3 95 301 303
3 303 302 94
3 301 302 303
3 95 304 305
3 307 306 95
3 68 51 4
3 96 51 68
3 96 25 51
3 53 96 14
3 97 96 53
3 97 25 96
3 97 308 310
3 310 309 25
3 308 309 310
3 312 311 97
3 98 313 314
3 98 315 316
3 55 98 26
3 317 98 318
3 319 318 55
3 317 318 319
3 321 320 98
3 322 36 323
3 324 323 1
3 322 323 324
3 325 36 326
3 327 15 328
3 329 328 36
3 327 328 329
3 99 330 331
3 99 332 334
3 332 15 333
3 332 333 334
3 99 71 15
3 100 71 99
3 100 6 71
3 335 100 336
3 101 337 339
3 337 100 338
3 337 338 339
3 101 6 100
3 101 56 6
3 340 56 341
3 342 341 101
3 340 341 342
3 344 343 56
