ply
format ascii 1.0
element vertex 729
property float x
property float y
property float z
element face 765
property list uchar int vertex_index
end_header
9.012888 -81.193024 -10.802362
16.179115 -53.338146 -12.451799
23.878307 -120.099564 -18.598379
9.300985 -108.816353 -16.79817
5.712626 -117.393219 -11.676729
18.888882 -66.531219 -16.307661
18.014568 -81.919662 -16.008543
12.382881 -65.674911 -12.314407
19.591356 -52.853291 -17.691515
12.0634 -124.464005 -12.638765
15.296179 -116.884613 -18.845968
21.810196 -104.282059 -20.782812
7.430115 -96.397644 -12.941547
18.041145 -95.172699 -18.384069
23.553223 -65.88163 -18.373224
13.901382 -58.575817 -10.567568
11.957544 -64.965622 -10.221846
14.279205 -58.842766 -12.950336
15.907524 -59.106659 -15.174166
17.446957 -53.187786 -15.179287
6.80835 -113.818031 -14.895702
9.712988 -118.141617 -15.938604
11.819756 -113.41214 -18.053396
18.169403 -111.133888 -20.073053
15.189245 -107.39949 -19.115465
4.13665 -94.900162 -9.099644
7.883289 -88.987793 -11.360723
22.902317 -80.44017 -18.516497
17.679905 -88.982483 -16.992842
22.866024 -86.820457 -19.456625
23.739681 -92.205353 -20.586348
15.196817 -53.373043 -9.634317
21.661869 -123.569427 -15.095968
3.611425 -112.318214 -10.393084
4.878407 -108.418213 -13.251961
13.88089 -74.1707 -13.585127
13.011673 -82.076019 -13.529577
18.553921 -74.303482 -15.77622
23.35268 -73.331741 -18.100752
10.584953 -73.303596 -11.301058
14.811499 -66.325272 -14.361176
19.052685 -59.143604 -17.196535
15.578838 -49.229218 -7.725309
17.727951 -49.212692 -10.762667
19.385601 -48.887589 -13.945679
15.858909 -125.956909 -12.027773
17.478765 -123.266273 -16.374857
13.373617 -121.355095 -16.493017
19.452917 -119.180275 -19.176508
22.014126 -113.765694 -20.699362
25.15086 -107.20359 -21.559412
2.328968 -99.64048 -6.568405
3.995409 -102.026299 -11.117901
7.853437 -103.101562 -14.985306
12.396406 -89.651436 -14.42737
12.37595 -96.567963 -16.021334
13.253731 -102.538567 -17.74132
19.399494 -100.288544 -19.728331
14.897846 -55.867599 -11.576712
13.983379 -58.70631 -11.773909
15.240336 -55.904636 -12.867964
15.782816 -55.935265 -14.121168
16.730812 -53.277546 -13.836147
27.294367 -117.901886 -19.207418
7.855177 -111.489265 -15.997972
9.108477 -113.856995 -16.646059
10.429506 -111.255753 -17.495035
13.359812 -110.554832 -18.682795
12.106983 -108.331833 -18.083845
6.937391 -84.40271 -9.381268
6.266479 -88.270233 -9.666407
8.37771 -85.119949 -10.937084
22.7934 -83.74147 -18.939775
25.095573 -82.296753 -20.323729
25.306238 -85.18589 -20.793375
14.344521 -55.742958 -8.931162
14.570232 -53.328255 -8.232784
20.641727 -124.783936 -12.811052
2.910652 -109.433151 -9.534975
4.057529 -110.554489 -11.976999
3.40011 -107.567749 -11.013613
16.426846 -70.410843 -14.944212
16.124401 -74.356552 -14.687838
18.758633 -70.407768 -15.961729
23.519411 -69.621437 -18.151075
11.790594 -70.495834 -6.17457
11.916557 -67.6147 -7.710262
9.772612 -72.745567 -10.165201
11.466238 -69.427353 -11.795397
12.647247 -69.862221 -12.864479
13.345701 -66.027527 -13.350517
17.761473 -55.921703 -16.461657
17.307846 -59.175648 -16.206743
19.231808 -55.81583 -17.545038
20.969246 -55.590271 -18.595945
21.035839 -52.552109 -18.869101
16.738367 -49.257549 -9.218304
18.122665 -47.488304 -9.695095
20.175472 -48.600384 -15.5403
13.934971 -125.419334 -12.46133
16.63796 -124.785934 -14.3866
14.629263 -124.128891 -14.697346
12.325773 -117.75985 -17.553507
11.466768 -119.894211 -16.2778
14.227459 -119.288078 -17.842573
16.270092 -120.51104 -17.998701
17.312569 -118.189262 -19.087183
20.651831 -116.629791 -20.062647
18.554497 -115.541306 -19.872435
19.924885 -107.833725 -20.4522
21.626804 -109.357574 -20.849157
23.377264 -105.872986 -21.204321
26.834398 -103.558495 -21.938547
25.186104 -102.156288 -21.571585
2.665468 -96.12516 -5.735722
3.940617 -98.533386 -10.043165
5.480019 -99.362823 -12.098253
5.683571 -102.755028 -13.18186
7.521385 -99.858101 -13.952452
15.466092 -82.150627 -14.792923
12.652016 -85.925926 -13.864693
15.185039 -85.902084 -15.178774
17.748615 -92.202904 -17.667299
14.986685 -92.900124 -16.473368
15.170965 -96.070877 -17.262022
12.688587 -99.685547 -16.90291
15.594797 -98.983086 -18.05266
16.279518 -101.618919 -18.787848
18.587086 -97.87133 -19.085161
24.573399 -94.485001 -21.118666
18.82856 -126.258553 -7.50152
21.16596 -62.574894 -17.711512
21.224075 -66.333542 -17.299154
23.429892 -62.178516 -18.739153
12.311895 -64.633682 -9.177404
13.000383 -61.637829 -10.540804
12.989708 -61.871696 -11.649067
13.323002 -62.120834 -12.737236
14.091251 -62.37291 -13.797039
14.899818 -58.983231 -14.087383
16.609543 -55.949375 -15.322001
18.391281 -53.054623 -16.465841
6.124538 -115.786667 -13.457554
7.502993 -118.018394 -13.974655
8.149637 -116.114632 -15.483189
10.607601 -115.946907 -17.156713
13.452028 -115.288666 -18.498053
16.612194 -114.159225 -19.564508
14.869333 -112.496147 -19.169016
16.556129 -109.405075 -19.637976
18.452896 -106.040398 -19.984968
3.372395 -93.79866 -7.079109
7.558622 -92.760239 -12.048914
20.524464 -81.354691 -17.229151
17.788647 -85.542084 -16.422186
20.349117 -84.824715 -17.654413
20.318726 -88.089989 -18.203932
20.493074 -91.116234 -18.826925
20.912064 -93.87899 -19.469767
23.17234 -89.647881 -20.020521
13.890337 -58.435661 -9.335798
14.640989 -55.819256 -10.261021
15.701649 -53.372261 -11.045338
22.740082 -122.011467 -17.032808
4.550886 -114.97422 -11.107677
4.969242 -113.297714 -12.795763
5.713406 -111.250885 -14.153496
6.864637 -108.843048 -15.192995
11.368021 -77.77449 -12.206642
10.807255 -81.738159 -12.194639
13.432476 -78.14299 -13.440819
15.794797 -78.286957 -14.628498
18.290649 -78.157974 -15.788382
21.17284 -70.155449 -17.011362
21.008743 -73.970932 -16.894323
20.770376 -77.721222 -16.968008
23.118156 -76.955078 -18.227167
11.888533 -73.192871 -4.602966
8.729515 -76.609055 -9.686598
9.758505 -77.241516 -10.941397
11.98686 -73.799133 -12.451828
14.339464 -70.210251 -13.917055
16.70108 -66.512054 -15.3416
15.321262 -62.594326 -14.817795
16.976421 -62.736992 -15.796865
18.966911 -62.747322 -16.749128
21.050074 -58.962517 -18.175417
15.529999 -51.200832 -8.753807
16.341927 -51.192516 -10.226526
17.039124 -51.1287 -11.723143
19.273935 -47.412132 -11.30612
18.590736 -49.090294 -12.345188
17.697672 -51.012829 -13.225504
18.398287 -50.844749 -14.711592
19.211853 -50.617737 -16.160036
20.187937 -50.317505 -17.556826
21.347637 -49.923382 -18.901976
17.008331 -126.745491 -8.580624
15.141198 -126.785767 -9.371994
17.793562 -126.043068 -11.295965
18.657953 -125.010452 -13.769768
19.585527 -123.634811 -15.909845
20.580585 -121.907143 -17.666803
12.674538 -123.080132 -14.759495
15.392361 -122.492737 -16.546045
18.405418 -121.396454 -17.965075
21.661634 -119.827263 -19.040777
22.84973 -117.402863 -20.070883
24.157272 -114.65184 -20.82416
25.579687 -111.599907 -21.381529
20.001522 -112.588814 -20.432112
23.526308 -110.61438 -21.170935
27.093134 -108.27668 -21.824926
2.26232 -103.059074 -7.545086
2.985874 -97.431099 -7.883081
2.862503 -100.966614 -8.875204
3.001184 -104.360054 -9.952648
4.306446 -105.334198 -12.218699
6.142004 -105.925468 -14.239613
8.443047 -106.094955 -15.953634
10.331547 -85.648613 -12.447878
9.974274 -89.467224 -12.962536
9.771103 -93.154549 -13.699902
15.007009 -89.498642 -15.756468
12.290279 -93.211815 -15.169601
9.75655 -96.670006 -14.592075
9.961521 -99.974312 -15.553358
10.411259 -103.033707 -16.497019
11.123529 -105.82386 -17.353491
14.086077 -105.111557 -18.485628
17.233332 -103.970924 -19.434153
20.477665 -102.423485 -20.293955
21.594948 -96.364487 -20.086443
22.543594 -98.568932 -20.647371
23.747129 -100.496513 -21.141756
26.987041 -98.222336 -22.014597
25.586337 -119.000725 -18.902898
26.668387 -118.938877 -18.495241
24.960356 -120.037716 -18.190722
24.482051 -118.967007 -19.205609
26.190081 -117.868168 -19.510128
25.586337 -119.000725 -18.902898
26.117867 -79.931904 -20.886797
25.100065 -80.735199 -20.121035
26.185296 -81.403084 -21.069712
26.117867 -79.931904 -20.886797
14.161989 -53.276815 -7.542701
14.232749 -54.47198 -7.914008
20.165847 -125.228764 -11.527672
21.592954 -124.449917 -12.157147
2.684597 -107.884949 -9.049601
2.587522 -108.684708 -8.233144
2.929326 -106.952247 -9.788919
3.155381 -108.50045 -10.274294
2.684597 -107.884949 -9.049601
12.369575 -65.95404 -7.915383
12.309473 -67.377182 -7.213199
11.619359 -67.317657 -11.523402
12.160983 -65.493774 -11.790952
11.92456 -67.551132 -12.054902
11.161037 -69.193878 -11.263897
11.619359 -67.317657 -11.523402
18.1061 -46.66225 -9.178097
17.456072 -47.47744 -8.921958
12.999185 -124.94167 -12.550047
12.712136 -125.465683 -11.313987
11.776351 -124.988019 -11.402705
6.3928 -118.481788 -11.8949
5.578949 -118.022972 -10.62348
2.970578 -94.339401 -5.437131
2.825184 -95.402618 -4.724833
6.455067 -97.880234 -12.5199
5.499532 -97.575974 -11.593122
6.47458 -96.093384 -12.014769
18.45752 -126.407299 -6.113354
19.68743 -125.809654 -6.813978
23.304674 -60.38419 -18.966639
22.297926 -62.376705 -18.225333
22.172708 -60.582379 -18.452818
13.450882 -60.106823 -10.554186
13.105975 -61.523644 -9.976641
13.556475 -59.992638 -9.990023
6.834939 -90.532772 -10.805727
6.026534 -90.173992 -9.958569
7.074884 -88.629013 -10.513565
7.720956 -90.874016 -11.704819
6.672605 -92.418995 -11.149822
6.834939 -90.532772 -10.805727
25.540014 -86.501499 -21.039713
26.483216 -84.198834 -21.505383
13.845054 -58.346747 -8.707489
13.669832 -59.797157 -8.796048
23.245577 -122.631305 -15.556181
22.66064 -123.317516 -14.502946
22.200975 -122.790447 -16.064388
23.784683 -121.852326 -16.524601
23.245577 -122.631305 -15.556181
3.512975 -113.013492 -9.449132
3.166723 -111.618911 -9.08415
4.081156 -113.646217 -10.750381
3.982705 -114.341496 -9.806428
3.512975 -113.013492 -9.449132
12.34255 -71.524982 -4.916421
12.461289 -72.775993 -4.145538
11.192882 -72.208561 -5.830811
11.275897 -70.781075 -6.638478
11.584436 -66.510613 -9.457763
11.761611 -66.344642 -8.935542
12.134719 -64.799652 -9.699625
21.9282 -55.39756 -19.126669
21.823364 -53.853838 -19.313142
14.905631 -49.1834 -7.007689
15.422308 -48.295238 -7.19756
15.063025 -50.190035 -7.521704
14.905631 -49.1834 -7.007689
15.554419 -50.215025 -8.239558
15.038605 -51.175842 -8.035953
15.063025 -50.190035 -7.521704
20.078115 -46.577706 -11.612255
19.430366 -46.63275 -10.778694
18.988169 -48.988941 -13.145433
19.431801 -48.159607 -12.657519
19.829234 -48.058255 -13.457765
20.114166 -49.419443 -16.633856
19.693663 -49.60906 -15.850168
20.595976 -48.410766 -16.323988
20.602208 -49.269327 -17.332251
19.699895 -50.467621 -16.858431
20.114166 -49.419443 -16.633856
22.171151 -48.531115 -19.514594
21.648543 -48.831016 -18.768887
22.014635 -49.667299 -19.557562
22.171151 -48.531115 -19.514594
15.761188 -127.011704 -7.555311
16.673645 -126.936775 -7.166472
15.500053 -126.371338 -10.699884
14.21331 -126.57687 -9.631643
14.572166 -126.162441 -10.959532
9.394604 -119.065601 -15.15182
8.289607 -119.00399 -14.169846
8.60799 -118.080005 -14.95663
12.092641 -121.520775 -15.56323
11.139217 -120.790333 -15.455622
12.420192 -120.624653 -16.385408
13.024078 -122.217613 -15.626256
11.743102 -122.383294 -14.696469
12.092641 -121.520775 -15.56323
26.904612 -105.957455 -21.894112
27.875749 -106.494 -22.026868
26.121997 -107.740135 -21.692169
28.531921 -102.243863 -22.297149
27.677107 -101.628685 -22.154434
2.21161 -100.568367 -5.84415
2.365668 -98.877907 -5.444371
2.295644 -101.349777 -7.056745
2.178286 -102.277664 -6.332491
2.21161 -100.568367 -5.84415
24.103165 -97.528512 -21.122179
23.558496 -96.526967 -20.883018
25.118068 -95.486546 -21.357827
24.704933 -98.492302 -21.369371
23.145361 -99.532723 -20.894564
24.103165 -97.528512 -21.122179
26.324889 -97.355213 -21.805792
25.367085 -99.359424 -21.578176
24.704933 -98.492302 -21.369371
28.354038 -117.747895 -18.703443
26.668387 -118.938877 -18.495241
29.014775 -116.638821 -19.369648
28.354038 -117.747895 -18.703443
27.939901 -116.688061 -19.764238
29.014775 -116.638821 -19.369648
27.939901 -116.688061 -19.764238
26.190081 -117.868168 -19.510128
6.601935 -86.336472 -9.523837
5.757078 -87.826332 -8.812717
6.092534 -85.892571 -8.670148
23.948978 -81.457558 -19.429058
22.847859 -82.09082 -18.728136
24.003437 -79.806907 -19.217419
23.944487 -83.019112 -19.631752
23.948978 -81.457558 -19.429058
25.100065 -80.735199 -20.121035
26.290629 -82.847653 -21.304535
25.200906 -83.741321 -20.558552
26.185296 -81.403084 -21.069712
26.483216 -84.198834 -21.505383
26.290629 -82.847653 -21.304535
14.119893 -55.679331 -8.263197
14.072147 -57.000395 -8.505171
14.457377 -54.535607 -8.581973
14.119893 -55.679331 -8.263197
14.232749 -54.47198 -7.914008
22.150568 -123.92477 -13.360488
21.592954 -124.449917 -12.157147
21.151798 -124.176682 -13.95351
22.66064 -123.317516 -14.502946
22.150568 -123.92477 -13.360488
2.816336 -110.17638 -8.655096
2.587522 -108.684708 -8.233144
3.261038 -110.875682 -9.964029
3.166723 -111.618911 -9.08415
2.816336 -110.17638 -8.655096
24.631202 -67.386409 -18.870184
23.536317 -67.751533 -18.262149
24.648108 -65.516506 -18.981259
24.600572 -69.204087 -18.794185
24.631202 -67.386409 -18.870184
24.517207 -71.059238 -18.769024
23.436045 -71.476589 -18.125913
24.600572 -69.204087 -18.794185
24.422787 -72.85186 -18.774708
24.517207 -71.059238 -18.769024
12.246492 -68.817749 -6.445353
12.29358 -70.176464 -5.702223
11.853575 -69.055267 -6.942416
12.246492 -68.817749 -6.445353
12.309473 -67.377182 -7.213199
11.338878 -69.340508 -7.406324
11.275897 -70.781075 -6.638478
11.853575 -69.055267 -6.942416
11.379926 -66.732376 -9.959122
11.948315 -65.139129 -10.744672
10.314224 -70.852985 -10.448799
9.676351 -72.45993 -9.621816
10.619425 -71.08646 -10.980299
10.314224 -70.852985 -10.448799
11.161037 -69.193878 -11.263897
21.856661 -52.334757 -19.44972
21.823364 -53.853838 -19.313142
21.002542 -54.07119 -18.732523
16.184158 -48.347897 -7.937065
15.422308 -48.295238 -7.19756
16.763922 -48.362063 -8.683563
16.158603 -49.243384 -8.471806
16.184158 -48.347897 -7.937065
17.430516 -48.372926 -9.456699
16.763922 -48.362063 -8.683563
17.456072 -47.47744 -8.921958
20.274013 -47.909859 -14.30589
19.829234 -48.058255 -13.457765
20.668948 -47.766256 -15.1032
19.780537 -48.743986 -14.74299
20.274013 -47.909859 -14.30589
21.083014 -47.558186 -15.95581
20.668948 -47.766256 -15.1032
20.595976 -48.410766 -16.323988
21.083014 -47.558186 -15.95581
13.610197 -125.893653 -11.17631
12.712136 -125.465683 -11.313987
14.89694 -125.688121 -12.244552
14.572166 -126.162441 -10.959532
13.610197 -125.893653 -11.17631
26.85296 -100.927582 -21.970953
27.677107 -101.628685 -22.154434
26.010251 -102.857392 -21.755066
2.533919 -97.120247 -5.02803
2.825184 -95.402618 -4.724833
2.497218 -97.88282 -6.152064
2.365668 -98.877907 -5.444371
2.533919 -97.120247 -5.02803
4.729831 -97.161255 -10.565579
4.038634 -96.716774 -9.571404
4.827848 -95.344643 -10.093818
4.710318 -98.948104 -11.070709
4.729831 -97.161255 -10.565579
5.499532 -97.575974 -11.593122
25.540929 -92.331204 -21.441636
24.15654 -93.345177 -20.852507
25.12407 -91.19138 -21.175477
26.036718 -93.374371 -21.660309
25.540929 -92.331204 -21.441636
25.118068 -95.486546 -21.357827
26.036718 -93.374371 -21.660309
20.164746 -125.565274 -8.18707
19.68743 -125.809654 -6.813978
19.259264 -125.966072 -8.872905
20.164746 -125.565274 -8.18707
24.370236 -60.085735 -19.526039
23.304674 -60.38419 -18.966639
24.524922 -61.85386 -19.316157
24.370236 -60.085735 -19.526039
24.586588 -63.705417 -19.133192
23.491557 -64.030073 -18.556189
24.524922 -61.85386 -19.316157
24.648108 -65.516506 -18.981259
24.586588 -63.705417 -19.133192
12.761731 -63.02157 -9.294942
12.567245 -64.463531 -8.648954
12.656139 -63.135756 -9.859104
12.761731 -63.02157 -9.294942
13.105975 -61.523644 -9.976641
12.464396 -63.592166 -11.458282
11.948315 -65.139129 -10.744672
12.473626 -63.418659 -10.935457
12.631044 -63.716735 -12.002367
12.464396 -63.592166 -11.458282
13.156355 -61.996265 -12.193151
12.852942 -63.897872 -12.525821
12.160983 -65.493774 -11.790952
12.631044 -63.716735 -12.002367
10.924186 -124.362709 -11.438053
11.776351 -124.988019 -11.402705
3.69542 -91.953868 -6.812623
3.324041 -93.176151 -6.108824
3.974394 -92.484631 -7.73092
3.69542 -91.953868 -6.812623
4.356522 -93.035381 -8.741188
3.754523 -94.349411 -8.089377
3.974394 -92.484631 -7.73092
5.421436 -89.720417 -9.02457
5.757078 -87.826332 -8.812717
5.421436 -89.720417 -9.02457
6.026534 -90.173992 -9.958569
4.96162 -93.488957 -9.675187
4.356522 -93.035381 -8.741188
4.827848 -95.344643 -10.093818
4.96162 -93.488957 -9.675187
6.538833 -94.274681 -11.568453
6.672605 -92.418995 -11.149822
7.494369 -94.578941 -12.49523
6.47458 -96.093384 -12.014769
6.538833 -94.274681 -11.568453
24.473065 -88.732495 -20.653286
24.239289 -87.416886 -20.406948
25.540014 -86.501499 -21.039713
24.756736 -90.011231 -20.9362
23.45601 -90.926617 -20.303435
24.473065 -88.732495 -20.653286
25.12407 -91.19138 -21.175477
24.756736 -90.011231 -20.9362
13.550952 -59.92256 -9.374139
13.669832 -59.797157 -8.796048
13.89586 -58.505739 -9.951683
13.556475 -59.992638 -9.990023
13.550952 -59.92256 -9.374139
14.117429 -57.089309 -9.13348
13.845054 -58.346747 -8.707489
14.072147 -57.000395 -8.505171
24.391244 -120.993668 -17.407936
23.784683 -121.852326 -16.524601
23.309195 -121.055515 -17.815593
24.960356 -120.037716 -18.190722
24.391244 -120.993668 -17.407936
5.020563 -116.841313 -10.389747
5.578949 -118.022972 -10.62348
4.439692 -115.631813 -10.105221
3.982705 -114.341496 -9.806428
5.131756 -116.183719 -11.392203
5.020563 -116.841313 -10.389747
4.439692 -115.631813 -10.105221
24.305524 -74.663528 -18.837916
23.235418 -75.143409 -18.16396
24.422787 -72.85186 -18.774708
24.192579 -76.403027 -18.921625
24.305524 -74.663528 -18.837916
24.08466 -78.145573 -19.06629
23.010236 -78.697624 -18.371832
24.192579 -76.403027 -18.921625
24.003437 -79.806907 -19.217419
24.08466 -78.145573 -19.06629
6.532465 -83.983998 -8.618146
6.092534 -85.892571 -8.670148
7.353906 -82.454357 -9.390829
6.532465 -83.983998 -8.618146
8.391655 -80.849514 -10.101375
7.97514 -82.797867 -10.091815
7.353906 -82.454357 -9.390829
12.016993 -74.410202 -3.809502
12.461289 -72.775993 -4.145538
11.282391 -74.869591 -4.239707
12.016993 -74.410202 -3.809502
11.839564 -71.844352 -5.388768
12.34255 -71.524982 -4.916421
12.29358 -70.176464 -5.702223
11.241851 -73.55708 -5.045008
11.839564 -71.844352 -5.388768
11.192882 -72.208561 -5.830811
11.282391 -74.869591 -4.239707
11.241851 -73.55708 -5.045008
12.114226 -66.124191 -8.443833
12.369575 -65.95404 -7.915383
12.567245 -64.463531 -8.648954
11.563942 -67.835151 -8.201971
12.114226 -66.124191 -8.443833
11.761611 -66.344642 -8.935542
11.338878 -69.340508 -7.406324
11.563942 -67.835151 -8.201971
11.584436 -66.510613 -9.457763
11.379926 -66.732376 -9.959122
9.061542 -74.340694 -9.328496
9.676351 -72.45993 -9.621816
8.539994 -76.272438 -9.089194
9.061542 -74.340694 -9.328496
9.251064 -74.677311 -9.925899
7.95421 -78.175705 -8.869619
8.539994 -76.272438 -9.089194
8.249968 -78.55753 -9.543494
7.95421 -78.175705 -8.869619
8.764463 -78.87376 -10.170893
8.249968 -78.55753 -9.543494
9.24401 -76.925286 -10.313997
9.385696 -79.21727 -10.87188
8.391655 -80.849514 -10.101375
8.764463 -78.87376 -10.170893
22.114765 -58.77619 -18.68477
22.172708 -60.582379 -18.452818
21.108017 -60.768705 -17.943464
21.968614 -57.083683 -18.916405
21.00966 -57.276394 -18.385681
21.9282 -55.39756 -19.126669
22.114765 -58.77619 -18.68477
21.968614 -57.083683 -18.916405
14.558722 -52.239553 -7.775441
14.161989 -53.276815 -7.542701
15.050116 -52.264544 -8.493296
14.558722 -52.239553 -7.775441
15.038605 -51.175842 -8.035953
18.854731 -46.670835 -9.973181
18.1061 -46.66225 -9.178097
18.6983 -47.450218 -10.500608
18.854731 -46.670835 -9.973181
19.430366 -46.63275 -10.778694
19.773401 -47.320526 -12.137985
20.078115 -46.577706 -11.612255
18.932336 -48.251213 -11.825654
19.773401 -47.320526 -12.137985
19.431801 -48.159607 -12.657519
21.068694 -49.028078 -18.096312
20.602208 -49.269327 -17.332251
20.767787 -50.120443 -18.229401
21.068694 -49.028078 -18.096312
21.648543 -48.831016 -18.768887
21.858736 -50.981663 -19.541125
21.191738 -51.237746 -18.885539
22.014635 -49.667299 -19.557562
21.856661 -52.334757 -19.44972
21.858736 -50.981663 -19.541125
17.583759 -126.693306 -6.626919
18.45752 -126.407299 -6.113354
17.918445 -126.502022 -8.041072
17.583759 -126.693306 -6.626919
16.673645 -126.936775 -7.166472
18.349149 -126.209542 -9.412458
19.259264 -125.966072 -8.872905
17.918445 -126.502022 -8.041072
13.916854 -126.881424 -8.225375
14.21331 -126.57687 -9.631643
14.827622 -127.031842 -7.950996
13.916854 -126.881424 -8.225375
16.074765 -126.765629 -8.976309
15.761188 -127.011704 -7.555311
14.827622 -127.031842 -7.950996
18.741765 -125.85833 -10.770128
18.349149 -126.209542 -9.412458
17.400946 -126.39428 -9.938295
19.217644 -125.413502 -12.053508
20.165847 -125.228764 -11.527672
18.741765 -125.85833 -10.770128
11.170097 -123.801495 -12.625276
10.924186 -124.362709 -11.438053
7.287983 -118.794376 -13.043863
6.3928 -118.481788 -11.8949
6.60781 -117.705806 -12.825692
7.287983 -118.794376 -13.043863
8.289607 -119.00399 -14.169846
10.271494 -119.941899 -15.321418
9.394604 -119.065601 -15.15182
10.589878 -119.017914 -16.108202
10.271494 -119.941899 -15.321418
11.139217 -120.790333 -15.455622
11.475666 -123.109559 -13.68564
11.743102 -122.383294 -14.696469
12.368969 -123.772069 -13.69913
11.170097 -123.801495 -12.625276
11.475666 -123.109559 -13.68564
23.373715 -118.830857 -19.426807
24.482051 -118.967007 -19.205609
22.76997 -119.963414 -18.819578
23.967763 -117.618657 -19.94186
23.373715 -118.830857 -19.426807
22.255682 -118.615063 -19.55583
24.609999 -116.315475 -20.399168
23.967763 -117.618657 -19.94186
25.26377 -114.939964 -20.775807
24.609999 -116.315475 -20.399168
23.503501 -116.027352 -20.447522
25.944122 -113.477459 -21.118614
25.26377 -114.939964 -20.775807
26.65533 -111.951493 -21.397299
25.944122 -113.477459 -21.118614
24.868479 -113.125874 -21.102844
27.367019 -110.344513 -21.66424
26.65533 -111.951493 -21.397299
28.123742 -108.682899 -21.885939
27.367019 -110.344513 -21.66424
26.33641 -109.938294 -21.603228
28.853707 -106.947659 -22.113735
28.123742 -108.682899 -21.885939
29.636322 -105.164978 -22.315677
28.853707 -106.947659 -22.113735
27.875749 -106.494 -22.026868
27.746381 -104.134907 -22.083679
26.904612 -105.957455 -21.894112
25.992629 -105.381043 -21.748979
27.746381 -104.134907 -22.083679
28.531921 -102.243863 -22.297149
2.15707 -103.921279 -6.783058
2.178286 -102.277664 -6.332491
2.360431 -104.69791 -8.054656
2.15707 -103.921279 -6.783058
3.018931 -94.96191 -6.407415
2.970578 -94.339401 -5.437131
3.324041 -93.176151 -6.108824
2.729863 -105.3484 -9.258437
2.360431 -104.69791 -8.054656
2.631752 -103.709564 -8.748867
3.200647 -105.963902 -10.48313
2.929326 -106.952247 -9.788919
2.729863 -105.3484 -9.258437
27.753428 -98.960605 -22.192459
26.85296 -100.927582 -21.970953
26.086573 -100.189312 -21.793091
27.856503 -96.151612 -22.299008
26.324889 -97.355213 -21.805792
28.572409 -96.930633 -22.458856
27.856503 -96.151612 -22.299008
27.753428 -98.960605 -22.192459
28.572409 -96.930633 -22.458856
3 1 60 58
3 1 62 60
3 2 236 238
3 236 63 237
3 236 237 238
3 2 239 241
3 241 240 63
3 239 240 241
3 3 66 64
3 3 68 66
3 0 71 69
3 242 73 243
3 245 244 73
3 246 76 247
3 248 77 249
3 250 78 251
3 252 80 253
3 254 253 78
3 252 253 254
3 5 83 81
3 255 86 256
3 7 257 258
3 7 259 261
3 259 88 260
3 259 260 261
3 7 90 88
3 8 93 91
3 8 95 93
3 262 97 263
3 9 264 266
3 264 99 265
3 264 265 266
3 9 101 99
3 4 267 268
3 10 104 102
3 10 106 104
3 10 108 106
3 11 111 109
3 11 113 111
3 269 114 270
3 12 271 273
3 271 116 272
3 271 272 273
3 12 118 116
3 6 121 119
3 13 124 122
3 13 126 124
3 13 128 126
3 274 130 275
3 276 133 277
3 278 277 131
3 276 277 278
3 15 279 281
3 279 135 280
3 279 280 281
3 17 136 59
3 17 137 136
3 17 139 137
3 19 140 61
3 19 141 140
3 20 144 142
3 22 145 65
3 22 146 145
3 22 148 146
3 24 149 67
3 24 150 149
3 26 282 284
3 284 283 70
3 282 283 284
3 26 285 287
3 285 152 286
3 285 286 287
3 27 155 153
3 29 156 72
3 29 157 156
3 29 159 157
3 289 288 74
3 290 160 291
3 31 161 75
3 31 162 161
3 32 292 293
3 32 294 296
3 294 163 295
3 294 295 296
3 33 297 298
3 33 299 301
3 299 164 300
3 299 300 301
3 33 165 164
3 34 166 79
3 34 167 166
3 35 170 168
3 37 171 82
3 37 172 171
3 14 173 132
3 38 174 84
3 38 175 174
3 38 176 175
3 302 177 303
3 305 304 85
3 16 306 308
3 308 307 134
3 306 307 308
3 39 178 87
3 39 179 178
3 39 180 179
3 40 181 89
3 40 182 181
3 18 183 138
3 41 184 92
3 41 185 184
3 41 186 185
3 310 309 94
3 42 311 312
3 42 313 314
3 42 315 317
3 315 187 316
3 315 316 317
3 43 188 96
3 43 189 188
3 318 190 319
3 44 320 322
3 320 191 321
3 320 321 322
3 44 192 191
3 44 193 192
3 323 194 324
3 325 324 98
3 323 324 325
3 326 195 327
3 328 327 194
3 326 327 328
3 329 196 330
3 332 331 196
3 333 197 334
3 45 335 337
3 335 198 336
3 335 336 337
3 45 199 198
3 45 200 199
3 46 201 100
3 46 202 201
3 21 338 340
3 340 339 143
3 338 339 340
3 47 341 343
3 343 342 103
3 341 342 343
3 47 344 346
3 344 203 345
3 344 345 346
3 47 204 203
3 48 205 105
3 48 206 205
3 48 207 206
3 49 208 107
3 49 209 208
3 23 210 147
3 50 211 110
3 50 212 211
3 50 347 349
3 349 348 212
3 347 348 349
3 351 350 112
3 51 352 353
3 51 354 356
3 354 213 355
3 354 355 356
3 25 214 151
3 52 215 115
3 52 216 215
3 52 217 216
3 53 218 117
3 53 219 218
3 36 220 169
3 54 221 120
3 54 222 221
3 28 223 154
3 55 224 123
3 55 225 224
3 55 226 225
3 56 227 125
3 56 228 227
3 56 229 228
3 57 230 127
3 57 231 230
3 30 232 158
3 357 233 358
3 359 358 129
3 357 358 359
3 360 234 361
3 362 361 233
3 360 361 362
3 363 235 364
3 365 364 234
3 363 364 365
3 58 59 15
3 60 59 58
3 60 17 59
3 60 61 17
3 62 61 60
3 62 19 61
3 63 366 367
3 63 368 369
3 63 370 371
3 373 372 63
3 64 65 20
3 66 65 64
3 66 22 65
3 66 67 22
3 68 67 66
3 68 24 67
3 69 374 376
3 374 70 375
3 374 375 376
3 71 70 69
3 71 26 70
3 377 72 378
3 379 378 27
3 377 378 379
3 73 380 382
3 380 72 381
3 380 381 382
3 73 29 72
3 73 74 29
3 383 74 384
3 385 384 73
3 383 384 385
3 387 386 74
3 388 75 389
3 76 390 392
3 390 75 391
3 390 391 392
3 76 31 75
3 77 393 394
3 77 395 397
3 395 32 396
3 395 396 397
3 78 398 399
3 78 400 402
3 400 33 401
3 400 401 402
3 78 79 33
3 80 79 78
3 80 34 79
3 81 82 35
3 83 82 81
3 83 37 82
3 403 84 404
3 405 404 14
3 403 404 405
3 406 84 407
3 408 38 409
3 410 409 84
3 408 409 410
3 412 411 38
3 413 85 414
3 86 415 417
3 415 85 416
3 415 416 417
3 86 418 420
3 420 419 85
3 418 419 420
3 422 421 16
3 423 87 424
3 88 425 427
3 425 87 426
3 425 426 427
3 88 39 87
3 88 89 39
3 90 89 88
3 90 40 89
3 91 92 18
3 93 92 91
3 93 41 92
3 93 94 41
3 95 94 93
3 95 428 430
3 430 429 94
3 428 429 430
3 431 42 432
3 433 96 434
3 435 434 42
3 433 434 435
3 97 436 438
3 436 96 437
3 436 437 438
3 97 43 96
3 439 44 440
3 441 98 442
3 443 442 44
3 441 442 443
3 444 98 445
3 447 446 98
3 99 448 449
3 99 450 452
3 450 45 451
3 450 451 452
3 99 100 45
3 101 100 99
3 101 46 100
3 102 103 21
3 104 103 102
3 104 47 103
3 104 105 47
3 106 105 104
3 106 48 105
3 106 107 48
3 108 107 106
3 108 49 107
3 109 110 23
3 111 110 109
3 111 50 110
3 111 112 50
3 113 112 111
3 113 453 455
3 455 454 112
3 453 454 455
3 114 456 457
3 114 458 460
3 458 51 459
3 458 459 460
3 461 115 462
3 463 462 25
3 461 462 463
3 116 464 466
3 464 115 465
3 464 465 466
3 116 52 115
3 116 117 52
3 118 117 116
3 118 53 117
3 119 120 36
3 121 120 119
3 121 54 120
3 122 123 28
3 124 123 122
3 124 55 123
3 124 125 55
3 126 125 124
3 126 56 125
3 126 127 56
3 128 127 126
3 128 57 127
3 467 129 468
3 469 468 30
3 467 468 469
3 470 129 471
3 473 472 129
3 130 474 475
3 130 476 477
3 131 132 5
3 133 132 131
3 133 14 132
3 478 133 479
3 480 133 481
3 482 14 483
3 484 483 133
3 482 483 484
3 486 485 14
3 487 134 488
3 135 489 491
3 489 134 490
3 489 490 491
3 135 16 134
3 59 135 15
3 136 135 59
3 136 16 135
3 136 492 494
3 494 493 16
3 492 493 494
3 137 495 497
3 497 496 136
3 495 496 497
3 137 498 500
3 498 7 499
3 498 499 500
3 137 138 7
3 139 138 137
3 139 18 138
3 61 139 17
3 140 139 61
3 140 18 139
3 140 91 18
3 141 91 140
3 141 8 91
3 501 9 502
3 142 143 4
3 144 143 142
3 144 21 143
3 65 144 20
3 145 144 65
3 145 21 144
3 145 102 21
3 146 102 145
3 146 10 102
3 146 147 10
3 148 147 146
3 148 23 147
3 67 148 22
3 149 148 67
3 149 23 148
3 149 109 23
3 150 109 149
3 150 11 109
3 503 151 504
3 505 151 506
3 507 25 508
3 509 508 151
3 507 508 509
3 70 510 511
3 513 512 70
3 514 25 515
3 517 516 25
3 152 518 519
3 152 520 522
3 520 12 521
3 520 521 522
3 153 154 6
3 155 154 153
3 155 28 154
3 72 155 27
3 156 155 72
3 156 28 155
3 156 122 28
3 157 122 156
3 157 13 122
3 157 158 13
3 159 158 157
3 159 30 158
3 74 159 29
3 523 159 524
3 525 524 74
3 523 524 525
3 526 30 527
3 528 527 159
3 526 527 528
3 530 529 30
3 160 531 532
3 160 533 535
3 533 15 534
3 533 534 535
3 75 536 538
3 536 160 537
3 536 537 538
3 161 160 75
3 161 15 160
3 161 58 15
3 162 58 161
3 162 1 58
3 163 539 540
3 163 541 543
3 541 2 542
3 541 542 543
3 544 4 545
3 164 546 547
3 164 548 550
3 548 4 549
3 548 549 550
3 164 142 4
3 165 142 164
3 165 20 142
3 79 165 33
3 166 165 79
3 166 20 165
3 166 64 20
3 167 64 166
3 167 3 64
3 168 169 0
3 170 169 168
3 170 36 169
3 82 170 35
3 171 170 82
3 171 36 170
3 171 119 36
3 172 119 171
3 172 6 119
3 132 83 5
3 173 83 132
3 173 37 83
3 84 173 14
3 174 173 84
3 174 37 173
3 174 172 37
3 175 172 174
3 175 6 172
3 175 153 6
3 176 153 175
3 176 27 153
3 551 176 552
3 553 552 38
3 551 552 553
3 554 176 555
3 556 27 557
3 558 557 176
3 556 557 558
3 560 559 27
3 561 69 562
3 563 69 564
3 565 0 566
3 567 566 69
3 565 566 567
3 177 568 569
3 177 570 571
3 85 572 574
3 572 177 573
3 572 573 574
3 575 177 576
3 577 576 85
3 575 576 577
3 579 578 177
3 134 580 582
3 580 86 581
3 580 581 582
3 583 86 584
3 585 584 134
3 583 584 585
3 587 586 86
3 589 588 16
3 87 590 591
3 178 592 594
3 594 593 87
3 592 593 594
3 178 595 596
3 178 597 598
3 179 599 601
3 601 600 178
3 599 600 601
3 179 602 604
3 602 0 603
3 602 603 604
3 179 168 0
3 180 168 179
3 180 35 168
3 89 180 39
3 181 180 89
3 181 35 180
3 181 81 35
3 182 81 181
3 182 5 81
3 138 90 7
3 183 90 138
3 183 40 90
3 92 183 18
3 184 183 92
3 184 40 183
3 184 182 40
3 185 182 184
3 185 5 182
3 185 131 5
3 186 131 185
3 186 605 607
3 607 606 131
3 605 606 607
3 94 186 41
3 608 186 609
3 610 609 94
3 608 609 610
3 612 611 186
3 613 76 614
3 187 615 617
3 615 76 616
3 615 616 617
3 187 31 76
3 96 187 42
3 188 187 96
3 188 31 187
3 188 162 31
3 189 162 188
3 189 1 162
3 618 97 619
3 190 620 622
3 620 97 621
3 620 621 622
3 190 43 97
3 623 190 624
3 191 625 627
3 625 190 626
3 625 626 627
3 191 43 190
3 191 189 43
3 192 189 191
3 192 1 189
3 192 62 1
3 193 62 192
3 193 19 62
3 98 193 44
3 194 193 98
3 194 19 193
3 194 141 19
3 195 141 194
3 195 8 141
3 628 195 629
3 196 630 632
3 630 195 631
3 630 631 632
3 196 8 195
3 196 95 8
3 633 95 634
3 635 634 196
3 633 634 635
3 637 636 95
3 638 130 639
3 197 640 642
3 640 130 641
3 640 641 642
3 197 643 645
3 645 644 130
3 643 644 645
3 198 646 647
3 198 648 649
3 198 650 652
3 650 197 651
3 650 651 652
3 199 197 198
3 199 653 655
3 655 654 197
3 653 654 655
3 199 656 658
3 656 77 657
3 656 657 658
3 200 77 199
3 200 32 77
3 100 200 45
3 201 200 100
3 201 32 200
3 201 163 32
3 202 163 201
3 202 2 163
3 659 9 660
3 143 661 663
3 663 662 4
3 661 662 663
3 665 664 143
3 103 666 668
3 668 667 21
3 666 667 668
3 670 669 103
3 203 671 672
3 203 673 675
3 673 9 674
3 673 674 675
3 203 101 9
3 204 101 203
3 204 46 101
3 105 204 47
3 205 204 105
3 205 46 204
3 205 202 46
3 206 202 205
3 206 2 202
3 206 676 678
3 678 677 2
3 676 677 678
3 207 679 681
3 681 680 206
3 679 680 681
3 207 682 683
3 107 207 48
3 208 207 107
3 208 684 686
3 686 685 207
3 684 685 686
3 208 687 688
3 209 689 691
3 691 690 208
3 689 690 691
3 209 692 693
3 147 108 10
3 210 108 147
3 210 49 108
3 110 210 23
3 211 210 110
3 211 49 210
3 211 209 49
3 212 209 211
3 212 694 696
3 696 695 209
3 694 695 696
3 212 697 698
3 701 700 212
3 699 700 701
3 112 702 704
3 704 703 50
3 702 703 704
3 706 705 112
3 213 707 708
3 213 709 710
3 151 711 713
3 711 114 712
3 711 712 713
3 214 114 151
3 214 51 114
3 115 214 25
3 215 214 115
3 215 51 214
3 215 213 51
3 216 213 215
3 216 714 716
3 716 715 213
3 714 715 716
3 216 717 719
3 717 80 718
3 717 718 719
3 217 80 216
3 217 34 80
3 117 217 52
3 218 217 117
3 218 34 217
3 218 167 34
3 219 167 218
3 219 3 167
3 169 71 0
3 220 71 169
3 220 26 71
3 120 220 36
3 221 220 120
3 221 26 220
3 221 152 26
3 222 152 221
3 222 12 152
3 154 121 6
3 223 121 154
3 223 54 121
3 123 223 28
3 224 223 123
3 224 54 223
3 224 222 54
3 225 222 224
3 225 12 222
3 225 118 12
3 226 118 225
3 226 53 118
3 125 226 55
3 227 226 125
3 227 53 226
3 227 219 53
3 228 219 227
3 228 3 219
3 228 68 3
3 229 68 228
3 229 24 68
3 127 229 56
3 230 229 127
3 230 24 229
3 230 150 24
3 231 150 230
3 231 11 150
3 158 128 13
3 232 128 158
3 232 57 128
3 129 232 30
3 233 232 129
3 233 57 232
3 233 231 57
3 234 231 233
3 234 11 231
3 234 113 11
3 235 113 234
3 235 720 722
3 722 721 113
3 720 721 722
3 723 235 724
3 725 235 726
3 728 727 235
