ply
format ascii 1.0
element vertex 710
property float x
property float y
property float z
element face 762
property list uchar int vertex_index
end_header
56.645882 -68.257851 40.761032
46.506927 -84.825897 43.900452
64.633827 -54.137817 35.451302
38.095104 -62.993671 51.370918
40.857025 -72.651733 52.485313
34.110992 -67.864334 55.560211
56.482155 -66.205521 30.621853
53.640564 -74.00766 32.270641
40.25967 -91.584564 41.664864
60.393517 -61.075497 38.078217
52.370216 -76.218964 42.810089
48.037212 -75.875702 50.219124
41.255127 -82.547531 50.681282
34.805485 -85.260643 47.953022
28.430477 -84.7173 44.649582
49.639908 -82.752548 33.361591
36.149734 -65.676117 53.210159
56.844284 -67.456596 35.783073
55.052483 -70.024544 31.562229
55.16584 -71.29673 36.824371
58.519356 -64.600533 39.451759
58.623817 -63.799622 34.503494
50.974285 -72.091003 49.34565
47.724113 -71.134811 50.944443
37.769234 -75.163292 53.498634
41.379318 -77.634628 52.374542
38.040722 -79.958382 52.510063
37.934502 -84.562477 49.718193
34.85252 -81.231651 52.054161
49.620605 -80.505623 43.549721
51.082626 -79.691376 38.370743
48.384796 -84.248131 38.862526
39.667984 -67.723099 51.84417
37.081551 -70.331497 53.425392
34.43158 -72.39119 55.228088
54.747211 -68.446083 26.373795
53.623352 -72.328751 26.94573
52.202835 -76.34639 27.400673
43.314026 -88.740746 43.401245
45.491272 -88.793633 38.755558
62.393387 -57.592003 36.742287
55.561111 -68.550735 45.084
54.66124 -72.125168 41.884689
53.295826 -72.413338 46.243
50.613831 -76.422272 47.180618
47.484161 -80.468803 47.837021
44.697296 -74.57531 51.788712
44.709732 -79.48526 50.753281
44.105282 -84.259613 47.93187
40.773148 -87.248222 47.036545
37.64579 -88.879738 44.987537
34.625694 -89.101036 42.226593
32.004269 -69.615845 58.286377
31.701761 -84.991341 45.987537
31.470282 -88.653214 39.686119
24.994141 -85.489143 44.550068
53.335503 -75.365936 37.660774
51.87624 -78.222534 32.870422
50.31958 -80.670876 27.807423
48.201363 -85.419426 27.997688
56.839844 -67.918373 38.320145
56.005096 -69.350143 36.334148
55.937759 -69.817238 38.891777
57.212036 -66.612251 42.394299
57.588112 -66.406433 40.123581
57.741177 -66.070923 37.694008
36.232468 -76.146423 53.946617
37.959953 -77.576263 53.193977
36.36755 -78.466522 53.355095
36.425858 -80.735237 52.353233
48.09317 -82.681213 43.798752
49.015366 -82.427124 41.312263
47.518204 -84.669678 41.473846
64.002495 -54.32518 38.110786
65.166565 -53.821903 32.699394
38.904766 -65.323151 51.535431
35.138096 -66.829407 54.320213
36.630173 -67.965561 53.285065
35.452808 -69.102356 54.310204
35.756432 -71.436371 54.309967
34.265987 -70.110397 55.418793
56.232986 -65.444656 28.06024
55.524616 -67.342422 28.543999
54.369583 -71.992363 31.937454
54.28326 -71.212257 29.292889
53.641827 -73.19516 29.590267
52.970581 -74.311111 27.17915
52.916382 -75.224884 29.861725
41.764767 -90.337021 42.695744
42.953144 -90.81488 40.619179
60.017193 -61.27758 40.401031
60.947235 -59.537392 39.784966
61.909531 -57.798618 39.204712
61.367496 -59.331928 37.403419
61.628227 -58.985973 34.877365
60.586018 -60.732597 35.604469
57.548611 -65.030121 32.606583
54.471436 -70.460297 45.690166
49.564911 -73.990562 49.816208
50.902058 -74.28479 48.46637
49.42749 -76.246002 48.890129
49.097504 -78.453049 47.554977
47.84293 -78.194153 49.237358
42.35347 -71.18605 51.962769
44.356075 -72.099564 51.744446
42.811523 -73.678741 52.181778
41.384079 -80.107956 51.762901
43.103123 -78.655869 51.69059
42.979099 -81.115974 50.814926
44.457417 -81.897705 49.57148
42.733131 -83.535767 49.461044
42.417969 -85.894196 47.630043
41.036125 -84.934464 49.101685
36.352703 -85.07151 48.908646
37.799904 -86.759872 47.576248
36.255547 -87.134674 46.475288
36.136997 -89.13868 43.644852
34.731064 -87.191971 45.255177
28.519403 -83.001091 47.690605
30.157055 -83.091988 48.144295
30.092949 -84.782578 45.192245
31.616743 -86.771904 42.921108
29.981049 -86.585503 42.044777
23.381929 -84.298317 47.935631
23.273598 -86.442863 45.020302
53.567619 -74.144569 42.369156
54.024639 -73.789009 39.870872
52.947205 -75.865417 40.294838
50.373756 -81.276367 35.91851
51.557056 -79.024391 35.632286
50.80909 -80.445404 33.139805
51.106747 -79.493011 30.364262
50.036831 -81.762436 30.575855
46.395691 -88.312943 36.165634
47.15332 -87.919228 27.902706
36.48774 -62.197575 52.297417
37.138149 -64.397385 52.234039
35.670464 -63.501411 53.27494
34.833702 -64.661903 54.405853
33.978939 -65.696861 55.711693
56.706192 -66.881378 33.20406
55.741123 -68.09726 31.127748
55.921722 -68.772133 33.732742
55.163696 -70.708496 34.195625
54.39032 -72.69574 34.603142
59.450264 -62.828037 38.764351
59.601501 -62.489796 36.322803
58.657753 -64.265396 37.023575
57.711048 -65.609451 35.170673
49.456909 -71.69014 50.325653
48.010925 -73.521317 50.779282
39.318802 -73.988258 53.003174
41.208317 -75.14418 52.582756
39.580677 -76.457092 52.928848
39.697182 -78.912796 52.512817
39.683163 -81.337524 51.661629
39.568161 -83.713768 50.318275
38.024265 -82.291962 51.364861
36.415535 -82.938995 50.877251
34.848392 -83.279869 50.235687
26.832771 -83.111725 47.484089
51.053593 -78.343254 43.208405
51.753632 -78.001976 40.684666
50.43792 -80.194046 41.032982
49.77755 -81.948494 38.661629
49.09346 -83.595642 36.138271
41.699501 -68.705307 51.579323
40.333717 -70.172432 52.19873
37.785973 -66.703705 52.361382
38.392338 -69.088821 52.600174
38.915291 -71.525131 52.852501
37.470718 -72.740273 53.535049
36.02388 -73.794624 54.226357
34.5895 -74.670135 54.898865
54.891937 -69.263809 28.950377
54.197273 -70.378441 26.684336
52.335159 -75.342979 24.722387
44.902176 -86.873703 43.788769
45.986351 -86.868065 41.45417
44.456451 -88.946526 41.187035
62.925789 -56.059292 38.651222
63.48484 -55.857666 36.092381
63.931145 -55.523312 33.418182
62.742943 -57.248035 34.146881
56.227386 -68.469742 43.039429
55.677826 -70.162941 41.349831
55.19548 -70.379425 43.640327
54.094769 -72.341721 44.188515
52.900829 -74.353638 44.684566
52.256214 -72.33168 47.978817
52.014046 -74.403786 46.740116
51.594109 -76.409531 45.131409
50.168186 -78.499176 45.524433
48.634422 -80.602966 45.842564
47.020752 -82.68576 46.044281
45.812653 -70.438141 51.276794
46.261684 -72.885559 51.392784
46.452782 -75.314552 51.168243
43.05806 -76.172371 52.123169
44.805492 -77.040138 51.480476
46.408577 -77.720444 50.540916
46.174042 -80.095024 49.479378
45.806763 -82.425308 47.98185
45.365551 -84.692436 46.07122
43.708706 -86.548576 45.859398
42.082695 -88.168419 45.355461
40.505821 -89.469826 44.533287
39.389557 -86.024323 48.469238
39.18399 -88.254425 46.143837
38.979176 -90.393616 43.406147
37.486511 -90.924301 42.033142
33.170425 -64.566132 57.412231
33.104359 -66.633972 57.170822
32.19912 -67.493774 58.729378
33.069492 -68.790215 56.898438
33.07288 -70.988892 56.575546
33.110634 -73.190292 56.146515
33.301163 -83.357224 49.507019
31.745899 -83.255409 48.778549
33.265091 -85.197128 46.943493
33.19445 -87.026001 44.029572
33.078453 -88.887489 40.862923
25.111935 -83.52552 47.563465
26.723194 -84.923775 44.42495
24.814098 -87.745949 41.565228
26.555672 -86.982857 41.326492
28.288019 -86.616814 41.493317
55.010254 -71.773254 39.406624
54.289406 -73.300812 37.262207
53.555229 -74.739487 34.970657
52.271454 -77.49556 38.030602
52.618275 -76.846619 35.31221
52.819038 -76.080322 32.578651
52.073555 -77.318192 30.119989
51.312057 -78.45903 27.614357
46.943504 -86.55088 38.915554
47.75462 -85.957268 36.240921
48.407028 -85.132446 33.49255
47.747696 -86.567169 30.742893
48.90313 -84.126945 30.71839
49.267349 -82.993294 27.94968
64.295769 -55.057106 30.696362
35.544115 -77.691848 53.840103
36.300009 -77.306472 53.650856
35.476574 -76.531799 54.135864
35.589047 -78.78788 53.379334
35.544115 -77.691848 53.840103
64.875476 -53.373373 36.511261
64.55981 -53.467055 37.841003
64.318161 -54.231499 36.781044
65.216183 -53.29231 35.135722
64.875476 -53.373373 36.511261
64.900196 -53.97986 34.075348
65.482551 -53.134354 33.759767
65.216183 -53.29231 35.135722
38.499935 -64.158411 51.453175
39.439804 -64.578255 51.161541
39.034973 -63.413515 51.079284
38.556803 -62.233922 50.981189
37.690764 -61.873758 51.400276
39.034973 -63.413515 51.079284
38.556803 -62.233922 50.981189
40.872042 -91.984165 40.695173
41.62459 -91.360393 41.210613
41.012219 -90.960792 42.180304
56.896876 -65.275391 30.330641
57.430104 -64.687691 31.323006
57.015383 -65.617821 31.614218
56.35757 -65.825088 29.341047
56.772291 -64.894959 29.049834
56.896876 -65.275391 30.330641
22.43139 -87.096764 45.407881
22.471962 -85.936096 46.797951
35.441456 -62.490478 53.40863
36.079102 -62.849493 52.786179
35.850094 -61.83856 52.919868
34.353876 -64.162531 55.152359
34.693211 -63.658437 54.508423
33.926494 -64.680009 55.805279
34.40632 -65.179382 55.058773
34.353876 -64.162531 55.152359
35.850094 -61.83856 52.919868
36.175387 -61.160668 52.456734
58.807495 -63.814284 40.251732
58.341949 -64.701153 40.587681
58.98481 -63.714285 39.108055
59.272949 -62.928036 39.908028
58.807495 -63.814284 40.251732
48.590511 -71.412475 50.635048
49.263863 -70.517746 50.384678
48.397464 -70.240082 50.694073
26.021688 -82.454254 48.994414
26.876143 -82.293877 48.942728
40.683742 -68.214203 51.711747
41.293976 -67.47731 51.364616
40.278217 -66.986206 51.49704
54.713659 -68.017139 25.106192
55.040838 -67.485501 26.184061
54.463255 -68.97892 25.246218
54.713659 -68.017139 25.106192
53.640003 -71.881401 25.645278
53.926963 -70.906246 25.514581
53.910313 -71.353596 26.815033
53.338871 -72.849235 25.742722
53.640003 -71.881401 25.645278
51.847126 -76.865353 26.151097
51.913288 -76.363647 24.811954
52.268997 -75.844684 26.06153
43.50355 -90.853924 39.471524
42.796717 -91.785717 39.100987
61.701473 -58.745209 33.575515
61.135379 -59.619751 33.961315
59.110138 -62.908364 34.147554
59.598979 -62.25345 35.057209
59.112659 -63.144709 35.413149
51.61525 -72.211342 48.662233
52.259749 -71.262764 48.395433
51.618784 -71.142426 49.07885
44.795767 -70.02903 51.358413
45.462522 -69.207214 51.093372
35.311743 -90.101036 41.369976
36.067394 -90.119858 42.079105
35.381346 -89.119858 42.935722
34.55164 -90.060669 40.600706
35.311743 -90.101036 41.369976
56.073387 -67.619232 44.760052
55.627441 -67.592178 45.633831
55.894249 -68.510238 44.061715
56.406525 -67.578735 43.737766
56.073387 -67.619232 44.760052
32.801214 -64.990471 58.249729
32.922358 -63.992329 58.378189
32.768181 -66.024391 58.129024
33.137392 -65.600052 57.291527
32.801214 -64.990471 58.249729
32.101695 -68.55481 58.507877
31.720413 -67.891174 59.526424
31.622988 -68.952209 59.304924
32.447845 -73.515091 56.591099
32.487974 -72.466515 56.942791
33.14007 -74.275505 55.8373
32.447845 -73.515091 56.591099
32.531516 -82.433793 50.359394
33.303549 -82.41362 50.579822
32.182507 -89.739258 38.622341
32.986593 -89.856395 39.210743
32.274368 -88.770352 40.274521
24.666233 -89.0304 40.135806
23.95503 -88.323131 41.87727
27.305587 -87.869763 39.830151
26.42071 -88.157349 39.811396
28.17176 -87.686741 39.913563
27.421845 -86.799836 41.409904
27.305587 -87.869763 39.830151
29.04025 -87.589439 40.153473
28.17176 -87.686741 39.913563
50.433338 -80.097462 26.438743
50.929577 -78.991539 26.34221
50.815819 -79.564953 27.71089
47.452414 -86.754551 34.859312
47.075156 -87.135106 36.203277
46.772949 -87.932389 34.821669
47.778618 -86.34214 33.485126
48.080824 -85.544857 34.866736
47.452414 -86.754551 34.859312
63.646668 -55.913786 31.09142
64.113457 -55.290209 32.057272
63.464355 -56.146889 32.452331
57.688289 -65.707012 42.05895
57.386844 -65.7411 43.08193
57.876328 -65.604103 40.923592
57.688289 -65.707012 42.05895
57.400074 -66.509342 41.25894
58.053734 -65.503483 39.78767
58.341949 -64.701153 40.587681
57.876328 -65.604103 40.923592
47.443653 -69.926368 50.859676
48.397464 -70.240082 50.694073
35.618201 -79.922237 52.878402
36.396704 -79.600879 52.854164
35.589047 -78.78788 53.379334
34.831531 -80.170445 52.728866
35.639189 -80.983444 52.203697
35.618201 -79.922237 52.878402
64.16145 -53.488126 39.143938
63.623112 -54.35557 39.353828
64.16145 -53.488126 39.143938
64.55981 -53.467055 37.841003
65.776787 -52.989906 32.350865
65.482551 -53.134354 33.759767
65.394913 -53.597911 31.309819
65.776787 -52.989906 32.350865
39.896608 -65.786232 51.34267
39.439804 -64.578255 51.161541
39.286375 -66.523125 51.689801
40.278217 -66.986206 51.49704
39.896608 -65.786232 51.34267
55.783726 -65.984787 27.027284
56.1245 -65.029464 26.795913
55.429541 -66.93367 27.269163
55.783726 -65.984787 27.027284
55.878801 -66.393539 28.302119
55.135914 -67.894252 27.458897
55.040838 -67.485501 26.184061
55.429541 -66.93367 27.269163
42.218778 -91.599323 40.172331
42.358956 -90.575951 41.657461
41.62459 -91.360393 41.210613
42.796717 -91.785717 39.100987
42.218778 -91.599323 40.172331
60.171492 -60.439298 41.174265
59.717121 -61.308205 41.451107
60.636512 -59.569204 40.866232
60.171492 -60.439298 41.174265
60.482214 -60.407486 40.092999
61.099198 -58.701624 40.620695
60.636512 -59.569204 40.866232
61.428383 -58.668005 39.494839
61.580345 -57.832237 40.330568
61.099198 -58.701624 40.620695
60.614275 -60.493063 34.324867
61.135379 -59.619751 33.961315
61.107123 -59.859285 35.240917
58.009646 -64.120752 32.275179
58.547249 -63.505503 33.223635
58.086214 -64.414872 33.555039
58.009646 -64.120752 32.275179
57.430104 -64.687691 31.323006
56.645454 -64.507164 27.776325
56.772291 -64.894959 29.049834
56.1245 -65.029464 26.795913
56.645454 -64.507164 27.776325
54.552807 -69.479347 46.259123
55.016273 -69.505516 45.387083
55.097645 -68.524566 45.95604
53.983211 -70.430088 46.560672
54.552807 -69.479347 46.259123
53.395406 -71.406609 46.83709
53.883631 -71.436817 45.966583
53.983211 -70.430088 46.560672
43.354772 -71.642807 51.853608
44.067478 -70.859741 51.59224
43.066175 -70.402985 51.701401
55.097645 -68.524566 45.95604
55.627441 -67.592178 45.633831
31.450088 -69.984238 58.979836
31.622988 -68.952209 59.304924
31.934792 -70.679291 58.012722
31.450088 -69.984238 58.979836
29.338229 -83.046539 47.91745
29.369901 -82.243332 49.330323
28.551075 -82.197884 49.103477
22.526128 -84.863823 48.255616
22.558295 -83.849198 49.667473
23.327763 -85.37059 46.477967
22.526128 -84.863823 48.255616
22.471962 -85.936096 46.797951
45.719435 -89.451966 36.009391
45.943482 -88.553288 37.460596
45.267226 -89.69231 37.304354
46.146168 -89.133065 34.712988
45.719435 -89.451966 36.009391
46.772949 -87.932389 34.821669
46.146168 -89.133065 34.712988
46.90772 -88.567375 26.444887
46.640612 -89.1792 27.761454
47.368931 -87.289524 26.5545
46.90772 -88.567375 26.444887
47.892952 -86.039624 26.601992
47.677341 -86.669327 27.950197
47.368931 -87.289524 26.5545
48.375181 -84.79398 26.630943
47.892952 -86.039624 26.601992
35.111592 -63.078192 53.942966
35.441456 -62.490478 53.40863
35.252083 -64.081657 53.840396
35.111592 -63.078192 53.942966
34.693211 -63.658437 54.508423
36.887082 -61.47571 51.863526
36.175387 -61.160668 52.456734
37.291422 -62.595623 51.834168
37.690764 -61.873758 51.400276
36.887082 -61.47571 51.863526
40.150234 -92.584682 40.092327
39.523228 -92.011146 41.00457
59.556413 -62.152807 40.726368
59.717121 -61.308205 41.451107
59.733728 -62.052808 39.582691
59.556413 -62.152807 40.726368
59.272949 -62.928036 39.908028
50.878339 -70.965965 49.578091
51.618784 -71.142426 49.07885
50.119652 -70.765534 50.068093
49.263863 -70.517746 50.384678
50.215597 -71.890571 49.835651
50.878339 -70.965965 49.578091
50.119652 -70.765534 50.068093
27.719459 -82.23856 49.045986
28.551075 -82.197884 49.103477
27.676087 -83.056408 47.587347
27.719459 -82.23856 49.045986
26.876143 -82.293877 48.942728
42.345211 -67.924675 51.282513
41.293976 -67.47731 51.364616
42.739191 -69.162613 51.509678
42.345211 -67.924675 51.282513
42.026485 -69.945678 51.771046
43.066175 -70.402985 51.701401
42.739191 -69.162613 51.509678
34.65509 -75.793655 54.611988
35.476574 -76.531799 54.135864
35.410984 -75.408279 54.422741
54.188286 -69.945099 25.401488
54.463255 -68.97892 25.246218
54.472242 -69.412262 26.529066
54.188286 -69.945099 25.401488
53.926963 -70.906246 25.514581
53.012485 -73.840416 25.859433
53.338871 -72.849235 25.742722
53.296966 -73.319931 27.06244
52.694774 -74.356349 24.631051
53.012485 -73.840416 25.859433
52.65287 -74.827045 25.950769
52.442688 -74.841667 23.406772
52.694774 -74.356349 24.631051
52.030293 -75.825192 23.47741
52.442688 -74.841667 23.406772
52.030293 -75.825192 23.47741
51.913288 -76.363647 24.811954
44.255203 -89.919747 39.755451
43.704797 -89.880703 40.903107
43.50355 -90.853924 39.471524
44.772614 -89.8433 38.539713
44.973861 -88.87008 39.971297
44.255203 -89.919747 39.755451
45.267226 -89.69231 37.304354
44.772614 -89.8433 38.539713
40.872042 -91.984165 40.695173
40.150234 -92.584682 40.092327
62.063984 -56.962879 40.10952
61.580345 -57.832237 40.330568
62.572113 -56.093216 39.832775
62.063984 -56.962879 40.10952
62.41766 -56.928955 38.927967
63.084759 -55.222626 39.624046
62.572113 -56.093216 39.832775
63.464142 -55.192236 38.381004
63.623112 -54.35557 39.353828
63.084759 -55.222626 39.624046
62.870255 -57.009251 32.81668
63.464355 -56.146889 32.452331
63.337044 -56.385673 33.782532
62.258831 -57.876239 33.210273
62.185585 -58.117004 34.512123
61.701473 -58.745209 33.575515
62.870255 -57.009251 32.81668
62.258831 -57.876239 33.210273
60.091238 -61.374851 34.698042
60.09376 -61.611196 35.963636
59.598979 -62.25345 35.057209
60.614275 -60.493063 34.324867
60.091238 -61.374851 34.698042
59.033569 -62.614244 32.867695
59.110138 -62.908364 34.147554
58.547249 -63.505503 33.223635
52.875601 -71.36578 47.704998
52.259749 -71.262764 48.395433
52.77602 -72.372509 47.110909
53.395406 -71.406609 46.83709
52.875601 -71.36578 47.704998
46.487923 -69.578034 51.025852
45.462522 -69.207214 51.093372
46.768383 -70.786476 51.110619
47.443653 -69.926368 50.859676
46.487923 -69.578034 51.025852
45.084364 -71.268853 51.51062
44.795767 -70.02903 51.358413
44.067478 -70.859741 51.59224
38.882981 -91.415672 41.875211
39.523228 -92.011146 41.00457
39.619423 -90.98909 42.535505
38.136648 -91.681015 41.188709
38.882981 -91.415672 41.875211
38.232844 -90.658958 42.719645
37.402963 -91.91349 40.423868
38.136648 -91.681015 41.188709
36.742151 -91.012668 41.273251
36.811754 -90.03149 42.838997
36.067394 -90.119858 42.079105
37.402963 -91.91349 40.423868
36.742151 -91.012668 41.273251
56.898849 -66.64999 43.415201
57.386844 -65.7411 43.08193
56.719711 -67.540997 42.716864
56.898849 -66.64999 43.415201
56.406525 -67.578735 43.737766
33.212433 -63.603359 57.507923
32.922358 -63.992329 58.378189
33.522238 -64.114645 56.655548
33.212433 -63.603359 57.507923
33.574682 -65.131496 56.561962
33.926494 -64.680009 55.805279
33.522238 -64.114645 56.655548
31.917673 -66.860267 59.785889
31.720413 -67.891174 59.526424
32.315562 -66.454292 58.908302
31.917673 -66.860267 59.785889
32.65174 -67.063873 57.9501
32.768181 -66.024391 58.129024
32.315562 -66.454292 58.908302
32.469097 -71.365814 57.157307
32.538574 -70.302369 57.430962
31.934792 -70.679291 58.012722
33.091757 -72.089592 56.36103
32.469097 -71.365814 57.157307
32.487974 -72.466515 56.942791
33.879503 -75.015427 55.213475
33.850067 -73.930214 55.52269
33.14007 -74.275505 55.8373
34.65509 -75.793655 54.611988
33.879503 -75.015427 55.213475
34.066794 -80.37173 52.703598
34.831531 -80.170445 52.728866
34.079228 -81.350833 51.853393
34.066794 -80.37173 52.703598
34.077163 -82.374943 50.944156
34.850456 -82.25576 51.144924
34.079228 -81.350833 51.853393
34.074777 -83.318546 49.871353
34.077163 -82.374943 50.944156
33.303549 -82.41362 50.579822
30.175615 -82.269246 49.47599
29.369901 -82.243332 49.330323
30.970038 -82.350956 49.793117
30.175615 -82.269246 49.47599
30.951477 -83.173699 48.461422
31.753884 -82.382885 49.995159
30.970038 -82.350956 49.793117
32.523531 -83.306317 49.142784
32.531516 -82.433793 50.359394
31.753884 -82.382885 49.995159
33.778019 -89.953896 39.918871
34.55164 -90.060669 40.600706
33.852074 -88.994262 41.544758
33.778019 -89.953896 39.918871
32.986593 -89.856395 39.210743
23.428048 -83.363952 49.388672
22.558295 -83.849198 49.667473
24.293051 -82.977554 49.202589
23.428048 -83.363952 49.388672
24.246932 -83.911918 47.749548
25.161271 -82.661152 49.034102
24.293051 -82.977554 49.202589
25.972353 -83.318623 47.523777
26.021688 -82.454254 48.994414
25.161271 -82.661152 49.034102
23.184781 -87.671588 43.604807
22.43139 -87.096764 45.407881
24.043848 -87.094406 43.292765
23.184781 -87.671588 43.604807
23.95503 -88.323131 41.87727
25.549923 -88.538895 39.930763
24.666233 -89.0304 40.135806
25.684885 -87.364403 41.44586
25.549923 -88.538895 39.930763
26.42071 -88.157349 39.811396
29.886764 -87.573784 40.429203
29.134534 -86.601158 41.769047
29.04025 -87.589439 40.153473
30.631381 -88.60764 39.249874
30.725665 -87.619359 40.865448
29.886764 -87.573784 40.429203
31.350935 -89.668228 38.04338
30.631381 -88.60764 39.249874
32.182507 -89.739258 38.622341
31.350935 -89.668228 38.04338
51.401737 -77.921672 26.257939
51.847126 -76.865353 26.151097
51.757446 -77.40271 27.507515
51.401737 -77.921672 26.257939
50.929577 -78.991539 26.34221
46.876261 -88.479568 29.249651
46.640612 -89.1792 27.761454
47.173448 -87.803539 30.669745
46.876261 -88.479568 29.249651
47.450508 -87.243199 29.322799
47.448952 -87.059502 32.110298
47.173448 -87.803539 30.669745
48.077362 -85.849807 32.117722
47.778618 -86.34214 33.485126
47.448952 -87.059502 32.110298
48.908175 -83.580914 26.606939
48.734356 -84.20636 27.973684
48.375181 -84.79398 26.630943
49.40813 -82.388592 26.576704
48.908175 -83.580914 26.606939
49.934246 -81.227383 26.505575
49.793464 -81.832085 27.878552
49.40813 -82.388592 26.576704
50.433338 -80.097462 26.438743
49.934246 -81.227383 26.505575
64.959515 -54.215513 30.308303
65.394913 -53.597911 31.309819
64.731167 -54.439504 31.697878
63.742966 -55.610401 29.754931
63.646668 -55.913786 31.09142
64.44862 -54.758263 29.336794
63.742966 -55.610401 29.754931
64.959515 -54.215513 30.308303
64.44862 -54.758263 29.336794
3 0 62 60
3 0 64 63
3 0 60 64
3 242 68 243
3 244 243 66
3 242 243 244
3 246 245 68
3 1 72 70
3 2 247 249
3 249 248 73
3 247 248 249
3 2 250 251
3 2 252 254
3 252 74 253
3 252 253 254
3 3 255 257
3 255 75 256
3 255 256 257
3 5 78 76
3 5 80 78
3 3 258 259
3 3 260 261
3 6 82 81
3 7 85 83
3 7 87 85
3 8 262 264
3 264 263 88
3 262 263 264
3 9 91 90
3 9 93 91
3 9 95 93
3 6 265 267
3 267 266 96
3 265 266 267
3 6 268 270
3 268 81 269
3 268 269 270
3 11 100 98
3 11 102 100
3 4 105 103
3 12 108 106
3 12 110 108
3 12 112 110
3 13 115 113
3 13 117 115
3 14 120 118
3 14 122 120
3 271 124 272
3 10 127 125
3 15 130 128
3 15 132 130
3 273 137 274
3 275 274 135
3 273 274 275
3 276 138 277
3 278 139 279
3 280 279 138
3 278 279 280
3 281 135 282
3 17 142 140
3 19 143 61
3 19 144 143
3 20 283 284
3 20 285 287
3 285 145 286
3 285 286 287
3 20 147 145
3 17 148 65
3 17 140 148
3 23 288 290
3 288 149 289
3 288 289 290
3 23 150 149
3 24 153 151
3 26 154 67
3 26 155 154
3 26 157 155
3 28 158 69
3 28 159 158
3 291 160 292
3 29 163 161
3 31 164 71
3 31 165 164
3 32 293 295
3 293 166 294
3 293 294 295
3 32 167 166
3 16 168 136
3 33 169 77
3 33 170 169
3 33 171 170
3 34 172 79
3 34 173 172
3 35 296 297
3 35 298 299
3 18 174 141
3 36 175 84
3 36 300 302
3 302 301 175
3 300 301 302
3 36 303 304
3 37 176 86
3 37 305 307
3 307 306 176
3 305 306 307
3 38 179 177
3 309 308 89
3 40 180 92
3 40 181 180
3 40 183 181
3 311 310 94
3 21 312 314
3 314 313 146
3 312 313 314
3 41 186 184
3 43 187 97
3 43 188 187
3 22 315 317
3 315 189 316
3 315 316 317
3 44 190 99
3 44 191 190
3 44 192 191
3 45 193 101
3 45 194 193
3 318 195 319
3 46 196 104
3 46 197 196
3 25 198 152
3 47 199 107
3 47 200 199
3 47 201 200
3 48 202 109
3 48 203 202
3 48 204 203
3 49 205 111
3 49 206 205
3 27 207 156
3 50 208 114
3 50 209 208
3 50 210 209
3 51 320 322
3 322 321 116
3 320 321 322
3 51 323 324
3 41 325 326
3 41 327 329
3 327 184 328
3 327 328 329
3 330 211 331
3 332 212 333
3 334 333 211
3 332 333 334
3 52 335 337
3 335 213 336
3 335 336 337
3 52 214 213
3 52 215 214
3 338 216 339
3 341 340 216
3 342 217 343
3 53 218 119
3 53 219 218
3 53 220 219
3 54 221 121
3 54 344 346
3 346 345 221
3 344 345 346
3 55 222 123
3 55 223 222
3 347 224 348
3 349 225 350
3 351 226 352
3 353 352 225
3 351 352 353
3 355 354 226
3 42 227 185
3 56 228 126
3 56 229 228
3 30 230 162
3 57 231 129
3 57 232 231
3 57 233 232
3 58 234 131
3 58 356 358
3 358 357 234
3 356 357 358
3 39 235 178
3 359 236 360
3 361 360 133
3 359 360 361
3 362 237 363
3 364 363 236
3 362 363 364
3 59 238 134
3 59 239 238
3 59 240 239
3 365 241 366
3 367 366 182
3 365 366 367
3 60 61 17
3 62 61 60
3 62 19 61
3 63 368 369
3 64 370 372
3 372 371 63
3 370 371 372
3 64 373 375
3 373 20 374
3 373 374 375
3 64 65 20
3 60 65 64
3 60 17 65
3 376 23 377
3 66 67 24
3 68 67 66
3 68 26 67
3 68 69 26
3 378 69 379
3 380 379 68
3 378 379 380
3 381 28 382
3 383 382 69
3 381 382 383
3 70 71 29
3 72 71 70
3 72 31 71
3 73 384 385
3 387 386 73
3 74 388 389
3 74 390 391
3 75 392 393
3 75 394 396
3 394 32 395
3 394 395 396
3 76 77 16
3 78 77 76
3 78 33 77
3 78 79 33
3 80 79 78
3 80 34 79
3 81 397 398
3 82 399 401
3 401 400 81
3 399 400 401
3 82 402 404
3 402 35 403
3 402 403 404
3 83 84 18
3 85 84 83
3 85 36 84
3 85 86 36
3 87 86 85
3 87 37 86
3 88 89 38
3 405 89 406
3 407 406 88
3 405 406 407
3 409 408 89
3 90 410 411
3 91 412 414
3 414 413 90
3 412 413 414
3 91 415 416
3 91 417 419
3 417 92 418
3 417 418 419
3 93 92 91
3 93 40 92
3 93 94 40
3 95 94 93
3 95 420 422
3 422 421 94
3 420 421 422
3 96 423 425
3 425 424 21
3 423 424 425
3 427 426 96
3 81 428 429
3 81 430 431
3 432 97 433
3 434 433 41
3 432 433 434
3 435 97 436
3 437 43 438
3 439 438 97
3 437 438 439
3 98 99 22
3 100 99 98
3 100 44 99
3 100 101 44
3 102 101 100
3 102 45 101
3 103 440 442
3 440 104 441
3 440 441 442
3 105 104 103
3 105 46 104
3 106 107 25
3 108 107 106
3 108 47 107
3 108 109 47
3 110 109 108
3 110 48 109
3 110 111 48
3 112 111 110
3 112 49 111
3 113 114 27
3 115 114 113
3 115 50 114
3 115 116 50
3 117 116 115
3 117 51 116
3 443 41 444
3 445 52 446
3 448 447 52
3 118 449 451
3 449 119 450
3 449 450 451
3 120 119 118
3 120 53 119
3 120 121 53
3 122 121 120
3 122 54 121
3 452 123 453
3 124 454 456
3 454 123 455
3 454 455 456
3 124 55 123
3 125 126 42
3 127 126 125
3 127 56 126
3 128 129 30
3 130 129 128
3 130 57 129
3 130 131 57
3 132 131 130
3 132 58 131
3 457 133 458
3 459 458 39
3 457 458 459
3 460 133 461
3 463 462 133
3 464 134 465
3 466 134 467
3 468 59 469
3 470 469 134
3 468 469 470
3 472 471 59
3 135 136 3
3 137 136 135
3 137 16 136
3 473 137 474
3 138 475 477
3 475 137 476
3 475 476 477
3 138 16 137
3 138 76 16
3 139 76 138
3 139 5 76
3 135 478 479
3 135 480 482
3 480 3 481
3 480 481 482
3 140 141 6
3 142 141 140
3 142 18 141
3 61 142 17
3 143 142 61
3 143 18 142
3 143 83 18
3 144 83 143
3 144 7 83
3 484 483 8
3 485 90 486
3 145 487 489
3 487 90 488
3 487 488 489
3 145 9 90
3 145 146 9
3 147 146 145
3 147 21 146
3 65 147 20
3 148 147 65
3 148 21 147
3 148 96 21
3 140 96 148
3 140 6 96
3 490 22 491
3 149 492 493
3 149 494 496
3 494 22 495
3 494 495 496
3 149 98 22
3 150 98 149
3 150 11 98
3 151 152 4
3 153 152 151
3 153 25 152
3 67 153 24
3 154 153 67
3 154 25 153
3 154 106 25
3 155 106 154
3 155 12 106
3 155 156 12
3 157 156 155
3 157 27 156
3 69 157 26
3 158 157 69
3 158 27 157
3 158 113 27
3 159 113 158
3 159 13 113
3 497 118 498
3 160 499 501
3 499 118 500
3 499 500 501
3 160 14 118
3 161 162 10
3 163 162 161
3 163 30 162
3 71 163 29
3 164 163 71
3 164 30 163
3 164 128 30
3 165 128 164
3 165 15 128
3 166 502 503
3 166 504 505
3 166 506 508
3 506 103 507
3 506 507 508
3 167 103 166
3 167 4 103
3 136 75 3
3 168 75 136
3 168 32 75
3 77 168 16
3 169 168 77
3 169 32 168
3 169 167 32
3 170 167 169
3 170 4 167
3 170 151 4
3 171 151 170
3 171 24 151
3 79 171 33
3 172 171 79
3 172 24 171
3 172 66 24
3 173 66 172
3 173 509 511
3 511 510 66
3 509 510 511
3 141 82 6
3 174 82 141
3 174 35 82
3 84 174 18
3 175 174 84
3 175 35 174
3 175 512 514
3 514 513 35
3 512 513 514
3 516 515 175
3 86 517 519
3 519 518 36
3 517 518 519
3 176 520 522
3 522 521 86
3 520 521 522
3 176 523 524
3 176 525 526
3 528 527 176
3 177 178 1
3 179 178 177
3 179 39 178
3 89 179 38
3 529 179 530
3 531 530 89
3 529 530 531
3 532 39 533
3 534 533 179
3 532 533 534
3 536 535 39
3 538 537 8
3 92 539 540
3 180 541 543
3 543 542 92
3 541 542 543
3 180 544 545
3 180 546 548
3 546 73 547
3 546 547 548
3 181 73 180
3 181 2 73
3 181 182 2
3 183 182 181
3 183 549 551
3 551 550 182
3 549 550 551
3 94 183 40
3 552 183 553
3 554 553 94
3 552 553 554
3 556 555 183
3 146 95 9
3 557 95 558
3 559 558 146
3 557 558 559
3 561 560 95
3 564 563 21
3 562 563 564
3 184 185 0
3 186 185 184
3 186 42 185
3 97 186 41
3 187 186 97
3 187 42 186
3 187 125 42
3 188 125 187
3 188 10 125
3 189 565 566
3 189 567 569
3 567 43 568
3 567 568 569
3 99 189 22
3 190 189 99
3 190 43 189
3 190 188 43
3 191 188 190
3 191 10 188
3 191 161 10
3 192 161 191
3 192 29 161
3 101 192 44
3 193 192 101
3 193 29 192
3 193 70 29
3 194 70 193
3 194 1 70
3 195 570 571
3 195 572 574
3 572 23 573
3 572 573 574
3 104 575 577
3 575 195 576
3 575 576 577
3 196 195 104
3 196 23 195
3 196 150 23
3 197 150 196
3 197 11 150
3 152 105 4
3 198 105 152
3 198 46 105
3 107 198 25
3 199 198 107
3 199 46 198
3 199 197 46
3 200 197 199
3 200 11 197
3 200 102 11
3 201 102 200
3 201 45 102
3 109 201 47
3 202 201 109
3 202 45 201
3 202 194 45
3 203 194 202
3 203 1 194
3 203 177 1
3 204 177 203
3 204 38 177
3 111 204 48
3 205 204 111
3 205 38 204
3 205 88 38
3 206 88 205
3 206 8 88
3 156 112 12
3 207 112 156
3 207 49 112
3 114 207 27
3 208 207 114
3 208 49 207
3 208 206 49
3 209 206 208
3 209 8 206
3 209 578 580
3 580 579 8
3 578 579 580
3 210 581 583
3 583 582 209
3 581 582 583
3 210 584 585
3 116 210 50
3 586 210 587
3 588 587 116
3 586 587 588
3 590 589 210
3 591 63 592
3 184 593 595
3 593 63 594
3 593 594 595
3 184 0 63
3 211 596 597
3 211 598 599
3 211 600 602
3 600 139 601
3 600 601 602
3 212 139 211
3 212 5 139
3 213 603 604
3 213 605 606
3 213 607 609
3 607 212 608
3 607 608 609
3 214 212 213
3 214 5 212
3 214 80 5
3 215 80 214
3 215 34 80
3 610 215 611
3 612 611 52
3 610 611 612
3 216 613 615
3 613 215 614
3 613 614 615
3 216 34 215
3 216 173 34
3 616 173 617
3 618 617 216
3 616 617 618
3 620 619 173
3 621 28 622
3 623 28 624
3 625 159 626
3 627 626 28
3 625 626 627
3 217 628 630
3 628 159 629
3 628 629 630
3 217 13 159
3 119 631 632
3 218 633 635
3 635 634 119
3 633 634 635
3 218 636 637
3 218 638 640
3 638 217 639
3 638 639 640
3 219 217 218
3 219 13 217
3 219 117 13
3 220 117 219
3 220 51 117
3 121 220 53
3 221 220 121
3 221 51 220
3 221 641 643
3 643 642 51
3 641 642 643
3 645 644 221
3 123 646 647
3 222 648 650
3 650 649 123
3 648 649 650
3 222 651 652
3 222 653 655
3 653 160 654
3 653 654 655
3 223 160 222
3 223 14 160
3 656 124 657
3 224 658 660
3 658 124 659
3 658 659 660
3 224 55 124
3 661 224 662
3 225 663 665
3 663 224 664
3 663 664 665
3 225 55 224
3 225 223 55
3 226 223 225
3 226 14 223
3 226 122 14
3 666 122 667
3 668 667 226
3 666 667 668
3 669 54 670
3 671 670 122
3 669 670 671
3 672 54 673
3 675 674 54
3 185 62 0
3 227 62 185
3 227 19 62
3 126 227 42
3 228 227 126
3 228 19 227
3 228 144 19
3 229 144 228
3 229 7 144
3 162 127 10
3 230 127 162
3 230 56 127
3 129 230 30
3 231 230 129
3 231 56 230
3 231 229 56
3 232 229 231
3 232 7 229
3 232 87 7
3 233 87 232
3 233 37 87
3 131 233 57
3 234 233 131
3 234 37 233
3 234 676 678
3 678 677 37
3 676 677 678
3 680 679 234
3 178 72 1
3 235 72 178
3 235 31 72
3 133 235 39
3 236 235 133
3 236 31 235
3 236 165 31
3 237 165 236
3 237 15 165
3 134 681 682
3 238 683 685
3 685 684 134
3 683 684 685
3 238 686 687
3 238 688 690
3 688 237 689
3 688 689 690
3 239 237 238
3 239 15 237
3 239 132 15
3 240 132 239
3 240 58 132
3 691 240 692
3 693 692 59
3 691 692 693
3 694 240 695
3 696 58 697
3 698 697 240
3 696 697 698
3 700 699 58
3 182 74 2
3 241 74 182
3 241 701 703
3 703 702 74
3 701 702 703
3 704 241 705
3 706 241 707
3 709 708 241
