ply
format ascii 1.0
element vertex 707
property float x
property float y
property float z
element face 804
property list uchar int vertex_index
end_header
-0.828814 51.55595 58.805096
-1.479315 80.363708 -3.589859
-0.67337 73.865356 28.704189
-1.320612 43.338524 39.24865
-0.989561 69.514893 3.449585
-0.107111 64.158707 44.861046
-0.841522 59.09737 34.456722
-3.839468 87.254578 -10.002209
-3.800489 88.028885 5.336046
-1.501078 79.342194 12.131775
-3.126583 84.128159 21.721268
-2.747868 75.387161 38.136295
-2.601538 37.127972 70.066666
-1.40933 66.407852 18.732737
-0.914957 74.550476 -7.464031
-0.558563 69.393494 -3.742357
-1.337069 75.130692 -0.104776
-0.293903 58.124332 52.176723
0.154806 56.73666 47.317196
0.174728 50.795872 54.427067
-0.067562 44.443829 60.991795
-2.036217 84.668411 -6.995155
-0.992111 79.376511 -11.099203
-6.431536 88.566956 9.91555
-3.520363 86.703308 13.429592
-5.400738 78.5056 34.013683
-3.141357 69.493515 45.622978
-6.756861 89.36438 2.155594
-1.137438 77.178238 20.355938
-1.40007 73.164505 15.420255
-1.078142 70.518936 23.540787
-1.142218 51.175541 36.977783
-1.321043 55.638798 29.641382
-1.199747 47.994343 32.503166
0.408689 64.095261 0.155144
-0.216171 63.662457 7.234134
-0.271091 69.474213 36.961067
-0.601698 66.801682 31.706646
-0.133617 62.141613 39.700516
-0.396723 54.21735 42.039337
-0.839918 46.178028 44.034668
-7.444126 87.602966 -12.149429
-2.236181 85.108047 0.759307
-1.643713 80.376404 4.146482
-2.148113 84.498596 8.755438
-1.821495 82.747696 16.983685
-1.402348 79.798935 25.376778
-5.590485 83.094376 26.056248
-2.801867 80.320435 30.054379
-1.07128 75.685623 33.747368
-1.015438 70.526993 41.805161
-1.379 64.50708 49.251606
-2.185091 57.832737 55.908173
-7.017189 89.003601 -5.257336
-3.876692 88.182159 -2.500904
-3.319304 50.669048 61.777473
-4.612427 43.10981 66.965187
-1.629337 44.54953 64.761581
-1.491112 74.692093 7.514207
-1.30369 68.522491 10.957811
-0.831696 62.048771 14.602974
-1.234608 63.22488 26.629101
-1.235807 59.328579 22.129601
-0.036783 55.287884 18.406719
-1.214041 77.547653 -5.60041
-1.161783 74.963409 -3.813061
-1.40435 77.819473 -1.849602
-0.522032 54.898457 55.577621
0.013277 54.544575 53.381039
-0.14472 51.36211 56.760437
0.083525 47.668758 57.778152
-0.372078 48.073589 59.985092
-1.65386 82.680588 -5.315683
-1.445667 82.199738 -9.110497
-1.271955 79.990219 -7.374287
-0.943398 77.036758 -9.297697
-8.080853 87.909271 12.160852
-6.223877 87.689926 13.896928
-7.829832 86.854935 16.092648
-0.908812 75.663101 24.526058
-1.056816 73.953918 21.96604
-0.824482 72.334061 26.104898
-1.257505 47.23341 38.145744
-1.302853 49.592693 34.653896
-1.292267 45.723866 35.909454
-1.038538 44.19519 33.852306
-1.21015 41.896347 37.10321
-1.311373 39.502815 40.286903
-0.786314 69.590775 -0.184869
-0.149817 66.76767 -1.827171
-0.402893 66.838364 1.696908
-0.656658 66.621307 5.304435
-0.149803 66.919693 40.971992
-0.137121 65.915192 38.385651
0.013361 63.322193 42.332413
0.098154 52.803707 48.347733
-0.04031 55.578014 44.685501
-0.206072 51.566982 45.69976
-0.609404 50.187504 43.077534
-0.174744 70.628525 -12.641994
-2.889051 86.840714 3.034921
-2.228355 84.939957 4.727664
-2.82353 86.507126 7.038386
-3.32732 85.573364 17.557161
-2.525177 84.960098 15.220697
-2.326317 83.728989 19.386845
-1.612625 81.423187 21.16832
-2.123995 82.190598 23.583202
-9.049116 82.052979 25.969383
-7.346876 83.750626 24.048838
-7.162306 81.723709 28.004677
-3.960245 77.16861 36.113556
-3.969385 79.69519 32.143295
-2.728794 77.985291 34.148811
-1.806864 78.222549 31.954899
-1.74136 75.820847 36.055336
-0.998003 73.226669 37.835369
-1.768984 73.166214 40.042324
-3.537016 66.249771 49.06131
-2.17186 67.194702 47.521778
-2.56016 63.930782 50.960239
-1.731291 61.239727 52.682476
-3.063644 60.516178 54.183392
-8.927727 88.966995 -2.832176
-5.109631 88.995407 3.691584
-5.191133 89.083496 -0.180552
-3.86339 88.245239 1.382722
-2.889154 86.89798 -0.906799
-4.330919 53.320644 60.015251
-5.040836 49.571224 62.657589
-5.271643 39.201405 69.32901
-3.546581 40.226154 68.613617
-2.964787 44.025745 66.066635
-2.099356 40.889591 67.49733
-0.998306 41.182541 65.972595
-1.606262 79.996155 8.106567
-1.547205 77.616638 5.830711
-1.510895 77.120865 9.771898
-1.413668 69.83873 17.066298
-1.449034 70.884583 13.109842
-1.389404 67.603668 14.819228
-1.110214 65.32048 12.752983
-1.268358 64.24498 16.569708
-0.700806 63.000851 33.110077
-0.940485 65.082474 29.115574
-1.056078 61.268665 30.563475
-1.208155 53.863049 27.485775
-1.318268 57.593975 25.898251
-1.043083 55.712376 23.835779
-0.794136 57.334377 20.165419
-0.445686 53.792248 21.972271
-1.341909 34.538498 46.455017
-0.521723 71.430054 -9.156481
-0.300957 68.931656 -7.230274
-0.806751 71.989929 -5.614367
-1.0345 72.300568 -2.013386
-1.211548 72.353134 1.654352
-0.154129 61.218296 48.601871
0.093485 60.545231 46.159126
0.094063 57.611439 49.845924
0.199713 53.822437 50.93951
0.179657 49.921192 51.895493
0.203566 46.945423 55.326229
0.173243 43.881165 58.638206
0.09409 40.723553 61.825825
-2.734688 86.222351 -8.57766
-1.860052 84.068558 -10.762533
-1.19026 81.470215 -12.827696
-0.602009 76.287918 -12.935596
-0.595274 73.898102 -11.061159
-4.987831 88.612518 7.636213
-3.683609 87.519165 9.353245
-4.824312 87.919556 11.645923
-4.629416 86.906006 15.712428
-4.421955 85.568848 19.822317
-7.048866 79.404663 31.884129
-7.030077 76.814392 35.63575
-5.449903 75.809799 37.810539
-4.061623 74.391281 39.938644
-2.880291 72.548264 41.97316
-4.292053 71.386841 43.578793
-8.723577 89.137009 0.778791
-6.609808 89.120178 5.998465
-1.340216 78.404663 16.218489
-1.411726 76.348602 13.781294
-1.257137 75.293442 17.851032
-1.265488 71.980515 19.462503
-1.31312 68.516861 21.068069
-0.996347 55.141407 35.746914
-1.168486 57.391674 31.973608
-1.256418 53.489468 33.339748
-1.291349 51.813213 31.096909
-1.031555 50.117016 29.03673
-0.787977 46.366817 30.537983
-0.453016 71.796707 32.860344
-0.578642 70.443451 30.241203
-0.34164 68.297119 34.345184
-0.35478 64.578369 35.738972
-0.455973 60.70483 37.051048
0.041145 59.51836 43.566498
-0.229372 58.220997 40.915676
-0.614372 56.737247 38.287701
-0.803341 52.729877 39.451927
-0.99765 48.728268 40.544643
-1.171267 44.767246 41.566345
-1.297503 40.869263 42.518349
-1.791332 82.916245 -1.45974
-1.603445 80.495071 0.249343
-1.84757 82.90239 2.453078
-1.823076 82.629013 6.424652
-1.726423 82.083374 10.457525
-2.697554 85.884018 11.101549
-2.00679 83.77121 12.842293
-1.571327 81.253555 14.550777
-1.374521 80.131302 18.697365
-1.154716 78.713882 22.882799
-0.932415 77.004517 27.084888
-5.780571 84.947006 21.992764
-4.225645 83.912903 23.953659
-5.455477 80.940796 30.079191
-4.066172 81.949646 28.074404
-2.942911 82.373322 25.898129
-1.942581 80.351212 27.783993
-1.21393 77.882187 29.581383
-0.729855 75.012299 31.27446
-0.570412 72.751709 35.416946
-0.476921 70.242126 39.474991
-0.469023 67.507111 43.411903
-1.908613 70.282166 43.875423
-1.139751 67.611572 45.62011
-0.560198 64.572937 47.195721
-0.755552 61.466328 50.802895
-1.051283 58.211765 54.22081
-1.436169 54.829037 57.447845
-9.491465 87.885925 -9.657299
-7.190529 88.430954 -8.785397
-5.306299 88.435059 -7.655304
-6.88435 89.319138 -1.601868
-5.24733 88.892776 -3.969166
-3.858385 87.850616 -6.303223
-2.830853 86.690063 -4.781914
-2.169081 85.014999 -3.149744
-4.69626 59.303059 55.278347
-3.662561 56.973454 57.196777
-2.721752 54.304707 58.935287
-1.894516 51.332058 60.49086
-7.176311 37.840908 69.671295
-6.48431 41.821987 67.47728
-5.766165 45.735371 65.141006
-3.956015 46.935009 64.450058
-2.409365 47.729282 63.3606
-1.202036 48.105274 61.864582
-0.659592 44.681236 63.056606
-0.271427 41.116482 64.063065
-0.028212 37.461189 64.87532
-1.513857 77.845779 1.958474
-1.445475 75.043488 3.668741
-1.341478 72.138992 5.396502
-1.475834 74.067749 11.433212
-1.422647 71.651031 9.216227
-1.165525 69.159775 7.164684
-0.899036 66.114624 8.992825
-0.538034 63.000111 10.889021
-0.09041 59.806545 12.846262
-0.850554 68.788116 27.631165
-1.151218 66.927124 25.092869
-1.356712 64.943848 22.677303
-1.297894 59.451359 28.148096
-1.36479 61.2943 24.2904
-1.355967 62.89822 20.423088
-1.070753 60.819843 18.357029
-0.469999 58.7057 16.495188
-1.352205 37.043194 43.403374
-8.847847 86.773765 15.227467
-7.955342 87.382103 14.12675
-8.973357 87.300933 13.261568
-8.973357 87.300933 13.261568
-9.118469 87.742576 11.357508
-0.129926 50.189537 47.481172
-0.053959 52.185344 47.023747
0.022187 50.8079 48.805159
-0.317972 49.554825 46.158848
-0.129926 50.189537 47.481172
-3.850091 86.821442 -11.781934
-4.622746 87.4841 -10.605322
0.084569 68.942131 -13.329949
-0.08897 69.422073 -11.648687
-8.015436 80.801262 28.88924
-8.105711 81.888344 26.98703
-8.958842 80.965897 27.871593
-3.310747 63.387585 51.619276
-3.048588 65.090277 50.010774
-3.799175 64.547079 50.669811
-3.562489 61.680282 53.230852
-2.811902 62.22348 52.571815
-3.310747 63.387585 51.619276
-9.951469 88.6661 -1.6137
-10.107498 88.531731 -3.333099
-6.003921 48.818359 62.904325
-5.611465 50.734474 61.675848
-3.07406 38.677063 69.340142
-3.844072 38.282095 69.806717
-3.37155 36.733004 70.533242
-1.99078 37.351219 69.395218
-1.739689 39.232029 68.11055
-2.350447 39.008781 68.781998
-0.911695 53.88601 24.678618
-1.125619 54.787712 25.660777
-0.994232 52.961346 26.503616
-0.612997 52.925945 23.746865
-0.744385 54.752312 22.904025
-0.911695 53.88601 24.678618
-0.241664 51.994293 22.863247
-0.612997 52.925945 23.746865
-0.827668 78.946884 -12.922392
-0.926743 79.993736 -13.786638
-1.091185 80.423363 -11.963449
-0.79706 77.832214 -12.017399
-0.632617 77.402588 -13.840588
-0.827668 78.946884 -12.922392
-5.314681 86.694198 16.820955
-5.426647 87.297966 14.804678
-6.111912 87.086159 15.913205
-5.210951 86.02562 18.8759
-4.525685 86.237427 17.767373
-5.314681 86.694198 16.820955
-7.906164 75.759026 36.311144
-7.901359 77.118202 34.549324
-5.536789 74.342865 39.618539
-6.288652 74.892227 38.51165
-4.84265 73.633606 40.682592
-4.755763 75.10054 38.874591
-5.536789 74.342865 39.618539
-4.957864 72.131386 42.502667
-4.176838 72.889061 41.758719
-4.84265 73.633606 40.682592
-6.520672 88.843567 7.957007
-7.462327 88.875679 7.143752
-7.373191 88.599068 9.102294
-0.758163 43.406667 32.91707
-0.92016 42.308029 34.496801
-0.228574 67.904442 -4.506565
-0.09977 67.673523 -6.250523
-0.42976 69.162575 -5.486315
0.544194 63.980154 -1.550366
0.264941 65.316358 -2.541523
0.129436 65.431466 -0.836014
0.904583 62.67095 -0.505034
0.544194 63.980154 -1.550366
0.747421 62.720461 1.187837
0.904583 62.67095 -0.505034
0.250993 62.399392 6.46317
-0.054794 63.845458 5.443592
0.05006 62.141621 8.236632
0.250993 62.399392 6.46317
-0.949167 44.200414 44.474486
-1.114842 43.495024 43.240324
-1.005593 45.472637 42.800506
-7.629565 87.054824 -13.725354
-8.68411 87.293953 -12.475946
-10.581606 87.745155 -8.394545
-10.827231 87.391662 -9.95736
-7.103859 88.717277 -7.021366
-8.18085 88.488327 -7.553088
-8.09418 88.774651 -5.789057
-5.055191 57.475617 56.677511
-5.620612 58.46883 55.62445
-4.538341 56.310814 57.636726
-4.17941 58.138256 56.237562
-5.055191 57.475617 56.677511
-6.547303 36.530842 70.606239
-7.501104 35.822691 70.696461
-0.39643 39.3976 65.521248
-0.634867 41.149512 65.01783
-0.759869 39.43063 66.476013
-0.274823 37.569954 65.927376
-0.149819 39.288835 64.469192
-0.39643 39.3976 65.521248
0.19511 55.905418 16.625349
-0.021498 57.614327 15.669583
-0.253391 56.996792 17.450953
0.477735 54.21418 17.630165
0.19511 55.905418 16.625349
-1.29335 37.692303 44.561615
-1.324854 38.956228 42.960862
-1.265999 39.605337 44.119102
-1.330423 33.911279 45.340244
-1.353222 32.671501 46.789501
-6.914889 86.668663 17.011065
-6.111912 87.086159 15.913205
-7.026854 87.27243 14.994788
-8.19785 88.270226 10.224946
-9.118469 87.742576 11.357508
-7.256194 88.238113 11.038201
-7.373191 88.599068 9.102294
-8.19785 88.270226 10.224946
-1.005966 41.158608 36.122253
-0.92016 42.308029 34.496801
-1.124344 43.045768 35.477758
-1.127735 40.004738 37.669475
-1.005966 41.158608 36.122253
-1.178346 38.807972 39.261322
-1.127735 40.004738 37.669475
-1.260762 40.699581 38.695056
-1.263187 37.614284 40.775169
-1.178346 38.807972 39.261322
-0.148155 65.433411 2.674979
0.257636 64.061859 1.904097
0.002898 65.466813 0.926026
-0.275037 65.324883 4.478743
-0.148155 65.433411 2.674979
-0.529775 66.729836 3.500672
-0.436414 65.141882 6.269284
-0.054794 63.845458 5.443592
-0.275037 65.324883 4.478743
-0.519639 48.865085 44.847735
-0.407738 50.877243 44.388647
-0.317972 49.554825 46.158848
-0.634896 46.860348 45.326301
-0.724661 48.182766 43.556101
-0.519639 48.865085 44.847735
-0.760976 44.864254 45.740727
-0.634896 46.860348 45.326301
-6.516409 87.161476 -13.3669
-6.425075 87.658294 -11.678932
0.027991 70.109246 -14.351386
-0.192268 71.818458 -13.619376
0.287304 68.422852 -15.039341
0.027991 70.109246 -14.351386
0.084569 68.942131 -13.329949
-8.197996 82.901803 25.00911
-8.319172 83.837388 23.075651
-9.170292 82.988564 24.035924
-9.049449 88.756348 -4.576477
-10.107498 88.531731 -3.333099
-7.972458 88.985298 -4.044756
-8.09418 88.774651 -5.789057
-9.049449 88.756348 -4.576477
-5.256506 52.609184 60.354679
-4.872521 54.484409 59.045963
-4.685878 51.445934 61.33642
-5.256506 52.609184 60.354679
-5.611465 50.734474 61.675848
-4.706603 37.769721 70.164413
-5.594969 37.21109 70.435097
-4.409112 39.71378 68.971314
-4.706603 37.769721 70.164413
-3.844072 38.282095 69.806717
-1.189164 39.378504 67.348183
-1.548831 41.036066 66.734962
-1.739689 39.232029 68.11055
-0.759869 39.43063 66.476013
-1.189164 39.378504 67.348183
0.002507 52.792469 21.141438
0.206959 53.540287 19.358662
-0.241235 54.540066 20.189495
0.002507 52.792469 21.141438
-0.241664 51.994293 22.863247
-1.2411 35.154671 47.655495
-1.288202 36.439955 46.087436
-1.314638 33.268673 47.949468
-1.2411 35.154671 47.655495
-1.353222 32.671501 46.789501
-1.314638 33.268673 47.949468
-0.41134 70.180855 -8.193378
-0.152076 68.573639 -8.942827
-0.262459 69.822838 -9.905931
0.062939 49.366642 50.579039
0.022187 50.8079 48.805159
0.138906 51.362449 50.121613
0.117315 47.946216 52.310564
0.062939 49.366642 50.579039
0.129269 46.458332 54.025932
0.117315 47.946216 52.310564
0.191611 48.433307 53.610861
0.161828 44.999006 55.707056
0.129269 46.458332 54.025932
0.146666 43.466877 57.363045
0.161828 44.999006 55.707056
0.188405 45.413294 56.982217
0.159064 41.967056 58.99154
0.146666 43.466877 57.363045
0.119487 40.38825 60.58535
0.159064 41.967056 58.99154
0.133666 42.302359 60.232016
0.114102 38.841664 62.154924
0.119487 40.38825 60.58535
-2.684409 85.857025 -10.423023
-3.236799 86.373138 -11.135298
-3.287078 86.738464 -9.289935
-2.247091 84.780128 -11.51546
-2.684409 85.857025 -10.423023
-2.29737 85.145454 -9.670096
-1.768006 83.63771 -12.59236
-2.247091 84.780128 -11.51546
-1.43311 82.338539 -13.624941
-1.768006 83.63771 -12.59236
-1.525156 82.769386 -11.795115
-1.057225 80.975227 -14.630489
-1.43311 82.338539 -13.624941
-1.057225 80.975227 -14.630489
-0.926743 79.993736 -13.786638
-0.40706 75.791954 -14.713854
-0.632617 77.402588 -13.840588
-0.4059 74.648155 -13.766177
-0.40706 75.791954 -14.713854
-0.402532 73.453247 -12.828958
-0.4059 74.648155 -13.766177
-0.598642 75.09301 -11.998378
-0.385009 72.263313 -11.851577
-0.192268 71.818458 -13.619376
-0.402532 73.453247 -12.828958
-0.262459 69.822838 -9.905931
-0.08897 69.422073 -11.648687
-0.348234 71.02929 -10.899237
-7.910753 78.413337 32.673513
-7.958717 79.641739 30.828966
-7.039472 78.109527 33.75994
-7.910753 78.413337 32.673513
-7.901359 77.118202 34.549324
-7.078739 75.394523 37.424256
-7.906164 75.759026 36.311144
-6.23999 76.312095 36.723145
-7.078739 75.394523 37.424256
-6.288652 74.892227 38.51165
-5.114632 70.557716 44.204929
-4.957864 72.131386 42.502667
-4.477232 69.784081 45.292677
-5.114632 70.557716 44.204929
-3.901884 68.837418 46.314769
-3.716705 70.440178 44.600886
-4.477232 69.784081 45.292677
-4.099714 67.215545 48.033935
-3.339187 67.871643 47.342144
-3.901884 68.837418 46.314769
-4.354707 65.52607 49.635672
-4.099714 67.215545 48.033935
-3.799175 64.547079 50.669811
-4.354707 65.52607 49.635672
-9.711864 88.762306 1.969715
-9.849394 88.751107 0.191783
-8.62501 89.085197 2.634847
-9.711864 88.762306 1.969715
-7.641652 89.198883 3.323249
-7.740219 89.250695 1.467192
-8.62501 89.085197 2.634847
-7.568126 89.076782 5.244684
-7.462327 88.875679 7.143752
-6.683334 89.242279 4.07703
-7.641652 89.198883 3.323249
-7.568126 89.076782 5.244684
-2.863262 35.200128 71.262535
-3.37155 36.733004 70.533242
-2.199161 35.49296 70.680176
-2.863262 35.200128 71.262535
-0.905932 51.08833 27.279094
-0.994232 52.961346 26.503616
-1.119855 51.990032 28.261252
-0.742681 49.247448 28.102425
-0.905932 51.08833 27.279094
-0.620893 47.372349 28.853052
-0.742681 49.247448 28.102425
-0.909766 48.241917 29.787357
-0.429257 45.519356 29.6503
-0.262172 46.524887 27.965369
-0.620893 47.372349 28.853052
-0.632883 44.492481 31.259909
-0.913258 45.281003 32.195144
-0.758163 43.406667 32.91707
-0.429257 45.519356 29.6503
-0.632883 44.492481 31.259909
-10.056783 81.998589 24.99476
-9.170292 82.988564 24.035924
-9.930401 80.998886 26.848886
-10.056783 81.998589 24.99476
-8.958842 80.965897 27.871593
-9.930401 80.998886 26.848886
0.029533 67.361679 -7.935059
-0.152076 68.573639 -8.942827
0.029533 67.361679 -7.935059
-0.09977 67.673523 -6.250523
-0.0242 66.59153 -3.548972
-0.228574 67.904442 -4.506565
-0.35419 68.080582 -2.784764
-0.0242 66.59153 -3.548972
0.264941 65.316358 -2.541523
0.747421 62.720461 1.187837
0.257636 64.061859 1.904097
-1.17796 41.546032 43.716326
-1.234385 42.818254 42.042347
-1.114842 43.495024 43.240324
-1.265999 39.605337 44.119102
-1.17796 41.546032 43.716326
-0.949167 44.200414 44.474486
-0.760976 44.864254 45.740727
-7.629565 87.054824 -13.725354
-6.516409 87.161476 -13.3669
-3.850091 86.821442 -11.781934
-3.236799 86.373138 -11.135298
-8.700655 86.164772 17.15672
-8.847847 86.773765 15.227467
-7.703768 86.160515 18.078795
-8.700655 86.164772 17.15672
-6.914889 86.668663 17.011065
-7.703768 86.160515 18.078795
-7.46229 84.608361 22.056891
-8.319172 83.837388 23.075651
-6.679138 85.20655 21.028854
-7.46229 84.608361 22.056891
-6.563724 84.348816 23.020801
-5.890259 85.714698 19.961123
-6.679138 85.20655 21.028854
-5.101263 85.257927 20.907541
-5.210951 86.02562 18.8759
-5.890259 85.714698 19.961123
-7.105586 80.564186 29.944403
-8.015436 80.801262 28.88924
-7.958717 79.641739 30.828966
-9.70778 87.435432 -11.229882
-10.827231 87.391662 -9.95736
-8.467795 87.744445 -10.903364
-8.68411 87.293953 -12.475946
-9.70778 87.435432 -11.229882
-9.331318 88.215812 -7.989038
-10.581606 87.745155 -8.394545
-8.340997 88.15844 -9.221348
-9.331318 88.215812 -7.989038
-8.18085 88.488327 -7.553088
-6.298276 88.072288 -9.996916
-6.425075 87.658294 -11.678932
-7.317327 88.01696 -10.467413
-5.356161 88.074341 -9.431869
-6.298276 88.072288 -9.996916
-6.248414 88.433007 -8.220351
-4.572883 87.844819 -8.828757
-4.622746 87.4841 -10.605322
-5.356161 88.074341 -9.431869
-8.825652 89.052002 -1.026693
-9.951469 88.6661 -1.6137
-9.849394 88.751107 0.191783
-5.25241 60.290546 54.235555
-5.620612 58.46883 55.62445
-4.378797 61.073723 53.77833
-5.25241 60.290546 54.235555
-3.879952 59.909618 54.730869
-3.562489 61.680282 53.230852
-4.378797 61.073723 53.77833
-3.99674 55.147049 58.606014
-4.538341 56.310814 57.636726
-4.872521 54.484409 59.045963
-8.163021 37.011145 69.673805
-7.501104 35.822691 70.696461
-7.824713 39.019255 68.65448
-8.163021 37.011145 69.673805
-6.223977 38.521157 69.500152
-6.547303 36.530842 70.606239
-5.594969 37.21109 70.435097
-7.478712 41.009794 67.557472
-7.824713 39.019255 68.65448
-6.83031 39.831447 68.574287
-7.111642 42.992134 66.470085
-7.478712 41.009794 67.557472
-6.752569 44.948826 65.301949
-7.111642 42.992134 66.470085
-6.125237 43.778679 66.309143
-6.366586 46.900433 64.146034
-6.752569 44.948826 65.301949
-5.4035 47.653298 63.899298
-6.003921 48.818359 62.904325
-6.366586 46.900433 64.146034
0.052952 37.210482 63.679672
0.114102 38.841664 62.154924
0.032939 39.092371 63.350572
-1.99078 37.351219 69.395218
-2.199161 35.49296 70.680176
-0.108559 35.771282 66.318993
-0.274823 37.569954 65.927376
0.031955 35.608446 65.178314
-0.108559 35.771282 66.318993
0.052952 37.210482 63.679672
0.031955 35.608446 65.178314
-0.110872 61.810448 10.064075
0.05006 62.141621 8.236632
-0.377103 63.331284 9.061578
0.11294 60.213665 11.042696
-0.110872 61.810448 10.064075
-0.314222 61.403328 11.867641
0.413425 58.64199 12.075093
0.11294 60.213665 11.042696
0.168297 58.164749 13.84512
-0.280205 59.256123 14.670725
-0.021498 57.614327 15.669583
0.413425 58.64199 12.075093
0.168297 58.164749 13.84512
0.477735 54.21418 17.630165
0.206959 53.540287 19.358662
-1.283603 36.384474 42.333405
-1.263187 37.614284 40.775169
-1.331789 38.273004 41.845139
-1.347057 35.790846 44.929195
-1.29335 37.692303 44.561615
-1.288202 36.439955 46.087436
-1.335571 35.163628 43.814422
-1.347057 35.790846 44.929195
-1.330423 33.911279 45.340244
-1.283603 36.384474 42.333405
-1.335571 35.163628 43.814422
3 1 66 64
3 0 69 67
3 0 71 69
3 1 74 72
3 1 64 74
3 273 78 274
3 275 274 76
3 273 274 275
3 276 76 277
3 2 81 79
3 3 84 82
3 3 86 84
3 3 87 86
3 4 90 88
3 4 91 90
3 5 94 92
3 278 97 279
3 280 279 95
3 278 279 280
3 282 281 97
3 7 283 284
3 286 285 99
3 8 102 100
3 10 105 103
3 10 107 105
3 287 110 288
3 289 288 108
3 287 288 289
3 11 113 111
3 11 115 113
3 11 117 115
3 290 120 291
3 292 291 118
3 290 291 292
3 293 122 294
3 295 294 120
3 293 294 295
3 296 123 297
3 8 126 124
3 8 100 126
3 298 129 299
3 12 300 302
3 300 131 301
3 300 301 302
3 12 133 131
3 12 303 305
3 305 304 133
3 303 304 305
3 9 137 135
3 13 140 138
3 13 142 140
3 6 145 143
3 306 148 307
3 308 307 146
3 306 307 308
3 309 150 310
3 311 310 148
3 309 310 311
3 313 312 150
3 14 154 152
3 16 155 65
3 16 156 155
3 17 159 157
3 19 160 68
3 19 161 160
3 19 162 161
3 20 163 70
3 20 164 163
3 21 166 165
3 22 167 73
3 22 314 316
3 316 315 167
3 314 315 316
3 22 317 319
3 317 168 318
3 317 318 319
3 14 169 75
3 14 152 169
3 23 172 170
3 320 173 321
3 322 321 77
3 320 321 322
3 323 174 324
3 325 324 173
3 323 324 325
3 326 176 327
3 328 177 329
3 330 178 331
3 332 331 177
3 330 331 332
3 333 180 334
3 335 334 178
3 333 334 335
3 23 336 338
3 336 182 337
3 336 337 338
3 23 170 182
3 28 185 183
3 30 186 80
3 30 187 186
3 31 190 188
3 33 191 83
3 33 192 191
3 33 193 192
3 340 339 85
3 15 341 343
3 343 342 153
3 341 342 343
3 34 344 346
3 346 345 89
3 344 345 346
3 34 347 348
3 34 349 350
3 35 351 352
3 35 353 354
3 36 196 194
3 38 197 93
3 38 198 197
3 18 199 158
3 39 200 96
3 39 201 200
3 39 202 201
3 40 203 98
3 40 204 203
3 40 355 357
3 357 356 204
3 355 356 357
3 41 358 359
3 42 208 206
3 44 209 101
3 44 210 209
3 24 211 171
3 45 212 104
3 45 213 212
3 45 214 213
3 46 215 106
3 46 216 215
3 47 217 109
3 47 218 217
3 25 219 175
3 48 220 112
3 48 221 220
3 48 222 221
3 49 223 114
3 49 224 223
3 49 225 224
3 50 226 116
3 50 227 226
3 26 228 179
3 51 229 119
3 51 230 229
3 51 231 230
3 52 232 121
3 52 233 232
3 360 234 361
3 53 362 364
3 362 235 363
3 362 363 364
3 53 236 235
3 27 237 181
3 54 238 125
3 54 239 238
3 54 240 239
3 42 241 127
3 42 206 241
3 365 242 366
3 367 243 368
3 369 368 242
3 367 368 369
3 55 244 128
3 55 245 244
3 370 246 371
3 56 247 130
3 56 248 247
3 56 249 248
3 57 250 132
3 57 251 250
3 57 252 251
3 372 253 373
3 374 373 134
3 372 373 374
3 375 254 376
3 377 376 253
3 375 376 377
3 43 255 207
3 58 256 136
3 58 257 256
3 29 258 184
3 59 259 139
3 59 260 259
3 59 261 260
3 60 262 141
3 60 263 262
3 37 264 195
3 61 265 144
3 61 266 265
3 32 267 189
3 62 268 147
3 62 269 268
3 62 270 269
3 63 271 149
3 63 378 380
3 380 379 271
3 378 379 380
3 63 381 382
3 383 272 384
3 385 384 205
3 383 384 385
3 387 386 151
3 64 65 14
3 66 65 64
3 66 16 65
3 67 68 17
3 69 68 67
3 69 19 68
3 69 70 19
3 71 70 69
3 71 20 70
3 72 73 21
3 74 73 72
3 74 22 73
3 74 75 22
3 64 75 74
3 64 14 75
3 76 77 23
3 78 77 76
3 78 388 390
3 390 389 77
3 388 389 390
3 76 391 392
3 76 393 395
3 393 23 394
3 393 394 395
3 79 80 28
3 81 80 79
3 81 30 80
3 82 83 31
3 84 83 82
3 84 33 83
3 84 85 33
3 86 85 84
3 86 396 398
3 398 397 85
3 396 397 398
3 86 399 400
3 87 401 403
3 403 402 86
3 401 402 403
3 87 404 405
3 88 89 15
3 90 89 88
3 90 34 89
3 90 406 408
3 408 407 34
3 406 407 408
3 91 409 411
3 411 410 90
3 409 410 411
3 91 412 414
3 412 35 413
3 412 413 414
3 92 93 36
3 94 93 92
3 94 38 93
3 95 96 18
3 97 96 95
3 97 39 96
3 97 98 39
3 415 98 416
3 417 416 97
3 415 416 417
3 418 40 419
3 420 419 98
3 418 419 420
3 422 421 40
3 424 423 41
3 99 425 426
3 429 428 99
3 427 428 429
3 100 101 42
3 102 101 100
3 102 44 101
3 103 104 24
3 105 104 103
3 105 45 104
3 105 106 45
3 107 106 105
3 107 46 106
3 108 430 432
3 430 109 431
3 430 431 432
3 110 109 108
3 110 47 109
3 111 112 25
3 113 112 111
3 113 48 112
3 113 114 48
3 115 114 113
3 115 49 114
3 115 116 49
3 117 116 115
3 117 50 116
3 118 119 26
3 120 119 118
3 120 51 119
3 120 121 51
3 122 121 120
3 122 52 121
3 123 433 434
3 123 435 437
3 435 53 436
3 435 436 437
3 124 125 27
3 126 125 124
3 126 54 125
3 126 127 54
3 100 127 126
3 100 42 127
3 438 128 439
3 129 440 442
3 440 128 441
3 440 441 442
3 129 55 128
3 443 130 444
3 131 445 447
3 445 130 446
3 445 446 447
3 131 56 130
3 131 132 56
3 133 132 131
3 133 57 132
3 133 134 57
3 448 134 449
3 450 449 133
3 448 449 450
3 452 451 134
3 135 136 43
3 137 136 135
3 137 58 136
3 138 139 29
3 140 139 138
3 140 59 139
3 140 141 59
3 142 141 140
3 142 60 141
3 143 144 37
3 145 144 143
3 145 61 144
3 146 147 32
3 148 147 146
3 148 62 147
3 148 149 62
3 150 149 148
3 150 63 149
3 150 453 455
3 455 454 63
3 453 454 455
3 457 456 150
3 458 151 459
3 460 151 461
3 463 462 151
3 152 464 466
3 464 153 465
3 464 465 466
3 154 153 152
3 154 15 153
3 65 154 14
3 155 154 65
3 155 15 154
3 155 88 15
3 156 88 155
3 156 4 88
3 157 158 5
3 159 158 157
3 159 18 158
3 68 159 17
3 160 159 68
3 160 18 159
3 160 95 18
3 161 95 160
3 161 467 469
3 469 468 95
3 467 468 469
3 161 470 471
3 162 472 474
3 474 473 161
3 472 473 474
3 162 475 476
3 70 162 19
3 163 162 70
3 163 477 479
3 479 478 162
3 477 478 479
3 163 480 481
3 164 482 484
3 484 483 163
3 482 483 484
3 164 485 486
3 165 487 489
3 489 488 7
3 487 488 489
3 166 490 492
3 492 491 165
3 490 491 492
3 166 493 494
3 73 166 21
3 167 166 73
3 167 495 497
3 497 496 166
3 495 496 497
3 167 498 499
3 501 500 167
3 168 502 503
3 168 504 505
3 75 168 22
3 169 168 75
3 169 506 508
3 508 507 168
3 506 507 508
3 169 509 511
3 509 99 510
3 509 510 511
3 152 99 169
3 152 512 514
3 514 513 99
3 512 513 514
3 170 171 8
3 172 171 170
3 172 24 171
3 77 172 23
3 173 172 77
3 173 24 172
3 173 103 24
3 174 103 173
3 174 10 103
3 515 175 516
3 176 517 519
3 517 175 518
3 517 518 519
3 176 25 175
3 520 176 521
3 177 522 524
3 522 176 523
3 522 523 524
3 177 25 176
3 177 111 25
3 178 111 177
3 178 11 111
3 178 179 11
3 180 179 178
3 180 26 179
3 525 180 526
3 527 180 528
3 529 26 530
3 531 530 180
3 529 530 531
3 532 118 533
3 534 533 26
3 532 533 534
3 535 118 536
3 538 537 118
3 539 181 540
3 541 181 542
3 543 27 544
3 545 544 181
3 543 544 545
3 182 546 547
3 182 548 550
3 548 27 549
3 548 549 550
3 182 124 27
3 170 124 182
3 170 8 124
3 551 12 552
3 554 553 12
3 183 184 9
3 185 184 183
3 185 29 184
3 80 185 28
3 186 185 80
3 186 29 185
3 186 138 29
3 187 138 186
3 187 13 138
3 188 189 6
3 190 189 188
3 190 32 189
3 83 190 31
3 191 190 83
3 191 32 190
3 191 146 32
3 192 146 191
3 192 555 557
3 557 556 146
3 555 556 557
3 192 558 559
3 193 560 562
3 562 561 192
3 560 561 562
3 193 563 565
3 563 564 565
3 85 193 33
3 566 193 567
3 568 567 85
3 566 567 568
3 570 569 193
3 571 108 572
3 573 108 574
3 576 575 108
3 153 577 578
3 580 579 153
3 89 581 583
3 583 582 15
3 581 582 583
3 585 584 89
3 587 586 34
3 194 195 2
3 196 195 194
3 196 37 195
3 93 196 36
3 197 196 93
3 197 37 196
3 197 143 37
3 198 143 197
3 198 6 143
3 158 94 5
3 199 94 158
3 199 38 94
3 96 199 18
3 200 199 96
3 200 38 199
3 200 198 38
3 201 198 200
3 201 6 198
3 201 188 6
3 202 188 201
3 202 31 188
3 98 202 39
3 203 202 98
3 203 31 202
3 203 82 31
3 204 82 203
3 204 3 82
3 204 205 3
3 588 205 589
3 590 589 204
3 588 589 590
3 592 591 205
3 594 593 40
3 596 595 41
3 598 597 7
3 206 207 1
3 208 207 206
3 208 43 207
3 101 208 42
3 209 208 101
3 209 43 208
3 209 135 43
3 210 135 209
3 210 9 135
3 171 102 8
3 211 102 171
3 211 44 102
3 104 211 24
3 212 211 104
3 212 44 211
3 212 210 44
3 213 210 212
3 213 9 210
3 213 183 9
3 214 183 213
3 214 28 183
3 106 214 45
3 215 214 106
3 215 28 214
3 215 79 28
3 216 79 215
3 216 2 79
3 599 78 600
3 601 78 602
3 604 603 78
3 109 605 606
3 217 607 609
3 609 608 109
3 607 608 609
3 217 610 611
3 217 612 614
3 612 174 613
3 612 613 614
3 218 174 217
3 218 10 174
3 175 615 617
3 615 110 616
3 615 616 617
3 219 110 175
3 219 47 110
3 112 219 25
3 220 219 112
3 220 47 219
3 220 218 47
3 221 218 220
3 221 10 218
3 221 107 10
3 222 107 221
3 222 46 107
3 114 222 48
3 223 222 114
3 223 46 222
3 223 216 46
3 224 216 223
3 224 2 216
3 224 194 2
3 225 194 224
3 225 36 194
3 116 225 49
3 226 225 116
3 226 36 225
3 226 92 36
3 227 92 226
3 227 5 92
3 179 117 11
3 228 117 179
3 228 50 117
3 119 228 26
3 229 228 119
3 229 50 228
3 229 227 50
3 230 227 229
3 230 5 227
3 230 157 5
3 231 157 230
3 231 17 157
3 121 231 51
3 232 231 121
3 232 17 231
3 232 67 17
3 233 67 232
3 233 0 67
3 234 618 619
3 234 620 622
3 620 41 621
3 620 621 622
3 623 234 624
3 235 625 627
3 625 234 626
3 625 626 627
3 235 41 234
3 235 628 630
3 630 629 41
3 628 629 630
3 236 631 633
3 633 632 235
3 631 632 633
3 236 634 636
3 634 7 635
3 634 635 636
3 181 637 639
3 637 123 638
3 637 638 639
3 237 123 181
3 237 53 123
3 125 237 27
3 238 237 125
3 238 53 237
3 238 236 53
3 239 236 238
3 239 7 236
3 239 165 7
3 240 165 239
3 240 21 165
3 127 240 54
3 241 240 127
3 241 21 240
3 241 72 21
3 206 72 241
3 206 1 72
3 242 640 641
3 242 642 643
3 242 644 646
3 644 122 645
3 644 645 646
3 243 122 242
3 243 52 122
3 128 647 649
3 647 243 648
3 647 648 649
3 244 243 128
3 244 52 243
3 244 233 52
3 245 233 244
3 245 0 233
3 246 650 651
3 246 652 653
3 130 654 656
3 654 246 655
3 654 655 656
3 247 246 130
3 247 657 659
3 659 658 246
3 657 658 659
3 247 660 661
3 248 662 664
3 664 663 247
3 662 663 664
3 248 665 666
3 248 667 669
3 667 129 668
3 667 668 669
3 249 129 248
3 249 55 129
3 132 249 56
3 250 249 132
3 250 55 249
3 250 245 55
3 251 245 250
3 251 0 245
3 251 71 0
3 252 71 251
3 252 20 71
3 134 252 57
3 253 252 134
3 253 20 252
3 253 164 20
3 254 164 253
3 254 670 672
3 672 671 164
3 670 671 672
3 674 673 12
3 675 254 676
3 677 254 678
3 680 679 254
3 207 66 1
3 255 66 207
3 255 16 66
3 136 255 43
3 256 255 136
3 256 16 255
3 256 156 16
3 257 156 256
3 257 4 156
3 184 137 9
3 258 137 184
3 258 58 137
3 139 258 29
3 259 258 139
3 259 58 258
3 259 257 58
3 260 257 259
3 260 4 257
3 260 91 4
3 261 91 260
3 261 35 91
3 141 261 59
3 262 261 141
3 262 35 261
3 262 681 683
3 683 682 35
3 681 682 683
3 263 684 686
3 686 685 262
3 684 685 686
3 263 687 688
3 195 81 2
3 264 81 195
3 264 30 81
3 144 264 37
3 265 264 144
3 265 30 264
3 265 187 30
3 266 187 265
3 266 13 187
3 189 145 6
3 267 145 189
3 267 61 145
3 147 267 32
3 268 267 147
3 268 61 267
3 268 266 61
3 269 266 268
3 269 13 266
3 269 142 13
3 270 142 269
3 270 60 142
3 149 270 62
3 271 270 149
3 271 60 270
3 271 263 60
3 689 263 690
3 691 690 271
3 689 690 691
3 693 692 263
3 695 694 63
3 205 87 3
3 272 87 205
3 272 696 698
3 698 697 87
3 696 697 698
3 151 699 701
3 699 272 700
3 699 700 701
3 702 272 703
3 704 703 151
3 702 703 704
3 706 705 272
