ply
format ascii 1.0
element vertex 452
property float x
property float y
property float z
element face 440
property list uchar int vertex_index
end_header
-43.123726 27.043858 7.050142
-52.695183 27.580383 16.441805
-49.265808 20.708775 6.645533
-56.853912 18.741833 9.837709
-54.936447 26.020901 8.384621
-51.546059 33.316715 6.653518
-42.191345 19.181519 8.387702
-39.390617 22.097881 7.773809
-40.223915 30.253292 6.158838
-51.668182 11.048462 6.942707
-48.456524 13.629211 7.655419
-52.175598 17.73745 5.964091
-55.267059 19.087677 14.437245
-54.883076 27.157082 12.063441
-54.752048 31.202419 10.66583
-53.543938 29.66708 7.715134
-53.904816 35.146461 8.70997
-48.776989 22.648693 22.346451
-52.091297 23.047775 17.849596
-45.26125 16.334393 8.261321
-46.201008 23.815891 7.127885
-45.876781 22.049164 26.679264
-43.528549 27.045326 28.988926
-56.779884 17.411667 6.540452
-54.784794 23.051666 13.179343
-55.869778 22.354137 8.960024
-54.90184 20.642029 6.29235
-52.819889 23.917892 6.440952
-50.347218 27.259296 6.552577
-47.548584 30.698448 6.267757
-42.589188 23.194332 7.735015
-40.748211 20.639942 8.18565
-41.113026 24.74334 7.507874
-39.713223 26.278549 7.05985
-41.638947 28.664017 6.718205
-53.420063 13.102585 5.980471
-51.915268 14.455036 6.263003
-53.559418 16.287224 5.689037
-54.442528 31.702862 12.582941
-54.427689 33.186214 9.765114
-47.170052 24.905613 23.661045
-48.858284 25.095448 21.554733
-48.833637 17.232632 7.01281
-46.851566 14.963802 7.997645
-47.261375 18.66909 7.364175
-45.68409 20.143852 7.629699
-47.745705 22.24358 6.936859
-47.72422 19.947319 25.409561
-46.541939 19.557091 27.647196
-43.009186 23.913776 32.329765
-43.571995 24.166885 30.055792
-42.861206 26.854801 31.195305
-43.070202 29.833397 30.036579
-42.625893 29.697117 32.286942
-57.047409 18.219254 7.953798
-52.297344 25.303654 17.165951
-53.744057 25.272339 14.888427
-55.200989 26.696438 10.068111
-55.398018 24.755703 10.506989
-55.435226 24.189079 8.659721
-55.640358 21.64032 7.364129
-54.921177 23.370232 7.234078
-53.904297 22.275066 6.344393
-54.116394 25.101604 7.145392
-52.615067 31.490105 7.245424
-52.136414 28.582584 6.888083
-50.958061 30.343864 6.636017
-48.97736 28.968056 6.477311
-49.679367 32.119946 6.261238
-44.958717 30.03447 25.83564
-38.039513 19.110184 7.690504
-38.136765 23.530994 7.134623
-38.412224 27.771667 6.373225
-38.905163 31.779823 5.356647
-50.064003 12.325777 7.285191
-50.38715 15.830139 6.626767
-50.745182 19.209015 6.302751
-56.881538 17.229412 12.779814
-56.236404 19.016609 12.046827
-54.016754 27.43866 14.228592
-54.888741 29.192688 11.422833
-54.901131 28.622715 9.580795
-54.316257 27.845772 8.084103
-54.444153 30.532848 9.003386
-53.807312 32.430168 8.307545
-52.996094 34.317547 7.478263
-50.637775 20.617325 20.891125
-50.442024 22.88271 20.130978
-50.616806 25.234894 19.395126
-51.057755 27.619617 18.621996
-43.701824 17.742081 8.403239
-44.119934 21.655392 7.765536
-44.652603 25.420578 7.177182
-49.115013 20.306595 23.168797
-47.222061 22.365585 24.516792
-45.675499 24.679165 25.752028
-44.80685 21.715889 28.873226
-44.461372 24.428082 27.871262
-44.540298 27.224232 26.873974
-43.839703 29.949165 27.892181
-56.053551 16.293781 5.714664
-53.654755 21.010342 16.16464
-54.904404 21.033447 13.765247
-55.822624 20.888298 11.446453
-54.814117 25.103493 12.630903
-55.573463 22.811958 10.948626
-56.315956 20.530361 9.337609
-56.327736 19.917999 7.588624
-55.845253 19.018158 6.341092
-54.899483 17.810009 5.697114
-53.715851 19.342609 5.824941
-52.474686 20.889778 6.043376
-51.160477 22.456455 6.29357
-53.191975 26.836876 7.0455
-51.633415 25.576908 6.526761
-49.772057 24.050415 6.518895
-48.320694 25.677288 6.668891
-46.82618 27.336384 6.700732
-45.313137 29.018372 6.578804
-43.808556 30.70509 6.273532
-54.165025 13.979191 5.758126
-54.165835 12.437916 5.90733
-54.234703 15.57151 5.612409
-53.48974 14.694904 5.834754
-54.165025 13.979191 5.758126
-47.332951 26.204164 23.225769
-46.526707 26.142502 24.241312
-47.105721 18.407023 28.164704
-47.617688 18.631554 27.010524
-42.684059 26.761373 32.35132
-42.935196 25.384288 31.762535
-42.758049 25.290861 32.918551
-42.566402 28.182531 32.897139
-42.74355 28.275959 31.741124
-42.684059 26.761373 32.35132
-57.356624 17.654291 9.164375
-57.202194 17.87929 10.16387
-56.95066 18.480543 8.895753
-57.453373 17.393002 8.222419
-57.356624 17.654291 9.164375
-45.27935 31.417778 25.27141
-44.67963 31.424988 26.279837
-41.350643 17.786782 8.593536
-42.044124 17.109438 8.718789
-39.305049 19.927103 8.062487
-39.983846 19.198134 8.268407
-40.069414 21.368912 7.97973
-38.715065 20.604033 7.732157
-38.629497 18.433255 8.020834
-39.305049 19.927103 8.062487
-51.535799 9.292396 7.449609
-52.469268 10.421986 6.813578
-50.705441 9.880912 7.595314
-51.535799 9.292396 7.449609
-50.866093 11.68712 7.113949
-49.903351 10.519569 7.766556
-50.705441 9.880912 7.595314
-56.074298 18.158544 13.608529
-56.406444 17.23962 14.0031
-55.599205 18.168753 14.831815
-49.943016 26.410847 20.065361
-49.737545 25.165171 20.47493
-49.063755 26.341124 21.145164
-50.163491 27.603209 19.678796
-50.83728 26.427256 19.008561
-49.943016 26.410847 20.065361
-47.469663 12.387921 8.248349
-48.27866 11.772589 8.107986
-45.080355 14.371937 8.651665
-45.875513 13.686642 8.519827
-46.056408 15.649097 8.129483
-44.313333 15.020725 8.691822
-45.080355 14.371937 8.651665
-44.481537 17.038237 8.33228
-43.53362 15.724569 8.762781
-44.313333 15.020725 8.691822
-49.512432 19.215193 23.616248
-50.18861 19.398964 22.445912
-44.424051 21.550856 30.001753
-45.211149 20.436043 29.394298
-43.306607 31.308695 29.428168
-43.041052 31.271387 30.526205
-56.996009 16.107748 6.230463
-57.266864 16.625296 6.733265
-56.416718 16.852724 6.127558
-56.632843 15.548805 5.817569
-56.996009 16.107748 6.230463
-52.873026 22.029059 17.007118
-52.92276 20.935345 17.359704
-52.141031 21.954062 18.202182
-54.844599 22.042556 13.472295
-54.244622 22.074821 14.639527
-54.184816 23.083931 14.346575
-44.2207 32.433022 5.807965
-44.949294 31.570927 6.085228
-43.0747 31.53802 6.017079
-44.2207 32.433022 5.807965
-53.345209 11.449048 6.33246
-54.165835 12.437916 5.90733
-52.544123 12.075523 6.461589
-52.469268 10.421986 6.813578
-53.345209 11.449048 6.33246
-54.654909 19.043551 15.664307
-55.599205 18.168753 14.831815
-54.129032 32.973801 13.020626
-54.00147 31.884402 13.60738
-54.433426 32.742421 12.051454
-54.129032 32.973801 13.020626
-54.588186 32.492199 11.092898
-54.597288 31.452641 11.624385
-54.433426 32.742421 12.051454
-54.426006 33.484096 10.64254
-54.589869 32.194316 10.215472
-54.588186 32.492199 11.092898
-54.312675 34.505819 10.020888
-54.426006 33.484096 10.64254
-54.051239 35.485943 9.493316
-54.166252 34.166337 9.237542
-54.312675 34.505819 10.020888
-48.177067 26.299082 22.172613
-48.014168 25.00053 22.607889
-47.332951 26.204164 23.225769
-49.063755 26.341124 21.145164
-48.177067 26.299082 22.172613
-48.208828 18.826668 25.891706
-48.817036 19.035555 24.736629
-47.13308 19.752205 26.528379
-48.208828 18.826668 25.891706
-47.617688 18.631554 27.010524
-43.290591 24.04033 31.192779
-43.806624 22.776353 30.593036
-43.525219 22.649799 31.730023
-42.818897 31.203247 31.651387
-43.041052 31.271387 30.526205
-42.848047 29.765257 31.16176
-57.400627 17.029089 7.439938
-57.453373 17.393002 8.222419
-56.913646 17.815461 7.247125
-57.266864 16.625296 6.733265
-57.400627 17.029089 7.439938
-52.941091 24.209925 16.339879
-52.838068 23.081986 16.681701
-52.194321 24.175715 17.507773
-53.664448 24.194267 15.201117
-52.941091 24.209925 16.339879
-53.020701 25.287996 16.027189
-54.264426 24.162002 14.033885
-54.184816 23.083931 14.346575
-53.664448 24.194267 15.201117
-45.679819 30.059502 24.834945
-45.421039 28.70693 25.328609
-45.679819 30.059502 24.834945
-45.27935 31.417778 25.27141
-40.629076 18.515993 8.49251
-41.350643 17.786782 8.593536
-41.469778 19.91073 8.286676
-40.629076 18.515993 8.49251
-39.983846 19.198134 8.268407
-38.054011 16.838663 7.88949
-38.629497 18.433255 8.020834
-37.576271 17.461436 7.416109
-37.590768 15.189915 7.615095
-38.054011 16.838663 7.88949
-37.511475 19.770331 7.249217
-37.576271 17.461436 7.416109
-37.560101 21.980736 6.971277
-37.511475 19.770331 7.249217
-38.088139 21.320589 7.412564
-37.570856 24.221601 6.69596
-37.560101 21.980736 6.971277
-37.708586 26.341938 6.315262
-37.570856 24.221601 6.69596
-38.274495 25.651331 6.753924
-37.82251 28.481779 5.905809
-37.708586 26.341938 6.315262
-38.068979 30.485857 5.39752
-37.82251 28.481779 5.905809
-38.658693 29.775745 5.864936
-38.307142 32.494516 4.831017
-38.068979 30.485857 5.39752
-49.0824 11.120873 7.922872
-49.903351 10.519569 7.766556
-49.260264 12.977494 7.470305
-48.27866 11.772589 8.107986
-49.0824 11.120873 7.922872
-43.291357 22.49764 32.899899
-43.525219 22.649799 31.730023
-42.873232 23.800463 33.516834
-43.291357 22.49764 32.899899
-42.758049 25.290861 32.918551
-42.873232 23.800463 33.516834
-57.333195 16.388738 13.216107
-56.406444 17.23962 14.0031
-57.662273 16.303455 12.040903
-57.333195 16.388738 13.216107
-57.216007 17.123079 11.634922
-57.662273 16.303455 12.040903
-56.89344 18.016678 11.268429
-57.216007 17.123079 11.634922
-56.558971 18.12301 12.413321
-56.545158 18.879221 10.942268
-57.202194 17.87929 10.16387
-56.89344 18.016678 11.268429
-53.586483 28.640156 14.921613
-53.355969 27.509521 15.335199
-52.925697 28.711018 16.028219
-54.15014 28.512848 13.852234
-53.586483 28.640156 14.921613
-54.583302 28.372059 12.769658
-54.449915 27.297871 13.146016
-54.15014 28.512848 13.852234
-54.363028 30.644949 13.029408
-54.00147 31.884402 13.60738
-54.586134 29.389862 12.449355
-54.363028 30.644949 13.029408
-54.665635 30.447775 12.002887
-54.885908 28.174885 11.743137
-54.583302 28.372059 12.769658
-54.586134 29.389862 12.449355
-51.41427 20.738836 19.722946
-51.65488 19.703963 20.111457
-51.316395 21.871529 19.342873
-51.41427 20.738836 19.722946
-50.5399 21.750017 20.511052
-51.266661 22.965243 18.990287
-52.141031 21.954062 18.202182
-51.316395 21.871529 19.342873
-50.471676 28.845236 19.223502
-50.163491 27.603209 19.678796
-51.346344 28.806116 18.184414
-50.471676 28.845236 19.223502
-52.165058 28.786499 17.094318
-51.876469 27.6 17.5319
-51.346344 28.806116 18.184414
-52.925697 28.711018 16.028219
-52.165058 28.786499 17.094318
-46.667184 13.055217 8.419462
-47.469663 12.387921 8.248349
-47.654045 14.296506 7.826532
-46.667184 13.055217 8.419462
-45.875513 13.686642 8.519827
-42.799364 16.389719 8.726557
-43.53362 15.724569 8.762781
-42.946585 18.4618 8.395471
-42.044124 17.109438 8.718789
-42.799364 16.389719 8.726557
-50.949991 19.554329 21.307077
-51.65488 19.703963 20.111457
-49.876394 20.46196 22.029961
-50.949991 19.554329 21.307077
-50.18861 19.398964 22.445912
-48.419617 20.126957 24.289179
-49.512432 19.215193 23.616248
-48.817036 19.035555 24.736629
-45.779431 26.029278 25.286803
-46.526707 26.142502 24.241312
-46.422776 24.792389 24.706536
-46.078693 19.356644 28.781284
-47.105721 18.407023 28.164704
-45.674394 20.63649 28.260211
-46.078693 19.356644 28.781284
-45.211149 20.436043 29.394298
-44.189422 22.941387 29.464509
-44.424051 21.550856 30.001753
-43.806624 22.776353 30.593036
-45.21183 27.301811 25.847777
-45.779431 26.029278 25.286803
-45.107899 25.951698 26.313001
-44.749507 28.629351 26.354807
-45.421039 28.70693 25.328609
-45.21183 27.301811 25.847777
-44.120123 31.382335 27.308108
-44.67963 31.424988 26.279837
-44.39921 29.991817 26.863911
-43.691357 31.366579 28.355969
-43.454953 29.891281 28.96438
-43.306607 31.308695 29.428168
-44.120123 31.382335 27.308108
-43.691357 31.366579 28.355969
-42.534142 29.624834 33.46756
-42.566402 28.182531 32.897139
-42.686027 31.148706 32.80365
-42.534142 29.624834 33.46756
-42.818897 31.203247 31.651387
-42.686027 31.148706 32.80365
-56.151032 14.870683 5.634467
-56.632843 15.548805 5.817569
-55.481769 15.574789 5.625222
-56.151032 14.870683 5.634467
-53.848757 20.004883 16.528005
-52.92276 20.935345 17.359704
-54.460907 20.04901 15.300942
-54.654909 19.043551 15.664307
-53.848757 20.004883 16.528005
-53.619797 22.063269 15.839223
-52.873026 22.029059 17.007118
-52.838068 23.081986 16.681701
-54.279579 21.021895 14.964944
-53.619797 22.063269 15.839223
-54.244622 22.074821 14.639527
-54.904736 16.332903 5.616447
-55.481769 15.574789 5.625222
-55.476517 17.051895 5.705889
-54.22945 17.048617 5.693075
-54.234703 15.57151 5.612409
-54.904736 16.332903 5.616447
-53.835371 36.490253 8.784854
-54.051239 35.485943 9.493316
-53.552532 36.114708 8.106537
-53.835371 36.490253 8.784854
-53.098171 35.70025 7.490684
-53.450455 34.732004 8.094117
-53.552532 36.114708 8.106537
-52.516007 35.255235 6.994595
-53.098171 35.70025 7.490684
-51.790989 34.754819 6.582223
-52.271076 33.817131 7.065891
-52.516007 35.255235 6.994595
-50.956288 34.229276 6.289877
-51.790989 34.754819 6.582223
-50.022942 33.630892 6.093737
-50.612713 32.718331 6.457378
-50.956288 34.229276 6.289877
-49.005059 33.010827 6.001907
-50.022942 33.630892 6.093737
-47.939667 32.300078 6.005167
-48.613975 31.409197 6.264497
-49.005059 33.010827 6.001907
-46.819308 31.567606 6.08234
-47.939667 32.300078 6.005167
-45.701584 30.727568 6.237863
-46.43086 29.85841 6.42328
-46.819308 31.567606 6.08234
-44.560846 29.861731 6.426168
-45.701584 30.727568 6.237863
-44.949294 31.570927 6.085228
-41.989895 30.517483 6.239415
-42.723752 29.684553 6.495869
-43.0747 31.53802 6.017079
-41.282379 31.31212 5.959732
-40.931431 29.458655 6.438522
-41.989895 30.517483 6.239415
-40.581703 32.119093 5.590171
-41.282379 31.31212 5.959732
-39.922327 32.882358 5.189075
-39.564539 31.016557 5.757742
-40.581703 32.119093 5.590171
-39.269799 33.645885 4.700828
-39.922327 32.882358 5.189075
-40.286963 34.748421 4.533256
-38.307142 32.494516 4.831017
-39.269799 33.645885 4.700828
3 0 32 30
3 0 34 32
3 120 35 121
3 122 37 123
3 124 123 35
3 122 123 124
3 126 125 40
3 2 44 42
3 2 46 44
3 127 48 128
3 129 51 130
3 131 130 49
3 129 130 131
3 132 53 133
3 134 133 51
3 132 133 134
3 3 135 136
3 3 137 139
3 137 54 138
3 137 138 139
3 1 56 55
3 4 59 57
3 4 61 59
3 4 63 61
3 5 66 64
3 5 68 66
3 141 140 69
3 6 142 143
3 7 144 146
3 146 145 31
3 144 145 146
3 7 147 149
3 147 70 148
3 147 148 149
3 7 71 70
3 8 72 33
3 8 73 72
3 9 150 151
3 9 152 153
3 9 154 156
3 154 74 155
3 154 155 156
3 11 75 36
3 11 76 75
3 12 157 159
3 157 77 158
3 157 158 159
3 12 78 77
3 14 80 38
3 14 81 80
3 14 83 81
3 16 84 39
3 16 85 84
3 17 87 86
3 160 88 161
3 162 161 41
3 160 161 162
3 163 89 164
3 165 164 88
3 163 164 165
3 10 166 167
3 19 168 170
3 170 169 43
3 168 169 170
3 19 171 172
3 19 173 175
3 173 90 174
3 173 174 175
3 20 91 45
3 20 92 91
3 176 93 177
3 21 94 47
3 21 95 94
3 178 96 179
3 22 97 50
3 22 98 97
3 22 99 98
3 181 180 52
3 23 182 183
3 23 184 186
3 184 100 185
3 184 185 186
3 18 187 189
3 187 101 188
3 187 188 189
3 24 190 192
3 190 102 191
3 190 191 192
3 24 103 102
3 13 104 79
3 25 105 58
3 25 106 105
3 25 107 106
3 26 108 60
3 26 109 108
3 26 110 109
3 27 111 62
3 27 112 111
3 15 113 82
3 28 114 65
3 28 115 114
3 28 116 115
3 29 117 67
3 29 118 117
3 193 119 194
3 196 195 119
3 30 31 6
3 32 31 30
3 32 7 31
3 32 33 7
3 34 33 32
3 34 8 33
3 35 197 198
3 35 199 201
3 199 9 200
3 199 200 201
3 35 36 9
3 37 36 35
3 37 11 36
3 202 12 203
3 204 38 205
3 206 38 207
3 208 14 209
3 210 209 38
3 208 209 210
3 211 39 212
3 213 212 14
3 211 212 213
3 214 39 215
3 216 16 217
3 218 217 39
3 216 217 218
3 40 41 17
3 219 41 220
3 221 220 40
3 219 220 221
3 223 222 41
3 42 43 10
3 44 43 42
3 44 19 43
3 44 45 19
3 46 45 44
3 46 20 45
3 224 47 225
3 48 226 228
3 226 47 227
3 226 227 228
3 48 21 47
3 49 229 231
3 229 50 230
3 229 230 231
3 51 50 49
3 51 22 50
3 51 52 22
3 53 52 51
3 53 232 234
3 234 233 52
3 232 233 234
3 54 235 236
3 54 237 239
3 237 23 238
3 237 238 239
3 55 240 242
3 242 241 18
3 240 241 242
3 56 243 245
3 245 244 55
3 243 244 245
3 56 246 248
3 246 24 247
3 246 247 248
3 57 58 13
3 59 58 57
3 59 25 58
3 59 60 25
3 61 60 59
3 61 26 60
3 61 62 26
3 63 62 61
3 63 27 62
3 64 65 15
3 66 65 64
3 66 28 65
3 66 67 28
3 68 67 66
3 68 29 67
3 69 249 250
3 252 251 69
3 31 253 255
3 255 254 6
3 253 254 255
3 257 256 31
3 70 258 259
3 70 260 262
3 260 261 262
3 70 263 264
3 71 265 267
3 267 266 70
3 265 266 267
3 71 268 269
3 33 71 7
3 72 71 33
3 72 270 272
3 272 271 71
3 270 271 272
3 72 273 274
3 73 275 277
3 277 276 72
3 275 276 277
3 73 278 279
3 74 280 281
3 74 282 284
3 282 10 283
3 282 283 284
3 36 74 9
3 75 74 36
3 75 10 74
3 75 42 10
3 76 42 75
3 76 2 42
3 285 49 286
3 287 49 288
3 290 289 49
3 77 291 292
3 77 293 294
3 77 295 296
3 78 297 299
3 299 298 77
3 297 298 299
3 78 300 302
3 300 3 301
3 300 301 302
3 303 79 304
3 305 304 1
3 303 304 305
3 306 79 307
3 308 13 309
3 310 309 79
3 308 309 310
3 38 311 312
3 80 313 315
3 315 314 38
3 313 314 315
3 80 316 318
3 316 13 317
3 316 317 318
3 80 57 13
3 81 57 80
3 81 4 57
3 81 82 4
3 83 82 81
3 83 15 82
3 39 83 14
3 84 83 39
3 84 15 83
3 84 64 15
3 85 64 84
3 85 5 64
3 86 319 320
3 87 321 323
3 323 322 86
3 321 322 323
3 87 324 326
3 324 18 325
3 324 325 326
3 41 87 17
3 88 87 41
3 88 18 87
3 88 55 18
3 89 55 88
3 89 1 55
3 327 89 328
3 329 89 330
3 331 1 332
3 333 332 89
3 331 332 333
3 335 334 1
3 43 336 338
3 338 337 10
3 336 337 338
3 340 339 43
3 90 341 342
3 90 343 345
3 343 6 344
3 343 344 345
3 45 90 19
3 91 90 45
3 91 6 90
3 91 30 6
3 92 30 91
3 92 0 30
3 346 86 347
3 93 348 350
3 348 86 349
3 348 349 350
3 93 17 86
3 47 351 353
3 351 93 352
3 351 352 353
3 94 93 47
3 94 17 93
3 94 40 17
3 95 40 94
3 95 354 356
3 356 355 40
3 354 355 356
3 357 48 358
3 96 359 361
3 359 48 360
3 359 360 361
3 96 21 48
3 50 362 364
3 362 96 363
3 362 363 364
3 97 96 50
3 97 21 96
3 97 95 21
3 98 95 97
3 98 365 367
3 367 366 95
3 365 366 367
3 98 368 370
3 368 69 369
3 368 369 370
3 99 69 98
3 99 371 373
3 373 372 69
3 371 372 373
3 52 99 22
3 374 99 375
3 376 375 52
3 374 375 376
3 378 377 99
3 379 53 380
3 381 53 382
3 384 383 53
3 100 385 386
3 100 387 388
3 101 389 390
3 101 391 393
3 391 12 392
3 391 392 393
3 394 101 395
3 396 395 18
3 394 395 396
3 102 397 399
3 397 101 398
3 397 398 399
3 102 12 101
3 102 78 12
3 103 78 102
3 103 3 78
3 79 56 1
3 104 56 79
3 104 24 56
3 58 104 13
3 105 104 58
3 105 24 104
3 105 103 24
3 106 103 105
3 106 3 103
3 106 54 3
3 107 54 106
3 107 23 54
3 60 107 25
3 108 107 60
3 108 23 107
3 108 100 23
3 109 100 108
3 109 400 402
3 402 401 100
3 400 401 402
3 109 403 405
3 403 37 404
3 403 404 405
3 110 37 109
3 110 11 37
3 62 110 26
3 111 110 62
3 111 11 110
3 111 76 11
3 112 76 111
3 112 2 76
3 82 63 4
3 113 63 82
3 113 27 63
3 65 113 15
3 114 113 65
3 114 27 113
3 114 112 27
3 115 112 114
3 115 2 112
3 115 46 2
3 116 46 115
3 116 20 46
3 67 116 28
3 117 116 67
3 117 20 116
3 117 92 20
3 118 92 117
3 118 0 92
3 406 16 407
3 408 16 409
3 410 85 411
3 412 411 16
3 410 411 412
3 413 85 414
3 415 5 416
3 417 416 85
3 415 416 417
3 418 5 419
3 420 68 421
3 422 421 5
3 420 421 422
3 423 68 424
3 425 29 426
3 427 426 68
3 425 426 427
3 428 29 429
3 430 118 431
3 432 431 29
3 430 431 432
3 119 433 435
3 433 118 434
3 433 434 435
3 119 0 118
3 119 34 0
3 436 34 437
3 438 437 119
3 436 437 438
3 439 8 440
3 441 440 34
3 439 440 441
3 442 8 443
3 444 73 445
3 446 445 8
3 444 445 446
3 447 73 448
3 447 448 449
3 451 450 73
