ply
format ascii 1.0
element vertex 347
property float x
property float y
property float z
element face 331
property list uchar int vertex_index
end_header
36.820679 15.66938 -54.796257
46.45512 18.670467 -51.198868
44.132927 9.824764 -57.295509
53.903431 9.561432 -51.073845
61.158287 4.898516 -41.802475
50.002312 14.938248 -51.713982
54.601601 13.550018 -47.498169
34.889 15.691254 -51.302261
32.097145 11.566607 -49.715897
33.109623 12.046621 -54.015938
32.105373 7.158064 -55.175423
63.918472 -1.88969 -39.938835
43.51886 20.155529 -49.502945
41.450645 17.938164 -53.808388
39.998867 13.659359 -56.770905
44.968361 14.985832 -54.956711
49.103928 10.260916 -54.799454
60.861244 7.378521 -37.604462
58.311546 10.949835 -42.70826
58.078423 7.748055 -46.621788
57.839897 3.110346 -49.324249
52.908836 15.940781 -47.549759
55.015968 14.885284 -45.245506
37.76226 17.427631 -53.200745
36.755638 17.355274 -51.501892
35.699547 15.905251 -53.239128
33.90963 14.06031 -52.839272
34.820721 14.008247 -54.621407
34.152336 11.747091 -55.618629
36.08614 13.492607 -56.018044
44.901314 19.714935 -50.503265
42.437408 19.352623 -51.805496
43.942211 18.500267 -52.685204
43.107433 16.722572 -54.550728
45.643669 17.073074 -53.242126
51.928349 12.413734 -51.537636
49.493576 12.766054 -53.422287
51.551708 10.052286 -53.057121
51.273399 7.419935 -54.256798
53.637268 7.057232 -52.39994
31.336624 9.636438 -50.89109
33.448647 6.481318 -56.348587
33.370121 3.621405 -56.053444
41.977047 11.937529 -57.207985
39.587009 11.030558 -57.663841
41.706451 9.172689 -57.932991
62.189564 3.137457 -39.316963
60.968559 6.311493 -39.867073
59.735619 9.266687 -40.184494
59.738594 8.044609 -42.376617
58.185261 9.548403 -44.825401
59.78009 6.444199 -44.243179
59.789127 2.179686 -47.059135
57.712898 0.391027 -50.285378
48.920998 18.455372 -49.404633
48.165421 17.053505 -51.601128
50.607323 16.671108 -49.68502
52.386864 14.406391 -49.699959
54.228767 11.752665 -49.443085
32.975582 13.202538 -48.220047
33.32288 13.739437 -50.689835
32.444725 11.948536 -52.036926
31.732359 9.837938 -53.024147
31.195417 7.465124 -53.624138
32.509518 9.720861 -54.802071
33.699974 9.210577 -56.201553
35.280746 8.288214 -57.214577
46.400887 7.387678 -57.047318
63.395767 -0.195572 -38.530975
62.557957 1.572666 -40.984238
61.354561 3.138227 -43.409302
41.143486 19.617832 -50.588539
40.032501 18.586018 -52.717079
39.052853 16.988991 -54.522369
38.262646 14.919903 -55.971001
40.624493 16.00214 -55.474243
42.444351 14.493557 -56.068504
44.46072 12.529043 -56.317711
47.508652 15.133537 -53.485855
46.984932 12.805048 -55.03653
46.614357 10.185898 -56.233788
48.846535 7.531567 -55.829567
37.691147 12.490171 -57.029457
56.591358 12.38883 -45.155357
56.333508 10.792267 -47.191437
56.099785 8.791172 -48.911583
59.808025 4.480104 -45.792442
57.965431 5.584896 -48.111191
55.887409 6.445086 -50.330322
55.70599 3.826534 -51.467545
55.239573 15.294148 -43.983459
54.244783 15.914348 -45.180531
45.678217 19.192701 -50.851067
46.12701 19.695599 -49.6824
46.903914 19.173364 -50.030201
30.966561 8.415826 -50.181702
31.025914 8.541134 -51.301544
34.273336 4.528994 -56.595059
33.409384 5.051362 -56.201015
34.3126 5.958951 -56.74263
34.299265 3.058287 -56.325493
34.273336 4.528994 -56.595059
50.099708 18.163431 -48.381844
49.324787 18.85385 -48.170525
50.942871 17.271299 -48.522037
49.764161 17.56324 -49.544826
50.099708 18.163431 -48.381844
35.442753 16.28965 -50.370876
36.376072 17.12166 -50.470692
35.822319 16.523264 -51.402076
34.61013 15.429144 -50.15926
35.442753 16.28965 -50.370876
34.10594 14.715346 -50.996048
33.82707 14.453235 -49.853047
34.61013 15.429144 -50.15926
34.637846 10.105172 -56.517853
33.926155 10.478834 -55.910091
34.864027 11.373429 -56.226391
35.428232 9.643991 -57.024365
34.49036 8.749396 -56.708065
34.637846 10.105172 -56.517853
46.365521 5.944403 -57.240421
47.560326 6.03157 -56.763592
63.65712 -1.042631 -39.234905
63.986103 -1.920871 -38.02872
64.247456 -2.76793 -38.73265
63.400447 -1.10716 -41.139705
62.72019 0.624018 -41.662407
63.238214 -0.158512 -40.461536
44.063555 20.228172 -48.227833
44.717501 20.220833 -48.776317
42.910736 20.092457 -48.842511
44.063555 20.228172 -48.227833
42.331173 19.886681 -50.045742
41.723049 19.823608 -49.385307
42.910736 20.092457 -48.842511
51.18808 6.016795 -54.689099
52.358947 5.874166 -53.840874
32.025163 11.317291 -48.415184
32.464382 12.135257 -47.667259
32.536364 12.384573 -48.967972
31.464792 6.023449 -54.498352
31.009814 6.176979 -53.72271
31.650395 7.311594 -54.399781
38.463645 10.420903 -57.664005
39.482994 9.627532 -57.89003
61.286895 6.353288 -36.294346
61.36936 5.882242 -37.458371
60.874437 7.733313 -36.332168
61.286895 6.353288 -36.294346
60.338856 8.736315 -37.65144
60.874437 7.733313 -36.332168
58.399536 11.436829 -41.499184
59.111573 10.595254 -40.237301
59.023583 10.108261 -41.446377
57.598229 12.242107 -42.761345
58.399536 11.436829 -41.499184
57.451452 11.669332 -43.931809
56.738135 12.961604 -43.984893
57.598229 12.242107 -42.761345
60.649164 2.757109 -45.256462
60.581293 3.809165 -44.600872
61.422432 2.08617 -44.064892
56.641277 0.703323 -51.306302
57.655954 -1.053863 -50.639805
53.191217 16.442097 -46.332657
52.093627 16.906136 -47.454407
53.962402 15.413032 -46.397633
53.191217 16.442097 -46.332657
54.244783 15.914348 -45.180531
37.258949 17.391452 -52.351318
37.809826 18.016168 -51.382602
38.313137 18.052347 -52.232029
35.830929 12.246187 -56.426098
34.864027 11.373429 -56.226391
35.119238 12.619849 -55.818337
64.566345 -3.675066 -39.320121
64.247456 -2.76793 -38.73265
64.12516 -2.901765 -40.504509
64.566345 -3.675066 -39.320121
45.408728 20.000536 -49.276477
46.12701 19.695599 -49.6824
44.210087 19.935232 -50.003105
44.717501 20.220833 -48.776317
45.408728 20.000536 -49.276477
53.540882 5.692815 -52.912445
52.358947 5.874166 -53.840874
52.455333 7.238583 -53.328369
31.282316 9.441529 -49.67004
31.662577 10.406613 -49.082443
31.716884 10.601522 -50.303494
31.282316 9.441529 -49.67004
30.966561 8.415826 -50.181702
32.663218 5.452343 -55.737236
31.991582 5.790716 -55.150654
32.77701 6.819691 -55.762005
32.623956 4.022386 -55.589664
32.663218 5.452343 -55.737236
33.409384 5.051362 -56.201015
32.586636 2.5932 -55.356762
32.623956 4.022386 -55.589664
33.402681 2.144938 -55.691246
32.586636 2.5932 -55.356762
33.402681 2.144938 -55.691246
34.299265 3.058287 -56.325493
40.542715 8.698597 -58.024605
39.482994 9.627532 -57.89003
40.64673 10.101623 -57.798416
62.03352 3.76171 -38.314621
62.534826 2.166081 -38.057548
61.423018 5.348727 -38.589676
62.03352 3.76171 -38.314621
61.579061 4.724475 -39.592018
60.914901 6.845007 -38.735767
61.36936 5.882242 -37.458371
61.423018 5.348727 -38.589676
60.659838 0.394091 -46.421997
60.639715 1.606899 -45.889809
59.753597 0.884604 -47.571151
60.659838 0.394091 -46.421997
58.778982 1.349934 -48.703709
58.814512 2.645016 -48.191692
59.753597 0.884604 -47.571151
58.715483 -0.009725 -49.184273
57.776398 1.750687 -49.804814
58.778982 1.349934 -48.703709
58.661121 -1.41787 -49.586372
58.715483 -0.009725 -49.184273
57.655954 -1.053863 -50.639805
58.661121 -1.41787 -49.586372
48.136853 19.065817 -49.133083
49.324787 18.85385 -48.170525
47.688059 18.562919 -50.30175
46.903914 19.173364 -50.030201
48.136853 19.065817 -49.133083
51.75808 16.305944 -48.61739
50.942871 17.271299 -48.522037
52.093627 16.906136 -47.454407
37.339905 17.828508 -50.474632
37.809826 18.016168 -51.382602
37.339905 17.828508 -50.474632
36.376072 17.12166 -50.470692
33.653422 14.184786 -48.618153
33.451588 13.865927 -47.330833
33.149231 13.470987 -49.454941
33.653422 14.184786 -48.618153
33.82707 14.453235 -49.853047
31.223782 8.641883 -52.368072
31.025914 8.541134 -51.301544
31.534492 9.737188 -51.957618
31.463888 8.651531 -53.324143
30.95531 7.455476 -52.668068
31.223782 8.641883 -52.368072
35.228649 6.862398 -57.175625
34.3126 5.958951 -56.74263
34.364697 7.384766 -56.781582
45.188993 7.183663 -57.449028
44.055014 8.402207 -57.573124
45.266907 8.606221 -57.171413
45.188993 7.183663 -57.449028
46.365521 5.944403 -57.240421
63.636295 -1.166156 -37.294475
63.986103 -1.920871 -38.02872
63.137928 0.499566 -37.664554
63.636295 -1.166156 -37.294475
62.792665 1.470943 -38.923969
62.534826 2.166081 -38.057548
63.137928 0.499566 -37.664554
62.118492 1.406799 -42.874939
61.956259 2.355447 -42.19677
62.72019 0.624018 -41.662407
61.422432 2.08617 -44.064892
62.118492 1.406799 -42.874939
63.400447 -1.10716 -41.139705
64.12516 -2.901765 -40.504509
40.596908 19.488491 -49.806545
41.723049 19.823608 -49.385307
40.00375 19.147447 -50.925926
40.596908 19.488491 -49.806545
39.448257 18.63154 -51.990196
40.00375 19.147447 -50.925926
40.587994 19.101925 -51.652809
38.89738 18.006825 -52.958912
38.313137 18.052347 -52.232029
39.448257 18.63154 -51.990196
48.78315 6.103515 -56.154716
47.560326 6.03157 -56.763592
47.623711 7.459623 -56.438442
49.974648 6.072611 -55.475483
50.059967 7.475751 -55.043183
51.18808 6.016795 -54.689099
48.78315 6.103515 -56.154716
49.974648 6.072611 -55.475483
32.859781 12.926178 -46.865254
33.451588 13.865927 -47.330833
32.859781 12.926178 -46.865254
32.464382 12.135257 -47.667259
32.025163 11.317291 -48.415184
31.662577 10.406613 -49.082443
30.714912 6.251743 -52.889225
30.95531 7.455476 -52.668068
30.714912 6.251743 -52.889225
31.009814 6.176979 -53.72271
31.464792 6.023449 -54.498352
31.991582 5.790716 -55.150654
36.633432 11.744969 -56.931804
35.830929 12.246187 -56.426098
36.888644 12.991389 -56.523751
37.515715 11.15071 -57.346813
38.639078 11.760364 -57.346649
38.463645 10.420903 -57.664005
36.633432 11.744969 -56.931804
37.515715 11.15071 -57.346813
36.310514 9.049732 -57.439373
35.428232 9.643991 -57.024365
36.235458 7.632715 -57.528416
36.310514 9.049732 -57.439373
35.228649 6.862398 -57.175625
36.235458 7.632715 -57.528416
42.841775 8.076169 -57.891865
42.919689 9.498727 -57.61425
44.055014 8.402207 -57.573124
41.660059 7.734043 -58.067532
42.841775 8.076169 -57.891865
40.542715 8.698597 -58.024605
41.660059 7.734043 -58.067532
59.776043 9.680398 -38.941456
60.338856 8.736315 -37.65144
60.298431 8.322604 -38.894478
59.776043 9.680398 -38.941456
59.111573 10.595254 -40.237301
55.95044 14.209831 -44.029968
55.239573 15.294148 -43.983459
55.803663 13.637057 -45.200432
55.95044 14.209831 -44.029968
56.738135 12.961604 -43.984893
59.798576 3.329895 -46.425788
60.649164 2.757109 -45.256462
60.639715 1.606899 -45.889809
54.575243 4.077466 -52.446247
53.540882 5.692815 -52.912445
54.671629 5.441883 -51.933743
55.637823 2.421076 -51.897385
56.709444 2.10878 -50.876462
56.641277 0.703323 -51.306302
54.575243 4.077466 -52.446247
55.637823 2.421076 -51.897385
3 90 22 91
3 0 25 23
3 0 27 25
3 0 29 27
3 1 92 94
3 92 30 93
3 92 93 94
3 1 32 30
3 1 34 32
3 3 37 35
3 3 39 37
3 96 95 40
3 97 42 98
3 99 98 41
3 97 98 99
3 101 100 42
3 2 45 43
3 4 47 46
3 4 49 47
3 4 51 49
3 102 54 103
3 104 56 105
3 106 105 54
3 104 105 106
3 6 57 21
3 6 58 57
3 7 107 109
3 109 108 24
3 107 108 109
3 7 110 111
3 7 112 114
3 112 60 113
3 112 113 114
3 9 61 26
3 9 62 61
3 9 64 62
3 115 65 116
3 117 116 28
3 115 116 117
3 118 66 119
3 120 119 65
3 118 119 120
3 122 121 67
3 11 123 125
3 123 68 124
3 123 124 125
3 11 69 68
3 11 126 128
3 128 127 69
3 126 127 128
3 12 129 130
3 12 131 132
3 12 133 135
3 133 71 134
3 133 134 135
3 13 72 31
3 13 73 72
3 13 75 73
3 15 76 33
3 15 77 76
3 5 78 55
3 16 79 36
3 16 80 79
3 16 81 80
3 137 136 38
3 8 138 140
3 140 139 59
3 138 139 140
3 10 141 143
3 143 142 63
3 141 142 143
3 14 82 74
3 145 144 44
3 17 146 147
3 17 148 149
3 17 150 151
3 18 152 154
3 154 153 48
3 152 153 154
3 18 155 156
3 18 157 159
3 157 83 158
3 157 158 159
3 19 84 50
3 19 85 84
3 160 86 161
3 162 161 70
3 160 161 162
3 20 87 52
3 20 88 87
3 20 89 88
3 164 163 53
3 165 21 166
3 22 167 169
3 167 21 168
3 167 168 169
3 22 6 21
3 23 170 172
3 170 24 171
3 170 171 172
3 25 24 23
3 25 7 24
3 25 26 7
3 27 26 25
3 27 9 26
3 27 28 9
3 29 28 27
3 29 173 175
3 175 174 28
3 173 174 175
3 176 11 177
3 179 178 11
3 30 180 181
3 30 182 184
3 182 12 183
3 182 183 184
3 30 31 12
3 32 31 30
3 32 13 31
3 32 33 13
3 34 33 32
3 34 15 33
3 35 36 5
3 37 36 35
3 37 16 36
3 37 38 16
3 39 38 37
3 39 185 187
3 187 186 38
3 185 186 187
3 40 188 190
3 190 189 8
3 188 189 190
3 192 191 40
3 41 193 195
3 195 194 10
3 193 194 195
3 42 196 198
3 198 197 41
3 196 197 198
3 42 199 200
3 42 201 202
3 204 203 42
3 43 44 14
3 45 44 43
3 45 205 207
3 207 206 44
3 205 206 207
3 46 208 209
3 47 210 212
3 212 211 46
3 210 211 212
3 47 213 215
3 213 17 214
3 213 214 215
3 47 48 17
3 49 48 47
3 49 18 48
3 49 50 18
3 51 50 49
3 51 19 50
3 216 52 217
3 218 52 219
3 220 20 221
3 222 221 52
3 220 221 222
3 223 53 224
3 225 224 20
3 223 224 225
3 226 53 227
3 229 228 53
3 54 230 231
3 54 232 234
3 232 1 233
3 232 233 234
3 54 55 1
3 56 55 54
3 56 5 55
3 21 235 237
3 235 56 236
3 235 236 237
3 57 56 21
3 57 5 56
3 57 35 5
3 58 35 57
3 58 3 35
3 24 238 239
3 241 240 24
3 242 59 243
3 60 244 246
3 244 59 245
3 244 245 246
3 60 8 59
3 26 60 7
3 61 60 26
3 61 8 60
3 61 40 8
3 62 40 61
3 62 247 249
3 249 248 40
3 247 248 249
3 62 250 252
3 250 63 251
3 250 251 252
3 64 63 62
3 64 10 63
3 28 64 9
3 65 64 28
3 65 10 64
3 65 41 10
3 66 41 65
3 66 253 255
3 255 254 41
3 253 254 255
3 67 256 258
3 258 257 2
3 256 257 258
3 260 259 67
3 68 261 262
3 68 263 264
3 68 265 267
3 265 46 266
3 265 266 267
3 69 46 68
3 69 4 46
3 69 70 4
3 268 70 269
3 270 269 69
3 268 269 270
3 272 271 70
3 274 273 11
3 71 275 276
3 71 277 278
3 31 71 12
3 72 71 31
3 72 279 281
3 281 280 71
3 279 280 281
3 72 282 284
3 282 23 283
3 282 283 284
3 73 23 72
3 73 0 23
3 73 74 0
3 75 74 73
3 75 14 74
3 33 75 13
3 76 75 33
3 76 14 75
3 76 43 14
3 77 43 76
3 77 2 43
3 55 34 1
3 78 34 55
3 78 15 34
3 36 78 5
3 79 78 36
3 79 15 78
3 79 77 15
3 80 77 79
3 80 2 77
3 80 67 2
3 81 67 80
3 81 285 287
3 287 286 67
3 285 286 287
3 38 81 16
3 288 81 289
3 290 289 38
3 288 289 290
3 292 291 81
3 59 293 294
3 296 295 59
3 298 297 8
3 63 299 300
3 302 301 63
3 304 303 10
3 74 29 0
3 82 29 74
3 82 305 307
3 307 306 29
3 305 306 307
3 44 82 14
3 308 82 309
3 310 309 44
3 308 309 310
3 312 311 82
3 313 66 314
3 315 66 316
3 318 317 66
3 319 45 320
3 321 320 2
3 319 320 321
3 322 45 323
3 325 324 45
3 48 326 328
3 328 327 17
3 326 327 328
3 330 329 48
3 331 22 332
3 83 333 335
3 333 22 334
3 333 334 335
3 83 6 22
3 50 83 18
3 84 83 50
3 84 6 83
3 84 58 6
3 85 58 84
3 85 3 58
3 70 51 4
3 86 51 70
3 86 19 51
3 52 336 338
3 336 86 337
3 336 337 338
3 87 86 52
3 87 19 86
3 87 85 19
3 88 85 87
3 88 3 85
3 88 39 3
3 89 39 88
3 89 339 341
3 341 340 39
3 339 340 341
3 53 89 20
3 342 89 343
3 344 343 53
3 342 343 344
3 346 345 89
