ply
format ascii 1.0
element vertex 958
property float x
property float y
property float z
element face 1097
property list uchar int vertex_index
end_header
-52.61248 -1.717314 -19.98835
-66.69062 -57.017818 17.005142
-61.900928 -26.686428 -1.258465
-63.997284 -7.854095 -14.48527
-57.157112 -43.890232 12.925845
-68.232971 -40.90509 -0.132874
-63.001595 -22.489141 -19.99498
-58.475807 -36.340179 4.606539
-68.119522 -49.338448 7.818119
-59.577873 -2.931465 -16.600685
-62.006313 -0.024712 -25.732609
-51.442852 8.82959 -30.3783
-67.778427 -23.577148 -6.951735
-65.449791 -16.288424 -13.854515
-64.491882 -16.848307 -6.416889
-50.705627 -12.07436 -10.388014
-65.200333 -49.96154 15.206806
-66.627396 -41.850899 6.249184
-67.883591 -32.648102 -1.001509
-66.594696 -32.439659 -7.178049
-63.482162 -42.669312 -7.248564
-63.519894 -10.819081 -23.42971
-64.36425 -60.343681 18.044706
-67.489502 -53.41687 12.256681
-56.333721 -2.072668 -18.347889
-59.166969 2.298342 -22.10582
-56.104164 3.436941 -23.662632
-66.290817 -24.503754 -4.022396
-66.612549 -19.867188 -6.730448
-63.529018 -21.698946 -3.680395
-54.538231 -12.809087 -8.688961
-48.922939 -16.526711 -5.77117
-57.647255 -46.355511 17.639103
-61.684921 -46.745647 14.082792
-65.858963 -46.143791 10.53319
-62.191612 -43.102417 9.450691
-60.058197 -31.646709 1.385838
-64.184425 -34.20919 1.686685
-65.362694 -29.355476 -1.351751
-68.092354 -28.005259 -4.053421
-66.365227 -45.563507 0.203606
-63.969345 -46.635719 -3.34318
-65.803757 -41.584175 -3.626156
-64.877808 -37.447643 -7.307131
-67.593544 -36.688213 -3.758776
-65.098427 -11.78661 -14.134365
-64.169724 -13.421401 -18.396557
-63.924774 -8.336883 -19.134686
-52.392441 -41.216858 12.167873
-57.462391 -40.499275 8.495604
-52.526798 -38.094795 8.148239
-53.712269 -34.094025 4.655773
-66.428078 -49.500683 4.227912
-68.404808 -45.119583 3.705335
-62.151764 -4.826618 -15.252176
-63.043018 -3.777421 -19.855343
-61.482666 -0.122099 -20.802311
-60.378292 4.234814 -26.791424
-48.752422 -1.011925 -20.881912
-52.497681 3.703716 -25.064808
-48.703331 3.93075 -25.706257
-47.763062 8.619852 -30.614326
-66.607544 -23.921135 -10.081797
-65.158791 -20.961359 -13.381517
-66.83609 -19.627863 -10.07749
-66.151382 -15.611429 -9.988216
-64.597641 -12.219721 -9.95512
-62.271614 -9.726304 -10.392153
-59.290039 -8.252028 -11.581688
-55.788284 -7.580293 -13.35564
-51.970734 -7.07341 -15.119719
-67.001472 -53.472652 16.138891
-67.737213 -49.653091 11.456398
-68.407158 -45.393654 7.117518
-68.828156 -40.980148 3.137252
-63.067299 -38.85675 5.282812
-67.343163 -37.306404 2.407663
-68.889 -36.536247 -0.521688
-68.535706 -32.106461 -3.90193
-67.758636 -27.79546 -7.049839
-65.474945 -28.293432 -10.306019
-62.962227 -47.993534 -6.808855
-62.920475 -43.69492 -10.841192
-62.834599 -38.289272 -11.030058
-63.889328 -33.079502 -10.765882
-63.859512 -18.704556 -17.398903
-63.472095 -16.656307 -21.907524
-63.030247 -5.179172 -24.665237
-63.521683 -8.379034 -28.581745
-54.97654 8.619848 -29.304134
-63.953655 -24.438416 -14.156855
-65.751213 -58.71685 17.489567
-66.186523 -57.095181 15.052882
-67.099838 -55.303692 14.5961
-54.513939 -1.880753 -19.221519
-56.321991 0.701511 -20.963757
-54.537064 0.893192 -21.784168
-64.412308 -25.463284 -2.641352
-65.002571 -23.008198 -3.884562
-62.773609 -24.183756 -2.465847
-50.762737 -17.147137 -5.07748
-55.006271 -43.811539 14.714637
-55.494377 -44.819153 16.993864
-57.297188 -45.245083 15.26546
-59.531906 -46.724594 15.884889
-59.49807 -45.279083 13.48561
-61.882935 -45.01265 11.719297
-59.628223 -43.616219 11.156025
-60.974312 -29.183578 0.007732
-62.950218 -30.420668 -0.019646
-63.709118 -27.942944 -1.37204
-65.881516 -26.915791 -2.712559
-67.405701 -43.210373 0.031425
-66.14254 -43.585415 -1.730598
-67.136047 -41.166885 -1.85487
-66.754402 -39.108292 -3.698912
-67.967911 -38.800186 -1.970167
-64.642044 -9.727495 -14.278168
-64.495361 -10.020497 -16.54393
-64.106644 -7.8087 -16.789417
-62.72221 -25.343307 -18.853752
-63.127083 -24.759361 -20.850872
-50.564762 -40.943077 14.059096
-52.32209 -39.779984 10.10603
-50.008759 -38.490433 10.142714
-67.262405 -51.375427 8.158724
-66.275146 -51.465302 6.341395
-67.471085 -49.34008 6.019982
-67.571732 -47.294106 3.958569
-68.314423 -47.232906 5.723035
-60.954212 -3.733534 -15.856373
-61.874702 -2.440924 -17.956791
-60.761513 -1.208818 -18.570999
-58.695877 4.800201 -25.007034
-59.938717 3.631758 -24.348358
-59.298615 5.892847 -27.368229
-46.883541 -0.241838 -20.88726
-48.825142 1.466234 -23.279686
-46.957512 2.057243 -23.226555
-46.524521 6.582767 -27.924828
-46.901802 10.726297 -33.051193
-45.142033 10.653969 -32.535313
-67.443512 -23.612722 -8.511353
-66.836182 -21.763218 -10.080647
-67.383743 -21.527878 -8.456919
-65.655792 -18.258818 -6.5672
-66.477333 -17.685419 -8.261824
-65.668488 -15.995624 -8.141989
-65.477844 -13.818428 -9.940971
-64.649895 -14.503101 -8.065044
-59.184723 -22.158976 -1.978769
-62.062218 -12.208585 -8.287254
-60.532032 -11.428505 -8.68508
-60.855141 -8.865294 -10.891294
-58.871063 -10.876105 -9.293303
-52.619534 -12.509777 -9.566864
-55.247654 -10.243471 -10.979393
-53.339333 -9.990424 -11.899754
-53.902161 -7.359267 -14.285419
-51.409691 -9.633301 -12.739878
-63.46701 -49.897987 17.111292
-64.978577 -51.592381 17.653204
-66.069702 -53.333782 18.139055
-66.349739 -51.693802 15.694047
-67.364304 -51.642185 13.758503
-66.686615 -49.848503 13.315897
-66.241302 -44.040092 8.337446
-67.423576 -45.739571 8.814598
-67.770943 -43.557884 6.707952
-68.657425 -43.195221 5.08423
-68.076141 -41.330105 4.700514
-57.886581 -38.502594 6.471265
-60.314857 -39.727283 6.827744
-60.844032 -37.550293 4.876603
-66.377975 -33.315147 0.345636
-65.93576 -35.68544 2.022873
-67.643661 -34.984245 0.651734
-68.50238 -36.801796 0.972343
-68.599449 -34.52227 -0.757822
-68.7659 -34.316307 -2.244364
-68.602737 -32.245731 -2.407114
-68.011475 -25.748119 -5.501947
-68.276077 -27.770737 -5.509691
-67.925247 -25.630838 -7.005487
-67.224831 -25.772343 -8.567019
-63.767471 -44.694778 -5.307777
-63.21669 -47.306683 -5.094265
-63.10355 -45.320503 -7.086136
-62.967529 -45.917076 -8.83399
-62.924278 -43.216812 -9.058735
-62.726162 -40.97731 -11.002035
-63.154716 -40.538883 -9.160835
-65.750198 -34.90641 -7.252819
-64.367096 -35.291458 -9.074648
-65.199203 -32.764156 -8.940071
-64.677582 -30.619356 -10.536432
-66.029892 -30.332703 -8.788824
-65.368828 -18.635441 -13.649317
-64.435677 -19.786037 -15.301596
-64.652466 -17.300026 -15.712763
-63.749615 -12.097436 -20.876461
-63.697754 -14.874787 -20.292969
-63.561775 -13.72648 -22.710735
-63.689129 -15.648048 -24.209141
-63.64587 -12.600513 -25.148834
-62.528736 -1.856922 -22.752865
-63.05426 -4.204913 -22.304028
-62.586819 -2.517942 -25.210865
-63.027149 -5.30574 -29.510139
-52.099831 6.328991 -27.695026
-53.92688 6.300268 -27.128658
-53.249474 8.839056 -29.906269
-62.623875 -61.904076 18.687185
-67.837311 -51.412212 9.995836
-58.03162 -2.395802 -17.449963
-59.458775 -0.289778 -19.299568
-57.972935 0.331932 -20.113453
-57.721169 3.01358 -22.871094
-57.263557 5.611176 -25.718189
-67.421669 -23.868013 -5.451319
-67.331207 -21.648489 -6.863632
-66.54567 -22.146179 -5.339434
-65.429047 -20.600632 -5.169481
-64.113739 -19.249676 -4.974291
-56.429401 -13.088165 -7.860117
-53.670387 -15.260624 -6.491919
-51.755081 -14.898102 -7.290554
-49.871292 -14.375799 -8.063707
-61.620197 -48.27282 16.514484
-63.617535 -48.306499 14.666769
-65.502991 -48.130585 12.827556
-63.874081 -46.515076 12.289627
-64.210312 -44.560196 10.001756
-64.602325 -42.474281 7.821025
-59.21022 -34.043602 2.912386
-61.477108 -35.254128 3.086132
-62.19072 -32.867668 1.457767
-64.782356 -31.795483 0.104684
-66.781708 -30.924267 -1.214903
-68.041397 -30.3146 -2.563416
-67.114609 -28.535158 -2.678019
-67.339951 -26.173481 -4.07514
-65.208557 -47.946468 0.411654
-64.058685 -48.514252 -1.35009
-65.088348 -46.037811 -1.571356
-64.846542 -44.097122 -3.516249
-64.503342 -42.10495 -5.430664
-64.091324 -40.041447 -7.314442
-65.371078 -39.543018 -5.486494
-66.282066 -37.023254 -5.500645
-67.127243 -34.565872 -5.497042
-65.365707 -13.988445 -14.006876
-64.756157 -14.809889 -16.040709
-64.709778 -12.368549 -16.307261
-64.124985 -10.83491 -18.784184
-63.662216 -9.369496 -21.390881
-61.457581 1.704935 -28.754955
-62.146343 -0.916388 -28.157417
-50.507858 11.148186 -33.092793
-58.932354 -28.076607 0.189475
-60.003178 -25.584949 -1.0289
-56.879444 -27.091482 0.4879
-52.739693 -42.39053 14.295231
-54.759365 -42.548985 12.466173
-57.21582 -42.302643 10.657327
-54.749512 -41.037304 10.288298
-54.971287 -39.29118 8.219267
-55.416412 -37.334198 6.291118
-50.202873 -36.873371 8.300312
-52.997261 -36.187721 6.325408
-56.06958 -35.197487 4.525395
-56.903698 -32.917217 2.92944
-57.876812 -30.531406 1.493541
-65.199203 -49.837997 2.445314
-66.460709 -47.532715 2.185753
-67.551773 -45.250408 1.965954
-68.379288 -43.009865 1.756482
-63.166656 -6.208212 -14.799372
-63.542088 -5.778037 -17.084343
-62.799671 -3.974585 -17.464874
-62.352333 -1.812502 -20.288361
-61.844105 0.265778 -23.229988
-60.422729 1.255121 -21.408974
-60.985615 2.110407 -23.756981
-61.275826 2.245157 -26.252125
-60.627342 4.105623 -29.321011
-50.676132 -1.466999 -20.565739
-52.660332 1.005915 -22.496391
-50.740204 1.15576 -23.019131
-50.600082 3.759148 -25.518478
-50.228558 6.295307 -28.062439
-46.848045 4.347836 -25.57547
-48.35783 6.333822 -28.156456
-49.600677 8.709929 -30.638836
-48.698326 10.942558 -33.22226
-65.546501 -24.414515 -11.568121
-64.879158 -23.154484 -13.064585
-65.91098 -22.313971 -11.657475
-66.126045 -20.108778 -11.776525
-66.170334 -17.885715 -11.866533
-67.055847 -19.540937 -8.375101
-66.606796 -17.561737 -10.04479
-66.022713 -15.713946 -11.916056
-65.672501 -13.646954 -11.943205
-65.118469 -11.72954 -11.987167
-64.365387 -10.002307 -12.099007
-61.018646 -23.082064 -2.222431
-61.91312 -20.586199 -3.460667
-62.633987 -18.108852 -4.813684
-63.147476 -15.656766 -6.343012
-63.441357 -13.234646 -8.093634
-63.524094 -10.847607 -10.089001
-63.420769 -8.50254 -12.33025
-62.292885 -7.260807 -12.720865
-60.990585 -6.293587 -13.288578
-59.523453 -5.595348 -14.022867
-57.101276 -10.505829 -10.080214
-57.593754 -7.846612 -12.425428
-57.904274 -5.133327 -14.885099
-56.152691 -4.845689 -15.812368
-54.297501 -4.644516 -16.7244
-52.376488 -4.423308 -17.532864
-48.049141 -13.576836 -8.703979
-50.034195 -6.607779 -15.768087
-50.433563 -4.06715 -18.152084
-48.513664 -3.463366 -18.510094
-46.656975 -2.511162 -18.558956
-66.672363 -55.089806 18.584934
-67.117264 -55.259956 16.565498
-67.502815 -53.474194 14.175362
-67.88121 -51.522808 11.859791
-68.22773 -49.460136 9.627041
-67.053848 -47.848598 11.0192
-68.093346 -47.556343 9.241371
-68.517464 -47.332306 7.4808
-68.728668 -45.173378 5.419901
-68.844711 -43.004726 3.439063
-68.854553 -40.836693 1.530687
-59.905273 -41.757759 8.927691
-62.591591 -41.041977 7.299557
-65.030884 -40.284843 5.760192
-63.604218 -36.571121 3.410837
-65.480438 -38.015106 3.8267
-66.999542 -39.60025 4.272516
-68.324043 -39.074127 2.790046
-68.907974 -38.758816 1.270571
-68.752579 -38.671745 -0.31278
-68.538231 -36.508499 -2.096827
-68.216118 -34.34668 -3.823967
-67.796486 -32.192719 -5.494188
-68.499008 -29.987309 -3.985582
-68.198517 -29.922867 -5.500408
-67.295853 -30.066042 -7.10598
-66.737061 -28.006254 -8.656792
-66.147232 -26.083206 -10.142834
-63.226707 -49.197289 -3.082842
-62.861275 -49.943352 -4.77129
-63.653805 -37.891182 -9.158104
-63.241219 -35.647465 -10.942663
-64.169083 -22.197065 -14.792124
-63.586151 -21.315094 -16.744171
-63.265343 -20.452486 -18.840298
-64.071518 -16.057928 -17.942776
-63.523945 -17.670467 -19.620445
-63.271534 -19.585243 -21.007206
-64.173203 -17.806044 -25.337418
-63.565071 -5.968853 -19.480698
-63.430752 -6.725113 -21.858566
-63.341797 -7.959531 -24.076767
-62.707607 -3.701573 -27.508804
-63.147549 -6.601707 -26.795532
-63.463181 -9.577789 -26.010067
-63.886234 -11.498916 -27.572308
-54.348568 3.635292 -24.419136
-55.662582 6.091398 -26.444801
-64.291334 -24.688655 -13.457178
-63.958767 -25.463902 -13.701076
-63.198748 -22.117672 -21.033009
-63.261492 -23.252781 -21.460954
-63.064339 -23.624251 -20.422926
-49.016623 -38.453938 11.169789
-50.068905 -39.171574 11.108559
-58.664482 6.537027 -27.679039
-58.997246 5.346524 -26.187632
-58.363113 5.990704 -26.498441
-58.889386 6.94989 -28.907578
-58.664482 6.537027 -27.679039
-46.029291 1.496598 -21.895386
-46.920527 0.907703 -22.056908
-45.992306 0.347058 -20.725738
-44.67779 9.879097 -31.042524
-45.551602 9.679958 -31.395249
-59.397322 -12.43867 -7.928198
-60.270979 -12.698642 -7.683889
-58.566837 -12.16247 -8.232309
-59.701548 -11.152305 -8.989192
-59.397322 -12.43867 -7.928198
-63.735027 -60.419187 17.110792
-62.86484 -61.199385 17.432032
-63.494062 -61.123879 18.365946
-67.226715 -53.395457 11.317781
-67.043571 -54.35687 12.467896
-67.663407 -52.414541 11.126259
-67.40062 -52.393127 10.187358
-67.226715 -53.395457 11.317781
-53.16522 -16.426678 -5.443587
-54.627719 -15.420483 -6.133066
-56.935858 -45.964603 18.453147
-55.859419 -45.196424 18.130527
-56.570816 -45.587332 17.316483
-57.930988 -46.785112 18.825751
-56.935858 -45.964603 18.453147
-58.697222 -47.144288 17.979979
-57.930988 -46.785112 18.825751
-61.572706 1.143206 -29.931217
-61.148961 2.507324 -30.270692
-50.782135 12.23468 -34.335057
-49.896783 12.185715 -34.447478
-56.296208 -28.299473 1.125784
-57.905899 -27.584044 0.338688
-57.322662 -28.792036 0.976572
-49.126455 -36.233866 8.476137
-49.033533 -37.002725 9.346666
-53.354765 -35.140873 5.49059
-51.847597 -35.609703 6.449962
-52.205101 -34.562855 5.615145
-56.794892 -30.019436 1.628605
-56.255978 -31.192608 2.317241
-57.322662 -28.792036 0.976572
-58.404583 -29.304006 0.841508
-56.794892 -30.019436 1.628605
-65.745678 -50.610126 4.385587
-65.669212 -51.592436 5.442329
-66.351612 -50.482993 5.284654
-65.81364 -49.66934 3.336613
-65.13124 -50.778784 3.494288
-65.745678 -50.610126 4.385587
-45.955579 4.737008 -25.341341
-46.008287 3.690581 -24.208098
-47.20837 11.827277 -34.412174
-46.335873 11.656266 -34.23811
-59.53982 -23.858624 -1.480498
-60.510912 -24.333506 -1.625665
-59.032086 -25.110067 -0.883733
-61.049788 -20.130347 -3.379923
-60.548921 -21.372588 -2.719718
-59.685589 -20.916735 -2.638974
-61.410221 -18.891673 -4.056432
-62.273553 -19.347525 -4.137175
-61.049788 -20.130347 -3.379923
-62.396736 -15.177027 -6.378405
-62.082251 -16.421726 -5.552147
-62.543676 -13.965967 -7.253716
-63.294416 -14.445706 -7.218323
-62.396736 -15.177027 -6.378405
-46.786574 -13.943638 -7.737362
-47.609253 -14.595885 -7.535592
-49.083847 -6.230933 -15.96235
-48.832685 -7.381586 -14.79018
-49.283531 -4.960618 -17.154349
-50.233879 -5.337464 -16.960085
-49.083847 -6.230933 -15.96235
-48.323582 -4.658727 -17.333354
-49.473613 -3.765258 -18.331089
-49.283531 -4.960618 -17.154349
-45.616478 -2.824365 -17.278726
-46.481064 -3.615725 -17.398447
-45.775277 -1.820554 -18.421093
-45.616478 -2.824365 -17.278726
-62.990412 -49.344133 -6.607378
-62.939936 -50.319042 -5.588596
-62.911751 -48.968443 -5.790072
-63.101107 -48.31756 -7.642755
-62.990412 -49.344133 -6.607378
-63.14539 -45.066052 -10.690002
-63.168916 -46.177129 -9.686401
-62.944002 -44.805998 -9.837591
-63.188761 -43.88114 -11.710705
-63.14539 -45.066052 -10.690002
-62.895712 -42.504111 -11.827979
-63.188761 -43.88114 -11.710705
-62.697264 -38.44041 -11.963465
-62.643045 -39.78443 -11.949454
-62.78038 -39.633291 -11.016046
-62.70377 -37.102548 -11.931653
-62.697264 -38.44041 -11.963465
-63.397509 -33.196745 -11.703112
-63.073454 -34.480727 -11.791503
-63.565274 -34.363484 -10.854273
-63.694079 -31.95388 -11.5561
-63.397509 -33.196745 -11.703112
-64.858528 -28.403166 -11.151984
-64.459846 -29.566128 -11.26719
-65.076264 -29.456394 -10.421225
-65.228355 -27.354722 -10.992883
-64.858528 -28.403166 -11.151984
-63.535004 -17.6794 -22.546841
-63.434723 -19.143868 -22.096682
-63.371814 -18.120775 -21.457365
-64.139671 -16.226059 -25.913361
-63.931166 -16.727046 -24.77328
-63.897634 -15.147061 -25.349222
-64.525307 -17.359313 -26.389809
-64.139671 -16.226059 -25.913361
-62.561152 -3.003988 -28.93033
-62.426975 -2.30898 -27.833111
-62.280519 -1.611395 -29.254637
-55.779171 8.35221 -28.97525
-56.122192 7.087985 -27.545583
-55.319561 7.355623 -27.874468
-63.573694 -25.340781 -14.566168
-63.958767 -25.463902 -13.701076
-63.642069 -24.138395 -15.054796
-63.573694 -25.340781 -14.566168
-65.288426 -58.771826 16.531506
-64.594944 -59.585241 16.809075
-65.057732 -59.530265 17.767136
-65.50608 -57.960991 15.313163
-65.288426 -58.771826 16.531506
-65.968868 -57.906015 16.271225
-65.727688 -57.115223 14.104689
-65.50608 -57.960991 15.313163
-66.392082 -56.196026 13.865996
-65.727688 -57.115223 14.104689
-66.848739 -55.300281 13.637605
-66.392082 -56.196026 13.865996
-66.64318 -56.199436 14.824491
-67.29467 -54.360281 13.426391
-67.043571 -54.35687 12.467896
-66.848739 -55.300281 13.637605
-50.214359 -18.203456 -4.006046
-51.711395 -17.369934 -4.736368
-49.322823 -17.837049 -4.297653
-50.214359 -18.203456 -4.006046
-48.402923 -17.526835 -4.644498
-49.842838 -16.836924 -5.424325
-49.322823 -17.837049 -4.297653
-55.250324 -44.315346 15.85425
-54.427857 -44.058746 16.720678
-54.183803 -43.55494 15.581064
-62.785839 -26.531572 -19.182497
-62.611009 -26.734831 -18.210451
-62.988276 -26.239599 -20.181057
-62.785839 -26.531572 -19.182497
-62.924646 -25.051334 -19.852312
-63.378599 -25.987651 -21.135172
-62.988276 -26.239599 -20.181057
-63.512552 -24.434044 -21.832315
-63.378599 -25.987651 -21.135172
-63.512552 -24.434044 -21.832315
-63.261492 -23.252781 -21.460954
-49.549422 -40.186432 14.045355
-49.973799 -40.554062 14.960593
-50.346907 -40.397896 13.06675
-49.549422 -40.186432 14.045355
-51.260746 -40.534787 12.121139
-51.478601 -41.079968 13.113485
-50.346907 -40.397896 13.06675
-51.225571 -39.81635 11.090217
-52.357265 -40.498421 11.136952
-51.260746 -40.534787 12.121139
-51.165425 -39.135209 10.124372
-51.225571 -39.81635 11.090217
-50.068905 -39.171574 11.108559
-52.588335 -33.549155 4.817084
-52.205101 -34.562855 5.615145
-54.173706 -32.973917 3.898357
-52.588335 -33.549155 4.817084
-66.768776 -51.420365 7.250059
-66.146034 -52.438889 7.437562
-66.639663 -52.393952 8.346226
-59.468829 6.059123 -28.623268
-60.008667 5.230106 -28.334865
-59.838453 5.06383 -27.079826
-59.468829 6.059123 -28.623268
-58.889386 6.94989 -28.907578
-45.638881 6.875576 -27.637873
-45.793818 5.854474 -26.51602
-46.242846 7.644357 -29.090006
-45.638881 6.875576 -27.637873
-46.862116 8.662899 -30.434755
-47.143791 7.601309 -29.269577
-46.242846 7.644357 -29.090006
-46.431486 9.716121 -31.653188
-47.332432 9.673075 -31.832759
-46.862116 8.662899 -30.434755
-46.021918 10.690133 -32.793253
-46.431486 9.716121 -31.653188
-45.551602 9.679958 -31.395249
-45.455988 11.620102 -33.98017
-46.335873 11.656266 -34.23811
-46.021918 10.690133 -32.793253
-57.643517 -22.993107 -1.223836
-58.622858 -23.397081 -1.358667
-58.24094 -21.782529 -1.898328
-57.643517 -22.993107 -1.223836
-59.685589 -20.916735 -2.638974
-58.24094 -21.782529 -1.898328
-61.036072 -13.088682 -7.484977
-61.854107 -13.452936 -7.350527
-61.297125 -11.818545 -8.486167
-61.036072 -13.088682 -7.484977
-60.270979 -12.698642 -7.683889
-63.456455 -50.574944 18.355286
-62.588749 -49.731685 18.048631
-64.212238 -51.42214 18.626241
-63.456455 -50.574944 18.355286
-64.222793 -50.745184 17.382248
-64.919339 -52.285325 18.899956
-64.212238 -51.42214 18.626241
-65.52414 -52.463082 17.89613
-65.464901 -53.156025 19.142882
-64.919339 -52.285325 18.899956
-63.876005 -13.623293 -25.819069
-63.897634 -15.147061 -25.349222
-63.6675 -14.12428 -24.678987
-62.963146 -4.700652 -30.852447
-62.720923 -3.806071 -29.930998
-62.65692 -3.200983 -31.273306
-63.316309 -6.27489 -30.315886
-62.963146 -4.700652 -30.852447
-63.563576 -7.811537 -29.851689
-63.274416 -6.842387 -29.045942
-63.316309 -6.27489 -30.315886
-63.852406 -9.409642 -29.271335
-63.563576 -7.811537 -29.851689
-62.735851 -25.593832 -17.862829
-62.611009 -26.734831 -18.210451
-62.851957 -24.265083 -18.393109
-62.735851 -25.593832 -17.862829
-62.99165 -22.838 -18.963723
-62.861902 -23.916224 -19.424366
-62.851957 -24.265083 -18.393109
-61.878567 -62.008687 17.779542
-61.633331 -62.66277 19.055356
-61.878567 -62.008687 17.779542
-62.86484 -61.199385 17.432032
-63.735027 -60.419187 17.110792
-64.594944 -59.585241 16.809075
-67.113167 -52.374735 9.268802
-66.639663 -52.393952 8.346226
-67.549858 -51.393819 9.07728
-67.113167 -52.374735 9.268802
-67.40062 -52.393127 10.187358
-57.646953 6.396192 -26.854019
-58.363113 5.990704 -26.498441
-57.979717 5.205689 -25.362611
-56.007227 -14.334254 -6.817165
-57.346006 -13.2685 -7.515716
-55.049894 -14.174395 -7.176018
-56.007227 -14.334254 -6.817165
-54.627719 -15.420483 -6.133066
-52.216562 -16.203881 -5.7847
-53.16522 -16.426678 -5.443587
-51.711395 -17.369934 -4.736368
-54.872517 -44.383877 17.790647
-54.427857 -44.058746 16.720678
-54.872517 -44.383877 17.790647
-55.859419 -45.196424 18.130527
-59.639547 -47.328829 17.102871
-58.697222 -47.144288 17.979979
-58.58958 -46.540053 16.761996
-60.683693 -48.102942 17.417669
-59.639547 -47.328829 17.102871
-60.576051 -47.498707 16.199686
-61.665342 -48.919102 17.750228
-60.683693 -48.102942 17.417669
-62.543604 -49.085403 16.812888
-62.588749 -49.731685 18.048631
-61.665342 -48.919102 17.750228
-64.633621 -48.23036 -0.469218
-64.039413 -49.432141 -0.333413
-64.61435 -49.148249 0.547459
-61.917088 -0.167456 -29.632448
-61.801962 0.394274 -28.456186
-61.572706 1.143206 -29.931217
-62.280519 -1.611395 -29.254637
-61.917088 -0.167456 -29.632448
-51.402275 11.173284 -32.913088
-51.869772 10.013986 -31.555841
-50.975355 9.988888 -31.735546
-51.402275 11.173284 -32.913088
-50.782135 12.23468 -34.335057
-57.470219 -25.863333 -0.125333
-59.032086 -25.110067 -0.883733
-58.441311 -26.338216 -0.2705
-55.243553 -27.825547 1.312947
-56.296208 -28.299473 1.125784
-55.864084 -26.653844 0.659031
-55.243553 -27.825547 1.312947
-57.470219 -25.863333 -0.125333
-55.864084 -26.653844 0.659031
-50.936554 -41.351191 15.058425
-49.973799 -40.554062 14.960593
-52.02402 -42.074917 15.176492
-50.936554 -41.351191 15.058425
-51.652228 -41.666804 14.177163
-53.050515 -42.844435 15.371361
-52.02402 -42.074917 15.176492
-53.872982 -43.101034 14.504934
-54.183803 -43.55494 15.581064
-53.050515 -42.844435 15.371361
-48.936476 -37.811256 10.267867
-49.016623 -38.453938 11.169789
-50.105816 -37.681902 9.221513
-48.936476 -37.811256 10.267867
-49.033533 -37.002725 9.346666
-50.450403 -35.952528 7.437415
-49.126455 -36.233866 8.476137
-51.600067 -36.530546 7.31286
-50.450403 -35.952528 7.437415
-51.847597 -35.609703 6.449962
-55.76942 -32.385513 3.035191
-55.307983 -33.505621 3.792606
-54.173706 -32.973917 3.898357
-57.390255 -31.724311 2.211491
-55.76942 -32.385513 3.035191
-56.255978 -31.192608 2.317241
-65.544022 -52.526831 6.528954
-66.146034 -52.438889 7.437562
-65.544022 -52.526831 6.528954
-65.669212 -51.592436 5.442329
-64.525402 -50.997549 2.608677
-65.13124 -50.778784 3.494288
-64.609673 -50.094013 1.56429
-64.525402 -50.997549 2.608677
-65.20388 -48.892233 1.428484
-64.61435 -49.148249 0.547459
-64.609673 -50.094013 1.56429
-60.733841 3.707668 -30.55372
-61.148961 2.507324 -30.270692
-61.042462 2.905279 -29.037983
-60.133192 5.165511 -29.599659
-60.502817 4.170218 -28.056217
-60.008667 5.230106 -28.334865
-60.243509 4.96321 -30.863823
-60.133192 5.165511 -29.599659
-60.733841 3.707668 -30.55372
-60.243509 4.96321 -30.863823
-62.390074 -62.511738 19.956798
-61.633331 -62.66277 19.055356
-63.261431 -61.775612 19.621529
-62.390074 -62.511738 19.956798
-64.131619 -60.995414 19.300289
-63.494062 -61.123879 18.365946
-63.261431 -61.775612 19.621529
-64.835544 -60.229258 19.010366
-64.131619 -60.995414 19.300289
-65.529026 -59.415842 18.732797
-65.057732 -59.530265 17.767136
-64.835544 -60.229258 19.010366
-66.01508 -58.611618 18.480624
-65.529026 -59.415842 18.732797
-66.484783 -57.762102 18.238411
-66.220917 -57.867334 17.247355
-66.01508 -58.611618 18.480624
-46.063021 2.545285 -23.03364
-46.029291 1.496598 -21.895386
-46.902778 3.20254 -24.401013
-46.063021 2.545285 -23.03364
-46.008287 3.690581 -24.208098
-46.686283 5.465301 -26.750149
-45.955579 4.737008 -25.341341
-45.793818 5.854474 -26.51602
-48.992018 12.082901 -34.512211
-49.896783 12.185715 -34.447478
-49.603092 11.045372 -33.157527
-48.106632 11.935408 -34.497708
-47.800064 10.834428 -33.136726
-47.20837 11.827277 -34.412174
-48.992018 12.082901 -34.512211
-48.106632 11.935408 -34.497708
-44.286 10.762391 -32.103123
-44.67779 9.879097 -31.042524
-44.603828 11.506787 -33.628569
-44.286 10.762391 -32.103123
-45.455988 11.620102 -33.98017
-44.603828 11.506787 -33.628569
-65.212829 -23.7845 -12.316353
-64.754086 -24.046689 -12.911043
-65.087757 -24.676704 -12.16281
-60.101684 -22.62052 -2.1006
-59.53982 -23.858624 -1.480498
-58.622858 -23.397081 -1.358667
-61.825506 -17.647769 -4.787483
-61.410221 -18.891673 -4.056432
-62.890732 -16.882809 -5.578348
-61.825506 -17.647769 -4.787483
-62.082251 -16.421726 -5.552147
-62.751787 -12.721615 -8.190444
-62.543676 -13.965967 -7.253716
-61.854107 -13.452936 -7.350527
-57.650232 -11.982135 -8.57671
-58.566837 -12.16247 -8.232309
-57.346006 -13.2685 -7.515716
-47.566423 -17.012208 -4.908312
-48.402923 -17.526835 -4.644498
-48.046152 -16.070822 -6.069187
-47.566423 -17.012208 -4.908312
-48.520328 -14.995366 -7.215456
-49.397115 -15.451255 -6.917439
-48.046152 -16.070822 -6.069187
-48.960217 -13.976318 -8.383843
-48.520328 -14.995366 -7.215456
-47.609253 -14.595885 -7.535592
-47.181793 -12.988049 -8.912992
-46.786574 -13.943638 -7.737362
-48.439173 -12.481694 -9.876895
-47.181793 -12.988049 -8.912992
-49.767416 -11.730456 -10.718913
-49.377384 -12.825598 -9.545997
-48.439173 -12.481694 -9.876895
-50.119448 -10.509926 -11.894845
-51.057659 -10.853831 -11.563946
-49.767416 -11.730456 -10.718913
-50.452336 -9.344964 -13.071594
-50.119448 -10.509926 -11.894845
-50.732857 -8.065019 -14.261515
-51.690213 -8.353355 -13.929799
-50.452336 -9.344964 -13.071594
-49.764587 -7.832203 -14.585699
-48.832685 -7.381586 -14.79018
-51.002465 -6.840594 -15.443903
-50.732857 -8.065019 -14.261515
-49.764587 -7.832203 -14.585699
-47.409408 -4.091827 -17.374016
-48.323582 -4.658727 -17.333354
-47.585319 -2.987264 -18.534525
-47.409408 -4.091827 -17.374016
-46.481064 -3.615725 -17.398447
-45.888559 -0.685892 -19.585245
-46.770258 -1.3765 -19.723108
-45.775277 -1.820554 -18.421093
-45.992306 0.347058 -20.725738
-45.888559 -0.685892 -19.585245
-66.717662 -56.921205 18.011748
-66.484783 -57.762102 18.238411
-65.967747 -54.02648 19.386451
-65.464901 -53.156025 19.142882
-66.269077 -54.904492 19.609391
-65.967747 -54.02648 19.386451
-66.371033 -54.211794 18.361995
-66.532287 -55.766611 19.833229
-66.269077 -54.904492 19.609391
-66.708534 -55.9572 18.801644
-66.532287 -55.766611 19.833229
-66.930984 -56.042275 17.791926
-66.708534 -55.9572 18.801644
-66.894813 -55.174881 17.575216
-66.903942 -56.138887 16.78532
-66.717662 -56.921205 18.011748
-66.930984 -56.042275 17.791926
-65.564499 -26.249609 -10.91129
-65.228355 -27.354722 -10.992883
-65.811089 -27.188319 -10.224426
-65.264133 -25.415264 -11.623934
-65.564499 -26.249609 -10.91129
-65.846867 -25.24886 -10.855477
-65.087757 -24.676704 -12.16281
-65.264133 -25.415264 -11.623934
-63.584726 -49.764019 -1.196294
-64.039413 -49.432141 -0.333413
-63.168737 -50.105537 -2.06267
-63.584726 -49.764019 -1.196294
-63.642696 -48.85577 -2.216466
-62.930635 -50.492056 -2.899541
-63.168737 -50.105537 -2.06267
-62.747919 -50.865088 -3.743765
-62.930635 -50.492056 -2.899541
-63.043991 -49.57032 -3.927066
-62.765255 -51.278301 -4.549453
-62.747919 -50.865088 -3.743765
-62.765255 -51.278301 -4.549453
-62.939936 -50.319042 -5.588596
-63.103758 -47.279331 -8.655322
-63.101107 -48.31756 -7.642755
-62.964878 -46.955305 -7.821423
-63.103758 -47.279331 -8.655322
-63.168916 -46.177129 -9.686401
-62.798556 -41.145306 -11.9084
-62.895712 -42.504111 -11.827979
-62.823318 -42.336115 -10.921613
-62.798556 -41.145306 -11.9084
-62.643045 -39.78443 -11.949454
-62.90708 -35.781645 -11.887956
-62.70377 -37.102548 -11.931653
-63.037909 -36.968368 -10.98636
-62.90708 -35.781645 -11.887956
-63.073454 -34.480727 -11.791503
-64.088206 -30.723807 -11.441375
-63.694079 -31.95388 -11.5561
-64.283455 -31.849429 -10.651157
-64.088206 -30.723807 -11.441375
-64.459846 -29.566128 -11.26719
-64.416406 -23.79645 -13.61072
-64.291334 -24.688655 -13.457178
-64.754086 -24.046689 -12.911043
-63.749783 -23.017719 -15.37243
-63.642069 -24.138395 -15.054796
-64.061369 -23.31774 -14.47449
-63.458317 -22.576733 -16.348454
-63.749783 -23.017719 -15.37243
-63.877617 -21.756079 -15.768148
-63.283928 -22.250977 -17.338318
-63.458317 -22.576733 -16.348454
-63.123524 -21.819672 -18.386381
-63.283928 -22.250977 -17.338318
-63.425747 -20.88379 -17.792234
-63.133469 -21.470813 -19.417639
-62.99165 -22.838 -18.963723
-63.123524 -21.819672 -18.386381
-63.333718 -20.665723 -21.539122
-63.198748 -22.117672 -21.033009
-63.136565 -21.037192 -20.501093
-63.333718 -20.665723 -21.539122
-63.434723 -19.143868 -22.096682
-63.643521 -17.175271 -23.697649
-63.535004 -17.6794 -22.546841
-63.580612 -16.152178 -23.058332
-63.885558 -18.254269 -24.261788
-63.643521 -17.175271 -23.697649
-63.931166 -16.727046 -24.77328
-64.1339 -19.385753 -24.726273
-63.885558 -18.254269 -24.261788
-64.571655 -18.986055 -25.721607
-64.1339 -19.385753 -24.726273
-64.571655 -18.986055 -25.721607
-64.525307 -17.359313 -26.389809
-62.867378 -4.503656 -28.509472
-62.561152 -3.003988 -28.93033
-62.720923 -3.806071 -29.930998
-63.996187 -13.072495 -27.030806
-63.876005 -13.623293 -25.819069
-63.766052 -12.049715 -26.360571
-64.034681 -10.969583 -28.766617
-63.703958 -9.938975 -28.077027
-63.852406 -9.409642 -29.271335
-64.249582 -12.583019 -28.150953
-64.034681 -10.969583 -28.766617
-63.996187 -13.072495 -27.030806
-64.249582 -12.583019 -28.150953
-56.92268 6.847874 -27.182277
-56.46307 5.851287 -26.081495
-56.122192 7.087985 -27.545583
-57.646953 6.396192 -26.854019
-56.92268 6.847874 -27.182277
-52.773083 10.018718 -31.319826
-52.346163 8.834323 -30.142285
-51.869772 10.013986 -31.555841
-53.63749 9.906433 -31.065285
-52.773083 10.018718 -31.319826
-54.501023 9.796829 -30.764217
-54.113007 8.729452 -29.605201
-53.63749 9.906433 -31.065285
-55.315487 9.505232 -30.471989
-54.501023 9.796829 -30.764217
-55.779171 8.35221 -28.97525
-55.315487 9.505232 -30.471989
3 375 90 376
3 1 92 91
3 1 93 92
3 0 96 94
3 2 99 97
3 4 103 101
3 4 105 103
3 4 107 105
3 2 110 108
3 2 97 110
3 5 114 112
3 5 116 114
3 3 119 117
3 6 121 120
3 6 377 379
3 379 378 121
3 377 378 379
3 380 124 381
3 8 127 125
3 8 129 127
3 9 132 130
3 382 135 383
3 384 383 133
3 382 383 384
3 386 385 135
3 387 138 388
3 389 388 136
3 387 388 389
3 390 141 391
3 12 144 142
3 14 147 145
3 14 149 147
3 392 152 393
3 394 154 395
3 396 395 152
3 394 395 396
3 15 157 155
3 15 159 157
3 16 161 160
3 16 163 161
3 16 165 163
3 17 168 166
3 17 170 168
3 7 173 171
3 18 176 174
3 18 178 176
3 18 180 178
3 12 183 181
3 12 142 183
3 20 187 185
3 20 189 187
3 20 191 189
3 19 194 192
3 19 196 194
3 13 199 197
3 21 202 200
3 21 204 202
3 10 207 205
3 11 211 209
3 22 397 399
3 399 398 212
3 397 398 399
3 23 400 401
3 23 402 404
3 402 213 403
3 402 403 404
3 24 216 214
3 26 217 95
3 26 218 217
3 27 221 219
3 29 222 98
3 29 223 222
3 405 225 406
3 31 226 100
3 31 227 226
3 32 407 409
3 409 408 102
3 407 408 409
3 32 410 411
3 32 412 413
3 33 228 104
3 33 229 228
3 33 231 229
3 35 232 106
3 35 233 232
3 36 236 234
3 38 237 109
3 38 238 237
3 38 240 238
3 27 241 111
3 27 219 241
3 40 244 242
3 42 245 113
3 42 246 245
3 42 248 246
3 44 249 115
3 44 250 249
3 45 253 251
3 47 254 118
3 47 255 254
3 415 414 256
3 417 416 258
3 418 261 419
3 420 419 259
3 418 419 420
3 48 262 122
3 48 263 262
3 48 265 263
3 50 266 123
3 50 267 266
3 421 268 422
3 51 423 425
3 423 269 424
3 423 424 425
3 51 270 269
3 51 271 270
3 426 272 427
3 428 259 429
3 430 429 272
3 428 429 430
3 52 431 433
3 433 432 126
3 431 432 433
3 52 434 436
3 434 273 435
3 434 435 436
3 52 274 273
3 53 275 128
3 53 276 275
3 54 279 277
3 56 280 131
3 56 281 280
3 25 282 215
3 57 283 134
3 57 284 283
3 57 285 284
3 58 288 286
3 60 289 137
3 60 290 289
3 437 291 438
3 61 292 139
3 61 293 292
3 61 294 293
3 440 439 140
3 62 297 295
3 64 298 143
3 64 299 298
3 28 300 220
3 65 301 146
3 65 302 301
3 65 303 302
3 66 304 148
3 66 305 304
3 441 306 442
3 443 442 260
3 441 442 443
3 444 307 445
3 446 445 150
3 444 445 446
3 447 308 448
3 449 448 307
3 447 448 449
3 450 309 451
3 452 310 453
3 454 453 309
3 452 453 454
3 67 311 151
3 67 312 311
3 67 313 312
3 68 314 153
3 68 315 314
3 30 316 224
3 69 317 156
3 69 318 317
3 69 319 318
3 70 320 158
3 70 321 320
3 455 322 456
3 457 323 458
3 459 324 460
3 461 460 323
3 459 460 461
3 462 325 463
3 464 463 324
3 462 463 464
3 465 326 466
3 468 467 326
3 71 327 162
3 71 328 327
3 71 329 328
3 72 330 164
3 72 331 330
3 34 332 230
3 73 333 167
3 73 334 333
3 73 335 334
3 74 336 169
3 74 337 336
3 49 338 264
3 75 339 172
3 75 340 339
3 37 341 235
3 76 342 175
3 76 343 342
3 76 344 343
3 77 345 177
3 77 346 345
3 77 347 346
3 78 348 179
3 78 349 348
3 39 350 239
3 79 351 182
3 79 352 351
3 79 353 352
3 62 354 184
3 62 295 354
3 41 355 243
3 81 356 186
3 81 469 471
3 471 470 356
3 469 470 471
3 81 472 473
3 82 474 476
3 476 475 188
3 474 475 476
3 82 477 478
3 82 479 480
3 83 481 483
3 483 482 190
3 481 482 483
3 83 484 485
3 43 357 247
3 84 358 193
3 84 486 488
3 488 487 358
3 486 487 488
3 84 489 490
3 80 491 493
3 493 492 195
3 491 492 493
3 80 494 495
3 63 359 296
3 85 360 198
3 85 361 360
3 46 362 252
3 86 363 201
3 86 364 363
3 86 496 498
3 498 497 364
3 496 497 498
3 499 365 500
3 501 500 203
3 499 500 501
3 503 502 365
3 55 366 278
3 87 367 206
3 87 368 367
3 504 369 505
3 506 505 257
3 504 505 506
3 88 370 208
3 88 371 370
3 88 372 371
3 59 373 287
3 89 374 210
3 89 507 509
3 509 508 374
3 507 508 509
3 90 510 511
3 90 512 513
3 91 514 516
3 516 515 22
3 514 515 516
3 92 517 519
3 519 518 91
3 517 518 519
3 92 520 521
3 92 522 523
3 93 524 526
3 526 525 92
3 524 525 526
3 93 527 529
3 527 23 528
3 527 528 529
3 94 95 24
3 96 95 94
3 96 26 95
3 97 98 27
3 99 98 97
3 99 29 98
3 530 100 531
3 532 100 533
3 534 31 535
3 536 535 100
3 534 535 536
3 101 537 539
3 537 102 538
3 537 538 539
3 103 102 101
3 103 32 102
3 103 104 32
3 105 104 103
3 105 33 104
3 105 106 33
3 107 106 105
3 107 35 106
3 108 109 36
3 110 109 108
3 110 38 109
3 110 111 38
3 97 111 110
3 97 27 111
3 112 113 40
3 114 113 112
3 114 42 113
3 114 115 42
3 116 115 114
3 116 44 115
3 117 118 45
3 119 118 117
3 119 47 118
3 120 540 541
3 121 542 544
3 544 543 120
3 542 543 544
3 121 545 546
3 121 547 548
3 550 549 121
3 551 122 552
3 553 122 554
3 555 48 556
3 557 556 122
3 555 556 557
3 558 123 559
3 560 559 48
3 558 559 560
3 124 561 563
3 561 123 562
3 561 562 563
3 124 50 123
3 564 51 565
3 567 566 51
3 125 568 570
3 568 126 569
3 568 569 570
3 127 126 125
3 127 52 126
3 127 128 52
3 129 128 127
3 129 53 128
3 130 131 54
3 132 131 130
3 132 56 131
3 133 134 25
3 135 134 133
3 135 57 134
3 135 571 573
3 573 572 57
3 571 572 573
3 575 574 135
3 136 137 58
3 138 137 136
3 138 60 137
3 576 139 577
3 578 139 579
3 580 61 581
3 582 581 139
3 580 581 582
3 583 140 584
3 585 584 61
3 583 584 585
3 141 586 588
3 586 140 587
3 586 587 588
3 141 589 591
3 591 590 140
3 589 590 591
3 142 143 62
3 144 143 142
3 144 64 143
3 145 146 28
3 147 146 145
3 147 65 146
3 147 148 65
3 149 148 147
3 149 66 148
3 592 150 593
3 594 150 595
3 597 596 150
3 598 151 599
3 152 600 602
3 600 151 601
3 600 601 602
3 152 67 151
3 152 153 67
3 154 153 152
3 154 68 153
3 155 156 30
3 157 156 155
3 157 69 156
3 157 158 69
3 159 158 157
3 159 70 158
3 160 603 604
3 161 605 607
3 607 606 160
3 605 606 607
3 161 608 609
3 161 610 612
3 610 162 611
3 610 611 612
3 163 162 161
3 163 71 162
3 163 164 71
3 165 164 163
3 165 72 164
3 166 167 34
3 168 167 166
3 168 73 167
3 168 169 73
3 170 169 168
3 170 74 169
3 171 172 49
3 173 172 171
3 173 75 172
3 174 175 37
3 176 175 174
3 176 76 175
3 176 177 76
3 178 177 176
3 178 77 177
3 178 179 77
3 180 179 178
3 180 78 179
3 181 182 39
3 183 182 181
3 183 79 182
3 183 184 79
3 142 184 183
3 142 62 184
3 185 186 41
3 187 186 185
3 187 81 186
3 187 188 81
3 189 188 187
3 189 82 188
3 189 190 82
3 191 190 189
3 191 83 190
3 192 193 43
3 194 193 192
3 194 84 193
3 194 195 84
3 196 195 194
3 196 80 195
3 197 198 63
3 199 198 197
3 199 85 198
3 200 201 46
3 202 201 200
3 202 86 201
3 202 203 86
3 204 203 202
3 204 613 615
3 615 614 203
3 613 614 615
3 205 206 55
3 207 206 205
3 207 87 206
3 616 208 617
3 616 617 618
3 619 208 620
3 621 88 622
3 623 622 208
3 621 622 623
3 625 624 88
3 209 210 59
3 211 210 209
3 211 89 210
3 626 120 627
3 628 120 629
3 630 6 631
3 632 631 120
3 630 631 632
3 212 633 634
3 636 635 212
3 638 637 22
3 639 125 640
3 213 641 643
3 641 125 642
3 641 642 643
3 213 8 125
3 214 215 9
3 216 215 214
3 216 25 215
3 95 216 24
3 217 216 95
3 217 25 216
3 217 133 25
3 218 133 217
3 218 644 646
3 646 645 133
3 644 645 646
3 219 220 12
3 221 220 219
3 221 28 220
3 98 221 27
3 222 221 98
3 222 28 221
3 222 145 28
3 223 145 222
3 223 14 145
3 647 224 648
3 225 649 651
3 649 224 650
3 649 650 651
3 225 30 224
3 100 652 654
3 652 225 653
3 652 653 654
3 226 225 100
3 226 30 225
3 226 155 30
3 227 155 226
3 227 15 155
3 102 655 656
3 658 657 102
3 104 659 661
3 661 660 32
3 659 660 661
3 228 662 664
3 664 663 104
3 662 663 664
3 228 665 666
3 228 667 669
3 667 160 668
3 667 668 669
3 229 160 228
3 229 16 160
3 229 230 16
3 231 230 229
3 231 34 230
3 106 231 33
3 232 231 106
3 232 34 231
3 232 166 34
3 233 166 232
3 233 17 166
3 234 235 7
3 236 235 234
3 236 37 235
3 109 236 36
3 237 236 109
3 237 37 236
3 237 174 37
3 238 174 237
3 238 18 174
3 238 239 18
3 240 239 238
3 240 39 239
3 111 240 38
3 241 240 111
3 241 39 240
3 241 181 39
3 219 181 241
3 219 12 181
3 242 670 672
3 670 243 671
3 670 671 672
3 244 243 242
3 244 41 243
3 113 244 40
3 245 244 113
3 245 41 244
3 245 185 41
3 246 185 245
3 246 20 185
3 246 247 20
3 248 247 246
3 248 43 247
3 115 248 42
3 249 248 115
3 249 43 248
3 249 192 43
3 250 192 249
3 250 19 192
3 251 252 13
3 253 252 251
3 253 46 252
3 118 253 45
3 254 253 118
3 254 46 253
3 254 200 46
3 255 200 254
3 255 21 200
3 256 257 10
3 673 257 674
3 675 674 256
3 673 674 675
3 677 676 257
3 258 678 680
3 680 679 11
3 678 679 680
3 682 681 258
3 259 260 2
3 261 260 259
3 261 683 685
3 685 684 260
3 683 684 685
3 686 261 687
3 688 261 689
3 691 690 261
3 122 692 693
3 262 694 696
3 696 695 122
3 694 695 696
3 262 697 698
3 262 699 701
3 699 101 700
3 699 700 701
3 263 101 262
3 263 4 101
3 263 264 4
3 265 264 263
3 265 49 264
3 123 265 48
3 266 265 123
3 266 49 265
3 266 171 49
3 267 171 266
3 267 7 171
3 702 124 703
3 268 704 706
3 704 124 705
3 704 705 706
3 268 50 124
3 707 268 708
3 269 709 711
3 709 268 710
3 709 710 711
3 269 50 268
3 269 267 50
3 270 267 269
3 270 7 267
3 270 234 7
3 271 234 270
3 271 36 234
3 712 271 713
3 714 713 51
3 712 713 714
3 272 715 717
3 715 271 716
3 715 716 717
3 272 36 271
3 272 108 36
3 259 108 272
3 259 2 108
3 126 718 719
3 721 720 126
3 273 722 723
3 273 724 725
3 273 726 728
3 726 242 727
3 726 727 728
3 274 242 273
3 274 40 242
3 128 274 52
3 275 274 128
3 275 40 274
3 275 112 40
3 276 112 275
3 276 5 112
3 277 278 3
3 279 278 277
3 279 55 278
3 131 279 54
3 280 279 131
3 280 55 279
3 280 205 55
3 281 205 280
3 281 10 205
3 215 132 9
3 282 132 215
3 282 56 132
3 134 282 25
3 283 282 134
3 283 56 282
3 283 281 56
3 284 281 283
3 284 10 281
3 284 256 10
3 285 256 284
3 285 729 731
3 731 730 256
3 729 730 731
3 732 285 733
3 734 733 57
3 732 733 734
3 735 285 736
3 738 737 285
3 739 212 740
3 741 212 742
3 743 22 744
3 745 744 212
3 743 744 745
3 746 22 747
3 748 91 749
3 750 749 22
3 748 749 750
3 751 91 752
3 753 1 754
3 755 754 91
3 753 754 755
3 286 287 0
3 288 287 286
3 288 59 287
3 137 288 58
3 289 288 137
3 289 59 288
3 289 209 59
3 290 209 289
3 290 11 209
3 756 138 757
3 291 758 760
3 758 138 759
3 758 759 760
3 291 60 138
3 139 761 763
3 761 291 762
3 761 762 763
3 292 291 139
3 292 60 291
3 292 290 60
3 293 290 292
3 293 11 290
3 293 258 11
3 294 258 293
3 294 764 766
3 766 765 258
3 764 765 766
3 140 294 61
3 767 294 768
3 769 768 140
3 767 768 769
3 771 770 294
3 772 141 773
3 774 141 775
3 777 776 141
3 295 778 780
3 778 296 779
3 778 779 780
3 297 296 295
3 297 63 296
3 143 297 62
3 298 297 143
3 298 63 297
3 298 197 63
3 299 197 298
3 299 13 197
3 220 144 12
3 300 144 220
3 300 64 144
3 146 300 28
3 301 300 146
3 301 64 300
3 301 299 64
3 302 299 301
3 302 13 299
3 302 251 13
3 303 251 302
3 303 45 251
3 148 303 65
3 304 303 148
3 304 45 303
3 304 117 45
3 305 117 304
3 305 3 117
3 260 99 2
3 306 99 260
3 306 29 99
3 150 781 783
3 781 306 782
3 781 782 783
3 307 306 150
3 307 29 306
3 307 223 29
3 308 223 307
3 308 14 223
3 784 308 785
3 309 786 788
3 786 308 787
3 786 787 788
3 309 14 308
3 309 149 14
3 310 149 309
3 310 66 149
3 151 789 791
3 789 310 790
3 789 790 791
3 311 310 151
3 311 66 310
3 311 305 66
3 312 305 311
3 312 3 305
3 312 277 3
3 313 277 312
3 313 54 277
3 153 313 67
3 314 313 153
3 314 54 313
3 314 130 54
3 315 130 314
3 315 9 130
3 224 792 794
3 792 154 793
3 792 793 794
3 316 154 224
3 316 68 154
3 156 316 30
3 317 316 156
3 317 68 316
3 317 315 68
3 318 315 317
3 318 9 315
3 318 214 9
3 319 214 318
3 319 24 214
3 158 319 69
3 320 319 158
3 320 24 319
3 320 94 24
3 321 94 320
3 321 0 94
3 795 31 796
3 797 31 798
3 799 227 800
3 801 800 31
3 799 800 801
3 322 802 804
3 802 227 803
3 802 803 804
3 322 15 227
3 805 322 806
3 807 322 808
3 809 15 810
3 811 810 322
3 809 810 811
3 812 159 813
3 814 813 15
3 812 813 814
3 815 159 816
3 817 70 818
3 819 818 159
3 817 818 819
3 323 820 821
3 323 822 824
3 822 70 823
3 822 823 824
3 323 321 70
3 324 321 323
3 324 0 321
3 324 286 0
3 325 286 324
3 325 58 286
3 825 325 826
3 326 827 829
3 827 325 828
3 827 828 829
3 326 58 325
3 326 136 58
3 830 136 831
3 832 831 326
3 830 831 832
3 834 833 136
3 835 1 836
3 162 837 838
3 327 839 841
3 841 840 162
3 839 840 841
3 327 842 843
3 327 844 845
3 328 846 848
3 848 847 327
3 846 847 848
3 328 849 851
3 849 1 850
3 849 850 851
3 328 93 1
3 329 93 328
3 329 23 93
3 164 329 71
3 330 329 164
3 330 23 329
3 330 213 23
3 331 213 330
3 331 8 213
3 230 165 16
3 332 165 230
3 332 72 165
3 167 332 34
3 333 332 167
3 333 72 332
3 333 331 72
3 334 331 333
3 334 8 331
3 334 129 8
3 335 129 334
3 335 53 129
3 169 335 73
3 336 335 169
3 336 53 335
3 336 276 53
3 337 276 336
3 337 5 276
3 264 107 4
3 338 107 264
3 338 35 107
3 172 338 49
3 339 338 172
3 339 35 338
3 339 233 35
3 340 233 339
3 340 17 233
3 235 173 7
3 341 173 235
3 341 75 173
3 175 341 37
3 342 341 175
3 342 75 341
3 342 340 75
3 343 340 342
3 343 17 340
3 343 170 17
3 344 170 343
3 344 74 170
3 177 344 76
3 345 344 177
3 345 74 344
3 345 337 74
3 346 337 345
3 346 5 337
3 346 116 5
3 347 116 346
3 347 44 116
3 179 347 77
3 348 347 179
3 348 44 347
3 348 250 44
3 349 250 348
3 349 19 250
3 239 180 18
3 350 180 239
3 350 78 180
3 182 350 39
3 351 350 182
3 351 78 350
3 351 349 78
3 352 349 351
3 352 19 349
3 352 196 19
3 353 196 352
3 353 80 196
3 184 353 79
3 354 353 184
3 354 80 353
3 354 852 854
3 854 853 80
3 852 853 854
3 295 855 857
3 857 856 354
3 855 856 857
3 295 858 859
3 243 860 861
3 355 862 864
3 864 863 243
3 862 863 864
3 355 865 866
3 186 355 41
3 356 355 186
3 356 867 869
3 869 868 355
3 867 868 869
3 356 870 871
3 873 872 356
3 188 874 876
3 876 875 81
3 874 875 876
3 878 877 188
3 190 879 881
3 881 880 82
3 879 880 881
3 883 882 190
3 247 191 20
3 357 191 247
3 357 83 191
3 193 357 43
3 358 357 193
3 358 83 357
3 358 884 886
3 886 885 83
3 884 885 886
3 888 887 358
3 195 889 891
3 891 890 84
3 889 890 891
3 893 892 195
3 296 894 896
3 894 90 895
3 894 895 896
3 359 90 296
3 359 897 899
3 899 898 90
3 897 898 899
3 198 359 63
3 360 359 198
3 360 900 902
3 902 901 359
3 900 901 902
3 360 903 904
3 361 905 907
3 907 906 360
3 905 906 907
3 361 908 910
3 908 6 909
3 908 909 910
3 252 199 13
3 362 199 252
3 362 85 199
3 201 362 46
3 363 362 201
3 363 85 362
3 363 361 85
3 364 361 363
3 364 6 361
3 364 911 913
3 913 912 6
3 911 912 913
3 915 914 364
3 203 916 918
3 918 917 86
3 916 917 918
3 365 919 921
3 921 920 203
3 919 920 921
3 365 922 923
3 365 924 925
3 927 926 365
3 278 119 3
3 366 119 278
3 366 47 119
3 206 366 55
3 367 366 206
3 367 47 366
3 367 255 47
3 368 255 367
3 368 21 255
3 257 207 10
3 369 207 257
3 369 87 207
3 208 928 930
3 928 369 929
3 928 929 930
3 370 369 208
3 370 87 369
3 370 368 87
3 371 368 370
3 371 21 368
3 371 204 21
3 372 204 371
3 372 931 933
3 933 932 204
3 931 932 933
3 934 372 935
3 936 935 88
3 934 935 936
3 937 372 938
3 940 939 372
3 287 96 0
3 373 96 287
3 373 26 96
3 210 373 59
3 374 373 210
3 374 26 373
3 374 218 26
3 941 218 942
3 943 942 374
3 941 942 943
3 945 944 218
3 946 211 947
3 948 947 11
3 946 947 948
3 949 211 950
3 951 89 952
3 953 952 211
3 951 952 953
3 954 89 955
3 957 956 89
