ply
format ascii 1.0
element vertex 288
property float x
property float y
property float z
element face 259
property list uchar int vertex_index
end_header
-4.59244 81.961609 -22.825436
-0.322243 77.399918 -18.274979
1.607151 62.96619 -23.496674
3.464291 46.257603 -24.194122
-1.675959 83.206863 -14.422186
-0.209791 73.008392 -14.596758
2.570744 54.929028 -24.480408
-3.967037 85.235214 -16.929722
-1.470705 80.622925 -21.207863
0.193396 74.315903 -24.726212
1.359312 66.940216 -27.287415
0.662479 70.498993 -21.359909
0.740891 66.059937 -17.304745
2.259064 58.887943 -28.698536
4.354954 28.369465 -23.37273
-5.406023 87.713623 -11.208435
-5.588692 86.719986 -14.584372
-3.860714 86.388306 -13.561659
-0.924189 80.48024 -16.433283
-1.529362 82.066147 -17.925919
-0.694715 79.210892 -19.873196
-0.555134 77.639404 -23.075428
-0.017948 76.006241 -21.627735
0.553257 72.533264 -23.167122
0.189655 74.049744 -19.924294
0.230726 69.589966 -16.060778
-6.349079 83.822922 -20.568985
-9.000135 83.388931 -20.739388
-6.968695 81.856598 -23.050148
1.537577 65.024475 -25.511883
1.835812 62.987431 -28.150108
1.990614 61.055721 -26.266418
3.031567 50.686314 -24.492657
2.820805 52.702526 -26.812389
3.185024 48.277409 -26.583794
3.512794 43.647896 -26.048817
3.810333 38.788818 -25.2701
-2.63413 85.491699 -12.268387
-0.663225 78.517258 -14.745581
-0.212112 75.29599 -16.492111
-3.0788 79.575851 -24.913441
-5.159372 79.786865 -25.21719
1.706623 60.834721 -21.317112
2.091309 59.014515 -24.14489
2.261387 56.914043 -21.861206
2.816257 52.847416 -22.099442
3.352524 48.607868 -22.033524
-5.89344 85.433273 -17.726124
-4.200363 83.769547 -20.041313
-2.572451 84.485382 -15.811928
-2.597355 83.181793 -19.149155
-2.754183 81.553955 -22.208153
-1.548985 78.85202 -24.190502
0.819496 70.72937 -26.137718
1.06238 68.857758 -24.46978
1.130173 66.795944 -22.559242
0.221403 71.878235 -18.045509
0.677296 68.314316 -19.383877
1.173218 64.63121 -20.483128
-7.747883 79.511597 -25.121265
1.488888 64.735046 -29.718849
2.420643 56.95332 -26.706356
4.088013 33.690643 -24.341217
4.483815 25.621018 -22.921392
4.655817 27.383726 -22.262329
-3.850091 86.821442 -11.781934
-4.633369 87.050964 -12.385047
-4.622746 87.4841 -10.605322
3.665667 43.937075 -23.910915
3.689919 42.632221 -24.838262
3.488542 44.95275 -25.121469
-0.827668 78.946884 -12.922392
-0.926743 79.993736 -13.786638
-0.632617 77.402588 -13.840588
-0.827668 78.946884 -12.922392
-3.33511 78.403793 -26.056415
-2.441841 78.154511 -25.85446
2.102469 57.791343 -20.448087
1.984005 58.874382 -21.589159
1.825087 59.751683 -20.17604
3.020916 51.779877 -20.86553
2.702375 53.810566 -20.789246
3.289049 49.660103 -20.832571
3.08439 50.727642 -22.066483
3.020916 51.779877 -20.86553
3.593132 47.534058 -20.771292
3.289049 49.660103 -20.832571
-0.182497 75.03003 -25.341923
-0.556762 76.69178 -24.516531
-0.180869 75.977654 -23.90082
0.224032 73.313652 -26.104965
-0.182497 75.03003 -25.341923
0.506446 72.522637 -25.431965
0.537083 71.520386 -26.810719
0.224032 73.313652 -26.104965
1.02963 64.241659 -17.804443
1.245793 63.527296 -19.393635
0.957055 65.345574 -18.893937
-10.536157 82.968345 -20.668761
-9.409378 82.341721 -21.828217
-6.823837 78.374 -26.146492
-6.453627 79.649231 -25.169227
-5.529582 78.511634 -26.194454
1.4241 65.837631 -28.503132
1.208071 66.679642 -29.232126
1.143283 67.782227 -28.016409
2.108781 59.781326 -29.538433
1.897155 61.83107 -29.264219
2.047438 60.937687 -28.424322
2.302388 57.670406 -29.698681
2.108781 59.781326 -29.538433
2.725644 53.670673 -27.860561
2.88485 51.462086 -27.791187
4.166481 35.219847 -23.604248
3.949173 36.239731 -24.805658
4.027641 37.768934 -24.068689
4.347134 32.677107 -23.174978
4.166481 35.219847 -23.604248
4.155619 26.596561 -23.939251
3.878088 27.593252 -25.015753
4.077423 29.366156 -24.449232
4.155619 26.596561 -23.939251
4.483815 25.621018 -22.921392
-5.497357 87.216804 -12.896403
-6.516409 87.161476 -13.3669
-6.425075 87.658294 -11.678932
0.027991 70.109246 -14.351386
0.010467 71.299179 -15.328768
-0.192268 71.818458 -13.619376
0.287304 68.422852 -15.039341
0.027991 70.109246 -14.351386
0.542386 66.657837 -15.661324
0.485808 67.824951 -16.682761
0.287304 68.422852 -15.039341
0.850042 64.92164 -16.235348
0.542386 66.657837 -15.661324
-7.674607 83.605927 -20.654187
-8.665067 84.251671 -19.46176
-7.339539 84.468666 -19.376559
-8.393658 81.575554 -22.983597
-9.409378 82.341721 -21.828217
-7.984415 82.622765 -21.894768
3.066959 49.249527 -27.67689
2.88485 51.462086 -27.791187
3.002915 50.489967 -26.698092
3.200487 46.943032 -27.440185
3.066959 49.249527 -27.67689
3.364372 44.628275 -27.172697
3.200487 46.943032 -27.440185
3.348909 45.962653 -26.316305
3.47583 42.209408 -26.79295
3.364372 44.628275 -27.172697
3.661563 41.218357 -25.659458
3.624599 39.779869 -26.403591
3.47583 42.209408 -26.79295
3.838688 40.202682 -24.448904
3.661563 41.218357 -25.659458
3.689919 42.632221 -24.838262
4.027641 37.768934 -24.068689
3.838688 40.202682 -24.448904
-2.684409 85.857025 -10.423023
-3.236799 86.373138 -11.135298
-2.247091 84.780128 -11.51546
-2.684409 85.857025 -10.423023
-1.768006 83.63771 -12.59236
-2.155044 84.349281 -13.345287
-2.247091 84.780128 -11.51546
-1.43311 82.338539 -13.624941
-1.768006 83.63771 -12.59236
-1.057225 80.975227 -14.630489
-1.300074 81.843551 -15.427734
-1.43311 82.338539 -13.624941
-0.793707 79.498749 -15.589432
-1.057225 80.975227 -14.630489
-0.926743 79.993736 -13.786638
-0.40706 75.791954 -14.713854
-0.437668 76.906624 -15.618846
-0.632617 77.402588 -13.840588
-0.4059 74.648155 -13.766177
-0.210952 74.152191 -15.544435
-0.40706 75.791954 -14.713854
-0.402532 73.453247 -12.828958
-0.4059 74.648155 -13.766177
-0.192268 71.818458 -13.619376
-0.402532 73.453247 -12.828958
-4.375396 78.5093 -26.20829
-4.119086 79.681358 -25.065315
-3.33511 78.403793 -26.056415
-4.745607 77.23407 -27.185555
-5.529582 78.511634 -26.194454
-4.375396 78.5093 -26.20829
2.42494 55.843879 -20.670128
2.102469 57.791343 -20.448087
2.538822 54.88073 -21.980324
2.42494 55.843879 -20.670128
2.702375 53.810566 -20.789246
3.605715 46.388968 -21.862167
3.661599 45.213835 -22.942467
3.408408 47.432736 -23.113823
3.605715 46.388968 -21.862167
3.593132 47.534058 -20.771292
-6.701848 86.613335 -14.942825
-6.516409 87.161476 -13.3669
-6.854222 85.969978 -16.513701
-6.701848 86.613335 -14.942825
-5.741066 86.076629 -16.155248
-7.11172 85.273842 -17.955128
-6.854222 85.969978 -16.513701
-6.121259 84.628097 -19.147554
-7.339539 84.468666 -19.376559
-7.11172 85.273842 -17.955128
-3.247422 85.940002 -12.915023
-3.850091 86.821442 -11.781934
-3.236799 86.373138 -11.135298
-1.676934 77.792595 -25.49299
-2.441841 78.154511 -25.85446
-2.313893 79.213935 -24.551972
-1.053688 77.298088 -25.074068
-1.052059 78.245712 -23.632965
-0.556762 76.69178 -24.516531
-1.676934 77.792595 -25.49299
-1.053688 77.298088 -25.074068
0.873375 69.676804 -27.441561
0.537083 71.520386 -26.810719
1.089404 68.834793 -26.712567
1.143283 67.782227 -28.016409
0.873375 69.676804 -27.441561
1.512496 61.629052 -19.810627
1.43992 62.732965 -20.90012
1.245793 63.527296 -19.393635
1.825087 59.751683 -20.17604
1.512496 61.629052 -19.810627
1.02963 64.241659 -17.804443
0.850042 64.92164 -16.235348
-6.298276 88.072288 -9.996916
-6.425075 87.658294 -11.678932
-5.356161 88.074341 -9.431869
-6.298276 88.072288 -9.996916
-4.622746 87.4841 -10.605322
-5.356161 88.074341 -9.431869
-10.106854 83.873215 -19.531353
-8.665067 84.251671 -19.46176
-10.106854 83.873215 -19.531353
-10.536157 82.968345 -20.668761
-8.783252 80.403053 -24.019156
-8.393658 81.575554 -22.983597
-7.358289 80.684098 -24.085707
-8.207471 78.148751 -25.940706
-6.823837 78.374 -26.146492
-7.283425 77.011154 -26.965933
-9.255537 79.161217 -24.904238
-8.207471 78.148751 -25.940706
-8.783252 80.403053 -24.019156
-9.255537 79.161217 -24.904238
1.155694 65.473656 -30.312536
1.208071 66.679642 -29.232126
1.441638 63.486681 -30.699303
1.155694 65.473656 -30.312536
1.723693 62.704877 -30.048589
1.66235 63.861238 -28.934478
1.897155 61.83107 -29.264219
1.441638 63.486681 -30.699303
1.723693 62.704877 -30.048589
2.525563 55.79607 -27.807544
2.620724 54.827923 -26.759372
2.725644 53.670673 -27.860561
2.444773 56.763382 -28.803635
2.339854 57.920631 -27.702446
2.525563 55.79607 -27.807544
2.302388 57.670406 -29.698681
2.444773 56.763382 -28.803635
3.719902 37.238781 -25.923122
3.624599 39.779869 -26.403591
3.858742 34.689694 -25.458681
3.719902 37.238781 -25.923122
3.949173 36.239731 -24.805658
3.943952 32.026744 -24.933476
3.858742 34.689694 -25.458681
4.221483 31.030054 -23.856974
4.077423 29.366156 -24.449232
3.943952 32.026744 -24.933476
4.480605 30.016517 -22.690734
4.221483 31.030054 -23.856974
4.347134 32.677107 -23.174978
4.655817 27.383726 -22.262329
4.480605 30.016517 -22.690734
3.665667 43.937075 -23.910915
3.661599 45.213835 -22.942467
3 64 63 14
3 65 17 66
3 67 66 15
3 65 66 67
3 1 20 18
3 1 22 20
3 1 24 22
3 0 28 26
3 2 31 29
3 3 34 32
3 3 35 34
3 3 68 70
3 70 69 35
3 68 69 70
3 71 38 72
3 74 73 38
3 76 75 40
3 77 44 78
3 79 78 42
3 77 78 79
3 80 45 81
3 82 46 83
3 84 83 45
3 82 83 84
3 86 85 46
3 7 47 16
3 7 48 47
3 4 49 37
3 8 50 19
3 8 51 50
3 8 52 51
3 9 87 89
3 89 88 21
3 87 88 89
3 9 90 91
3 9 92 94
3 92 53 93
3 92 93 94
3 11 54 23
3 11 55 54
3 5 56 39
3 12 57 25
3 12 58 57
3 12 95 97
3 97 96 58
3 95 96 97
3 99 98 27
3 100 59 101
3 102 101 41
3 100 101 102
3 10 103 105
3 103 60 104
3 103 104 105
3 13 106 108
3 108 107 30
3 106 107 108
3 13 109 110
3 6 61 43
3 112 111 33
3 113 62 114
3 115 114 36
3 113 114 115
3 117 116 62
3 14 118 120
3 118 119 120
3 122 121 14
3 15 123 125
3 123 16 124
3 123 124 125
3 17 16 15
3 17 7 16
3 18 19 4
3 20 19 18
3 20 8 19
3 20 21 8
3 22 21 20
3 22 9 21
3 22 23 9
3 24 23 22
3 24 11 23
3 126 25 127
3 128 127 5
3 126 127 128
3 129 25 130
3 131 12 132
3 133 132 25
3 131 132 133
3 135 134 12
3 26 136 138
3 136 27 137
3 136 137 138
3 28 27 26
3 28 139 141
3 141 140 27
3 139 140 141
3 29 30 10
3 31 30 29
3 31 13 30
3 32 33 6
3 34 33 32
3 34 142 144
3 144 143 33
3 142 143 144
3 34 145 146
3 35 147 149
3 149 148 34
3 147 148 149
3 35 150 151
3 35 152 154
3 152 36 153
3 152 153 154
3 155 36 156
3 157 156 35
3 155 156 157
3 159 158 36
3 160 37 161
3 162 37 163
3 164 4 165
3 166 165 37
3 164 165 166
3 167 4 168
3 169 18 170
3 171 170 4
3 169 170 171
3 38 172 174
3 172 18 173
3 172 173 174
3 38 1 18
3 38 39 1
3 175 39 176
3 177 176 38
3 175 176 177
3 178 5 179
3 180 179 39
3 178 179 180
3 181 5 182
3 184 183 5
3 40 41 0
3 185 41 186
3 187 186 40
3 185 186 187
3 190 189 41
3 188 189 190
3 42 43 2
3 44 43 42
3 44 6 43
3 191 44 192
3 45 193 195
3 193 44 194
3 193 194 195
3 45 6 44
3 45 32 6
3 46 32 45
3 46 3 32
3 46 196 198
3 198 197 3
3 196 197 198
3 200 199 46
3 16 201 202
3 47 203 205
3 205 204 16
3 203 204 205
3 47 206 207
3 47 208 210
3 208 26 209
3 208 209 210
3 48 26 47
3 48 0 26
3 37 211 213
3 211 17 212
3 211 212 213
3 49 17 37
3 49 7 17
3 19 49 4
3 50 49 19
3 50 7 49
3 50 48 7
3 51 48 50
3 51 0 48
3 51 40 0
3 52 40 51
3 52 214 216
3 216 215 40
3 214 215 216
3 21 52 8
3 217 52 218
3 219 218 21
3 217 218 219
3 221 220 52
3 53 222 223
3 53 224 226
3 224 10 225
3 224 225 226
3 23 53 9
3 54 53 23
3 54 10 53
3 54 29 10
3 55 29 54
3 55 2 29
3 39 24 1
3 56 24 39
3 56 11 24
3 25 56 5
3 57 56 25
3 57 11 56
3 57 55 11
3 58 55 57
3 58 2 55
3 58 42 2
3 227 42 228
3 229 228 58
3 227 228 229
3 231 230 42
3 233 232 12
3 234 15 235
3 236 15 237
3 239 238 15
3 27 240 241
3 243 242 27
3 41 28 0
3 59 28 41
3 59 244 246
3 246 245 28
3 244 245 246
3 247 59 248
3 247 248 249
3 250 59 251
3 253 252 59
3 60 254 255
3 60 256 257
3 30 60 10
3 258 60 259
3 260 259 30
3 258 259 260
3 262 261 60
3 43 31 2
3 61 31 43
3 61 13 31
3 33 61 6
3 263 61 264
3 265 264 33
3 263 264 265
3 266 13 267
3 268 267 61
3 266 267 268
3 270 269 13
3 36 271 272
3 62 273 275
3 275 274 36
3 273 274 275
3 62 276 277
3 62 278 280
3 278 14 279
3 278 279 280
3 281 14 282
3 283 282 62
3 281 282 283
3 285 284 14
3 287 286 3
