ply
format ascii 1.0
element vertex 467
property float x
property float y
property float z
element face 478
property list uchar int vertex_index
end_header
-0.39283 -103.353973 21.09186
-5.421814 -92.310623 20.632877
-4.6152 -96.307098 30.761295
-6.270067 -114.203445 27.254539
1.287533 -112.346069 9.740324
-3.12326 -106.666702 31.340057
0.000381 -114.857574 19.251377
-9.615503 -85.089508 12.309174
-8.246586 -86.058731 16.247568
-2.775496 -97.619965 20.883301
-3.610941 -95.929871 16.180063
0.438597 -106.217926 11.139754
1.142765 -107.666489 15.703194
-5.109737 -102.861359 36.368122
-5.652065 -118.42868 20.666584
-2.622412 -115.186569 23.697714
-2.35158 -119.455505 16.788845
-0.244686 -119.219437 12.249696
-3.236179 -123.370926 9.52528
-7.38973 -125.646332 6.793852
-7.095104 -87.457977 20.564932
-4.7651 -94.285706 25.549335
-2.749964 -99.668945 26.049568
-7.619226 -110.08815 33.454704
-10.386681 -111.531235 29.772507
-9.794542 -119.950836 17.263462
-6.548208 -90.780945 16.169851
-4.988951 -97.965622 36.005394
-3.559452 -101.58287 31.34782
-1.219172 -105.234726 26.316374
-3.986628 -111.049606 30.038166
-1.076462 -110.595032 25.663275
0.683617 -109.268784 20.699497
1.294823 -113.753754 14.422335
0.529457 -118.148346 7.579461
-8.372475 -83.817657 16.275677
-7.814356 -84.443375 18.37953
-1.474777 -100.442917 21.023912
-1.654079 -99.509872 18.539019
-0.401772 -102.428024 18.563091
0.420715 -104.59549 16.013857
0.535929 -105.430603 18.462894
-5.720364 -120.498703 17.267633
-3.875111 -119.126114 18.841908
-4.051567 -121.182724 15.325992
-2.656389 -121.501587 13.18915
-5.18672 -124.768066 8.126537
-6.60046 -124.191452 10.323257
-5.071142 -93.718582 30.449881
-5.284065 -92.73674 27.875195
-4.624491 -95.318176 28.132982
-3.769922 -96.938477 25.791348
-3.834888 -97.974045 28.427231
-9.64595 -117.909454 20.390125
-11.876167 -118.084686 18.601965
-6.447115 -89.830444 20.579815
-6.993227 -89.033401 18.338438
-5.928801 -91.472702 18.339657
1.066576 -109.285004 10.538335
0.920073 -111.605682 7.576805
-5.037436 -96.104767 38.251751
-5.349787 -98.557831 38.547241
-4.207834 -104.767715 33.920929
-4.255182 -102.329483 33.916737
-3.209227 -104.178207 31.46735
-2.416157 -103.383102 28.893291
-2.046143 -106.044098 28.885849
-6.8923 -112.127869 30.409962
-5.750971 -110.772491 31.874098
-4.962685 -112.808395 28.813168
-1.157522 -115.153534 21.5583
-1.64316 -113.025452 24.844231
-0.37923 -112.685486 22.544287
-0.037134 -110.002457 23.220898
0.565845 -112.144012 20.118444
1.172104 -111.47493 17.640472
0.821215 -114.369003 16.84885
-0.831512 -121.225586 8.597958
0.300217 -118.76387 9.900546
-4.957949 -94.630112 33.05764
-8.976858 -83.289551 14.255445
-8.903231 -85.536621 14.227452
-8.316349 -87.848053 14.176484
-4.145756 -94.906586 20.7384
-4.577662 -94.026993 18.382238
-3.097246 -96.705597 18.459837
0.914215 -106.909241 13.346781
1.387564 -110.004578 12.797621
-5.672529 -100.924072 38.715672
-5.368052 -105.092896 36.209633
-4.411572 -107.033417 33.624393
-5.840473 -116.312561 24.001125
-4.347452 -114.889008 25.608824
-3.974752 -117.006912 22.277388
-2.338076 -117.324951 20.301027
-0.98575 -117.322647 18.122749
0.041945 -117.062912 15.810097
-1.130816 -119.468018 14.568202
-1.57679 -121.499832 10.923687
-7.288706 -85.179306 20.557373
-6.781679 -86.014023 22.804144
-6.587639 -88.329025 22.853567
-5.978472 -90.742706 22.923035
-5.589088 -91.728241 25.359512
-5.032478 -93.264511 23.041372
-3.874643 -95.895447 23.216656
-2.657841 -98.628067 23.425648
-1.540434 -101.444382 23.612253
-8.89028 -111.012054 31.752338
-8.312862 -113.089874 28.631271
-7.867241 -115.20047 25.451385
-7.62121 -117.323471 22.225319
-7.606588 -119.414246 18.962738
-7.827702 -121.405975 15.668017
-7.645945 -86.695755 18.361713
-7.616819 -88.374466 16.203342
-7.271097 -90.236542 14.125078
-5.161077 -93.294403 16.163227
-5.88039 -92.717972 14.086064
-4.948086 -95.435318 35.668606
-4.738621 -97.203522 33.398098
-5.012218 -100.461975 36.267044
-4.467737 -99.787277 33.709885
-4.069624 -98.94191 31.081944
-3.052441 -100.675766 28.707878
-1.855446 -102.448288 26.254719
-0.664846 -104.312927 23.696301
-4.919916 -109.056732 32.952637
-3.371954 -108.980484 30.880222
-3.189013 -113.089233 26.95055
-2.407551 -110.968857 27.955452
-2.028347 -108.596146 28.594206
-0.940386 -107.972855 26.142895
-0.14098 -107.186523 23.590523
0.352377 -106.314728 21.007833
1.074818 -108.468597 18.17173
1.438652 -110.744537 15.18033
1.435877 -113.066895 12.035477
0.724182 -116.608459 13.43442
1.065849 -116.015427 11.061554
1.102638 -115.327469 8.747383
0.502108 -117.407303 5.335688
-8.934401 -124.768295 8.977233
-7.413276 -83.708378 19.451953
-7.652297 -83.349472 18.370818
-5.046055 -121.815384 14.571542
-4.885966 -120.840713 16.296813
-5.880453 -121.473374 15.542363
-4.27248 -122.138001 13.537566
-5.046055 -121.815384 14.571542
-6.320502 -123.319748 12.070175
-5.546926 -123.642364 11.036199
-12.940727 -116.958199 19.164601
-11.822515 -117.035034 20.085903
-13.076375 -117.986611 17.779375
-12.940727 -116.958199 19.164601
1.09411 -113.458046 8.138863
0.910381 -113.087852 7.057104
1.103803 -111.975876 8.658565
-5.57149 -98.753517 39.770164
-5.28101 -97.585678 39.662588
-5.502714 -97.781364 40.885511
-0.619354 -120.975632 7.435854
-1.256614 -122.102097 6.739937
-4.884483 -93.775368 34.185497
-4.995529 -93.367729 32.894564
-8.486508 -82.461373 15.258626
-8.763696 -82.191807 14.246891
-1.859396 -99.103249 17.366452
-1.166179 -100.550911 17.348499
-5.610525 -106.088455 35.95565
-5.998164 -105.098588 37.257618
-5.132284 -107.058716 34.66303
-4.889812 -106.063156 34.917013
-5.610525 -106.088455 35.95565
-2.767586 -123.344818 8.369807
-1.937891 -122.409271 9.06901
-2.406484 -122.435379 10.224483
-3.6543 -124.170944 7.671389
-2.767586 -123.344818 8.369807
-6.754803 -125.88575 5.634088
-5.653298 -125.446617 6.300431
-6.288225 -125.207199 7.460195
-7.896587 -126.195458 5.018787
-6.754803 -125.88575 5.634088
-6.420362 -85.329658 23.906781
-6.660983 -84.896164 22.772481
-6.354472 -88.801216 24.038511
-6.436451 -87.623406 23.985613
-6.049888 -90.008057 24.073245
-6.283055 -89.535865 22.888301
-6.354472 -88.801216 24.038511
-9.638481 -111.271645 30.762422
-9.875079 -110.230782 32.318441
-10.623279 -110.490372 31.328525
-8.789819 -115.494766 24.483892
-8.921648 -114.4253 26.0485
-8.666804 -116.556266 22.870859
-7.744225 -116.26197 23.838352
-8.789819 -115.494766 24.483892
-9.973961 -120.893814 15.694492
-8.990541 -121.621384 14.89677
-8.811122 -120.678405 16.46574
-9.99232 -84.870728 11.406918
-9.624254 -83.95559 12.321576
-5.499255 -93.773308 13.085272
-5.087856 -94.014183 14.070708
-6.295888 -92.494248 13.116373
-5.499255 -93.773308 13.085272
0.112292 -105.899781 10.121516
-0.06642 -104.711869 11.350109
-7.110224 -109.42778 34.120541
-7.973797 -109.079704 34.918785
-9.821418 -124.126861 9.969707
-8.604395 -123.993179 10.658767
-7.931356 -83.036613 17.318891
-8.184316 -82.725426 16.268743
-8.093415 -84.130516 17.327604
-7.931356 -83.036613 17.318891
-7.652297 -83.349472 18.370818
-0.540025 -102.009986 17.360535
-1.166179 -100.550911 17.348499
-1.027926 -100.968948 18.551055
0.009471 -103.511757 17.288474
-0.128782 -103.093719 16.085918
-0.540025 -102.009986 17.360535
-3.574891 -122.297432 12.469145
-3.353978 -121.342155 14.257571
-4.27248 -122.138001 13.537566
-3.864786 -123.232101 10.63721
-2.946284 -122.436256 11.357215
-3.574891 -122.297432 12.469145
-4.840057 -123.930672 9.937839
-4.21145 -124.069496 8.825909
-3.864786 -123.232101 10.63721
-5.89359 -124.479759 9.224897
-4.840057 -123.930672 9.937839
-5.546926 -123.642364 11.036199
-5.177604 -93.227661 29.162538
-5.308619 -91.970138 29.025588
-5.202158 -92.46106 30.312931
-11.392025 -110.534263 30.258994
-10.623279 -110.490372 31.328525
-10.707406 -116.947418 20.979983
-9.679173 -116.849258 21.953262
-10.761059 -117.99707 19.496045
-10.707406 -116.947418 20.979983
-11.822515 -117.035034 20.085903
-12.025799 -119.068482 17.129642
-10.984986 -120.001556 16.460391
-10.835355 -119.017761 17.932713
-12.025799 -119.068482 17.129642
-13.076375 -117.986611 17.779375
-9.758629 -86.048614 11.381732
-9.349851 -86.25254 12.284185
-3.953131 -95.620133 15.117707
-3.14602 -96.979485 15.094805
0.80691 -108.936409 9.486251
0.492921 -107.40287 9.78696
0.752587 -107.751465 10.839044
0.733659 -110.096748 8.005485
0.80691 -108.936409 9.486251
0.993324 -110.445343 9.05757
0.671254 -111.219109 6.575318
0.733659 -110.096748 8.005485
0.734208 -112.675522 6.022571
0.671254 -111.219109 6.575318
0.734208 -112.675522 6.022571
0.910381 -113.087852 7.057104
-5.124835 -96.359146 39.514843
-4.827562 -95.152382 39.354873
-5.193611 -97.331299 38.399496
-5.124835 -96.359146 39.514843
-5.28101 -97.585678 39.662588
-0.053489 -119.744774 8.087148
-0.265648 -119.994728 9.249252
-0.619354 -120.975632 7.435854
0.06113 -119.437012 6.926605
0.414837 -118.456108 8.740004
-0.053489 -119.744774 8.087148
0.137368 -119.094399 5.791644
0.06113 -119.437012 6.926605
-5.052126 -92.911964 31.590684
-5.202158 -92.46106 30.312931
-5.014546 -94.174347 31.75376
-5.052126 -92.911964 31.590684
-4.995529 -93.367729 32.894564
-9.304932 -83.055611 13.294712
-8.763696 -82.191807 14.246891
-9.296181 -84.189529 13.28231
-9.624254 -83.95559 12.321576
-9.304932 -83.055611 13.294712
-8.674667 -83.553604 15.265561
-8.486508 -82.461373 15.258626
-8.184316 -82.725426 16.268743
-8.993716 -86.476097 13.243324
-9.349851 -86.25254 12.284185
-9.259367 -85.313064 13.268313
-8.700274 -87.631813 13.217841
-8.993716 -86.476097 13.243324
-8.60979 -86.692337 14.201968
-8.19902 -88.826721 13.189419
-8.700274 -87.631813 13.217841
-2.580979 -97.701111 17.326861
-2.375663 -98.107734 18.499428
-1.859396 -99.103249 17.366452
-2.837827 -97.313248 16.186974
-3.354094 -96.317734 17.31995
-2.580979 -97.701111 17.326861
-3.14602 -96.979485 15.094805
-2.837827 -97.313248 16.186974
0.237033 -105.034004 12.421978
-0.06642 -104.711869 11.350109
0.228092 -104.222786 14.85903
-0.128782 -103.093719 16.085918
0.474842 -105.379661 13.525492
0.228092 -104.222786 14.85903
0.667465 -105.752365 14.680319
0.676406 -106.563583 12.243267
0.237033 -105.034004 12.421978
0.474842 -105.379661 13.525492
-6.038809 -101.030822 39.871601
-5.732862 -99.936637 39.85438
-5.874843 -102.027809 38.69118
-6.038809 -101.030822 39.871601
-5.593447 -102.996453 37.517404
-5.391133 -101.892715 37.541897
-5.874843 -102.027809 38.69118
-5.722605 -104.112221 37.43816
-5.998164 -105.098588 37.257618
-5.238894 -103.977127 36.288877
-5.593447 -102.996453 37.517404
-5.722605 -104.112221 37.43816
-1.565252 -122.272148 7.906146
-1.204151 -121.362709 9.760822
-1.937891 -122.409271 9.06901
-1.256614 -122.102097 6.739937
-1.565252 -122.272148 7.906146
-4.62957 -124.869515 6.972017
-3.6543 -124.170944 7.671389
-4.21145 -124.069496 8.825909
-4.62957 -124.869515 6.972017
-5.653298 -125.446617 6.300431
-6.914497 -84.478805 21.649096
-7.150451 -84.076344 20.540875
-7.035192 -85.596665 21.680758
-6.914497 -84.478805 21.649096
-6.660983 -84.896164 22.772481
-6.533471 -86.465904 23.960901
-6.420362 -85.329658 23.906781
-6.684659 -87.171524 22.828856
-6.533471 -86.465904 23.960901
-6.436451 -87.623406 23.985613
-5.492034 -91.491623 27.771552
-5.308619 -91.970138 29.025588
-5.644545 -90.987373 26.51371
-5.492034 -91.491623 27.771552
-5.436577 -92.23249 26.617354
-5.855196 -90.500824 25.291483
-5.644545 -90.987373 26.51371
-5.78378 -91.235473 24.141273
-6.049888 -90.008057 24.073245
-5.855196 -90.500824 25.291483
-8.557934 -109.527916 34.128265
-7.973797 -109.079704 34.918785
-9.193461 -109.989868 33.277082
-9.875079 -110.230782 32.318441
-8.254753 -110.550102 32.603521
-8.557934 -109.527916 34.128265
-9.193461 -109.989868 33.277082
-11.233379 -111.598847 28.706527
-11.392025 -110.534263 30.258994
-10.181368 -112.590683 28.209061
-11.233379 -111.598847 28.706527
-9.144459 -113.370002 27.638443
-9.349771 -112.310554 29.201889
-10.181368 -112.590683 28.209061
-8.090052 -114.145172 27.041328
-9.144459 -113.370002 27.638443
-8.921648 -114.4253 26.0485
-8.63358 -117.616462 21.307722
-8.666804 -116.556266 22.870859
-9.679173 -116.849258 21.953262
-6.934123 -121.927009 14.742555
-5.880453 -121.473374 15.542363
-6.774033 -120.952339 16.467825
-8.051046 -122.312019 14.004159
-6.934123 -121.927009 14.742555
-8.051046 -122.312019 14.004159
-8.990541 -121.621384 14.89677
-9.973961 -120.893814 15.694492
-10.984986 -120.001556 16.460391
-9.99232 -84.870728 11.406918
-9.758629 -86.048614 11.381732
-7.551531 -84.811341 19.468452
-7.413276 -83.708378 19.451953
-7.150451 -84.076344 20.540875
-7.676395 -90.020966 13.163716
-8.19902 -88.826721 13.189419
-7.793723 -89.042297 14.150781
-4.728199 -94.302399 15.109289
-4.386009 -94.612137 16.171645
-3.953131 -95.620133 15.117707
-5.520734 -93.006188 15.124645
-4.728199 -94.302399 15.109289
-5.087856 -94.014183 14.070708
-6.991242 -91.253533 13.13588
-6.575743 -91.477257 14.105571
-6.295888 -92.494248 13.116373
-7.676395 -90.020966 13.163716
-6.991242 -91.253533 13.13588
0.112292 -105.899781 10.121516
0.492921 -107.40287 9.78696
-4.855247 -94.865021 38.074503
-4.645373 -93.912636 39.177626
-4.827562 -95.152382 39.354873
-4.810572 -94.530296 36.78293
-4.855247 -94.865021 38.074503
-4.992761 -95.770042 36.960178
-4.879552 -94.177971 35.49098
-4.810572 -94.530296 36.78293
-4.953017 -95.032715 34.363123
-4.884483 -93.775368 34.185497
-4.879552 -94.177971 35.49098
-5.511158 -99.740951 38.631456
-5.57149 -98.753517 39.770164
-5.732862 -99.936637 39.85438
-6.176096 -109.76995 33.330238
-7.110224 -109.42778 34.120541
-6.685099 -110.43032 32.664401
-5.760568 -108.912071 33.869507
-6.176096 -109.76995 33.330238
-5.335444 -109.914612 32.413367
-5.386456 -108.070373 34.327152
-5.760568 -108.912071 33.869507
-4.665744 -108.045074 33.288515
-5.132284 -107.058716 34.66303
-5.386456 -108.070373 34.327152
1.001663 -114.948746 7.642393
1.09411 -113.458046 8.138863
1.195086 -113.836769 9.243854
0.701398 -115.988663 5.936546
1.001663 -114.948746 7.642393
0.802373 -116.367386 7.041536
0.402699 -116.982231 4.273386
0.701398 -115.988663 5.936546
0.123694 -118.723877 4.669757
0.515783 -117.777825 6.457574
0.137368 -119.094399 5.791644
0.103551 -118.302666 3.584711
0.123694 -118.723877 4.669757
0.402699 -116.982231 4.273386
0.103551 -118.302666 3.584711
-7.437424 -123.704757 11.331779
-6.320502 -123.319748 12.070175
-7.76743 -124.479873 9.650245
-7.437424 -123.704757 11.331779
-8.604395 -123.993179 10.658767
-10.19147 -124.795066 8.370344
-9.821418 -124.126861 9.969707
-9.367902 -125.376663 7.279648
-10.19147 -124.795066 8.370344
-8.595567 -125.815682 6.187957
-8.162066 -125.207313 7.885542
-9.367902 -125.376663 7.279648
-7.896587 -126.195458 5.018787
-8.595567 -125.815682 6.187957
3 143 36 144
3 0 39 37
3 0 41 39
3 145 44 146
3 147 146 42
3 145 146 147
3 149 148 44
3 150 47 151
3 2 50 48
3 2 52 50
3 152 54 153
3 155 154 54
3 1 57 55
3 4 59 58
3 4 156 158
3 158 157 59
3 156 157 158
3 159 61 160
3 159 160 161
3 5 64 62
3 5 66 64
3 3 69 67
3 6 72 70
3 6 74 72
3 6 76 74
3 163 162 77
3 164 79 165
3 166 80 167
3 8 81 35
3 8 82 81
3 9 85 83
3 169 168 38
3 12 86 40
3 12 87 86
3 170 89 171
3 172 90 173
3 174 173 89
3 172 173 174
3 14 93 91
3 16 94 43
3 16 95 94
3 16 97 95
3 18 98 45
3 18 175 177
3 177 176 98
3 175 176 177
3 18 178 179
3 19 180 182
3 182 181 46
3 180 181 182
3 19 183 184
3 185 100 186
3 187 101 188
3 189 102 190
3 191 190 101
3 189 190 191
3 21 103 49
3 21 104 103
3 21 105 104
3 22 106 51
3 22 107 106
3 24 192 194
3 192 108 193
3 192 193 194
3 24 109 108
3 195 110 196
3 197 111 198
3 199 198 110
3 197 198 199
3 25 112 53
3 25 113 112
3 25 200 202
3 202 201 113
3 200 201 202
3 7 203 204
3 20 114 99
3 26 115 56
3 26 116 115
3 10 117 84
3 205 118 206
3 208 207 118
3 11 209 210
3 27 119 60
3 27 120 119
3 13 121 88
3 28 122 63
3 28 123 122
3 28 124 123
3 29 125 65
3 29 126 125
3 23 211 212
3 30 127 68
3 30 128 127
3 15 129 92
3 31 130 71
3 31 131 130
3 31 132 131
3 32 133 73
3 32 134 133
3 32 135 134
3 33 136 75
3 33 137 136
3 17 138 96
3 34 139 78
3 34 140 139
3 34 141 140
3 213 142 214
3 215 35 216
3 36 217 219
3 217 35 218
3 217 218 219
3 36 8 35
3 37 38 9
3 39 38 37
3 39 220 222
3 222 221 38
3 220 221 222
3 39 223 225
3 223 40 224
3 223 224 225
3 41 40 39
3 41 12 40
3 42 43 14
3 44 43 42
3 44 16 43
3 44 45 16
3 226 45 227
3 228 227 44
3 226 227 228
3 229 18 230
3 231 230 45
3 229 230 231
3 232 46 233
3 234 233 18
3 232 233 234
3 47 235 237
3 235 46 236
3 235 236 237
3 47 19 46
3 48 238 240
3 238 49 239
3 238 239 240
3 50 49 48
3 50 21 49
3 50 51 21
3 52 51 50
3 52 22 51
3 241 24 242
3 243 53 244
3 54 245 247
3 245 53 246
3 245 246 247
3 54 25 53
3 54 248 250
3 250 249 25
3 248 249 250
3 252 251 54
3 254 253 7
3 55 56 20
3 57 56 55
3 57 26 56
3 256 255 10
3 58 257 259
3 259 258 11
3 257 258 259
3 59 260 262
3 262 261 58
3 260 261 262
3 59 263 264
3 59 265 266
3 268 267 59
3 269 60 270
3 61 271 273
3 271 60 272
3 271 272 273
3 61 27 60
3 62 63 13
3 64 63 62
3 64 28 63
3 64 65 28
3 66 65 64
3 66 29 65
3 67 68 23
3 69 68 67
3 69 30 68
3 70 71 15
3 72 71 70
3 72 31 71
3 72 73 31
3 74 73 72
3 74 32 73
3 74 75 32
3 76 75 74
3 76 33 75
3 77 78 17
3 274 78 275
3 276 275 77
3 274 275 276
3 277 34 278
3 279 278 78
3 277 278 279
3 281 280 34
3 282 48 283
3 79 284 286
3 284 48 285
3 284 285 286
3 79 2 48
3 80 287 288
3 80 289 291
3 289 7 290
3 289 290 291
3 35 292 294
3 292 80 293
3 292 293 294
3 81 80 35
3 81 7 80
3 81 295 297
3 297 296 7
3 295 296 297
3 82 298 300
3 300 299 81
3 298 299 300
3 82 301 302
3 83 84 1
3 85 84 83
3 85 10 84
3 38 85 9
3 303 85 304
3 305 304 38
3 303 304 305
3 306 10 307
3 308 307 85
3 306 307 308
3 310 309 10
3 311 11 312
3 40 313 314
3 86 315 317
3 317 316 40
3 315 316 317
3 86 318 320
3 318 11 319
3 318 319 320
3 86 58 11
3 87 58 86
3 87 4 58
3 321 88 322
3 323 88 324
3 325 13 326
3 327 326 88
3 325 326 327
3 89 328 329
3 89 330 332
3 330 13 331
3 330 331 332
3 89 62 13
3 90 62 89
3 90 5 62
3 91 92 3
3 93 92 91
3 93 15 92
3 43 93 14
3 94 93 43
3 94 15 93
3 94 70 15
3 95 70 94
3 95 6 70
3 95 96 6
3 97 96 95
3 97 17 96
3 45 97 16
3 98 97 45
3 98 17 97
3 98 77 17
3 333 77 334
3 335 334 98
3 333 334 335
3 337 336 77
3 46 338 340
3 340 339 18
3 338 339 340
3 342 341 46
3 343 99 344
3 100 345 347
3 345 99 346
3 345 346 347
3 100 20 99
3 348 100 349
3 101 350 352
3 350 100 351
3 350 351 352
3 101 20 100
3 101 55 20
3 102 55 101
3 102 1 55
3 49 353 354
3 103 355 357
3 357 356 49
3 355 356 357
3 103 358 359
3 103 360 362
3 360 102 361
3 360 361 362
3 104 102 103
3 104 1 102
3 104 83 1
3 105 83 104
3 105 9 83
3 51 105 21
3 106 105 51
3 106 9 105
3 106 37 9
3 107 37 106
3 107 0 37
3 363 23 364
3 108 365 366
3 108 367 369
3 367 23 368
3 367 368 369
3 108 67 23
3 109 67 108
3 109 3 67
3 370 24 371
3 372 24 373
3 374 109 375
3 376 375 24
3 374 375 376
3 110 377 379
3 377 109 378
3 377 378 379
3 110 3 109
3 110 91 3
3 111 91 110
3 111 14 91
3 53 380 382
3 380 111 381
3 380 381 382
3 112 111 53
3 112 14 111
3 112 42 14
3 113 42 112
3 113 383 385
3 385 384 42
3 383 384 385
3 113 386 387
3 389 388 113
3 391 390 25
3 393 392 7
3 99 394 396
3 394 36 395
3 394 395 396
3 114 36 99
3 114 8 36
3 56 114 20
3 115 114 56
3 115 8 114
3 115 82 8
3 116 82 115
3 116 397 399
3 399 398 82
3 397 398 399
3 84 57 1
3 117 57 84
3 117 26 57
3 400 117 401
3 402 401 10
3 400 401 402
3 118 403 405
3 403 117 404
3 403 404 405
3 118 26 117
3 118 116 26
3 406 116 407
3 408 407 118
3 406 407 408
3 410 409 116
3 412 411 11
3 60 413 415
3 413 414 415
3 119 416 418
3 418 417 60
3 416 417 418
3 119 419 420
3 119 421 423
3 421 79 422
3 421 422 423
3 120 79 119
3 120 2 79
3 88 424 426
3 424 61 425
3 424 425 426
3 121 61 88
3 121 27 61
3 63 121 13
3 122 121 63
3 122 27 121
3 122 120 27
3 123 120 122
3 123 2 120
3 123 52 2
3 124 52 123
3 124 22 52
3 65 124 28
3 125 124 65
3 125 22 124
3 125 107 22
3 126 107 125
3 126 0 107
3 68 427 429
3 429 428 23
3 427 428 429
3 127 430 432
3 432 431 68
3 430 431 432
3 127 433 434
3 127 435 437
3 435 90 436
3 435 436 437
3 128 90 127
3 128 5 90
3 92 69 3
3 129 69 92
3 129 30 69
3 71 129 15
3 130 129 71
3 130 30 129
3 130 128 30
3 131 128 130
3 131 5 128
3 131 66 5
3 132 66 131
3 132 29 66
3 73 132 31
3 133 132 73
3 133 29 132
3 133 126 29
3 134 126 133
3 134 0 126
3 134 41 0
3 135 41 134
3 135 12 41
3 75 135 32
3 136 135 75
3 136 12 135
3 136 87 12
3 137 87 136
3 137 4 87
3 96 76 6
3 138 76 96
3 138 33 76
3 78 138 17
3 139 138 78
3 139 33 138
3 139 137 33
3 140 137 139
3 140 4 137
3 140 438 440
3 440 439 4
3 438 439 440
3 141 441 443
3 443 442 140
3 441 442 443
3 141 444 445
3 446 141 447
3 448 447 34
3 446 447 448
3 449 141 450
3 452 451 141
3 453 47 454
3 142 455 457
3 455 47 456
3 455 456 457
3 142 19 47
3 458 142 459
3 460 142 461
3 462 19 463
3 464 463 142
3 462 463 464
3 466 465 19
