ply
format ascii 1.0
element vertex 510
property float x
property float y
property float z
element face 510
property list uchar int vertex_index
end_header
-45.400036 -86.574341 31.810211
-52.526474 -69.792984 23.190603
-40.016655 -84.073975 48.984306
-45.876541 -92.557465 22.219387
-29.282623 -76.265884 51.632893
-43.506447 -88.177216 43.0163
-37.957424 -93.676849 42.487
-47.93259 -80.802078 39.245567
-47.384155 -77.660568 27.690174
-45.541981 -89.549271 27.168438
-46.476921 -87.842224 21.24468
-45.992783 -84.871994 25.703562
-44.640457 -87.874329 37.736927
-42.790749 -91.902908 38.659046
-44.380825 -91.080673 33.072521
-44.522537 -94.182297 27.81094
-49.452171 -73.531342 25.404667
-47.823647 -75.77594 21.795273
-50.127441 -71.548882 19.738094
-37.659943 -79.893646 49.350964
-34.170563 -80.515259 49.257622
-36.519485 -85.251129 48.541912
-46.984528 -90.869705 16.664846
-56.425537 -66.474396 21.163143
-53.431076 -67.65876 17.740812
-41.969482 -86.960114 46.952003
-38.756397 -89.100464 46.812317
-40.862144 -91.371826 43.439331
-46.100227 -83.662247 35.913288
-46.188248 -82.053932 29.899471
-47.614738 -79.480537 33.597424
-45.80864 -84.558624 41.485371
-46.545677 -80.252274 23.826097
-31.952684 -75.76078 50.268879
-35.576607 -90.22641 45.515491
-45.40501 -88.056366 29.539925
-45.800316 -87.208435 26.51063
-45.69368 -85.741776 28.758949
-45.060249 -87.309738 34.819191
-44.420307 -89.49173 35.49958
-44.956406 -88.840195 32.54937
-45.010227 -90.363983 30.138569
-50.867725 -71.60788 24.281042
-49.658806 -72.533554 22.558054
-51.144226 -70.585609 21.492596
-38.882671 -82.103943 49.317379
-37.082733 -82.603783 49.187782
-38.246681 -84.759613 48.856476
-45.939575 -94.07486 19.671549
-46.439247 -91.711929 19.425671
-46.652023 -85.496109 20.52387
-58.53944 -64.931549 20.251564
-56.879089 -65.32605 18.525343
-28.659777 -74.406494 53.380268
-42.788349 -87.779678 45.197884
-41.333878 -89.212784 45.425751
-42.227798 -89.853348 43.388741
-45.251148 -93.393921 25.022064
-45.287769 -94.907791 22.362566
-46.885273 -82.231979 37.683998
-46.819248 -81.558266 34.794991
-47.797455 -80.236382 36.477505
-47.961578 -81.111008 41.829571
-46.875908 -82.686752 40.429222
-46.00219 -84.235931 38.788052
-46.698944 -79.833138 28.815769
-46.298111 -81.1521 26.852566
-46.78532 -78.904083 25.804066
-48.448738 -74.882935 18.921604
-47.604462 -77.113083 19.893995
-33.467915 -75.481323 49.726082
-33.708439 -83.101776 48.641911
-32.577461 -80.642166 49.20163
-38.289448 -91.455414 44.906006
-37.148991 -89.810745 46.297565
-36.754951 -92.150116 44.157791
-45.724232 -91.049698 24.72221
-46.248547 -90.198303 21.828674
-46.013077 -88.696274 24.193996
-46.194977 -86.34584 23.494688
-46.361504 -84.006042 22.677969
-29.80932 -73.992004 52.293083
-44.12402 -88.188614 40.497433
-43.048302 -90.075623 40.996407
-43.78318 -89.930923 38.338394
-43.638889 -91.622131 35.930515
-43.62645 -93.262604 33.322769
-44.44305 -92.64241 30.497446
-45.135742 -91.880951 27.620611
-49.1609 -79.344391 40.605721
-49.014355 -78.918419 37.979088
-48.292953 -75.554016 26.546623
-47.485504 -76.707275 24.72739
-48.437904 -74.578369 23.640579
-48.842438 -73.624435 20.764593
-49.542267 -72.702591 17.943172
-34.643471 -77.857727 49.429268
-35.868954 -80.266663 49.315147
-35.351784 -82.939011 48.952541
-34.858685 -85.526947 48.069359
-37.745045 -95.759659 39.633163
-54.396492 -68.086182 22.146984
-52.872253 -68.740242 20.456623
-54.803345 -66.992737 19.463005
-41.046577 -85.714386 48.216984
-39.344307 -86.630981 48.168331
-40.372772 -88.133331 47.031799
-39.825584 -90.458252 45.332649
-39.428974 -92.668091 43.140331
-41.856956 -91.841171 41.188759
-40.558403 -93.422668 41.034348
-39.177452 -94.750565 40.513092
-45.611355 -85.108459 33.946144
-45.782757 -84.306335 30.910711
-46.144196 -82.911179 32.932899
-46.734764 -80.736496 31.824137
-47.452232 -78.601562 30.656368
-48.784996 -78.264343 35.209362
-48.539307 -77.44561 32.356178
-48.35025 -76.523987 29.459444
-49.46328 -74.521866 28.258459
-50.806549 -72.612228 27.075071
-52.377304 -70.807999 25.92807
-54.154602 -69.114204 24.833591
-41.801033 -83.225021 48.910557
-42.734352 -84.631851 48.010971
-43.523197 -85.632477 46.588596
-44.173782 -86.214752 44.679813
-45.488914 -84.562561 43.913853
-44.695091 -86.398422 42.36499
-45.097431 -86.229919 39.743164
-45.395126 -85.774826 36.910316
-45.961342 -83.435913 27.848604
-46.2118 -82.550018 24.796146
-46.603947 -81.682899 21.787189
-47.06654 -77.989929 22.819902
-46.999836 -79.382751 20.852875
-51.666115 -69.55928 18.726187
-50.878681 -70.582428 16.96636
-31.052813 -73.602646 51.279106
-30.564119 -76.016747 50.909882
-33.016716 -78.090179 49.639072
-31.509012 -78.252594 49.910843
-37.655235 -87.338974 47.86578
-36.006763 -87.80159 47.328552
-34.418724 -87.998917 46.595352
-35.24519 -92.509598 43.129345
-34.053825 -90.335526 44.519135
-46.942833 -85.080627 19.076579
-46.759401 -84.330101 20.119561
-58.780334 -64.321562 18.954528
-59.591114 -64.176506 19.837545
-28.678907 -76.398395 52.026224
-28.367484 -75.4687 52.899912
-28.9712 -75.336189 52.50658
-29.04 -77.359016 51.142708
-28.678907 -76.398395 52.026224
-48.444488 -75.579949 17.988529
-48.917124 -74.454594 17.526968
-34.290785 -75.324333 49.508674
-33.69836 -74.168091 49.664171
-32.933544 -83.101272 48.466734
-33.492812 -84.342514 48.061097
-30.097812 -72.828342 52.516783
-29.553959 -73.099502 53.193756
-49.763136 -78.454369 39.962529
-49.810762 -78.583587 41.19949
-49.810762 -78.583587 41.19949
-49.163963 -79.413746 41.80655
-36.764449 -80.080154 49.333056
-36.126408 -78.906425 49.293806
-37.021902 -78.719917 49.311714
-37.015953 -96.082519 39.03517
-37.675999 -96.737603 38.041801
-47.044465 -91.635223 15.502185
-46.759121 -92.054161 16.827472
-47.268993 -90.444939 15.312611
-47.044465 -91.635223 15.502185
-46.618576 -88.596718 20.105591
-46.504389 -89.774757 20.397588
-46.362734 -89.020263 21.536677
-56.129524 -65.583343 17.660609
-57.166462 -64.706543 17.216037
-40.476303 -94.391182 39.656216
-41.107163 -93.57875 39.842122
-39.785827 -95.05513 39.395588
-39.867928 -94.086616 40.77372
-40.476303 -94.391182 39.656216
-39.105995 -95.728676 39.024704
-39.785827 -95.05513 39.395588
-44.09762 -95.301338 27.75239
-44.093879 -94.520332 29.186972
-49.468796 -77.656242 35.939829
-48.899676 -78.591381 36.594225
-49.583476 -77.98328 37.324692
-49.085106 -76.458065 31.729069
-49.212038 -76.88821 33.135883
-48.990578 -75.997253 30.280701
-48.444778 -76.984799 30.907811
-49.085106 -76.458065 31.729069
-49.547092 -74.996193 29.680209
-48.906765 -75.522927 28.858951
-48.990578 -75.997253 30.280701
-51.598101 -72.189865 27.867173
-50.859226 -73.092407 28.468422
-52.383478 -71.28775 27.293672
-51.591926 -71.710114 26.50157
-51.598101 -72.189865 27.867173
-55.019142 -68.79137 25.638669
-54.105234 -69.589973 26.174059
-55.125912 -68.319218 24.319515
-55.019142 -68.79137 25.638669
-42.686486 -82.734535 48.772341
-42.190256 -81.955562 49.043852
-43.153145 -83.43795 48.322548
-42.267692 -83.928436 48.460764
-42.686486 -82.734535 48.772341
-44.271662 -84.913421 46.2801
-43.954071 -84.527595 47.076857
-44.596954 -85.204559 45.325708
-43.848489 -85.923614 45.634205
-44.271662 -84.913421 46.2801
-45.648777 -84.560592 42.699612
-46.116987 -83.70858 43.430766
-46.27685 -83.706611 42.216525
-47.357721 -78.967567 19.408719
-47.302149 -78.247917 20.373435
-47.660034 -77.832733 18.929279
-47.10087 -80.115798 19.853841
-47.357721 -78.967567 19.408719
-51.392336 -70.103607 15.615009
-51.659326 -69.556465 16.483868
-50.712128 -71.194321 16.082823
-51.392336 -70.103607 15.615009
-31.502749 -74.681713 50.773992
-31.736848 -73.414669 50.82576
-32.186784 -74.493736 50.320646
-31.298642 -79.458095 49.540148
-32.043236 -79.44738 49.556236
-31.832867 -80.652882 49.185541
-30.809815 -78.308098 50.079613
-31.298642 -79.458095 49.540148
-35.124382 -93.581612 41.690295
-35.860754 -93.427819 42.316839
-33.316249 -90.248353 43.951645
-33.910854 -91.435669 43.20542
-33.475447 -89.136544 45.121084
-33.316249 -90.248353 43.951645
-46.236644 -93.656739 18.330824
-45.903519 -94.840271 18.379303
-46.48648 -92.475273 18.207885
-46.236644 -93.656739 18.330824
-46.189411 -92.893394 19.54861
-46.711888 -91.290817 18.045259
-46.759121 -92.054161 16.827472
-46.48648 -92.475273 18.207885
-46.822544 -86.24839 19.436906
-46.734993 -87.421447 19.797311
-46.564472 -86.669167 20.884275
-46.822544 -86.24839 19.436906
-46.942833 -85.080627 19.076579
-57.950159 -64.518812 18.091417
-57.709265 -65.128799 19.388453
-58.780334 -64.321562 18.954528
-57.166462 -64.706543 17.216037
-57.950159 -64.518812 18.091417
-28.111034 -74.633644 53.943861
-28.469143 -73.599625 54.436468
-28.111034 -74.633644 53.943861
-28.367484 -75.4687 52.899912
-42.223335 -92.818871 38.654471
-42.740212 -92.779457 37.358351
-44.896515 -94.551186 25.032484
-44.53221 -94.945374 26.426922
-44.886843 -93.788109 26.416502
-44.914825 -95.308121 23.702735
-44.896515 -94.551186 25.032484
-45.269458 -94.150856 23.692315
-44.86207 -96.068634 22.290313
-44.914825 -95.308121 23.702735
-45.239565 -95.667809 21.01006
-44.86207 -96.068634 22.290313
-45.565467 -95.251343 19.664551
-45.239565 -95.667809 21.01006
-45.613672 -94.491326 21.017057
-45.903519 -94.840271 18.379303
-45.565467 -95.251343 19.664551
-47.353319 -81.982803 42.388625
-47.898786 -81.107399 42.983446
-46.810484 -82.770675 41.68845
-47.353319 -81.982803 42.388625
-47.418743 -81.89888 41.129396
-46.342274 -83.622688 40.957296
-46.27685 -83.706611 42.216525
-46.810484 -82.770675 41.68845
-48.022351 -76.695022 18.474725
-48.0266 -75.998009 19.407799
-48.444488 -75.579949 17.988529
-47.660034 -77.832733 18.929279
-48.022351 -76.695022 18.474725
-52.935524 -68.094631 16.871094
-53.814499 -67.104069 16.401321
-32.944399 -74.354007 50.049248
-33.69836 -74.168091 49.664171
-32.710299 -75.621051 49.99748
-32.186784 -74.493736 50.320646
-32.944399 -74.354007 50.049248
-32.368055 -81.871467 48.746594
-33.14295 -81.871971 48.921771
-32.933544 -83.101272 48.466734
-31.832867 -80.652882 49.185541
-32.368055 -81.871467 48.746594
-46.614142 -83.585067 21.19661
-46.759401 -84.330101 20.119561
-46.506763 -84.751075 21.600919
-28.979188 -73.306748 53.737348
-28.469143 -73.599625 54.436468
-29.234548 -74.199249 52.836675
-28.979188 -73.306748 53.737348
-29.553959 -73.099502 53.193756
-43.164282 -92.639069 35.994085
-42.740212 -92.779457 37.358351
-43.214819 -91.762519 37.294781
-43.158062 -93.459305 34.690212
-43.164282 -92.639069 35.994085
-43.632669 -92.442367 34.626642
-43.151162 -94.300979 33.286862
-43.158062 -93.459305 34.690212
-43.645836 -94.060486 31.942887
-43.151162 -94.300979 33.286862
-44.054136 -93.750389 30.530226
-43.645836 -94.060486 31.942887
-44.03475 -92.952507 31.910108
-44.482793 -93.412353 29.154193
-44.093879 -94.520332 29.186972
-44.054136 -93.750389 30.530226
-49.689864 -78.241383 38.649212
-49.087627 -79.131405 39.292405
-49.763136 -78.454369 39.962529
-49.583476 -77.98328 37.324692
-49.689864 -78.241383 38.649212
-48.564302 -80.297055 42.418475
-47.898786 -81.107399 42.983446
-48.561239 -80.227699 41.217646
-48.564302 -80.297055 42.418475
-49.163963 -79.413746 41.80655
-49.463888 -73.364422 17.037752
-48.917124 -74.454594 17.526968
-48.995503 -73.792763 18.432388
-35.513666 -77.701957 49.350866
-34.878563 -76.512535 49.360267
-35.256213 -79.062195 49.372208
-35.513666 -77.701957 49.350866
-36.126408 -78.906425 49.293806
-34.067934 -85.5551 47.774821
-33.492812 -84.342514 48.061097
-34.283562 -84.314362 48.355635
-37.110681 -95.052849 40.568748
-37.216871 -94.011444 41.995666
-37.851235 -94.718254 41.060082
-37.110681 -95.052849 40.568748
-37.015953 -96.082519 39.03517
-46.599739 -90.531571 19.196087
-46.343897 -90.955116 20.627173
-46.504389 -89.774757 20.397588
-46.872379 -90.110458 17.815675
-46.711888 -91.290817 18.045259
-46.599739 -90.531571 19.196087
-46.618576 -88.596718 20.105591
-46.734993 -87.421447 19.797311
-47.148046 -89.689354 16.413628
-46.872379 -90.110458 17.815675
-47.268993 -90.444939 15.312611
-47.148046 -89.689354 16.413628
-55.091652 -66.416687 18.12944
-55.841217 -66.159393 18.994174
-56.129524 -65.583343 17.660609
-54.405518 -66.749698 17.268343
-54.11721 -67.325749 18.601909
-55.091652 -66.416687 18.12944
-53.814499 -67.104069 16.401321
-54.405518 -66.749698 17.268343
-41.756439 -92.788002 39.919327
-42.323853 -91.872039 39.923902
-42.223335 -92.818871 38.654471
-41.207679 -92.63192 41.111553
-41.756439 -92.788002 39.919327
-41.107163 -93.57875 39.842122
-38.389792 -96.233223 38.584739
-38.461248 -95.255112 40.073127
-39.105995 -95.728676 39.024704
-37.675999 -96.737603 38.041801
-38.389792 -96.233223 38.584739
-44.09762 -95.301338 27.75239
-44.53221 -94.945374 26.426922
-49.334882 -77.297577 34.562475
-49.468796 -77.656242 35.939829
-48.662152 -77.854976 33.78277
-49.334882 -77.297577 34.562475
-49.212038 -76.88821 33.135883
-50.187591 -74.047226 29.060116
-49.547092 -74.996193 29.680209
-50.134914 -73.567047 27.666765
-50.187591 -74.047226 29.060116
-50.859226 -73.092407 28.468422
-53.216585 -70.43687 26.721298
-52.383478 -71.28775 27.293672
-53.265953 -69.961101 25.380831
-53.216585 -70.43687 26.721298
-54.105234 -69.589973 26.174059
-55.246856 -67.805206 22.976211
-54.275547 -68.600193 23.490288
-55.125912 -68.319218 24.319515
-56.261379 -66.999313 22.484291
-55.411015 -67.280289 21.655064
-55.246856 -67.805206 22.976211
-57.28315 -66.246185 22.009303
-56.261379 -66.999313 22.484291
-58.340101 -65.474762 21.553514
-57.482489 -65.702973 20.707353
-57.28315 -66.246185 22.009303
-59.368105 -64.747292 21.122539
-58.340101 -65.474762 21.553514
-59.591114 -64.176506 19.837545
-59.368105 -64.747292 21.122539
-37.939724 -78.523758 49.252566
-37.021902 -78.719917 49.311714
-38.590038 -79.648315 49.346577
-37.939724 -78.523758 49.252566
-39.201403 -80.753464 49.329785
-38.271307 -80.998795 49.334171
-38.590038 -79.648315 49.346577
-39.803783 -81.780766 49.317906
-39.201403 -80.753464 49.329785
-40.370775 -82.765782 49.151369
-39.449663 -83.088959 49.150842
-39.803783 -81.780766 49.317906
-41.262964 -82.341305 49.114494
-42.190256 -81.955562 49.043852
-40.908844 -83.649498 48.947431
-40.370775 -82.765782 49.151369
-41.262964 -82.341305 49.114494
-43.559649 -84.027282 47.788044
-43.153145 -83.43795 48.322548
-43.128775 -85.132164 47.299784
-43.559649 -84.027282 47.788044
-43.954071 -84.527595 47.076857
-45.972689 -83.620289 44.526968
-46.116987 -83.70858 43.430766
-45.25452 -84.378464 44.942728
-45.972689 -83.620289 44.526968
-44.831348 -85.388656 44.296833
-44.596954 -85.204559 45.325708
-45.25452 -84.378464 44.942728
-46.735363 -82.423496 20.751221
-46.614142 -83.585067 21.19661
-46.482726 -82.84447 22.232579
-46.902925 -81.265873 20.320998
-46.801891 -80.532825 21.320032
-47.10087 -80.115798 19.853841
-46.735363 -82.423496 20.751221
-46.902925 -81.265873 20.320998
-52.053044 -69.044891 17.363781
-52.548595 -68.60902 18.2335
-52.935524 -68.094631 16.871094
-51.272398 -70.070854 17.846274
-52.053044 -69.044891 17.363781
-51.659326 -69.556465 16.483868
-50.04392 -72.254402 16.571229
-50.210474 -71.642509 17.454766
-50.712128 -71.194321 16.082823
-49.463888 -73.364422 17.037752
-50.04392 -72.254402 16.571229
-31.317988 -72.381531 51.378441
-31.736848 -73.414669 50.82576
-30.719559 -72.633663 52.009794
-31.317988 -72.381531 51.378441
-30.431067 -73.797325 51.786095
-30.097812 -72.828342 52.516783
-30.719559 -72.633663 52.009794
-34.055693 -76.669525 49.577675
-34.290785 -75.324333 49.508674
-34.878563 -76.512535 49.360267
-30.337368 -77.190174 50.579133
-31.036566 -77.13467 50.410363
-30.809815 -78.308098 50.079613
-29.69662 -77.314743 50.940638
-29.923371 -76.141315 51.271388
-30.337368 -77.190174 50.579133
-29.04 -77.359016 51.142708
-29.69662 -77.314743 50.940638
-33.847954 -86.791085 47.037817
-34.067934 -85.5551 47.774821
-34.638705 -86.762932 47.332355
-36.615634 -93.248077 42.831062
-37.356188 -92.913483 43.322395
-37.216871 -94.011444 41.995666
-36.00007 -92.329857 43.643568
-36.615634 -93.248077 42.831062
-35.860754 -93.427819 42.316839
-34.506536 -92.522705 42.510525
-35.124382 -93.581612 41.690295
-34.649507 -91.422562 43.82424
-34.506536 -92.522705 42.510525
-33.910854 -91.435669 43.20542
-33.657896 -87.968239 46.159193
-34.236275 -89.167222 45.557243
-33.475447 -89.136544 45.121084
-33.847954 -86.791085 47.037817
-33.657896 -87.968239 46.159193
3 0 37 35
3 0 40 38
3 0 35 40
3 1 44 42
3 2 47 45
3 3 49 48
3 149 148 50
3 151 150 51
3 4 152 154
3 154 153 53
3 152 153 154
3 4 155 156
3 5 56 54
3 3 58 57
3 3 48 58
3 7 61 59
3 7 63 62
3 7 59 63
3 8 67 65
3 158 157 68
3 159 70 160
3 162 161 71
3 6 75 73
3 9 78 76
3 11 79 36
3 11 80 79
3 163 81 164
3 12 84 82
3 14 85 39
3 14 86 85
3 14 87 86
3 9 88 41
3 9 76 88
3 166 165 89
3 167 89 168
3 16 93 91
3 18 94 43
3 18 95 94
3 19 169 171
3 169 97 170
3 169 170 171
3 21 98 46
3 21 99 98
3 173 172 100
3 22 174 175
3 22 176 177
3 10 178 180
3 180 179 77
3 178 179 180
3 23 103 101
3 182 181 52
3 25 106 104
3 27 107 55
3 27 108 107
3 13 109 83
3 183 110 184
3 185 111 186
3 187 186 110
3 185 186 187
3 189 188 111
3 15 190 191
3 28 114 112
3 30 115 60
3 30 116 115
3 192 117 193
3 194 193 90
3 192 193 194
3 195 118 196
3 197 119 198
3 199 198 118
3 197 198 199
3 200 120 201
3 202 201 119
3 200 201 202
3 203 121 204
3 205 122 206
3 207 206 121
3 205 206 207
3 208 123 209
3 211 210 123
3 212 124 213
3 214 125 215
3 216 215 124
3 214 215 216
3 217 126 218
3 219 127 220
3 221 220 126
3 219 220 221
3 31 222 224
3 222 128 223
3 222 223 224
3 31 129 128
3 31 130 129
3 28 131 64
3 28 112 131
3 29 132 113
3 32 133 66
3 32 134 133
3 17 135 92
3 225 136 226
3 227 226 69
3 225 226 227
3 229 228 136
3 24 137 102
3 230 138 231
3 233 232 138
3 33 234 236
3 234 139 235
3 234 235 236
3 33 140 139
3 20 141 96
3 237 142 238
3 239 238 72
3 237 238 239
3 241 240 142
3 26 143 105
3 34 144 74
3 34 145 144
3 242 146 243
3 244 147 245
3 247 246 147
3 35 36 9
3 37 36 35
3 37 11 36
3 38 39 12
3 40 39 38
3 40 14 39
3 40 41 14
3 35 41 40
3 35 9 41
3 42 43 16
3 44 43 42
3 44 18 43
3 45 46 19
3 47 46 45
3 47 21 46
3 48 248 249
3 49 250 252
3 252 251 48
3 250 251 252
3 49 253 255
3 253 22 254
3 253 254 255
3 50 256 258
3 258 257 10
3 256 257 258
3 260 259 50
3 51 52 23
3 261 52 262
3 263 262 51
3 261 262 263
3 265 264 52
3 53 266 267
3 269 268 53
3 54 55 25
3 56 55 54
3 56 27 55
3 271 270 13
3 57 272 274
3 274 273 15
3 272 273 274
3 58 275 277
3 277 276 57
3 275 276 277
3 58 278 279
3 58 280 281
3 48 282 284
3 284 283 58
3 282 283 284
3 48 285 286
3 59 60 28
3 61 60 59
3 61 30 60
3 62 287 288
3 63 289 291
3 291 290 62
3 289 290 291
3 63 292 294
3 292 31 293
3 292 293 294
3 63 64 31
3 59 64 63
3 59 28 64
3 65 66 29
3 67 66 65
3 67 32 66
3 68 69 17
3 295 69 296
3 297 296 68
3 295 296 297
3 299 298 69
3 301 300 24
3 70 302 303
3 70 304 306
3 304 33 305
3 304 305 306
3 71 72 20
3 307 72 308
3 309 308 71
3 307 308 309
3 311 310 72
3 73 74 26
3 75 74 73
3 75 34 74
3 76 77 3
3 78 77 76
3 78 10 77
3 36 78 9
3 79 78 36
3 79 10 78
3 79 50 10
3 80 50 79
3 80 312 314
3 314 313 50
3 312 313 314
3 315 53 316
3 81 317 319
3 317 53 318
3 317 318 319
3 81 4 53
3 82 83 5
3 84 83 82
3 84 13 83
3 39 84 12
3 85 84 39
3 85 13 84
3 85 320 322
3 322 321 13
3 320 321 322
3 86 323 325
3 325 324 85
3 323 324 325
3 86 326 327
3 86 328 329
3 87 330 332
3 332 331 86
3 330 331 332
3 87 333 335
3 333 15 334
3 333 334 335
3 41 87 14
3 88 87 41
3 88 15 87
3 88 57 15
3 76 57 88
3 76 3 57
3 89 90 7
3 336 90 337
3 338 337 89
3 336 337 338
3 340 339 90
3 341 62 342
3 89 343 345
3 343 62 344
3 343 344 345
3 89 7 62
3 91 92 8
3 93 92 91
3 93 17 92
3 43 93 16
3 94 93 43
3 94 17 93
3 94 68 17
3 95 68 94
3 95 346 348
3 348 347 68
3 346 347 348
3 349 96 350
3 97 351 353
3 351 96 352
3 351 352 353
3 97 20 96
3 46 97 19
3 98 97 46
3 98 20 97
3 98 71 20
3 99 71 98
3 99 354 356
3 356 355 71
3 354 355 356
3 100 357 359
3 359 358 6
3 357 358 359
3 361 360 100
3 77 49 3
3 362 49 363
3 364 363 77
3 362 363 364
3 365 22 366
3 367 366 49
3 365 366 367
3 369 368 10
3 370 22 371
3 373 372 22
3 101 102 1
3 103 102 101
3 103 24 102
3 52 103 23
3 374 103 375
3 376 375 52
3 374 375 376
3 377 24 378
3 379 378 103
3 377 378 379
3 381 380 24
3 104 105 2
3 106 105 104
3 106 26 105
3 55 106 25
3 107 106 55
3 107 26 106
3 107 73 26
3 108 73 107
3 108 6 73
3 83 56 5
3 109 56 83
3 109 27 56
3 382 109 383
3 384 383 13
3 382 383 384
3 110 385 387
3 385 109 386
3 385 386 387
3 110 27 109
3 110 108 27
3 111 108 110
3 111 6 108
3 111 100 6
3 388 100 389
3 390 389 111
3 388 389 390
3 392 391 100
3 394 393 15
3 112 113 0
3 114 113 112
3 114 29 113
3 60 114 28
3 115 114 60
3 115 29 114
3 115 65 29
3 116 65 115
3 116 8 65
3 90 61 7
3 117 61 90
3 117 30 61
3 395 117 396
3 118 397 399
3 397 117 398
3 397 398 399
3 118 30 117
3 118 116 30
3 119 116 118
3 119 8 116
3 119 91 8
3 120 91 119
3 120 16 91
3 400 120 401
3 121 402 404
3 402 120 403
3 402 403 404
3 121 16 120
3 121 42 16
3 122 42 121
3 122 1 42
3 405 122 406
3 123 407 409
3 407 122 408
3 407 408 409
3 123 1 122
3 123 101 1
3 410 101 411
3 412 411 123
3 410 411 412
3 413 23 414
3 415 414 101
3 413 414 415
3 416 23 417
3 418 51 419
3 420 419 23
3 418 419 420
3 421 51 422
3 424 423 51
3 425 19 426
3 427 19 428
3 429 45 430
3 431 430 19
3 429 430 431
3 432 45 433
3 434 2 435
3 436 435 45
3 434 435 436
3 124 437 438
3 124 439 441
3 439 2 440
3 439 440 441
3 124 104 2
3 125 104 124
3 125 25 104
3 442 125 443
3 126 444 446
3 444 125 445
3 444 445 446
3 126 25 125
3 126 54 25
3 127 54 126
3 127 5 54
3 128 447 448
3 128 449 450
3 128 451 453
3 451 127 452
3 451 452 453
3 129 127 128
3 129 5 127
3 129 82 5
3 130 82 129
3 130 12 82
3 64 130 31
3 131 130 64
3 131 12 130
3 131 38 12
3 112 38 131
3 112 0 38
3 113 37 0
3 132 37 113
3 132 11 37
3 66 132 29
3 133 132 66
3 133 11 132
3 133 80 11
3 134 80 133
3 134 454 456
3 456 455 80
3 454 455 456
3 92 67 8
3 135 67 92
3 135 32 67
3 69 135 17
3 136 135 69
3 136 32 135
3 136 134 32
3 457 134 458
3 459 458 136
3 457 458 459
3 461 460 134
3 102 44 1
3 137 44 102
3 137 18 44
3 462 137 463
3 464 463 24
3 462 463 464
3 138 465 467
3 465 137 466
3 465 466 467
3 138 18 137
3 138 95 18
3 468 95 469
3 470 469 138
3 468 469 470
3 472 471 95
3 139 473 474
3 139 475 476
3 139 477 479
3 477 81 478
3 477 478 479
3 140 81 139
3 140 4 81
3 96 480 482
3 480 70 481
3 480 481 482
3 141 70 96
3 141 33 70
3 72 141 20
3 142 141 72
3 142 33 141
3 142 140 33
3 483 140 484
3 485 484 142
3 483 484 485
3 486 4 487
3 488 487 140
3 486 487 488
3 490 489 4
3 105 47 2
3 143 47 105
3 143 21 47
3 74 143 26
3 144 143 74
3 144 21 143
3 144 99 21
3 145 99 144
3 145 491 493
3 493 492 99
3 491 492 493
3 494 75 495
3 496 495 6
3 494 495 496
3 146 497 499
3 497 75 498
3 497 498 499
3 146 34 75
3 500 146 501
3 147 502 504
3 502 146 503
3 502 503 504
3 147 34 146
3 147 145 34
3 505 145 506
3 507 506 147
3 505 506 507
3 509 508 145
