ply
format ascii 1.0
element vertex 528
property float x
property float y
property float z
element face 588
property list uchar int vertex_index
end_header
-2.518732 -36.854034 85.174385
1.928841 -28.353233 65.833199
0.533854 -45.019615 78.97171
3.38047 -41.620026 68.261215
-1.385149 -32.798794 75.856186
0.329411 -39.221603 89.858299
0.579529 -47.316475 87.757957
-0.418556 -27.919472 88.782555
-2.245325 -22.722704 83.696625
4.965395 -31.416882 87.585426
5.43852 -49.703064 62.152931
6.019957 -38.019035 58.297752
-1.419146 -41.100468 82.19104
-0.618658 -39.319019 77.148117
-2.34025 -34.932823 80.813881
-1.673006 -38.345165 88.353355
-0.048866 -43.291653 89.421875
-1.300272 -42.494034 86.483322
0.05167 -46.411976 83.857628
2.739534 -23.841343 88.848022
0.710598 -20.960861 88.189117
5.538565 -26.174503 88.013237
1.855806 -29.979401 89.010323
2.645782 -35.345467 66.642044
4.985376 -39.847824 63.055847
4.387995 -33.289349 61.725357
5.478487 -31.161673 57.339058
-2.084654 -20.070324 79.662674
2.490606 -48.757187 75.711609
3.816372 -47.249786 70.375893
1.753569 -43.363972 73.650269
0.834612 -37.360783 71.857101
0.11776 -30.592783 70.763824
3.39744 -39.459644 89.596306
2.365828 -43.419659 90.572456
2.259863 -47.585098 90.074715
1.570154 -51.24876 85.108192
-2.23303 -32.360302 87.507278
-2.797518 -30.200508 84.264587
-1.758249 -25.41008 86.892784
8.727449 -32.242161 84.991203
5.534178 -35.755024 87.510277
2.014812 -35.22963 89.116127
-0.631191 -34.096256 89.204781
5.541294 -48.349174 57.483086
5.172564 -45.732811 65.051636
6.073835 -44.193687 60.022057
6.083179 -42.577122 55.615578
-2.518164 -27.850916 80.002472
-1.624052 -25.469837 75.257912
-0.268726 -23.097549 70.442749
-2.118055 -39.019958 83.734833
-1.970209 -38.135902 81.437569
-2.542715 -35.932758 83.104073
-2.236853 -37.667336 86.948128
-1.646086 -40.444641 87.532669
-2.019556 -39.798965 85.792397
-1.490644 -41.860363 84.468704
4.702679 -21.994547 88.468643
3.452881 -20.537983 88.533966
4.050091 -25.089888 88.619156
2.27253 -31.937986 66.130173
3.559628 -34.324211 64.133041
3.192137 -30.854053 63.703255
4.021627 -29.754566 61.384621
2.832621 -27.215454 63.490662
1.570671 -46.89933 77.344696
2.175428 -46.119659 74.687386
1.070763 -44.211399 76.338226
-1.067102 -36.166679 76.416275
0.043213 -38.351799 74.50959
-0.37499 -35.128204 73.813545
0.437153 -34.073975 71.21064
-0.689178 -31.700279 73.304832
1.743849 -39.41362 89.932739
2.747295 -41.407906 90.255859
1.236917 -41.408066 90.251717
0.174103 -45.315269 88.732544
1.055355 -45.482201 89.85891
1.275251 -47.533016 89.145103
2.408415 -49.704136 89.279755
1.598173 -49.578018 88.123085
1.936117 -51.611496 86.835953
1.076515 -49.293091 86.536133
0.181921 -45.76292 81.499596
0.862574 -48.297455 82.356346
1.119276 -47.634338 79.919403
1.975117 -49.481388 78.295975
-1.51185 -30.11149 88.294525
-2.109541 -28.986881 87.188698
-1.204657 -26.704411 88.02861
-0.003916 -19.40624 87.352951
6.776217 -31.898872 86.38961
7.005733 -33.981144 86.258255
5.092426 -33.707691 87.462578
3.679726 -35.561081 88.466164
3.343334 -33.297142 88.415733
0.604519 -29.020462 89.114891
0.442701 -32.00753 89.228249
-0.660688 -31.127787 88.984512
-1.567553 -33.295578 88.574806
5.588375 -49.031006 59.747063
3.661053 -44.505241 69.28907
4.520149 -46.491245 67.695763
4.435835 -43.690147 66.613441
5.609753 -38.943581 60.601807
5.734022 -42.040482 61.471085
6.122597 -41.19294 59.080956
6.20978 -43.397915 57.720779
6.258703 -40.321823 56.867203
6.156466 -37.069767 56.183403
-2.608782 -26.54401 83.951752
-2.74774 -29.036705 82.225349
-2.564554 -25.285385 81.952271
-2.028101 -22.787018 77.512863
-1.573378 -21.558311 75.183624
-0.996155 -24.283638 72.839493
-0.501385 -43.094978 80.592255
-0.067806 -42.261711 78.019882
-1.117239 -40.243649 79.727722
-1.609007 -37.176064 78.975868
-1.944334 -33.881065 78.376663
-0.815891 -38.866585 89.333305
-0.013865 -41.255096 89.799248
-0.978958 -40.934246 88.885498
-0.823709 -42.976532 88.15696
-0.410807 -44.978931 87.173195
0.175877 -46.937836 85.97049
-0.70409 -44.482162 85.244743
-0.724707 -43.845081 83.024658
1.013977 -25.820862 88.9627
0.053459 -24.515331 88.534798
1.623762 -22.453171 88.698212
2.389654 -18.957211 88.276443
5.130508 -28.895035 87.809486
3.317192 -30.779594 88.484459
3.569704 -28.031254 88.589897
2.190678 -27.001751 88.982491
3.026581 -38.57135 67.361961
4.218014 -40.738014 65.620598
3.912252 -37.618752 64.779419
4.719353 -36.655067 62.2873
5.371698 -35.674786 59.918755
5.795219 -34.673012 57.710602
5.052738 -32.236256 59.449631
-2.233183 -21.384396 81.755653
3.121357 -48.007835 73.058914
2.888775 -45.316986 71.990646
2.539742 -42.496468 70.947357
0.540657 -41.373436 75.368134
1.28738 -40.453133 72.684631
2.132023 -39.516483 70.006065
1.717724 -36.357262 69.225273
1.334627 -33.010345 68.640633
1.004625 -29.477825 68.264893
4.48147 -41.281998 89.858994
3.953123 -43.268112 90.465103
3.645273 -45.340858 90.690918
1.020853 -43.435642 90.231918
2.221357 -45.48436 90.513428
3.513821 -47.484035 90.518761
-2.566786 -34.62236 86.451233
-2.776079 -33.648945 84.664864
-2.635836 -31.318253 86.049118
-2.467081 -27.786915 85.719727
-2.09651 -24.072323 85.428917
-0.688 -23.120964 87.726608
-1.220194 -21.677006 86.580597
-1.563547 -20.220119 85.145798
9.059195 -34.140961 84.903252
7.548897 -35.836792 86.345467
2.558781 -37.46294 89.316086
1.005121 -37.208076 89.616859
1.784714 -32.732613 89.026855
0.569067 -34.743301 89.379608
-0.302263 -36.795105 89.493217
-1.339396 -36.219048 88.91526
-2.093653 -35.488167 87.888474
5.019835 -48.451725 66.155403
5.14954 -42.870476 63.995468
5.71076 -44.969509 62.480057
5.849798 -47.026375 61.067451
5.989428 -46.298615 58.699409
5.89801 -45.551071 56.503319
5.929108 -33.646965 55.698738
-2.749285 -32.597755 82.602142
-2.518896 -31.496574 80.33786
-2.116167 -30.367664 77.941696
-2.363405 -24.029873 79.786255
-2.136602 -26.659311 77.661148
-1.56735 -29.225916 75.474205
-0.893875 -28.078827 72.985214
-0.116625 -26.927849 70.514069
0.737217 -25.770618 68.090828
1.627377 -24.603373 65.738686
2.497108 -23.422962 63.476822
5.090917 -20.38581 88.271916
5.772424 -21.139029 88.166275
5.772424 -21.139029 88.166275
5.415536 -22.643857 88.266887
5.870806 -31.657877 86.987518
6.813192 -30.745126 86.542465
5.90778 -30.504131 87.140373
5.22603 -50.656328 61.477101
5.142482 -50.973282 62.681095
5.513447 -49.367035 60.949997
5.300957 -50.320299 60.274166
5.22603 -50.656328 61.477101
-1.504402 -19.539849 75.202587
-1.694746 -20.171074 76.32653
-1.291104 -20.949112 74.0125
-1.504402 -19.539849 75.202587
3.339764 -18.040116 88.143253
2.921267 -19.747597 88.405204
3.871377 -18.830503 88.272015
2.832626 -17.160626 87.98317
3.339764 -18.040116 88.143253
6.36101 -26.629358 87.535469
6.625046 -25.29383 87.669407
5.334537 -27.534769 87.911361
6.156982 -27.989624 87.433594
6.36101 -26.629358 87.535469
4.351884 -29.19544 60.293098
3.832963 -27.908021 61.321824
2.805982 -48.382511 74.385261
3.154968 -49.306624 73.561913
2.839592 -49.6813 74.88826
3.939455 -40.370821 89.72765
4.867789 -40.334855 89.388939
4.325774 -39.423677 89.257595
2.877893 -48.629646 90.017521
3.504872 -48.579115 90.239544
2.886842 -47.534566 90.296738
2.963675 -50.795809 89.164955
2.497479 -50.76531 88.724403
1.88929 -52.439963 85.218753
2.072271 -52.62133 86.082634
1.753135 -51.430128 85.972072
1.77248 -52.218908 84.310012
1.88929 -52.439963 85.218753
0.444848 -47.635691 84.222637
0.506951 -47.898621 85.279068
0.113773 -46.674906 84.914059
1.168628 -49.526497 82.707657
1.242325 -49.227154 81.560574
2.569746 -50.037934 76.171307
2.312002 -50.400034 77.46349
2.232862 -49.119287 77.003792
2.839592 -49.6813 74.88826
2.569746 -50.037934 76.171307
-0.877609 -19.75406 86.4039
-0.612055 -20.541623 86.966774
-0.26947 -18.618677 86.790077
-1.049285 -19.025616 85.6865
-1.391871 -20.948563 85.863197
-0.877609 -19.75406 86.4039
-1.234574 -18.245586 84.998047
-1.049285 -19.025616 85.6865
9.704896 -31.384059 84.391452
8.717224 -31.185793 85.158405
9.763647 -32.355416 84.23975
9.704896 -31.384059 84.391452
8.893322 -33.191561 84.947227
9.92952 -33.304816 84.195774
9.763647 -32.355416 84.23975
5.90601 -36.666662 87.613781
6.913369 -36.707546 87.031376
6.541538 -35.795908 86.927872
4.930874 -36.666167 88.082116
5.90601 -36.666662 87.613781
5.197013 -49.349838 56.911507
5.280082 -49.665401 57.991982
5.41352 -48.000057 56.438118
5.197013 -49.349838 56.911507
4.123435 -48.207285 69.583916
3.808652 -48.566765 70.907917
5.34186 -46.737065 64.309349
5.265496 -48.096522 64.861232
5.096199 -47.092268 65.60352
5.82308 -43.678437 55.062618
5.730495 -45.165411 55.506489
5.990595 -44.064097 56.059449
5.882404 -42.153338 54.674499
5.82308 -43.678437 55.062618
1.501281 -22.655572 65.778408
1.080955 -23.255135 66.917068
1.936146 -22.065366 64.647476
2.062242 -24.013168 64.607754
1.501281 -22.655572 65.778408
4.466018 -19.657528 88.304577
4.07778 -21.266265 88.501305
5.090917 -20.38581 88.271916
3.871377 -18.830503 88.272015
4.466018 -19.657528 88.304577
5.833479 -24.733835 88.039185
6.625046 -25.29383 87.669407
5.089242 -24.191527 88.342144
4.794328 -25.632196 88.316197
5.833479 -24.733835 88.039185
4.376385 -23.542217 88.5439
5.089242 -24.191527 88.342144
5.415536 -22.643857 88.266887
3.23846 -26.638465 62.374844
3.832963 -27.908021 61.321824
3.427124 -28.48501 62.437641
2.092358 -50.702252 88.146068
2.497479 -50.76531 88.724403
2.003294 -49.641077 88.70142
1.767145 -50.594757 87.479519
2.261329 -51.718991 87.502502
2.092358 -50.702252 88.146068
1.370676 -48.895595 80.342102
1.242325 -49.227154 81.560574
0.990925 -47.965896 81.137875
1.547197 -48.557863 79.107689
1.798596 -49.81912 79.530388
1.370676 -48.895595 80.342102
0.754367 -18.350744 87.536965
0.353341 -20.183551 87.771034
1.111624 -19.128055 87.955048
0.403062 -17.50223 87.123909
0.754367 -18.350744 87.536965
-0.26947 -18.618677 86.790077
0.403062 -17.50223 87.123909
7.741608 -31.014149 85.857608
6.813192 -30.745126 86.542465
7.751833 -32.070517 85.690406
8.717224 -31.185793 85.158405
7.741608 -31.014149 85.857608
5.303623 -50.006317 59.12397
5.300957 -50.320299 60.274166
5.564834 -48.69009 58.615074
5.280082 -49.665401 57.991982
5.303623 -50.006317 59.12397
6.181857 -39.872867 55.866844
6.094095 -41.000517 55.241032
6.170941 -41.449472 56.241391
6.130738 -38.24684 55.524945
6.181857 -39.872867 55.866844
6.207584 -38.695795 56.525303
6.069038 -36.581938 55.237313
6.130738 -38.24684 55.524945
5.541533 -30.613031 56.381771
5.288381 -29.32976 57.26083
-1.922108 -20.785428 77.49115
-2.056377 -21.428671 78.587768
-1.950384 -19.427081 78.566056
-1.800739 -22.172664 76.348243
-1.922108 -20.785428 77.49115
-1.694746 -20.171074 76.32653
-1.002493 -22.311776 72.840435
-1.284766 -22.920974 74.011559
-1.291104 -20.949112 74.0125
-0.638779 -21.718732 71.642063
-0.63244 -23.690593 71.641121
-1.002493 -22.311776 72.840435
1.951152 -18.12623 87.998711
1.111624 -19.128055 87.955048
1.550126 -19.959036 88.23278
1.951152 -18.12623 87.998711
2.832626 -17.160626 87.98317
5.990337 -29.243207 87.252403
6.156982 -27.989624 87.433594
5.047951 -30.155959 87.697456
5.90778 -30.504131 87.140373
5.990337 -29.243207 87.252403
5.278979 -50.038399 63.406937
5.142482 -50.973282 62.681095
4.86744 -30.436285 59.325603
4.537183 -30.995411 60.417126
4.351884 -29.19544 60.293098
5.080315 -29.898993 58.270317
5.265612 -31.698964 58.394345
4.86744 -30.436285 59.325603
5.288381 -29.32976 57.26083
5.080315 -29.898993 58.270317
-1.988694 -20.081824 82.614116
-2.239254 -22.05355 82.726139
-1.994765 -20.750979 83.584602
-2.010296 -19.37851 81.682873
-1.988694 -20.081824 82.614116
-1.936031 -18.721474 80.636383
-2.158918 -20.72736 80.709163
-2.010296 -19.37851 81.682873
-1.898142 -18.038873 79.633884
-1.936031 -18.721474 80.636383
-1.950384 -19.427081 78.566056
-1.898142 -18.038873 79.633884
3.461145 -48.945789 72.249427
3.154968 -49.306624 73.561913
3.468865 -47.628811 71.717404
3.808652 -48.566765 70.907917
3.461145 -48.945789 72.249427
5.440265 -41.173935 89.497399
4.867789 -40.334855 89.388939
5.111714 -42.148751 89.911987
5.440265 -41.173935 89.497399
4.847541 -43.141807 90.215042
5.111714 -42.148751 89.911987
4.217296 -42.275055 90.162048
4.620811 -44.17546 90.444359
4.847541 -43.141807 90.215042
4.466886 -45.211833 90.557266
4.620811 -44.17546 90.444359
3.799198 -44.304485 90.578011
4.324463 -46.297512 90.58812
4.466886 -45.211833 90.557266
4.258737 -47.369101 90.502041
4.324463 -46.297512 90.58812
3.579547 -46.412447 90.604839
4.173873 -48.493921 90.335503
4.258737 -47.369101 90.502041
4.173873 -48.493921 90.335503
3.504872 -48.579115 90.239544
2.952168 -49.689165 89.620041
2.877893 -48.629646 90.017521
2.334139 -48.644617 89.677235
2.952168 -49.689165 89.620041
2.963675 -50.795809 89.164955
2.327434 -52.776094 86.813702
2.261329 -51.718991 87.502502
2.327434 -52.776094 86.813702
2.072271 -52.62133 86.082634
0.957271 -49.076248 85.56189
0.626196 -48.115463 86.253311
0.506951 -47.898621 85.279068
1.20409 -50.054083 84.847919
1.323335 -50.270925 85.822163
0.957271 -49.076248 85.56189
0.8503 -48.57843 83.471996
0.444848 -47.635691 84.222637
0.457122 -47.354715 83.106987
0.8503 -48.57843 83.471996
1.168628 -49.526497 82.707657
1.522418 -51.00215 84.08358
1.20409 -50.054083 84.847919
1.77248 -52.218908 84.310012
1.522418 -51.00215 84.08358
2.104893 -50.742945 78.696309
1.798596 -49.81912 79.530388
2.104893 -50.742945 78.696309
2.312002 -50.400034 77.46349
-1.653876 -19.499686 84.309189
-1.994765 -20.750979 83.584602
-1.904436 -21.471412 84.421211
-1.653876 -19.499686 84.309189
-1.234574 -18.245586 84.998047
10.145367 -34.177038 84.198182
9.92952 -33.304816 84.195774
9.378101 -34.988095 84.98687
10.145367 -34.177038 84.198182
8.622951 -35.83601 85.707977
9.378101 -34.988095 84.98687
8.304046 -34.988877 85.624359
7.96294 -36.667279 86.474255
8.622951 -35.83601 85.707977
7.96294 -36.667279 86.474255
6.913369 -36.707546 87.031376
3.862505 -38.518476 89.12513
4.325774 -39.423677 89.257595
4.003648 -36.569195 88.560059
4.930874 -36.666167 88.082116
4.606952 -35.658052 87.988221
3.443175 -37.520125 88.98502
4.003648 -36.569195 88.560059
3.119254 -36.512011 88.891125
2.978111 -38.461292 89.456196
3.862505 -38.518476 89.12513
3.443175 -37.520125 88.98502
4.475324 -47.828014 68.243851
4.123435 -48.207285 69.583916
4.16826 -46.870515 69.035828
4.725167 -48.808254 67.473671
4.475324 -47.828014 68.243851
4.769992 -47.471485 66.925583
4.845691 -49.751389 66.692654
4.725167 -48.808254 67.473671
5.069636 -49.412729 65.408173
4.845691 -49.751389 66.692654
5.069636 -49.412729 65.408173
5.265496 -48.096522 64.861232
5.474838 -48.722191 62.859997
5.278979 -50.038399 63.406937
5.610958 -46.355413 63.02356
5.34186 -46.737065 64.309349
5.441662 -45.35116 63.765847
5.680477 -47.383847 62.317256
5.610958 -46.355413 63.02356
5.780279 -45.997942 61.773754
5.644159 -48.364719 61.610191
5.474838 -48.722191 62.859997
5.680477 -47.383847 62.317256
5.591878 -46.601005 55.948234
5.41352 -48.000057 56.438118
5.719652 -46.950122 56.993202
5.591878 -46.601005 55.948234
5.730495 -45.165411 55.506489
5.882404 -42.153338 54.674499
6.094095 -41.000517 55.241032
5.955358 -34.870537 54.99498
6.069038 -36.581938 55.237313
6.042787 -35.358366 55.94107
5.766844 -31.855677 55.561611
5.703798 -32.404319 56.518898
5.541533 -30.613031 56.381771
5.832901 -33.121567 54.804428
5.766844 -31.855677 55.561611
5.955358 -34.870537 54.99498
5.832901 -33.121567 54.804428
-0.307199 -21.111722 70.48122
-0.638779 -21.718732 71.642063
0.132904 -22.502223 69.2691
-0.307199 -21.111722 70.48122
0.635875 -23.838757 68.09314
0.234245 -24.434083 69.266789
0.132904 -22.502223 69.2691
1.182297 -25.186996 66.914757
0.635875 -23.838757 68.09314
1.080955 -23.255135 66.917068
3.070704 -24.742219 62.367924
3.23846 -26.638465 62.374844
2.664865 -25.319208 63.483742
2.347141 -21.460659 63.551811
1.936146 -22.065366 64.647476
2.886148 -22.82547 62.400089
2.347141 -21.460659 63.551811
3.070704 -24.742219 62.367924
2.886148 -22.82547 62.400089
3 0 53 51
3 0 56 54
3 0 51 56
3 197 196 58
3 198 58 199
3 1 63 61
3 1 65 63
3 2 68 66
3 4 71 69
3 4 73 71
3 5 76 74
3 6 79 77
3 6 81 79
3 6 83 81
3 2 86 84
3 2 66 86
3 7 90 88
3 9 200 202
3 200 92 201
3 200 201 202
3 9 94 92
3 9 96 94
3 7 99 97
3 7 88 99
3 10 203 204
3 10 205 207
3 205 101 206
3 205 206 207
3 3 104 102
3 11 107 105
3 11 109 107
3 11 110 109
3 8 113 111
3 208 115 209
3 211 210 115
3 12 119 117
3 14 120 52
3 14 121 120
3 15 124 122
3 17 125 55
3 17 126 125
3 17 128 126
3 12 129 57
3 12 117 129
3 19 132 130
3 212 133 213
3 214 213 59
3 212 213 214
3 216 215 133
3 21 217 218
3 21 219 221
3 219 134 220
3 219 220 221
3 21 136 134
3 19 137 60
3 19 130 137
3 23 140 138
3 25 141 62
3 25 142 141
3 25 144 142
3 223 222 64
3 28 224 226
3 224 146 225
3 224 225 226
3 30 147 67
3 30 148 147
3 13 149 118
3 31 150 70
3 31 151 150
3 31 152 151
3 32 153 72
3 32 154 153
3 33 227 229
3 227 155 228
3 227 228 229
3 34 156 75
3 34 157 156
3 16 158 123
3 35 159 78
3 35 160 159
3 35 230 232
3 232 231 160
3 230 231 232
3 234 233 80
3 36 235 237
3 237 236 82
3 235 236 237
3 36 238 239
3 18 240 242
3 242 241 127
3 240 241 242
3 244 243 85
3 28 245 247
3 247 246 87
3 245 246 247
3 28 248 249
3 37 163 161
3 39 164 89
3 39 165 164
3 20 166 131
3 250 167 251
3 252 251 91
3 250 251 252
3 253 168 254
3 255 254 167
3 253 254 255
3 257 256 168
3 40 258 259
3 40 260 261
3 40 262 264
3 262 169 263
3 262 263 264
3 41 170 93
3 41 265 267
3 267 266 170
3 265 266 267
3 41 268 269
3 42 171 95
3 42 172 171
3 22 173 135
3 43 174 98
3 43 175 174
3 43 176 175
3 37 177 100
3 37 161 177
3 44 270 271
3 44 272 273
3 29 274 275
3 45 178 103
3 45 276 278
3 278 277 178
3 276 277 278
3 24 179 139
3 46 180 106
3 46 181 180
3 46 182 181
3 47 183 108
3 47 279 281
3 281 280 183
3 279 280 281
3 47 282 283
3 26 184 143
3 38 185 162
3 48 186 112
3 48 187 186
3 27 188 145
3 49 189 114
3 49 190 189
3 49 191 190
3 50 192 116
3 50 193 192
3 284 194 285
3 286 195 287
3 288 287 194
3 286 287 288
3 51 52 12
3 53 52 51
3 53 14 52
3 54 55 15
3 56 55 54
3 56 17 55
3 56 57 17
3 51 57 56
3 51 12 57
3 58 59 19
3 289 59 290
3 291 290 58
3 289 290 291
3 293 292 59
3 294 21 295
3 296 60 297
3 298 297 21
3 296 297 298
3 58 299 301
3 299 60 300
3 299 300 301
3 58 19 60
3 61 62 23
3 63 62 61
3 63 25 62
3 63 64 25
3 65 64 63
3 65 302 304
3 304 303 64
3 302 303 304
3 66 67 28
3 68 67 66
3 68 30 67
3 69 70 13
3 71 70 69
3 71 31 70
3 71 72 31
3 73 72 71
3 73 32 72
3 74 75 33
3 76 75 74
3 76 34 75
3 77 78 16
3 79 78 77
3 79 35 78
3 79 80 35
3 81 80 79
3 81 305 307
3 307 306 80
3 305 306 307
3 81 308 310
3 308 82 309
3 308 309 310
3 83 82 81
3 83 36 82
3 84 85 18
3 86 85 84
3 86 311 313
3 313 312 85
3 311 312 313
3 86 314 316
3 314 87 315
3 314 315 316
3 66 87 86
3 66 28 87
3 88 89 37
3 90 89 88
3 90 39 89
3 317 91 318
3 319 318 20
3 317 318 319
3 320 91 321
3 323 322 91
3 92 324 325
3 92 326 328
3 326 40 327
3 326 327 328
3 92 93 40
3 94 93 92
3 94 41 93
3 94 95 41
3 96 95 94
3 96 42 95
3 97 98 22
3 99 98 97
3 99 43 98
3 99 100 43
3 88 100 99
3 88 37 100
3 101 329 330
3 101 331 333
3 331 44 332
3 331 332 333
3 102 103 29
3 104 103 102
3 104 45 103
3 105 106 24
3 107 106 105
3 107 46 106
3 107 108 46
3 109 108 107
3 109 47 108
3 109 334 336
3 336 335 47
3 334 335 336
3 110 337 339
3 339 338 109
3 337 338 339
3 110 340 341
3 343 342 26
3 111 112 38
3 113 112 111
3 113 48 112
3 344 114 345
3 346 345 27
3 344 345 346
3 115 347 349
3 347 114 348
3 347 348 349
3 115 49 114
3 115 116 49
3 350 116 351
3 352 351 115
3 350 351 352
3 353 50 354
3 355 354 116
3 353 354 355
3 117 118 2
3 119 118 117
3 119 13 118
3 52 119 12
3 120 119 52
3 120 13 119
3 120 69 13
3 121 69 120
3 121 4 69
3 122 123 5
3 124 123 122
3 124 16 123
3 55 124 15
3 125 124 55
3 125 16 124
3 125 77 16
3 126 77 125
3 126 6 77
3 126 127 6
3 128 127 126
3 128 18 127
3 57 128 17
3 129 128 57
3 129 18 128
3 129 84 18
3 117 84 129
3 117 2 84
3 130 131 7
3 132 131 130
3 132 20 131
3 59 132 19
3 133 132 59
3 133 20 132
3 133 356 358
3 358 357 20
3 356 357 358
3 360 359 133
3 134 361 362
3 134 363 365
3 363 9 364
3 363 364 365
3 134 135 9
3 136 135 134
3 136 22 135
3 60 136 21
3 137 136 60
3 137 22 136
3 137 97 22
3 130 97 137
3 130 7 97
3 366 10 367
3 138 139 3
3 140 139 138
3 140 24 139
3 62 140 23
3 141 140 62
3 141 24 140
3 141 105 24
3 142 105 141
3 142 11 105
3 142 143 11
3 144 143 142
3 144 26 143
3 64 144 25
3 368 144 369
3 370 369 64
3 368 369 370
3 371 26 372
3 373 372 144
3 371 372 373
3 375 374 26
3 376 145 377
3 378 377 8
3 376 377 378
3 379 145 380
3 381 27 382
3 383 382 145
3 381 382 383
3 384 27 385
3 387 386 27
3 146 388 389
3 146 390 392
3 390 29 391
3 390 391 392
3 67 146 28
3 147 146 67
3 147 29 146
3 147 102 29
3 148 102 147
3 148 3 102
3 118 68 2
3 149 68 118
3 149 30 68
3 70 149 13
3 150 149 70
3 150 30 149
3 150 148 30
3 151 148 150
3 151 3 148
3 151 138 3
3 152 138 151
3 152 23 138
3 72 152 31
3 153 152 72
3 153 23 152
3 153 61 23
3 154 61 153
3 154 1 61
3 155 393 394
3 155 395 396
3 75 155 33
3 156 155 75
3 156 397 399
3 399 398 155
3 397 398 399
3 156 400 401
3 157 402 404
3 404 403 156
3 402 403 404
3 157 405 406
3 123 76 5
3 158 76 123
3 158 34 76
3 78 158 16
3 159 158 78
3 159 34 158
3 159 157 34
3 160 157 159
3 160 407 409
3 409 408 157
3 407 408 409
3 160 410 411
3 413 412 160
3 80 414 416
3 416 415 35
3 414 415 416
3 418 417 80
3 82 419 420
3 422 421 82
3 127 83 6
3 423 83 424
3 425 424 127
3 423 424 425
3 426 36 427
3 428 427 83
3 426 427 428
3 85 429 431
3 431 430 18
3 429 430 431
3 433 432 85
3 434 36 435
3 437 436 36
3 87 438 439
3 441 440 87
3 161 162 0
3 163 162 161
3 163 38 162
3 89 163 37
3 164 163 89
3 164 38 163
3 164 111 38
3 165 111 164
3 165 8 111
3 131 90 7
3 166 90 131
3 166 39 90
3 91 166 20
3 167 166 91
3 167 39 166
3 167 165 39
3 168 165 167
3 168 8 165
3 168 442 444
3 444 443 8
3 442 443 444
3 446 445 168
3 169 447 448
3 169 449 450
3 93 169 40
3 170 169 93
3 170 451 453
3 453 452 169
3 451 452 453
3 170 454 455
3 457 456 170
3 458 33 459
3 95 460 462
3 462 461 41
3 460 461 462
3 171 463 465
3 465 464 95
3 463 464 465
3 171 466 468
3 466 33 467
3 466 467 468
3 171 74 33
3 172 74 171
3 172 5 74
3 135 96 9
3 173 96 135
3 173 42 96
3 98 173 22
3 174 173 98
3 174 42 173
3 174 172 42
3 175 172 174
3 175 5 172
3 175 122 5
3 176 122 175
3 176 15 122
3 100 176 43
3 177 176 100
3 177 15 176
3 177 54 15
3 161 54 177
3 161 0 54
3 103 469 471
3 471 470 29
3 469 470 471
3 178 472 474
3 474 473 103
3 472 473 474
3 178 475 476
3 178 477 478
3 480 479 178
3 481 10 482
3 139 104 3
3 179 104 139
3 179 45 104
3 106 179 24
3 180 179 106
3 180 45 179
3 180 483 485
3 485 484 45
3 483 484 485
3 181 486 488
3 488 487 180
3 486 487 488
3 181 489 491
3 489 10 490
3 489 490 491
3 181 101 10
3 182 101 181
3 182 44 101
3 108 182 46
3 183 182 108
3 183 44 182
3 183 492 494
3 494 493 44
3 492 493 494
3 496 495 183
3 498 497 47
3 143 110 11
3 184 110 143
3 184 499 501
3 501 500 110
3 499 500 501
3 502 184 503
3 504 503 26
3 502 503 504
3 505 184 506
3 508 507 184
3 162 53 0
3 185 53 162
3 185 14 53
3 112 185 38
3 186 185 112
3 186 14 185
3 186 121 14
3 187 121 186
3 187 4 121
3 145 113 8
3 188 113 145
3 188 48 113
3 114 188 27
3 189 188 114
3 189 48 188
3 189 187 48
3 190 187 189
3 190 4 187
3 190 73 4
3 191 73 190
3 191 32 73
3 116 191 49
3 192 191 116
3 192 32 191
3 192 154 32
3 193 154 192
3 193 1 154
3 509 50 510
3 511 50 512
3 513 193 514
3 515 514 50
3 513 514 515
3 194 516 518
3 516 193 517
3 516 517 518
3 194 1 193
3 194 65 1
3 195 65 194
3 195 519 521
3 521 520 65
3 519 520 521
3 522 195 523
3 524 195 525
3 527 526 195
