ply
format ascii 1.0
element vertex 655
property float x
property float y
property float z
element face 695
property list uchar int vertex_index
end_header
-44.108215 7.119026 -56.67881
-48.552551 -19.99122 -48.145432
-55.546261 -48.833969 -35.993275
-61.124302 -71.402557 -15.592134
-62.551167 -48.075054 -33.13303
-60.754177 -33.761993 -41.249744
-53.77689 -34.384087 -42.585415
-55.949074 -19.200155 -49.091866
-54.461662 -4.440782 -51.686432
-46.923225 -6.148543 -55.575035
-39.785145 -9.118815 -52.490578
-62.763969 -61.039906 -24.499348
-55.633617 -62.564529 -28.156464
-45.519737 -35.388405 -40.111782
-61.947899 -25.780165 -42.775066
-58.885803 -26.436653 -45.227673
-59.246765 -18.644455 -46.99704
-49.395569 1.723694 -54.740509
-50.688221 -5.243153 -54.52195
-45.365147 0.546288 -57.066254
-59.194416 -48.616104 -35.007824
-59.436462 -55.506958 -30.879799
-55.735588 -55.8088 -32.174561
-51.841789 -63.070328 -29.403946
-51.869286 -56.133366 -32.957771
-51.591667 -49.122726 -36.217682
-51.683132 -27.017605 -45.442024
-49.697868 -34.712936 -41.538445
-47.688335 -27.493074 -43.838459
-43.805252 -28.423584 -42.05151
-44.770164 -20.881886 -46.095596
-40.011566 5.279408 -58.344131
-56.903885 -77.398956 -14.241854
-58.142891 -73.043076 -18.183308
-65.573318 -47.107933 -30.464642
-61.876205 -41.009869 -37.223728
-58.611336 -41.487835 -38.931076
-54.971722 -41.698032 -39.471813
-57.486267 -34.17865 -42.624947
-55.480385 -26.780914 -46.111626
-52.357719 -19.556219 -49.402977
-58.861206 -11.044159 -47.838993
-55.449242 -11.729048 -51.032478
-51.873466 -12.32662 -52.651421
-48.172646 -12.92383 -52.374901
-41.581894 -0.992674 -57.476151
-43.259758 -7.320132 -54.71875
-44.483948 -13.864915 -50.607262
-62.207565 -66.588379 -20.007538
-58.930531 -67.907143 -22.325527
-62.86396 -54.816353 -28.905182
-59.356384 -62.009865 -26.611012
-50.928139 -41.996025 -39.061478
-62.227036 -21.806192 -43.265285
-60.729713 -22.195446 -44.891438
-60.808609 -18.283867 -45.412994
-47.357483 1.177885 -56.121933
-44.663071 3.869518 -57.101601
-57.407654 -48.744308 -35.607712
-57.547058 -52.24287 -33.632854
-55.680145 -52.341297 -34.119442
-53.821617 -55.937328 -32.621529
-53.755718 -52.453098 -34.447289
-51.771389 -52.636692 -34.635296
-53.607971 -48.942238 -36.187519
-50.246964 -23.428169 -46.812263
-49.691849 -27.205971 -44.705845
-48.288452 -23.68681 -45.946701
-46.3451 -24.069004 -44.972786
-46.642258 -20.35981 -47.164421
-58.209698 -76.442146 -12.839762
-59.035027 -74.429932 -14.88414
-57.588253 -75.314026 -16.191601
-59.703438 -72.241104 -16.961853
-61.38575 -37.40242 -39.2421
-60.283035 -41.298248 -38.221371
-59.805737 -37.674152 -40.187428
-58.13689 -37.852982 -40.806309
-59.169823 -34.013508 -42.119335
-57.563541 -22.792486 -47.182373
-57.234978 -26.64143 -45.88171
-55.859795 -22.981903 -47.705406
-54.062893 -23.123137 -47.784992
-54.190369 -19.391045 -49.474899
-53.941578 -0.91128 -51.50515
-56.767338 -7.701441 -49.837395
-57.177902 -11.390236 -49.589722
-54.983929 -8.055757 -51.526512
-48.798893 -5.679354 -55.296028
-51.332176 -8.772832 -53.785789
-49.480591 -9.129794 -54.21714
-50.032494 -12.607899 -52.741302
-47.624359 -9.514548 -54.157669
-38.146286 4.127056 -58.433998
-40.746681 2.154549 -58.157936
-38.938175 1.09948 -57.938133
-38.977722 -6.065244 -54.415077
-40.679691 -5.011683 -55.529137
-41.49472 -8.117159 -53.72538
-43.9613 -10.547112 -52.778183
-42.18787 -11.298564 -51.6493
-42.699253 -14.590019 -49.42495
-62.545212 -63.90451 -22.253593
-60.633919 -67.293304 -21.247421
-60.927292 -64.531143 -23.44009
-64.113373 -47.635124 -31.882534
-64.319191 -51.019459 -29.788776
-62.7551 -51.497841 -31.041149
-57.600967 -59.054783 -29.53035
-59.438816 -58.8204 -28.756992
-57.5168 -62.322617 -27.436813
-57.358856 -65.457703 -25.342621
-53.597275 -66.115463 -26.869591
-47.603073 -53.368011 -34.626476
-45.136673 -50.339893 -35.534389
-54.47049 -38.061256 -41.069733
-52.995674 -41.813408 -39.360233
-52.47575 -38.181641 -40.794598
-47.599281 -35.004456 -40.838531
-48.268661 -38.645279 -39.762794
-42.035294 -39.918503 -37.822285
-43.509125 -35.844093 -39.39452
-42.642166 -25.258623 -43.034222
-62.379295 -70.550125 -14.078815
-61.462959 -29.782089 -42.109268
-59.936562 -30.101109 -43.246548
-60.448685 -26.148155 -44.171329
-59.18071 -22.53112 -46.225918
-57.631149 -18.954325 -48.250664
-51.449738 2.16889 -52.996323
-51.986748 -1.287546 -53.33577
-52.580605 -4.827974 -53.29364
-50.018478 -1.73741 -54.840424
-48.065216 -2.241865 -55.935158
-46.144146 -2.798567 -56.55619
-37.337982 -7.345608 -53.073364
-64.402054 -57.415466 -25.436234
-60.908936 -48.401947 -34.181652
-61.093872 -51.858028 -32.10397
-59.35397 -52.097824 -32.966389
-57.610741 -55.68581 -31.601833
-55.719139 -59.224464 -30.179157
-53.736885 -62.792976 -28.805786
-53.813766 -59.390106 -30.732388
-51.891579 -59.615189 -31.205498
-49.943298 -59.952404 -31.593288
-49.869194 -56.445862 -33.184135
-49.721592 -52.935581 -34.69458
-49.499176 -49.412773 -36.108566
-52.856117 -30.689104 -44.036793
-51.77005 -34.513279 -42.147884
-50.849144 -30.83778 -43.444073
-48.801743 -31.06735 -42.697952
-46.755772 -31.398552 -41.887352
-44.755566 -31.831545 -41.078201
-45.713089 -27.899298 -42.932152
-44.452431 -24.594147 -43.981968
-42.964691 -21.574583 -45.025536
-42.003357 6.276785 -57.75103
-35.708679 5.689381 -58.327568
-54.040558 -82.232468 -11.884289
-56.080727 -79.317551 -12.311308
-54.817009 -80.375046 -13.708483
-55.47686 -78.36676 -15.528709
-56.022202 -76.181183 -17.377365
-56.468887 -73.800034 -19.279011
-65.278305 -43.664085 -32.507996
-63.808147 -44.160187 -33.938015
-62.258949 -44.572403 -35.190235
-60.642063 -44.877285 -36.220016
-58.95293 -45.076893 -36.997589
-57.181263 -45.198429 -37.513611
-55.318748 -45.287857 -37.780186
-56.84407 -41.606255 -39.342186
-56.360458 -37.967506 -41.091591
-55.688187 -34.287754 -42.767319
-58.327759 -30.328979 -44.017784
-56.613678 -30.479191 -44.391743
-54.786327 -30.584595 -44.380386
-53.623383 -26.891144 -45.942581
-52.183365 -23.255947 -47.460331
-50.468826 -19.739443 -48.92907
-59.125786 -14.806419 -47.53545
-57.484421 -15.147505 -49.058182
-55.792717 -15.446543 -50.213882
-53.1688 -8.417177 -52.87101
-53.680946 -12.040842 -52.074814
-54.04422 -15.697612 -50.92765
-52.23735 -15.916315 -51.165459
-50.382317 -16.137142 -50.944313
-48.500641 -16.407707 -50.32975
-42.657089 3.072773 -57.87883
-43.436512 -0.1717 -57.522316
-44.267185 -3.422812 -56.676125
-39.80558 -1.947161 -56.957359
-42.443657 -4.146174 -56.313293
-45.072781 -6.680757 -55.364929
-45.778774 -9.969706 -53.650055
-46.315353 -13.32501 -51.628304
-46.6203 -16.78072 -49.422516
-44.769661 -17.304596 -48.337414
-42.973614 -18.013918 -47.180149
-61.73996 -69.087494 -17.782539
-60.230339 -69.863892 -19.083519
-58.585205 -70.574875 -20.228634
-64.417709 -54.287403 -27.641644
-62.86898 -58.004768 -26.722214
-61.194916 -55.224838 -29.985394
-61.204731 -58.476665 -27.828053
-61.116699 -61.58662 -25.640789
-59.18697 -65.046776 -24.459953
-51.725826 -66.472252 -27.581318
-53.362755 -45.398865 -37.826878
-51.317375 -45.579865 -37.693104
-49.194275 -45.862263 -37.41927
-50.397793 -38.368599 -40.335537
-47.01553 -46.252678 -37.038914
-42.844868 -32.344864 -40.305279
-62.27146 -19.856695 -43.431448
-62.948284 -21.605462 -42.35553
-61.562247 -18.095533 -44.505302
-61.517822 -20.045029 -44.33914
-62.27146 -19.856695 -43.431448
-45.203102 7.456583 -55.92884
-43.932935 8.661141 -56.251198
-45.428139 5.832647 -56.271473
-45.203102 7.456583 -55.92884
-44.385643 5.494272 -56.890206
-45.705567 4.207892 -56.482869
-45.428139 5.832647 -56.271473
-60.079664 -72.916245 -15.238137
-59.687687 -73.984196 -14.161331
-60.732325 -72.470508 -14.515328
-61.069964 -35.582206 -40.245922
-61.82544 -35.408619 -39.647774
-61.509653 -33.588405 -40.651596
-55.383295 -4.273429 -50.739174
-55.123253 -2.508678 -50.648533
-54.20162 -2.676031 -51.595791
-55.6145 -6.071111 -50.761914
-56.536133 -5.903759 -49.814656
-55.383295 -4.273429 -50.739174
-37.673437 1.953982 -57.985641
-38.542231 2.613268 -58.186065
-37.277493 3.46777 -58.233574
-40.128046 -10.692296 -51.431106
-41.329408 -11.78217 -51.010467
-40.986508 -10.20869 -52.069939
-62.65459 -62.472208 -23.37647
-63.406655 -62.145168 -22.717165
-63.516033 -60.712866 -23.840043
-55.55831 -64.180633 -27.144064
-56.499901 -64.059678 -26.784239
-56.575209 -62.443573 -27.796639
-54.615446 -64.339996 -27.513027
-54.540138 -65.956101 -26.500628
-55.55831 -64.180633 -27.144064
-46.513498 -53.644899 -34.525381
-47.471379 -51.596126 -35.25218
-46.238179 -50.082068 -35.706136
-45.280298 -52.13084 -34.979337
-45.824909 -37.200661 -39.62276
-46.864681 -37.008686 -39.986135
-46.559509 -35.19643 -40.475156
-44.776443 -37.419411 -39.297629
-45.824909 -37.200661 -39.62276
-44.514431 -35.616249 -39.753151
-43.771137 -37.647255 -38.938997
-44.776443 -37.419411 -39.297629
-41.791418 -25.64626 -42.59503
-41.94623 -23.844733 -43.520418
-62.905998 -70.130336 -13.265294
-61.928612 -71.604149 -12.971876
-62.440403 -27.581128 -41.723578
-62.673788 -25.570186 -41.950831
-61.705429 -27.781127 -42.442167
-62.197933 -29.58209 -41.390678
-62.440403 -27.581128 -41.723578
-50.422654 1.946292 -53.868416
-50.166096 3.629772 -53.613056
-49.139012 3.407174 -54.48515
-36.129459 -6.665515 -53.210869
-36.908603 -5.878236 -53.935924
-36.550157 -8.110587 -52.335136
-36.129459 -6.665515 -53.210869
-65.112968 -55.543043 -25.825523
-65.086914 -57.080431 -24.711859
-35.451652 7.080296 -58.234607
-36.604305 6.394989 -58.383136
-54.585001 -81.664422 -11.128207
-53.604637 -83.101021 -10.954007
-65.077042 -41.905438 -33.518166
-65.768451 -41.649681 -32.727508
-64.341962 -42.153489 -34.233176
-64.543226 -43.912136 -33.223005
-65.077042 -41.905438 -33.518166
-62.641408 -40.814402 -36.599146
-62.38825 -39.020808 -37.616583
-62.067577 -42.791136 -36.206981
-62.83278 -42.595669 -35.5824
-62.641408 -40.814402 -36.599146
-59.668484 -10.886468 -46.859287
-58.67788 -9.214686 -47.869702
-59.78796 -12.747319 -46.790914
-59.668484 -10.886468 -46.859287
-58.993496 -12.925289 -47.687221
-59.92025 -14.62845 -46.639143
-59.78796 -12.747319 -46.790914
-38.955916 -2.51054 -56.495697
-38.51751 -1.03303 -57.108413
-41.975937 -16.772263 -47.679907
-42.836433 -16.301969 -48.302549
-41.838757 -15.060313 -48.802307
-42.113401 -18.468046 -46.604506
-41.975937 -16.772263 -47.679907
-62.915712 -66.202339 -19.304794
-63.109634 -64.888045 -20.45102
-61.973763 -67.837937 -18.895038
-62.68191 -67.451897 -18.192295
-62.915712 -66.202339 -19.304794
-57.882566 -69.561203 -21.785179
-57.709903 -70.895069 -20.736733
-58.757868 -69.241009 -21.277081
-65.665054 -48.779815 -29.418677
-66.230934 -46.823464 -29.693469
-57.244659 -66.94376 -24.306925
-56.316755 -67.171989 -24.73675
-48.530079 -40.458847 -39.197233
-47.44395 -40.645449 -38.940382
-46.817385 -44.449148 -37.578442
-47.903513 -44.262546 -37.835293
-45.916796 -46.491749 -36.806183
-46.817385 -44.449148 -37.578442
-41.113438 -40.142647 -37.48161
-41.826055 -38.125695 -38.258694
-62.813356 -23.583199 -42.19594
-62.948284 -21.605462 -42.35553
-62.087468 -23.793178 -43.020176
-62.673788 -25.570186 -41.950831
-62.813356 -23.583199 -42.19594
-48.071815 3.134981 -55.302323
-49.139012 3.407174 -54.48515
-47.052773 2.862076 -55.993035
-48.376526 1.450789 -55.431221
-48.071815 3.134981 -55.302323
-46.010277 2.523702 -56.611767
-47.052773 2.862076 -55.993035
-45.705567 4.207892 -56.482869
-59.275023 -74.990303 -13.139142
-58.792754 -75.973682 -12.076449
-58.622363 -75.436039 -13.861951
-59.275023 -74.990303 -13.139142
-59.687687 -73.984196 -14.161331
-62.143023 -37.217083 -38.625769
-61.82544 -35.408619 -39.647774
-61.630978 -39.206145 -38.232914
-62.38825 -39.020808 -37.616583
-62.143023 -37.217083 -38.625769
-54.889632 -0.776034 -50.47015
-53.70804 0.78749 -51.23798
-54.889632 -0.776034 -50.47015
-55.123253 -2.508678 -50.648533
-57.630946 -7.543327 -48.868903
-56.536133 -5.903759 -49.814656
-57.814272 -9.3728 -48.838194
-58.67788 -9.214686 -47.869702
-57.630946 -7.543327 -48.868903
-39.828706 -5.538463 -54.972107
-39.392971 -4.042801 -55.781586
-38.541987 -4.569581 -55.224556
-41.5851 -13.427898 -49.898292
-42.443562 -12.944292 -50.537125
-41.329408 -11.78217 -51.010467
-41.838757 -15.060313 -48.802307
-41.5851 -13.427898 -49.898292
-63.278458 -63.54611 -21.574047
-63.406655 -62.145168 -22.717165
-62.376389 -65.246444 -21.130565
-63.109634 -64.888045 -20.45102
-63.278458 -63.54611 -21.574047
-56.420929 -65.62722 -25.737143
-57.437828 -63.89016 -26.389717
-56.499901 -64.059678 -26.784239
-56.316755 -67.171989 -24.73675
-56.420929 -65.62722 -25.737143
-53.501509 -67.717903 -25.910981
-54.540138 -65.956101 -26.500628
-52.576554 -67.949661 -26.31831
-53.501509 -67.717903 -25.910981
-50.855835 -64.994873 -28.832971
-50.892319 -63.260418 -29.673998
-46.6402 -55.428436 -33.934549
-47.70536 -55.133815 -33.956674
-46.6402 -55.428436 -33.934549
-46.513498 -53.644899 -34.525381
-44.174958 -52.447615 -34.805957
-45.280298 -52.13084 -34.979337
-44.03545 -50.627985 -35.306497
-44.174958 -52.447615 -34.805957
-47.199371 -38.829098 -39.448267
-47.933971 -36.824867 -40.300663
-46.864681 -37.008686 -39.986135
-47.44395 -40.645449 -38.940382
-47.199371 -38.829098 -39.448267
-43.034222 -39.68446 -38.15288
-42.201208 -41.747784 -37.381211
-42.77221 -37.881298 -38.608402
-43.034222 -39.68446 -38.15288
-43.771137 -37.647255 -38.938997
-42.562971 -36.08849 -39.044812
-41.826055 -38.125695 -38.258694
-42.77221 -37.881298 -38.608402
-42.320906 -27.150157 -42.131022
-42.902449 -28.732638 -41.639665
-43.223709 -26.841104 -42.542866
-42.320906 -27.150157 -42.131022
-41.791418 -25.64626 -42.59503
-61.359821 -72.044292 -13.758669
-61.928612 -71.604149 -12.971876
-61.751798 -70.976341 -14.835475
-60.732325 -72.470508 -14.515328
-61.359821 -72.044292 -13.758669
-61.864044 -31.598453 -41.081358
-62.197933 -29.58209 -41.390678
-61.108568 -31.772041 -41.679506
-61.509653 -33.588405 -40.651596
-61.864044 -31.598453 -41.081358
-51.235298 3.824008 -52.634655
-50.166096 3.629772 -53.613056
-52.46212 2.327576 -51.983566
-51.235298 3.824008 -52.634655
-52.695658 0.628805 -52.250737
-53.70804 0.78749 -51.23798
-52.46212 2.327576 -51.983566
-37.728473 -5.238054 -54.606781
-38.541987 -4.569581 -55.224556
-38.157852 -6.705426 -53.74422
-37.728473 -5.238054 -54.606781
-36.908603 -5.878236 -53.935924
-37.73723 -8.852235 -52.094368
-38.960811 -9.738839 -51.802975
-38.561563 -8.232212 -52.781971
-37.73723 -8.852235 -52.094368
-36.550157 -8.110587 -52.335136
-64.335076 -58.900646 -24.308485
-65.086914 -57.080431 -24.711859
-63.583012 -59.227686 -24.967791
-63.516033 -60.712866 -23.840043
-64.335076 -58.900646 -24.308485
-50.917214 -61.532849 -30.574774
-50.892319 -63.260418 -29.673998
-51.866684 -61.342759 -30.304722
-49.943073 -61.701456 -30.768669
-50.917214 -61.532849 -30.574774
-50.917439 -59.783797 -31.399393
-48.979641 -61.960043 -30.992664
-49.943073 -61.701456 -30.768669
-48.945674 -60.192299 -31.731573
-48.979641 -61.960043 -30.992664
-48.908622 -58.439028 -32.526996
-48.945674 -60.192299 -31.731573
-49.906246 -58.199133 -32.388711
-48.838421 -56.672741 -33.235504
-48.908622 -58.439028 -32.526996
-48.76462 -54.9176 -33.990727
-48.838421 -56.672741 -33.235504
-49.795393 -54.690721 -33.939357
-48.662333 -53.151796 -34.660528
-47.70536 -55.133815 -33.956674
-48.76462 -54.9176 -33.990727
-48.41943 -49.618507 -35.993225
-47.471379 -51.596126 -35.25218
-48.551125 -51.390392 -35.367521
-42.107492 -22.002713 -44.516075
-41.94623 -23.844733 -43.520418
-42.803429 -23.416603 -44.029879
-42.825122 8.242953 -56.920795
-43.932935 8.661141 -56.251198
-41.772694 7.821833 -57.456906
-43.055786 6.697906 -57.21492
-42.825122 8.242953 -56.920795
-40.72546 7.30237 -57.899155
-41.772694 7.821833 -57.456906
-39.729565 6.803681 -58.195705
-41.007462 5.778097 -58.04758
-40.72546 7.30237 -57.899155
-38.755748 6.190003 -58.391418
-39.729565 6.803681 -58.195705
-37.823109 5.613827 -58.436352
-39.078926 4.703232 -58.389065
-38.755748 6.190003 -58.391418
-36.927482 4.908219 -58.380783
-37.823109 5.613827 -58.436352
-36.604305 6.394989 -58.383136
-36.058689 4.248933 -58.180359
-37.277493 3.46777 -58.233574
-36.927482 4.908219 -58.380783
-34.609319 6.239872 -58.073974
-35.451652 7.080296 -58.234607
-34.88942 4.889756 -58.033848
-34.609319 6.239872 -58.073974
-36.058689 4.248933 -58.180359
-34.88942 4.889756 -58.033848
-53.096641 -83.739991 -11.735343
-53.604637 -83.101021 -10.954007
-53.443554 -82.82888 -12.603238
-53.096641 -83.739991 -11.735343
-57.718019 -77.369415 -11.824526
-58.792754 -75.973682 -12.076449
-56.653534 -78.807118 -11.560299
-57.718019 -77.369415 -11.824526
-57.145212 -77.879848 -12.575535
-55.605086 -80.206963 -11.341716
-56.653534 -78.807118 -11.560299
-55.060643 -80.775009 -12.097798
-54.585001 -81.664422 -11.128207
-55.605086 -80.206963 -11.341716
-53.831779 -81.90017 -13.515334
-53.443554 -82.82888 -12.603238
-54.428783 -81.303757 -12.796386
-54.131583 -80.92173 -14.366722
-53.831779 -81.90017 -13.515334
-54.461508 -79.917587 -15.276834
-54.131583 -80.92173 -14.366722
-55.146935 -79.370903 -14.618596
-54.712017 -78.856834 -16.130731
-54.461508 -79.917587 -15.276834
-54.984688 -77.764046 -17.055059
-54.712017 -78.856834 -16.130731
-55.749531 -77.273972 -16.453037
-55.192811 -76.608784 -17.929023
-54.984688 -77.764046 -17.055059
-55.416153 -75.418209 -18.879846
-55.192811 -76.608784 -17.929023
-56.245545 -74.990609 -18.328188
-55.591946 -74.161164 -19.786009
-55.416153 -75.418209 -18.879846
-66.103401 -45.117767 -30.708233
-66.230934 -46.823464 -29.693469
-65.955894 -43.395843 -31.72991
-65.768451 -41.649681 -32.727508
-65.425812 -45.386009 -31.486319
-66.103401 -45.117767 -30.708233
-65.955894 -43.395843 -31.72991
-63.60738 -42.389561 -34.956289
-64.341962 -42.153489 -34.233176
-63.033548 -44.366295 -34.564125
-63.60738 -42.389561 -34.956289
-62.83278 -42.595669 -35.5824
-60.761662 -16.367173 -45.577915
-61.562247 -18.095533 -44.505302
-59.967197 -16.545143 -46.474222
-60.761662 -16.367173 -45.577915
-59.92025 -14.62845 -46.639143
-38.083807 0.490291 -57.5988
-37.673437 1.953982 -57.985641
-39.371877 -0.42384 -57.447746
-38.083807 0.490291 -57.5988
-38.51751 -1.03303 -57.108413
-40.242635 -3.479422 -56.243248
-38.955916 -2.51054 -56.495697
-39.392971 -4.042801 -55.781586
-42.10894 -20.248379 -45.527199
-42.969152 -19.794251 -46.102843
-42.113401 -18.468046 -46.604506
-42.107492 -22.002713 -44.516075
-42.10894 -20.248379 -45.527199
-40.128046 -10.692296 -51.431106
-38.960811 -9.738839 -51.802975
-63.309619 -68.998345 -14.408659
-62.905998 -70.130336 -13.265294
-62.733379 -69.410202 -15.202184
-63.309619 -68.998345 -14.408659
-62.105882 -69.836418 -15.958843
-61.751798 -70.976341 -14.835475
-62.733379 -69.410202 -15.202184
-62.413712 -68.678887 -17.054046
-62.68191 -67.451897 -18.192295
-61.432131 -70.245025 -16.687337
-62.105882 -69.836418 -15.958843
-62.413712 -68.678887 -17.054046
-56.651744 -72.507648 -20.261921
-57.527046 -72.187455 -19.753822
-57.709903 -70.895069 -20.736733
-55.591946 -74.161164 -19.786009
-56.651744 -72.507648 -20.261921
-65.037991 -50.735579 -29.080743
-65.665054 -48.779815 -29.418677
-64.946255 -49.063696 -30.126709
-65.087249 -52.369551 -28.007177
-65.037991 -50.735579 -29.080743
-64.36845 -52.653431 -28.71521
-65.120796 -53.979011 -26.928228
-65.087249 -52.369551 -28.007177
-64.409882 -55.851434 -26.538939
-65.112968 -55.543043 -25.825523
-65.120796 -53.979011 -26.928228
-58.158716 -66.738296 -23.865591
-58.272913 -65.25224 -24.901287
-57.244659 -66.94376 -24.306925
-58.030497 -68.16848 -22.798378
-59.058751 -66.476959 -23.39274
-58.158716 -66.738296 -23.865591
-57.882566 -69.561203 -21.785179
-58.030497 -68.16848 -22.798378
-51.640829 -68.128056 -26.674174
-52.576554 -67.949661 -26.31831
-52.661551 -66.293858 -27.225454
-50.797854 -66.695835 -27.921658
-51.783807 -64.77129 -28.492632
-50.855835 -64.994873 -28.832971
-50.730097 -68.398441 -27.078076
-50.797854 -66.695835 -27.921658
-51.640829 -68.128056 -26.674174
-50.730097 -68.398441 -27.078076
-48.266979 -47.843252 -36.648577
-48.41943 -49.618507 -35.993225
-49.346725 -47.637518 -36.763918
-49.594645 -40.320507 -39.483604
-49.333227 -38.506939 -40.049166
-48.530079 -40.458847 -39.197233
-49.859818 -42.13422 -38.846575
-50.662966 -40.182312 -39.698508
-49.594645 -40.320507 -39.483604
-48.992885 -44.067339 -38.025471
-50.061207 -43.929144 -38.240374
-49.859818 -42.13422 -38.846575
-48.104902 -46.057471 -37.229092
-48.992885 -44.067339 -38.025471
-47.903513 -44.262546 -37.835293
-47.177607 -48.03846 -36.458399
-48.266979 -47.843252 -36.648577
-48.104902 -46.057471 -37.229092
-46.076102 -48.296286 -36.286651
-46.238179 -50.082068 -35.706136
-47.177607 -48.03846 -36.458399
-44.977367 -48.535357 -36.053921
-46.076102 -48.296286 -36.286651
-45.916796 -46.491749 -36.806183
-44.03545 -50.627985 -35.306497
-44.977367 -48.535357 -36.053921
-41.223976 -41.979519 -37.05113
-42.201208 -41.747784 -37.381211
-41.223976 -41.979519 -37.05113
-41.113438 -40.142647 -37.48161
-42.230842 -34.338875 -39.500191
-42.562971 -36.08849 -39.044812
-43.176997 -34.094479 -39.849899
-42.422257 -30.693278 -40.76655
-43.32506 -30.384224 -41.178394
-42.902449 -28.732638 -41.639665
-41.953005 -32.621231 -39.939968
-42.422257 -30.693278 -40.76655
-42.230842 -34.338875 -39.500191
-41.953005 -32.621231 -39.939968
3 218 53 219
3 220 55 221
3 222 221 53
3 220 221 222
3 0 223 224
3 0 225 226
3 0 227 229
3 227 57 228
3 227 228 229
3 2 60 58
3 2 62 60
3 2 64 62
3 1 67 65
3 1 69 67
3 3 230 232
3 230 71 231
3 230 231 232
3 3 73 71
3 5 233 235
3 233 74 234
3 233 234 235
3 5 76 74
3 5 78 76
3 7 81 79
3 7 83 81
3 8 236 238
3 238 237 84
3 236 237 238
3 8 239 241
3 239 85 240
3 239 240 241
3 8 87 85
3 9 90 88
3 9 92 90
3 242 95 243
3 244 243 93
3 242 243 244
3 10 98 96
3 10 100 98
3 10 245 247
3 247 246 100
3 245 246 247
3 11 248 250
3 248 102 249
3 248 249 250
3 11 104 102
3 4 107 105
3 12 110 108
3 12 251 253
3 253 252 110
3 251 252 253
3 12 254 256
3 254 112 255
3 254 255 256
3 258 257 113
3 259 114 260
3 6 117 115
3 13 261 263
3 263 262 118
3 261 262 263
3 13 264 265
3 13 266 268
3 266 121 267
3 266 267 268
3 270 269 122
3 271 123 272
3 14 273 274
3 14 275 277
3 275 124 276
3 275 276 277
3 14 126 124
3 16 127 54
3 16 128 127
3 17 278 280
3 278 129 279
3 278 279 280
3 17 130 129
3 17 132 130
3 19 133 56
3 19 134 133
3 281 135 282
3 284 283 135
3 285 136 286
3 20 139 137
3 22 140 59
3 22 141 140
3 22 143 141
3 24 144 61
3 24 145 144
3 24 146 145
3 25 147 63
3 25 148 147
3 26 151 149
3 28 152 66
3 28 153 152
3 28 155 153
3 30 156 68
3 30 157 156
3 287 159 288
3 289 160 290
3 32 161 70
3 32 162 161
3 32 163 162
3 33 164 72
3 33 165 164
3 291 166 292
3 293 167 294
3 295 294 166
3 293 294 295
3 35 296 297
3 35 298 300
3 298 168 299
3 298 299 300
3 35 169 168
3 36 170 75
3 36 171 170
3 36 173 171
3 38 174 77
3 38 175 174
3 15 176 125
3 39 177 80
3 39 178 177
3 39 179 178
3 40 180 82
3 40 181 180
3 41 301 302
3 41 303 304
3 41 305 307
3 305 182 306
3 305 306 307
3 42 183 86
3 42 184 183
3 18 185 131
3 43 186 89
3 43 187 186
3 43 188 187
3 44 189 91
3 44 190 189
3 31 191 158
3 45 192 94
3 45 193 192
3 308 194 309
3 46 195 97
3 46 196 195
3 46 197 196
3 47 198 99
3 47 199 198
3 47 200 199
3 310 201 311
3 312 311 101
3 310 311 312
3 314 313 201
3 48 315 316
3 48 317 319
3 317 202 318
3 317 318 319
3 48 203 202
3 49 204 103
3 49 320 322
3 322 321 204
3 320 321 322
3 34 323 324
3 50 205 106
3 50 206 205
3 21 207 138
3 51 208 109
3 51 209 208
3 51 210 209
3 326 325 111
3 23 211 142
3 37 212 172
3 52 213 116
3 52 214 213
3 27 215 150
3 328 327 119
3 329 216 330
3 332 331 216
3 334 333 120
3 29 217 154
3 53 335 336
3 53 337 339
3 337 14 338
3 337 338 339
3 53 54 14
3 55 54 53
3 55 16 54
3 340 17 341
3 342 56 343
3 344 343 17
3 342 343 344
3 57 345 347
3 345 56 346
3 345 346 347
3 57 19 56
3 58 59 20
3 60 59 58
3 60 22 59
3 60 61 22
3 62 61 60
3 62 24 61
3 62 63 24
3 64 63 62
3 64 25 63
3 65 66 26
3 67 66 65
3 67 28 66
3 67 68 28
3 69 68 67
3 69 30 68
3 348 70 349
3 71 350 352
3 350 70 351
3 350 351 352
3 71 32 70
3 71 72 32
3 73 72 71
3 73 33 72
3 74 353 354
3 74 355 357
3 355 35 356
3 355 356 357
3 74 75 35
3 76 75 74
3 76 36 75
3 76 77 36
3 78 77 76
3 78 38 77
3 79 80 15
3 81 80 79
3 81 39 80
3 81 82 39
3 83 82 81
3 83 40 82
3 84 358 359
3 361 360 84
3 85 362 363
3 85 364 366
3 364 41 365
3 364 365 366
3 85 86 41
3 87 86 85
3 87 42 86
3 88 89 18
3 90 89 88
3 90 43 89
3 90 91 43
3 92 91 90
3 92 44 91
3 93 94 31
3 95 94 93
3 95 45 94
3 96 367 369
3 367 97 368
3 367 368 369
3 98 97 96
3 98 46 97
3 98 99 46
3 100 99 98
3 100 47 99
3 100 101 47
3 370 101 371
3 372 371 100
3 370 371 372
3 374 373 101
3 102 375 376
3 102 377 379
3 377 48 378
3 377 378 379
3 102 103 48
3 104 103 102
3 104 49 103
3 105 106 34
3 107 106 105
3 107 50 106
3 108 109 21
3 110 109 108
3 110 51 109
3 110 111 51
3 380 111 381
3 382 381 110
3 380 381 382
3 384 383 111
3 112 385 386
3 112 387 388
3 390 389 23
3 113 391 392
3 394 393 113
3 114 395 396
3 114 397 398
3 115 116 37
3 117 116 115
3 117 52 116
3 118 119 27
3 399 119 400
3 401 400 118
3 399 400 401
3 403 402 119
3 404 120 405
3 121 406 408
3 406 120 407
3 406 407 408
3 121 409 411
3 411 410 120
3 409 410 411
3 122 412 414
3 414 413 29
3 412 413 414
3 416 415 122
3 123 417 418
3 123 419 421
3 419 3 420
3 419 420 421
3 124 422 423
3 124 424 426
3 424 5 425
3 424 425 426
3 124 125 5
3 126 125 124
3 126 15 125
3 54 126 14
3 127 126 54
3 127 15 126
3 127 79 15
3 128 79 127
3 128 7 79
3 129 427 428
3 129 429 430
3 129 431 433
3 431 84 432
3 431 432 433
3 130 84 129
3 130 8 84
3 130 131 8
3 132 131 130
3 132 18 131
3 56 132 17
3 133 132 56
3 133 18 132
3 133 88 18
3 134 88 133
3 134 9 88
3 434 96 435
3 135 436 438
3 436 96 437
3 436 437 438
3 135 10 96
3 135 439 441
3 441 440 10
3 439 440 441
3 443 442 135
3 136 444 445
3 136 446 448
3 446 11 447
3 446 447 448
3 137 138 4
3 139 138 137
3 139 21 138
3 59 139 20
3 140 139 59
3 140 21 139
3 140 108 21
3 141 108 140
3 141 12 108
3 141 142 12
3 143 142 141
3 143 23 142
3 61 143 22
3 144 143 61
3 144 23 143
3 144 449 451
3 451 450 23
3 449 450 451
3 145 452 454
3 454 453 144
3 452 453 454
3 145 455 456
3 145 457 458
3 146 459 461
3 461 460 145
3 459 460 461
3 146 462 463
3 63 146 24
3 147 146 63
3 147 464 466
3 466 465 146
3 464 465 466
3 147 467 469
3 467 113 468
3 467 468 469
3 148 113 147
3 148 470 472
3 472 471 113
3 470 471 472
3 149 150 6
3 151 150 149
3 151 27 150
3 66 151 26
3 152 151 66
3 152 27 151
3 152 118 27
3 153 118 152
3 153 13 118
3 153 154 13
3 155 154 153
3 155 29 154
3 68 155 28
3 156 155 68
3 156 29 155
3 156 122 29
3 157 122 156
3 157 473 475
3 475 474 122
3 473 474 475
3 476 0 477
3 478 158 479
3 480 479 0
3 478 479 480
3 481 158 482
3 483 31 484
3 485 484 158
3 483 484 485
3 486 31 487
3 488 93 489
3 490 489 31
3 488 489 490
3 159 491 493
3 491 93 492
3 491 492 493
3 159 494 496
3 496 495 93
3 494 495 496
3 497 159 498
3 499 159 500
3 502 501 159
3 160 503 504
3 160 505 506
3 70 507 508
3 161 509 511
3 511 510 70
3 509 510 511
3 161 512 513
3 161 514 516
3 514 160 515
3 514 515 516
3 162 160 161
3 162 517 519
3 519 518 160
3 517 518 519
3 162 520 521
3 163 522 524
3 524 523 162
3 522 523 524
3 163 525 526
3 72 163 32
3 164 163 72
3 164 527 529
3 529 528 163
3 527 528 529
3 164 530 531
3 165 532 534
3 534 533 164
3 532 533 534
3 165 535 536
3 537 34 538
3 166 539 540
3 166 541 543
3 541 34 542
3 541 542 543
3 166 105 34
3 167 105 166
3 167 4 105
3 544 167 545
3 168 546 548
3 546 167 547
3 546 547 548
3 168 4 167
3 168 137 4
3 169 137 168
3 169 20 137
3 75 169 35
3 170 169 75
3 170 20 169
3 170 58 20
3 171 58 170
3 171 2 58
3 171 172 2
3 173 172 171
3 173 37 172
3 77 173 36
3 174 173 77
3 174 37 173
3 174 115 37
3 175 115 174
3 175 6 115
3 125 78 5
3 176 78 125
3 176 38 78
3 80 176 15
3 177 176 80
3 177 38 176
3 177 175 38
3 178 175 177
3 178 6 175
3 178 149 6
3 179 149 178
3 179 26 149
3 82 179 39
3 180 179 82
3 180 26 179
3 180 65 26
3 181 65 180
3 181 1 65
3 549 55 550
3 182 551 553
3 551 55 552
3 551 552 553
3 182 16 55
3 86 182 41
3 183 182 86
3 183 16 182
3 183 128 16
3 184 128 183
3 184 7 128
3 131 87 8
3 185 87 131
3 185 42 87
3 89 185 18
3 186 185 89
3 186 42 185
3 186 184 42
3 187 184 186
3 187 7 184
3 187 83 7
3 188 83 187
3 188 40 83
3 91 188 43
3 189 188 91
3 189 40 188
3 189 181 40
3 190 181 189
3 190 1 181
3 158 57 0
3 191 57 158
3 191 19 57
3 94 191 31
3 192 191 94
3 192 19 191
3 192 134 19
3 193 134 192
3 193 9 134
3 554 95 555
3 194 556 558
3 556 95 557
3 556 557 558
3 194 45 95
3 97 559 561
3 559 194 560
3 559 560 561
3 195 194 97
3 195 45 194
3 195 193 45
3 196 193 195
3 196 9 193
3 196 92 9
3 197 92 196
3 197 44 92
3 99 197 46
3 198 197 99
3 198 44 197
3 198 190 44
3 199 190 198
3 199 1 190
3 199 69 1
3 200 69 199
3 200 30 69
3 101 200 47
3 201 200 101
3 201 30 200
3 201 157 30
3 562 157 563
3 564 563 201
3 562 563 564
3 566 565 157
3 568 567 10
3 569 123 570
3 571 123 572
3 573 3 574
3 575 574 123
3 573 574 575
3 202 576 577
3 202 578 580
3 578 3 579
3 578 579 580
3 202 73 3
3 203 73 202
3 203 33 73
3 103 203 48
3 204 203 103
3 204 33 203
3 204 165 33
3 581 165 582
3 583 582 204
3 581 582 583
3 585 584 165
3 106 586 588
3 588 587 34
3 586 587 588
3 205 589 591
3 591 590 106
3 589 590 591
3 205 592 593
3 205 594 596
3 594 136 595
3 594 595 596
3 206 136 205
3 206 11 136
3 138 107 4
3 207 107 138
3 207 50 107
3 109 207 21
3 208 207 109
3 208 50 207
3 208 206 50
3 209 206 208
3 209 11 206
3 209 104 11
3 210 104 209
3 210 49 104
3 111 210 51
3 597 210 598
3 599 598 111
3 597 598 599
3 600 49 601
3 602 601 210
3 600 601 602
3 604 603 49
3 142 112 12
3 211 112 142
3 211 605 607
3 607 606 112
3 605 606 607
3 608 211 609
3 610 609 23
3 608 609 610
3 611 211 612
3 614 613 211
3 172 64 2
3 212 64 172
3 212 25 64
3 116 212 37
3 213 212 116
3 213 25 212
3 213 148 25
3 214 148 213
3 214 615 617
3 617 616 148
3 615 616 617
3 150 117 6
3 215 117 150
3 215 52 117
3 119 215 27
3 618 215 619
3 620 619 119
3 618 619 620
3 621 52 622
3 623 622 215
3 621 622 623
3 624 214 625
3 626 625 52
3 624 625 626
3 216 627 629
3 627 214 628
3 627 628 629
3 216 630 632
3 632 631 214
3 630 631 632
3 216 633 635
3 633 114 634
3 633 634 635
3 636 114 637
3 638 637 216
3 636 637 638
3 640 639 114
3 120 641 642
3 644 643 120
3 154 121 13
3 217 121 154
3 217 645 647
3 647 646 121
3 645 646 647
3 648 217 649
3 650 649 29
3 648 649 650
3 651 217 652
3 654 653 217
