ply
format ascii 1.0
element vertex 287
property float x
property float y
property float z
element face 260
property list uchar int vertex_index
end_header
-26.753277 38.959602 -28.741283
-23.257025 14.230045 -31.034496
-17.440147 41.045692 -31.139942
-22.611906 27.397896 -30.774288
-28.76914 27.574516 -28.143581
-30.077888 38.149044 -26.79586
-29.952122 32.822353 -26.103523
-27.518847 33.158371 -28.61969
-22.422962 20.85392 -30.815266
-22.311308 39.952274 -30.035294
-24.05835 33.51709 -30.175171
-19.930695 33.950268 -31.05732
-19.161568 19.924156 -30.259544
-30.4044 43.613083 -26.707314
-25.85248 45.148991 -28.102486
-25.997372 27.54496 -29.912853
-28.408356 22.185791 -30.095261
-28.592258 38.529987 -27.882095
-28.685881 35.745564 -27.770084
-27.117001 36.023628 -28.772999
-22.733452 17.528381 -30.850945
-19.88784 40.495384 -30.594833
-20.96059 37.049866 -30.687283
-18.670658 37.440182 -31.128834
-18.865627 23.620037 -30.640057
-32.091324 42.952141 -25.769962
-27.952572 47.450703 -26.979473
-29.25293 30.245899 -27.145958
-29.897301 27.499069 -26.891293
-23.171875 30.529068 -30.575787
-24.980968 30.47044 -30.058071
-24.368179 27.478115 -30.443275
-27.025717 21.947857 -30.577797
-31.174339 37.810017 -25.44928
-29.930113 35.492771 -26.514507
-28.872614 32.993469 -27.488079
-28.045652 30.342888 -28.364929
-22.370289 24.159046 -30.824947
-24.055807 24.393379 -30.702328
-24.630207 39.436161 -29.43576
-25.261538 36.33374 -29.557037
-23.183493 36.677219 -30.176586
-22.045807 33.72477 -30.678242
-21.238941 30.594933 -30.924248
-19.237522 30.665142 -31.138489
-20.76947 27.311047 -30.940319
-20.629236 23.903687 -30.79504
-20.796963 20.411083 -30.590214
-21.24086 16.878876 -30.442013
-31.634691 40.356598 -25.720554
-30.273516 40.838947 -26.867432
-28.487898 41.385555 -27.772732
-30.390518 46.513737 -26.347424
-28.290354 44.349869 -27.452522
-26.349333 41.9935 -28.505161
-23.955084 42.651779 -29.148926
-18.807411 44.053074 -30.433605
-19.469145 50.473766 -29.145889
-17.708899 47.712322 -30.252235
-16.223347 44.748795 -31.119099
-25.901711 33.329784 -29.504421
-26.616983 30.412571 -29.331676
-25.653624 24.60117 -30.395866
-27.138695 24.766518 -29.874622
-21.921206 13.357803 -30.457161
-23.925311 14.640017 -31.282896
-23.663525 16.289185 -31.191121
-22.995238 15.879213 -30.942721
-24.18148 13.143381 -31.575935
-23.925311 14.640017 -31.282896
-29.247195 26.226904 -28.12792
-29.811276 26.18918 -27.501776
-29.33322 27.536792 -27.517437
-23.220326 21.057976 -30.861693
-23.193989 22.710539 -30.866533
-22.396625 22.506483 -30.820107
-19.06127 28.938975 -31.054859
-18.228372 30.694874 -31.190575
-19.827244 27.261927 -30.955774
-20.003496 28.988094 -31.039404
-19.06127 28.938975 -31.054859
-19.757126 25.558247 -30.883135
-20.699353 25.607367 -30.86768
-19.827244 27.261927 -30.955774
-32.458379 41.362223 -25.144523
-32.088571 40.141966 -25.011091
-30.292115 48.040729 -26.100946
-31.484167 47.505646 -25.796534
-19.635009 45.453728 -29.947376
-20.108447 43.699011 -30.105648
-18.952008 52.331089 -29.008285
-20.474469 51.758007 -28.52344
-16.358955 48.121418 -30.675087
-17.149028 49.585319 -30.171037
-15.616179 46.639654 -31.108519
-16.966123 46.230559 -30.685667
-16.358955 48.121418 -30.675087
-14.965479 45.071207 -31.461565
-15.616179 46.639654 -31.108519
-30.362903 32.726618 -25.298296
-30.39873 34.037338 -25.555369
-26.733351 27.564213 -29.532455
-27.043157 28.998019 -29.241867
-26.307178 28.978766 -29.622264
-25.605933 23.116507 -30.617628
-24.854716 24.497274 -30.549097
-24.807025 23.012611 -30.770859
-28.45264 23.526463 -29.60553
-27.817809 24.816826 -29.49521
-27.773525 23.476154 -29.984941
-29.054982 22.251613 -29.734545
-28.45264 23.526463 -29.60553
-21.253528 12.890756 -30.140871
-20.833796 14.76556 -30.204767
-23.473402 17.830216 -31.002026
-23.318157 19.492985 -30.984186
-22.578207 19.19115 -30.833106
-23.473402 17.830216 -31.002026
-23.663525 16.289185 -31.191121
-17.931669 25.352543 -30.765127
-18.875322 25.416422 -30.805643
-17.986235 23.453903 -30.512379
-17.931669 25.352543 -30.765127
-18.134205 21.605963 -30.322122
-19.013597 21.772096 -30.449801
-17.986235 23.453903 -30.512379
-33.029136 43.915735 -25.197185
-32.686695 42.659994 -25.169227
-32.260748 44.302096 -25.683802
-33.029136 43.915735 -25.197185
-31.417286 44.632567 -26.152477
-31.247862 43.282612 -26.238638
-32.260748 44.302096 -25.683802
-27.707944 49.076012 -26.706205
-29.073142 48.509213 -26.416971
-26.596881 47.945504 -27.292564
-27.707944 49.076012 -26.706205
-25.546835 46.794647 -27.854071
-26.902526 46.299847 -27.540979
-26.596881 47.945504 -27.292564
-24.529644 45.570084 -28.426617
-25.546835 46.794647 -27.854071
-29.749187 30.17614 -26.417866
-30.098782 31.464367 -25.896648
-29.602526 31.534126 -26.624741
-30.071372 28.802725 -26.290534
-29.749187 30.17614 -26.417866
-29.575115 28.872484 -27.018625
-30.381668 27.420841 -26.156593
-30.071372 28.802725 -26.290534
-30.362793 26.141014 -26.883767
-30.381668 27.420841 -26.156593
-30.362793 26.141014 -26.883767
-29.811276 26.18918 -27.501776
-27.055079 20.565109 -30.950228
-26.29198 21.789851 -30.708593
-27.740962 20.76873 -30.852082
-27.055079 20.565109 -30.950228
-28.432282 20.887697 -30.610813
-27.717036 22.066824 -30.336529
-27.740962 20.76873 -30.852082
-29.093571 21.031955 -30.399619
-28.432282 20.887697 -30.610813
-16.910001 39.436029 -31.328428
-16.234437 41.309221 -31.40271
-31.009838 36.53117 -25.228247
-31.531395 37.652226 -24.65078
-30.387725 35.372547 -25.76086
-31.009838 36.53117 -25.228247
-30.552226 36.651394 -25.981893
-29.941117 34.157562 -26.309015
-30.39873 34.037338 -25.555369
-30.387725 35.372547 -25.76086
-24.036748 22.827706 -30.805224
-23.213048 24.276212 -30.763638
-23.193989 22.710539 -30.866533
-24.807025 23.012611 -30.770859
-24.036748 22.827706 -30.805224
-23.220326 21.057976 -30.861693
-23.318157 19.492985 -30.984186
-17.525257 37.633274 -31.322874
-18.055402 39.242937 -31.134388
-16.910001 39.436029 -31.328428
-18.224101 35.81061 -31.235298
-17.525257 37.633274 -31.322874
-18.854119 34.065653 -31.199542
-19.300677 35.695225 -31.093077
-18.224101 35.81061 -31.235298
-18.507533 32.42309 -31.240126
-18.228372 30.694874 -31.190575
-19.584108 32.307705 -31.097904
-18.854119 34.065653 -31.199542
-18.507533 32.42309 -31.240126
-19.747431 23.761862 -30.717548
-19.757126 25.558247 -30.883135
-18.875322 25.416422 -30.805643
-31.858395 38.868676 -24.875454
-31.531395 37.652226 -24.65078
-31.404515 39.083308 -25.584917
-31.858395 38.868676 -24.875454
-32.088571 40.141966 -25.011091
-31.863008 41.65437 -25.745258
-32.458379 41.362223 -25.144523
-32.686695 42.659994 -25.169227
-31.410345 46.082893 -25.972532
-31.484167 47.505646 -25.796534
-30.397459 45.06341 -26.527369
-31.417286 44.632567 -26.152477
-31.410345 46.082893 -25.972532
-29.171545 46.98222 -26.663449
-30.292115 48.040729 -26.100946
-29.073142 48.509213 -26.416971
-23.580946 44.321478 -28.949837
-24.903782 43.900385 -28.625706
-24.529644 45.570084 -28.426617
-22.682284 42.998363 -29.463309
-23.580946 44.321478 -28.949837
-21.860396 41.648611 -29.906492
-23.133196 41.302026 -29.59211
-22.682284 42.998363 -29.463309
-20.648662 41.920166 -30.186262
-21.099574 40.223829 -30.315064
-21.860396 41.648611 -29.906492
-19.347625 42.274229 -30.514219
-20.648662 41.920166 -30.186262
-20.108447 43.699011 -30.105648
-20.923995 49.965408 -28.729899
-20.474469 51.758007 -28.52344
-19.965877 48.664074 -29.303518
-20.923995 49.965408 -28.729899
-18.029151 50.966042 -29.617864
-18.952008 52.331089 -29.008285
-18.589022 49.093044 -29.699062
-18.029151 50.966042 -29.617864
-17.149028 49.585319 -30.171037
-19.085753 47.283352 -29.856691
-19.965877 48.664074 -29.303518
-18.589022 49.093044 -29.699062
-18.258155 45.882698 -30.34292
-19.635009 45.453728 -29.947376
-19.085753 47.283352 -29.856691
-15.626037 43.160773 -31.392288
-16.234437 41.309221 -31.40271
-16.831747 42.897244 -31.12952
-15.626037 43.160773 -31.392288
-14.965479 45.071207 -31.461565
-30.362903 32.726618 -25.298296
-30.098782 31.464367 -25.896648
-27.757491 28.963177 -28.758494
-27.331318 30.37773 -28.848303
-27.043157 28.998019 -29.241867
-28.119235 27.578991 -28.64782
-28.407396 28.958702 -28.254255
-27.757491 28.963177 -28.758494
-26.339671 23.274513 -30.486832
-25.605933 23.116507 -30.617628
-26.29198 21.789851 -30.708593
-27.304012 26.174992 -29.51334
-26.733351 27.564213 -29.532455
-26.568033 26.155739 -29.893738
-27.304012 26.174992 -29.51334
-27.817809 24.816826 -29.49521
-28.633032 26.220825 -28.62969
-28.119235 27.578991 -28.64782
-29.247195 26.226904 -28.12792
-28.633032 26.220825 -28.62969
-29.054982 22.251613 -29.734545
-29.093571 21.031955 -30.399619
-18.347319 19.648232 -30.05489
-18.134205 21.605963 -30.322122
-19.453978 18.048737 -30.105959
-18.347319 19.648232 -30.05489
-20.493623 16.526097 -30.197193
-20.201214 18.401516 -30.350779
-19.453978 18.048737 -30.105959
-21.581033 15.11834 -30.449587
-20.493623 16.526097 -30.197193
-20.833796 14.76556 -30.204767
-22.356526 11.628388 -30.583813
-21.253528 12.890756 -30.140871
-22.932707 12.180982 -30.950004
-22.356526 11.628388 -30.583813
-23.600617 12.617103 -31.238672
-22.589115 13.793924 -30.745829
-22.932707 12.180982 -30.950004
-24.18148 13.143381 -31.575935
-23.600617 12.617103 -31.238672
3 0 19 17
3 1 65 67
3 67 66 20
3 65 66 67
3 1 68 69
3 2 23 21
3 4 28 27
3 4 70 72
3 72 71 28
3 70 71 72
3 3 31 29
3 5 34 33
3 7 35 18
3 7 36 35
3 8 73 75
3 75 74 37
3 73 74 75
3 9 41 39
3 11 42 22
3 11 43 42
3 76 44 77
3 78 45 79
3 80 79 44
3 78 79 80
3 81 46 82
3 83 82 45
3 81 82 83
3 12 47 24
3 12 48 47
3 84 49 85
3 13 50 25
3 13 51 50
3 86 52 87
3 14 53 26
3 14 54 53
3 14 55 54
3 88 56 89
3 90 57 91
3 92 58 93
3 94 59 95
3 96 95 58
3 94 95 96
3 98 97 59
3 6 99 100
3 10 60 40
3 15 61 30
3 15 101 103
3 103 102 61
3 101 102 103
3 104 62 105
3 106 105 38
3 104 105 106
3 16 63 32
3 16 107 109
3 109 108 63
3 107 108 109
3 16 110 111
3 112 64 113
3 17 18 5
3 19 18 17
3 19 7 18
3 20 114 116
3 116 115 8
3 114 115 116
3 118 117 20
3 21 22 9
3 23 22 21
3 23 11 22
3 119 24 120
3 121 24 122
3 123 12 124
3 125 124 24
3 123 124 125
3 126 25 127
3 128 25 129
3 130 13 131
3 132 131 25
3 130 131 132
3 133 26 134
3 135 26 136
3 137 14 138
3 139 138 26
3 137 138 139
3 141 140 14
3 27 142 144
3 144 143 6
3 142 143 144
3 28 145 147
3 147 146 27
3 145 146 147
3 28 148 149
3 28 150 151
3 153 152 28
3 29 30 10
3 31 30 29
3 31 15 30
3 154 32 155
3 156 32 157
3 158 16 159
3 160 159 32
3 158 159 160
3 162 161 16
3 164 163 2
3 33 165 166
3 34 167 169
3 169 168 33
3 167 168 169
3 34 170 172
3 170 6 171
3 170 171 172
3 18 34 5
3 35 34 18
3 35 6 34
3 35 27 6
3 36 27 35
3 36 4 27
3 37 38 3
3 173 38 174
3 175 174 37
3 173 174 175
3 177 176 38
3 179 178 8
3 39 40 0
3 41 40 39
3 41 10 40
3 22 41 9
3 42 41 22
3 42 10 41
3 42 29 10
3 43 29 42
3 43 3 29
3 180 23 181
3 182 181 2
3 180 181 182
3 183 23 184
3 185 11 186
3 187 186 23
3 185 186 187
3 44 188 189
3 44 190 192
3 190 11 191
3 190 191 192
3 44 43 11
3 45 43 44
3 45 3 43
3 45 37 3
3 46 37 45
3 46 8 37
3 24 193 195
3 193 46 194
3 193 194 195
3 47 46 24
3 47 8 46
3 47 20 8
3 48 20 47
3 48 1 20
3 196 33 197
3 49 198 200
3 198 33 199
3 198 199 200
3 49 5 33
3 25 201 203
3 201 49 202
3 201 202 203
3 50 49 25
3 50 5 49
3 50 17 5
3 51 17 50
3 51 0 17
3 52 204 205
3 52 206 208
3 206 13 207
3 206 207 208
3 26 209 211
3 209 52 210
3 209 210 211
3 53 52 26
3 53 13 52
3 53 51 13
3 54 51 53
3 54 0 51
3 54 39 0
3 55 39 54
3 55 9 39
3 212 55 213
3 214 213 14
3 212 213 214
3 215 55 216
3 217 9 218
3 219 218 55
3 217 218 219
3 220 21 221
3 222 221 9
3 220 221 222
3 56 223 225
3 223 21 224
3 223 224 225
3 56 2 21
3 57 226 227
3 57 228 229
3 230 57 231
3 58 232 234
3 232 57 233
3 232 233 234
3 58 235 237
3 237 236 57
3 235 236 237
3 58 238 240
3 238 56 239
3 238 239 240
3 59 56 58
3 59 2 56
3 59 241 243
3 243 242 2
3 241 242 243
3 245 244 59
3 247 246 6
3 40 19 0
3 60 19 40
3 60 7 19
3 30 60 10
3 61 60 30
3 61 7 60
3 61 36 7
3 248 36 249
3 250 249 61
3 248 249 250
3 251 4 252
3 253 252 36
3 251 252 253
3 38 31 3
3 62 31 38
3 62 15 31
3 32 254 256
3 254 62 255
3 254 255 256
3 63 62 32
3 63 15 62
3 63 257 259
3 259 258 15
3 257 258 259
3 261 260 63
3 262 4 263
3 265 264 4
3 267 266 16
3 268 12 269
3 270 12 271
3 272 48 273
3 274 273 12
3 272 273 274
3 64 275 277
3 275 48 276
3 275 276 277
3 64 1 48
3 278 64 279
3 280 64 281
3 282 1 283
3 284 283 64
3 282 283 284
3 286 285 1
