ply
format ascii 1.0
element vertex 832
property float x
property float y
property float z
element face 838
property list uchar int vertex_index
end_header
-65.149277 5.467525 10.534558
-54.909988 14.855797 5.535781
-56.142498 -31.922735 21.937916
-62.029716 -1.389009 10.231513
-54.637287 1.908249 8.986103
-60.368114 9.492535 6.872948
-41.660862 10.799957 9.738235
-46.807205 -32.965546 18.749395
-52.008804 -40.869019 19.392393
-48.024487 -38.417442 12.196864
-44.756683 -22.579742 18.124792
-45.862839 -9.120279 14.775846
-47.730629 6.120173 9.677609
-53.909531 -22.587883 19.383282
-60.766991 12.350153 13.312594
-64.345093 2.634321 9.679188
-61.393402 4.200434 7.93389
-63.099922 7.225422 8.643503
-44.363514 -32.747383 9.678873
-45.64782 -29.556152 6.380133
-41.584366 -29.303324 10.569099
-39.1507 13.304451 8.832346
-43.56284 -32.577934 16.591103
-46.049332 -36.671402 16.033232
-44.433163 -35.199921 12.940783
-48.050037 -35.59436 8.651962
-48.986599 -16.887413 17.301851
-45.030689 -16.202385 16.810495
-49.540466 -10.337247 14.990467
-54.877357 8.570564 6.561351
-51.097076 3.948736 9.224545
-53.622528 -17.228992 17.501143
-48.988472 -22.778271 18.896568
-58.443008 15.377499 11.301992
-61.003769 -31.007214 23.686226
-53.361336 -43.29834 16.447491
-54.210594 -4.827149 12.036657
-58.337608 0.084536 9.271753
-58.132767 6.246677 6.858475
-57.597343 12.073919 5.778817
-62.473637 -6.963796 13.134804
-51.179359 -32.650898 20.429878
-53.203564 -36.853935 21.227669
-49.088966 -37.145409 18.799646
-49.382835 -40.165047 15.86209
-42.857075 -7.708975 13.999563
-50.343765 -3.293401 12.142227
-46.860191 -1.572342 12.24997
-43.790367 0.271523 12.004895
-44.557041 8.398849 9.955825
-59.815197 -26.68693 21.905418
-54.765717 -27.447012 20.743179
-49.724144 -28.001244 19.833874
-45.326813 -28.153057 18.694958
-63.649513 8.834908 11.338337
-63.393623 9.378967 15.528975
-61.170998 11.489435 9.226925
-58.805042 14.319645 7.512985
-55.625782 -40.762283 22.665384
-64.931778 4.271332 9.994022
-63.778267 4.97567 8.964359
-64.287994 6.248499 9.637679
-65.533203 2.144981 10.796482
-42.855804 -31.118221 10.177991
-44.209293 -34.084503 11.320089
-51.372574 -14.049681 16.282726
-49.211594 -13.688124 16.230675
-51.605305 -10.849409 14.997976
-54.911606 11.773247 5.834189
-53.270355 9.795511 6.684449
-51.240669 -17.099483 17.406172
-55.931351 17.249828 15.226385
-58.634506 -31.480492 22.756088
-59.388176 -33.588322 23.643112
-56.97261 -34.047153 22.64603
-60.340855 -3.666369 11.102764
-58.359276 -3.021875 10.743332
-60.205357 -0.706182 9.662451
-60.944099 6.898035 7.211737
-59.774231 5.178928 7.303212
-59.428078 8.0196 6.562122
-57.909164 9.217438 6.109053
-58.971153 10.750315 6.222151
-63.749104 -1.940351 10.989799
-64.074471 -4.608408 12.384774
-62.268822 -4.201121 11.64301
-60.450691 -6.577827 12.611353
-44.056473 -28.226938 6.713692
-46.658295 -27.774036 4.719073
-41.43692 6.512836 10.446233
-40.223137 7.643358 9.934931
-38.068508 14.567142 8.088476
-38.167961 9.963318 8.366894
-37.334507 11.127693 7.306958
-48.882099 -32.878696 19.634195
-49.886223 -35.034977 19.791252
-47.857994 -35.124664 18.736408
-46.686295 -37.814606 14.20138
-47.620758 -38.479748 15.86494
-48.534081 -39.429787 14.031615
-50.129051 -39.852715 12.074404
-43.155708 -25.266495 17.785664
-43.024281 -22.30377 17.484381
-45.401287 -12.737223 15.873783
-43.789589 -12.162391 15.469388
-42.387436 -11.534317 14.867476
-44.272659 -8.434407 14.475373
-54.437439 -1.472965 10.482757
-52.23214 -4.089087 12.066418
-52.555256 -0.598766 10.530653
-49.392441 5.021099 9.448616
-48.995354 1.28565 10.801919
-47.319862 2.277189 10.933853
-45.271015 -0.663677 12.19104
-45.717484 3.295063 11.000634
-44.195541 4.339024 10.961292
-46.115768 7.245312 9.861581
-62.117092 -26.25481 22.716236
-61.690369 -24.068058 21.741982
-56.211231 -19.895672 18.737713
-58.700787 -19.749729 19.079908
-56.462341 -22.389429 19.686672
-54.265511 -25.072216 20.113344
-52.201202 -27.759815 20.287176
-51.713726 -25.308229 19.774302
-46.758492 -22.735498 18.578247
-46.978359 -25.529217 19.028362
-44.926704 -25.467014 18.495619
-65.850388 5.890669 15.435325
-64.792206 7.631908 14.379086
-62.359196 10.636356 12.194801
-62.426327 10.161463 10.2644
-61.095085 12.041241 11.10887
-57.550476 17.016747 10.49003
-58.804131 14.982391 9.210113
-57.859337 16.56675 8.491041
-57.753845 15.838924 6.926077
-52.324009 -39.021461 20.463055
-54.374107 -38.834183 21.855862
-53.718132 -40.898857 21.060274
-63.374851 0.724457 9.746061
-61.745129 1.426214 8.968115
-62.940269 3.338617 8.730532
-62.416794 5.873047 8.025911
-61.762604 8.31373 7.697516
-64.846481 0.185015 10.707649
-46.612427 -32.579399 7.512151
-44.860802 -31.22514 8.031013
-43.315536 -29.736938 8.470127
-41.896904 15.037357 9.049876
-40.351402 12.0436 9.379045
-40.509941 16.392044 8.79937
-39.219482 17.756325 8.351164
-45.016945 -32.874592 17.742004
-46.108864 -35.028183 17.577715
-44.690384 -34.712257 16.302402
-45.048962 -36.066151 14.519658
-46.117363 -36.876522 12.506906
-47.864193 -37.13208 10.393019
-45.92395 -35.673058 10.811157
-46.098236 -34.228653 9.140522
-46.741974 -19.754559 17.946259
-44.801491 -19.489067 17.564081
-46.905571 -16.588326 17.122948
-47.213524 -13.248772 16.112568
-47.621632 -9.75788 14.933223
-54.787544 5.270512 7.644295
-52.84481 2.908043 9.055527
-53.083645 6.386484 7.739579
-51.403416 7.536329 7.95651
-49.742699 8.713362 8.247921
-48.100796 9.915968 8.560553
-56.073837 -17.282043 17.653139
-53.698589 -19.978252 18.518147
-51.393539 -22.722956 19.142328
-51.240028 -19.989975 18.358379
-48.90266 -19.91922 18.190369
-58.926025 13.970985 14.646454
-59.529282 13.829132 12.25601
-57.784851 15.548065 13.652399
-63.149426 -30.50655 24.769543
-52.345787 -42.313347 18.034744
-56.263077 -5.496055 12.093897
-56.379005 -2.285418 10.544205
-56.472313 0.961988 9.050644
-60.02491 2.25728 8.366552
-58.270069 3.189274 7.944757
-56.517975 4.199766 7.705958
-56.497246 7.382969 6.612168
-56.404079 10.473991 5.868183
-56.248512 13.447586 5.55427
-40.896408 -2.016741 11.830538
-39.131718 8.797026 9.242826
-53.626858 -32.320946 21.180607
-54.521935 -34.458893 21.70425
-52.131721 -34.799564 20.768034
-51.040421 -37.075165 20.048561
-50.479378 -39.051228 19.005405
-47.408901 -37.022972 17.462715
-48.896717 -38.882992 17.471682
-50.550674 -40.635963 17.656528
-51.308346 -41.759304 16.057753
-43.113129 -19.122866 16.993176
-41.620689 -6.949457 13.329114
-51.903954 -7.518958 13.577546
-49.931648 -6.860828 13.611311
-48.082619 -6.146276 13.618513
-50.740677 0.324389 10.651606
-48.55217 -2.451233 12.218979
-46.364075 -5.385579 13.5516
-44.780796 -4.587869 13.367848
-43.337811 -3.759384 13.033081
-42.041073 -2.902599 12.524323
-42.426437 1.233383 11.664176
-42.764706 5.411041 10.783863
-43.067299 9.583597 9.923892
-46.482803 11.146631 8.84128
-44.89946 12.409481 9.042009
-43.365417 13.707058 9.122323
-62.611767 -28.400494 23.7019
-60.37719 -28.872475 22.762573
-57.940414 -29.315491 21.986227
-55.398285 -29.726486 21.327877
-52.845329 -30.092628 20.73307
-50.369415 -30.390173 20.14362
-48.04998 -30.58691 19.502865
-49.261028 -25.468685 19.434418
-47.410423 -28.14225 19.321884
-45.957397 -30.64764 18.760242
-44.152153 -30.541162 17.875061
-65.535744 5.627901 11.71899
-64.598206 7.024763 10.776609
-64.780914 7.410013 12.393291
-63.613083 9.194183 13.297291
-63.489758 8.209259 9.761127
-62.243301 9.40107 8.735729
-60.942604 10.648636 7.782244
-59.891357 13.477188 10.095688
-59.948948 12.869099 8.291464
-59.651684 11.967152 6.96708
-58.405956 13.356022 6.338075
-57.212135 14.803829 5.920475
-55.506256 -36.521893 22.367867
-65.040527 4.869428 10.26429
-65.359382 4.09358 10.588954
-65.468132 4.691676 10.859222
-52.698996 -11.068554 15.004032
-51.48894 -12.449545 15.640351
-52.58263 -12.66869 15.646407
-54.165025 13.979191 5.758126
-54.165835 12.437916 5.90733
-54.910797 13.314522 5.684985
-54.234703 15.57151 5.612409
-54.165025 13.979191 5.758126
-52.58263 -12.66869 15.646407
-52.517406 -14.190665 16.305884
-44.534514 -27.420551 5.811105
-43.357857 -27.47348 6.807506
-37.223768 13.47019 7.224336
-37.701508 12.847418 7.697717
-37.590768 15.189915 7.615095
-36.983356 11.700567 6.686288
-37.223768 13.47019 7.224336
-49.016623 -38.453938 11.169789
-50.068905 -39.171574 11.108559
-49.076769 -39.135079 12.135634
-62.596552 -22.771963 21.636475
-62.742794 -23.856879 22.19566
-65.233731 6.819759 16.021588
-65.771195 5.925412 16.542783
-65.771195 5.925412 16.542783
-66.304676 4.927633 15.961419
-57.356624 17.654291 9.164375
-57.704906 16.791748 9.490536
-57.202194 17.87929 10.16387
-57.453373 17.393002 8.222419
-57.356624 17.654291 9.164375
-41.78573 -28.685485 9.673423
-42.651315 -28.902292 8.623937
-42.449951 -29.520131 9.519613
-41.350643 17.786782 8.593536
-41.203423 15.7147 8.924623
-42.044124 17.109438 8.718789
-39.305049 19.927103 8.062487
-39.983846 19.198134 8.268407
-38.629497 18.433255 8.020834
-39.305049 19.927103 8.062487
-44.741062 -35.633036 13.73022
-44.345711 -35.111566 14.715156
-44.037812 -34.678452 13.925719
-51.535799 9.292396 7.449609
-52.336886 8.66592 7.320479
-52.469268 10.421986 6.813578
-50.705441 9.880912 7.595314
-50.573058 8.124845 8.102215
-51.535799 9.292396 7.449609
-49.903351 10.519569 7.766556
-50.705441 9.880912 7.595314
-54.848183 -17.255518 17.577141
-56.053218 -15.908263 17.042327
-54.827564 -15.881737 16.966329
-57.3457 15.543481 14.895927
-58.355438 14.759525 14.149427
-57.916286 14.754942 15.392954
-56.406444 17.23962 14.0031
-55.599205 18.168753 14.831815
-61.334453 -32.051353 24.214186
-62.407282 -31.801021 24.755845
-62.076597 -30.756882 24.227885
-59.780712 -34.618151 24.170212
-58.625325 -34.850254 23.576351
-53.805996 -43.62347 17.51746
-53.298221 -43.130974 18.311087
-52.853561 -42.805844 17.241118
-57.311066 -5.789983 12.1842
-56.206776 -7.061906 12.859227
-63.412817 -7.096107 13.503286
-64.213234 -5.918413 13.12827
-63.274054 -5.786102 12.759789
-62.561569 -8.30117 13.895154
-63.412817 -7.096107 13.503286
-61.510863 -8.182745 13.632136
-62.561569 -8.30117 13.895154
-59.404076 -7.819499 13.204835
-59.404873 -6.330869 12.442929
-47.05172 -29.192363 5.382084
-46.533535 -30.161236 6.155116
-48.153526 -27.285937 3.784858
-47.239086 -26.83835 3.875377
-40.402 -1.558161 11.390911
-41.04233 0.103511 11.491452
-38.22784 7.663025 8.460271
-37.880922 8.204603 7.856018
-49.126455 -36.233866 8.476137
-49.033533 -37.002725 9.346666
-47.957115 -36.36322 9.52249
-42.028311 -9.285174 14.02534
-41.793492 -11.197845 14.459296
-42.622256 -9.621646 14.433519
-42.238882 -7.329216 13.664338
-41.410118 -8.905415 13.690115
-42.028311 -9.285174 14.02534
-53.057274 -6.173053 12.807101
-52.944723 -7.81491 13.571807
-54.098044 -6.469005 12.801362
-47.469663 12.387921 8.248349
-47.291799 10.531299 8.700916
-48.27866 11.772589 8.107986
-45.080355 14.371937 8.651665
-45.875513 13.686642 8.519827
-44.313333 15.020725 8.691822
-44.132438 13.058269 9.082166
-45.080355 14.371937 8.651665
-43.53362 15.724569 8.762781
-44.313333 15.020725 8.691822
-63.38075 -27.092997 23.715584
-63.58195 -28.148737 24.267999
-59.892024 -19.645612 19.338769
-58.835356 -20.94367 19.596936
-56.049742 -27.266124 21.003375
-55.801296 -26.113826 20.629783
-55.082001 -28.586749 21.035528
-56.366026 -28.405861 21.295724
-56.049742 -27.266124 21.003375
-65.287338 6.592847 12.906986
-65.158329 6.518957 12.05614
-65.664753 5.701791 12.569836
-62.738602 10.134563 14.974479
-62.848332 10.042172 13.858637
-63.503353 9.286575 14.413133
-65.664753 5.701791 12.569836
-65.946526 4.74421 12.193027
-56.996009 16.107748 6.230463
-57.48299 15.321376 6.423276
-57.266864 16.625296 6.733265
-56.632843 15.548805 5.817569
-56.996009 16.107748 6.230463
-56.092106 -39.644798 22.936904
-55.466268 -38.680748 22.532143
-54.999944 -39.798233 22.260623
-56.643728 -40.627777 23.445965
-56.092106 -39.644798 22.936904
-65.660095 3.030404 10.990184
-65.994423 2.01828 11.464789
-65.23249 3.208157 10.395252
-65.660095 3.030404 10.990184
-65.359382 4.09358 10.588954
-42.794685 -31.727874 11.004221
-43.609659 -31.932802 9.928432
-43.54854 -32.542456 10.754662
-42.181497 -30.759588 11.220195
-42.794685 -31.727874 11.004221
-41.545778 -29.852139 11.415749
-42.220085 -30.210772 10.373545
-42.181497 -30.759588 11.220195
-43.60265 -33.367458 15.750879
-43.023026 -32.319948 15.940133
-43.711173 -34.280022 13.177393
-44.037812 -34.678452 13.925719
-43.599238 -33.722313 12.367046
-44.321228 -34.642212 12.130436
-43.711173 -34.280022 13.177393
-43.471429 -33.211016 11.57527
-43.599238 -33.722313 12.367046
-43.54854 -32.542456 10.754662
-44.286404 -33.415943 10.499481
-43.471429 -33.211016 11.57527
-53.345209 11.449048 6.33246
-54.090981 10.784379 6.259319
-54.165835 12.437916 5.90733
-52.469268 10.421986 6.813578
-53.345209 11.449048 6.33246
-53.642384 -15.78032 16.915092
-54.827564 -15.881737 16.966329
-52.451454 -15.715566 16.867607
-52.431598 -17.164237 17.453657
-53.642384 -15.78032 16.915092
-51.306621 -15.574582 16.844449
-52.451454 -15.715566 16.867607
-52.517406 -14.190665 16.305884
-55.361615 17.18511 16.475711
-56.418949 16.394363 15.68292
-54.987055 18.124626 16.058877
-55.361615 17.18511 16.475711
-55.599205 18.168753 14.831815
-54.987055 18.124626 16.058877
-57.417541 -35.07967 23.07781
-58.625325 -34.850254 23.576351
-58.180393 -33.817737 23.144571
-54.427857 -44.058746 16.720678
-54.183803 -43.55494 15.581064
-59.350065 -3.344122 10.923048
-58.359166 -4.552893 11.508918
-59.349955 -4.87514 11.688634
-63.911788 -3.274379 11.687286
-64.68414 -3.474029 12.169152
-64.521456 -2.14 11.471665
-59.349955 -4.87514 11.688634
-59.404873 -6.330869 12.442929
-60.395773 -5.122098 11.857059
-45.835425 -27.1941 4.813795
-45.357384 -28.000487 5.716382
-44.534514 -27.420551 5.811105
-47.239086 -26.83835 3.875377
-45.835425 -27.1941 4.813795
-40.760187 4.878362 10.454397
-41.312585 4.3683 10.799299
-40.153295 5.443623 10.198746
-40.760187 4.878362 10.454397
-40.830028 7.078097 10.190582
-39.669808 5.967742 9.76491
-40.153295 5.443623 10.198746
-37.464196 8.78679 7.32605
-37.880922 8.204603 7.856018
-37.751234 10.545506 7.836926
-37.181893 9.328302 6.641841
-37.464196 8.78679 7.32605
-37.181893 9.328302 6.641841
-36.983356 11.700567 6.686288
-49.549422 -40.186432 14.045355
-49.973799 -40.554062 14.960593
-48.958458 -39.797417 14.946853
-50.346907 -40.397896 13.06675
-49.549422 -40.186432 14.045355
-49.331566 -39.641251 13.053009
-51.260746 -40.534787 12.121139
-50.346907 -40.397896 13.06675
-51.225571 -39.81635 11.090217
-51.260746 -40.534787 12.121139
-51.225571 -39.81635 11.090217
-50.068905 -39.171574 11.108559
-49.373985 -35.313023 7.613239
-48.30599 -34.716175 7.823926
-42.428867 -25.094646 17.324014
-42.608984 -26.483044 17.354343
-42.363153 -23.613284 17.173372
-42.428867 -25.094646 17.324014
-43.089995 -23.785132 17.635022
-42.307159 -22.10668 17.052467
-42.363153 -23.613284 17.173372
-44.392996 -14.236231 16.09518
-44.207697 -15.968812 16.563536
-45.215988 -14.469804 16.342139
-43.587147 -13.948815 15.892983
-44.392996 -14.236231 16.09518
-44.595438 -12.449807 15.671585
-42.885656 -13.679443 15.538738
-43.587147 -13.948815 15.892983
-43.088513 -11.848354 15.168432
-42.18458 -13.365406 15.237782
-42.885656 -13.679443 15.538738
-62.956156 -24.950255 22.682787
-63.133413 -26.020156 23.222752
-61.90373 -25.161434 22.229109
-62.956156 -24.950255 22.682787
-62.742794 -23.856879 22.19566
-57.456009 -19.8227 18.908811
-58.612307 -18.506206 18.502264
-57.367529 -18.579177 18.331167
-57.716133 -22.26352 19.900318
-58.835356 -20.94367 19.596936
-57.581564 -21.069579 19.38329
-56.649608 -23.585034 20.101529
-57.716133 -22.26352 19.900318
-55.551193 -24.926428 20.314865
-56.649608 -23.585034 20.101529
-55.363926 -23.730823 19.900008
-54.515614 -26.259614 20.428262
-55.801296 -26.113826 20.629783
-55.551193 -24.926428 20.314865
-44.228122 -26.738399 18.201033
-44.428177 -28.081421 18.300702
-45.126759 -26.810035 18.595289
-43.342624 -26.63814 17.846055
-44.228122 -26.738399 18.201033
-44.041206 -25.366754 18.140642
-42.608984 -26.483044 17.354343
-43.342624 -26.63814 17.846055
-65.321297 6.761289 14.907205
-65.292984 6.703795 13.899884
-65.822075 5.833175 14.428003
-64.704639 7.690379 15.493468
-65.321297 6.761289 14.907205
-65.233731 6.819759 16.021588
-64.005348 8.563909 16.068413
-64.092914 8.505437 14.954031
-64.704639 7.690379 15.493468
-66.267514 4.895252 14.947705
-66.304676 4.927633 15.961419
-65.822075 5.833175 14.428003
-66.267514 4.895252 14.947705
-57.400627 17.029089 7.439938
-57.806591 16.202837 7.708559
-57.453373 17.393002 8.222419
-57.266864 16.625296 6.733265
-57.400627 17.029089 7.439938
-65.813987 0.98788 11.33571
-65.994423 2.01828 11.464789
-65.470627 0.007897 11.291294
-65.813987 0.98788 11.33571
-65.189842 1.164998 10.752066
-65.070144 -1.077317 11.33059
-65.470627 0.007897 11.291294
-64.297792 -0.877668 10.848724
-64.521456 -2.14 11.471665
-65.070144 -1.077317 11.33059
-47.015839 -31.672859 6.721125
-47.986759 -32.241726 6.472323
-46.140026 -30.995729 6.980556
-47.015839 -31.672859 6.721125
-45.736615 -31.90227 7.771582
-45.254311 -30.390646 7.205573
-46.533535 -30.161236 6.155116
-46.140026 -30.995729 6.980556
-43.021784 -28.147292 7.745719
-43.686004 -28.981938 7.591909
-42.651315 -28.902292 8.623937
-42.323168 -27.393834 7.839533
-43.357857 -27.47348 6.807506
-43.021784 -28.147292 7.745719
-40.629076 18.515993 8.49251
-41.350643 17.786782 8.593536
-39.864711 17.074185 8.575267
-40.629076 18.515993 8.49251
-39.983846 19.198134 8.268407
-38.054011 16.838663 7.88949
-38.643995 16.161734 8.21982
-38.629497 18.433255 8.020834
-37.590768 15.189915 7.615095
-38.054011 16.838663 7.88949
-44.166422 -34.434619 15.606528
-44.126612 -33.645095 16.446753
-43.60265 -33.367458 15.750879
-44.869673 -35.389204 15.41103
-44.166422 -34.434619 15.606528
-44.345711 -35.111566 14.715156
-47.330089 -34.033321 8.068206
-48.30599 -34.716175 7.823926
-47.074137 -34.911507 8.896242
-47.587185 -33.208695 7.254021
-47.330089 -34.033321 8.068206
-46.355331 -33.404026 8.326337
-47.986759 -32.241726 6.472323
-47.587185 -33.208695 7.254021
-49.0824 11.120873 7.922872
-48.921748 9.314665 8.404237
-49.903351 10.519569 7.766556
-48.27866 11.772589 8.107986
-49.0824 11.120873 7.922872
-57.247501 -15.970085 17.151356
-56.053218 -15.908263 17.042327
-57.298832 -17.272362 17.78888
-57.247501 -15.970085 17.151356
-56.142534 -18.588858 18.195426
-57.367529 -18.579177 18.331167
-57.298832 -17.272362 17.78888
-56.858101 16.398947 14.439392
-57.3457 15.543481 14.895927
-56.418949 16.394363 15.68292
-57.333195 16.388738 13.216107
-56.858101 16.398947 14.439392
-56.406444 17.23962 14.0031
-57.662273 16.303455 12.040903
-58.113929 15.462782 12.477196
-57.333195 16.388738 13.216107
-57.216007 17.123079 11.634922
-57.996742 16.197123 10.896011
-57.662273 16.303455 12.040903
-56.89344 18.016678 11.268429
-57.216007 17.123079 11.634922
-57.202194 17.87929 10.16387
-56.89344 18.016678 11.268429
-63.424357 -31.53993 25.374323
-64.063482 -30.241911 25.400246
-63.424357 -31.53993 25.374323
-62.407282 -31.801021 24.755845
-60.526657 -33.341907 24.192629
-61.334453 -32.051353 24.214186
-60.195972 -32.297768 23.664669
-60.526657 -33.341907 24.192629
-59.780712 -34.618151 24.170212
-53.000639 -42.470768 18.998978
-52.832147 -41.748604 19.677802
-52.177295 -41.591183 18.713569
-53.000639 -42.470768 18.998978
-53.298221 -43.130974 18.311087
-54.872517 -44.383877 17.790647
-53.805996 -43.62347 17.51746
-54.427857 -44.058746 16.720678
-55.124285 -6.803458 12.829982
-56.206776 -7.061906 12.859227
-55.236835 -5.161602 12.065277
-54.098044 -6.469005 12.801362
-55.124285 -6.803458 12.829982
-57.311177 -4.258965 11.418615
-57.311066 -5.789983 12.1842
-58.359166 -4.552893 11.508918
-64.878743 -4.741858 12.866115
-64.68414 -3.474029 12.169152
-64.878743 -4.741858 12.866115
-64.213234 -5.918413 13.12827
-60.499389 -7.989761 13.37041
-61.510863 -8.182745 13.632136
-61.462164 -6.770812 12.873079
-60.499389 -7.989761 13.37041
-59.404076 -7.819499 13.204835
-47.556958 -28.301305 4.551554
-47.05172 -29.192363 5.382084
-46.153058 -28.665094 5.549603
-47.556958 -28.301305 4.551554
-48.153526 -27.285937 3.784858
-40.295007 -3.673785 11.611211
-40.731367 -4.087032 12.144278
-40.295007 -3.673785 11.611211
-40.402 -1.558161 11.390911
-39.124098 6.544576 9.418858
-39.669808 5.967742 9.76491
-39.677428 8.220192 9.588878
-38.709719 7.079879 8.898237
-38.649839 9.380172 8.80486
-38.22784 7.663025 8.460271
-39.124098 6.544576 9.418858
-38.709719 7.079879 8.898237
-50.936554 -41.351191 15.058425
-50.345591 -40.962176 15.959922
-49.973799 -40.554062 14.960593
-52.02402 -42.074917 15.176492
-50.936554 -41.351191 15.058425
-53.050515 -42.844435 15.371361
-52.334841 -42.528822 16.252622
-52.02402 -42.074917 15.176492
-54.183803 -43.55494 15.581064
-53.050515 -42.844435 15.371361
-48.936476 -37.811256 10.267867
-49.016623 -38.453938 11.169789
-47.94434 -37.774761 11.294942
-48.936476 -37.811256 10.267867
-49.033533 -37.002725 9.346666
-50.450403 -35.952528 7.437415
-49.126455 -36.233866 8.476137
-49.373985 -35.313023 7.613239
-42.351584 -20.516228 16.806864
-42.307159 -22.10668 17.052467
-43.068705 -20.713318 17.238778
-43.248917 -17.429053 16.654877
-44.071909 -17.662625 16.901835
-44.207697 -15.968812 16.563536
-42.40547 -18.892893 16.595839
-43.248917 -17.429053 16.654877
-42.351584 -20.516228 16.806864
-42.40547 -18.892893 16.595839
-41.6079 -13.065485 14.768149
-42.18458 -13.365406 15.237782
-41.6079 -13.065485 14.768149
-41.793492 -11.197845 14.459296
-40.923576 -8.548814 13.173724
-41.410118 -8.905415 13.690115
-41.093508 -6.553389 12.893566
-40.923576 -8.548814 13.173724
-52.795399 -9.480135 14.282021
-52.698996 -11.068554 15.004032
-51.75463 -9.184183 14.287761
-52.795399 -9.480135 14.282021
-52.944723 -7.81491 13.571807
-41.303699 -4.52996 12.49117
-41.093508 -6.553389 12.893566
-41.830881 -4.926028 12.926718
-41.46874 -2.45967 12.17743
-40.731367 -4.087032 12.144278
-41.303699 -4.52996 12.49117
-41.807344 1.728573 11.408271
-41.04233 0.103511 11.491452
-41.661423 -0.391679 11.747357
-41.976478 3.817403 10.968114
-41.807344 1.728573 11.408271
-42.595571 3.322212 11.22402
-42.100813 5.961939 10.615048
-41.312585 4.3683 10.799299
-41.976478 3.817403 10.968114
-46.667184 13.055217 8.419462
-47.469663 12.387921 8.248349
-45.691131 11.778056 8.941644
-46.667184 13.055217 8.419462
-45.875513 13.686642 8.519827
-42.799364 16.389719 8.726557
-42.631161 14.372208 9.086099
-43.53362 15.724569 8.762781
-42.044124 17.109438 8.718789
-42.799364 16.389719 8.726557
-63.850779 -29.201765 24.801821
-64.063482 -30.241911 25.400246
-64.764836 -28.937126 25.432524
-62.880596 -29.453522 24.235721
-63.850779 -29.201765 24.801821
-63.58195 -28.148737 24.267999
-62.364429 -27.327652 23.209068
-63.38075 -27.092997 23.715584
-63.133413 -26.020156 23.222752
-59.796425 -18.460018 18.724676
-58.612307 -18.506206 18.502264
-59.796425 -18.460018 18.724676
-59.892024 -19.645612 19.338769
-61.517956 -22.951255 21.229157
-62.596552 -22.771963 21.636475
-60.516022 -24.256577 21.392392
-61.517956 -22.951255 21.229157
-59.578436 -25.566014 21.474111
-60.752783 -25.377494 21.8237
-60.516022 -24.256577 21.392392
-58.574482 -26.886083 21.584494
-59.578436 -25.566014 21.474111
-57.63709 -28.200364 21.624899
-58.877805 -28.00121 21.945822
-58.574482 -26.886083 21.584494
-56.669349 -29.520989 21.657052
-57.63709 -28.200364 21.624899
-56.366026 -28.405861 21.295724
-43.840847 -29.275474 17.890753
-44.739483 -29.34711 18.28501
-44.428177 -28.081421 18.300702
-43.41761 -30.393902 17.347158
-43.840847 -29.275474 17.890753
-43.122954 -31.412288 16.705179
-43.857496 -31.559548 17.233082
-43.41761 -30.393902 17.347158
-43.023026 -32.319948 15.940133
-43.122954 -31.412288 16.705179
-64.78656 7.520961 13.386188
-65.287338 6.592847 12.906986
-65.292984 6.703795 13.899884
-62.221388 10.763258 13.307392
-62.98614 9.91527 12.746046
-62.848332 10.042172 13.858637
-61.425286 11.620157 13.866288
-61.563093 11.493254 12.753698
-62.221388 10.763258 13.307392
-63.201366 9.406674 16.728675
-64.005348 8.563909 16.068413
-62.515308 10.17857 16.180688
-63.201366 9.406674 16.728675
-62.738602 10.134563 14.974479
-62.515308 10.17857 16.180688
-60.504136 12.40856 14.517786
-61.425286 11.620157 13.866288
-59.583652 13.218976 15.184717
-59.846508 13.160569 13.979524
-60.504136 12.40856 14.517786
-58.53759 13.958687 15.902038
-59.583652 13.218976 15.184717
-57.916286 14.754942 15.392954
-58.53759 13.958687 15.902038
-65.661365 4.771864 11.451438
-65.946526 4.74421 12.193027
-65.342511 5.547713 11.126774
-65.468132 4.691676 10.859222
-65.661365 4.771864 11.451438
-56.151032 14.870683 5.634467
-56.730323 14.125708 5.737372
-56.632843 15.548805 5.817569
-55.481769 15.574789 5.625222
-55.57925 14.151692 5.545025
-56.151032 14.870683 5.634467
-54.904736 16.332903 5.616447
-55.481769 15.574789 5.625222
-54.234703 15.57151 5.612409
-54.904736 16.332903 5.616447
-41.061617 -28.772359 11.565787
-41.545778 -29.852139 11.415749
-41.071377 -28.281841 10.693298
-41.061617 -28.772359 11.565787
-41.78573 -28.685485 9.673423
-41.071377 -28.281841 10.693298
-56.684365 -36.317039 22.938728
-57.417541 -35.07967 23.07781
-56.239433 -35.284523 22.506949
-56.032343 -37.524603 22.788145
-54.940182 -37.678038 22.111864
-55.466268 -38.680748 22.532143
-56.684365 -36.317039 22.938728
-56.032343 -37.524603 22.788145
-53.686811 -41.763523 20.511743
-52.863468 -40.883938 20.226333
-52.832147 -41.748604 19.677802
-54.461281 -41.816042 21.444647
-53.686811 -41.763523 20.511743
-55.415106 -41.747755 22.247202
-54.671957 -40.83057 21.862829
-54.461281 -41.816042 21.444647
-56.284546 -41.710865 23.148948
-55.415106 -41.747755 22.247202
-56.643728 -40.627777 23.445965
-56.284546 -41.710865 23.148948
3 0 61 59
3 0 243 245
3 243 59 244
3 243 244 245
3 246 67 247
3 248 247 65
3 246 247 248
3 1 249 251
3 251 250 68
3 249 250 251
3 1 252 253
3 254 65 255
3 2 74 72
3 3 77 75
3 5 80 78
3 5 82 80
3 3 85 83
3 3 75 85
3 257 256 87
3 6 90 89
3 258 93 259
3 260 259 91
3 258 259 260
3 262 261 93
3 7 96 94
3 9 99 97
3 9 100 99
3 9 263 265
3 265 264 100
3 263 264 265
3 10 102 101
3 11 104 103
3 11 106 104
3 4 109 107
3 12 112 110
3 12 114 112
3 12 116 114
3 266 118 267
3 13 121 119
3 13 122 121
3 13 124 122
3 10 127 125
3 10 101 127
3 269 268 128
3 270 128 271
3 14 132 130
3 272 135 273
3 274 273 133
3 272 273 274
3 276 275 135
3 8 139 137
3 15 142 140
3 17 143 60
3 17 144 143
3 15 145 62
3 15 140 145
3 18 147 146
3 20 148 63
3 20 277 279
3 279 278 148
3 277 278 279
3 280 151 281
3 282 281 149
3 280 281 282
3 283 152 284
3 286 285 152
3 22 155 153
3 24 287 289
3 287 156 288
3 287 288 289
3 24 157 156
3 24 159 157
3 18 160 64
3 18 146 160
3 26 163 161
3 28 164 66
3 28 165 164
3 29 168 166
3 290 169 291
3 292 291 69
3 290 291 292
3 293 170 294
3 295 294 169
3 293 294 295
3 297 296 170
3 31 298 300
3 298 172 299
3 298 299 300
3 31 173 172
3 31 175 173
3 26 176 70
3 26 161 176
3 301 179 302
3 303 302 177
3 301 302 303
3 305 304 71
3 34 306 308
3 308 307 180
3 306 307 308
3 310 309 73
3 35 311 313
3 313 312 181
3 311 312 313
3 314 182 315
3 37 183 76
3 37 184 183
3 16 185 141
3 38 186 79
3 38 187 186
3 38 188 187
3 39 189 81
3 39 190 189
3 40 316 318
3 318 317 84
3 316 317 318
3 40 319 320
3 40 321 322
3 324 323 86
3 19 325 326
3 328 327 88
3 330 329 191
3 21 192 150
3 332 331 92
3 41 195 193
3 43 196 95
3 43 197 196
3 23 198 154
3 44 199 98
3 44 200 199
3 44 201 200
3 25 333 335
3 335 334 158
3 333 334 335
3 27 202 162
3 45 336 338
3 338 337 105
3 336 337 338
3 45 339 341
3 339 203 340
3 339 340 341
3 36 342 344
3 342 204 343
3 342 343 344
3 46 205 108
3 46 206 205
3 30 207 167
3 47 208 111
3 47 209 208
3 47 210 209
3 48 211 113
3 48 212 211
3 48 213 212
3 49 214 115
3 49 215 214
3 345 216 346
3 347 346 171
3 345 346 347
3 348 217 349
3 350 218 351
3 352 351 217
3 350 351 352
3 354 353 218
3 355 219 356
3 50 220 117
3 50 221 220
3 358 357 120
3 51 359 360
3 51 361 363
3 361 222 362
3 361 362 363
3 51 223 222
3 52 224 123
3 52 225 224
3 32 226 174
3 53 227 126
3 53 228 227
3 53 229 228
3 364 232 365
3 366 365 230
3 364 365 366
3 55 233 129
3 55 367 369
3 369 368 233
3 367 368 369
3 370 230 371
3 54 234 231
3 56 235 131
3 56 236 235
3 33 237 178
3 57 238 134
3 57 239 238
3 57 240 239
3 372 241 373
3 374 373 136
3 372 373 374
3 376 375 241
3 42 242 194
3 58 377 379
3 379 378 138
3 377 378 379
3 58 380 381
3 59 60 15
3 61 60 59
3 61 17 60
3 382 62 383
3 59 384 386
3 384 62 385
3 384 385 386
3 59 15 62
3 387 63 388
3 389 388 18
3 387 388 389
3 390 63 391
3 392 20 393
3 394 393 63
3 392 393 394
3 396 395 22
3 397 24 398
3 399 64 400
3 401 400 24
3 399 400 401
3 402 64 403
3 404 18 405
3 406 405 64
3 404 405 406
3 65 66 26
3 67 66 65
3 67 28 66
3 68 69 29
3 407 69 408
3 409 408 68
3 407 408 409
3 411 410 69
3 412 31 413
3 414 70 415
3 416 415 31
3 414 415 416
3 65 417 419
3 417 70 418
3 417 418 419
3 65 26 70
3 420 71 421
3 422 71 423
3 425 424 71
3 72 73 34
3 74 73 72
3 74 426 428
3 428 427 73
3 426 427 428
3 430 429 35
3 75 431 433
3 431 76 432
3 431 432 433
3 77 76 75
3 77 37 76
3 78 79 16
3 80 79 78
3 80 38 79
3 80 81 38
3 82 81 80
3 82 39 81
3 83 434 436
3 434 84 435
3 434 435 436
3 85 84 83
3 85 40 84
3 85 86 40
3 75 86 85
3 75 437 439
3 439 438 86
3 437 438 439
3 87 88 19
3 440 88 441
3 442 441 87
3 440 441 442
3 444 443 88
3 89 445 446
3 90 447 449
3 449 448 89
3 447 448 449
3 90 450 451
3 91 92 21
3 93 92 91
3 93 452 454
3 454 453 92
3 452 453 454
3 93 455 456
3 458 457 93
3 94 95 41
3 96 95 94
3 96 43 95
3 97 98 23
3 99 98 97
3 99 44 98
3 99 459 461
3 461 460 44
3 459 460 461
3 100 462 464
3 464 463 99
3 462 463 464
3 100 465 466
3 100 467 468
3 470 469 100
3 472 471 25
3 101 473 474
3 102 475 477
3 477 476 101
3 475 476 477
3 102 478 479
3 103 480 482
3 482 481 27
3 480 481 482
3 104 483 485
3 485 484 103
3 483 484 485
3 104 486 487
3 104 488 490
3 488 105 489
3 488 489 490
3 106 105 104
3 106 45 105
3 107 108 36
3 109 108 107
3 109 46 108
3 110 111 30
3 112 111 110
3 112 47 111
3 112 113 47
3 114 113 112
3 114 48 113
3 114 115 48
3 116 115 114
3 116 49 115
3 491 117 492
3 118 493 495
3 493 117 494
3 493 494 495
3 118 50 117
3 119 496 498
3 496 120 497
3 496 497 498
3 121 120 119
3 121 499 501
3 501 500 120
3 499 500 501
3 121 502 503
3 122 504 506
3 506 505 121
3 504 505 506
3 122 507 509
3 507 51 508
3 507 508 509
3 122 123 51
3 124 123 122
3 124 52 123
3 125 126 32
3 127 126 125
3 127 53 126
3 127 510 512
3 512 511 53
3 510 511 512
3 101 513 515
3 515 514 127
3 513 514 515
3 101 516 517
3 128 518 520
3 518 129 519
3 518 519 520
3 521 129 522
3 523 522 128
3 521 522 523
3 524 55 525
3 526 525 129
3 524 525 526
3 128 527 528
3 128 529 530
3 130 131 54
3 132 131 130
3 132 56 131
3 133 134 33
3 135 134 133
3 135 57 134
3 135 136 57
3 531 136 532
3 533 532 135
3 531 532 533
3 535 534 136
3 137 138 42
3 139 138 137
3 139 58 138
3 140 141 3
3 142 141 140
3 142 16 141
3 60 142 15
3 143 142 60
3 143 16 142
3 143 78 16
3 144 78 143
3 144 5 78
3 62 536 537
3 145 538 540
3 540 539 62
3 538 539 540
3 145 541 542
3 145 543 545
3 543 83 544
3 543 544 545
3 140 83 145
3 140 3 83
3 146 546 547
3 147 548 550
3 550 549 146
3 548 549 550
3 147 551 553
3 551 19 552
3 551 552 553
3 63 147 18
3 148 147 63
3 148 19 147
3 148 87 19
3 554 87 555
3 556 555 148
3 554 555 556
3 559 558 87
3 557 558 559
3 149 150 6
3 151 150 149
3 151 21 150
3 560 151 561
3 152 562 564
3 562 151 563
3 562 563 564
3 152 21 151
3 152 91 21
3 565 91 566
3 567 566 152
3 565 566 567
3 569 568 91
3 153 154 7
3 155 154 153
3 155 23 154
3 570 155 571
3 572 571 22
3 570 571 572
3 156 573 575
3 573 155 574
3 573 574 575
3 156 23 155
3 156 97 23
3 157 97 156
3 157 9 97
3 157 158 9
3 159 158 157
3 159 25 158
3 64 159 24
3 160 159 64
3 160 25 159
3 160 576 578
3 578 577 25
3 576 577 578
3 146 579 581
3 581 580 160
3 579 580 581
3 146 582 583
3 161 162 10
3 163 162 161
3 163 27 162
3 66 163 26
3 164 163 66
3 164 27 163
3 164 103 27
3 165 103 164
3 165 11 103
3 166 167 4
3 168 167 166
3 168 30 167
3 69 168 29
3 169 168 69
3 169 30 168
3 169 110 30
3 170 110 169
3 170 12 110
3 170 171 12
3 584 171 585
3 586 585 170
3 584 585 586
3 588 587 171
3 172 589 590
3 172 591 592
3 172 593 595
3 593 119 594
3 593 594 595
3 173 119 172
3 173 13 119
3 173 174 13
3 175 174 173
3 175 32 174
3 70 175 31
3 176 175 70
3 176 32 175
3 176 125 32
3 161 125 176
3 161 10 125
3 177 178 14
3 179 178 177
3 179 33 178
3 71 596 598
3 596 179 597
3 596 597 598
3 599 179 600
3 601 600 71
3 599 600 601
3 602 33 603
3 604 603 179
3 602 603 604
3 605 133 606
3 607 606 33
3 605 606 607
3 608 133 609
3 611 610 133
3 180 612 613
3 615 614 180
3 73 616 618
3 618 617 34
3 616 617 618
3 620 619 73
3 181 621 623
3 623 622 8
3 621 622 623
3 625 624 181
3 628 627 35
3 626 627 628
3 182 629 630
3 182 631 633
3 631 36 632
3 631 632 633
3 76 634 636
3 634 182 635
3 634 635 636
3 183 182 76
3 183 36 182
3 183 107 36
3 184 107 183
3 184 4 107
3 141 77 3
3 185 77 141
3 185 37 77
3 79 185 16
3 186 185 79
3 186 37 185
3 186 184 37
3 187 184 186
3 187 4 184
3 187 166 4
3 188 166 187
3 188 29 166
3 81 188 38
3 189 188 81
3 189 29 188
3 189 68 29
3 190 68 189
3 190 1 68
3 84 637 638
3 640 639 84
3 86 641 643
3 643 642 40
3 641 642 643
3 645 644 86
3 88 646 648
3 648 647 19
3 646 647 648
3 650 649 88
3 191 651 652
3 654 653 191
3 150 90 6
3 192 90 150
3 192 655 657
3 657 656 90
3 655 656 657
3 92 192 21
3 658 192 659
3 660 659 92
3 658 659 660
3 662 661 192
3 193 194 2
3 195 194 193
3 195 42 194
3 95 195 41
3 196 195 95
3 196 42 195
3 196 137 42
3 197 137 196
3 197 8 137
3 154 96 7
3 198 96 154
3 198 43 96
3 98 198 23
3 199 198 98
3 199 43 198
3 199 197 43
3 200 197 199
3 200 8 197
3 200 181 8
3 201 181 200
3 201 35 181
3 663 201 664
3 665 664 44
3 663 664 665
3 666 201 667
3 668 35 669
3 670 669 201
3 668 669 670
3 672 671 35
3 158 673 675
3 675 674 9
3 673 674 675
3 677 676 158
3 680 679 25
3 678 679 680
3 162 102 10
3 202 102 162
3 202 681 683
3 683 682 102
3 681 682 683
3 684 202 685
3 686 685 27
3 684 685 686
3 687 202 688
3 690 689 202
3 105 691 692
3 694 693 105
3 203 695 696
3 203 697 698
3 699 67 700
3 204 701 703
3 701 67 702
3 701 702 703
3 204 28 67
3 108 204 36
3 205 204 108
3 205 28 204
3 205 165 28
3 206 165 205
3 206 11 165
3 167 109 4
3 207 109 167
3 207 46 109
3 111 207 30
3 208 207 111
3 208 46 207
3 208 206 46
3 209 206 208
3 209 11 206
3 209 106 11
3 210 106 209
3 210 45 106
3 113 210 47
3 211 210 113
3 211 45 210
3 211 203 45
3 212 203 211
3 212 704 706
3 706 705 203
3 704 705 706
3 212 707 709
3 707 191 708
3 707 708 709
3 213 191 212
3 213 710 712
3 712 711 191
3 710 711 712
3 115 213 48
3 214 213 115
3 214 713 715
3 715 714 213
3 713 714 715
3 214 716 718
3 716 89 717
3 716 717 718
3 215 89 214
3 215 6 89
3 171 116 12
3 216 116 171
3 216 49 116
3 719 216 720
3 217 721 723
3 721 216 722
3 721 722 723
3 217 49 216
3 217 215 49
3 218 215 217
3 218 6 215
3 218 149 6
3 724 149 725
3 726 725 218
3 724 725 726
3 728 727 149
3 729 180 730
3 729 730 731
3 219 732 734
3 732 180 733
3 732 733 734
3 219 34 180
3 117 735 737
3 735 219 736
3 735 736 737
3 220 219 117
3 220 34 219
3 220 72 34
3 221 72 220
3 221 2 72
3 120 738 739
3 741 740 120
3 742 118 743
3 744 118 745
3 746 50 747
3 748 747 118
3 746 747 748
3 749 50 750
3 751 221 752
3 753 752 50
3 751 752 753
3 222 754 756
3 754 221 755
3 754 755 756
3 222 2 221
3 222 193 2
3 223 193 222
3 223 41 193
3 123 223 51
3 224 223 123
3 224 41 223
3 224 94 41
3 225 94 224
3 225 7 94
3 174 124 13
3 226 124 174
3 226 52 124
3 126 226 32
3 227 226 126
3 227 52 226
3 227 225 52
3 228 225 227
3 228 7 225
3 228 153 7
3 229 153 228
3 229 22 153
3 757 229 758
3 759 758 53
3 757 758 759
3 760 229 761
3 762 22 763
3 764 763 229
3 762 763 764
3 766 765 22
3 230 231 0
3 232 231 230
3 232 54 231
3 129 767 769
3 767 232 768
3 767 768 769
3 233 232 129
3 233 54 232
3 233 130 54
3 770 130 771
3 772 771 233
3 770 771 772
3 773 14 774
3 775 774 130
3 773 774 775
3 776 55 777
3 778 55 779
3 781 780 55
3 782 14 783
3 784 177 785
3 786 785 14
3 784 785 786
3 787 177 788
3 790 789 177
3 230 791 792
3 230 793 795
3 793 0 794
3 793 794 795
3 231 61 0
3 234 61 231
3 234 17 61
3 131 234 54
3 235 234 131
3 235 17 234
3 235 144 17
3 236 144 235
3 236 5 144
3 178 132 14
3 237 132 178
3 237 56 132
3 134 237 33
3 238 237 134
3 238 56 237
3 238 236 56
3 239 236 238
3 239 5 236
3 239 82 5
3 240 82 239
3 240 39 82
3 136 240 57
3 241 240 136
3 241 39 240
3 241 190 39
3 796 190 797
3 798 797 241
3 796 797 798
3 799 1 800
3 801 800 190
3 799 800 801
3 802 1 803
3 805 804 1
3 806 20 807
3 808 20 809
3 811 810 20
3 194 74 2
3 242 74 194
3 242 812 814
3 814 813 74
3 812 813 814
3 138 242 42
3 815 242 816
3 817 816 138
3 815 816 817
3 819 818 242
3 820 139 821
3 822 821 8
3 820 821 822
3 823 139 824
3 825 58 826
3 827 826 139
3 825 826 827
3 828 58 829
3 831 830 58
