ply
format ascii 1.0
element vertex 333
property float x
property float y
property float z
element face 338
property list uchar int vertex_index
end_header
2.688457 34.248611 -29.277363
0.115778 69.983734 -29.817879
-1.18479 40.450409 -33.002716
-8.144985 24.716984 -29.674873
-2.257914 19.18018 -28.632885
-2.803162 57.736675 -34.180843
2.193407 53.746761 -32.191376
1.16543 37.729015 -31.815128
-1.395979 30.22887 -30.842606
0.845982 26.91135 -29.468475
-1.804882 76.73317 -26.795479
-0.881121 64.389847 -32.993835
0.400566 56.405552 -33.99649
1.394388 62.238316 -31.679756
3.799892 30.362846 -25.525734
2.56995 23.08213 -27.004913
-4.415627 42.084679 -33.216183
-4.291096 32.706596 -31.412994
-5.013493 22.362289 -29.237339
-1.628469 49.605556 -34.284069
1.047157 47.551693 -33.540833
2.594971 44.470856 -31.281952
2.948895 50.221645 -28.769985
3.438866 40.77092 -27.537083
-11.540688 26.172657 -30.203587
2.010839 36.060661 -30.720894
1.056538 32.435429 -30.662239
1.918493 30.659111 -29.542294
-0.749981 73.511032 -28.439369
-2.263905 74.258835 -28.957314
-1.16083 70.939316 -30.455956
-1.800434 68.046417 -31.972466
-0.258581 67.336823 -31.665176
0.467056 63.4995 -32.558445
0.8225 66.212265 -30.906223
-2.70083 41.417698 -33.199356
-4.250193 37.534142 -32.414478
-2.640993 36.637672 -32.278957
-1.742285 24.777267 -29.688919
-3.076263 26.311123 -30.062462
-3.583618 20.862389 -28.983982
1.513535 19.258785 -27.330284
-3.701084 61.448177 -33.565483
-4.894196 57.838642 -33.759888
-4.030422 54.113628 -34.173588
-3.386063 50.145458 -34.203423
-2.117672 53.79211 -34.420483
1.464918 55.216747 -33.307117
0.79631 52.091961 -33.948784
1.764599 50.774784 -33.136276
1.946867 46.113552 -32.612999
2.439232 49.216976 -31.90659
3.21595 45.608654 -28.296577
-7.804365 29.541306 -30.694897
-9.562061 30.127251 -30.875393
-9.81579 25.552319 -29.927124
0.10648 39.207642 -32.562283
-1.210829 35.46701 -31.985031
0.021528 34.052757 -31.465839
-0.194881 28.655914 -30.283848
-0.543606 23.063526 -29.1353
-3.591421 77.231735 -27.19939
-4.294033 74.524994 -29.025089
-2.656719 64.867355 -32.994308
-1.739536 61.176167 -33.814995
-1.025951 57.257084 -34.275093
-0.153492 60.504551 -33.675175
1.036425 59.456226 -33.112019
1.847872 58.082653 -32.114391
-8.755299 19.728558 -28.695126
-10.354362 20.797462 -28.976776
3.262436 32.335884 -27.522545
2.652588 28.768044 -28.111641
3.314564 26.806938 -26.411194
3.338104 21.094456 -25.402695
-0.55839 75.744156 -25.957634
0.254669 72.311401 -27.483719
0.927254 68.624237 -28.745403
-5.951948 33.557022 -31.549202
-6.125244 28.711426 -30.513981
-2.76499 31.590233 -31.197124
-4.542412 27.630928 -30.317356
-6.539042 23.652767 -29.452209
1.753889 25.038158 -28.372429
0.5327 21.209332 -28.355816
-2.946724 45.918415 -33.864342
-1.321341 45.162533 -33.794849
-0.498903 53.111942 -34.362381
-0.143183 48.731274 -34.08223
0.054691 44.100449 -33.463223
1.165987 42.768185 -32.807384
2.024378 41.213291 -31.781368
2.67326 39.485641 -30.374378
1.958498 60.674709 -30.37833
2.345711 56.452869 -30.698826
2.630482 54.638821 -28.908733
2.655136 52.061031 -30.663704
2.891411 47.47765 -30.276058
3.062805 42.675514 -29.570026
3.181835 37.631119 -28.617043
3.629471 35.688744 -26.576145
-3.278918 17.254888 -28.343117
-3.94177 18.095993 -28.518666
-2.920766 20.021285 -28.808433
-2.698151 76.982452 -26.997435
-3.33511 78.403793 -26.056415
-2.441841 78.154511 -25.85446
-3.612862 72.983162 -29.831736
-3.278969 74.391915 -28.991202
-2.597798 72.850082 -29.797848
-4.733162 73.003388 -29.70459
-3.612862 72.983162 -29.831736
-9.96984 17.833081 -28.413599
-9.200162 17.194387 -28.272821
3.715445 20.11487 -24.510603
3.647194 22.959057 -24.954234
3.328157 18.188562 -24.993529
3.715445 20.11487 -24.510603
-0.182497 75.03003 -25.341923
-0.556762 76.69178 -24.516531
0.224032 73.313652 -26.104965
-0.151861 74.027779 -26.720676
-0.182497 75.03003 -25.341923
0.537083 71.520386 -26.810719
0.224032 73.313652 -26.104965
-5.212928 40.113781 -32.831047
-5.356033 42.266466 -33.158411
-6.109451 20.407716 -28.853115
-6.872225 21.052956 -28.96055
-5.776268 23.007528 -29.344774
0.319052 18.31033 -27.889606
1.023118 20.234058 -27.84305
0.80947 17.335056 -27.376841
-0.250303 19.279554 -28.241354
0.319052 18.31033 -27.889606
1.208071 66.679642 -29.232126
1.143283 67.782227 -28.016409
2.108781 59.781326 -29.538433
1.897155 61.83107 -29.264219
2.302388 57.670406 -29.698681
2.152105 58.563789 -30.538578
2.108781 59.781326 -29.538433
2.789689 52.430233 -28.839359
2.725644 53.670673 -27.860561
2.88485 51.462086 -27.791187
-11.464137 28.333657 -30.624399
-10.474824 30.310954 -30.960302
-10.551374 28.149954 -30.53949
-12.42774 26.390017 -30.34103
-11.464137 28.333657 -30.624399
-11.17353 21.230797 -29.145717
-11.550063 18.915458 -28.737164
-2.046261 71.190323 -30.547169
-2.597798 72.850082 -29.797848
-1.712368 72.599075 -29.706635
-1.480632 69.492867 -31.214211
-2.366063 69.743874 -31.305424
-2.046261 71.190323 -30.547169
3.878088 27.593252 -25.015753
4.077423 29.366156 -24.449232
-4.650311 18.921326 -28.627482
-5.365249 19.671276 -28.75416
-4.298555 21.612339 -29.110661
-4.650311 18.921326 -28.627482
-3.94177 18.095993 -28.518666
1.972884 18.260809 -26.697496
2.041742 21.170457 -27.167598
2.501091 20.172481 -26.534811
1.347301 16.335735 -26.91506
1.972884 18.260809 -26.697496
0.80947 17.335056 -27.376841
1.347301 16.335735 -26.91506
-4.846928 61.389126 -33.269688
-4.264625 63.18627 -33.080141
-5.443485 59.584358 -33.36689
-4.846928 61.389126 -33.269688
-4.29764 59.64341 -33.662685
-6.072098 57.713066 -33.410978
-5.443485 59.584358 -33.36689
-5.544218 55.962505 -33.714407
-6.072098 57.713066 -33.410978
-5.11233 54.099998 -33.921257
-5.544218 55.962505 -33.714407
-4.462309 55.976135 -33.966738
-4.704403 52.230312 -34.032385
-5.11233 54.099998 -33.921257
-3.708242 52.129543 -34.188506
-4.382224 50.246227 -34.047303
-4.704403 52.230312 -34.032385
3.066959 49.249527 -27.67689
2.88485 51.462086 -27.791187
3.200487 46.943032 -27.440185
3.082422 47.915149 -28.533281
3.066959 49.249527 -27.67689
3.364372 44.628275 -27.172697
3.200487 46.943032 -27.440185
3.47583 42.209408 -26.79295
3.327408 43.189787 -27.91683
3.364372 44.628275 -27.172697
3.624599 39.779869 -26.403591
3.47583 42.209408 -26.79295
-8.683213 29.834278 -30.785145
-8.642602 32.133001 -31.258869
-7.763754 31.840029 -31.168621
-4.375396 78.5093 -26.20829
-3.33511 78.403793 -26.056415
-4.745607 77.23407 -27.185555
-4.375396 78.5093 -26.20829
-5.096913 75.880699 -28.098404
-4.745607 77.23407 -27.185555
-3.942727 75.878365 -28.11224
-5.545467 74.424706 -28.850065
-5.096913 75.880699 -28.098404
-5.545467 74.424706 -28.850065
-4.733162 73.003388 -29.70459
-2.797983 68.180038 -31.905539
-2.366063 69.743874 -31.305424
-3.226126 66.590508 -32.41646
-2.797983 68.180038 -31.905539
-2.228576 66.456886 -32.483387
-3.742443 64.895859 -32.794553
-3.226126 66.590508 -32.41646
-3.178901 63.157766 -33.279895
-4.264625 63.18627 -33.080141
-3.742443 64.895859 -32.794553
-10.769372 18.367532 -28.554424
-9.554831 20.26301 -28.835951
-9.96984 17.833081 -28.413599
-11.550063 18.915458 -28.737164
-10.769372 18.367532 -28.554424
3.635424 25.815298 -25.458483
3.557228 28.584892 -25.968464
3.878088 27.593252 -25.015753
3.326334 23.950697 -25.906945
3.635424 25.815298 -25.458483
3.647194 22.959057 -24.954234
2.885168 19.178645 -25.733702
2.501091 20.172481 -26.534811
2.954027 22.088293 -26.203804
2.885168 19.178645 -25.733702
3.328157 18.188562 -24.993529
-1.676934 77.792595 -25.49299
-2.441841 78.154511 -25.85446
-1.053688 77.298088 -25.074068
-0.556762 76.69178 -24.516531
-1.181636 76.238663 -26.376556
-1.676934 77.792595 -25.49299
-1.053688 77.298088 -25.074068
0.873375 69.676804 -27.441561
0.590962 70.467819 -28.114561
0.537083 71.520386 -26.810719
1.143283 67.782227 -28.016409
0.873375 69.676804 -27.441561
-5.130211 37.838513 -32.430194
-5.212928 40.113781 -32.831047
-4.33291 39.80941 -32.815331
-5.981089 35.849953 -31.997557
-5.130211 37.838513 -32.430194
-5.101071 35.545582 -31.98184
-6.837546 33.847887 -31.595773
-5.981089 35.849953 -31.997557
-6.878156 31.549164 -31.12205
-7.763754 31.840029 -31.168621
-6.837546 33.847887 -31.595773
-7.980354 19.090851 -28.582009
-7.647171 21.690663 -29.073667
-6.872225 21.052956 -28.96055
-9.200162 17.194387 -28.272821
-7.980354 19.090851 -28.582009
-6.109451 20.407716 -28.853115
-5.365249 19.671276 -28.75416
-0.788456 20.206651 -28.631096
-0.005453 22.136429 -28.745558
-0.250303 19.279554 -28.241354
-1.64561 18.264978 -28.379888
-1.40076 21.121853 -28.884093
-0.788456 20.206651 -28.631096
-2.607327 16.354485 -28.195534
-1.64561 18.264978 -28.379888
-3.278918 17.254888 -28.343117
-2.607327 16.354485 -28.195534
-4.602447 44.218481 -33.472805
-5.356033 42.266466 -33.158411
-4.087665 48.24887 -33.966425
-4.382224 50.246227 -34.047303
-3.867996 46.135349 -33.796885
-4.087665 48.24887 -33.966425
-3.166393 48.031937 -34.033883
-3.681176 44.001547 -33.540262
-4.602447 44.218481 -33.472805
-3.867996 46.135349 -33.796885
1.155694 65.473656 -30.312536
0.874877 67.418251 -29.825813
1.208071 66.679642 -29.232126
1.441638 63.486681 -30.699303
1.108444 64.22529 -31.29299
1.155694 65.473656 -30.312536
1.723693 62.704877 -30.048589
1.897155 61.83107 -29.264219
1.676443 61.456513 -31.029043
1.441638 63.486681 -30.699303
1.723693 62.704877 -30.048589
2.525563 55.79607 -27.807544
2.725644 53.670673 -27.860561
2.444773 56.763382 -28.803635
2.525563 55.79607 -27.807544
2.488097 55.545845 -29.80378
2.302388 57.670406 -29.698681
2.444773 56.763382 -28.803635
3.719902 37.238781 -25.923122
3.534168 38.229832 -27.056614
3.624599 39.779869 -26.403591
3.858742 34.689694 -25.458681
3.719902 37.238781 -25.923122
3.943952 32.026744 -24.933476
3.714682 33.025795 -26.050939
3.858742 34.689694 -25.458681
4.077423 29.366156 -24.449232
3.943952 32.026744 -24.933476
-9.574008 32.298651 -31.288498
-8.642602 32.133001 -31.258869
-9.574008 32.298651 -31.288498
-10.474824 30.310954 -30.960302
-10.904243 23.608225 -29.620891
-10.085076 23.174891 -29.45195
-11.17353 21.230797 -29.145717
-11.766692 23.918394 -29.759123
-10.678239 25.862488 -30.065355
-10.904243 23.608225 -29.620891
-12.602974 24.259762 -29.94496
-11.766692 23.918394 -29.759123
-12.42774 26.390017 -30.34103
-12.602974 24.259762 -29.94496
3 0 27 25
3 1 30 28
3 1 32 30
3 1 34 32
3 2 37 35
3 4 40 38
3 4 101 103
3 103 102 40
3 101 102 103
3 5 43 42
3 5 44 43
3 5 46 44
3 6 49 47
3 6 51 49
3 3 55 53
3 7 58 56
3 9 59 26
3 9 60 59
3 10 104 106
3 104 61 105
3 104 105 106
3 107 62 108
3 109 108 29
3 107 108 109
3 111 110 62
3 11 63 31
3 11 64 63
3 11 66 64
3 13 67 33
3 13 68 67
3 113 112 69
3 14 73 71
3 114 74 115
3 117 116 74
3 118 75 119
3 120 76 121
3 122 121 75
3 120 121 122
3 124 123 76
3 16 125 126
3 17 78 36
3 17 79 78
3 8 80 57
3 18 81 39
3 18 82 81
3 18 127 129
3 129 128 82
3 127 128 129
3 15 83 72
3 130 84 131
3 132 131 41
3 130 131 132
3 134 133 84
3 19 85 45
3 19 86 85
3 12 87 65
3 20 88 48
3 20 89 88
3 20 90 89
3 21 91 50
3 21 92 91
3 136 135 77
3 137 93 138
3 139 94 140
3 141 140 93
3 139 140 141
3 22 142 144
3 142 95 143
3 142 143 144
3 22 96 95
3 22 97 96
3 23 98 52
3 23 99 98
3 23 100 99
3 24 145 147
3 147 146 54
3 145 146 147
3 24 148 149
3 151 150 70
3 25 26 7
3 27 26 25
3 27 9 26
3 28 29 10
3 30 29 28
3 30 152 154
3 154 153 29
3 152 153 154
3 30 155 157
3 155 31 156
3 155 156 157
3 32 31 30
3 32 11 31
3 32 33 11
3 34 33 32
3 34 13 33
3 159 158 14
3 35 36 16
3 37 36 35
3 37 17 36
3 38 39 8
3 40 39 38
3 40 18 39
3 40 160 162
3 162 161 18
3 160 161 162
3 164 163 40
3 165 41 166
3 167 166 15
3 165 166 167
3 168 41 169
3 171 170 41
3 42 172 173
3 43 174 176
3 176 175 42
3 174 175 176
3 43 177 178
3 43 179 180
3 44 181 183
3 183 182 43
3 181 182 183
3 44 184 185
3 44 186 188
3 186 45 187
3 186 187 188
3 46 45 44
3 46 19 45
3 47 48 12
3 49 48 47
3 49 20 48
3 49 50 20
3 51 50 49
3 51 21 50
3 189 22 190
3 191 52 192
3 193 192 22
3 191 192 193
3 194 52 195
3 196 23 197
3 198 197 52
3 196 197 198
3 200 199 23
3 53 201 203
3 201 54 202
3 201 202 203
3 55 54 53
3 55 24 54
3 56 57 2
3 58 57 56
3 58 8 57
3 26 58 7
3 59 58 26
3 59 8 58
3 59 38 8
3 60 38 59
3 60 4 38
3 61 204 205
3 61 206 207
3 29 61 10
3 62 61 29
3 62 208 210
3 210 209 61
3 208 209 210
3 62 211 212
3 214 213 62
3 31 215 216
3 63 217 219
3 219 218 31
3 217 218 219
3 63 220 221
3 63 222 224
3 222 42 223
3 222 223 224
3 64 42 63
3 64 5 42
3 64 65 5
3 66 65 64
3 66 12 65
3 33 66 11
3 67 66 33
3 67 12 66
3 67 47 12
3 68 47 67
3 68 6 47
3 69 70 3
3 225 70 226
3 227 226 69
3 225 226 227
3 229 228 70
3 71 72 0
3 73 72 71
3 73 15 72
3 230 73 231
3 232 231 14
3 230 231 232
3 74 233 235
3 233 73 234
3 233 234 235
3 74 15 73
3 74 236 238
3 238 237 15
3 236 237 238
3 240 239 74
3 241 10 242
3 75 243 244
3 75 245 247
3 245 10 246
3 245 246 247
3 75 28 10
3 76 28 75
3 76 1 28
3 76 77 1
3 248 77 249
3 250 249 76
3 248 249 250
3 252 251 77
3 36 253 255
3 255 254 16
3 253 254 255
3 78 256 258
3 258 257 36
3 256 257 258
3 78 259 260
3 78 261 263
3 261 53 262
3 261 262 263
3 79 53 78
3 79 3 53
3 57 37 2
3 80 37 57
3 80 17 37
3 39 80 8
3 81 80 39
3 81 17 80
3 81 79 17
3 82 79 81
3 82 3 79
3 82 69 3
3 264 69 265
3 266 265 82
3 264 265 266
3 268 267 69
3 270 269 18
3 72 27 0
3 83 27 72
3 83 9 27
3 41 83 15
3 84 83 41
3 84 9 83
3 84 60 9
3 271 60 272
3 273 272 84
3 271 272 273
3 274 4 275
3 276 275 60
3 274 275 276
3 277 4 278
3 280 279 4
3 281 16 282
3 45 283 284
3 85 285 287
3 287 286 45
3 285 286 287
3 85 288 290
3 288 16 289
3 288 289 290
3 85 35 16
3 86 35 85
3 86 2 35
3 65 46 5
3 87 46 65
3 87 19 46
3 48 87 12
3 88 87 48
3 88 19 87
3 88 86 19
3 89 86 88
3 89 2 86
3 89 56 2
3 90 56 89
3 90 7 56
3 50 90 20
3 91 90 50
3 91 7 90
3 91 25 7
3 92 25 91
3 92 0 25
3 77 34 1
3 291 34 292
3 293 292 77
3 291 292 293
3 294 13 295
3 296 295 34
3 294 295 296
3 93 297 298
3 93 299 301
3 299 13 300
3 299 300 301
3 93 68 13
3 94 68 93
3 94 6 68
3 95 302 303
3 95 304 305
3 95 306 308
3 306 94 307
3 306 307 308
3 96 94 95
3 96 6 94
3 96 51 6
3 97 51 96
3 97 21 51
3 52 97 22
3 98 97 52
3 98 21 97
3 98 92 21
3 99 92 98
3 99 0 92
3 99 71 0
3 100 71 99
3 100 14 71
3 309 100 310
3 311 310 23
3 309 310 311
3 312 100 313
3 314 14 315
3 316 315 100
3 314 315 316
3 318 317 14
3 54 319 320
3 322 321 54
3 70 55 3
3 323 55 324
3 325 324 70
3 323 324 325
3 326 24 327
3 328 327 55
3 326 327 328
3 329 24 330
3 332 331 24
