ply
format ascii 1.0
element vertex 645
property float x
property float y
property float z
element face 646
property list uchar int vertex_index
end_header
52.572174 43.289768 1.791972
47.481964 55.660614 9.429482
54.830681 33.506935 15.139504
40.666019 45.65435 -10.237114
44.387497 35.317173 4.070744
50.027161 26.796013 21.242685
51.473625 53.578568 -5.606697
46.326263 46.416252 -4.081184
53.383507 49.784485 3.517124
56.280018 38.873962 8.346491
52.351662 44.822216 13.438243
44.106739 30.925568 29.654217
47.873657 60.880127 -1.439663
48.848511 39.67392 2.597615
52.395519 48.531067 -1.839567
49.964645 50.027313 -5.5121
49.53849 45.153931 -1.149675
45.197739 41.351707 0.482942
50.653206 52.823265 6.016113
53.223366 47.438492 8.465079
50.140705 50.16684 11.410587
47.733593 58.43811 3.891124
50.848164 55.213806 0.796498
56.22813 36.363567 11.829028
37.409538 40.105328 -8.43996
37.87495 30.183357 3.217834
47.392868 52.646004 15.071603
40.529278 29.737328 5.437211
52.520584 30.276848 18.214123
43.308098 46.664734 -7.123913
41.88026 42.174446 -2.042601
40.888275 36.515949 2.247145
54.253468 46.600441 2.075733
54.964775 41.15818 4.940167
55.225182 44.434402 6.28862
55.107372 42.042603 10.662028
53.86644 39.33181 14.882379
50.830978 41.86845 18.112537
51.68708 36.214241 18.695045
49.003517 32.695896 22.11702
44.6675 25.12891 28.94096
50.523365 57.248726 -4.175072
52.783287 51.867645 -1.187019
50.893784 41.542385 2.075253
50.645348 38.652325 3.584949
52.48444 40.50053 3.327242
52.556923 45.955856 0.040083
51.235985 46.863358 -1.648607
51.105911 44.271839 0.306839
49.198128 42.50515 0.841825
49.033916 54.270821 7.620022
50.424339 51.525711 8.702747
48.842583 52.882248 10.385209
46.10173 58.496719 8.569998
46.156059 59.948723 5.767693
47.599457 57.083847 6.636743
49.21418 55.597275 4.893744
55.679955 34.983494 13.516178
56.578117 33.390682 11.862485
56.059868 31.986568 13.326954
42.603634 48.036148 -11.284437
38.87109 43.039871 -9.24328
42.315304 32.70253 4.823069
51.246685 28.554562 19.715551
53.142159 27.298672 17.618416
50.65213 56.132256 -7.331806
50.595505 54.216858 -7.710747
48.345703 48.2575 -4.929871
48.633774 50.501419 -7.280508
46.865776 48.640694 -6.548836
44.776409 46.689201 -5.588024
42.571983 44.555401 -4.52323
44.100632 44.4193 -3.07531
44.736992 38.457039 2.419588
42.946419 39.100285 1.408722
42.56004 36.029572 3.258709
40.634415 33.252743 3.978616
54.121532 48.207153 2.656427
54.866409 45.542519 4.147772
54.402924 47.118088 4.939976
52.872086 46.16761 10.96876
54.264511 44.76202 9.6443
53.843422 43.479877 11.991651
54.621525 40.733879 12.811973
53.197411 42.113209 14.27739
48.479141 49.934349 15.912949
49.849152 40.243969 20.264503
51.302597 39.084446 18.528675
50.115639 37.412338 20.46846
50.372292 34.499447 20.441961
45.091576 29.927448 27.518105
45.417255 27.011429 27.138054
44.146236 27.986107 29.308762
46.293045 62.59259 0.3042
47.794388 61.931419 -4.02725
49.128208 60.025764 -5.446899
49.335655 59.08622 -2.948349
52.187668 52.47274 2.112988
52.050011 53.545815 -0.350225
53.178299 50.862328 1.128813
53.619774 49.236572 0.446042
55.780342 40.036697 6.617798
46.618999 37.621227 3.293017
46.308849 34.435253 4.718769
48.527782 36.650112 4.069952
48.956116 25.034042 22.833857
52.046261 51.057182 -3.751574
51.034378 51.789078 -5.751032
51.230717 49.353737 -3.700119
49.816032 47.647354 -3.299397
47.927841 45.887032 -2.605169
45.744511 43.999031 -1.706253
47.461498 43.342373 -0.407927
47.010834 40.59161 1.577129
52.167847 51.325691 4.642399
53.396786 48.642746 5.969716
52.006054 50.112526 7.22681
51.72039 48.835655 9.842256
51.324974 47.492798 12.453185
44.426762 33.868855 29.944267
46.237007 61.319458 3.012003
47.840256 59.709091 1.199312
49.400986 58.020561 -0.391914
49.349297 56.851738 2.221659
50.803993 54.055511 3.376315
42.208755 32.279522 38.309364
56.432926 37.655426 10.095437
56.55632 35.955647 8.883872
56.752602 34.710011 10.375437
37.957024 33.552315 1.528563
46.115215 56.978485 11.408318
47.411415 54.179344 12.251036
46.213799 55.405891 14.260533
53.748253 31.934479 16.699427
55.255943 30.495647 14.764886
49.912292 52.344902 -7.687168
41.937088 46.320045 -8.678194
39.953663 43.866688 -7.624088
41.185925 44.375103 -6.044538
39.864265 39.597546 -1.118652
43.470146 41.896835 -0.717514
41.306171 39.495571 0.232679
39.426121 36.72702 1.017891
39.1665 33.549305 2.882276
39.072872 30.096317 4.471662
53.726795 44.965534 1.786997
53.877739 42.244656 3.331319
54.694599 43.919361 3.606999
55.414047 42.829643 5.502057
55.846329 41.695747 7.457454
54.451912 45.971466 7.279763
55.309006 43.271435 8.472841
55.963745 40.507114 9.442381
55.753387 39.248459 11.416742
55.220455 37.903927 13.340206
54.391716 36.461243 15.182022
48.6591 51.436806 13.161805
49.812008 48.745773 14.103502
50.824913 46.077713 15.017756
50.215656 44.581711 17.495516
51.668999 43.392387 15.830882
52.342152 40.65073 16.463953
52.872635 37.826492 16.846054
53.316307 34.914661 16.928873
52.063438 33.266865 18.587446
50.717403 31.530136 20.182882
49.370773 29.72604 21.753304
48.11718 27.883595 23.342209
47.044922 26.035748 24.990494
50.127823 58.07885 -6.564802
51.278992 55.403275 -5.074032
50.760361 56.284683 -1.72031
51.746941 54.530327 -2.745548
52.209251 52.782555 -3.431257
52.918591 50.194466 -1.688112
53.417175 47.602737 0.081573
43.965302 34.865219 32.081818
43.463287 31.937126 31.832502
42.383976 31.123585 36.042267
42.692039 30.025478 33.770416
43.250546 28.983967 31.520128
43.478298 26.073994 31.181404
53.905552 39.411999 4.626633
53.739452 33.367561 6.270094
56.092361 34.147984 7.848783
55.079903 32.223915 7.073769
38.237041 41.100727 -6.716383
40.965725 46.433166 -11.513089
41.934532 47.624066 -12.036751
41.634827 46.845249 -10.760776
40.076791 45.170788 -11.013509
40.965725 46.433166 -11.513089
39.768555 44.34711 -9.740197
39.179327 43.863548 -10.516592
40.076791 45.170788 -11.013509
44.270283 33.633722 4.755721
43.234186 32.326401 5.131883
43.3514 34.009851 4.446907
51.032062 26.217745 20.166201
51.641824 27.09702 19.402635
50.636923 27.675287 20.479118
49.297398 39.381496 21.275799
49.241957 40.780683 21.172873
49.430642 37.965681 21.377778
49.982395 38.828153 20.366481
49.297398 39.381496 21.275799
49.473786 36.526533 21.384265
49.430642 37.965681 21.377778
44.599158 30.426508 28.586161
45.127638 31.402727 27.678552
44.635219 31.901787 28.746608
47.073874 62.315468 -1.898775
46.283568 63.1717 -1.026844
47.083351 61.736359 -0.567731
47.834023 61.405773 -2.733456
47.034239 62.841114 -3.192569
47.073874 62.315468 -1.898775
56.136893 38.009183 7.87996
55.887054 38.590551 7.015613
56.03018 39.455329 7.482145
50.520782 37.123493 4.191033
51.489733 38.110962 4.082088
49.587177 23.695866 22.556214
48.535683 24.167654 23.676808
44.687443 35.316426 30.043571
44.963564 34.834055 29.006225
56.775865 32.535619 11.071614
56.721012 31.869947 11.700523
37.076187 39.469784 -9.325024
37.332702 40.377993 -10.548283
37.666054 41.013537 -9.663218
36.91316 38.450114 -8.191821
37.076187 39.469784 -9.325024
37.421787 30.077005 2.451409
37.462824 31.761485 1.606774
37.915987 31.867836 2.373198
45.59684 56.802524 13.882979
46.164507 56.192188 12.834426
45.547548 57.588821 12.456871
45.547548 57.588821 12.456871
45.458034 58.39339 11.028105
40.53599 27.873455 6.048336
39.822035 28.073327 5.62313
46.197588 32.743572 5.295781
47.283892 33.937323 4.984383
53.385318 29.601731 17.200747
53.999153 30.430546 16.443399
53.134418 31.105663 17.456775
54.018399 26.621662 16.54119
53.566505 25.846966 17.246308
48.668033 51.588421 -8.415712
47.949478 50.613853 -8.140536
43.645617 47.608483 -8.430454
44.356976 47.707268 -7.639194
42.622593 46.49239 -7.901053
42.960111 47.436138 -9.207595
43.645617 47.608483 -8.430454
41.173544 42.159672 -2.768381
41.519405 43.350149 -4.008695
42.226122 43.364924 -3.282915
40.872263 40.885996 -1.580626
40.165546 40.871222 -2.306406
41.173544 42.159672 -2.768381
39.822035 28.073327 5.62313
39.093832 28.252821 5.140356
39.801075 29.916823 4.954436
49.621057 48.001484 15.421971
49.145574 49.340061 15.008225
48.954624 48.595772 16.326694
50.12751 46.667454 15.879098
50.318461 47.411743 14.560629
49.621057 48.001484 15.421971
50.523317 43.225081 17.804026
49.851636 43.789049 18.675402
50.159298 42.432418 18.983913
47.279089 28.402163 24.382026
47.890728 29.355007 23.552045
46.74296 27.47824 25.206169
47.581051 26.959671 24.166352
47.279089 28.402163 24.382026
45.449517 24.671711 27.835286
45.824394 25.61297 26.933833
45.042378 26.070169 28.039507
45.203032 23.787325 28.758858
45.449517 24.671711 27.835286
43.524079 33.923176 33.059074
43.816204 35.375191 33.151642
43.273071 32.45913 32.934416
43.714295 33.401173 31.95716
43.524079 33.923176 33.059074
42.159458 30.208601 37.081551
42.296365 31.701553 37.175815
42.071847 30.786569 38.215099
42.679372 28.549976 33.616949
42.437523 29.085952 34.776447
42.958626 28.029221 32.491805
42.971293 29.504722 32.645272
42.679372 28.549976 33.616949
43.072502 26.574234 32.322443
43.364422 27.52898 31.350766
42.958626 28.029221 32.491805
54.42973 34.340693 6.485513
53.793463 34.91036 5.941046
56.405338 33.545198 8.447751
56.32434 35.051816 8.366328
56.637317 34.44903 8.965295
55.045406 30.629892 7.118458
55.59956 31.639612 7.507233
54.34664 31.194748 6.855211
55.045406 30.629892 7.118458
55.842804 29.719591 13.79033
55.499014 28.98261 14.441841
38.74422 41.443888 -5.887952
39.095352 42.483708 -7.170236
39.602531 42.826868 -6.341805
52.409279 39.035064 3.953235
51.489733 38.110962 4.082088
51.564894 39.576427 3.456095
46.128895 59.222721 7.168845
45.438484 60.650928 6.788157
45.41132 59.924926 8.189309
56.461888 31.16789 12.432758
56.721012 31.869947 11.700523
56.318993 32.688625 12.59472
42.826614 48.815906 -12.515245
43.536646 49.160518 -11.76444
42.826614 48.815906 -12.515245
41.934532 47.624066 -12.036751
38.39683 42.480808 -10.064878
39.179327 43.863548 -10.516592
38.140314 41.572599 -8.84162
37.666054 41.013537 -9.663218
38.39683 42.480808 -10.064878
37.464002 28.310928 3.202919
37.9076 28.373251 3.9343
42.256293 30.926119 5.474564
41.363279 29.443518 5.781635
41.422291 31.219929 5.13014
42.256293 30.926119 5.474564
43.234186 32.326401 5.131883
52.589562 26.469074 18.354067
52.194422 27.926617 18.666984
51.641824 27.09702 19.402635
53.566505 25.846966 17.246308
52.589562 26.469074 18.354067
50.262096 56.404053 -8.418062
50.11004 57.435661 -8.103771
50.233784 55.446354 -8.607532
50.262096 56.404053 -8.418062
50.623818 55.174557 -7.521276
50.092697 54.434089 -8.720591
50.233784 55.446354 -8.607532
47.065479 49.683491 -7.774699
47.949478 50.613853 -8.140536
47.749775 49.571056 -6.914672
46.135814 48.695248 -7.351655
47.065479 49.683491 -7.774699
45.091131 47.719501 -6.871249
46.135814 48.695248 -7.351655
45.821092 47.664947 -6.06843
44.042254 46.676968 -6.355968
44.356976 47.707268 -7.639194
45.091131 47.719501 -6.871249
47.939926 50.497681 16.883336
47.936004 51.290177 15.492276
47.396789 51.853508 16.462663
48.376564 49.152264 17.255627
47.939926 50.497681 16.883336
48.954624 48.595772 16.326694
48.376564 49.152264 17.255627
49.668385 41.620178 20.059896
49.241957 40.780683 21.172873
50.340065 41.05621 19.18852
50.159298 42.432418 18.983913
49.668385 41.620178 20.059896
49.602112 35.070087 21.371015
50.243966 35.955893 20.45521
49.473786 36.526533 21.384265
48.917725 34.168312 22.208545
49.687905 33.597672 21.279491
49.602112 35.070087 21.371015
45.666645 30.899191 26.649423
45.127638 31.402727 27.678552
45.766287 29.42409 26.469974
45.666645 30.899191 26.649423
45.254416 28.469438 27.32808
45.929126 27.96608 26.279948
45.766287 29.42409 26.469974
45.494152 64.016087 -0.092062
45.506726 63.388652 1.271039
45.494152 64.016087 -0.092062
46.283568 63.1717 -1.026844
46.965978 63.352593 -4.499578
47.034239 62.841114 -3.192569
47.682781 62.384525 -5.292216
46.965978 63.352593 -4.499578
48.461298 60.978592 -4.737075
48.349691 61.431697 -6.00204
47.682781 62.384525 -5.292216
55.437412 39.16484 6.303408
55.029629 39.725582 5.464593
55.372558 40.597438 5.778982
55.437412 39.16484 6.303408
55.887054 38.590551 7.015613
48.393358 35.044752 4.659974
47.283892 33.937323 4.984383
47.418316 35.542682 4.39436
49.462 36.122387 4.433535
49.586565 37.651218 3.82745
50.520782 37.123493 4.191033
48.393358 35.044752 4.659974
49.462 36.122387 4.433535
49.994867 24.507814 21.733936
50.53039 25.388799 20.93835
49.491639 25.915028 22.038271
49.994867 24.507814 21.733936
49.587177 23.695866 22.556214
44.795231 33.37343 28.891633
44.963564 34.834055 29.006225
44.266751 32.397211 29.799242
44.635219 31.901787 28.746608
44.795231 33.37343 28.891633
45.433312 61.383076 5.385537
45.438484 60.650928 6.788157
45.473785 62.068444 4.007693
45.433312 61.383076 5.385537
46.196533 60.63409 4.389848
45.478707 62.752086 2.624941
45.473785 62.068444 4.007693
46.265026 61.956024 1.658101
45.506726 63.388652 1.271039
45.478707 62.752086 2.624941
42.124118 32.879845 39.425652
42.420136 33.739877 38.356685
42.006851 31.392057 39.381271
42.124118 32.879845 39.425652
42.071847 30.786569 38.215099
42.006851 31.392057 39.381271
56.735459 33.826212 9.711078
56.637317 34.44903 8.965295
56.654461 35.332829 9.629655
56.863108 33.195284 10.32809
56.66536 34.050347 11.118961
56.775865 32.535619 11.071614
56.735459 33.826212 9.711078
56.863108 33.195284 10.32809
37.49581 33.395967 0.730606
38.085432 35.09001 0.550456
37.49581 33.395967 0.730606
37.462824 31.761485 1.606774
37.421787 30.077005 2.451409
37.464002 28.310928 3.202919
45.734383 55.972507 15.307989
45.59684 56.802524 13.882979
46.297607 54.59581 15.67767
45.734383 55.972507 15.307989
46.887142 53.215866 16.083205
46.803334 54.025948 14.666068
46.297607 54.59581 15.67767
47.396789 51.853508 16.462663
46.887142 53.215866 16.083205
45.451292 59.152507 9.608945
45.41132 59.924926 8.189309
46.108473 57.737602 9.989158
45.451292 59.152507 9.608945
45.458034 58.39339 11.028105
40.53599 27.873455 6.048336
41.363279 29.443518 5.781635
45.230959 33.192763 5.079733
44.270283 33.633722 4.755721
45.348173 34.876213 4.394756
45.230959 33.192763 5.079733
46.197588 32.743572 5.295781
54.752998 29.71113 15.476128
54.502098 31.215063 15.732157
53.999153 30.430546 16.443399
55.499014 28.98261 14.441841
54.752998 29.71113 15.476128
53.696106 28.112642 16.902893
53.385318 29.601731 17.200747
52.831372 28.78776 17.916269
53.696106 28.112642 16.902893
54.018399 26.621662 16.54119
51.032062 26.217745 20.166201
50.53039 25.388799 20.93835
49.751091 53.498112 -8.708802
50.092697 54.434089 -8.720591
50.253899 53.28088 -7.698957
49.307293 52.510162 -8.619042
49.273033 51.42316 -7.483838
48.668033 51.588421 -8.415712
49.751091 53.498112 -8.708802
49.307293 52.510162 -8.619042
43.293385 48.29419 -10.510717
43.536646 49.160518 -11.76444
42.270361 47.178096 -9.981316
43.293385 48.29419 -10.510717
42.960111 47.436138 -9.207595
40.218662 43.081075 -5.552029
39.602531 42.826868 -6.341805
40.569794 44.120896 -6.834313
40.826376 43.26 -4.769349
41.878954 44.465252 -5.283884
41.519405 43.350149 -4.008695
40.218662 43.081075 -5.552029
40.826376 43.26 -4.769349
39.258396 39.487479 -1.878051
40.165546 40.871222 -2.306406
39.039052 38.112626 -0.773151
39.258396 39.487479 -1.878051
38.81998 36.677363 0.295121
39.039052 38.112626 -0.773151
39.645193 38.162283 -0.05038
38.691572 35.139668 1.273227
38.085432 35.09001 0.550456
38.81998 36.677363 0.295121
38.506561 28.329731 4.561214
37.9076 28.373251 3.9343
38.473911 30.139837 3.844748
38.506561 28.329731 4.561214
39.093832 28.252821 5.140356
49.59358 45.137528 18.389183
49.851636 43.789049 18.675402
49.822882 45.919453 17.117978
49.59358 45.137528 18.389183
50.520285 45.329712 16.256636
50.12751 46.667454 15.879098
49.822882 45.919453 17.117978
48.25956 33.240656 23.086765
48.917725 34.168312 22.208545
48.333897 31.761158 22.93945
48.25956 33.240656 23.086765
48.517525 30.27623 22.757593
49.187145 31.210968 21.935162
48.333897 31.761158 22.93945
48.743977 28.804817 22.547756
48.517525 30.27623 22.757593
47.890728 29.355007 23.552045
47.580086 24.668507 24.755127
48.535683 24.167654 23.676808
48.000519 25.534895 23.912176
46.231088 26.523589 26.064274
46.74296 27.47824 25.206169
45.929126 27.96608 26.279948
46.638227 25.12513 25.860053
46.231088 26.523589 26.064274
45.824394 25.61297 26.933833
47.580086 24.668507 24.755127
46.638227 25.12513 25.860053
48.944163 60.417206 -6.66193
48.349691 61.431697 -6.00204
49.44397 59.443748 -7.220881
48.944163 60.417206 -6.66193
49.628016 59.052307 -6.005851
49.847887 58.408958 -7.720269
49.44397 59.443748 -7.220881
50.389977 57.105553 -6.948304
50.11004 57.435661 -8.103771
49.847887 58.408958 -7.720269
44.273045 36.297027 32.15522
43.816204 35.375191 33.151642
44.456713 35.814608 31.112347
44.273045 36.297027 32.15522
44.196032 34.367037 31.013042
44.687443 35.316426 30.043571
44.456713 35.814608 31.112347
42.528951 33.174236 37.273419
42.420136 33.739877 38.356685
42.616562 32.596268 36.13987
42.528951 33.174236 37.273419
42.296365 31.701553 37.175815
42.733415 32.052359 35.039299
42.616562 32.596268 36.13987
42.283491 29.635006 35.912373
42.159458 30.208601 37.081551
42.538007 30.574531 34.906341
42.283491 29.635006 35.912373
42.437523 29.085952 34.776447
42.887447 31.503305 33.903374
42.733415 32.052359 35.039299
42.538007 30.574531 34.906341
43.077663 30.981302 32.801459
43.273071 32.45913 32.934416
42.887447 31.503305 33.903374
43.310812 25.142125 32.165443
43.072502 26.574234 32.322443
43.864273 24.685341 31.013739
43.310812 25.142125 32.165443
44.458874 24.212799 29.893518
44.072899 25.601452 30.061182
43.864273 24.685341 31.013739
45.203032 23.787325 28.758858
44.458874 24.212799 29.893518
53.119835 38.490799 4.60293
52.409279 39.035064 3.953235
53.194996 39.956265 3.976938
54.500017 38.852491 5.307826
54.435164 40.285089 4.7834
55.029629 39.725582 5.464593
53.876513 37.932579 5.119315
54.500017 38.852491 5.307826
53.119835 38.490799 4.60293
53.876513 37.932579 5.119315
52.947824 33.930338 5.894439
53.793463 34.91036 5.941046
52.85906 32.323649 6.217296
52.947824 33.930338 5.894439
56.275043 36.550026 8.148651
56.136893 38.009183 7.87996
56.418169 37.414805 8.615182
56.043064 35.646195 7.631106
56.275043 36.550026 8.148651
56.32434 35.051816 8.366328
55.606184 34.730904 7.274857
56.043064 35.646195 7.631106
56.105789 32.601647 7.89474
56.405338 33.545198 8.447751
55.586132 33.185949 7.461276
56.105789 32.601647 7.89474
55.59956 31.639612 7.507233
55.099955 33.768869 6.88735
55.606184 34.730904 7.274857
55.586132 33.185949 7.461276
54.409678 32.795738 6.671932
54.42973 34.340693 6.485513
55.099955 33.768869 6.88735
53.676414 31.766571 6.453373
54.409678 32.795738 6.671932
54.34664 31.194748 6.855211
52.85906 32.323649 6.217296
53.676414 31.766571 6.453373
56.244766 30.465052 13.071365
55.657905 31.241107 14.04592
55.842804 29.719591 13.79033
56.461888 31.16789 12.432758
56.244766 30.465052 13.071365
37.960041 39.963576 -5.508911
38.74422 41.443888 -5.887952
37.591898 39.52849 -6.398247
37.960041 39.963576 -5.508911
37.178146 39.03079 -7.260035
37.82329 40.603027 -7.578171
37.591898 39.52849 -6.398247
36.91316 38.450114 -8.191821
37.178146 39.03079 -7.260035
3 0 45 43
3 0 48 46
3 0 43 48
3 1 52 50
3 1 55 53
3 1 50 55
3 2 59 57
3 3 187 189
3 189 188 60
3 187 188 189
3 3 190 191
3 3 192 194
3 192 61 193
3 192 193 194
3 4 195 197
3 197 196 62
3 195 196 197
3 5 198 200
3 200 199 63
3 198 199 200
3 6 66 65
3 7 69 67
3 7 70 69
3 7 72 70
3 4 75 73
3 4 62 75
3 8 79 77
3 10 82 80
3 10 84 82
3 201 86 202
3 203 88 204
3 205 204 86
3 203 204 205
3 207 206 88
3 11 208 210
3 208 90 209
3 208 209 210
3 11 92 90
3 12 211 213
3 213 212 93
3 211 212 213
3 12 214 216
3 214 94 215
3 214 215 216
3 12 96 94
3 8 99 97
3 8 77 99
3 9 217 219
3 219 218 101
3 217 218 219
3 13 104 102
3 221 220 44
3 223 222 105
3 14 108 106
3 16 109 47
3 16 110 109
3 16 112 110
3 13 113 49
3 13 102 113
3 18 116 114
3 20 117 51
3 20 118 117
3 224 119 225
3 21 120 54
3 21 121 120
3 21 123 121
3 18 124 56
3 18 114 124
3 23 128 126
3 227 226 58
3 24 228 230
3 228 229 230
3 24 231 232
3 25 233 235
3 235 234 129
3 233 234 235
3 236 132 237
3 238 237 130
3 236 237 238
3 239 130 240
3 27 241 242
3 244 243 103
3 28 245 247
3 247 246 133
3 245 246 247
3 249 248 64
3 15 135 107
3 251 250 68
3 29 252 253
3 29 254 256
3 254 136 255
3 254 255 256
3 29 138 136
3 30 257 259
3 259 258 71
3 257 258 259
3 30 260 262
3 260 139 261
3 260 261 262
3 17 140 111
3 31 141 74
3 31 142 141
3 31 143 142
3 27 144 76
3 27 263 265
3 265 264 144
3 263 264 265
3 32 147 145
3 34 148 78
3 34 149 148
3 19 150 115
3 35 151 81
3 35 152 151
3 35 153 152
3 36 154 83
3 36 155 154
3 26 156 131
3 266 157 267
3 268 267 85
3 266 267 268
3 269 158 270
3 271 270 157
3 269 270 271
3 37 272 274
3 272 159 273
3 272 273 274
3 37 160 159
3 37 161 160
3 38 162 87
3 38 163 162
3 38 164 163
3 39 165 89
3 39 166 165
3 275 167 276
3 277 168 278
3 279 278 167
3 277 278 279
3 40 280 282
3 282 281 91
3 280 281 282
3 40 283 284
3 41 169 95
3 41 170 169
3 22 171 122
3 42 172 98
3 42 173 172
3 42 174 173
3 32 175 100
3 32 145 175
3 285 176 286
3 287 177 288
3 289 288 176
3 287 288 289
3 290 178 291
3 292 291 125
3 290 291 292
3 293 179 294
3 295 180 296
3 297 296 179
3 295 296 297
3 298 181 299
3 300 299 180
3 298 299 300
3 33 182 146
3 301 183 302
3 303 184 304
3 305 304 127
3 303 304 305
3 306 185 307
3 309 308 185
3 311 310 134
3 312 186 313
3 314 313 137
3 312 313 314
3 43 44 13
3 45 44 43
3 45 315 317
3 317 316 44
3 315 316 317
3 46 47 14
3 48 47 46
3 48 16 47
3 48 49 16
3 43 49 48
3 43 13 49
3 50 51 18
3 52 51 50
3 52 20 51
3 53 318 320
3 318 54 319
3 318 319 320
3 55 54 53
3 55 21 54
3 55 56 21
3 50 56 55
3 50 18 56
3 57 58 23
3 59 58 57
3 59 321 323
3 323 322 58
3 321 322 323
3 60 324 325
3 327 326 60
3 61 328 329
3 61 330 332
3 330 24 331
3 330 331 332
3 334 333 25
3 62 335 337
3 337 336 27
3 335 336 337
3 339 338 62
3 63 64 28
3 340 64 341
3 342 341 63
3 340 341 342
3 344 343 64
3 65 345 346
3 66 347 349
3 349 348 65
3 347 348 349
3 66 350 351
3 67 68 15
3 69 68 67
3 69 352 354
3 354 353 68
3 352 353 354
3 69 355 356
3 70 357 359
3 359 358 69
3 357 358 359
3 70 360 362
3 360 29 361
3 360 361 362
3 70 71 29
3 72 71 70
3 72 30 71
3 73 74 17
3 75 74 73
3 75 31 74
3 75 76 31
3 62 76 75
3 62 27 76
3 77 78 32
3 79 78 77
3 79 34 78
3 80 81 19
3 82 81 80
3 82 35 81
3 82 83 35
3 84 83 82
3 84 36 83
3 363 85 364
3 365 364 26
3 363 364 365
3 366 85 367
3 369 368 85
3 86 370 371
3 86 372 374
3 372 37 373
3 372 373 374
3 86 87 37
3 88 87 86
3 88 38 87
3 88 89 38
3 375 89 376
3 377 376 88
3 375 376 377
3 378 39 379
3 380 379 89
3 378 379 380
3 90 381 382
3 90 383 384
3 90 385 387
3 385 91 386
3 385 386 387
3 92 91 90
3 92 40 91
3 93 388 389
3 391 390 93
3 94 392 393
3 94 394 395
3 94 396 398
3 396 95 397
3 396 397 398
3 96 95 94
3 96 41 95
3 97 98 22
3 99 98 97
3 99 42 98
3 99 100 42
3 77 100 99
3 77 32 100
3 101 399 401
3 401 400 33
3 399 400 401
3 403 402 101
3 102 103 4
3 104 103 102
3 104 404 406
3 406 405 103
3 404 405 406
3 44 104 13
3 407 104 408
3 409 408 44
3 407 408 409
3 411 410 104
3 105 412 414
3 414 413 5
3 412 413 414
3 416 415 105
3 106 107 6
3 108 107 106
3 108 15 107
3 47 108 14
3 109 108 47
3 109 15 108
3 109 67 15
3 110 67 109
3 110 7 67
3 110 111 7
3 112 111 110
3 112 17 111
3 49 112 16
3 113 112 49
3 113 17 112
3 113 73 17
3 102 73 113
3 102 4 73
3 114 115 8
3 116 115 114
3 116 19 115
3 51 116 18
3 117 116 51
3 117 19 116
3 117 80 19
3 118 80 117
3 118 10 80
3 119 417 418
3 119 419 421
3 419 11 420
3 419 420 421
3 54 422 423
3 120 424 426
3 426 425 54
3 424 425 426
3 120 427 428
3 120 429 431
3 429 93 430
3 429 430 431
3 121 93 120
3 121 12 93
3 121 122 12
3 123 122 121
3 123 22 122
3 56 123 21
3 124 123 56
3 124 22 123
3 124 97 22
3 114 97 124
3 114 8 97
3 432 125 433
3 434 125 435
3 437 436 125
3 126 127 9
3 128 127 126
3 128 438 440
3 440 439 127
3 438 439 440
3 58 128 23
3 441 128 442
3 443 442 58
3 441 442 443
3 445 444 128
3 129 446 447
3 449 448 129
3 451 450 25
3 130 131 1
3 132 131 130
3 132 26 131
3 452 132 453
3 454 132 455
3 456 26 457
3 458 457 132
3 456 457 458
3 460 459 26
3 461 53 462
3 130 463 465
3 463 53 464
3 463 464 465
3 130 1 53
3 467 466 27
3 103 468 470
3 470 469 4
3 468 469 470
3 472 471 103
3 133 134 2
3 473 134 474
3 475 474 133
3 473 474 475
3 477 476 134
3 64 478 480
3 480 479 28
3 478 479 480
3 482 481 64
3 484 483 5
3 107 66 6
3 135 66 107
3 135 485 487
3 487 486 66
3 485 486 487
3 68 135 15
3 488 135 489
3 490 489 68
3 488 489 490
3 492 491 135
3 493 60 494
3 136 495 497
3 495 60 496
3 495 496 497
3 136 3 60
3 136 137 3
3 138 137 136
3 138 498 500
3 500 499 137
3 498 499 500
3 71 138 29
3 501 138 502
3 503 502 71
3 501 502 503
3 505 504 138
3 139 506 507
3 139 508 509
3 111 72 7
3 140 72 111
3 140 30 72
3 74 140 17
3 141 140 74
3 141 30 140
3 141 139 30
3 142 139 141
3 142 510 512
3 512 511 139
3 510 511 512
3 142 513 515
3 513 129 514
3 513 514 515
3 143 129 142
3 143 25 129
3 76 143 31
3 144 143 76
3 144 25 143
3 144 516 518
3 518 517 25
3 516 517 518
3 520 519 144
3 145 146 0
3 147 146 145
3 147 33 146
3 78 147 32
3 148 147 78
3 148 33 147
3 148 101 33
3 149 101 148
3 149 9 101
3 115 79 8
3 150 79 115
3 150 34 79
3 81 150 19
3 151 150 81
3 151 34 150
3 151 149 34
3 152 149 151
3 152 9 149
3 152 126 9
3 153 126 152
3 153 23 126
3 83 153 35
3 154 153 83
3 154 23 153
3 154 57 23
3 155 57 154
3 155 2 57
3 131 52 1
3 156 52 131
3 156 20 52
3 85 156 26
3 157 156 85
3 157 20 156
3 157 118 20
3 158 118 157
3 158 10 118
3 159 521 522
3 159 523 524
3 159 525 527
3 525 158 526
3 525 526 527
3 160 158 159
3 160 10 158
3 160 84 10
3 161 84 160
3 161 36 84
3 87 161 37
3 162 161 87
3 162 36 161
3 162 155 36
3 163 155 162
3 163 2 155
3 163 133 2
3 164 133 163
3 164 28 133
3 89 164 38
3 165 164 89
3 165 28 164
3 165 63 28
3 166 63 165
3 166 5 63
3 528 39 529
3 530 39 531
3 532 166 533
3 534 533 39
3 532 533 534
3 167 535 537
3 535 166 536
3 535 536 537
3 167 5 166
3 167 105 5
3 168 105 167
3 168 538 540
3 540 539 105
3 538 539 540
3 91 541 543
3 541 168 542
3 541 542 543
3 544 168 545
3 546 545 91
3 544 545 546
3 548 547 168
3 95 549 550
3 169 551 553
3 553 552 95
3 551 552 553
3 169 554 555
3 169 556 558
3 556 65 557
3 556 557 558
3 170 65 169
3 170 6 65
3 122 96 12
3 171 96 122
3 171 41 96
3 98 171 22
3 172 171 98
3 172 41 171
3 172 170 41
3 173 170 172
3 173 6 170
3 173 106 6
3 174 106 173
3 174 14 106
3 100 174 42
3 175 174 100
3 175 14 174
3 175 46 14
3 145 46 175
3 145 0 46
3 176 559 560
3 176 561 562
3 176 563 565
3 563 119 564
3 563 564 565
3 177 119 176
3 177 11 119
3 125 566 567
3 178 568 570
3 570 569 125
3 568 569 570
3 178 571 572
3 573 178 574
3 179 575 577
3 575 178 576
3 575 576 577
3 179 578 580
3 580 579 178
3 578 579 580
3 179 581 583
3 581 177 582
3 581 582 583
3 180 177 179
3 180 11 177
3 180 92 11
3 181 92 180
3 181 40 92
3 584 181 585
3 586 181 587
3 588 40 589
3 590 589 181
3 588 589 590
3 592 591 40
3 146 45 0
3 182 45 146
3 182 593 595
3 595 594 45
3 593 594 595
3 596 182 597
3 598 597 33
3 596 597 598
3 599 182 600
3 602 601 182
3 183 603 604
3 183 605 606
3 127 607 609
3 609 608 9
3 607 608 609
3 184 610 612
3 612 611 127
3 610 611 612
3 184 613 614
3 615 184 616
3 185 617 619
3 617 184 618
3 617 618 619
3 185 620 622
3 622 621 184
3 620 621 622
3 185 623 625
3 623 183 624
3 623 624 625
3 626 183 627
3 628 627 185
3 626 627 628
3 630 629 183
3 134 59 2
3 631 59 632
3 633 632 134
3 631 632 633
3 635 634 59
3 137 61 3
3 186 61 137
3 186 24 61
3 636 186 637
3 638 186 639
3 640 24 641
3 642 641 186
3 640 641 642
3 644 643 24
