ply
format ascii 1.0
element vertex 365
property float x
property float y
property float z
element face 338
property list uchar int vertex_index
end_header
28.770947 -24.248219 -37.430534
31.912252 -22.031469 -32.942757
29.162489 -13.058142 -42.695946
22.943731 -45.096733 -15.436462
25.883593 -41.957405 -22.698122
29.951731 -32.260002 -28.152838
30.998991 -12.478386 -39.48703
28.642673 -8.074938 -47.171738
26.208658 -41.541313 -17.258841
24.517405 -43.839203 -19.066191
27.563602 -39.704609 -21.258604
30.018667 -23.115814 -35.582687
31.180847 -27.25001 -30.71847
29.339888 -28.460693 -32.806541
28.473654 -33.857342 -29.679007
32.162632 -16.689539 -34.64743
30.582212 -17.773794 -37.8703
20.882294 -45.743279 -11.91839
21.016479 -48.221149 -17.107676
29.902002 -35.428993 -23.663404
28.196545 -37.094933 -25.419287
27.244276 -39.476257 -26.36537
26.995117 -40.72599 -19.232676
28.338181 -38.76424 -20.350416
29.181973 -23.62611 -36.633324
29.695784 -25.787832 -34.246925
29.003443 -26.39435 -35.135262
28.821264 -29.197807 -33.528481
28.79203 -27.164589 -35.759483
28.919138 -25.06266 -37.947662
30.814774 -15.116145 -38.777107
29.814451 -15.462042 -40.31633
29.58502 -18.160269 -39.242592
28.977097 -15.793559 -41.628784
28.604658 -13.365813 -43.930229
21.99184 -45.493896 -13.652924
20.272867 -47.22892 -12.969851
21.162424 -46.932129 -14.666101
21.990557 -46.515987 -16.371321
25.211111 -42.975555 -20.883123
23.634579 -45.301624 -19.737257
24.510277 -44.491058 -21.389898
25.438358 -43.537601 -23.038561
32.344559 -21.262072 -31.506479
32.208244 -23.933426 -30.566679
30.63018 -29.782925 -29.467691
31.462603 -29.096722 -28.358904
30.840782 -31.560089 -27.139463
30.764929 -33.150303 -24.891684
30.047609 -33.937866 -25.876699
29.082781 -36.23967 -24.596437
29.141823 -34.690376 -26.795767
28.334984 -34.988808 -30.059378
27.919247 -36.625122 -28.032587
31.710806 -12.015181 -37.606865
31.11878 -9.867384 -39.966461
28.743889 -10.586357 -44.985062
28.95521 -7.86758 -45.806519
24.649158 -43.320778 -16.294054
23.773209 -44.546158 -17.247152
25.459438 -42.635475 -18.196836
26.11648 -41.766487 -20.12948
26.655134 -40.719559 -22.080622
31.033077 -22.618608 -34.329231
31.607218 -24.662975 -31.883966
30.662365 -25.246971 -33.139778
30.215191 -27.84901 -31.847475
29.687132 -30.424648 -30.470613
29.070435 -32.983219 -29.027796
28.938755 -31.144342 -31.277784
28.609863 -32.05468 -31.829504
32.097572 -19.36912 -33.872108
31.675632 -14.659821 -37.063431
31.544788 -17.314459 -36.316391
31.328236 -19.970936 -35.395874
30.314386 -20.442965 -36.797127
28.726473 -22.041662 -39.667122
22.802486 -45.974571 -18.065256
21.94945 -47.738651 -18.635798
31.916512 -26.550529 -29.509535
28.831573 -37.605156 -22.443384
27.949568 -38.488564 -23.323717
27.111736 -39.50478 -24.0464
28.35375 -35.544121 -27.539541
27.521931 -38.135208 -26.028929
26.556633 -40.78904 -24.520727
29.257927 -22.908051 -40.069084
28.511641 -38.258291 -19.92428
27.952495 -39.232458 -19.341265
29.48847 -14.260092 -41.506138
29.932427 -14.127881 -40.758945
29.606447 -12.925931 -41.948753
22.467785 -45.295315 -14.544693
22.82332 -44.657833 -14.045741
23.299266 -44.459252 -14.93751
28.144732 -36.507368 -29.152328
28.513886 -35.717495 -30.112911
31.139117 -8.577298 -40.075302
31.37957 -9.625999 -38.942066
29.298407 -7.80037 -44.983788
29.173126 -9.11829 -44.679276
25.693722 -41.843784 -16.305999
26.352934 -40.973961 -16.830904
25.428908 -42.431045 -16.776447
24.913972 -42.733516 -15.823605
25.693722 -41.843784 -16.305999
28.712564 -31.104454 -32.903632
28.715564 -30.626244 -32.678992
28.818264 -29.676018 -33.753121
28.704411 -32.647371 -31.96712
28.712564 -31.104454 -32.903632
32.247229 -17.621423 -33.476635
32.168779 -16.254998 -33.795085
32.130102 -18.029329 -34.259769
32.214698 -18.961213 -33.088974
32.247229 -17.621423 -33.476635
29.479222 -19.521373 -38.625244
29.217202 -18.365302 -39.811798
28.596311 -9.488454 -46.652378
28.646918 -10.744164 -45.55904
28.693281 -9.330647 -46.0784
20.954505 -45.018479 -11.430326
21.667248 -44.943131 -12.283976
20.234545 -45.798323 -11.084829
20.954505 -45.018479 -11.430326
20.078115 -46.577706 -11.612255
20.234545 -45.798323 -11.084829
19.431801 -48.159607 -12.657519
19.829234 -48.058255 -13.457765
20.114166 -49.419443 -16.633856
20.595976 -48.410766 -16.323988
20.602208 -49.269327 -17.332251
20.114166 -49.419443 -16.633856
22.472057 -47.438749 -19.381504
22.792015 -46.520137 -19.186528
23.314622 -46.220236 -19.932234
22.171151 -48.531115 -19.514594
21.648543 -48.831016 -18.768887
22.472057 -47.438749 -19.381504
31.664237 -28.676055 -27.80509
31.440349 -29.92744 -27.228435
30.122727 -34.97739 -23.205928
30.55419 -33.838045 -23.820069
30.333465 -34.289648 -24.277544
29.680813 -36.06805 -22.597612
30.122727 -34.97739 -23.205928
29.366788 -36.517074 -23.053394
29.145599 -37.156132 -21.987602
29.680813 -36.06805 -22.597612
26.828972 -40.956844 -25.536199
26.485151 -41.613236 -24.613878
26.900455 -40.132649 -25.443048
29.096849 -21.350001 -40.945988
28.9922 -22.474857 -39.868103
28.831122 -20.916807 -40.745007
26.887733 -40.620995 -17.795477
26.352934 -40.973961 -16.830904
27.280963 -40.213333 -18.782395
26.601888 -41.133651 -18.245759
26.887733 -40.620995 -17.795477
27.666649 -39.745115 -19.791546
27.280963 -40.213333 -18.782395
27.952495 -39.232458 -19.341265
28.803647 -28.659408 -34.868622
28.818264 -29.676018 -33.753121
28.806647 -28.181198 -34.643982
28.965756 -27.668396 -35.931954
28.803647 -28.659408 -34.868622
29.02931 -26.617432 -37.026043
28.965756 -27.668396 -35.931954
28.855584 -26.113625 -36.853572
29.272424 -25.593226 -38.06633
29.02931 -26.617432 -37.026043
32.133644 -15.34636 -34.94511
32.168779 -16.254998 -33.795085
30.432589 -13.954932 -39.989334
30.906883 -13.797265 -39.132069
30.524698 -12.636053 -40.344296
30.314612 -15.289093 -39.546718
30.432589 -13.954932 -39.989334
29.932427 -14.127881 -40.758945
28.913241 -17.181947 -41.004894
29.217202 -18.365302 -39.811798
29.281059 -16.976914 -40.435688
28.765503 -15.997336 -42.152268
28.913241 -17.181947 -41.004894
28.579284 -14.783463 -43.30299
28.765503 -15.997336 -42.152268
28.790878 -14.579686 -42.779506
28.58535 -13.581285 -44.402977
28.579284 -14.783463 -43.30299
28.749683 -8.253363 -47.701496
28.772894 -6.816645 -48.210705
22.222021 -44.818439 -13.151243
22.82332 -44.657833 -14.045741
21.437067 -45.618588 -12.785657
21.667248 -44.943131 -12.283976
22.222021 -44.818439 -13.151243
20.274013 -47.909859 -14.30589
19.829234 -48.058255 -13.457765
20.717646 -47.080525 -13.817976
20.668948 -47.766256 -15.1032
20.274013 -47.909859 -14.30589
21.083014 -47.558186 -15.95581
20.668948 -47.766256 -15.1032
21.57649 -46.724058 -15.518711
21.503518 -47.368568 -16.739498
20.595976 -48.410766 -16.323988
21.083014 -47.558186 -15.95581
23.752471 -45.814953 -20.758554
23.314622 -46.220236 -19.932234
24.072428 -44.896341 -20.563578
24.330128 -45.448885 -21.495126
23.752471 -45.814953 -20.758554
24.794168 -44.972156 -22.319458
24.330128 -45.448885 -21.495126
24.974317 -44.01433 -22.21423
25.415529 -44.532919 -23.062349
24.794168 -44.972156 -22.319458
32.265152 -22.1193 -30.394436
32.214147 -20.750624 -30.807985
32.196995 -23.454977 -29.924536
32.265152 -22.1193 -30.394436
32.276401 -22.597749 -31.036579
32.162933 -24.79431 -29.44424
32.196995 -23.454977 -29.924536
31.129438 -31.159123 -26.618715
31.440349 -29.92744 -27.228435
31.151693 -30.328406 -27.749184
30.802855 -32.355196 -26.015574
31.091512 -31.954231 -25.494826
31.129438 -31.159123 -26.618715
27.936864 -37.325525 -28.138933
28.127115 -35.806965 -29.045983
28.144732 -36.507368 -29.152328
27.599379 -38.751092 -27.305324
27.581761 -38.050689 -27.198978
27.936864 -37.325525 -28.138933
27.332513 -40.332531 -26.392815
27.599379 -38.751092 -27.305324
31.675583 -10.699897 -37.762268
31.815426 -11.665239 -36.620086
31.414793 -10.941282 -38.786663
31.675583 -10.699897 -37.762268
31.37957 -9.625999 -38.942066
30.793156 -8.721176 -41.118328
31.139117 -8.577298 -40.075302
30.696828 -10.014906 -40.915622
30.793156 -8.721176 -41.118328
30.636933 -11.320407 -40.675907
31.058886 -11.172885 -39.726745
30.696828 -10.014906 -40.915622
30.524698 -12.636053 -40.344296
30.636933 -11.320407 -40.675907
29.276765 -11.713571 -43.123989
29.606447 -12.925931 -41.948753
29.067465 -10.477678 -44.268547
28.953189 -11.822249 -43.840504
29.276765 -11.713571 -43.123989
28.84955 -9.226968 -45.395791
29.067465 -10.477678 -44.268547
29.173126 -9.11829 -44.679276
29.086131 -6.542529 -46.081513
29.298407 -7.80037 -44.983788
28.891562 -6.594232 -46.88033
29.086131 -6.542529 -46.081513
28.735294 -6.697911 -47.562939
28.798941 -7.971259 -46.489128
28.891562 -6.594232 -46.88033
28.772894 -6.816645 -48.210705
28.735294 -6.697911 -47.562939
24.151979 -43.571274 -15.366305
24.913972 -42.733516 -15.823605
23.796444 -44.208755 -15.865258
23.299266 -44.459252 -14.93751
24.151979 -43.571274 -15.366305
28.566972 -34.114435 -31.082057
28.472423 -33.521744 -30.944441
28.704411 -32.647371 -31.96712
28.513886 -35.717495 -30.112911
28.566972 -34.114435 -31.082057
32.338192 -19.90769 -31.90616
32.214147 -20.750624 -30.807985
32.221065 -20.315596 -32.689293
32.338192 -19.90769 -31.90616
32.214698 -18.961213 -33.088974
31.907731 -13.009181 -36.424827
31.815426 -11.665239 -36.620086
31.890144 -14.331501 -36.15311
31.907731 -13.009181 -36.424827
31.693219 -13.337501 -37.335148
31.919132 -15.67468 -35.85543
32.133644 -15.34636 -34.94511
31.890144 -14.331501 -36.15311
29.843905 -20.662721 -37.402512
29.949703 -19.301617 -38.01986
29.479222 -19.521373 -38.625244
29.696045 -21.999146 -36.795292
30.166526 -21.77939 -36.189907
29.843905 -20.662721 -37.402512
29.277698 -22.254294 -37.32061
29.60032 -23.370962 -36.108006
29.696045 -21.999146 -36.795292
28.982675 -22.506638 -37.804581
29.277698 -22.254294 -37.32061
28.777162 -22.817692 -38.203186
28.97646 -23.937165 -37.031929
28.982675 -22.506638 -37.804581
28.754925 -21.714413 -39.32148
28.74871 -23.14494 -38.548828
28.777162 -22.817692 -38.203186
28.661845 -20.56659 -40.457661
28.754925 -21.714413 -39.32148
28.831122 -20.916807 -40.745007
28.661845 -20.56659 -40.457661
28.577303 -12.133892 -45.031623
28.674273 -11.976085 -44.457645
28.646918 -10.744164 -45.55904
28.58535 -13.581285 -44.402977
28.577303 -12.133892 -45.031623
28.596311 -9.488454 -46.652378
28.749683 -8.253363 -47.701496
19.773401 -47.320526 -12.137985
20.078115 -46.577706 -11.612255
20.577581 -46.4861 -12.444121
19.773401 -47.320526 -12.137985
19.431801 -48.159607 -12.657519
21.068694 -49.028078 -18.096312
20.602208 -49.269327 -17.332251
21.482965 -47.9799 -17.871737
21.068694 -49.028078 -18.096312
21.648543 -48.831016 -18.768887
32.017067 -26.102861 -28.915669
32.162933 -24.79431 -29.44424
32.062378 -25.241978 -30.038107
31.891191 -27.402959 -28.380406
31.689557 -27.823625 -28.934219
31.664237 -28.676055 -27.80509
32.017067 -26.102861 -28.915669
31.891191 -27.402959 -28.380406
30.875256 -32.678751 -24.428606
31.091512 -31.954231 -25.494826
30.875256 -32.678751 -24.428606
30.55419 -33.838045 -23.820069
28.898903 -37.735674 -20.941118
28.511641 -38.258291 -19.92428
28.584877 -38.184698 -21.3969
28.898903 -37.735674 -20.941118
29.145599 -37.156132 -21.987602
25.926013 -42.987516 -23.872795
25.997495 -42.16332 -23.779644
26.485151 -41.613236 -24.613878
25.415529 -44.532919 -23.062349
25.926013 -42.987516 -23.872795
26.828972 -40.956844 -25.536199
27.332513 -40.332531 -26.392815
29.441819 -24.515921 -39.127041
29.272424 -25.593226 -38.06633
29.088532 -23.985356 -39.008373
29.551603 -21.812264 -41.085498
29.096849 -21.350001 -40.945988
29.782258 -23.466058 -40.130859
29.551603 -21.812264 -41.085498
29.441819 -24.515921 -39.127041
29.782258 -23.466058 -40.130859
3 87 23 88
3 0 26 24
3 0 28 26
3 0 29 28
3 2 89 91
3 89 31 90
3 89 90 91
3 2 33 31
3 2 34 33
3 3 92 94
3 92 35 93
3 92 93 94
3 3 37 35
3 3 38 37
3 4 41 39
3 4 42 41
3 1 44 43
3 5 47 45
3 5 49 47
3 5 51 49
3 96 95 52
3 97 55 98
3 99 57 100
3 8 101 102
3 8 103 105
3 103 58 104
3 103 104 105
3 8 60 58
3 10 61 22
3 10 62 61
3 11 65 63
3 13 66 25
3 13 67 66
3 13 69 67
3 106 70 107
3 108 107 27
3 106 107 108
3 110 109 70
3 15 111 112
3 15 113 115
3 113 71 114
3 113 114 115
3 6 72 54
3 16 73 30
3 16 74 73
3 16 75 74
3 117 116 32
3 7 118 120
3 120 119 56
3 118 119 120
3 17 121 122
3 17 123 124
3 17 125 126
3 128 127 36
3 18 129 130
3 18 131 132
3 9 77 59
3 133 78 134
3 135 134 40
3 133 134 135
3 138 137 78
3 136 137 138
3 12 79 64
3 140 139 46
3 19 141 143
3 143 142 48
3 141 142 143
3 19 144 145
3 19 146 148
3 146 80 147
3 146 147 148
3 20 81 50
3 20 82 81
3 14 83 68
3 21 84 53
3 21 85 84
3 21 149 151
3 151 150 85
3 149 150 151
3 152 86 153
3 154 153 76
3 152 153 154
3 155 8 156
3 157 22 158
3 159 158 8
3 157 158 159
3 23 160 162
3 160 22 161
3 160 161 162
3 23 10 22
3 24 25 11
3 26 25 24
3 26 13 25
3 26 27 13
3 28 27 26
3 28 163 165
3 165 164 27
3 163 164 165
3 28 166 167
3 29 168 170
3 170 169 28
3 168 169 170
3 29 171 172
3 173 15 174
3 175 30 176
3 177 176 6
3 175 176 177
3 31 178 180
3 178 30 179
3 178 179 180
3 31 16 30
3 31 32 16
3 33 32 31
3 33 181 183
3 183 182 32
3 181 182 183
3 33 184 185
3 34 186 188
3 188 187 33
3 186 187 188
3 34 189 190
3 192 191 7
3 35 193 194
3 35 195 197
3 195 17 196
3 195 196 197
3 35 36 17
3 37 36 35
3 37 198 200
3 200 199 36
3 198 199 200
3 37 201 202
3 38 203 205
3 205 204 37
3 203 204 205
3 38 206 208
3 206 18 207
3 206 207 208
3 39 40 9
3 41 40 39
3 41 209 211
3 211 210 40
3 209 210 211
3 41 212 213
3 42 214 216
3 216 215 41
3 214 215 216
3 42 217 218
3 43 219 220
3 44 221 223
3 223 222 43
3 221 222 223
3 44 224 225
3 45 46 12
3 47 46 45
3 47 226 228
3 228 227 46
3 226 227 228
3 47 229 231
3 229 48 230
3 229 230 231
3 49 48 47
3 49 19 48
3 49 50 19
3 51 50 49
3 51 20 50
3 52 53 14
3 232 53 233
3 234 233 52
3 232 233 234
3 235 21 236
3 237 236 53
3 235 236 237
3 239 238 21
3 240 54 241
3 55 242 244
3 242 54 243
3 242 243 244
3 55 6 54
3 245 55 246
3 247 55 248
3 249 6 250
3 251 250 55
3 249 250 251
3 253 252 6
3 254 2 255
3 256 56 257
3 258 257 2
3 256 257 258
3 57 259 261
3 259 56 260
3 259 260 261
3 57 7 56
3 262 57 263
3 264 57 265
3 266 7 267
3 268 267 57
3 266 267 268
3 270 269 7
3 58 271 272
3 58 273 275
3 273 3 274
3 273 274 275
3 58 59 3
3 60 59 58
3 60 9 59
3 22 60 8
3 61 60 22
3 61 9 60
3 61 39 9
3 62 39 61
3 62 4 39
3 63 64 1
3 65 64 63
3 65 12 64
3 25 65 11
3 66 65 25
3 66 12 65
3 66 45 12
3 67 45 66
3 67 5 45
3 67 68 5
3 69 68 67
3 69 14 68
3 27 69 13
3 70 69 27
3 70 14 69
3 70 52 14
3 276 52 277
3 278 277 70
3 276 277 278
3 280 279 52
3 281 43 282
3 71 283 285
3 283 43 284
3 283 284 285
3 71 1 43
3 54 286 287
3 72 288 290
3 290 289 54
3 288 289 290
3 72 291 293
3 291 15 292
3 291 292 293
3 30 72 6
3 73 72 30
3 73 15 72
3 73 71 15
3 74 71 73
3 74 1 71
3 74 63 1
3 75 63 74
3 75 11 63
3 32 75 16
3 294 75 295
3 296 295 32
3 294 295 296
3 297 11 298
3 299 298 75
3 297 298 299
3 300 24 301
3 302 301 11
3 300 301 302
3 303 24 304
3 305 0 306
3 307 306 24
3 305 306 307
3 308 76 309
3 310 309 0
3 308 309 310
3 311 76 312
3 314 313 76
3 56 34 2
3 315 34 316
3 317 316 56
3 315 316 317
3 319 318 34
3 321 320 7
3 36 322 324
3 324 323 17
3 322 323 324
3 326 325 36
3 59 38 3
3 77 38 59
3 77 18 38
3 40 77 9
3 78 77 40
3 78 18 77
3 78 327 329
3 329 328 18
3 327 328 329
3 331 330 78
3 64 44 1
3 79 44 64
3 79 332 334
3 334 333 44
3 332 333 334
3 46 79 12
3 335 79 336
3 337 336 46
3 335 336 337
3 339 338 79
3 48 340 341
3 343 342 48
3 344 23 345
3 80 346 348
3 346 23 347
3 346 347 348
3 80 10 23
3 50 80 19
3 81 80 50
3 81 10 80
3 81 62 10
3 82 62 81
3 82 4 62
3 68 51 5
3 83 51 68
3 83 20 51
3 53 83 14
3 84 83 53
3 84 20 83
3 84 82 20
3 85 82 84
3 85 4 82
3 85 42 4
3 349 42 350
3 351 350 85
3 349 350 351
3 353 352 42
3 355 354 21
3 76 29 0
3 86 29 76
3 86 356 358
3 358 357 29
3 356 357 358
3 359 86 360
3 361 86 362
3 364 363 86
