ply
format ascii 1.0
element vertex 652
property float x
property float y
property float z
element face 682
property list uchar int vertex_index
end_header
-44.161617 38.495037 28.215233
-53.868011 36.377544 12.080198
-49.146347 51.047604 -3.999538
-45.883362 27.379391 24.821579
-48.528469 37.821651 20.01033
-48.354313 55.360508 1.322517
-46.535316 61.398525 -9.498486
-46.010647 54.583523 -12.967096
-49.409645 47.099209 11.920856
-52.17868 44.426292 4.82606
-46.530266 40.43832 2.851989
-42.023445 45.951588 -3.46904
-39.186356 47.453564 -11.337683
-47.101212 32.743702 22.734703
-45.777702 38.280895 24.014053
-44.53743 64.397614 -5.60647
-53.560413 32.065941 14.631819
-46.557487 52.717724 11.311935
-49.764408 53.288311 -2.077471
-50.776611 49.819805 3.034998
-50.704132 48.001591 0.5257
-50.365776 42.654003 3.085891
-48.270973 45.966442 -0.425207
-44.088379 43.540329 -0.000153
-46.305653 48.686367 -4.32094
-43.063351 51.142422 -12.51897
-37.926334 46.34502 -15.08511
-49.269226 27.5868 20.735596
-50.571243 32.511795 18.763145
-51.680504 37.206009 16.016569
-45.976616 57.108318 5.771371
-45.373203 61.07983 0.033335
-47.604897 58.761654 -4.198996
-48.60997 56.098507 -7.189487
-47.600929 53.335621 -8.590479
-47.210342 58.024212 -12.029125
-45.105293 43.849968 24.90641
-44.424103 49.165791 25.56423
-33.657078 39.904522 -17.459991
-46.769764 43.33984 20.593939
-49.362938 42.577019 16.402872
-52.017082 41.657551 12.356216
-48.967476 51.404285 6.790529
-51.607143 45.887249 7.933305
-53.341698 40.509342 8.749633
-52.348007 38.989571 6.155205
-49.112354 36.952148 5.054951
-44.632843 34.160954 5.342397
-41.851597 37.447269 3.613961
-44.593731 50.512783 -8.451944
-40.43433 47.333546 -7.359762
-35.601112 43.096081 -10.291086
-34.757515 41.909412 -14.113752
-44.165745 35.657261 27.510906
-45.087879 35.600082 25.443626
-44.81879 38.425407 26.078169
-41.962147 68.444626 -8.736225
-53.815536 34.24474 13.458311
-54.424324 33.781979 11.519966
-54.197662 35.825424 10.276662
-45.175259 55.568981 11.037495
-49.746277 52.180729 -3.241869
-50.400368 50.633526 -0.808048
-49.926613 49.60387 -1.716967
-49.767426 47.015362 -0.147806
-48.858871 48.537228 -2.218122
-47.260792 47.41795 -2.330786
-47.974514 49.889675 -4.347731
-47.49585 27.502716 22.790493
-47.85033 35.326279 21.473024
-48.807007 32.647568 20.765383
-49.525795 35.127991 19.501598
-51.201126 34.891499 17.503056
-50.132706 37.532467 18.018789
-43.769424 63.927128 -0.432486
-45.649216 62.968334 -7.696527
-46.166763 61.576664 -4.991886
-47.12574 60.189526 -6.896166
-48.324638 57.455776 -5.877277
-47.756012 58.713367 -8.47027
-47.952122 57.188717 -9.665348
-47.085579 59.735416 -10.956644
-44.46521 46.58913 27.553211
-44.091034 49.098606 27.897488
-34.849609 42.089111 -17.920315
-45.804459 43.637611 22.731026
-46.008068 46.113033 20.77494
-48.134834 47.630627 14.096
-48.151932 45.329601 16.395622
-49.47261 44.862797 14.260845
-50.766968 42.137928 14.351104
-50.778351 44.355816 12.18976
-47.203468 56.283733 3.446522
-47.483055 54.237087 6.248605
-48.672924 53.438511 4.079845
-51.628883 47.1152 3.952977
-51.224609 47.899799 5.525537
-52.168167 45.191929 6.236283
-52.615578 43.188293 8.418557
-52.818588 42.500572 6.847178
-53.157143 39.804344 7.287153
-52.411957 41.72636 5.58131
-48.639107 41.617004 2.796062
-49.81773 39.862682 4.16807
-47.821228 38.726688 4.032491
-46.946041 35.671417 5.063085
-45.560135 37.403973 4.208322
-43.209167 35.842342 4.585814
-44.207901 39.068523 3.166476
-42.998051 44.853725 -1.665342
-41.73777 42.04776 0.500519
-40.676746 43.28019 -1.111765
-38.47364 41.413437 -0.59617
-39.756184 44.283157 -2.882732
-46.82233 54.108166 -10.828403
-46.310631 51.942547 -8.689117
-45.517529 52.565113 -10.827585
-41.169182 49.354061 -11.967022
-41.856808 49.342037 -9.988508
-39.786118 47.556332 -9.360279
-38.329224 45.450382 -6.749479
-37.777534 45.57098 -8.753418
-37.278 45.384052 -10.743702
-37.168854 45.404797 -16.812824
-36.227119 44.188801 -14.539536
-35.588951 43.243073 -16.291695
-34.241364 41.009464 -15.862642
-46.400921 30.084534 23.834251
-45.599983 32.801086 24.70718
-46.333771 35.486412 23.44202
-47.03569 38.074512 22.000637
-43.31414 65.644989 -3.289547
-43.924171 65.742966 -8.296576
-53.156212 29.841652 15.614634
-54.283527 29.587036 13.475876
-46.807297 50.434177 13.90764
-47.982002 49.888538 11.613685
-49.260635 54.355213 -0.538904
-49.664848 52.563602 2.140283
-50.286682 51.624004 0.491947
-51.032013 48.936878 1.597131
-51.46286 46.267498 2.712142
-51.573486 43.583706 3.763262
-50.681007 45.354992 1.849524
-49.315235 44.367844 1.382667
-47.4641 43.281776 1.290358
-45.275051 42.055 1.508065
-46.326054 44.824688 -0.348286
-45.253429 46.209171 -2.114069
-44.267307 47.394566 -3.992226
-44.718277 52.871906 -12.884089
-38.584053 47.039829 -13.254772
-48.086205 30.097828 21.844994
-49.885597 30.070854 19.825008
-51.634933 29.992615 17.746832
-52.216679 32.325363 16.712307
-52.691616 34.604763 15.477017
-52.984314 36.828735 14.020466
-44.822136 57.821033 8.238251
-44.482124 59.986118 5.367416
-45.684635 59.161755 2.907829
-46.907845 58.207714 0.615873
-45.00547 62.833981 -2.816698
-46.573528 59.980846 -2.208452
-48.005085 57.143452 -1.447851
-48.818954 55.994152 -3.221558
-49.208565 54.788425 -4.647764
-49.07357 53.552532 -5.681618
-48.371468 52.302898 -6.30076
-48.378098 54.719578 -8.097904
-47.64653 55.647915 -10.45188
-46.854912 56.300404 -12.696129
-44.255737 41.272995 28.846119
-44.705692 41.225151 26.635958
-43.755405 38.484909 30.438101
-45.392853 41.081993 24.492922
-46.363071 40.856388 22.404795
-47.605972 40.567741 20.353998
-47.983536 42.980125 18.486105
-49.047726 40.234367 18.322632
-50.55574 39.865948 16.300865
-51.956085 39.459473 14.296697
-53.061447 39.000134 12.343773
-46.269348 54.950336 8.586231
-47.749825 52.096714 8.984447
-49.224644 49.284016 9.417517
-50.036903 50.644154 4.786724
-50.367386 48.621967 7.368483
-50.628868 46.520084 9.849302
-51.886627 43.801987 10.222967
-52.927963 41.120998 10.466164
-53.70401 38.466064 10.503611
-53.765926 37.834045 8.859737
-53.200249 37.082954 7.503105
-52.035919 36.192924 6.510928
-51.389362 40.853104 4.679178
-50.963127 38.046925 5.406712
-50.366516 35.141838 5.926236
-48.33075 33.901707 5.742577
-46.090031 32.436764 5.896923
-42.340843 32.370949 5.760626
-40.939491 33.984894 5.021503
-42.923344 40.629616 1.930364
-47.12513 51.03767 -6.51531
-45.417027 49.731785 -6.372683
-43.377872 48.337772 -5.956612
-43.819592 50.99181 -10.515886
-42.581112 48.99773 -7.970119
-41.171673 46.790607 -5.380722
-38.978386 45.016552 -4.776737
-36.777924 44.91251 -12.682386
-33.239304 38.712036 -15.606348
-44.508741 56.9888 10.915285
-44.731829 55.82412 12.295477
-46.689606 27.441053 23.806036
-47.332951 26.204164 23.225769
-46.526707 26.142502 24.241312
-42.925453 65.303904 -0.619175
-43.168829 64.379473 0.83446
-43.883051 48.991577 29.06741
-44.115876 47.795517 28.884516
-35.063698 42.488304 -18.927488
-35.56778 43.168676 -18.175176
-45.646486 47.488712 20.847613
-45.655997 46.250748 21.890571
-35.93745 43.745657 -17.360867
-36.378903 44.323935 -16.552259
-36.727402 44.826519 -17.621431
-35.56778 43.168676 -18.175176
-35.21928 42.666092 -17.106005
-35.93745 43.745657 -17.360867
-45.000263 32.808296 25.715608
-45.27935 31.417778 25.27141
-43.523254 66.290177 -9.569641
-42.943159 67.093796 -8.5164
-42.542242 67.641007 -9.789466
-44.452599 64.934006 -9.287535
-43.523254 66.290177 -9.569641
-46.682392 51.57595 12.609787
-46.165336 51.846603 13.815918
-46.040431 52.988377 12.518065
-49.943016 26.410847 20.065361
-49.063755 26.341124 21.145164
-50.163491 27.603209 19.678796
-49.943016 26.410847 20.065361
-43.739107 61.401775 5.197593
-43.946731 60.325847 6.652596
-45.528919 60.120793 1.470582
-44.913812 60.59676 2.686339
-44.758096 61.555797 1.249093
-44.443291 42.61495 27.987243
-44.276252 42.610794 29.123997
-44.620691 47.859379 25.414665
-44.641245 46.571049 26.409155
-44.444657 47.87746 26.55872
-44.605007 49.124748 24.40103
-44.620691 47.859379 25.414665
-43.633894 38.442068 31.594207
-43.486837 37.03705 31.180731
-43.856278 39.854126 30.78342
-43.633894 38.442068 31.594207
-33.344454 39.216577 -18.17429
-33.238872 38.824608 -17.287834
-44.2207 32.433022 5.807965
-44.949294 31.570927 6.085228
-45.361437 33.298859 5.61966
-43.486843 33.265951 5.551512
-43.0747 31.53802 6.017079
-44.2207 32.433022 5.807965
-40.743015 36.479608 3.829485
-40.286963 34.748421 4.533256
-41.395544 35.716082 4.317732
-41.164854 40.492965 1.460839
-40.598252 41.161047 0.756297
-37.515551 40.300612 -0.428064
-38.06048 41.864159 -1.484888
-37.65243 44.197796 -5.514419
-37.383351 44.367328 -6.507709
-35.089769 41.945505 -9.173356
-35.798321 43.212791 -9.287947
-34.943337 41.827731 -10.181609
-35.089769 41.945505 -9.173356
-34.980168 42.260784 -13.179671
-35.71497 43.400478 -13.392563
-35.492317 43.049107 -14.326644
-34.369535 41.01226 -13.071963
-34.980168 42.260784 -13.179671
-34.196148 40.701387 -14.002031
-34.369535 41.01226 -13.071963
-33.238872 38.824608 -17.287834
-33.029985 38.228365 -16.361013
-33.448191 39.308279 -16.533169
-44.626812 35.628671 26.477266
-44.744211 34.207794 26.08383
-44.283144 34.236384 27.11747
-40.859576 69.722854 -8.902282
-41.342669 69.117058 -7.581359
-41.46921 68.955002 -9.99053
-40.859576 69.722854 -8.902282
-42.542242 67.641007 -9.789466
-41.46921 68.955002 -9.99053
-54.129032 32.973801 13.020626
-54.00147 31.884402 13.60738
-53.687974 33.155341 14.045065
-54.433426 32.742421 12.051454
-54.129032 32.973801 13.020626
-54.11993 34.013359 12.489138
-54.588186 32.492199 11.092898
-54.433426 32.742421 12.051454
-54.426006 33.484096 10.64254
-54.588186 32.492199 11.092898
-54.312675 34.505819 10.020888
-54.426006 33.484096 10.64254
-54.310993 34.803702 10.898314
-54.051239 35.485943 9.493316
-54.312675 34.505819 10.020888
-45.349317 54.414005 12.380845
-44.731829 55.82412 12.295477
-45.866373 54.143352 11.174715
-46.040431 52.988377 12.518065
-45.349317 54.414005 12.380845
-48.177067 26.299082 22.172613
-47.332951 26.204164 23.225769
-48.382538 27.544758 21.763044
-49.063755 26.341124 21.145164
-48.177067 26.299082 22.172613
-43.956207 62.979447 1.016182
-43.168829 64.379473 0.83446
-44.571314 62.503479 -0.199575
-44.758096 61.555797 1.249093
-43.956207 62.979447 1.016182
-44.302964 46.540779 28.712378
-44.380989 45.268861 28.477543
-44.278122 47.843868 27.72535
-44.302964 46.540779 28.712378
-44.115876 47.795517 28.884516
-34.435924 41.400934 -18.667704
-33.839659 40.308639 -18.437542
-34.253343 40.996817 -17.690153
-34.435924 41.400934 -18.667704
-35.063698 42.488304 -18.927488
-45.554192 45.013036 22.868614
-45.454876 43.743789 23.818718
-45.204609 45.119215 23.956305
-45.906264 44.875322 21.752983
-45.554192 45.013036 22.868614
-45.655997 46.250748 21.890571
-48.143383 46.480114 15.245811
-47.557773 46.721012 16.366067
-47.549224 47.871525 15.216256
-40.06774 41.777262 -0.049845
-40.598252 41.161047 0.756297
-41.207258 42.663975 -0.305623
-39.575193 42.346813 -0.853967
-38.966187 40.843885 0.207953
-40.06774 41.777262 -0.049845
-38.701752 43.299019 -2.628169
-38.06048 41.864159 -1.484888
-39.114912 42.848297 -1.739451
-37.107506 44.427627 -7.509679
-37.383351 44.367328 -6.507709
-38.053379 45.510681 -7.751449
-36.886532 44.450241 -8.519113
-37.107506 44.427627 -7.509679
-36.636764 44.356777 -9.514254
-36.886532 44.450241 -8.519113
-37.527767 45.477516 -9.74856
-36.439556 44.240066 -10.517394
-35.798321 43.212791 -9.287947
-36.636764 44.356777 -9.514254
-45.679819 30.059502 24.834945
-46.142141 28.731963 24.327915
-45.421039 28.70693 25.328609
-46.000452 31.44281 24.270716
-45.679819 30.059502 24.834945
-45.27935 31.417778 25.27141
-45.343931 34.200584 25.075403
-45.000263 32.808296 25.715608
-44.744211 34.207794 26.08383
-42.398701 66.99282 -3.474818
-42.697811 66.162834 -2.047706
-43.020758 66.402504 -4.68001
-42.398701 66.99282 -3.474818
-43.632402 65.778817 -5.838471
-43.925785 65.021301 -4.448009
-43.020758 66.402504 -4.68001
-42.344761 67.802323 -7.403349
-41.342669 69.117058 -7.581359
-43.325773 66.451493 -7.183524
-42.344761 67.802323 -7.403349
-42.943159 67.093796 -8.5164
-44.230801 65.07029 -6.951523
-43.632402 65.778817 -5.838471
-43.325773 66.451493 -7.183524
-45.315121 63.54669 -8.98751
-44.786693 64.35565 -7.996551
-44.452599 64.934006 -9.287535
-45.758171 62.761786 -9.88849
-46.092266 62.18343 -8.597506
-45.315121 63.54669 -8.98751
-46.166517 61.87653 -10.728172
-45.758171 62.761786 -9.88849
-53.586483 28.640156 14.921613
-52.925697 28.711018 16.028219
-54.15014 28.512848 13.852234
-53.586483 28.640156 14.921613
-53.71987 29.714344 14.545255
-54.583302 28.372059 12.769658
-54.15014 28.512848 13.852234
-54.363028 30.644949 13.029408
-53.92197 30.826489 14.053847
-54.00147 31.884402 13.60738
-54.586134 29.389862 12.449355
-54.363028 30.644949 13.029408
-54.583302 28.372059 12.769658
-54.586134 29.389862 12.449355
-46.313511 50.672584 15.084071
-46.165336 51.846603 13.815918
-46.885456 49.2733 15.122076
-46.313511 50.672584 15.084071
-47.471065 49.032402 14.00182
-47.549224 47.871525 15.216256
-46.885456 49.2733 15.122076
-44.92395 53.802033 -13.921762
-45.364462 53.727715 -12.925593
-45.570135 54.657841 -13.963265
-44.295856 52.857273 -13.849708
-44.92395 53.802033 -13.921762
-43.468393 51.992531 -13.667148
-43.890814 52.007164 -12.701529
-44.295856 52.857273 -13.849708
-42.672493 51.049183 -13.470147
-43.468393 51.992531 -13.667148
-41.725409 50.155003 -13.194173
-42.116266 50.248242 -12.242996
-42.672493 51.049183 -13.470147
-40.819959 49.195706 -12.917472
-41.725409 50.155003 -13.194173
-39.828547 48.245457 -12.602802
-40.177769 48.403813 -11.652352
-40.819959 49.195706 -12.917472
-39.527395 48.03859 -13.561347
-38.885205 47.246696 -12.296228
-39.828547 48.245457 -12.602802
-39.146682 47.727337 -14.46051
-39.527395 48.03859 -13.561347
-38.817823 47.379932 -15.375679
-38.255193 46.692425 -14.169941
-39.146682 47.727337 -14.46051
-38.381919 46.933662 -16.218376
-38.817823 47.379932 -15.375679
-38.00318 46.463551 -17.082234
-37.547594 45.874909 -15.948967
-38.381919 46.933662 -16.218376
-37.495739 45.9012 -17.869363
-38.00318 46.463551 -17.082234
-36.727402 44.826519 -17.621431
-37.495739 45.9012 -17.869363
-50.471676 28.845236 19.223502
-50.163491 27.603209 19.678796
-49.577411 28.828827 20.280302
-51.346344 28.806116 18.184414
-50.471676 28.845236 19.223502
-50.760265 30.031734 18.78592
-52.165058 28.786499 17.094318
-51.346344 28.806116 18.184414
-52.395573 29.917133 16.680733
-52.925697 28.711018 16.028219
-52.165058 28.786499 17.094318
-44.116737 59.243305 8.088014
-44.33218 58.114826 9.515663
-44.65213 58.903576 6.802834
-44.116737 59.243305 8.088014
-43.946731 60.325847 6.652596
-44.312557 61.008941 3.916133
-43.739107 61.401775 5.197593
-45.083379 59.573937 4.137622
-44.312557 61.008941 3.916133
-44.913812 60.59676 2.686339
-43.541782 64.786058 -1.861017
-42.925453 65.303904 -0.619175
-42.697811 66.162834 -2.047706
-46.441648 61.044975 -11.457251
-46.810448 60.56697 -10.227565
-46.166517 61.87653 -10.728172
-46.682621 60.110271 -12.121054
-46.441648 61.044975 -11.457251
-46.745002 59.254669 -12.657295
-47.14796 58.879814 -11.492885
-46.682621 60.110271 -12.121054
-46.780899 58.2958 -13.129133
-46.745002 59.254669 -12.657295
-46.603184 57.433895 -13.462635
-47.032627 57.162308 -12.362627
-46.780899 58.2958 -13.129133
-46.412025 56.471016 -13.738273
-46.603184 57.433895 -13.462635
-45.989893 55.612575 -13.873756
-46.432779 55.441963 -12.831613
-46.412025 56.471016 -13.738273
-45.570135 54.657841 -13.963265
-45.989893 55.612575 -13.873756
-44.668268 42.591028 26.882163
-44.480715 41.249073 27.741039
-44.443291 42.61495 27.987243
-44.868069 43.903436 26.017389
-44.905493 42.53756 25.771184
-44.668268 42.591028 26.882163
-44.548027 45.273017 27.340789
-44.380989 45.268861 28.477543
-44.548027 45.273017 27.340789
-44.641245 46.571049 26.409155
-44.961286 45.201467 25.085755
-44.868069 43.903436 26.017389
-45.204609 45.119215 23.956305
-44.961286 45.201467 25.085755
-43.755854 50.282207 28.019207
-43.883051 48.991577 29.06741
-43.96162 50.382328 26.842652
-43.755854 50.282207 28.019207
-44.128155 50.41592 25.676023
-44.257569 49.132199 26.730859
-43.96162 50.382328 26.842652
-44.296329 50.432663 24.490958
-44.128155 50.41592 25.676023
-44.605007 49.124748 24.40103
-44.296329 50.432663 24.490958
-45.779431 26.029278 25.286803
-46.526707 26.142502 24.241312
-45.21183 27.301811 25.847777
-45.779431 26.029278 25.286803
-45.421039 28.70693 25.328609
-45.21183 27.301811 25.847777
-43.854378 34.220627 28.165332
-44.283144 34.236384 27.11747
-43.863502 35.655 28.589012
-43.854378 34.220627 28.165332
-43.861438 37.073889 28.941175
-44.163681 37.076149 27.86307
-43.863502 35.655 28.589012
-43.658333 37.068825 30.052609
-43.486837 37.03705 31.180731
-43.958511 38.489973 29.326667
-43.861438 37.073889 28.941175
-43.658333 37.068825 30.052609
-44.106443 41.248169 29.987429
-44.005571 39.878952 29.64211
-43.856278 39.854126 30.78342
-44.276252 42.610794 29.123997
-44.106443 41.248169 29.987429
-33.344454 39.216577 -18.17429
-33.839659 40.308639 -18.437542
-46.004633 47.322239 19.695802
-45.646486 47.488712 20.847613
-46.487082 45.932438 19.672726
-46.004633 47.322239 19.695802
-46.86793 44.545841 19.582226
-46.388916 44.726437 20.684439
-46.487082 45.932438 19.672726
-47.559014 45.540722 17.483067
-47.557773 46.721012 16.366067
-47.474816 44.365983 18.528309
-47.559014 45.540722 17.483067
-48.067734 44.154863 17.440863
-47.37665 43.159982 19.540022
-46.86793 44.545841 19.582226
-47.474816 44.365983 18.528309
-44.998697 56.695007 9.637873
-44.508741 56.9888 10.915285
-44.33218 58.114826 9.515663
-53.835371 36.490253 8.784854
-54.051239 35.485943 9.493316
-53.981794 36.829735 9.5682
-53.552532 36.114708 8.106537
-53.835371 36.490253 8.784854
-53.483087 37.4585 8.181421
-53.098171 35.70025 7.490684
-53.552532 36.114708 8.106537
-52.516007 35.255235 6.994595
-53.098171 35.70025 7.490684
-52.618084 36.637939 7.007016
-51.790989 34.754819 6.582223
-52.516007 35.255235 6.994595
-50.956288 34.229276 6.289877
-51.790989 34.754819 6.582223
-51.201217 35.667381 6.218582
-50.022942 33.630892 6.093737
-50.956288 34.229276 6.289877
-49.005059 33.010827 6.001907
-50.022942 33.630892 6.093737
-49.348633 34.521772 5.834407
-47.939667 32.300078 6.005167
-49.005059 33.010827 6.001907
-46.819308 31.567606 6.08234
-47.939667 32.300078 6.005167
-47.210391 33.169235 5.81975
-45.701584 30.727568 6.237863
-46.819308 31.567606 6.08234
-45.701584 30.727568 6.237863
-44.949294 31.570927 6.085228
-41.989895 30.517483 6.239415
-43.0747 31.53802 6.017079
-41.282379 31.31212 5.959732
-41.989895 30.517483 6.239415
-40.581703 32.119093 5.590171
-41.282379 31.31212 5.959732
-41.640167 33.177921 5.391065
-39.922327 32.882358 5.189075
-40.581703 32.119093 5.590171
-39.922327 32.882358 5.189075
-40.286963 34.748421 4.533256
-41.757641 39.783893 2.175762
-42.330557 41.338688 1.215442
-41.164854 40.492965 1.460839
-41.221767 38.19272 3.01756
-42.38747 39.038443 2.772163
-41.757641 39.783893 2.175762
-40.743015 36.479608 3.829485
-41.221767 38.19272 3.01756
-37.948459 39.782988 0.395339
-38.966187 40.843885 0.207953
-37.948459 39.782988 0.395339
-37.515551 40.300612 -0.428064
-38.312853 43.665716 -3.575171
-38.701752 43.299019 -2.628169
-39.367285 44.649855 -3.829734
-37.977011 43.980881 -4.528048
-38.653805 45.233467 -5.763108
-37.65243 44.197796 -5.514419
-38.312853 43.665716 -3.575171
-37.977011 43.980881 -4.528048
-35.990372 43.762333 -12.463988
-36.502522 44.550655 -13.610961
-35.71497 43.400478 -13.392563
-35.401966 42.854118 -11.268338
-36.189518 44.004295 -11.486736
-35.990372 43.762333 -12.463988
-34.943337 41.827731 -10.181609
-35.401966 42.854118 -11.268338
-33.938072 40.251413 -14.876476
-34.196148 40.701387 -14.002031
-34.499439 41.459438 -14.988197
-33.437042 39.102699 -14.748329
-33.938072 40.251413 -14.876476
-33.740334 39.86075 -15.734495
-33.08214 37.834797 -14.780503
-33.437042 39.102699 -14.748329
-32.93928 37.561721 -15.615174
-33.08214 37.834797 -14.780503
-32.729962 37.078051 -16.369838
-32.93928 37.561721 -15.615174
-33.029985 38.228365 -16.361013
3 0 55 53
3 1 58 57
3 1 59 58
3 212 60 213
3 2 63 61
3 2 65 63
3 2 67 65
3 3 214 216
3 214 68 215
3 214 215 216
3 4 71 69
3 4 73 71
3 217 74 218
3 6 77 75
3 6 79 77
3 6 81 79
3 219 83 220
3 222 221 84
3 223 86 224
3 8 89 87
3 8 91 89
3 5 94 92
3 9 97 95
3 9 99 97
3 9 101 99
3 10 104 102
3 10 106 104
3 10 108 106
3 11 111 109
3 11 113 111
3 7 116 114
3 12 119 117
3 12 121 119
3 12 122 121
3 225 125 226
3 227 226 123
3 225 226 227
3 228 84 229
3 230 229 125
3 228 229 230
3 231 128 232
3 14 129 54
3 14 130 129
3 233 132 234
3 235 234 56
3 233 234 235
3 237 236 132
3 16 134 133
3 17 238 240
3 238 135 239
3 238 239 240
3 17 136 135
3 18 139 137
3 20 140 62
3 20 141 140
3 20 143 141
3 22 144 64
3 22 145 144
3 22 147 145
3 24 148 66
3 24 149 148
3 27 241 242
3 27 243 244
3 13 152 127
3 28 153 70
3 28 154 153
3 28 155 154
3 29 156 72
3 29 157 156
3 245 159 246
3 31 247 249
3 247 160 248
3 247 248 249
3 31 161 160
3 15 162 131
3 32 163 76
3 32 164 163
3 32 165 164
3 33 166 78
3 33 167 166
3 33 169 167
3 35 170 80
3 35 171 170
3 251 250 172
3 37 252 254
3 254 253 82
3 252 253 254
3 37 255 256
3 257 174 258
3 260 259 174
3 38 261 262
3 36 175 173
3 39 176 85
3 39 177 176
3 40 178 88
3 40 179 178
3 40 180 179
3 41 181 90
3 41 182 181
3 30 183 158
3 42 184 93
3 42 185 184
3 19 186 138
3 43 187 96
3 43 188 187
3 43 189 188
3 44 190 98
3 44 191 190
3 44 192 191
3 45 193 100
3 45 194 193
3 21 195 142
3 46 196 103
3 46 197 196
3 46 198 197
3 47 199 105
3 47 263 265
3 265 264 199
3 263 264 265
3 47 266 268
3 266 200 267
3 266 267 268
3 48 201 107
3 48 269 271
3 271 270 201
3 269 270 271
3 23 202 146
3 273 272 110
3 275 274 112
3 34 203 168
3 49 204 115
3 49 205 204
3 25 206 150
3 50 207 118
3 50 208 207
3 50 209 208
3 277 276 120
3 51 278 279
3 51 280 281
3 26 210 151
3 52 282 284
3 284 283 124
3 282 283 284
3 52 285 286
3 52 287 288
3 38 211 126
3 38 289 291
3 291 290 211
3 289 290 291
3 53 292 294
3 292 54 293
3 292 293 294
3 55 54 53
3 55 14 54
3 295 56 296
3 297 56 298
3 300 299 56
3 57 301 303
3 303 302 16
3 301 302 303
3 58 304 306
3 306 305 57
3 304 305 306
3 58 307 308
3 58 309 310
3 59 311 313
3 313 312 58
3 311 312 313
3 59 314 315
3 60 316 317
3 60 318 320
3 318 17 319
3 318 319 320
3 61 62 18
3 63 62 61
3 63 20 62
3 63 64 20
3 65 64 63
3 65 22 64
3 65 66 22
3 67 66 65
3 67 24 66
3 68 321 322
3 68 323 325
3 323 27 324
3 323 324 325
3 69 70 13
3 71 70 69
3 71 28 70
3 71 72 28
3 73 72 71
3 73 29 72
3 74 326 327
3 74 328 330
3 328 31 329
3 328 329 330
3 75 76 15
3 77 76 75
3 77 32 76
3 77 78 32
3 79 78 77
3 79 33 78
3 79 80 33
3 81 80 79
3 81 35 80
3 331 82 332
3 83 333 335
3 333 82 334
3 333 334 335
3 83 37 82
3 84 336 338
3 338 337 38
3 336 337 338
3 340 339 84
3 341 85 342
3 343 342 36
3 341 342 343
3 86 344 346
3 344 85 345
3 344 345 346
3 86 39 85
3 87 347 349
3 347 88 348
3 347 348 349
3 89 88 87
3 89 40 88
3 89 90 40
3 91 90 89
3 91 41 90
3 92 93 30
3 94 93 92
3 94 42 93
3 95 96 19
3 97 96 95
3 97 43 96
3 97 98 43
3 99 98 97
3 99 44 98
3 99 100 44
3 101 100 99
3 101 45 100
3 102 103 21
3 104 103 102
3 104 46 103
3 104 105 46
3 106 105 104
3 106 47 105
3 106 107 47
3 108 107 106
3 108 48 107
3 109 110 23
3 111 110 109
3 111 350 352
3 352 351 110
3 350 351 352
3 111 353 355
3 353 112 354
3 353 354 355
3 113 112 111
3 113 356 358
3 358 357 112
3 356 357 358
3 114 115 34
3 116 115 114
3 116 49 115
3 117 118 25
3 119 118 117
3 119 50 118
3 119 120 50
3 121 120 119
3 121 359 361
3 361 360 120
3 359 360 361
3 121 362 363
3 122 364 366
3 366 365 121
3 364 365 366
3 122 367 369
3 367 51 368
3 367 368 369
3 123 124 26
3 125 124 123
3 125 52 124
3 125 126 52
3 84 126 125
3 84 38 126
3 370 127 371
3 372 371 3
3 370 371 372
3 128 373 375
3 373 127 374
3 373 374 375
3 128 13 127
3 54 376 378
3 376 128 377
3 376 377 378
3 129 128 54
3 129 13 128
3 129 69 13
3 130 69 129
3 130 4 69
3 379 131 380
3 381 131 382
3 383 15 384
3 385 384 131
3 383 384 385
3 56 386 387
3 132 388 390
3 390 389 56
3 388 389 390
3 132 391 393
3 391 15 392
3 391 392 393
3 132 75 15
3 394 75 395
3 396 395 132
3 394 395 396
3 397 6 398
3 399 398 75
3 397 398 399
3 401 400 6
3 133 402 403
3 134 404 406
3 406 405 133
3 404 405 406
3 134 407 408
3 409 134 410
3 411 410 16
3 409 410 411
3 412 134 413
3 415 414 134
3 135 416 417
3 135 418 419
3 135 420 422
3 420 87 421
3 420 421 422
3 136 87 135
3 136 8 87
3 137 138 5
3 139 138 137
3 139 19 138
3 62 139 18
3 140 139 62
3 140 19 139
3 140 95 19
3 141 95 140
3 141 9 95
3 141 142 9
3 143 142 141
3 143 21 142
3 64 143 20
3 144 143 64
3 144 21 143
3 144 102 21
3 145 102 144
3 145 10 102
3 145 146 10
3 147 146 145
3 147 23 146
3 66 147 22
3 148 147 66
3 148 23 147
3 148 109 23
3 149 109 148
3 149 11 109
3 423 150 424
3 425 424 7
3 423 424 425
3 426 150 427
3 428 25 429
3 430 429 150
3 428 429 430
3 431 25 432
3 433 117 434
3 435 434 25
3 433 434 435
3 436 117 437
3 438 12 439
3 440 439 117
3 438 439 440
3 441 151 442
3 443 442 12
3 441 442 443
3 444 151 445
3 446 26 447
3 448 447 151
3 446 447 448
3 449 26 450
3 451 123 452
3 453 452 26
3 451 452 453
3 454 123 455
3 457 456 123
3 127 68 3
3 152 68 127
3 152 27 68
3 70 152 13
3 153 152 70
3 153 27 152
3 153 458 460
3 460 459 27
3 458 459 460
3 154 461 463
3 463 462 153
3 461 462 463
3 154 464 465
3 154 466 468
3 466 133 467
3 466 467 468
3 155 133 154
3 155 16 133
3 72 155 28
3 156 155 72
3 156 16 155
3 156 57 16
3 157 57 156
3 157 1 57
3 469 158 470
3 159 471 473
3 471 158 472
3 471 472 473
3 159 30 158
3 474 159 475
3 160 476 478
3 476 159 477
3 476 477 478
3 160 30 159
3 160 92 30
3 161 92 160
3 161 5 92
3 131 479 481
3 479 74 480
3 479 480 481
3 162 74 131
3 162 31 74
3 76 162 15
3 163 162 76
3 163 31 162
3 163 161 31
3 164 161 163
3 164 5 161
3 164 137 5
3 165 137 164
3 165 18 137
3 78 165 32
3 166 165 78
3 166 18 165
3 166 61 18
3 167 61 166
3 167 2 61
3 167 168 2
3 169 168 167
3 169 34 168
3 80 169 33
3 170 169 80
3 170 34 169
3 170 114 34
3 171 114 170
3 171 7 114
3 482 81 483
3 484 483 6
3 482 483 484
3 485 81 486
3 487 35 488
3 489 488 81
3 487 488 489
3 490 35 491
3 492 171 493
3 494 493 35
3 492 493 494
3 495 171 496
3 497 7 498
3 499 498 171
3 497 498 499
3 501 500 7
3 172 173 0
3 502 173 503
3 504 503 172
3 502 503 504
3 505 36 506
3 507 506 173
3 505 506 507
3 82 508 509
3 511 510 82
3 512 36 513
3 515 514 36
3 516 83 517
3 518 83 519
3 520 37 521
3 522 521 83
3 520 521 522
3 523 37 524
3 526 525 37
3 527 3 528
3 529 3 530
3 532 531 3
3 533 53 534
3 535 53 536
3 537 0 538
3 539 538 53
3 537 538 539
3 174 540 541
3 174 542 544
3 542 0 543
3 542 543 544
3 174 172 0
3 545 172 546
3 547 546 174
3 545 546 547
3 549 548 172
3 551 550 38
3 173 55 0
3 175 55 173
3 175 14 55
3 85 175 36
3 176 175 85
3 176 14 175
3 176 130 14
3 177 130 176
3 177 4 130
3 552 86 553
3 554 86 555
3 556 39 557
3 558 557 86
3 556 557 558
3 88 559 560
3 178 561 563
3 563 562 88
3 561 562 563
3 178 564 566
3 564 39 565
3 564 565 566
3 178 177 39
3 179 177 178
3 179 4 177
3 179 73 4
3 180 73 179
3 180 29 73
3 90 180 40
3 181 180 90
3 181 29 180
3 181 157 29
3 182 157 181
3 182 1 157
3 158 567 569
3 567 60 568
3 567 568 569
3 183 60 158
3 183 17 60
3 93 183 30
3 184 183 93
3 184 17 183
3 184 136 17
3 185 136 184
3 185 8 136
3 138 94 5
3 186 94 138
3 186 42 94
3 96 186 19
3 187 186 96
3 187 42 186
3 187 185 42
3 188 185 187
3 188 8 185
3 188 91 8
3 189 91 188
3 189 41 91
3 98 189 43
3 190 189 98
3 190 41 189
3 190 182 41
3 191 182 190
3 191 1 182
3 191 59 1
3 192 59 191
3 192 570 572
3 572 571 59
3 570 571 572
3 100 192 44
3 193 192 100
3 193 573 575
3 575 574 192
3 573 574 575
3 193 576 577
3 194 578 580
3 580 579 193
3 578 579 580
3 194 581 582
3 142 101 9
3 195 101 142
3 195 45 101
3 103 195 21
3 196 195 103
3 196 45 195
3 196 194 45
3 197 194 196
3 197 583 585
3 585 584 194
3 583 584 585
3 197 586 587
3 198 588 590
3 590 589 197
3 588 589 590
3 198 591 592
3 105 198 46
3 199 198 105
3 199 593 595
3 595 594 198
3 593 594 595
3 199 596 597
3 599 598 199
3 200 600 601
3 200 602 603
3 107 200 47
3 201 200 107
3 201 604 606
3 606 605 200
3 604 605 606
3 201 607 608
3 610 609 201
3 146 108 10
3 202 108 146
3 202 48 108
3 110 202 23
3 611 202 612
3 613 612 110
3 611 612 613
3 614 48 615
3 616 615 202
3 614 615 616
3 618 617 48
3 112 619 620
3 622 621 112
3 168 67 2
3 203 67 168
3 203 24 67
3 115 203 34
3 204 203 115
3 204 24 203
3 204 149 24
3 205 149 204
3 205 11 149
3 150 116 7
3 206 116 150
3 206 49 116
3 118 206 25
3 207 206 118
3 207 49 206
3 207 205 49
3 208 205 207
3 208 11 205
3 208 113 11
3 209 113 208
3 209 623 625
3 625 624 113
3 623 624 625
3 120 209 50
3 626 209 627
3 628 627 120
3 626 627 628
3 630 629 209
3 151 122 12
3 210 122 151
3 210 51 122
3 124 210 26
3 631 210 632
3 633 632 124
3 631 632 633
3 634 51 635
3 636 635 210
3 634 635 636
3 638 637 51
3 126 639 641
3 641 640 52
3 639 640 641
3 211 642 644
3 644 643 126
3 642 643 644
3 211 645 646
3 211 647 648
3 651 650 211
3 649 650 651
