ply
format ascii 1.0
element vertex 409
property float x
property float y
property float z
element face 390
property list uchar int vertex_index
end_header
33.276367 32.45937 -22.817266
46.587601 64.070152 -11.347015
33.691959 56.614212 -23.119101
47.220535 54.726784 -13.422504
41.794807 62.963242 -18.702749
41.055084 51.244164 -19.044291
36.391624 40.342949 -16.410173
32.364414 28.050583 -26.178377
29.471317 52.253166 -25.369967
34.286232 50.189392 -23.648008
39.980633 68.870346 -17.06378
44.71077 64.217583 -15.493031
44.469658 50.284889 -12.244444
44.364254 53.565018 -16.51309
41.613773 48.615288 -15.16765
38.3894 43.452721 -13.332739
49.567951 58.739067 -8.875736
47.92038 59.370064 -13.140818
49.58989 54.651321 -9.730436
47.265182 50.726288 -9.000563
47.571175 62.837631 -6.557182
34.954346 29.883949 -19.646624
37.972618 60.311935 -21.071066
45.483276 58.799431 -16.684042
42.227085 56.903214 -19.389647
38.362106 53.909767 -21.546289
34.655254 36.612198 -19.550478
32.759056 30.275845 -24.492353
30.838873 57.930626 -23.841757
28.713238 55.654694 -25.007967
31.546576 54.500702 -24.200903
32.038609 51.231316 -24.531763
34.119934 53.318192 -23.42993
44.680553 66.71032 -12.304174
43.739349 66.826241 -14.438482
45.773697 64.303749 -13.523983
43.049595 49.595665 -13.746052
41.26543 47.211983 -12.789064
39.963089 46.108566 -14.251642
39.487564 44.687225 -11.789904
37.922569 41.921745 -10.886477
49.872063 56.67585 -9.504318
45.405853 48.749802 -8.154474
41.03437 65.985764 -17.993704
39.283657 64.992149 -19.403395
39.974327 61.795662 -19.966043
47.848846 57.020851 -13.480118
46.806335 59.250786 -15.017939
46.592804 56.74295 -15.220121
42.758698 52.531967 -17.833628
43.572968 55.216896 -18.132196
41.834946 54.010468 -19.344133
40.34824 55.519539 -20.505377
39.984276 52.564911 -20.45669
38.063454 50.928001 -21.527998
37.453766 43.223118 -17.096224
36.255558 41.516193 -18.51174
35.113857 39.66869 -19.942621
35.486851 38.540943 -17.966852
35.093971 35.326012 -17.641764
35.681747 37.212917 -15.914225
26.691277 53.248535 -26.267241
27.505878 49.881882 -26.617239
28.157011 46.675789 -26.936228
30.038334 49.018036 -25.709204
42.526276 66.595421 -16.342276
43.383354 63.77552 -17.221487
46.061764 52.492554 -12.990051
45.853981 54.303963 -15.047789
44.635525 51.934845 -14.533268
43.139183 51.073418 -15.955599
41.578556 49.939369 -17.274729
40.163994 47.380447 -16.524488
38.692314 44.765362 -15.682013
37.359638 41.991447 -14.869551
36.344604 38.966904 -14.218803
37.087048 40.55014 -12.545088
48.214554 61.39534 -10.213362
47.472328 61.739021 -12.417162
48.836151 59.185318 -11.080431
48.939331 56.987099 -11.564869
48.464745 54.834641 -11.643148
48.702293 52.675423 -9.550917
47.417305 52.735413 -11.32498
45.874989 50.661659 -10.659872
43.983135 48.552231 -9.736996
47.17762 63.564949 -9.009121
48.760117 60.808647 -7.876961
34.16188 31.293209 -21.231058
33.094421 35.60376 -22.870531
35.855263 58.566238 -22.095934
46.512215 61.791801 -14.4433
45.316364 61.514122 -16.252768
43.877098 60.884232 -17.826136
45.16571 56.138367 -16.768686
43.950439 58.010071 -18.133043
42.207336 59.906502 -19.173231
40.341255 58.611259 -20.337831
38.330296 57.0467 -21.386751
36.235802 55.266792 -22.395426
36.323334 52.121704 -22.57757
34.051456 37.69503 -21.396021
33.912708 34.5784 -21.167391
34.584827 33.341431 -19.411821
35.154549 31.864033 -17.658812
33.017712 31.367607 -23.654809
32.513279 31.839214 -24.42427
32.771935 32.930977 -23.586727
40.965725 46.433166 -11.513089
41.934532 47.624066 -12.036751
40.076791 45.170788 -11.013509
40.376497 45.949604 -12.289484
40.965725 46.433166 -11.513089
39.179327 43.863548 -10.516592
40.076791 45.170788 -11.013509
40.168319 50.495942 -19.617871
39.632915 51.156315 -20.32407
40.51968 51.904538 -19.75049
31.716384 28.385601 -26.73411
31.976859 29.576614 -26.007246
32.224304 26.929037 -27.017912
31.716384 28.385601 -26.73411
33.293272 49.158886 -24.213676
32.16946 49.679848 -24.655554
33.16242 50.710354 -24.089886
34.243368 48.701988 -23.687908
33.293272 49.158886 -24.213676
37.332702 40.377993 -10.548283
37.666054 41.013537 -9.663218
47.983738 51.700856 -9.27574
48.668033 51.588421 -8.415712
47.949478 50.613853 -8.140536
43.645617 47.608483 -8.430454
44.694494 48.651016 -8.945735
44.356976 47.707268 -7.639194
42.960111 47.436138 -9.207595
43.645617 47.608483 -8.430454
46.709598 64.235996 -7.040343
46.854372 63.805698 -5.764544
47.374398 63.20129 -7.783152
46.512821 64.599655 -8.266312
46.709598 64.235996 -7.040343
34.889094 28.894617 -20.67358
34.49286 29.599247 -21.465798
34.558113 30.588579 -20.438841
28.403659 45.140577 -27.048132
29.282967 46.30661 -26.449337
33.158886 37.107384 -22.994978
32.589626 36.024397 -23.669285
38.54432 69.934731 -17.39988
39.333965 70.192272 -16.496727
36.59032 61.141941 -21.389384
37.646125 61.975243 -20.844181
36.91394 59.439087 -21.5835
35.531643 60.269092 -21.901817
36.59032 61.141941 -21.389384
37.091576 50.03281 -22.068091
37.768641 49.505867 -21.424509
35.290688 32.830494 -16.695038
35.12426 33.595022 -17.650288
35.260399 34.561483 -16.686514
35.405899 30.992079 -16.807144
35.290688 32.830494 -16.695038
36.059478 37.300635 -14.0362
36.275674 38.147911 -13.117028
32.17418 30.689245 -25.164234
32.513279 31.839214 -24.42427
32.561735 29.163214 -25.335365
31.976859 29.576614 -26.007246
32.17418 30.689245 -25.164234
29.776055 56.79266 -24.424862
28.251041 57.427594 -24.839798
29.313859 58.565559 -24.256693
44.209951 66.768281 -13.371328
43.111846 68.039265 -13.784539
43.582448 67.981304 -12.717385
42.826614 48.815906 -12.515245
43.759626 49.940277 -12.995248
43.536646 49.160518 -11.76444
42.157512 48.403824 -13.267558
42.826614 48.815906 -12.515245
41.934532 47.624066 -12.036751
38.39683 42.480808 -10.064878
38.705067 43.304485 -11.33819
39.179327 43.863548 -10.516592
37.666054 41.013537 -9.663218
38.39683 42.480808 -10.064878
50.262096 56.404053 -8.418062
49.720007 57.707459 -9.190027
50.11004 57.435661 -8.103771
50.233784 55.446354 -8.607532
50.262096 56.404053 -8.418062
50.092697 54.434089 -8.720591
49.730976 55.663585 -9.617377
50.233784 55.446354 -8.607532
47.065479 49.683491 -7.774699
47.949478 50.613853 -8.140536
46.135814 48.695248 -7.351655
46.335518 49.738045 -8.577519
47.065479 49.683491 -7.774699
45.091131 47.719501 -6.871249
46.135814 48.695248 -7.351655
44.356976 47.707268 -7.639194
45.091131 47.719501 -6.871249
47.682781 62.384525 -5.292216
46.854372 63.805698 -5.764544
48.349691 61.431697 -6.00204
47.682781 62.384525 -5.292216
35.351477 28.110495 -19.989168
35.315039 29.049418 -18.876099
39.674166 67.041328 -18.326329
39.147297 68.48362 -17.861367
40.507502 67.428055 -17.528742
38.798809 66.544521 -19.031174
39.674166 67.041328 -18.326329
40.159014 65.488957 -18.698549
37.84678 65.960964 -19.717574
38.798809 66.544521 -19.031174
38.301645 64.315349 -20.010345
37.84678 65.960964 -19.717574
38.64698 62.717106 -20.291669
38.301645 64.315349 -20.010345
39.628992 63.393906 -19.684719
38.973472 61.053798 -20.518555
37.646125 61.975243 -20.844181
38.64698 62.717106 -20.291669
38.672505 50.33786 -20.859724
39.023865 51.746456 -20.992344
39.632915 51.156315 -20.32407
37.768641 49.505867 -21.424509
38.672505 50.33786 -20.859724
37.357107 43.768007 -18.119065
38.08083 44.578363 -17.46838
36.758003 42.914545 -18.826822
37.357107 43.768007 -18.119065
36.854662 42.369656 -17.803982
36.049822 42.030651 -19.480818
36.758003 42.914545 -18.826822
35.684708 40.592441 -19.22718
35.478972 41.106899 -20.196258
36.049822 42.030651 -19.480818
35.554287 35.504936 -15.822744
35.260399 34.561483 -16.686514
35.387859 36.269464 -16.777994
27.221514 56.212868 -25.476137
28.251041 57.427594 -24.839798
26.210534 55.009788 -26.105774
27.221514 56.212868 -25.476137
27.702258 54.451614 -25.637604
25.247056 53.731945 -26.782017
26.210534 55.009788 -26.105774
25.747568 51.985683 -26.928825
25.247056 53.731945 -26.782017
26.154868 50.302357 -27.103825
25.747568 51.985683 -26.928825
27.098577 51.565208 -26.44224
26.593319 48.633724 -27.257538
25.24231 49.054199 -27.744124
26.154868 50.302357 -27.103825
27.831444 48.278835 -26.776733
26.918886 47.030678 -27.417032
26.593319 48.633724 -27.257538
30.223629 47.477733 -25.835825
29.282967 46.30661 -26.449337
29.097673 47.846913 -26.322716
31.169323 48.573208 -25.244274
31.038471 50.124676 -25.120483
32.16946 49.679848 -24.655554
30.223629 47.477733 -25.835825
31.169323 48.573208 -25.244274
40.677011 69.058468 -16.141088
39.333965 70.192272 -16.496727
42.55637 68.036416 -14.828439
43.111846 68.039265 -13.784539
41.949833 67.921006 -15.780335
42.55637 68.036416 -14.828439
43.132812 66.710831 -15.390379
41.253455 67.732883 -16.703028
40.677011 69.058468 -16.141088
41.949833 67.921006 -15.780335
40.772885 49.257297 -17.898281
40.511149 49.909695 -18.783062
41.31682 50.591766 -18.15951
40.065604 47.977836 -17.523161
40.772885 49.257297 -17.898281
40.871275 48.659908 -16.899608
39.435944 46.657028 -17.182512
40.065604 47.977836 -17.523161
38.700103 45.349486 -16.761274
39.435944 46.657028 -17.182512
39.428154 46.072904 -16.103251
38.07304 43.99424 -16.389118
38.08083 44.578363 -17.46838
38.700103 45.349486 -16.761274
36.646896 38.939529 -12.280171
36.275674 38.147911 -13.117028
36.715826 39.758522 -13.381946
36.914942 39.69219 -11.377588
37.504809 41.235943 -11.715782
37.332702 40.377993 -10.548283
36.646896 38.939529 -12.280171
36.914942 39.69219 -11.377588
30.392252 59.704548 -23.665501
29.313859 58.565559 -24.256693
31.931327 58.990646 -23.299743
30.392252 59.704548 -23.665501
33.35787 58.332439 -22.938415
32.265416 57.272419 -23.480429
31.931327 58.990646 -23.299743
49.751091 53.498112 -8.708802
50.092697 54.434089 -8.720591
49.307293 52.510162 -8.619042
48.668033 51.588421 -8.415712
49.146091 53.663372 -9.640676
49.751091 53.498112 -8.708802
49.307293 52.510162 -8.619042
43.293385 48.29419 -10.510717
43.536646 49.160518 -11.76444
44.226396 49.41856 -10.99072
43.293385 48.29419 -10.510717
42.960111 47.436138 -9.207595
44.004961 67.822449 -11.569371
43.582448 67.981304 -12.717385
45.026831 66.502941 -11.143282
44.004961 67.822449 -11.569371
45.980355 65.182857 -10.664703
45.634077 65.390236 -11.825595
45.026831 66.502941 -11.143282
46.275364 64.930256 -9.495756
46.512821 64.599655 -8.266312
46.88261 63.81755 -10.178068
45.980355 65.182857 -10.664703
46.275364 64.930256 -9.495756
48.944163 60.417206 -6.66193
48.165646 61.823139 -7.217071
48.349691 61.431697 -6.00204
49.44397 59.443748 -7.220881
48.944163 60.417206 -6.66193
49.847887 58.408958 -7.720269
49.164034 59.773857 -8.376348
49.44397 59.443748 -7.220881
50.11004 57.435661 -8.103771
49.847887 58.408958 -7.720269
33.996343 30.254151 -22.16532
33.553587 30.837231 -22.958424
33.719123 31.876289 -22.024162
33.996343 30.254151 -22.16532
34.49286 29.599247 -21.465798
34.889094 28.894617 -20.67358
35.351477 28.110495 -19.989168
27.292103 45.435493 -27.547027
26.918886 47.030678 -27.417032
27.292103 45.435493 -27.547027
28.403659 45.140577 -27.048132
32.680961 34.503172 -23.61336
32.589626 36.024397 -23.669285
33.185394 34.031565 -22.843899
32.771935 32.930977 -23.586727
32.680961 34.503172 -23.61336
38.54432 69.934731 -17.39988
39.147297 68.48362 -17.861367
34.439522 59.308453 -22.426832
35.531643 60.269092 -21.901817
34.773611 57.590225 -22.607518
33.35787 58.332439 -22.938415
34.439522 59.308453 -22.426832
36.221516 50.629661 -22.592877
37.193394 51.524853 -22.052784
37.091576 50.03281 -22.068091
35.202965 49.663505 -23.128096
35.304783 51.155548 -23.112789
36.221516 50.629661 -22.592877
34.243368 48.701988 -23.687908
35.202965 49.663505 -23.128096
40.168319 50.495942 -19.617871
40.511149 49.909695 -18.783062
34.800684 40.156149 -20.859287
35.478972 41.106899 -20.196258
34.269483 39.169319 -21.585987
34.800684 40.156149 -20.859287
34.582656 38.68186 -20.669321
33.637404 38.153019 -22.257723
34.269483 39.169319 -21.585987
33.572938 36.649395 -22.133276
33.158886 37.107384 -22.994978
33.637404 38.153019 -22.257723
35.41514 30.039459 -17.882193
35.315039 29.049418 -18.876099
35.054448 30.873991 -18.652718
35.41514 30.039459 -17.882193
35.405899 30.992079 -16.807144
35.72805 36.423641 -14.883911
36.013176 38.089911 -15.066514
36.059478 37.300635 -14.0362
35.554287 35.504936 -15.822744
35.72805 36.423641 -14.883911
33.294932 29.745469 -23.795967
33.017712 31.367607 -23.654809
33.553587 30.837231 -22.958424
33.174358 28.707886 -24.750998
33.294932 29.745469 -23.795967
32.977037 27.595255 -25.594009
32.561735 29.163214 -25.335365
33.174358 28.707886 -24.750998
32.894812 26.57395 -26.562384
32.977037 27.595255 -25.594009
32.754701 25.452404 -27.401919
32.224304 26.929037 -27.017912
32.894812 26.57395 -26.562384
3 0 105 107
3 105 27 106
3 105 106 107
3 2 30 28
3 2 32 30
3 1 35 33
3 108 37 109
3 110 39 111
3 112 111 37
3 110 111 112
3 114 113 39
3 4 44 43
3 4 45 44
3 3 48 46
3 5 51 49
3 5 53 51
3 5 115 117
3 117 116 53
3 115 116 117
3 6 56 55
3 6 58 56
3 6 60 58
3 7 118 119
3 7 120 121
3 8 61 29
3 8 62 61
3 8 64 62
3 9 122 124
3 124 123 31
3 122 123 124
3 9 125 126
3 11 65 34
3 11 66 65
3 12 69 67
3 14 70 36
3 14 71 70
3 14 72 71
3 15 73 38
3 15 74 73
3 15 76 74
3 128 127 40
3 16 79 77
3 18 80 41
3 18 81 80
3 19 129 131
3 129 82 130
3 129 130 131
3 19 83 82
3 19 84 83
3 132 85 133
3 134 133 42
3 132 133 134
3 136 135 85
3 20 137 138
3 20 139 141
3 139 86 140
3 139 140 141
3 20 87 86
3 21 142 144
3 144 143 88
3 142 143 144
3 146 145 63
3 147 89 148
3 10 149 150
3 22 151 152
3 22 153 155
3 153 90 154
3 153 154 155
3 17 91 78
3 23 92 47
3 23 93 92
3 13 94 68
3 24 95 50
3 24 96 95
3 24 97 96
3 25 98 52
3 25 99 98
3 25 100 99
3 157 156 54
3 26 101 57
3 26 102 101
3 26 103 102
3 158 104 159
3 160 159 59
3 158 159 160
3 162 161 104
3 164 163 75
3 27 165 166
3 27 167 169
3 167 7 168
3 167 168 169
3 28 170 172
3 170 29 171
3 170 171 172
3 30 29 28
3 30 8 29
3 30 31 8
3 32 31 30
3 32 9 31
3 33 173 175
3 173 34 174
3 173 174 175
3 35 34 33
3 35 11 34
3 176 36 177
3 178 177 12
3 176 177 178
3 37 179 181
3 179 36 180
3 179 180 181
3 37 14 36
3 37 38 14
3 39 38 37
3 39 15 38
3 39 40 15
3 182 40 183
3 184 183 39
3 182 183 184
3 186 185 40
3 187 41 188
3 189 188 16
3 187 188 189
3 190 41 191
3 192 18 193
3 194 193 41
3 192 193 194
3 195 19 196
3 197 42 198
3 199 198 19
3 197 198 199
3 200 42 201
3 203 202 42
3 204 20 205
3 207 206 20
3 209 208 21
3 43 210 212
3 212 211 10
3 210 211 212
3 44 213 215
3 215 214 43
3 213 214 215
3 44 216 217
3 44 218 219
3 45 220 222
3 222 221 44
3 220 221 222
3 45 223 225
3 223 22 224
3 223 224 225
3 46 47 17
3 48 47 46
3 48 23 47
3 49 50 13
3 51 50 49
3 51 24 50
3 51 52 24
3 53 52 51
3 53 25 52
3 53 54 25
3 226 54 227
3 228 227 53
3 226 227 228
3 230 229 54
3 55 231 232
3 56 233 235
3 235 234 55
3 233 234 235
3 56 236 237
3 56 238 240
3 238 57 239
3 238 239 240
3 58 57 56
3 58 26 57
3 58 59 26
3 60 59 58
3 60 241 243
3 243 242 59
3 241 242 243
3 29 244 245
3 61 246 248
3 248 247 29
3 246 247 248
3 61 249 250
3 61 251 252
3 62 253 255
3 255 254 61
3 253 254 255
3 62 256 258
3 256 257 258
3 62 259 261
3 259 63 260
3 259 260 261
3 64 63 62
3 64 262 264
3 264 263 63
3 262 263 264
3 31 64 8
3 265 64 266
3 267 266 31
3 265 266 267
3 269 268 64
3 270 10 271
3 34 272 273
3 65 274 276
3 276 275 34
3 274 275 276
3 65 277 279
3 277 10 278
3 277 278 279
3 65 43 10
3 66 43 65
3 66 4 43
3 67 68 3
3 69 68 67
3 69 13 68
3 36 69 12
3 70 69 36
3 70 13 69
3 70 49 13
3 71 49 70
3 71 5 49
3 71 280 282
3 282 281 5
3 280 281 282
3 72 283 285
3 285 284 71
3 283 284 285
3 72 286 287
3 38 72 14
3 73 72 38
3 73 288 290
3 290 289 72
3 288 289 290
3 73 291 293
3 291 55 292
3 291 292 293
3 74 55 73
3 74 6 55
3 74 75 6
3 76 75 74
3 76 294 296
3 296 295 75
3 294 295 296
3 40 76 15
3 297 76 298
3 299 298 40
3 297 298 299
3 301 300 76
3 302 28 303
3 304 28 305
3 306 2 307
3 308 307 28
3 306 307 308
3 77 78 1
3 79 78 77
3 79 17 78
3 41 79 16
3 80 79 41
3 80 17 79
3 80 46 17
3 81 46 80
3 81 3 46
3 309 18 310
3 82 311 312
3 82 313 315
3 313 18 314
3 313 314 315
3 82 81 18
3 83 81 82
3 83 3 81
3 83 67 3
3 84 67 83
3 84 12 67
3 42 84 19
3 85 84 42
3 85 12 84
3 85 316 318
3 318 317 12
3 316 317 318
3 320 319 85
3 321 33 322
3 323 33 324
3 325 1 326
3 327 326 33
3 325 326 327
3 86 328 329
3 86 330 332
3 330 1 331
3 330 331 332
3 86 77 1
3 87 77 86
3 87 16 77
3 333 87 334
3 335 334 20
3 333 334 335
3 336 87 337
3 338 16 339
3 340 339 87
3 338 339 340
3 342 341 16
3 88 343 345
3 345 344 0
3 343 344 345
3 347 346 88
3 349 348 21
3 63 350 351
3 353 352 63
3 89 354 355
3 89 356 358
3 356 0 357
3 356 357 358
3 360 359 10
3 90 361 362
3 90 363 365
3 363 2 364
3 363 364 365
3 78 35 1
3 91 35 78
3 91 11 35
3 47 91 17
3 92 91 47
3 92 11 91
3 92 66 11
3 93 66 92
3 93 4 66
3 68 48 3
3 94 48 68
3 94 23 48
3 50 94 13
3 95 94 50
3 95 23 94
3 95 93 23
3 96 93 95
3 96 4 93
3 96 45 4
3 97 45 96
3 97 22 45
3 52 97 24
3 98 97 52
3 98 22 97
3 98 90 22
3 99 90 98
3 99 2 90
3 99 32 2
3 100 32 99
3 100 9 32
3 54 100 25
3 366 100 367
3 368 367 54
3 366 367 368
3 369 9 370
3 371 370 100
3 369 370 371
3 373 372 9
3 375 374 5
3 57 376 377
3 101 378 380
3 380 379 57
3 378 379 380
3 101 381 382
3 101 383 385
3 383 89 384
3 383 384 385
3 102 89 101
3 102 0 89
3 102 88 0
3 103 88 102
3 103 21 88
3 59 103 26
3 104 103 59
3 104 21 103
3 104 386 388
3 388 387 21
3 386 387 388
3 390 389 104
3 75 60 6
3 391 60 392
3 393 392 75
3 391 392 393
3 395 394 60
3 396 27 397
3 398 397 0
3 396 397 398
3 399 27 400
3 401 7 402
3 403 402 27
3 401 402 403
3 404 7 405
3 408 407 7
3 406 407 408
