ply
format ascii 1.0
element vertex 944
property float x
property float y
property float z
element face 1089
property list uchar int vertex_index
end_header
-41.798634 -31.329998 13.8415
-40.566326 -6.157322 12.458018
-38.96447 10.508842 -16.933002
-33.726894 17.953491 -30.275623
-34.522377 37.264011 -2.094172
-37.674934 1.440115 -0.127955
-34.106476 25.127125 -14.480883
-37.710556 15.284595 -24.606236
-32.396568 26.775818 -22.018978
-38.086685 -2.621399 7.181417
-37.113029 15.812687 7.141715
-34.674217 20.235401 1.408885
-37.709122 33.209209 4.305387
-39.664848 -20.809399 14.168738
-45.10107 0.935953 -20.564217
-44.213547 9.104225 -29.549736
-33.414673 37.772118 -10.162464
-39.208244 -17.659943 6.829954
-41.352806 -13.170429 -2.149315
-43.700638 -6.905521 -11.4102
-38.302097 5.764004 -8.492546
-34.252434 23.226307 -6.416525
-28.581875 17.127991 -32.258652
-32.675049 31.607906 -15.299158
-33.472126 25.975887 -18.314362
-32.146435 31.891373 -18.970425
-37.004948 24.912209 6.257298
-41.847797 4.745193 -19.053162
-45.063114 5.126181 -25.107212
-41.74395 8.081278 -23.293098
-35.986618 17.037182 -27.811638
-39.168457 13.751034 -30.80999
-39.924095 -13.943883 13.499281
-38.944008 -19.37776 10.828504
-38.824093 -12.490334 10.537216
-37.697269 -0.636316 3.71597
-38.813641 -8.892638 2.896078
-39.403046 -6.690345 -1.380789
-42.597069 -10.266764 -6.787601
-40.106728 -4.218551 -5.78743
-40.819466 -1.484697 -10.242615
-37.905315 3.570257 -4.238523
-33.997913 29.385067 0.493006
-34.275448 21.919285 -2.365231
-33.424889 30.711426 -3.363897
-33.223221 31.393661 -7.450052
-33.84021 37.954807 -6.100521
-25.558243 21.631844 -30.83939
-25.928473 15.816944 -31.921837
-36.348984 17.669495 -15.128487
-38.698368 12.994392 -20.918373
-35.859253 19.319298 -18.98877
-34.731621 20.79203 -22.605316
-33.035728 21.852268 -25.832771
-41.188251 2.223764 11.152365
-38.997406 -4.466969 10.144644
-39.116478 4.292126 9.594889
-37.593884 6.445887 7.345142
-36.587303 8.59824 4.457108
-36.045307 10.649652 1.012584
-35.609276 18.171307 4.642209
-35.176228 27.408627 3.791076
-35.775784 35.633839 1.489461
-42.06226 -27.699593 16.923021
-40.213482 -26.59182 14.318583
-41.590038 -21.90959 16.620552
-41.981724 -15.196495 15.608088
-40.88554 11.225382 -27.286137
-39.458733 40.274334 1.012075
-37.64732 42.31488 -2.373606
-36.437477 43.284275 -6.26594
-32.924976 36.957558 -13.954657
-39.782921 -24.946905 10.924019
-40.50581 -22.907892 6.925001
-41.975414 -20.513515 2.532507
-38.533646 -10.81968 6.927027
-40.12888 -15.616653 2.434668
-43.765949 -17.685381 -2.076567
-45.524006 -14.31044 -6.770746
-47.020962 -10.343378 -11.469019
-48.133499 -5.854087 -16.156614
-44.575981 -3.137569 -15.998495
-41.454166 1.512341 -14.682423
-38.733177 8.069372 -12.760927
-35.909824 12.545357 -2.853071
-36.07354 14.302223 -6.951347
-36.32341 15.989819 -11.089964
-34.306053 24.249287 -10.504208
-33.048817 31.594246 -11.486715
-31.376549 32.407673 -22.714581
-30.866035 27.342613 -25.421894
-30.905136 22.316425 -28.410999
-31.199982 17.934399 -31.771511
-31.275711 14.52383 -35.585522
-32.401237 34.12011 -16.117743
-32.424362 31.692554 -17.129314
-32.219688 34.16045 -17.789898
-42.733566 -32.337528 11.83045
-41.507191 -30.400955 12.262399
-42.483212 -32.061962 15.289163
-43.64246 -34.156982 14.910655
-42.989182 -33.360123 13.414003
-40.367569 7.402119 -18.015003
-41.875835 6.414776 -21.194759
-40.3605 8.859388 -20.092018
-34.906254 17.612095 -29.15316
-36.460976 15.890686 -30.636711
-35.236847 16.352737 -31.789516
-33.94175 16.534721 -32.679176
-40.226463 -10.148171 13.018333
-39.261059 -13.242023 12.113998
-39.463779 -9.395038 11.779927
-37.64859 0.393667 1.834408
-38.356544 -3.883647 1.283623
-38.524326 -2.799486 -0.780077
-39.748833 -5.487418 -3.573498
-38.735764 -1.675419 -2.891964
-38.979027 -0.512676 -5.039742
-37.763874 2.499144 -2.157232
-34.08519 33.530235 -0.583759
-33.646034 30.132946 -1.386335
-33.706638 34.155815 -2.509792
-33.453213 34.576267 -4.518456
-34.126072 37.728031 -4.068377
-24.213352 18.13205 -31.153107
-24.593597 15.049988 -31.531296
-26.28574 13.05595 -32.710827
-25.105936 12.056717 -32.117374
-35.159904 21.442097 -14.623587
-36.181351 18.504318 -17.084316
-34.938103 22.069637 -16.566959
-32.988007 26.391968 -20.186493
-34.074139 23.26189 -20.322968
-33.440079 23.787502 -22.121025
-33.945881 21.388481 -24.281963
-32.684067 24.230312 -23.838154
-40.083454 3.243887 10.462561
-37.029278 7.528912 5.976725
-36.632206 12.273441 6.065618
-36.060909 13.383873 4.649148
-36.291351 17.02066 5.991165
-37.232796 29.191891 5.438393
-36.012989 26.213726 5.139815
-36.196686 30.507465 4.256063
-35.321831 31.687202 2.839255
-36.659885 34.505684 3.010251
-41.702026 -24.922798 16.862364
-43.384705 -15.73524 16.316578
-43.529541 -28.009785 17.906446
-44.753242 7.168386 -27.350918
-45.96117 8.705946 -30.255184
-38.301434 14.184303 -22.808861
-39.841141 11.715202 -24.068939
-39.283371 13.026211 -25.929802
-40.776718 12.839817 -32.331356
-35.995529 43.329502 -8.284807
-39.817978 -23.83798 14.319148
-39.832504 -25.826151 12.710169
-39.381557 -23.12796 12.713543
-38.971882 -18.555414 8.894548
-39.392601 -21.444553 8.955249
-39.758186 -20.482676 6.865612
-41.17466 -21.757935 4.765804
-40.299843 -19.43639 4.677371
-38.467045 -3.563671 8.734678
-38.522411 -7.75629 8.76993
-38.305096 -6.86333 7.048025
-39.860451 -11.365086 0.387534
-39.425713 -12.473486 2.599043
-40.723278 -14.448427 0.156204
-41.711281 -17.046587 0.111597
-42.488029 -15.677099 -2.22296
-44.666466 -16.07163 -4.419439
-43.260292 -14.176809 -4.570131
-43.172394 -8.641204 -9.103058
-44.686069 -10.76811 -9.260826
-45.306229 -8.866022 -11.593813
-47.631176 -8.155394 -13.812273
-45.849701 -6.84502 -13.918201
-46.305153 -4.720288 -16.237938
-44.172485 -5.067474 -13.708248
-39.522434 1.935987 -9.394049
-41.154228 -0.018843 -12.467945
-39.797962 3.229654 -11.576494
-40.050434 4.573944 -13.747438
-38.525463 6.899702 -10.632519
-35.305168 15.443947 1.341872
-35.931526 11.617601 -0.878531
-35.111435 16.376347 -0.508573
-34.233017 22.615902 -4.372898
-35.029755 18.040455 -4.46665
-35.093487 18.784836 -6.514767
-36.205688 15.149727 -9.026024
-35.180618 19.48534 -8.572802
-35.248699 20.154736 -10.619518
-34.291706 23.764938 -8.467678
-33.151642 34.853634 -8.61138
-33.152779 31.538845 -9.488333
-33.013344 34.764179 -10.620691
-32.839661 34.57233 -12.561687
-33.189049 37.425365 -12.112858
-31.841814 34.73542 -21.439705
-30.828285 24.782959 -26.87624
-29.72525 24.879292 -28.112259
-27.084442 19.182362 -31.322659
-28.456207 19.589603 -31.126366
-29.778786 19.87812 -30.703976
-29.896799 17.612877 -32.133965
-31.293858 16.104038 -33.620174
-29.993519 15.553001 -33.691319
-33.255985 28.564198 -14.718571
-33.846416 25.551323 -16.413515
-32.983654 28.799751 -16.623001
-32.635002 29.073414 -18.50935
-32.209167 29.373875 -20.390602
-41.987095 -28.067646 8.777747
-36.983437 20.430477 6.80793
-43.422001 2.587513 -19.933315
-45.16853 3.033327 -22.840725
-43.474495 4.472094 -22.143028
-43.362354 6.354168 -24.324467
-43.053669 8.18906 -26.462276
-36.931931 16.249847 -26.284397
-38.52066 14.191422 -27.668839
-37.569397 15.160477 -29.250702
-38.026115 14.645863 -32.296329
-39.717228 -17.506657 13.888338
-39.16412 -20.130053 12.597511
-39.14146 -16.830109 12.390396
-38.818962 -16.094051 10.696119
-38.72216 -15.296715 8.837772
-37.836929 -1.643646 5.503116
-38.223106 -5.919063 5.213376
-38.248886 -4.924784 3.286245
-39.084198 -7.825894 0.780001
-40.335213 -10.164865 -1.856916
-41.985279 -11.777136 -4.467405
-40.823242 -8.871334 -4.120893
-41.305664 -7.485022 -6.394264
-41.770092 -6.007836 -8.669552
-42.207539 -4.442558 -10.941385
-40.466557 -2.884411 -8.013256
-39.244675 0.689981 -7.211178
-38.089108 4.656555 -6.35582
-34.215519 24.918617 1.144853
-34.414249 21.126953 -0.426435
-33.902851 25.752407 -0.701424
-33.719135 26.452896 -2.652525
-33.634106 27.023846 -4.669836
-33.607857 27.477154 -6.717615
-33.298656 31.126263 -5.397812
-33.283798 34.801529 -6.565607
-33.618935 37.960224 -8.145527
-24.017689 21.262032 -30.908119
-25.667555 18.688148 -31.320766
-27.258598 16.517944 -32.175957
-28.725225 14.834076 -33.536015
-27.490376 13.98988 -33.195457
-37.624866 13.973915 -15.931187
-38.911293 11.757429 -18.954769
-37.516411 15.015736 -17.911957
-37.248257 16.040462 -19.835583
-36.803238 17.018341 -21.689957
-34.576176 22.681282 -18.467892
-35.374302 20.091648 -20.833618
-36.179333 17.913265 -23.458317
-35.388798 18.686817 -25.117455
-34.454308 19.303642 -26.637737
-33.403194 19.737087 -27.985466
-39.693607 -5.330829 11.391884
-39.907593 -1.099581 10.951283
-39.074509 -0.149744 9.893829
-38.392174 0.831387 8.66975
-38.28772 5.362732 8.553648
-37.851097 1.838797 7.292041
-37.438793 2.864256 5.773457
-37.141823 3.897736 4.126195
-36.947609 4.929348 2.362615
-36.845367 5.951271 0.496368
-36.261448 9.641565 2.797462
-35.619526 14.444366 3.068824
-35.070358 19.24736 3.107795
-36.064072 21.693138 5.700879
-35.292526 22.875092 4.375623
-34.676056 23.955788 2.848355
-34.504318 28.472446 2.231739
-34.618458 32.702522 1.213771
-35.065144 36.561543 -0.225835
-41.584404 -29.757563 15.579191
-40.871815 -29.082378 14.156003
-40.953476 -27.22286 15.727286
-40.587627 -24.441957 15.70703
-40.469601 -21.406923 15.515164
-41.697811 -18.66292 16.198502
-40.565891 -18.120367 15.163157
-40.828365 -14.596653 14.668823
-41.199547 -10.861373 14.051116
-42.683067 -30.246643 16.819256
-40.194649 10.310305 -22.115513
-41.420948 9.702082 -25.331478
-42.524406 9.922419 -28.532822
-40.131088 12.594038 -29.125332
-41.763489 11.493418 -30.503159
-43.429966 10.870813 -31.670933
-39.634434 35.511948 4.045009
-40.591938 38.938171 2.421159
-38.454269 36.914318 2.829848
-37.423279 38.152538 1.386848
-36.557461 39.187786 -0.259959
-35.860355 39.986004 -2.074265
-36.975636 42.94521 -4.27936
-35.319717 40.523251 -4.010822
-34.906624 40.790363 -6.020576
-34.578426 40.79493 -8.055626
-34.285561 40.55938 -10.072132
-35.20282 42.612156 -12.24559
-33.981556 40.115108 -12.030174
-33.634781 39.493362 -13.89031
-32.639256 36.411407 -15.623999
-40.538868 -28.241394 12.562476
-40.558388 -27.260359 10.817497
-40.887318 -26.163616 8.942005
-39.252159 -22.327009 10.91534
-40.023869 -23.971035 8.986475
-41.472046 -24.968927 6.956485
-44.171066 -20.829063 0.513537
-38.901253 -8.599102 10.355654
-38.591045 -11.684723 8.798187
-38.817013 -14.432506 6.848727
-38.619259 -9.890123 4.95165
-39.064972 -13.493931 4.760151
-39.609135 -16.68372 4.667158
-40.967144 -18.29538 2.418175
-42.855213 -19.16124 0.245776
-43.999619 -12.540364 -6.918528
-46.314445 -12.399262 -9.122004
-48.829205 -11.386551 -11.049812
-49.49498 -9.056627 -13.403311
-44.893578 -1.129946 -18.28323
-42.608467 -2.79287 -13.206066
-42.959156 -1.064251 -15.461081
-43.239384 0.73423 -17.704384
-41.695541 3.104153 -16.879688
-40.251736 5.96759 -15.896782
-38.89217 9.274378 -14.864838
-36.82571 6.959242 -1.456638
-36.879051 7.953335 -3.477966
-36.993172 8.937849 -5.547194
-35.026222 17.240486 -2.454758
-35.964703 13.437485 -4.885841
-37.150707 9.920328 -7.643217
-37.327251 10.909674 -9.74588
-37.490902 11.913649 -11.837379
-37.603649 12.936031 -13.903051
-36.384861 16.8293 -13.127789
-35.254456 20.804432 -12.639595
-34.254459 24.697659 -12.51111
-33.59515 27.831802 -8.765612
-33.552299 28.11208 -10.790508
-33.445217 28.345875 -12.776825
-32.889408 31.599693 -13.426168
-32.626198 34.328773 -14.402979
-31.81464 32.152538 -20.846786
-31.689468 29.664555 -22.249889
-31.046564 29.913227 -24.037773
-31.693306 27.099346 -23.780163
-31.813076 24.566544 -25.437744
-32.018246 22.163784 -27.221172
-32.261452 19.973675 -29.127716
-27.46933 27.583466 -29.152058
-28.496923 24.867134 -29.115799
-29.701607 22.317436 -29.373829
-31.049183 20.015236 -30.038422
-32.482513 18.056808 -31.152905
-32.616753 16.443691 -33.289101
-32.312984 35.01605 -17.36925
-32.310462 34.14028 -16.95382
-32.403759 34.99588 -16.533172
-23.925311 14.640017 -31.282896
-23.663525 16.289185 -31.191121
-24.18148 13.143381 -31.575935
-24.849767 13.553353 -31.824335
-23.925311 14.640017 -31.282896
-37.223768 13.47019 7.224336
-37.590768 15.189915 7.615095
-36.872617 14.043064 6.603666
-36.983356 11.700567 6.686288
-37.223768 13.47019 7.224336
-46.029291 1.496598 -21.895386
-45.992306 0.347058 -20.725738
-44.67779 9.879097 -31.042524
-45.551602 9.679958 -31.395249
-45.087359 8.905086 -29.90246
-29.247195 26.226904 -28.12792
-29.811276 26.18918 -27.501776
-41.78573 -28.685485 9.673423
-42.651315 -28.902292 8.623937
-44.345711 -35.111566 14.715156
-44.037812 -34.678452 13.925719
-37.386615 14.943335 -32.918495
-37.243545 15.268275 -31.46652
-36.604046 15.565746 -32.088686
-38.133686 14.643546 -33.830564
-37.386615 14.943335 -32.918495
-23.220326 21.057976 -30.861693
-23.193989 22.710539 -30.866533
-27.007112 12.336163 -33.562767
-26.486877 11.742733 -33.217995
-40.547922 0.562092 11.051824
-40.402 -1.558161 11.390911
-41.04233 0.103511 11.491452
-37.940802 5.90431 7.949395
-38.22784 7.663025 8.460271
-37.880922 8.204603 7.856018
-42.028311 -9.285174 14.02534
-41.793492 -11.197845 14.459296
-41.410118 -8.905415 13.690115
-42.028311 -9.285174 14.02534
-45.955579 4.737008 -25.341341
-46.008287 3.690581 -24.208098
-45.115822 4.079754 -23.973968
-42.083859 11.947938 -32.08713
-41.270104 12.166618 -31.417257
-41.590473 12.621137 -33.001228
-42.917097 11.636636 -32.671017
-42.596728 11.182116 -31.087046
-42.083859 11.947938 -32.08713
-43.747795 11.615209 -33.196379
-42.917097 11.636636 -32.671017
-40.743015 36.479608 3.829485
-40.286963 34.748421 4.533256
-40.025335 39.606252 1.716617
-41.164854 40.492965 1.460839
-40.598252 41.161047 0.756297
-37.10239 40.751333 -1.316782
-37.515551 40.300612 -0.428064
-38.06048 41.864159 -1.484888
-36.706557 43.114743 -5.27265
-37.65243 44.197796 -5.514419
-37.383351 44.367328 -6.507709
-35.089769 41.945505 -9.173356
-35.286977 42.062216 -8.170217
-35.798321 43.212791 -9.287947
-34.943337 41.827731 -10.181609
-34.431994 40.677155 -9.063879
-35.089769 41.945505 -9.173356
-34.980168 42.260784 -13.179671
-35.71497 43.400478 -13.392563
-34.369535 41.01226 -13.071963
-34.592188 41.363632 -12.137882
-34.980168 42.260784 -13.179671
-34.196148 40.701387 -14.002031
-33.808168 39.804235 -12.960242
-34.369535 41.01226 -13.071963
-41.379711 -23.296168 5.90223
-41.86283 -24.326685 5.917972
-40.988928 -23.938409 6.940743
-42.573843 -21.410799 2.629789
-42.173466 -22.033009 3.746437
-41.575037 -21.135725 3.649155
-43.07324 -20.671289 1.523022
-43.671669 -21.568573 1.620304
-42.573843 -21.410799 2.629789
-44.482185 -18.45833 -1.912326
-44.026817 -19.19626 -0.751155
-43.310581 -18.42331 -0.915395
-44.987928 -17.591543 -3.061011
-44.482185 -18.45833 -1.912326
-46.346685 -14.962687 -6.568976
-45.917915 -15.843281 -5.393322
-45.095236 -15.191035 -5.595092
-46.786574 -13.943638 -7.737362
-47.609253 -14.595885 -7.535592
-46.346685 -14.962687 -6.568976
-49.083847 -6.230933 -15.96235
-48.832685 -7.381586 -14.79018
-47.882338 -7.00474 -14.984444
-49.283531 -4.960618 -17.154349
-49.083847 -6.230933 -15.96235
-48.323582 -4.658727 -17.333354
-49.283531 -4.960618 -17.154349
-45.616478 -2.824365 -17.278726
-46.481064 -3.615725 -17.398447
-45.440567 -3.928929 -16.118216
-44.73478 -2.133757 -17.140863
-45.775277 -1.820554 -18.421093
-45.616478 -2.824365 -17.278726
-30.9563 28.62792 -24.729834
-30.646003 30.009804 -24.863774
-30.555739 28.724497 -25.555834
-26.733351 27.564213 -29.532455
-27.043157 28.998019 -29.241867
-25.605933 23.116507 -30.617628
-24.807025 23.012611 -30.770859
-28.45264 23.526463 -29.60553
-27.817809 24.816826 -29.49521
-29.054982 22.251613 -29.734545
-29.099265 23.592285 -29.244814
-28.45264 23.526463 -29.60553
-31.941139 14.826258 -35.554152
-31.950212 15.616362 -34.571478
-31.284785 15.313934 -34.602848
-31.844753 14.296127 -36.708239
-31.941139 14.826258 -35.554152
-29.370523 14.269178 -34.463358
-28.779818 13.777011 -34.26013
-42.794685 -31.727874 11.004221
-43.54854 -32.542456 10.754662
-42.181497 -30.759588 11.220195
-42.794685 -31.727874 11.004221
-42.120379 -31.369242 12.046425
-41.545778 -29.852139 11.415749
-42.181497 -30.759588 11.220195
-43.062836 -33.109472 15.099909
-43.60265 -33.367458 15.750879
-43.023026 -32.319948 15.940133
-43.711173 -34.280022 13.177393
-44.037812 -34.678452 13.925719
-43.315821 -33.758553 14.162329
-43.599238 -33.722313 12.367046
-43.711173 -34.280022 13.177393
-43.471429 -33.211016 11.57527
-43.599238 -33.722313 12.367046
-42.861374 -32.848826 12.622227
-43.54854 -32.542456 10.754662
-43.471429 -33.211016 11.57527
-35.991981 15.796772 -32.665088
-36.604046 15.565746 -32.088686
-35.848911 16.121711 -31.213113
-35.310037 15.934324 -33.147688
-35.991981 15.796772 -32.665088
-34.662489 16.025316 -33.592517
-35.310037 15.934324 -33.147688
-34.589298 16.443729 -32.234346
-33.964596 16.003208 -33.92369
-34.662489 16.025316 -33.592517
-23.473402 17.830216 -31.002026
-23.318157 19.492985 -30.984186
-24.403475 16.591019 -31.342202
-23.473402 17.830216 -31.002026
-23.663525 16.289185 -31.191121
-25.896974 11.243116 -32.921268
-26.486877 11.742733 -33.217995
-25.695838 12.556334 -32.414101
-40.760187 4.878362 10.454397
-40.635852 2.733826 10.807463
-41.312585 4.3683 10.799299
-40.153295 5.443623 10.198746
-40.760187 4.878362 10.454397
-39.669808 5.967742 9.76491
-39.599966 3.768006 10.028725
-40.153295 5.443623 10.198746
-37.464196 8.78679 7.32605
-37.880922 8.204603 7.856018
-37.181893 9.328302 6.641841
-37.311581 6.9874 6.660934
-37.464196 8.78679 7.32605
-36.830742 9.901177 6.021171
-37.181893 9.328302 6.641841
-36.983356 11.700567 6.686288
-42.428867 -25.094646 17.324014
-41.882143 -26.311196 16.892692
-42.608984 -26.483044 17.354343
-42.363153 -23.613284 17.173372
-42.428867 -25.094646 17.324014
-42.307159 -22.10668 17.052467
-41.646032 -23.416194 16.741458
-42.363153 -23.613284 17.173372
-44.392996 -14.236231 16.09518
-44.207697 -15.968812 16.563536
-43.587147 -13.948815 15.892983
-44.392996 -14.236231 16.09518
-42.885656 -13.679443 15.538738
-42.683214 -15.465867 15.962333
-43.587147 -13.948815 15.892983
-42.18458 -13.365406 15.237782
-42.885656 -13.679443 15.538738
-44.228122 -26.738399 18.201033
-44.428177 -28.081421 18.300702
-43.342624 -26.63814 17.846055
-44.228122 -26.738399 18.201033
-42.608984 -26.483044 17.354343
-42.795901 -27.854689 17.414733
-43.342624 -26.63814 17.846055
-45.638881 6.875576 -27.637873
-45.793818 5.854474 -26.51602
-44.908178 6.147284 -26.229065
-46.242846 7.644357 -29.090006
-45.638881 6.875576 -27.637873
-45.357206 7.937166 -28.803051
-46.862116 8.662899 -30.434755
-46.242846 7.644357 -29.090006
-46.431486 9.716121 -31.653188
-46.862116 8.662899 -30.434755
-46.431486 9.716121 -31.653188
-45.551602 9.679958 -31.395249
-40.182666 13.372069 -33.150078
-39.972588 13.295426 -31.570673
-39.378536 13.827677 -32.389395
-40.966743 13.238233 -33.914704
-40.182666 13.372069 -33.150078
-41.590473 12.621137 -33.001228
-40.966743 13.238233 -33.914704
-40.06774 41.777262 -0.049845
-40.598252 41.161047 0.756297
-38.966187 40.843885 0.207953
-40.06774 41.777262 -0.049845
-38.701752 43.299019 -2.628169
-38.06048 41.864159 -1.484888
-37.107506 44.427627 -7.509679
-37.383351 44.367328 -6.507709
-36.886532 44.450241 -8.519113
-36.216503 43.306888 -7.275374
-37.107506 44.427627 -7.509679
-36.636764 44.356777 -9.514254
-36.886532 44.450241 -8.519113
-35.798321 43.212791 -9.287947
-36.636764 44.356777 -9.514254
-32.056381 35.95346 -21.751278
-32.125629 35.76923 -20.813026
-31.65206 34.870699 -22.364536
-32.056381 35.95346 -21.751278
-31.419427 33.706826 -23.001974
-31.609181 33.571546 -22.077143
-31.65206 34.870699 -22.364536
-30.381668 27.420841 -26.156593
-30.555739 28.724497 -25.555834
-30.362793 26.141014 -26.883767
-30.84716 26.062786 -26.149067
-30.381668 27.420841 -26.156593
-30.276767 24.831125 -27.49425
-30.362793 26.141014 -26.883767
-29.811276 26.18918 -27.501776
-27.055079 20.565109 -30.950228
-26.29198 21.789851 -30.708593
-26.321343 20.407103 -31.081025
-27.740962 20.76873 -30.852082
-27.055079 20.565109 -30.950228
-27.770325 19.385983 -31.224513
-28.432282 20.887697 -30.610813
-27.740962 20.76873 -30.852082
-29.117497 19.733861 -30.915171
-29.093571 21.031955 -30.399619
-28.432282 20.887697 -30.610813
-43.021784 -28.147292 7.745719
-42.651315 -28.902292 8.623937
-42.323168 -27.393834 7.839533
-43.021784 -28.147292 7.745719
-37.576271 17.461436 7.416109
-37.590768 15.189915 7.615095
-37.511475 19.770331 7.249217
-37.048233 18.121582 6.974823
-37.576271 17.461436 7.416109
-37.560101 21.980736 6.971277
-37.511475 19.770331 7.249217
-37.570856 24.221601 6.69596
-36.994192 22.671343 6.532614
-37.560101 21.980736 6.971277
-37.708586 26.341938 6.315262
-37.570856 24.221601 6.69596
-37.82251 28.481779 5.905809
-37.118872 27.05205 5.847846
-37.708586 26.341938 6.315262
-38.068979 30.485857 5.39752
-37.82251 28.481779 5.905809
-38.307142 32.494516 4.831017
-37.470959 31.20055 4.87189
-38.068979 30.485857 5.39752
-44.166422 -34.434619 15.606528
-43.60265 -33.367458 15.750879
-44.166422 -34.434619 15.606528
-44.345711 -35.111566 14.715156
-38.807365 14.275092 -33.132565
-39.378536 13.827677 -32.389395
-38.597286 14.198449 -31.553159
-38.807365 14.275092 -33.132565
-38.133686 14.643546 -33.830564
-24.036748 22.827706 -30.805224
-23.193989 22.710539 -30.866533
-24.787966 21.446938 -30.873755
-24.807025 23.012611 -30.770859
-24.036748 22.827706 -30.805224
-24.115521 19.697041 -31.030613
-23.220326 21.057976 -30.861693
-23.318157 19.492985 -30.984186
-28.162394 13.354913 -34.089851
-28.779818 13.777011 -34.26013
-28.1078 14.411978 -33.365736
-27.609431 12.803128 -33.805082
-26.888058 13.522915 -32.953142
-27.007112 12.336163 -33.562767
-28.162394 13.354913 -34.089851
-27.609431 12.803128 -33.805082
-40.295007 -3.673785 11.611211
-40.129966 -5.744075 11.924951
-40.731367 -4.087032 12.144278
-39.8006 -3.215205 11.171584
-40.295007 -3.673785 11.611211
-40.402 -1.558161 11.390911
-39.124098 6.544576 9.418858
-39.669808 5.967742 9.76491
-38.709719 7.079879 8.898237
-38.22784 7.663025 8.460271
-38.702099 4.827429 9.074269
-39.124098 6.544576 9.418858
-38.709719 7.079879 8.898237
-42.351584 -20.516228 16.806864
-42.307159 -22.10668 17.052467
-43.248917 -17.429053 16.654877
-44.207697 -15.968812 16.563536
-42.40547 -18.892893 16.595839
-43.248917 -17.429053 16.654877
-42.541258 -17.19908 16.25754
-41.643924 -20.286255 16.409527
-42.351584 -20.516228 16.806864
-42.40547 -18.892893 16.595839
-41.6079 -13.065485 14.768149
-41.405045 -14.896574 15.138455
-42.18458 -13.365406 15.237782
-41.013956 -12.729013 14.35997
-41.6079 -13.065485 14.768149
-41.793492 -11.197845 14.459296
-40.923576 -8.548814 13.173724
-40.713005 -10.504772 13.534724
-41.410118 -8.905415 13.690115
-41.093508 -6.553389 12.893566
-40.396394 -8.152746 12.738176
-40.923576 -8.548814 13.173724
-41.303699 -4.52996 12.49117
-41.093508 -6.553389 12.893566
-40.731367 -4.087032 12.144278
-41.303699 -4.52996 12.49117
-41.807344 1.728573 11.408271
-41.04233 0.103511 11.491452
-41.976478 3.817403 10.968114
-41.807344 1.728573 11.408271
-41.312585 4.3683 10.799299
-41.976478 3.817403 10.968114
-43.840847 -29.275474 17.890753
-44.428177 -28.081421 18.300702
-43.41761 -30.393902 17.347158
-43.840847 -29.275474 17.890753
-43.106304 -29.128214 17.362851
-43.122954 -31.412288 16.705179
-43.41761 -30.393902 17.347158
-42.58314 -31.154303 16.054209
-43.023026 -32.319948 15.940133
-43.122954 -31.412288 16.705179
-46.063021 2.545285 -23.03364
-46.029291 1.496598 -21.895386
-45.1348 1.98464 -21.702471
-46.063021 2.545285 -23.03364
-46.008287 3.690581 -24.208098
-45.955579 4.737008 -25.341341
-45.793818 5.854474 -26.51602
-44.286 10.762391 -32.103123
-44.67779 9.879097 -31.042524
-43.821756 9.987519 -30.610335
-44.603828 11.506787 -33.628569
-44.286 10.762391 -32.103123
-43.747795 11.615209 -33.196379
-39.269799 33.645885 4.700828
-40.286963 34.748421 4.533256
-38.671778 34.360579 4.175198
-38.307142 32.494516 4.831017
-39.269799 33.645885 4.700828
-41.757641 39.783893 2.175762
-41.164854 40.492965 1.460839
-41.221767 38.19272 3.01756
-41.757641 39.783893 2.175762
-40.113186 37.22506 3.233084
-40.743015 36.479608 3.829485
-41.221767 38.19272 3.01756
-37.948459 39.782988 0.395339
-38.441006 39.213436 1.199461
-38.966187 40.843885 0.207953
-36.99037 38.670162 0.563445
-37.948459 39.782988 0.395339
-37.515551 40.300612 -0.428064
-38.312853 43.665716 -3.575171
-38.701752 43.299019 -2.628169
-37.977011 43.980881 -4.528048
-37.65243 44.197796 -5.514419
-37.311478 42.630045 -3.326483
-38.312853 43.665716 -3.575171
-37.977011 43.980881 -4.528048
-35.990372 43.762333 -12.463988
-35.71497 43.400478 -13.392563
-35.401966 42.854118 -11.268338
-35.990372 43.762333 -12.463988
-34.744191 41.585768 -11.158861
-34.943337 41.827731 -10.181609
-35.401966 42.854118 -11.268338
-33.938072 40.251413 -14.876476
-34.196148 40.701387 -14.002031
-33.437042 39.102699 -14.748329
-33.938072 40.251413 -14.876476
-33.08214 37.834797 -14.780503
-33.279878 38.22546 -13.922483
-33.437042 39.102699 -14.748329
-32.93928 37.561721 -15.615174
-32.782116 36.684483 -14.789328
-33.08214 37.834797 -14.780503
-32.729962 37.078051 -16.369838
-32.93928 37.561721 -15.615174
-32.522768 36.141529 -16.2863
-32.729962 37.078051 -16.369838
-41.061617 -28.772359 11.565787
-41.545778 -29.852139 11.415749
-41.023029 -29.321174 12.412437
-41.071377 -28.281841 10.693298
-41.061617 -28.772359 11.565787
-40.548628 -27.750877 11.689986
-41.272741 -27.664003 9.797622
-41.78573 -28.685485 9.673423
-41.071377 -28.281841 10.693298
-41.77328 -26.441819 7.921663
-42.323168 -27.393834 7.839533
-41.437207 -27.115631 8.859876
-42.065644 -25.844475 6.928902
-41.77328 -26.441819 7.921663
-41.179682 -25.566271 7.949245
-42.504785 -25.123223 5.952699
-42.065644 -25.844475 6.928902
-42.504785 -25.123223 5.952699
-41.86283 -24.326685 5.917972
-41.714137 -22.72119 4.822631
-41.379711 -23.296168 5.90223
-40.840235 -22.332914 5.845403
-41.714137 -22.72119 4.822631
-42.173466 -22.033009 3.746437
-44.914028 -21.4745 0.675684
-43.671669 -21.568573 1.620304
-45.476202 -20.607568 -0.399346
-44.914028 -21.4745 0.675684
-44.684744 -20.030171 -0.617274
-43.51314 -19.995151 0.379657
-44.026817 -19.19626 -0.751155
-45.476202 -20.607568 -0.399346
-44.684744 -20.030171 -0.617274
-45.438187 -16.784667 -4.232447
-44.987928 -17.591543 -3.061011
-44.216207 -16.878505 -3.248003
-45.438187 -16.784667 -4.232447
-45.917915 -15.843281 -5.393322
-47.181793 -12.988049 -8.912992
-46.786574 -13.943638 -7.737362
-45.919225 -13.354851 -7.946375
-48.439173 -12.481694 -9.876895
-47.181793 -12.988049 -8.912992
-47.571825 -11.892907 -10.085908
-49.767416 -11.730456 -10.718913
-48.439173 -12.481694 -9.876895
-50.119448 -10.509926 -11.894845
-49.767416 -11.730456 -10.718913
-50.452336 -9.344964 -13.071594
-50.119448 -10.509926 -11.894845
-49.162092 -10.221589 -12.226561
-50.732857 -8.065019 -14.261515
-50.452336 -9.344964 -13.071594
-49.764587 -7.832203 -14.585699
-48.563078 -8.606011 -13.607792
-48.832685 -7.381586 -14.79018
-50.732857 -8.065019 -14.261515
-49.764587 -7.832203 -14.585699
-47.409408 -4.091827 -17.374016
-48.323582 -4.658727 -17.333354
-47.219326 -5.287187 -16.197276
-47.409408 -4.091827 -17.374016
-46.481064 -3.615725 -17.398447
-45.888559 -0.685892 -19.585245
-45.775277 -1.820554 -18.421093
-44.997324 -0.096996 -19.423724
-45.992306 0.347058 -20.725738
-45.888559 -0.685892 -19.585245
-32.522768 36.141529 -16.2863
-32.403759 34.99588 -16.533172
-32.520246 35.265758 -15.870871
-32.317318 35.259811 -18.086334
-32.312984 35.01605 -17.36925
-32.142133 34.29876 -18.678182
-32.317318 35.259811 -18.086334
-32.105507 33.164221 -19.268446
-32.183061 33.025911 -18.380161
-32.142133 34.29876 -18.678182
-31.953197 34.586244 -20.503086
-32.125629 35.76923 -20.813026
-31.93961 33.294804 -20.206626
-31.953197 34.586244 -20.503086
-31.828227 33.443979 -21.143245
-31.980537 32.021956 -19.908606
-32.105507 33.164221 -19.268446
-31.93961 33.294804 -20.206626
-31.075117 32.519278 -23.603825
-31.419427 33.706826 -23.001974
-30.910124 31.272054 -24.265421
-30.646003 30.009804 -24.863774
-31.211557 31.16045 -23.376177
-31.075117 32.519278 -23.603825
-30.910124 31.272054 -24.265421
-27.757491 28.963177 -28.758494
-27.043157 28.998019 -29.241867
-28.119235 27.578991 -28.64782
-27.757491 28.963177 -28.758494
-25.605933 23.116507 -30.617628
-26.29198 21.789851 -30.708593
-27.304012 26.174992 -29.51334
-26.733351 27.564213 -29.532455
-27.983126 26.2253 -29.133928
-27.304012 26.174992 -29.51334
-27.817809 24.816826 -29.49521
-28.633032 26.220825 -28.62969
-28.119235 27.578991 -28.64782
-27.983126 26.2253 -29.133928
-29.111086 24.873213 -28.614029
-29.247195 26.226904 -28.12792
-28.633032 26.220825 -28.62969
-29.740196 21.097778 -30.038902
-29.054982 22.251613 -29.734545
-29.093571 21.031955 -30.399619
-33.302098 15.957693 -34.228653
-33.964596 16.003208 -33.92369
-33.279252 16.489206 -32.984139
-32.61166 15.786188 -34.405941
-31.955306 16.273865 -33.454638
-31.950212 15.616362 -34.571478
-33.302098 15.957693 -34.228653
-32.61166 15.786188 -34.405941
-30.00467 14.628641 -34.54101
-29.359372 15.193538 -33.613667
-29.370523 14.269178 -34.463358
-30.645766 14.114055 -35.488112
-30.634615 15.038415 -34.63842
-30.00467 14.628641 -34.54101
-31.192988 13.842636 -36.619621
-30.645766 14.114055 -35.488112
-31.844753 14.296127 -36.708239
-31.192988 13.842636 -36.619621
-24.525072 11.530439 -31.780111
-24.18148 13.143381 -31.575935
-25.402264 10.619881 -32.533117
-24.525072 11.530439 -31.780111
-25.896974 11.243116 -32.921268
-25.402264 10.619881 -32.533117
3 375 96 376
3 377 376 94
3 375 376 377
3 0 98 97
3 0 101 99
3 0 97 101
3 2 104 102
3 3 107 105
3 3 108 107
3 1 111 109
3 5 114 112
3 5 116 114
3 5 118 116
3 4 121 119
3 4 123 121
3 378 125 379
3 380 127 381
3 382 381 125
3 380 381 382
3 6 130 128
3 8 133 131
3 8 135 133
3 10 383 384
3 10 385 387
3 385 138 386
3 385 386 387
3 10 140 138
3 12 143 141
3 12 145 143
3 14 388 389
3 15 150 149
3 15 390 392
3 392 391 150
3 390 391 392
3 7 153 151
3 13 158 156
3 17 161 159
3 17 163 161
3 9 166 164
3 18 169 167
3 18 171 169
3 18 173 171
3 19 176 174
3 19 178 176
3 19 180 178
3 20 183 181
3 20 185 183
3 11 188 186
3 21 191 189
3 21 193 191
3 21 195 193
3 16 198 196
3 16 200 198
3 393 203 394
3 22 205 204
3 22 207 205
3 22 209 207
3 23 212 210
3 25 213 95
3 25 214 213
3 395 215 396
3 398 397 100
3 27 219 217
3 29 220 103
3 29 221 220
3 30 224 222
3 399 225 400
3 401 400 106
3 399 400 401
3 403 402 225
3 32 228 226
3 34 229 110
3 34 230 229
3 35 233 231
3 37 234 113
3 37 235 234
3 37 237 235
3 39 238 115
3 39 239 238
3 39 241 239
3 41 242 117
3 41 243 242
3 42 246 244
3 44 247 120
3 44 248 247
3 44 250 248
3 46 251 122
3 46 252 251
3 404 253 405
3 48 254 124
3 48 255 254
3 48 257 255
3 407 406 126
3 49 260 258
3 51 261 129
3 51 262 261
3 24 263 211
3 52 264 132
3 52 265 264
3 52 266 265
3 53 267 134
3 53 268 267
3 54 408 410
3 408 270 409
3 408 409 410
3 56 271 136
3 56 272 271
3 57 411 413
3 411 273 412
3 411 412 413
3 57 274 273
3 57 275 274
3 58 276 137
3 58 277 276
3 58 279 277
3 60 280 139
3 60 281 280
3 26 282 216
3 61 283 142
3 61 284 283
3 61 285 284
3 62 286 144
3 62 287 286
3 63 290 288
3 65 291 146
3 65 292 291
3 66 293 147
3 66 294 293
3 66 295 294
3 414 296 415
3 417 416 296
3 63 297 148
3 63 288 297
3 28 418 420
3 420 419 218
3 418 419 420
3 50 298 259
3 67 299 152
3 67 300 299
3 31 301 223
3 421 302 422
3 423 422 154
3 421 422 423
3 424 303 425
3 426 425 302
3 424 425 426
3 428 427 303
3 429 304 430
3 68 431 433
3 431 305 432
3 431 432 433
3 68 306 305
3 68 307 306
3 69 434 436
3 434 308 435
3 434 435 436
3 69 309 308
3 70 437 439
3 437 310 438
3 437 438 439
3 70 311 310
3 70 312 311
3 440 313 441
3 442 441 155
3 440 441 442
3 443 314 444
3 445 444 313
3 443 444 445
3 446 315 447
3 448 316 449
3 450 449 315
3 448 449 450
3 451 317 452
3 453 452 316
3 451 452 453
3 64 319 289
3 72 320 157
3 72 321 320
3 33 322 227
3 73 323 160
3 73 324 323
3 73 454 456
3 456 455 324
3 454 455 456
3 74 457 459
3 459 458 162
3 457 458 459
3 74 460 462
3 460 325 461
3 460 461 462
3 55 326 269
3 75 327 165
3 75 328 327
3 36 329 232
3 76 330 168
3 76 331 330
3 76 332 331
3 77 333 170
3 77 463 465
3 465 464 333
3 463 464 465
3 77 466 467
3 78 468 470
3 470 469 172
3 468 469 470
3 78 471 473
3 471 472 473
3 38 334 236
3 79 335 175
3 79 336 335
3 79 337 336
3 80 474 476
3 476 475 177
3 474 475 476
3 80 477 478
3 80 479 480
3 81 481 483
3 483 482 179
3 481 482 483
3 81 484 486
3 484 338 485
3 484 485 486
3 40 339 240
3 82 340 182
3 82 341 340
3 82 342 341
3 83 343 184
3 83 344 343
3 59 345 278
3 84 346 187
3 84 347 346
3 43 348 245
3 85 349 190
3 85 350 349
3 85 351 350
3 86 352 192
3 86 353 352
3 86 354 353
3 87 355 194
3 87 356 355
3 45 357 249
3 88 358 197
3 88 359 358
3 88 360 359
3 71 361 199
3 71 318 361
3 89 362 201
3 89 363 362
3 90 487 489
3 487 364 488
3 487 488 489
3 90 365 364
3 90 366 365
3 91 367 202
3 91 368 367
3 490 369 491
3 47 492 493
3 494 370 495
3 496 371 497
3 498 497 370
3 496 497 498
3 92 372 206
3 92 373 372
3 92 374 373
3 93 499 501
3 501 500 208
3 499 500 501
3 93 502 503
3 505 504 256
3 94 95 23
3 96 95 94
3 96 25 95
3 97 506 507
3 98 508 510
3 510 509 97
3 508 509 510
3 98 511 512
3 99 513 515
3 513 100 514
3 513 514 515
3 101 100 99
3 101 516 518
3 518 517 100
3 516 517 518
3 101 519 520
3 97 521 523
3 523 522 101
3 521 522 523
3 97 524 525
3 102 103 27
3 104 103 102
3 104 29 103
3 105 106 30
3 107 106 105
3 107 526 528
3 528 527 106
3 526 527 528
3 107 529 530
3 108 531 533
3 533 532 107
3 531 532 533
3 108 534 535
3 109 110 32
3 111 110 109
3 111 34 110
3 112 113 35
3 114 113 112
3 114 37 113
3 114 115 37
3 116 115 114
3 116 39 115
3 116 117 39
3 118 117 116
3 118 41 117
3 119 120 42
3 121 120 119
3 121 44 120
3 121 122 44
3 123 122 121
3 123 46 122
3 536 124 537
3 125 538 540
3 538 124 539
3 538 539 540
3 125 48 124
3 125 126 48
3 127 126 125
3 127 541 543
3 543 542 126
3 541 542 543
3 128 129 49
3 130 129 128
3 130 51 129
3 131 132 24
3 133 132 131
3 133 52 132
3 133 134 52
3 135 134 133
3 135 53 134
3 544 136 545
3 546 545 54
3 544 545 546
3 547 136 548
3 549 56 550
3 551 550 136
3 549 550 551
3 552 57 553
3 554 137 555
3 556 555 57
3 554 555 556
3 138 557 559
3 557 137 558
3 557 558 559
3 138 58 137
3 138 139 58
3 140 139 138
3 140 60 139
3 141 142 26
3 143 142 141
3 143 61 142
3 143 144 61
3 145 144 143
3 145 62 144
3 560 146 561
3 562 561 63
3 560 561 562
3 563 146 564
3 565 65 566
3 567 566 146
3 565 566 567
3 568 147 569
3 570 147 571
3 572 66 573
3 574 573 147
3 572 573 574
3 576 575 66
3 577 148 578
3 579 148 580
3 581 63 582
3 583 582 148
3 581 582 583
3 149 584 586
3 586 585 28
3 584 585 586
3 150 587 589
3 589 588 149
3 587 588 589
3 150 590 591
3 150 592 593
3 595 594 150
3 151 152 50
3 153 152 151
3 153 67 152
3 596 154 597
3 598 597 31
3 596 597 598
3 599 154 600
3 602 601 154
3 603 68 604
3 606 605 68
3 607 69 608
3 609 70 610
3 611 155 612
3 613 612 70
3 611 612 613
3 614 155 615
3 617 616 155
3 156 157 64
3 158 157 156
3 158 72 157
3 159 160 33
3 161 160 159
3 161 73 160
3 161 162 73
3 163 162 161
3 163 74 162
3 164 165 55
3 166 165 164
3 166 75 165
3 167 168 36
3 169 168 167
3 169 76 168
3 169 170 76
3 171 170 169
3 171 77 170
3 171 172 77
3 173 172 171
3 173 78 172
3 174 175 38
3 176 175 174
3 176 79 175
3 176 177 79
3 178 177 176
3 178 80 177
3 178 179 80
3 180 179 178
3 180 81 179
3 181 182 40
3 183 182 181
3 183 82 182
3 183 184 82
3 185 184 183
3 185 83 184
3 186 187 59
3 188 187 186
3 188 84 187
3 189 190 43
3 191 190 189
3 191 85 190
3 191 192 85
3 193 192 191
3 193 86 192
3 193 194 86
3 195 194 193
3 195 87 194
3 196 197 45
3 198 197 196
3 198 88 197
3 198 199 88
3 200 199 198
3 200 71 199
3 618 201 619
3 620 201 621
3 622 89 623
3 624 623 201
3 622 623 624
3 625 90 626
3 627 202 628
3 629 628 90
3 627 628 629
3 203 630 632
3 630 202 631
3 630 631 632
3 203 91 202
3 204 633 635
3 635 634 47
3 633 634 635
3 205 636 638
3 638 637 204
3 636 637 638
3 205 639 640
3 205 641 643
3 641 206 642
3 641 642 643
3 207 206 205
3 207 92 206
3 207 208 92
3 209 208 207
3 209 93 208
3 210 211 6
3 212 211 210
3 212 24 211
3 95 212 23
3 213 212 95
3 213 24 212
3 213 131 24
3 214 131 213
3 214 8 131
3 215 644 645
3 215 646 647
3 648 10 649
3 650 216 651
3 652 651 10
3 650 651 652
3 653 216 654
3 655 26 656
3 657 656 216
3 655 656 657
3 658 26 659
3 660 141 661
3 662 661 26
3 660 661 662
3 663 141 664
3 665 12 666
3 667 666 141
3 665 666 667
3 100 668 669
3 671 670 100
3 217 218 14
3 219 218 217
3 219 28 218
3 103 219 27
3 220 219 103
3 220 28 219
3 220 149 28
3 221 149 220
3 221 15 149
3 222 223 7
3 224 223 222
3 224 31 223
3 106 224 30
3 225 224 106
3 225 31 224
3 225 672 674
3 674 673 31
3 672 673 674
3 676 675 225
3 226 227 13
3 228 227 226
3 228 33 227
3 110 228 32
3 229 228 110
3 229 33 228
3 229 159 33
3 230 159 229
3 230 17 159
3 231 232 9
3 233 232 231
3 233 36 232
3 113 233 35
3 234 233 113
3 234 36 233
3 234 167 36
3 235 167 234
3 235 18 167
3 235 236 18
3 237 236 235
3 237 38 236
3 115 237 37
3 238 237 115
3 238 38 237
3 238 174 38
3 239 174 238
3 239 19 174
3 239 240 19
3 241 240 239
3 241 40 240
3 117 241 39
3 242 241 117
3 242 40 241
3 242 181 40
3 243 181 242
3 243 20 181
3 244 245 11
3 246 245 244
3 246 43 245
3 120 246 42
3 247 246 120
3 247 43 246
3 247 189 43
3 248 189 247
3 248 21 189
3 248 249 21
3 250 249 248
3 250 45 249
3 122 250 44
3 251 250 122
3 251 45 250
3 251 196 45
3 252 196 251
3 252 16 196
3 253 677 678
3 253 679 681
3 679 47 680
3 679 680 681
3 124 682 684
3 682 253 683
3 682 683 684
3 254 253 124
3 254 47 253
3 254 204 47
3 255 204 254
3 255 22 204
3 255 256 22
3 257 256 255
3 257 685 687
3 687 686 256
3 685 686 687
3 126 257 48
3 688 257 689
3 690 689 126
3 688 689 690
3 692 691 257
3 258 259 2
3 260 259 258
3 260 50 259
3 129 260 49
3 261 260 129
3 261 50 260
3 261 151 50
3 262 151 261
3 262 7 151
3 211 130 6
3 263 130 211
3 263 51 130
3 132 263 24
3 264 263 132
3 264 51 263
3 264 262 51
3 265 262 264
3 265 7 262
3 265 222 7
3 266 222 265
3 266 30 222
3 134 266 52
3 267 266 134
3 267 30 266
3 267 105 30
3 268 105 267
3 268 3 105
3 693 269 694
3 695 694 1
3 693 694 695
3 270 696 698
3 696 269 697
3 696 697 698
3 270 55 269
3 136 270 54
3 271 270 136
3 271 55 270
3 271 164 55
3 272 164 271
3 272 9 164
3 699 56 700
3 273 701 702
3 273 703 705
3 703 56 704
3 703 704 705
3 273 272 56
3 274 272 273
3 274 9 272
3 274 231 9
3 275 231 274
3 275 35 231
3 137 275 57
3 276 275 137
3 276 35 275
3 276 112 35
3 277 112 276
3 277 5 112
3 277 278 5
3 279 278 277
3 279 59 278
3 139 279 58
3 280 279 139
3 280 59 279
3 280 186 59
3 281 186 280
3 281 11 186
3 216 140 10
3 282 140 216
3 282 60 140
3 142 282 26
3 283 282 142
3 283 60 282
3 283 281 60
3 284 281 283
3 284 11 281
3 284 244 11
3 285 244 284
3 285 42 244
3 144 285 61
3 286 285 144
3 286 42 285
3 286 119 42
3 287 119 286
3 287 4 119
3 288 289 0
3 290 289 288
3 290 64 289
3 146 290 63
3 291 290 146
3 291 64 290
3 291 156 64
3 292 156 291
3 292 13 156
3 706 65 707
3 147 708 709
3 293 710 712
3 712 711 147
3 710 711 712
3 293 713 715
3 713 65 714
3 713 714 715
3 293 292 65
3 294 292 293
3 294 13 292
3 294 226 13
3 295 226 294
3 295 32 226
3 716 295 717
3 718 717 66
3 716 717 718
3 296 719 721
3 719 295 720
3 719 720 721
3 296 32 295
3 296 109 32
3 722 109 723
3 724 723 296
3 722 723 724
3 725 1 726
3 727 726 109
3 725 726 727
3 728 1 729
3 731 730 1
3 732 54 733
3 734 54 735
3 737 736 54
3 148 738 739
3 297 740 742
3 742 741 148
3 740 741 742
3 297 743 744
3 297 745 747
3 745 99 746
3 745 746 747
3 288 99 297
3 288 0 99
3 218 748 750
3 750 749 14
3 748 749 750
3 752 751 218
3 754 753 28
3 259 104 2
3 298 104 259
3 298 29 104
3 152 298 50
3 299 298 152
3 299 29 298
3 299 221 29
3 300 221 299
3 300 15 221
3 223 153 7
3 301 153 223
3 301 67 153
3 154 301 31
3 302 301 154
3 302 67 301
3 302 300 67
3 303 300 302
3 303 15 300
3 303 755 757
3 757 756 15
3 755 756 757
3 760 759 303
3 758 759 760
3 304 761 762
3 304 763 765
3 763 12 764
3 763 764 765
3 305 766 767
3 305 768 769
3 305 770 772
3 770 304 771
3 770 771 772
3 306 304 305
3 306 12 304
3 306 145 12
3 307 145 306
3 307 62 145
3 773 307 774
3 775 774 68
3 773 774 775
3 308 776 778
3 776 307 777
3 776 777 778
3 308 62 307
3 308 287 62
3 309 287 308
3 309 4 287
3 779 69 780
3 310 781 782
3 310 783 785
3 783 69 784
3 783 784 785
3 310 309 69
3 311 309 310
3 311 4 309
3 311 123 4
3 312 123 311
3 312 46 123
3 155 312 70
3 313 312 155
3 313 46 312
3 313 252 46
3 314 252 313
3 314 16 252
3 315 786 787
3 315 788 789
3 315 790 792
3 790 314 791
3 790 791 792
3 316 314 315
3 316 16 314
3 316 200 16
3 317 200 316
3 317 71 200
3 793 317 794
3 795 317 796
3 797 71 798
3 799 798 317
3 797 798 799
3 800 318 801
3 802 801 71
3 800 801 802
3 803 318 804
3 806 805 318
3 289 98 0
3 319 98 289
3 319 807 809
3 809 808 98
3 807 808 809
3 157 319 64
3 320 319 157
3 320 810 812
3 812 811 319
3 810 811 812
3 320 813 815
3 813 215 814
3 813 814 815
3 321 215 320
3 321 816 818
3 818 817 215
3 816 817 818
3 227 158 13
3 322 158 227
3 322 72 158
3 160 322 33
3 323 322 160
3 323 72 322
3 323 321 72
3 324 321 323
3 324 819 821
3 821 820 321
3 819 820 821
3 324 822 823
3 825 824 324
3 162 826 828
3 828 827 73
3 826 827 828
3 830 829 162
3 325 831 832
3 325 833 834
3 269 111 1
3 326 111 269
3 326 34 111
3 165 326 55
3 327 326 165
3 327 34 326
3 327 230 34
3 328 230 327
3 328 17 230
3 232 166 9
3 329 166 232
3 329 75 166
3 168 329 36
3 330 329 168
3 330 75 329
3 330 328 75
3 331 328 330
3 331 17 328
3 331 163 17
3 332 163 331
3 332 74 163
3 170 332 76
3 333 332 170
3 333 74 332
3 333 325 74
3 835 325 836
3 837 836 333
3 835 836 837
3 839 838 325
3 172 840 842
3 842 841 77
3 840 841 842
3 844 843 172
3 236 173 18
3 334 173 236
3 334 78 173
3 175 334 38
3 335 334 175
3 335 78 334
3 335 845 847
3 847 846 78
3 845 846 847
3 336 848 850
3 850 849 335
3 848 849 850
3 336 851 852
3 336 853 854
3 337 855 857
3 857 856 336
3 855 856 857
3 337 858 859
3 177 337 79
3 860 337 861
3 862 861 177
3 860 861 862
3 864 863 337
3 179 865 867
3 867 866 80
3 865 866 867
3 869 868 179
3 338 870 871
3 338 872 874
3 872 14 873
3 872 873 874
3 240 180 19
3 339 180 240
3 339 81 180
3 182 339 40
3 340 339 182
3 340 81 339
3 340 338 81
3 341 338 340
3 341 14 338
3 341 217 14
3 342 217 341
3 342 27 217
3 184 342 82
3 343 342 184
3 343 27 342
3 343 102 27
3 344 102 343
3 344 2 102
3 278 118 5
3 345 118 278
3 345 41 118
3 187 345 59
3 346 345 187
3 346 41 345
3 346 243 41
3 347 243 346
3 347 20 243
3 245 188 11
3 348 188 245
3 348 84 188
3 190 348 43
3 349 348 190
3 349 84 348
3 349 347 84
3 350 347 349
3 350 20 347
3 350 185 20
3 351 185 350
3 351 83 185
3 192 351 85
3 352 351 192
3 352 83 351
3 352 344 83
3 353 344 352
3 353 2 344
3 353 258 2
3 354 258 353
3 354 49 258
3 194 354 86
3 355 354 194
3 355 49 354
3 355 128 49
3 356 128 355
3 356 6 128
3 249 195 21
3 357 195 249
3 357 87 195
3 197 357 45
3 358 357 197
3 358 87 357
3 358 356 87
3 359 356 358
3 359 6 356
3 359 210 6
3 360 210 359
3 360 23 210
3 199 360 88
3 361 360 199
3 361 23 360
3 361 94 23
3 318 94 361
3 318 875 877
3 877 876 94
3 875 876 877
3 878 96 879
3 880 96 881
3 882 25 883
3 884 883 96
3 882 883 884
3 201 885 886
3 362 887 889
3 889 888 201
3 887 888 889
3 362 890 892
3 890 25 891
3 890 891 892
3 362 214 25
3 363 214 362
3 363 8 214
3 893 89 894
3 364 895 896
3 364 897 899
3 897 89 898
3 897 898 899
3 364 363 89
3 365 363 364
3 365 8 363
3 365 135 8
3 366 135 365
3 366 53 135
3 202 366 90
3 367 366 202
3 367 53 366
3 367 268 53
3 368 268 367
3 368 3 268
3 369 900 901
3 369 902 903
3 905 904 47
3 906 369 907
3 370 908 910
3 908 369 909
3 908 909 910
3 370 911 913
3 913 912 369
3 911 912 913
3 370 914 916
3 914 203 915
3 914 915 916
3 371 203 370
3 371 91 203
3 206 917 919
3 917 371 918
3 917 918 919
3 372 371 206
3 372 91 371
3 372 368 91
3 373 368 372
3 373 3 368
3 373 108 3
3 374 108 373
3 374 920 922
3 922 921 108
3 920 921 922
3 208 374 92
3 923 374 924
3 925 924 208
3 923 924 925
3 927 926 374
3 256 209 22
3 928 209 929
3 930 929 256
3 928 929 930
3 931 93 932
3 933 932 209
3 931 932 933
3 934 93 935
3 937 936 93
3 938 127 939
3 940 127 941
3 943 942 127
