ply
format ascii 1.0
element vertex 518
property float x
property float y
property float z
element face 502
property list uchar int vertex_index
end_header
-30.56118 -4.485447 -52.852089
-29.23613 -49.417393 -26.074108
-18.331291 -53.325268 -18.17971
-24.0476 -45.186226 -24.320877
-26.76263 -5.598968 -47.673157
-26.834 -14.707661 -45.376041
-29.491798 -25.088177 -40.247883
-27.184557 -35.627064 -32.199673
-27.301029 -1.538025 -47.074688
-26.379051 -15.631702 -42.871262
-26.212318 -20.168671 -41.322517
-27.84709 -19.727957 -43.046257
-26.832462 -25.024038 -39.1106
-26.461775 -47.283997 -25.052055
-25.909779 -40.582932 -28.095852
-28.442459 -42.042072 -29.083435
-29.955265 -36.499519 -33.30394
-31.219561 -43.45713 -30.338249
-21.465721 -49.434757 -21.030926
-23.712944 -52.167694 -21.566341
-26.561584 -54.994633 -22.23035
-27.80097 3.901894 -50.332184
-27.433275 -0.02247 -51.383156
-27.605375 -4.486532 -50.919342
-26.524958 -9.998066 -47.006126
-28.33201 -9.354585 -49.227516
-29.599415 -14.558723 -46.689434
-31.263752 -20.034645 -43.693214
-33.00919 -25.618423 -40.687912
-31.476929 -51.181538 -27.748413
-33.568478 -44.456329 -32.024487
-35.594307 -37.577194 -35.863068
-34.565426 -31.2523 -38.089081
-26.293842 -30.178829 -34.965237
-28.23621 -30.395111 -36.351528
-31.388723 -30.86953 -37.289059
-26.323151 -20.593979 -40.070599
-26.18224 -22.844746 -39.22897
-26.41423 -22.5457 -40.294254
-26.24371 -25.179245 -38.221741
-31.26162 -7.135673 -51.598984
-27.878237 -48.374573 -25.49157
-27.534513 -44.70689 -27.017998
-28.945772 -45.620956 -27.535698
-29.865578 -42.780922 -29.655472
-30.287498 -46.479366 -28.186333
-19.945568 -51.426849 -19.561611
-22.036377 -54.475639 -20.073593
-25.135208 -53.598869 -21.837177
-27.768871 3.013121 -47.814533
-27.009157 -3.523916 -47.547676
-27.161047 -0.722788 -49.36792
-26.981916 -2.777861 -49.583549
-27.450937 -2.197237 -51.327133
-26.906708 -4.942378 -49.44735
-26.33606 -12.820488 -44.961838
-26.597473 -12.314793 -46.293045
-27.13809 -9.557921 -48.275146
-27.476364 -11.994846 -47.326321
-28.90274 -11.917515 -48.040443
-27.974522 -14.512302 -46.189766
-28.607048 -22.362553 -41.68874
-29.415129 -19.774143 -43.501144
-30.301018 -22.507118 -42.030163
-32.148827 -22.828135 -42.160282
-31.235825 -25.299221 -40.539169
-32.393677 -51.831467 -28.790314
-23.339371 -44.296188 -23.849865
-24.314404 -42.18092 -25.645554
-26.601688 -38.146751 -30.122448
-25.737682 -37.668777 -29.523487
-26.235281 -35.273445 -31.568748
-26.0567 -32.648663 -32.876522
-26.648682 -32.79277 -33.649387
-27.034994 -30.239014 -35.733418
-27.710625 -33.036381 -34.289303
-31.471258 -36.92276 -33.873032
-30.661238 -33.673691 -35.350605
-32.243969 -33.978241 -35.854404
-33.027229 -31.104134 -37.686432
-33.758121 -34.204723 -36.378807
-19.105019 -54.961506 -18.517387
-27.400204 -4.310583 -45.260281
-27.087296 -6.350342 -45.630344
-26.212324 -17.869963 -42.185314
-26.416798 -17.445776 -43.374496
-27.250198 -17.177774 -44.284927
-26.735998 -19.86842 -42.319267
-27.256617 -22.379337 -41.114128
-27.963383 -24.994308 -39.780502
-25.131758 -46.200996 -24.690945
-25.06715 -42.929733 -26.153412
-26.188074 -43.790321 -26.582561
-27.071383 -41.290943 -28.584663
-27.818356 -38.707375 -30.658855
-28.477577 -36.051445 -32.760136
-29.232002 -39.299644 -31.197086
-30.690784 -39.871773 -31.788422
-32.08633 -40.375763 -32.460194
-22.184818 -46.319717 -22.160149
-22.843277 -47.354095 -22.612976
-20.836308 -52.906456 -19.866398
-22.443695 -50.758595 -21.331089
-23.883179 -48.523224 -22.936771
-25.191936 -49.770599 -23.226711
-26.617447 -51.034191 -23.578701
-28.00927 -52.257355 -24.06995
-27.428381 1.210726 -48.778114
-27.550816 2.017929 -51.055794
-28.205223 0.437967 -53.079124
-28.45656 -1.885111 -52.745232
-28.849682 -4.314667 -52.061165
-26.512529 -10.604302 -45.446762
-26.590534 -7.758487 -47.479622
-26.952923 -7.205226 -48.996635
-27.898613 -6.875527 -50.203316
-29.37196 -6.836364 -51.076019
-30.009853 -9.442724 -49.844398
-30.744875 -12.129257 -48.423588
-31.549685 -14.889148 -46.873138
-28.62752 -17.106941 -44.902119
-30.39859 -17.26963 -45.222782
-33.206879 -20.54871 -43.641304
-27.86998 -56.308788 -22.803307
-29.257133 -53.393211 -24.744797
-30.317642 -54.403286 -25.608822
-30.442282 -50.365929 -26.829315
-32.448341 -44.027489 -31.136524
-25.108433 -39.972038 -27.541668
-25.339823 -37.314499 -28.799118
-26.530899 -27.631655 -37.052624
-27.454502 -27.630867 -37.787476
-28.814854 -27.732748 -38.348331
-29.102396 -33.344173 -34.841316
-29.743519 -30.617588 -36.856846
-30.443535 -27.916645 -38.76643
-32.164188 -28.154472 -39.07869
-33.822006 -28.401058 -39.328117
-26.224359 -24.147921 -38.169706
-26.373466 -23.045943 -38.580444
-26.255094 -25.315171 -37.666092
-26.212975 -24.011996 -38.725355
-26.224359 -24.147921 -38.169706
-31.593292 -4.760472 -53.066349
-31.215469 -3.41071 -53.682125
-30.9114 -5.81056 -52.225537
-31.943512 -6.085585 -52.439796
-31.593292 -4.760472 -53.066349
-18.122352 -52.581302 -17.907232
-17.509087 -54.223795 -17.516248
-18.880189 -51.709078 -18.625093
-18.122352 -52.581302 -17.907232
-19.13843 -52.376058 -18.87066
-19.687328 -50.759868 -19.316044
-18.880189 -51.709078 -18.625093
-27.848202 2.587795 -46.446995
-27.966901 3.847907 -47.159626
-26.715736 -13.511227 -45.834543
-26.444608 -13.707022 -45.277535
-26.562871 -14.903456 -44.819032
-32.845915 -52.0599 -29.342438
-32.229082 -53.8729 -28.275717
-32.958432 -50.069952 -29.856335
-32.845915 -52.0599 -29.342438
-32.585633 -35.625768 -35.172243
-31.857613 -35.4505 -34.863718
-32.199277 -37.098028 -34.181557
-33.342709 -35.73901 -35.434444
-33.001045 -34.091482 -36.116606
-32.585633 -35.625768 -35.172243
-27.549903 -5.693257 -44.310236
-27.670879 -4.657239 -44.017401
-27.393449 -6.713137 -44.495267
-27.24375 -5.330463 -45.445312
-27.549903 -5.693257 -44.310236
-21.825269 -47.877237 -21.595537
-21.527217 -47.286075 -21.365969
-21.167669 -48.843595 -20.801358
-20.517173 -54.798361 -19.29718
-19.970664 -53.933981 -19.191893
-19.651528 -55.825886 -18.622675
-28.117813 5.200761 -51.007424
-27.988459 4.756209 -49.777637
-27.992166 4.282709 -51.44574
-28.30901 5.581575 -52.12098
-28.117813 5.200761 -51.007424
-27.364705 -0.16365 -47.926401
-27.521117 0.783494 -47.511921
-27.457441 -0.590881 -46.660208
-27.771434 1.304421 -52.203796
-27.830205 2.324621 -52.040115
-27.492045 0.99773 -51.219475
-27.819249 0.207749 -52.23114
-28.157409 1.53464 -53.05178
-27.771434 1.304421 -52.203796
-26.521919 -14.536275 -43.116388
-26.69723 -15.933417 -42.052832
-31.824932 -18.87064 -44.474702
-31.392351 -17.488132 -45.239486
-30.831171 -18.652138 -44.457998
-32.235315 -20.291677 -43.667259
-32.796495 -19.127672 -44.448747
-31.824932 -18.87064 -44.474702
-33.48646 -24.486371 -41.396278
-33.056278 -23.091227 -42.132464
-32.579009 -24.223279 -41.424097
-33.820208 -25.822592 -40.710243
-33.48646 -24.486371 -41.396278
-28.432273 -56.906872 -23.189873
-27.656967 -58.394489 -22.26231
-29.12585 -55.449083 -24.160618
-28.563557 -54.851 -23.774052
-28.432273 -56.906872 -23.189873
-30.897285 -52.792412 -26.678618
-30.769989 -54.828646 -26.120558
-31.349632 -53.217771 -27.190354
-31.481319 -49.209309 -28.366974
-30.963996 -48.801505 -27.907425
-30.959605 -50.773734 -27.288864
-33.008409 -44.241909 -31.580506
-32.494946 -45.942143 -30.524891
-33.055014 -46.156562 -30.968872
-33.472617 -42.612621 -32.618214
-32.912548 -42.398201 -32.174233
-33.008409 -44.241909 -31.580506
-35.091106 -39.296452 -34.941397
-35.694269 -39.335048 -35.354828
-34.94274 -37.540897 -35.510397
-35.091106 -39.296452 -34.941397
-35.386225 -35.93449 -36.402172
-34.94274 -37.540897 -35.510397
-25.548246 -36.17206 -29.806271
-25.538753 -37.491638 -29.161302
-25.747175 -36.349199 -30.168455
-25.570441 -36.115433 -29.345672
-25.548246 -36.17206 -29.806271
-26.201847 -30.205412 -34.492012
-26.083276 -31.440329 -33.447654
-26.175271 -31.413746 -33.920879
-26.229519 -28.962722 -35.543574
-26.201847 -30.205412 -34.492012
-26.412371 -28.905242 -36.008931
-26.348047 -27.689135 -36.587267
-26.229519 -28.962722 -35.543574
-34.933808 -29.904257 -38.833927
-34.562098 -28.478637 -39.453445
-34.193716 -29.826679 -38.708599
-26.443922 -21.920559 -39.001259
-26.662655 -20.844344 -39.329867
-26.252696 -21.719363 -39.649784
-26.443922 -21.920559 -39.001259
-26.373466 -23.045943 -38.580444
-32.348047 -7.471415 -51.683709
-31.943512 -6.085585 -52.439796
-31.647786 -8.500294 -50.858188
-32.348047 -7.471415 -51.683709
-20.407592 -49.839641 -20.0667
-19.687328 -50.759868 -19.316044
-20.705644 -50.430803 -20.296269
-21.167669 -48.843595 -20.801358
-20.407592 -49.839641 -20.0667
-21.776676 -56.460279 -19.490911
-21.117207 -55.582953 -19.400778
-22.731884 -55.272689 -20.178739
-21.776676 -56.460279 -19.490911
-23.570168 -54.118717 -20.925114
-22.874661 -53.321666 -20.819967
-22.731884 -55.272689 -20.178739
-24.281299 -54.834305 -21.060531
-24.424076 -52.883281 -21.701759
-23.570168 -54.118717 -20.925114
-25.002365 -55.614458 -21.213324
-24.281299 -54.834305 -21.060531
-25.715553 -56.31234 -21.40991
-25.848396 -54.296751 -22.033763
-25.002365 -55.614458 -21.213324
-27.97241 4.311823 -48.518812
-27.966901 3.847907 -47.159626
-27.78492 3.457508 -49.073358
-27.988459 4.756209 -49.777637
-27.97241 4.311823 -48.518812
-26.313901 -13.959869 -44.611931
-26.357556 -14.226095 -43.91655
-26.335397 -15.365476 -43.566643
-26.466766 -12.56764 -45.627442
-26.313901 -13.959869 -44.611931
-26.444608 -13.707022 -45.277535
-31.808006 -53.542736 -27.711304
-32.229082 -53.8729 -28.275717
-31.935303 -51.506503 -28.269363
-31.349632 -53.217771 -27.190354
-31.808006 -53.542736 -27.711304
-32.467613 -49.844132 -29.351786
-32.009239 -49.519167 -28.830835
-31.935303 -51.506503 -28.269363
-32.467613 -49.844132 -29.351786
-32.958432 -50.069952 -29.856335
-33.545832 -46.382383 -31.473422
-33.055014 -46.156562 -30.968872
-36.252161 -37.524665 -36.223806
-35.694269 -39.335048 -35.354828
-36.069116 -35.882469 -36.70669
-36.252161 -37.524665 -36.223806
-23.675358 -42.940208 -24.416735
-23.204016 -43.932682 -23.525498
-24.162875 -41.882575 -25.314579
-23.675358 -42.940208 -24.416735
-23.826887 -43.238554 -24.747709
-24.54021 -40.840283 -26.248632
-24.162875 -41.882575 -25.314579
-25.995975 -35.151533 -31.191085
-25.747175 -36.349199 -30.168455
-25.986482 -36.471111 -30.546118
-26.14599 -33.961054 -32.222635
-25.906684 -33.839142 -31.844973
-25.995975 -35.151533 -31.191085
-17.82207 -55.11954 -17.712803
-17.509087 -54.223795 -17.516248
-18.208934 -55.937658 -17.881641
-18.718155 -54.143387 -18.348548
-17.82207 -55.11954 -17.712803
-18.680771 -56.881332 -18.003445
-18.208934 -55.937658 -17.881641
-19.651528 -55.825886 -18.622675
-18.680771 -56.881332 -18.003445
-27.491954 -1.931974 -45.815748
-27.457441 -0.590881 -46.660208
-27.541541 -3.318253 -44.908544
-27.670879 -4.657239 -44.017401
-27.350617 -2.924304 -46.167485
-27.491954 -1.931974 -45.815748
-27.541541 -3.318253 -44.908544
-26.499741 -17.014907 -41.806934
-26.69723 -15.933417 -42.052832
-26.471792 -19.496046 -40.406603
-26.662655 -20.844344 -39.329867
-26.416378 -18.134038 -41.46396
-26.471792 -19.496046 -40.406603
-26.267737 -19.231971 -41.127956
-26.295687 -16.750833 -42.528288
-26.499741 -17.014907 -41.806934
-26.416378 -18.134038 -41.46396
-26.252033 -16.484607 -43.223669
-26.335397 -15.365476 -43.566643
-26.295687 -16.750833 -42.528288
-26.35427 -16.272513 -43.81826
-26.252033 -16.484607 -43.223669
-26.314561 -17.657869 -42.779905
-26.625399 -16.076718 -44.375269
-26.562871 -14.903456 -44.819032
-26.35427 -16.272513 -43.81826
-32.506813 -38.824529 -33.475138
-32.199277 -37.098028 -34.181557
-31.778794 -38.649261 -33.166613
-30.260244 -3.200785 -53.332275
-31.215469 -3.41071 -53.682125
-22.065878 -45.887794 -21.832167
-21.527217 -47.286075 -21.365969
-22.626739 -44.944446 -22.680639
-22.065878 -45.887794 -21.832167
-22.762094 -45.307952 -23.005007
-23.204016 -43.932682 -23.525498
-22.626739 -44.944446 -22.680639
-21.436343 -53.691047 -19.969995
-20.517173 -54.798361 -19.29718
-21.117207 -55.582953 -19.400778
-27.691362 1.684692 -47.03013
-27.848202 2.587795 -46.446995
-27.598626 2.111924 -48.296323
-27.691362 1.684692 -47.03013
-27.521117 0.783494 -47.511921
-27.867089 3.340726 -51.807545
-27.992166 4.282709 -51.44574
-27.675893 2.959912 -50.693989
-27.867089 3.340726 -51.807545
-27.830205 2.324621 -52.040115
-28.679811 1.684278 -53.861335
-28.157409 1.53464 -53.05178
-28.843288 0.500465 -53.751689
-28.679811 1.684278 -53.861335
-28.968957 -0.661074 -53.584744
-28.843288 0.500465 -53.751689
-28.330891 -0.723572 -52.912178
-29.207935 -1.900618 -53.278847
-29.720332 -0.676581 -54.118358
-28.968957 -0.661074 -53.584744
-29.404496 -3.115395 -52.936813
-29.207935 -1.900618 -53.278847
-28.653121 -3.099889 -52.403199
-29.705431 -4.400057 -52.456627
-30.260244 -3.200785 -53.332275
-29.404496 -3.115395 -52.936813
-27.232335 -7.7595 -44.634377
-27.393449 -6.713137 -44.495267
-26.932529 -7.399148 -45.656202
-27.232335 -7.7595 -44.634377
-26.770195 -7.023461 -46.677609
-26.924963 -5.974655 -46.651751
-26.932529 -7.399148 -45.656202
-26.500424 -13.130667 -44.161676
-26.521919 -14.536275 -43.116388
-26.357556 -14.226095 -43.91655
-26.588658 -12.022575 -44.404139
-26.500424 -13.130667 -44.161676
-26.424295 -11.712395 -45.2043
-26.764131 -10.946424 -44.537565
-26.588658 -12.022575 -44.404139
-26.645145 -9.526128 -45.564411
-26.764131 -10.946424 -44.537565
-26.684148 -8.10322 -46.580841
-26.645145 -9.526128 -45.564411
-26.551532 -9.181394 -46.463192
-26.676582 -6.678727 -47.57639
-26.770195 -7.023461 -46.677609
-26.684148 -8.10322 -46.580841
-31.021902 -9.65382 -49.980896
-31.647786 -8.500294 -50.858188
-30.635737 -8.289198 -50.721691
-31.389413 -10.997086 -49.270491
-31.021902 -9.65382 -49.980896
-30.377364 -10.785991 -49.133993
-31.795493 -12.400756 -48.450527
-31.389413 -10.997086 -49.270491
-32.197898 -13.780701 -47.675303
-31.795493 -12.400756 -48.450527
-31.14728 -13.509203 -47.648363
-32.60369 -15.219385 -46.81336
-32.197898 -13.780701 -47.675303
-31.967898 -16.297891 -46.064664
-30.974137 -16.079389 -46.04796
-31.392351 -17.488132 -45.239486
-32.60369 -15.219385 -46.81336
-31.967898 -16.297891 -46.064664
-33.813237 -19.510306 -44.332159
-32.796495 -19.127672 -44.448747
-34.141962 -20.965674 -43.503496
-33.813237 -19.510306 -44.332159
-33.585304 -21.951515 -42.872974
-32.677853 -21.688423 -42.900793
-33.056278 -23.091227 -42.132464
-34.141962 -20.965674 -43.503496
-33.585304 -21.951515 -42.872974
-26.398881 -57.052904 -21.643946
-25.715553 -56.31234 -21.40991
-27.053079 -57.709982 -21.930424
-26.840065 -59.795683 -21.389427
-27.656967 -58.394489 -22.26231
-27.215782 -55.651711 -22.516829
-26.398881 -57.052904 -21.643946
-27.053079 -57.709982 -21.930424
-30.129039 -56.477384 -25.071535
-30.769989 -54.828646 -26.120558
-29.656104 -55.954121 -24.59263
-30.129039 -56.477384 -25.071535
-29.787388 -53.898249 -25.176809
-29.12585 -55.449083 -24.160618
-29.656104 -55.954121 -24.59263
-30.886604 -46.858223 -28.585934
-30.36489 -48.422647 -27.507824
-30.963996 -48.801505 -27.907425
-31.352635 -45.347105 -29.661892
-30.753529 -44.968248 -29.262291
-30.886604 -46.858223 -28.585934
-31.481319 -49.209309 -28.366974
-32.009239 -49.519167 -28.830835
-31.967025 -45.632284 -30.06103
-32.494946 -45.942143 -30.524891
-31.833951 -43.74231 -30.737386
-31.352635 -45.347105 -29.661892
-31.967025 -45.632284 -30.06103
-32.731543 -40.572338 -32.836067
-32.267336 -42.201626 -31.798359
-32.912548 -42.398201 -32.174233
-32.506813 -38.824529 -33.475138
-32.731543 -40.572338 -32.836067
-34.111433 -44.586668 -32.49032
-33.545832 -46.382383 -31.473422
-34.078192 -42.736019 -33.022106
-34.111433 -44.586668 -32.49032
-33.472617 -42.612621 -32.618214
-34.078192 -42.736019 -33.022106
-34.024647 -35.854662 -35.768266
-33.342709 -35.73901 -35.434444
-34.468132 -34.248255 -36.660042
-34.024647 -35.854662 -35.768266
-34.871785 -32.772043 -37.515179
-34.161774 -32.728512 -37.233944
-34.468132 -34.248255 -36.660042
-35.386225 -35.93449 -36.402172
-36.069116 -35.882469 -36.70669
-35.27574 -31.228894 -38.319885
-34.871785 -32.772043 -37.515179
-34.933808 -29.904257 -38.833927
-35.27574 -31.228894 -38.319885
-24.937224 -39.735841 -27.19669
-24.54021 -40.840283 -26.248632
-24.711419 -41.076479 -26.593611
-25.05292 -38.407072 -27.825415
-24.937224 -39.735841 -27.19669
-25.224128 -38.643268 -28.170393
-25.389696 -37.208731 -28.350973
-25.05292 -38.407072 -27.825415
-25.389696 -37.208731 -28.350973
-25.570441 -36.115433 -29.345672
-26.032722 -32.636538 -32.406115
-25.906684 -33.839142 -31.844973
-26.032722 -32.636538 -32.406115
-26.083276 -31.440329 -33.447654
-26.204453 -26.46293 -37.171825
-26.255094 -25.315171 -37.666092
-26.387304 -26.40545 -37.637183
-26.204453 -26.46293 -37.171825
-26.348047 -27.689135 -36.587267
-34.226616 -27.213909 -40.030345
-33.820208 -25.822592 -40.710243
-33.415598 -27.00974 -40.008015
-34.226616 -27.213909 -40.030345
-34.562098 -28.478637 -39.453445
3 138 37 139
3 140 39 141
3 142 141 37
3 140 141 142
3 0 143 144
3 0 145 147
3 145 40 146
3 145 146 147
3 1 43 41
3 1 45 43
3 2 148 149
3 2 150 151
3 2 152 154
3 152 46 153
3 152 153 154
3 155 49 156
3 4 52 50
3 4 54 52
3 5 157 159
3 157 56 158
3 157 158 159
3 5 58 56
3 5 60 58
3 6 63 61
3 6 65 63
3 160 66 161
3 163 162 66
3 3 68 67
3 7 71 69
3 7 73 71
3 7 75 73
3 164 78 165
3 166 165 76
3 164 165 166
3 167 80 168
3 169 168 78
3 167 168 169
3 170 82 171
3 172 83 173
3 174 173 82
3 172 173 174
3 10 84 36
3 10 85 84
3 10 87 85
3 12 88 38
3 12 89 88
3 13 92 90
3 15 93 42
3 15 94 93
3 15 96 94
3 17 97 44
3 17 98 97
3 18 175 177
3 175 99 176
3 175 176 177
3 18 100 99
3 178 101 179
3 180 179 81
3 178 179 180
3 19 102 47
3 19 103 102
3 19 104 103
3 20 105 48
3 20 106 105
3 21 181 182
3 21 183 185
3 183 184 185
3 8 186 188
3 186 107 187
3 186 187 188
3 22 108 51
3 22 189 191
3 191 190 108
3 189 190 191
3 22 192 194
3 192 109 193
3 192 193 194
3 23 110 53
3 23 111 110
3 9 195 196
3 24 112 55
3 24 113 112
3 24 114 113
3 25 115 57
3 25 116 115
3 25 117 116
3 26 118 59
3 26 119 118
3 11 120 86
3 27 121 62
3 27 197 199
3 199 198 121
3 197 198 199
3 27 200 202
3 200 122 201
3 200 201 202
3 28 203 205
3 205 204 64
3 203 204 205
3 28 206 207
3 208 123 209
3 210 124 211
3 212 211 123
3 210 211 212
3 29 213 215
3 213 125 214
3 213 214 215
3 29 126 125
3 29 216 218
3 218 217 126
3 216 217 218
3 30 219 221
3 219 127 220
3 219 220 221
3 30 222 224
3 224 223 127
3 222 223 224
3 31 225 226
3 31 227 228
3 31 229 230
3 14 128 91
3 231 129 232
3 233 232 70
3 231 232 233
3 235 234 129
3 33 236 238
3 238 237 72
3 236 237 238
3 33 239 240
3 33 241 243
3 241 130 242
3 241 242 243
3 34 131 74
3 34 132 131
3 16 133 95
3 35 134 77
3 35 135 134
3 35 136 135
3 32 137 79
3 32 244 246
3 246 245 137
3 244 245 246
3 247 36 248
3 37 249 251
3 249 36 250
3 249 250 251
3 37 10 36
3 37 38 10
3 39 38 37
3 39 12 38
3 40 252 253
3 40 254 255
3 41 42 13
3 43 42 41
3 43 15 42
3 43 44 15
3 45 44 43
3 45 17 44
3 46 256 257
3 46 258 260
3 258 18 259
3 258 259 260
3 261 47 262
3 263 47 264
3 265 19 266
3 267 266 47
3 265 266 267
3 268 48 269
3 270 269 19
3 268 269 270
3 271 48 272
3 273 20 274
3 275 274 48
3 273 274 275
3 49 276 277
3 49 278 280
3 278 21 279
3 278 279 280
3 50 51 8
3 52 51 50
3 52 22 51
3 52 53 22
3 54 53 52
3 54 23 53
3 281 55 282
3 283 282 9
3 281 282 283
3 56 284 286
3 284 55 285
3 284 285 286
3 56 24 55
3 56 57 24
3 58 57 56
3 58 25 57
3 58 59 25
3 60 59 58
3 60 26 59
3 61 62 11
3 63 62 61
3 63 27 62
3 63 64 27
3 65 64 63
3 65 28 64
3 66 287 288
3 66 289 291
3 289 29 290
3 289 290 291
3 66 292 294
3 294 293 29
3 292 293 294
3 296 295 66
3 297 30 298
3 299 31 300
3 302 301 31
3 67 303 304
3 68 305 307
3 307 306 67
3 305 306 307
3 68 308 309
3 69 70 14
3 71 70 69
3 71 310 312
3 312 311 70
3 310 311 312
3 71 313 315
3 313 72 314
3 313 314 315
3 73 72 71
3 73 33 72
3 73 74 33
3 75 74 73
3 75 34 74
3 76 77 16
3 78 77 76
3 78 35 77
3 78 79 35
3 80 79 78
3 80 32 79
3 316 2 317
3 318 81 319
3 320 319 2
3 318 319 320
3 321 81 322
3 324 323 81
3 325 8 326
3 82 327 328
3 82 329 331
3 329 8 330
3 329 330 331
3 82 50 8
3 83 50 82
3 83 4 50
3 332 9 333
3 36 334 335
3 84 336 338
3 338 337 36
3 336 337 338
3 84 339 341
3 339 9 340
3 339 340 341
3 84 342 344
3 344 343 9
3 342 343 344
3 85 345 347
3 347 346 84
3 345 346 347
3 85 348 350
3 348 5 349
3 348 349 350
3 85 86 5
3 87 86 85
3 87 11 86
3 38 87 10
3 88 87 38
3 88 11 87
3 88 61 11
3 89 61 88
3 89 6 61
3 90 91 3
3 92 91 90
3 92 14 91
3 42 92 13
3 93 92 42
3 93 14 92
3 93 69 14
3 94 69 93
3 94 7 69
3 94 95 7
3 96 95 94
3 96 16 95
3 44 96 15
3 97 96 44
3 97 16 96
3 97 76 16
3 98 76 97
3 98 351 353
3 353 352 76
3 351 352 353
3 354 0 355
3 99 356 357
3 99 358 359
3 99 360 362
3 360 67 361
3 360 361 362
3 100 67 99
3 100 3 67
3 81 46 2
3 101 46 81
3 101 18 46
3 47 363 365
3 363 101 364
3 363 364 365
3 102 101 47
3 102 18 101
3 102 100 18
3 103 100 102
3 103 3 100
3 103 90 3
3 104 90 103
3 104 13 90
3 48 104 19
3 105 104 48
3 105 13 104
3 105 41 13
3 106 41 105
3 106 1 41
3 366 49 367
3 107 368 370
3 368 49 369
3 368 369 370
3 107 21 49
3 51 107 8
3 108 107 51
3 108 21 107
3 108 371 373
3 373 372 21
3 371 372 373
3 375 374 108
3 109 376 377
3 109 378 379
3 53 109 22
3 110 109 53
3 110 380 382
3 382 381 109
3 380 381 382
3 110 383 385
3 383 384 385
3 111 386 388
3 388 387 110
3 386 387 388
3 111 389 391
3 389 0 390
3 389 390 391
3 392 83 393
3 394 83 395
3 396 4 397
3 398 397 83
3 396 397 398
3 55 399 401
3 401 400 9
3 399 400 401
3 112 402 404
3 404 403 55
3 402 403 404
3 112 405 406
3 112 407 408
3 113 409 411
3 411 410 112
3 409 410 411
3 113 412 414
3 412 4 413
3 412 413 414
3 113 54 4
3 114 54 113
3 114 23 54
3 57 114 24
3 115 114 57
3 115 23 114
3 115 111 23
3 116 111 115
3 116 0 111
3 116 40 0
3 117 40 116
3 117 415 417
3 417 416 40
3 415 416 417
3 59 117 25
3 118 117 59
3 118 418 420
3 420 419 117
3 418 419 420
3 118 421 422
3 119 423 425
3 425 424 118
3 423 424 425
3 119 426 427
3 86 60 5
3 120 60 86
3 120 26 60
3 62 120 11
3 121 120 62
3 121 26 120
3 121 119 26
3 428 119 429
3 430 429 121
3 428 429 430
3 432 431 119
3 122 433 434
3 122 435 436
3 64 122 27
3 437 122 438
3 439 438 64
3 437 438 439
3 441 440 122
3 442 20 443
3 123 444 446
3 444 445 446
3 123 447 449
3 447 20 448
3 447 448 449
3 123 106 20
3 124 106 123
3 124 1 106
3 125 450 451
3 125 452 453
3 125 454 456
3 454 124 455
3 454 455 456
3 126 124 125
3 126 1 124
3 126 45 1
3 457 45 458
3 459 458 126
3 457 458 459
3 460 17 461
3 462 461 45
3 460 461 462
3 464 463 29
3 127 465 466
3 127 467 469
3 467 17 468
3 467 468 469
3 127 98 17
3 470 98 471
3 472 471 127
3 470 471 472
3 474 473 98
3 475 30 476
3 477 30 478
3 480 479 30
3 481 80 482
3 483 80 484
3 485 32 486
3 487 486 80
3 485 486 487
3 489 488 31
3 490 32 491
3 493 492 32
3 91 68 3
3 128 68 91
3 128 494 496
3 496 495 68
3 494 495 496
3 70 128 14
3 129 128 70
3 129 497 499
3 499 498 128
3 497 498 499
3 129 500 501
3 503 502 129
3 72 504 505
3 507 506 72
3 508 39 509
3 130 510 512
3 510 39 511
3 510 511 512
3 130 12 39
3 74 130 33
3 131 130 74
3 131 12 130
3 131 89 12
3 132 89 131
3 132 6 89
3 95 75 7
3 133 75 95
3 133 34 75
3 77 133 16
3 134 133 77
3 134 34 133
3 134 132 34
3 135 132 134
3 135 6 132
3 135 65 6
3 136 65 135
3 136 28 65
3 79 136 35
3 137 136 79
3 137 28 136
3 137 513 515
3 515 514 28
3 513 514 515
3 517 516 137
