ply
format ascii 1.0
element vertex 660
property float x
property float y
property float z
element face 723
property list uchar int vertex_index
end_header
34.260532 -92.982216 35.617607
37.262806 -110.290932 -3.178179
43.424194 -97.9105 19.90414
31.754402 -117.302307 -12.993803
44.652813 -92.258408 32.793617
39.299358 -98.953766 28.362278
36.562416 -105.41407 15.936792
31.964926 -101.650589 23.236652
46.015797 -99.300568 -0.278154
49.567024 -92.42482 -7.603529
42.958527 -105.667023 -11.035622
41.213184 -103.326988 7.766876
31.626381 -112.572151 6.000611
37.319416 -92.902679 38.814594
39.833496 -95.471756 35.192932
36.857925 -96.724815 32.024693
35.942253 -100.499229 25.438274
33.465862 -97.13353 29.040127
42.272171 -104.900215 -1.895254
44.790222 -102.607834 -5.718697
40.300583 -108.464615 -7.32255
24.518368 -90.31485 38.706383
44.023514 -95.244881 26.387505
46.127903 -90.439171 27.620203
45.088451 -95.648613 15.338788
44.619171 -98.38826 9.376499
42.553886 -100.504829 13.651274
31.983717 -108.416977 14.748684
34.237617 -108.834908 10.756348
29.286705 -112.625969 10.511135
26.51955 -116.876701 6.427307
31.709152 -115.557007 -3.6723
34.760036 -114.05014 -8.344942
28.873625 -119.27858 -8.383997
42.640289 -92.756554 37.582794
42.120026 -96.233826 31.035772
41.512005 -99.252899 24.314169
40.467678 -102.025345 17.869013
38.285667 -102.192688 21.814672
34.304031 -104.369843 19.627928
29.72348 -106.458405 18.532627
48.318722 -93.410828 1.177897
50.008488 -90.02417 -2.681318
47.876305 -96.410896 -4.031988
46.800507 -99.202751 -9.266108
37.79237 -111.713867 -12.428173
28.055502 -88.756668 38.333809
30.862095 -92.892319 33.180683
29.584484 -97.851234 27.321144
27.492861 -103.321075 22.594767
47.150208 -87.551834 33.477703
46.580063 -96.073509 5.201783
43.72213 -101.464073 3.657351
39.414719 -106.599182 2.197042
38.812634 -104.848732 11.938157
36.664639 -108.012459 6.490664
34.262909 -111.640099 1.331241
52.118458 -85.714287 -6.394754
35.822235 -93.044106 37.192451
37.122623 -94.829872 35.442116
35.578552 -94.991867 33.797634
35.22464 -96.966492 30.438332
33.936932 -95.013985 32.271141
39.88496 -107.611404 -2.610809
41.349384 -106.69072 -4.629206
38.806976 -109.463684 -5.301939
22.273075 -94.665688 37.08469
43.738506 -96.604042 23.133514
44.540195 -95.56385 20.778116
45.265755 -94.351807 18.40136
44.279858 -96.847099 17.627197
43.976376 -98.142105 14.531085
43.040241 -99.198128 16.735254
29.532814 -109.889183 14.581644
30.660044 -110.506195 12.580379
28.147772 -112.166801 12.64682
26.740709 -114.430618 10.763525
25.577917 -113.773582 12.976181
28.933372 -118.079575 -3.543915
30.341183 -117.481789 -6.086349
27.509531 -119.944664 -5.822678
41.484413 -92.383766 39.725483
39.602417 -97.255478 31.778057
41.014179 -96.090431 33.186188
40.76384 -97.764153 29.782906
41.849583 -97.790039 27.664953
40.441002 -99.342072 26.391958
39.997017 -100.851067 23.076841
38.873936 -100.590263 25.021294
34.027908 -101.060127 24.185587
35.219418 -102.415504 22.415213
33.14278 -103.194298 21.412516
32.07505 -105.384811 18.905083
30.925457 -104.028442 20.747658
47.321697 -96.385818 0.495493
48.181889 -94.91996 -1.42135
46.996002 -97.976929 -2.177553
43.947701 -104.192947 -8.409933
45.848064 -101.068634 -7.528372
33.332348 -115.77903 -10.766094
36.302628 -113.016792 -10.468634
34.838306 -114.575241 -12.838972
25.86307 -91.972542 35.431343
26.285748 -89.331841 38.296299
27.68885 -91.164024 35.280602
29.489594 -90.754921 35.615143
29.030418 -93.178589 32.556572
30.322813 -95.287415 30.128166
26.186476 -106.12014 20.660402
45.043179 -90.590988 35.853149
45.896645 -89.953186 33.260342
43.092697 -100.900238 8.564299
44.237656 -99.877304 6.489752
42.470467 -102.419975 5.693609
41.72303 -104.053062 2.88314
40.364281 -104.901131 4.950818
38.619785 -103.79425 16.848749
39.715157 -103.410713 14.835273
37.677807 -105.299889 13.973609
32.948364 -110.663223 8.347715
35.41428 -108.538094 8.645756
34.170197 -110.307976 6.129504
35.483608 -109.771339 3.887574
32.894295 -112.179016 3.66562
31.601065 -114.12896 1.231054
30.294926 -114.54554 3.679238
49.85495 -91.253365 -5.132071
50.980904 -87.984596 -4.552181
50.809254 -89.028427 -6.931192
38.786785 -92.437729 40.344276
40.040798 -93.584801 38.519791
38.598095 -94.39032 37.059181
38.384075 -96.262306 33.654781
38.100552 -98.070808 30.230206
37.698009 -99.837135 26.873627
36.478882 -98.608025 28.662113
34.718151 -98.985527 27.209696
32.813896 -99.347351 26.009335
44.33371 -102.136719 -1.095409
45.483139 -100.961685 -3.002159
43.59621 -103.862976 -3.840708
42.714676 -105.575508 -6.562748
41.693027 -107.220985 -9.235308
33.205048 -115.894745 -14.967949
24.048321 -93.167145 36.052376
25.239117 -94.862816 32.804176
26.383965 -96.70163 29.836853
44.31831 -93.804115 29.622938
45.462666 -91.479271 30.233273
45.100189 -92.907562 27.118862
43.590107 -99.482498 11.508229
41.94606 -101.869553 10.662745
34.337227 -106.937439 15.214439
35.456924 -107.08876 13.271723
33.104393 -108.815193 12.793259
31.789951 -110.752724 10.504837
30.435787 -112.745361 8.293064
29.072285 -114.778053 6.107745
27.899025 -114.758087 8.476398
25.339699 -116.653267 8.865414
49.158516 -93.510147 -10.077465
50.525715 -90.011536 -9.3258
34.507507 -112.945404 -3.544306
36.062103 -112.194878 -5.799032
33.212399 -114.878456 -6.071968
31.819031 -116.729012 -8.506229
30.298878 -118.413315 -10.789173
44.053955 -90.892967 38.323868
43.705074 -92.703606 35.25885
41.241325 -94.300865 36.527477
42.370537 -94.561012 34.364464
43.40398 -94.379341 32.05127
43.128639 -95.930908 28.759403
42.843468 -97.377594 25.439426
42.505444 -98.745949 22.14296
42.073086 -100.068901 18.91329
41.062248 -100.652672 21.035913
39.395294 -102.323311 19.885946
37.513924 -103.790817 18.781422
37.133663 -101.584656 23.656759
36.382378 -103.336845 20.629721
35.442867 -105.115242 17.816792
33.213463 -106.369843 17.08098
30.857067 -107.621712 16.644438
28.401276 -108.912842 16.54809
35.997791 -91.101036 40.513359
34.477585 -91.020302 38.974819
49.126953 -90.419571 1.739603
50.017899 -88.759232 -0.251217
49.143524 -91.827736 -0.772554
49.003777 -93.217461 -3.296988
48.708778 -94.563713 -5.840544
46.500595 -99.550995 -4.855221
47.411102 -97.851067 -6.653364
48.2724 -95.83577 -8.394207
47.706116 -96.99894 -10.928122
37.618206 -111.288727 -7.935167
39.119995 -110.160599 -9.941141
40.524986 -108.742386 -11.809208
36.297852 -113.061523 -14.707962
39.194927 -110.083984 -14.213835
32.894733 -90.825302 37.558563
29.79248 -88.562065 38.813629
31.231588 -90.683243 36.400642
32.6096 -92.875465 34.235844
32.183441 -95.059914 31.006607
31.580267 -97.383263 27.965126
30.778048 -99.832954 25.179884
29.776005 -102.382248 22.68737
28.596104 -104.994881 20.48815
27.277836 -107.629967 18.546864
46.599201 -89.039909 30.596596
47.475952 -94.809448 3.169881
46.3797 -97.662285 2.453052
45.623264 -97.254219 7.271729
45.345268 -98.808144 4.45126
44.918316 -100.441223 1.666405
43.065605 -103.145302 0.866116
40.858181 -105.792564 0.118237
38.378696 -108.407516 -0.510221
41.515678 -101.384789 15.781417
40.819458 -102.734955 12.763008
39.988655 -104.159271 9.85811
36.596504 -106.872894 11.248533
37.78479 -106.374481 9.164728
39.041504 -105.69001 7.053786
38.002678 -107.345581 4.329333
36.894535 -109.125305 1.663024
35.729832 -111.00666 -0.96067
33.008347 -113.586334 -1.190639
30.287201 -116.115944 -1.178469
27.71451 -116.823578 3.917495
51.02726 -86.899345 -2.196898
51.925919 -86.565559 -8.704834
53.451996 -83.234428 -8.224236
27.576597 -111.764145 13.685351
28.840293 -111.027992 13.614232
28.269118 -110.625336 14.652763
26.29167 -112.567535 13.850031
26.862845 -112.970191 12.811501
27.576597 -111.764145 13.685351
26.865638 -120.19299 -4.491553
28.221452 -119.01212 -4.683296
27.577558 -119.260445 -3.352171
40.872042 -91.984165 40.695173
41.62459 -91.360393 41.210613
44.003647 -104.076565 -10.601278
44.498234 -103.339527 -9.288434
43.453114 -104.929985 -9.722777
43.530149 -104.71328 -11.876558
44.003647 -104.076565 -10.601278
27.416177 -92.496159 33.853657
26.77596 -91.568283 35.355973
26.503287 -92.900418 33.929028
28.086962 -93.503441 32.491642
28.359634 -92.171307 33.918587
27.416177 -92.496159 33.853657
28.704092 -94.497341 31.140469
28.086962 -93.503441 32.491642
23.699921 -94.698021 34.852499
23.160698 -93.916416 36.568533
22.812298 -95.447293 35.368656
24.295319 -95.545856 33.228399
24.643719 -94.014981 34.428276
23.699921 -94.698021 34.852499
24.809114 -96.393276 31.629589
24.295319 -95.545856 33.228399
45.514437 -94.34845 15.68198
45.603088 -93.700046 17.213266
45.177103 -95.00021 16.870074
45.477092 -95.016807 14.199016
45.514437 -94.34845 15.68198
44.989069 -96.317131 13.832575
45.477092 -95.016807 14.199016
24.745573 -116.386024 10.044791
26.040204 -115.541943 9.814469
25.446078 -115.2747 10.993847
24.044809 -117.509739 9.136001
24.745573 -116.386024 10.044791
49.648617 -92.208344 -10.893107
48.895973 -93.993633 -11.295986
43.347122 -91.82476 37.953331
43.50355 -90.853924 39.471524
42.796717 -91.785717 39.100987
35.311743 -90.101036 41.369976
36.067394 -90.119858 42.079105
34.55164 -90.060669 40.600706
35.237688 -91.060669 39.744089
35.311743 -90.101036 41.369976
35.459503 -113.604801 -15.702618
34.75145 -114.478134 -14.837955
33.913101 -115.021412 -15.832612
39.845697 -109.087071 -15.017284
38.439858 -110.639916 -15.289806
40.504419 -108.532429 -13.873224
39.845697 -109.087071 -15.017284
32.182507 -89.739258 38.622341
32.986593 -89.856395 39.210743
24.666233 -89.0304 40.135806
23.807165 -89.607582 40.447848
27.305587 -87.869763 39.830151
26.42071 -88.157349 39.811396
27.170625 -89.044254 38.315054
28.17176 -87.686741 39.913563
27.305587 -87.869763 39.830151
28.923991 -88.659367 38.573719
29.04025 -87.589439 40.153473
28.17176 -87.686741 39.913563
26.946779 -97.661739 28.505782
25.888846 -98.20525 28.689207
28.064848 -101.933597 23.700584
26.95937 -102.425998 23.761512
28.634433 -102.851662 22.641069
29.20642 -101.464184 23.746886
28.064848 -101.933597 23.700584
26.021354 -108.25977 18.745678
26.732156 -106.875054 19.603633
25.475674 -107.504856 19.802447
26.573298 -108.938175 17.672151
26.021354 -108.25977 18.745678
47.452414 -86.754551 34.859312
46.772949 -87.932389 34.821669
47.778618 -86.34214 33.485126
47.452414 -86.754551 34.859312
47.028008 -95.441479 4.185832
47.477843 -94.040123 4.514588
47.029898 -94.672154 5.530539
45.121218 -97.82124 8.324114
45.701954 -96.518287 8.705594
45.199907 -97.085308 9.757979
29.623558 -116.333332 0.094428
30.944133 -115.122452 0.026293
30.28049 -115.33984 1.299189
28.948808 -117.326893 -1.051848
29.623558 -116.333332 0.094428
52.162188 -85.270748 -5.250072
51.593411 -86.405902 -4.328786
51.549681 -86.849441 -5.473467
52.85051 -84.129845 -6.192861
52.162188 -85.270748 -5.250072
51.782764 -86.963852 -9.86184
51.225817 -88.288547 -9.015317
51.082662 -88.68684 -10.172322
54.213852 -81.904377 -9.141449
53.342308 -83.568027 -9.34663
54.104164 -82.237977 -10.263844
54.302597 -81.650982 -8.047942
54.213852 -81.904377 -9.141449
21.413454 -95.499886 37.758347
21.689354 -93.965858 38.879774
21.889235 -96.238701 35.988802
21.413454 -95.499886 37.758347
22.812298 -95.447293 35.368656
21.889235 -96.238701 35.988802
44.269735 -95.432209 23.543869
44.412239 -94.752629 25.170865
43.88101 -95.924462 24.76051
44.67058 -94.912113 22.36617
44.269735 -95.432209 23.543869
44.13935 -96.083946 21.955815
45.006767 -94.316352 21.134246
44.67058 -94.912113 22.36617
44.902975 -94.957829 19.589738
45.369547 -93.710331 19.945868
45.006767 -94.316352 21.134246
24.864682 -114.946182 12.100175
25.446078 -115.2747 10.993847
26.159313 -114.1021 11.869853
42.218778 -91.599323 40.172331
41.62459 -91.360393 41.210613
42.062351 -92.57016 38.654139
42.796717 -91.785717 39.100987
42.218778 -91.599323 40.172331
45.448415 -101.777371 -8.847653
44.897883 -102.630791 -7.969152
44.498234 -103.339527 -9.288434
45.924637 -100.844429 -9.716521
46.324286 -100.135693 -8.39724
45.448415 -101.777371 -8.847653
46.425669 -99.814678 -10.547173
45.924637 -100.844429 -9.716521
29.35029 -95.551754 29.926265
29.676616 -94.233002 31.342369
28.704092 -94.497341 31.140469
28.981125 -96.833664 28.522754
29.953648 -96.569324 28.724655
29.35029 -95.551754 29.926265
26.321746 -103.896007 22.781985
26.95937 -102.425998 23.761512
25.668554 -105.29554 21.814802
26.839669 -104.720607 21.627585
26.321746 -103.896007 22.781985
24.956843 -106.746506 20.953978
25.668554 -105.29554 21.814802
25.475674 -107.504856 19.802447
24.956843 -106.746506 20.953978
45.719435 -89.451966 36.009391
45.267226 -89.69231 37.304354
46.146168 -89.133065 34.712988
45.719435 -89.451966 36.009391
45.469912 -90.272087 34.556746
46.523426 -88.75251 33.369022
46.772949 -87.932389 34.821669
46.146168 -89.133065 34.712988
46.90772 -88.567375 26.444887
46.640612 -89.1792 27.761454
46.395012 -89.827347 26.303635
46.612322 -95.311386 6.591689
47.029898 -94.672154 5.530539
29.62742 -115.54813 2.523281
30.28049 -115.33984 1.299189
30.947995 -114.33725 2.455146
25.838881 -117.911484 5.385393
25.241143 -117.839459 6.669382
39.413792 -93.011265 39.432034
40.150234 -92.584682 40.092327
39.523228 -92.011146 41.00457
31.60754 -117.220696 -14.95901
32.479725 -116.598526 -13.980876
30.882217 -117.924476 -13.971937
32.299437 -116.405327 -15.871955
31.60754 -117.220696 -14.95901
33.913101 -115.021412 -15.832612
32.299437 -116.405327 -15.871955
23.651529 -90.988026 39.115649
23.807165 -89.607582 40.447848
22.528883 -93.163444 38.304802
21.689354 -93.965858 38.879774
23.416506 -92.414173 37.788645
22.528883 -93.163444 38.304802
23.160698 -93.916416 36.568533
24.283344 -91.740998 37.379379
23.651529 -90.988026 39.115649
23.416506 -92.414173 37.788645
26.191311 -94.345554 32.615444
26.503287 -92.900418 33.929028
25.551094 -93.417679 34.117759
25.811541 -95.782223 31.320515
26.763735 -95.264961 31.131782
26.191311 -94.345554 32.615444
25.381538 -97.312683 30.145927
25.811541 -95.782223 31.320515
24.809114 -96.393276 31.629589
25.888846 -98.20525 28.689207
25.381538 -97.312683 30.145927
44.950576 -93.583969 25.536543
44.561852 -94.076222 26.753183
44.412239 -94.752629 25.170865
45.426609 -92.340503 25.846685
44.950576 -93.583969 25.536543
45.940466 -91.106308 26.097356
45.614046 -91.673367 27.369532
45.426609 -92.340503 25.846685
46.395012 -89.827347 26.303635
45.940466 -91.106308 26.097356
45.666958 -93.053368 18.710601
45.369547 -93.710331 19.945868
45.666958 -93.053368 18.710601
45.603088 -93.700046 17.213266
44.754429 -97.686954 10.85143
45.199907 -97.085308 9.757979
44.433031 -97.563877 13.428724
44.989069 -96.317131 13.832575
44.532414 -96.895359 14.934936
44.239897 -98.234073 11.917295
44.433031 -97.563877 13.428724
43.783242 -98.812302 13.019657
44.104639 -98.935379 10.442364
44.754429 -97.686954 10.85143
44.239897 -98.234073 11.917295
24.651218 -117.727742 7.888435
25.241143 -117.839459 6.669382
25.929624 -116.764984 7.646361
24.651218 -117.727742 7.888435
24.044809 -117.509739 9.136001
50.332217 -90.459038 -10.517274
49.842115 -91.760841 -9.701632
49.648617 -92.208344 -10.893107
51.082662 -88.68684 -10.172322
50.332217 -90.459038 -10.517274
26.135026 -121.064556 -5.549721
26.865638 -120.19299 -4.491553
26.746365 -120.786053 -6.888236
26.135026 -121.064556 -5.549721
27.428413 -120.453011 -8.168895
28.191578 -119.611622 -7.103338
26.746365 -120.786053 -6.888236
28.075958 -120.069748 -9.442086
27.428413 -120.453011 -8.168895
28.788585 -119.637115 -10.644673
29.586251 -118.845947 -9.586585
28.075958 -120.069748 -9.442086
29.46414 -119.130882 -11.819004
28.788585 -119.637115 -10.644673
30.191902 -118.575378 -12.921319
31.02664 -117.857811 -11.891488
29.46414 -119.130882 -11.819004
30.882217 -117.924476 -13.971937
30.191902 -118.575378 -12.921319
44.255203 -89.919747 39.755451
43.50355 -90.853924 39.471524
44.772614 -89.8433 38.539713
44.255203 -89.919747 39.755451
44.548567 -90.741977 37.088509
45.267226 -89.69231 37.304354
44.772614 -89.8433 38.539713
40.762606 -92.984284 39.122637
40.872042 -91.984165 40.695173
40.150234 -92.584682 40.092327
27.70335 -110.137165 15.635986
28.269118 -110.625336 14.652763
28.967045 -109.401013 15.564867
38.882981 -91.415672 41.875211
39.523228 -92.011146 41.00457
38.136648 -91.681015 41.188709
38.882981 -91.415672 41.875211
37.402963 -91.91349 40.423868
38.0531 -92.670204 39.579435
38.136648 -91.681015 41.188709
36.742151 -91.012668 41.273251
36.067394 -90.119858 42.079105
36.658603 -92.001857 39.663977
37.402963 -91.91349 40.423868
36.742151 -91.012668 41.273251
49.572426 -89.589402 0.744193
49.955349 -88.117157 0.959861
49.509876 -88.947327 1.955271
48.169773 -95.73803 -11.721315
48.895973 -93.993633 -11.295986
48.432316 -95.254544 -10.502793
46.878473 -98.712772 -11.37818
47.253312 -98.100846 -10.097115
46.425669 -99.814678 -10.547173
47.357121 -97.508664 -12.159176
46.878473 -98.712772 -11.37818
48.169773 -95.73803 -11.721315
47.357121 -97.508664 -12.159176
36.99132 -112.128685 -15.53687
35.459503 -113.604801 -15.702618
37.746389 -111.572754 -14.460898
36.99132 -112.128685 -15.53687
38.439858 -110.639916 -15.289806
41.169449 -107.861629 -12.670911
39.859956 -109.413185 -13.011522
40.504419 -108.532429 -13.873224
42.386219 -106.323948 -12.284118
41.741756 -107.204704 -11.422415
41.169449 -107.861629 -12.670911
43.530149 -104.71328 -11.876558
42.386219 -106.323948 -12.284118
33.778019 -89.953896 39.918871
34.55164 -90.060669 40.600706
33.686159 -90.922802 38.266691
33.778019 -89.953896 39.918871
32.986593 -89.856395 39.210743
25.549923 -88.538895 39.930763
24.666233 -89.0304 40.135806
25.402058 -89.823346 38.501341
25.549923 -88.538895 39.930763
26.42071 -88.157349 39.811396
29.886764 -87.573784 40.429203
29.04025 -87.589439 40.153473
30.631381 -88.60764 39.249874
29.886764 -87.573784 40.429203
31.350935 -89.668228 38.04338
30.631381 -88.60764 39.249874
30.512034 -89.622654 37.607135
32.063161 -90.754272 36.979602
32.182507 -89.739258 38.622341
31.350935 -89.668228 38.04338
27.380865 -96.258861 29.780609
26.763735 -95.264961 31.131782
27.380865 -96.258861 29.780609
26.946779 -97.661739 28.505782
28.547038 -98.236542 27.247927
28.981125 -96.833664 28.522754
29.11066 -99.198677 26.063773
28.547038 -98.236542 27.247927
29.707442 -100.189537 24.993143
30.181266 -98.842094 26.250514
29.11066 -99.198677 26.063773
30.277026 -101.107601 23.933627
29.707442 -100.189537 24.993143
29.20642 -101.464184 23.746886
27.135018 -109.579613 16.672764
27.839556 -108.271404 17.547477
26.573298 -108.938175 17.672151
27.70335 -110.137165 15.635986
27.135018 -109.579613 16.672764
24.996367 -113.289787 14.065089
26.29167 -112.567535 13.850031
24.265971 -114.524391 13.251282
24.996367 -113.289787 14.065089
24.864682 -114.946182 12.100175
24.265971 -114.524391 13.251282
46.876261 -88.479568 29.249651
46.363552 -89.73954 29.1084
46.640612 -89.1792 27.761454
47.173448 -87.803539 30.669745
46.876261 -88.479568 29.249651
47.448952 -87.059502 32.110298
46.874704 -88.295872 32.037149
47.173448 -87.803539 30.669745
47.778618 -86.34214 33.485126
47.448952 -87.059502 32.110298
49.052988 -89.716465 2.997422
49.509876 -88.947327 1.955271
48.712021 -91.16454 2.75843
49.052988 -89.716465 2.997422
48.307906 -92.660168 2.477577
48.722837 -91.915199 1.45875
48.712021 -91.16454 2.75843
47.886521 -93.359478 3.473569
47.477843 -94.040123 4.514588
47.897337 -94.110138 2.173889
48.307906 -92.660168 2.477577
47.886521 -93.359478 3.473569
46.133922 -95.901741 7.626662
45.701954 -96.518287 8.705594
46.101664 -96.663864 6.236756
46.612322 -95.311386 6.591689
46.133922 -95.901741 7.626662
28.271894 -118.308708 -2.234571
29.610287 -117.097759 -2.361192
28.948808 -117.326893 -1.051848
27.577558 -119.260445 -3.352171
28.271894 -118.308708 -2.234571
28.337212 -116.687149 2.64241
29.62742 -115.54813 2.523281
29.004718 -115.684559 3.798367
26.43636 -117.884922 4.130487
27.11703 -116.850139 5.172401
25.838881 -117.911484 5.385393
27.0383 -117.832131 2.818484
26.43636 -117.884922 4.130487
28.337212 -116.687149 2.64241
27.0383 -117.832131 2.818484
50.481501 -87.271569 -0.054703
49.955349 -88.117157 0.959861
50.986182 -86.341625 -1.027543
50.481501 -87.271569 -0.054703
50.522579 -87.829288 -1.224058
51.602227 -85.405345 -2.016939
50.986182 -86.341625 -1.027543
51.616588 -85.863277 -3.151145
51.004082 -87.44197 -3.37454
51.593411 -86.405902 -4.328786
51.602227 -85.405345 -2.016939
51.616588 -85.863277 -3.151145
52.579269 -85.233593 -9.58693
51.782764 -86.963852 -9.86184
52.436115 -85.631886 -10.743935
52.688958 -84.899993 -8.464535
52.579269 -85.233593 -9.58693
53.342308 -83.568027 -9.34663
53.517279 -82.889916 -7.107602
52.85051 -84.129845 -6.192861
52.785227 -84.474357 -7.309495
53.517279 -82.889916 -7.107602
54.302597 -81.650982 -8.047942
3 0 60 58
3 0 62 60
3 1 65 63
3 2 68 67
3 2 70 68
3 2 72 70
3 235 75 236
3 237 236 73
3 235 236 237
3 238 77 239
3 240 239 75
3 238 239 240
3 241 80 242
3 243 242 78
3 241 242 243
3 244 81 245
3 5 84 82
3 5 86 84
3 5 88 86
3 7 91 89
3 7 93 91
3 8 96 94
3 10 246 248
3 248 247 97
3 246 247 248
3 10 249 250
3 3 101 99
3 251 104 252
3 253 252 102
3 251 252 253
3 254 106 255
3 256 255 104
3 254 255 256
3 258 257 106
3 4 110 109
3 11 113 111
3 11 115 113
3 6 118 116
3 12 121 119
3 12 123 121
3 12 125 123
3 9 128 126
3 13 131 129
3 15 132 59
3 15 133 132
3 15 135 133
3 17 136 61
3 17 137 136
3 18 140 138
3 20 141 64
3 20 142 141
3 259 144 260
3 261 260 66
3 259 260 261
3 262 145 263
3 264 263 144
3 262 263 264
3 266 265 145
3 22 149 147
3 24 267 269
3 269 268 69
3 267 268 269
3 24 270 271
3 24 272 273
3 26 150 71
3 26 151 150
3 27 154 152
3 29 155 74
3 29 156 155
3 29 158 156
3 274 159 275
3 276 275 76
3 274 275 276
3 278 277 159
3 280 279 160
3 31 164 162
3 33 165 79
3 33 166 165
3 34 281 283
3 281 167 282
3 281 282 283
3 34 168 167
3 14 169 130
3 35 170 83
3 35 171 170
3 35 172 171
3 36 173 85
3 36 174 173
3 36 176 174
3 38 177 87
3 38 178 177
3 16 179 134
3 39 180 90
3 39 181 180
3 39 182 181
3 40 183 92
3 40 184 183
3 284 185 285
3 286 186 287
3 288 287 185
3 286 287 288
3 41 189 187
3 43 190 95
3 43 191 190
3 19 192 139
3 44 193 98
3 44 194 193
3 44 195 194
3 32 196 163
3 45 197 100
3 45 198 197
3 289 199 290
3 291 290 143
3 289 290 291
3 292 200 293
3 295 294 200
3 296 201 297
3 21 298 299
3 46 300 302
3 302 301 103
3 300 301 302
3 46 303 304
3 46 305 307
3 305 202 306
3 305 306 307
3 47 203 105
3 47 204 203
3 47 205 204
3 48 206 107
3 48 207 206
3 309 308 146
3 49 310 311
3 49 312 314
3 312 208 313
3 312 313 314
3 49 209 208
3 315 210 316
3 317 316 108
3 315 316 317
3 319 318 210
3 50 320 321
3 50 322 323
3 23 211 148
3 51 324 326
3 324 212 325
3 324 325 326
3 51 213 212
3 25 327 329
3 327 214 328
3 327 328 329
3 52 215 112
3 52 216 215
3 52 217 216
3 53 218 114
3 53 219 218
3 37 220 175
3 54 221 117
3 54 222 221
3 28 223 153
3 55 224 120
3 55 225 224
3 55 226 225
3 56 227 122
3 56 228 227
3 56 229 228
3 330 230 331
3 332 331 124
3 330 331 332
3 334 333 230
3 30 231 157
3 42 232 188
3 57 335 337
3 337 336 127
3 335 336 337
3 57 338 339
3 340 233 341
3 342 341 161
3 340 341 342
3 343 234 344
3 343 344 345
3 347 346 234
3 58 59 13
3 60 59 58
3 60 15 59
3 60 61 15
3 62 61 60
3 62 17 61
3 63 64 18
3 65 64 63
3 65 20 64
3 348 66 349
3 350 66 351
3 353 352 66
3 67 354 356
3 356 355 22
3 354 355 356
3 68 357 359
3 359 358 67
3 357 358 359
3 68 360 361
3 68 362 364
3 362 69 363
3 362 363 364
3 70 69 68
3 70 24 69
3 70 71 24
3 72 71 70
3 72 26 71
3 73 74 27
3 75 74 73
3 75 29 74
3 75 76 29
3 77 76 75
3 77 365 367
3 367 366 76
3 365 366 367
3 78 79 31
3 80 79 78
3 80 33 79
3 81 368 369
3 81 370 372
3 370 34 371
3 370 371 372
3 82 83 14
3 84 83 82
3 84 35 83
3 84 85 35
3 86 85 84
3 86 36 85
3 86 87 36
3 88 87 86
3 88 38 87
3 89 90 16
3 91 90 89
3 91 39 90
3 91 92 39
3 93 92 91
3 93 40 92
3 94 95 41
3 96 95 94
3 96 43 95
3 97 98 19
3 373 98 374
3 375 374 97
3 373 374 375
3 376 44 377
3 378 377 98
3 376 377 378
3 380 379 44
3 99 100 32
3 101 100 99
3 101 45 100
3 102 103 21
3 104 103 102
3 104 46 103
3 104 105 46
3 106 105 104
3 106 47 105
3 106 107 47
3 381 107 382
3 383 382 106
3 381 382 383
3 384 48 385
3 386 385 107
3 384 385 386
3 387 49 388
3 389 108 390
3 391 390 49
3 389 390 391
3 392 108 393
3 395 394 108
3 109 396 397
3 110 398 400
3 400 399 109
3 398 399 400
3 110 401 403
3 401 50 402
3 401 402 403
3 406 405 23
3 404 405 406
3 407 51 408
3 111 112 25
3 113 112 111
3 113 52 112
3 113 114 52
3 115 114 113
3 115 53 114
3 116 117 37
3 118 117 116
3 118 54 117
3 119 120 28
3 121 120 119
3 121 55 120
3 121 122 55
3 123 122 121
3 123 56 122
3 123 124 56
3 125 124 123
3 125 409 411
3 411 410 124
3 409 410 411
3 413 412 30
3 126 127 42
3 128 127 126
3 128 57 127
3 129 414 416
3 414 130 415
3 414 415 416
3 131 130 129
3 131 14 130
3 59 131 13
3 132 131 59
3 132 14 131
3 132 82 14
3 133 82 132
3 133 5 82
3 133 134 5
3 135 134 133
3 135 16 134
3 61 135 15
3 136 135 61
3 136 16 135
3 136 89 16
3 137 89 136
3 137 7 89
3 138 139 8
3 140 139 138
3 140 19 139
3 64 140 18
3 141 140 64
3 141 19 140
3 141 97 19
3 142 97 141
3 142 10 97
3 417 143 418
3 419 418 3
3 417 418 419
3 420 143 421
3 423 422 143
3 424 21 425
3 66 426 427
3 144 428 430
3 430 429 66
3 428 429 430
3 144 431 433
3 431 21 432
3 431 432 433
3 144 102 21
3 145 102 144
3 145 434 436
3 436 435 102
3 434 435 436
3 145 437 439
3 437 146 438
3 437 438 439
3 440 146 441
3 442 441 145
3 440 441 442
3 444 443 146
3 147 148 4
3 149 148 147
3 149 23 148
3 445 149 446
3 447 446 22
3 445 446 447
3 448 149 449
3 450 23 451
3 452 451 149
3 450 451 452
3 454 453 23
3 69 455 456
3 458 457 69
3 459 25 460
3 71 461 463
3 463 462 24
3 461 462 463
3 150 464 466
3 466 465 71
3 464 465 466
3 150 467 469
3 467 25 468
3 467 468 469
3 150 111 25
3 151 111 150
3 151 11 111
3 152 153 6
3 154 153 152
3 154 28 153
3 74 154 27
3 155 154 74
3 155 28 154
3 155 119 28
3 156 119 155
3 156 12 119
3 156 157 12
3 158 157 156
3 158 30 157
3 76 158 29
3 159 158 76
3 159 30 158
3 159 470 472
3 472 471 30
3 470 471 472
3 474 473 159
3 160 161 9
3 475 161 476
3 477 476 160
3 475 476 477
3 479 478 161
3 162 163 1
3 164 163 162
3 164 32 163
3 79 164 31
3 165 164 79
3 165 32 164
3 165 99 32
3 166 99 165
3 166 3 99
3 480 80 481
3 482 80 483
3 484 33 485
3 486 485 80
3 484 485 486
3 487 33 488
3 489 166 490
3 491 490 33
3 489 490 491
3 492 166 493
3 494 3 495
3 496 495 166
3 494 495 496
3 498 497 3
3 167 499 500
3 167 501 502
3 167 503 505
3 503 109 504
3 503 504 505
3 168 109 167
3 168 4 109
3 130 506 508
3 506 81 507
3 506 507 508
3 169 81 130
3 169 34 81
3 83 169 14
3 170 169 83
3 170 34 169
3 170 168 34
3 171 168 170
3 171 4 168
3 171 147 4
3 172 147 171
3 172 22 147
3 85 172 35
3 173 172 85
3 173 22 172
3 173 67 22
3 174 67 173
3 174 2 67
3 174 175 2
3 176 175 174
3 176 37 175
3 87 176 36
3 177 176 87
3 177 37 176
3 177 116 37
3 178 116 177
3 178 6 116
3 134 88 5
3 179 88 134
3 179 38 88
3 90 179 16
3 180 179 90
3 180 38 179
3 180 178 38
3 181 178 180
3 181 6 178
3 181 152 6
3 182 152 181
3 182 27 152
3 92 182 39
3 183 182 92
3 183 27 182
3 183 73 27
3 184 73 183
3 184 509 511
3 511 510 73
3 509 510 511
3 512 129 513
3 514 129 515
3 516 13 517
3 518 517 129
3 516 517 518
3 185 519 520
3 185 521 523
3 521 13 522
3 521 522 523
3 185 58 13
3 186 58 185
3 186 0 58
3 187 524 526
3 524 188 525
3 524 525 526
3 189 188 187
3 189 42 188
3 95 189 41
3 190 189 95
3 190 42 189
3 190 126 42
3 191 126 190
3 191 9 126
3 139 96 8
3 192 96 139
3 192 43 96
3 98 192 19
3 193 192 98
3 193 43 192
3 193 191 43
3 194 191 193
3 194 9 191
3 194 160 9
3 195 160 194
3 195 527 529
3 529 528 160
3 527 528 529
3 530 195 531
3 532 531 44
3 530 531 532
3 533 195 534
3 536 535 195
3 163 65 1
3 196 65 163
3 196 20 65
3 100 196 32
3 197 196 100
3 197 20 196
3 197 142 20
3 198 142 197
3 198 10 142
3 143 101 3
3 199 101 143
3 199 45 101
3 537 199 538
3 200 539 541
3 539 199 540
3 539 540 541
3 200 45 199
3 200 198 45
3 542 198 543
3 544 543 200
3 542 543 544
3 545 10 546
3 547 546 198
3 545 546 547
3 549 548 10
3 550 186 551
3 201 552 554
3 552 186 553
3 552 553 554
3 201 0 186
3 103 555 557
3 557 556 21
3 555 556 557
3 559 558 103
3 202 560 561
3 202 562 563
3 105 202 46
3 203 202 105
3 203 564 566
3 566 565 202
3 564 565 566
3 203 567 569
3 567 201 568
3 567 568 569
3 204 201 203
3 204 0 201
3 204 62 0
3 205 62 204
3 205 17 62
3 107 205 47
3 206 205 107
3 206 17 205
3 206 137 17
3 207 137 206
3 207 7 137
3 146 570 571
3 573 572 146
3 574 48 575
3 576 48 577
3 578 207 579
3 580 579 48
3 578 579 580
3 208 581 583
3 581 207 582
3 581 582 583
3 208 7 207
3 208 93 7
3 209 93 208
3 209 40 93
3 108 209 49
3 210 209 108
3 210 40 209
3 210 184 40
3 584 184 585
3 586 585 210
3 584 585 586
3 588 587 184
3 589 77 590
3 591 77 592
3 594 593 77
3 148 110 4
3 211 110 148
3 211 50 110
3 595 211 596
3 597 596 23
3 595 596 597
3 598 211 599
3 600 50 601
3 602 601 211
3 600 601 602
3 604 603 50
3 605 187 606
3 607 187 608
3 609 41 610
3 611 610 187
3 609 610 611
3 212 612 613
3 212 614 616
3 614 41 615
3 614 615 616
3 212 94 41
3 213 94 212
3 213 8 94
3 214 617 618
3 214 619 621
3 619 51 620
3 619 620 621
3 112 214 25
3 215 214 112
3 215 51 214
3 215 213 51
3 216 213 215
3 216 8 213
3 216 138 8
3 217 138 216
3 217 18 138
3 114 217 52
3 218 217 114
3 218 18 217
3 218 63 18
3 219 63 218
3 219 1 63
3 175 72 2
3 220 72 175
3 220 26 72
3 117 220 37
3 221 220 117
3 221 26 220
3 221 151 26
3 222 151 221
3 222 11 151
3 153 118 6
3 223 118 153
3 223 54 118
3 120 223 28
3 224 223 120
3 224 54 223
3 224 222 54
3 225 222 224
3 225 11 222
3 225 115 11
3 226 115 225
3 226 53 115
3 122 226 55
3 227 226 122
3 227 53 226
3 227 219 53
3 228 219 227
3 228 1 219
3 228 162 1
3 229 162 228
3 229 31 162
3 124 229 56
3 230 229 124
3 230 31 229
3 230 78 31
3 622 78 623
3 624 623 230
3 622 623 624
3 626 625 78
3 157 125 12
3 231 125 157
3 231 627 629
3 629 628 125
3 627 628 629
3 630 231 631
3 632 631 30
3 630 631 632
3 633 231 634
3 636 635 231
3 188 637 638
3 232 639 641
3 641 640 188
3 639 640 641
3 232 642 643
3 127 232 42
3 644 232 645
3 646 645 127
3 644 645 646
3 648 647 232
3 161 128 9
3 233 128 161
3 233 57 128
3 649 233 650
3 649 650 651
3 234 652 654
3 652 233 653
3 652 653 654
3 234 57 233
3 234 655 657
3 657 656 57
3 655 656 657
3 659 658 234
