ply
format ascii 1.0
element vertex 118
property float x
property float y
property float z
element face 82
property list uchar int vertex_index
end_header
-4.670412 39.688534 -14.200459
-3.007002 24.313438 -24.119432
-1.179867 22.074032 -26.988348
1.463388 20.089172 -28.380007
-4.333261 38.545464 -16.874804
-3.766729 31.001934 -22.0208
-3.252947 29.825275 -24.085249
-1.87068 27.569611 -27.344027
0.032307 21.047626 -27.86989
-4.225809 32.216736 -19.74299
-2.637571 28.682667 -25.879496
-2.183035 23.163105 -25.728605
-5.097353 37.849054 -13.096474
-4.835837 40.247473 -12.805078
-4.88443 37.215006 -14.453796
-5.097353 37.849054 -13.096474
-4.501836 39.116999 -15.537631
-4.715855 36.643471 -15.790969
-4.88443 37.215006 -14.453796
-3.279743 32.504323 -24.058808
-3.509838 30.413604 -23.053024
-3.536634 33.092653 -23.026583
-4.113735 34.811806 -19.582487
-4.445123 32.842239 -18.519374
-3.947193 34.251478 -20.781744
-4.113735 34.811806 -19.582487
-3.216234 22.122494 -23.285017
-3.350748 24.919965 -23.165211
-2.769532 21.521103 -24.156292
-3.216234 22.122494 -23.285017
-2.473673 30.839852 -26.773531
-2.754395 31.386429 -25.941161
-2.590496 33.543613 -26.835196
-1.322326 19.846773 -26.298345
-1.82391 20.391309 -25.668474
-1.681451 22.618569 -26.358477
-0.686381 19.338282 -26.824312
-1.322326 19.846773 -26.298345
1.380537 17.883747 -27.860948
0.664996 18.362974 -27.60589
0.747847 20.568399 -28.124949
2.231984 17.469476 -28.032457
1.380537 17.883747 -27.860948
2.282031 19.648077 -28.474087
2.231984 17.469476 -28.032457
-4.49885 36.006603 -17.085282
-4.715855 36.643471 -15.790969
-4.167461 37.97617 -18.148394
-4.49885 36.006603 -17.085282
-3.730612 28.264213 -22.115895
-4.029146 28.902672 -21.039907
-3.47372 27.675884 -23.148119
-3.730612 28.264213 -22.115895
-3.509838 30.413604 -23.053024
-3.129974 27.069357 -24.102341
-3.350748 24.919965 -23.165211
-3.47372 27.675884 -23.148119
-1.721462 29.733944 -28.155575
-2.090227 30.283324 -27.505797
-1.390528 27.027523 -27.88825
-1.721462 29.733944 -28.155575
-1.045122 24.279733 -27.710411
-1.525273 24.821821 -27.166187
-1.390528 27.027523 -27.88825
-0.439034 23.766531 -28.151182
-0.57378 21.560829 -27.429119
-1.045122 24.279733 -27.710411
0.149909 23.241383 -28.499239
-0.439034 23.766531 -28.151182
0.865449 22.762155 -28.754297
0.747847 20.568399 -28.124949
0.149909 23.241383 -28.499239
1.563515 22.259096 -28.919281
0.865449 22.762155 -28.754297
-4.367724 42.015138 -13.910675
-4.835837 40.247473 -12.805078
-4.254926 41.51687 -15.291087
-4.367724 42.015138 -13.910675
-4.531748 30.17847 -18.727619
-4.445123 32.842239 -18.519374
-4.258686 29.510073 -19.901002
-4.531748 30.17847 -18.727619
-3.996269 31.609335 -20.881895
-4.029146 28.902672 -21.039907
-4.258686 29.510073 -19.901002
-3.717653 33.644077 -21.920649
-3.996269 31.609335 -20.881895
-3.947193 34.251478 -20.781744
-3.536634 33.092653 -23.026583
-3.717653 33.644077 -21.920649
-4.086351 40.945335 -16.62826
-4.501836 39.116999 -15.537631
-4.254926 41.51687 -15.291087
-3.977712 40.441512 -17.950928
-4.086351 40.945335 -16.62826
-4.167461 37.97617 -18.148394
-3.977712 40.441512 -17.950928
-3.062082 31.957733 -25.044037
-3.279743 32.504323 -24.058808
-3.088879 34.636781 -25.017595
-2.945259 29.253971 -24.982373
-3.062082 31.957733 -25.044037
-2.754395 31.386429 -25.941161
-2.254125 28.126139 -26.611762
-2.473673 30.839852 -26.773531
-2.090227 30.283324 -27.505797
-2.357548 20.945936 -24.960878
-2.769532 21.521103 -24.156292
-2.595019 23.738272 -24.924019
-2.357548 20.945936 -24.960878
-1.82391 20.391309 -25.668474
-0.080294 18.825079 -27.265083
-0.686381 19.338282 -26.824312
-0.57378 21.560829 -27.429119
-0.080294 18.825079 -27.265083
0.664996 18.362974 -27.60589
2.282031 19.648077 -28.474087
1.563515 22.259096 -28.919281
3 0 12 13
3 0 14 15
3 0 16 18
3 16 4 17
3 16 17 18
3 19 6 20
3 21 20 5
3 19 20 21
3 22 9 23
3 25 24 9
3 1 26 27
3 1 28 29
3 30 10 31
3 30 31 32
3 2 11 7
3 2 33 35
3 35 34 11
3 33 34 35
3 2 36 37
3 3 38 40
3 40 39 8
3 38 39 40
3 3 41 42
3 3 43 44
3 4 45 46
3 4 47 48
3 5 49 50
3 6 51 53
3 53 52 5
3 51 52 53
3 6 54 56
3 54 1 55
3 54 55 56
3 57 7 58
3 59 7 60
3 61 2 62
3 63 62 7
3 61 62 63
3 64 8 65
3 66 65 2
3 64 65 66
3 67 8 68
3 69 3 70
3 71 70 8
3 69 70 71
3 73 72 3
3 74 0 75
3 77 76 0
3 9 78 79
3 9 80 81
3 9 82 84
3 82 5 83
3 82 83 84
3 85 5 86
3 87 86 9
3 85 86 87
3 89 88 5
3 90 4 91
3 92 91 0
3 90 91 92
3 93 4 94
3 96 95 4
3 97 6 98
3 97 98 99
3 10 100 102
3 100 6 101
3 100 101 102
3 10 1 6
3 7 103 105
3 103 10 104
3 103 104 105
3 11 10 7
3 11 1 10
3 11 106 108
3 108 107 1
3 106 107 108
3 110 109 11
3 8 111 113
3 113 112 2
3 111 112 113
3 115 114 8
3 117 116 3
