ply
format ascii 1.0
element vertex 436
property float x
property float y
property float z
element face 459
property list uchar int vertex_index
end_header
-30.503439 11.655523 -49.549889
-46.019119 16.391922 -40.99157
-59.159092 6.019045 -37.769821
-58.03035 7.181208 -27.989849
-37.521198 17.4846 -48.532227
-44.140678 17.083576 -50.972939
-39.727226 14.520805 -37.094891
-33.429058 14.160198 -40.264404
-52.978157 14.701408 -40.266769
-33.534603 15.274944 -49.9216
-35.846458 16.589481 -53.094086
-32.037037 13.327522 -53.827911
-36.747116 15.240807 -33.540661
-36.557899 15.115383 -39.38665
-33.987442 15.471695 -35.168205
-60.84034 3.309713 -31.78643
-62.414696 -2.306402 -30.351856
-49.285709 13.223244 -35.802162
-52.793762 13.101376 -35.176197
-49.482395 16.460903 -40.992039
-58.732956 8.051405 -32.990795
-41.911884 17.890045 -45.422741
-45.207684 18.2929 -46.279846
-40.440544 18.335308 -50.48185
-45.769943 12.586235 -35.425026
-42.404228 12.402458 -33.671101
-42.765945 15.304737 -39.756935
-39.0886 16.349297 -43.09481
-35.323471 15.576321 -44.973034
-32.090881 13.202682 -45.214054
-30.789661 11.956657 -39.791725
-29.789589 9.699902 -44.047489
-28.657169 7.135633 -47.76437
-56.024059 11.427406 -34.122818
-56.262276 11.066013 -39.175217
-48.903713 16.664906 -46.041458
-52.764381 12.992882 -45.070972
-31.876966 13.609802 -49.941818
-32.697552 14.529678 -52.030556
-31.11689 12.623856 -51.884659
-30.543743 11.257376 -53.499153
-29.83573 10.464384 -51.326286
-35.383228 15.515911 -34.505859
-60.095428 4.759466 -34.799259
-61.144386 1.947392 -34.033058
-47.78167 14.991478 -38.455917
-49.529137 15.148281 -38.391132
-47.732361 16.621666 -41.115387
-59.639042 6.225399 -29.878307
-58.480156 8.006933 -30.446926
-39.709087 17.927326 -47.174072
-41.195663 18.456867 -48.04726
-38.877983 18.127308 -49.707985
-35.258732 15.243511 -54.932091
-39.588615 13.90432 -33.9688
-41.156769 13.63665 -35.498051
-42.748566 13.757076 -36.760624
-41.227226 14.78854 -38.590359
-40.978844 16.053616 -41.583233
-39.556725 15.41082 -40.148159
-34.955509 14.819092 -40.007561
-36.054214 15.359661 -42.235275
-34.37476 14.711159 -42.702171
-33.608131 14.563698 -45.293018
-32.833405 13.700035 -42.784405
-30.33474 10.830856 -41.946381
-29.410162 9.101324 -41.142296
-28.175949 5.610525 -49.223091
-52.990067 14.312347 -37.705864
-54.46138 12.482849 -34.672409
-54.637177 13.208069 -37.214088
-56.187256 11.648243 -36.675358
-54.660225 13.095806 -39.756882
-44.648117 18.09391 -48.733246
-47.018677 17.753281 -46.270485
-46.574516 17.07476 -48.6437
-35.436634 16.585873 -49.454445
-36.635994 17.336582 -50.944756
-34.553051 16.120426 -51.722588
-33.814766 15.123245 -53.700638
-33.311497 13.609463 -55.340675
-38.241257 14.641228 -35.364799
-38.17186 15.018719 -38.406345
-36.79002 15.022301 -36.473179
-35.296661 15.040539 -37.259869
-33.821106 14.711033 -37.709808
-61.687832 0.581476 -31.107479
-62.077484 -1.019938 -33.166878
-52.296692 11.198381 -32.733383
-51.056412 13.321175 -35.57732
-51.275955 14.94836 -38.117126
-51.241882 15.82996 -40.690434
-46.217255 15.608425 -50.778305
-59.859676 5.820797 -32.406635
-58.922409 7.358265 -35.481331
-44.041523 17.371319 -43.338417
-45.703365 17.689014 -43.681526
-43.49955 18.309086 -46.016354
-42.846081 18.544708 -48.551102
-42.203362 18.000195 -50.888687
-38.079144 17.67432 -52.011848
-39.769547 17.477493 -52.674393
-41.683792 16.694698 -52.967827
-47.514938 12.928257 -35.773155
-46.059807 14.601009 -38.238472
-44.065624 12.359606 -34.721825
-44.380451 14.13274 -37.681503
-44.361259 15.898724 -40.554218
-42.467812 16.769348 -42.649746
-40.446568 17.177078 -44.45377
-38.378506 17.107292 -45.901733
-37.806709 15.600975 -41.377224
-37.175751 16.184547 -44.236748
-36.350872 16.569042 -46.943733
-34.44783 15.594311 -47.551914
-32.741241 14.233917 -47.725391
-31.283539 12.551037 -47.491062
-32.606567 15.128685 -35.522781
-32.413795 14.068424 -37.830956
-31.110264 13.161442 -37.653721
-32.029503 13.186573 -40.178089
-31.477814 12.384949 -42.514771
-30.812086 11.558914 -44.778851
-30.104364 10.613611 -46.89922
-29.020571 7.688334 -43.085972
-29.211161 8.487459 -46.01429
-29.431011 9.477383 -48.801697
-28.858702 8.109322 -50.415977
-28.434656 6.499628 -51.682663
-56.581802 8.084572 -28.646366
-54.025505 10.97381 -32.2243
-55.654434 10.390615 -31.639843
-57.148098 9.403891 -31.036713
-57.453259 9.938442 -33.559509
-57.619312 9.677475 -36.100399
-57.76545 8.682198 -38.517895
-47.442825 17.589317 -43.73634
-49.237385 16.98975 -43.567024
-51.056351 15.865482 -43.228638
-48.591644 15.515179 -48.325459
-50.830315 15.056618 -45.633801
-52.868031 14.242691 -42.759674
-54.642242 12.181087 -42.178974
-59.799525 4.582597 -37.341555
-60.267692 3.952807 -35.856274
-59.62726 5.389255 -36.28454
-59.332506 5.080225 -38.751023
-59.799525 4.582597 -37.341555
-58.664482 6.537027 -27.679039
-58.363113 5.990704 -26.498441
-58.255253 7.59407 -29.218387
-58.889386 6.94989 -28.907578
-58.664482 6.537027 -27.679039
-36.139122 15.023876 -55.33152
-35.100735 14.304802 -55.671989
-29.118024 9.034461 -39.745854
-29.566612 9.81642 -40.152279
-31.830389 12.509552 -54.546547
-32.467619 12.650523 -55.302929
-32.674267 13.468492 -54.584293
-30.376545 10.396216 -54.118015
-29.944192 10.111463 -53.13073
-37.386615 14.943335 -32.918495
-36.604046 15.565746 -32.088686
-37.494186 14.941018 -34.45273
-38.133686 14.643546 -33.830564
-37.386615 14.943335 -32.918495
-61.264086 1.945594 -31.446955
-61.572706 1.143206 -29.931217
-61.148961 2.507324 -30.270692
-61.843229 -0.448828 -34.551237
-61.610935 0.463727 -33.599968
-61.37668 1.034837 -34.984327
-62.371941 -2.013361 -34.000543
-61.843229 -0.448828 -34.551237
-50.17106 13.272209 -35.689741
-50.782135 12.23468 -34.335057
-49.896783 12.185715 -34.447478
-39.527625 16.701475 -53.622501
-38.59988 17.012325 -53.355194
-40.484747 16.310077 -53.769219
-40.726669 17.086095 -52.82111
-39.527625 16.701475 -53.622501
-41.529021 15.709653 -53.85141
-40.484747 16.310077 -53.769219
-46.64244 12.757246 -35.599091
-47.20837 11.827277 -34.412174
-46.335873 11.656266 -34.23811
-42.083859 11.947938 -32.08713
-41.590473 12.621137 -33.001228
-42.917097 11.636636 -32.671017
-42.083859 11.947938 -32.08713
-43.234926 12.381032 -34.196463
-43.747795 11.615209 -33.196379
-42.917097 11.636636 -32.671017
-31.941139 14.826258 -35.554152
-31.950212 15.616362 -34.571478
-31.844753 14.296127 -36.708239
-32.510181 14.598555 -36.676868
-31.941139 14.826258 -35.554152
-30.949962 12.55905 -38.722723
-30.519728 12.603457 -37.439546
-30.359426 12.001065 -38.508549
-28.753032 6.632967 -42.520308
-28.856415 7.470377 -41.624842
-28.934165 7.811546 -46.88933
-28.901971 7.359371 -45.458701
-28.624975 6.683458 -46.333741
-28.117813 5.200761 -51.007424
-28.305302 6.055077 -50.452877
-27.988459 4.756209 -49.777637
-28.30901 5.581575 -52.12098
-28.117813 5.200761 -51.007424
-62.561152 -3.003988 -28.93033
-62.280519 -1.611395 -29.254637
-55.779171 8.35221 -28.97525
-56.122192 7.087985 -27.545583
-48.49168 14.577343 -49.331046
-47.404449 15.561802 -49.551882
-47.304485 14.623966 -50.557468
-51.797348 14.02475 -45.352386
-50.74602 14.269083 -46.720123
-51.713053 13.237215 -46.438709
-29.590186 9.714968 -52.044296
-29.944192 10.111463 -53.13073
-30.189737 10.86088 -52.41272
-35.991981 15.796772 -32.665088
-36.604046 15.565746 -32.088686
-35.310037 15.934324 -33.147688
-36.065172 15.378359 -34.02326
-35.991981 15.796772 -32.665088
-34.662489 16.025316 -33.592517
-35.310037 15.934324 -33.147688
-33.964596 16.003208 -33.92369
-34.685335 15.493803 -34.837032
-34.662489 16.025316 -33.592517
-60.792171 2.546771 -35.473173
-60.619907 3.353429 -34.416158
-60.267692 3.952807 -35.856274
-61.37668 1.034837 -34.984327
-60.792171 2.546771 -35.473173
-59.468829 6.059123 -28.623268
-60.008667 5.230106 -28.334865
-59.059599 7.116166 -30.162616
-59.468829 6.059123 -28.623268
-58.889386 6.94989 -28.907578
-36.344473 15.895334 -54.484043
-36.638336 16.568319 -53.56504
-35.552595 15.916496 -54.013088
-36.344473 15.895334 -54.484043
-36.139122 15.023876 -55.33152
-45.455988 11.620102 -33.98017
-46.335873 11.656266 -34.23811
-40.182666 13.372069 -33.150078
-39.378536 13.827677 -32.389395
-40.966743 13.238233 -33.914704
-40.182666 13.372069 -33.150078
-40.372692 13.770485 -34.733425
-41.780499 13.019554 -34.584576
-41.590473 12.621137 -33.001228
-40.966743 13.238233 -33.914704
-30.256361 11.244086 -39.476993
-30.359426 12.001065 -38.508549
-30.0289 10.681186 -40.554322
-30.5622 11.393757 -40.869053
-30.256361 11.244086 -39.476993
-29.872451 9.96609 -41.544339
-30.0289 10.681186 -40.554322
-29.566612 9.81642 -40.152279
-28.411051 5.909163 -47.134545
-28.624975 6.683458 -46.333741
-28.17044 5.146609 -47.863905
-28.416559 6.373079 -48.49373
-28.411051 5.909163 -47.134545
-27.97241 4.311823 -48.518812
-28.17044 5.146609 -47.863905
-27.988459 4.756209 -49.777637
-27.97241 4.311823 -48.518812
-62.720923 -3.806071 -29.930998
-62.65692 -3.200983 -31.273306
-52.754871 12.026866 -46.085171
-51.713053 13.237215 -46.438709
-53.718492 11.774804 -44.715463
-52.754871 12.026866 -46.085171
-57.646953 6.396192 -26.854019
-58.363113 5.990704 -26.498441
-34.127117 13.487778 -55.876281
-35.100735 14.304802 -55.671989
-34.285115 14.426487 -55.136383
-33.202454 12.628855 -55.969093
-34.127117 13.487778 -55.876281
-33.202454 12.628855 -55.969093
-32.467619 12.650523 -55.302929
-31.083742 11.474479 -54.382168
-31.830389 12.509552 -54.546547
-31.29039 12.292449 -53.663532
-31.083742 11.474479 -54.382168
-30.376545 10.396216 -54.118015
-38.807365 14.275092 -33.132565
-39.378536 13.827677 -32.389395
-38.914936 14.272774 -34.666799
-38.807365 14.275092 -33.132565
-38.133686 14.643546 -33.830564
-61.917088 -0.167456 -29.632448
-61.572706 1.143206 -29.931217
-62.051264 -0.862463 -30.729668
-62.280519 -1.611395 -29.254637
-61.917088 -0.167456 -29.632448
-62.488314 -2.557751 -32.680817
-62.65692 -3.200983 -31.273306
-62.24609 -1.66317 -31.759367
-62.488314 -2.557751 -32.680817
-62.371941 -2.013361 -34.000543
-51.402275 11.173284 -32.913088
-51.869772 10.013986 -31.555841
-51.676552 12.259778 -34.155352
-51.402275 11.173284 -32.913088
-50.782135 12.23468 -34.335057
-45.001024 15.474068 -51.856304
-45.178967 16.346001 -50.875622
-43.962736 16.211643 -51.953621
-46.122435 14.540102 -51.693375
-45.001024 15.474068 -51.856304
-47.304485 14.623966 -50.557468
-46.122435 14.540102 -51.693375
-60.733841 3.707668 -30.55372
-61.148961 2.507324 -30.270692
-60.133192 5.165511 -29.599659
-60.008667 5.230106 -28.334865
-60.243509 4.96321 -30.863823
-60.133192 5.165511 -29.599659
-59.749359 6.023098 -31.142471
-60.350008 4.565255 -32.096533
-60.733841 3.707668 -30.55372
-60.243509 4.96321 -30.863823
-37.754679 17.110739 -53.023922
-36.962801 17.131901 -52.552967
-36.638336 16.568319 -53.56504
-38.924346 17.575907 -52.34312
-37.754679 17.110739 -53.023922
-38.59988 17.012325 -53.355194
-42.734293 16.017204 -52.951065
-43.962736 16.211643 -51.953621
-42.912235 16.889137 -51.970383
-42.734293 16.017204 -52.951065
-41.529021 15.709653 -53.85141
-48.992018 12.082901 -34.512211
-49.896783 12.185715 -34.447478
-48.106632 11.935408 -34.497708
-47.20837 11.827277 -34.412174
-48.400323 13.07575 -35.787659
-48.992018 12.082901 -34.512211
-48.106632 11.935408 -34.497708
-44.603828 11.506787 -33.628569
-43.747795 11.615209 -33.196379
-44.917783 12.472921 -35.073425
-45.455988 11.620102 -33.98017
-44.603828 11.506787 -33.628569
-33.302098 15.957693 -34.228653
-33.964596 16.003208 -33.92369
-32.61166 15.786188 -34.405941
-31.950212 15.616362 -34.571478
-33.297004 15.30019 -35.345493
-33.302098 15.957693 -34.228653
-32.61166 15.786188 -34.405941
-30.563043 13.432861 -36.522211
-30.519728 12.603457 -37.439546
-31.192988 13.842636 -36.619621
-30.563043 13.432861 -36.522211
-31.76203 13.614933 -37.742339
-31.844753 14.296127 -36.708239
-31.192988 13.842636 -36.619621
-29.05121 8.176872 -40.653004
-29.118024 9.034461 -39.745854
-29.215367 8.394829 -42.114134
-29.05121 8.176872 -40.653004
-28.856415 7.470377 -41.624842
-28.806676 6.959809 -43.994541
-28.753032 6.632967 -42.520308
-29.115866 8.087896 -44.550131
-28.806676 6.959809 -43.994541
-28.901971 7.359371 -45.458701
-29.101672 8.537437 -51.589141
-29.590186 9.714968 -52.044296
-29.347216 9.286853 -50.871132
-28.889648 7.732589 -52.222485
-29.101672 8.537437 -51.589141
-28.646679 7.304475 -51.04932
-28.750315 6.840018 -52.746952
-28.889648 7.732589 -52.222485
-28.750315 6.840018 -52.746952
-28.30901 5.581575 -52.12098
-62.561152 -3.003988 -28.93033
-62.720923 -3.806071 -29.930998
-56.92268 6.847874 -27.182277
-56.122192 7.087985 -27.545583
-57.306076 7.63289 -28.318107
-57.646953 6.396192 -26.854019
-56.92268 6.847874 -27.182277
-52.773083 10.018718 -31.319826
-51.869772 10.013986 -31.555841
-53.63749 9.906433 -31.065285
-52.773083 10.018718 -31.319826
-53.161099 11.086095 -32.478842
-54.501023 9.796829 -30.764217
-53.63749 9.906433 -31.065285
-55.315487 9.505232 -30.471989
-54.501023 9.796829 -30.764217
-54.83997 10.682213 -31.932071
-56.118118 9.237593 -30.143104
-55.779171 8.35221 -28.97525
-55.315487 9.505232 -30.471989
-49.626684 14.498363 -48.065953
-48.49168 14.577343 -49.331046
-49.71098 15.285899 -46.97963
-49.626684 14.498363 -48.065953
-50.74602 14.269083 -46.720123
-54.657423 11.368906 -43.269464
-53.703311 12.586984 -43.624973
-53.718492 11.774804 -44.715463
-55.497387 10.969472 -41.833399
-54.657423 11.368906 -43.269464
-56.307403 10.411935 -40.33152
-55.452259 11.62355 -40.677096
-55.497387 10.969472 -41.833399
-57.058991 9.220027 -40.002859
-57.013863 9.874105 -38.846556
-56.307403 10.411935 -40.33152
-57.871914 7.867855 -39.597183
-57.058991 9.220027 -40.002859
-58.568735 6.536279 -39.223146
-58.462271 7.350621 -38.143858
-57.871914 7.867855 -39.597183
-58.742149 5.597459 -40.204348
-59.332506 5.080225 -38.751023
-58.568735 6.536279 -39.223146
3 0 39 37
3 0 41 39
3 2 143 145
3 145 144 43
3 143 144 145
3 2 146 147
3 1 47 45
3 3 148 149
3 3 150 152
3 150 49 151
3 150 151 152
3 4 52 50
3 154 153 53
3 6 55 54
3 6 57 55
3 6 59 57
3 7 62 60
3 7 64 62
3 155 66 156
3 8 70 68
3 8 72 70
3 5 75 73
3 9 78 76
3 11 79 38
3 11 80 79
3 11 157 159
3 159 158 80
3 157 158 159
3 161 160 40
3 12 162 163
3 12 164 166
3 164 81 165
3 164 165 166
3 12 83 81
3 14 84 42
3 14 85 84
3 15 167 169
3 167 86 168
3 167 168 169
3 170 87 171
3 172 171 44
3 170 171 172
3 174 173 87
3 17 175 177
3 175 89 176
3 175 176 177
3 19 90 46
3 19 91 90
3 20 93 48
3 20 94 93
3 21 97 95
3 23 98 51
3 23 99 98
3 10 100 77
3 178 101 179
3 180 102 181
3 182 181 101
3 180 181 182
3 184 183 102
3 24 185 187
3 185 103 186
3 185 186 187
3 24 104 103
3 25 188 189
3 25 190 191
3 25 192 194
3 192 105 193
3 192 193 194
3 26 106 56
3 26 107 106
3 26 108 107
3 27 109 58
3 27 110 109
3 13 111 82
3 28 112 61
3 28 113 112
3 28 114 113
3 29 115 63
3 29 116 115
3 195 117 196
3 197 118 198
3 199 198 117
3 197 198 199
3 30 200 202
3 200 119 201
3 200 201 202
3 30 120 119
3 30 121 120
3 31 122 65
3 31 123 122
3 203 124 204
3 32 205 207
3 205 125 206
3 205 206 207
3 32 126 125
3 32 127 126
3 208 128 209
3 210 209 67
3 208 209 210
3 212 211 128
3 16 213 214
3 215 129 216
3 18 130 88
3 33 131 69
3 33 132 131
3 33 133 132
3 34 134 71
3 34 135 134
3 22 136 96
3 35 137 74
3 35 138 137
3 217 139 218
3 219 218 92
3 217 218 219
3 36 220 222
3 220 140 221
3 220 221 222
3 36 141 140
3 36 142 141
3 37 38 9
3 39 38 37
3 39 11 38
3 39 40 11
3 41 40 39
3 41 223 225
3 225 224 40
3 223 224 225
3 226 12 227
3 228 42 229
3 230 229 12
3 228 229 230
3 231 42 232
3 233 14 234
3 235 234 42
3 233 234 235
3 43 44 15
3 236 44 237
3 238 237 43
3 236 237 238
3 240 239 44
3 45 46 17
3 47 46 45
3 47 19 46
3 241 48 242
3 49 243 245
3 243 48 244
3 243 244 245
3 49 20 48
3 50 51 21
3 52 51 50
3 52 23 51
3 53 246 248
3 248 247 10
3 246 247 248
3 250 249 53
3 251 24 252
3 54 253 254
3 55 255 257
3 257 256 54
3 255 256 257
3 55 258 260
3 258 25 259
3 258 259 260
3 55 56 25
3 57 56 55
3 57 26 56
3 57 58 26
3 59 58 57
3 59 27 58
3 60 61 13
3 62 61 60
3 62 28 61
3 62 63 28
3 64 63 62
3 64 29 63
3 261 30 262
3 263 65 264
3 265 264 30
3 263 264 265
3 66 266 268
3 266 65 267
3 266 267 268
3 66 31 65
3 269 32 270
3 271 67 272
3 273 272 32
3 271 272 273
3 274 67 275
3 277 276 67
3 279 278 16
3 68 69 18
3 70 69 68
3 70 33 69
3 70 71 33
3 72 71 70
3 72 34 71
3 73 74 22
3 75 74 73
3 75 35 74
3 280 36 281
3 283 282 36
3 284 3 285
3 76 77 4
3 78 77 76
3 78 10 77
3 38 78 9
3 79 78 38
3 79 10 78
3 79 53 10
3 80 53 79
3 80 286 288
3 288 287 53
3 286 287 288
3 80 289 290
3 292 291 80
3 40 293 295
3 295 294 11
3 293 294 295
3 297 296 40
3 298 54 299
3 81 300 302
3 300 54 301
3 300 301 302
3 81 6 54
3 81 82 6
3 83 82 81
3 83 13 82
3 42 83 12
3 84 83 42
3 84 13 83
3 84 60 13
3 85 60 84
3 85 7 60
3 86 303 304
3 86 305 307
3 305 16 306
3 305 306 307
3 44 86 15
3 87 86 44
3 87 16 86
3 87 308 310
3 310 309 16
3 308 309 310
3 312 311 87
3 313 88 314
3 89 315 317
3 315 88 316
3 315 316 317
3 89 18 88
3 46 89 17
3 90 89 46
3 90 18 89
3 90 68 18
3 91 68 90
3 91 8 68
3 318 92 319
3 320 319 5
3 318 319 320
3 321 92 322
3 324 323 92
3 325 15 326
3 48 327 328
3 93 329 331
3 331 330 48
3 329 330 331
3 93 332 334
3 332 15 333
3 332 333 334
3 93 43 15
3 94 43 93
3 94 2 43
3 95 96 1
3 97 96 95
3 97 22 96
3 51 97 21
3 98 97 51
3 98 22 97
3 98 73 22
3 99 73 98
3 99 5 73
3 77 52 4
3 100 52 77
3 100 23 52
3 335 100 336
3 337 336 10
3 335 336 337
3 101 338 340
3 338 100 339
3 338 339 340
3 101 23 100
3 101 99 23
3 102 99 101
3 102 5 99
3 102 341 343
3 343 342 5
3 341 342 343
3 345 344 102
3 346 17 347
3 103 348 349
3 103 350 352
3 350 17 351
3 350 351 352
3 103 45 17
3 104 45 103
3 104 1 45
3 105 353 354
3 105 355 357
3 355 24 356
3 355 356 357
3 56 105 25
3 106 105 56
3 106 24 105
3 106 104 24
3 107 104 106
3 107 1 104
3 107 95 1
3 108 95 107
3 108 21 95
3 58 108 26
3 109 108 58
3 109 21 108
3 109 50 21
3 110 50 109
3 110 4 50
3 82 59 6
3 111 59 82
3 111 27 59
3 61 111 13
3 112 111 61
3 112 27 111
3 112 110 27
3 113 110 112
3 113 4 110
3 113 76 4
3 114 76 113
3 114 9 76
3 63 114 28
3 115 114 63
3 115 9 114
3 115 37 9
3 116 37 115
3 116 0 37
3 358 14 359
3 117 360 361
3 117 362 364
3 362 14 363
3 362 363 364
3 117 85 14
3 118 85 117
3 118 7 85
3 119 365 366
3 119 367 368
3 119 369 371
3 369 118 370
3 369 370 371
3 120 118 119
3 120 7 118
3 120 64 7
3 121 64 120
3 121 29 64
3 65 121 30
3 122 121 65
3 122 29 121
3 122 116 29
3 123 116 122
3 123 0 116
3 372 66 373
3 124 374 376
3 374 66 375
3 374 375 376
3 124 31 66
3 377 124 378
3 125 379 381
3 379 124 380
3 379 380 381
3 125 31 124
3 125 123 31
3 126 123 125
3 126 0 123
3 126 41 0
3 127 41 126
3 127 382 384
3 384 383 41
3 382 383 384
3 67 127 32
3 128 127 67
3 128 385 387
3 387 386 127
3 385 386 387
3 128 388 389
3 391 390 128
3 393 392 16
3 129 394 395
3 129 396 398
3 396 3 397
3 396 397 398
3 88 399 400
3 130 401 403
3 403 402 88
3 401 402 403
3 130 404 405
3 69 130 18
3 131 130 69
3 131 406 408
3 408 407 130
3 406 407 408
3 131 409 411
3 409 129 410
3 409 410 411
3 132 129 131
3 132 3 129
3 132 49 3
3 133 49 132
3 133 20 49
3 71 133 33
3 134 133 71
3 134 20 133
3 134 94 20
3 135 94 134
3 135 2 94
3 96 47 1
3 136 47 96
3 136 19 47
3 74 136 22
3 137 136 74
3 137 19 136
3 137 91 19
3 138 91 137
3 138 8 91
3 92 75 5
3 139 75 92
3 139 35 75
3 412 139 413
3 140 414 416
3 414 139 415
3 414 415 416
3 140 35 139
3 140 138 35
3 141 138 140
3 141 8 138
3 141 72 8
3 142 72 141
3 142 34 72
3 417 142 418
3 419 418 36
3 417 418 419
3 420 142 421
3 422 34 423
3 424 423 142
3 422 423 424
3 425 135 426
3 427 426 34
3 425 426 427
3 428 135 429
3 430 2 431
3 432 431 135
3 430 431 432
3 435 434 2
3 433 434 435
