ply
format ascii 1.0
element vertex 760
property float x
property float y
property float z
element face 827
property list uchar int vertex_index
end_header
34.72068 -76.917175 54.325111
27.797848 -66.170944 70.752403
21.999413 -79.984756 56.846832
25.28447 -51.364849 76.116203
20.472874 -69.900009 75.033455
23.890114 -73.690582 65.587814
16.263102 -77.91658 68.73114
10.165056 -96.805519 51.804581
15.413905 -94.26059 50.21991
32.650673 -55.325191 62.293198
30.159941 -57.704418 71.2435
24.3332 -60.660202 77.230484
15.875747 -63.764957 80.334564
28.723059 -78.225357 55.254967
14.860081 -85.293579 59.619392
16.046864 -71.915878 76.11129
18.118122 -74.079468 72.32991
13.824551 -76.328262 73.273376
10.213884 -99.300095 47.527596
12.382277 -100.22718 47.699196
31.633566 -52.431484 65.5868
31.706411 -56.403355 67.002663
30.149702 -53.497471 70.039055
21.921888 -52.394897 78.952087
24.994198 -55.923443 76.853355
21.354721 -57.250072 79.19976
20.272354 -62.244965 79.001137
17.299648 -58.585712 81.148994
30.21489 -64.533173 67.389336
28.577517 -68.52755 65.900208
22.656092 -76.910553 61.637169
26.028225 -75.65303 60.165718
25.479105 -78.718681 55.841446
28.582748 -81.394676 50.51635
25.210606 -81.796783 50.504738
28.109283 -50.392769 72.757088
24.495461 -67.948227 73.299484
25.721542 -70.113159 68.667404
22.17765 -71.945511 70.803185
20.238491 -75.563591 67.352608
18.984585 -78.90831 63.108101
9.307777 -93.672493 56.07502
12.084143 -92.243988 55.966751
12.649738 -96.386902 51.708763
6.882465 -93.431633 54.882858
8.033134 -95.461853 50.44236
32.482662 -59.088509 63.358231
31.363764 -60.449474 67.75621
29.445997 -61.977966 71.623039
27.966805 -54.668076 73.830894
27.703959 -59.13266 74.695061
26.54356 -63.623619 74.624985
22.757626 -65.383179 76.68959
18.392311 -67.188568 78.015724
13.848791 -68.850754 78.875221
11.546202 -65.021545 81.401718
31.785057 -73.83989 57.035683
27.057814 -72.270531 63.477654
29.041399 -74.799522 58.672462
31.751146 -77.839119 54.858788
31.761869 -81.510361 51.211769
15.174329 -81.556099 64.410378
18.40839 -82.290245 58.218048
15.110473 -89.483322 54.750351
18.334007 -86.199425 52.996864
21.734661 -83.400078 51.399315
13.801189 -72.866295 76.447113
14.885235 -74.163788 74.806717
34.810543 -79.109238 53.403572
30.962727 -52.948273 67.882385
30.147018 -51.449802 69.367432
20.085932 -52.932503 80.239365
21.659504 -54.792278 79.102348
19.756538 -55.401318 80.259369
19.360138 -57.923397 80.204834
17.781443 -56.010742 81.361839
29.118774 -65.339386 69.163696
29.418915 -66.551941 66.772881
28.195768 -67.352432 68.397484
22.265553 -78.441734 59.342369
24.019512 -77.724899 58.710739
23.76322 -79.22493 56.287666
25.323605 -80.222504 53.285561
23.590733 -80.766464 53.649429
22.556807 -68.904907 74.259911
23.323984 -69.99427 72.184006
21.353567 -70.989975 73.077042
17.104164 -76.035416 70.632332
19.155704 -74.877441 69.972412
18.27758 -76.692337 68.096687
19.521156 -77.256035 65.32206
17.585556 -78.447075 66.031647
9.797464 -95.297775 53.920029
11.072569 -95.025665 54.03344
11.365765 -96.825073 51.949356
13.646273 -99.977425 47.137619
7.529099 -94.698624 47.03157
6.71456 -92.952507 45.722855
4.47142 -90.423904 58.480247
6.228678 -92.159668 57.137794
5.119492 -91.65934 56.150566
6.496201 -93.566727 51.60788
7.084715 -94.229172 49.341896
8.384699 -96.193939 48.185173
32.993221 -56.731064 60.596878
32.612476 -57.199928 62.927483
31.035063 -57.03437 69.205132
31.6294 -58.417435 67.501953
30.891319 -59.11108 69.626442
30.523512 -61.198318 69.782059
29.927296 -59.840675 71.575035
26.771292 -50.872948 74.511375
27.984617 -52.497692 73.269493
26.640673 -53.045197 74.962227
24.761328 -58.281223 77.129189
26.439772 -57.572689 75.840424
26.123039 -59.885288 76.074654
27.255238 -61.386597 74.808746
25.561092 -62.199749 76.065483
24.745426 -64.490723 75.76722
23.663218 -63.035908 77.095718
18.091137 -63.0242 79.703804
19.422709 -64.734421 78.618942
17.178127 -65.55777 79.196602
16.116373 -68.053375 78.492683
14.92065 -66.328079 79.693382
10.574183 -67.585297 80.439156
32.674736 -53.445652 61.535263
33.072109 -54.929302 59.897873
24.742823 -71.950562 67.240349
26.334272 -71.165375 66.080986
25.539715 -72.937996 64.576408
27.312916 -76.848801 57.614258
27.577469 -75.207489 59.429115
28.847038 -76.557587 57.120293
30.320116 -76.258713 56.625999
30.256142 -78.064575 55.054558
31.759596 -79.713593 53.240303
30.221252 -79.785614 53.119507
13.113491 -84.8675 62.565155
14.927731 -83.389458 62.052315
16.769228 -81.92395 61.422356
16.620983 -83.747711 58.94413
13.835661 -93.221848 53.233643
13.571228 -90.989014 55.467651
15.300529 -91.808144 52.423523
18.379498 -88.491257 50.419464
19.998898 -86.861282 49.42939
20.01564 -84.68158 52.138245
18.287117 -70.91394 75.643707
19.26239 -72.035583 73.803596
17.091507 -73.10611 74.377449
15.980522 -75.210815 72.875999
10.324335 -98.153961 49.689651
11.44342 -98.501717 49.896957
11.234041 -99.994675 47.828323
4.127775 -90.799156 54.957336
32.197861 -53.890915 63.963837
32.22263 -55.826206 64.68116
31.6703 -54.408386 66.332825
31.021803 -54.978058 68.591774
30.199106 -55.585835 70.699471
23.661942 -51.871765 77.588066
25.126675 -53.610268 76.48568
23.458733 -54.19334 77.856354
23.24431 -56.580135 78.096252
22.906736 -59.007378 78.230469
22.368896 -61.450836 78.191788
20.911922 -59.742401 79.182991
18.818666 -60.472244 80.031509
16.672691 -61.177856 80.813972
31.103306 -63.745743 65.467911
23.193165 -75.33812 63.719521
24.888702 -74.614471 62.851097
24.386644 -76.2024 60.898712
25.704609 -77.212875 58.137283
27.133503 -78.412323 55.504753
28.643219 -79.82357 53.051682
27.011286 -79.935005 53.093147
26.919514 -81.476028 50.401367
16.87513 -92.724541 49.130325
29.293242 -49.920238 70.845833
28.471428 -48.369316 72.37114
25.598139 -49.210217 75.822693
26.251722 -67.037697 72.133095
26.767551 -68.182693 69.847984
25.137928 -69.059296 71.110527
24.028244 -70.990158 69.814377
23.003052 -72.823334 68.274582
20.196484 -72.980392 71.639694
21.132282 -73.799538 69.185196
22.117306 -74.560715 66.513763
21.398067 -76.214699 64.545647
20.849072 -77.810959 62.378716
20.458755 -79.391357 60.023628
8.791756 -91.963509 58.291779
10.658447 -93.157944 56.182526
12.423058 -94.319839 53.792618
14.003334 -95.512787 51.110641
12.663239 -98.381599 49.692123
13.970032 -97.79425 49.08992
15.34709 -96.775604 48.14838
7.455261 -92.266212 57.863953
8.046055 -93.762207 55.634689
8.608877 -95.128029 53.45179
5.818323 -92.709259 53.86657
7.510372 -94.537033 52.661652
9.055279 -96.338867 51.286652
9.308653 -97.367554 49.098419
9.317394 -98.189156 46.842842
32.683716 -60.348072 61.394958
32.218517 -61.01075 63.536781
32.18309 -57.772972 65.249985
31.999834 -59.7402 65.594681
31.636574 -61.732567 65.6707
30.884058 -62.492622 67.722137
29.919638 -63.280903 69.630661
28.718718 -64.095535 71.350395
29.151587 -51.966194 71.402733
29.157372 -54.071812 72.02829
29.168211 -56.223228 72.623322
26.575443 -55.285416 75.437927
27.914295 -56.886097 74.340424
29.052519 -58.405117 73.081657
28.715872 -60.599888 73.310226
28.117615 -62.78611 73.243652
27.275013 -64.939865 72.851227
25.599607 -65.818573 74.120445
23.71822 -66.733154 75.163292
21.667614 -67.677948 76.000465
21.601463 -63.886162 77.932526
20.623524 -66.28923 77.425995
19.492363 -68.637802 76.662537
17.241642 -69.58757 77.181152
14.966892 -70.493996 77.579407
12.719639 -71.318825 77.864975
15.769371 -56.606979 82.430717
15.215471 -59.21862 82.052933
14.521805 -61.836365 81.548302
12.414175 -62.422485 82.22348
13.677418 -64.440216 80.905785
12.702675 -67.014343 80.114334
11.641239 -69.545593 79.160423
33.169506 -75.360718 55.528084
27.239977 -69.299896 67.360611
28.446579 -71.645782 62.290001
26.474796 -74.009262 61.93911
27.951336 -73.472786 60.976517
29.328478 -72.949432 59.955467
30.436432 -74.362648 57.878296
31.753069 -75.87867 56.102089
33.231812 -77.473625 54.625542
33.281067 -79.51181 53.353035
33.305935 -81.470016 51.652626
30.194176 -81.446503 50.807686
15.617564 -79.745834 66.64827
17.085121 -80.175583 63.797791
18.619555 -80.566498 60.72982
20.207432 -81.014771 57.502098
14.938558 -87.314087 57.16613
16.814388 -90.187286 51.451683
16.698231 -87.843201 53.896896
16.61211 -85.704727 56.415108
18.325579 -84.146843 55.619705
20.070358 -82.753227 54.853844
21.832119 -81.610565 54.181206
23.474167 -82.429588 50.841713
13.245323 -74.013943 75.768593
12.700111 -73.293514 76.547779
35.544115 -77.691848 53.840103
35.476574 -76.531799 54.135864
34.765612 -78.013206 53.864341
35.589047 -78.78788 53.379334
35.544115 -77.691848 53.840103
30.238181 -50.451011 69.073262
30.569374 -51.199934 68.273003
18.967577 -54.440392 80.869862
19.921235 -54.166911 80.249367
19.132274 -53.205984 80.859859
17.98003 -54.745103 81.421097
18.768991 -55.70603 80.810604
18.967577 -54.440392 80.869862
6.452741 -92.828663 46.893795
7.12183 -93.825565 46.377212
6.86001 -93.701721 47.548153
3.963233 -90.086853 57.894641
3.6797 -89.460887 59.095901
4.287269 -90.704571 56.729801
4.795456 -91.041622 57.315406
3.963233 -90.086853 57.894641
6.637818 -93.466995 48.703316
6.319572 -93.250519 49.85212
6.86001 -93.701721 47.548153
7.306907 -94.463898 48.186733
6.637818 -93.466995 48.703316
20.79404 -87.305973 47.612425
19.978796 -88.092067 48.117016
20.834612 -86.145306 49.002495
20.79404 -87.305973 47.612425
14.41848 -76.780483 72.214165
15.496465 -76.221759 72.015476
14.902537 -75.769538 73.074687
31.925402 -52.195543 64.388931
31.678559 -51.452135 65.224232
31.915714 -53.161199 64.775318
32.20755 -52.925258 63.57745
31.925402 -52.195543 64.388931
30.331547 -65.149392 66.196022
30.775755 -64.755676 65.235309
30.659098 -64.139458 66.428624
29.159357 -68.149372 65.101906
29.580056 -67.161567 65.538242
28.998216 -67.539746 66.336545
28.816061 -69.133206 64.648049
29.159357 -68.149372 65.101906
26.021688 -82.454254 48.994414
26.876143 -82.293877 48.942728
26.06506 -81.636405 50.453052
28.818013 -47.403914 72.260059
29.088887 -48.157446 71.400509
25.886822 -48.188643 75.736805
26.349151 -48.999376 74.993915
14.487615 -98.526196 47.639744
13.808153 -98.885838 48.11377
14.325736 -99.617783 46.663594
15.176144 -98.016873 47.168974
14.658561 -97.284927 48.61915
14.487615 -98.526196 47.639744
15.892995 -97.447704 46.545797
15.176144 -98.016873 47.168974
6.54225 -91.500648 58.653385
7.189169 -91.462734 59.006695
5.333157 -92.174366 53.257924
4.973049 -91.754208 54.411953
4.487882 -91.219314 53.803306
8.920137 -97.457146 46.346927
8.851046 -97.191547 47.514007
8.45379 -96.459538 47.018093
9.190445 -98.487381 45.661972
8.920137 -97.457146 46.346927
32.583189 -59.718291 62.376595
32.780632 -59.436461 61.255863
32.680105 -58.806679 62.237499
15.016737 -55.585325 83.155456
15.998499 -55.317108 82.562706
14.183597 -59.50959 82.48135
14.486987 -58.195764 82.757454
13.836763 -60.818462 82.229035
14.868638 -60.527493 81.800618
14.183597 -59.50959 82.48135
11.980189 -63.722015 81.812599
11.405552 -62.666311 82.511173
10.971566 -63.965841 82.100292
10.591731 -69.82463 79.242565
11.107711 -68.565445 79.79979
10.058203 -68.844482 79.881932
11.095412 -70.783974 78.594029
10.591731 -69.82463 79.242565
32.447845 -73.515091 56.591099
32.487974 -72.466515 56.942791
31.825185 -72.791314 57.387375
32.477281 -74.600304 56.281883
33.14007 -74.275505 55.8373
32.447845 -73.515091 56.591099
27.413965 -71.354996 64.137425
27.052194 -70.802418 65.43909
26.696043 -71.717953 64.77932
27.752197 -71.958157 62.883827
28.108348 -71.042621 63.543598
27.413965 -71.354996 64.137425
32.531516 -82.433793 50.359394
33.303549 -82.41362 50.579822
32.533902 -81.490189 51.432198
14.40976 -81.321797 65.774567
14.225145 -82.263089 64.656151
15.395947 -80.650967 65.529324
14.631377 -80.416664 66.893513
14.40976 -81.321797 65.774567
11.909848 -91.222283 57.098267
11.154137 -91.752769 57.187752
14.210593 -89.167591 56.272866
13.44097 -89.920437 56.631515
14.340851 -90.236168 55.109001
15.024515 -88.398705 55.958241
14.124636 -88.082974 57.480755
14.210593 -89.167591 56.272866
17.601332 -90.608711 49.702387
16.844759 -91.455914 50.291004
17.631702 -91.877339 48.541708
13.787346 -74.662689 74.948395
14.343212 -73.515041 75.626915
13.245323 -74.013943 75.768593
13.257004 -75.744926 74.181725
14.354893 -75.246025 74.040047
13.787346 -74.662689 74.948395
10.458709 -100.273842 46.609112
10.011201 -99.753906 46.399643
35.618201 -79.922237 52.878402
35.589047 -78.78788 53.379334
34.831531 -80.170445 52.728866
35.618201 -79.922237 52.878402
30.977229 -51.949169 67.530479
31.298147 -52.689878 66.734592
31.312648 -51.690775 66.382687
30.554873 -52.199038 68.624909
30.977229 -51.949169 67.530479
30.569374 -51.199934 68.273003
31.312648 -51.690775 66.382687
31.678559 -51.452135 65.224232
13.310968 -100.972382 46.169302
13.014275 -100.102303 47.418408
12.67897 -101.09726 46.450091
13.983822 -100.788074 45.71838
13.310968 -100.972382 46.169302
14.325736 -99.617783 46.663594
13.983822 -100.788074 45.71838
7.662756 -94.839878 45.837486
8.02599 -95.71188 46.441292
7.255486 -93.96682 45.183129
7.662756 -94.839878 45.837486
7.12183 -93.825565 46.377212
6.908023 -92.992149 44.515595
7.255486 -93.96682 45.183129
4.205458 -89.718555 59.669331
3.6797 -89.460887 59.095901
5.05033 -90.579494 58.961533
4.205458 -89.718555 59.669331
5.350049 -91.291786 57.809021
5.928959 -91.447376 58.290306
5.05033 -90.579494 58.961533
6.025315 -92.919297 50.985112
5.672096 -92.6031 52.128579
6.790458 -93.89795 50.474888
6.025315 -92.919297 50.985112
6.319572 -93.250519 49.85212
8.02599 -95.71188 46.441292
8.45379 -96.459538 47.018093
7.956899 -95.446281 47.608372
32.935384 -57.627957 60.856823
33.12701 -57.41429 59.769581
32.745012 -57.862389 62.022126
32.935384 -57.627957 60.856823
32.802848 -56.965496 61.76218
32.547569 -58.144219 63.142857
32.680105 -58.806679 62.237499
32.745012 -57.862389 62.022126
10.537873 -65.251373 81.591232
10.971566 -63.965841 82.100292
10.051864 -66.533249 81.109951
11.060192 -66.303421 80.920437
10.537873 -65.251373 81.591232
9.577789 -67.798592 80.533188
10.051864 -66.533249 81.109951
10.058203 -68.844482 79.881932
9.577789 -67.798592 80.533188
32.928883 -53.271351 60.321572
32.729197 -52.498199 61.140782
33.127569 -54.013176 59.502876
32.928883 -53.271351 60.321572
32.873423 -54.187477 60.716568
33.324484 -54.799371 58.728878
33.127569 -54.013176 59.502876
33.242601 -55.668919 59.108852
33.324484 -54.799371 58.728878
33.203158 -56.5698 59.458355
33.242601 -55.668919 59.108852
33.032665 -55.830183 60.247375
33.12701 -57.41429 59.769581
33.203158 -56.5698 59.458355
31.205095 -73.113347 57.954548
31.825185 -72.791314 57.387375
29.369901 -82.243332 49.330323
28.551075 -82.197884 49.103477
13.194726 -83.918789 63.733539
12.263807 -84.596134 63.89587
14.101846 -83.179768 63.47712
13.194726 -83.918789 63.733539
14.020611 -84.128479 62.308735
15.05103 -82.472779 63.231347
14.225145 -82.263089 64.656151
14.101846 -83.179768 63.47712
19.169096 -88.907055 48.612053
18.383887 -89.760696 49.186278
19.189198 -87.67627 49.924427
19.169096 -88.907055 48.612053
19.978796 -88.092067 48.117016
20.842983 -85.055454 50.356922
20.007269 -85.771431 50.783817
20.834612 -86.145306 49.002495
21.702493 -84.414704 49.987458
20.875151 -84.040829 51.76878
20.842983 -85.055454 50.356922
22.558295 -83.849198 49.667473
21.702493 -84.414704 49.987458
16.058286 -76.63406 70.893642
16.542343 -75.623115 71.754165
15.496465 -76.221759 72.015476
15.637755 -77.574642 69.943047
16.683633 -76.975998 69.681736
16.058286 -76.63406 70.893642
10.968787 -100.621132 46.759475
10.723962 -99.647385 47.67796
10.458709 -100.273842 46.609112
11.497923 -100.920807 46.751362
10.968787 -100.621132 46.759475
12.072041 -101.037059 46.686798
11.808159 -100.110928 47.763759
11.497923 -100.920807 46.751362
12.67897 -101.09726 46.450091
12.072041 -101.037059 46.686798
3.353333 -89.774376 55.472225
3.79141 -90.274479 56.133186
3.688398 -90.211181 54.289531
3.353333 -89.774376 55.472225
4.487882 -91.219314 53.803306
3.688398 -90.211181 54.289531
32.445988 -52.702627 62.363163
32.729197 -52.498199 61.140782
32.436299 -53.668284 62.74955
32.445988 -52.702627 62.363163
32.20755 -52.925258 63.57745
31.206179 -64.364284 64.299545
31.459988 -63.361456 64.46093
31.206179 -64.364284 64.299545
30.775755 -64.755676 65.235309
29.93356 -66.158775 65.887794
30.331547 -65.149392 66.196022
29.816902 -65.542557 67.081108
29.93356 -66.158775 65.887794
29.580056 -67.161567 65.538242
27.719459 -82.23856 49.045986
28.551075 -82.197884 49.103477
27.751131 -81.435352 50.458859
27.719459 -82.23856 49.045986
26.876143 -82.293877 48.942728
12.229145 -85.560688 62.735706
12.263807 -84.596134 63.89587
13.125679 -85.842381 61.371704
12.229145 -85.560688 62.735706
13.998974 -86.05542 59.898822
13.986786 -85.08054 61.092273
13.125679 -85.842381 61.371704
16.828587 -94.062226 48.045727
16.144517 -93.492565 49.675117
16.097974 -94.83025 48.590519
17.573061 -93.251461 47.388023
16.828587 -94.062226 48.045727
17.631702 -91.877339 48.541708
17.573061 -93.251461 47.388023
34.65509 -75.793655 54.611988
35.476574 -76.531799 54.135864
29.499795 -48.932907 70.637856
29.811293 -49.686229 69.812462
28.882335 -49.144777 71.608486
29.499795 -48.932907 70.637856
29.088887 -48.157446 71.400509
28.100575 -47.588734 73.16861
28.818013 -47.403914 72.260059
27.785795 -48.578926 73.268139
28.100575 -47.588734 73.16861
27.604723 -49.590653 73.461113
28.290356 -49.381042 72.564114
27.785795 -48.578926 73.268139
26.935727 -49.830742 74.338256
27.440288 -50.632858 73.634231
27.604723 -49.590653 73.461113
26.184715 -50.041583 75.167034
26.935727 -49.830742 74.338256
26.349151 -48.999376 74.993915
25.057003 -48.367886 76.523544
25.886822 -48.188643 75.736805
24.787999 -49.425596 76.592468
25.057003 -48.367886 76.523544
24.631164 -50.502913 76.739224
25.441305 -50.287533 75.969448
24.787999 -49.425596 76.592468
23.8199 -50.756371 77.475155
24.473206 -51.618307 76.852135
24.631164 -50.502913 76.739224
22.958703 -50.978712 78.198265
23.8199 -50.756371 77.475155
22.088676 -51.240278 78.880276
22.791915 -52.133331 78.270077
22.958703 -50.978712 78.198265
21.185338 -51.470714 79.570988
22.088676 -51.240278 78.880276
20.26736 -51.739517 80.214627
21.00391 -52.6637 79.595726
21.185338 -51.470714 79.570988
19.33143 -51.977755 80.886681
20.26736 -51.739517 80.214627
19.132274 -53.205984 80.859859
19.33143 -51.977755 80.886681
9.507943 -91.61253 58.350265
8.565828 -91.078022 59.431328
10.441289 -92.209747 57.295639
9.507943 -91.61253 58.350265
9.725102 -92.560727 57.237153
11.371295 -92.700966 56.074639
11.154137 -91.752769 57.187752
10.441289 -92.209747 57.295639
16.064567 -96.087757 47.554754
16.097974 -94.83025 48.590519
15.380498 -95.518097 49.184145
16.064567 -96.087757 47.554754
15.892995 -97.447704 46.545797
6.025286 -91.952988 46.204453
6.452741 -92.828663 46.893795
6.3171 -91.988041 45.028483
6.025286 -91.952988 46.204453
6.908023 -92.992149 44.515595
6.3171 -91.988041 45.028483
7.857416 -91.311383 59.220608
8.565828 -91.078022 59.431328
8.123508 -92.11486 58.077866
7.857416 -91.311383 59.220608
7.189169 -91.462734 59.006695
6.84197 -92.21294 57.500873
6.54225 -91.500648 58.653385
5.928959 -91.447376 58.290306
4.623634 -91.229248 55.553951
4.287269 -90.704571 56.729801
3.79141 -90.274479 56.133186
6.157262 -93.137993 52.737225
5.333157 -92.174366 53.257924
5.672096 -92.6031 52.128579
9.562956 -99.198437 46.057266
10.011201 -99.753906 46.399643
9.765639 -98.744625 47.185219
9.562956 -99.198437 46.057266
9.190445 -98.487381 45.661972
32.887904 -60.065075 60.364452
32.780632 -59.436461 61.255863
32.790858 -60.943577 60.423431
32.887904 -60.065075 60.364452
32.541349 -61.29191 61.406715
32.790858 -60.943577 60.423431
32.30875 -61.623249 62.477626
32.541349 -61.29191 61.406715
32.451116 -60.679411 62.465869
32.017593 -61.99396 63.495365
32.30875 -61.623249 62.477626
31.726622 -62.354868 64.562325
32.017593 -61.99396 63.495365
31.927546 -61.371659 64.603741
31.36994 -62.739155 65.569305
31.459988 -63.361456 64.46093
31.726622 -62.354868 64.562325
29.72013 -50.68502 70.106632
30.238181 -50.451011 69.073262
29.811293 -49.686229 69.812462
12.159336 -72.519779 77.25671
12.700111 -73.293514 76.547779
13.260414 -72.09256 77.156044
17.004535 -55.01899 82.028267
17.98003 -54.745103 81.421097
16.775407 -56.308861 81.896278
17.004535 -55.01899 82.028267
15.998499 -55.317108 82.562706
14.763937 -56.889944 82.946346
15.016737 -55.585325 83.155456
15.492421 -57.9128 82.241825
14.763937 -56.889944 82.946346
14.486987 -58.195764 82.757454
11.783722 -61.365161 82.952324
11.405552 -62.666311 82.511173
12.782948 -61.111522 82.566623
11.783722 -61.365161 82.952324
13.46799 -62.129425 81.885891
13.836763 -60.818462 82.229035
12.782948 -61.111522 82.566623
11.634612 -71.67059 77.946304
12.180439 -70.432209 78.512699
11.095412 -70.783974 78.594029
12.159336 -72.519779 77.25671
11.634612 -71.67059 77.946304
33.879503 -75.015427 55.213475
33.14007 -74.275505 55.8373
33.945093 -76.138947 54.926597
34.65509 -75.793655 54.611988
33.879503 -75.015427 55.213475
27.505047 -69.869678 66.078903
26.787124 -70.232636 66.720799
27.052194 -70.802418 65.43909
28.173817 -69.483506 65.348702
27.908747 -68.913723 66.63041
27.505047 -69.869678 66.078903
28.816061 -69.133206 64.648049
28.173817 -69.483506 65.348702
28.750592 -70.692321 62.842945
28.108348 -71.042621 63.543598
29.082675 -71.332638 61.653591
28.750592 -70.692321 62.842945
29.523625 -71.984463 60.486324
29.082675 -71.332638 61.653591
28.887529 -72.297607 61.122734
29.976806 -72.668117 59.41444
29.523625 -71.984463 60.486324
30.530783 -73.374725 58.375855
29.976806 -72.668117 59.41444
29.882455 -73.65604 58.916882
31.110744 -74.101269 57.456989
31.205095 -73.113347 57.954548
30.530783 -73.374725 58.375855
34.066794 -80.37173 52.703598
34.831531 -80.170445 52.728866
34.045805 -79.310524 53.378304
34.079228 -81.350833 51.853393
34.066794 -80.37173 52.703598
33.293501 -80.490913 52.502831
34.077163 -82.374943 50.944156
34.079228 -81.350833 51.853393
34.077163 -82.374943 50.944156
33.303549 -82.41362 50.579822
30.175615 -82.269246 49.47599
29.388462 -81.42059 50.662018
29.369901 -82.243332 49.330323
30.970038 -82.350956 49.793117
30.175615 -82.269246 49.47599
31.753884 -82.382885 49.995159
30.978023 -81.478432 51.009727
30.970038 -82.350956 49.793117
32.531516 -82.433793 50.359394
31.753884 -82.382885 49.995159
12.758595 -76.852188 73.391437
13.257004 -75.744926 74.181725
13.371134 -77.370712 72.398514
12.758595 -76.852188 73.391437
14.41848 -76.780483 72.214165
13.371134 -77.370712 72.398514
15.244838 -78.550602 68.982597
15.637755 -77.574642 69.943047
14.922069 -79.465229 67.941162
14.631377 -80.416664 66.893513
15.940333 -78.831207 67.689705
15.244838 -78.550602 68.982597
14.922069 -79.465229 67.941162
12.653391 -90.594796 56.848716
11.909848 -91.222283 57.098267
12.827685 -91.616501 55.717201
12.653391 -90.594796 56.848716
13.44097 -89.920437 56.631515
14.038213 -87.065674 58.672191
14.124636 -88.082974 57.480755
14.89932 -86.303833 58.392761
13.998974 -86.05542 59.898822
14.038213 -87.065674 58.672191
17.596943 -89.339271 50.935574
17.601332 -90.608711 49.702387
18.383887 -89.760696 49.186278
23.428048 -83.363952 49.388672
22.604414 -82.914833 51.120514
22.558295 -83.849198 49.667473
24.293051 -82.977554 49.202589
23.428048 -83.363952 49.388672
25.161271 -82.661152 49.034102
24.342386 -82.113186 50.673226
24.293051 -82.977554 49.202589
26.021688 -82.454254 48.994414
25.161271 -82.661152 49.034102
3 268 267 66
3 0 269 270
3 0 271 273
3 271 68 272
3 271 272 273
3 274 70 275
3 276 73 277
3 278 277 71
3 276 277 278
3 279 75 280
3 281 280 73
3 279 280 281
3 1 78 76
3 2 81 79
3 2 83 81
3 4 86 84
3 6 89 87
3 6 91 89
3 7 94 92
3 282 97 283
3 284 283 96
3 282 283 284
3 285 98 286
3 287 100 288
3 289 288 98
3 287 288 289
3 290 102 291
3 292 96 293
3 294 293 102
3 292 293 294
3 9 105 104
3 10 108 106
3 10 110 108
3 3 113 111
3 11 116 114
3 11 118 116
3 11 120 118
3 12 123 121
3 12 125 123
3 9 128 127
3 9 104 128
3 5 131 129
3 13 134 132
3 13 136 134
3 13 138 136
3 14 140 139
3 14 142 140
3 8 145 143
3 295 147 296
3 298 297 147
3 15 151 149
3 17 152 67
3 17 299 301
3 301 300 152
3 299 300 301
3 18 155 153
3 20 159 157
3 22 160 69
3 22 161 160
3 23 164 162
3 25 165 72
3 25 166 165
3 25 168 166
3 27 169 74
3 27 170 169
3 20 302 303
3 20 304 306
3 304 157 305
3 304 305 306
3 28 307 309
3 309 308 171
3 307 308 309
3 29 310 312
3 312 311 77
3 310 311 312
3 29 313 314
3 30 174 172
3 32 175 80
3 32 176 175
3 32 178 176
3 34 179 82
3 34 315 317
3 317 316 179
3 315 316 317
3 318 182 319
3 320 183 321
3 36 186 184
3 38 187 85
3 38 188 187
3 16 189 150
3 39 190 88
3 39 191 190
3 39 192 191
3 40 193 90
3 40 194 193
3 41 196 195
3 43 197 93
3 43 198 197
3 19 199 154
3 322 200 323
3 324 323 95
3 322 323 324
3 325 201 326
3 327 326 200
3 325 326 327
3 329 328 201
3 330 202 331
3 44 203 99
3 44 204 203
3 332 205 333
3 334 333 156
3 332 333 334
3 45 206 101
3 45 207 206
3 45 208 207
3 335 209 336
3 337 336 103
3 335 336 337
3 339 338 209
3 46 340 342
3 340 210 341
3 340 341 342
3 46 211 210
3 21 212 158
3 47 213 107
3 47 214 213
3 47 215 214
3 48 216 109
3 48 217 216
3 35 218 181
3 49 219 112
3 49 220 219
3 24 221 163
3 50 222 115
3 50 223 222
3 50 224 223
3 51 225 117
3 51 226 225
3 51 227 226
3 52 228 119
3 52 229 228
3 26 230 167
3 53 231 122
3 53 232 231
3 53 233 232
3 54 234 124
3 54 235 234
3 343 236 344
3 345 237 346
3 347 238 348
3 349 348 237
3 347 348 349
3 55 350 352
3 350 239 351
3 350 351 352
3 55 240 239
3 55 241 240
3 353 242 354
3 355 354 126
3 353 354 355
3 357 356 242
3 56 358 360
3 358 359 360
3 56 361 363
3 361 243 362
3 361 362 363
3 37 244 185
3 57 364 366
3 366 365 130
3 364 365 366
3 57 367 369
3 367 245 368
3 367 368 369
3 31 246 173
3 58 247 133
3 58 248 247
3 58 249 248
3 59 250 135
3 59 251 250
3 59 252 251
3 60 253 137
3 60 370 372
3 372 371 253
3 370 371 372
3 33 254 177
3 61 373 374
3 61 375 377
3 375 255 376
3 375 376 377
3 61 256 255
3 62 257 141
3 62 258 257
3 42 378 379
3 63 380 382
3 382 381 144
3 380 381 382
3 63 383 385
3 383 259 384
3 383 384 385
3 386 260 387
3 388 387 180
3 386 387 388
3 64 261 146
3 64 262 261
3 64 263 262
3 65 264 148
3 65 265 264
3 65 266 265
3 66 67 15
3 389 67 390
3 391 390 66
3 389 390 391
3 392 17 393
3 394 393 67
3 392 393 394
3 396 395 18
3 68 397 398
3 68 399 400
3 401 69 402
3 403 402 20
3 401 402 403
3 70 404 406
3 404 69 405
3 404 405 406
3 70 22 69
3 71 72 23
3 73 72 71
3 73 25 72
3 73 74 25
3 75 74 73
3 75 27 74
3 407 20 408
3 76 77 28
3 78 77 76
3 78 29 77
3 79 80 30
3 81 80 79
3 81 32 80
3 81 82 32
3 83 82 81
3 83 34 82
3 84 85 36
3 86 85 84
3 86 38 85
3 87 88 16
3 89 88 87
3 89 39 88
3 89 90 39
3 91 90 89
3 91 40 90
3 92 93 41
3 94 93 92
3 94 43 93
3 409 95 410
3 411 410 19
3 409 410 411
3 412 95 413
3 415 414 95
3 96 416 417
3 97 418 420
3 420 419 96
3 418 419 420
3 97 421 422
3 98 423 424
3 98 425 426
3 98 427 429
3 427 99 428
3 427 428 429
3 100 99 98
3 100 44 99
3 430 101 431
3 102 432 434
3 432 101 433
3 432 433 434
3 102 45 101
3 102 103 45
3 96 103 102
3 96 435 437
3 437 436 103
3 435 436 437
3 104 438 439
3 105 440 442
3 442 441 104
3 440 441 442
3 105 443 445
3 443 46 444
3 443 444 445
3 106 107 21
3 108 107 106
3 108 47 107
3 108 109 47
3 110 109 108
3 110 48 109
3 111 112 35
3 113 112 111
3 113 49 112
3 114 115 24
3 116 115 114
3 116 50 115
3 116 117 50
3 118 117 116
3 118 51 117
3 118 119 51
3 120 119 118
3 120 52 119
3 121 122 26
3 123 122 121
3 123 53 122
3 123 124 53
3 125 124 123
3 125 54 124
3 446 55 447
3 448 126 449
3 450 449 55
3 448 449 450
3 451 126 452
3 454 453 126
3 127 455 456
3 128 457 459
3 459 458 127
3 457 458 459
3 128 460 461
3 128 462 463
3 104 464 466
3 466 465 128
3 464 465 466
3 104 467 468
3 469 56 470
3 129 130 37
3 131 130 129
3 131 57 130
3 132 133 31
3 134 133 132
3 134 58 133
3 134 135 58
3 136 135 134
3 136 59 135
3 136 137 59
3 138 137 136
3 138 60 137
3 472 471 33
3 139 473 474
3 140 475 477
3 477 476 139
3 475 476 477
3 140 478 480
3 478 61 479
3 478 479 480
3 140 141 61
3 142 141 140
3 142 62 141
3 143 144 42
3 145 144 143
3 145 63 144
3 481 146 482
3 147 483 485
3 483 146 484
3 483 484 485
3 147 64 146
3 147 148 64
3 486 148 487
3 488 487 147
3 486 487 488
3 489 65 490
3 491 490 148
3 489 490 491
3 493 492 65
3 149 150 4
3 151 150 149
3 151 16 150
3 67 151 15
3 152 151 67
3 152 16 151
3 152 87 16
3 494 87 495
3 496 495 152
3 494 495 496
3 497 6 498
3 499 498 87
3 497 498 499
3 153 154 7
3 155 154 153
3 155 19 154
3 500 155 501
3 502 501 18
3 500 501 502
3 503 155 504
3 505 19 506
3 507 506 155
3 505 506 507
3 509 508 19
3 510 156 511
3 512 156 513
3 515 514 156
3 157 158 9
3 159 158 157
3 159 21 158
3 69 159 20
3 160 159 69
3 160 21 159
3 160 106 21
3 161 106 160
3 161 10 106
3 162 163 3
3 164 163 162
3 164 24 163
3 72 164 23
3 165 164 72
3 165 24 164
3 165 114 24
3 166 114 165
3 166 11 114
3 166 167 11
3 168 167 166
3 168 26 167
3 74 168 25
3 169 168 74
3 169 26 168
3 169 121 26
3 170 121 169
3 170 12 121
3 516 127 517
3 157 518 520
3 518 127 519
3 518 519 520
3 157 9 127
3 171 521 522
3 524 523 171
3 77 525 527
3 527 526 28
3 525 526 527
3 529 528 77
3 172 173 5
3 174 173 172
3 174 31 173
3 80 174 30
3 175 174 80
3 175 31 174
3 175 132 31
3 176 132 175
3 176 13 132
3 176 177 13
3 178 177 176
3 178 33 177
3 82 178 32
3 179 178 82
3 179 33 178
3 179 530 532
3 532 531 33
3 530 531 532
3 534 533 179
3 535 139 536
3 537 139 538
3 539 14 540
3 541 540 139
3 539 540 541
3 542 180 543
3 544 543 8
3 542 543 544
3 545 180 546
3 548 547 180
3 549 0 550
3 551 181 552
3 182 553 555
3 553 181 554
3 553 554 555
3 182 35 181
3 556 182 557
3 558 182 559
3 560 35 561
3 562 561 182
3 560 561 562
3 563 111 564
3 565 564 35
3 563 564 565
3 183 566 568
3 566 111 567
3 566 567 568
3 183 3 111
3 569 183 570
3 571 183 572
3 573 3 574
3 575 574 183
3 573 574 575
3 576 162 577
3 578 577 3
3 576 577 578
3 579 162 580
3 581 23 582
3 583 582 162
3 581 582 583
3 584 23 585
3 586 71 587
3 588 587 23
3 586 587 588
3 589 71 590
3 592 591 71
3 184 185 1
3 186 185 184
3 186 37 185
3 85 186 36
3 187 186 85
3 187 37 186
3 187 129 37
3 188 129 187
3 188 5 129
3 150 86 4
3 189 86 150
3 189 38 86
3 88 189 16
3 190 189 88
3 190 38 189
3 190 188 38
3 191 188 190
3 191 5 188
3 191 172 5
3 192 172 191
3 192 30 172
3 90 192 39
3 193 192 90
3 193 30 192
3 193 79 30
3 194 79 193
3 194 2 79
3 195 593 594
3 196 595 597
3 597 596 195
3 595 596 597
3 196 598 600
3 598 42 599
3 598 599 600
3 93 196 41
3 197 196 93
3 197 42 196
3 197 143 42
3 198 143 197
3 198 8 143
3 154 94 7
3 199 94 154
3 199 43 94
3 95 199 19
3 200 199 95
3 200 43 199
3 200 198 43
3 201 198 200
3 201 8 198
3 201 601 603
3 603 602 8
3 601 602 603
3 605 604 201
3 606 97 607
3 608 97 609
3 611 610 97
3 612 195 613
3 202 614 616
3 614 195 615
3 614 615 616
3 202 41 195
3 99 617 619
3 617 202 618
3 617 618 619
3 203 202 99
3 203 41 202
3 203 92 41
3 204 92 203
3 204 7 92
3 156 620 622
3 620 100 621
3 620 621 622
3 205 100 156
3 205 44 100
3 101 623 625
3 623 205 624
3 623 624 625
3 206 205 101
3 206 44 205
3 206 204 44
3 207 204 206
3 207 7 204
3 207 153 7
3 208 153 207
3 208 18 153
3 103 208 45
3 209 208 103
3 209 18 208
3 209 626 628
3 628 627 18
3 626 627 628
3 630 629 209
3 210 631 632
3 210 633 634
3 210 635 636
3 211 637 639
3 639 638 210
3 637 638 639
3 211 640 641
3 158 105 9
3 212 105 158
3 212 46 105
3 107 212 21
3 213 212 107
3 213 46 212
3 213 211 46
3 214 211 213
3 214 642 644
3 644 643 211
3 642 643 644
3 214 645 647
3 645 171 646
3 645 646 647
3 215 171 214
3 215 28 171
3 109 215 47
3 216 215 109
3 216 28 215
3 216 76 28
3 217 76 216
3 217 1 76
3 181 648 650
3 648 70 649
3 648 649 650
3 218 70 181
3 218 22 70
3 112 218 35
3 219 218 112
3 219 22 218
3 219 161 22
3 220 161 219
3 220 10 161
3 163 113 3
3 221 113 163
3 221 49 113
3 115 221 24
3 222 221 115
3 222 49 221
3 222 220 49
3 223 220 222
3 223 10 220
3 223 110 10
3 224 110 223
3 224 48 110
3 117 224 50
3 225 224 117
3 225 48 224
3 225 217 48
3 226 217 225
3 226 1 217
3 226 184 1
3 227 184 226
3 227 36 184
3 119 227 51
3 228 227 119
3 228 36 227
3 228 84 36
3 229 84 228
3 229 4 84
3 167 120 11
3 230 120 167
3 230 52 120
3 122 230 26
3 231 230 122
3 231 52 230
3 231 229 52
3 232 229 231
3 232 4 229
3 232 149 4
3 233 149 232
3 233 15 149
3 124 233 53
3 234 233 124
3 234 15 233
3 234 66 15
3 235 66 234
3 235 651 653
3 653 652 66
3 651 652 653
3 654 75 655
3 236 656 658
3 656 75 657
3 656 657 658
3 236 27 75
3 659 236 660
3 237 661 663
3 661 236 662
3 661 662 663
3 237 27 236
3 237 170 27
3 238 170 237
3 238 12 170
3 239 664 665
3 239 666 667
3 239 668 670
3 668 238 669
3 668 669 670
3 240 238 239
3 240 12 238
3 240 125 12
3 241 125 240
3 241 54 125
3 126 241 55
3 242 241 126
3 242 54 241
3 242 235 54
3 671 235 672
3 673 672 242
3 671 672 673
3 675 674 235
3 243 676 677
3 243 678 680
3 678 0 679
3 678 679 680
3 185 78 1
3 244 78 185
3 244 29 78
3 130 244 37
3 681 244 682
3 683 682 130
3 681 682 683
3 684 29 685
3 686 685 244
3 684 685 686
3 688 687 29
3 245 689 690
3 245 691 692
3 173 131 5
3 246 131 173
3 246 57 131
3 133 246 31
3 247 246 133
3 247 57 246
3 247 245 57
3 248 245 247
3 248 693 695
3 695 694 245
3 693 694 695
3 248 696 697
3 249 698 700
3 700 699 248
3 698 699 700
3 249 701 703
3 701 56 702
3 701 702 703
3 135 249 58
3 250 249 135
3 250 56 249
3 250 243 56
3 251 243 250
3 251 0 243
3 251 68 0
3 252 68 251
3 252 704 706
3 706 705 68
3 704 705 706
3 137 252 59
3 253 252 137
3 253 707 709
3 709 708 252
3 707 708 709
3 253 710 711
3 713 712 253
3 177 138 13
3 254 138 177
3 254 60 138
3 714 254 715
3 716 715 33
3 714 715 716
3 717 254 718
3 719 60 720
3 721 720 254
3 719 720 721
3 723 722 60
3 724 17 725
3 726 17 727
3 729 728 17
3 730 6 731
3 255 732 733
3 255 734 736
3 734 6 735
3 734 735 736
3 255 91 6
3 256 91 255
3 256 40 91
3 141 256 61
3 257 256 141
3 257 40 256
3 257 194 40
3 258 194 257
3 258 2 194
3 144 737 739
3 739 738 42
3 737 738 739
3 741 740 144
3 259 742 743
3 259 744 746
3 744 14 745
3 744 745 746
3 180 145 8
3 260 145 180
3 260 63 145
3 146 747 749
3 747 260 748
3 747 748 749
3 261 260 146
3 261 63 260
3 261 259 63
3 262 259 261
3 262 14 259
3 262 142 14
3 263 142 262
3 263 62 142
3 148 263 64
3 264 263 148
3 264 62 263
3 264 258 62
3 265 258 264
3 265 2 258
3 265 83 2
3 266 83 265
3 266 34 83
3 750 266 751
3 752 751 65
3 750 751 752
3 753 266 754
3 755 34 756
3 757 756 266
3 755 756 757
3 759 758 34
