ply
format ascii 1.0
element vertex 570
property float x
property float y
property float z
element face 544
property list uchar int vertex_index
end_header
47.362888 20.020355 28.231661
51.511284 17.427155 7.569449
43.972466 20.809525 8.364885
51.978668 31.279736 6.164499
57.118088 21.557362 12.451482
56.090893 16.77103 18.7694
42.493549 23.39209 37.610298
56.896919 26.69276 8.462997
57.57933 13.828037 7.335328
48.258934 33.439392 5.249997
52.334118 37.569599 4.579227
48.11525 23.301266 24.51976
52.407539 21.35136 19.984167
51.627907 18.565186 23.573189
41.93494 29.293617 38.120834
38.611416 14.669212 7.729095
47.73888 19.175411 8.167545
43.99543 12.89282 10.015154
47.583496 11.578362 9.707941
51.310772 10.171793 8.971285
56.718315 32.942413 9.046719
56.863907 30.349213 11.538561
58.433861 18.089466 8.864546
40.636677 22.113564 7.698039
44.021858 28.385693 6.568343
47.904968 26.536652 6.902242
51.693432 24.513195 6.878565
55.742085 27.469574 14.118795
53.990852 24.39526 16.874199
56.444424 19.014748 15.312115
42.666706 27.074474 33.463482
44.200832 21.528297 32.852707
40.904266 14.000488 9.444124
55.120007 35.313824 6.700931
55.01091 29.03587 7.163147
54.897209 22.433052 6.948667
57.487854 24.182434 10.19205
57.151421 20.281399 7.512169
54.875549 15.630539 7.116493
47.569473 21.624592 26.318253
49.659309 20.795052 24.039885
49.404587 19.310081 25.920404
51.651665 17.298092 25.539959
49.477898 17.904465 27.907692
49.651768 18.308979 7.885608
47.673733 15.393154 8.875329
49.565636 14.609943 8.53363
49.4524 10.882769 9.358572
51.424423 13.811142 8.156948
42.197281 29.149708 6.126059
44.153069 31.950272 5.440697
50.171326 32.376564 5.715784
48.051796 30.059696 6.170893
49.985218 29.015495 6.39004
49.842209 25.53447 6.906108
51.821152 27.946323 6.583191
52.036964 25.639477 19.089718
54.118267 18.947491 19.348179
54.533234 20.248672 17.644424
56.198067 17.846214 16.970533
41.98217 26.302944 37.876671
42.183006 28.146427 35.782478
42.406937 25.209381 35.495293
43.143326 24.210255 33.149483
43.17099 22.404484 35.21022
42.225594 21.522961 8.163486
40.77042 18.095119 8.609745
42.300621 17.533833 9.02692
55.094482 38.292984 5.989019
55.993767 37.144405 7.413429
56.815601 29.848003 8.873598
56.119217 31.055309 7.940697
56.116951 27.882214 7.766338
54.94352 25.76659 7.075564
56.121235 24.64724 7.45155
56.350891 24.476353 13.304847
56.855282 25.893425 12.078945
57.385498 22.874371 11.24983
58.272865 16.063976 7.781489
57.898689 19.183128 8.077644
57.349445 17.055611 7.271176
56.222366 18.055904 6.997033
50.396217 35.594662 4.797118
52.156197 34.493114 5.518784
51.033619 23.981586 20.634014
50.218239 22.357689 22.278572
51.889194 19.916534 21.717022
53.903976 17.735302 21.181456
53.921436 16.612503 23.129665
54.178017 15.560921 25.167294
42.039482 33.480167 40.541939
41.804947 30.504593 40.453178
38.134773 10.647579 7.147713
45.827618 20.015995 8.347946
43.991768 16.874969 9.179853
45.798904 16.153137 9.111584
45.749035 12.251793 9.947502
47.44352 7.757051 10.678284
56.973614 31.680557 10.280743
57.153107 28.588223 9.872414
58.045605 18.737232 11.687844
58.041519 19.914394 10.473776
58.813427 17.025078 9.880653
39.114792 26.409325 5.809049
40.542702 26.009583 6.659462
42.178757 25.409229 7.21805
43.97142 24.659275 7.517926
46.086327 31.051891 5.872793
45.944412 27.498875 6.809005
45.866295 23.808922 7.605517
47.807259 22.898998 7.536097
49.73629 21.957848 7.370046
51.5942 21.000549 7.170314
54.250053 28.926613 16.18737
54.894638 25.944653 15.463963
55.731445 23.04248 14.631434
53.132004 22.853348 18.374012
55.095535 21.62265 16.073971
56.775551 20.260578 13.804646
58.004154 17.614777 13.089809
46.231533 24.214512 26.729612
45.738564 22.44574 28.576756
44.250248 23.296688 30.846075
45.606014 20.745029 30.532978
43.557697 20.657177 37.34655
44.524334 19.826729 34.945381
45.846214 19.115864 32.584061
39.442169 18.51738 7.896645
39.642525 14.408043 8.739037
42.367043 13.484283 9.860328
53.847473 36.453159 5.611998
53.613377 30.165581 6.636653
53.494179 26.863705 6.797951
53.39682 23.480061 6.875297
53.323997 20.031551 7.000626
56.429665 28.943535 12.815775
57.14909 27.268978 10.938694
57.344536 25.459206 9.267268
57.913864 21.11702 9.451595
57.587223 22.318089 8.616827
57.001312 23.497925 7.956746
56.154526 21.367271 7.146785
54.877365 19.049984 6.923466
53.266235 16.533577 7.289663
53.205112 13.001572 7.820581
53.119698 9.452902 8.623346
44.270283 33.633722 4.755721
43.234186 32.326401 5.131883
51.032062 26.217745 20.166201
51.641824 27.09702 19.402635
57.068905 16.198652 17.586635
57.122492 16.736244 16.687202
56.14448 17.308622 17.869967
57.154555 15.774088 18.521522
57.068905 16.198652 17.586635
56.136893 38.009183 7.87996
55.887054 38.590551 7.015613
56.946998 14.276142 7.224855
56.832056 15.889929 7.192779
57.464388 15.441824 7.303252
56.995195 12.605423 7.447235
56.946998 14.276142 7.224855
51.365167 36.58213 4.688173
50.520782 37.123493 4.191033
51.489733 38.110962 4.082088
49.166745 22.829477 23.399166
49.587177 23.695866 22.556214
48.535683 24.167654 23.676808
53.070458 15.829716 26.379669
52.914841 16.429507 25.353626
51.807282 16.698301 26.566002
54.416771 15.052849 26.213457
53.070458 15.829716 26.379669
41.854393 32.616113 41.6456
41.900011 34.088942 41.625298
41.737125 31.128327 41.601219
41.922214 31.99238 40.497558
41.854393 32.616113 41.6456
38.373095 12.658396 7.438404
37.983935 12.697363 6.779295
38.222256 14.708179 7.069985
38.733382 12.596075 8.098278
38.49506 10.585259 7.807588
38.373095 12.658396 7.438404
46.616966 9.960276 10.291943
45.699736 10.296992 10.411723
46.666265 11.915077 9.827721
47.513508 9.667706 10.193112
46.546978 8.04962 10.777114
46.616966 9.960276 10.291943
50.300717 8.661264 9.668029
49.37153 9.016752 9.861673
50.381586 10.527281 9.164929
51.231407 8.351281 9.489012
50.300717 8.661264 9.668029
56.91876 31.014885 10.909652
56.775865 32.535619 11.071614
56.721012 31.869947 11.700523
58.957826 16.521275 10.500483
58.429516 17.881155 10.784249
58.573915 17.377351 11.404078
40.53599 27.873455 6.048336
39.828747 26.209454 6.234255
39.822035 28.073327 5.62313
47.17263 32.245641 5.561395
46.197588 32.743572 5.295781
47.283892 33.937323 4.984383
53.385318 29.601731 17.200747
53.999153 30.430546 16.443399
54.442745 25.169956 16.169081
54.018399 26.621662 16.54119
53.566505 25.846966 17.246308
39.822035 28.073327 5.62313
39.093832 28.252821 5.140356
45.449517 24.671711 27.835286
45.824394 25.61297 26.933833
45.203032 23.787325 28.758858
45.985048 23.330126 27.653184
45.449517 24.671711 27.835286
42.159458 30.208601 37.081551
42.071847 30.786569 38.215099
42.679372 28.549976 33.616949
42.437523 29.085952 34.776447
42.424856 27.61045 34.62298
42.958626 28.029221 32.491805
42.679372 28.549976 33.616949
43.072502 26.574234 32.322443
42.958626 28.029221 32.491805
44.373966 19.421315 37.222162
43.910511 19.809171 38.439037
44.857285 19.00609 36.021578
44.041016 20.241953 36.145966
44.373966 19.421315 37.222162
46.92863 18.071297 32.460977
46.142239 18.33309 33.644013
46.680145 18.803606 31.415442
46.92863 18.071297 32.460977
40.039423 20.315472 7.797342
39.347231 20.525635 7.415765
39.944485 22.323727 7.316462
40.360508 12.127617 9.470327
39.729637 12.331394 9.117783
40.273395 14.204265 9.09158
54.42973 34.340693 6.485513
53.793463 34.91036 5.941046
54.48374 35.883491 6.156465
56.405338 33.545198 8.447751
56.637317 34.44903 8.965295
55.045406 30.629892 7.118458
55.59956 31.639612 7.507233
55.565064 30.045589 7.551922
54.312144 29.600725 6.8999
54.34664 31.194748 6.855211
55.045406 30.629892 7.118458
56.085875 28.206555 13.467285
55.842804 29.719591 13.79033
55.499014 28.98261 14.441841
53.985291 9.095271 8.506745
53.99663 10.82047 8.111256
53.056885 7.680354 9.15196
53.985291 9.095271 8.506745
52.409279 39.035064 3.953235
51.489733 38.110962 4.082088
50.720398 17.001488 27.749868
51.807282 16.698301 26.566002
50.564782 17.601278 26.723826
38.48155 16.713428 7.299048
38.222256 14.708179 7.069985
56.461888 31.16789 12.432758
56.721012 31.869947 11.700523
42.256293 30.926119 5.474564
41.363279 29.443518 5.781635
43.175175 30.54999 5.783378
42.256293 30.926119 5.474564
43.234186 32.326401 5.131883
52.589562 26.469074 18.354067
51.641824 27.09702 19.402635
53.013908 25.017368 17.981959
53.566505 25.846966 17.246308
52.589562 26.469074 18.354067
57.092411 17.209364 15.81923
57.21559 17.793631 14.990022
56.321246 18.430481 16.141324
57.092411 17.209364 15.81923
57.122492 16.736244 16.687202
43.193895 11.154146 10.355082
43.974367 10.895734 10.456198
55.437412 39.16484 6.303408
55.029629 39.725582 5.464593
55.544124 37.718694 6.701224
55.437412 39.16484 6.303408
55.887054 38.590551 7.015613
56.268517 16.390076 7.055708
56.785905 17.555757 7.134104
56.832056 15.889929 7.192779
55.595108 15.177393 7.115438
55.548958 16.843222 7.056763
56.268517 16.390076 7.055708
54.874555 13.909289 7.35783
55.595108 15.177393 7.115438
48.393358 35.044752 4.659974
47.283892 33.937323 4.984383
49.462 36.122387 4.433535
50.520782 37.123493 4.191033
49.327576 34.517027 5.023557
48.393358 35.044752 4.659974
49.462 36.122387 4.433535
49.994867 24.507814 21.733936
50.53039 25.388799 20.93835
50.625929 23.169638 21.456293
49.994867 24.507814 21.733936
49.587177 23.695866 22.556214
55.029949 16.762524 20.935855
56.123407 16.280387 19.729827
54.997434 17.253166 19.975428
55.038679 16.201124 21.909959
55.029949 16.762524 20.935855
53.912706 17.173903 22.15556
55.162626 15.748303 22.918003
55.038679 16.201124 21.909959
55.290916 15.222511 23.936817
55.162626 15.748303 22.918003
54.049726 16.086712 24.14848
55.500109 14.788926 24.975254
55.290916 15.222511 23.936817
55.500109 14.788926 24.975254
54.416771 15.052849 26.213457
42.174236 34.920443 40.523556
41.900011 34.088942 41.625298
42.335499 34.3402 39.472973
42.174236 34.920443 40.523556
42.124118 32.879845 39.425652
42.335499 34.3402 39.472973
42.006851 31.392057 39.381271
42.124118 32.879845 39.425652
41.922214 31.99238 40.497558
41.869943 29.899105 39.287006
42.071847 30.786569 38.215099
42.006851 31.392057 39.381271
41.734241 29.614327 41.559567
41.737125 31.128327 41.601219
41.789112 28.993817 40.364404
41.734241 29.614327 41.559567
41.854108 28.388329 39.198233
41.869943 29.899105 39.287006
41.789112 28.993817 40.364404
41.877724 26.892992 39.076151
41.958555 27.798281 37.998753
41.854108 28.388329 39.198233
42.042387 25.396607 38.960527
41.877724 26.892992 39.076151
42.298077 23.94118 38.827341
42.237859 24.847517 37.743485
42.042387 25.396607 38.960527
37.898235 10.622946 6.347353
37.983935 12.697363 6.779295
38.058797 8.603703 6.646836
37.898235 10.622946 6.347353
38.269137 8.588936 7.451101
38.058797 8.603703 6.646836
38.269137 8.588936 7.451101
38.49506 10.585259 7.807588
44.851169 10.57522 10.422372
43.974367 10.895734 10.456198
44.872232 12.572306 9.981328
44.851169 10.57522 10.422372
45.699736 10.296992 10.411723
46.464315 6.105462 11.282906
46.546978 8.04962 10.777114
47.341415 5.856404 11.222466
46.464315 6.105462 11.282906
48.367091 7.453893 10.521528
48.44796 9.31991 10.018428
49.37153 9.016752 9.861673
47.341415 5.856404 11.222466
48.367091 7.453893 10.521528
56.735459 33.826212 9.711078
56.637317 34.44903 8.965295
56.863108 33.195284 10.32809
56.775865 32.535619 11.071614
56.845964 32.311485 9.663731
56.735459 33.826212 9.711078
56.863108 33.195284 10.32809
59.239258 15.612417 9.721711
58.957826 16.521275 10.500483
58.921039 16.064255 9.213071
59.239258 15.612417 9.721711
58.731257 16.596449 8.705018
58.623644 17.557272 9.372599
58.921039 16.064255 9.213071
58.650759 15.583704 8.163489
58.353363 17.076721 8.323018
58.731257 16.596449 8.705018
58.478924 14.513146 7.797339
58.650759 15.583704 8.163489
58.132156 13.395176 7.574259
57.926097 14.946006 7.558408
58.478924 14.513146 7.797339
57.697647 12.216212 7.54309
58.132156 13.395176 7.574259
39.183543 24.471607 6.371967
38.614249 24.573927 5.832247
39.897498 24.271736 6.797174
39.183543 24.471607 6.371967
39.828747 26.209454 6.234255
40.589689 24.061574 7.17875
39.944485 22.323727 7.316462
39.897498 24.271736 6.797174
41.369991 27.579645 6.39276
40.53599 27.873455 6.048336
41.363279 29.443518 5.781635
45.230959 33.192763 5.079733
44.270283 33.633722 4.755721
45.119698 31.501081 5.656745
45.230959 33.192763 5.079733
46.197588 32.743572 5.295781
54.752998 29.71113 15.476128
53.999153 30.430546 16.443399
54.996069 28.198093 15.153083
55.499014 28.98261 14.441841
54.752998 29.71113 15.476128
53.696106 28.112642 16.902893
53.385318 29.601731 17.200747
54.572345 27.435633 15.825667
53.696106 28.112642 16.902893
54.018399 26.621662 16.54119
51.535291 24.810531 19.861866
51.032062 26.217745 20.166201
50.53039 25.388799 20.93835
58.55319 16.816124 12.105061
58.573915 17.377351 11.404078
58.024879 18.176004 12.388827
57.995455 17.093646 13.878868
57.224289 18.314763 14.200962
57.21559 17.793631 14.990022
58.683162 16.35294 12.828138
57.995455 17.093646 13.878868
58.55319 16.816124 12.105061
58.683162 16.35294 12.828138
57.154555 15.774088 18.521522
56.123407 16.280387 19.729827
38.527521 26.486235 5.229907
38.506561 28.329731 4.561214
39.093832 28.252821 5.140356
38.614249 24.573927 5.832247
38.527521 26.486235 5.229907
47.580086 24.668507 24.755127
48.535683 24.167654 23.676808
46.638227 25.12513 25.860053
45.824394 25.61297 26.933833
47.173392 23.757889 25.624686
47.580086 24.668507 24.755127
46.638227 25.12513 25.860053
42.283491 29.635006 35.912373
42.159458 30.208601 37.081551
42.058973 28.720022 36.951656
42.283491 29.635006 35.912373
42.437523 29.085952 34.776447
43.310812 25.142125 32.165443
43.072502 26.574234 32.322443
42.905016 25.642364 33.306483
43.864273 24.685341 31.013739
43.310812 25.142125 32.165443
43.696787 23.753471 31.997779
44.458874 24.212799 29.893518
43.864273 24.685341 31.013739
44.994406 22.871214 29.711416
45.203032 23.787325 28.758858
44.458874 24.212799 29.893518
42.703418 22.50534 38.699855
42.298077 23.94118 38.827341
43.235492 21.137884 38.567982
43.910511 19.809171 38.439037
43.025623 22.024634 37.478424
42.703418 22.50534 38.699855
43.235492 21.137884 38.567982
45.481299 18.688522 34.824672
44.857285 19.00609 36.021578
45.185274 19.471297 33.764721
45.481299 18.688522 34.824672
46.142239 18.33309 33.644013
46.560045 19.618188 30.3899
45.726114 19.930446 31.558519
46.680145 18.803606 31.415442
47.438482 19.255851 29.239241
46.484451 20.382692 29.38232
46.560045 19.618188 30.3899
48.495987 18.197906 29.077257
48.420393 18.96241 28.069676
47.438482 19.255851 29.239241
49.676524 17.234282 28.941937
48.495987 18.197906 29.077257
50.720398 17.001488 27.749868
49.676524 17.234282 28.941937
38.896927 18.637512 7.382822
39.347231 20.525635 7.415765
39.026792 16.593296 7.81287
38.48155 16.713428 7.299048
38.896927 18.637512 7.382822
39.248936 12.46549 8.60325
38.733382 12.596075 8.098278
39.12697 14.538628 8.234066
39.248936 12.46549 8.60325
39.729637 12.331394 9.117783
42.379702 11.449877 10.277669
43.181236 13.188551 9.937741
43.193895 11.154146 10.355082
41.685272 11.679927 10.047855
42.379702 11.449877 10.277669
41.697931 9.645522 10.465196
40.953884 11.93803 9.839753
41.635655 13.742386 9.652226
41.685272 11.679927 10.047855
40.360508 12.127617 9.470327
40.953884 11.93803 9.839753
53.119835 38.490799 4.60293
52.409279 39.035064 3.953235
54.500017 38.852491 5.307826
55.029629 39.725582 5.464593
53.876513 37.932579 5.119315
54.500017 38.852491 5.307826
54.470978 37.373071 5.800508
53.090795 37.011379 5.095612
53.119835 38.490799 4.60293
53.876513 37.932579 5.119315
52.947824 33.930338 5.894439
53.001835 35.473136 5.565391
53.793463 34.91036 5.941046
52.85906 32.323649 6.217296
52.067432 32.886425 5.841641
52.947824 33.930338 5.894439
56.275043 36.550026 8.148651
56.136893 38.009183 7.87996
56.043064 35.646195 7.631106
56.275043 36.550026 8.148651
55.606184 34.730904 7.274857
55.556887 36.229114 7.05718
56.043064 35.646195 7.631106
56.105789 32.601647 7.89474
56.405338 33.545198 8.447751
56.418766 31.998861 8.493708
56.105789 32.601647 7.89474
55.59956 31.639612 7.507233
55.099955 33.768869 6.88735
55.606184 34.730904 7.274857
54.42973 34.340693 6.485513
55.099955 33.768869 6.88735
53.676414 31.766571 6.453373
54.34664 31.194748 6.855211
52.796022 30.722659 6.400576
52.85906 32.323649 6.217296
53.676414 31.766571 6.453373
56.244766 30.465052 13.071365
55.842804 29.719591 13.79033
56.646786 29.646374 12.177168
56.461888 31.16789 12.432758
56.244766 30.465052 13.071365
54.039337 12.594805 7.709874
54.04033 14.316056 7.468537
54.874555 13.909289 7.35783
53.162405 11.227237 8.221963
54.039337 12.594805 7.709874
53.99663 10.82047 8.111256
52.13587 7.991836 9.315043
51.231407 8.351281 9.489012
52.215235 9.812347 8.797315
52.13587 7.991836 9.315043
53.056885 7.680354 9.15196
56.995195 12.605423 7.447235
57.697647 12.216212 7.54309
3 0 41 39
3 0 43 41
3 1 46 44
3 1 48 46
3 146 50 147
3 3 53 51
3 3 55 53
3 148 56 149
3 5 59 57
3 5 150 152
3 152 151 59
3 150 151 152
3 5 153 154
3 6 62 60
3 6 64 62
3 2 67 65
3 155 69 156
3 7 72 70
3 7 74 72
3 4 77 75
3 8 80 78
3 8 157 159
3 159 158 80
3 157 158 159
3 8 160 161
3 10 162 164
3 162 82 163
3 162 163 164
3 10 83 82
3 11 165 167
3 165 85 166
3 165 166 167
3 13 86 40
3 13 87 86
3 13 88 87
3 168 89 169
3 170 169 42
3 168 169 170
3 172 171 89
3 173 90 174
3 175 91 176
3 177 176 90
3 175 176 177
3 15 178 180
3 178 92 179
3 178 179 180
3 15 181 183
3 183 182 92
3 181 182 183
3 16 95 93
3 18 96 45
3 18 184 186
3 186 185 96
3 184 185 186
3 18 187 189
3 187 97 188
3 187 188 189
3 19 190 192
3 192 191 47
3 190 191 192
3 19 193 194
3 21 195 197
3 195 98 196
3 195 196 197
3 21 99 98
3 198 102 199
3 200 199 100
3 198 199 200
3 201 104 202
3 203 202 103
3 201 202 203
3 24 105 49
3 24 106 105
3 9 204 206
3 204 107 205
3 204 205 206
3 25 108 52
3 25 109 108
3 25 110 109
3 26 111 54
3 26 112 111
3 207 113 208
3 28 209 211
3 209 114 210
3 209 210 211
3 28 115 114
3 12 116 84
3 29 117 58
3 29 118 117
3 29 119 118
3 212 103 213
3 214 120 215
3 216 121 217
3 218 217 120
3 216 217 218
3 14 219 220
3 30 221 223
3 223 222 61
3 221 222 223
3 30 224 225
3 30 226 227
3 31 122 63
3 31 123 122
3 228 124 229
3 230 125 231
3 232 231 124
3 230 231 232
3 233 126 234
3 236 235 126
3 23 237 239
3 237 127 238
3 237 238 239
3 32 128 66
3 32 240 242
3 242 241 128
3 240 241 242
3 17 129 94
3 33 130 68
3 33 243 245
3 245 244 130
3 243 244 245
3 20 246 247
3 34 248 250
3 250 249 71
3 248 249 250
3 34 251 253
3 251 131 252
3 251 252 253
3 34 132 131
3 35 133 73
3 35 134 133
3 27 254 256
3 254 135 255
3 254 255 256
3 36 136 76
3 36 137 136
3 22 138 101
3 37 139 79
3 37 140 139
3 37 141 140
3 38 142 81
3 38 143 142
3 38 144 143
3 257 145 258
3 260 259 145
3 261 10 262
3 39 40 11
3 41 40 39
3 41 13 40
3 41 42 13
3 43 42 41
3 43 263 265
3 265 264 42
3 263 264 265
3 266 15 267
3 44 45 16
3 46 45 44
3 46 18 45
3 46 47 18
3 48 47 46
3 48 19 47
3 268 21 269
3 270 49 271
3 50 272 274
3 272 49 273
3 272 273 274
3 50 24 49
3 51 52 9
3 53 52 51
3 53 25 52
3 53 54 25
3 55 54 53
3 55 26 54
3 56 275 276
3 56 277 279
3 277 28 278
3 277 278 279
3 57 58 12
3 59 58 57
3 59 29 58
3 59 280 282
3 282 281 29
3 280 281 282
3 284 283 59
3 60 61 14
3 62 61 60
3 62 30 61
3 62 63 30
3 64 63 62
3 64 31 63
3 65 66 23
3 67 66 65
3 67 32 66
3 286 285 17
3 287 68 288
3 69 289 291
3 289 68 290
3 289 290 291
3 69 33 68
3 70 71 20
3 72 71 70
3 72 34 71
3 72 73 34
3 74 73 72
3 74 35 73
3 75 76 27
3 77 76 75
3 77 36 76
3 78 79 22
3 80 79 78
3 80 37 79
3 80 81 37
3 292 81 293
3 294 293 80
3 292 293 294
3 295 38 296
3 297 296 81
3 295 296 297
3 299 298 38
3 300 9 301
3 82 302 303
3 82 304 306
3 304 9 305
3 304 305 306
3 82 51 9
3 83 51 82
3 83 3 51
3 307 84 308
3 85 309 311
3 309 84 310
3 309 310 311
3 85 12 84
3 40 85 11
3 86 85 40
3 86 12 85
3 86 57 12
3 87 57 86
3 87 5 57
3 87 312 314
3 314 313 5
3 312 313 314
3 88 315 317
3 317 316 87
3 315 316 317
3 88 318 319
3 42 88 13
3 89 88 42
3 89 320 322
3 322 321 88
3 320 321 322
3 89 323 324
3 326 325 89
3 90 327 328
3 90 329 330
3 90 331 332
3 91 333 335
3 335 334 90
3 333 334 335
3 91 336 338
3 336 14 337
3 336 337 338
3 339 91 340
3 341 91 342
3 343 14 344
3 345 344 91
3 343 344 345
3 346 60 347
3 348 347 14
3 346 347 348
3 349 60 350
3 351 6 352
3 353 352 60
3 351 352 353
3 92 354 355
3 92 356 357
3 92 358 359
3 361 360 92
3 93 94 2
3 95 94 93
3 95 17 94
3 45 95 16
3 96 95 45
3 96 17 95
3 96 362 364
3 364 363 17
3 362 363 364
3 366 365 96
3 97 367 368
3 97 369 370
3 47 97 18
3 371 97 372
3 373 372 47
3 371 372 373
3 375 374 97
3 376 20 377
3 98 378 379
3 98 380 382
3 380 20 381
3 380 381 382
3 98 70 20
3 99 70 98
3 99 7 70
3 100 101 4
3 102 101 100
3 102 22 101
3 383 102 384
3 385 102 386
3 387 22 388
3 389 388 102
3 387 388 389
3 390 78 391
3 392 391 22
3 390 391 392
3 393 78 394
3 395 8 396
3 397 396 78
3 395 396 397
3 399 398 8
3 103 400 401
3 104 402 404
3 404 403 103
3 402 403 404
3 104 405 407
3 405 23 406
3 405 406 407
3 49 408 410
3 408 104 409
3 408 409 410
3 105 104 49
3 105 23 104
3 105 65 23
3 106 65 105
3 106 2 65
3 411 50 412
3 107 413 415
3 413 50 414
3 413 414 415
3 107 24 50
3 52 107 9
3 108 107 52
3 108 24 107
3 108 106 24
3 109 106 108
3 109 2 106
3 109 93 2
3 110 93 109
3 110 16 93
3 54 110 25
3 111 110 54
3 111 16 110
3 111 44 16
3 112 44 111
3 112 1 44
3 113 416 417
3 113 418 420
3 418 27 419
3 418 419 420
3 421 113 422
3 114 423 425
3 423 113 424
3 423 424 425
3 114 27 113
3 114 75 27
3 115 75 114
3 115 4 75
3 84 426 428
3 426 56 427
3 426 427 428
3 116 56 84
3 116 28 56
3 58 116 12
3 117 116 58
3 117 28 116
3 117 115 28
3 118 115 117
3 118 4 115
3 118 100 4
3 119 100 118
3 119 429 431
3 431 430 100
3 429 430 431
3 432 119 433
3 434 433 29
3 432 433 434
3 435 119 436
3 438 437 119
3 440 439 5
3 103 441 443
3 441 442 443
3 103 444 445
3 446 11 447
3 120 448 449
3 120 450 452
3 450 11 451
3 450 451 452
3 120 39 11
3 121 39 120
3 121 0 39
3 61 453 455
3 455 454 14
3 453 454 455
3 457 456 61
3 63 458 460
3 460 459 30
3 458 459 460
3 122 461 463
3 463 462 63
3 461 462 463
3 122 464 465
3 122 466 468
3 466 121 467
3 466 467 468
3 123 121 122
3 123 0 121
3 469 6 470
3 124 471 472
3 124 473 475
3 473 6 474
3 473 474 475
3 124 64 6
3 125 64 124
3 125 31 64
3 476 125 477
3 126 478 480
3 478 125 479
3 478 479 480
3 126 31 125
3 126 123 31
3 481 123 482
3 483 482 126
3 481 482 483
3 484 0 485
3 486 485 123
3 484 485 486
3 487 43 488
3 489 488 0
3 487 488 489
3 490 43 491
3 493 492 43
3 127 494 495
3 127 496 498
3 496 15 497
3 496 497 498
3 66 127 23
3 128 127 66
3 128 15 127
3 128 499 501
3 501 500 15
3 499 500 501
3 503 502 128
3 94 67 2
3 129 67 94
3 129 32 67
3 504 129 505
3 506 505 17
3 504 505 506
3 507 129 508
3 507 508 509
3 510 32 511
3 512 511 129
3 510 511 512
3 514 513 32
3 515 10 516
3 68 517 518
3 130 519 521
3 521 520 68
3 519 520 521
3 130 522 524
3 522 10 523
3 522 523 524
3 130 83 10
3 525 83 526
3 527 526 130
3 525 526 527
3 528 3 529
3 530 529 83
3 528 529 530
3 531 69 532
3 533 69 534
3 535 33 536
3 537 536 69
3 535 536 537
3 71 538 540
3 540 539 20
3 538 539 540
3 542 541 71
3 543 33 544
3 546 545 33
3 131 547 548
3 131 549 551
3 549 3 550
3 549 550 551
3 131 55 3
3 132 55 131
3 132 26 55
3 73 132 34
3 133 132 73
3 133 26 132
3 133 112 26
3 134 112 133
3 134 1 112
3 135 552 553
3 135 554 556
3 554 21 555
3 554 555 556
3 76 135 27
3 136 135 76
3 136 21 135
3 136 99 21
3 137 99 136
3 137 7 99
3 101 77 4
3 138 77 101
3 138 36 77
3 79 138 22
3 139 138 79
3 139 36 138
3 139 137 36
3 140 137 139
3 140 7 137
3 140 74 7
3 141 74 140
3 141 35 74
3 81 141 37
3 142 141 81
3 142 35 141
3 142 134 35
3 143 134 142
3 143 1 134
3 143 48 1
3 144 48 143
3 144 19 48
3 557 144 558
3 559 558 38
3 557 558 559
3 145 560 562
3 560 144 561
3 560 561 562
3 145 19 144
3 145 563 565
3 565 564 19
3 563 564 565
3 567 566 145
3 569 568 8
