ply
format ascii 1.0
element vertex 711
property float x
property float y
property float z
element face 717
property list uchar int vertex_index
end_header
-35.858448 -26.456223 -40.717564
-40.031567 -81.838455 -26.799374
-38.808308 -51.995644 -33.808342
-36.408699 2.808485 -58.03315
-30.947779 -84.855484 -24.225933
-31.975267 -68.749191 -26.407295
-39.614773 -67.098618 -30.230389
-33.657696 -15.549621 -46.753582
-41.250294 -22.430843 -44.006615
-47.339684 -49.824242 -35.877884
-38.319729 -37.201416 -37.301041
-27.735226 -65.971985 -21.750072
-33.298153 -52.288334 -29.894562
-32.927296 -37.273296 -34.490082
-35.159283 -90.920837 -25.160561
-30.196171 -92.376205 -23.739368
-35.521255 -83.761017 -26.091106
-35.563919 -76.195786 -27.249119
-39.99054 -74.552475 -28.485291
-33.280495 -0.40587 -55.987587
-38.106251 -3.073919 -56.034035
-34.920937 -5.985421 -53.348373
-36.555813 -11.851168 -49.677528
-32.033951 -9.864916 -50.117393
-47.807648 -56.89962 -33.286873
-35.33242 -60.499786 -30.279285
-32.60841 -60.476326 -28.025295
-35.541592 -52.555443 -32.039616
-35.80761 -44.795197 -33.880188
-38.653214 -44.428875 -35.555264
-32.004208 4.910036 -57.04557
-23.998787 -99.972107 -21.822338
-25.467003 -92.60788 -21.659409
-26.914326 -84.654984 -21.947292
-28.271656 -76.348091 -22.728172
-31.487801 -76.922028 -25.116806
-35.39999 -68.411499 -28.653664
-39.132774 -59.580032 -32.019409
-35.077045 -21.382637 -43.365688
-40.97826 -15.530607 -48.179665
-37.789509 -18.071627 -45.730774
-38.180702 -24.485022 -42.178871
-44.161335 -72.63295 -28.443813
-43.959484 -65.409531 -30.794994
-43.489864 -58.176537 -33.026566
-42.934227 -50.916077 -35.078606
-46.61924 -42.645618 -38.11797
-42.367123 -43.577065 -36.940136
-41.616817 -36.332886 -38.695103
-40.321873 -29.707129 -40.465485
-37.357262 -30.888704 -39.111149
-28.994566 -57.504955 -23.576439
-29.585985 -67.878853 -23.967854
-30.779259 -59.416798 -25.634109
-37.712433 -86.438629 -25.983738
-35.375107 -87.406815 -25.598793
-37.822708 -82.866028 -26.624626
-37.84573 -79.192642 -27.301949
-40.058147 -78.229797 -27.633671
-31.869759 -2.335974 -54.512161
-34.078682 -3.166008 -54.838364
-32.625404 -5.035498 -53.280609
-33.434475 -7.807158 -51.768433
-37.044262 -56.253963 -32.103672
-35.405304 -56.521881 -31.148338
-37.040043 -52.366821 -32.9842
-37.082932 -48.500145 -33.867153
-38.723896 -48.196426 -34.68692
-30.293165 5.256231 -55.944351
-30.664465 2.832541 -55.885643
-26.617411 -99.785416 -22.771935
-30.599514 -88.680603 -23.934612
-27.767258 -92.66684 -22.728737
-28.321335 -88.862732 -22.853325
-26.202156 -88.68985 -21.741814
-28.836048 -84.93277 -23.091259
-29.311392 -80.904709 -23.446751
-31.2388 -80.928047 -24.619358
-37.633526 -71.663116 -28.765442
-35.490253 -72.323715 -27.920422
-37.44833 -67.844963 -29.553864
-37.263779 -64.001968 -30.378166
-39.367737 -63.346973 -31.121254
-40.470947 -12.265776 -50.371635
-35.056046 -13.58877 -48.22076
-37.249989 -14.919641 -47.690166
-35.775192 -16.592915 -46.358681
-36.360493 -19.63728 -44.551407
-34.419594 -18.471901 -45.023014
-46.096432 -68.201111 -29.353718
-44.103092 -69.028778 -29.629597
-46.029255 -64.628609 -30.694824
-45.677326 -57.488861 -33.242622
-45.423923 -53.921787 -34.424286
-43.213242 -54.555336 -34.077526
-46.130081 -39.012917 -39.133739
-44.457973 -43.094299 -37.550652
-44.03315 -39.450417 -38.483475
-41.999645 -29.041691 -41.227821
-40.94067 -26.033897 -42.155838
-39.366699 -26.866619 -41.349922
-39.648483 -23.418995 -43.057983
-25.834839 -69.015579 -20.127132
-26.750977 -64.727478 -20.832256
-27.443953 -60.48019 -21.721313
-28.471516 -61.71014 -22.579571
-30.206568 -72.649048 -24.500435
-28.932865 -72.123535 -23.293667
-30.666424 -68.461472 -25.183609
-32.968971 -56.356628 -28.930557
-31.626623 -60.068386 -26.818398
-32.064487 -55.914333 -27.76112
-31.222336 -55.254005 -26.632294
-32.54155 -47.856796 -29.913258
-33.523186 -48.308437 -30.922356
-37.086765 -40.995979 -35.655682
-35.794231 -41.092903 -34.846588
-36.910015 -37.472137 -36.584545
-36.543926 -34.187744 -37.550312
-37.934673 -33.886345 -38.199852
-32.977104 -88.176712 -24.885605
-33.201229 -84.447495 -25.260361
-33.351509 -80.616325 -25.715496
-35.582485 -80.014923 -26.64019
-37.777153 -75.450378 -28.015121
-39.834572 -70.836029 -29.351192
-34.790745 1.304403 -57.191589
-37.229439 -0.118898 -57.259468
-35.612473 -1.531775 -56.195503
-36.479225 -4.410864 -54.798485
-38.136478 -10.358863 -51.115372
-35.762333 -8.875566 -51.596909
-34.25909 -10.657099 -50.053345
-32.846111 -12.672255 -48.477467
-47.948051 -60.432194 -31.869858
-33.659161 -64.68309 -28.360817
-32.269176 -64.615685 -27.181255
-33.826305 -60.620663 -29.196156
-34.055344 -56.561008 -30.077408
-34.313087 -52.532291 -30.996403
-34.538403 -48.570377 -31.953106
-35.698082 -48.63253 -32.948689
-37.121433 -44.692604 -34.754379
-38.540241 -40.742016 -36.422375
-32.572506 2.29347 -56.736076
-31.203547 0.291258 -55.397339
-29.959309 -1.916124 -53.812462
-27.189583 -96.316467 -22.707329
-24.723492 -96.378326 -21.69175
-27.601736 -80.532532 -22.277302
-29.761152 -76.803146 -23.91848
-31.722721 -72.856873 -25.71537
-33.439999 -76.707626 -26.254837
-33.495552 -72.740128 -26.879086
-33.556412 -68.727821 -27.584175
-35.335758 -64.467407 -29.443424
-37.120129 -60.136654 -31.231541
-38.941479 -55.795216 -32.917664
-37.538757 -89.875107 -25.381481
-39.925617 -85.341263 -25.988773
-32.386112 -17.706635 -45.256191
-33.96373 -23.354319 -42.104645
-35.5751 -24.159723 -41.87302
-34.631226 -26.02676 -40.732574
-41.253189 -18.922174 -46.028862
-38.820976 -13.472163 -49.033623
-39.336075 -16.695198 -46.93845
-39.627636 -20.019279 -44.925488
-38.117863 -21.275782 -43.878399
-36.752007 -22.656364 -42.872681
-36.880219 -25.549503 -41.374252
-42.160851 -77.206116 -27.609272
-42.131496 -73.587456 -28.625439
-42.009747 -69.929962 -29.640057
-41.808842 -66.257858 -30.647121
-45.884697 -61.055489 -31.995808
-43.746864 -61.791588 -31.930073
-41.556187 -62.581593 -31.642246
-41.285271 -58.899746 -32.620686
-41.026424 -55.204754 -33.576778
-40.798229 -51.490879 -34.50547
-48.791496 -42.272415 -38.631672
-44.818062 -46.73082 -36.573452
-42.656593 -47.253365 -36.030346
-40.600845 -47.762451 -35.405106
-40.412659 -44.040535 -36.279976
-40.191582 -40.366791 -37.140934
-39.881889 -36.803978 -38.002529
-41.061142 -32.897598 -39.574657
-39.426228 -33.433556 -38.876026
-38.780701 -30.352577 -39.758457
-37.928497 -27.675282 -40.618126
-36.615051 -28.327284 -39.99313
-27.841333 -71.312576 -22.1404
-28.6457 -67.035187 -22.808613
-31.145773 -64.260193 -25.958565
-30.214369 -63.635048 -24.74762
-29.363037 -62.772846 -23.603561
-29.940435 -58.551483 -24.534248
-31.48571 -47.23708 -28.985535
-33.376755 -40.768913 -33.211941
-34.654388 -44.717007 -32.956154
-34.587906 -41.015709 -34.019726
-34.291172 -37.504601 -35.157726
-35.178143 -34.291786 -36.941277
-35.986053 -31.205488 -38.55069
-35.302189 -28.556215 -39.578773
-31.593292 -4.760472 -53.066349
-32.247582 -3.685736 -53.896385
-31.215469 -3.41071 -53.682125
-31.943512 -6.085585 -52.439796
-31.593292 -4.760472 -53.066349
-29.650222 5.204051 -55.193283
-30.211793 6.384097 -55.752018
-29.723782 4.093409 -55.293949
-29.650222 5.204051 -55.193283
-27.96618 -99.527817 -23.181151
-26.35222 -101.419136 -22.834043
-37.673437 1.953982 -57.985641
-37.277493 3.46777 -58.233574
-40.128046 -10.692296 -51.431106
-41.329408 -11.78217 -51.010467
-47.056208 -66.084396 -29.872879
-47.051367 -67.846638 -29.113771
-47.02262 -64.298146 -30.543432
-46.062843 -66.41486 -30.024271
-47.056208 -66.084396 -29.872879
-46.381804 -51.873014 -35.151085
-46.513498 -53.644899 -34.525381
-47.471379 -51.596126 -35.25218
-46.238179 -50.082068 -35.706136
-45.280298 -52.13084 -34.979337
-46.381804 -51.873014 -35.151085
-45.824909 -37.200661 -39.62276
-46.864681 -37.008686 -39.986135
-44.776443 -37.419411 -39.297629
-45.081615 -39.231667 -38.808607
-45.824909 -37.200661 -39.62276
-43.771137 -37.647255 -38.938997
-44.776443 -37.419411 -39.297629
-41.095482 -24.23237 -43.081226
-41.791418 -25.64626 -42.59503
-41.94623 -23.844733 -43.520418
-32.845915 -52.0599 -29.342438
-32.229082 -53.8729 -28.275717
-32.68132 -54.101333 -28.827841
-33.410669 -50.298385 -30.408459
-32.958432 -50.069952 -29.856335
-32.845915 -52.0599 -29.342438
-32.585633 -35.625768 -35.172243
-32.199277 -37.098028 -34.181557
-33.342709 -35.73901 -35.434444
-32.585633 -35.625768 -35.172243
-33.922999 -91.348145 -24.873072
-33.75717 -93.067902 -24.756394
-36.129459 -6.665515 -53.210869
-36.908603 -5.878236 -53.935924
-35.700081 -5.198142 -54.073429
-35.341635 -7.430493 -52.472641
-36.550157 -8.110587 -52.335136
-36.129459 -6.665515 -53.210869
-32.757084 5.8502 -57.432975
-31.815707 6.153773 -56.972435
-33.037184 4.500084 -57.392849
-32.757084 5.8502 -57.432975
-32.288357 3.601753 -56.890823
-33.321333 3.191801 -57.238102
-33.037184 4.500084 -57.392849
-30.34245 0.427111 -54.910797
-30.934006 1.561899 -55.641491
-30.07291 1.697752 -55.154949
-29.720332 -0.676581 -54.118358
-30.581428 -0.812433 -54.6049
-30.34245 0.427111 -54.910797
-22.346731 -101.650253 -21.449571
-23.66359 -101.668556 -21.923731
-22.758673 -99.886657 -21.328472
-22.346731 -101.650253 -21.449571
-28.692877 -94.346336 -23.223349
-28.473407 -96.115425 -23.168663
-29.976701 -94.145294 -23.684683
-23.93931 -94.342529 -21.165627
-23.567554 -96.227753 -21.181797
-25.095247 -94.493103 -21.675579
-24.402756 -92.396614 -21.13623
-23.93931 -94.342529 -21.165627
-25.59326 -86.406807 -21.30997
-25.237175 -88.42424 -21.207231
-26.558241 -86.672417 -21.844553
-26.05521 -84.342591 -21.401867
-25.59326 -86.406807 -21.30997
-27.258031 -82.593758 -22.112297
-26.398915 -82.281364 -21.566871
-26.05521 -84.342591 -21.401867
-38.655319 -89.287247 -25.29554
-37.438459 -91.508713 -25.099735
-39.848749 -87.020325 -25.599186
-38.732187 -87.608185 -25.685127
-38.655319 -89.287247 -25.29554
-31.824932 -18.87064 -44.474702
-31.392351 -17.488132 -45.239486
-32.796495 -19.127672 -44.448747
-31.824932 -18.87064 -44.474702
-33.48646 -24.486371 -41.396278
-33.056278 -23.091227 -42.132464
-33.820208 -25.822592 -40.710243
-34.297478 -24.690539 -41.41861
-33.48646 -24.486371 -41.396278
-38.955916 -2.51054 -56.495697
-38.51751 -1.03303 -57.108413
-37.667845 -1.596409 -56.646752
-41.975937 -16.772263 -47.679907
-41.838757 -15.060313 -48.802307
-41.115724 -17.226391 -47.104264
-42.113401 -18.468046 -46.604506
-41.975937 -16.772263 -47.679907
-44.147054 -74.41201 -27.847192
-45.121122 -72.191334 -28.216568
-43.161093 -74.919533 -28.026542
-43.146812 -76.698593 -27.429922
-44.147054 -74.41201 -27.847192
-47.705368 -42.459017 -38.374821
-48.530079 -40.458847 -39.197233
-47.44395 -40.645449 -38.940382
-46.817385 -44.449148 -37.578442
-47.903513 -44.262546 -37.835293
-47.705368 -42.459017 -38.374821
-45.718651 -44.688219 -37.345711
-45.916796 -46.491749 -36.806183
-46.817385 -44.449148 -37.578442
-40.904199 -38.349839 -37.918019
-41.113438 -40.142647 -37.48161
-41.826055 -38.125695 -38.258694
-28.432273 -56.906872 -23.189873
-27.656967 -58.394489 -22.26231
-28.219259 -58.992573 -22.648876
-29.12585 -55.449083 -24.160618
-28.432273 -56.906872 -23.189873
-27.629266 -75.966049 -22.160483
-27.187023 -78.089153 -21.946155
-30.769989 -54.828646 -26.120558
-31.349632 -53.217771 -27.190354
-31.481319 -49.209309 -28.366974
-30.963996 -48.801505 -27.907425
-32.494946 -45.942143 -30.524891
-33.055014 -46.156562 -30.968872
-33.472617 -42.612621 -32.618214
-32.912548 -42.398201 -32.174233
-35.091106 -39.296452 -34.941397
-35.191069 -41.054306 -34.433157
-35.694269 -39.335048 -35.354828
-34.94274 -37.540897 -35.510397
-34.439539 -39.260155 -34.588726
-35.091106 -39.296452 -34.941397
-35.386225 -35.93449 -36.402172
-34.734657 -35.898194 -36.049501
-34.94274 -37.540897 -35.510397
-34.933808 -29.904257 -38.833927
-34.562098 -28.478637 -39.453445
-32.348047 -7.471415 -51.683709
-33.029939 -6.421328 -52.524521
-31.943512 -6.085585 -52.439796
-31.647786 -8.500294 -50.858188
-32.734213 -8.836037 -50.942913
-32.348047 -7.471415 -51.683709
-30.960186 6.326871 -56.421825
-30.211793 6.384097 -55.752018
-31.148686 5.083133 -56.49496
-31.815707 6.153773 -56.972435
-30.960186 6.326871 -56.421825
-29.909433 2.881565 -55.264595
-30.478815 4.044386 -55.914997
-29.723782 4.093409 -55.293949
-30.07291 1.697752 -55.154949
-29.909433 2.881565 -55.264595
-24.972903 -101.57521 -22.39853
-26.35222 -101.419136 -22.834043
-25.308099 -99.878761 -22.297137
-23.66359 -101.668556 -21.923731
-24.972903 -101.57521 -22.39853
-39.392971 -4.042801 -55.781586
-38.541987 -4.569581 -55.224556
-41.5851 -13.427898 -49.898292
-41.329408 -11.78217 -51.010467
-40.724604 -13.898191 -49.27565
-41.838757 -15.060313 -48.802307
-41.5851 -13.427898 -49.898292
-46.088671 -69.975414 -28.67152
-47.051367 -67.846638 -29.113771
-45.128884 -70.41703 -28.898765
-45.121122 -72.191334 -28.216568
-46.088671 -69.975414 -28.67152
-46.6402 -55.428436 -33.934549
-46.742487 -57.19424 -33.264747
-47.70536 -55.133815 -33.956674
-45.550624 -55.705324 -33.833454
-46.6402 -55.428436 -33.934549
-46.513498 -53.644899 -34.525381
-44.174958 -52.447615 -34.805957
-44.318583 -54.238562 -34.250906
-45.280298 -52.13084 -34.979337
-44.03545 -50.627985 -35.306497
-43.073735 -52.735706 -34.578066
-44.174958 -52.447615 -34.805957
-47.199371 -38.829098 -39.448267
-46.864681 -37.008686 -39.986135
-46.37466 -40.829268 -38.625855
-47.44395 -40.645449 -38.940382
-47.199371 -38.829098 -39.448267
-43.034222 -39.68446 -38.15288
-42.201208 -41.747784 -37.381211
-43.200136 -41.513741 -37.711805
-43.034222 -39.68446 -38.15288
-43.771137 -37.647255 -38.938997
-42.562971 -36.08849 -39.044812
-41.826055 -38.125695 -38.258694
-42.320906 -27.150157 -42.131022
-42.902449 -28.732638 -41.639665
-41.470157 -27.537794 -41.691829
-42.320906 -27.150157 -42.131022
-41.791418 -25.64626 -42.59503
-25.288923 -68.311996 -19.724716
-24.735726 -70.463448 -19.437297
-25.746992 -66.167946 -20.077278
-25.288923 -68.311996 -19.724716
-26.292908 -66.871529 -20.479694
-26.18741 -64.029103 -20.459716
-25.746992 -66.167946 -20.077278
-27.097465 -62.603834 -21.276784
-26.533898 -61.905459 -20.904245
-26.18741 -64.029103 -20.459716
-31.808006 -53.542736 -27.711304
-31.643411 -55.584169 -27.196707
-32.229082 -53.8729 -28.275717
-31.349632 -53.217771 -27.190354
-31.808006 -53.542736 -27.711304
-32.467613 -49.844132 -29.351786
-32.009239 -49.519167 -28.830835
-33.032368 -48.082617 -30.417807
-32.467613 -49.844132 -29.351786
-32.958432 -50.069952 -29.856335
-33.545832 -46.382383 -31.473422
-33.055014 -46.156562 -30.968872
-33.032368 -48.082617 -30.417807
-36.252161 -37.524665 -36.223806
-35.694269 -39.335048 -35.354828
-36.352123 -39.28252 -35.715566
-36.726971 -35.82994 -37.067428
-36.069116 -35.882469 -36.70669
-36.252161 -37.524665 -36.223806
-31.441443 -92.075829 -24.162475
-29.976701 -94.145294 -23.684683
-34.030911 -89.591133 -25.092188
-33.922999 -91.348145 -24.873072
-35.267195 -89.163826 -25.379677
-32.831909 -89.976082 -24.735594
-34.030911 -89.591133 -25.092188
-34.176105 -87.791764 -25.242199
-31.586637 -90.276458 -24.312486
-31.441443 -92.075829 -24.162475
-32.831909 -89.976082 -24.735594
-37.728473 -5.238054 -54.606781
-38.541987 -4.569581 -55.224556
-37.292738 -3.742392 -55.41626
-37.728473 -5.238054 -54.606781
-36.908603 -5.878236 -53.935924
-37.73723 -8.852235 -52.094368
-38.960811 -9.738839 -51.802975
-36.949405 -9.617214 -51.35614
-37.73723 -8.852235 -52.094368
-36.550157 -8.110587 -52.335136
-48.945674 -60.192299 -31.731573
-47.982017 -62.199938 -31.130949
-48.908622 -58.439028 -32.526996
-48.945674 -60.192299 -31.731573
-48.838421 -56.672741 -33.235504
-47.877849 -58.665907 -32.578366
-48.908622 -58.439028 -32.526996
-48.76462 -54.9176 -33.990727
-48.838421 -56.672741 -33.235504
-47.70536 -55.133815 -33.956674
-48.76462 -54.9176 -33.990727
-48.41943 -49.618507 -35.993225
-47.471379 -51.596126 -35.25218
-42.107492 -22.002713 -44.516075
-41.94623 -23.844733 -43.520418
-25.291981 -71.16745 -19.857048
-24.735726 -70.463448 -19.437297
-26.338023 -69.63861 -20.601169
-25.291981 -71.16745 -19.857048
-27.288217 -68.116814 -21.412639
-26.785032 -67.493782 -20.938602
-26.338023 -69.63861 -20.601169
-32.506813 -38.824529 -33.475138
-32.199277 -37.098028 -34.181557
-36.058689 4.248933 -58.180359
-37.277493 3.46777 -58.233574
-35.239429 3.449308 -57.886639
-36.058689 4.248933 -58.180359
-34.88942 4.889756 -58.033848
-34.430453 2.697267 -57.465858
-35.599722 2.056444 -57.612369
-35.239429 3.449308 -57.886639
-33.681625 1.798936 -56.963832
-34.430453 2.697267 -57.465858
-33.321333 3.191801 -57.238102
-30.260244 -3.200785 -53.332275
-31.215469 -3.41071 -53.682125
-30.914534 -2.126049 -54.162312
-28.187321 -97.849899 -23.200966
-27.96618 -99.527817 -23.181151
-26.903497 -98.050941 -22.739632
-28.187321 -97.849899 -23.200966
-28.473407 -96.115425 -23.168663
-23.121026 -98.089767 -21.263178
-22.758673 -99.886657 -21.328472
-24.36114 -98.175217 -21.757044
-23.121026 -98.089767 -21.263178
-23.567554 -96.227753 -21.181797
-24.770332 -90.4376 -21.177433
-24.402756 -92.396614 -21.13623
-25.834579 -90.648865 -21.700612
-24.770332 -90.4376 -21.177433
-25.237175 -88.42424 -21.207231
-26.852063 -80.181374 -21.72072
-26.398915 -82.281364 -21.566871
-27.936696 -78.440312 -22.502737
-27.187023 -78.089153 -21.946155
-26.852063 -80.181374 -21.72072
-35.032132 -92.596504 -24.966341
-33.75717 -93.067902 -24.756394
-36.221868 -92.073639 -25.076801
-37.438459 -91.508713 -25.099735
-36.34902 -90.397972 -25.271021
-35.032132 -92.596504 -24.966341
-36.221868 -92.073639 -25.076801
-29.207935 -1.900618 -53.278847
-29.720332 -0.676581 -54.118358
-29.404496 -3.115395 -52.936813
-29.207935 -1.900618 -53.278847
-30.260244 -3.200785 -53.332275
-29.404496 -3.115395 -52.936813
-31.021902 -9.65382 -49.980896
-31.647786 -8.500294 -50.858188
-31.389413 -10.997086 -49.270491
-31.021902 -9.65382 -49.980896
-31.795493 -12.400756 -48.450527
-32.440031 -11.268586 -49.29743
-31.389413 -10.997086 -49.270491
-32.197898 -13.780701 -47.675303
-31.795493 -12.400756 -48.450527
-32.60369 -15.219385 -46.81336
-33.251903 -14.110938 -47.615524
-32.197898 -13.780701 -47.675303
-31.967898 -16.297891 -46.064664
-31.392351 -17.488132 -45.239486
-33.021904 -16.628128 -46.004886
-32.60369 -15.219385 -46.81336
-31.967898 -16.297891 -46.064664
-33.813237 -19.510306 -44.332159
-33.402853 -18.089268 -45.139603
-32.796495 -19.127672 -44.448747
-34.141962 -20.965674 -43.503496
-34.748319 -19.927269 -44.194351
-33.813237 -19.510306 -44.332159
-33.585304 -21.951515 -42.872974
-33.056278 -23.091227 -42.132464
-34.520387 -22.368478 -42.735166
-34.141962 -20.965674 -43.503496
-33.585304 -21.951515 -42.872974
-38.083807 0.490291 -57.5988
-37.673437 1.953982 -57.985641
-36.819069 1.344793 -57.646309
-38.083807 0.490291 -57.5988
-38.51751 -1.03303 -57.108413
-38.955916 -2.51054 -56.495697
-39.392971 -4.042801 -55.781586
-42.10894 -20.248379 -45.527199
-42.113401 -18.468046 -46.604506
-41.251741 -20.676508 -45.017738
-42.107492 -22.002713 -44.516075
-42.10894 -20.248379 -45.527199
-39.303713 -11.31232 -50.743504
-40.128046 -10.692296 -51.431106
-38.960811 -9.738839 -51.802975
-40.954825 -84.759568 -25.801235
-39.848749 -87.020325 -25.599186
-41.014597 -83.045716 -26.294935
-40.954825 -84.759568 -25.801235
-41.067572 -81.294311 -26.700235
-39.978592 -83.589859 -26.394073
-41.014597 -83.045716 -26.294935
-42.132214 -78.978142 -27.105185
-43.146812 -76.698593 -27.429922
-41.096209 -79.522285 -27.204323
-41.067572 -81.294311 -26.700235
-42.132214 -78.978142 -27.105185
-46.988653 -62.530401 -31.282341
-47.02262 -64.298146 -30.543432
-47.982017 -62.199938 -31.130949
-48.266979 -47.843252 -36.648577
-48.41943 -49.618507 -35.993225
-49.594645 -40.320507 -39.483604
-48.530079 -40.458847 -39.197233
-49.859818 -42.13422 -38.846575
-49.594645 -40.320507 -39.483604
-48.992885 -44.067339 -38.025471
-49.859818 -42.13422 -38.846575
-48.992885 -44.067339 -38.025471
-47.903513 -44.262546 -37.835293
-47.177607 -48.03846 -36.458399
-48.266979 -47.843252 -36.648577
-46.238179 -50.082068 -35.706136
-47.177607 -48.03846 -36.458399
-44.977367 -48.535357 -36.053921
-45.916796 -46.491749 -36.806183
-43.876144 -48.823448 -35.826029
-44.03545 -50.627985 -35.306497
-44.977367 -48.535357 -36.053921
-41.223976 -41.979519 -37.05113
-41.389891 -43.8088 -36.610056
-42.201208 -41.747784 -37.381211
-40.302121 -42.203663 -36.710455
-41.223976 -41.979519 -37.05113
-41.113438 -40.142647 -37.48161
-42.230842 -34.338875 -39.500191
-42.562971 -36.08849 -39.044812
-42.422257 -30.693278 -40.76655
-42.902449 -28.732638 -41.639665
-41.953005 -32.621231 -39.939968
-42.422257 -30.693278 -40.76655
-41.530394 -30.969645 -40.401239
-41.338979 -34.615242 -39.13488
-42.230842 -34.338875 -39.500191
-41.953005 -32.621231 -39.939968
-26.840065 -59.795683 -21.389427
-26.533898 -61.905459 -20.904245
-26.840065 -59.795683 -21.389427
-27.656967 -58.394489 -22.26231
-27.959871 -73.853771 -22.44323
-27.629266 -75.966049 -22.160483
-28.60226 -74.235813 -23.010919
-27.414105 -73.448292 -21.866596
-27.959871 -73.853771 -22.44323
-28.387099 -71.718056 -22.717033
-26.840773 -72.934998 -21.340273
-27.414105 -73.448292 -21.866596
-27.341271 -70.787109 -21.607803
-26.840773 -72.934998 -21.340273
-27.743454 -68.648415 -21.94191
-27.341271 -70.787109 -21.607803
-28.243516 -69.173881 -22.474507
-28.190463 -66.503586 -22.279342
-27.288217 -68.116814 -21.412639
-27.743454 -68.648415 -21.94191
-30.129039 -56.477384 -25.071535
-30.581385 -56.902744 -25.583271
-30.769989 -54.828646 -26.120558
-29.656104 -55.954121 -24.59263
-29.4675 -58.028219 -24.055343
-30.129039 -56.477384 -25.071535
-29.12585 -55.449083 -24.160618
-29.656104 -55.954121 -24.59263
-30.886604 -46.858223 -28.585934
-30.963996 -48.801505 -27.907425
-31.352635 -45.347105 -29.661892
-30.886604 -46.858223 -28.585934
-32.01363 -47.546938 -29.449396
-31.481319 -49.209309 -28.366974
-32.009239 -49.519167 -28.830835
-31.967025 -45.632284 -30.06103
-32.01363 -47.546938 -29.449396
-32.494946 -45.942143 -30.524891
-31.352635 -45.347105 -29.661892
-31.967025 -45.632284 -30.06103
-32.731543 -40.572338 -32.836067
-32.912548 -42.398201 -32.174233
-33.152026 -39.021104 -33.851011
-32.506813 -38.824529 -33.475138
-32.731543 -40.572338 -32.836067
-34.111433 -44.586668 -32.49032
-33.545832 -46.382383 -31.473422
-34.088787 -46.512722 -31.939255
-34.078192 -42.736019 -33.022106
-34.111433 -44.586668 -32.49032
-34.621147 -42.866358 -33.48794
-33.982331 -40.892311 -33.615834
-33.472617 -42.612621 -32.618214
-34.078192 -42.736019 -33.022106
-34.024647 -35.854662 -35.768266
-33.342709 -35.73901 -35.434444
-33.609234 -37.388948 -34.823904
-34.468132 -34.248255 -36.660042
-34.024647 -35.854662 -35.768266
-34.734657 -35.898194 -36.049501
-34.871785 -32.772043 -37.515179
-34.468132 -34.248255 -36.660042
-35.861035 -34.239765 -37.245795
-35.386225 -35.93449 -36.402172
-36.069116 -35.882469 -36.70669
-35.27574 -31.228894 -38.319885
-34.871785 -32.772043 -37.515179
-35.582098 -32.748637 -37.745984
-35.644121 -29.880851 -39.064732
-34.933808 -29.904257 -38.833927
-35.27574 -31.228894 -38.319885
-34.226616 -27.213909 -40.030345
-33.820208 -25.822592 -40.710243
-34.966707 -27.291488 -40.155673
-34.226616 -27.213909 -40.030345
-34.562098 -28.478637 -39.453445
3 1 56 54
3 1 58 56
3 207 61 208
3 209 208 59
3 207 208 209
3 211 210 61
3 2 65 63
3 2 67 65
3 212 68 213
3 215 214 68
3 216 70 217
3 4 73 71
3 4 75 73
3 4 77 75
3 6 80 78
3 6 82 80
3 3 218 219
3 220 83 221
3 7 86 84
3 7 88 86
3 222 89 223
3 224 91 225
3 226 225 89
3 224 225 226
3 9 227 229
3 227 93 228
3 227 228 229
3 9 230 232
3 232 231 93
3 230 231 232
3 233 95 234
3 235 97 236
3 237 236 95
3 235 236 237
3 239 238 97
3 8 240 242
3 240 99 241
3 240 241 242
3 8 101 99
3 11 103 102
3 11 105 103
3 5 108 106
3 12 111 109
3 12 243 245
3 245 244 111
3 243 244 245
3 12 246 248
3 246 114 247
3 246 247 248
3 10 117 115
3 10 119 117
3 13 249 250
3 13 251 252
3 14 253 254
3 16 120 55
3 16 121 120
3 16 123 121
3 18 124 57
3 18 125 124
3 19 128 126
3 21 129 60
3 21 255 257
3 257 256 129
3 255 256 257
3 21 258 260
3 258 131 259
3 258 259 260
3 23 132 62
3 23 133 132
3 25 137 135
3 27 138 64
3 27 139 138
3 27 141 139
3 29 142 66
3 29 143 142
3 30 261 262
3 30 263 264
3 30 265 267
3 265 144 266
3 265 266 267
3 268 145 269
3 270 269 69
3 268 269 270
3 271 146 272
3 273 272 145
3 271 272 273
3 31 274 275
3 31 276 277
3 15 278 280
3 278 147 279
3 278 279 280
3 32 148 72
3 32 281 283
3 283 282 148
3 281 282 283
3 32 284 285
3 33 286 288
3 288 287 74
3 286 287 288
3 33 289 290
3 33 291 293
3 291 149 292
3 291 292 293
3 35 150 76
3 35 151 150
3 17 152 122
3 36 153 79
3 36 154 153
3 36 155 154
3 37 156 81
3 37 157 156
3 294 158 295
3 296 159 297
3 298 297 158
3 296 297 298
3 299 160 300
3 302 301 160
3 303 161 304
3 305 163 306
3 307 306 161
3 305 306 307
3 20 308 310
3 310 309 127
3 308 309 310
3 39 311 312
3 39 313 315
3 313 164 314
3 313 314 315
3 22 165 130
3 40 166 85
3 40 167 166
3 40 168 167
3 38 169 87
3 38 162 169
3 42 316 317
3 42 318 320
3 318 171 319
3 318 319 320
3 42 172 171
3 43 173 90
3 43 174 173
3 24 175 134
3 44 176 92
3 44 177 176
3 44 178 177
3 45 179 94
3 45 180 179
3 46 321 323
3 321 181 322
3 321 322 323
3 46 324 326
3 326 325 181
3 324 325 326
3 46 327 329
3 327 182 328
3 327 328 329
3 47 183 96
3 47 184 183
3 47 185 184
3 48 330 332
3 330 186 331
3 330 331 332
3 48 187 186
3 49 188 98
3 49 189 188
3 49 190 189
3 41 191 100
3 41 170 191
3 51 333 335
3 335 334 104
3 333 334 335
3 51 336 337
3 34 338 339
3 52 193 107
3 52 194 193
3 26 195 136
3 53 196 110
3 53 197 196
3 53 198 197
3 341 340 112
3 342 199 343
3 345 344 113
3 346 200 347
3 28 201 140
3 348 202 349
3 350 349 116
3 348 349 350
3 351 203 352
3 353 352 202
3 351 352 353
3 354 204 355
3 356 355 203
3 354 355 356
3 50 205 118
3 50 192 205
3 357 206 358
3 54 55 14
3 56 55 54
3 56 16 55
3 56 57 16
3 58 57 56
3 58 18 57
3 59 60 19
3 61 60 59
3 61 21 60
3 61 62 21
3 359 62 360
3 361 360 61
3 359 360 361
3 362 23 363
3 364 363 62
3 362 363 364
3 63 64 25
3 65 64 63
3 65 27 64
3 65 66 27
3 67 66 65
3 67 29 66
3 68 365 366
3 68 367 369
3 367 30 368
3 367 368 369
3 68 69 30
3 370 69 371
3 372 371 68
3 370 371 372
3 374 373 69
3 70 375 376
3 70 377 379
3 377 31 378
3 377 378 379
3 71 72 15
3 73 72 71
3 73 32 72
3 73 74 32
3 75 74 73
3 75 33 74
3 75 76 33
3 77 76 75
3 77 35 76
3 78 79 17
3 80 79 78
3 80 36 79
3 80 81 36
3 82 81 80
3 82 37 81
3 381 380 20
3 83 382 383
3 83 384 386
3 384 39 385
3 384 385 386
3 84 85 22
3 86 85 84
3 86 40 85
3 86 87 40
3 88 87 86
3 88 38 87
3 89 387 388
3 89 389 391
3 389 42 390
3 389 390 391
3 89 90 42
3 91 90 89
3 91 43 90
3 392 92 393
3 394 393 24
3 392 393 394
3 93 395 397
3 395 92 396
3 395 396 397
3 93 44 92
3 93 94 44
3 398 94 399
3 400 399 93
3 398 399 400
3 401 45 402
3 403 402 94
3 401 402 403
3 95 404 405
3 95 406 408
3 406 46 407
3 406 407 408
3 95 96 46
3 97 96 95
3 97 47 96
3 97 409 411
3 411 410 47
3 409 410 411
3 413 412 97
3 414 48 415
3 416 98 417
3 99 418 420
3 418 98 419
3 418 419 420
3 99 49 98
3 99 100 49
3 101 100 99
3 101 41 100
3 102 421 422
3 103 423 425
3 425 424 102
3 423 424 425
3 103 426 427
3 103 428 430
3 428 104 429
3 428 429 430
3 105 104 103
3 105 51 104
3 106 107 34
3 108 107 106
3 108 52 107
3 109 110 26
3 111 110 109
3 111 53 110
3 111 112 53
3 431 112 432
3 433 432 111
3 431 432 433
3 435 434 112
3 436 113 437
3 114 438 440
3 438 113 439
3 438 439 440
3 114 441 443
3 443 442 113
3 441 442 443
3 115 116 28
3 117 116 115
3 117 444 446
3 446 445 116
3 444 445 446
3 117 447 449
3 447 118 448
3 447 448 449
3 119 118 117
3 119 50 118
3 450 15 451
3 55 452 454
3 454 453 14
3 452 453 454
3 120 455 457
3 457 456 55
3 455 456 457
3 120 458 460
3 458 15 459
3 458 459 460
3 120 71 15
3 121 71 120
3 121 4 71
3 121 122 4
3 123 122 121
3 123 17 122
3 57 123 16
3 124 123 57
3 124 17 123
3 124 78 17
3 125 78 124
3 125 6 78
3 126 127 3
3 128 127 126
3 128 20 127
3 60 128 19
3 129 128 60
3 129 20 128
3 129 461 463
3 463 462 20
3 461 462 463
3 465 464 129
3 466 130 467
3 131 468 470
3 468 130 469
3 468 469 470
3 131 22 130
3 62 131 21
3 132 131 62
3 132 22 131
3 132 84 22
3 133 84 132
3 133 7 84
3 471 134 472
3 473 134 474
3 475 24 476
3 477 476 134
3 475 476 477
3 478 24 479
3 481 480 24
3 482 9 483
3 484 8 485
3 486 102 487
3 488 102 489
3 490 11 491
3 492 491 102
3 490 491 492
3 135 136 5
3 137 136 135
3 137 26 136
3 64 137 25
3 138 137 64
3 138 26 137
3 138 109 26
3 139 109 138
3 139 12 109
3 139 140 12
3 141 140 139
3 141 28 140
3 66 141 27
3 142 141 66
3 142 28 141
3 142 115 28
3 143 115 142
3 143 10 115
3 493 13 494
3 495 3 496
3 497 3 498
3 497 498 499
3 500 126 501
3 502 501 3
3 500 501 502
3 144 503 505
3 503 126 504
3 503 504 505
3 144 19 126
3 69 144 30
3 145 144 69
3 145 19 144
3 145 59 19
3 146 59 145
3 146 506 508
3 508 507 59
3 506 507 508
3 509 70 510
3 147 511 513
3 511 70 512
3 511 512 513
3 147 31 70
3 72 147 15
3 148 147 72
3 148 31 147
3 148 514 516
3 516 515 31
3 514 515 516
3 518 517 148
3 74 519 521
3 521 520 32
3 519 520 521
3 523 522 74
3 149 524 525
3 149 526 528
3 526 34 527
3 526 527 528
3 76 149 33
3 150 149 76
3 150 34 149
3 150 106 34
3 151 106 150
3 151 5 106
3 122 77 4
3 152 77 122
3 152 35 77
3 79 152 17
3 153 152 79
3 153 35 152
3 153 151 35
3 154 151 153
3 154 5 151
3 154 135 5
3 155 135 154
3 155 25 135
3 81 155 36
3 156 155 81
3 156 25 155
3 156 63 25
3 157 63 156
3 157 2 63
3 529 14 530
3 158 531 532
3 158 533 535
3 533 14 534
3 533 534 535
3 158 54 14
3 159 54 158
3 159 1 54
3 536 146 537
3 538 146 539
3 541 540 146
3 542 23 543
3 544 23 545
3 546 133 547
3 548 547 23
3 546 547 548
3 549 133 550
3 551 7 552
3 553 552 133
3 551 552 553
3 160 554 555
3 160 556 558
3 556 7 557
3 556 557 558
3 160 88 7
3 559 88 560
3 561 560 160
3 559 560 561
3 562 38 563
3 564 563 88
3 562 563 564
3 161 565 566
3 161 567 569
3 567 38 568
3 567 568 569
3 161 162 38
3 163 162 161
3 163 0 162
3 127 570 572
3 572 571 3
3 570 571 572
3 574 573 127
3 576 575 20
3 164 577 578
3 164 579 581
3 579 8 580
3 579 580 581
3 130 582 584
3 582 83 583
3 582 583 584
3 165 83 130
3 165 39 83
3 85 165 22
3 166 165 85
3 166 39 165
3 166 164 39
3 167 164 166
3 167 8 164
3 167 101 8
3 168 101 167
3 168 41 101
3 87 168 40
3 169 168 87
3 169 41 168
3 169 170 41
3 162 170 169
3 162 0 170
3 585 159 586
3 587 159 588
3 589 1 590
3 591 590 159
3 589 590 591
3 171 592 593
3 171 594 596
3 594 1 595
3 594 595 596
3 171 58 1
3 172 58 171
3 172 18 58
3 90 172 42
3 173 172 90
3 173 18 172
3 173 125 18
3 174 125 173
3 174 6 125
3 134 597 599
3 597 91 598
3 597 598 599
3 175 91 134
3 175 43 91
3 92 175 24
3 176 175 92
3 176 43 175
3 176 174 43
3 177 174 176
3 177 6 174
3 177 82 6
3 178 82 177
3 178 37 82
3 94 178 44
3 179 178 94
3 179 37 178
3 179 157 37
3 180 157 179
3 180 2 157
3 600 9 601
3 181 602 603
3 181 604 605
3 181 606 607
3 609 608 181
3 610 9 611
3 613 612 9
3 182 614 615
3 182 616 618
3 616 45 617
3 616 617 618
3 96 182 46
3 183 182 96
3 183 45 182
3 183 180 45
3 184 180 183
3 184 2 180
3 184 67 2
3 185 67 184
3 185 29 67
3 619 185 620
3 621 620 47
3 619 620 621
3 186 622 624
3 622 185 623
3 622 623 624
3 186 29 185
3 186 143 29
3 187 143 186
3 187 10 143
3 625 48 626
3 98 627 628
3 188 629 631
3 631 630 98
3 629 630 631
3 188 632 634
3 632 48 633
3 632 633 634
3 188 187 48
3 189 187 188
3 189 10 187
3 189 119 10
3 190 119 189
3 190 50 119
3 100 190 49
3 191 190 100
3 191 50 190
3 191 192 50
3 170 192 191
3 170 0 192
3 104 635 636
3 638 637 104
3 107 639 641
3 641 640 34
3 639 640 641
3 193 642 644
3 644 643 107
3 642 643 644
3 193 645 646
3 193 647 648
3 194 649 651
3 651 650 193
3 649 650 651
3 194 652 654
3 652 11 653
3 652 653 654
3 136 108 5
3 195 108 136
3 195 52 108
3 110 195 26
3 196 195 110
3 196 52 195
3 196 194 52
3 197 194 196
3 197 11 194
3 197 105 11
3 198 105 197
3 198 51 105
3 112 198 53
3 655 198 656
3 657 656 112
3 655 656 657
3 658 51 659
3 660 659 198
3 658 659 660
3 662 661 51
3 199 663 664
3 199 665 666
3 113 667 669
3 667 199 668
3 667 668 669
3 670 199 671
3 672 671 113
3 670 671 672
3 674 673 199
3 200 675 676
3 200 677 679
3 677 13 678
3 677 678 679
3 140 114 12
3 201 114 140
3 201 680 682
3 682 681 114
3 680 681 682
3 116 201 28
3 202 201 116
3 202 683 685
3 685 684 201
3 683 684 685
3 202 686 688
3 686 200 687
3 686 687 688
3 203 200 202
3 203 13 200
3 203 689 691
3 691 690 13
3 689 690 691
3 204 692 694
3 694 693 203
3 692 693 694
3 204 695 696
3 118 697 699
3 697 204 698
3 697 698 699
3 205 204 118
3 205 700 702
3 702 701 204
3 700 701 702
3 205 703 705
3 703 206 704
3 703 704 705
3 192 206 205
3 192 0 206
3 706 163 707
3 206 708 710
3 708 163 709
3 708 709 710
3 206 0 163
