ply
format ascii 1.0
element vertex 370
property float x
property float y
property float z
element face 373
property list uchar int vertex_index
end_header
6.655773 38.4352 -33.075203
-1.752775 50.997208 -31.126356
5.171001 26.621136 -30.179827
12.213037 23.880409 -29.976263
1.994446 62.044792 -34.136856
1.679049 45.329498 -34.090981
-0.623058 30.795406 -29.865072
5.803764 33.672356 -31.806059
8.688526 25.002655 -29.800325
8.796366 31.982243 -31.630175
3.086376 69.406929 -32.155785
-2.560465 43.371758 -27.925692
-2.309774 32.997036 -27.667566
-1.617521 41.246269 -30.976141
0.207943 38.801868 -32.374084
-0.480284 48.487 -33.425438
4.910862 18.410606 -28.523306
8.852549 17.110886 -28.194517
16.692226 15.823837 -28.879908
-1.256853 59.885239 -30.029173
1.455742 72.941994 -28.973886
0.322758 65.617195 -31.699526
-0.367008 57.448639 -33.228409
1.479836 53.990257 -34.787498
3.940144 49.594948 -34.981316
4.307619 41.744358 -33.690582
1.934399 28.621113 -30.515451
2.826559 36.159054 -32.36145
20.186821 15.880066 -29.927031
6.233368 36.456371 -32.526421
7.29686 32.700203 -31.635664
7.534086 35.618519 -32.440895
-2.195841 47.287926 -29.646574
-2.187613 42.34906 -29.644011
-1.778677 46.225136 -31.198076
-1.13386 45.0373 -32.333244
-1.238134 49.82769 -32.490967
4.99799 22.607006 -29.340994
6.846203 17.70932 -28.35956
6.841379 21.823132 -29.12343
10.456635 24.381584 -29.81143
10.628805 20.576302 -28.91482
12.501053 20.123444 -29.038218
14.334654 19.782803 -29.311563
2.899733 74.704597 -29.175585
2.471519 65.819588 -33.301941
1.537525 67.784348 -32.088211
1.044596 63.995964 -33.119133
-0.082632 61.633736 -32.624748
0.677835 60.013878 -33.832123
0.450562 55.846489 -34.208359
1.659374 58.098274 -34.636177
5.67098 54.396614 -35.174988
4.065756 53.448029 -35.216072
5.365828 50.768097 -35.127563
5.240414 47.108398 -34.752869
-1.572245 31.898277 -28.967123
-0.910376 26.485435 -28.432474
0.267511 25.435139 -29.128588
1.663643 24.42902 -29.458555
0.550409 29.697701 -30.364332
0.848274 42.304291 -33.340302
1.440336 37.490082 -32.49984
2.117462 40.801373 -33.32283
3.489079 39.262829 -33.09684
2.972023 43.566246 -33.971123
5.441093 30.348251 -31.010496
6.917891 25.751896 -29.941626
7.075672 29.403954 -30.789343
8.715685 28.623184 -30.70503
10.36167 27.99696 -30.778658
3.844286 72.780815 -30.729204
4.981863 70.46714 -31.887602
3.123047 59.775795 -34.781418
-2.531061 38.281796 -27.88542
-1.988356 37.206242 -29.396574
-1.241529 36.087681 -30.508471
-0.268059 34.930893 -31.202185
-0.820126 40.060825 -31.884516
-0.25148 43.725578 -33.036842
0.50679 46.981033 -33.939865
8.732624 21.143394 -28.954485
-2.039141 52.003441 -29.363062
6.528809 41.16338 -33.729805
-1.745813 56.490891 -28.774614
-1.568903 55.550964 -30.737612
2.153557 71.363159 -30.764433
0.836205 69.392036 -30.474512
-0.143106 66.913567 -29.882856
-0.590561 62.957962 -31.008314
-0.937735 58.791481 -31.828566
-1.162792 54.414543 -32.3256
-0.508722 53.064934 -33.495728
0.384417 51.499557 -34.240616
1.477219 49.730164 -34.596352
2.809877 55.901299 -35.076431
2.665207 51.897682 -35.019661
2.709816 47.780502 -34.634789
4.01066 45.683868 -34.448151
5.306242 43.476582 -34.126823
5.592566 39.955971 -33.357826
3.100674 19.206982 -28.568167
3.254593 23.481022 -29.493666
3.491817 27.58696 -30.41308
0.927361 33.750301 -31.505449
2.312859 32.569187 -31.495176
3.837015 31.420506 -31.286291
4.30208 34.860321 -32.086075
4.886131 37.766064 -32.78933
12.026258 27.486858 -30.973623
13.959747 23.487309 -30.252279
21.814781 16.091423 -30.462893
3.828753 75.303143 -29.115307
3.345625 76.23558 -28.262529
6.174127 51.063415 -35.090935
5.518404 52.582355 -35.151275
6.326703 52.877674 -35.114647
6.015247 49.326511 -35.001469
6.174127 51.063415 -35.090935
6.099253 70.725448 -31.585037
5.449763 72.051418 -31.122553
-2.545763 40.826777 -27.905556
-2.722227 38.800517 -26.956537
-2.736929 41.345498 -26.976674
5.916005 15.954046 -28.098436
4.900104 16.265968 -28.142227
8.94767 15.04638 -27.866604
7.944497 15.345597 -27.949126
7.849376 17.410103 -28.277038
10.025081 14.843905 -27.829666
8.94767 15.04638 -27.866604
10.753256 18.598499 -28.520399
11.753433 18.40898 -28.564392
17.031597 13.934154 -28.543843
15.757283 15.899576 -28.676712
17.957034 13.96404 -28.829394
17.031597 13.934154 -28.543843
-2.087606 52.435276 -28.312509
-2.229945 50.120327 -28.546768
7.145846 41.351711 -33.831669
6.523407 42.803757 -34.063164
-1.501333 58.188065 -29.401893
-1.545866 58.622612 -28.327455
-1.301386 60.319786 -28.954735
1.235032 73.549839 -27.889427
1.823246 74.589882 -28.098197
0.92391 71.797138 -28.723984
1.235032 73.549839 -27.889427
3.589349 56.558022 -35.09095
2.966462 57.838547 -34.928925
3.745934 58.49527 -34.943444
5.912123 43.960358 -34.261673
5.273328 45.29249 -34.439846
5.879209 45.776266 -34.574696
6.523407 42.803757 -34.063164
5.917525 42.319981 -33.928314
5.912123 43.960358 -34.261673
-2.473673 30.839852 -26.773531
-2.590496 33.543613 -26.835196
2.282031 19.648077 -28.474087
3.050627 17.028382 -28.126537
11.991515 29.218212 -31.461767
11.183941 29.458183 -31.367029
14.831691 23.343134 -30.413519
13.841082 25.277245 -30.736866
15.042791 21.520705 -29.970137
14.831691 23.343134 -30.413519
19.333606 15.835478 -29.655171
19.031873 17.660351 -30.016859
20.566111 14.084705 -29.6843
19.333606 15.835478 -29.655171
22.591475 16.254629 -30.711239
21.541346 17.829803 -30.662817
22.31804 17.993009 -30.911163
12.689557 18.18255 -28.626091
11.753433 18.40898 -28.564392
11.564929 20.349873 -28.976519
13.661696 18.04938 -28.755867
12.689557 18.18255 -28.626091
14.578496 17.879059 -28.892539
13.661696 18.04938 -28.755867
13.417853 19.953124 -29.174891
15.51344 17.80332 -29.095735
15.757283 15.899576 -28.676712
14.578496 17.879059 -28.892539
-1.050717 61.944291 -29.520666
-1.301386 60.319786 -28.954735
2.545241 75.471183 -28.199047
3.345625 76.23558 -28.262529
2.177738 73.823296 -29.074736
1.823246 74.589882 -28.098197
2.545241 75.471183 -28.199047
4.868368 53.922321 -35.19553
4.217289 55.331387 -35.16077
5.019901 55.805679 -35.140228
5.95254 47.496662 -34.814121
5.303121 48.938248 -34.940216
6.015247 49.326511 -35.001469
5.879209 45.776266 -34.574696
5.95254 47.496662 -34.814121
-1.721462 29.733944 -28.155575
-2.090227 30.283324 -27.505797
-1.941009 32.447657 -28.317345
-1.390528 27.027523 -27.88825
-1.721462 29.733944 -28.155575
-1.24131 29.191856 -28.699798
-1.045122 24.279733 -27.710411
-1.390528 27.027523 -27.88825
-0.439034 23.766531 -28.151182
-1.045122 24.279733 -27.710411
0.149909 23.241383 -28.499239
-0.439034 23.766531 -28.151182
-0.321433 25.960287 -28.780531
0.865449 22.762155 -28.754297
0.149909 23.241383 -28.499239
0.965577 24.93208 -29.293571
1.563515 22.259096 -28.919281
0.865449 22.762155 -28.754297
19.888934 17.663006 -30.219267
19.031873 17.660351 -30.016859
4.880974 73.208256 -30.543354
4.301029 74.341251 -29.892117
4.413074 71.623977 -31.308403
4.880974 73.208256 -30.543354
5.449763 72.051418 -31.122553
5.61919 69.126228 -32.28554
6.099253 70.725448 -31.585037
4.595895 68.773056 -32.523738
5.61919 69.126228 -32.28554
3.648151 68.242951 -32.65783
4.03412 69.937035 -32.021693
4.595895 68.773056 -32.523738
3.340723 66.44928 -33.230908
2.778948 67.613259 -32.728863
3.648151 68.242951 -32.65783
3.031465 64.663376 -33.718788
3.340723 66.44928 -33.230908
2.792928 62.775978 -34.136246
2.232982 63.93219 -33.719398
3.031465 64.663376 -33.718788
3.357229 61.64148 -34.458527
2.558746 60.910294 -34.459137
2.792928 62.775978 -34.136246
3.980237 60.324573 -34.707878
3.357229 61.64148 -34.458527
3.745934 58.49527 -34.943444
3.980237 60.324573 -34.707878
5.909711 56.177098 -35.016956
5.019901 55.805679 -35.140228
6.572894 54.601895 -35.024189
5.909711 56.177098 -35.016956
6.326703 52.877674 -35.114647
6.572894 54.601895 -35.024189
-2.70114 36.185993 -26.944122
-2.722227 38.800517 -26.956537
-2.420418 35.639416 -27.776493
-2.590496 33.543613 -26.835196
-2.70114 36.185993 -26.944122
6.883675 15.603403 -28.016563
5.916005 15.954046 -28.098436
5.878533 18.059963 -28.441433
6.883675 15.603403 -28.016563
7.944497 15.345597 -27.949126
9.805165 18.882046 -28.540231
9.680715 20.859848 -28.934652
10.753256 18.598499 -28.520399
9.865128 16.865792 -28.160248
8.792586 19.12714 -28.574501
9.805165 18.882046 -28.540231
10.025081 14.843905 -27.829666
9.865128 16.865792 -28.160248
-2.672724 43.849655 -26.905501
-2.736929 41.345498 -26.976674
-2.490607 45.804485 -27.828083
-2.672724 43.849655 -26.905501
-2.308295 47.762569 -28.688524
-2.378153 45.329842 -28.786133
-2.490607 45.804485 -27.828083
-2.117491 49.645684 -29.504818
-2.308295 47.762569 -28.688524
-2.229945 50.120327 -28.546768
7.102911 39.81262 -33.470249
7.166393 38.448531 -33.142948
6.592291 39.79929 -33.402504
7.102911 39.81262 -33.470249
7.145846 41.351711 -33.831669
-1.740137 56.877121 -27.638427
-1.545866 58.622612 -28.327455
-1.940943 54.679001 -28.018285
-1.740137 56.877121 -27.638427
-1.892477 54.247166 -29.068838
-2.087606 52.435276 -28.312509
-1.940943 54.679001 -28.018285
3.372009 73.742706 -29.952395
3.828753 75.303143 -29.115307
4.301029 74.341251 -29.892117
0.614142 70.02216 -29.474297
0.92391 71.797138 -28.723984
1.145973 71.167015 -29.724199
0.124486 68.782925 -29.178469
0.614142 70.02216 -29.474297
0.346549 68.152802 -30.178684
-0.248697 67.410355 -28.793816
0.124486 68.782925 -29.178469
-0.493844 65.458455 -29.447508
-0.248697 67.410355 -28.793816
-0.717572 63.480652 -30.010236
-0.493844 65.458455 -29.447508
-0.366834 64.935765 -30.445585
-0.923707 61.4216 -30.518743
-1.050717 61.944291 -29.520666
-0.717572 63.480652 -30.010236
3.437817 54.674664 -35.146251
3.589349 56.558022 -35.09095
4.217289 55.331387 -35.16077
-2.473673 30.839852 -26.773531
-2.090227 30.283324 -27.505797
3.99501 16.664156 -28.164657
3.050627 17.028382 -28.126537
4.005768 18.808794 -28.545737
4.900104 16.265968 -28.142227
3.99501 16.664156 -28.164657
2.382159 21.818001 -29.013361
2.282031 19.648077 -28.474087
1.563515 22.259096 -28.919281
7.60555 37.04019 -32.825794
7.09493 37.02686 -32.758049
7.166393 38.448531 -33.142948
8.217569 35.388333 -32.486511
7.60555 37.04019 -32.825794
8.848709 33.570194 -32.081151
8.165226 33.800381 -32.035535
8.217569 35.388333 -32.486511
9.568995 31.705875 -31.695305
8.848709 33.570194 -32.081151
10.351647 29.713234 -31.269547
9.579018 29.989601 -31.204417
9.568995 31.705875 -31.695305
11.193964 27.741909 -30.87614
10.351647 29.713234 -31.269547
11.183941 29.458183 -31.367029
12.874337 27.27702 -31.097538
11.991515 29.218212 -31.461767
12.993002 25.487084 -30.612951
12.874337 27.27702 -31.097538
13.841082 25.277245 -30.736866
15.230244 19.668451 -29.499778
14.147201 21.635056 -29.781921
15.042791 21.520705 -29.970137
16.409031 17.688968 -29.283951
15.51344 17.80332 -29.095735
15.230244 19.668451 -29.499778
17.586309 15.807363 -29.131609
16.409031 17.688968 -29.283951
17.957034 13.96404 -28.829394
17.586309 15.807363 -29.131609
20.702914 17.768684 -30.487198
21.541346 17.829803 -30.662817
21.000801 15.985744 -30.194962
19.888934 17.663006 -30.219267
20.702914 17.768684 -30.487198
22.919252 14.564635 -30.652661
22.591475 16.254629 -30.711239
22.178987 14.346515 -30.302969
22.919252 14.564635 -30.652661
21.365007 14.240837 -30.035038
21.000801 15.985744 -30.194962
22.178987 14.346515 -30.302969
20.566111 14.084705 -29.6843
21.365007 14.240837 -30.035038
3 0 31 29
3 1 34 32
3 1 36 34
3 2 39 37
3 3 42 40
3 3 43 42
3 112 44 113
3 4 47 45
3 4 49 47
3 4 51 49
3 114 54 115
3 116 115 52
3 114 115 116
3 118 117 54
3 6 57 56
3 6 58 57
3 6 60 58
3 5 63 61
3 5 65 63
3 7 68 66
3 9 69 30
3 9 70 69
3 119 72 120
3 11 121 123
3 121 74 122
3 121 122 123
3 13 75 33
3 13 76 75
3 13 78 76
3 15 79 35
3 15 80 79
3 16 124 125
3 17 126 128
3 128 127 38
3 126 127 128
3 17 129 130
3 8 81 67
3 132 131 41
3 18 133 134
3 18 135 136
3 137 82 138
3 140 139 83
3 19 141 143
3 141 84 142
3 141 142 143
3 19 85 84
3 20 144 145
3 20 146 147
3 10 86 71
3 21 87 46
3 21 88 87
3 21 89 88
3 22 90 48
3 22 91 90
3 22 92 91
3 23 93 50
3 23 94 93
3 148 95 149
3 150 149 73
3 148 149 150
3 24 96 53
3 24 97 96
3 24 98 97
3 151 99 152
3 153 152 55
3 151 152 153
3 154 83 155
3 156 155 99
3 154 155 156
3 12 157 158
3 159 101 160
3 26 102 59
3 26 103 102
3 14 104 77
3 27 105 62
3 27 106 105
3 27 107 106
3 25 108 64
3 25 100 108
3 161 109 162
3 163 110 164
3 166 165 110
3 28 167 168
3 28 169 170
3 171 111 172
3 171 172 173
3 29 30 7
3 31 30 29
3 31 9 30
3 32 33 11
3 34 33 32
3 34 13 33
3 34 35 13
3 36 35 34
3 36 15 35
3 37 38 16
3 39 38 37
3 39 17 38
3 40 41 8
3 42 41 40
3 42 174 176
3 176 175 41
3 174 175 176
3 42 177 178
3 43 179 181
3 181 180 42
3 179 180 181
3 43 182 184
3 182 18 183
3 182 183 184
3 185 19 186
3 44 187 188
3 44 189 191
3 189 20 190
3 189 190 191
3 45 46 10
3 47 46 45
3 47 21 46
3 47 48 21
3 49 48 47
3 49 22 48
3 49 50 22
3 51 50 49
3 51 23 50
3 52 192 194
3 192 53 193
3 192 193 194
3 54 53 52
3 54 24 53
3 54 55 24
3 195 55 196
3 197 196 54
3 195 196 197
3 199 198 55
3 56 200 202
3 202 201 12
3 200 201 202
3 57 203 205
3 205 204 56
3 203 204 205
3 57 206 207
3 57 208 209
3 58 210 212
3 212 211 57
3 210 211 212
3 58 213 214
3 58 215 217
3 215 59 216
3 215 216 217
3 60 59 58
3 60 26 59
3 61 62 14
3 63 62 61
3 63 27 62
3 63 64 27
3 65 64 63
3 65 25 64
3 218 28 219
3 66 67 2
3 68 67 66
3 68 8 67
3 30 68 7
3 69 68 30
3 69 8 68
3 69 40 8
3 70 40 69
3 70 3 40
3 220 71 221
3 72 222 224
3 222 71 223
3 222 223 224
3 72 10 71
3 225 72 226
3 227 72 228
3 229 10 230
3 231 230 72
3 229 230 231
3 232 45 233
3 234 233 10
3 232 233 234
3 235 45 236
3 237 4 238
3 239 238 45
3 237 238 239
3 240 73 241
3 242 241 4
3 240 241 242
3 243 73 244
3 246 245 73
3 247 52 248
3 249 52 250
3 252 251 52
3 74 253 254
3 74 255 257
3 255 12 256
3 255 256 257
3 33 74 11
3 75 74 33
3 75 12 74
3 75 56 12
3 76 56 75
3 76 6 56
3 76 77 6
3 78 77 76
3 78 14 77
3 35 78 13
3 79 78 35
3 79 14 78
3 79 61 14
3 80 61 79
3 80 5 61
3 38 258 260
3 260 259 16
3 258 259 260
3 262 261 38
3 67 39 2
3 81 39 67
3 81 17 39
3 41 81 8
3 263 81 264
3 265 264 41
3 263 264 265
3 266 17 267
3 268 267 81
3 266 267 268
3 270 269 17
3 271 11 272
3 273 11 274
3 275 32 276
3 277 276 11
3 275 276 277
3 82 278 280
3 278 32 279
3 278 279 280
3 82 1 32
3 83 281 283
3 283 282 0
3 281 282 283
3 285 284 83
3 84 286 287
3 84 288 289
3 84 290 292
3 290 82 291
3 290 291 292
3 85 82 84
3 85 1 82
3 71 293 295
3 293 44 294
3 293 294 295
3 86 44 71
3 86 20 44
3 46 86 10
3 87 86 46
3 87 20 86
3 87 296 298
3 298 297 20
3 296 297 298
3 88 299 301
3 301 300 87
3 299 300 301
3 88 302 303
3 88 304 305
3 89 306 308
3 308 307 88
3 306 307 308
3 89 309 311
3 309 19 310
3 309 310 311
3 48 89 21
3 90 89 48
3 90 19 89
3 90 85 19
3 91 85 90
3 91 1 85
3 91 36 1
3 92 36 91
3 92 15 36
3 50 92 22
3 93 92 50
3 93 15 92
3 93 80 15
3 94 80 93
3 94 5 80
3 73 51 4
3 95 51 73
3 95 23 51
3 53 312 314
3 312 95 313
3 312 313 314
3 96 95 53
3 96 23 95
3 96 94 23
3 97 94 96
3 97 5 94
3 97 65 5
3 98 65 97
3 98 25 65
3 55 98 24
3 99 98 55
3 99 25 98
3 99 100 25
3 83 100 99
3 83 0 100
3 316 315 12
3 101 317 318
3 101 319 321
3 319 16 320
3 319 320 321
3 59 322 324
3 322 101 323
3 322 323 324
3 102 101 59
3 102 16 101
3 102 37 16
3 103 37 102
3 103 2 37
3 77 60 6
3 104 60 77
3 104 26 60
3 62 104 14
3 105 104 62
3 105 26 104
3 105 103 26
3 106 103 105
3 106 2 103
3 106 66 2
3 107 66 106
3 107 7 66
3 64 107 27
3 108 107 64
3 108 7 107
3 108 29 7
3 100 29 108
3 100 0 29
3 325 31 326
3 327 326 0
3 325 326 327
3 328 31 329
3 330 9 331
3 332 331 31
3 330 331 332
3 333 9 334
3 335 70 336
3 337 336 9
3 335 336 337
3 109 338 340
3 338 70 339
3 338 339 340
3 109 3 70
3 341 109 342
3 110 343 345
3 343 109 344
3 343 344 345
3 110 3 109
3 110 43 3
3 346 43 347
3 348 347 110
3 346 347 348
3 349 18 350
3 351 350 43
3 349 350 351
3 352 18 353
3 355 354 18
3 111 356 357
3 111 358 360
3 358 28 359
3 358 359 360
3 361 111 362
3 363 111 364
3 365 28 366
3 367 366 111
3 365 366 367
3 369 368 28
