ply
format ascii 1.0
element vertex 595
property float x
property float y
property float z
element face 608
property list uchar int vertex_index
end_header
1.210854 64.257591 35.340961
0.490589 48.252434 60.469742
4.478069 41.241253 68.881798
1.856609 75.259636 34.371651
3.716698 83.411324 19.204554
7.045027 88.504112 -9.574484
10.408382 86.19754 16.409613
0.529682 51.499611 47.994209
0.762917 63.298347 48.56794
5.32987 69.680275 45.587452
5.619522 87.96508 4.274446
2.806108 81.546692 -7.180216
2.066851 37.229538 69.799721
4.476078 33.459206 72.987389
3.988741 78.552467 33.009834
2.713194 79.79055 26.820591
5.138762 82.71965 25.419914
0.444399 44.036011 53.393845
1.943775 53.061653 60.15921
0.529413 56.038551 54.871521
2.451483 67.417542 47.580414
3.035765 74.502922 1.118629
7.800879 88.162239 10.338911
9.050196 89.272079 3.087247
4.080807 86.187019 -8.539371
0.108772 42.457977 59.637291
0.593357 40.22374 65.272362
1.975941 45.21244 65.369888
4.429745 48.94046 64.077377
1.053059 70.282173 35.09396
1.697985 75.073395 27.781744
2.442663 78.942581 20.326311
3.171421 81.981827 12.882952
8.844297 83.519165 23.793076
0.800081 58.319107 41.929703
0.070784 50.33004 54.490509
0.220629 57.77726 48.597351
0.554888 64.498886 42.085846
1.203768 69.757935 41.682022
3.084658 73.449783 40.455139
6.455675 85.944633 17.824297
4.737778 86.151428 11.658086
3.720549 84.228256 5.55172
6.318277 88.767441 -2.855204
3.988241 85.654259 -1.612669
3.142159 80.549149 -0.28591
2.539818 75.582596 -5.655176
4.536432 80.752289 29.223448
6.185541 81.532997 28.378626
3.089418 54.934952 59.515739
3.14632 76.798729 3.869741
10.519577 88.744446 6.119684
3.15164 39.391495 69.525299
2.023054 41.227489 67.682915
3.115299 43.336426 67.304329
3.080988 47.257599 64.896461
4.450037 45.109268 66.569313
1.304993 72.945061 34.809544
1.358807 72.79924 31.466873
1.65387 75.401657 31.108147
3.202986 81.711166 23.011105
2.464712 79.607582 23.584263
2.905563 81.37928 19.804443
2.818972 80.561951 16.595438
3.347801 82.940948 16.03624
0.883224 48.267754 47.566921
1.380184 48.539558 44.415836
0.981354 51.769493 44.740242
1.119467 55.084488 41.757301
0.644287 55.007339 45.036255
0.177486 45.443451 60.177971
0.068359 46.428375 57.164703
0.154886 49.409439 57.583244
0.620619 59.753052 51.800987
0.245201 57.06324 51.822891
0.363167 60.673836 48.685623
0.366138 61.245445 45.410606
0.528986 64.091179 45.397667
0.741608 67.2864 41.976089
0.957079 66.641609 45.188755
3.753357 68.794189 46.696068
2.734077 70.546715 44.069736
4.094982 71.791504 43.161224
4.511806 74.568703 39.540691
7.578024 85.000557 20.851347
8.318127 86.356422 17.103746
6.645195 88.338264 7.293608
6.090696 87.460777 10.996878
5.203552 87.179245 7.94082
4.151199 85.437454 8.583551
4.474815 86.362206 4.916737
3.261049 84.1035 -7.884285
4.039101 86.038086 -5.11347
3.356777 83.797997 -4.446095
3.414629 83.286407 -0.952135
3.005337 81.137314 -3.755377
2.873995 78.199692 -3.042456
2.609043 78.659286 -6.439999
1.253292 34.796379 69.69503
3.16984 35.437069 71.561592
4.493647 37.354443 71.019829
2.746731 77.1483 33.768036
2.261368 77.643051 30.61454
3.219259 79.445755 29.980709
3.744083 81.510155 26.167332
4.31078 83.345955 22.346956
1.26016 41.425499 49.598061
0.831142 44.612198 50.220215
0.462111 47.829971 50.785904
1.075321 50.814468 60.47287
0.487509 52.192329 57.765228
1.093756 54.70211 57.670006
1.278566 62.115013 51.522934
1.453241 65.569328 48.206039
2.23502 64.078056 50.963875
3.486149 65.5886 50.120918
5.004417 66.620178 49.019653
2.754677 71.996422 -1.457346
11.207937 87.112259 12.760219
9.064478 87.441376 13.387027
9.80127 88.240845 9.718894
8.440533 88.86058 6.675055
7.158525 88.948746 3.652774
5.620672 87.364105 -12.356218
5.334152 87.678268 -9.115393
2.293577 78.95871 -9.791134
0.234343 41.430344 62.566132
0.530289 44.253548 62.974823
1.20307 38.825642 67.69709
1.144325 42.849472 65.491661
1.096266 46.853447 63.082169
1.944269 49.165863 62.861267
3.067148 51.133034 62.299896
4.435669 52.71051 61.403206
1.043821 67.357948 35.256653
1.316776 69.923416 31.716145
1.616636 72.24424 28.108595
2.043129 77.618652 27.358891
2.063314 77.116768 24.061171
2.588799 77.858986 17.098392
8.107254 81.788177 27.492956
0.990707 61.408211 38.692047
0.189968 43.321728 56.555695
0.175243 47.220024 54.008835
0.208895 51.023262 51.268356
0.17602 53.295372 54.793694
0.121397 54.126183 51.629425
0.292082 54.692787 48.350967
0.421743 58.190231 45.273865
0.5931 61.481972 42.054192
0.801617 64.542786 38.709137
0.784437 67.515022 38.64061
1.000433 70.24044 38.439743
1.503586 72.632301 38.068718
1.6861 68.81559 44.750183
1.978855 71.833466 41.176384
2.332449 74.611931 37.507706
3.50342 76.118874 36.76075
6.86178 83.388702 24.614273
5.783968 84.45253 21.615334
4.904032 84.953506 18.536015
7.134413 87.18573 14.060675
5.504267 86.328331 14.748526
4.235456 84.892654 15.416142
3.770126 84.294662 12.292664
3.478096 83.204544 9.199313
3.308237 81.680511 6.166583
7.636538 89.28405 0.090448
5.985365 88.497498 0.670559
5.127897 87.726761 -5.736496
4.943659 87.517441 -2.256392
4.735521 87.059151 1.299994
3.889191 85.047546 1.945683
3.403221 82.578568 2.587207
3.193176 79.785782 3.222733
3.058212 77.581024 0.395232
2.833191 75.118065 -2.288031
2.464699 72.43544 -4.798346
2.176672 75.905258 -8.978754
2.095911 72.737968 -8.094917
1.925476 69.556152 -7.107002
6.80163 80.674301 29.779918
5.873997 80.487419 30.254838
3.124959 56.783604 58.032639
3.786679 55.663224 59.032269
1.457211 63.971985 33.694406
1.595052 62.371376 33.720421
1.348695 62.656982 35.366975
3.148585 77.822708 5.318553
3.141739 76.322056 5.623693
5.533425 71.109188 43.827242
4.915981 72.164803 42.614128
4.712426 70.735889 44.374338
9.363255 86.276981 16.75668
8.967059 85.675437 18.598654
10.012186 85.595996 18.251587
6.849641 88.637062 -7.927636
7.824374 88.816277 -8.141566
3.822959 34.448138 72.27449
3.159918 33.458242 72.487484
3.813037 32.469311 73.200382
1.261787 39.551569 50.753075
1.472884 39.870728 49.266415
0.637771 44.324105 51.80703
0.829014 42.725401 51.45205
0.635643 42.437308 53.038865
1.680057 61.333355 52.861046
1.219187 60.298096 53.102798
2.158284 62.314876 52.581516
1.756793 63.096535 51.243404
1.680057 61.333355 52.861046
4.122495 64.480236 51.230075
3.38822 63.890892 51.766651
4.881629 64.996025 50.679443
4.245283 66.104389 49.570285
4.122495 64.480236 51.230075
2.994795 72.953034 1.520903
3.087845 74.113811 2.839756
2.895221 73.249672 -0.169358
2.854251 71.699783 0.232915
2.994795 72.953034 1.520903
10.902932 87.983749 9.443202
10.504603 87.676552 11.239556
11.606265 87.419456 10.963864
4.893877 86.725807 -12.108923
4.99002 86.543983 -13.696866
0.41385 40.827042 63.919247
0.272433 39.412716 63.652176
0.45194 38.809414 65.005291
1.817386 74.702438 26.118824
1.776711 73.287861 26.282249
1.65731 73.658817 27.945169
2.354424 77.570675 20.552865
2.16475 76.657769 22.420295
2.252988 78.029674 22.193741
2.515731 78.400784 18.712352
2.427492 77.028877 18.938906
2.354424 77.570675 20.552865
3.027919 80.652042 13.155815
2.851694 79.942104 15.012059
2.995197 81.271889 14.739195
3.151174 81.288453 11.33252
3.027919 80.652042 13.155815
1.63041 48.593021 42.903421
1.438624 50.190597 42.993534
1.04509 58.252624 40.282654
1.204782 56.635315 40.196453
0.959774 56.701797 41.843502
0.895394 59.863659 40.310875
1.140402 59.797176 38.663826
1.04509 58.252624 40.282654
0.14937 42.889853 58.096493
0.217845 41.342365 57.724869
0.177247 40.91049 59.265667
4.757054 75.844208 37.699001
5.368009 74.876416 39.010786
6.977407 89.025745 -1.382378
7.870297 89.313141 -1.641071
7.211166 89.054836 -3.113897
1.977183 75.996216 -10.615008
2.235124 77.431984 -9.384944
2.035636 77.522942 -11.021197
1.808756 71.214405 -9.213494
1.883888 72.82729 -9.718466
1.723539 69.623497 -8.719537
2.010693 71.14706 -7.60096
1.808756 71.214405 -9.213494
1.572018 68.021896 -8.147194
1.723539 69.623497 -8.719537
4.441054 31.508839 73.886146
3.813037 32.469311 73.200382
5.049443 80.097065 30.677249
4.262586 79.652378 31.116641
4.775597 78.997154 32.570442
5.360986 81.142643 28.801037
5.049443 80.097065 30.677249
5.873997 80.487419 30.254838
0.459067 42.095274 54.597805
0.635643 42.437308 53.038865
2.538 55.901646 58.392257
1.965178 54.964996 58.713993
2.516597 53.998303 59.837474
2.538 55.901646 58.392257
3.124959 56.783604 58.032639
3.143122 75.261715 4.215312
3.141739 76.322056 5.623693
3.091042 75.650825 2.494185
3.087845 74.113811 2.839756
3.143122 75.261715 4.215312
11.658262 88.391125 5.887964
11.262085 88.23555 7.643597
10.871624 88.847809 4.36573
11.658262 88.391125 5.887964
10.136933 89.111626 2.849511
9.784886 89.008263 4.603466
10.871624 88.847809 4.36573
0.627806 38.203118 66.314198
0.45194 38.809414 65.005291
1.131704 48.403656 45.991378
1.339746 46.798465 45.756044
1.091267 46.662563 47.331587
1.23921 51.805565 43.155737
1.438624 50.190597 42.993534
1.180769 50.154525 44.578039
1.05041 53.426991 43.248772
1.308266 53.463062 41.664266
1.23921 51.805565 43.155737
5.124393 73.553402 40.803861
4.303394 73.180104 41.350957
4.915981 72.164803 42.614128
5.368009 74.876416 39.010786
5.124393 73.553402 40.803861
8.597007 84.997505 20.472454
8.211161 84.259861 22.322212
9.230144 84.256809 21.943319
7.948075 85.678489 18.977547
8.597007 84.997505 20.472454
8.967059 85.675437 18.598654
6.486266 88.768726 -4.567996
7.211166 89.054836 -3.113897
1.264442 32.782007 70.588192
0.985348 33.468298 69.457698
1.670322 34.012462 70.707054
1.264442 32.782007 70.588192
2.077102 35.229042 70.7594
1.660072 36.012958 69.747376
1.670322 34.012462 70.707054
2.628597 34.332808 71.640335
3.159918 33.458242 72.487484
2.618346 36.333303 70.680656
2.077102 35.229042 70.7594
2.628597 34.332808 71.640335
1.489638 41.672983 48.096638
1.472884 39.870728 49.266415
1.279734 43.241436 48.347156
1.489638 41.672983 48.096638
1.043524 41.132052 51.140973
1.261787 39.551569 50.753075
1.045651 43.018849 49.909138
1.043524 41.132052 51.140973
0.829014 42.725401 51.45205
1.065225 44.834785 48.658234
1.279734 43.241436 48.347156
1.045651 43.018849 49.909138
0.857183 46.439976 48.893568
1.091267 46.662563 47.331587
1.065225 44.834785 48.658234
1.540169 55.785225 57.469391
1.518765 53.881881 58.914608
1.965178 54.964996 58.713993
1.126781 56.591644 56.176334
1.540169 55.785225 57.469391
0.84461 57.259864 54.777092
0.811584 55.37033 56.270764
1.126781 56.591644 56.176334
0.890213 59.117115 53.241825
0.575016 57.895801 53.336254
0.84461 57.259864 54.777092
0.949593 60.934033 51.66196
0.890213 59.117115 53.241825
1.219187 60.298096 53.102798
2.762656 63.13562 52.18813
2.158284 62.314876 52.581516
2.860584 64.833328 50.542397
2.762656 63.13562 52.18813
3.38822 63.890892 51.766651
2.643279 70.448089 -0.983013
2.854251 71.699783 0.232915
2.510695 70.648243 -2.643947
2.643279 70.448089 -0.983013
10.160424 88.492645 7.919289
10.902932 87.983749 9.443202
11.262085 88.23555 7.643597
4.750617 86.882889 -10.488511
5.477412 87.521186 -10.735805
4.893877 86.725807 -12.108923
4.123945 86.137264 -10.200499
4.707479 86.932644 -8.827382
4.750617 86.882889 -10.488511
3.627689 85.187973 -9.893165
4.123945 86.137264 -10.200499
3.217809 84.146214 -9.565622
3.670928 85.14526 -8.211828
3.627689 85.187973 -9.893165
2.922311 82.935714 -9.216489
3.217809 84.146214 -9.565622
2.69484 81.65731 -8.864455
3.033578 82.825096 -7.53225
2.922311 82.935714 -9.216489
2.438575 80.363319 -10.169913
2.549843 80.252701 -8.485675
2.69484 81.65731 -8.864455
2.132456 79.02372 -11.436683
2.438575 80.363319 -10.169913
2.035636 77.522942 -11.021197
2.132456 79.02372 -11.436683
0.144657 40.453567 60.766517
0.177247 40.91049 59.265667
0.207443 39.939751 62.230938
0.272433 39.412716 63.652176
0.171558 41.94416 61.101712
0.144657 40.453567 60.766517
0.207443 39.939751 62.230938
0.957773 35.489437 68.525531
0.985348 33.468298 69.457698
0.932662 37.504069 67.526561
0.957773 35.489437 68.525531
1.228181 36.811011 68.69606
0.898213 39.524691 66.484726
0.627806 38.203118 66.314198
0.932662 37.504069 67.526561
4.459804 54.551002 59.976002
3.786679 55.663224 59.032269
3.762544 53.822731 60.459473
1.250087 67.10923 33.575806
1.333603 65.559052 33.617959
1.127338 65.80777 35.298807
1.386564 68.391964 31.805551
1.250087 67.10923 33.575806
1.180299 68.640682 33.486399
1.519906 69.571388 30.044972
1.386564 68.391964 31.805551
1.669836 70.7318 28.241197
1.519906 69.571388 30.044972
1.466706 71.083828 29.91237
1.810765 71.793682 26.45345
1.669836 70.7318 28.241197
1.810765 71.793682 26.45345
1.776711 73.287861 26.282249
2.00005 75.724125 24.258538
1.817386 74.702438 26.118824
1.88065 76.095081 25.921458
2.00005 75.724125 24.258538
2.16475 76.657769 22.420295
2.579692 76.397007 17.332546
2.427492 77.028877 18.938906
2.704852 77.142994 15.522788
2.579692 76.397007 17.332546
2.736608 78.590622 15.263535
2.703886 79.210468 16.846915
2.851694 79.942104 15.012059
2.704852 77.142994 15.522788
2.736608 78.590622 15.263535
8.117407 88.578957 -9.727688
7.824374 88.816277 -8.141566
7.297043 88.237754 -11.133803
8.117407 88.578957 -9.727688
6.584865 87.667751 -12.52467
6.33285 87.934109 -10.965351
7.297043 88.237754 -11.133803
5.834262 87.069512 -13.88281
6.584865 87.667751 -12.52467
4.99002 86.543983 -13.696866
5.834262 87.069512 -13.88281
8.793 80.742919 28.852868
7.762486 80.801891 29.337083
9.162353 81.665691 27.052169
8.793 80.742919 28.852868
9.530874 82.531185 25.20223
8.475775 82.653671 25.643016
9.162353 81.665691 27.052169
9.919904 83.329113 23.393498
9.530874 82.531185 25.20223
9.230144 84.256809 21.943319
9.919904 83.329113 23.393498
11.105639 85.332436 17.891548
10.012186 85.595996 18.251587
11.519541 85.853943 16.089268
11.105639 85.332436 17.891548
11.919319 86.311302 14.264571
10.808159 86.654899 14.584916
11.519541 85.853943 16.089268
12.339889 86.683281 12.482257
11.919319 86.311302 14.264571
11.606265 87.419456 10.963864
12.339889 86.683281 12.482257
1.583127 46.956383 44.246755
1.339746 46.798465 45.756044
1.583127 46.956383 44.246755
1.63041 48.593021 42.903421
1.380828 55.011925 40.167745
1.308266 53.463062 41.664266
1.380828 55.011925 40.167745
1.204782 56.635315 40.196453
1.238622 61.232292 37.042518
1.140402 59.797176 38.663826
1.10078 62.832901 37.016504
1.348695 62.656982 35.366975
1.238622 61.232292 37.042518
0.331852 41.738132 56.17873
0.217845 41.342365 57.724869
0.317184 43.67887 54.97477
0.459067 42.095274 54.597805
0.331852 41.738132 56.17873
4.252861 76.619293 36.309031
4.007613 75.343789 38.150721
4.757054 75.844208 37.699001
4.495522 77.83609 34.433572
3.746081 77.33567 34.885292
4.252861 76.619293 36.309031
4.775597 78.997154 32.570442
4.495522 77.83609 34.433572
5.204057 32.386629 73.543381
4.441054 31.508839 73.886146
5.23539 34.298023 72.587036
5.204057 32.386629 73.543381
5.244174 36.245642 71.603257
4.484863 35.406824 72.003609
5.23539 34.298023 72.587036
5.251649 38.152304 70.569466
5.244174 36.245642 71.603257
5.24386 40.095709 69.50045
4.485858 39.297848 69.950814
5.251649 38.152304 70.569466
5.237758 41.994364 68.386975
5.24386 40.095709 69.50045
5.223743 43.928371 67.230732
4.464053 43.175261 67.725555
5.237758 41.994364 68.386975
5.214575 45.811988 66.034085
5.223743 43.928371 67.230732
5.204429 47.727585 64.788117
4.439891 47.024864 65.323345
5.214575 45.811988 66.034085
5.20235 49.585746 63.50528
5.204429 47.727585 64.788117
5.205312 51.470771 62.168194
4.432707 50.825485 62.740291
5.20235 49.585746 63.50528
5.21973 53.290924 60.798397
5.205312 51.470771 62.168194
4.459804 54.551002 59.976002
5.21973 53.290924 60.798397
5.7238 65.350739 50.020981
4.881629 64.996025 50.679443
5.874506 66.897389 48.365284
5.7238 65.350739 50.020981
6.037233 68.427437 46.649183
5.167143 68.150227 47.303552
5.874506 66.897389 48.365284
6.231448 69.882878 44.949896
6.037233 68.427437 46.649183
5.533425 71.109188 43.827242
6.231448 69.882878 44.949896
1.457211 63.971985 33.694406
1.333603 65.559052 33.617959
7.146397 81.660587 27.935791
6.80163 80.674301 29.779918
7.762486 80.801891 29.337083
3.304512 81.899811 9.4907
3.151174 81.288453 11.33252
3.324758 82.593186 11.041132
3.219583 81.137794 7.974336
3.304512 81.899811 9.4907
3.393166 82.442527 7.682948
3.229544 80.263599 6.466973
3.219583 81.137794 7.974336
9.34676 89.334167 1.341729
10.136933 89.111626 2.849511
8.639931 89.340152 -0.156671
7.870297 89.313141 -1.641071
8.343367 89.278064 1.588847
9.34676 89.334167 1.341729
8.639931 89.340152 -0.156671
5.994203 88.22414 -7.69809
6.849641 88.637062 -7.927636
6.18959 88.09119 -9.344938
5.891076 88.248386 -6.008641
5.994203 88.22414 -7.69809
5.231025 87.702515 -7.425944
5.723087 88.247101 -4.29585
6.486266 88.768726 -4.567996
5.891076 88.248386 -6.008641
3.172013 79.316235 4.995048
3.229544 80.263599 6.466973
3.250706 80.733147 4.694658
3.169748 78.292255 3.546237
3.148585 77.822708 5.318553
3.172013 79.316235 4.995048
2.365706 70.867752 -4.314447
2.510695 70.648243 -2.643947
2.609688 72.215931 -3.127846
1.924268 74.410934 -10.160384
1.977183 75.996216 -10.615008
2.136292 74.321613 -8.536836
1.924268 74.410934 -10.160384
1.883888 72.82729 -9.718466
2.096095 69.428108 -5.468775
2.365706 70.867752 -4.314447
2.195088 70.995796 -5.952674
1.747494 67.987469 -6.541391
2.096095 69.428108 -5.468775
1.394037 66.453213 -7.581583
1.747494 67.987469 -6.541391
1.572018 68.021896 -8.147194
3 181 48 182
3 184 183 49
3 0 185 187
3 185 186 187
3 188 50 189
3 2 54 52
3 2 56 54
3 3 59 57
3 4 62 60
3 4 64 62
3 7 67 65
3 7 69 67
3 1 72 70
3 8 75 73
3 8 77 75
3 8 79 77
3 9 82 80
3 9 190 192
3 192 191 82
3 190 191 192
3 6 193 195
3 193 85 194
3 193 194 195
3 10 88 86
3 10 90 88
3 5 196 197
3 11 93 91
3 11 95 93
3 11 97 95
3 13 198 200
3 198 99 199
3 198 199 200
3 13 100 99
3 14 103 101
3 16 104 47
3 16 105 104
3 201 106 202
3 17 203 205
3 203 107 204
3 203 204 205
3 17 108 107
3 18 111 109
3 206 112 207
3 208 114 209
3 210 209 112
3 208 209 210
3 211 115 212
3 213 116 214
3 215 214 115
3 213 214 215
3 21 216 217
3 21 218 220
3 218 117 219
3 218 219 220
3 221 120 222
3 223 222 118
3 221 222 223
3 23 121 51
3 23 122 121
3 225 224 123
3 26 226 228
3 226 126 227
3 226 227 228
3 26 127 126
3 12 128 98
3 27 129 53
3 27 130 129
3 27 131 130
3 28 132 55
3 28 133 132
3 29 135 134
3 30 136 58
3 30 229 231
3 231 230 136
3 229 230 231
3 15 137 102
3 31 138 61
3 31 232 234
3 234 233 138
3 232 233 234
3 31 235 237
3 235 139 236
3 235 236 237
3 32 238 240
3 240 239 63
3 238 239 240
3 32 241 242
3 244 243 66
3 34 245 247
3 247 246 68
3 245 246 247
3 34 248 250
3 248 141 249
3 248 249 250
3 25 251 253
3 251 142 252
3 251 252 253
3 35 143 71
3 35 144 143
3 19 145 110
3 36 146 74
3 36 147 146
3 36 148 147
3 37 149 76
3 37 150 149
3 37 151 150
3 38 152 78
3 38 153 152
3 20 154 113
3 39 155 81
3 39 156 155
3 39 157 156
3 255 254 83
3 33 158 140
3 40 159 84
3 40 160 159
3 22 161 119
3 41 162 87
3 41 163 162
3 41 164 163
3 42 165 89
3 42 166 165
3 43 256 258
3 256 167 257
3 256 257 258
3 43 168 167
3 24 169 124
3 44 170 92
3 44 171 170
3 44 172 171
3 45 173 94
3 45 174 173
3 45 175 174
3 46 176 96
3 46 177 176
3 259 178 260
3 261 260 125
3 259 260 261
3 262 179 263
3 264 180 265
3 266 265 179
3 264 265 266
3 268 267 180
3 269 13 270
3 271 47 272
3 273 272 14
3 271 272 273
3 48 274 276
3 274 47 275
3 274 275 276
3 48 16 47
3 277 17 278
3 49 279 281
3 281 280 18
3 279 280 281
3 283 282 49
3 50 284 285
3 50 286 288
3 286 21 287
3 286 287 288
3 289 51 290
3 291 51 292
3 293 23 294
3 295 294 51
3 293 294 295
3 296 26 297
3 52 53 12
3 54 53 52
3 54 27 53
3 54 55 27
3 56 55 54
3 56 28 55
3 57 58 29
3 59 58 57
3 59 30 58
3 60 61 15
3 62 61 60
3 62 31 61
3 62 63 31
3 64 63 62
3 64 32 63
3 65 298 300
3 298 66 299
3 298 299 300
3 67 66 65
3 67 301 303
3 303 302 66
3 301 302 303
3 67 304 306
3 304 68 305
3 304 305 306
3 69 68 67
3 69 34 68
3 70 71 25
3 72 71 70
3 72 35 71
3 73 74 19
3 75 74 73
3 75 36 74
3 75 76 36
3 77 76 75
3 77 37 76
3 77 78 37
3 79 78 77
3 79 38 78
3 80 81 20
3 82 81 80
3 82 39 81
3 82 83 39
3 307 83 308
3 309 308 82
3 307 308 309
3 311 310 83
3 312 84 313
3 314 313 33
3 312 313 314
3 85 315 317
3 315 84 316
3 315 316 317
3 85 40 84
3 86 87 22
3 88 87 86
3 88 41 87
3 88 89 41
3 90 89 88
3 90 42 89
3 318 43 319
3 91 92 24
3 93 92 91
3 93 44 92
3 93 94 44
3 95 94 93
3 95 45 94
3 95 96 45
3 97 96 95
3 97 46 96
3 320 98 321
3 322 98 323
3 324 12 325
3 326 325 98
3 324 325 326
3 99 327 328
3 99 329 331
3 329 12 330
3 329 330 331
3 99 52 12
3 100 52 99
3 100 2 52
3 101 102 3
3 103 102 101
3 103 15 102
3 47 103 14
3 104 103 47
3 104 15 103
3 104 60 15
3 105 60 104
3 105 4 60
3 106 332 333
3 106 334 335
3 336 106 337
3 107 338 340
3 338 106 339
3 338 339 340
3 107 341 343
3 343 342 106
3 341 342 343
3 107 344 346
3 344 65 345
3 344 345 346
3 108 65 107
3 108 7 65
3 109 110 1
3 111 110 109
3 111 19 110
3 347 111 348
3 349 348 18
3 347 348 349
3 350 111 351
3 352 19 353
3 354 353 111
3 352 353 354
3 355 73 356
3 357 356 19
3 355 356 357
3 112 358 360
3 358 73 359
3 358 359 360
3 112 8 73
3 112 113 8
3 114 113 112
3 114 20 113
3 361 114 362
3 115 363 365
3 363 114 364
3 363 364 365
3 115 20 114
3 115 80 20
3 116 80 115
3 116 9 80
3 117 366 367
3 117 368 369
3 118 119 6
3 120 119 118
3 120 22 119
3 51 370 372
3 370 120 371
3 370 371 372
3 121 120 51
3 121 22 120
3 121 86 22
3 122 86 121
3 122 10 86
3 123 124 5
3 373 124 374
3 375 374 123
3 373 374 375
3 376 24 377
3 378 377 124
3 376 377 378
3 379 24 380
3 381 91 382
3 383 382 24
3 381 382 383
3 384 91 385
3 386 11 387
3 388 387 91
3 386 387 388
3 389 125 390
3 391 390 11
3 389 390 391
3 392 125 393
3 395 394 125
3 396 25 397
3 126 398 399
3 126 400 402
3 400 25 401
3 400 401 402
3 126 70 25
3 127 70 126
3 127 1 70
3 98 403 404
3 128 405 407
3 407 406 98
3 405 406 407
3 128 408 410
3 408 26 409
3 408 409 410
3 53 128 12
3 129 128 53
3 129 26 128
3 129 127 26
3 130 127 129
3 130 1 127
3 130 109 1
3 131 109 130
3 131 18 109
3 55 131 27
3 132 131 55
3 132 18 131
3 132 49 18
3 133 49 132
3 133 411 413
3 413 412 49
3 411 412 413
3 134 414 416
3 416 415 0
3 414 415 416
3 135 417 419
3 419 418 134
3 417 418 419
3 135 420 421
3 58 135 29
3 136 135 58
3 136 422 424
3 424 423 135
3 422 423 424
3 136 425 426
3 428 427 136
3 102 59 3
3 137 59 102
3 137 30 59
3 61 137 15
3 138 137 61
3 138 30 137
3 138 429 431
3 431 430 30
3 429 430 431
3 433 432 138
3 139 434 435
3 139 436 437
3 63 139 31
3 438 139 439
3 440 439 63
3 438 439 440
3 442 441 139
3 443 5 444
3 445 5 446
3 447 123 448
3 449 448 5
3 447 448 449
3 450 123 451
3 453 452 123
3 454 140 455
3 456 140 457
3 458 33 459
3 460 459 140
3 458 459 460
3 461 33 462
3 464 463 33
3 465 6 466
3 467 6 468
3 469 118 470
3 471 470 6
3 469 470 471
3 472 118 473
3 475 474 118
3 66 476 477
3 479 478 66
3 68 480 481
3 483 482 68
3 141 484 485
3 141 486 488
3 486 0 487
3 486 487 488
3 142 489 490
3 142 491 493
3 491 17 492
3 491 492 493
3 71 142 25
3 143 142 71
3 143 17 142
3 143 108 17
3 144 108 143
3 144 7 108
3 110 72 1
3 145 72 110
3 145 35 72
3 74 145 19
3 146 145 74
3 146 35 145
3 146 144 35
3 147 144 146
3 147 7 144
3 147 69 7
3 148 69 147
3 148 34 69
3 76 148 36
3 149 148 76
3 149 34 148
3 149 141 34
3 150 141 149
3 150 0 141
3 150 134 0
3 151 134 150
3 151 29 134
3 78 151 37
3 152 151 78
3 152 29 151
3 152 57 29
3 153 57 152
3 153 3 57
3 113 79 8
3 154 79 113
3 154 38 79
3 81 154 20
3 155 154 81
3 155 38 154
3 155 153 38
3 156 153 155
3 156 3 153
3 156 101 3
3 157 101 156
3 157 14 101
3 83 157 39
3 494 157 495
3 496 495 83
3 494 495 496
3 497 14 498
3 499 498 157
3 497 498 499
3 501 500 14
3 502 13 503
3 504 13 505
3 506 100 507
3 508 507 13
3 506 507 508
3 509 100 510
3 511 2 512
3 513 512 100
3 511 512 513
3 514 2 515
3 516 56 517
3 518 517 2
3 516 517 518
3 519 56 520
3 521 28 522
3 523 522 56
3 521 522 523
3 524 28 525
3 526 133 527
3 528 527 28
3 526 527 528
3 529 133 530
3 532 531 133
3 533 116 534
3 535 116 536
3 537 9 538
3 539 538 116
3 537 538 539
3 540 9 541
3 543 542 9
3 545 544 0
3 140 546 548
3 546 48 547
3 546 547 548
3 158 48 140
3 158 16 48
3 84 158 33
3 159 158 84
3 159 16 158
3 159 105 16
3 160 105 159
3 160 4 105
3 119 85 6
3 161 85 119
3 161 40 85
3 87 161 22
3 162 161 87
3 162 40 161
3 162 160 40
3 163 160 162
3 163 4 160
3 163 64 4
3 164 64 163
3 164 32 64
3 89 164 41
3 165 164 89
3 165 32 164
3 165 549 551
3 551 550 32
3 549 550 551
3 166 552 554
3 554 553 165
3 552 553 554
3 166 555 556
3 557 23 558
3 167 559 560
3 167 561 563
3 561 23 562
3 561 562 563
3 167 122 23
3 168 122 167
3 168 10 122
3 124 564 566
3 566 565 5
3 564 565 566
3 169 567 569
3 569 568 124
3 567 568 569
3 169 570 572
3 570 43 571
3 570 571 572
3 92 169 24
3 170 169 92
3 170 43 169
3 170 168 43
3 171 168 170
3 171 10 168
3 171 90 10
3 172 90 171
3 172 42 90
3 94 172 44
3 173 172 94
3 173 42 172
3 173 166 42
3 174 166 173
3 174 573 575
3 575 574 166
3 573 574 575
3 174 576 578
3 576 50 577
3 576 577 578
3 175 50 174
3 175 21 50
3 96 175 45
3 176 175 96
3 176 21 175
3 176 117 21
3 177 117 176
3 177 579 581
3 581 580 117
3 579 580 581
3 125 97 11
3 178 97 125
3 178 46 97
3 582 178 583
3 179 584 586
3 584 178 585
3 584 585 586
3 179 46 178
3 179 177 46
3 180 177 179
3 180 587 589
3 589 588 177
3 587 588 589
3 180 590 591
3 594 593 180
3 592 593 594
