ply
format ascii 1.0
element vertex 676
property float x
property float y
property float z
element face 732
property list uchar int vertex_index
end_header
33.749649 -60.447842 56.332909
46.346249 -66.273041 50.361885
54.75531 -52.193531 48.158661
35.175903 -54.638546 53.348465
41.726608 -56.387402 48.658722
57.449577 -61.059349 45.779381
61.222321 -54.129566 44.702721
53.442974 -68.310852 48.220749
51.873646 -42.390968 50.096649
46.104839 -49.182121 48.015335
50.562378 -59.162273 48.217094
31.816669 -62.977169 63.453949
33.640358 -47.715473 59.406143
29.718771 -71.019493 61.017181
59.823509 -45.372002 49.84993
35.212448 -61.479546 53.54232
33.87405 -63.663158 55.898865
34.364853 -57.911449 54.967422
36.515747 -58.615379 51.767296
57.561653 -64.869949 43.769562
59.417049 -61.338829 42.501183
50.302826 -67.533218 49.890617
41.88311 -47.917534 48.841621
44.157181 -61.324924 49.277763
46.150311 -57.781826 48.247894
48.552753 -62.747417 49.219048
52.484818 -63.892445 48.686943
32.783657 -51.550747 60.7463
30.750826 -67.009285 62.602043
53.136375 -47.339306 49.172897
55.979862 -43.993622 50.356178
57.179321 -48.807957 49.088737
63.243729 -54.38596 40.59687
63.378967 -50.640511 44.443844
42.041367 -64.681976 50.499405
43.778881 -69.619919 51.440033
36.378643 -51.007847 51.936028
39.628971 -51.621685 49.196945
37.908073 -55.257996 50.266014
39.91695 -59.853901 49.875992
56.359097 -56.809155 47.093742
58.389584 -53.379238 47.230042
59.282738 -57.588833 45.033058
61.25116 -57.865856 41.456425
48.844193 -45.729065 48.883873
50.540039 -50.714321 48.096802
43.738102 -52.770187 47.940857
48.228569 -54.203594 47.750244
52.57843 -55.628113 47.778496
54.443855 -60.302685 47.620789
55.550507 -64.621498 46.940472
33.260799 -58.097515 58.942284
32.897999 -61.539082 59.451904
35.581139 -47.192764 54.806671
34.178684 -51.015198 55.982506
33.576859 -54.669441 57.559883
32.432003 -65.41481 59.087227
60.648911 -49.931274 47.655285
63.067047 -46.427486 47.725014
34.295181 -60.875961 54.987312
34.552719 -62.654972 54.610992
33.795521 -61.846298 56.117508
34.022079 -59.330181 55.721321
34.779125 -59.627293 54.087639
58.164543 -64.801773 41.723602
48.404037 -66.956314 50.23365
49.070816 -69.345352 50.443703
47.163193 -68.717926 50.77491
39.988129 -47.483738 49.785416
45.321156 -63.805466 49.820595
46.378548 -62.058411 49.245323
47.486954 -64.52523 49.793236
49.545349 -65.167648 49.657608
53.922066 -49.78743 48.67337
55.211739 -48.10759 49.246437
55.934448 -50.500992 48.593689
39.974842 -63.833359 50.787651
40.888451 -66.249313 51.14991
35.705299 -52.855732 52.58989
37.066505 -53.083542 50.941093
36.390396 -54.872791 51.632515
37.286423 -60.753845 51.429634
38.074684 -59.187366 50.638794
39.018501 -61.474174 50.591461
40.994179 -62.246803 50.095917
57.002655 -58.986401 46.493782
57.939358 -57.256672 46.258018
58.364452 -59.317486 45.344711
60.32579 -59.601017 41.947498
54.634178 -68.498398 46.828079
53.494987 -70.399879 47.431179
45.280724 -46.714241 48.518112
47.4314 -47.436985 48.368492
49.622627 -48.219101 48.426735
48.323853 -49.935974 47.99493
40.605946 -53.971348 48.758949
41.602421 -52.142021 48.396187
42.694454 -54.58569 48.216274
48.394073 -58.489929 48.246361
47.167221 -55.987797 47.907036
49.405876 -56.702778 47.926865
50.450779 -54.933609 47.797604
51.558449 -57.383591 47.901878
53.570347 -58.004238 47.716145
52.5952 -59.773174 48.041924
53.106079 -66.142288 48.621353
54.142277 -64.314148 47.991844
54.531944 -66.451134 47.587002
55.693771 -66.633621 46.183662
32.877548 -58.524849 61.116768
34.753937 -49.1171 55.316757
33.840752 -49.325428 57.60659
33.183029 -53.09705 59.10788
33.413094 -56.408535 58.319832
32.398983 -62.235748 61.418472
32.67429 -63.418526 59.344147
32.037598 -64.199837 61.219009
30.203472 -69.030762 61.894325
31.241707 -68.288574 60.323471
30.895906 -70.352631 59.673294
31.865314 -71.742737 57.739067
30.625134 -72.386803 58.873413
57.958336 -44.721378 50.265648
57.452831 -42.297295 50.732689
59.371578 -42.995651 50.508629
60.763687 -41.250813 50.469002
61.167221 -43.622189 49.928734
59.912148 -53.814159 46.180542
59.488487 -51.662193 47.445724
60.981697 -52.082336 46.23912
64.491226 -48.900688 44.206299
63.26635 -48.586521 46.202217
64.403229 -46.841713 45.982742
64.226929 -44.677998 47.458591
34.743084 -56.332558 54.158684
35.807587 -56.579208 52.409424
35.279556 -58.175674 53.234612
35.863033 -60.12376 52.616051
57.644806 -63.020798 44.888416
58.565495 -61.26358 44.311157
58.501373 -63.090733 43.11483
59.095634 -63.028034 41.051704
51.993298 -67.987854 49.237709
52.263283 -70.193848 48.81205
50.782394 -69.840927 49.810532
43.221794 -46.096127 48.970459
43.939198 -48.495384 48.269043
42.933212 -58.845947 48.856064
43.901745 -57.069256 48.346336
45.155876 -59.567429 48.722015
47.393654 -60.280792 48.704803
49.568863 -60.954708 48.675804
51.615417 -61.563286 48.512146
50.607384 -63.365509 49.069534
51.433689 -65.711563 49.29567
32.836479 -48.103127 61.832458
33.078171 -49.638985 60.013657
32.396717 -50.029621 62.45533
32.217239 -51.959602 63.191063
31.309052 -64.982826 63.13118
30.448204 -65.76561 65.002708
29.741198 -67.771194 64.303604
29.054605 -69.738861 63.395889
52.440201 -44.867565 49.645973
53.935081 -43.206421 50.250465
54.533508 -45.670403 49.802559
56.562561 -46.423313 49.812859
58.482491 -47.101021 49.541428
62.276146 -52.387512 44.592609
44.19717 -65.505707 50.402771
45.112392 -67.976288 50.90995
42.990921 -67.144043 50.985703
37.234814 -49.119827 51.433556
38.84444 -49.362625 49.984528
37.874863 -51.237816 50.378555
38.71106 -53.461437 49.658623
39.704662 -55.772392 49.279259
37.187897 -56.984585 50.979485
38.871372 -57.519268 49.91684
40.810432 -58.151249 49.224571
41.973179 -60.578484 49.449173
43.12664 -63.035442 49.876274
55.587341 -54.539768 47.636177
56.663132 -52.834145 47.86919
57.350712 -55.091084 47.091251
58.902405 -55.53619 46.166252
60.228111 -55.862343 44.831646
59.471039 -59.525528 43.819466
60.383518 -57.79451 43.420292
61.328342 -56.060921 43.098572
62.218437 -56.12714 41.014328
50.330429 -44.051373 49.489815
50.997894 -46.533371 49.004936
51.80278 -49.015877 48.572968
52.700104 -51.477966 48.194611
40.683689 -49.76561 48.917221
42.711559 -50.309566 48.226509
44.872944 -50.963184 47.868542
44.90633 -55.270176 47.964722
45.969528 -53.470211 47.758919
47.106323 -51.687908 47.76516
49.349808 -52.443298 47.81192
51.54512 -53.191395 47.888283
53.639587 -53.899273 47.869019
54.561626 -56.260479 47.576782
55.396687 -58.544044 47.270966
56.070808 -60.735508 46.880325
53.480408 -62.08675 48.110115
55.123764 -62.510803 47.394386
56.517426 -62.824959 46.323006
56.692253 -64.808395 45.524944
56.585663 -66.687729 44.436104
33.50526 -59.385597 57.447891
33.351749 -60.918465 57.677734
33.092091 -59.782078 59.333946
35.873848 -49.041431 53.231865
35.152508 -50.936211 53.827255
34.629505 -52.785534 54.552544
33.411404 -51.227695 58.317482
33.808483 -52.870136 56.753311
34.253487 -54.569344 55.350555
33.966671 -56.271023 56.153404
33.722298 -57.877224 56.884674
33.25444 -62.640587 57.603615
31.636227 -66.226761 60.8424
27.770117 -70.439461 64.797195
55.462269 -41.535355 50.718193
56.995277 -39.845547 50.962097
57.800087 -51.131657 48.214409
59.000992 -49.419754 48.584511
60.25544 -47.689518 48.882248
62.108406 -50.338043 46.269386
61.854568 -48.184113 47.773003
61.535828 -45.939812 49.017273
62.796021 -44.179916 48.919113
39.141481 -47.350302 50.450203
39.773571 -46.402439 50.389168
39.439804 -64.578255 51.161541
39.034973 -63.413515 51.079284
38.556803 -62.233922 50.981189
38.152462 -61.114009 51.010548
37.690764 -61.873758 51.400276
39.034973 -63.413515 51.079284
39.496672 -62.653767 50.689556
38.556803 -62.233922 50.981189
34.079588 -46.751709 59.186214
33.62141 -46.949829 60.388599
34.087599 -47.558165 58.220852
34.079588 -46.751709 59.186214
33.740555 -48.520451 58.506366
34.187796 -48.363142 57.321075
34.087599 -47.558165 58.220852
52.663607 -41.561945 50.353058
51.675619 -41.159607 50.327053
64.973587 -47.014332 44.913128
64.447227 -47.871201 45.094521
65.017585 -48.043819 44.024906
64.92379 -45.983258 45.778881
64.973587 -47.014332 44.913128
35.441456 -62.490478 53.40863
35.850094 -61.83856 52.919868
34.353876 -64.162531 55.152359
34.693211 -63.658437 54.508423
34.213385 -63.159065 55.254929
33.926494 -64.680009 55.805279
34.353876 -64.162531 55.152359
35.850094 -61.83856 52.919868
36.175387 -61.160668 52.456734
35.53774 -60.801653 53.079185
58.807495 -63.814284 40.251732
58.630088 -63.914903 41.387653
58.341949 -64.701153 40.587681
59.272949 -62.928036 39.908028
58.807495 -63.814284 40.251732
49.263863 -70.517746 50.384678
48.397464 -70.240082 50.694073
42.552452 -47.006831 48.90604
42.2618 -45.85929 49.378898
41.592458 -46.769993 49.31448
32.446585 -48.318886 63.035988
32.776395 -47.361492 62.803486
32.226703 -49.282133 63.347424
32.616598 -49.066374 62.143894
32.446585 -48.318886 63.035988
31.925402 -52.195543 64.388931
31.970396 -51.216194 64.026364
32.20755 -52.925258 63.57745
31.925402 -52.195543 64.388931
30.331547 -65.149392 66.196022
30.775755 -64.755676 65.235309
29.159357 -68.149372 65.101906
29.580056 -67.161567 65.538242
28.816061 -69.133206 64.648049
29.397901 -68.755027 63.849747
29.159357 -68.149372 65.101906
63.312923 -53.481466 41.572174
62.785054 -54.353323 41.709164
41.293976 -67.47731 51.364616
40.278217 -66.986206 51.49704
52.259749 -71.262764 48.395433
51.618784 -71.142426 49.07885
44.795767 -70.02903 51.358413
45.462522 -69.207214 51.093372
44.445636 -68.798103 51.174992
48.547871 -44.49842 49.178951
47.784039 -45.350769 48.911816
49.587311 -44.890219 49.186844
49.290989 -43.659574 49.481922
48.547871 -44.49842 49.178951
56.073387 -67.619232 44.760052
56.139717 -66.660675 45.309883
55.627441 -67.592178 45.633831
56.406525 -67.578735 43.737766
56.073387 -67.619232 44.760052
32.780632 -59.436461 61.255863
32.680105 -58.806679 62.237499
36.130094 -46.226284 54.643276
35.553683 -46.329744 55.723247
36.203587 -47.158065 53.806954
36.130094 -46.226284 54.643276
35.727494 -48.117097 54.019268
36.349941 -48.082399 53.019551
36.203587 -47.158065 53.806954
32.801214 -64.990471 58.249729
32.922358 -63.992329 58.378189
32.553146 -64.416668 59.215687
32.768181 -66.024391 58.129024
32.801214 -64.990471 58.249729
31.720413 -67.891174 59.526424
31.622988 -68.952209 59.304924
32.487974 -72.466515 56.942791
31.825185 -72.791314 57.387375
27.413965 -71.354996 64.137425
27.052194 -70.802418 65.43909
28.108348 -71.042621 63.543598
27.413965 -71.354996 64.137425
57.958244 -40.212004 50.905914
57.224054 -41.071421 50.847393
58.187021 -41.437878 50.79121
57.748695 -38.991693 50.940273
57.958244 -40.212004 50.905914
61.425647 -40.377237 50.28622
61.614273 -41.557612 50.093628
64.101086 -43.553961 48.001283
64.743759 -43.818869 47.201445
57.688289 -65.707012 42.05895
57.863098 -64.835861 42.746582
57.386844 -65.7411 43.08193
57.876328 -65.604103 40.923592
57.688289 -65.707012 42.05895
58.341949 -64.701153 40.587681
57.876328 -65.604103 40.923592
47.443653 -69.926368 50.859676
48.397464 -70.240082 50.694073
48.117005 -69.031639 50.609307
40.644968 -46.553095 49.786377
39.773571 -46.402439 50.389168
40.93562 -47.700636 49.313519
41.592458 -46.769993 49.31448
40.644968 -46.553095 49.786377
64.16145 -53.488126 39.143938
63.782066 -53.518516 40.38698
63.623112 -54.35557 39.353828
39.896608 -65.786232 51.34267
40.431646 -65.041336 50.96878
39.439804 -64.578255 51.161541
40.278217 -66.986206 51.49704
39.896608 -65.786232 51.34267
60.171492 -60.439298 41.174265
59.87142 -60.469923 42.22434
59.717121 -61.308205 41.451107
60.636512 -59.569204 40.866232
60.171492 -60.439298 41.174265
61.099198 -58.701624 40.620695
60.788475 -58.733436 41.701962
60.636512 -59.569204 40.866232
61.580345 -57.832237 40.330568
61.099198 -58.701624 40.620695
54.552807 -69.479347 46.259123
55.097645 -68.524566 45.95604
53.983211 -70.430088 46.560672
54.552807 -69.479347 46.259123
54.064583 -69.449139 47.129629
53.395406 -71.406609 46.83709
53.983211 -70.430088 46.560672
44.067478 -70.859741 51.59224
43.066175 -70.402985 51.701401
46.002305 -45.843357 48.728935
44.982399 -45.513203 48.898331
47.077642 -46.204729 48.654125
46.002305 -45.843357 48.728935
46.356062 -47.075613 48.443302
48.137796 -46.583025 48.626182
47.784039 -45.350769 48.911816
47.077642 -46.204729 48.654125
55.097645 -68.524566 45.95604
55.627441 -67.592178 45.633831
55.163974 -67.56601 46.505871
32.935384 -57.627957 60.856823
33.069173 -58.311182 60.029526
33.12701 -57.41429 59.769581
32.745012 -57.862389 62.022126
32.935384 -57.627957 60.856823
32.680105 -58.806679 62.237499
32.745012 -57.862389 62.022126
35.05799 -47.29681 55.921116
35.553683 -46.329744 55.723247
34.644389 -48.258978 56.176159
35.167538 -48.154932 55.061714
35.05799 -47.29681 55.921116
34.297345 -49.221264 56.461674
34.644389 -48.258978 56.176159
34.187796 -48.363142 57.321075
32.928883 -53.271351 60.321572
32.983343 -52.323898 59.92709
32.729197 -52.498199 61.140782
33.127569 -54.013176 59.502876
32.928883 -53.271351 60.321572
33.324484 -54.799371 58.728878
33.379944 -53.883246 58.333882
33.127569 -54.013176 59.502876
33.242601 -55.668919 59.108852
33.494976 -55.538988 57.939858
33.324484 -54.799371 58.728878
33.203158 -56.5698 59.458355
33.242601 -55.668919 59.108852
33.12701 -57.41429 59.769581
33.336946 -57.253025 58.631058
33.203158 -56.5698 59.458355
31.450088 -69.984238 58.979836
31.622988 -68.952209 59.304924
31.068807 -69.320603 59.998382
31.38061 -71.047684 58.706181
31.934792 -70.679291 58.012722
31.450088 -69.984238 58.979836
31.205095 -73.113347 57.954548
31.825185 -72.791314 57.387375
31.245224 -72.06477 58.30624
59.146394 -41.787056 50.67918
58.187021 -41.437878 50.79121
58.412205 -42.646473 50.620659
60.067633 -42.123232 50.488816
59.842449 -40.914637 50.659367
59.146394 -41.787056 50.67918
61.81604 -42.743299 49.823494
61.614273 -41.557612 50.093628
60.965454 -42.436501 50.198868
64.83564 -44.9014 46.516806
64.315079 -45.759856 46.720667
64.92379 -45.983258 45.778881
64.743759 -43.818869 47.201445
64.83564 -44.9014 46.516806
35.111592 -63.078192 53.942966
35.441456 -62.490478 53.40863
34.882584 -62.067259 54.076656
35.111592 -63.078192 53.942966
34.693211 -63.658437 54.508423
36.887082 -61.47571 51.863526
36.574728 -60.438802 52.022842
36.175387 -61.160668 52.456734
37.690764 -61.873758 51.400276
36.887082 -61.47571 51.863526
59.556413 -62.152807 40.726368
59.717121 -61.308205 41.451107
59.256341 -62.183431 41.776443
59.556413 -62.152807 40.726368
59.272949 -62.928036 39.908028
50.878339 -70.965965 49.578091
51.618784 -71.142426 49.07885
51.522838 -70.017387 49.311291
50.119652 -70.765534 50.068093
49.926605 -69.59314 50.127117
49.263863 -70.517746 50.384678
50.878339 -70.965965 49.578091
50.119652 -70.765534 50.068093
42.994705 -44.944536 49.471665
42.2618 -45.85929 49.378898
43.952934 -45.204146 49.124504
42.994705 -44.944536 49.471665
44.251259 -46.405184 48.744286
44.982399 -45.513203 48.898331
43.952934 -45.204146 49.124504
33.219471 -47.143656 61.601757
32.776395 -47.361492 62.803486
33.238418 -47.9093 60.619301
33.62141 -46.949829 60.388599
33.219471 -47.143656 61.601757
32.060135 -50.251204 63.658497
32.226703 -49.282133 63.347424
32.306978 -50.994611 62.823196
32.060135 -50.251204 63.658497
31.970396 -51.216194 64.026364
32.445988 -52.702627 62.363163
32.729197 -52.498199 61.140782
32.500448 -51.755174 61.968682
32.445988 -52.702627 62.363163
32.20755 -52.925258 63.57745
31.206179 -64.364284 64.299545
31.56286 -63.979998 63.292564
31.459988 -63.361456 64.46093
30.878628 -65.374218 64.066944
31.206179 -64.364284 64.299545
30.775755 -64.755676 65.235309
29.93356 -66.158775 65.887794
30.331547 -65.149392 66.196022
30.094701 -66.768402 64.653156
29.93356 -66.158775 65.887794
29.580056 -67.161567 65.538242
62.301262 -53.354099 43.707033
61.749234 -53.258539 44.647665
61.774349 -54.225126 43.762089
62.829132 -52.482242 43.570043
62.301262 -53.354099 43.707033
63.380543 -51.608742 43.495661
62.827557 -51.514011 44.518226
62.829132 -52.482242 43.570043
63.312923 -53.481466 41.572174
63.782066 -53.518516 40.38698
63.925671 -50.740487 43.340246
63.380543 -51.608742 43.495661
64.4818 -49.870575 43.221474
63.935097 -49.7706 44.325071
63.925671 -50.740487 43.340246
65.015819 -49.014467 43.031903
64.4818 -49.870575 43.221474
65.017585 -48.043819 44.024906
65.015819 -49.014467 43.031903
42.345211 -67.924675 51.282513
41.939686 -66.696678 51.067807
41.293976 -67.47731 51.364616
42.739191 -69.162613 51.509678
43.384901 -68.381981 51.212868
42.345211 -67.924675 51.282513
43.066175 -70.402985 51.701401
42.739191 -69.162613 51.509678
38.039627 -49.241226 50.709042
38.569637 -48.289746 50.549759
37.764824 -48.168346 51.274273
61.82736 -55.190804 42.960014
61.774349 -54.225126 43.762089
61.275332 -55.095243 43.900646
62.272407 -55.223913 41.917893
61.82736 -55.190804 42.960014
61.77339 -56.094031 42.05645
62.731083 -55.25655 40.805599
62.785054 -54.353323 41.709164
62.272407 -55.223913 41.917893
62.063984 -56.962879 40.10952
61.734798 -56.996498 41.235377
61.580345 -57.832237 40.330568
62.572113 -56.093216 39.832775
62.063984 -56.962879 40.10952
63.084759 -55.222626 39.624046
62.731083 -55.25655 40.805599
62.572113 -56.093216 39.832775
63.623112 -54.35557 39.353828
63.084759 -55.222626 39.624046
52.875601 -71.36578 47.704998
52.879135 -70.296864 48.121614
52.259749 -71.262764 48.395433
53.395406 -71.406609 46.83709
52.875601 -71.36578 47.704998
46.487923 -69.578034 51.025852
46.137793 -68.347107 50.84243
45.462522 -69.207214 51.093372
47.443653 -69.926368 50.859676
46.487923 -69.578034 51.025852
44.795767 -70.02903 51.358413
44.067478 -70.859741 51.59224
50.858621 -41.990882 50.069435
51.675619 -41.159607 50.327053
50.087013 -42.821085 49.766018
49.290989 -43.659574 49.481922
51.102038 -43.22117 49.793232
50.858621 -41.990882 50.069435
50.087013 -42.821085 49.766018
39.416285 -48.423181 49.884972
39.141481 -47.350302 50.450203
38.569637 -48.289746 50.549759
56.898849 -66.64999 43.415201
57.386844 -65.7411 43.08193
57.073658 -65.778839 44.102833
56.898849 -66.64999 43.415201
56.406525 -67.578735 43.737766
32.887904 -60.065075 60.364452
32.98482 -59.153464 60.225357
32.780632 -59.436461 61.255863
32.790858 -60.943577 60.423431
32.995045 -60.66058 59.392925
32.887904 -60.065075 60.364452
32.541349 -61.29191 61.406715
32.648491 -61.887415 60.435188
32.790858 -60.943577 60.423431
32.30875 -61.623249 62.477626
32.541349 -61.29191 61.406715
32.017593 -61.99396 63.495365
32.107826 -62.606459 62.436211
32.30875 -61.623249 62.477626
31.726622 -62.354868 64.562325
32.017593 -61.99396 63.495365
31.459988 -63.361456 64.46093
31.726622 -62.354868 64.562325
37.030424 -48.121597 52.120396
37.764824 -48.168346 51.274273
36.554331 -49.080629 52.332711
37.030424 -48.121597 52.120396
36.349941 -48.082399 53.019551
33.212433 -63.603359 57.507923
32.964365 -63.029556 58.473881
32.922358 -63.992329 58.378189
33.522238 -64.114645 56.655548
33.564245 -63.151872 56.75124
33.212433 -63.603359 57.507923
33.926494 -64.680009 55.805279
33.522238 -64.114645 56.655548
31.917673 -66.860267 59.785889
31.438967 -67.257667 60.582935
31.720413 -67.891174 59.526424
32.315562 -66.454292 58.908302
32.034115 -65.820785 59.964813
31.917673 -66.860267 59.785889
32.768181 -66.024391 58.129024
32.315562 -66.454292 58.908302
32.469097 -71.365814 57.157307
31.934792 -70.679291 58.012722
32.469097 -71.365814 57.157307
32.487974 -72.466515 56.942791
27.505047 -69.869678 66.078903
27.052194 -70.802418 65.43909
28.173817 -69.483506 65.348702
27.505047 -69.869678 66.078903
28.412361 -70.089161 64.096542
28.816061 -69.133206 64.648049
28.173817 -69.483506 65.348702
28.750592 -70.692321 62.842945
28.412361 -70.089161 64.096542
28.108348 -71.042621 63.543598
29.082675 -71.332638 61.653591
29.386688 -70.379177 62.206535
28.750592 -70.692321 62.842945
29.523625 -71.984463 60.486324
29.082675 -71.332638 61.653591
29.976806 -72.668117 59.41444
30.171952 -71.703148 59.945297
29.523625 -71.984463 60.486324
30.530783 -73.374725 58.375855
29.976806 -72.668117 59.41444
31.205095 -73.113347 57.954548
30.530783 -73.374725 58.375855
53.694324 -41.969672 50.429966
52.663607 -41.561945 50.353058
52.904364 -42.798694 50.173557
54.457918 -41.134139 50.66383
53.694324 -41.969672 50.429966
54.698675 -42.370888 50.484329
55.254064 -40.30019 50.829696
54.457918 -41.134139 50.66383
56.020568 -39.455286 50.951649
55.254064 -40.30019 50.829696
56.228773 -40.690451 50.840145
56.808872 -38.613833 50.992592
56.020568 -39.455286 50.951649
56.808872 -38.613833 50.992592
57.748695 -38.991693 50.940273
60.555145 -40.048294 50.560654
59.842449 -40.914637 50.659367
60.555145 -40.048294 50.560654
61.425647 -40.377237 50.28622
62.63044 -43.022163 49.318684
61.81604 -42.743299 49.823494
61.981621 -43.901052 49.423924
63.385632 -43.30492 48.731544
63.511475 -44.428957 48.188852
64.101086 -43.553961 48.001283
62.63044 -43.022163 49.318684
63.385632 -43.30492 48.731544
3 0 61 59
3 0 59 62
3 1 67 65
3 235 68 236
3 1 71 69
3 1 65 71
3 2 75 73
3 238 237 76
3 3 80 78
3 239 83 240
3 241 240 81
3 239 240 241
3 242 76 243
3 244 243 83
3 242 243 244
3 5 87 85
3 7 90 89
3 9 92 91
3 9 94 92
3 4 97 95
3 10 100 98
3 10 102 100
3 10 104 102
3 7 107 105
3 7 89 107
3 12 245 246
3 12 247 248
3 12 249 251
3 249 111 250
3 249 250 251
3 11 116 114
3 13 119 117
3 13 121 119
3 8 252 253
3 14 124 122
3 14 126 124
3 6 129 127
3 254 132 255
3 256 255 130
3 254 255 256
3 258 257 132
3 15 259 260
3 16 261 263
3 263 262 60
3 261 262 263
3 16 264 265
3 17 136 134
3 15 137 63
3 15 266 268
3 268 267 137
3 266 267 268
3 19 140 138
3 269 141 270
3 271 270 64
3 269 270 271
3 273 272 141
3 21 144 142
3 275 274 66
3 22 276 278
3 276 145 277
3 276 277 278
3 22 146 145
3 23 149 147
3 25 150 70
3 25 151 150
3 25 153 151
3 21 154 72
3 21 142 154
3 279 155 280
3 281 157 282
3 283 282 155
3 281 282 283
3 284 158 285
3 287 286 158
3 288 160 289
3 290 161 291
3 292 162 293
3 294 293 161
3 292 293 294
3 29 165 163
3 31 166 74
3 31 167 166
3 32 295 296
3 34 171 169
3 298 297 77
3 36 174 172
3 38 175 79
3 38 176 175
3 18 177 135
3 39 178 82
3 39 179 178
3 39 180 179
3 34 181 84
3 34 169 181
3 40 184 182
3 42 185 86
3 42 186 185
3 20 187 139
3 43 188 88
3 43 189 188
3 43 190 189
3 300 299 143
3 35 301 303
3 303 302 170
3 301 302 303
3 44 304 305
3 44 306 308
3 306 191 307
3 306 307 308
3 44 192 191
3 45 193 93
3 45 194 193
3 37 195 173
3 46 196 96
3 46 197 196
3 24 198 148
3 47 199 99
3 47 200 199
3 47 201 200
3 48 202 101
3 48 203 202
3 48 204 203
3 49 205 103
3 49 206 205
3 26 207 152
3 50 208 106
3 50 209 208
3 50 210 209
3 309 211 310
3 311 310 108
3 309 310 311
3 313 312 211
3 51 214 212
3 315 314 109
3 53 316 317
3 53 318 319
3 53 320 322
3 320 215 321
3 320 321 322
3 54 216 110
3 54 217 216
3 27 218 156
3 55 219 112
3 55 220 219
3 55 221 220
3 51 222 113
3 51 212 222
3 52 223 213
3 56 323 325
3 325 324 115
3 323 324 325
3 56 326 327
3 28 224 159
3 329 328 118
3 331 330 120
3 332 225 333
3 335 334 225
3 30 226 164
3 336 227 337
3 338 337 123
3 336 337 338
3 340 339 227
3 342 341 125
3 41 228 183
3 57 229 128
3 57 230 229
3 33 231 168
3 58 232 131
3 58 233 232
3 58 234 233
3 344 343 133
3 59 60 15
3 61 60 59
3 61 16 60
3 62 63 17
3 59 63 62
3 59 15 63
3 345 64 346
3 347 346 19
3 345 346 347
3 348 64 349
3 351 350 64
3 65 66 21
3 67 66 65
3 67 352 354
3 354 353 66
3 352 353 354
3 68 355 356
3 68 357 359
3 357 22 358
3 357 358 359
3 69 70 23
3 71 70 69
3 71 25 70
3 71 72 25
3 65 72 71
3 65 21 72
3 73 74 29
3 75 74 73
3 75 31 74
3 362 361 32
3 360 361 362
3 76 77 34
3 363 77 364
3 365 364 76
3 363 364 365
3 367 366 77
3 78 79 36
3 80 79 78
3 80 38 79
3 81 82 18
3 83 82 81
3 83 39 82
3 83 84 39
3 76 84 83
3 76 34 84
3 85 86 40
3 87 86 85
3 87 42 86
3 368 88 369
3 370 369 20
3 368 369 370
3 371 88 372
3 373 43 374
3 375 374 88
3 373 374 375
3 377 376 43
3 89 378 379
3 90 380 382
3 382 381 89
3 380 381 382
3 90 383 384
3 386 385 35
3 91 387 388
3 92 389 391
3 391 390 91
3 389 390 391
3 92 392 394
3 392 44 393
3 392 393 394
3 92 93 44
3 94 93 92
3 94 45 93
3 95 96 37
3 97 96 95
3 97 46 96
3 98 99 24
3 100 99 98
3 100 47 99
3 100 101 47
3 102 101 100
3 102 48 101
3 102 103 48
3 104 103 102
3 104 49 103
3 105 106 26
3 107 106 105
3 107 50 106
3 107 108 50
3 89 108 107
3 89 395 397
3 397 396 108
3 395 396 397
3 398 109 399
3 400 399 51
3 398 399 400
3 401 109 402
3 404 403 109
3 405 53 406
3 407 110 408
3 409 408 53
3 407 408 409
3 111 410 412
3 410 110 411
3 410 411 412
3 111 54 110
3 413 112 414
3 415 414 27
3 413 414 415
3 416 112 417
3 418 55 419
3 420 419 112
3 418 419 420
3 421 113 422
3 423 422 55
3 421 422 423
3 424 113 425
3 426 51 427
3 428 427 113
3 426 427 428
3 114 115 52
3 116 115 114
3 116 56 115
3 117 118 28
3 119 118 117
3 119 429 431
3 431 430 118
3 429 430 431
3 119 432 434
3 432 120 433
3 432 433 434
3 121 120 119
3 121 435 437
3 437 436 120
3 435 436 437
3 122 123 30
3 124 123 122
3 124 438 440
3 440 439 123
3 438 439 440
3 124 441 443
3 441 125 442
3 441 442 443
3 126 125 124
3 126 444 446
3 446 445 125
3 444 445 446
3 127 128 41
3 129 128 127
3 129 57 128
3 130 131 33
3 132 131 130
3 132 58 131
3 132 133 58
3 447 133 448
3 449 448 132
3 447 448 449
3 451 450 133
3 60 452 454
3 454 453 15
3 452 453 454
3 456 455 60
3 134 135 3
3 136 135 134
3 136 18 135
3 63 136 17
3 137 136 63
3 137 18 136
3 137 81 18
3 457 81 458
3 459 458 137
3 457 458 459
3 461 460 81
3 138 139 5
3 140 139 138
3 140 20 139
3 64 140 19
3 141 140 64
3 141 20 140
3 141 462 464
3 464 463 20
3 462 463 464
3 466 465 141
3 142 143 7
3 144 143 142
3 144 467 469
3 469 468 143
3 467 468 469
3 66 144 21
3 470 144 471
3 472 471 66
3 470 471 472
3 474 473 144
3 145 475 476
3 145 477 478
3 145 479 481
3 479 91 480
3 479 480 481
3 146 91 145
3 146 9 91
3 147 148 4
3 149 148 147
3 149 24 148
3 70 149 23
3 150 149 70
3 150 24 149
3 150 98 24
3 151 98 150
3 151 10 98
3 151 152 10
3 153 152 151
3 153 26 152
3 72 153 25
3 154 153 72
3 154 26 153
3 154 105 26
3 142 105 154
3 142 7 105
3 155 482 483
3 155 484 486
3 484 12 485
3 484 485 486
3 155 156 12
3 157 156 155
3 157 27 156
3 487 157 488
3 158 489 491
3 489 157 490
3 489 490 491
3 158 27 157
3 158 492 494
3 494 493 27
3 492 493 494
3 496 495 158
3 497 159 498
3 499 498 11
3 497 498 499
3 160 500 502
3 500 159 501
3 500 501 502
3 160 28 159
3 503 160 504
3 161 505 507
3 505 160 506
3 505 506 507
3 161 28 160
3 161 117 28
3 162 117 161
3 162 13 117
3 163 164 8
3 165 164 163
3 165 30 164
3 74 165 29
3 166 165 74
3 166 30 165
3 166 122 30
3 167 122 166
3 167 14 122
3 508 168 509
3 510 509 6
3 508 509 510
3 511 168 512
3 513 33 514
3 515 514 168
3 513 514 515
3 517 516 32
3 518 33 519
3 520 130 521
3 522 521 33
3 520 521 522
3 523 130 524
3 526 525 130
3 169 170 1
3 171 170 169
3 171 35 170
3 77 171 34
3 527 171 528
3 529 528 77
3 527 528 529
3 530 35 531
3 532 531 171
3 530 531 532
3 534 533 35
3 172 535 537
3 535 173 536
3 535 536 537
3 174 173 172
3 174 37 173
3 79 174 36
3 175 174 79
3 175 37 174
3 175 95 37
3 176 95 175
3 176 4 95
3 135 80 3
3 177 80 135
3 177 38 80
3 82 177 18
3 178 177 82
3 178 38 177
3 178 176 38
3 179 176 178
3 179 4 176
3 179 147 4
3 180 147 179
3 180 23 147
3 84 180 39
3 181 180 84
3 181 23 180
3 181 69 23
3 169 69 181
3 169 1 69
3 182 183 2
3 184 183 182
3 184 41 183
3 86 184 40
3 185 184 86
3 185 41 184
3 185 127 41
3 186 127 185
3 186 6 127
3 139 87 5
3 187 87 139
3 187 42 87
3 88 187 20
3 188 187 88
3 188 42 187
3 188 186 42
3 189 186 188
3 189 6 186
3 189 538 540
3 540 539 6
3 538 539 540
3 190 541 543
3 543 542 189
3 541 542 543
3 190 544 546
3 544 32 545
3 544 545 546
3 547 190 548
3 549 548 43
3 547 548 549
3 550 190 551
3 552 32 553
3 554 553 190
3 552 553 554
3 556 555 32
3 143 90 7
3 557 90 558
3 559 558 143
3 557 558 559
3 561 560 90
3 170 67 1
3 562 67 563
3 564 563 170
3 562 563 564
3 566 565 67
3 568 567 35
3 569 8 570
3 191 571 572
3 191 573 575
3 573 8 574
3 573 574 575
3 191 163 8
3 192 163 191
3 192 29 163
3 93 192 44
3 193 192 93
3 193 29 192
3 193 73 29
3 194 73 193
3 194 2 73
3 173 576 578
3 576 68 577
3 576 577 578
3 195 68 173
3 195 22 68
3 96 195 37
3 196 195 96
3 196 22 195
3 196 146 22
3 197 146 196
3 197 9 146
3 148 97 4
3 198 97 148
3 198 46 97
3 99 198 24
3 199 198 99
3 199 46 198
3 199 197 46
3 200 197 199
3 200 9 197
3 200 94 9
3 201 94 200
3 201 45 94
3 101 201 47
3 202 201 101
3 202 45 201
3 202 194 45
3 203 194 202
3 203 2 194
3 203 182 2
3 204 182 203
3 204 40 182
3 103 204 48
3 205 204 103
3 205 40 204
3 205 85 40
3 206 85 205
3 206 5 85
3 152 104 10
3 207 104 152
3 207 49 104
3 106 207 26
3 208 207 106
3 208 49 207
3 208 206 49
3 209 206 208
3 209 5 206
3 209 138 5
3 210 138 209
3 210 19 138
3 108 210 50
3 211 210 108
3 211 19 210
3 211 579 581
3 581 580 19
3 579 580 581
3 583 582 211
3 212 213 0
3 214 213 212
3 214 52 213
3 109 214 51
3 584 214 585
3 586 585 109
3 584 585 586
3 587 52 588
3 589 588 214
3 587 588 589
3 590 114 591
3 592 591 52
3 590 591 592
3 593 114 594
3 595 11 596
3 597 596 114
3 595 596 597
3 598 11 599
3 601 600 11
3 602 172 603
3 215 604 606
3 604 172 605
3 604 605 606
3 215 36 172
3 110 215 53
3 216 215 110
3 216 36 215
3 216 78 36
3 217 78 216
3 217 3 78
3 156 111 12
3 218 111 156
3 218 54 111
3 112 218 27
3 219 218 112
3 219 54 218
3 219 217 54
3 220 217 219
3 220 3 217
3 220 134 3
3 221 134 220
3 221 17 134
3 113 221 55
3 222 221 113
3 222 17 221
3 222 62 17
3 212 62 222
3 212 0 62
3 213 61 0
3 223 61 213
3 223 16 61
3 115 223 52
3 607 223 608
3 609 608 115
3 607 608 609
3 610 16 611
3 612 611 223
3 610 611 612
3 614 613 16
3 159 116 11
3 224 116 159
3 224 56 116
3 118 224 28
3 615 224 616
3 617 616 118
3 615 616 617
3 618 56 619
3 620 619 224
3 618 619 620
3 622 621 56
3 120 623 624
3 626 625 120
3 225 627 628
3 225 629 630
3 225 631 633
3 631 162 632
3 631 632 633
3 634 162 635
3 636 635 225
3 634 635 636
3 637 13 638
3 639 638 162
3 637 638 639
3 640 13 641
3 642 121 643
3 644 643 13
3 642 643 644
3 645 121 646
3 648 647 121
3 164 649 651
3 651 650 8
3 649 650 651
3 226 652 654
3 654 653 164
3 652 653 654
3 226 655 656
3 123 226 30
3 227 226 123
3 227 657 659
3 659 658 226
3 657 658 659
3 227 660 661
3 663 662 227
3 125 664 665
3 667 666 125
3 183 75 2
3 228 75 183
3 228 31 75
3 128 228 41
3 229 228 128
3 229 31 228
3 229 167 31
3 230 167 229
3 230 14 167
3 168 129 6
3 231 129 168
3 231 57 129
3 131 231 33
3 232 231 131
3 232 57 231
3 232 230 57
3 233 230 232
3 233 14 230
3 233 126 14
3 234 126 233
3 234 668 670
3 670 669 126
3 668 669 670
3 133 234 58
3 671 234 672
3 673 672 133
3 671 672 673
3 675 674 234
