ply
format ascii 1.0
element vertex 694
property float x
property float y
property float z
element face 758
property list uchar int vertex_index
end_header
34.883873 -93.958 -23.873701
36.002796 -6.775681 -52.556732
36.840179 -37.967403 -36.152702
27.14016 -77.567055 -21.449865
44.38781 -57.398571 -32.334053
27.700565 -64.132378 -20.990908
33.342098 -57.469273 -28.121805
50.118759 -63.651058 -29.787161
39.767792 -76.252441 -27.229063
35.176552 5.436583 -57.136673
44.564934 -14.396937 -48.972588
37.36837 -20.935324 -44.3283
43.312828 -29.997295 -40.771652
29.223103 -87.831116 -22.990675
34.929256 -68.476196 -27.944872
39.666199 -48.538616 -34.285576
48.7052 -39.047516 -38.343628
40.687157 -87.45845 -24.924772
42.800152 -78.836945 -26.4788
37.428879 -85.355507 -25.304251
35.575718 10.999767 -56.834152
36.755039 -13.520237 -48.5755
40.759132 -17.216223 -46.7789
40.42691 -10.098624 -51.203629
27.660194 -83.211777 -22.21739
32.286602 -78.409485 -25.147696
30.950947 -73.458336 -24.76779
35.422951 -47.476471 -32.122055
36.090755 -53.124187 -31.596472
38.171501 -43.281456 -35.191383
41.74807 -39.01683 -37.447548
39.751465 -33.919445 -38.76886
47.207874 -60.8134 -31.111921
52.398636 -54.849731 -32.79483
49.550819 -51.719894 -34.112946
46.699562 -48.091721 -35.265701
27.392748 -71.091522 -20.966108
30.618229 -67.645546 -24.431555
30.83375 -61.258953 -24.357016
33.187012 -51.395905 -28.414156
47.975426 -72.281815 -27.335794
44.937458 -69.905457 -28.538153
42.054821 -66.848885 -29.611162
32.076988 -101.92276 -22.843378
35.402573 -0.51532 -55.617912
39.378979 8.224506 -58.116219
39.450535 2.369883 -57.568108
39.901051 -3.671761 -55.095421
48.019768 -19.424166 -46.47538
37.482269 -29.093727 -40.182076
40.611763 -25.176603 -42.562027
44.215782 -21.740879 -44.59124
47.157059 -26.514105 -42.666977
28.519815 -99.698875 -22.370321
25.662737 -96.488091 -21.596987
31.714642 -91.389351 -23.570326
34.542114 -82.371536 -25.362745
37.058025 -72.817551 -27.719492
39.43026 -63.027561 -30.462366
33.698029 -63.287167 -28.020597
37.351143 -58.412441 -31.086695
41.776245 -53.311596 -33.372643
44.024609 -43.848785 -36.314491
45.897682 -34.784538 -39.347313
49.998222 -30.596691 -41.556778
36.634102 -94.905479 -23.882822
37.859211 -90.774292 -24.473577
39.027069 -86.509331 -25.160711
36.189865 -89.72847 -24.529425
36.375446 -10.073765 -50.636436
38.532909 -11.693174 -49.936104
38.214085 -8.314295 -52.022812
25.104557 -79.173645 -19.918341
27.275019 -80.509415 -21.815695
29.384239 -78.412949 -23.384619
29.062609 -75.64801 -23.086309
36.221741 -42.649406 -34.141525
36.698647 -45.397091 -33.763054
37.535088 -40.599464 -35.664398
39.040775 -38.532791 -36.971954
38.207157 -35.941933 -37.56134
45.784584 -59.184071 -31.743505
48.382458 -56.258785 -32.566597
46.961548 -54.562851 -33.194534
48.119087 -49.976185 -34.710739
45.559113 -52.719925 -33.780174
25.742992 -65.151382 -19.589293
25.681734 -68.786736 -19.437296
25.492893 -72.371979 -19.448664
27.593935 -67.646004 -20.905737
29.251467 -66.208755 -22.556231
29.388952 -62.828465 -22.589434
32.023434 -53.152592 -26.515482
33.975967 -46.589958 -30.574305
41.254066 -77.644699 -26.883581
43.855957 -74.401657 -27.441977
42.355591 -73.08313 -27.930246
43.473572 -68.467598 -29.096464
40.908867 -71.572426 -28.36899
33.435242 0.66847 -55.329048
35.228409 2.495169 -56.597542
42.231697 -5.630115 -54.341637
35.522133 -19.146769 -45.045441
36.077858 -26.937275 -40.84613
37.508732 -24.921711 -42.234833
38.977421 -27.104599 -41.441559
39.07328 -22.954849 -43.478905
42.617706 -15.655169 -47.906044
42.562679 -19.397587 -45.693481
44.449196 -17.957239 -46.731239
46.114655 -20.39168 -45.563759
46.39666 -16.856518 -47.716003
26.508459 -90.177406 -21.764605
27.500038 -92.263741 -22.201952
28.725964 -94.080887 -22.583418
30.367603 -89.740105 -23.311354
33.175423 -86.961395 -24.389456
31.896986 -85.211754 -24.213148
33.648602 -73.4841 -26.482775
34.643108 -75.684906 -26.510931
35.899231 -70.759888 -27.860807
38.251755 -67.930634 -29.056681
37.110806 -65.788445 -29.301378
32.065968 -62.559975 -26.213247
32.12326 -65.555466 -26.253904
33.437653 -60.436588 -28.057169
37.763836 -50.848595 -33.048187
36.615997 -55.837246 -31.347311
38.523735 -53.438641 -32.691483
39.477329 -55.879765 -32.317032
40.641079 -51.004284 -33.83699
42.92654 -48.541946 -34.84108
41.770775 -46.204727 -35.348228
42.610931 -34.42963 -39.067772
43.783775 -36.892036 -38.397232
44.591019 -32.435593 -39.99942
46.605057 -30.512575 -40.959686
45.237663 -28.174717 -41.706978
51.532455 -32.34676 -41.245041
49.463837 -34.70573 -39.938622
27.624092 -60.611336 -21.223925
29.375378 -59.423134 -22.755087
43.384731 -84.072685 -25.237597
44.38678 -79.84343 -26.011614
41.751415 -83.194099 -25.643927
40.151764 -82.12706 -25.961031
38.614769 -80.856186 -26.20471
35.109928 -15.510485 -47.123711
37.101448 -17.136417 -46.453133
39.004814 -19.001532 -45.594521
38.810307 -15.249569 -47.765343
40.634586 -13.556295 -49.001656
42.561958 -12.130429 -50.161995
25.77379 -87.817108 -21.286051
28.312464 -85.655167 -22.619139
30.817337 -83.204529 -23.975382
29.9711 -80.936646 -23.691168
31.489187 -76.053329 -24.966673
32.886036 -71.049583 -26.414026
34.460125 -52.426991 -30.10581
34.63562 -55.342915 -29.937551
35.725136 -50.318932 -31.849932
37.177654 -48.150421 -33.401535
38.855457 -45.947998 -34.733536
40.753403 -43.726822 -35.865265
39.860989 -41.150166 -36.405113
40.742432 -36.469624 -38.086128
41.46492 -31.926727 -39.816208
48.651596 -62.299572 -30.454821
51.25053 -59.26585 -31.227175
49.811356 -57.822975 -31.905989
50.669891 -47.207653 -35.736145
49.21347 -45.434883 -36.281288
47.76585 -43.526314 -36.786285
25.267002 -75.850975 -19.616083
27.206553 -74.414505 -21.155962
28.980854 -72.667038 -22.828852
29.076231 -69.505676 -22.643156
30.709356 -64.50029 -24.349451
32.114048 -59.457657 -26.230291
30.865046 -57.977531 -24.472712
32.142685 -56.302151 -26.325872
33.302505 -54.436581 -28.2348
34.283783 -49.48922 -30.313501
35.060127 -44.657223 -32.425148
49.024494 -67.993088 -28.487562
45.398689 -75.540604 -26.911173
46.440361 -71.173874 -27.950029
47.524166 -66.755234 -29.132597
46.055008 -65.368805 -29.764532
44.617111 -63.825871 -30.372225
43.214905 -62.114868 -30.938879
33.508774 -98.028572 -23.320772
35.669483 -3.598784 -54.246536
37.340282 9.811249 -57.664169
37.19017 6.977215 -57.842255
37.208252 4.053587 -57.540367
37.355225 1.072222 -56.760178
37.593719 -1.96629 -55.533012
37.890327 -5.083832 -53.923431
40.171398 -6.81649 -53.275002
42.423847 -8.800755 -52.351021
44.579414 -11.037175 -51.214668
34.82095 -37.421051 -34.959824
35.983334 -35.448658 -36.649734
37.262497 -33.445198 -38.160767
38.691383 -31.438667 -39.477074
40.278042 -29.460024 -40.619797
42.007309 -27.548801 -41.640709
40.76329 -21.090508 -44.617455
42.36792 -23.364998 -43.595993
43.844166 -25.757675 -42.603394
45.735489 -24.155594 -43.555168
47.609161 -22.835096 -44.495384
48.946014 -25.089565 -43.635941
28.658363 -104.711319 -22.228811
30.229445 -100.92923 -22.655752
31.76395 -96.950562 -23.154833
30.157776 -95.638931 -22.903116
33.23135 -92.790649 -23.761354
34.617435 -88.46257 -24.496889
35.923973 -83.981049 -25.370028
37.164806 -79.366379 -26.378061
33.316872 -80.516159 -25.285646
35.829182 -77.645218 -26.479486
38.360229 -74.64679 -27.509516
39.531586 -69.857758 -28.746767
40.696754 -65.038124 -30.068468
41.866219 -60.224072 -31.451891
30.672749 -70.645294 -24.579851
32.37994 -68.397751 -26.329115
34.189041 -65.977982 -27.990667
34.930172 -58.18082 -29.791616
35.425869 -60.891788 -29.649839
36.156124 -63.43684 -29.493048
38.299557 -60.816109 -30.797422
40.60535 -58.145607 -31.908667
43.039391 -55.443768 -32.875908
44.20155 -50.715485 -34.324814
45.3228 -46.051315 -35.792137
46.360641 -41.466644 -37.282364
42.831978 -41.493797 -36.85955
45.028755 -39.250694 -37.808044
47.267494 -36.993561 -38.808044
48.002747 -32.695152 -40.381096
48.549812 -28.677727 -41.998917
36.189121 -8.424723 -51.596584
35.318103 -9.384534 -50.840454
35.131778 -7.735492 -51.800602
26.117867 -79.931904 -20.886797
25.100065 -80.735199 -20.121035
26.122359 -78.37035 -20.684103
27.20759 -79.038235 -21.63278
26.185296 -81.403084 -21.069712
26.117867 -79.931904 -20.886797
34.273336 4.528994 -56.595059
34.3126 5.958951 -56.74263
35.202481 3.965876 -56.867108
34.299265 3.058287 -56.325493
34.273336 4.528994 -56.595059
36.614939 -21.944251 -43.637294
35.69182 -21.049974 -43.995865
36.445251 -20.041047 -44.68687
37.438551 -22.928517 -43.281566
36.685119 -23.937444 -42.590561
36.614939 -21.944251 -43.637294
51.412668 -62.120138 -30.163304
50.864959 -64.259939 -29.449999
49.843593 -37.809161 -38.951363
49.446914 -40.001331 -38.121559
49.084519 -36.876623 -39.141125
50.222912 -35.638267 -39.74886
49.843593 -37.809161 -38.951363
27.474156 -58.881274 -21.405409
26.622022 -61.07027 -20.558543
28.378166 -58.334289 -22.137171
27.474156 -58.881274 -21.405409
41.528578 -87.838184 -24.745531
40.136804 -89.536777 -24.612932
42.035944 -85.765568 -25.081184
42.877365 -86.145302 -24.901944
41.528578 -87.838184 -24.745531
34.637846 10.105172 -56.517853
34.864027 11.373429 -56.226391
35.428232 9.643991 -57.024365
34.637846 10.105172 -56.517853
35.932483 -14.515361 -47.849605
34.89246 -13.771359 -48.133026
35.715015 -12.776236 -48.858921
26.716992 -85.514443 -21.751721
25.540014 -86.501499 -21.039713
26.483216 -84.198834 -21.505383
50.2644 -52.529981 -33.79211
49.68022 -54.799427 -33.018936
48.966639 -53.989339 -33.339771
50.83086 -50.291332 -34.623654
50.2644 -52.529981 -33.79211
50.110355 -49.463774 -34.924546
51.390396 -48.035212 -35.435253
50.83086 -50.291332 -34.623654
30.779369 -56.347515 -24.588919
30.120212 -58.700333 -23.6139
30.034534 -57.070316 -23.730106
34.788883 -43.290066 -32.595543
34.518047 -45.623591 -31.499727
34.246803 -44.256433 -31.670122
35.344072 -42.313895 -33.483387
34.788883 -43.290066 -32.595543
49.262501 -70.683067 -27.580448
48.750429 -72.75769 -27.00844
48.49996 -70.137451 -27.911678
49.787035 -68.538704 -28.156332
49.262501 -70.683067 -27.580448
33.712927 -100.40327 -23.103363
33.045071 -102.303901 -22.862356
32.792881 -99.975666 -23.082075
34.42882 -98.456176 -23.34206
33.712927 -100.40327 -23.103363
34.510745 -1.439438 -54.914894
33.527079 -0.847543 -54.770462
34.418908 0.076575 -55.47348
35.536028 -2.057052 -54.932224
34.644199 -2.98117 -54.229206
34.510745 -1.439438 -54.914894
38.359631 9.017878 -57.890194
38.463645 10.420903 -57.664005
39.482994 9.627532 -57.89003
39.398455 3.846012 -57.829941
40.557085 2.868717 -57.772248
38.329394 3.211735 -57.554237
38.277314 4.687864 -57.816071
39.398455 3.846012 -57.829941
38.747385 -2.819025 -55.314217
38.621262 -1.294071 -56.043602
39.774928 -2.146806 -55.824807
43.466657 -8.323329 -52.836399
42.327772 -7.215435 -53.346329
43.370582 -6.738009 -53.831707
44.544441 -9.441539 -52.268223
43.501631 -9.918965 -51.782845
43.466657 -8.323329 -52.836399
34.860472 -35.260035 -36.049217
34.292346 -36.237995 -35.169075
35.441664 -34.273838 -36.894172
35.402142 -36.434855 -35.804779
34.860472 -35.260035 -36.049217
36.805323 -30.09815 -39.465569
36.103117 -29.019924 -39.797596
36.780063 -28.015501 -40.514103
37.372383 -31.269462 -39.171422
36.695436 -32.273885 -38.454915
36.805323 -30.09815 -39.465569
48.699749 -20.684189 -45.909061
48.494445 -22.389654 -44.919064
47.814464 -21.129631 -45.485382
26.904612 -105.957455 -21.894112
27.875749 -106.494 -22.026868
29.37463 -100.314053 -22.513036
28.531921 -102.243863 -22.297149
27.677107 -101.628685 -22.154434
24.103165 -97.528512 -21.122179
25.118068 -95.486546 -21.357827
24.704933 -98.492302 -21.369371
24.103165 -97.528512 -21.122179
26.324889 -97.355213 -21.805792
24.704933 -98.492302 -21.369371
53.109478 -55.551359 -32.444702
52.535425 -57.759418 -31.660874
51.824583 -57.05779 -32.011002
50.891987 -29.494271 -42.237686
51.659103 -30.369306 -42.081817
50.765338 -31.471726 -41.400909
50.142482 -28.747991 -42.347424
50.891987 -29.494271 -42.237686
38.110277 -93.260292 -24.091957
37.534757 -95.275375 -23.814217
38.722831 -91.194699 -24.387335
38.110277 -93.260292 -24.091957
37.246657 -92.839886 -24.178199
39.273184 -89.116371 -24.699174
40.136804 -89.536777 -24.612932
38.722831 -91.194699 -24.387335
35.830929 12.246187 -56.426098
34.864027 11.373429 -56.226391
35.525219 -11.053 -49.889389
35.318103 -9.384534 -50.840454
36.565242 -11.797001 -49.605968
35.715015 -12.776236 -48.858921
35.525219 -11.053 -49.889389
23.948978 -81.457558 -19.429058
24.003437 -79.806907 -19.217419
23.948978 -81.457558 -19.429058
25.100065 -80.735199 -20.121035
26.290629 -82.847653 -21.304535
26.185296 -81.403084 -21.069712
27.467607 -81.860596 -22.016542
26.483216 -84.198834 -21.505383
26.290629 -82.847653 -21.304535
24.631202 -67.386409 -18.870184
24.648108 -65.516506 -18.981259
24.600572 -69.204087 -18.794185
24.631202 -67.386409 -18.870184
25.712363 -66.969059 -19.513295
24.517207 -71.059238 -18.769024
24.600572 -69.204087 -18.794185
25.587314 -70.579358 -19.44298
24.422787 -72.85186 -18.774708
24.517207 -71.059238 -18.769024
31.841731 -51.612505 -26.659046
31.358563 -53.935046 -25.610304
32.448859 -50.780558 -27.593225
31.841731 -51.612505 -26.659046
33.030648 -49.902214 -28.542562
32.605223 -52.274248 -27.464819
32.448859 -50.780558 -27.593225
33.425125 -47.499241 -29.622637
33.58149 -48.992931 -29.494231
33.030648 -49.902214 -28.542562
33.704639 -45.190437 -30.733385
33.425125 -47.499241 -29.622637
34.246803 -44.256433 -31.670122
33.704639 -45.190437 -30.733385
47.471327 -74.396316 -26.8335
48.750429 -72.75769 -27.00844
31.345634 -103.770699 -22.622961
33.045071 -102.303901 -22.862356
33.402681 2.144938 -55.691246
32.619197 1.116732 -54.994564
34.331826 1.58182 -55.963295
33.402681 2.144938 -55.691246
34.299265 3.058287 -56.325493
40.542715 8.698597 -58.024605
39.482994 9.627532 -57.89003
40.631756 1.392169 -57.402794
40.557085 2.868717 -57.772248
39.54967 0.874016 -57.06115
40.631756 1.392169 -57.402794
40.958621 -3.122632 -55.55019
39.774928 -2.146806 -55.824807
42.123943 -4.101809 -55.173298
41.066374 -4.650938 -54.718529
40.958621 -3.122632 -55.55019
43.304638 -5.206075 -54.745823
42.123943 -4.101809 -55.173298
43.370582 -6.738009 -53.831707
43.304638 -5.206075 -54.745823
34.805183 -20.184577 -44.282204
34.570835 -18.373635 -45.307018
34.805183 -20.184577 -44.282204
35.69182 -21.049974 -43.995865
35.969683 -24.945227 -41.896209
35.285101 -25.971344 -41.134574
36.793295 -25.929493 -41.540481
35.969683 -24.945227 -41.896209
36.685119 -23.937444 -42.590561
26.85296 -100.927582 -21.970953
27.677107 -101.628685 -22.154434
25.540929 -92.331204 -21.441636
25.12407 -91.19138 -21.175477
26.036718 -93.374371 -21.660309
25.540929 -92.331204 -21.441636
27.004248 -91.220574 -21.983278
26.581387 -94.375916 -21.899469
25.118068 -95.486546 -21.357827
26.036718 -93.374371 -21.660309
53.661079 -53.360594 -33.280052
52.962963 -52.632429 -33.634754
51.257221 -34.458782 -40.402069
52.324661 -33.176836 -41.092846
50.498146 -33.526245 -40.591831
51.257221 -34.458782 -40.402069
50.222912 -35.638267 -39.74886
25.681472 -63.340294 -19.741227
24.648108 -65.516506 -18.981259
26.683542 -62.881359 -20.406609
25.681472 -63.340294 -19.741227
26.622022 -61.07027 -20.558543
29.253809 -57.740189 -22.902752
28.499735 -60.017235 -21.989506
28.378166 -58.334289 -22.137171
30.034534 -57.070316 -23.730106
29.253809 -57.740189 -22.902752
44.198456 -84.424305 -24.973776
42.877365 -86.145302 -24.901944
44.685358 -82.374706 -25.350346
44.198456 -84.424305 -24.973776
43.885756 -81.958057 -25.624606
45.186383 -80.260078 -25.737355
44.685358 -82.374706 -25.350346
35.228649 6.862398 -57.175625
34.3126 5.958951 -56.74263
34.124729 -14.818098 -47.335194
34.89246 -13.771359 -48.133026
34.364733 -16.555493 -46.346153
34.124729 -14.818098 -47.335194
35.31603 -17.328627 -46.084576
34.570835 -18.373635 -45.307018
34.364733 -16.555493 -46.346153
24.473065 -88.732495 -20.653286
25.540014 -86.501499 -21.039713
24.756736 -90.011231 -20.9362
24.473065 -88.732495 -20.653286
26.141125 -88.997257 -21.525328
25.12407 -91.19138 -21.175477
24.756736 -90.011231 -20.9362
50.394669 -55.581522 -32.688632
49.096907 -57.04088 -32.236293
49.68022 -54.799427 -33.018936
51.688309 -54.0949 -33.133052
51.104996 -56.336353 -32.350409
50.394669 -55.581522 -32.688632
52.962963 -52.632429 -33.634754
51.688309 -54.0949 -33.133052
51.912232 -45.804823 -36.307781
51.390396 -48.035212 -35.435253
51.17623 -44.970799 -36.57986
51.912232 -45.804823 -36.307781
50.448019 -44.084413 -36.852432
51.17623 -44.970799 -36.57986
49.941681 -46.321268 -36.008717
49.701049 -43.195015 -37.090389
50.448019 -44.084413 -36.852432
48.977239 -42.24073 -37.342888
49.701049 -43.195015 -37.090389
48.48966 -44.480598 -36.533787
48.235525 -41.286915 -37.564957
49.446914 -40.001331 -38.121559
48.977239 -42.24073 -37.342888
34.951723 -6.127531 -52.658214
35.131778 -7.735492 -51.800602
24.305524 -74.663528 -18.837916
24.422787 -72.85186 -18.774708
24.192579 -76.403027 -18.921625
24.305524 -74.663528 -18.837916
25.379948 -74.111477 -19.532373
24.08466 -78.145573 -19.06629
24.192579 -76.403027 -18.921625
25.18578 -77.51231 -19.767212
24.003437 -79.806907 -19.217419
24.08466 -78.145573 -19.06629
31.44424 -55.565061 -25.494097
30.779369 -56.347515 -24.588919
31.358563 -53.935046 -25.610304
35.924879 -41.309986 -34.341576
35.640934 -43.653315 -33.283337
35.344072 -42.313895 -33.483387
36.234098 -38.968984 -35.347164
36.53096 -40.308404 -35.147114
35.924879 -41.309986 -34.341576
50.317827 -66.430954 -28.800199
49.787035 -68.538704 -28.156332
49.571626 -65.822073 -29.137362
50.864959 -64.259939 -29.449999
50.317827 -66.430954 -28.800199
45.677004 -78.177124 -26.17141
45.186383 -80.260078 -25.737355
46.182958 -76.025711 -26.621189
45.677004 -78.177124 -26.17141
44.892735 -77.692017 -26.461393
46.687057 -73.911209 -27.123483
47.471327 -74.396316 -26.8335
46.182958 -76.025711 -26.621189
35.991484 -96.89463 -23.623085
37.534757 -95.275375 -23.814217
35.071438 -96.467026 -23.601797
35.991484 -96.89463 -23.623085
34.42882 -98.456176 -23.34206
32.648163 -0.360119 -54.566921
32.619197 1.116732 -54.994564
32.648163 -0.360119 -54.566921
33.527079 -0.847543 -54.770462
34.785066 -4.539083 -53.503117
34.644199 -2.98117 -54.229206
35.83614 -5.187233 -53.401634
34.951723 -6.127531 -52.658214
34.785066 -4.539083 -53.503117
36.633432 11.744969 -56.931804
35.830929 12.246187 -56.426098
37.515715 11.15071 -57.346813
38.463645 10.420903 -57.664005
36.458 10.405508 -57.249161
36.633432 11.744969 -56.931804
37.515715 11.15071 -57.346813
36.310514 9.049732 -57.439373
35.428232 9.643991 -57.024365
36.458 10.405508 -57.249161
36.235458 7.632715 -57.528416
36.310514 9.049732 -57.439373
37.265226 8.394232 -57.753212
36.183361 6.206899 -57.489464
35.228649 6.862398 -57.175625
36.235458 7.632715 -57.528416
40.496323 7.259951 -58.159146
40.542715 8.698597 -58.024605
41.660059 7.734043 -58.067532
39.362677 6.773323 -58.103997
40.496323 7.259951 -58.159146
38.268273 6.149678 -57.967015
38.284575 7.60086 -57.979237
39.362677 6.773323 -58.103997
37.199211 5.515401 -57.691311
38.268273 6.149678 -57.967015
38.277314 4.687864 -57.816071
38.502015 0.225185 -56.657185
38.40288 1.721053 -57.164143
39.54967 0.874016 -57.06115
37.474472 -0.447034 -56.146595
38.502015 0.225185 -56.657185
38.621262 -1.294071 -56.043602
45.624706 -10.678209 -51.654663
44.544441 -9.441539 -52.268223
45.581204 -12.273613 -50.575539
45.624706 -10.678209 -51.654663
45.573964 -13.953494 -49.454498
44.572174 -12.717056 -50.093628
45.581204 -12.273613 -50.575539
46.489826 -15.183285 -48.826206
45.480797 -15.626728 -48.344296
45.573964 -13.953494 -49.454498
47.388979 -16.516706 -48.151547
46.489826 -15.183285 -48.826206
48.200533 -17.800529 -47.531235
47.208214 -18.140342 -47.095692
47.388979 -16.516706 -48.151547
48.964153 -19.195099 -46.853004
48.200533 -17.800529 -47.531235
48.699749 -20.684189 -45.909061
48.964153 -19.195099 -46.853004
34.270958 -38.377063 -34.049374
34.292346 -36.237995 -35.169075
34.669295 -39.67198 -33.862881
34.270958 -38.377063 -34.049374
35.224484 -38.695808 -34.750725
34.669295 -39.67198 -33.862881
35.805675 -37.709612 -35.59568
35.224484 -38.695808 -34.750725
35.402142 -36.434855 -35.804779
36.411756 -36.70803 -36.401218
36.234098 -38.968984 -35.347164
35.805675 -37.709612 -35.59568
35.428194 -27.949379 -40.07021
35.285101 -25.971344 -41.134574
35.428194 -27.949379 -40.07021
36.103117 -29.019924 -39.797596
36.055855 -33.275616 -37.699398
35.441664 -34.273838 -36.894172
36.622916 -34.446928 -37.405251
36.055855 -33.275616 -37.699398
36.695436 -32.273885 -38.454915
49.162872 -23.516889 -44.489342
48.277587 -23.962331 -44.065663
48.494445 -22.389654 -44.919064
49.644989 -24.571635 -44.054344
49.162872 -23.516889 -44.489342
29.636322 -105.164978 -22.315677
27.875749 -106.494 -22.026868
30.367676 -103.317039 -22.536095
31.345634 -103.770699 -22.622961
29.636322 -105.164978 -22.315677
27.746381 -104.134907 -22.083679
26.904612 -105.957455 -21.894112
29.443904 -102.820275 -22.442281
27.746381 -104.134907 -22.083679
28.531921 -102.243863 -22.297149
27.753428 -98.960605 -22.192459
26.85296 -100.927582 -21.970953
27.856503 -96.151612 -22.299008
26.324889 -97.355213 -21.805792
27.19435 -95.284489 -22.090203
28.572409 -96.930633 -22.458856
27.856503 -96.151612 -22.299008
29.44187 -94.859909 -22.743267
29.338795 -97.668903 -22.636719
27.753428 -98.960605 -22.192459
28.572409 -96.930633 -22.458856
49.418278 -27.788509 -42.568493
50.142482 -28.747991 -42.347424
49.274017 -29.637209 -41.777848
49.616378 -25.994428 -43.387005
49.418278 -27.788509 -42.568493
48.747913 -26.883646 -42.817429
49.644989 -24.571635 -44.054344
49.616378 -25.994428 -43.387005
51.978554 -59.927534 -30.883311
51.412668 -62.120138 -30.163304
50.684644 -61.458454 -30.507168
51.978554 -59.927534 -30.883311
52.535425 -57.759418 -31.660874
53.109478 -55.551359 -32.444702
53.661079 -53.360594 -33.280052
52.466934 -31.103412 -41.986442
52.324661 -33.176836 -41.092846
52.466934 -31.103412 -41.986442
51.659103 -30.369306 -42.081817
3 0 66 65
3 0 68 66
3 1 246 248
3 246 69 247
3 246 247 248
3 1 71 69
3 3 249 251
3 251 250 72
3 249 250 251
3 3 252 254
3 252 73 253
3 252 253 254
3 3 75 73
3 2 78 76
3 2 80 78
3 4 83 81
3 4 85 83
3 5 87 86
3 5 89 87
3 5 91 89
3 8 96 94
3 8 98 96
3 9 255 256
3 9 257 259
3 257 100 258
3 257 258 259
3 11 260 262
3 262 261 102
3 260 261 262
3 11 263 265
3 263 104 264
3 263 264 265
3 11 106 104
3 10 109 107
3 10 111 109
3 13 113 112
3 13 115 113
3 13 117 115
3 14 120 118
3 14 122 120
3 6 125 123
3 15 128 126
3 15 130 128
3 15 132 130
3 12 135 133
3 12 137 135
3 7 266 267
3 16 268 269
3 16 270 272
3 270 139 271
3 270 271 272
3 273 140 274
3 276 275 140
3 17 277 278
3 17 279 281
3 279 142 280
3 279 280 281
3 17 144 142
3 19 145 67
3 19 146 145
3 20 282 283
3 20 284 285
3 21 286 288
3 286 147 287
3 286 287 288
3 21 148 147
3 21 150 148
3 23 151 70
3 23 152 151
3 24 289 291
3 289 153 290
3 289 290 291
3 24 154 153
3 24 156 154
3 26 157 74
3 26 158 157
3 27 161 159
3 29 162 77
3 29 163 162
3 29 165 163
3 31 166 79
3 31 167 166
3 32 170 168
3 34 292 294
3 294 293 82
3 292 293 294
3 34 295 296
3 34 297 299
3 297 171 298
3 297 298 299
3 35 172 84
3 35 173 172
3 36 174 88
3 36 175 174
3 36 177 175
3 38 178 90
3 38 179 178
3 300 180 301
3 302 301 141
3 300 301 302
3 39 181 92
3 39 182 181
3 39 183 182
3 303 184 304
3 305 304 93
3 303 304 305
3 307 306 184
3 40 308 309
3 40 310 312
3 310 185 311
3 310 311 312
3 18 186 143
3 41 187 95
3 41 188 187
3 41 189 188
3 42 190 97
3 42 191 190
3 43 313 314
3 43 315 317
3 315 192 316
3 315 316 317
3 44 318 320
3 320 319 99
3 318 319 320
3 44 321 323
3 321 193 322
3 321 322 323
3 45 324 326
3 324 194 325
3 324 325 326
3 45 195 194
3 46 327 328
3 46 329 331
3 329 196 330
3 329 330 331
3 46 197 196
3 47 332 334
3 332 198 333
3 332 333 334
3 47 199 198
3 47 200 199
3 335 201 336
3 337 336 101
3 335 336 337
3 338 202 339
3 340 339 201
3 338 339 340
3 341 203 342
3 343 204 344
3 345 344 203
3 343 344 345
3 49 346 348
3 348 347 103
3 346 347 348
3 49 349 351
3 349 205 350
3 349 350 351
3 49 206 205
3 50 207 105
3 50 208 207
3 22 209 149
3 51 210 108
3 51 211 210
3 51 212 211
3 48 213 110
3 48 352 354
3 354 353 213
3 352 353 354
3 355 215 356
3 53 357 359
3 357 216 358
3 357 358 359
3 53 217 216
3 54 360 361
3 54 362 363
3 54 364 365
3 55 218 114
3 55 219 218
3 55 220 219
3 56 221 116
3 56 222 221
3 25 223 155
3 57 224 119
3 57 225 224
3 57 226 225
3 58 227 121
3 58 228 227
3 37 229 176
3 59 230 124
3 59 231 230
3 28 232 160
3 60 233 127
3 60 234 233
3 60 235 234
3 61 236 129
3 61 237 236
3 61 238 237
3 62 239 131
3 62 240 239
3 30 241 164
3 63 242 134
3 63 243 242
3 63 244 243
3 52 245 136
3 52 214 245
3 33 366 368
3 368 367 169
3 366 367 368
3 64 369 371
3 371 370 138
3 369 370 371
3 64 372 373
3 65 374 375
3 66 376 378
3 378 377 65
3 376 377 378
3 66 379 381
3 379 17 380
3 379 380 381
3 66 67 17
3 68 67 66
3 68 19 67
3 382 20 383
3 69 384 385
3 69 386 388
3 386 21 387
3 386 387 388
3 69 70 21
3 71 70 69
3 71 23 70
3 72 389 390
3 392 391 72
3 73 393 394
3 73 395 397
3 395 24 396
3 395 396 397
3 73 74 24
3 75 74 73
3 75 26 74
3 76 77 27
3 78 77 76
3 78 29 77
3 78 79 29
3 80 79 78
3 80 31 79
3 81 82 32
3 83 82 81
3 83 34 82
3 83 84 34
3 85 84 83
3 85 35 84
3 86 398 399
3 87 400 402
3 402 401 86
3 400 401 402
3 87 403 404
3 87 405 407
3 405 88 406
3 405 406 407
3 89 88 87
3 89 36 88
3 89 90 36
3 91 90 89
3 91 38 90
3 408 92 409
3 410 92 411
3 412 39 413
3 414 413 92
3 412 413 414
3 415 93 416
3 417 416 39
3 415 416 417
3 418 93 419
3 421 420 93
3 422 40 423
3 94 95 18
3 96 95 94
3 96 41 95
3 96 97 41
3 98 97 96
3 98 42 97
3 424 43 425
3 426 99 427
3 100 428 430
3 428 99 429
3 428 429 430
3 100 44 99
3 431 45 432
3 433 46 434
3 436 435 46
3 437 47 438
3 439 101 440
3 441 440 47
3 439 440 441
3 442 101 443
3 445 444 101
3 102 446 447
3 449 448 102
3 450 103 451
3 104 452 454
3 452 103 453
3 452 453 454
3 104 49 103
3 104 105 49
3 106 105 104
3 106 50 105
3 107 108 22
3 109 108 107
3 109 51 108
3 109 110 51
3 111 110 109
3 111 48 110
3 455 53 456
3 112 457 458
3 113 459 461
3 461 460 112
3 459 460 461
3 113 462 464
3 462 54 463
3 462 463 464
3 113 114 54
3 115 114 113
3 115 55 114
3 115 116 55
3 117 116 115
3 117 56 116
3 118 119 25
3 120 119 118
3 120 57 119
3 120 121 57
3 122 121 120
3 122 58 121
3 123 124 37
3 125 124 123
3 125 59 124
3 126 127 28
3 128 127 126
3 128 60 127
3 128 129 60
3 130 129 128
3 130 61 129
3 130 131 61
3 132 131 130
3 132 62 131
3 133 134 30
3 135 134 133
3 135 63 134
3 135 136 63
3 137 136 135
3 137 52 136
3 466 465 33
3 467 138 468
3 139 469 471
3 469 138 470
3 469 470 471
3 139 64 138
3 472 86 473
3 140 474 476
3 474 86 475
3 474 475 476
3 140 5 86
3 140 141 5
3 477 141 478
3 479 478 140
3 477 478 479
3 481 480 141
3 142 482 483
3 142 484 485
3 142 486 488
3 486 143 487
3 486 487 488
3 144 143 142
3 144 18 143
3 67 144 17
3 145 144 67
3 145 18 144
3 145 94 18
3 146 94 145
3 146 8 94
3 489 9 490
3 147 491 492
3 147 493 494
3 147 495 497
3 495 102 496
3 495 496 497
3 148 102 147
3 148 11 102
3 148 149 11
3 150 149 148
3 150 22 149
3 70 150 21
3 151 150 70
3 151 22 150
3 151 107 22
3 152 107 151
3 152 10 107
3 153 498 499
3 153 500 501
3 153 502 504
3 502 112 503
3 502 503 504
3 154 112 153
3 154 13 112
3 154 155 13
3 156 155 154
3 156 25 155
3 74 156 24
3 157 156 74
3 157 25 156
3 157 118 25
3 158 118 157
3 158 14 118
3 159 160 6
3 161 160 159
3 161 28 160
3 77 161 27
3 162 161 77
3 162 28 161
3 162 126 28
3 163 126 162
3 163 15 126
3 163 164 15
3 165 164 163
3 165 30 164
3 79 165 29
3 166 165 79
3 166 30 165
3 166 133 30
3 167 133 166
3 167 12 133
3 168 169 7
3 170 169 168
3 170 33 169
3 82 170 32
3 505 170 506
3 507 506 82
3 505 506 507
3 508 33 509
3 510 509 170
3 508 509 510
3 512 511 33
3 171 513 514
3 171 515 516
3 84 171 34
3 172 171 84
3 172 517 519
3 519 518 171
3 517 518 519
3 172 520 521
3 173 522 524
3 524 523 172
3 522 523 524
3 173 525 527
3 525 16 526
3 525 526 527
3 528 1 529
3 88 530 531
3 174 532 534
3 534 533 88
3 532 533 534
3 174 535 536
3 174 537 539
3 537 72 538
3 537 538 539
3 175 72 174
3 175 3 72
3 175 176 3
3 177 176 175
3 177 37 176
3 90 177 36
3 178 177 90
3 178 37 177
3 178 123 37
3 179 123 178
3 179 6 123
3 141 91 5
3 180 91 141
3 180 38 91
3 92 540 542
3 540 180 541
3 540 541 542
3 181 180 92
3 181 38 180
3 181 179 38
3 182 179 181
3 182 6 179
3 182 159 6
3 183 159 182
3 183 27 159
3 93 183 39
3 184 183 93
3 184 27 183
3 184 76 27
3 543 76 544
3 545 544 184
3 543 544 545
3 546 2 547
3 548 547 76
3 546 547 548
3 185 549 550
3 185 551 553
3 551 7 552
3 551 552 553
3 143 554 555
3 186 556 558
3 558 557 143
3 556 557 558
3 186 559 561
3 559 40 560
3 559 560 561
3 95 186 18
3 187 186 95
3 187 40 186
3 187 185 40
3 188 185 187
3 188 7 185
3 188 168 7
3 189 168 188
3 189 32 168
3 97 189 41
3 190 189 97
3 190 32 189
3 190 81 32
3 191 81 190
3 191 4 81
3 562 65 563
3 192 564 566
3 564 65 565
3 564 565 566
3 192 0 65
3 99 567 568
3 570 569 99
3 193 571 572
3 193 573 575
3 573 1 574
3 573 574 575
3 576 20 577
3 194 578 579
3 194 580 582
3 580 20 581
3 580 581 582
3 194 583 585
3 585 584 20
3 583 584 585
3 195 586 588
3 588 587 194
3 586 587 588
3 195 589 591
3 589 9 590
3 589 590 591
3 592 45 593
3 592 593 594
3 595 45 596
3 597 195 598
3 599 598 45
3 597 598 599
3 196 600 602
3 600 195 601
3 600 601 602
3 196 9 195
3 196 100 9
3 197 100 196
3 197 44 100
3 603 197 604
3 605 604 46
3 603 604 605
3 198 606 608
3 606 197 607
3 606 607 608
3 198 44 197
3 198 193 44
3 199 193 198
3 199 1 193
3 199 71 1
3 200 71 199
3 200 23 71
3 101 200 47
3 201 200 101
3 201 23 200
3 201 152 23
3 202 152 201
3 202 10 152
3 609 202 610
3 611 202 612
3 613 10 614
3 615 614 202
3 613 614 615
3 616 111 617
3 618 617 10
3 616 617 618
3 619 111 620
3 621 48 622
3 623 622 111
3 621 622 623
3 624 48 625
3 627 626 48
3 203 628 629
3 203 630 631
3 203 632 633
3 204 634 636
3 636 635 203
3 634 635 636
3 204 637 639
3 637 2 638
3 637 638 639
3 103 640 641
3 643 642 103
3 644 204 645
3 205 646 648
3 646 204 647
3 646 647 648
3 205 2 204
3 205 80 2
3 206 80 205
3 206 31 80
3 105 206 49
3 207 206 105
3 207 31 206
3 207 167 31
3 208 167 207
3 208 12 167
3 149 106 11
3 209 106 149
3 209 50 106
3 108 209 22
3 210 209 108
3 210 50 209
3 210 208 50
3 211 208 210
3 211 12 208
3 211 137 12
3 212 137 211
3 212 52 137
3 110 212 51
3 213 212 110
3 213 52 212
3 213 214 52
3 649 214 650
3 651 650 213
3 649 650 651
3 653 652 214
3 215 654 655
3 215 656 658
3 656 43 657
3 656 657 658
3 659 215 660
3 216 661 663
3 661 215 662
3 661 662 663
3 216 43 215
3 216 192 43
3 217 192 216
3 217 0 192
3 664 53 665
3 114 666 668
3 668 667 54
3 666 667 668
3 218 669 671
3 671 670 114
3 669 670 671
3 218 672 674
3 672 53 673
3 672 673 674
3 218 217 53
3 219 217 218
3 219 0 217
3 219 68 0
3 220 68 219
3 220 19 68
3 116 220 55
3 221 220 116
3 221 19 220
3 221 146 19
3 222 146 221
3 222 8 146
3 155 117 13
3 223 117 155
3 223 56 117
3 119 223 25
3 224 223 119
3 224 56 223
3 224 222 56
3 225 222 224
3 225 8 222
3 225 98 8
3 226 98 225
3 226 42 98
3 121 226 57
3 227 226 121
3 227 42 226
3 227 191 42
3 228 191 227
3 228 4 191
3 176 75 3
3 229 75 176
3 229 26 75
3 124 229 37
3 230 229 124
3 230 26 229
3 230 158 26
3 231 158 230
3 231 14 158
3 160 125 6
3 232 125 160
3 232 59 125
3 127 232 28
3 233 232 127
3 233 59 232
3 233 231 59
3 234 231 233
3 234 14 231
3 234 122 14
3 235 122 234
3 235 58 122
3 129 235 60
3 236 235 129
3 236 58 235
3 236 228 58
3 237 228 236
3 237 4 228
3 237 85 4
3 238 85 237
3 238 35 85
3 131 238 61
3 239 238 131
3 239 35 238
3 239 173 35
3 240 173 239
3 240 16 173
3 164 132 15
3 241 132 164
3 241 62 132
3 134 241 30
3 242 241 134
3 242 62 241
3 242 240 62
3 243 240 242
3 243 16 240
3 243 139 16
3 244 139 243
3 244 64 139
3 136 244 63
3 245 244 136
3 245 64 244
3 245 675 677
3 677 676 64
3 675 676 677
3 214 678 680
3 680 679 245
3 678 679 680
3 214 681 682
3 169 683 685
3 685 684 7
3 683 684 685
3 687 686 169
3 689 688 33
3 138 690 691
3 693 692 138
