ply
format ascii 1.0
element vertex 591
property float x
property float y
property float z
element face 684
property list uchar int vertex_index
end_header
-68.003006 -27.671547 32.635239
-63.120995 -61.587036 37.316811
-63.708206 -43.193531 45.653805
-63.518108 -47.897957 31.240265
-66.604118 -35.499146 39.126747
-66.492767 -45.524002 39.416168
-66.352745 -37.944107 32.335854
-60.642788 -63.421463 19.423527
-64.977539 -29.977272 26.030949
-59.11932 -66.94075 29.727039
-65.070038 -61.299072 27.080452
-64.490814 -53.032997 44.206909
-65.698174 -55.170097 35.143204
-64.958023 -54.874928 25.195692
-59.737701 -40.119843 25.772535
-58.996483 -47.820793 22.357529
-67.461227 -31.657665 35.746399
-67.41066 -36.667393 35.842896
-67.554977 -32.827187 32.23822
-60.502502 -64.706207 38.444283
-58.507629 -67.728058 34.881512
-61.55455 -64.704071 33.346054
-62.515511 -64.12191 28.2085
-64.190536 -61.810215 32.215405
-64.431473 -48.097107 45.722828
-65.552834 -46.866043 35.42675
-65.950912 -50.591415 38.000122
-65.038635 -51.634842 33.492805
-65.364182 -55.538822 30.221212
-63.648396 -51.998089 28.799236
-62.331608 -35.142567 25.972088
-57.862473 -36.112186 23.50959
-55.393402 -44.357903 20.686062
-61.710487 -49.565384 18.985971
-65.352646 -39.297501 42.536667
-65.894882 -44.212227 42.954048
-66.874435 -40.42485 39.553192
-66.612068 -41.755554 36.013878
-64.689789 -43.042645 32.275505
-67.400574 -28.837246 29.082268
-59.798553 -65.528442 24.570393
-63.436756 -62.712727 23.093357
-65.873596 -59.72765 21.981937
-64.210228 -34.619717 41.876534
-65.757217 -30.715813 39.051846
-66.987862 -26.686222 36.331604
-64.043327 -57.637207 41.189159
-65.840927 -49.287403 42.189034
-65.512276 -54.186073 39.878616
-65.044815 -58.464699 36.322525
-65.613403 -58.809765 31.271404
-65.975426 -58.233406 26.163055
-66.392212 -56.443417 21.081524
-65.777985 -34.031044 28.882267
-63.592518 -39.139317 28.943697
-61.656635 -44.04084 28.522827
-58.310749 -44.542534 24.704941
-61.097977 -48.295609 26.900536
-62.397511 -51.349152 23.943785
-64.8601 -52.978268 20.146708
-67.764069 -29.68429 34.148975
-67.734833 -32.226421 33.997829
-67.861252 -30.256207 32.352554
-61.85284 -63.135822 37.846352
-61.042519 -64.763077 35.90934
-62.434242 -63.255844 35.304932
-62.974991 -63.255051 32.741013
-63.68483 -61.766167 34.776611
-63.240185 -47.623722 47.103275
-64.631561 -47.442345 33.351135
-65.189247 -49.326118 34.64336
-64.349754 -49.786697 32.440598
-64.363174 -51.925995 31.16711
-63.401657 -50.077881 30.195553
-66.029587 -37.394291 40.847446
-66.326859 -39.822861 41.136906
-66.832855 -37.939384 39.352257
-67.116035 -37.305183 34.093006
-67.091133 -39.198898 35.971069
-66.524521 -39.858906 34.179314
-65.832962 -42.420734 34.152
-65.528191 -40.501293 32.379028
-58.812782 -67.407181 32.306412
-57.202026 -68.955391 33.250862
-57.823223 -66.964432 25.459406
-63.955669 -62.729008 27.604311
-62.977364 -63.533939 25.646458
-64.412735 -62.124676 25.044468
-64.860855 -61.255527 22.498486
-65.47374 -60.658653 24.522202
-61.54287 -36.278603 44.263115
-63.312084 -36.561058 43.299526
-62.587154 -34.313591 43.030735
-64.46447 -30.37859 40.57402
-66.4086 -28.720032 37.677895
-63.62516 -52.503944 46.088623
-63.557819 -54.884037 44.952911
-63.340778 -57.168144 43.465122
-64.323425 -55.399906 42.853668
-66.398758 -44.844849 41.265129
-65.923447 -46.745258 42.758511
-66.246124 -47.405869 40.894489
-65.780334 -52.973793 36.736626
-65.857132 -52.406948 39.023064
-65.694626 -54.725719 37.543098
-65.303246 -56.427383 38.217175
-65.547974 -56.846283 35.776085
-65.371483 -58.725704 33.809441
-65.666786 -57.127411 33.291569
-65.142014 -55.355576 27.717484
-65.694489 -57.045113 28.245602
-65.696167 -56.585705 25.702656
-66.16375 -57.496689 23.612656
-65.744522 -55.81049 23.160635
-66.411392 -29.418968 27.474474
-66.680046 -31.445812 28.918613
-65.395813 -32.022614 27.372395
-60.966202 -37.669647 25.93516
-62.979156 -37.154953 27.382515
-61.751144 -39.663235 27.33568
-62.51931 -41.636131 28.846973
-60.696213 -42.087536 27.116924
-57.188744 -46.083107 21.505474
-56.762154 -44.547935 22.726341
-58.364136 -46.36002 23.690413
-59.706635 -46.421021 25.816097
-59.971935 -48.177521 24.656128
-61.531609 -49.998798 25.568369
-60.757515 -49.577568 23.184277
-63.4459 -51.2519 19.599279
-67.078735 -33.592556 37.414574
-67.231995 -36.056747 37.536575
-67.529617 -34.157257 35.737156
-67.52771 -34.763847 34.00132
-67.049644 -35.386841 32.256302
-59.603703 -66.310638 36.614548
-60.035789 -66.187866 34.05468
-60.453178 -65.928986 31.483126
-60.865051 -65.513603 28.912174
-62.043644 -64.501282 30.776123
-63.479687 -63.093437 30.171515
-64.647675 -61.670269 29.647301
-63.52504 -50.069565 46.811104
-64.533997 -50.582203 45.175392
-66.195908 -46.211906 37.456825
-66.204117 -48.086639 38.893425
-65.832657 -48.74295 36.799591
-65.593262 -51.172291 35.773689
-65.511551 -53.43195 34.390152
-65.569382 -55.460339 32.698902
-65.1129 -53.724125 31.998497
-64.654434 -53.796719 29.568737
-64.206108 -53.605637 27.105366
-63.699287 -32.573311 25.979103
-61.665138 -33.095493 24.742146
-60.173248 -35.64798 24.697313
-58.789612 -38.131783 24.555332
-53.655491 -42.628189 19.963211
-54.250656 -43.948601 18.587429
-56.224461 -45.573696 19.267191
-58.214722 -47.214714 20.0124
-60.155968 -48.887871 20.762522
-59.747189 -47.933064 18.320854
-62.493263 -61.316925 39.809669
-64.576096 -41.226494 44.152615
-64.987823 -43.655678 44.431286
-65.711647 -41.724113 42.844185
-66.443161 -42.308525 41.31562
-66.742355 -42.958031 39.609833
-67.194969 -38.549446 37.711731
-66.96917 -41.079277 37.829124
-66.606873 -43.641781 37.776764
-66.061905 -44.323479 35.863171
-65.159744 -44.964893 33.904716
-63.976517 -45.52858 31.921659
-56.097221 -67.524231 23.805439
-58.140762 -66.017975 22.855463
-60.19677 -64.563034 21.993515
-61.708969 -64.12471 23.781719
-62.156273 -63.1194 21.226412
-63.898987 -61.647148 20.555872
-65.306839 -60.114834 19.976027
-66.278946 -58.506386 19.47168
-63.08709 -40.825638 45.215343
-64.001373 -38.862968 43.724625
-64.833755 -36.932243 42.166267
-65.574936 -35.015862 40.578316
-63.564243 -32.353573 41.797405
-65.025848 -32.677773 40.454449
-66.222534 -33.09354 38.994064
-66.780746 -31.146793 37.440361
-67.259109 -29.163479 35.935448
-67.670273 -27.141178 34.486046
-62.985558 -59.321243 41.716087
-63.648048 -59.708313 39.30941
-65.224396 -46.142044 44.432003
-65.303375 -48.659431 44.065788
-65.257355 -51.165092 43.291458
-66.048508 -49.946175 40.150581
-65.693466 -51.787254 41.222103
-65.117599 -53.606079 42.116234
-64.901779 -55.928215 40.589714
-64.60791 -58.084183 38.792618
-64.214447 -60.038105 36.822159
-64.692932 -60.265263 34.291
-65.096863 -60.337288 31.737675
-65.445549 -60.200043 29.174616
-65.70015 -57.211727 30.778238
-65.802917 -58.661163 28.719522
-65.762794 -59.804951 26.610683
-66.07309 -59.116806 24.055218
-66.396606 -58.120522 21.519844
-66.744705 -56.824593 19.018354
-67.506157 -30.851418 30.592617
-66.899773 -33.435219 30.517742
-66.101585 -36.003563 30.55022
-64.231308 -34.60228 27.363398
-64.721848 -36.596802 28.919693
-65.156403 -38.561485 30.611584
-64.164261 -41.100922 30.598343
-63.264679 -43.591621 30.399601
-62.605812 -45.979553 29.918591
-56.55843 -38.527313 23.208424
-57.661674 -40.493271 24.226547
-55.20443 -42.733227 21.82902
-56.94331 -42.659447 23.632513
-58.803303 -42.43581 25.38743
-59.971474 -44.365669 26.631174
-61.149422 -46.286263 27.887943
-62.308384 -48.1936 29.092665
-62.43486 -50.159012 27.905865
-62.971756 -51.813618 26.390144
-63.828972 -53.121742 24.614639
-61.969891 -50.597214 21.470097
-63.567612 -52.334427 22.107273
-64.855438 -54.080704 22.667042
-65.865791 -54.719177 20.633848
-63.934223 -44.408308 45.757336
-63.235708 -44.198279 46.327665
-59.832009 -63.566519 18.540509
-58.780334 -64.321562 18.954528
-59.591114 -64.176506 19.837545
-58.247404 -67.686901 30.192192
-58.094135 -67.920117 31.481879
-58.966051 -67.173965 31.016725
-58.346979 -67.355018 28.893456
-58.247404 -67.686901 30.192192
-59.281212 -66.629536 28.437763
-58.346979 -67.355018 28.893456
-61.165135 -35.185383 44.168101
-60.575806 -36.177479 44.679581
-61.687276 -34.202877 43.551911
-62.065012 -35.296097 43.646925
-61.165135 -35.185383 44.168101
-60.053103 -65.508422 37.529415
-59.375132 -66.310745 37.874115
-59.824531 -65.50853 38.788983
-61.334453 -32.051353 24.214186
-62.407282 -31.801021 24.755845
-59.01786 -35.880083 24.103451
-59.780712 -34.618151 24.170212
-58.625325 -34.850254 23.576351
-53.805996 -43.62347 17.51746
-53.298221 -43.130974 18.311087
-56.935858 -45.964603 18.453147
-55.859419 -45.196424 18.130527
-57.930988 -46.785112 18.825751
-57.219591 -46.394205 19.639795
-56.935858 -45.964603 18.453147
-58.697222 -47.144288 17.979979
-58.980956 -47.573889 19.166627
-57.930988 -46.785112 18.825751
-62.145432 -61.153664 41.01049
-61.860233 -62.122223 40.071214
-57.768013 -68.53025 35.355841
-58.347271 -67.818642 36.157668
-56.435154 -69.767117 33.78133
-56.452213 -69.481587 32.47535
-55.990451 -67.996384 25.124593
-55.125912 -68.319218 24.319515
-61.898102 -64.520389 27.276645
-61.072872 -65.216236 27.628482
-61.690281 -64.817757 28.560337
-62.713774 -39.673901 44.955743
-62.199461 -40.672852 45.623446
-63.170915 -38.692566 44.210385
-63.544232 -39.844303 44.469984
-62.713774 -39.673901 44.955743
-63.271993 -31.24621 41.909559
-62.740816 -32.236673 42.422216
-67.453366 -29.844332 29.837443
-67.716381 -29.549125 30.705372
-67.66359 -28.542039 29.950198
-56.092106 -39.644798 22.936904
-55.466268 -38.680748 22.532143
-56.643728 -40.627777 23.445965
-57.110052 -39.510292 23.717486
-56.092106 -39.644798 22.936904
-63.001697 -46.413374 47.0524
-62.501009 -47.437144 47.633283
-63.700212 -46.623404 46.482071
-63.001697 -46.413374 47.0524
-64.295856 -46.860096 45.791848
-63.835829 -47.860415 46.413051
-63.700212 -46.623404 46.482071
-57.417541 -35.07967 23.07781
-58.625325 -34.850254 23.576351
-57.288757 -68.694221 31.954103
-58.007404 -68.181286 32.778637
-58.094135 -67.920117 31.481879
-56.452213 -69.481587 32.47535
-57.288757 -68.694221 31.954103
-57.698931 -67.36686 26.759639
-56.853453 -67.716484 25.951577
-58.633163 -66.641377 26.303947
-57.698931 -67.36686 26.759639
-59.620829 -65.923382 25.85944
-58.810888 -66.246437 25.014899
-58.633163 -66.641377 26.303947
-60.995579 -37.273674 44.867894
-60.575806 -36.177479 44.679581
-61.941664 -37.400383 44.47963
-60.995579 -37.273674 44.867894
-62.427477 -36.419831 43.78132
-62.826271 -37.541611 43.997835
-61.941664 -37.400383 44.47963
-64.213097 -29.25572 40.781501
-63.722107 -30.258719 41.297866
-64.874508 -29.376017 39.967415
-64.213097 -29.25572 40.781501
-65.520882 -29.544629 39.206328
-65.110844 -30.547201 39.812933
-64.874508 -29.376017 39.967415
-65.846573 -28.546738 38.519352
-66.082909 -29.717923 38.36487
-65.520882 -29.544629 39.206328
-66.217038 -27.525973 37.913128
-65.846573 -28.546738 38.519352
-66.506669 -26.509068 37.239982
-66.698231 -27.703127 37.00475
-66.217038 -27.525973 37.913128
-63.114244 -53.457618 46.453914
-63.075592 -52.27448 46.89133
-63.080574 -54.647665 45.886059
-63.114244 -53.457618 46.453914
-63.59149 -53.69399 45.520767
-63.026699 -55.797222 45.255004
-63.080574 -54.647665 45.886059
-63.449298 -56.02609 44.209017
-62.918178 -56.939275 44.51111
-63.026699 -55.797222 45.255004
-63.456455 -50.574944 18.355286
-62.578193 -50.408642 19.292625
-62.588749 -49.731685 18.048631
-64.212238 -51.42214 18.626241
-63.456455 -50.574944 18.355286
-64.919339 -52.285325 18.899956
-64.153 -52.115084 19.872993
-64.212238 -51.42214 18.626241
-65.464901 -53.156025 19.142882
-64.919339 -52.285325 18.899956
-61.878567 -62.008687 17.779542
-60.888024 -62.76738 18.147713
-61.633331 -62.66277 19.055356
-58.895308 -67.109932 37.024186
-59.375132 -66.310745 37.874115
-59.055666 -67.019348 35.74803
-58.347271 -67.818642 36.157668
-58.895308 -67.109932 37.024186
-62.743761 -48.635174 47.621282
-62.501009 -47.437144 47.633283
-62.886189 -49.858095 47.475197
-62.743761 -48.635174 47.621282
-63.382612 -48.846643 46.957189
-63.025532 -51.057291 47.252571
-62.886189 -49.858095 47.475197
-63.5751 -51.286755 46.449863
-63.075592 -52.27448 46.89133
-63.025532 -51.057291 47.252571
-63.424357 -31.53993 25.374323
-64.338413 -31.275291 26.005026
-64.063482 -30.241911 25.400246
-62.682212 -32.834402 25.360625
-63.424357 -31.53993 25.374323
-62.407282 -31.801021 24.755845
-60.526657 -33.341907 24.192629
-61.334453 -32.051353 24.214186
-60.919193 -34.371736 24.719729
-60.526657 -33.341907 24.192629
-59.780712 -34.618151 24.170212
-53.000639 -42.470768 18.998978
-52.832147 -41.748604 19.677802
-53.953074 -43.288395 19.27532
-53.000639 -42.470768 18.998978
-53.298221 -43.130974 18.311087
-54.872517 -44.383877 17.790647
-53.805996 -43.62347 17.51746
-55.237558 -44.761148 18.92731
-54.872517 -44.383877 17.790647
-55.859419 -45.196424 18.130527
-59.639547 -47.328829 17.102871
-58.697222 -47.144288 17.979979
-60.683693 -48.102942 17.417669
-59.639547 -47.328829 17.102871
-61.665342 -48.919102 17.750228
-60.728838 -48.749224 18.653413
-60.683693 -48.102942 17.417669
-62.588749 -49.731685 18.048631
-61.665342 -48.919102 17.750228
-60.21522 -64.629151 39.677219
-59.824531 -65.50853 38.788983
-60.864852 -63.816864 39.388521
-60.21522 -64.629151 39.677219
-61.540022 -63.031672 39.089556
-61.177671 -63.921014 38.145318
-60.864852 -63.816864 39.388521
-62.173051 -62.226373 38.828011
-61.540022 -63.031672 39.089556
-61.860233 -62.122223 40.071214
-59.832009 -63.566519 18.540509
-60.888024 -62.76738 18.147713
-67.964805 -27.95919 31.726683
-68.098808 -26.649876 31.917628
-67.675728 -27.521935 29.235491
-67.66359 -28.542039 29.950198
-67.331086 -27.814464 28.389992
-67.675728 -27.521935 29.235491
-66.836495 -28.105325 27.586095
-66.905983 -29.128107 28.278371
-67.331086 -27.814464 28.389992
-66.265861 -28.389259 26.822042
-66.836495 -28.105325 27.586095
-65.548935 -28.668411 26.100279
-65.694466 -29.69812 26.752712
-66.265861 -28.389259 26.822042
-64.764836 -28.937126 25.432524
-65.548935 -28.668411 26.100279
-64.063482 -30.241911 25.400246
-64.764836 -28.937126 25.432524
-57.115212 -69.143917 34.540516
-57.768013 -68.53025 35.355841
-57.854827 -68.341724 34.066187
-57.115212 -69.143917 34.540516
-56.435154 -69.767117 33.78133
-55.246856 -67.805206 22.976211
-55.125912 -68.319218 24.319515
-56.261379 -66.999313 22.484291
-55.246856 -67.805206 22.976211
-56.960222 -67.244332 24.632423
-55.990451 -67.996384 25.124593
-56.853453 -67.716484 25.951577
-57.28315 -66.246185 22.009303
-56.261379 -66.999313 22.484291
-57.118991 -66.771103 23.330451
-58.340101 -65.474762 21.553514
-57.28315 -66.246185 22.009303
-59.368105 -64.747292 21.122539
-58.340101 -65.474762 21.553514
-59.168766 -65.290504 22.424489
-60.419779 -63.992249 20.708521
-59.591114 -64.176506 19.837545
-59.368105 -64.747292 21.122539
-60.154077 -65.915962 28.03033
-59.281212 -66.629536 28.437763
-59.992186 -66.227176 29.319606
-60.154077 -65.915962 28.03033
-61.072872 -65.216236 27.628482
-60.539623 -65.223656 25.457591
-59.620829 -65.923382 25.85944
-62.129029 -64.226404 25.995624
-61.898102 -64.520389 27.276645
-62.746437 -63.827924 26.927479
-61.494831 -64.521789 25.063254
-62.129029 -64.226404 25.995624
-62.343167 -63.829324 24.714088
-60.753761 -64.826576 24.176056
-60.539623 -65.223656 25.457591
-61.494831 -64.521789 25.063254
-62.390074 -62.511738 19.956798
-61.633331 -62.66277 19.055356
-61.39953 -63.270432 20.32497
-63.261431 -61.775612 19.621529
-62.390074 -62.511738 19.956798
-63.02763 -62.383274 20.891142
-64.131619 -60.995414 19.300289
-63.261431 -61.775612 19.621529
-64.835544 -60.229258 19.010366
-64.131619 -60.995414 19.300289
-64.602913 -60.880991 20.265949
-65.529026 -59.415842 18.732797
-64.835544 -60.229258 19.010366
-66.01508 -58.611618 18.480624
-65.529026 -59.415842 18.732797
-65.792892 -59.31061 19.723853
-66.484783 -57.762102 18.238411
-66.01508 -58.611618 18.480624
-62.907543 -43.012621 46.125774
-63.235708 -44.198279 46.327665
-62.596985 -41.828674 45.906543
-62.199461 -40.672852 45.623446
-63.397648 -42.009585 45.434574
-62.907543 -43.012621 46.125774
-62.596985 -41.828674 45.906543
-63.656728 -37.712013 43.512076
-63.170915 -38.692566 44.210385
-62.826271 -37.541611 43.997835
-62.252271 -33.216683 43.038882
-61.687276 -34.202877 43.551911
-63.075699 -33.333582 42.41407
-62.252271 -33.216683 43.038882
-62.740816 -32.236673 42.422216
-64.014357 -31.366081 41.185712
-63.271993 -31.24621 41.909559
-63.722107 -30.258719 41.297866
-66.838829 -25.472753 36.625265
-66.506669 -26.509068 37.239982
-67.245621 -25.653921 35.666416
-66.838829 -25.472753 36.625265
-67.586827 -25.881399 34.743637
-67.329068 -26.9137 35.408825
-67.245621 -25.653921 35.666416
-67.848717 -26.114738 33.785452
-67.586827 -25.881399 34.743637
-68.015084 -26.379922 32.860048
-67.836639 -27.406363 33.560643
-67.848717 -26.114738 33.785452
-68.098808 -26.649876 31.917628
-68.015084 -26.379922 32.860048
-62.781396 -58.039877 43.726332
-62.918178 -56.939275 44.51111
-62.603786 -59.116427 42.851814
-62.781396 -58.039877 43.726332
-63.163168 -58.244693 42.590604
-62.391579 -60.155822 41.963699
-62.603786 -59.116427 42.851814
-62.73941 -60.319084 40.762878
-62.145432 -61.153664 41.01049
-62.391579 -60.155822 41.963699
-64.574032 -44.639381 45.146076
-63.934223 -44.408308 45.757336
-64.348015 -43.424605 45.042546
-64.692318 -45.882565 45.146435
-64.574032 -44.639381 45.146076
-65.10611 -44.898861 44.431645
-64.827934 -47.119575 45.077416
-64.295856 -46.860096 45.791848
-64.692318 -45.882565 45.146435
-66.717662 -56.921205 18.011748
-66.484783 -57.762102 18.238411
-66.511826 -57.665489 19.245017
-67.893928 -29.25152 31.585341
-67.932129 -28.963877 32.493896
-67.964805 -27.95919 31.726683
-67.683705 -30.553812 31.472586
-67.893928 -29.25152 31.585341
-67.716381 -29.549125 30.705372
-56.684365 -36.317039 22.938728
-57.417541 -35.07967 23.07781
-56.032343 -37.524603 22.788145
-55.466268 -38.680748 22.532143
-57.210452 -37.31975 23.359007
-56.684365 -36.317039 22.938728
-56.032343 -37.524603 22.788145
-53.686811 -41.763523 20.511743
-52.832147 -41.748604 19.677802
-54.461281 -41.816042 21.444647
-53.686811 -41.763523 20.511743
-54.42996 -42.680708 20.896116
-55.415106 -41.747755 22.247202
-54.461281 -41.816042 21.444647
-56.284546 -41.710865 23.148948
-55.415106 -41.747755 22.247202
-56.07387 -42.696337 22.730767
-57.302492 -41.576359 23.92953
-56.643728 -40.627777 23.445965
-56.284546 -41.710865 23.148948
-65.967747 -54.02648 19.386451
-65.362945 -53.848723 20.390278
-65.464901 -53.156025 19.142882
-66.269077 -54.904492 19.609391
-65.967747 -54.02648 19.386451
-66.532287 -55.766611 19.833229
-66.129002 -55.581297 20.857686
-66.269077 -54.904492 19.609391
-66.708534 -55.9572 18.801644
-66.568458 -56.634005 20.049939
-66.532287 -55.766611 19.833229
-66.930984 -56.042275 17.791926
-66.708534 -55.9572 18.801644
-66.717662 -56.921205 18.011748
-66.930984 -56.042275 17.791926
3 0 62 60
3 1 65 63
3 1 67 65
3 2 237 238
3 3 71 69
3 3 73 71
3 4 76 74
3 6 79 77
3 6 81 79
3 7 239 241
3 239 240 241
3 9 242 244
3 244 243 82
3 242 243 244
3 9 245 246
3 9 247 248
3 10 87 85
3 10 89 87
3 249 90 250
3 251 92 252
3 253 252 90
3 251 252 253
3 11 96 95
3 11 98 96
3 5 101 99
3 12 104 102
3 12 106 104
3 12 108 106
3 13 111 109
3 13 113 111
3 8 116 114
3 14 119 117
3 14 121 119
3 15 124 122
3 15 126 124
3 15 128 126
3 16 132 130
3 18 133 61
3 18 134 133
3 19 254 256
3 254 135 255
3 254 255 256
3 21 136 64
3 21 137 136
3 21 139 137
3 23 140 66
3 23 141 140
3 24 142 68
3 24 143 142
3 25 146 144
3 27 147 70
3 27 148 147
3 27 150 148
3 29 151 72
3 29 152 151
3 257 154 258
3 31 259 261
3 259 155 260
3 259 260 261
3 31 156 155
3 262 158 263
3 264 159 265
3 266 160 267
3 268 267 159
3 266 267 268
3 269 162 270
3 271 270 160
3 269 270 271
3 272 163 273
3 34 166 164
3 36 167 75
3 36 168 167
3 17 169 131
3 37 170 78
3 37 171 170
3 37 172 171
3 38 173 80
3 38 174 173
3 20 274 275
3 277 276 83
3 278 175 279
3 40 176 84
3 40 177 176
3 22 280 282
3 282 281 138
3 280 281 282
3 41 178 86
3 41 179 178
3 41 180 179
3 42 181 88
3 42 182 181
3 283 183 284
3 285 184 286
3 287 286 183
3 285 286 287
3 43 185 91
3 43 186 185
3 288 187 289
3 44 188 93
3 44 189 188
3 44 190 189
3 45 191 94
3 45 192 191
3 46 193 97
3 46 194 193
3 35 195 165
3 47 196 100
3 47 197 196
3 26 198 145
3 48 199 103
3 48 200 199
3 48 201 200
3 49 202 105
3 49 203 202
3 49 204 203
3 50 205 107
3 50 206 205
3 28 207 149
3 51 208 110
3 51 209 208
3 51 210 209
3 52 211 112
3 52 212 211
3 39 290 292
3 290 213 291
3 290 291 292
3 53 214 115
3 53 215 214
3 30 216 153
3 54 217 118
3 54 218 217
3 54 219 218
3 55 220 120
3 55 221 220
3 293 222 294
3 295 223 296
3 297 296 222
3 295 296 297
3 32 224 157
3 56 225 123
3 56 226 225
3 56 227 226
3 57 228 125
3 57 229 228
3 57 230 229
3 58 231 127
3 58 232 231
3 33 233 161
3 59 234 129
3 59 235 234
3 59 236 235
3 60 61 16
3 62 61 60
3 62 18 61
3 63 64 19
3 65 64 63
3 65 21 64
3 65 66 21
3 67 66 65
3 67 23 66
3 298 68 299
3 300 68 301
3 302 24 303
3 304 303 68
3 302 303 304
3 69 70 25
3 71 70 69
3 71 27 70
3 71 72 27
3 73 72 71
3 73 29 72
3 305 31 306
3 74 75 34
3 76 75 74
3 76 36 75
3 77 78 17
3 79 78 77
3 79 37 78
3 79 80 37
3 81 80 79
3 81 38 80
3 82 83 20
3 307 83 308
3 309 308 82
3 307 308 309
3 311 310 83
3 312 84 313
3 314 84 315
3 316 40 317
3 318 317 84
3 316 317 318
3 85 86 22
3 87 86 85
3 87 41 86
3 87 88 41
3 89 88 87
3 89 42 88
3 90 319 320
3 90 321 322
3 90 323 325
3 323 91 324
3 323 324 325
3 92 91 90
3 92 43 91
3 326 93 327
3 328 93 329
3 330 44 331
3 332 331 93
3 330 331 332
3 333 94 334
3 335 334 44
3 333 334 335
3 336 94 337
3 338 45 339
3 340 339 94
3 338 339 340
3 95 341 342
3 96 343 345
3 345 344 95
3 343 344 345
3 96 346 347
3 96 348 350
3 348 97 349
3 348 349 350
3 98 97 96
3 98 46 97
3 99 100 35
3 101 100 99
3 101 47 100
3 102 103 26
3 104 103 102
3 104 48 103
3 104 105 48
3 106 105 104
3 106 49 105
3 106 107 49
3 108 107 106
3 108 50 107
3 109 110 28
3 111 110 109
3 111 51 110
3 111 112 51
3 113 112 111
3 113 52 112
3 114 115 39
3 116 115 114
3 116 53 115
3 117 118 30
3 119 118 117
3 119 54 118
3 119 120 54
3 121 120 119
3 121 55 120
3 122 123 32
3 124 123 122
3 124 56 123
3 124 125 56
3 126 125 124
3 126 57 125
3 126 127 57
3 128 127 126
3 128 58 127
3 351 129 352
3 353 352 33
3 351 352 353
3 354 129 355
3 356 59 357
3 358 357 129
3 356 357 358
3 360 359 59
3 130 131 4
3 132 131 130
3 132 17 131
3 61 132 16
3 133 132 61
3 133 17 132
3 133 77 17
3 134 77 133
3 134 6 77
3 363 362 7
3 361 362 363
3 135 364 365
3 135 366 368
3 366 20 367
3 366 367 368
3 64 135 19
3 136 135 64
3 136 20 135
3 136 82 20
3 137 82 136
3 137 9 82
3 137 138 9
3 139 138 137
3 139 22 138
3 66 139 21
3 140 139 66
3 140 22 139
3 140 85 22
3 141 85 140
3 141 10 85
3 68 369 370
3 142 371 373
3 373 372 68
3 371 372 373
3 142 374 375
3 142 376 378
3 376 95 377
3 376 377 378
3 143 95 142
3 143 11 95
3 144 145 5
3 146 145 144
3 146 26 145
3 70 146 25
3 147 146 70
3 147 26 146
3 147 102 26
3 148 102 147
3 148 12 102
3 148 149 12
3 150 149 148
3 150 28 149
3 72 150 27
3 151 150 72
3 151 28 150
3 151 109 28
3 152 109 151
3 152 13 109
3 379 153 380
3 381 380 8
3 379 380 381
3 154 382 384
3 382 153 383
3 382 383 384
3 154 30 153
3 385 154 386
3 155 387 389
3 387 154 388
3 387 388 389
3 155 30 154
3 155 117 30
3 156 117 155
3 156 14 117
3 390 157 391
3 158 392 394
3 392 157 393
3 392 393 394
3 158 32 157
3 395 158 396
3 159 397 399
3 397 158 398
3 397 398 399
3 159 32 158
3 159 122 32
3 160 122 159
3 160 15 122
3 160 161 15
3 162 161 160
3 162 33 161
3 400 162 401
3 402 162 403
3 404 33 405
3 406 405 162
3 404 405 406
3 408 407 33
3 409 19 410
3 411 19 412
3 413 63 414
3 415 414 19
3 413 414 415
3 163 416 418
3 416 63 417
3 416 417 418
3 163 1 63
3 164 165 2
3 166 165 164
3 166 35 165
3 75 166 34
3 167 166 75
3 167 35 166
3 167 99 35
3 168 99 167
3 168 5 99
3 131 76 4
3 169 76 131
3 169 36 76
3 78 169 17
3 170 169 78
3 170 36 169
3 170 168 36
3 171 168 170
3 171 5 168
3 171 144 5
3 172 144 171
3 172 25 144
3 80 172 37
3 173 172 80
3 173 25 172
3 173 69 25
3 174 69 173
3 174 3 69
3 420 419 7
3 422 421 0
3 423 39 424
3 425 39 426
3 427 114 428
3 429 428 39
3 427 428 429
3 430 114 431
3 432 8 433
3 434 433 114
3 432 433 434
3 435 8 436
3 438 437 8
3 83 439 441
3 441 440 20
3 439 440 441
3 443 442 83
3 175 444 445
3 175 446 447
3 84 448 450
3 448 175 449
3 448 449 450
3 176 175 84
3 176 451 453
3 453 452 175
3 451 452 453
3 176 454 455
3 177 456 458
3 458 457 176
3 456 457 458
3 177 459 461
3 459 7 460
3 459 460 461
3 138 462 464
3 464 463 9
3 462 463 464
3 466 465 138
3 467 40 468
3 86 469 471
3 471 470 22
3 469 470 471
3 178 472 474
3 474 473 86
3 472 473 474
3 178 475 477
3 475 40 476
3 475 476 477
3 178 177 40
3 179 177 178
3 179 7 177
3 179 478 480
3 480 479 7
3 478 479 480
3 180 481 483
3 483 482 179
3 481 482 483
3 180 484 485
3 88 180 41
3 181 180 88
3 181 486 488
3 488 487 180
3 486 487 488
3 181 489 490
3 182 491 493
3 493 492 181
3 491 492 493
3 182 494 495
3 496 2 497
3 183 498 499
3 183 500 502
3 500 2 501
3 500 501 502
3 183 164 2
3 184 164 183
3 184 34 164
3 91 503 505
3 503 184 504
3 503 504 505
3 185 184 91
3 185 34 184
3 185 74 34
3 186 74 185
3 186 4 74
3 506 92 507
3 187 508 510
3 508 92 509
3 508 509 510
3 187 43 92
3 93 511 513
3 511 187 512
3 511 512 513
3 188 187 93
3 188 43 187
3 188 186 43
3 189 186 188
3 189 4 186
3 189 130 4
3 190 130 189
3 190 16 130
3 94 190 44
3 191 190 94
3 191 16 190
3 191 60 16
3 192 60 191
3 192 0 60
3 514 45 515
3 516 45 517
3 518 192 519
3 520 519 45
3 518 519 520
3 521 192 522
3 523 0 524
3 525 524 192
3 523 524 525
3 527 526 0
3 97 528 529
3 193 530 532
3 532 531 97
3 530 531 532
3 193 533 534
3 193 535 537
3 535 163 536
3 535 536 537
3 194 163 193
3 194 1 163
3 165 538 540
3 540 539 2
3 538 539 540
3 195 541 543
3 543 542 165
3 541 542 543
3 195 544 546
3 544 24 545
3 544 545 546
3 100 195 35
3 196 195 100
3 196 24 195
3 196 143 24
3 197 143 196
3 197 11 143
3 145 101 5
3 198 101 145
3 198 47 101
3 103 198 26
3 199 198 103
3 199 47 198
3 199 197 47
3 200 197 199
3 200 11 197
3 200 98 11
3 201 98 200
3 201 46 98
3 105 201 48
3 202 201 105
3 202 46 201
3 202 194 46
3 203 194 202
3 203 1 194
3 203 67 1
3 204 67 203
3 204 23 67
3 107 204 49
3 205 204 107
3 205 23 204
3 205 141 23
3 206 141 205
3 206 10 141
3 149 108 12
3 207 108 149
3 207 50 108
3 110 207 28
3 208 207 110
3 208 50 207
3 208 206 50
3 209 206 208
3 209 10 206
3 209 89 10
3 210 89 209
3 210 42 89
3 112 210 51
3 211 210 112
3 211 42 210
3 211 182 42
3 212 182 211
3 212 547 549
3 549 548 182
3 547 548 549
3 550 62 551
3 552 551 0
3 550 551 552
3 213 553 555
3 553 62 554
3 553 554 555
3 213 18 62
3 115 213 39
3 214 213 115
3 214 18 213
3 214 134 18
3 215 134 214
3 215 6 134
3 153 116 8
3 216 116 153
3 216 53 116
3 118 216 30
3 217 216 118
3 217 53 216
3 217 215 53
3 218 215 217
3 218 6 215
3 218 81 6
3 219 81 218
3 219 38 81
3 120 219 54
3 220 219 120
3 220 38 219
3 220 174 38
3 221 174 220
3 221 3 174
3 556 31 557
3 222 558 559
3 222 560 562
3 560 31 561
3 560 561 562
3 222 156 31
3 223 156 222
3 223 14 156
3 157 563 564
3 224 565 567
3 567 566 157
3 565 566 567
3 224 568 569
3 123 224 32
3 225 224 123
3 225 570 572
3 572 571 224
3 570 571 572
3 225 573 575
3 573 223 574
3 573 574 575
3 226 223 225
3 226 14 223
3 226 121 14
3 227 121 226
3 227 55 121
3 125 227 56
3 228 227 125
3 228 55 227
3 228 221 55
3 229 221 228
3 229 3 221
3 229 73 3
3 230 73 229
3 230 29 73
3 127 230 57
3 231 230 127
3 231 29 230
3 231 152 29
3 232 152 231
3 232 13 152
3 161 128 15
3 233 128 161
3 233 58 128
3 129 233 33
3 234 233 129
3 234 58 233
3 234 232 58
3 235 232 234
3 235 13 232
3 235 113 13
3 236 113 235
3 236 52 113
3 576 236 577
3 578 577 59
3 576 577 578
3 579 236 580
3 581 52 582
3 583 582 236
3 581 582 583
3 584 212 585
3 586 585 52
3 584 585 586
3 587 212 588
3 590 589 212
