ply
format ascii 1.0
element vertex 887
property float x
property float y
property float z
element face 993
property list uchar int vertex_index
end_header
-11.488285 -78.566772 6.409495
-1.269779 -119.455109 -3.612608
-16.946491 -125.937897 -13.051924
-9.238657 -79.194824 -4.195185
-5.426655 -97.988327 5.072063
-8.017303 -70.113129 4.636198
-12.717447 -80.313629 1.102376
-0.605923 -109.002121 2.118323
-1.732515 -102.337601 -2.612814
-1.128853 -112.538086 -8.877348
-7.077288 -126.060013 -9.699503
-6.135807 -119.773987 -15.378782
-15.789948 -121.723206 -19.896633
-7.826767 -75.291138 -9.489393
-11.5261 -87.532394 5.66717
-8.081692 -89.805389 12.202354
-1.904495 -100.291794 11.831027
-1.681715 -122.978607 4.881916
-9.641903 -127.439819 -0.296653
-7.868162 -91.44458 -0.020724
-3.603846 -90.380127 -5.833607
-7.141888 -108.973022 -16.60247
-10.239424 -75.039536 5.499653
-11.544174 -74.976318 2.468179
-12.637691 -79.588593 3.928304
-0.236984 -114.483932 -0.537788
-0.551962 -111.64299 -3.441158
-1.244701 -116.521637 -6.759668
-11.625851 -126.930634 -11.931301
-10.916727 -124.833389 -15.677078
-16.222326 -124.567154 -17.232029
-10.937693 -73.606667 -3.327477
-9.676271 -71.988258 -6.017265
-9.130522 -69.88604 -8.691778
-7.67094 -77.496826 -6.786545
-0.678278 -101.591949 16.15798
-5.147615 -126.222824 2.090267
-8.859602 -92.719269 5.470083
-10.330582 -90.133606 2.756076
-6.844727 -95.51944 2.372836
-2.35202 -96.928329 -4.255203
-6.193422 -114.968918 -16.419952
-11.142803 -111.447418 -18.926533
-22.059128 -122.686523 -17.439827
-9.504717 -69.308578 1.373949
-11.805273 -74.602173 -0.507802
-11.360451 -80.205429 -1.616863
-2.420549 -103.420944 4.031309
-3.521292 -100.905518 1.392601
-1.306992 -106.329819 -0.575954
-0.666899 -107.635834 -5.447685
-1.401667 -107.294662 -10.061409
-3.582781 -123.457214 -6.78026
-3.272011 -120.57991 -10.092014
-6.531103 -123.449493 -13.157867
-10.461893 -121.49762 -17.98275
-10.098413 -67.368698 -11.369484
-10.491348 -79.628021 8.881107
-12.390921 -82.558456 5.977412
-11.128906 -84.14241 8.831125
-9.853828 -88.981537 8.70483
-7.0007 -94.016159 8.554932
-5.11812 -94.828644 12.084479
-3.661013 -99.310059 8.175034
-0.960796 -104.955597 7.24403
0.422436 -110.832535 5.57383
0.303291 -116.557159 3.211085
-1.226929 -121.597137 0.374807
-4.024357 -125.397995 -2.595488
-7.959574 -127.478043 -5.24765
-12.810726 -127.543854 -7.119911
-14.822994 -126.506104 -1.914108
-8.605165 -75.423981 8.595432
-12.614647 -84.733017 3.132225
-11.184721 -85.894073 0.401966
-8.634447 -85.854462 -2.186581
-4.306929 -96.910889 -0.830265
-5.13043 -91.427078 -2.828154
-6.265274 -84.812012 -4.788145
-5.538982 -83.069984 -7.575583
-2.989174 -116.697052 -12.303804
-3.154388 -111.627335 -13.438799
-4.250193 -105.349838 -13.816481
-11.030132 -77.063034 5.979619
-11.71813 -77.241524 4.591256
-12.124548 -79.056213 5.282143
-0.585835 -117.061951 -2.044121
-0.689041 -115.727112 -3.679098
-1.282682 -118.100571 -5.307966
-14.21437 -126.664291 -12.649378
-13.800889 -125.973328 -14.795216
-16.53751 -125.454285 -15.304104
-10.343712 -76.389252 -3.834414
-9.478024 -75.627609 -5.138252
-8.782232 -74.724205 -6.444357
-8.298828 -78.416031 -5.478315
-7.158703 -95.339478 5.324802
-7.961416 -94.278381 3.921852
-6.189056 -96.938705 3.679315
-13.533398 -112.173813 -19.970844
-6.711256 -67.359131 4.299847
-7.567223 -66.839043 2.609109
-8.842218 -69.73381 2.987334
-12.478638 -77.594452 1.68996
-11.831009 -74.855957 0.965178
-12.375004 -77.582596 0.249649
-11.931114 -77.382721 -1.153193
-12.198822 -80.377754 -0.278955
-1.338346 -106.203156 3.183363
-1.843071 -105.062485 1.783187
-1.007866 -107.807266 0.678581
-0.713734 -112.315979 -6.221481
-0.609732 -109.804459 -4.549461
-0.714663 -110.157593 -7.128193
-0.801683 -107.668808 -7.825901
-1.179642 -110.076691 -9.566843
-5.188053 -124.957626 -8.296122
-4.964037 -123.694489 -10.119957
-6.785734 -124.890411 -11.575005
-13.212883 -123.50856 -18.026272
-10.65661 -123.308945 -17.015499
-13.017134 -121.800568 -19.050182
-8.875345 -65.649101 -0.630276
-8.450939 -72.567429 -9.10828
-9.402119 -68.681213 -10.036152
-8.976742 -71.319626 -10.452326
-11.025911 -81.832169 8.878763
-10.328856 -82.357605 10.532385
-9.0842 -87.415573 12.259197
-9.901754 -87.007721 10.45429
-8.954758 -89.418671 10.396812
-8.565636 -91.474319 8.640226
-7.62048 -91.887527 10.335251
-2.681099 -98.029099 14.009546
-4.295322 -95.310394 14.055351
-3.463892 -97.498474 11.991541
-4.361309 -97.057144 10.132036
-2.749542 -99.79277 9.923992
-2.175667 -102.089615 7.795613
-1.333956 -102.638763 9.592399
0.547245 -108.587814 8.434166
0.548342 -113.745361 4.468337
0.900688 -114.570023 6.537403
-0.407196 -120.725677 6.273749
-0.254721 -120.040451 4.003826
-1.347704 -122.392654 2.585512
-2.474993 -123.685379 -1.119631
-2.756922 -124.390671 1.1346
-7.284554 -127.101212 0.818455
-6.446766 -127.069672 -1.617998
-8.675562 -127.655838 -2.796795
-10.291332 -127.76973 -6.304916
-11.108961 -127.708252 -3.77552
-17.546741 -125.296982 -2.381472
-8.952969 -77.963326 10.434298
-7.432306 -73.227585 8.329041
-12.218239 -84.994217 5.80012
-12.713305 -83.749237 4.548402
-12.174841 -86.332794 4.334029
-9.213541 -90.964828 1.359988
-10.842375 -88.219604 1.534545
-9.655745 -88.681824 0.193423
-9.982601 -86.019516 -0.903833
-8.274466 -88.815475 -1.126863
-2.559055 -101.813522 -0.573772
-3.934311 -99.105591 0.240418
-2.847492 -99.629929 -1.58005
-2.884684 -93.77182 -5.033831
-3.5819 -94.187027 -3.409451
-4.124714 -91.012726 -4.300085
-5.653818 -88.232971 -3.803995
-4.810621 -87.606384 -5.210869
-5.625217 -84.01683 -6.155489
-4.500536 -86.800018 -6.677965
-5.780022 -84.654037 -9.702944
-4.555338 -120.421799 -12.932932
-3.109119 -118.776291 -11.341089
-4.407759 -118.39003 -13.894581
-4.519409 -113.441315 -14.992012
-4.902239 -110.509048 -15.206108
-3.567169 -108.630142 -13.693396
-9.212864 -72.694366 5.041702
-10.003799 -72.481842 3.448187
-10.984938 -75.012688 3.984488
-12.239697 -77.457481 3.147725
-12.860209 -80.033974 2.51501
-0.239525 -111.77887 0.86441
-0.538713 -110.529388 -0.633341
-0.435999 -113.185867 -2.104019
-0.724104 -114.160461 -5.074957
-1.175169 -114.679321 -7.949247
-9.232843 -126.726273 -10.931122
-8.883163 -125.684998 -12.878119
-11.233387 -126.050797 -13.970858
-13.474566 -124.909714 -16.60363
-15.974969 -123.311111 -18.772167
-10.898516 -70.871796 -2.630997
-10.569216 -70.153831 -4.049448
-9.851589 -68.344055 -6.801517
-9.249607 -70.989754 -7.351095
-8.404085 -73.700882 -7.767357
-7.487898 -76.454964 -8.127377
-2.064713 -98.696625 16.193884
-1.194145 -100.879425 13.90885
-0.571436 -103.205811 11.560463
0.035469 -103.850082 13.704202
-3.270044 -124.832413 3.46559
-10.367071 -90.116104 5.567616
-11.119108 -88.971329 4.186588
-9.661772 -91.624374 4.068057
-8.649261 -92.831741 2.601554
-7.398623 -93.689133 1.142519
-1.189215 -102.491318 -4.694796
-1.984293 -99.798798 -3.462332
-3.691689 -89.546692 -7.417042
-8.080881 -118.640488 -17.376698
-6.077463 -117.519455 -16.031881
-9.008095 -110.371582 -17.812889
-19.766096 -124.782501 -13.126997
-19.386347 -124.513214 -15.46974
-8.299751 -66.27475 0.965056
-9.958176 -68.808228 -0.200268
-10.610655 -72.233032 1.876822
-10.969183 -71.90097 0.334237
-11.056395 -71.453049 -1.170298
-11.48317 -74.188019 -1.939278
-11.21357 -76.981949 -2.512024
-10.319681 -79.80262 -2.916212
-3.809177 -100.679977 4.654828
-4.501581 -99.618408 3.272632
-3.024137 -102.327057 2.649308
-2.241402 -103.617004 0.538025
-1.529974 -104.515625 -1.663414
-0.742992 -109.017731 -1.920115
-0.878555 -107.19046 -3.006411
-1.002825 -105.016235 -3.918051
-0.798262 -105.126648 -6.172895
-1.049553 -104.856842 -8.36348
-2.2731 -121.60553 -5.204353
-2.201578 -120.253433 -6.948195
-3.432396 -122.134232 -8.563925
-4.753262 -122.184174 -11.672903
-6.305151 -121.745987 -14.42646
-8.592148 -124.341339 -14.509146
-8.345036 -122.716476 -15.798964
-8.159767 -120.817596 -16.747311
-10.366703 -119.407394 -18.604404
-18.890951 -122.723892 -19.196411
-18.732075 -121.272171 -20.459564
-9.858406 -66.120987 -9.517986
-10.350811 -64.869225 -10.868694
-11.206211 -63.516773 -12.20142
-11.090761 -79.084671 7.464862
-12.084583 -80.329857 6.191787
-11.651083 -81.180885 7.412093
-11.833109 -83.474045 7.312115
-11.530851 -85.894379 7.211553
-10.369137 -84.651947 10.504663
-10.734884 -86.533737 8.768047
-10.730612 -88.38707 7.126633
-9.498491 -90.920212 7.052423
-7.958229 -93.484329 6.96358
-6.263706 -96.087296 6.817883
-6.711386 -92.270523 12.146683
-6.036572 -94.427414 10.256434
-5.314222 -96.622238 8.414206
-4.571875 -98.744995 6.564648
-3.021265 -101.470734 6.156017
-1.719007 -104.265915 5.557412
-0.736603 -107.115189 4.753863
-0.214014 -105.581635 9.103277
-0.083374 -107.883896 6.503579
-0.112581 -109.985733 3.750759
0.140657 -112.830383 2.569769
0.028418 -115.592178 1.242489
-0.43442 -118.208755 -0.195128
-0.295006 -119.198029 1.833734
-1.230061 -120.615967 -1.705338
-2.342216 -122.750214 -3.247705
-3.757647 -124.550629 -4.776293
-5.464514 -125.961273 -6.237581
-4.463816 -125.96817 -0.287748
-5.859705 -126.677597 -3.992239
-7.447817 -126.934143 -7.571594
-9.68355 -127.432922 -8.71722
-12.135044 -127.438202 -9.62044
-14.754519 -126.951004 -10.242201
-12.17197 -127.234726 -1.215595
-13.697321 -127.231903 -4.520927
-15.466396 -126.814423 -7.665953
-9.646317 -77.519623 8.793617
-10.329185 -77.153549 7.335767
-5.786175 -67.854553 6.038215
-7.100527 -70.480774 6.323037
-8.326427 -72.927032 6.66153
-9.417482 -75.156067 7.020934
-12.687611 -81.291512 4.853419
-12.940348 -82.099777 3.459045
-12.800976 -82.717468 2.058775
-11.706718 -87.426529 2.912445
-12.092916 -85.461151 1.746517
-12.257557 -83.094368 0.685246
-11.355379 -83.201004 -0.646494
-10.201727 -83.036636 -1.938755
-8.956104 -82.625443 -3.208572
-5.088667 -98.207062 1.991533
-5.585934 -96.399139 0.795162
-6.025534 -94.184525 -0.332607
-3.169241 -97.07605 -2.513638
-4.690624 -94.337738 -1.84457
-6.444536 -91.586182 -1.408676
-6.873495 -88.650742 -2.450186
-7.328424 -85.436951 -3.471916
-7.808277 -82.005859 -4.482141
-6.947771 -81.217026 -5.785442
-6.532743 -80.286407 -7.133081
-6.666355 -79.222504 -8.519711
-4.817133 -85.820511 -8.188753
-6.070066 -81.968201 -9.025955
-2.098553 -118.677383 -8.444555
-1.978302 -116.847885 -9.670572
-1.892004 -114.732574 -10.620806
-4.37306 -116.068008 -14.57058
-2.980522 -114.318115 -12.992235
-1.911598 -112.307358 -11.311098
-2.110098 -109.565063 -11.778786
-2.54488 -106.518799 -12.078163
-3.248074 -103.199509 -12.271782
-5.207424 -101.823654 -13.869493
-14.846114 -112.355423 -20.463052
-13.333137 -113.582664 -20.029686
-15.736481 -120.779267 -20.257599
-14.350074 -120.817948 -19.834373
-14.403541 -121.761887 -19.473408
-9.082802 -65.299163 -1.40279
-9.533701 -66.930496 -1.180297
-8.264754 -74.641079 -10.166778
-8.839741 -72.655323 -10.648244
-8.401754 -73.305382 -9.970859
-9.746037 -81.482429 11.42297
-10.076142 -81.244419 10.524085
1.09411 -113.458046 8.138863
0.910381 -113.087852 7.057104
-1.044455 -121.852142 5.577832
-0.619354 -120.975632 7.435854
-1.256614 -122.102097 6.739937
-18.926414 -124.48397 -2.499214
-18.245504 -124.640084 -1.10623
-19.625177 -123.827072 -1.223973
-18.342579 -125.063263 -3.820873
-18.926414 -124.48397 -2.499214
-6.022063 -109.741035 -15.904289
-5.719931 -111.313217 -15.898601
-6.839755 -110.545204 -16.596782
-6.347359 -108.129776 -15.936667
-5.227534 -108.897789 -15.238485
-6.022063 -109.741035 -15.904289
-9.927152 -70.647495 -5.726166
-9.981832 -72.427746 -5.349355
-9.76393 -70.166156 -6.409391
-10.01481 -68.825393 -6.118291
-9.927152 -70.647495 -5.726166
-1.371495 -100.144287 16.175932
-1.859396 -99.103249 17.366452
-1.166179 -100.550911 17.348499
-1.349518 -101.064697 -5.040204
-1.133722 -102.391625 -5.735413
-8.122897 -117.408417 -17.552208
-9.250132 -117.838921 -18.1523
-9.802993 -112.433258 -18.38991
-10.90504 -112.915672 -18.970042
-10.075449 -110.9095 -18.369711
-8.73564 -111.89534 -17.833088
-9.802993 -112.433258 -18.38991
-21.026601 -123.985336 -14.207217
-21.192324 -124.016182 -13.005434
-1.627544 -105.753875 -10.24025
-1.451487 -104.534965 -9.391286
-1.22561 -106.075752 -9.212445
-20.581967 -123.251808 -17.479059
-19.245576 -124.165154 -16.494015
-20.722738 -123.599868 -16.454784
-20.336779 -121.59372 -19.938715
-20.394445 -122.245102 -19.226889
-20.257341 -120.867859 -20.570291
-18.811513 -121.998031 -19.827987
-20.336779 -121.59372 -19.938715
-9.494464 -68.003513 -9.104882
-9.785315 -66.700173 -8.839404
-9.421373 -68.582699 -8.4263
-10.651408 -66.651787 -12.020498
-11.205307 -64.725824 -12.436466
-10.652312 -65.442735 -11.785452
-9.99232 -84.870728 11.406918
-10.001071 -83.736809 11.419321
-9.624254 -83.95559 12.321576
-5.499255 -93.773308 13.085272
-5.087856 -94.014183 14.070708
-4.706721 -95.069519 13.069915
-5.914753 -93.549583 12.115581
-6.295888 -92.494248 13.116373
-5.499255 -93.773308 13.085272
0.112292 -105.899781 10.121516
-0.392725 -104.393723 10.33187
-0.06642 -104.711869 11.350109
-14.157127 -126.429787 -0.31153
-15.508583 -125.948311 -0.646967
-13.497482 -126.870415 -1.564852
-12.831615 -126.794098 0.037727
-14.157127 -126.429787 -0.31153
-16.8367 -126.216347 -7.800374
-15.927711 -126.534859 -6.341207
-16.477536 -126.404282 -9.114497
-16.8367 -126.216347 -7.800374
-4.651517 -66.764923 6.850426
-5.105632 -66.472503 5.929802
-6.635009 -70.674835 7.191249
-5.977767 -69.412571 7.076616
-7.247959 -71.897964 7.360495
-7.713477 -71.703903 6.492284
-6.635009 -70.674835 7.191249
-4.628669 -87.164215 -8.601422
-4.254411 -87.683601 -7.802898
-4.065947 -89.027305 -8.215567
-6.640704 -81.329739 -9.745078
-5.925044 -83.311119 -9.364449
-6.495682 -82.672657 -10.083572
-6.727794 -79.991501 -9.472134
-6.640704 -81.329739 -9.745078
-5.813018 -99.959938 -13.887662
-6.428565 -100.962822 -14.529936
-4.715799 -100.736702 -13.144753
-5.813018 -99.959938 -13.887662
-10.315553 -74.628242 -4.257929
-10.612544 -73.23695 -4.004461
-10.640702 -74.99796 -3.580946
-9.882709 -74.247421 -4.909848
-10.315553 -74.628242 -4.257929
-9.910868 -76.008431 -4.486333
-9.577147 -73.807934 -5.577758
-9.981832 -72.427746 -5.349355
-9.882709 -74.247421 -4.909848
-0.540025 -102.009986 17.360535
-1.166179 -100.550911 17.348499
-0.128782 -103.093719 16.085918
-0.540025 -102.009986 17.360535
-12.100337 -113.278869 -19.492197
-13.333137 -113.582664 -20.029686
-12.3381 -111.810615 -19.448688
-10.90504 -112.915672 -18.970042
-12.100337 -113.278869 -19.492197
-7.13924 -67.099087 3.454478
-6.459745 -65.663205 3.324966
-6.031761 -65.923248 4.170335
-12.964416 -120.803566 -19.374271
-11.686795 -120.652092 -18.840555
-11.739514 -121.649094 -18.516466
-12.964416 -120.803566 -19.374271
-14.350074 -120.817948 -19.834373
-23.412225 -121.118515 -19.097439
-21.978534 -122.226417 -18.348596
-23.492819 -121.57862 -18.188669
-8.341387 -64.067995 -0.788364
-7.976278 -64.421625 0.013321
-8.341387 -64.067995 -0.788364
-9.082802 -65.299163 -1.40279
-9.478213 -70.631046 -11.112894
-10.039049 -68.655582 -11.571473
-9.537578 -69.344162 -10.910905
-9.478213 -70.631046 -11.112894
-8.839741 -72.655323 -10.648244
-10.42467 -80.981701 9.697274
-10.75863 -80.730095 8.879935
-10.157388 -79.879627 9.698446
-10.677384 -82.094887 9.705574
-10.42467 -80.981701 9.697274
-10.076142 -81.244419 10.524085
-9.492977 -87.211647 11.356744
-9.758629 -86.048614 11.381732
-9.349851 -86.25254 12.284185
-3.488211 -96.669747 14.032449
-3.953131 -95.620133 15.117707
-3.14602 -96.979485 15.094805
0.80691 -108.936409 9.486251
0.492921 -107.40287 9.78696
0.733659 -110.096748 8.005485
0.80691 -108.936409 9.486251
0.671254 -111.219109 6.575318
0.484841 -109.710174 7.003998
0.733659 -110.096748 8.005485
0.734208 -112.675522 6.022571
0.485389 -112.288948 5.021083
0.671254 -111.219109 6.575318
0.724515 -114.157692 5.50287
0.734208 -112.675522 6.022571
0.910381 -113.087852 7.057104
-0.053489 -119.744774 8.087148
-0.619354 -120.975632 7.435854
0.06113 -119.437012 6.926605
-0.053489 -119.744774 8.087148
-0.330958 -120.383064 5.138787
0.137368 -119.094399 5.791644
0.06113 -119.437012 6.926605
-16.870456 -125.34375 -0.880649
-18.245504 -124.640084 -1.10623
-16.184867 -125.901543 -2.14779
-15.508583 -125.948311 -0.646967
-16.870456 -125.34375 -0.880649
-16.967884 -125.776139 -3.698967
-15.606011 -126.380699 -3.465285
-16.184867 -125.901543 -2.14779
-16.967884 -125.776139 -3.698967
-18.342579 -125.063263 -3.820873
-8.623381 -78.197987 11.334568
-8.050895 -77.115334 11.266682
-9.388199 -79.04728 10.475042
-8.623381 -78.197987 11.334568
-10.157388 -79.879627 9.698446
-9.722158 -78.795673 9.657702
-9.388199 -79.04728 10.475042
-6.362267 -72.262886 9.096374
-6.800898 -72.048241 8.19425
-7.013936 -73.419365 9.202651
-6.362267 -72.262886 9.096374
-7.600365 -74.517563 9.335847
-8.018736 -74.325783 8.462236
-7.013936 -73.419365 9.202651
-5.803935 -85.949264 -10.136812
-5.110113 -86.580978 -9.358518
-6.560612 -83.965103 -10.434943
-5.803935 -85.949264 -10.136812
-6.495682 -82.672657 -10.083572
-6.560612 -83.965103 -10.434943
-5.528515 -112.77935 -15.791553
-5.356415 -114.205117 -15.705982
-6.365522 -113.543152 -16.505523
-4.710824 -111.975182 -15.09906
-5.528515 -112.77935 -15.791553
-5.719931 -111.313217 -15.898601
-4.559999 -107.958336 -14.482129
-4.234704 -109.569595 -14.449752
-5.227534 -108.897789 -15.238485
-4.901511 -106.318184 -14.543672
-3.908681 -106.98999 -13.754938
-4.559999 -107.958336 -14.482129
-10.567761 -69.190079 -2.922723
-10.545286 -69.541843 -2.180657
-10.403111 -68.831097 -3.631949
-10.567761 -69.190079 -2.922723
-10.733866 -70.512813 -3.340222
-10.365467 -68.424755 -4.353113
-10.403111 -68.831097 -3.631949
-10.428305 -71.510532 -4.365446
-10.753455 -71.880249 -3.688462
-10.612544 -73.23695 -4.004461
-10.373624 -69.730281 -4.742257
-10.428305 -71.510532 -4.365446
-10.169875 -68.001205 -5.045922
-10.365467 -68.424755 -4.353113
-10.373624 -69.730281 -4.742257
-9.956765 -67.061546 -6.434215
-10.119986 -67.542884 -5.75099
-10.01481 -68.825393 -6.118291
-9.947758 -66.555588 -7.129106
-9.956765 -67.061546 -6.434215
-9.781906 -67.811706 -7.48117
-9.878075 -66.023239 -7.808759
-9.947758 -66.555588 -7.129106
-9.480915 -69.134556 -7.755959
-9.781906 -67.811706 -7.48117
-9.550598 -69.666905 -7.076306
-9.190064 -70.437897 -8.021437
-9.421373 -68.582699 -8.4263
-9.480915 -69.134556 -7.755959
-8.993716 -86.476097 13.243324
-9.349851 -86.25254 12.284185
-8.700274 -87.631813 13.217841
-8.993716 -86.476097 13.243324
-8.19902 -88.826721 13.189419
-8.582946 -88.610481 12.230776
-8.700274 -87.631813 13.217841
-2.580979 -97.701111 17.326861
-1.859396 -99.103249 17.366452
-2.837827 -97.313248 16.186974
-2.580979 -97.701111 17.326861
-2.372906 -98.362862 15.101715
-3.14602 -96.979485 15.094805
-2.837827 -97.313248 16.186974
0.237033 -105.034004 12.421978
-0.06642 -104.711869 11.350109
-0.267984 -103.527946 12.632333
0.228092 -104.222786 14.85903
-0.321405 -102.721015 14.931091
-0.128782 -103.093719 16.085918
0.474842 -105.379661 13.525492
0.228092 -104.222786 14.85903
0.237033 -105.034004 12.421978
0.474842 -105.379661 13.525492
-1.990354 -123.148658 6.048125
-1.256614 -122.102097 6.739937
-1.565252 -122.272148 7.906146
-2.784518 -124.075561 5.339962
-2.47588 -123.90551 4.173753
-1.990354 -123.148658 6.048125
-3.671232 -124.901688 4.641544
-2.784518 -124.075561 5.339962
-4.610017 -125.596893 3.953882
-4.20883 -125.527619 2.777928
-3.671232 -124.901688 4.641544
-5.633745 -126.173996 3.282296
-4.610017 -125.596893 3.953882
-6.702215 -126.61319 2.64639
-6.216085 -126.662018 1.454361
-5.633745 -126.173996 3.282296
-7.843999 -126.922898 2.031089
-6.702215 -126.61319 2.64639
-9.022673 -127.092201 1.473534
-8.463228 -127.270516 0.260901
-7.843999 -126.922898 2.031089
-1.747057 -99.718437 -4.423972
-1.586754 -101.145058 -4.078564
-1.349518 -101.064697 -5.040204
-1.930921 -98.283203 -4.820407
-2.168157 -98.363563 -3.858767
-1.747057 -99.718437 -4.423972
-2.18607 -96.712875 -5.148322
-1.930921 -98.283203 -4.820407
-2.452402 -95.134621 -5.537636
-2.618352 -95.350075 -4.644517
-2.18607 -96.712875 -5.148322
-2.816568 -93.445008 -5.870642
-2.452402 -95.134621 -5.537636
-3.176149 -91.749161 -6.27053
-3.244265 -92.075974 -5.433719
-2.816568 -93.445008 -5.870642
-3.22007 -91.332443 -7.062247
-3.647768 -89.963409 -6.625324
-3.176149 -91.749161 -6.27053
-3.475824 -90.889397 -7.907277
-3.22007 -91.332443 -7.062247
-4.065947 -89.027305 -8.215567
-3.475824 -90.889397 -7.907277
-7.121188 -116.8479 -16.879799
-7.079172 -118.079971 -16.70429
-8.122897 -117.408417 -17.552208
-7.179168 -115.572632 -17.073835
-6.135442 -116.244186 -16.225916
-7.121188 -116.8479 -16.879799
-7.328303 -114.194008 -17.13662
-7.179168 -115.572632 -17.073835
-6.365522 -113.543152 -16.505523
-7.328303 -114.194008 -17.13662
-7.772858 -111.244484 -17.201992
-8.73564 -111.89534 -17.833088
-8.074991 -109.672302 -17.207679
-6.839755 -110.545204 -16.596782
-7.772858 -111.244484 -17.201992
-20.836727 -123.850693 -15.378588
-19.576222 -124.647858 -14.298368
-21.026601 -123.985336 -14.207217
-22.173118 -122.937347 -16.363632
-20.722738 -123.599868 -16.454784
-20.836727 -123.850693 -15.378588
-23.539399 -121.952507 -17.219328
-22.173118 -122.937347 -16.363632
-23.492819 -121.57862 -18.188669
-23.539399 -121.952507 -17.219328
-6.908717 -65.348581 2.464215
-6.459745 -65.663205 3.324966
-7.27498 -65.066435 1.642189
-6.908717 -65.348581 2.464215
-7.933487 -66.556896 1.787083
-7.688481 -64.734449 0.810987
-7.27498 -65.066435 1.642189
-8.587548 -65.961926 0.16739
-7.976278 -64.421625 0.013321
-7.688481 -64.734449 0.810987
-10.075117 -68.510059 -0.965293
-9.533701 -66.930496 -1.180297
-9.41676 -67.228665 -0.415272
-10.624226 -69.83247 -1.450308
-10.075117 -68.510059 -0.965293
-10.507286 -70.130639 -0.685283
-10.977456 -71.162422 -1.900647
-10.545286 -69.541843 -2.180657
-10.624226 -69.83247 -1.450308
-0.938245 -103.70929 -6.474463
-1.133722 -102.391625 -5.735413
-0.993738 -103.808983 -5.433846
-1.06389 -103.574387 -7.569755
-0.938245 -103.70929 -6.474463
-0.923907 -104.991745 -7.268187
-1.283535 -103.303612 -8.581816
-1.06389 -103.574387 -7.569755
-1.283535 -103.303612 -8.581816
-1.451487 -104.534965 -9.391286
-10.393042 -118.222374 -18.766153
-9.250132 -117.838921 -18.1523
-9.223792 -119.023941 -17.990551
-11.6392 -119.606979 -19.151382
-10.414298 -120.452507 -18.293577
-11.686795 -120.652092 -18.840555
-11.651446 -118.47174 -19.313192
-11.6392 -119.606979 -19.151382
-10.393042 -118.222374 -18.766153
-11.651446 -118.47174 -19.313192
-17.821157 -124.635689 -16.411198
-17.961928 -124.98375 -15.386922
-19.245576 -124.165154 -16.494015
-17.663565 -124.192124 -17.37516
-16.379918 -125.010719 -16.268066
-17.821157 -124.635689 -16.411198
-20.581967 -123.251808 -17.479059
-21.978534 -122.226417 -18.348596
-18.997878 -123.270493 -18.357351
-20.394445 -122.245102 -19.226889
-17.556638 -123.645523 -18.21422
-17.663565 -124.192124 -17.37516
-18.997878 -123.270493 -18.357351
-20.221817 -120.046203 -21.074558
-20.257341 -120.867859 -20.570291
-18.683865 -120.386711 -20.882223
-20.221817 -120.046203 -21.074558
-20.173608 -119.160743 -21.497217
-17.212802 -120.612229 -20.600758
-17.261011 -121.497689 -20.178099
-18.683865 -120.386711 -20.882223
-15.736481 -120.779267 -20.257599
-17.212802 -120.612229 -20.600758
-10.032278 -64.894447 -9.176823
-9.785315 -66.700173 -8.839404
-10.240813 -64.302952 -9.862766
-10.032278 -64.894447 -9.176823
-10.487015 -63.677071 -10.53812
-10.240813 -64.302952 -9.862766
-10.104609 -65.495106 -10.19334
-10.842977 -63.042462 -11.219175
-10.487015 -63.677071 -10.53812
-11.270677 -62.366236 -11.885538
-10.842977 -63.042462 -11.219175
-10.778511 -64.192999 -11.535057
-11.774876 -61.684773 -12.558518
-11.270677 -62.366236 -11.885538
-11.802698 -62.784517 -12.852536
-11.774876 -61.684773 -12.558518
-11.802698 -62.784517 -12.852536
-11.205307 -64.725824 -12.436466
-10.651408 -66.651787 -12.020498
-10.039049 -68.655582 -11.571473
-9.98093 -82.589638 11.433182
-9.746037 -81.482429 11.42297
-10.348997 -83.504776 10.518524
-9.98093 -82.589638 11.433182
-10.001071 -83.736809 11.419321
-10.135445 -85.829834 10.479477
-9.99232 -84.870728 11.406918
-9.758629 -86.048614 11.381732
-7.676395 -90.020966 13.163716
-8.19902 -88.826721 13.189419
-4.728199 -94.302399 15.109289
-3.953131 -95.620133 15.117707
-4.728199 -94.302399 15.109289
-5.087856 -94.014183 14.070708
-6.991242 -91.253533 13.13588
-6.295888 -92.494248 13.116373
-7.396539 -91.037956 12.174518
-7.676395 -90.020966 13.163716
-6.991242 -91.253533 13.13588
0.166615 -107.084724 8.768721
0.112292 -105.899781 10.121516
0.492921 -107.40287 9.78696
1.001663 -114.948746 7.642393
1.09411 -113.458046 8.138863
0.701398 -115.988663 5.936546
1.001663 -114.948746 7.642393
0.402699 -116.982231 4.273386
0.601989 -115.563591 4.874244
0.701398 -115.988663 5.936546
0.123694 -118.723877 4.669757
0.137368 -119.094399 5.791644
0.103551 -118.302666 3.584711
0.123694 -118.723877 4.669757
-0.274863 -119.61924 2.91878
0.004142 -117.877594 2.52241
0.402699 -116.982231 4.273386
0.103551 -118.302666 3.584711
-10.259732 -127.128212 0.937652
-9.022673 -127.092201 1.473534
-11.524765 -127.025666 0.478181
-12.831615 -126.794098 0.037727
-10.906937 -127.337272 -0.756124
-10.259732 -127.128212 0.937652
-11.524765 -127.025666 0.478181
-15.043174 -126.743599 -4.768695
-14.260158 -126.869003 -3.217518
-15.606011 -126.380699 -3.465285
-14.581858 -127.023163 -6.09344
-15.043174 -126.743599 -4.768695
-15.927711 -126.534859 -6.341207
-16.121598 -126.472572 -10.402621
-15.110457 -126.882713 -8.954077
-16.477536 -126.404282 -9.114497
-17.217584 -125.966019 -11.807483
-15.850505 -126.444451 -11.647063
-16.121598 -126.472572 -10.402621
-18.627386 -125.388321 -11.845019
-18.356293 -125.360199 -13.08946
-17.217584 -125.966019 -11.807483
-20.025787 -124.697472 -11.855251
-18.627386 -125.388321 -11.845019
-21.192324 -124.016182 -13.005434
-20.025787 -124.697472 -11.855251
-8.223078 -75.618202 9.438157
-7.600365 -74.517563 9.335847
-8.39698 -76.887875 10.357591
-8.050895 -77.115334 11.266682
-8.743654 -76.666023 9.53725
-8.39698 -76.887875 10.357591
-9.299643 -77.741474 9.613957
-9.125741 -76.471802 8.694524
-8.223078 -75.618202 9.438157
-8.743654 -76.666023 9.53725
-5.568172 -66.224793 5.060618
-6.031761 -65.923248 4.170335
-6.248715 -67.606842 5.169031
-5.568172 -66.224793 5.060618
-5.105632 -66.472503 5.929802
-5.320591 -68.09946 6.934205
-4.651517 -66.764923 6.850426
-6.443351 -69.167664 6.180626
-5.320591 -68.09946 6.934205
-5.977767 -69.412571 7.076616
-7.879366 -73.077309 7.495285
-7.247959 -71.897964 7.360495
-6.800898 -72.048241 8.19425
-5.298578 -85.237274 -8.945849
-4.628669 -87.164215 -8.601422
-5.110113 -86.580978 -9.358518
-7.025939 -78.618652 -9.219012
-6.36821 -80.595352 -8.772833
-6.727794 -79.991501 -9.472134
-7.606145 -76.65297 -9.703854
-7.246561 -77.256821 -9.004552
-7.025939 -78.618652 -9.219012
-8.264754 -74.641079 -10.166778
-7.606145 -76.65297 -9.703854
-2.199151 -105.365944 -11.248627
-1.627544 -105.753875 -10.24025
-1.973273 -106.906731 -11.069786
-2.550748 -103.706299 -11.345437
-2.199151 -105.365944 -11.248627
-2.896477 -104.859154 -12.174972
-2.908105 -102.034546 -11.487122
-2.550748 -103.706299 -11.345437
-15.103763 -110.877243 -20.342012
-14.846114 -112.355423 -20.463052
-13.841522 -110.630798 -19.855066
-15.103763 -110.877243 -20.342012
-12.646225 -110.267601 -19.33291
-12.3381 -111.810615 -19.448688
-13.841522 -110.630798 -19.855066
-11.499142 -109.841888 -18.828823
-12.646225 -110.267601 -19.33291
-10.431788 -109.30397 -18.272001
-10.075449 -110.9095 -18.369711
-11.499142 -109.841888 -18.828823
-9.407435 -108.710053 -17.740137
-10.431788 -109.30397 -18.272001
-8.474331 -108.010773 -17.134927
-8.074991 -109.672302 -17.207679
-9.407435 -108.710053 -17.740137
-7.576637 -107.265571 -16.558329
-8.474331 -108.010773 -17.134927
-6.347359 -108.129776 -15.936667
-7.576637 -107.265571 -16.558329
-5.362718 -104.576912 -14.53181
-4.901511 -106.318184 -14.543672
-5.841333 -102.81382 -14.558316
-6.428565 -100.962822 -14.529936
-4.728808 -103.586746 -13.842987
-5.362718 -104.576912 -14.53181
-5.841333 -102.81382 -14.558316
-3.736124 -101.42463 -12.345897
-4.227749 -102.511582 -13.070638
-4.715799 -100.736702 -13.144753
-2.908105 -102.034546 -11.487122
-3.736124 -101.42463 -12.345897
3 0 85 83
3 1 88 86
3 2 91 89
3 3 93 92
3 3 95 93
3 4 98 96
3 329 99 330
3 5 102 100
3 6 105 103
3 6 107 105
3 7 110 108
3 9 113 111
3 9 115 113
3 10 118 116
3 12 121 119
3 12 331 333
3 333 332 121
3 331 332 333
3 335 334 122
3 13 125 123
3 13 336 338
3 338 337 125
3 336 337 338
3 339 127 340
3 15 130 128
3 15 132 130
3 16 135 133
3 16 137 135
3 16 139 137
3 341 142 342
3 17 343 345
3 343 143 344
3 343 344 345
3 17 145 143
3 17 147 145
3 18 150 148
3 18 152 150
3 346 153 347
3 346 347 348
3 350 349 153
3 14 158 156
3 19 161 159
3 19 163 161
3 8 166 164
3 20 169 167
3 20 171 169
3 20 173 171
3 11 177 175
3 21 351 353
3 351 179 352
3 351 352 353
3 21 354 356
3 356 355 179
3 354 355 356
3 22 183 181
3 24 184 84
3 24 185 184
3 25 188 186
3 27 189 87
3 27 190 189
3 28 193 191
3 30 194 90
3 30 195 194
3 31 197 196
3 32 357 358
3 32 359 361
3 359 198 360
3 359 360 361
3 32 199 198
3 34 200 94
3 34 201 200
3 35 362 364
3 362 202 363
3 362 363 364
3 35 203 202
3 35 205 203
3 37 209 207
3 39 210 97
3 39 211 210
3 366 365 212
3 368 367 215
3 42 369 370
3 42 371 373
3 371 217 372
3 371 372 373
3 375 374 218
3 44 220 101
3 44 221 220
3 23 222 182
3 45 223 104
3 45 224 223
3 45 225 224
3 46 226 106
3 46 227 226
3 47 230 228
3 49 231 109
3 49 232 231
3 26 233 187
3 50 234 112
3 50 235 234
3 50 236 235
3 51 237 114
3 51 376 378
3 378 377 237
3 376 377 378
3 52 240 238
3 54 241 117
3 54 242 241
3 29 243 192
3 55 244 120
3 55 245 244
3 55 246 245
3 43 379 381
3 381 380 219
3 379 380 381
3 382 247 383
3 384 248 385
3 386 385 247
3 384 385 386
3 33 387 389
3 387 249 388
3 387 388 389
3 56 250 124
3 56 251 250
3 56 390 392
3 392 391 251
3 390 391 392
3 57 254 252
3 59 255 126
3 59 256 255
3 393 257 394
3 393 394 395
3 60 258 129
3 60 259 258
3 60 260 259
3 61 261 131
3 61 262 261
3 62 396 398
3 398 397 134
3 396 397 398
3 62 399 401
3 399 263 400
3 399 400 401
3 62 264 263
3 63 265 136
3 63 266 265
3 63 267 266
3 64 268 138
3 64 269 268
3 402 270 403
3 404 403 204
3 402 403 404
3 65 271 140
3 65 272 271
3 65 273 272
3 66 274 141
3 66 275 274
3 67 276 144
3 67 277 276
3 67 278 277
3 68 279 146
3 68 280 279
3 36 281 206
3 69 282 149
3 69 283 282
3 69 284 283
3 70 285 151
3 70 286 285
3 71 405 406
3 71 407 409
3 407 287 408
3 407 408 409
3 71 288 287
3 410 289 411
3 413 412 289
3 57 290 154
3 57 252 290
3 414 292 415
3 416 293 417
3 418 294 419
3 420 419 293
3 418 419 420
3 72 295 155
3 72 291 295
3 58 296 253
3 73 297 157
3 73 298 297
3 38 299 208
3 74 300 160
3 74 301 300
3 74 302 301
3 75 303 162
3 75 304 303
3 48 305 229
3 76 306 165
3 76 307 306
3 40 308 213
3 77 309 168
3 77 310 309
3 77 311 310
3 78 312 170
3 78 313 312
3 78 314 313
3 79 315 172
3 79 316 315
3 421 317 422
3 423 422 214
3 421 422 423
3 424 318 425
3 426 425 174
3 424 425 426
3 428 427 318
3 53 319 239
3 80 320 176
3 80 321 320
3 41 322 216
3 81 323 178
3 81 324 323
3 81 325 324
3 82 326 180
3 82 327 326
3 429 328 430
3 432 431 328
3 83 84 22
3 85 84 83
3 85 24 84
3 86 87 25
3 88 87 86
3 88 27 87
3 89 90 28
3 91 90 89
3 91 30 90
3 92 433 435
3 435 434 31
3 433 434 435
3 93 436 438
3 438 437 92
3 436 437 438
3 93 439 441
3 439 32 440
3 439 440 441
3 93 94 32
3 95 94 93
3 95 34 94
3 442 35 443
3 445 444 35
3 96 97 37
3 98 97 96
3 98 39 97
3 99 446 447
3 99 448 450
3 448 42 449
3 448 449 450
3 100 451 453
3 451 101 452
3 451 452 453
3 102 101 100
3 102 44 101
3 103 104 23
3 105 104 103
3 105 45 104
3 105 106 45
3 107 106 105
3 107 46 106
3 108 109 47
3 110 109 108
3 110 49 109
3 111 112 26
3 113 112 111
3 113 50 112
3 113 114 50
3 115 114 113
3 115 51 114
3 116 117 52
3 118 117 116
3 118 54 117
3 119 120 29
3 121 120 119
3 121 55 120
3 121 454 456
3 456 455 55
3 454 455 456
3 458 457 121
3 461 460 43
3 459 460 461
3 122 462 463
3 465 464 122
3 123 124 33
3 125 124 123
3 125 56 124
3 125 466 468
3 468 467 56
3 466 467 468
3 470 469 125
3 471 126 472
3 473 472 57
3 471 472 473
3 127 474 476
3 474 126 475
3 474 475 476
3 127 59 126
3 128 477 479
3 477 129 478
3 477 478 479
3 130 129 128
3 130 60 129
3 130 131 60
3 132 131 130
3 132 61 131
3 133 480 482
3 480 134 481
3 480 481 482
3 135 134 133
3 135 62 134
3 135 136 62
3 137 136 135
3 137 63 136
3 137 138 63
3 139 138 137
3 139 64 138
3 483 140 484
3 485 140 486
3 487 65 488
3 489 488 140
3 487 488 489
3 490 141 491
3 492 491 65
3 490 491 492
3 142 493 495
3 493 141 494
3 493 494 495
3 142 66 141
3 143 496 497
3 143 498 499
3 143 500 502
3 500 144 501
3 500 501 502
3 145 144 143
3 145 67 144
3 145 146 67
3 147 146 145
3 147 68 146
3 148 149 36
3 150 149 148
3 150 69 149
3 150 151 69
3 152 151 150
3 152 70 151
3 153 503 504
3 153 505 507
3 505 71 506
3 505 506 507
3 153 508 510
3 510 509 71
3 508 509 510
3 512 511 153
3 513 154 514
3 515 154 516
3 517 57 518
3 519 518 154
3 517 518 519
3 520 155 521
3 522 155 523
3 524 72 525
3 526 525 155
3 524 525 526
3 156 157 58
3 158 157 156
3 158 73 157
3 159 160 38
3 161 160 159
3 161 74 160
3 161 162 74
3 163 162 161
3 163 75 162
3 164 165 48
3 166 165 164
3 166 76 165
3 167 168 40
3 169 168 167
3 169 77 168
3 169 170 77
3 171 170 169
3 171 78 170
3 171 172 78
3 173 172 171
3 173 79 172
3 527 174 528
3 529 174 530
3 532 531 174
3 175 176 53
3 177 176 175
3 177 80 176
3 533 178 534
3 535 534 41
3 533 534 535
3 179 536 538
3 536 178 537
3 536 537 538
3 179 81 178
3 179 180 81
3 539 180 540
3 541 540 179
3 539 540 541
3 542 82 543
3 544 543 180
3 542 543 544
3 181 182 5
3 183 182 181
3 183 23 182
3 84 183 22
3 184 183 84
3 184 23 183
3 184 103 23
3 185 103 184
3 185 6 103
3 186 187 7
3 188 187 186
3 188 26 187
3 87 188 25
3 189 188 87
3 189 26 188
3 189 111 26
3 190 111 189
3 190 9 111
3 191 192 10
3 193 192 191
3 193 29 192
3 90 193 28
3 194 193 90
3 194 29 193
3 194 119 29
3 195 119 194
3 195 12 119
3 196 545 546
3 197 547 549
3 549 548 196
3 547 548 549
3 197 550 551
3 552 197 553
3 554 553 31
3 552 553 554
3 555 197 556
3 559 558 197
3 557 558 559
3 198 560 562
3 560 561 562
3 198 563 564
3 198 565 567
3 565 566 567
3 199 568 570
3 570 569 198
3 568 569 570
3 199 571 573
3 571 33 572
3 571 572 573
3 94 199 32
3 200 199 94
3 200 33 199
3 200 123 33
3 201 123 200
3 201 13 123
3 574 128 575
3 576 128 577
3 578 15 579
3 580 579 128
3 578 579 580
3 202 581 582
3 202 583 584
3 202 585 587
3 585 133 586
3 585 586 587
3 203 133 202
3 203 16 133
3 203 204 16
3 205 204 203
3 205 588 590
3 590 589 204
3 588 589 590
3 591 205 592
3 593 592 35
3 591 592 593
3 594 205 595
3 597 596 205
3 598 17 599
3 598 599 600
3 601 206 602
3 603 602 17
3 601 602 603
3 604 206 605
3 606 36 607
3 608 607 206
3 606 607 608
3 609 36 610
3 611 148 612
3 613 612 36
3 611 612 613
3 614 148 615
3 616 18 617
3 618 617 148
3 616 617 618
3 207 208 14
3 209 208 207
3 209 38 208
3 97 209 37
3 210 209 97
3 210 38 209
3 210 159 38
3 211 159 210
3 211 19 159
3 212 213 8
3 619 213 620
3 621 620 212
3 619 620 621
3 622 40 623
3 624 623 213
3 622 623 624
3 625 40 626
3 627 167 628
3 629 628 40
3 627 628 629
3 630 167 631
3 632 20 633
3 634 633 167
3 632 633 634
3 635 214 636
3 637 636 20
3 635 636 637
3 638 214 639
3 641 640 214
3 215 216 11
3 642 216 643
3 644 643 215
3 642 643 644
3 645 41 646
3 647 646 216
3 645 646 647
3 648 41 649
3 651 650 41
3 217 652 653
3 217 654 656
3 654 21 655
3 654 655 656
3 218 219 2
3 657 219 658
3 659 658 218
3 657 658 659
3 660 43 661
3 662 661 219
3 660 661 662
3 663 43 664
3 666 665 43
3 101 667 668
3 220 669 671
3 671 670 101
3 669 670 671
3 220 672 673
3 220 674 676
3 674 122 675
3 674 675 676
3 221 122 220
3 221 677 679
3 679 678 122
3 677 678 679
3 182 102 5
3 222 102 182
3 222 44 102
3 104 222 23
3 223 222 104
3 223 44 222
3 223 221 44
3 224 221 223
3 224 680 682
3 682 681 221
3 680 681 682
3 224 683 685
3 683 196 684
3 683 684 685
3 225 196 224
3 225 31 196
3 106 225 45
3 226 225 106
3 226 31 225
3 226 92 31
3 227 92 226
3 227 3 92
3 228 229 4
3 230 229 228
3 230 48 229
3 109 230 47
3 231 230 109
3 231 48 230
3 231 164 48
3 232 164 231
3 232 8 164
3 187 110 7
3 233 110 187
3 233 49 110
3 112 233 26
3 234 233 112
3 234 49 233
3 234 232 49
3 235 232 234
3 235 8 232
3 235 212 8
3 236 212 235
3 236 686 688
3 688 687 212
3 686 687 688
3 114 236 50
3 237 236 114
3 237 689 691
3 691 690 236
3 689 690 691
3 237 692 693
3 695 694 237
3 238 239 1
3 240 239 238
3 240 53 239
3 117 240 52
3 241 240 117
3 241 53 240
3 241 175 53
3 242 175 241
3 242 11 175
3 192 118 10
3 243 118 192
3 243 54 118
3 120 243 29
3 244 243 120
3 244 54 243
3 244 242 54
3 245 242 244
3 245 11 242
3 245 215 11
3 246 215 245
3 246 696 698
3 698 697 215
3 696 697 698
3 699 246 700
3 701 700 55
3 699 700 701
3 702 246 703
3 705 704 246
3 219 91 2
3 706 91 707
3 708 707 219
3 706 707 708
3 709 30 710
3 711 710 91
3 709 710 711
3 713 712 43
3 247 714 715
3 247 716 718
3 716 30 717
3 716 717 718
3 247 195 30
3 248 195 247
3 248 12 195
3 719 248 720
3 721 248 722
3 721 722 723
3 724 12 725
3 726 725 248
3 724 725 726
3 728 727 12
3 249 729 730
3 249 731 732
3 124 249 33
3 250 249 124
3 250 733 735
3 735 734 249
3 733 734 735
3 250 736 737
3 251 738 740
3 740 739 250
3 738 739 740
3 251 741 742
3 251 743 744
3 746 745 251
3 748 747 56
3 252 253 0
3 254 253 252
3 254 58 253
3 126 254 57
3 255 254 126
3 255 58 254
3 255 156 58
3 256 156 255
3 256 14 156
3 749 127 750
3 257 751 753
3 751 127 752
3 751 752 753
3 257 59 127
3 129 754 756
3 754 257 755
3 754 755 756
3 258 257 129
3 258 59 257
3 258 256 59
3 259 256 258
3 259 14 256
3 259 207 14
3 260 207 259
3 260 37 207
3 131 260 60
3 261 260 131
3 261 37 260
3 261 96 37
3 262 96 261
3 262 4 96
3 757 15 758
3 134 759 760
3 762 761 134
3 263 763 764
3 263 765 767
3 765 15 766
3 765 766 767
3 263 132 15
3 264 132 263
3 264 61 132
3 136 264 62
3 265 264 136
3 265 61 264
3 265 262 61
3 266 262 265
3 266 4 262
3 266 228 4
3 267 228 266
3 267 47 228
3 138 267 63
3 268 267 138
3 268 47 267
3 268 108 47
3 269 108 268
3 269 7 108
3 204 139 16
3 270 139 204
3 270 64 139
3 140 768 770
3 768 270 769
3 768 769 770
3 271 270 140
3 271 64 270
3 271 269 64
3 272 269 271
3 272 7 269
3 272 186 7
3 273 186 272
3 273 25 186
3 141 273 65
3 274 273 141
3 274 25 273
3 274 86 25
3 275 86 274
3 275 1 86
3 771 142 772
3 773 142 774
3 775 66 776
3 777 776 142
3 775 776 777
3 144 778 779
3 276 780 782
3 782 781 144
3 780 781 782
3 276 783 785
3 783 66 784
3 783 784 785
3 276 275 66
3 277 275 276
3 277 1 275
3 277 238 1
3 278 238 277
3 278 52 238
3 146 278 67
3 279 278 146
3 279 52 278
3 279 116 52
3 280 116 279
3 280 10 116
3 206 147 17
3 281 147 206
3 281 68 147
3 149 281 36
3 282 281 149
3 282 68 281
3 282 280 68
3 283 280 282
3 283 10 280
3 283 191 10
3 284 191 283
3 284 28 191
3 151 284 69
3 285 284 151
3 285 28 284
3 285 89 28
3 286 89 285
3 286 2 89
3 786 18 787
3 287 788 789
3 287 790 792
3 790 18 791
3 790 791 792
3 287 152 18
3 288 152 287
3 288 70 152
3 793 288 794
3 795 794 71
3 793 794 795
3 289 796 798
3 796 288 797
3 796 797 798
3 289 70 288
3 289 286 70
3 799 286 800
3 801 800 289
3 799 800 801
3 802 2 803
3 804 803 286
3 802 803 804
3 805 218 806
3 807 806 2
3 805 806 807
3 808 218 809
3 811 810 218
3 812 72 813
3 154 814 815
3 290 816 818
3 818 817 154
3 816 817 818
3 290 819 821
3 819 72 820
3 819 820 821
3 290 291 72
3 252 291 290
3 252 0 291
3 822 100 823
3 292 824 826
3 824 100 825
3 824 825 826
3 292 5 100
3 827 292 828
3 293 829 831
3 829 292 830
3 829 830 831
3 293 5 292
3 293 181 5
3 294 181 293
3 294 22 181
3 155 832 834
3 832 294 833
3 832 833 834
3 295 294 155
3 295 22 294
3 295 83 22
3 291 83 295
3 291 0 83
3 253 85 0
3 296 85 253
3 296 24 85
3 157 296 58
3 297 296 157
3 297 24 296
3 297 185 24
3 298 185 297
3 298 6 185
3 208 158 14
3 299 158 208
3 299 73 158
3 160 299 38
3 300 299 160
3 300 73 299
3 300 298 73
3 301 298 300
3 301 6 298
3 301 107 6
3 302 107 301
3 302 46 107
3 162 302 74
3 303 302 162
3 303 46 302
3 303 227 46
3 304 227 303
3 304 3 227
3 229 98 4
3 305 98 229
3 305 39 98
3 165 305 48
3 306 305 165
3 306 39 305
3 306 211 39
3 307 211 306
3 307 19 211
3 213 166 8
3 308 166 213
3 308 76 166
3 168 308 40
3 309 308 168
3 309 76 308
3 309 307 76
3 310 307 309
3 310 19 307
3 310 163 19
3 311 163 310
3 311 75 163
3 170 311 77
3 312 311 170
3 312 75 311
3 312 304 75
3 313 304 312
3 313 3 304
3 313 95 3
3 314 95 313
3 314 34 95
3 172 314 78
3 315 314 172
3 315 34 314
3 315 201 34
3 316 201 315
3 316 13 201
3 214 173 20
3 317 173 214
3 317 79 173
3 174 835 837
3 835 317 836
3 835 836 837
3 318 317 174
3 318 79 317
3 318 316 79
3 838 316 839
3 840 839 318
3 838 839 840
3 841 13 842
3 843 842 316
3 841 842 843
3 845 844 13
3 239 88 1
3 319 88 239
3 319 27 88
3 176 319 53
3 320 319 176
3 320 27 319
3 320 190 27
3 321 190 320
3 321 9 190
3 216 177 11
3 322 177 216
3 322 80 177
3 178 322 41
3 323 322 178
3 323 80 322
3 323 321 80
3 324 321 323
3 324 9 321
3 324 115 9
3 325 115 324
3 325 51 115
3 180 325 81
3 326 325 180
3 326 51 325
3 326 846 848
3 848 847 51
3 846 847 848
3 327 849 851
3 851 850 326
3 849 850 851
3 327 852 853
3 854 99 855
3 856 99 857
3 858 42 859
3 860 859 99
3 858 859 860
3 861 42 862
3 863 217 864
3 865 864 42
3 863 864 865
3 866 217 867
3 868 21 869
3 870 869 217
3 868 869 870
3 871 21 872
3 874 873 21
3 875 82 876
3 328 877 878
3 328 879 881
3 879 82 880
3 879 880 881
3 328 327 82
3 882 327 883
3 884 883 328
3 882 883 884
3 886 885 327
