ply
format ascii 1.0
element vertex 279
property float x
property float y
property float z
element face 245
property list uchar int vertex_index
end_header
23.75021 80.80838 -17.770109
21.493032 61.556236 -26.877401
29.884037 70.431129 -21.443853
19.773472 79.108261 -21.978067
22.845596 73.367645 -23.393942
27.030661 76.370193 -20.047514
27.788845 59.200493 -24.671629
23.802834 54.215355 -27.296793
18.843212 68.926353 -26.538965
25.542118 66.476395 -24.103373
32.148571 63.563736 -22.366899
18.050085 56.042389 -29.78583
33.953346 72.959206 -18.428919
36.409904 66.929779 -20.031752
21.78117 80.194481 -19.942919
23.403234 77.829636 -20.988062
25.425289 78.788597 -19.041159
14.158823 73.252342 -27.514059
17.403851 72.392441 -26.240114
26.390392 71.974266 -22.345781
24.247452 70.02243 -23.799173
27.707726 68.604263 -22.782732
28.895721 65.069221 -23.146074
31.09568 67.060486 -21.939631
18.402897 62.607178 -28.228994
19.686726 58.857887 -28.337595
24.803858 50.722832 -27.59041
22.029835 51.546295 -28.678621
23.073895 48.079628 -28.913118
21.522522 45.319016 -30.146544
38.313961 68.096893 -18.658953
37.319633 63.63855 -20.617296
17.793999 77.559502 -23.90288
21.346134 76.418159 -22.810884
24.950443 75.075882 -21.769686
28.52487 73.565216 -20.831259
24.644741 60.413124 -25.678141
22.694147 57.84285 -27.057398
25.72979 56.771042 -25.944307
17.048855 66.317917 -28.105322
20.208138 65.28138 -26.725012
20.78949 71.296936 -24.971518
22.168144 67.770897 -25.247889
23.454456 64.10923 -25.460531
26.72547 62.835365 -24.37702
29.945631 61.47847 -23.489244
33.023781 60.050667 -22.75773
4.847708 80.494682 -25.313425
5.842043 78.716393 -27.165022
8.326233 79.104347 -26.676344
20.897648 55.150772 -28.481234
19.26923 52.353035 -29.879332
29.012093 77.222939 -18.176916
30.572315 74.747337 -19.192026
31.992044 71.897446 -20.015638
37.108006 70.999115 -17.735979
35.278362 70.073387 -19.307768
33.250103 68.747559 -20.686472
34.329384 65.401077 -21.241358
35.208023 61.971947 -21.707701
21.942872 81.490764 -18.180727
22.907063 81.63536 -16.988771
22.76569 80.50143 -18.856514
20.958352 81.183815 -19.267132
21.942872 81.490764 -18.180727
16.654822 73.990173 -25.991804
15.781337 72.822392 -26.877086
15.032308 74.420124 -26.628777
15.032308 74.420124 -26.628777
13.412432 74.776794 -27.197416
24.377328 47.732597 -28.405477
23.938876 49.40123 -28.251764
25.24231 49.054199 -27.744124
23.548154 46.419298 -29.026032
24.377328 47.732597 -28.405477
18.003146 79.634499 -22.46812
18.972368 80.25969 -21.407742
18.783735 78.333881 -22.940473
17.013409 78.860119 -23.430527
18.003146 79.634499 -22.46812
17.946033 67.622135 -27.322144
16.339154 68.107674 -27.999969
17.236333 69.411891 -27.216791
21.817543 72.33229 -24.18273
20.057326 72.942184 -24.760912
21.085379 73.977539 -23.972124
5.978331 80.828861 -25.200685
5.46568 81.661205 -24.203243
6.475499 79.939717 -26.126484
5.344876 79.605537 -26.239224
5.978331 80.828861 -25.200685
9.004942 77.87463 -27.270344
9.76139 79.045234 -26.299298
7.67777 77.819641 -27.642592
9.004942 77.87463 -27.270344
16.683418 56.450893 -30.456532
17.410136 57.916031 -29.753111
17.320484 54.585972 -30.461314
16.683418 56.450893 -30.456532
19.848204 50.561714 -29.943457
20.649532 51.949665 -29.278976
21.228506 50.158344 -29.343101
18.544758 50.906998 -30.517842
19.848204 50.561714 -29.943457
20.847883 43.88123 -30.669418
22.040073 43.659098 -30.199284
29.922164 77.430722 -17.149143
28.178553 78.258069 -17.556142
32.26283 73.853272 -18.810472
31.51663 75.122742 -18.283065
33.207146 74.228676 -17.901512
38.54432 69.934731 -17.39988
37.897652 71.256656 -16.832826
36.59032 61.141941 -21.389384
36.263828 62.805249 -21.162498
37.646125 61.975243 -20.844181
35.531643 60.269092 -21.901817
36.59032 61.141941 -21.389384
19.976216 80.802799 -20.390168
20.958352 81.183815 -19.267132
20.777321 79.651371 -20.960493
18.972368 80.25969 -21.407742
19.976216 80.802799 -20.390168
28.251041 57.427594 -24.839798
29.313859 58.565559 -24.256693
14.894139 71.574886 -27.704338
13.371854 71.935444 -28.361005
16.516652 71.144936 -27.067366
14.894139 71.574886 -27.704338
15.781337 72.822392 -26.877086
18.123531 70.659397 -26.389539
17.236333 69.411891 -27.216791
16.516652 71.144936 -27.067366
12.640283 73.526931 -28.101025
13.412432 74.776794 -27.197416
13.371854 71.935444 -28.361005
12.640283 73.526931 -28.101025
17.586542 61.198425 -28.974693
16.915988 63.066204 -28.937311
18.228457 59.32378 -29.028993
17.586542 61.198425 -28.974693
19.044812 60.732532 -28.283295
18.868406 57.450138 -29.061712
17.410136 57.916031 -29.753111
18.228457 59.32378 -29.028993
21.750536 48.42501 -29.46035
21.228506 50.158344 -29.343101
22.551865 49.812962 -28.79587
22.298209 46.699322 -29.529831
20.974849 47.044704 -30.077063
21.750536 48.42501 -29.46035
22.772467 45.038992 -29.642744
22.298209 46.699322 -29.529831
23.548154 46.419298 -29.026032
22.040073 43.659098 -30.199284
22.772467 45.038992 -29.642744
34.828577 73.279335 -17.530962
33.207146 74.228676 -17.901512
39.674166 67.041328 -18.326329
39.147297 68.48362 -17.861367
38.798809 66.544521 -19.031174
39.674166 67.041328 -18.326329
37.84678 65.960964 -19.717574
37.361932 67.513336 -19.345353
38.798809 66.544521 -19.031174
38.301645 64.315349 -20.010345
36.864768 65.284165 -20.324524
37.84678 65.960964 -19.717574
38.64698 62.717106 -20.291669
38.301645 64.315349 -20.010345
37.646125 61.975243 -20.844181
38.64698 62.717106 -20.291669
18.55958 76.073467 -24.226593
16.849896 76.573704 -24.823187
20.335648 75.502796 -23.680595
18.55958 76.073467 -24.226593
19.570066 76.988831 -23.356882
22.095865 74.892902 -23.102413
21.085379 73.977539 -23.972124
20.335648 75.502796 -23.680595
16.087498 78.000675 -24.436153
17.013409 78.860119 -23.430527
16.849896 76.573704 -24.823187
16.087498 78.000675 -24.436153
27.221514 56.212868 -25.476137
26.759318 57.985768 -25.307968
28.251041 57.427594 -24.839798
26.210534 55.009788 -26.105774
27.221514 56.212868 -25.476137
25.247056 53.731945 -26.782017
24.766312 55.493199 -26.62055
26.210534 55.009788 -26.105774
25.747568 51.985683 -26.928825
24.303346 52.469093 -27.443601
25.247056 53.731945 -26.782017
26.154868 50.302357 -27.103825
25.747568 51.985683 -26.928825
25.24231 49.054199 -27.744124
26.154868 50.302357 -27.103825
15.539309 66.741371 -28.802746
16.339154 68.107674 -27.999969
16.238967 64.921573 -28.875475
15.539309 66.741371 -28.802746
17.725876 64.462547 -28.167158
16.915988 63.066204 -28.937311
16.238967 64.921573 -28.875475
18.364506 73.489937 -25.39521
16.654822 73.990173 -25.991804
19.096671 71.844689 -25.605816
18.364506 73.489937 -25.39521
20.057326 72.942184 -24.760912
30.392252 59.704548 -23.665501
29.313859 58.565559 -24.256693
28.867238 60.339482 -24.080436
31.931327 58.990646 -23.299743
30.392252 59.704548 -23.665501
31.484706 60.764568 -23.123487
33.35787 58.332439 -22.938415
31.931327 58.990646 -23.299743
4.465849 81.189221 -24.191154
5.46568 81.661205 -24.203243
3.953594 79.865482 -25.279529
4.465849 81.189221 -24.191154
4.319612 79.130623 -26.331449
3.953594 79.865482 -25.279529
4.81678 78.241478 -27.257248
4.319612 79.130623 -26.331449
5.344876 79.605537 -26.239224
5.299907 77.30904 -28.110025
4.81678 78.241478 -27.257248
9.067074 80.191517 -25.631241
9.76139 79.045234 -26.299298
7.717594 80.133693 -25.882145
9.067074 80.191517 -25.631241
7.084138 78.91037 -26.920683
6.475499 79.939717 -26.126484
7.717594 80.133693 -25.882145
6.435675 77.625664 -27.88693
7.084138 78.91037 -26.920683
7.67777 77.819641 -27.642592
5.299907 77.30904 -28.110025
6.435675 77.625664 -27.88693
25.547612 80.050789 -17.352739
24.685603 80.891941 -16.60596
24.685603 80.891941 -16.60596
22.907063 81.63536 -16.988771
17.930056 52.741295 -30.508065
17.320484 54.585972 -30.461314
18.659658 54.197712 -29.832581
17.930056 52.741295 -30.508065
18.544758 50.906998 -30.517842
20.267221 45.606083 -30.664994
20.974849 47.044704 -30.077063
20.267221 45.606083 -30.664994
20.847883 43.88123 -30.669418
26.385151 79.040897 -17.988264
24.58775 79.798488 -18.405634
25.547612 80.050789 -17.352739
27.218691 78.005768 -18.609037
26.385151 79.040897 -17.988264
28.178553 78.258069 -17.556142
30.736519 76.360543 -17.77551
29.922164 77.430722 -17.149143
29.792204 75.985138 -18.684471
30.736519 76.360543 -17.77551
31.51663 75.122742 -18.283065
36.405907 72.29929 -17.184492
37.897652 71.256656 -16.832826
35.530676 71.979161 -18.082449
34.828577 73.279335 -17.530962
36.405907 72.29929 -17.184492
37.710983 69.548004 -18.197466
38.54432 69.934731 -17.39988
39.147297 68.48362 -17.861367
34.439522 59.308453 -22.426832
34.115902 61.011307 -22.232715
35.531643 60.269092 -21.901817
33.35787 58.332439 -22.938415
34.439522 59.308453 -22.426832
3 0 16 14
3 0 60 61
3 0 62 64
3 62 14 63
3 62 63 64
3 65 18 66
3 67 66 17
3 65 66 67
3 2 21 19
3 2 23 21
3 68 17 69
3 1 25 24
3 70 28 71
3 72 71 26
3 70 71 72
3 74 73 28
3 3 33 32
3 5 34 15
3 5 35 34
3 3 75 76
3 3 77 79
3 77 32 78
3 77 78 79
3 6 38 36
3 8 80 82
3 80 39 81
3 80 81 82
3 8 40 39
3 4 83 85
3 83 41 84
3 83 84 85
3 9 42 20
3 9 43 42
3 9 44 43
3 10 45 22
3 10 46 45
3 86 47 87
3 88 48 89
3 90 89 47
3 88 89 90
3 91 49 92
3 94 93 49
3 11 95 96
3 11 97 98
3 7 50 37
3 99 51 100
3 101 100 27
3 99 100 101
3 103 102 51
3 105 104 29
3 106 52 107
3 12 108 110
3 108 53 109
3 108 109 110
3 12 54 53
3 111 55 112
3 13 56 30
3 13 57 56
3 13 58 57
3 113 59 114
3 115 114 31
3 113 114 115
3 117 116 59
3 14 15 3
3 16 15 14
3 16 5 15
3 14 118 119
3 14 120 122
3 120 3 121
3 120 121 122
3 124 123 6
3 17 125 126
3 18 127 129
3 129 128 17
3 127 128 129
3 18 130 132
3 130 8 131
3 130 131 132
3 19 20 4
3 21 20 19
3 21 9 20
3 21 22 9
3 23 22 21
3 23 10 22
3 17 133 134
3 17 135 136
3 24 137 138
3 25 139 141
3 141 140 24
3 139 140 141
3 25 142 144
3 142 11 143
3 142 143 144
3 26 27 7
3 28 27 26
3 28 145 147
3 147 146 27
3 145 146 147
3 28 148 150
3 148 29 149
3 148 149 150
3 151 29 152
3 153 152 28
3 151 152 153
3 155 154 29
3 156 12 157
3 158 30 159
3 160 30 161
3 162 13 163
3 164 163 30
3 162 163 164
3 165 31 166
3 167 166 13
3 165 166 167
3 168 31 169
3 171 170 31
3 32 172 173
3 33 174 176
3 176 175 32
3 174 175 176
3 33 177 179
3 177 4 178
3 177 178 179
3 15 33 3
3 34 33 15
3 34 4 33
3 34 19 4
3 35 19 34
3 35 2 19
3 32 180 181
3 32 182 183
3 36 37 1
3 38 37 36
3 38 7 37
3 184 38 185
3 186 185 6
3 184 185 186
3 187 38 188
3 189 7 190
3 191 190 38
3 189 190 191
3 192 26 193
3 194 193 7
3 192 193 194
3 195 26 196
3 198 197 26
3 39 199 200
3 39 201 202
3 39 203 205
3 203 24 204
3 203 204 205
3 40 24 39
3 40 1 24
3 206 18 207
3 41 208 210
3 208 18 209
3 208 209 210
3 41 8 18
3 20 41 4
3 42 41 20
3 42 8 41
3 42 40 8
3 43 40 42
3 43 1 40
3 43 36 1
3 44 36 43
3 44 6 36
3 22 44 9
3 45 44 22
3 45 6 44
3 45 211 213
3 213 212 6
3 211 212 213
3 46 214 216
3 216 215 45
3 214 215 216
3 46 217 218
3 47 219 220
3 47 221 222
3 47 223 224
3 48 225 227
3 227 226 47
3 225 226 227
3 48 228 229
3 49 230 231
3 49 232 233
3 49 234 236
3 234 48 235
3 234 235 236
3 237 48 238
3 239 238 49
3 237 238 239
3 241 240 48
3 243 242 0
3 244 0 245
3 37 25 1
3 50 25 37
3 50 11 25
3 27 50 7
3 51 50 27
3 51 11 50
3 51 246 248
3 248 247 11
3 246 247 248
3 250 249 51
3 29 251 252
3 254 253 29
3 255 16 256
3 257 256 0
3 255 256 257
3 52 258 260
3 258 16 259
3 258 259 260
3 52 5 16
3 261 52 262
3 53 263 265
3 263 52 264
3 263 264 265
3 53 5 52
3 53 35 5
3 54 35 53
3 54 2 35
3 55 266 267
3 55 268 270
3 268 12 269
3 268 269 270
3 30 271 273
3 271 55 272
3 271 272 273
3 56 55 30
3 56 12 55
3 56 54 12
3 57 54 56
3 57 2 54
3 57 23 2
3 58 23 57
3 58 10 23
3 31 58 13
3 59 58 31
3 59 10 58
3 59 46 10
3 274 46 275
3 276 275 59
3 274 275 276
3 278 277 46
